<?xml version="1.0" encoding="us-ascii" standalone="no"?><svg xmlns="http://www.w3.org/2000/svg" xmlns:xlink="http://www.w3.org/1999/xlink" contentStyleType="text/css" height="1232px" preserveAspectRatio="none" style="width:2747px;height:1232px;background:#FFFFFF;" version="1.1" viewBox="0 0 2747 1232" width="2747px" zoomAndPan="magnify"><defs/><g><!--class CreateExamUI--><g id="elem_CreateExamUI"><rect codeLine="4" fill="#F1F1F1" height="85.2422" id="CreateExamUI" rx="2.5" ry="2.5" style="stroke:#181818;stroke-width:0.5;" width="562" x="633" y="260.5"/><ellipse cx="865.25" cy="276.5" fill="#ADD1B2" rx="11" ry="11" style="stroke:#181818;stroke-width:1.0;"/><path d="M868.0156,272.375 Q868.1719,272.1563 868.3594,272.0469 Q868.5469,271.9375 868.7656,271.9375 Q869.1406,271.9375 869.375,272.2031 Q869.6094,272.4531 869.6094,273.0625 L869.6094,274.5156 Q869.6094,275.125 869.375,275.3906 Q869.1406,275.6563 868.7656,275.6563 Q868.4219,275.6563 868.2188,275.4531 Q868.0156,275.2656 867.9063,274.75 Q867.8594,274.3906 867.6719,274.2031 Q867.3438,273.8281 866.7344,273.6094 Q866.125,273.3906 865.5,273.3906 Q864.7344,273.3906 864.0938,273.7188 Q863.4688,274.0469 862.9688,274.7969 Q862.4844,275.5469 862.4844,276.5781 L862.4844,277.6719 Q862.4844,278.9063 863.375,279.7344 Q864.2656,280.5469 865.8594,280.5469 Q866.7969,280.5469 867.4531,280.2969 Q867.8438,280.1406 868.2656,279.7031 Q868.5313,279.4375 868.6719,279.3594 Q868.8281,279.2813 869.0313,279.2813 Q869.3594,279.2813 869.6094,279.5469 Q869.875,279.7969 869.875,280.1406 Q869.875,280.4844 869.5313,280.8906 Q869.0313,281.4688 868.2344,281.7969 Q867.1563,282.25 865.8594,282.25 Q864.3438,282.25 863.1406,281.625 Q862.1563,281.125 861.4688,280.0625 Q860.7813,278.9844 860.7813,277.7031 L860.7813,276.5469 Q860.7813,275.2188 861.3906,274.0781 Q862.0156,272.9219 863.1094,272.3125 Q864.2031,271.6875 865.4375,271.6875 Q866.1719,271.6875 866.8125,271.8594 Q867.4688,272.0156 868.0156,272.375 Z " fill="#000000"/><text fill="#000000" font-family="sans-serif" font-size="14" lengthAdjust="spacing" textLength="89" x="885.75" y="282.2969">CreateExamUI</text><line style="stroke:#181818;stroke-width:0.5;" x1="634" x2="1194" y1="292.5" y2="292.5"/><line style="stroke:#181818;stroke-width:0.5;" x1="634" x2="1194" y1="300.5" y2="300.5"/><ellipse cx="644" cy="315.3105" fill="#84BE84" rx="3" ry="3" style="stroke:#038048;stroke-width:1.0;"/><text fill="#000000" font-family="sans-serif" font-size="14" lengthAdjust="spacing" textLength="132" x="653" y="319.6074">verifyExam(fileName)</text><ellipse cx="644" cy="333.9316" fill="#84BE84" rx="3" ry="3" style="stroke:#038048;stroke-width:1.0;"/><text fill="#000000" font-family="sans-serif" font-size="14" lengthAdjust="spacing" textLength="536" x="653" y="338.2285">createExam(examCode, title, courseCode, openDate, closeDate, fileName) : examDto</text></g><!--class CreateExamController--><g id="elem_CreateExamController"><rect codeLine="9" fill="#F1F1F1" height="122.4844" id="CreateExamController" rx="2.5" ry="2.5" style="stroke:#181818;stroke-width:0.5;" width="771" x="888.5" y="439"/><ellipse cx="1200.25" cy="455" fill="#ADD1B2" rx="11" ry="11" style="stroke:#181818;stroke-width:1.0;"/><path d="M1203.0156,450.875 Q1203.1719,450.6563 1203.3594,450.5469 Q1203.5469,450.4375 1203.7656,450.4375 Q1204.1406,450.4375 1204.375,450.7031 Q1204.6094,450.9531 1204.6094,451.5625 L1204.6094,453.0156 Q1204.6094,453.625 1204.375,453.8906 Q1204.1406,454.1563 1203.7656,454.1563 Q1203.4219,454.1563 1203.2188,453.9531 Q1203.0156,453.7656 1202.9063,453.25 Q1202.8594,452.8906 1202.6719,452.7031 Q1202.3438,452.3281 1201.7344,452.1094 Q1201.125,451.8906 1200.5,451.8906 Q1199.7344,451.8906 1199.0938,452.2188 Q1198.4688,452.5469 1197.9688,453.2969 Q1197.4844,454.0469 1197.4844,455.0781 L1197.4844,456.1719 Q1197.4844,457.4063 1198.375,458.2344 Q1199.2656,459.0469 1200.8594,459.0469 Q1201.7969,459.0469 1202.4531,458.7969 Q1202.8438,458.6406 1203.2656,458.2031 Q1203.5313,457.9375 1203.6719,457.8594 Q1203.8281,457.7813 1204.0313,457.7813 Q1204.3594,457.7813 1204.6094,458.0469 Q1204.875,458.2969 1204.875,458.6406 Q1204.875,458.9844 1204.5313,459.3906 Q1204.0313,459.9688 1203.2344,460.2969 Q1202.1563,460.75 1200.8594,460.75 Q1199.3438,460.75 1198.1406,460.125 Q1197.1563,459.625 1196.4688,458.5625 Q1195.7813,457.4844 1195.7813,456.2031 L1195.7813,455.0469 Q1195.7813,453.7188 1196.3906,452.5781 Q1197.0156,451.4219 1198.1094,450.8125 Q1199.2031,450.1875 1200.4375,450.1875 Q1201.1719,450.1875 1201.8125,450.3594 Q1202.4688,450.5156 1203.0156,450.875 Z " fill="#000000"/><text fill="#000000" font-family="sans-serif" font-size="14" lengthAdjust="spacing" textLength="139" x="1220.75" y="460.7969">CreateExamController</text><line style="stroke:#181818;stroke-width:0.5;" x1="889.5" x2="1658.5" y1="471" y2="471"/><ellipse cx="899.5" cy="485.8105" fill="#000000" rx="3" ry="3" style="stroke:#000000;stroke-width:1.0;"/><text fill="#000000" font-family="sans-serif" font-size="14" lengthAdjust="spacing" textLength="102" x="908.5" y="490.1074">ExamRepository</text><ellipse cx="899.5" cy="504.4316" fill="#000000" rx="3" ry="3" style="stroke:#000000;stroke-width:1.0;"/><text fill="#000000" font-family="sans-serif" font-size="14" lengthAdjust="spacing" textLength="117" x="908.5" y="508.7285">VerifyExamService</text><ellipse cx="899.5" cy="523.0527" fill="none" rx="3" ry="3" style="stroke:#038048;stroke-width:1.0;"/><text fill="#000000" font-family="sans-serif" font-size="14" lengthAdjust="spacing" textLength="68" x="908.5" y="527.3496">verifyExam</text><line style="stroke:#181818;stroke-width:0.5;" x1="889.5" x2="1658.5" y1="534.8633" y2="534.8633"/><ellipse cx="899.5" cy="549.6738" fill="#84BE84" rx="3" ry="3" style="stroke:#038048;stroke-width:1.0;"/><text fill="#000000" font-family="sans-serif" font-size="14" lengthAdjust="spacing" textLength="745" x="908.5" y="553.9707">createExam(String code, String title, String courseCode, String openDate, String closeDate, String filename) : examDto</text></g><!--class VerifyExamService--><g id="elem_VerifyExamService"><rect codeLine="16" fill="#F1F1F1" height="48" id="VerifyExamService" rx="2.5" ry="2.5" style="stroke:#181818;stroke-width:0.5;" width="149" x="1953.5" y="724"/><ellipse cx="1968.5" cy="740" fill="#ADD1B2" rx="11" ry="11" style="stroke:#181818;stroke-width:1.0;"/><path d="M1971.2656,735.875 Q1971.4219,735.6563 1971.6094,735.5469 Q1971.7969,735.4375 1972.0156,735.4375 Q1972.3906,735.4375 1972.625,735.7031 Q1972.8594,735.9531 1972.8594,736.5625 L1972.8594,738.0156 Q1972.8594,738.625 1972.625,738.8906 Q1972.3906,739.1563 1972.0156,739.1563 Q1971.6719,739.1563 1971.4688,738.9531 Q1971.2656,738.7656 1971.1563,738.25 Q1971.1094,737.8906 1970.9219,737.7031 Q1970.5938,737.3281 1969.9844,737.1094 Q1969.375,736.8906 1968.75,736.8906 Q1967.9844,736.8906 1967.3438,737.2188 Q1966.7188,737.5469 1966.2188,738.2969 Q1965.7344,739.0469 1965.7344,740.0781 L1965.7344,741.1719 Q1965.7344,742.4063 1966.625,743.2344 Q1967.5156,744.0469 1969.1094,744.0469 Q1970.0469,744.0469 1970.7031,743.7969 Q1971.0938,743.6406 1971.5156,743.2031 Q1971.7813,742.9375 1971.9219,742.8594 Q1972.0781,742.7813 1972.2813,742.7813 Q1972.6094,742.7813 1972.8594,743.0469 Q1973.125,743.2969 1973.125,743.6406 Q1973.125,743.9844 1972.7813,744.3906 Q1972.2813,744.9688 1971.4844,745.2969 Q1970.4063,745.75 1969.1094,745.75 Q1967.5938,745.75 1966.3906,745.125 Q1965.4063,744.625 1964.7188,743.5625 Q1964.0313,742.4844 1964.0313,741.2031 L1964.0313,740.0469 Q1964.0313,738.7188 1964.6406,737.5781 Q1965.2656,736.4219 1966.3594,735.8125 Q1967.4531,735.1875 1968.6875,735.1875 Q1969.4219,735.1875 1970.0625,735.3594 Q1970.7188,735.5156 1971.2656,735.875 Z " fill="#000000"/><text fill="#000000" font-family="sans-serif" font-size="14" lengthAdjust="spacing" textLength="117" x="1982.5" y="745.7969">VerifyExamService</text><line style="stroke:#181818;stroke-width:0.5;" x1="1954.5" x2="2101.5" y1="756" y2="756"/><line style="stroke:#181818;stroke-width:0.5;" x1="1954.5" x2="2101.5" y1="764" y2="764"/></g><!--class ExamDto--><g id="elem_ExamDto"><rect codeLine="20" fill="#F1F1F1" height="215.5898" id="ExamDto" rx="2.5" ry="2.5" style="stroke:#181818;stroke-width:0.5;" width="715" x="378.5" y="640"/><ellipse cx="703.75" cy="656" fill="#ADD1B2" rx="11" ry="11" style="stroke:#181818;stroke-width:1.0;"/><path d="M706.5156,651.875 Q706.6719,651.6563 706.8594,651.5469 Q707.0469,651.4375 707.2656,651.4375 Q707.6406,651.4375 707.875,651.7031 Q708.1094,651.9531 708.1094,652.5625 L708.1094,654.0156 Q708.1094,654.625 707.875,654.8906 Q707.6406,655.1563 707.2656,655.1563 Q706.9219,655.1563 706.7188,654.9531 Q706.5156,654.7656 706.4063,654.25 Q706.3594,653.8906 706.1719,653.7031 Q705.8438,653.3281 705.2344,653.1094 Q704.625,652.8906 704,652.8906 Q703.2344,652.8906 702.5938,653.2188 Q701.9688,653.5469 701.4688,654.2969 Q700.9844,655.0469 700.9844,656.0781 L700.9844,657.1719 Q700.9844,658.4063 701.875,659.2344 Q702.7656,660.0469 704.3594,660.0469 Q705.2969,660.0469 705.9531,659.7969 Q706.3438,659.6406 706.7656,659.2031 Q707.0313,658.9375 707.1719,658.8594 Q707.3281,658.7813 707.5313,658.7813 Q707.8594,658.7813 708.1094,659.0469 Q708.375,659.2969 708.375,659.6406 Q708.375,659.9844 708.0313,660.3906 Q707.5313,660.9688 706.7344,661.2969 Q705.6563,661.75 704.3594,661.75 Q702.8438,661.75 701.6406,661.125 Q700.6563,660.625 699.9688,659.5625 Q699.2813,658.4844 699.2813,657.2031 L699.2813,656.0469 Q699.2813,654.7188 699.8906,653.5781 Q700.5156,652.4219 701.6094,651.8125 Q702.7031,651.1875 703.9375,651.1875 Q704.6719,651.1875 705.3125,651.3594 Q705.9688,651.5156 706.5156,651.875 Z " fill="#000000"/><text fill="#000000" font-family="sans-serif" font-size="14" lengthAdjust="spacing" textLength="56" x="724.25" y="661.7969">ExamDto</text><line style="stroke:#181818;stroke-width:0.5;" x1="379.5" x2="1092.5" y1="672" y2="672"/><ellipse cx="389.5" cy="686.8105" fill="#000000" rx="3" ry="3" style="stroke:#000000;stroke-width:1.0;"/><text fill="#000000" font-family="sans-serif" font-size="14" lengthAdjust="spacing" textLength="31" x="398.5" y="691.1074">code</text><ellipse cx="389.5" cy="705.4316" fill="#000000" rx="3" ry="3" style="stroke:#000000;stroke-width:1.0;"/><text fill="#000000" font-family="sans-serif" font-size="14" lengthAdjust="spacing" textLength="35" x="398.5" y="709.7285">name</text><ellipse cx="389.5" cy="724.0527" fill="#000000" rx="3" ry="3" style="stroke:#000000;stroke-width:1.0;"/><text fill="#000000" font-family="sans-serif" font-size="14" lengthAdjust="spacing" textLength="69" x="398.5" y="728.3496">description</text><ellipse cx="389.5" cy="742.6738" fill="#000000" rx="3" ry="3" style="stroke:#000000;stroke-width:1.0;"/><text fill="#000000" font-family="sans-serif" font-size="14" lengthAdjust="spacing" textLength="80" x="398.5" y="746.9707">CourseCode</text><ellipse cx="389.5" cy="761.2949" fill="#000000" rx="3" ry="3" style="stroke:#000000;stroke-width:1.0;"/><text fill="#000000" font-family="sans-serif" font-size="14" lengthAdjust="spacing" textLength="62" x="398.5" y="765.5918">openDate</text><ellipse cx="389.5" cy="779.916" fill="#000000" rx="3" ry="3" style="stroke:#000000;stroke-width:1.0;"/><text fill="#000000" font-family="sans-serif" font-size="14" lengthAdjust="spacing" textLength="63" x="398.5" y="784.2129">closeDate</text><line style="stroke:#181818;stroke-width:0.5;" x1="379.5" x2="1092.5" y1="791.7266" y2="791.7266"/><ellipse cx="389.5" cy="806.5371" fill="#84BE84" rx="3" ry="3" style="stroke:#038048;stroke-width:1.0;"/><text fill="#000000" font-family="sans-serif" font-size="14" lengthAdjust="spacing" textLength="689" x="398.5" y="810.834">ExamDto(String code, String name, String description, String courseCode, String openDate, String closeDate)</text><ellipse cx="389.5" cy="825.1582" fill="#84BE84" rx="3" ry="3" style="stroke:#038048;stroke-width:1.0;"/><text fill="#000000" font-family="sans-serif" font-size="14" lengthAdjust="spacing" textLength="137" x="398.5" y="829.4551">ExamDto toDto(exam)</text><ellipse cx="389.5" cy="843.7793" fill="#84BE84" rx="3" ry="3" style="stroke:#038048;stroke-width:1.0;"/><text fill="#000000" font-family="sans-serif" font-size="14" lengthAdjust="spacing" textLength="59" x="398.5" y="848.0762">toString()</text></g><!--class SystemUser--><g id="elem_SystemUser"><rect codeLine="32" fill="#F1F1F1" height="113.7852" id="SystemUser" rx="2.5" ry="2.5" style="stroke:#181818;stroke-width:0.5;" width="107" x="2453.5" y="246"/><ellipse cx="2468.5" cy="276.2715" fill="#ADD1B2" rx="11" ry="11" style="stroke:#181818;stroke-width:1.0;"/><path d="M2471.2656,272.1465 Q2471.4219,271.9277 2471.6094,271.8184 Q2471.7969,271.709 2472.0156,271.709 Q2472.3906,271.709 2472.625,271.9746 Q2472.8594,272.2246 2472.8594,272.834 L2472.8594,274.2871 Q2472.8594,274.8965 2472.625,275.1621 Q2472.3906,275.4277 2472.0156,275.4277 Q2471.6719,275.4277 2471.4688,275.2246 Q2471.2656,275.0371 2471.1563,274.5215 Q2471.1094,274.1621 2470.9219,273.9746 Q2470.5938,273.5996 2469.9844,273.3809 Q2469.375,273.1621 2468.75,273.1621 Q2467.9844,273.1621 2467.3438,273.4902 Q2466.7188,273.8184 2466.2188,274.5684 Q2465.7344,275.3184 2465.7344,276.3496 L2465.7344,277.4434 Q2465.7344,278.6777 2466.625,279.5059 Q2467.5156,280.3184 2469.1094,280.3184 Q2470.0469,280.3184 2470.7031,280.0684 Q2471.0938,279.9121 2471.5156,279.4746 Q2471.7813,279.209 2471.9219,279.1309 Q2472.0781,279.0527 2472.2813,279.0527 Q2472.6094,279.0527 2472.8594,279.3184 Q2473.125,279.5684 2473.125,279.9121 Q2473.125,280.2559 2472.7813,280.6621 Q2472.2813,281.2402 2471.4844,281.5684 Q2470.4063,282.0215 2469.1094,282.0215 Q2467.5938,282.0215 2466.3906,281.3965 Q2465.4063,280.8965 2464.7188,279.834 Q2464.0313,278.7559 2464.0313,277.4746 L2464.0313,276.3184 Q2464.0313,274.9902 2464.6406,273.8496 Q2465.2656,272.6934 2466.3594,272.084 Q2467.4531,271.459 2468.6875,271.459 Q2469.4219,271.459 2470.0625,271.6309 Q2470.7188,271.7871 2471.2656,272.1465 Z " fill="#000000"/><text fill="#000000" font-family="sans-serif" font-size="12" font-style="italic" lengthAdjust="spacing" textLength="35" x="2502.5" y="263.9492">&#171;root&#187;</text><text fill="#000000" font-family="sans-serif" font-size="12" font-style="italic" lengthAdjust="spacing" textLength="44" x="2498" y="279.9102">&#171;Entity&#187;</text><text fill="#000000" font-family="sans-serif" font-size="14" lengthAdjust="spacing" textLength="75" x="2482.5" y="298.0293">SystemUser</text><line style="stroke:#181818;stroke-width:0.5;" x1="2454.5" x2="2559.5" y1="306.543" y2="306.543"/><ellipse cx="2464.5" cy="321.3535" fill="#000000" rx="3" ry="3" style="stroke:#000000;stroke-width:1.0;"/><text fill="#000000" font-family="sans-serif" font-size="14" lengthAdjust="spacing" textLength="36" x="2473.5" y="325.6504">Name</text><ellipse cx="2464.5" cy="339.9746" fill="#000000" rx="3" ry="3" style="stroke:#000000;stroke-width:1.0;"/><text fill="#000000" font-family="sans-serif" font-size="14" lengthAdjust="spacing" textLength="64" x="2473.5" y="344.2715">Username</text><line style="stroke:#181818;stroke-width:0.5;" x1="2454.5" x2="2559.5" y1="351.7852" y2="351.7852"/></g><!--class eCourseSystemUser--><g id="elem_eCourseSystemUser"><rect codeLine="37" fill="#F1F1F1" height="76.543" id="eCourseSystemUser" rx="2.5" ry="2.5" style="stroke:#181818;stroke-width:0.5;" width="161" x="1628.5" y="48.5"/><ellipse cx="1643.5" cy="78.7715" fill="#ADD1B2" rx="11" ry="11" style="stroke:#181818;stroke-width:1.0;"/><path d="M1646.2656,74.6465 Q1646.4219,74.4277 1646.6094,74.3184 Q1646.7969,74.209 1647.0156,74.209 Q1647.3906,74.209 1647.625,74.4746 Q1647.8594,74.7246 1647.8594,75.334 L1647.8594,76.7871 Q1647.8594,77.3965 1647.625,77.6621 Q1647.3906,77.9277 1647.0156,77.9277 Q1646.6719,77.9277 1646.4688,77.7246 Q1646.2656,77.5371 1646.1563,77.0215 Q1646.1094,76.6621 1645.9219,76.4746 Q1645.5938,76.0996 1644.9844,75.8809 Q1644.375,75.6621 1643.75,75.6621 Q1642.9844,75.6621 1642.3438,75.9902 Q1641.7188,76.3184 1641.2188,77.0684 Q1640.7344,77.8184 1640.7344,78.8496 L1640.7344,79.9434 Q1640.7344,81.1777 1641.625,82.0059 Q1642.5156,82.8184 1644.1094,82.8184 Q1645.0469,82.8184 1645.7031,82.5684 Q1646.0938,82.4121 1646.5156,81.9746 Q1646.7813,81.709 1646.9219,81.6309 Q1647.0781,81.5527 1647.2813,81.5527 Q1647.6094,81.5527 1647.8594,81.8184 Q1648.125,82.0684 1648.125,82.4121 Q1648.125,82.7559 1647.7813,83.1621 Q1647.2813,83.7402 1646.4844,84.0684 Q1645.4063,84.5215 1644.1094,84.5215 Q1642.5938,84.5215 1641.3906,83.8965 Q1640.4063,83.3965 1639.7188,82.334 Q1639.0313,81.2559 1639.0313,79.9746 L1639.0313,78.8184 Q1639.0313,77.4902 1639.6406,76.3496 Q1640.2656,75.1934 1641.3594,74.584 Q1642.4531,73.959 1643.6875,73.959 Q1644.4219,73.959 1645.0625,74.1309 Q1645.7188,74.2871 1646.2656,74.6465 Z " fill="#000000"/><text fill="#000000" font-family="sans-serif" font-size="12" font-style="italic" lengthAdjust="spacing" textLength="35" x="1704.5" y="66.4492">&#171;root&#187;</text><text fill="#000000" font-family="sans-serif" font-size="12" font-style="italic" lengthAdjust="spacing" textLength="44" x="1700" y="82.4102">&#171;Entity&#187;</text><text fill="#000000" font-family="sans-serif" font-size="14" lengthAdjust="spacing" textLength="129" x="1657.5" y="100.5293">eCourseSystemUser</text><line style="stroke:#181818;stroke-width:0.5;" x1="1629.5" x2="1788.5" y1="109.043" y2="109.043"/><line style="stroke:#181818;stroke-width:0.5;" x1="1629.5" x2="1788.5" y1="117.043" y2="117.043"/></g><!--class EmailAdderss--><g id="elem_EmailAdderss"><rect codeLine="41" fill="#F1F1F1" height="60.582" id="EmailAdderss" rx="2.5" ry="2.5" style="stroke:#181818;stroke-width:0.5;" width="118" x="2622" y="469.5"/><ellipse cx="2637" cy="491.791" fill="#ADD1B2" rx="11" ry="11" style="stroke:#181818;stroke-width:1.0;"/><path d="M2639.7656,487.666 Q2639.9219,487.4473 2640.1094,487.3379 Q2640.2969,487.2285 2640.5156,487.2285 Q2640.8906,487.2285 2641.125,487.4941 Q2641.3594,487.7441 2641.3594,488.3535 L2641.3594,489.8066 Q2641.3594,490.416 2641.125,490.6816 Q2640.8906,490.9473 2640.5156,490.9473 Q2640.1719,490.9473 2639.9688,490.7441 Q2639.7656,490.5566 2639.6563,490.041 Q2639.6094,489.6816 2639.4219,489.4941 Q2639.0938,489.1191 2638.4844,488.9004 Q2637.875,488.6816 2637.25,488.6816 Q2636.4844,488.6816 2635.8438,489.0098 Q2635.2188,489.3379 2634.7188,490.0879 Q2634.2344,490.8379 2634.2344,491.8691 L2634.2344,492.9629 Q2634.2344,494.1973 2635.125,495.0254 Q2636.0156,495.8379 2637.6094,495.8379 Q2638.5469,495.8379 2639.2031,495.5879 Q2639.5938,495.4316 2640.0156,494.9941 Q2640.2813,494.7285 2640.4219,494.6504 Q2640.5781,494.5723 2640.7813,494.5723 Q2641.1094,494.5723 2641.3594,494.8379 Q2641.625,495.0879 2641.625,495.4316 Q2641.625,495.7754 2641.2813,496.1816 Q2640.7813,496.7598 2639.9844,497.0879 Q2638.9063,497.541 2637.6094,497.541 Q2636.0938,497.541 2634.8906,496.916 Q2633.9063,496.416 2633.2188,495.3535 Q2632.5313,494.2754 2632.5313,492.9941 L2632.5313,491.8379 Q2632.5313,490.5098 2633.1406,489.3691 Q2633.7656,488.2129 2634.8594,487.6035 Q2635.9531,486.9785 2637.1875,486.9785 Q2637.9219,486.9785 2638.5625,487.1504 Q2639.2188,487.3066 2639.7656,487.666 Z " fill="#000000"/><text fill="#000000" font-family="sans-serif" font-size="12" font-style="italic" lengthAdjust="spacing" textLength="83" x="2652.5" y="487.4492">&#171;Value object&#187;</text><text fill="#000000" font-family="sans-serif" font-size="14" lengthAdjust="spacing" textLength="86" x="2651" y="505.5684">EmailAdderss</text><line style="stroke:#181818;stroke-width:0.5;" x1="2623" x2="2739" y1="514.082" y2="514.082"/><line style="stroke:#181818;stroke-width:0.5;" x1="2623" x2="2739" y1="522.082" y2="522.082"/></g><!--class Role--><g id="elem_Role"><rect codeLine="43" fill="#F1F1F1" height="79.2031" id="Role" rx="2.5" ry="2.5" style="stroke:#181818;stroke-width:0.5;" width="102" x="2340" y="460.5"/><ellipse cx="2368.5" cy="482.791" fill="#ADD1B2" rx="11" ry="11" style="stroke:#181818;stroke-width:1.0;"/><path d="M2371.2656,478.666 Q2371.4219,478.4473 2371.6094,478.3379 Q2371.7969,478.2285 2372.0156,478.2285 Q2372.3906,478.2285 2372.625,478.4941 Q2372.8594,478.7441 2372.8594,479.3535 L2372.8594,480.8066 Q2372.8594,481.416 2372.625,481.6816 Q2372.3906,481.9473 2372.0156,481.9473 Q2371.6719,481.9473 2371.4688,481.7441 Q2371.2656,481.5566 2371.1563,481.041 Q2371.1094,480.6816 2370.9219,480.4941 Q2370.5938,480.1191 2369.9844,479.9004 Q2369.375,479.6816 2368.75,479.6816 Q2367.9844,479.6816 2367.3438,480.0098 Q2366.7188,480.3379 2366.2188,481.0879 Q2365.7344,481.8379 2365.7344,482.8691 L2365.7344,483.9629 Q2365.7344,485.1973 2366.625,486.0254 Q2367.5156,486.8379 2369.1094,486.8379 Q2370.0469,486.8379 2370.7031,486.5879 Q2371.0938,486.4316 2371.5156,485.9941 Q2371.7813,485.7285 2371.9219,485.6504 Q2372.0781,485.5723 2372.2813,485.5723 Q2372.6094,485.5723 2372.8594,485.8379 Q2373.125,486.0879 2373.125,486.4316 Q2373.125,486.7754 2372.7813,487.1816 Q2372.2813,487.7598 2371.4844,488.0879 Q2370.4063,488.541 2369.1094,488.541 Q2367.5938,488.541 2366.3906,487.916 Q2365.4063,487.416 2364.7188,486.3535 Q2364.0313,485.2754 2364.0313,483.9941 L2364.0313,482.8379 Q2364.0313,481.5098 2364.6406,480.3691 Q2365.2656,479.2129 2366.3594,478.6035 Q2367.4531,477.9785 2368.6875,477.9785 Q2369.4219,477.9785 2370.0625,478.1504 Q2370.7188,478.3066 2371.2656,478.666 Z " fill="#000000"/><text fill="#000000" font-family="sans-serif" font-size="12" font-style="italic" lengthAdjust="spacing" textLength="44" x="2383.5" y="478.4492">&#171;Entity&#187;</text><text fill="#000000" font-family="sans-serif" font-size="14" lengthAdjust="spacing" textLength="29" x="2391" y="496.5684">Role</text><line style="stroke:#181818;stroke-width:0.5;" x1="2341" x2="2441" y1="505.082" y2="505.082"/><ellipse cx="2351" cy="519.8926" fill="#000000" rx="3" ry="3" style="stroke:#000000;stroke-width:1.0;"/><text fill="#000000" font-family="sans-serif" font-size="14" lengthAdjust="spacing" textLength="76" x="2360" y="524.1895">String name</text><line style="stroke:#181818;stroke-width:0.5;" x1="2341" x2="2441" y1="531.7031" y2="531.7031"/></g><!--class UserStatus--><g id="elem_UserStatus"><rect codeLine="47" fill="#F1F1F1" height="97.8242" id="UserStatus" rx="2.5" ry="2.5" style="stroke:#181818;stroke-width:0.5;" width="101" x="1230.5" y="254"/><ellipse cx="1245.5" cy="276.291" fill="#ADD1B2" rx="11" ry="11" style="stroke:#181818;stroke-width:1.0;"/><path d="M1248.2656,272.166 Q1248.4219,271.9473 1248.6094,271.8379 Q1248.7969,271.7285 1249.0156,271.7285 Q1249.3906,271.7285 1249.625,271.9941 Q1249.8594,272.2441 1249.8594,272.8535 L1249.8594,274.3066 Q1249.8594,274.916 1249.625,275.1816 Q1249.3906,275.4473 1249.0156,275.4473 Q1248.6719,275.4473 1248.4688,275.2441 Q1248.2656,275.0566 1248.1563,274.541 Q1248.1094,274.1816 1247.9219,273.9941 Q1247.5938,273.6191 1246.9844,273.4004 Q1246.375,273.1816 1245.75,273.1816 Q1244.9844,273.1816 1244.3438,273.5098 Q1243.7188,273.8379 1243.2188,274.5879 Q1242.7344,275.3379 1242.7344,276.3691 L1242.7344,277.4629 Q1242.7344,278.6973 1243.625,279.5254 Q1244.5156,280.3379 1246.1094,280.3379 Q1247.0469,280.3379 1247.7031,280.0879 Q1248.0938,279.9316 1248.5156,279.4941 Q1248.7813,279.2285 1248.9219,279.1504 Q1249.0781,279.0723 1249.2813,279.0723 Q1249.6094,279.0723 1249.8594,279.3379 Q1250.125,279.5879 1250.125,279.9316 Q1250.125,280.2754 1249.7813,280.6816 Q1249.2813,281.2598 1248.4844,281.5879 Q1247.4063,282.041 1246.1094,282.041 Q1244.5938,282.041 1243.3906,281.416 Q1242.4063,280.916 1241.7188,279.8535 Q1241.0313,278.7754 1241.0313,277.4941 L1241.0313,276.3379 Q1241.0313,275.0098 1241.6406,273.8691 Q1242.2656,272.7129 1243.3594,272.1035 Q1244.4531,271.4785 1245.6875,271.4785 Q1246.4219,271.4785 1247.0625,271.6504 Q1247.7188,271.8066 1248.2656,272.166 Z " fill="#000000"/><text fill="#000000" font-family="sans-serif" font-size="12" font-style="italic" lengthAdjust="spacing" textLength="46" x="1271" y="271.9492">&#171;enum&#187;</text><text fill="#000000" font-family="sans-serif" font-size="14" lengthAdjust="spacing" textLength="69" x="1259.5" y="290.0684">UserStatus</text><line style="stroke:#181818;stroke-width:0.5;" x1="1231.5" x2="1330.5" y1="298.582" y2="298.582"/><ellipse cx="1241.5" cy="313.3926" fill="none" rx="3" ry="3" style="stroke:#038048;stroke-width:1.0;"/><text fill="#000000" font-family="sans-serif" font-size="14" lengthAdjust="spacing" textLength="53" x="1250.5" y="317.6895">ENABLE</text><ellipse cx="1241.5" cy="332.0137" fill="none" rx="3" ry="3" style="stroke:#038048;stroke-width:1.0;"/><text fill="#000000" font-family="sans-serif" font-size="14" lengthAdjust="spacing" textLength="57" x="1250.5" y="336.3105">DISABLE</text><line style="stroke:#181818;stroke-width:0.5;" x1="1231.5" x2="1330.5" y1="343.8242" y2="343.8242"/></g><!--class Password--><g id="elem_Password"><rect codeLine="52" fill="#F1F1F1" height="60.582" id="Password" rx="2.5" ry="2.5" style="stroke:#181818;stroke-width:0.5;" width="109" x="2477.5" y="469.5"/><ellipse cx="2492.5" cy="491.791" fill="#ADD1B2" rx="11" ry="11" style="stroke:#181818;stroke-width:1.0;"/><path d="M2495.2656,487.666 Q2495.4219,487.4473 2495.6094,487.3379 Q2495.7969,487.2285 2496.0156,487.2285 Q2496.3906,487.2285 2496.625,487.4941 Q2496.8594,487.7441 2496.8594,488.3535 L2496.8594,489.8066 Q2496.8594,490.416 2496.625,490.6816 Q2496.3906,490.9473 2496.0156,490.9473 Q2495.6719,490.9473 2495.4688,490.7441 Q2495.2656,490.5566 2495.1563,490.041 Q2495.1094,489.6816 2494.9219,489.4941 Q2494.5938,489.1191 2493.9844,488.9004 Q2493.375,488.6816 2492.75,488.6816 Q2491.9844,488.6816 2491.3438,489.0098 Q2490.7188,489.3379 2490.2188,490.0879 Q2489.7344,490.8379 2489.7344,491.8691 L2489.7344,492.9629 Q2489.7344,494.1973 2490.625,495.0254 Q2491.5156,495.8379 2493.1094,495.8379 Q2494.0469,495.8379 2494.7031,495.5879 Q2495.0938,495.4316 2495.5156,494.9941 Q2495.7813,494.7285 2495.9219,494.6504 Q2496.0781,494.5723 2496.2813,494.5723 Q2496.6094,494.5723 2496.8594,494.8379 Q2497.125,495.0879 2497.125,495.4316 Q2497.125,495.7754 2496.7813,496.1816 Q2496.2813,496.7598 2495.4844,497.0879 Q2494.4063,497.541 2493.1094,497.541 Q2491.5938,497.541 2490.3906,496.916 Q2489.4063,496.416 2488.7188,495.3535 Q2488.0313,494.2754 2488.0313,492.9941 L2488.0313,491.8379 Q2488.0313,490.5098 2488.6406,489.3691 Q2489.2656,488.2129 2490.3594,487.6035 Q2491.4531,486.9785 2492.6875,486.9785 Q2493.4219,486.9785 2494.0625,487.1504 Q2494.7188,487.3066 2495.2656,487.666 Z " fill="#000000"/><text fill="#000000" font-family="sans-serif" font-size="12" font-style="italic" lengthAdjust="spacing" textLength="81" x="2504.5" y="487.4492">&#171;value object&#187;</text><text fill="#000000" font-family="sans-serif" font-size="14" lengthAdjust="spacing" textLength="61" x="2514.5" y="505.5684">Password</text><line style="stroke:#181818;stroke-width:0.5;" x1="2478.5" x2="2585.5" y1="514.082" y2="514.082"/><line style="stroke:#181818;stroke-width:0.5;" x1="2478.5" x2="2585.5" y1="522.082" y2="522.082"/></g><!--class Acronym--><g id="elem_Acronym"><rect codeLine="54" fill="#F1F1F1" height="60.582" id="Acronym" rx="2.5" ry="2.5" style="stroke:#181818;stroke-width:0.5;" width="109" x="1366.5" y="272.5"/><ellipse cx="1381.5" cy="294.791" fill="#ADD1B2" rx="11" ry="11" style="stroke:#181818;stroke-width:1.0;"/><path d="M1384.2656,290.666 Q1384.4219,290.4473 1384.6094,290.3379 Q1384.7969,290.2285 1385.0156,290.2285 Q1385.3906,290.2285 1385.625,290.4941 Q1385.8594,290.7441 1385.8594,291.3535 L1385.8594,292.8066 Q1385.8594,293.416 1385.625,293.6816 Q1385.3906,293.9473 1385.0156,293.9473 Q1384.6719,293.9473 1384.4688,293.7441 Q1384.2656,293.5566 1384.1563,293.041 Q1384.1094,292.6816 1383.9219,292.4941 Q1383.5938,292.1191 1382.9844,291.9004 Q1382.375,291.6816 1381.75,291.6816 Q1380.9844,291.6816 1380.3438,292.0098 Q1379.7188,292.3379 1379.2188,293.0879 Q1378.7344,293.8379 1378.7344,294.8691 L1378.7344,295.9629 Q1378.7344,297.1973 1379.625,298.0254 Q1380.5156,298.8379 1382.1094,298.8379 Q1383.0469,298.8379 1383.7031,298.5879 Q1384.0938,298.4316 1384.5156,297.9941 Q1384.7813,297.7285 1384.9219,297.6504 Q1385.0781,297.5723 1385.2813,297.5723 Q1385.6094,297.5723 1385.8594,297.8379 Q1386.125,298.0879 1386.125,298.4316 Q1386.125,298.7754 1385.7813,299.1816 Q1385.2813,299.7598 1384.4844,300.0879 Q1383.4063,300.541 1382.1094,300.541 Q1380.5938,300.541 1379.3906,299.916 Q1378.4063,299.416 1377.7188,298.3535 Q1377.0313,297.2754 1377.0313,295.9941 L1377.0313,294.8379 Q1377.0313,293.5098 1377.6406,292.3691 Q1378.2656,291.2129 1379.3594,290.6035 Q1380.4531,289.9785 1381.6875,289.9785 Q1382.4219,289.9785 1383.0625,290.1504 Q1383.7188,290.3066 1384.2656,290.666 Z " fill="#000000"/><text fill="#000000" font-family="sans-serif" font-size="12" font-style="italic" lengthAdjust="spacing" textLength="81" x="1393.5" y="290.4492">&#171;value object&#187;</text><text fill="#000000" font-family="sans-serif" font-size="14" lengthAdjust="spacing" textLength="55" x="1406.5" y="308.5684">Acronym</text><line style="stroke:#181818;stroke-width:0.5;" x1="1367.5" x2="1474.5" y1="317.082" y2="317.082"/><line style="stroke:#181818;stroke-width:0.5;" x1="1367.5" x2="1474.5" y1="325.082" y2="325.082"/></g><!--class NIF--><g id="elem_NIF"><rect codeLine="56" fill="#F1F1F1" height="60.582" id="NIF" rx="2.5" ry="2.5" style="stroke:#181818;stroke-width:0.5;" width="109" x="1510.5" y="272.5"/><ellipse cx="1525.5" cy="294.791" fill="#ADD1B2" rx="11" ry="11" style="stroke:#181818;stroke-width:1.0;"/><path d="M1528.2656,290.666 Q1528.4219,290.4473 1528.6094,290.3379 Q1528.7969,290.2285 1529.0156,290.2285 Q1529.3906,290.2285 1529.625,290.4941 Q1529.8594,290.7441 1529.8594,291.3535 L1529.8594,292.8066 Q1529.8594,293.416 1529.625,293.6816 Q1529.3906,293.9473 1529.0156,293.9473 Q1528.6719,293.9473 1528.4688,293.7441 Q1528.2656,293.5566 1528.1563,293.041 Q1528.1094,292.6816 1527.9219,292.4941 Q1527.5938,292.1191 1526.9844,291.9004 Q1526.375,291.6816 1525.75,291.6816 Q1524.9844,291.6816 1524.3438,292.0098 Q1523.7188,292.3379 1523.2188,293.0879 Q1522.7344,293.8379 1522.7344,294.8691 L1522.7344,295.9629 Q1522.7344,297.1973 1523.625,298.0254 Q1524.5156,298.8379 1526.1094,298.8379 Q1527.0469,298.8379 1527.7031,298.5879 Q1528.0938,298.4316 1528.5156,297.9941 Q1528.7813,297.7285 1528.9219,297.6504 Q1529.0781,297.5723 1529.2813,297.5723 Q1529.6094,297.5723 1529.8594,297.8379 Q1530.125,298.0879 1530.125,298.4316 Q1530.125,298.7754 1529.7813,299.1816 Q1529.2813,299.7598 1528.4844,300.0879 Q1527.4063,300.541 1526.1094,300.541 Q1524.5938,300.541 1523.3906,299.916 Q1522.4063,299.416 1521.7188,298.3535 Q1521.0313,297.2754 1521.0313,295.9941 L1521.0313,294.8379 Q1521.0313,293.5098 1521.6406,292.3691 Q1522.2656,291.2129 1523.3594,290.6035 Q1524.4531,289.9785 1525.6875,289.9785 Q1526.4219,289.9785 1527.0625,290.1504 Q1527.7188,290.3066 1528.2656,290.666 Z " fill="#000000"/><text fill="#000000" font-family="sans-serif" font-size="12" font-style="italic" lengthAdjust="spacing" textLength="81" x="1537.5" y="290.4492">&#171;value object&#187;</text><text fill="#000000" font-family="sans-serif" font-size="14" lengthAdjust="spacing" textLength="21" x="1567.5" y="308.5684">NIF</text><line style="stroke:#181818;stroke-width:0.5;" x1="1511.5" x2="1618.5" y1="317.082" y2="317.082"/><line style="stroke:#181818;stroke-width:0.5;" x1="1511.5" x2="1618.5" y1="325.082" y2="325.082"/></g><!--class BirthDate--><g id="elem_BirthDate"><rect codeLine="58" fill="#F1F1F1" height="60.582" id="BirthDate" rx="2.5" ry="2.5" style="stroke:#181818;stroke-width:0.5;" width="109" x="1654.5" y="272.5"/><ellipse cx="1669.5" cy="294.791" fill="#ADD1B2" rx="11" ry="11" style="stroke:#181818;stroke-width:1.0;"/><path d="M1672.2656,290.666 Q1672.4219,290.4473 1672.6094,290.3379 Q1672.7969,290.2285 1673.0156,290.2285 Q1673.3906,290.2285 1673.625,290.4941 Q1673.8594,290.7441 1673.8594,291.3535 L1673.8594,292.8066 Q1673.8594,293.416 1673.625,293.6816 Q1673.3906,293.9473 1673.0156,293.9473 Q1672.6719,293.9473 1672.4688,293.7441 Q1672.2656,293.5566 1672.1563,293.041 Q1672.1094,292.6816 1671.9219,292.4941 Q1671.5938,292.1191 1670.9844,291.9004 Q1670.375,291.6816 1669.75,291.6816 Q1668.9844,291.6816 1668.3438,292.0098 Q1667.7188,292.3379 1667.2188,293.0879 Q1666.7344,293.8379 1666.7344,294.8691 L1666.7344,295.9629 Q1666.7344,297.1973 1667.625,298.0254 Q1668.5156,298.8379 1670.1094,298.8379 Q1671.0469,298.8379 1671.7031,298.5879 Q1672.0938,298.4316 1672.5156,297.9941 Q1672.7813,297.7285 1672.9219,297.6504 Q1673.0781,297.5723 1673.2813,297.5723 Q1673.6094,297.5723 1673.8594,297.8379 Q1674.125,298.0879 1674.125,298.4316 Q1674.125,298.7754 1673.7813,299.1816 Q1673.2813,299.7598 1672.4844,300.0879 Q1671.4063,300.541 1670.1094,300.541 Q1668.5938,300.541 1667.3906,299.916 Q1666.4063,299.416 1665.7188,298.3535 Q1665.0313,297.2754 1665.0313,295.9941 L1665.0313,294.8379 Q1665.0313,293.5098 1665.6406,292.3691 Q1666.2656,291.2129 1667.3594,290.6035 Q1668.4531,289.9785 1669.6875,289.9785 Q1670.4219,289.9785 1671.0625,290.1504 Q1671.7188,290.3066 1672.2656,290.666 Z " fill="#000000"/><text fill="#000000" font-family="sans-serif" font-size="12" font-style="italic" lengthAdjust="spacing" textLength="81" x="1681.5" y="290.4492">&#171;value object&#187;</text><text fill="#000000" font-family="sans-serif" font-size="14" lengthAdjust="spacing" textLength="59" x="1692.5" y="308.5684">BirthDate</text><line style="stroke:#181818;stroke-width:0.5;" x1="1655.5" x2="1762.5" y1="317.082" y2="317.082"/><line style="stroke:#181818;stroke-width:0.5;" x1="1655.5" x2="1762.5" y1="325.082" y2="325.082"/></g><!--class MechanographicNumber--><g id="elem_MechanographicNumber"><rect codeLine="60" fill="#F1F1F1" height="76.543" id="MechanographicNumber" rx="2.5" ry="2.5" style="stroke:#181818;stroke-width:0.5;" width="186" x="1799" y="264.5"/><ellipse cx="1814" cy="294.7715" fill="#ADD1B2" rx="11" ry="11" style="stroke:#181818;stroke-width:1.0;"/><path d="M1816.7656,290.6465 Q1816.9219,290.4277 1817.1094,290.3184 Q1817.2969,290.209 1817.5156,290.209 Q1817.8906,290.209 1818.125,290.4746 Q1818.3594,290.7246 1818.3594,291.334 L1818.3594,292.7871 Q1818.3594,293.3965 1818.125,293.6621 Q1817.8906,293.9277 1817.5156,293.9277 Q1817.1719,293.9277 1816.9688,293.7246 Q1816.7656,293.5371 1816.6563,293.0215 Q1816.6094,292.6621 1816.4219,292.4746 Q1816.0938,292.0996 1815.4844,291.8809 Q1814.875,291.6621 1814.25,291.6621 Q1813.4844,291.6621 1812.8438,291.9902 Q1812.2188,292.3184 1811.7188,293.0684 Q1811.2344,293.8184 1811.2344,294.8496 L1811.2344,295.9434 Q1811.2344,297.1777 1812.125,298.0059 Q1813.0156,298.8184 1814.6094,298.8184 Q1815.5469,298.8184 1816.2031,298.5684 Q1816.5938,298.4121 1817.0156,297.9746 Q1817.2813,297.709 1817.4219,297.6309 Q1817.5781,297.5527 1817.7813,297.5527 Q1818.1094,297.5527 1818.3594,297.8184 Q1818.625,298.0684 1818.625,298.4121 Q1818.625,298.7559 1818.2813,299.1621 Q1817.7813,299.7402 1816.9844,300.0684 Q1815.9063,300.5215 1814.6094,300.5215 Q1813.0938,300.5215 1811.8906,299.8965 Q1810.9063,299.3965 1810.2188,298.334 Q1809.5313,297.2559 1809.5313,295.9746 L1809.5313,294.8184 Q1809.5313,293.4902 1810.1406,292.3496 Q1810.7656,291.1934 1811.8594,290.584 Q1812.9531,289.959 1814.1875,289.959 Q1814.9219,289.959 1815.5625,290.1309 Q1816.2188,290.2871 1816.7656,290.6465 Z " fill="#000000"/><text fill="#000000" font-family="sans-serif" font-size="12" font-style="italic" lengthAdjust="spacing" textLength="81" x="1864.5" y="282.4492">&#171;value object&#187;</text><text fill="#000000" font-family="sans-serif" font-size="12" font-style="italic" lengthAdjust="spacing" textLength="146" x="1832" y="298.4102">&#171;automatically generated&#187;</text><text fill="#000000" font-family="sans-serif" font-size="14" lengthAdjust="spacing" textLength="154" x="1828" y="316.5293">MechanographicNumber</text><line style="stroke:#181818;stroke-width:0.5;" x1="1800" x2="1984" y1="325.043" y2="325.043"/><line style="stroke:#181818;stroke-width:0.5;" x1="1800" x2="1984" y1="333.043" y2="333.043"/></g><!--class Grade--><g id="elem_Grade"><rect codeLine="62" fill="#F1F1F1" height="60.582" id="Grade" rx="2.5" ry="2.5" style="stroke:#181818;stroke-width:0.5;" width="109" x="451.5" y="272.5"/><ellipse cx="466.5" cy="294.791" fill="#ADD1B2" rx="11" ry="11" style="stroke:#181818;stroke-width:1.0;"/><path d="M469.2656,290.666 Q469.4219,290.4473 469.6094,290.3379 Q469.7969,290.2285 470.0156,290.2285 Q470.3906,290.2285 470.625,290.4941 Q470.8594,290.7441 470.8594,291.3535 L470.8594,292.8066 Q470.8594,293.416 470.625,293.6816 Q470.3906,293.9473 470.0156,293.9473 Q469.6719,293.9473 469.4688,293.7441 Q469.2656,293.5566 469.1563,293.041 Q469.1094,292.6816 468.9219,292.4941 Q468.5938,292.1191 467.9844,291.9004 Q467.375,291.6816 466.75,291.6816 Q465.9844,291.6816 465.3438,292.0098 Q464.7188,292.3379 464.2188,293.0879 Q463.7344,293.8379 463.7344,294.8691 L463.7344,295.9629 Q463.7344,297.1973 464.625,298.0254 Q465.5156,298.8379 467.1094,298.8379 Q468.0469,298.8379 468.7031,298.5879 Q469.0938,298.4316 469.5156,297.9941 Q469.7813,297.7285 469.9219,297.6504 Q470.0781,297.5723 470.2813,297.5723 Q470.6094,297.5723 470.8594,297.8379 Q471.125,298.0879 471.125,298.4316 Q471.125,298.7754 470.7813,299.1816 Q470.2813,299.7598 469.4844,300.0879 Q468.4063,300.541 467.1094,300.541 Q465.5938,300.541 464.3906,299.916 Q463.4063,299.416 462.7188,298.3535 Q462.0313,297.2754 462.0313,295.9941 L462.0313,294.8379 Q462.0313,293.5098 462.6406,292.3691 Q463.2656,291.2129 464.3594,290.6035 Q465.4531,289.9785 466.6875,289.9785 Q467.4219,289.9785 468.0625,290.1504 Q468.7188,290.3066 469.2656,290.666 Z " fill="#000000"/><text fill="#000000" font-family="sans-serif" font-size="12" font-style="italic" lengthAdjust="spacing" textLength="81" x="478.5" y="290.4492">&#171;value object&#187;</text><text fill="#000000" font-family="sans-serif" font-size="14" lengthAdjust="spacing" textLength="40" x="499" y="308.5684">Grade</text><line style="stroke:#181818;stroke-width:0.5;" x1="452.5" x2="559.5" y1="317.082" y2="317.082"/><line style="stroke:#181818;stroke-width:0.5;" x1="452.5" x2="559.5" y1="325.082" y2="325.082"/></g><!--class Course--><g id="elem_Course"><rect codeLine="64" fill="#F1F1F1" height="159.7266" id="Course" rx="2.5" ry="2.5" style="stroke:#181818;stroke-width:0.5;" width="515" x="67.5" y="7"/><ellipse cx="297.75" cy="23" fill="#ADD1B2" rx="11" ry="11" style="stroke:#181818;stroke-width:1.0;"/><path d="M300.5156,18.875 Q300.6719,18.6563 300.8594,18.5469 Q301.0469,18.4375 301.2656,18.4375 Q301.6406,18.4375 301.875,18.7031 Q302.1094,18.9531 302.1094,19.5625 L302.1094,21.0156 Q302.1094,21.625 301.875,21.8906 Q301.6406,22.1563 301.2656,22.1563 Q300.9219,22.1563 300.7188,21.9531 Q300.5156,21.7656 300.4063,21.25 Q300.3594,20.8906 300.1719,20.7031 Q299.8438,20.3281 299.2344,20.1094 Q298.625,19.8906 298,19.8906 Q297.2344,19.8906 296.5938,20.2188 Q295.9688,20.5469 295.4688,21.2969 Q294.9844,22.0469 294.9844,23.0781 L294.9844,24.1719 Q294.9844,25.4063 295.875,26.2344 Q296.7656,27.0469 298.3594,27.0469 Q299.2969,27.0469 299.9531,26.7969 Q300.3438,26.6406 300.7656,26.2031 Q301.0313,25.9375 301.1719,25.8594 Q301.3281,25.7813 301.5313,25.7813 Q301.8594,25.7813 302.1094,26.0469 Q302.375,26.2969 302.375,26.6406 Q302.375,26.9844 302.0313,27.3906 Q301.5313,27.9688 300.7344,28.2969 Q299.6563,28.75 298.3594,28.75 Q296.8438,28.75 295.6406,28.125 Q294.6563,27.625 293.9688,26.5625 Q293.2813,25.4844 293.2813,24.2031 L293.2813,23.0469 Q293.2813,21.7188 293.8906,20.5781 Q294.5156,19.4219 295.6094,18.8125 Q296.7031,18.1875 297.9375,18.1875 Q298.6719,18.1875 299.3125,18.3594 Q299.9688,18.5156 300.5156,18.875 Z " fill="#000000"/><text fill="#000000" font-family="sans-serif" font-size="14" lengthAdjust="spacing" textLength="46" x="318.25" y="28.7969">Course</text><line style="stroke:#181818;stroke-width:0.5;" x1="68.5" x2="581.5" y1="39" y2="39"/><ellipse cx="78.5" cy="53.8105" fill="#000000" rx="3" ry="3" style="stroke:#000000;stroke-width:1.0;"/><text fill="#000000" font-family="sans-serif" font-size="14" lengthAdjust="spacing" textLength="30" x="87.5" y="58.1074">int id</text><ellipse cx="78.5" cy="72.4316" fill="#000000" rx="3" ry="3" style="stroke:#000000;stroke-width:1.0;"/><text fill="#000000" font-family="sans-serif" font-size="14" lengthAdjust="spacing" textLength="35" x="87.5" y="76.7285">name</text><ellipse cx="78.5" cy="91.0527" fill="#000000" rx="3" ry="3" style="stroke:#000000;stroke-width:1.0;"/><text fill="#000000" font-family="sans-serif" font-size="14" lengthAdjust="spacing" textLength="128" x="87.5" y="95.3496">CourseStatus status</text><ellipse cx="78.5" cy="109.6738" fill="#000000" rx="3" ry="3" style="stroke:#000000;stroke-width:1.0;"/><text fill="#000000" font-family="sans-serif" font-size="14" lengthAdjust="spacing" textLength="69" x="87.5" y="113.9707">Code code</text><ellipse cx="78.5" cy="128.2949" fill="#000000" rx="3" ry="3" style="stroke:#000000;stroke-width:1.0;"/><text fill="#000000" font-family="sans-serif" font-size="14" lengthAdjust="spacing" textLength="98" x="87.5" y="132.5918">Teacher regent</text><line style="stroke:#181818;stroke-width:0.5;" x1="68.5" x2="581.5" y1="140.1055" y2="140.1055"/><ellipse cx="78.5" cy="154.916" fill="#84BE84" rx="3" ry="3" style="stroke:#038048;stroke-width:1.0;"/><text fill="#000000" font-family="sans-serif" font-size="14" lengthAdjust="spacing" textLength="489" x="87.5" y="159.2129">Course(int id, String name, CourseStatus status, Code code, Teacher regent)</text></g><!--class Exam--><g id="elem_Exam"><rect codeLine="73" fill="#F1F1F1" height="132.4063" id="Exam" rx="2.5" ry="2.5" style="stroke:#181818;stroke-width:0.5;" width="111" x="1972.5" y="917"/><ellipse cx="2005.05" cy="947.2715" fill="#ADD1B2" rx="11" ry="11" style="stroke:#181818;stroke-width:1.0;"/><path d="M2007.8156,943.1465 Q2007.9719,942.9277 2008.1594,942.8184 Q2008.3469,942.709 2008.5656,942.709 Q2008.9406,942.709 2009.175,942.9746 Q2009.4094,943.2246 2009.4094,943.834 L2009.4094,945.2871 Q2009.4094,945.8965 2009.175,946.1621 Q2008.9406,946.4277 2008.5656,946.4277 Q2008.2219,946.4277 2008.0188,946.2246 Q2007.8156,946.0371 2007.7063,945.5215 Q2007.6594,945.1621 2007.4719,944.9746 Q2007.1438,944.5996 2006.5344,944.3809 Q2005.925,944.1621 2005.3,944.1621 Q2004.5344,944.1621 2003.8938,944.4902 Q2003.2688,944.8184 2002.7688,945.5684 Q2002.2844,946.3184 2002.2844,947.3496 L2002.2844,948.4434 Q2002.2844,949.6777 2003.175,950.5059 Q2004.0656,951.3184 2005.6594,951.3184 Q2006.5969,951.3184 2007.2531,951.0684 Q2007.6438,950.9121 2008.0656,950.4746 Q2008.3313,950.209 2008.4719,950.1309 Q2008.6281,950.0527 2008.8313,950.0527 Q2009.1594,950.0527 2009.4094,950.3184 Q2009.675,950.5684 2009.675,950.9121 Q2009.675,951.2559 2009.3313,951.6621 Q2008.8313,952.2402 2008.0344,952.5684 Q2006.9563,953.0215 2005.6594,953.0215 Q2004.1438,953.0215 2002.9406,952.3965 Q2001.9563,951.8965 2001.2688,950.834 Q2000.5813,949.7559 2000.5813,948.4746 L2000.5813,947.3184 Q2000.5813,945.9902 2001.1906,944.8496 Q2001.8156,943.6934 2002.9094,943.084 Q2004.0031,942.459 2005.2375,942.459 Q2005.9719,942.459 2006.6125,942.6309 Q2007.2688,942.7871 2007.8156,943.1465 Z " fill="#000000"/><text fill="#000000" font-family="sans-serif" font-size="12" font-style="italic" lengthAdjust="spacing" textLength="35" x="2025.45" y="934.9492">&#171;root&#187;</text><text fill="#000000" font-family="sans-serif" font-size="12" font-style="italic" lengthAdjust="spacing" textLength="44" x="2020.95" y="950.9102">&#171;event&#187;</text><text fill="#000000" font-family="sans-serif" font-size="14" lengthAdjust="spacing" textLength="34" x="2025.95" y="969.0293">Exam</text><line style="stroke:#181818;stroke-width:0.5;" x1="1973.5" x2="2082.5" y1="977.543" y2="977.543"/><ellipse cx="1983.5" cy="992.3535" fill="#000000" rx="3" ry="3" style="stroke:#000000;stroke-width:1.0;"/><text fill="#000000" font-family="sans-serif" font-size="14" lengthAdjust="spacing" textLength="85" x="1992.5" y="996.6504">title &#171;unique&#187;</text><ellipse cx="1983.5" cy="1010.9746" fill="#000000" rx="3" ry="3" style="stroke:#000000;stroke-width:1.0;"/><text fill="#000000" font-family="sans-serif" font-size="14" lengthAdjust="spacing" textLength="62" x="1992.5" y="1015.2715">openDate</text><ellipse cx="1983.5" cy="1029.5957" fill="#000000" rx="3" ry="3" style="stroke:#000000;stroke-width:1.0;"/><text fill="#000000" font-family="sans-serif" font-size="14" lengthAdjust="spacing" textLength="63" x="1992.5" y="1033.8926">closeDate</text><line style="stroke:#181818;stroke-width:0.5;" x1="1973.5" x2="2082.5" y1="1041.4063" y2="1041.4063"/></g><!--class ExamGrade--><g id="elem_ExamGrade"><rect codeLine="79" fill="#F1F1F1" height="97.8242" id="ExamGrade" rx="2.5" ry="2.5" style="stroke:#181818;stroke-width:0.5;" width="206" x="2059" y="1128"/><ellipse cx="2119.25" cy="1150.291" fill="#ADD1B2" rx="11" ry="11" style="stroke:#181818;stroke-width:1.0;"/><path d="M2122.0156,1146.166 Q2122.1719,1145.9473 2122.3594,1145.8379 Q2122.5469,1145.7285 2122.7656,1145.7285 Q2123.1406,1145.7285 2123.375,1145.9941 Q2123.6094,1146.2441 2123.6094,1146.8535 L2123.6094,1148.3066 Q2123.6094,1148.916 2123.375,1149.1816 Q2123.1406,1149.4473 2122.7656,1149.4473 Q2122.4219,1149.4473 2122.2188,1149.2441 Q2122.0156,1149.0566 2121.9063,1148.541 Q2121.8594,1148.1816 2121.6719,1147.9941 Q2121.3438,1147.6191 2120.7344,1147.4004 Q2120.125,1147.1816 2119.5,1147.1816 Q2118.7344,1147.1816 2118.0938,1147.5098 Q2117.4688,1147.8379 2116.9688,1148.5879 Q2116.4844,1149.3379 2116.4844,1150.3691 L2116.4844,1151.4629 Q2116.4844,1152.6973 2117.375,1153.5254 Q2118.2656,1154.3379 2119.8594,1154.3379 Q2120.7969,1154.3379 2121.4531,1154.0879 Q2121.8438,1153.9316 2122.2656,1153.4941 Q2122.5313,1153.2285 2122.6719,1153.1504 Q2122.8281,1153.0723 2123.0313,1153.0723 Q2123.3594,1153.0723 2123.6094,1153.3379 Q2123.875,1153.5879 2123.875,1153.9316 Q2123.875,1154.2754 2123.5313,1154.6816 Q2123.0313,1155.2598 2122.2344,1155.5879 Q2121.1563,1156.041 2119.8594,1156.041 Q2118.3438,1156.041 2117.1406,1155.416 Q2116.1563,1154.916 2115.4688,1153.8535 Q2114.7813,1152.7754 2114.7813,1151.4941 L2114.7813,1150.3379 Q2114.7813,1149.0098 2115.3906,1147.8691 Q2116.0156,1146.7129 2117.1094,1146.1035 Q2118.2031,1145.4785 2119.4375,1145.4785 Q2120.1719,1145.4785 2120.8125,1145.6504 Q2121.4688,1145.8066 2122.0156,1146.166 Z " fill="#000000"/><text fill="#000000" font-family="sans-serif" font-size="12" font-style="italic" lengthAdjust="spacing" textLength="81" x="2137.75" y="1145.9492">&#171;value object&#187;</text><text fill="#000000" font-family="sans-serif" font-size="14" lengthAdjust="spacing" textLength="74" x="2141.25" y="1164.0684">ExamGrade</text><line style="stroke:#181818;stroke-width:0.5;" x1="2060" x2="2264" y1="1172.582" y2="1172.582"/><ellipse cx="2070" cy="1187.3926" fill="#000000" rx="3" ry="3" style="stroke:#000000;stroke-width:1.0;"/><text fill="#000000" font-family="sans-serif" font-size="14" lengthAdjust="spacing" textLength="56" x="2079" y="1191.6895">int grade</text><ellipse cx="2070" cy="1206.0137" fill="#000000" rx="3" ry="3" style="stroke:#000000;stroke-width:1.0;"/><text fill="#000000" font-family="sans-serif" font-size="14" lengthAdjust="spacing" textLength="180" x="2079" y="1210.3105">eCourseSystemUser student</text><line style="stroke:#181818;stroke-width:0.5;" x1="2060" x2="2264" y1="1217.8242" y2="1217.8242"/></g><!--class RepositoryFactory--><g id="elem_RepositoryFactory"><rect codeLine="84" fill="#F1F1F1" height="48" id="RepositoryFactory" rx="2.5" ry="2.5" style="stroke:#181818;stroke-width:0.5;" width="148" x="1200" y="724"/><ellipse cx="1215" cy="740" fill="#ADD1B2" rx="11" ry="11" style="stroke:#181818;stroke-width:1.0;"/><path d="M1217.7656,735.875 Q1217.9219,735.6563 1218.1094,735.5469 Q1218.2969,735.4375 1218.5156,735.4375 Q1218.8906,735.4375 1219.125,735.7031 Q1219.3594,735.9531 1219.3594,736.5625 L1219.3594,738.0156 Q1219.3594,738.625 1219.125,738.8906 Q1218.8906,739.1563 1218.5156,739.1563 Q1218.1719,739.1563 1217.9688,738.9531 Q1217.7656,738.7656 1217.6563,738.25 Q1217.6094,737.8906 1217.4219,737.7031 Q1217.0938,737.3281 1216.4844,737.1094 Q1215.875,736.8906 1215.25,736.8906 Q1214.4844,736.8906 1213.8438,737.2188 Q1213.2188,737.5469 1212.7188,738.2969 Q1212.2344,739.0469 1212.2344,740.0781 L1212.2344,741.1719 Q1212.2344,742.4063 1213.125,743.2344 Q1214.0156,744.0469 1215.6094,744.0469 Q1216.5469,744.0469 1217.2031,743.7969 Q1217.5938,743.6406 1218.0156,743.2031 Q1218.2813,742.9375 1218.4219,742.8594 Q1218.5781,742.7813 1218.7813,742.7813 Q1219.1094,742.7813 1219.3594,743.0469 Q1219.625,743.2969 1219.625,743.6406 Q1219.625,743.9844 1219.2813,744.3906 Q1218.7813,744.9688 1217.9844,745.2969 Q1216.9063,745.75 1215.6094,745.75 Q1214.0938,745.75 1212.8906,745.125 Q1211.9063,744.625 1211.2188,743.5625 Q1210.5313,742.4844 1210.5313,741.2031 L1210.5313,740.0469 Q1210.5313,738.7188 1211.1406,737.5781 Q1211.7656,736.4219 1212.8594,735.8125 Q1213.9531,735.1875 1215.1875,735.1875 Q1215.9219,735.1875 1216.5625,735.3594 Q1217.2188,735.5156 1217.7656,735.875 Z " fill="#000000"/><text fill="#000000" font-family="sans-serif" font-size="14" lengthAdjust="spacing" textLength="116" x="1229" y="745.7969">RepositoryFactory</text><line style="stroke:#181818;stroke-width:0.5;" x1="1201" x2="1347" y1="756" y2="756"/><line style="stroke:#181818;stroke-width:0.5;" x1="1201" x2="1347" y1="764" y2="764"/></g><!--class ExamRepository--><g id="elem_ExamRepository"><rect codeLine="88" fill="#F1F1F1" height="122.4844" id="ExamRepository" rx="2.5" ry="2.5" style="stroke:#181818;stroke-width:0.5;" width="231" x="1383.5" y="687"/><ellipse cx="1443.75" cy="703" fill="#ADD1B2" rx="11" ry="11" style="stroke:#181818;stroke-width:1.0;"/><path d="M1446.5156,698.875 Q1446.6719,698.6563 1446.8594,698.5469 Q1447.0469,698.4375 1447.2656,698.4375 Q1447.6406,698.4375 1447.875,698.7031 Q1448.1094,698.9531 1448.1094,699.5625 L1448.1094,701.0156 Q1448.1094,701.625 1447.875,701.8906 Q1447.6406,702.1563 1447.2656,702.1563 Q1446.9219,702.1563 1446.7188,701.9531 Q1446.5156,701.7656 1446.4063,701.25 Q1446.3594,700.8906 1446.1719,700.7031 Q1445.8438,700.3281 1445.2344,700.1094 Q1444.625,699.8906 1444,699.8906 Q1443.2344,699.8906 1442.5938,700.2188 Q1441.9688,700.5469 1441.4688,701.2969 Q1440.9844,702.0469 1440.9844,703.0781 L1440.9844,704.1719 Q1440.9844,705.4063 1441.875,706.2344 Q1442.7656,707.0469 1444.3594,707.0469 Q1445.2969,707.0469 1445.9531,706.7969 Q1446.3438,706.6406 1446.7656,706.2031 Q1447.0313,705.9375 1447.1719,705.8594 Q1447.3281,705.7813 1447.5313,705.7813 Q1447.8594,705.7813 1448.1094,706.0469 Q1448.375,706.2969 1448.375,706.6406 Q1448.375,706.9844 1448.0313,707.3906 Q1447.5313,707.9688 1446.7344,708.2969 Q1445.6563,708.75 1444.3594,708.75 Q1442.8438,708.75 1441.6406,708.125 Q1440.6563,707.625 1439.9688,706.5625 Q1439.2813,705.4844 1439.2813,704.2031 L1439.2813,703.0469 Q1439.2813,701.7188 1439.8906,700.5781 Q1440.5156,699.4219 1441.6094,698.8125 Q1442.7031,698.1875 1443.9375,698.1875 Q1444.6719,698.1875 1445.3125,698.3594 Q1445.9688,698.5156 1446.5156,698.875 Z " fill="#000000"/><text fill="#000000" font-family="sans-serif" font-size="14" lengthAdjust="spacing" textLength="102" x="1464.25" y="708.7969">ExamRepository</text><line style="stroke:#181818;stroke-width:0.5;" x1="1384.5" x2="1613.5" y1="719" y2="719"/><line style="stroke:#181818;stroke-width:0.5;" x1="1384.5" x2="1613.5" y1="727" y2="727"/><ellipse cx="1394.5" cy="741.8105" fill="#84BE84" rx="3" ry="3" style="stroke:#038048;stroke-width:1.0;"/><text fill="#000000" font-family="sans-serif" font-size="14" lengthAdjust="spacing" textLength="144" x="1403.5" y="746.1074">addExam(Exam: Exam)</text><ellipse cx="1394.5" cy="760.4316" fill="#84BE84" rx="3" ry="3" style="stroke:#038048;stroke-width:1.0;"/><text fill="#000000" font-family="sans-serif" font-size="14" lengthAdjust="spacing" textLength="167" x="1403.5" y="764.7285">removeExam(Exam: Exam)</text><ellipse cx="1394.5" cy="779.0527" fill="#84BE84" rx="3" ry="3" style="stroke:#038048;stroke-width:1.0;"/><text fill="#000000" font-family="sans-serif" font-size="14" lengthAdjust="spacing" textLength="205" x="1403.5" y="783.3496">searchExam(Exam: Exam): Exam</text><ellipse cx="1394.5" cy="797.6738" fill="#84BE84" rx="3" ry="3" style="stroke:#038048;stroke-width:1.0;"/><text fill="#000000" font-family="sans-serif" font-size="14" lengthAdjust="spacing" textLength="165" x="1403.5" y="801.9707">totalNumberOfExams(): int</text></g><!--class ExamReadFile--><g id="elem_ExamReadFile"><rect codeLine="95" fill="#F1F1F1" height="66.6211" id="ExamReadFile" rx="2.5" ry="2.5" style="stroke:#181818;stroke-width:0.5;" width="269" x="1649.5" y="714.5"/><ellipse cx="1734.25" cy="730.5" fill="#ADD1B2" rx="11" ry="11" style="stroke:#181818;stroke-width:1.0;"/><path d="M1737.0156,726.375 Q1737.1719,726.1563 1737.3594,726.0469 Q1737.5469,725.9375 1737.7656,725.9375 Q1738.1406,725.9375 1738.375,726.2031 Q1738.6094,726.4531 1738.6094,727.0625 L1738.6094,728.5156 Q1738.6094,729.125 1738.375,729.3906 Q1738.1406,729.6563 1737.7656,729.6563 Q1737.4219,729.6563 1737.2188,729.4531 Q1737.0156,729.2656 1736.9063,728.75 Q1736.8594,728.3906 1736.6719,728.2031 Q1736.3438,727.8281 1735.7344,727.6094 Q1735.125,727.3906 1734.5,727.3906 Q1733.7344,727.3906 1733.0938,727.7188 Q1732.4688,728.0469 1731.9688,728.7969 Q1731.4844,729.5469 1731.4844,730.5781 L1731.4844,731.6719 Q1731.4844,732.9063 1732.375,733.7344 Q1733.2656,734.5469 1734.8594,734.5469 Q1735.7969,734.5469 1736.4531,734.2969 Q1736.8438,734.1406 1737.2656,733.7031 Q1737.5313,733.4375 1737.6719,733.3594 Q1737.8281,733.2813 1738.0313,733.2813 Q1738.3594,733.2813 1738.6094,733.5469 Q1738.875,733.7969 1738.875,734.1406 Q1738.875,734.4844 1738.5313,734.8906 Q1738.0313,735.4688 1737.2344,735.7969 Q1736.1563,736.25 1734.8594,736.25 Q1733.3438,736.25 1732.1406,735.625 Q1731.1563,735.125 1730.4688,734.0625 Q1729.7813,732.9844 1729.7813,731.7031 L1729.7813,730.5469 Q1729.7813,729.2188 1730.3906,728.0781 Q1731.0156,726.9219 1732.1094,726.3125 Q1733.2031,725.6875 1734.4375,725.6875 Q1735.1719,725.6875 1735.8125,725.8594 Q1736.4688,726.0156 1737.0156,726.375 Z " fill="#000000"/><text fill="#000000" font-family="sans-serif" font-size="14" lengthAdjust="spacing" textLength="91" x="1754.75" y="736.2969">ExamReadFile</text><line style="stroke:#181818;stroke-width:0.5;" x1="1650.5" x2="1917.5" y1="746.5" y2="746.5"/><line style="stroke:#181818;stroke-width:0.5;" x1="1650.5" x2="1917.5" y1="754.5" y2="754.5"/><ellipse cx="1660.5" cy="769.3105" fill="#84BE84" rx="3" ry="3" style="stroke:#038048;stroke-width:1.0;"/><text fill="#000000" font-family="sans-serif" font-size="14" lengthAdjust="spacing" textLength="243" x="1669.5" y="773.6074">FileToString(String path) : List&lt;String&gt;</text></g><!--class CourseStatus--><g id="elem_CourseStatus"><rect fill="#F1F1F1" height="48" id="CourseStatus" rx="2.5" ry="2.5" style="stroke:#181818;stroke-width:0.5;" width="118" x="154" y="279"/><ellipse cx="169" cy="295" fill="#ADD1B2" rx="11" ry="11" style="stroke:#181818;stroke-width:1.0;"/><path d="M171.7656,290.875 Q171.9219,290.6563 172.1094,290.5469 Q172.2969,290.4375 172.5156,290.4375 Q172.8906,290.4375 173.125,290.7031 Q173.3594,290.9531 173.3594,291.5625 L173.3594,293.0156 Q173.3594,293.625 173.125,293.8906 Q172.8906,294.1563 172.5156,294.1563 Q172.1719,294.1563 171.9688,293.9531 Q171.7656,293.7656 171.6563,293.25 Q171.6094,292.8906 171.4219,292.7031 Q171.0938,292.3281 170.4844,292.1094 Q169.875,291.8906 169.25,291.8906 Q168.4844,291.8906 167.8438,292.2188 Q167.2188,292.5469 166.7188,293.2969 Q166.2344,294.0469 166.2344,295.0781 L166.2344,296.1719 Q166.2344,297.4063 167.125,298.2344 Q168.0156,299.0469 169.6094,299.0469 Q170.5469,299.0469 171.2031,298.7969 Q171.5938,298.6406 172.0156,298.2031 Q172.2813,297.9375 172.4219,297.8594 Q172.5781,297.7813 172.7813,297.7813 Q173.1094,297.7813 173.3594,298.0469 Q173.625,298.2969 173.625,298.6406 Q173.625,298.9844 173.2813,299.3906 Q172.7813,299.9688 171.9844,300.2969 Q170.9063,300.75 169.6094,300.75 Q168.0938,300.75 166.8906,300.125 Q165.9063,299.625 165.2188,298.5625 Q164.5313,297.4844 164.5313,296.2031 L164.5313,295.0469 Q164.5313,293.7188 165.1406,292.5781 Q165.7656,291.4219 166.8594,290.8125 Q167.9531,290.1875 169.1875,290.1875 Q169.9219,290.1875 170.5625,290.3594 Q171.2188,290.5156 171.7656,290.875 Z " fill="#000000"/><text fill="#000000" font-family="sans-serif" font-size="14" lengthAdjust="spacing" textLength="86" x="183" y="300.7969">CourseStatus</text><line style="stroke:#181818;stroke-width:0.5;" x1="155" x2="271" y1="311" y2="311"/><line style="stroke:#181818;stroke-width:0.5;" x1="155" x2="271" y1="319" y2="319"/></g><!--class CourseCode--><g id="elem_CourseCode"><rect fill="#F1F1F1" height="48" id="CourseCode" rx="2.5" ry="2.5" style="stroke:#181818;stroke-width:0.5;" width="112" x="7" y="279"/><ellipse cx="22" cy="295" fill="#ADD1B2" rx="11" ry="11" style="stroke:#181818;stroke-width:1.0;"/><path d="M24.7656,290.875 Q24.9219,290.6563 25.1094,290.5469 Q25.2969,290.4375 25.5156,290.4375 Q25.8906,290.4375 26.125,290.7031 Q26.3594,290.9531 26.3594,291.5625 L26.3594,293.0156 Q26.3594,293.625 26.125,293.8906 Q25.8906,294.1563 25.5156,294.1563 Q25.1719,294.1563 24.9688,293.9531 Q24.7656,293.7656 24.6563,293.25 Q24.6094,292.8906 24.4219,292.7031 Q24.0938,292.3281 23.4844,292.1094 Q22.875,291.8906 22.25,291.8906 Q21.4844,291.8906 20.8438,292.2188 Q20.2188,292.5469 19.7188,293.2969 Q19.2344,294.0469 19.2344,295.0781 L19.2344,296.1719 Q19.2344,297.4063 20.125,298.2344 Q21.0156,299.0469 22.6094,299.0469 Q23.5469,299.0469 24.2031,298.7969 Q24.5938,298.6406 25.0156,298.2031 Q25.2813,297.9375 25.4219,297.8594 Q25.5781,297.7813 25.7813,297.7813 Q26.1094,297.7813 26.3594,298.0469 Q26.625,298.2969 26.625,298.6406 Q26.625,298.9844 26.2813,299.3906 Q25.7813,299.9688 24.9844,300.2969 Q23.9063,300.75 22.6094,300.75 Q21.0938,300.75 19.8906,300.125 Q18.9063,299.625 18.2188,298.5625 Q17.5313,297.4844 17.5313,296.2031 L17.5313,295.0469 Q17.5313,293.7188 18.1406,292.5781 Q18.7656,291.4219 19.8594,290.8125 Q20.9531,290.1875 22.1875,290.1875 Q22.9219,290.1875 23.5625,290.3594 Q24.2188,290.5156 24.7656,290.875 Z " fill="#000000"/><text fill="#000000" font-family="sans-serif" font-size="14" lengthAdjust="spacing" textLength="80" x="36" y="300.7969">CourseCode</text><line style="stroke:#181818;stroke-width:0.5;" x1="8" x2="118" y1="311" y2="311"/><line style="stroke:#181818;stroke-width:0.5;" x1="8" x2="118" y1="319" y2="319"/></g><!--link SystemUser to EmailAdderss--><g id="link_SystemUser_EmailAdderss"><path codeLine="101" d="M2557.09,360.14 C2587.55,394.27 2625.42,436.71 2651.22,465.63 " fill="none" id="SystemUser-to-EmailAdderss" style="stroke:#181818;stroke-width:1.0;"/><polygon fill="#181818" points="2654.62,469.44,2651.6103,460.0623,2651.2902,465.7101,2645.6424,465.3899,2654.62,469.44" style="stroke:#181818;stroke-width:1.0;"/><text fill="#000000" font-family="sans-serif" font-size="13" lengthAdjust="spacing" textLength="7" x="2641.0838" y="458.0015">1</text></g><!--link SystemUser to Password--><g id="link_SystemUser_Password"><path codeLine="102" d="M2514.2,360.14 C2518.5,393.72 2523.84,435.33 2527.54,464.2 " fill="none" id="SystemUser-to-Password" style="stroke:#181818;stroke-width:1.0;"/><polygon fill="#181818" points="2528.21,469.44,2531.0461,460.0083,2527.581,464.4797,2523.1096,461.0147,2528.21,469.44" style="stroke:#181818;stroke-width:1.0;"/><text fill="#000000" font-family="sans-serif" font-size="13" lengthAdjust="spacing" textLength="7" x="2519.6153" y="458.0015">1</text></g><!--link SystemUser to Role--><g id="link_SystemUser_Role"><path codeLine="103" d="M2473.6,360.14 C2455.5,390.58 2433.46,427.62 2416.71,455.78 " fill="none" id="SystemUser-to-Role" style="stroke:#181818;stroke-width:1.0;"/><polygon fill="#181818" points="2414.06,460.23,2422.0842,454.5193,2416.6051,455.9262,2415.1981,450.4471,2414.06,460.23" style="stroke:#181818;stroke-width:1.0;"/><text fill="#000000" font-family="sans-serif" font-size="13" lengthAdjust="spacing" textLength="7" x="2410.2996" y="449.2709">1</text></g><!--link eCourseSystemUser to SystemUser--><g id="link_eCourseSystemUser_SystemUser"><path codeLine="105" d="M1789.51,94.44 C1948.18,108.15 2295.06,143.39 2401,197 C2422.59,207.93 2442.55,224.86 2459.18,241.97 " fill="none" id="eCourseSystemUser-to-SystemUser" style="stroke:#181818;stroke-width:1.0;"/><polygon fill="#181818" points="2462.89,245.85,2459.5596,236.5813,2459.4339,242.2368,2453.7784,242.1111,2462.89,245.85" style="stroke:#181818;stroke-width:1.0;"/><text fill="#000000" font-family="sans-serif" font-size="13" lengthAdjust="spacing" textLength="7" x="2450.0875" y="234.9081">1</text></g><!--link eCourseSystemUser to Role--><g id="link_eCourseSystemUser_Role"><path codeLine="106" d="M1789.61,92 C1936.16,100.92 2238.08,127.45 2313,197 C2385.42,264.24 2394.23,389.08 2393.31,455.23 " fill="none" id="eCourseSystemUser-to-Role" style="stroke:#181818;stroke-width:1.0;"/><polygon fill="#181818" points="2393.22,460.28,2397.3992,451.3618,2393.32,455.281,2389.4008,451.2018,2393.22,460.28" style="stroke:#181818;stroke-width:1.0;"/><text fill="#000000" font-family="sans-serif" font-size="13" lengthAdjust="spacing" textLength="7" x="2386.008" y="449.3292">1</text></g><!--link eCourseSystemUser to UserStatus--><g id="link_eCourseSystemUser_UserStatus"><path codeLine="107" d="M1628.28,116.1 C1553.18,143.91 1439.56,190.32 1349,246 C1344.7,248.64 1340.38,251.54 1336.11,254.57 " fill="none" id="eCourseSystemUser-to-UserStatus" style="stroke:#181818;stroke-width:1.0;"/><polygon fill="#181818" points="1331.87,257.65,1341.5039,255.6035,1335.9174,254.7142,1336.8067,249.1277,1331.87,257.65" style="stroke:#181818;stroke-width:1.0;"/><text fill="#000000" font-family="sans-serif" font-size="13" lengthAdjust="spacing" textLength="7" x="1339.5158" y="247.1385">1</text></g><!--link eCourseSystemUser to Acronym--><g id="link_eCourseSystemUser_Acronym"><path codeLine="108" d="M1656.75,125.56 C1612.8,157.31 1548.45,204.17 1493,246 C1483.16,253.43 1472.64,261.52 1462.77,269.18 " fill="none" id="eCourseSystemUser-to-Acronym" style="stroke:#181818;stroke-width:1.0;"/><polygon fill="#181818" points="1458.58,272.44,1468.1423,270.0815,1462.5298,269.3742,1463.2371,263.7618,1458.58,272.44" style="stroke:#181818;stroke-width:1.0;"/><text fill="#000000" font-family="sans-serif" font-size="13" lengthAdjust="spacing" textLength="7" x="1459.035" y="261.0015">1</text></g><!--link eCourseSystemUser to NIF--><g id="link_eCourseSystemUser_NIF"><path codeLine="109" d="M1683.59,125.77 C1656.59,165.89 1614.27,228.78 1588.16,267.58 " fill="none" id="eCourseSystemUser-to-NIF" style="stroke:#181818;stroke-width:1.0;"/><polygon fill="#181818" points="1585.06,272.19,1593.4013,266.9534,1587.85,268.0408,1586.7626,262.4894,1585.06,272.19" style="stroke:#181818;stroke-width:1.0;"/><text fill="#000000" font-family="sans-serif" font-size="13" lengthAdjust="spacing" textLength="7" x="1581.4755" y="261.1837">1</text></g><!--link eCourseSystemUser to BirthDate--><g id="link_eCourseSystemUser_BirthDate"><path codeLine="110" d="M1709,125.77 C1709,165.73 1709,228.27 1709,267.11 " fill="none" id="eCourseSystemUser-to-BirthDate" style="stroke:#181818;stroke-width:1.0;"/><polygon fill="#181818" points="1709,272.19,1713,263.19,1709,267.19,1705,263.19,1709,272.19" style="stroke:#181818;stroke-width:1.0;"/><text fill="#000000" font-family="sans-serif" font-size="13" lengthAdjust="spacing" textLength="7" x="1701.2781" y="261.1837">1</text></g><!--link eCourseSystemUser to MechanographicNumber--><g id="link_eCourseSystemUser_MechanographicNumber"><path codeLine="111" d="M1741.3,125.77 C1773.47,163.39 1822.76,221.03 1856.14,260.06 " fill="none" id="eCourseSystemUser-to-MechanographicNumber" style="stroke:#181818;stroke-width:1.0;"/><polygon fill="#181818" points="1859.72,264.25,1856.8999,254.8135,1856.466,260.4537,1850.8259,260.0199,1859.72,264.25" style="stroke:#181818;stroke-width:1.0;"/><text fill="#000000" font-family="sans-serif" font-size="13" lengthAdjust="spacing" textLength="7" x="1846.5703" y="253.2215">1</text></g><!--link eCourseSystemUser to Grade--><g id="link_eCourseSystemUser_Grade"><path codeLine="112" d="M1628.38,90.57 C1444.42,98.38 981.31,129.06 615,246 C596.29,251.97 576.9,260.92 559.75,269.92 " fill="none" id="eCourseSystemUser-to-Grade" style="stroke:#181818;stroke-width:1.0;"/><polygon fill="#181818" points="554.98,272.46,564.8049,271.7739,559.3965,270.116,561.0545,264.7075,554.98,272.46" style="stroke:#181818;stroke-width:1.0;"/><polygon fill="#000000" points="789.069,207.4731,798.4757,208.8744,797.5028,203.0776,789.069,207.4731" style="stroke:#000000;stroke-width:1.0;"/><text fill="#000000" font-family="sans-serif" font-size="13" lengthAdjust="spacing" textLength="79" x="803" y="212.0283">student has a</text><text fill="#000000" font-family="sans-serif" font-size="13" lengthAdjust="spacing" textLength="7" x="557.9288" y="261.0259">1</text></g><!--link eCourseSystemUser to VerifyExamService--><g id="link_eCourseSystemUser_VerifyExamService"><path codeLine="114" d="M1789.79,107.55 C1859.24,128.99 1955.47,170.82 2003,246 C2053.07,325.2 2036.63,625.23 2030.11,718.89 " fill="none" id="eCourseSystemUser-to-VerifyExamService" style="stroke:#181818;stroke-width:1.0;"/><polygon fill="#181818" points="2029.76,723.98,2034.368,715.2756,2030.103,718.9918,2026.3869,714.7268,2029.76,723.98" style="stroke:#181818;stroke-width:1.0;"/><polygon fill="#000000" points="2041.8293,404.2989,2041.2553,394.8056,2035.7849,396.9561,2041.8293,404.2989" style="stroke:#000000;stroke-width:1.0;"/><text fill="#000000" font-family="sans-serif" font-size="13" lengthAdjust="spacing" textLength="28" x="2049" y="405.0283">uses</text></g><!--link eCourseSystemUser to Exam--><g id="link_eCourseSystemUser_Exam"><path codeLine="116" d="M1789.87,99.94 C1870.84,116.78 1990.7,156.2 2043,246 C2111.76,364.07 2162.37,726.11 2120,856 C2112.31,879.56 2098.37,902.38 2083.62,921.97 " fill="none" id="eCourseSystemUser-Exam" style="stroke:#181818;stroke-width:1.0;"/><polygon fill="#000000" points="2130.6825,504.8539,2130.4063,495.3474,2124.8713,497.3253,2130.6825,504.8539" style="stroke:#000000;stroke-width:1.0;"/><text fill="#000000" font-family="sans-serif" font-size="13" lengthAdjust="spacing" textLength="93" x="2138" y="505.5283">creates/updates</text><text fill="#000000" font-family="sans-serif" font-size="13" lengthAdjust="spacing" textLength="5" x="1797.5557" y="97.4121">*</text><text fill="#000000" font-family="sans-serif" font-size="13" lengthAdjust="spacing" textLength="5" x="2091.4299" y="909.6475">*</text></g><!--link Course to CourseStatus--><g id="link_Course_CourseStatus"><path codeLine="119" d="M283.61,167.08 C263.94,204.67 241.68,247.21 227.5,274.29 " fill="none" id="Course-to-CourseStatus" style="stroke:#181818;stroke-width:1.0;"/><polygon fill="#181818" points="225.12,278.84,232.849,272.7356,227.447,274.4145,225.7681,269.0125,225.12,278.84" style="stroke:#181818;stroke-width:1.0;"/><text fill="#000000" font-family="sans-serif" font-size="13" lengthAdjust="spacing" textLength="7" x="220.3289" y="267.5365">1</text></g><!--link Course to CourseCode--><g id="link_Course_CourseCode"><path codeLine="120" d="M228.19,167.08 C181.4,205.29 128.36,248.61 95.29,275.62 " fill="none" id="Course-to-CourseCode" style="stroke:#181818;stroke-width:1.0;"/><polygon fill="#181818" points="91.36,278.84,100.8627,276.252,95.2349,275.68,95.8068,270.0522,91.36,278.84" style="stroke:#181818;stroke-width:1.0;"/><text fill="#000000" font-family="sans-serif" font-size="13" lengthAdjust="spacing" textLength="7" x="90.7304" y="267.5365">1</text></g><!--link Course to Grade--><g id="link_Course_Grade"><path codeLine="122" d="M391.88,167.08 C422.9,203.75 457.9,245.13 480.86,272.28 " fill="none" id="Course-Grade" style="stroke:#181818;stroke-width:1.0;"/><polygon fill="#000000" points="433.771,202.8279,437.3684,211.6319,441.8562,207.836,433.771,202.8279" style="stroke:#000000;stroke-width:1.0;"/><text fill="#000000" font-family="sans-serif" font-size="13" lengthAdjust="spacing" textLength="47" x="446" y="212.0283">refers to</text><text fill="#000000" font-family="sans-serif" font-size="13" lengthAdjust="spacing" textLength="7" x="390.3267" y="188.7449">1</text><text fill="#000000" font-family="sans-serif" font-size="13" lengthAdjust="spacing" textLength="7" x="467.953" y="261.2923">1</text></g><!--link Course to Exam--><g id="link_Course_Exam"><path codeLine="123" d="M325,167.02 C325,207.4 325,257.32 325,302 C325,302 325,302 325,749 C325,799.18 321.39,825.2 361,856 C490.82,956.93 1697.18,977.91 1972.32,981.39 " fill="none" id="Course-Exam" style="stroke:#181818;stroke-width:1.0;"/><polygon fill="#000000" points="325.5178,497.9297,332.3237,504.5727,334.9286,499.3036,325.5178,497.9297" style="stroke:#000000;stroke-width:1.0;"/><text fill="#000000" font-family="sans-serif" font-size="13" lengthAdjust="spacing" textLength="54" x="339" y="505.5283">related to</text><text fill="#000000" font-family="sans-serif" font-size="13" lengthAdjust="spacing" textLength="7" x="317.6992" y="188.6798">1</text><text fill="#000000" font-family="sans-serif" font-size="13" lengthAdjust="spacing" textLength="20" x="1944.3152" y="977.1791">0..*</text></g><!--link Course to eCourseSystemUser--><g id="link_Course_eCourseSystemUser"><path codeLine="125" d="M582.89,87 C902.16,87 1428.25,87 1628.35,87 " fill="none" id="Course-eCourseSystemUser" style="stroke:#181818;stroke-width:1.0;"/><polygon fill="#000000" points="1075,74.6455,1084.0451,77.5844,1084.0451,71.7066,1075,74.6455" style="stroke:#000000;stroke-width:1.0;"/><text fill="#000000" font-family="sans-serif" font-size="13" lengthAdjust="spacing" textLength="46" x="1089" y="80.0283">teaches</text><text fill="#000000" font-family="sans-serif" font-size="13" lengthAdjust="spacing" textLength="5" x="590.6203" y="83.7844">*</text><text fill="#000000" font-family="sans-serif" font-size="13" lengthAdjust="spacing" textLength="5" x="1615.4248" y="83.2538">*</text></g><!--link Exam to ExamGrade--><g id="link_Exam_ExamGrade"><path codeLine="127" d="M2073.37,1049 C2091.36,1074.79 2111.69,1103.91 2128.33,1127.76 " fill="none" id="Exam-ExamGrade" style="stroke:#181818;stroke-width:1.0;"/><polygon fill="#000000" points="2114.8613,1092.7459,2112.0953,1083.6464,2107.275,1087.0101,2114.8613,1092.7459" style="stroke:#000000;stroke-width:1.0;"/><text fill="#000000" font-family="sans-serif" font-size="13" lengthAdjust="spacing" textLength="21" x="2121" y="1094.0283">has</text><text fill="#000000" font-family="sans-serif" font-size="13" lengthAdjust="spacing" textLength="7" x="2071.2112" y="1071.6357">1</text><text fill="#000000" font-family="sans-serif" font-size="13" lengthAdjust="spacing" textLength="7" x="2116.103" y="1116.7015">1</text></g><!--link ExamGrade to eCourseSystemUser--><g id="link_ExamGrade_eCourseSystemUser"><path codeLine="128" d="M2215.74,1127.76 C2249.62,1091.89 2287,1039.69 2287,984 C2287,302 2287,302 2287,302 C2287,197.2 1948.62,127.49 1789.67,100.53 " fill="none" id="ExamGrade-eCourseSystemUser" style="stroke:#181818;stroke-width:1.0;"/><polygon fill="#000000" points="2290.0844,596.027,2290.8351,605.5079,2296.2645,603.256,2290.0844,596.027" style="stroke:#000000;stroke-width:1.0;"/><text fill="#000000" font-family="sans-serif" font-size="13" lengthAdjust="spacing" textLength="21" x="2301" y="606.0283">has</text><text fill="#000000" font-family="sans-serif" font-size="13" lengthAdjust="spacing" textLength="7" x="2215.805" y="1116.7015">1</text><text fill="#000000" font-family="sans-serif" font-size="13" lengthAdjust="spacing" textLength="7" x="1797.4294" y="116.6237">1</text></g><!--link eCourseSystemUser to CreateExamUI--><g id="link_eCourseSystemUser_CreateExamUI"><path codeLine="131" d="M1628.4,109.7 C1497.34,144.98 1235.86,215.36 1068.21,260.49 " fill="none" id="eCourseSystemUser-CreateExamUI" style="stroke:#181818;stroke-width:1.0;stroke-dasharray:7.0,7.0;"/></g><!--link CreateExamUI to ExamDto--><g id="link_CreateExamUI_ExamDto"><path codeLine="132" d="M897.25,345.68 C870.47,412.34 817.14,545.06 779.15,639.61 " fill="none" id="CreateExamUI-ExamDto" style="stroke:#181818;stroke-width:1.0;stroke-dasharray:7.0,7.0;"/></g><!--link CreateExamUI to CreateExamController--><g id="link_CreateExamUI_CreateExamController"><path codeLine="133" d="M990.79,345.59 C1040.97,372.77 1107.31,408.71 1163.17,438.97 " fill="none" id="CreateExamUI-CreateExamController" style="stroke:#181818;stroke-width:1.0;stroke-dasharray:7.0,7.0;"/></g><!--link CreateExamController to RepositoryFactory--><g id="link_CreateExamController_RepositoryFactory"><path codeLine="134" d="M1274,561.18 C1274,613.67 1274,687.02 1274,723.89 " fill="none" id="CreateExamController-RepositoryFactory" style="stroke:#181818;stroke-width:1.0;stroke-dasharray:7.0,7.0;"/></g><!--link CreateExamController to ExamRepository--><g id="link_CreateExamController_ExamRepository"><path codeLine="135" d="M1329.04,561.18 C1363.91,599.3 1408.84,648.43 1443.75,686.59 " fill="none" id="CreateExamController-ExamRepository" style="stroke:#181818;stroke-width:1.0;stroke-dasharray:7.0,7.0;"/></g><!--link CreateExamController to VerifyExamService--><g id="link_CreateExamController_VerifyExamService"><path codeLine="136" d="M1659.56,538.16 C1754.49,558.84 1852.72,590.78 1936,640 C1970.8,660.57 1998.96,699.07 2014.58,723.85 " fill="none" id="CreateExamController-VerifyExamService" style="stroke:#181818;stroke-width:1.0;stroke-dasharray:7.0,7.0;"/></g><!--link CreateExamController to Exam--><g id="link_CreateExamController_Exam"><path codeLine="137" d="M1223.17,561.04 C1206.68,584.2 1190.47,611.87 1182,640 C1154.33,731.93 1119.32,783.29 1182,856 C1285.08,975.57 1800.54,983.44 1972.25,982.67 " fill="none" id="CreateExamController-Exam" style="stroke:#181818;stroke-width:1.0;stroke-dasharray:7.0,7.0;"/></g><!--link CreateExamController to ExamDto--><g id="link_CreateExamController_ExamDto"><path codeLine="138" d="M1142.73,561.02 C1090.71,584.81 1029.27,612.9 970.12,639.95 " fill="none" id="CreateExamController-ExamDto" style="stroke:#181818;stroke-width:1.0;stroke-dasharray:7.0,7.0;"/></g><!--link CreateExamController to ExamReadFile--><g id="link_CreateExamController_ExamReadFile"><path codeLine="139" d="M1453.98,561.11 C1512.14,583.09 1576.02,610.01 1632,640 C1671.97,661.41 1713.85,691.55 1743.5,714.39 " fill="none" id="CreateExamController-ExamReadFile" style="stroke:#181818;stroke-width:1.0;stroke-dasharray:7.0,7.0;"/></g><!--link VerifyExamService to Exam--><g id="link_VerifyExamService_Exam"><path codeLine="140" d="M2028,772.19 C2028,805.57 2028,868.45 2028,916.7 " fill="none" id="VerifyExamService-Exam" style="stroke:#181818;stroke-width:1.0;stroke-dasharray:7.0,7.0;"/></g><!--SRC=[dLPDRzim3BtxLmWv9McJRTSWC92cwL2WouQcxLsrcKI3RMMId2qOzjz7MH-sOza3veDjaK_K8qLIKln452VlN2cUavG9I1JZHHGb6PMIh0LG1PjVD7zz9ByZWiyDEODW-uiMZlSiWotDOM9LYSUF0Lzhdi8jKKnb-4buAIGO4Jz1SOz8b6PSWldrniY2wDdtYaT_kapMl522Pna8osXAjFWPJbmonSN52jyypHs8CqkWGxzBUgS4Amv8LPEq0qlVgselhAXsnc5gdwn4krRqkTOXYdxLses1Mr_HBqtE_MkRxZy5cGXsghRFYjQUh9CuhjwOese4DswvO2JqQdxGMEx_WZEvMXBpK2-im-DLYfjPuqaTaDr5AiXV9Ux_SYauLt6CFvi2z-c2loudjYuqKwAnLQIy3J2H-QUfnZRab6MhD0M1W-NoZMOb4Fx-7UibZXtecMSGujA8NsrHBxjJL9NQ7XHbxYTWIBQhkwUD7Tm_xggHd_aDNp-vI77UESXZbGXUNF9U_VRneLTtnuGwwltfHNo1v4WBVX3qT6J9jipVg_YrmIYW9VOKgbX2i-n23b20GBDfRUYpe6d_CcQBV0nPeGXBewkyTpbk0ochZzUWTLyjK_82D3aYLG78HTdWckbZO_qgqmEcRskhjrS69-sQRMOKd57Vo8UgfQ2yBDYF4j3bG74sQxDbE1orLfmE6cB7tLINganr0BpLkdK-q4H_EWseHlWKfMbQjKpzMbGWTmW8oFaPUfGIg4YErqhpYLpHAvgPjFgwrt8vHW1hCZQSQFg0VTKpqeCNrp3iHfweEkgc-yIaMXfPhCr4KICWirbCHfz6hHeFwLtTXNIwzAEe6sodhqK3eCf8lxhk60CWM_i32Ap-0Qsl_m5Cg0CCm4t6BbpYaIELX9AuBrpTyt11IWaoF6Cq7P5PzQwgRc6FS_cXFANwgsT5jfSuGit23kkgCzEfj7WsQxaYO8zPegzEoslKn_cy9YCWqptF03tIK-wwio2gwYfIuoiZZTNhybzKGOoZMjA0XQmQU2Y0ytdhcXUrxdoejCTpHnwwaKN1Qng2Eosc5tbrb-k1TIztG_O6bMtVGcHCducwUUdCu_CN]--></g></svg>