<?xml version="1.0" encoding="us-ascii" standalone="no"?><svg xmlns="http://www.w3.org/2000/svg" xmlns:xlink="http://www.w3.org/1999/xlink" contentStyleType="text/css" height="1567px" preserveAspectRatio="none" style="width:1019px;height:1567px;background:#FFFFFF;" version="1.1" viewBox="0 0 1019 1567" width="1019px" zoomAndPan="magnify"><defs/><g><!--cluster ECOURSESYSTEMUSER--><g id="cluster_ECOURSESYSTEMUSER"><path d="M302.5,84.5 L467.5,84.5 A3.75,3.75 0 0 1 470,87 L477,109.1211 L1009.5,109.1211 A2.5,2.5 0 0 1 1012,111.6211 L1012,936 A2.5,2.5 0 0 1 1009.5,938.5 L302.5,938.5 A2.5,2.5 0 0 1 300,936 L300,87 A2.5,2.5 0 0 1 302.5,84.5 " fill="none" style="stroke:#000000;stroke-width:1.5;"/><line style="stroke:#000000;stroke-width:1.5;" x1="300" x2="477" y1="109.1211" y2="109.1211"/><text fill="#000000" font-family="sans-serif" font-size="14" font-weight="bold" lengthAdjust="spacing" textLength="164" x="304" y="101.6074">ECOURSESYSTEMUSER</text><text fill="#000000" font-family="sans-serif" font-size="14" font-style="italic" lengthAdjust="spacing" textLength="82" x="619" y="126.2285">&#171;Aggregate&#187;</text></g><!--cluster COURSE--><g id="cluster_COURSE"><path d="M8.5,962.5 L68.5,962.5 A3.75,3.75 0 0 1 71,965 L78,987.1211 L469,987.1211 A2.5,2.5 0 0 1 471.5,989.6211 L471.5,1227 A2.5,2.5 0 0 1 469,1229.5 L8.5,1229.5 A2.5,2.5 0 0 1 6,1227 L6,965 A2.5,2.5 0 0 1 8.5,962.5 " fill="none" style="stroke:#000000;stroke-width:1.5;"/><line style="stroke:#000000;stroke-width:1.5;" x1="6" x2="78" y1="987.1211" y2="987.1211"/><text fill="#000000" font-family="sans-serif" font-size="14" font-weight="bold" lengthAdjust="spacing" textLength="59" x="10" y="979.6074">COURSE</text><text fill="#000000" font-family="sans-serif" font-size="14" font-style="italic" lengthAdjust="spacing" textLength="81" x="202.25" y="1004.2285">&#171;aggregate&#187;</text></g><!--cluster EXAM--><g id="cluster_EXAM"><path d="M323,1318.5 L364,1318.5 A3.75,3.75 0 0 1 366.5,1321 L373.5,1343.1211 L792,1343.1211 A2.5,2.5 0 0 1 794.5,1345.6211 L794.5,1558 A2.5,2.5 0 0 1 792,1560.5 L323,1560.5 A2.5,2.5 0 0 1 320.5,1558 L320.5,1321 A2.5,2.5 0 0 1 323,1318.5 " fill="none" style="stroke:#000000;stroke-width:1.5;"/><line style="stroke:#000000;stroke-width:1.5;" x1="320.5" x2="373.5" y1="1343.1211" y2="1343.1211"/><text fill="#000000" font-family="sans-serif" font-size="14" font-weight="bold" lengthAdjust="spacing" textLength="40" x="324.5" y="1335.6074">EXAM</text><text fill="#000000" font-family="sans-serif" font-size="14" font-style="italic" lengthAdjust="spacing" textLength="81" x="521" y="1360.2285">&#171;aggregate&#187;</text></g><!--class SystemUser--><g id="elem_SystemUser"><rect codeLine="7" fill="#F1F1F1" height="113.7852" id="SystemUser" rx="2.5" ry="2.5" style="stroke:#181818;stroke-width:0.5;" width="107" x="670.5" y="562.5"/><ellipse cx="685.5" cy="592.7715" fill="#ADD1B2" rx="11" ry="11" style="stroke:#181818;stroke-width:1.0;"/><path d="M688.2656,588.6465 Q688.4219,588.4277 688.6094,588.3184 Q688.7969,588.209 689.0156,588.209 Q689.3906,588.209 689.625,588.4746 Q689.8594,588.7246 689.8594,589.334 L689.8594,590.7871 Q689.8594,591.3965 689.625,591.6621 Q689.3906,591.9277 689.0156,591.9277 Q688.6719,591.9277 688.4688,591.7246 Q688.2656,591.5371 688.1563,591.0215 Q688.1094,590.6621 687.9219,590.4746 Q687.5938,590.0996 686.9844,589.8809 Q686.375,589.6621 685.75,589.6621 Q684.9844,589.6621 684.3438,589.9902 Q683.7188,590.3184 683.2188,591.0684 Q682.7344,591.8184 682.7344,592.8496 L682.7344,593.9434 Q682.7344,595.1777 683.625,596.0059 Q684.5156,596.8184 686.1094,596.8184 Q687.0469,596.8184 687.7031,596.5684 Q688.0938,596.4121 688.5156,595.9746 Q688.7813,595.709 688.9219,595.6309 Q689.0781,595.5527 689.2813,595.5527 Q689.6094,595.5527 689.8594,595.8184 Q690.125,596.0684 690.125,596.4121 Q690.125,596.7559 689.7813,597.1621 Q689.2813,597.7402 688.4844,598.0684 Q687.4063,598.5215 686.1094,598.5215 Q684.5938,598.5215 683.3906,597.8965 Q682.4063,597.3965 681.7188,596.334 Q681.0313,595.2559 681.0313,593.9746 L681.0313,592.8184 Q681.0313,591.4902 681.6406,590.3496 Q682.2656,589.1934 683.3594,588.584 Q684.4531,587.959 685.6875,587.959 Q686.4219,587.959 687.0625,588.1309 Q687.7188,588.2871 688.2656,588.6465 Z " fill="#000000"/><text fill="#000000" font-family="sans-serif" font-size="12" font-style="italic" lengthAdjust="spacing" textLength="35" x="719.5" y="580.4492">&#171;root&#187;</text><text fill="#000000" font-family="sans-serif" font-size="12" font-style="italic" lengthAdjust="spacing" textLength="44" x="715" y="596.4102">&#171;Entity&#187;</text><text fill="#000000" font-family="sans-serif" font-size="14" lengthAdjust="spacing" textLength="75" x="699.5" y="614.5293">SystemUser</text><line style="stroke:#181818;stroke-width:0.5;" x1="671.5" x2="776.5" y1="623.043" y2="623.043"/><ellipse cx="681.5" cy="637.8535" fill="#000000" rx="3" ry="3" style="stroke:#000000;stroke-width:1.0;"/><text fill="#000000" font-family="sans-serif" font-size="14" lengthAdjust="spacing" textLength="36" x="690.5" y="642.1504">Name</text><ellipse cx="681.5" cy="656.4746" fill="#000000" rx="3" ry="3" style="stroke:#000000;stroke-width:1.0;"/><text fill="#000000" font-family="sans-serif" font-size="14" lengthAdjust="spacing" textLength="64" x="690.5" y="660.7715">Username</text><line style="stroke:#181818;stroke-width:0.5;" x1="671.5" x2="776.5" y1="668.2852" y2="668.2852"/></g><!--class eCourseSystemUser--><g id="elem_eCourseSystemUser"><rect codeLine="12" fill="#F1F1F1" height="76.543" id="eCourseSystemUser" rx="2.5" ry="2.5" style="stroke:#181818;stroke-width:0.5;" width="161" x="316" y="674"/><ellipse cx="331" cy="704.2715" fill="#ADD1B2" rx="11" ry="11" style="stroke:#181818;stroke-width:1.0;"/><path d="M333.7656,700.1465 Q333.9219,699.9277 334.1094,699.8184 Q334.2969,699.709 334.5156,699.709 Q334.8906,699.709 335.125,699.9746 Q335.3594,700.2246 335.3594,700.834 L335.3594,702.2871 Q335.3594,702.8965 335.125,703.1621 Q334.8906,703.4277 334.5156,703.4277 Q334.1719,703.4277 333.9688,703.2246 Q333.7656,703.0371 333.6563,702.5215 Q333.6094,702.1621 333.4219,701.9746 Q333.0938,701.5996 332.4844,701.3809 Q331.875,701.1621 331.25,701.1621 Q330.4844,701.1621 329.8438,701.4902 Q329.2188,701.8184 328.7188,702.5684 Q328.2344,703.3184 328.2344,704.3496 L328.2344,705.4434 Q328.2344,706.6777 329.125,707.5059 Q330.0156,708.3184 331.6094,708.3184 Q332.5469,708.3184 333.2031,708.0684 Q333.5938,707.9121 334.0156,707.4746 Q334.2813,707.209 334.4219,707.1309 Q334.5781,707.0527 334.7813,707.0527 Q335.1094,707.0527 335.3594,707.3184 Q335.625,707.5684 335.625,707.9121 Q335.625,708.2559 335.2813,708.6621 Q334.7813,709.2402 333.9844,709.5684 Q332.9063,710.0215 331.6094,710.0215 Q330.0938,710.0215 328.8906,709.3965 Q327.9063,708.8965 327.2188,707.834 Q326.5313,706.7559 326.5313,705.4746 L326.5313,704.3184 Q326.5313,702.9902 327.1406,701.8496 Q327.7656,700.6934 328.8594,700.084 Q329.9531,699.459 331.1875,699.459 Q331.9219,699.459 332.5625,699.6309 Q333.2188,699.7871 333.7656,700.1465 Z " fill="#000000"/><text fill="#000000" font-family="sans-serif" font-size="12" font-style="italic" lengthAdjust="spacing" textLength="35" x="392" y="691.9492">&#171;root&#187;</text><text fill="#000000" font-family="sans-serif" font-size="12" font-style="italic" lengthAdjust="spacing" textLength="44" x="387.5" y="707.9102">&#171;Entity&#187;</text><text fill="#000000" font-family="sans-serif" font-size="14" lengthAdjust="spacing" textLength="129" x="345" y="726.0293">eCourseSystemUser</text><line style="stroke:#181818;stroke-width:0.5;" x1="317" x2="476" y1="734.543" y2="734.543"/><line style="stroke:#181818;stroke-width:0.5;" x1="317" x2="476" y1="742.543" y2="742.543"/></g><!--class EmailAdderss--><g id="elem_EmailAdderss"><rect codeLine="16" fill="#F1F1F1" height="60.582" id="EmailAdderss" rx="2.5" ry="2.5" style="stroke:#181818;stroke-width:0.5;" width="118" x="878" y="583"/><ellipse cx="893" cy="605.291" fill="#ADD1B2" rx="11" ry="11" style="stroke:#181818;stroke-width:1.0;"/><path d="M895.7656,601.166 Q895.9219,600.9473 896.1094,600.8379 Q896.2969,600.7285 896.5156,600.7285 Q896.8906,600.7285 897.125,600.9941 Q897.3594,601.2441 897.3594,601.8535 L897.3594,603.3066 Q897.3594,603.916 897.125,604.1816 Q896.8906,604.4473 896.5156,604.4473 Q896.1719,604.4473 895.9688,604.2441 Q895.7656,604.0566 895.6563,603.541 Q895.6094,603.1816 895.4219,602.9941 Q895.0938,602.6191 894.4844,602.4004 Q893.875,602.1816 893.25,602.1816 Q892.4844,602.1816 891.8438,602.5098 Q891.2188,602.8379 890.7188,603.5879 Q890.2344,604.3379 890.2344,605.3691 L890.2344,606.4629 Q890.2344,607.6973 891.125,608.5254 Q892.0156,609.3379 893.6094,609.3379 Q894.5469,609.3379 895.2031,609.0879 Q895.5938,608.9316 896.0156,608.4941 Q896.2813,608.2285 896.4219,608.1504 Q896.5781,608.0723 896.7813,608.0723 Q897.1094,608.0723 897.3594,608.3379 Q897.625,608.5879 897.625,608.9316 Q897.625,609.2754 897.2813,609.6816 Q896.7813,610.2598 895.9844,610.5879 Q894.9063,611.041 893.6094,611.041 Q892.0938,611.041 890.8906,610.416 Q889.9063,609.916 889.2188,608.8535 Q888.5313,607.7754 888.5313,606.4941 L888.5313,605.3379 Q888.5313,604.0098 889.1406,602.8691 Q889.7656,601.7129 890.8594,601.1035 Q891.9531,600.4785 893.1875,600.4785 Q893.9219,600.4785 894.5625,600.6504 Q895.2188,600.8066 895.7656,601.166 Z " fill="#000000"/><text fill="#000000" font-family="sans-serif" font-size="12" font-style="italic" lengthAdjust="spacing" textLength="83" x="908.5" y="600.9492">&#171;Value object&#187;</text><text fill="#000000" font-family="sans-serif" font-size="14" lengthAdjust="spacing" textLength="86" x="907" y="619.0684">EmailAdderss</text><line style="stroke:#181818;stroke-width:0.5;" x1="879" x2="995" y1="627.582" y2="627.582"/><line style="stroke:#181818;stroke-width:0.5;" x1="879" x2="995" y1="635.582" y2="635.582"/></g><!--class Role--><g id="elem_Role"><rect codeLine="18" fill="#F1F1F1" height="79.2031" id="Role" rx="2.5" ry="2.5" style="stroke:#181818;stroke-width:0.5;" width="102" x="886" y="679"/><ellipse cx="914.5" cy="701.291" fill="#ADD1B2" rx="11" ry="11" style="stroke:#181818;stroke-width:1.0;"/><path d="M917.2656,697.166 Q917.4219,696.9473 917.6094,696.8379 Q917.7969,696.7285 918.0156,696.7285 Q918.3906,696.7285 918.625,696.9941 Q918.8594,697.2441 918.8594,697.8535 L918.8594,699.3066 Q918.8594,699.916 918.625,700.1816 Q918.3906,700.4473 918.0156,700.4473 Q917.6719,700.4473 917.4688,700.2441 Q917.2656,700.0566 917.1563,699.541 Q917.1094,699.1816 916.9219,698.9941 Q916.5938,698.6191 915.9844,698.4004 Q915.375,698.1816 914.75,698.1816 Q913.9844,698.1816 913.3438,698.5098 Q912.7188,698.8379 912.2188,699.5879 Q911.7344,700.3379 911.7344,701.3691 L911.7344,702.4629 Q911.7344,703.6973 912.625,704.5254 Q913.5156,705.3379 915.1094,705.3379 Q916.0469,705.3379 916.7031,705.0879 Q917.0938,704.9316 917.5156,704.4941 Q917.7813,704.2285 917.9219,704.1504 Q918.0781,704.0723 918.2813,704.0723 Q918.6094,704.0723 918.8594,704.3379 Q919.125,704.5879 919.125,704.9316 Q919.125,705.2754 918.7813,705.6816 Q918.2813,706.2598 917.4844,706.5879 Q916.4063,707.041 915.1094,707.041 Q913.5938,707.041 912.3906,706.416 Q911.4063,705.916 910.7188,704.8535 Q910.0313,703.7754 910.0313,702.4941 L910.0313,701.3379 Q910.0313,700.0098 910.6406,698.8691 Q911.2656,697.7129 912.3594,697.1035 Q913.4531,696.4785 914.6875,696.4785 Q915.4219,696.4785 916.0625,696.6504 Q916.7188,696.8066 917.2656,697.166 Z " fill="#000000"/><text fill="#000000" font-family="sans-serif" font-size="12" font-style="italic" lengthAdjust="spacing" textLength="44" x="929.5" y="696.9492">&#171;Entity&#187;</text><text fill="#000000" font-family="sans-serif" font-size="14" lengthAdjust="spacing" textLength="29" x="937" y="715.0684">Role</text><line style="stroke:#181818;stroke-width:0.5;" x1="887" x2="987" y1="723.582" y2="723.582"/><ellipse cx="897" cy="738.3926" fill="#000000" rx="3" ry="3" style="stroke:#000000;stroke-width:1.0;"/><text fill="#000000" font-family="sans-serif" font-size="14" lengthAdjust="spacing" textLength="76" x="906" y="742.6895">String name</text><line style="stroke:#181818;stroke-width:0.5;" x1="887" x2="987" y1="750.2031" y2="750.2031"/></g><!--class UserStatus--><g id="elem_UserStatus"><rect codeLine="22" fill="#F1F1F1" height="97.8242" id="UserStatus" rx="2.5" ry="2.5" style="stroke:#181818;stroke-width:0.5;" width="101" x="673.5" y="429.5"/><ellipse cx="688.5" cy="451.791" fill="#ADD1B2" rx="11" ry="11" style="stroke:#181818;stroke-width:1.0;"/><path d="M691.2656,447.666 Q691.4219,447.4473 691.6094,447.3379 Q691.7969,447.2285 692.0156,447.2285 Q692.3906,447.2285 692.625,447.4941 Q692.8594,447.7441 692.8594,448.3535 L692.8594,449.8066 Q692.8594,450.416 692.625,450.6816 Q692.3906,450.9473 692.0156,450.9473 Q691.6719,450.9473 691.4688,450.7441 Q691.2656,450.5566 691.1563,450.041 Q691.1094,449.6816 690.9219,449.4941 Q690.5938,449.1191 689.9844,448.9004 Q689.375,448.6816 688.75,448.6816 Q687.9844,448.6816 687.3438,449.0098 Q686.7188,449.3379 686.2188,450.0879 Q685.7344,450.8379 685.7344,451.8691 L685.7344,452.9629 Q685.7344,454.1973 686.625,455.0254 Q687.5156,455.8379 689.1094,455.8379 Q690.0469,455.8379 690.7031,455.5879 Q691.0938,455.4316 691.5156,454.9941 Q691.7813,454.7285 691.9219,454.6504 Q692.0781,454.5723 692.2813,454.5723 Q692.6094,454.5723 692.8594,454.8379 Q693.125,455.0879 693.125,455.4316 Q693.125,455.7754 692.7813,456.1816 Q692.2813,456.7598 691.4844,457.0879 Q690.4063,457.541 689.1094,457.541 Q687.5938,457.541 686.3906,456.916 Q685.4063,456.416 684.7188,455.3535 Q684.0313,454.2754 684.0313,452.9941 L684.0313,451.8379 Q684.0313,450.5098 684.6406,449.3691 Q685.2656,448.2129 686.3594,447.6035 Q687.4531,446.9785 688.6875,446.9785 Q689.4219,446.9785 690.0625,447.1504 Q690.7188,447.3066 691.2656,447.666 Z " fill="#000000"/><text fill="#000000" font-family="sans-serif" font-size="12" font-style="italic" lengthAdjust="spacing" textLength="46" x="714" y="447.4492">&#171;enum&#187;</text><text fill="#000000" font-family="sans-serif" font-size="14" lengthAdjust="spacing" textLength="69" x="702.5" y="465.5684">UserStatus</text><line style="stroke:#181818;stroke-width:0.5;" x1="674.5" x2="773.5" y1="474.082" y2="474.082"/><ellipse cx="684.5" cy="488.8926" fill="none" rx="3" ry="3" style="stroke:#038048;stroke-width:1.0;"/><text fill="#000000" font-family="sans-serif" font-size="14" lengthAdjust="spacing" textLength="53" x="693.5" y="493.1895">ENABLE</text><ellipse cx="684.5" cy="507.5137" fill="none" rx="3" ry="3" style="stroke:#038048;stroke-width:1.0;"/><text fill="#000000" font-family="sans-serif" font-size="14" lengthAdjust="spacing" textLength="57" x="693.5" y="511.8105">DISABLE</text><line style="stroke:#181818;stroke-width:0.5;" x1="674.5" x2="773.5" y1="519.3242" y2="519.3242"/></g><!--class Password--><g id="elem_Password"><rect codeLine="27" fill="#F1F1F1" height="60.582" id="Password" rx="2.5" ry="2.5" style="stroke:#181818;stroke-width:0.5;" width="109" x="882.5" y="487"/><ellipse cx="897.5" cy="509.291" fill="#ADD1B2" rx="11" ry="11" style="stroke:#181818;stroke-width:1.0;"/><path d="M900.2656,505.166 Q900.4219,504.9473 900.6094,504.8379 Q900.7969,504.7285 901.0156,504.7285 Q901.3906,504.7285 901.625,504.9941 Q901.8594,505.2441 901.8594,505.8535 L901.8594,507.3066 Q901.8594,507.916 901.625,508.1816 Q901.3906,508.4473 901.0156,508.4473 Q900.6719,508.4473 900.4688,508.2441 Q900.2656,508.0566 900.1563,507.541 Q900.1094,507.1816 899.9219,506.9941 Q899.5938,506.6191 898.9844,506.4004 Q898.375,506.1816 897.75,506.1816 Q896.9844,506.1816 896.3438,506.5098 Q895.7188,506.8379 895.2188,507.5879 Q894.7344,508.3379 894.7344,509.3691 L894.7344,510.4629 Q894.7344,511.6973 895.625,512.5254 Q896.5156,513.3379 898.1094,513.3379 Q899.0469,513.3379 899.7031,513.0879 Q900.0938,512.9316 900.5156,512.4941 Q900.7813,512.2285 900.9219,512.1504 Q901.0781,512.0723 901.2813,512.0723 Q901.6094,512.0723 901.8594,512.3379 Q902.125,512.5879 902.125,512.9316 Q902.125,513.2754 901.7813,513.6816 Q901.2813,514.2598 900.4844,514.5879 Q899.4063,515.041 898.1094,515.041 Q896.5938,515.041 895.3906,514.416 Q894.4063,513.916 893.7188,512.8535 Q893.0313,511.7754 893.0313,510.4941 L893.0313,509.3379 Q893.0313,508.0098 893.6406,506.8691 Q894.2656,505.7129 895.3594,505.1035 Q896.4531,504.4785 897.6875,504.4785 Q898.4219,504.4785 899.0625,504.6504 Q899.7188,504.8066 900.2656,505.166 Z " fill="#000000"/><text fill="#000000" font-family="sans-serif" font-size="12" font-style="italic" lengthAdjust="spacing" textLength="81" x="909.5" y="504.9492">&#171;value object&#187;</text><text fill="#000000" font-family="sans-serif" font-size="14" lengthAdjust="spacing" textLength="61" x="919.5" y="523.0684">Password</text><line style="stroke:#181818;stroke-width:0.5;" x1="883.5" x2="990.5" y1="531.582" y2="531.582"/><line style="stroke:#181818;stroke-width:0.5;" x1="883.5" x2="990.5" y1="539.582" y2="539.582"/></g><!--class Acronym--><g id="elem_Acronym"><rect codeLine="29" fill="#F1F1F1" height="60.582" id="Acronym" rx="2.5" ry="2.5" style="stroke:#181818;stroke-width:0.5;" width="109" x="669.5" y="333"/><ellipse cx="684.5" cy="355.291" fill="#ADD1B2" rx="11" ry="11" style="stroke:#181818;stroke-width:1.0;"/><path d="M687.2656,351.166 Q687.4219,350.9473 687.6094,350.8379 Q687.7969,350.7285 688.0156,350.7285 Q688.3906,350.7285 688.625,350.9941 Q688.8594,351.2441 688.8594,351.8535 L688.8594,353.3066 Q688.8594,353.916 688.625,354.1816 Q688.3906,354.4473 688.0156,354.4473 Q687.6719,354.4473 687.4688,354.2441 Q687.2656,354.0566 687.1563,353.541 Q687.1094,353.1816 686.9219,352.9941 Q686.5938,352.6191 685.9844,352.4004 Q685.375,352.1816 684.75,352.1816 Q683.9844,352.1816 683.3438,352.5098 Q682.7188,352.8379 682.2188,353.5879 Q681.7344,354.3379 681.7344,355.3691 L681.7344,356.4629 Q681.7344,357.6973 682.625,358.5254 Q683.5156,359.3379 685.1094,359.3379 Q686.0469,359.3379 686.7031,359.0879 Q687.0938,358.9316 687.5156,358.4941 Q687.7813,358.2285 687.9219,358.1504 Q688.0781,358.0723 688.2813,358.0723 Q688.6094,358.0723 688.8594,358.3379 Q689.125,358.5879 689.125,358.9316 Q689.125,359.2754 688.7813,359.6816 Q688.2813,360.2598 687.4844,360.5879 Q686.4063,361.041 685.1094,361.041 Q683.5938,361.041 682.3906,360.416 Q681.4063,359.916 680.7188,358.8535 Q680.0313,357.7754 680.0313,356.4941 L680.0313,355.3379 Q680.0313,354.0098 680.6406,352.8691 Q681.2656,351.7129 682.3594,351.1035 Q683.4531,350.4785 684.6875,350.4785 Q685.4219,350.4785 686.0625,350.6504 Q686.7188,350.8066 687.2656,351.166 Z " fill="#000000"/><text fill="#000000" font-family="sans-serif" font-size="12" font-style="italic" lengthAdjust="spacing" textLength="81" x="696.5" y="350.9492">&#171;value object&#187;</text><text fill="#000000" font-family="sans-serif" font-size="14" lengthAdjust="spacing" textLength="55" x="709.5" y="369.0684">Acronym</text><line style="stroke:#181818;stroke-width:0.5;" x1="670.5" x2="777.5" y1="377.582" y2="377.582"/><line style="stroke:#181818;stroke-width:0.5;" x1="670.5" x2="777.5" y1="385.582" y2="385.582"/></g><!--class NIF--><g id="elem_NIF"><rect codeLine="31" fill="#F1F1F1" height="60.582" id="NIF" rx="2.5" ry="2.5" style="stroke:#181818;stroke-width:0.5;" width="109" x="669.5" y="237"/><ellipse cx="684.5" cy="259.291" fill="#ADD1B2" rx="11" ry="11" style="stroke:#181818;stroke-width:1.0;"/><path d="M687.2656,255.166 Q687.4219,254.9473 687.6094,254.8379 Q687.7969,254.7285 688.0156,254.7285 Q688.3906,254.7285 688.625,254.9941 Q688.8594,255.2441 688.8594,255.8535 L688.8594,257.3066 Q688.8594,257.916 688.625,258.1816 Q688.3906,258.4473 688.0156,258.4473 Q687.6719,258.4473 687.4688,258.2441 Q687.2656,258.0566 687.1563,257.541 Q687.1094,257.1816 686.9219,256.9941 Q686.5938,256.6191 685.9844,256.4004 Q685.375,256.1816 684.75,256.1816 Q683.9844,256.1816 683.3438,256.5098 Q682.7188,256.8379 682.2188,257.5879 Q681.7344,258.3379 681.7344,259.3691 L681.7344,260.4629 Q681.7344,261.6973 682.625,262.5254 Q683.5156,263.3379 685.1094,263.3379 Q686.0469,263.3379 686.7031,263.0879 Q687.0938,262.9316 687.5156,262.4941 Q687.7813,262.2285 687.9219,262.1504 Q688.0781,262.0723 688.2813,262.0723 Q688.6094,262.0723 688.8594,262.3379 Q689.125,262.5879 689.125,262.9316 Q689.125,263.2754 688.7813,263.6816 Q688.2813,264.2598 687.4844,264.5879 Q686.4063,265.041 685.1094,265.041 Q683.5938,265.041 682.3906,264.416 Q681.4063,263.916 680.7188,262.8535 Q680.0313,261.7754 680.0313,260.4941 L680.0313,259.3379 Q680.0313,258.0098 680.6406,256.8691 Q681.2656,255.7129 682.3594,255.1035 Q683.4531,254.4785 684.6875,254.4785 Q685.4219,254.4785 686.0625,254.6504 Q686.7188,254.8066 687.2656,255.166 Z " fill="#000000"/><text fill="#000000" font-family="sans-serif" font-size="12" font-style="italic" lengthAdjust="spacing" textLength="81" x="696.5" y="254.9492">&#171;value object&#187;</text><text fill="#000000" font-family="sans-serif" font-size="14" lengthAdjust="spacing" textLength="21" x="726.5" y="273.0684">NIF</text><line style="stroke:#181818;stroke-width:0.5;" x1="670.5" x2="777.5" y1="281.582" y2="281.582"/><line style="stroke:#181818;stroke-width:0.5;" x1="670.5" x2="777.5" y1="289.582" y2="289.582"/></g><!--class BirthDate--><g id="elem_BirthDate"><rect codeLine="33" fill="#F1F1F1" height="60.582" id="BirthDate" rx="2.5" ry="2.5" style="stroke:#181818;stroke-width:0.5;" width="109" x="669.5" y="141"/><ellipse cx="684.5" cy="163.291" fill="#ADD1B2" rx="11" ry="11" style="stroke:#181818;stroke-width:1.0;"/><path d="M687.2656,159.166 Q687.4219,158.9473 687.6094,158.8379 Q687.7969,158.7285 688.0156,158.7285 Q688.3906,158.7285 688.625,158.9941 Q688.8594,159.2441 688.8594,159.8535 L688.8594,161.3066 Q688.8594,161.916 688.625,162.1816 Q688.3906,162.4473 688.0156,162.4473 Q687.6719,162.4473 687.4688,162.2441 Q687.2656,162.0566 687.1563,161.541 Q687.1094,161.1816 686.9219,160.9941 Q686.5938,160.6191 685.9844,160.4004 Q685.375,160.1816 684.75,160.1816 Q683.9844,160.1816 683.3438,160.5098 Q682.7188,160.8379 682.2188,161.5879 Q681.7344,162.3379 681.7344,163.3691 L681.7344,164.4629 Q681.7344,165.6973 682.625,166.5254 Q683.5156,167.3379 685.1094,167.3379 Q686.0469,167.3379 686.7031,167.0879 Q687.0938,166.9316 687.5156,166.4941 Q687.7813,166.2285 687.9219,166.1504 Q688.0781,166.0723 688.2813,166.0723 Q688.6094,166.0723 688.8594,166.3379 Q689.125,166.5879 689.125,166.9316 Q689.125,167.2754 688.7813,167.6816 Q688.2813,168.2598 687.4844,168.5879 Q686.4063,169.041 685.1094,169.041 Q683.5938,169.041 682.3906,168.416 Q681.4063,167.916 680.7188,166.8535 Q680.0313,165.7754 680.0313,164.4941 L680.0313,163.3379 Q680.0313,162.0098 680.6406,160.8691 Q681.2656,159.7129 682.3594,159.1035 Q683.4531,158.4785 684.6875,158.4785 Q685.4219,158.4785 686.0625,158.6504 Q686.7188,158.8066 687.2656,159.166 Z " fill="#000000"/><text fill="#000000" font-family="sans-serif" font-size="12" font-style="italic" lengthAdjust="spacing" textLength="81" x="696.5" y="158.9492">&#171;value object&#187;</text><text fill="#000000" font-family="sans-serif" font-size="14" lengthAdjust="spacing" textLength="59" x="707.5" y="177.0684">BirthDate</text><line style="stroke:#181818;stroke-width:0.5;" x1="670.5" x2="777.5" y1="185.582" y2="185.582"/><line style="stroke:#181818;stroke-width:0.5;" x1="670.5" x2="777.5" y1="193.582" y2="193.582"/></g><!--class MechanographicNumber--><g id="elem_MechanographicNumber"><rect codeLine="35" fill="#F1F1F1" height="76.543" id="MechanographicNumber" rx="2.5" ry="2.5" style="stroke:#181818;stroke-width:0.5;" width="186" x="631" y="749"/><ellipse cx="646" cy="779.2715" fill="#ADD1B2" rx="11" ry="11" style="stroke:#181818;stroke-width:1.0;"/><path d="M648.7656,775.1465 Q648.9219,774.9277 649.1094,774.8184 Q649.2969,774.709 649.5156,774.709 Q649.8906,774.709 650.125,774.9746 Q650.3594,775.2246 650.3594,775.834 L650.3594,777.2871 Q650.3594,777.8965 650.125,778.1621 Q649.8906,778.4277 649.5156,778.4277 Q649.1719,778.4277 648.9688,778.2246 Q648.7656,778.0371 648.6563,777.5215 Q648.6094,777.1621 648.4219,776.9746 Q648.0938,776.5996 647.4844,776.3809 Q646.875,776.1621 646.25,776.1621 Q645.4844,776.1621 644.8438,776.4902 Q644.2188,776.8184 643.7188,777.5684 Q643.2344,778.3184 643.2344,779.3496 L643.2344,780.4434 Q643.2344,781.6777 644.125,782.5059 Q645.0156,783.3184 646.6094,783.3184 Q647.5469,783.3184 648.2031,783.0684 Q648.5938,782.9121 649.0156,782.4746 Q649.2813,782.209 649.4219,782.1309 Q649.5781,782.0527 649.7813,782.0527 Q650.1094,782.0527 650.3594,782.3184 Q650.625,782.5684 650.625,782.9121 Q650.625,783.2559 650.2813,783.6621 Q649.7813,784.2402 648.9844,784.5684 Q647.9063,785.0215 646.6094,785.0215 Q645.0938,785.0215 643.8906,784.3965 Q642.9063,783.8965 642.2188,782.834 Q641.5313,781.7559 641.5313,780.4746 L641.5313,779.3184 Q641.5313,777.9902 642.1406,776.8496 Q642.7656,775.6934 643.8594,775.084 Q644.9531,774.459 646.1875,774.459 Q646.9219,774.459 647.5625,774.6309 Q648.2188,774.7871 648.7656,775.1465 Z " fill="#000000"/><text fill="#000000" font-family="sans-serif" font-size="12" font-style="italic" lengthAdjust="spacing" textLength="81" x="696.5" y="766.9492">&#171;value object&#187;</text><text fill="#000000" font-family="sans-serif" font-size="12" font-style="italic" lengthAdjust="spacing" textLength="146" x="664" y="782.9102">&#171;automatically generated&#187;</text><text fill="#000000" font-family="sans-serif" font-size="14" lengthAdjust="spacing" textLength="154" x="660" y="801.0293">MechanographicNumber</text><line style="stroke:#181818;stroke-width:0.5;" x1="632" x2="816" y1="809.543" y2="809.543"/><line style="stroke:#181818;stroke-width:0.5;" x1="632" x2="816" y1="817.543" y2="817.543"/></g><!--class Grade--><g id="elem_Grade"><rect codeLine="37" fill="#F1F1F1" height="60.582" id="Grade" rx="2.5" ry="2.5" style="stroke:#181818;stroke-width:0.5;" width="109" x="669.5" y="861"/><ellipse cx="684.5" cy="883.291" fill="#ADD1B2" rx="11" ry="11" style="stroke:#181818;stroke-width:1.0;"/><path d="M687.2656,879.166 Q687.4219,878.9473 687.6094,878.8379 Q687.7969,878.7285 688.0156,878.7285 Q688.3906,878.7285 688.625,878.9941 Q688.8594,879.2441 688.8594,879.8535 L688.8594,881.3066 Q688.8594,881.916 688.625,882.1816 Q688.3906,882.4473 688.0156,882.4473 Q687.6719,882.4473 687.4688,882.2441 Q687.2656,882.0566 687.1563,881.541 Q687.1094,881.1816 686.9219,880.9941 Q686.5938,880.6191 685.9844,880.4004 Q685.375,880.1816 684.75,880.1816 Q683.9844,880.1816 683.3438,880.5098 Q682.7188,880.8379 682.2188,881.5879 Q681.7344,882.3379 681.7344,883.3691 L681.7344,884.4629 Q681.7344,885.6973 682.625,886.5254 Q683.5156,887.3379 685.1094,887.3379 Q686.0469,887.3379 686.7031,887.0879 Q687.0938,886.9316 687.5156,886.4941 Q687.7813,886.2285 687.9219,886.1504 Q688.0781,886.0723 688.2813,886.0723 Q688.6094,886.0723 688.8594,886.3379 Q689.125,886.5879 689.125,886.9316 Q689.125,887.2754 688.7813,887.6816 Q688.2813,888.2598 687.4844,888.5879 Q686.4063,889.041 685.1094,889.041 Q683.5938,889.041 682.3906,888.416 Q681.4063,887.916 680.7188,886.8535 Q680.0313,885.7754 680.0313,884.4941 L680.0313,883.3379 Q680.0313,882.0098 680.6406,880.8691 Q681.2656,879.7129 682.3594,879.1035 Q683.4531,878.4785 684.6875,878.4785 Q685.4219,878.4785 686.0625,878.6504 Q686.7188,878.8066 687.2656,879.166 Z " fill="#000000"/><text fill="#000000" font-family="sans-serif" font-size="12" font-style="italic" lengthAdjust="spacing" textLength="81" x="696.5" y="878.9492">&#171;value object&#187;</text><text fill="#000000" font-family="sans-serif" font-size="14" lengthAdjust="spacing" textLength="40" x="717" y="897.0684">Grade</text><line style="stroke:#181818;stroke-width:0.5;" x1="670.5" x2="777.5" y1="905.582" y2="905.582"/><line style="stroke:#181818;stroke-width:0.5;" x1="670.5" x2="777.5" y1="913.582" y2="913.582"/></g><!--class Course--><g id="elem_Course"><rect codeLine="42" fill="#F1F1F1" height="95.1641" id="Course" rx="2.5" ry="2.5" style="stroke:#181818;stroke-width:0.5;" width="124" x="22" y="1117"/><ellipse cx="57.7" cy="1147.2715" fill="#ADD1B2" rx="11" ry="11" style="stroke:#181818;stroke-width:1.0;"/><path d="M60.4656,1143.1465 Q60.6219,1142.9277 60.8094,1142.8184 Q60.9969,1142.709 61.2156,1142.709 Q61.5906,1142.709 61.825,1142.9746 Q62.0594,1143.2246 62.0594,1143.834 L62.0594,1145.2871 Q62.0594,1145.8965 61.825,1146.1621 Q61.5906,1146.4277 61.2156,1146.4277 Q60.8719,1146.4277 60.6688,1146.2246 Q60.4656,1146.0371 60.3563,1145.5215 Q60.3094,1145.1621 60.1219,1144.9746 Q59.7938,1144.5996 59.1844,1144.3809 Q58.575,1144.1621 57.95,1144.1621 Q57.1844,1144.1621 56.5438,1144.4902 Q55.9188,1144.8184 55.4188,1145.5684 Q54.9344,1146.3184 54.9344,1147.3496 L54.9344,1148.4434 Q54.9344,1149.6777 55.825,1150.5059 Q56.7156,1151.3184 58.3094,1151.3184 Q59.2469,1151.3184 59.9031,1151.0684 Q60.2938,1150.9121 60.7156,1150.4746 Q60.9813,1150.209 61.1219,1150.1309 Q61.2781,1150.0527 61.4813,1150.0527 Q61.8094,1150.0527 62.0594,1150.3184 Q62.325,1150.5684 62.325,1150.9121 Q62.325,1151.2559 61.9813,1151.6621 Q61.4813,1152.2402 60.6844,1152.5684 Q59.6063,1153.0215 58.3094,1153.0215 Q56.7938,1153.0215 55.5906,1152.3965 Q54.6063,1151.8965 53.9188,1150.834 Q53.2313,1149.7559 53.2313,1148.4746 L53.2313,1147.3184 Q53.2313,1145.9902 53.8406,1144.8496 Q54.4656,1143.6934 55.5594,1143.084 Q56.6531,1142.459 57.8875,1142.459 Q58.6219,1142.459 59.2625,1142.6309 Q59.9188,1142.7871 60.4656,1143.1465 Z " fill="#000000"/><text fill="#000000" font-family="sans-serif" font-size="12" font-style="italic" lengthAdjust="spacing" textLength="35" x="81.8" y="1134.9492">&#171;root&#187;</text><text fill="#000000" font-family="sans-serif" font-size="12" font-style="italic" lengthAdjust="spacing" textLength="43" x="77.8" y="1150.9102">&#171;entity&#187;</text><text fill="#000000" font-family="sans-serif" font-size="14" lengthAdjust="spacing" textLength="46" x="76.3" y="1169.0293">Course</text><line style="stroke:#181818;stroke-width:0.5;" x1="23" x2="145" y1="1177.543" y2="1177.543"/><ellipse cx="33" cy="1192.3535" fill="#000000" rx="3" ry="3" style="stroke:#000000;stroke-width:1.0;"/><text fill="#000000" font-family="sans-serif" font-size="14" lengthAdjust="spacing" textLength="98" x="42" y="1196.6504">name &#171;unique&#187;</text><line style="stroke:#181818;stroke-width:0.5;" x1="23" x2="145" y1="1204.1641" y2="1204.1641"/></g><!--class CourseStatus--><g id="elem_CourseStatus"><rect codeLine="47" fill="#F1F1F1" height="97.8242" id="CourseStatus" rx="2.5" ry="2.5" style="stroke:#181818;stroke-width:0.5;" width="118" x="337.5" y="1115.5"/><ellipse cx="352.5" cy="1137.791" fill="#EB937F" rx="11" ry="11" style="stroke:#181818;stroke-width:1.0;"/><path d="M351.3594,1138.5879 L351.3594,1141.0879 L355.6875,1141.0879 L355.6875,1140.166 Q355.6875,1139.5566 355.9219,1139.291 Q356.1719,1139.0254 356.5469,1139.0254 Q356.9219,1139.0254 357.1563,1139.291 Q357.3906,1139.5566 357.3906,1140.166 L357.3906,1142.791 L349.3906,1142.791 Q348.7656,1142.791 348.5,1142.5566 Q348.25,1142.3223 348.25,1141.9316 Q348.25,1141.5566 348.5156,1141.3223 Q348.7813,1141.0879 349.3906,1141.0879 L349.6563,1141.0879 L349.6563,1134.4316 L349.3906,1134.4316 Q348.7656,1134.4316 348.5,1134.1973 Q348.25,1133.9629 348.25,1133.5723 Q348.25,1133.1973 348.5,1132.9629 Q348.7656,1132.7285 349.3906,1132.7285 L357.0156,1132.7285 L357.0156,1135.3223 Q357.0156,1135.9316 356.7813,1136.1973 Q356.5625,1136.4473 356.1719,1136.4473 Q355.7969,1136.4473 355.5625,1136.1973 Q355.3281,1135.9316 355.3281,1135.3223 L355.3281,1134.4316 L351.3594,1134.4316 L351.3594,1136.8848 L352.8438,1136.8848 Q352.8438,1136.2285 352.9688,1136.041 Q353.2344,1135.6348 353.7031,1135.6348 Q354.0781,1135.6348 354.3125,1135.9004 Q354.5469,1136.1504 354.5469,1136.7598 L354.5469,1138.7285 Q354.5469,1139.2754 354.4219,1139.4629 Q354.1563,1139.8535 353.7031,1139.8535 Q353.2344,1139.8535 352.9688,1139.4473 Q352.8438,1139.2598 352.8438,1138.5879 L351.3594,1138.5879 Z " fill="#000000"/><text fill="#000000" font-family="sans-serif" font-size="12" font-style="italic" lengthAdjust="spacing" textLength="46" x="386.5" y="1133.4492">&#171;enum&#187;</text><text fill="#000000" font-family="sans-serif" font-size="14" lengthAdjust="spacing" textLength="86" x="366.5" y="1151.5684">CourseStatus</text><line style="stroke:#181818;stroke-width:0.5;" x1="338.5" x2="454.5" y1="1160.082" y2="1160.082"/><ellipse cx="348.5" cy="1174.8926" fill="none" rx="3" ry="3" style="stroke:#038048;stroke-width:1.0;"/><text fill="#000000" font-family="sans-serif" font-size="14" lengthAdjust="spacing" textLength="38" x="357.5" y="1179.1895">OPEN</text><ellipse cx="348.5" cy="1193.5137" fill="none" rx="3" ry="3" style="stroke:#038048;stroke-width:1.0;"/><text fill="#000000" font-family="sans-serif" font-size="14" lengthAdjust="spacing" textLength="57" x="357.5" y="1197.8105">CLOSED</text><line style="stroke:#181818;stroke-width:0.5;" x1="338.5" x2="454.5" y1="1205.3242" y2="1205.3242"/></g><!--class CourseCode--><g id="elem_CourseCode"><rect codeLine="52" fill="#F1F1F1" height="60.582" id="CourseCode" rx="2.5" ry="2.5" style="stroke:#181818;stroke-width:0.5;" width="112" x="340.5" y="1019"/><ellipse cx="355.5" cy="1041.291" fill="#ADD1B2" rx="11" ry="11" style="stroke:#181818;stroke-width:1.0;"/><path d="M358.2656,1037.166 Q358.4219,1036.9473 358.6094,1036.8379 Q358.7969,1036.7285 359.0156,1036.7285 Q359.3906,1036.7285 359.625,1036.9941 Q359.8594,1037.2441 359.8594,1037.8535 L359.8594,1039.3066 Q359.8594,1039.916 359.625,1040.1816 Q359.3906,1040.4473 359.0156,1040.4473 Q358.6719,1040.4473 358.4688,1040.2441 Q358.2656,1040.0566 358.1563,1039.541 Q358.1094,1039.1816 357.9219,1038.9941 Q357.5938,1038.6191 356.9844,1038.4004 Q356.375,1038.1816 355.75,1038.1816 Q354.9844,1038.1816 354.3438,1038.5098 Q353.7188,1038.8379 353.2188,1039.5879 Q352.7344,1040.3379 352.7344,1041.3691 L352.7344,1042.4629 Q352.7344,1043.6973 353.625,1044.5254 Q354.5156,1045.3379 356.1094,1045.3379 Q357.0469,1045.3379 357.7031,1045.0879 Q358.0938,1044.9316 358.5156,1044.4941 Q358.7813,1044.2285 358.9219,1044.1504 Q359.0781,1044.0723 359.2813,1044.0723 Q359.6094,1044.0723 359.8594,1044.3379 Q360.125,1044.5879 360.125,1044.9316 Q360.125,1045.2754 359.7813,1045.6816 Q359.2813,1046.2598 358.4844,1046.5879 Q357.4063,1047.041 356.1094,1047.041 Q354.5938,1047.041 353.3906,1046.416 Q352.4063,1045.916 351.7188,1044.8535 Q351.0313,1043.7754 351.0313,1042.4941 L351.0313,1041.3379 Q351.0313,1040.0098 351.6406,1038.8691 Q352.2656,1037.7129 353.3594,1037.1035 Q354.4531,1036.4785 355.6875,1036.4785 Q356.4219,1036.4785 357.0625,1036.6504 Q357.7188,1036.8066 358.2656,1037.166 Z " fill="#000000"/><text fill="#000000" font-family="sans-serif" font-size="12" font-style="italic" lengthAdjust="spacing" textLength="81" x="369" y="1036.9492">&#171;value object&#187;</text><text fill="#000000" font-family="sans-serif" font-size="14" lengthAdjust="spacing" textLength="80" x="369.5" y="1055.0684">CourseCode</text><line style="stroke:#181818;stroke-width:0.5;" x1="341.5" x2="451.5" y1="1063.582" y2="1063.582"/><line style="stroke:#181818;stroke-width:0.5;" x1="341.5" x2="451.5" y1="1071.582" y2="1071.582"/></g><!--class Exam--><g id="elem_Exam"><rect codeLine="56" fill="#F1F1F1" height="169.6484" id="Exam" rx="2.5" ry="2.5" style="stroke:#181818;stroke-width:0.5;" width="120" x="336.5" y="1374.5"/><ellipse cx="373.1" cy="1404.7715" fill="#ADD1B2" rx="11" ry="11" style="stroke:#181818;stroke-width:1.0;"/><path d="M375.8656,1400.6465 Q376.0219,1400.4277 376.2094,1400.3184 Q376.3969,1400.209 376.6156,1400.209 Q376.9906,1400.209 377.225,1400.4746 Q377.4594,1400.7246 377.4594,1401.334 L377.4594,1402.7871 Q377.4594,1403.3965 377.225,1403.6621 Q376.9906,1403.9277 376.6156,1403.9277 Q376.2719,1403.9277 376.0688,1403.7246 Q375.8656,1403.5371 375.7563,1403.0215 Q375.7094,1402.6621 375.5219,1402.4746 Q375.1938,1402.0996 374.5844,1401.8809 Q373.975,1401.6621 373.35,1401.6621 Q372.5844,1401.6621 371.9438,1401.9902 Q371.3188,1402.3184 370.8188,1403.0684 Q370.3344,1403.8184 370.3344,1404.8496 L370.3344,1405.9434 Q370.3344,1407.1777 371.225,1408.0059 Q372.1156,1408.8184 373.7094,1408.8184 Q374.6469,1408.8184 375.3031,1408.5684 Q375.6938,1408.4121 376.1156,1407.9746 Q376.3813,1407.709 376.5219,1407.6309 Q376.6781,1407.5527 376.8813,1407.5527 Q377.2094,1407.5527 377.4594,1407.8184 Q377.725,1408.0684 377.725,1408.4121 Q377.725,1408.7559 377.3813,1409.1621 Q376.8813,1409.7402 376.0844,1410.0684 Q375.0063,1410.5215 373.7094,1410.5215 Q372.1938,1410.5215 370.9906,1409.8965 Q370.0063,1409.3965 369.3188,1408.334 Q368.6313,1407.2559 368.6313,1405.9746 L368.6313,1404.8184 Q368.6313,1403.4902 369.2406,1402.3496 Q369.8656,1401.1934 370.9594,1400.584 Q372.0531,1399.959 373.2875,1399.959 Q374.0219,1399.959 374.6625,1400.1309 Q375.3188,1400.2871 375.8656,1400.6465 Z " fill="#000000"/><text fill="#000000" font-family="sans-serif" font-size="12" font-style="italic" lengthAdjust="spacing" textLength="35" x="394.4" y="1392.4492">&#171;root&#187;</text><text fill="#000000" font-family="sans-serif" font-size="12" font-style="italic" lengthAdjust="spacing" textLength="44" x="389.9" y="1408.4102">&#171;event&#187;</text><text fill="#000000" font-family="sans-serif" font-size="14" lengthAdjust="spacing" textLength="34" x="394.9" y="1426.5293">Exam</text><line style="stroke:#181818;stroke-width:0.5;" x1="337.5" x2="455.5" y1="1435.043" y2="1435.043"/><ellipse cx="347.5" cy="1449.8535" fill="#000000" rx="3" ry="3" style="stroke:#000000;stroke-width:1.0;"/><text fill="#000000" font-family="sans-serif" font-size="14" lengthAdjust="spacing" textLength="94" x="356.5" y="1454.1504">code &#171;unique&#187;</text><ellipse cx="347.5" cy="1468.4746" fill="#000000" rx="3" ry="3" style="stroke:#000000;stroke-width:1.0;"/><text fill="#000000" font-family="sans-serif" font-size="14" lengthAdjust="spacing" textLength="85" x="356.5" y="1472.7715">title &#171;unique&#187;</text><ellipse cx="347.5" cy="1487.0957" fill="#000000" rx="3" ry="3" style="stroke:#000000;stroke-width:1.0;"/><text fill="#000000" font-family="sans-serif" font-size="14" lengthAdjust="spacing" textLength="62" x="356.5" y="1491.3926">openDate</text><ellipse cx="347.5" cy="1505.7168" fill="#000000" rx="3" ry="3" style="stroke:#000000;stroke-width:1.0;"/><text fill="#000000" font-family="sans-serif" font-size="14" lengthAdjust="spacing" textLength="63" x="356.5" y="1510.0137">closeDate</text><ellipse cx="347.5" cy="1524.3379" fill="#000000" rx="3" ry="3" style="stroke:#000000;stroke-width:1.0;"/><text fill="#000000" font-family="sans-serif" font-size="14" lengthAdjust="spacing" textLength="80" x="356.5" y="1528.6348">CourseCode</text><line style="stroke:#181818;stroke-width:0.5;" x1="337.5" x2="455.5" y1="1536.1484" y2="1536.1484"/></g><!--class ExamGrade--><g id="elem_ExamGrade"><rect codeLine="64" fill="#F1F1F1" height="60.582" id="ExamGrade" rx="2.5" ry="2.5" style="stroke:#181818;stroke-width:0.5;" width="109" x="669.5" y="1389"/><ellipse cx="684.5" cy="1411.291" fill="#ADD1B2" rx="11" ry="11" style="stroke:#181818;stroke-width:1.0;"/><path d="M687.2656,1407.166 Q687.4219,1406.9473 687.6094,1406.8379 Q687.7969,1406.7285 688.0156,1406.7285 Q688.3906,1406.7285 688.625,1406.9941 Q688.8594,1407.2441 688.8594,1407.8535 L688.8594,1409.3066 Q688.8594,1409.916 688.625,1410.1816 Q688.3906,1410.4473 688.0156,1410.4473 Q687.6719,1410.4473 687.4688,1410.2441 Q687.2656,1410.0566 687.1563,1409.541 Q687.1094,1409.1816 686.9219,1408.9941 Q686.5938,1408.6191 685.9844,1408.4004 Q685.375,1408.1816 684.75,1408.1816 Q683.9844,1408.1816 683.3438,1408.5098 Q682.7188,1408.8379 682.2188,1409.5879 Q681.7344,1410.3379 681.7344,1411.3691 L681.7344,1412.4629 Q681.7344,1413.6973 682.625,1414.5254 Q683.5156,1415.3379 685.1094,1415.3379 Q686.0469,1415.3379 686.7031,1415.0879 Q687.0938,1414.9316 687.5156,1414.4941 Q687.7813,1414.2285 687.9219,1414.1504 Q688.0781,1414.0723 688.2813,1414.0723 Q688.6094,1414.0723 688.8594,1414.3379 Q689.125,1414.5879 689.125,1414.9316 Q689.125,1415.2754 688.7813,1415.6816 Q688.2813,1416.2598 687.4844,1416.5879 Q686.4063,1417.041 685.1094,1417.041 Q683.5938,1417.041 682.3906,1416.416 Q681.4063,1415.916 680.7188,1414.8535 Q680.0313,1413.7754 680.0313,1412.4941 L680.0313,1411.3379 Q680.0313,1410.0098 680.6406,1408.8691 Q681.2656,1407.7129 682.3594,1407.1035 Q683.4531,1406.4785 684.6875,1406.4785 Q685.4219,1406.4785 686.0625,1406.6504 Q686.7188,1406.8066 687.2656,1407.166 Z " fill="#000000"/><text fill="#000000" font-family="sans-serif" font-size="12" font-style="italic" lengthAdjust="spacing" textLength="81" x="696.5" y="1406.9492">&#171;value object&#187;</text><text fill="#000000" font-family="sans-serif" font-size="14" lengthAdjust="spacing" textLength="74" x="700" y="1425.0684">ExamGrade</text><line style="stroke:#181818;stroke-width:0.5;" x1="670.5" x2="777.5" y1="1433.582" y2="1433.582"/><line style="stroke:#181818;stroke-width:0.5;" x1="670.5" x2="777.5" y1="1441.582" y2="1441.582"/></g><!--class VerifyExamService--><g id="elem_VerifyExamService"><rect codeLine="68" fill="#F1F1F1" height="60.582" id="VerifyExamService" rx="2.5" ry="2.5" style="stroke:#181818;stroke-width:0.5;" width="149" x="649.5" y="7"/><ellipse cx="664.5" cy="29.291" fill="#ADD1B2" rx="11" ry="11" style="stroke:#181818;stroke-width:1.0;"/><path d="M667.2656,25.166 Q667.4219,24.9473 667.6094,24.8379 Q667.7969,24.7285 668.0156,24.7285 Q668.3906,24.7285 668.625,24.9941 Q668.8594,25.2441 668.8594,25.8535 L668.8594,27.3066 Q668.8594,27.916 668.625,28.1816 Q668.3906,28.4473 668.0156,28.4473 Q667.6719,28.4473 667.4688,28.2441 Q667.2656,28.0566 667.1563,27.541 Q667.1094,27.1816 666.9219,26.9941 Q666.5938,26.6191 665.9844,26.4004 Q665.375,26.1816 664.75,26.1816 Q663.9844,26.1816 663.3438,26.5098 Q662.7188,26.8379 662.2188,27.5879 Q661.7344,28.3379 661.7344,29.3691 L661.7344,30.4629 Q661.7344,31.6973 662.625,32.5254 Q663.5156,33.3379 665.1094,33.3379 Q666.0469,33.3379 666.7031,33.0879 Q667.0938,32.9316 667.5156,32.4941 Q667.7813,32.2285 667.9219,32.1504 Q668.0781,32.0723 668.2813,32.0723 Q668.6094,32.0723 668.8594,32.3379 Q669.125,32.5879 669.125,32.9316 Q669.125,33.2754 668.7813,33.6816 Q668.2813,34.2598 667.4844,34.5879 Q666.4063,35.041 665.1094,35.041 Q663.5938,35.041 662.3906,34.416 Q661.4063,33.916 660.7188,32.8535 Q660.0313,31.7754 660.0313,30.4941 L660.0313,29.3379 Q660.0313,28.0098 660.6406,26.8691 Q661.2656,25.7129 662.3594,25.1035 Q663.4531,24.4785 664.6875,24.4785 Q665.4219,24.4785 666.0625,24.6504 Q666.7188,24.8066 667.2656,25.166 Z " fill="#000000"/><text fill="#000000" font-family="sans-serif" font-size="12" font-style="italic" lengthAdjust="spacing" textLength="53" x="710.5" y="24.9492">&#171;service&#187;</text><text fill="#000000" font-family="sans-serif" font-size="14" lengthAdjust="spacing" textLength="117" x="678.5" y="43.0684">VerifyExamService</text><line style="stroke:#181818;stroke-width:0.5;" x1="650.5" x2="797.5" y1="51.582" y2="51.582"/><line style="stroke:#181818;stroke-width:0.5;" x1="650.5" x2="797.5" y1="59.582" y2="59.582"/></g><!--link SystemUser to EmailAdderss--><g id="link_SystemUser_EmailAdderss"><path codeLine="76" d="M777.7,618 C806.43,617.18 842.2,616.17 872.47,615.31 " fill="none" id="SystemUser-to-EmailAdderss" style="stroke:#181818;stroke-width:1.0;"/><polygon fill="#181818" points="877.66,615.16,868.5494,611.4187,872.662,615.3028,868.7779,619.4154,877.66,615.16" style="stroke:#181818;stroke-width:1.0;"/><text fill="#000000" font-family="sans-serif" font-size="13" lengthAdjust="spacing" textLength="7" x="863.0014" y="630.4698">1</text></g><!--link SystemUser to Password--><g id="link_SystemUser_Password"><path codeLine="77" d="M777.7,594.02 C808.07,579.35 846.29,560.87 877.58,545.74 " fill="none" id="SystemUser-to-Password" style="stroke:#181818;stroke-width:1.0;"/><polygon fill="#181818" points="882.14,543.54,872.2968,543.8741,877.6425,545.7245,875.792,551.0702,882.14,543.54" style="stroke:#181818;stroke-width:1.0;"/><text fill="#000000" font-family="sans-serif" font-size="13" lengthAdjust="spacing" textLength="7" x="867.6626" y="562.0392">1</text></g><!--link SystemUser to Role--><g id="link_SystemUser_Role"><path codeLine="78" d="M777.7,644.23 C809.23,659.02 849.23,677.79 881.14,692.76 " fill="none" id="SystemUser-to-Role" style="stroke:#181818;stroke-width:1.0;"/><polygon fill="#181818" points="885.79,694.94,879.3272,687.5082,881.2594,692.8248,875.9428,694.7571,885.79,694.94" style="stroke:#181818;stroke-width:1.0;"/><text fill="#000000" font-family="sans-serif" font-size="13" lengthAdjust="spacing" textLength="7" x="871.0964" y="706.8567">1</text></g><!--link eCourseSystemUser to SystemUser--><g id="link_eCourseSystemUser_SystemUser"><path codeLine="80" d="M477.13,689.75 C535.29,673.13 612.81,650.98 665.14,636.03 " fill="none" id="eCourseSystemUser-to-SystemUser" style="stroke:#181818;stroke-width:1.0;"/><polygon fill="#181818" points="670.12,634.61,660.3674,633.2364,665.3124,635.9836,662.5652,640.9286,670.12,634.61" style="stroke:#181818;stroke-width:1.0;"/><text fill="#000000" font-family="sans-serif" font-size="13" lengthAdjust="spacing" textLength="7" x="655.4096" y="651.8449">1</text></g><!--link eCourseSystemUser to Role--><g id="link_eCourseSystemUser_Role"><path codeLine="81" d="M477.25,713.39 C587.84,714.62 784.95,716.82 880.72,717.88 " fill="none" id="eCourseSystemUser-to-Role" style="stroke:#181818;stroke-width:1.0;"/><polygon fill="#181818" points="885.77,717.94,876.8163,713.8374,880.7703,717.8829,876.7249,721.8369,885.77,717.94" style="stroke:#181818;stroke-width:1.0;"/><text fill="#000000" font-family="sans-serif" font-size="13" lengthAdjust="spacing" textLength="7" x="871.0736" y="733.0911">1</text></g><!--link eCourseSystemUser to UserStatus--><g id="link_eCourseSystemUser_UserStatus"><path codeLine="82" d="M451.28,673.78 C498.59,639.71 569.35,588.79 631,544.5 C643.33,535.64 656.6,526.11 669.12,517.13 " fill="none" id="eCourseSystemUser-to-UserStatus" style="stroke:#181818;stroke-width:1.0;"/><polygon fill="#181818" points="673.33,514.11,663.6834,516.0958,669.2642,517.0202,668.3398,522.601,673.33,514.11" style="stroke:#181818;stroke-width:1.0;"/><text fill="#000000" font-family="sans-serif" font-size="13" lengthAdjust="spacing" textLength="7" x="658.3738" y="534.6513">1</text></g><!--link eCourseSystemUser to Acronym--><g id="link_eCourseSystemUser_Acronym"><path codeLine="83" d="M419.75,673.99 C456.97,612.2 537.1,489.94 631,411.5 C641.13,403.04 653,395.49 664.78,389.02 " fill="none" id="eCourseSystemUser-to-Acronym" style="stroke:#181818;stroke-width:1.0;"/><polygon fill="#181818" points="669.46,386.5,659.6396,387.2488,665.0586,388.8722,663.4352,394.2911,669.46,386.5" style="stroke:#181818;stroke-width:1.0;"/><text fill="#000000" font-family="sans-serif" font-size="13" lengthAdjust="spacing" textLength="7" x="654.6609" y="404.8088">1</text></g><!--link eCourseSystemUser to NIF--><g id="link_eCourseSystemUser_NIF"><path codeLine="84" d="M410.4,673.74 C438.37,595.37 511.8,416.94 631,315.5 C641.05,306.95 652.89,299.35 664.66,292.88 " fill="none" id="eCourseSystemUser-to-NIF" style="stroke:#181818;stroke-width:1.0;"/><polygon fill="#181818" points="669.34,290.36,659.5196,291.1088,664.9386,292.7322,663.3152,298.1511,669.34,290.36" style="stroke:#181818;stroke-width:1.0;"/><text fill="#000000" font-family="sans-serif" font-size="13" lengthAdjust="spacing" textLength="7" x="654.5248" y="308.65">1</text></g><!--link eCourseSystemUser to BirthDate--><g id="link_eCourseSystemUser_BirthDate"><path codeLine="85" d="M404.87,673.82 C424.5,581.42 486.68,346.15 631,219.5 C640.92,210.79 652.7,203.14 664.46,196.65 " fill="none" id="eCourseSystemUser-to-BirthDate" style="stroke:#181818;stroke-width:1.0;"/><polygon fill="#181818" points="669.14,194.12,659.3196,194.8688,664.7386,196.4922,663.1152,201.9111,669.14,194.12" style="stroke:#181818;stroke-width:1.0;"/><text fill="#000000" font-family="sans-serif" font-size="13" lengthAdjust="spacing" textLength="7" x="654.6626" y="212.181">1</text></g><!--link eCourseSystemUser to MechanographicNumber--><g id="link_eCourseSystemUser_MechanographicNumber"><path codeLine="86" d="M477.13,730.85 C521.98,741.18 578.35,754.17 625.79,765.1 " fill="none" id="eCourseSystemUser-to-MechanographicNumber" style="stroke:#181818;stroke-width:1.0;"/><polygon fill="#181818" points="630.94,766.29,623.0585,760.3839,626.0659,765.1751,621.2747,768.1825,630.94,766.29" style="stroke:#181818;stroke-width:1.0;"/><text fill="#000000" font-family="sans-serif" font-size="13" lengthAdjust="spacing" textLength="7" x="615.9436" y="779.2967">1</text></g><!--link eCourseSystemUser to Grade--><g id="link_eCourseSystemUser_Grade"><path codeLine="87" d="M451.39,751.14 C468.8,763.02 488.42,775.78 507,786.5 C558.74,816.36 620.23,845.69 664.34,865.72 " fill="none" id="eCourseSystemUser-to-Grade" style="stroke:#181818;stroke-width:1.0;"/><polygon fill="#181818" points="669.09,867.88,662.5328,860.5313,664.5328,865.8228,659.2413,867.8229,669.09,867.88" style="stroke:#181818;stroke-width:1.0;"/><polygon fill="#000000" points="516.4031,779.5146,509.8304,772.6408,507.0453,777.8169,516.4031,779.5146" style="stroke:#000000;stroke-width:1.0;"/><text fill="#000000" font-family="sans-serif" font-size="13" lengthAdjust="spacing" textLength="79" x="521" y="782.5283">student has a</text><text fill="#000000" font-family="sans-serif" font-size="13" lengthAdjust="spacing" textLength="7" x="654.6062" y="880.0165">1</text></g><!--link eCourseSystemUser to VerifyExamService--><g id="link_eCourseSystemUser_VerifyExamService"><path codeLine="89" d="M403.16,673.84 C415.07,599.13 446.77,430.87 507,301.5 C547.54,214.42 568.23,197.2 631,124.5 C647.03,105.94 666.56,87.03 683.49,71.61 " fill="none" id="eCourseSystemUser-to-VerifyExamService" style="stroke:#181818;stroke-width:1.0;"/><polygon fill="#181818" points="687.29,68.17,677.9369,71.2553,683.5871,71.5298,683.3126,77.18,687.29,68.17" style="stroke:#181818;stroke-width:1.0;"/><polygon fill="#000000" points="539.61,145.6125,533.1285,152.5725,538.4574,155.053,539.61,145.6125" style="stroke:#000000;stroke-width:1.0;"/><text fill="#000000" font-family="sans-serif" font-size="13" lengthAdjust="spacing" textLength="28" x="546.5" y="155.5283">uses</text></g><!--link eCourseSystemUser to Exam--><g id="link_eCourseSystemUser_Exam"><path codeLine="91" d="M363.93,751.22 C291.63,842.11 130.04,1075.72 207,1265 C233.01,1328.98 291.31,1383.43 336.43,1418.3 " fill="none" id="eCourseSystemUser-Exam" style="stroke:#181818;stroke-width:1.0;"/><polygon fill="#000000" points="180.7941,1260.6413,184.103,1251.7249,178.2302,1251.4828,180.7941,1260.6413" style="stroke:#000000;stroke-width:1.0;"/><text fill="#000000" font-family="sans-serif" font-size="13" lengthAdjust="spacing" textLength="93" x="190" y="1261.0283">creates/updates</text><text fill="#000000" font-family="sans-serif" font-size="13" lengthAdjust="spacing" textLength="5" x="353.5599" y="772.5362">*</text><text fill="#000000" font-family="sans-serif" font-size="13" lengthAdjust="spacing" textLength="5" x="323.4132" y="1428.1798">*</text></g><!--link Course to CourseStatus--><g id="link_Course_CourseStatus"><path codeLine="96" d="M146.34,1164.5 C200.11,1164.5 277.93,1164.5 332.25,1164.5 " fill="none" id="Course-to-CourseStatus" style="stroke:#181818;stroke-width:1.0;"/><polygon fill="#181818" points="337.43,1164.5,328.43,1160.5,332.43,1164.5,328.43,1168.5,337.43,1164.5" style="stroke:#181818;stroke-width:1.0;"/><text fill="#000000" font-family="sans-serif" font-size="13" lengthAdjust="spacing" textLength="7" x="322.4132" y="1179.6473">1</text></g><!--link Course to CourseCode--><g id="link_Course_CourseCode"><path codeLine="97" d="M146.34,1141.78 C201.16,1121.48 280.99,1091.91 335.41,1071.75 " fill="none" id="Course-to-CourseCode" style="stroke:#181818;stroke-width:1.0;"/><polygon fill="#181818" points="340.27,1069.96,330.4401,1069.3485,335.5837,1071.7031,333.2291,1076.8466,340.27,1069.96" style="stroke:#181818;stroke-width:1.0;"/><text fill="#000000" font-family="sans-serif" font-size="13" lengthAdjust="spacing" textLength="7" x="325.6171" y="1087.7442">1</text></g><!--link Course to Grade--><g id="link_Course_Grade"><path codeLine="99" d="M113.94,1212.02 C129.48,1232.87 150.66,1255.15 176,1266.5 C221.03,1286.67 449.92,1261.89 479.5,1250.5 C542.96,1226.07 558.57,1210.64 601,1157.5 C660.59,1082.86 698.46,974.39 714.36,922.03 " fill="none" id="Course-Grade" style="stroke:#181818;stroke-width:1.0;"/><polygon fill="#000000" points="365.9976,1243.3201,375.4207,1242.0327,372.8643,1236.7398,365.9976,1243.3201" style="stroke:#000000;stroke-width:1.0;"/><text fill="#000000" font-family="sans-serif" font-size="13" lengthAdjust="spacing" textLength="47" x="379.5" y="1246.5283">refers to</text><text fill="#000000" font-family="sans-serif" font-size="13" lengthAdjust="spacing" textLength="7" x="110.8234" y="1234.2856">1</text><text fill="#000000" font-family="sans-serif" font-size="13" lengthAdjust="spacing" textLength="7" x="704.8552" y="943.566">1</text></g><!--link Course to Exam--><g id="link_Course_Exam"><path codeLine="100" d="M102.33,1212.36 C117.41,1248.91 142.18,1298.75 176,1333.5 C221.66,1380.42 288.53,1415.41 336.45,1436.45 " fill="none" id="Course-Exam" style="stroke:#181818;stroke-width:1.0;"/><polygon fill="#000000" points="196.8879,1320.6882,201.3901,1329.0656,205.4544,1324.8194,196.8879,1320.6882" style="stroke:#000000;stroke-width:1.0;"/><text fill="#000000" font-family="sans-serif" font-size="13" lengthAdjust="spacing" textLength="54" x="209.5" y="1329.5283">related to</text><text fill="#000000" font-family="sans-serif" font-size="13" lengthAdjust="spacing" textLength="7" x="97.4155" y="1234.3229">1</text><text fill="#000000" font-family="sans-serif" font-size="13" lengthAdjust="spacing" textLength="20" x="308.3505" y="1448.8331">0..*</text></g><!--link Course to eCourseSystemUser--><g id="link_Course_eCourseSystemUser"><path codeLine="102" d="M117.64,1116.98 C179.38,1027.11 312.13,833.86 368.88,751.24 " fill="none" id="Course-eCourseSystemUser" style="stroke:#181818;stroke-width:1.0;"/><polygon fill="#000000" points="201.6689,879.2668,209.2128,873.4754,204.3679,870.1473,201.6689,879.2668" style="stroke:#000000;stroke-width:1.0;"/><text fill="#000000" font-family="sans-serif" font-size="13" lengthAdjust="spacing" textLength="46" x="213.5" y="880.5283">teaches</text><text fill="#000000" font-family="sans-serif" font-size="13" lengthAdjust="spacing" textLength="5" x="117.2137" y="1105.7897">*</text><text fill="#000000" font-family="sans-serif" font-size="13" lengthAdjust="spacing" textLength="5" x="359.2679" y="772.5592">*</text></g><!--link Exam to ExamGrade--><g id="link_Exam_ExamGrade"><path codeLine="104" d="M456.82,1452.21 C517.52,1444.75 610.98,1433.27 669.48,1426.08 " fill="none" id="Exam-ExamGrade" style="stroke:#181818;stroke-width:1.0;"/><polygon fill="#000000" points="545.9627,1424.5357,536.6267,1422.7218,537.3435,1428.5558,545.9627,1424.5357" style="stroke:#000000;stroke-width:1.0;"/><text fill="#000000" font-family="sans-serif" font-size="13" lengthAdjust="spacing" textLength="21" x="550" y="1430.5283">has</text><text fill="#000000" font-family="sans-serif" font-size="13" lengthAdjust="spacing" textLength="7" x="464.5981" y="1466.4249">1</text><text fill="#000000" font-family="sans-serif" font-size="13" lengthAdjust="spacing" textLength="7" x="654.3209" y="1442.2788">1</text></g><!--link ExamGrade to eCourseSystemUser--><g id="link_ExamGrade_eCourseSystemUser"><path codeLine="105" d="M708.85,1388.78 C656.42,1274.89 473.21,876.94 415.23,751.01 " fill="none" id="ExamGrade-eCourseSystemUser" style="stroke:#181818;stroke-width:1.0;"/><polygon fill="#000000" points="538.909,946.6037,540.022,956.0489,545.3612,953.5908,538.909,946.6037" style="stroke:#000000;stroke-width:1.0;"/><text fill="#000000" font-family="sans-serif" font-size="13" lengthAdjust="spacing" textLength="21" x="550" y="956.5283">has</text><text fill="#000000" font-family="sans-serif" font-size="13" lengthAdjust="spacing" textLength="7" x="698.0034" y="1377.7923">1</text><text fill="#000000" font-family="sans-serif" font-size="13" lengthAdjust="spacing" textLength="7" x="410.6573" y="772.5901">1</text></g><!--SRC=[XLN1Zfim4BtxAomkAsr5qbuHGiecRhNI9bc5xgezUiq4t0AcjaaRLVlljI44an3g0ubdtZpFUER1NQPrfOBvlCffgUiYdp5Hp1Nygg5au2USff8M2EMmrrWBB7cQQPnm2KnpKI9KKVQJfe0zijo-x68IVu-_alLBJ7OU3iD5caf8gOOemdyHmcQnd2g5uwFIKBmea0ObXT0648Qar5mV6om-hNkyeGKuMnjJTgPtbnEMefOA_ajz7KaAolD5ae0qcp1yfNaDMBpzC4L6aGlSYHnkvHbhoSiKZ-TcquarrRNbXx8k1i4VCDai7fw8OrWzncVBWEdPF7uBcHYUmyqy5qoAybXCOZQFdoVz3rpgR6LwDubQ0yjeASoKL1bdcxfuQ-vz660CjDQYe9epckT7d489qb0dGx8laYPZnxqxSzQEcHqkEXYkdgKT0xVvCDOlsoZZgqjkXhtButJLjaCddgckRP_9njakdxOnMLsth2LQYh7QtDB8jyLwgZ3oXnQ3iWwci8kgM7lAkQhUOwuWl-4I5PIsqovFBXHSsFewHYHaSfjeNmjw1SdtHmkDGHuuis3L_ckLQP08tUqWf_RjeZ9UAOGSGVj-XBrFta2mO_vE96C-gs64hbyMdRytJO0QajlkNkuJe9D89n16eXFUiq0dC6Fod82t7GomqdLYPWjdL66AerlNTTtF0DSAr7Y4T-zXltasWnnW9i5ah-PrbTXV6sNMIRvTIguAnttDG7OkQ_RzGJ4IzcPExDShl4HzdCtwTAGTEqXQu1bvJlgwe01he2mpcHjyG-AStWiYQAunGht5WOsnjl1_]--></g></svg>