<?xml version="1.0" encoding="us-ascii" standalone="no"?><svg xmlns="http://www.w3.org/2000/svg" xmlns:xlink="http://www.w3.org/1999/xlink" contentStyleType="text/css" height="1073px" preserveAspectRatio="none" style="width:1824px;height:1073px;background:#FFFFFF;" version="1.1" viewBox="0 0 1824 1073" width="1824px" zoomAndPan="magnify"><defs/><g><rect fill="#FFFFFF" height="843.8867" style="stroke:#181818;stroke-width:1.0;" width="10" x="29.5" y="121.5332"/><rect fill="#FFFFFF" height="48.582" style="stroke:#181818;stroke-width:1.0;" width="10" x="523.5" y="121.5332"/><rect fill="#FFFFFF" height="737.7227" style="stroke:#181818;stroke-width:1.0;" width="10" x="523.5" y="218.6973"/><rect fill="#FFFFFF" height="319.2793" style="stroke:#181818;stroke-width:1.0;" width="10" x="832.5" y="249.9883"/><rect fill="#FFFFFF" height="307.2793" style="stroke:#181818;stroke-width:1.0;" width="10" x="832.5" y="617.8496"/><rect fill="#FFFFFF" height="225.4063" style="stroke:#181818;stroke-width:1.0;" width="10" x="1118.5" y="312.5703"/><rect fill="#FFFFFF" height="145.8242" style="stroke:#181818;stroke-width:1.0;" width="10" x="1247.5" y="353.8613"/><rect fill="#FFFFFF" height="102.2031" style="stroke:#181818;stroke-width:1.0;" width="10" x="1344" y="397.4824"/><rect fill="#FFFFFF" height="75.582" style="stroke:#181818;stroke-width:1.0;" width="10" x="1451.5" y="649.1406"/><rect fill="#FFFFFF" height="75.582" style="stroke:#181818;stroke-width:1.0;" width="10" x="1716.5" y="818.2559"/><line style="stroke:#181818;stroke-width:0.5;stroke-dasharray:5.0,5.0;" x1="34" x2="34" y1="88.2422" y2="974.4199"/><line style="stroke:#181818;stroke-width:0.5;stroke-dasharray:5.0,5.0;" x1="528" x2="528" y1="88.2422" y2="974.4199"/><line style="stroke:#181818;stroke-width:0.5;stroke-dasharray:5.0,5.0;" x1="837" x2="837" y1="88.2422" y2="974.4199"/><line style="stroke:#181818;stroke-width:0.5;stroke-dasharray:5.0,5.0;" x1="987" x2="987" y1="88.2422" y2="974.4199"/><line style="stroke:#181818;stroke-width:0.5;stroke-dasharray:5.0,5.0;" x1="1123" x2="1123" y1="88.2422" y2="974.4199"/><line style="stroke:#181818;stroke-width:0.5;stroke-dasharray:5.0,5.0;" x1="1252" x2="1252" y1="352.3809" y2="974.4199"/><line style="stroke:#181818;stroke-width:0.5;stroke-dasharray:5.0,5.0;" x1="1349" x2="1349" y1="396.002" y2="974.4199"/><line style="stroke:#181818;stroke-width:0.5;stroke-dasharray:5.0,5.0;" x1="1456" x2="1456" y1="88.2422" y2="974.4199"/><line style="stroke:#181818;stroke-width:0.5;stroke-dasharray:5.0,5.0;" x1="1625.5" x2="1625.5" y1="773.8438" y2="974.4199"/><line style="stroke:#181818;stroke-width:0.5;stroke-dasharray:5.0,5.0;" x1="1721.5" x2="1721.5" y1="88.2422" y2="974.4199"/><text fill="#000000" font-family="sans-serif" font-size="14" lengthAdjust="spacing" textLength="53" x="5" y="84.7285">Teacher</text><ellipse cx="34.5" cy="18.1211" fill="#E2E2F0" rx="8" ry="8" style="stroke:#181818;stroke-width:0.5;"/><path d="M34.5,26.1211 L34.5,53.1211 M21.5,34.1211 L47.5,34.1211 M34.5,53.1211 L21.5,68.1211 M34.5,53.1211 L47.5,68.1211 " fill="none" style="stroke:#181818;stroke-width:0.5;"/><text fill="#000000" font-family="sans-serif" font-size="14" lengthAdjust="spacing" textLength="53" x="5" y="988.5273">Teacher</text><ellipse cx="34.5" cy="1000.541" fill="#E2E2F0" rx="8" ry="8" style="stroke:#181818;stroke-width:0.5;"/><path d="M34.5,1008.541 L34.5,1035.541 M21.5,1016.541 L47.5,1016.541 M34.5,1035.541 L21.5,1050.541 M34.5,1035.541 L47.5,1050.541 " fill="none" style="stroke:#181818;stroke-width:0.5;"/><rect fill="#E2E2F0" height="32.6211" rx="2.5" ry="2.5" style="stroke:#181818;stroke-width:0.5;" width="107" x="475" y="54.6211"/><text fill="#000000" font-family="sans-serif" font-size="14" lengthAdjust="spacing" textLength="93" x="482" y="76.7285">:CreateExamUI</text><rect fill="#E2E2F0" height="32.6211" rx="2.5" ry="2.5" style="stroke:#181818;stroke-width:0.5;" width="107" x="475" y="973.4199"/><text fill="#000000" font-family="sans-serif" font-size="14" lengthAdjust="spacing" textLength="93" x="482" y="995.5273">:CreateExamUI</text><rect fill="#E2E2F0" height="32.6211" rx="2.5" ry="2.5" style="stroke:#181818;stroke-width:0.5;" width="157" x="759" y="54.6211"/><text fill="#000000" font-family="sans-serif" font-size="14" lengthAdjust="spacing" textLength="143" x="766" y="76.7285">:CreateExamController</text><rect fill="#E2E2F0" height="32.6211" rx="2.5" ry="2.5" style="stroke:#181818;stroke-width:0.5;" width="157" x="759" y="973.4199"/><text fill="#000000" font-family="sans-serif" font-size="14" lengthAdjust="spacing" textLength="143" x="766" y="995.5273">:CreateExamController</text><text fill="#000000" font-family="sans-serif" font-size="14" font-style="italic" lengthAdjust="spacing" textLength="79" x="944.5" y="66.1074">&#171;repository&#187;</text><text fill="#000000" font-family="sans-serif" font-size="14" lengthAdjust="spacing" textLength="116" x="926" y="84.7285">RepositoryFactory</text><path d="M969,15 C969,5 987,5 987,5 C987,5 1005,5 1005,15 L1005,41 C1005,51 987,51 987,51 C987,51 969,51 969,41 L969,15 " fill="#E2E2F0" style="stroke:#181818;stroke-width:1.5;"/><path d="M969,15 C969,25 987,25 987,25 C987,25 1005,25 1005,15 " fill="none" style="stroke:#181818;stroke-width:1.5;"/><text fill="#000000" font-family="sans-serif" font-size="14" font-style="italic" lengthAdjust="spacing" textLength="79" x="944.5" y="988.5273">&#171;repository&#187;</text><text fill="#000000" font-family="sans-serif" font-size="14" lengthAdjust="spacing" textLength="116" x="926" y="1007.1484">RepositoryFactory</text><path d="M969,1020.6621 C969,1010.6621 987,1010.6621 987,1010.6621 C987,1010.6621 1005,1010.6621 1005,1020.6621 L1005,1046.6621 C1005,1056.6621 987,1056.6621 987,1056.6621 C987,1056.6621 969,1056.6621 969,1046.6621 L969,1020.6621 " fill="#E2E2F0" style="stroke:#181818;stroke-width:1.5;"/><path d="M969,1020.6621 C969,1030.6621 987,1030.6621 987,1030.6621 C987,1030.6621 1005,1030.6621 1005,1020.6621 " fill="none" style="stroke:#181818;stroke-width:1.5;"/><rect fill="#E2E2F0" height="51.2422" rx="2.5" ry="2.5" style="stroke:#181818;stroke-width:0.5;" width="131" x="1058" y="36"/><text fill="#000000" font-family="sans-serif" font-size="14" font-style="italic" lengthAdjust="spacing" textLength="60" x="1093.5" y="58.1074">&#171;service&#187;</text><text fill="#000000" font-family="sans-serif" font-size="14" lengthAdjust="spacing" textLength="117" x="1065" y="76.7285">VerifyExamService</text><rect fill="#E2E2F0" height="51.2422" rx="2.5" ry="2.5" style="stroke:#181818;stroke-width:0.5;" width="131" x="1058" y="973.4199"/><text fill="#000000" font-family="sans-serif" font-size="14" font-style="italic" lengthAdjust="spacing" textLength="60" x="1093.5" y="995.5273">&#171;service&#187;</text><text fill="#000000" font-family="sans-serif" font-size="14" lengthAdjust="spacing" textLength="117" x="1065" y="1014.1484">VerifyExamService</text><rect fill="#E2E2F0" height="32.6211" rx="2.5" ry="2.5" style="stroke:#181818;stroke-width:0.5;" width="83" x="1211" y="973.4199"/><text fill="#000000" font-family="sans-serif" font-size="14" lengthAdjust="spacing" textLength="69" x="1218" y="995.5273">ExamLexer</text><rect fill="#E2E2F0" height="32.6211" rx="2.5" ry="2.5" style="stroke:#181818;stroke-width:0.5;" width="90" x="1304" y="973.4199"/><text fill="#000000" font-family="sans-serif" font-size="14" lengthAdjust="spacing" textLength="76" x="1311" y="995.5273">ExamParser</text><rect fill="#E2E2F0" height="32.6211" rx="2.5" ry="2.5" style="stroke:#181818;stroke-width:0.5;" width="105" x="1404" y="54.6211"/><text fill="#000000" font-family="sans-serif" font-size="14" lengthAdjust="spacing" textLength="91" x="1411" y="76.7285">ExamReadFile</text><rect fill="#E2E2F0" height="32.6211" rx="2.5" ry="2.5" style="stroke:#181818;stroke-width:0.5;" width="105" x="1404" y="973.4199"/><text fill="#000000" font-family="sans-serif" font-size="14" lengthAdjust="spacing" textLength="91" x="1411" y="995.5273">ExamReadFile</text><rect fill="#E2E2F0" height="51.2422" rx="2.5" ry="2.5" style="stroke:#181818;stroke-width:0.5;" width="64" x="1593.5" y="973.4199"/><text fill="#000000" font-family="sans-serif" font-size="14" font-style="italic" lengthAdjust="spacing" textLength="50" x="1600.5" y="995.5273">&#171;entity&#187;</text><text fill="#000000" font-family="sans-serif" font-size="14" lengthAdjust="spacing" textLength="34" x="1608.5" y="1014.1484">Exam</text><text fill="#000000" font-family="sans-serif" font-size="14" font-style="italic" lengthAdjust="spacing" textLength="60" x="1688.5" y="66.1074">&#171;service&#187;</text><text fill="#000000" font-family="sans-serif" font-size="14" lengthAdjust="spacing" textLength="102" x="1667.5" y="84.7285">ExamRepository</text><path d="M1703.5,15 C1703.5,5 1721.5,5 1721.5,5 C1721.5,5 1739.5,5 1739.5,15 L1739.5,41 C1739.5,51 1721.5,51 1721.5,51 C1721.5,51 1703.5,51 1703.5,41 L1703.5,15 " fill="#E2E2F0" style="stroke:#181818;stroke-width:1.5;"/><path d="M1703.5,15 C1703.5,25 1721.5,25 1721.5,25 C1721.5,25 1739.5,25 1739.5,15 " fill="none" style="stroke:#181818;stroke-width:1.5;"/><text fill="#000000" font-family="sans-serif" font-size="14" font-style="italic" lengthAdjust="spacing" textLength="60" x="1688.5" y="988.5273">&#171;service&#187;</text><text fill="#000000" font-family="sans-serif" font-size="14" lengthAdjust="spacing" textLength="102" x="1667.5" y="1007.1484">ExamRepository</text><path d="M1703.5,1020.6621 C1703.5,1010.6621 1721.5,1010.6621 1721.5,1010.6621 C1721.5,1010.6621 1739.5,1010.6621 1739.5,1020.6621 L1739.5,1046.6621 C1739.5,1056.6621 1721.5,1056.6621 1721.5,1056.6621 C1721.5,1056.6621 1703.5,1056.6621 1703.5,1046.6621 L1703.5,1020.6621 " fill="#E2E2F0" style="stroke:#181818;stroke-width:1.5;"/><path d="M1703.5,1020.6621 C1703.5,1030.6621 1721.5,1030.6621 1721.5,1030.6621 C1721.5,1030.6621 1739.5,1030.6621 1739.5,1020.6621 " fill="none" style="stroke:#181818;stroke-width:1.5;"/><rect fill="#FFFFFF" height="843.8867" style="stroke:#181818;stroke-width:1.0;" width="10" x="29.5" y="121.5332"/><rect fill="#FFFFFF" height="48.582" style="stroke:#181818;stroke-width:1.0;" width="10" x="523.5" y="121.5332"/><rect fill="#FFFFFF" height="737.7227" style="stroke:#181818;stroke-width:1.0;" width="10" x="523.5" y="218.6973"/><rect fill="#FFFFFF" height="319.2793" style="stroke:#181818;stroke-width:1.0;" width="10" x="832.5" y="249.9883"/><rect fill="#FFFFFF" height="307.2793" style="stroke:#181818;stroke-width:1.0;" width="10" x="832.5" y="617.8496"/><rect fill="#FFFFFF" height="225.4063" style="stroke:#181818;stroke-width:1.0;" width="10" x="1118.5" y="312.5703"/><rect fill="#FFFFFF" height="145.8242" style="stroke:#181818;stroke-width:1.0;" width="10" x="1247.5" y="353.8613"/><rect fill="#FFFFFF" height="102.2031" style="stroke:#181818;stroke-width:1.0;" width="10" x="1344" y="397.4824"/><rect fill="#FFFFFF" height="75.582" style="stroke:#181818;stroke-width:1.0;" width="10" x="1451.5" y="649.1406"/><rect fill="#FFFFFF" height="75.582" style="stroke:#181818;stroke-width:1.0;" width="10" x="1716.5" y="818.2559"/><polygon fill="#181818" points="511.5,117.5332,521.5,121.5332,511.5,125.5332,515.5,121.5332" style="stroke:#181818;stroke-width:1.0;"/><line style="stroke:#181818;stroke-width:1.0;" x1="39.5" x2="517.5" y1="121.5332" y2="121.5332"/><text fill="#000000" font-family="sans-serif" font-size="13" font-weight="bold" lengthAdjust="spacing" textLength="7" x="46.5" y="116.2705">1</text><text fill="#000000" font-family="sans-serif" font-size="13" lengthAdjust="spacing" textLength="161" x="57.5" y="116.2705">Starts creating a new Exam</text><polygon fill="#181818" points="50.5,166.1152,40.5,170.1152,50.5,174.1152,46.5,170.1152" style="stroke:#181818;stroke-width:1.0;"/><line style="stroke:#181818;stroke-width:1.0;stroke-dasharray:2.0,2.0;" x1="44.5" x2="527.5" y1="170.1152" y2="170.1152"/><text fill="#000000" font-family="sans-serif" font-size="13" font-weight="bold" lengthAdjust="spacing" textLength="7" x="56.5" y="156.207">2</text><text fill="#000000" font-family="sans-serif" font-size="13" lengthAdjust="spacing" textLength="276" x="67.5" y="147.5615">asks for the exam code, title, coursecode, open</text><text fill="#000000" font-family="sans-serif" font-size="13" lengthAdjust="spacing" textLength="207" x="71.5" y="164.8525">and close date and the txt exam file</text><polygon fill="#181818" points="511.5,214.6973,521.5,218.6973,511.5,222.6973,515.5,218.6973" style="stroke:#181818;stroke-width:1.0;"/><line style="stroke:#181818;stroke-width:1.0;" x1="39.5" x2="517.5" y1="218.6973" y2="218.6973"/><text fill="#000000" font-family="sans-serif" font-size="13" font-weight="bold" lengthAdjust="spacing" textLength="7" x="46.5" y="204.7891">3</text><text fill="#000000" font-family="sans-serif" font-size="13" lengthAdjust="spacing" textLength="262" x="57.5" y="196.1436">types the exam code, title, coursecode, open</text><text fill="#000000" font-family="sans-serif" font-size="13" lengthAdjust="spacing" textLength="207" x="61.5" y="213.4346">and close date and the txt exam file</text><polygon fill="#181818" points="820.5,245.9883,830.5,249.9883,820.5,253.9883,824.5,249.9883" style="stroke:#181818;stroke-width:1.0;"/><line style="stroke:#181818;stroke-width:1.0;" x1="533.5" x2="826.5" y1="249.9883" y2="249.9883"/><text fill="#000000" font-family="sans-serif" font-size="13" font-weight="bold" lengthAdjust="spacing" textLength="7" x="540.5" y="244.7256">4</text><text fill="#000000" font-family="sans-serif" font-size="13" lengthAdjust="spacing" textLength="121" x="551.5" y="244.7256">verifyExam(fileName)</text><polygon fill="#181818" points="975,277.2793,985,281.2793,975,285.2793,979,281.2793" style="stroke:#181818;stroke-width:1.0;"/><line style="stroke:#181818;stroke-width:1.0;" x1="842.5" x2="981" y1="281.2793" y2="281.2793"/><text fill="#000000" font-family="sans-serif" font-size="13" font-weight="bold" lengthAdjust="spacing" textLength="7" x="849.5" y="276.0166">5</text><text fill="#000000" font-family="sans-serif" font-size="13" lengthAdjust="spacing" textLength="4" x="860.5" y="276.0166">&#160;</text><polygon fill="#181818" points="1106.5,308.5703,1116.5,312.5703,1106.5,316.5703,1110.5,312.5703" style="stroke:#181818;stroke-width:1.0;"/><line style="stroke:#181818;stroke-width:1.0;" x1="842.5" x2="1112.5" y1="312.5703" y2="312.5703"/><text fill="#000000" font-family="sans-serif" font-size="13" font-weight="bold" lengthAdjust="spacing" textLength="7" x="849.5" y="307.3076">6</text><text fill="#000000" font-family="sans-serif" font-size="13" lengthAdjust="spacing" textLength="121" x="860.5" y="307.3076">verifyExam(fileName)</text><polygon fill="#181818" points="1199,339.8613,1209,343.8613,1199,347.8613,1203,343.8613" style="stroke:#181818;stroke-width:1.0;"/><line style="stroke:#181818;stroke-width:1.0;" x1="1128.5" x2="1205" y1="343.8613" y2="343.8613"/><text fill="#000000" font-family="sans-serif" font-size="13" font-weight="bold" lengthAdjust="spacing" textLength="7" x="1135.5" y="338.5986">7</text><text fill="#000000" font-family="sans-serif" font-size="13" lengthAdjust="spacing" textLength="4" x="1146.5" y="338.5986">&#160;</text><rect fill="#E2E2F0" height="32.6211" rx="2.5" ry="2.5" style="stroke:#181818;stroke-width:0.5;" width="83" x="1211" y="320.5703"/><text fill="#000000" font-family="sans-serif" font-size="14" lengthAdjust="spacing" textLength="69" x="1218" y="342.6777">ExamLexer</text><polygon fill="#181818" points="1292,383.4824,1302,387.4824,1292,391.4824,1296,387.4824" style="stroke:#181818;stroke-width:1.0;"/><line style="stroke:#181818;stroke-width:1.0;" x1="1128.5" x2="1298" y1="387.4824" y2="387.4824"/><text fill="#000000" font-family="sans-serif" font-size="13" font-weight="bold" lengthAdjust="spacing" textLength="7" x="1135.5" y="382.2197">8</text><text fill="#000000" font-family="sans-serif" font-size="13" lengthAdjust="spacing" textLength="4" x="1146.5" y="382.2197">&#160;</text><rect fill="#E2E2F0" height="32.6211" rx="2.5" ry="2.5" style="stroke:#181818;stroke-width:0.5;" width="90" x="1304" y="364.1914"/><text fill="#000000" font-family="sans-serif" font-size="14" lengthAdjust="spacing" textLength="76" x="1311" y="386.2988">ExamParser</text><polygon fill="#181818" points="1139.5,427.1035,1129.5,431.1035,1139.5,435.1035,1135.5,431.1035" style="stroke:#181818;stroke-width:1.0;"/><line style="stroke:#181818;stroke-width:1.0;stroke-dasharray:2.0,2.0;" x1="1133.5" x2="1246.5" y1="431.1035" y2="431.1035"/><text fill="#000000" font-family="sans-serif" font-size="13" font-weight="bold" lengthAdjust="spacing" textLength="7" x="1145.5" y="425.8408">9</text><text fill="#000000" font-family="sans-serif" font-size="13" lengthAdjust="spacing" textLength="4" x="1156.5" y="425.8408">&#160;</text><polygon fill="#181818" points="1139.5,458.3945,1129.5,462.3945,1139.5,466.3945,1135.5,462.3945" style="stroke:#181818;stroke-width:1.0;"/><line style="stroke:#181818;stroke-width:1.0;stroke-dasharray:2.0,2.0;" x1="1133.5" x2="1343" y1="462.3945" y2="462.3945"/><text fill="#000000" font-family="sans-serif" font-size="13" font-weight="bold" lengthAdjust="spacing" textLength="14" x="1145.5" y="457.1318">10</text><text fill="#000000" font-family="sans-serif" font-size="13" lengthAdjust="spacing" textLength="4" x="1163.5" y="457.1318">&#160;</text><line style="stroke:#181818;stroke-width:1.0;" x1="1128.5" x2="1170.5" y1="498.6855" y2="498.6855"/><line style="stroke:#181818;stroke-width:1.0;" x1="1170.5" x2="1170.5" y1="498.6855" y2="511.6855"/><line style="stroke:#181818;stroke-width:1.0;" x1="1123.5" x2="1170.5" y1="511.6855" y2="511.6855"/><polygon fill="#181818" points="1133.5,507.6855,1123.5,511.6855,1133.5,515.6855,1129.5,511.6855" style="stroke:#181818;stroke-width:1.0;"/><text fill="#000000" font-family="sans-serif" font-size="13" font-weight="bold" lengthAdjust="spacing" textLength="14" x="1135.5" y="493.4229">11</text><text fill="#000000" font-family="sans-serif" font-size="13" lengthAdjust="spacing" textLength="87" x="1153.5" y="493.4229">verify(fileName)</text><polygon fill="#181818" points="853.5,533.9766,843.5,537.9766,853.5,541.9766,849.5,537.9766" style="stroke:#181818;stroke-width:1.0;"/><line style="stroke:#181818;stroke-width:1.0;stroke-dasharray:2.0,2.0;" x1="847.5" x2="1122.5" y1="537.9766" y2="537.9766"/><text fill="#000000" font-family="sans-serif" font-size="13" font-weight="bold" lengthAdjust="spacing" textLength="14" x="859.5" y="532.7139">12</text><text fill="#000000" font-family="sans-serif" font-size="13" lengthAdjust="spacing" textLength="4" x="877.5" y="532.7139">&#160;</text><polygon fill="#181818" points="544.5,565.2676,534.5,569.2676,544.5,573.2676,540.5,569.2676" style="stroke:#181818;stroke-width:1.0;"/><line style="stroke:#181818;stroke-width:1.0;stroke-dasharray:2.0,2.0;" x1="538.5" x2="836.5" y1="569.2676" y2="569.2676"/><text fill="#000000" font-family="sans-serif" font-size="13" font-weight="bold" lengthAdjust="spacing" textLength="14" x="550.5" y="564.0049">13</text><text fill="#000000" font-family="sans-serif" font-size="13" lengthAdjust="spacing" textLength="4" x="568.5" y="564.0049">&#160;</text><polygon fill="#181818" points="820.5,613.8496,830.5,617.8496,820.5,621.8496,824.5,617.8496" style="stroke:#181818;stroke-width:1.0;"/><line style="stroke:#181818;stroke-width:1.0;" x1="533.5" x2="826.5" y1="617.8496" y2="617.8496"/><text fill="#000000" font-family="sans-serif" font-size="13" font-weight="bold" lengthAdjust="spacing" textLength="14" x="540.5" y="603.9414">14</text><text fill="#000000" font-family="sans-serif" font-size="13" lengthAdjust="spacing" textLength="203" x="558.5" y="595.2959">exmaDto = createExam(code, title,</text><text fill="#000000" font-family="sans-serif" font-size="13" lengthAdjust="spacing" textLength="258" x="562.5" y="612.5869">coursecode, openDate, closeDate, fileName)</text><polygon fill="#181818" points="1439.5,645.1406,1449.5,649.1406,1439.5,653.1406,1443.5,649.1406" style="stroke:#181818;stroke-width:1.0;"/><line style="stroke:#181818;stroke-width:1.0;" x1="842.5" x2="1445.5" y1="649.1406" y2="649.1406"/><text fill="#000000" font-family="sans-serif" font-size="13" font-weight="bold" lengthAdjust="spacing" textLength="14" x="849.5" y="643.8779">15</text><text fill="#000000" font-family="sans-serif" font-size="13" lengthAdjust="spacing" textLength="127" x="867.5" y="643.8779">FileToString(finalPath)</text><line style="stroke:#181818;stroke-width:1.0;" x1="1461.5" x2="1503.5" y1="680.4316" y2="680.4316"/><line style="stroke:#181818;stroke-width:1.0;" x1="1503.5" x2="1503.5" y1="680.4316" y2="693.4316"/><line style="stroke:#181818;stroke-width:1.0;" x1="1462.5" x2="1503.5" y1="693.4316" y2="693.4316"/><polygon fill="#181818" points="1472.5,689.4316,1462.5,693.4316,1472.5,697.4316,1468.5,693.4316" style="stroke:#181818;stroke-width:1.0;"/><text fill="#000000" font-family="sans-serif" font-size="13" font-weight="bold" lengthAdjust="spacing" textLength="14" x="1468.5" y="675.1689">16</text><text fill="#000000" font-family="sans-serif" font-size="13" lengthAdjust="spacing" textLength="127" x="1486.5" y="675.1689">FileToString(finalPath)</text><polygon fill="#181818" points="853.5,720.7227,843.5,724.7227,853.5,728.7227,849.5,724.7227" style="stroke:#181818;stroke-width:1.0;"/><line style="stroke:#181818;stroke-width:1.0;stroke-dasharray:2.0,2.0;" x1="847.5" x2="1455.5" y1="724.7227" y2="724.7227"/><text fill="#000000" font-family="sans-serif" font-size="13" font-weight="bold" lengthAdjust="spacing" textLength="14" x="859.5" y="719.46">17</text><text fill="#000000" font-family="sans-serif" font-size="13" lengthAdjust="spacing" textLength="27" x="877.5" y="719.46">lines</text><polygon fill="#181818" points="1581.5,752.0137,1591.5,756.0137,1581.5,760.0137,1585.5,756.0137" style="stroke:#181818;stroke-width:1.0;"/><line style="stroke:#181818;stroke-width:1.0;" x1="842.5" x2="1587.5" y1="756.0137" y2="756.0137"/><text fill="#000000" font-family="sans-serif" font-size="13" font-weight="bold" lengthAdjust="spacing" textLength="14" x="849.5" y="750.751">18</text><text fill="#000000" font-family="sans-serif" font-size="13" lengthAdjust="spacing" textLength="461" x="867.5" y="750.751">Exam(code, title, CourseCode.valueOf(courseCode), opendate, closedate, lines)</text><rect fill="#E2E2F0" height="51.2422" rx="2.5" ry="2.5" style="stroke:#181818;stroke-width:0.5;" width="64" x="1593.5" y="732.7227"/><text fill="#000000" font-family="sans-serif" font-size="14" font-style="italic" lengthAdjust="spacing" textLength="50" x="1600.5" y="754.8301">&#171;entity&#187;</text><text fill="#000000" font-family="sans-serif" font-size="14" lengthAdjust="spacing" textLength="34" x="1608.5" y="773.4512">Exam</text><polygon fill="#181818" points="1704.5,814.2559,1714.5,818.2559,1704.5,822.2559,1708.5,818.2559" style="stroke:#181818;stroke-width:1.0;"/><line style="stroke:#181818;stroke-width:1.0;" x1="842.5" x2="1710.5" y1="818.2559" y2="818.2559"/><text fill="#000000" font-family="sans-serif" font-size="13" font-weight="bold" lengthAdjust="spacing" textLength="14" x="849.5" y="812.9932">19</text><text fill="#000000" font-family="sans-serif" font-size="13" lengthAdjust="spacing" textLength="66" x="867.5" y="812.9932">save(exam)</text><line style="stroke:#181818;stroke-width:1.0;" x1="1726.5" x2="1768.5" y1="849.5469" y2="849.5469"/><line style="stroke:#181818;stroke-width:1.0;" x1="1768.5" x2="1768.5" y1="849.5469" y2="862.5469"/><line style="stroke:#181818;stroke-width:1.0;" x1="1727.5" x2="1768.5" y1="862.5469" y2="862.5469"/><polygon fill="#181818" points="1737.5,858.5469,1727.5,862.5469,1737.5,866.5469,1733.5,862.5469" style="stroke:#181818;stroke-width:1.0;"/><text fill="#000000" font-family="sans-serif" font-size="13" font-weight="bold" lengthAdjust="spacing" textLength="14" x="1733.5" y="844.2842">20</text><text fill="#000000" font-family="sans-serif" font-size="13" lengthAdjust="spacing" textLength="66" x="1751.5" y="844.2842">save(exam)</text><polygon fill="#181818" points="853.5,889.8379,843.5,893.8379,853.5,897.8379,849.5,893.8379" style="stroke:#181818;stroke-width:1.0;"/><line style="stroke:#181818;stroke-width:1.0;stroke-dasharray:2.0,2.0;" x1="847.5" x2="1720.5" y1="893.8379" y2="893.8379"/><text fill="#000000" font-family="sans-serif" font-size="13" font-weight="bold" lengthAdjust="spacing" textLength="14" x="859.5" y="888.5752">21</text><text fill="#000000" font-family="sans-serif" font-size="13" lengthAdjust="spacing" textLength="4" x="877.5" y="888.5752">&#160;</text><polygon fill="#181818" points="544.5,921.1289,534.5,925.1289,544.5,929.1289,540.5,925.1289" style="stroke:#181818;stroke-width:1.0;"/><line style="stroke:#181818;stroke-width:1.0;stroke-dasharray:2.0,2.0;" x1="538.5" x2="836.5" y1="925.1289" y2="925.1289"/><text fill="#000000" font-family="sans-serif" font-size="13" font-weight="bold" lengthAdjust="spacing" textLength="14" x="550.5" y="919.8662">22</text><text fill="#000000" font-family="sans-serif" font-size="13" lengthAdjust="spacing" textLength="52" x="568.5" y="919.8662">examDto</text><polygon fill="#181818" points="50.5,952.4199,40.5,956.4199,50.5,960.4199,46.5,956.4199" style="stroke:#181818;stroke-width:1.0;"/><line style="stroke:#181818;stroke-width:1.0;stroke-dasharray:2.0,2.0;" x1="44.5" x2="527.5" y1="956.4199" y2="956.4199"/><text fill="#000000" font-family="sans-serif" font-size="13" font-weight="bold" lengthAdjust="spacing" textLength="14" x="56.5" y="951.1572">23</text><text fill="#000000" font-family="sans-serif" font-size="13" lengthAdjust="spacing" textLength="442" x="74.5" y="951.1572">shows the exam data and confirm the creation of the exam was successfully</text><!--SRC=[hLHDRzim3BthLmYzB2cQvcvq0Oeq0Geqc-6qE-sYodHZp9OyIKwSVpzIcXqvQR3BJWd5zqW-VlZBphd69lDvKmdbshgwbxgUM_ZTWf8moqlnOKJDc6YTLctz3eQnH-cquQyWv0uC5vPlX6Ai4SQLicmm3Bz9bWQ4WrKdwhVd6yAyFLz5BBLoHbSL68z4a-N2YNTXWMVGQ5jYlkDQKDeZ8TQF6NzuC8DhiHZ5_W6cB8uKUGjcNqeW3ZuYnuQ7Cm91Nw0BObRTouKp5SRstlJ2cu78rsNbqwoozOK_y30xA5SwgdQG5-Yz3W_SPACw6SFkyja26yWJldKOst99lIlL1nTSmS57OTYUSeyTzTCO36mxG-OC0r2S15Fyihp0-RaTSA3gfCxXZcDb5Vv8tQBKyAGRKFoduaBbN5OQoyqf99b4TfqB0GhKpd8OvOoBTiS6xF_E5sSZWGlQ6qos7uO_8TmtKSFq1ART8Xp2QOcItg3jkC8zaH7428XuN9BRMwGFFjgQmPUU-rA6VZy4dmYjDB9wObn4L43KMSeoCjF0xTMps4lb1dr_1n4xgH6Zla5NYoUd-TUmNFum9wDHuMJEf_M4mBimg_3tIilxDkDrO2gwbLUzTGOt67KgKQN2xI8A7H51_ydme452LIgme_vWd5FkZgR2BtKjlQWbFjtlHTN2zs8YXwTf49gVX8Q_FjTqY8r7ct0hzZ2X3OsbR396tiz0_dqONLmtakB1-RN7uNmwmE6oxKuVeZEZRqmu9QsAqjJU4puS65eN9-G1FpksbHAiBTggEevl-Gy0]--></g></svg>