<?xml version="1.0" encoding="us-ascii" standalone="no"?><svg xmlns="http://www.w3.org/2000/svg" xmlns:xlink="http://www.w3.org/1999/xlink" contentStyleType="text/css" height="113px" preserveAspectRatio="none" style="width:267px;height:113px;background:#FFFFFF;" version="1.1" viewBox="0 0 267 113" width="267px" zoomAndPan="magnify"><defs/><g><!--entity Teacher--><g id="elem_Teacher"><ellipse cx="32.5" cy="25.5" fill="#F1F1F1" rx="8" ry="8" style="stroke:#181818;stroke-width:0.5;"/><path d="M32.5,33.5 L32.5,60.5 M19.5,41.5 L45.5,41.5 M32.5,60.5 L19.5,75.5 M32.5,60.5 L45.5,75.5 " fill="none" style="stroke:#181818;stroke-width:0.5;"/><text fill="#000000" font-family="sans-serif" font-size="14" lengthAdjust="spacing" textLength="53" x="6" y="92.1074">Teacher</text></g><g id="elem_UC1"><ellipse cx="189.9347" cy="22.5022" fill="#F1F1F1" rx="70.4347" ry="16.5022" style="stroke:#181818;stroke-width:0.5;"/><text fill="#000000" font-family="sans-serif" font-size="14" lengthAdjust="spacing" textLength="81" x="146.4347" y="27.3059">Create Exam</text></g><g id="elem_UC2"><ellipse cx="190.1283" cy="90.6257" fill="#F1F1F1" rx="71.1283" ry="16.6257" style="stroke:#181818;stroke-width:0.5;"/><text fill="#000000" font-family="sans-serif" font-size="14" lengthAdjust="spacing" textLength="83" x="145.6283" y="95.4294">Update Exam</text></g><!--link Teacher to UC1--><g id="link_Teacher_UC1"><path d="M59.18,50.89 C79.15,46.52 107.61,40.29 132.8,34.79 " fill="none" id="Teacher-to-UC1" style="stroke:#181818;stroke-width:1.0;"/><polygon fill="#181818" points="137.79,33.7,128.1409,31.7266,132.9067,34.774,129.8593,39.5399,137.79,33.7" style="stroke:#181818;stroke-width:1.0;"/></g><!--link Teacher to UC2--><g id="link_Teacher_UC2"><path d="M59.18,62.11 C79.15,66.48 107.61,72.71 132.8,78.21 " fill="none" id="Teacher-to-UC2" style="stroke:#181818;stroke-width:1.0;"/><polygon fill="#181818" points="137.79,79.3,129.8593,73.4601,132.9067,78.226,128.1409,81.2734,137.79,79.3" style="stroke:#181818;stroke-width:1.0;"/></g><!--SRC=[oqbDAr4eoLSeoapFA558oInAJIx9pC_ZIamkoIzI24bDJCv8BU8gBKvDJYnELL1oBafDB4bLSAr8p5LII2nM27KsH4Y65gIWIHfnGKrGqDMr0oj6vHi10000]--></g></svg>