<?xml version="1.0" encoding="us-ascii" standalone="no"?><svg xmlns="http://www.w3.org/2000/svg" xmlns:xlink="http://www.w3.org/1999/xlink" contentStyleType="text/css" height="947px" preserveAspectRatio="none" style="width:3148px;height:947px;background:#FFFFFF;" version="1.1" viewBox="0 0 3148 947" width="3148px" zoomAndPan="magnify"><defs/><g><!--class SystemUser--><g id="elem_SystemUser"><rect codeLine="2" fill="#F1F1F1" height="113.7852" id="SystemUser" rx="2.5" ry="2.5" style="stroke:#181818;stroke-width:0.5;" width="107" x="1708.5" y="211"/><ellipse cx="1723.5" cy="241.2715" fill="#ADD1B2" rx="11" ry="11" style="stroke:#181818;stroke-width:1.0;"/><path d="M1726.2656,237.1465 Q1726.4219,236.9277 1726.6094,236.8184 Q1726.7969,236.709 1727.0156,236.709 Q1727.3906,236.709 1727.625,236.9746 Q1727.8594,237.2246 1727.8594,237.834 L1727.8594,239.2871 Q1727.8594,239.8965 1727.625,240.1621 Q1727.3906,240.4277 1727.0156,240.4277 Q1726.6719,240.4277 1726.4688,240.2246 Q1726.2656,240.0371 1726.1563,239.5215 Q1726.1094,239.1621 1725.9219,238.9746 Q1725.5938,238.5996 1724.9844,238.3809 Q1724.375,238.1621 1723.75,238.1621 Q1722.9844,238.1621 1722.3438,238.4902 Q1721.7188,238.8184 1721.2188,239.5684 Q1720.7344,240.3184 1720.7344,241.3496 L1720.7344,242.4434 Q1720.7344,243.6777 1721.625,244.5059 Q1722.5156,245.3184 1724.1094,245.3184 Q1725.0469,245.3184 1725.7031,245.0684 Q1726.0938,244.9121 1726.5156,244.4746 Q1726.7813,244.209 1726.9219,244.1309 Q1727.0781,244.0527 1727.2813,244.0527 Q1727.6094,244.0527 1727.8594,244.3184 Q1728.125,244.5684 1728.125,244.9121 Q1728.125,245.2559 1727.7813,245.6621 Q1727.2813,246.2402 1726.4844,246.5684 Q1725.4063,247.0215 1724.1094,247.0215 Q1722.5938,247.0215 1721.3906,246.3965 Q1720.4063,245.8965 1719.7188,244.834 Q1719.0313,243.7559 1719.0313,242.4746 L1719.0313,241.3184 Q1719.0313,239.9902 1719.6406,238.8496 Q1720.2656,237.6934 1721.3594,237.084 Q1722.4531,236.459 1723.6875,236.459 Q1724.4219,236.459 1725.0625,236.6309 Q1725.7188,236.7871 1726.2656,237.1465 Z " fill="#000000"/><text fill="#000000" font-family="sans-serif" font-size="12" font-style="italic" lengthAdjust="spacing" textLength="35" x="1757.5" y="228.9492">&#171;root&#187;</text><text fill="#000000" font-family="sans-serif" font-size="12" font-style="italic" lengthAdjust="spacing" textLength="44" x="1753" y="244.9102">&#171;Entity&#187;</text><text fill="#000000" font-family="sans-serif" font-size="14" lengthAdjust="spacing" textLength="75" x="1737.5" y="263.0293">SystemUser</text><line style="stroke:#181818;stroke-width:0.5;" x1="1709.5" x2="1814.5" y1="271.543" y2="271.543"/><ellipse cx="1719.5" cy="286.3535" fill="#000000" rx="3" ry="3" style="stroke:#000000;stroke-width:1.0;"/><text fill="#000000" font-family="sans-serif" font-size="14" lengthAdjust="spacing" textLength="36" x="1728.5" y="290.6504">Name</text><ellipse cx="1719.5" cy="304.9746" fill="#000000" rx="3" ry="3" style="stroke:#000000;stroke-width:1.0;"/><text fill="#000000" font-family="sans-serif" font-size="14" lengthAdjust="spacing" textLength="64" x="1728.5" y="309.2715">Username</text><line style="stroke:#181818;stroke-width:0.5;" x1="1709.5" x2="1814.5" y1="316.7852" y2="316.7852"/></g><!--class eCourseSystemUser--><g id="elem_eCourseSystemUser"><rect codeLine="7" fill="#F1F1F1" height="76.543" id="eCourseSystemUser" rx="2.5" ry="2.5" style="stroke:#181818;stroke-width:0.5;" width="161" x="1962.5" y="7"/><ellipse cx="1977.5" cy="37.2715" fill="#ADD1B2" rx="11" ry="11" style="stroke:#181818;stroke-width:1.0;"/><path d="M1980.2656,33.1465 Q1980.4219,32.9277 1980.6094,32.8184 Q1980.7969,32.709 1981.0156,32.709 Q1981.3906,32.709 1981.625,32.9746 Q1981.8594,33.2246 1981.8594,33.834 L1981.8594,35.2871 Q1981.8594,35.8965 1981.625,36.1621 Q1981.3906,36.4277 1981.0156,36.4277 Q1980.6719,36.4277 1980.4688,36.2246 Q1980.2656,36.0371 1980.1563,35.5215 Q1980.1094,35.1621 1979.9219,34.9746 Q1979.5938,34.5996 1978.9844,34.3809 Q1978.375,34.1621 1977.75,34.1621 Q1976.9844,34.1621 1976.3438,34.4902 Q1975.7188,34.8184 1975.2188,35.5684 Q1974.7344,36.3184 1974.7344,37.3496 L1974.7344,38.4434 Q1974.7344,39.6777 1975.625,40.5059 Q1976.5156,41.3184 1978.1094,41.3184 Q1979.0469,41.3184 1979.7031,41.0684 Q1980.0938,40.9121 1980.5156,40.4746 Q1980.7813,40.209 1980.9219,40.1309 Q1981.0781,40.0527 1981.2813,40.0527 Q1981.6094,40.0527 1981.8594,40.3184 Q1982.125,40.5684 1982.125,40.9121 Q1982.125,41.2559 1981.7813,41.6621 Q1981.2813,42.2402 1980.4844,42.5684 Q1979.4063,43.0215 1978.1094,43.0215 Q1976.5938,43.0215 1975.3906,42.3965 Q1974.4063,41.8965 1973.7188,40.834 Q1973.0313,39.7559 1973.0313,38.4746 L1973.0313,37.3184 Q1973.0313,35.9902 1973.6406,34.8496 Q1974.2656,33.6934 1975.3594,33.084 Q1976.4531,32.459 1977.6875,32.459 Q1978.4219,32.459 1979.0625,32.6309 Q1979.7188,32.7871 1980.2656,33.1465 Z " fill="#000000"/><text fill="#000000" font-family="sans-serif" font-size="12" font-style="italic" lengthAdjust="spacing" textLength="35" x="2038.5" y="24.9492">&#171;root&#187;</text><text fill="#000000" font-family="sans-serif" font-size="12" font-style="italic" lengthAdjust="spacing" textLength="44" x="2034" y="40.9102">&#171;Entity&#187;</text><text fill="#000000" font-family="sans-serif" font-size="14" lengthAdjust="spacing" textLength="129" x="1991.5" y="59.0293">eCourseSystemUser</text><line style="stroke:#181818;stroke-width:0.5;" x1="1963.5" x2="2122.5" y1="67.543" y2="67.543"/><line style="stroke:#181818;stroke-width:0.5;" x1="1963.5" x2="2122.5" y1="75.543" y2="75.543"/></g><!--class EmailAdderss--><g id="elem_EmailAdderss"><rect codeLine="11" fill="#F1F1F1" height="60.582" id="EmailAdderss" rx="2.5" ry="2.5" style="stroke:#181818;stroke-width:0.5;" width="118" x="1633" y="482.5"/><ellipse cx="1648" cy="504.791" fill="#ADD1B2" rx="11" ry="11" style="stroke:#181818;stroke-width:1.0;"/><path d="M1650.7656,500.666 Q1650.9219,500.4473 1651.1094,500.3379 Q1651.2969,500.2285 1651.5156,500.2285 Q1651.8906,500.2285 1652.125,500.4941 Q1652.3594,500.7441 1652.3594,501.3535 L1652.3594,502.8066 Q1652.3594,503.416 1652.125,503.6816 Q1651.8906,503.9473 1651.5156,503.9473 Q1651.1719,503.9473 1650.9688,503.7441 Q1650.7656,503.5566 1650.6563,503.041 Q1650.6094,502.6816 1650.4219,502.4941 Q1650.0938,502.1191 1649.4844,501.9004 Q1648.875,501.6816 1648.25,501.6816 Q1647.4844,501.6816 1646.8438,502.0098 Q1646.2188,502.3379 1645.7188,503.0879 Q1645.2344,503.8379 1645.2344,504.8691 L1645.2344,505.9629 Q1645.2344,507.1973 1646.125,508.0254 Q1647.0156,508.8379 1648.6094,508.8379 Q1649.5469,508.8379 1650.2031,508.5879 Q1650.5938,508.4316 1651.0156,507.9941 Q1651.2813,507.7285 1651.4219,507.6504 Q1651.5781,507.5723 1651.7813,507.5723 Q1652.1094,507.5723 1652.3594,507.8379 Q1652.625,508.0879 1652.625,508.4316 Q1652.625,508.7754 1652.2813,509.1816 Q1651.7813,509.7598 1650.9844,510.0879 Q1649.9063,510.541 1648.6094,510.541 Q1647.0938,510.541 1645.8906,509.916 Q1644.9063,509.416 1644.2188,508.3535 Q1643.5313,507.2754 1643.5313,505.9941 L1643.5313,504.8379 Q1643.5313,503.5098 1644.1406,502.3691 Q1644.7656,501.2129 1645.8594,500.6035 Q1646.9531,499.9785 1648.1875,499.9785 Q1648.9219,499.9785 1649.5625,500.1504 Q1650.2188,500.3066 1650.7656,500.666 Z " fill="#000000"/><text fill="#000000" font-family="sans-serif" font-size="12" font-style="italic" lengthAdjust="spacing" textLength="83" x="1663.5" y="500.4492">&#171;Value object&#187;</text><text fill="#000000" font-family="sans-serif" font-size="14" lengthAdjust="spacing" textLength="86" x="1662" y="518.5684">EmailAdderss</text><line style="stroke:#181818;stroke-width:0.5;" x1="1634" x2="1750" y1="527.082" y2="527.082"/><line style="stroke:#181818;stroke-width:0.5;" x1="1634" x2="1750" y1="535.082" y2="535.082"/></g><!--class Role--><g id="elem_Role"><rect codeLine="13" fill="#F1F1F1" height="79.2031" id="Role" rx="2.5" ry="2.5" style="stroke:#181818;stroke-width:0.5;" width="102" x="1931" y="473.5"/><ellipse cx="1959.5" cy="495.791" fill="#ADD1B2" rx="11" ry="11" style="stroke:#181818;stroke-width:1.0;"/><path d="M1962.2656,491.666 Q1962.4219,491.4473 1962.6094,491.3379 Q1962.7969,491.2285 1963.0156,491.2285 Q1963.3906,491.2285 1963.625,491.4941 Q1963.8594,491.7441 1963.8594,492.3535 L1963.8594,493.8066 Q1963.8594,494.416 1963.625,494.6816 Q1963.3906,494.9473 1963.0156,494.9473 Q1962.6719,494.9473 1962.4688,494.7441 Q1962.2656,494.5566 1962.1563,494.041 Q1962.1094,493.6816 1961.9219,493.4941 Q1961.5938,493.1191 1960.9844,492.9004 Q1960.375,492.6816 1959.75,492.6816 Q1958.9844,492.6816 1958.3438,493.0098 Q1957.7188,493.3379 1957.2188,494.0879 Q1956.7344,494.8379 1956.7344,495.8691 L1956.7344,496.9629 Q1956.7344,498.1973 1957.625,499.0254 Q1958.5156,499.8379 1960.1094,499.8379 Q1961.0469,499.8379 1961.7031,499.5879 Q1962.0938,499.4316 1962.5156,498.9941 Q1962.7813,498.7285 1962.9219,498.6504 Q1963.0781,498.5723 1963.2813,498.5723 Q1963.6094,498.5723 1963.8594,498.8379 Q1964.125,499.0879 1964.125,499.4316 Q1964.125,499.7754 1963.7813,500.1816 Q1963.2813,500.7598 1962.4844,501.0879 Q1961.4063,501.541 1960.1094,501.541 Q1958.5938,501.541 1957.3906,500.916 Q1956.4063,500.416 1955.7188,499.3535 Q1955.0313,498.2754 1955.0313,496.9941 L1955.0313,495.8379 Q1955.0313,494.5098 1955.6406,493.3691 Q1956.2656,492.2129 1957.3594,491.6035 Q1958.4531,490.9785 1959.6875,490.9785 Q1960.4219,490.9785 1961.0625,491.1504 Q1961.7188,491.3066 1962.2656,491.666 Z " fill="#000000"/><text fill="#000000" font-family="sans-serif" font-size="12" font-style="italic" lengthAdjust="spacing" textLength="44" x="1974.5" y="491.4492">&#171;Entity&#187;</text><text fill="#000000" font-family="sans-serif" font-size="14" lengthAdjust="spacing" textLength="29" x="1982" y="509.5684">Role</text><line style="stroke:#181818;stroke-width:0.5;" x1="1932" x2="2032" y1="518.082" y2="518.082"/><ellipse cx="1942" cy="532.8926" fill="#000000" rx="3" ry="3" style="stroke:#000000;stroke-width:1.0;"/><text fill="#000000" font-family="sans-serif" font-size="14" lengthAdjust="spacing" textLength="76" x="1951" y="537.1895">String name</text><line style="stroke:#181818;stroke-width:0.5;" x1="1932" x2="2032" y1="544.7031" y2="544.7031"/></g><!--class UserStatus--><g id="elem_UserStatus"><rect codeLine="17" fill="#F1F1F1" height="97.8242" id="UserStatus" rx="2.5" ry="2.5" style="stroke:#181818;stroke-width:0.5;" width="101" x="1922.5" y="219"/><ellipse cx="1937.5" cy="241.291" fill="#ADD1B2" rx="11" ry="11" style="stroke:#181818;stroke-width:1.0;"/><path d="M1940.2656,237.166 Q1940.4219,236.9473 1940.6094,236.8379 Q1940.7969,236.7285 1941.0156,236.7285 Q1941.3906,236.7285 1941.625,236.9941 Q1941.8594,237.2441 1941.8594,237.8535 L1941.8594,239.3066 Q1941.8594,239.916 1941.625,240.1816 Q1941.3906,240.4473 1941.0156,240.4473 Q1940.6719,240.4473 1940.4688,240.2441 Q1940.2656,240.0566 1940.1563,239.541 Q1940.1094,239.1816 1939.9219,238.9941 Q1939.5938,238.6191 1938.9844,238.4004 Q1938.375,238.1816 1937.75,238.1816 Q1936.9844,238.1816 1936.3438,238.5098 Q1935.7188,238.8379 1935.2188,239.5879 Q1934.7344,240.3379 1934.7344,241.3691 L1934.7344,242.4629 Q1934.7344,243.6973 1935.625,244.5254 Q1936.5156,245.3379 1938.1094,245.3379 Q1939.0469,245.3379 1939.7031,245.0879 Q1940.0938,244.9316 1940.5156,244.4941 Q1940.7813,244.2285 1940.9219,244.1504 Q1941.0781,244.0723 1941.2813,244.0723 Q1941.6094,244.0723 1941.8594,244.3379 Q1942.125,244.5879 1942.125,244.9316 Q1942.125,245.2754 1941.7813,245.6816 Q1941.2813,246.2598 1940.4844,246.5879 Q1939.4063,247.041 1938.1094,247.041 Q1936.5938,247.041 1935.3906,246.416 Q1934.4063,245.916 1933.7188,244.8535 Q1933.0313,243.7754 1933.0313,242.4941 L1933.0313,241.3379 Q1933.0313,240.0098 1933.6406,238.8691 Q1934.2656,237.7129 1935.3594,237.1035 Q1936.4531,236.4785 1937.6875,236.4785 Q1938.4219,236.4785 1939.0625,236.6504 Q1939.7188,236.8066 1940.2656,237.166 Z " fill="#000000"/><text fill="#000000" font-family="sans-serif" font-size="12" font-style="italic" lengthAdjust="spacing" textLength="46" x="1963" y="236.9492">&#171;enum&#187;</text><text fill="#000000" font-family="sans-serif" font-size="14" lengthAdjust="spacing" textLength="69" x="1951.5" y="255.0684">UserStatus</text><line style="stroke:#181818;stroke-width:0.5;" x1="1923.5" x2="2022.5" y1="263.582" y2="263.582"/><ellipse cx="1933.5" cy="278.3926" fill="none" rx="3" ry="3" style="stroke:#038048;stroke-width:1.0;"/><text fill="#000000" font-family="sans-serif" font-size="14" lengthAdjust="spacing" textLength="53" x="1942.5" y="282.6895">ENABLE</text><ellipse cx="1933.5" cy="297.0137" fill="none" rx="3" ry="3" style="stroke:#038048;stroke-width:1.0;"/><text fill="#000000" font-family="sans-serif" font-size="14" lengthAdjust="spacing" textLength="57" x="1942.5" y="301.3105">DISABLE</text><line style="stroke:#181818;stroke-width:0.5;" x1="1923.5" x2="2022.5" y1="308.8242" y2="308.8242"/></g><!--class Password--><g id="elem_Password"><rect codeLine="22" fill="#F1F1F1" height="60.582" id="Password" rx="2.5" ry="2.5" style="stroke:#181818;stroke-width:0.5;" width="109" x="1786.5" y="482.5"/><ellipse cx="1801.5" cy="504.791" fill="#ADD1B2" rx="11" ry="11" style="stroke:#181818;stroke-width:1.0;"/><path d="M1804.2656,500.666 Q1804.4219,500.4473 1804.6094,500.3379 Q1804.7969,500.2285 1805.0156,500.2285 Q1805.3906,500.2285 1805.625,500.4941 Q1805.8594,500.7441 1805.8594,501.3535 L1805.8594,502.8066 Q1805.8594,503.416 1805.625,503.6816 Q1805.3906,503.9473 1805.0156,503.9473 Q1804.6719,503.9473 1804.4688,503.7441 Q1804.2656,503.5566 1804.1563,503.041 Q1804.1094,502.6816 1803.9219,502.4941 Q1803.5938,502.1191 1802.9844,501.9004 Q1802.375,501.6816 1801.75,501.6816 Q1800.9844,501.6816 1800.3438,502.0098 Q1799.7188,502.3379 1799.2188,503.0879 Q1798.7344,503.8379 1798.7344,504.8691 L1798.7344,505.9629 Q1798.7344,507.1973 1799.625,508.0254 Q1800.5156,508.8379 1802.1094,508.8379 Q1803.0469,508.8379 1803.7031,508.5879 Q1804.0938,508.4316 1804.5156,507.9941 Q1804.7813,507.7285 1804.9219,507.6504 Q1805.0781,507.5723 1805.2813,507.5723 Q1805.6094,507.5723 1805.8594,507.8379 Q1806.125,508.0879 1806.125,508.4316 Q1806.125,508.7754 1805.7813,509.1816 Q1805.2813,509.7598 1804.4844,510.0879 Q1803.4063,510.541 1802.1094,510.541 Q1800.5938,510.541 1799.3906,509.916 Q1798.4063,509.416 1797.7188,508.3535 Q1797.0313,507.2754 1797.0313,505.9941 L1797.0313,504.8379 Q1797.0313,503.5098 1797.6406,502.3691 Q1798.2656,501.2129 1799.3594,500.6035 Q1800.4531,499.9785 1801.6875,499.9785 Q1802.4219,499.9785 1803.0625,500.1504 Q1803.7188,500.3066 1804.2656,500.666 Z " fill="#000000"/><text fill="#000000" font-family="sans-serif" font-size="12" font-style="italic" lengthAdjust="spacing" textLength="81" x="1813.5" y="500.4492">&#171;value object&#187;</text><text fill="#000000" font-family="sans-serif" font-size="14" lengthAdjust="spacing" textLength="61" x="1823.5" y="518.5684">Password</text><line style="stroke:#181818;stroke-width:0.5;" x1="1787.5" x2="1894.5" y1="527.082" y2="527.082"/><line style="stroke:#181818;stroke-width:0.5;" x1="1787.5" x2="1894.5" y1="535.082" y2="535.082"/></g><!--class Acronym--><g id="elem_Acronym"><rect codeLine="24" fill="#F1F1F1" height="60.582" id="Acronym" rx="2.5" ry="2.5" style="stroke:#181818;stroke-width:0.5;" width="109" x="2058.5" y="237.5"/><ellipse cx="2073.5" cy="259.791" fill="#ADD1B2" rx="11" ry="11" style="stroke:#181818;stroke-width:1.0;"/><path d="M2076.2656,255.666 Q2076.4219,255.4473 2076.6094,255.3379 Q2076.7969,255.2285 2077.0156,255.2285 Q2077.3906,255.2285 2077.625,255.4941 Q2077.8594,255.7441 2077.8594,256.3535 L2077.8594,257.8066 Q2077.8594,258.416 2077.625,258.6816 Q2077.3906,258.9473 2077.0156,258.9473 Q2076.6719,258.9473 2076.4688,258.7441 Q2076.2656,258.5566 2076.1563,258.041 Q2076.1094,257.6816 2075.9219,257.4941 Q2075.5938,257.1191 2074.9844,256.9004 Q2074.375,256.6816 2073.75,256.6816 Q2072.9844,256.6816 2072.3438,257.0098 Q2071.7188,257.3379 2071.2188,258.0879 Q2070.7344,258.8379 2070.7344,259.8691 L2070.7344,260.9629 Q2070.7344,262.1973 2071.625,263.0254 Q2072.5156,263.8379 2074.1094,263.8379 Q2075.0469,263.8379 2075.7031,263.5879 Q2076.0938,263.4316 2076.5156,262.9941 Q2076.7813,262.7285 2076.9219,262.6504 Q2077.0781,262.5723 2077.2813,262.5723 Q2077.6094,262.5723 2077.8594,262.8379 Q2078.125,263.0879 2078.125,263.4316 Q2078.125,263.7754 2077.7813,264.1816 Q2077.2813,264.7598 2076.4844,265.0879 Q2075.4063,265.541 2074.1094,265.541 Q2072.5938,265.541 2071.3906,264.916 Q2070.4063,264.416 2069.7188,263.3535 Q2069.0313,262.2754 2069.0313,260.9941 L2069.0313,259.8379 Q2069.0313,258.5098 2069.6406,257.3691 Q2070.2656,256.2129 2071.3594,255.6035 Q2072.4531,254.9785 2073.6875,254.9785 Q2074.4219,254.9785 2075.0625,255.1504 Q2075.7188,255.3066 2076.2656,255.666 Z " fill="#000000"/><text fill="#000000" font-family="sans-serif" font-size="12" font-style="italic" lengthAdjust="spacing" textLength="81" x="2085.5" y="255.4492">&#171;value object&#187;</text><text fill="#000000" font-family="sans-serif" font-size="14" lengthAdjust="spacing" textLength="55" x="2098.5" y="273.5684">Acronym</text><line style="stroke:#181818;stroke-width:0.5;" x1="2059.5" x2="2166.5" y1="282.082" y2="282.082"/><line style="stroke:#181818;stroke-width:0.5;" x1="2059.5" x2="2166.5" y1="290.082" y2="290.082"/></g><!--class NIF--><g id="elem_NIF"><rect codeLine="26" fill="#F1F1F1" height="60.582" id="NIF" rx="2.5" ry="2.5" style="stroke:#181818;stroke-width:0.5;" width="109" x="2202.5" y="237.5"/><ellipse cx="2217.5" cy="259.791" fill="#ADD1B2" rx="11" ry="11" style="stroke:#181818;stroke-width:1.0;"/><path d="M2220.2656,255.666 Q2220.4219,255.4473 2220.6094,255.3379 Q2220.7969,255.2285 2221.0156,255.2285 Q2221.3906,255.2285 2221.625,255.4941 Q2221.8594,255.7441 2221.8594,256.3535 L2221.8594,257.8066 Q2221.8594,258.416 2221.625,258.6816 Q2221.3906,258.9473 2221.0156,258.9473 Q2220.6719,258.9473 2220.4688,258.7441 Q2220.2656,258.5566 2220.1563,258.041 Q2220.1094,257.6816 2219.9219,257.4941 Q2219.5938,257.1191 2218.9844,256.9004 Q2218.375,256.6816 2217.75,256.6816 Q2216.9844,256.6816 2216.3438,257.0098 Q2215.7188,257.3379 2215.2188,258.0879 Q2214.7344,258.8379 2214.7344,259.8691 L2214.7344,260.9629 Q2214.7344,262.1973 2215.625,263.0254 Q2216.5156,263.8379 2218.1094,263.8379 Q2219.0469,263.8379 2219.7031,263.5879 Q2220.0938,263.4316 2220.5156,262.9941 Q2220.7813,262.7285 2220.9219,262.6504 Q2221.0781,262.5723 2221.2813,262.5723 Q2221.6094,262.5723 2221.8594,262.8379 Q2222.125,263.0879 2222.125,263.4316 Q2222.125,263.7754 2221.7813,264.1816 Q2221.2813,264.7598 2220.4844,265.0879 Q2219.4063,265.541 2218.1094,265.541 Q2216.5938,265.541 2215.3906,264.916 Q2214.4063,264.416 2213.7188,263.3535 Q2213.0313,262.2754 2213.0313,260.9941 L2213.0313,259.8379 Q2213.0313,258.5098 2213.6406,257.3691 Q2214.2656,256.2129 2215.3594,255.6035 Q2216.4531,254.9785 2217.6875,254.9785 Q2218.4219,254.9785 2219.0625,255.1504 Q2219.7188,255.3066 2220.2656,255.666 Z " fill="#000000"/><text fill="#000000" font-family="sans-serif" font-size="12" font-style="italic" lengthAdjust="spacing" textLength="81" x="2229.5" y="255.4492">&#171;value object&#187;</text><text fill="#000000" font-family="sans-serif" font-size="14" lengthAdjust="spacing" textLength="21" x="2259.5" y="273.5684">NIF</text><line style="stroke:#181818;stroke-width:0.5;" x1="2203.5" x2="2310.5" y1="282.082" y2="282.082"/><line style="stroke:#181818;stroke-width:0.5;" x1="2203.5" x2="2310.5" y1="290.082" y2="290.082"/></g><!--class BirthDate--><g id="elem_BirthDate"><rect codeLine="28" fill="#F1F1F1" height="60.582" id="BirthDate" rx="2.5" ry="2.5" style="stroke:#181818;stroke-width:0.5;" width="109" x="2346.5" y="237.5"/><ellipse cx="2361.5" cy="259.791" fill="#ADD1B2" rx="11" ry="11" style="stroke:#181818;stroke-width:1.0;"/><path d="M2364.2656,255.666 Q2364.4219,255.4473 2364.6094,255.3379 Q2364.7969,255.2285 2365.0156,255.2285 Q2365.3906,255.2285 2365.625,255.4941 Q2365.8594,255.7441 2365.8594,256.3535 L2365.8594,257.8066 Q2365.8594,258.416 2365.625,258.6816 Q2365.3906,258.9473 2365.0156,258.9473 Q2364.6719,258.9473 2364.4688,258.7441 Q2364.2656,258.5566 2364.1563,258.041 Q2364.1094,257.6816 2363.9219,257.4941 Q2363.5938,257.1191 2362.9844,256.9004 Q2362.375,256.6816 2361.75,256.6816 Q2360.9844,256.6816 2360.3438,257.0098 Q2359.7188,257.3379 2359.2188,258.0879 Q2358.7344,258.8379 2358.7344,259.8691 L2358.7344,260.9629 Q2358.7344,262.1973 2359.625,263.0254 Q2360.5156,263.8379 2362.1094,263.8379 Q2363.0469,263.8379 2363.7031,263.5879 Q2364.0938,263.4316 2364.5156,262.9941 Q2364.7813,262.7285 2364.9219,262.6504 Q2365.0781,262.5723 2365.2813,262.5723 Q2365.6094,262.5723 2365.8594,262.8379 Q2366.125,263.0879 2366.125,263.4316 Q2366.125,263.7754 2365.7813,264.1816 Q2365.2813,264.7598 2364.4844,265.0879 Q2363.4063,265.541 2362.1094,265.541 Q2360.5938,265.541 2359.3906,264.916 Q2358.4063,264.416 2357.7188,263.3535 Q2357.0313,262.2754 2357.0313,260.9941 L2357.0313,259.8379 Q2357.0313,258.5098 2357.6406,257.3691 Q2358.2656,256.2129 2359.3594,255.6035 Q2360.4531,254.9785 2361.6875,254.9785 Q2362.4219,254.9785 2363.0625,255.1504 Q2363.7188,255.3066 2364.2656,255.666 Z " fill="#000000"/><text fill="#000000" font-family="sans-serif" font-size="12" font-style="italic" lengthAdjust="spacing" textLength="81" x="2373.5" y="255.4492">&#171;value object&#187;</text><text fill="#000000" font-family="sans-serif" font-size="14" lengthAdjust="spacing" textLength="59" x="2384.5" y="273.5684">BirthDate</text><line style="stroke:#181818;stroke-width:0.5;" x1="2347.5" x2="2454.5" y1="282.082" y2="282.082"/><line style="stroke:#181818;stroke-width:0.5;" x1="2347.5" x2="2454.5" y1="290.082" y2="290.082"/></g><!--class MechanographicNumber--><g id="elem_MechanographicNumber"><rect codeLine="30" fill="#F1F1F1" height="76.543" id="MechanographicNumber" rx="2.5" ry="2.5" style="stroke:#181818;stroke-width:0.5;" width="186" x="2491" y="229.5"/><ellipse cx="2506" cy="259.7715" fill="#ADD1B2" rx="11" ry="11" style="stroke:#181818;stroke-width:1.0;"/><path d="M2508.7656,255.6465 Q2508.9219,255.4277 2509.1094,255.3184 Q2509.2969,255.209 2509.5156,255.209 Q2509.8906,255.209 2510.125,255.4746 Q2510.3594,255.7246 2510.3594,256.334 L2510.3594,257.7871 Q2510.3594,258.3965 2510.125,258.6621 Q2509.8906,258.9277 2509.5156,258.9277 Q2509.1719,258.9277 2508.9688,258.7246 Q2508.7656,258.5371 2508.6563,258.0215 Q2508.6094,257.6621 2508.4219,257.4746 Q2508.0938,257.0996 2507.4844,256.8809 Q2506.875,256.6621 2506.25,256.6621 Q2505.4844,256.6621 2504.8438,256.9902 Q2504.2188,257.3184 2503.7188,258.0684 Q2503.2344,258.8184 2503.2344,259.8496 L2503.2344,260.9434 Q2503.2344,262.1777 2504.125,263.0059 Q2505.0156,263.8184 2506.6094,263.8184 Q2507.5469,263.8184 2508.2031,263.5684 Q2508.5938,263.4121 2509.0156,262.9746 Q2509.2813,262.709 2509.4219,262.6309 Q2509.5781,262.5527 2509.7813,262.5527 Q2510.1094,262.5527 2510.3594,262.8184 Q2510.625,263.0684 2510.625,263.4121 Q2510.625,263.7559 2510.2813,264.1621 Q2509.7813,264.7402 2508.9844,265.0684 Q2507.9063,265.5215 2506.6094,265.5215 Q2505.0938,265.5215 2503.8906,264.8965 Q2502.9063,264.3965 2502.2188,263.334 Q2501.5313,262.2559 2501.5313,260.9746 L2501.5313,259.8184 Q2501.5313,258.4902 2502.1406,257.3496 Q2502.7656,256.1934 2503.8594,255.584 Q2504.9531,254.959 2506.1875,254.959 Q2506.9219,254.959 2507.5625,255.1309 Q2508.2188,255.2871 2508.7656,255.6465 Z " fill="#000000"/><text fill="#000000" font-family="sans-serif" font-size="12" font-style="italic" lengthAdjust="spacing" textLength="81" x="2556.5" y="247.4492">&#171;value object&#187;</text><text fill="#000000" font-family="sans-serif" font-size="12" font-style="italic" lengthAdjust="spacing" textLength="146" x="2524" y="263.4102">&#171;automatically generated&#187;</text><text fill="#000000" font-family="sans-serif" font-size="14" lengthAdjust="spacing" textLength="154" x="2520" y="281.5293">MechanographicNumber</text><line style="stroke:#181818;stroke-width:0.5;" x1="2492" x2="2676" y1="290.043" y2="290.043"/><line style="stroke:#181818;stroke-width:0.5;" x1="2492" x2="2676" y1="298.043" y2="298.043"/></g><!--class Grade--><g id="elem_Grade"><rect codeLine="32" fill="#F1F1F1" height="60.582" id="Grade" rx="2.5" ry="2.5" style="stroke:#181818;stroke-width:0.5;" width="109" x="2712.5" y="237.5"/><ellipse cx="2727.5" cy="259.791" fill="#ADD1B2" rx="11" ry="11" style="stroke:#181818;stroke-width:1.0;"/><path d="M2730.2656,255.666 Q2730.4219,255.4473 2730.6094,255.3379 Q2730.7969,255.2285 2731.0156,255.2285 Q2731.3906,255.2285 2731.625,255.4941 Q2731.8594,255.7441 2731.8594,256.3535 L2731.8594,257.8066 Q2731.8594,258.416 2731.625,258.6816 Q2731.3906,258.9473 2731.0156,258.9473 Q2730.6719,258.9473 2730.4688,258.7441 Q2730.2656,258.5566 2730.1563,258.041 Q2730.1094,257.6816 2729.9219,257.4941 Q2729.5938,257.1191 2728.9844,256.9004 Q2728.375,256.6816 2727.75,256.6816 Q2726.9844,256.6816 2726.3438,257.0098 Q2725.7188,257.3379 2725.2188,258.0879 Q2724.7344,258.8379 2724.7344,259.8691 L2724.7344,260.9629 Q2724.7344,262.1973 2725.625,263.0254 Q2726.5156,263.8379 2728.1094,263.8379 Q2729.0469,263.8379 2729.7031,263.5879 Q2730.0938,263.4316 2730.5156,262.9941 Q2730.7813,262.7285 2730.9219,262.6504 Q2731.0781,262.5723 2731.2813,262.5723 Q2731.6094,262.5723 2731.8594,262.8379 Q2732.125,263.0879 2732.125,263.4316 Q2732.125,263.7754 2731.7813,264.1816 Q2731.2813,264.7598 2730.4844,265.0879 Q2729.4063,265.541 2728.1094,265.541 Q2726.5938,265.541 2725.3906,264.916 Q2724.4063,264.416 2723.7188,263.3535 Q2723.0313,262.2754 2723.0313,260.9941 L2723.0313,259.8379 Q2723.0313,258.5098 2723.6406,257.3691 Q2724.2656,256.2129 2725.3594,255.6035 Q2726.4531,254.9785 2727.6875,254.9785 Q2728.4219,254.9785 2729.0625,255.1504 Q2729.7188,255.3066 2730.2656,255.666 Z " fill="#000000"/><text fill="#000000" font-family="sans-serif" font-size="12" font-style="italic" lengthAdjust="spacing" textLength="81" x="2739.5" y="255.4492">&#171;value object&#187;</text><text fill="#000000" font-family="sans-serif" font-size="14" lengthAdjust="spacing" textLength="40" x="2760" y="273.5684">Grade</text><line style="stroke:#181818;stroke-width:0.5;" x1="2713.5" x2="2820.5" y1="282.082" y2="282.082"/><line style="stroke:#181818;stroke-width:0.5;" x1="2713.5" x2="2820.5" y1="290.082" y2="290.082"/></g><!--class Question--><g id="elem_Question"><rect codeLine="34" fill="#F1F1F1" height="113.7852" id="Question" rx="2.5" ry="2.5" style="stroke:#181818;stroke-width:0.5;" width="100" x="7" y="685"/><ellipse cx="26.95" cy="715.2715" fill="#ADD1B2" rx="11" ry="11" style="stroke:#181818;stroke-width:1.0;"/><path d="M29.7156,711.1465 Q29.8719,710.9277 30.0594,710.8184 Q30.2469,710.709 30.4656,710.709 Q30.8406,710.709 31.075,710.9746 Q31.3094,711.2246 31.3094,711.834 L31.3094,713.2871 Q31.3094,713.8965 31.075,714.1621 Q30.8406,714.4277 30.4656,714.4277 Q30.1219,714.4277 29.9188,714.2246 Q29.7156,714.0371 29.6063,713.5215 Q29.5594,713.1621 29.3719,712.9746 Q29.0438,712.5996 28.4344,712.3809 Q27.825,712.1621 27.2,712.1621 Q26.4344,712.1621 25.7938,712.4902 Q25.1688,712.8184 24.6688,713.5684 Q24.1844,714.3184 24.1844,715.3496 L24.1844,716.4434 Q24.1844,717.6777 25.075,718.5059 Q25.9656,719.3184 27.5594,719.3184 Q28.4969,719.3184 29.1531,719.0684 Q29.5438,718.9121 29.9656,718.4746 Q30.2313,718.209 30.3719,718.1309 Q30.5281,718.0527 30.7313,718.0527 Q31.0594,718.0527 31.3094,718.3184 Q31.575,718.5684 31.575,718.9121 Q31.575,719.2559 31.2313,719.6621 Q30.7313,720.2402 29.9344,720.5684 Q28.8563,721.0215 27.5594,721.0215 Q26.0438,721.0215 24.8406,720.3965 Q23.8563,719.8965 23.1688,718.834 Q22.4813,717.7559 22.4813,716.4746 L22.4813,715.3184 Q22.4813,713.9902 23.0906,712.8496 Q23.7156,711.6934 24.8094,711.084 Q25.9031,710.459 27.1375,710.459 Q27.8719,710.459 28.5125,710.6309 Q29.1688,710.7871 29.7156,711.1465 Z " fill="#000000"/><text fill="#000000" font-family="sans-serif" font-size="12" font-style="italic" lengthAdjust="spacing" textLength="35" x="53.05" y="702.9492">&#171;root&#187;</text><text fill="#000000" font-family="sans-serif" font-size="12" font-style="italic" lengthAdjust="spacing" textLength="44" x="48.55" y="718.9102">&#171;event&#187;</text><text fill="#000000" font-family="sans-serif" font-size="14" lengthAdjust="spacing" textLength="57" x="42.05" y="737.0293">Question</text><line style="stroke:#181818;stroke-width:0.5;" x1="8" x2="106" y1="745.543" y2="745.543"/><ellipse cx="18" cy="760.3535" fill="#000000" rx="3" ry="3" style="stroke:#000000;stroke-width:1.0;"/><text fill="#000000" font-family="sans-serif" font-size="14" lengthAdjust="spacing" textLength="74" x="27" y="764.6504">id &#171;unique&#187;</text><ellipse cx="18" cy="778.9746" fill="#000000" rx="3" ry="3" style="stroke:#000000;stroke-width:1.0;"/><text fill="#000000" font-family="sans-serif" font-size="14" lengthAdjust="spacing" textLength="47" x="27" y="783.2715">content</text><line style="stroke:#181818;stroke-width:0.5;" x1="8" x2="106" y1="790.7852" y2="790.7852"/></g><!--class QuestionType--><g id="elem_QuestionType"><rect codeLine="39" fill="#F1F1F1" height="60.582" id="QuestionType" rx="2.5" ry="2.5" style="stroke:#181818;stroke-width:0.5;" width="121" x="1515.5" y="711.5"/><ellipse cx="1530.5" cy="733.791" fill="#ADD1B2" rx="11" ry="11" style="stroke:#181818;stroke-width:1.0;"/><path d="M1533.2656,729.666 Q1533.4219,729.4473 1533.6094,729.3379 Q1533.7969,729.2285 1534.0156,729.2285 Q1534.3906,729.2285 1534.625,729.4941 Q1534.8594,729.7441 1534.8594,730.3535 L1534.8594,731.8066 Q1534.8594,732.416 1534.625,732.6816 Q1534.3906,732.9473 1534.0156,732.9473 Q1533.6719,732.9473 1533.4688,732.7441 Q1533.2656,732.5566 1533.1563,732.041 Q1533.1094,731.6816 1532.9219,731.4941 Q1532.5938,731.1191 1531.9844,730.9004 Q1531.375,730.6816 1530.75,730.6816 Q1529.9844,730.6816 1529.3438,731.0098 Q1528.7188,731.3379 1528.2188,732.0879 Q1527.7344,732.8379 1527.7344,733.8691 L1527.7344,734.9629 Q1527.7344,736.1973 1528.625,737.0254 Q1529.5156,737.8379 1531.1094,737.8379 Q1532.0469,737.8379 1532.7031,737.5879 Q1533.0938,737.4316 1533.5156,736.9941 Q1533.7813,736.7285 1533.9219,736.6504 Q1534.0781,736.5723 1534.2813,736.5723 Q1534.6094,736.5723 1534.8594,736.8379 Q1535.125,737.0879 1535.125,737.4316 Q1535.125,737.7754 1534.7813,738.1816 Q1534.2813,738.7598 1533.4844,739.0879 Q1532.4063,739.541 1531.1094,739.541 Q1529.5938,739.541 1528.3906,738.916 Q1527.4063,738.416 1526.7188,737.3535 Q1526.0313,736.2754 1526.0313,734.9941 L1526.0313,733.8379 Q1526.0313,732.5098 1526.6406,731.3691 Q1527.2656,730.2129 1528.3594,729.6035 Q1529.4531,728.9785 1530.6875,728.9785 Q1531.4219,728.9785 1532.0625,729.1504 Q1532.7188,729.3066 1533.2656,729.666 Z " fill="#000000"/><text fill="#000000" font-family="sans-serif" font-size="12" font-style="italic" lengthAdjust="spacing" textLength="46" x="1566" y="729.4492">&#171;enum&#187;</text><text fill="#000000" font-family="sans-serif" font-size="14" lengthAdjust="spacing" textLength="89" x="1544.5" y="747.5684">QuestionType</text><line style="stroke:#181818;stroke-width:0.5;" x1="1516.5" x2="1635.5" y1="756.082" y2="756.082"/><line style="stroke:#181818;stroke-width:0.5;" x1="1516.5" x2="1635.5" y1="764.082" y2="764.082"/></g><!--class VerifQuestionService--><g id="elem_VerifQuestionService"><rect codeLine="42" fill="#F1F1F1" height="209.5508" id="VerifQuestionService" rx="2.5" ry="2.5" style="stroke:#181818;stroke-width:0.5;" width="285" x="2856.5" y="163"/><ellipse cx="2928.25" cy="185.291" fill="#ADD1B2" rx="11" ry="11" style="stroke:#181818;stroke-width:1.0;"/><path d="M2931.0156,181.166 Q2931.1719,180.9473 2931.3594,180.8379 Q2931.5469,180.7285 2931.7656,180.7285 Q2932.1406,180.7285 2932.375,180.9941 Q2932.6094,181.2441 2932.6094,181.8535 L2932.6094,183.3066 Q2932.6094,183.916 2932.375,184.1816 Q2932.1406,184.4473 2931.7656,184.4473 Q2931.4219,184.4473 2931.2188,184.2441 Q2931.0156,184.0566 2930.9063,183.541 Q2930.8594,183.1816 2930.6719,182.9941 Q2930.3438,182.6191 2929.7344,182.4004 Q2929.125,182.1816 2928.5,182.1816 Q2927.7344,182.1816 2927.0938,182.5098 Q2926.4688,182.8379 2925.9688,183.5879 Q2925.4844,184.3379 2925.4844,185.3691 L2925.4844,186.4629 Q2925.4844,187.6973 2926.375,188.5254 Q2927.2656,189.3379 2928.8594,189.3379 Q2929.7969,189.3379 2930.4531,189.0879 Q2930.8438,188.9316 2931.2656,188.4941 Q2931.5313,188.2285 2931.6719,188.1504 Q2931.8281,188.0723 2932.0313,188.0723 Q2932.3594,188.0723 2932.6094,188.3379 Q2932.875,188.5879 2932.875,188.9316 Q2932.875,189.2754 2932.5313,189.6816 Q2932.0313,190.2598 2931.2344,190.5879 Q2930.1563,191.041 2928.8594,191.041 Q2927.3438,191.041 2926.1406,190.416 Q2925.1563,189.916 2924.4688,188.8535 Q2923.7813,187.7754 2923.7813,186.4941 L2923.7813,185.3379 Q2923.7813,184.0098 2924.3906,182.8691 Q2925.0156,181.7129 2926.1094,181.1035 Q2927.2031,180.4785 2928.4375,180.4785 Q2929.1719,180.4785 2929.8125,180.6504 Q2930.4688,180.8066 2931.0156,181.166 Z " fill="#000000"/><text fill="#000000" font-family="sans-serif" font-size="12" font-style="italic" lengthAdjust="spacing" textLength="53" x="2988.75" y="180.9492">&#171;service&#187;</text><text fill="#000000" font-family="sans-serif" font-size="14" lengthAdjust="spacing" textLength="133" x="2948.75" y="199.0684">VerifQuestionService</text><line style="stroke:#181818;stroke-width:0.5;" x1="2857.5" x2="3140.5" y1="207.582" y2="207.582"/><line style="stroke:#181818;stroke-width:0.5;" x1="2857.5" x2="3140.5" y1="215.582" y2="215.582"/><ellipse cx="2867.5" cy="230.3926" fill="#84BE84" rx="3" ry="3" style="stroke:#038048;stroke-width:1.0;"/><text fill="#000000" font-family="sans-serif" font-size="14" lengthAdjust="spacing" textLength="150" x="2876.5" y="234.6895">VerifyQuestionService()</text><ellipse cx="2867.5" cy="249.0137" fill="#84BE84" rx="3" ry="3" style="stroke:#038048;stroke-width:1.0;"/><text fill="#000000" font-family="sans-serif" font-size="14" lengthAdjust="spacing" textLength="259" x="2876.5" y="253.3105">verify(QuestionType type, String ficheiro)</text><ellipse cx="2867.5" cy="267.6348" fill="#84BE84" rx="3" ry="3" style="stroke:#038048;stroke-width:1.0;"/><text fill="#000000" font-family="sans-serif" font-size="14" lengthAdjust="spacing" textLength="193" x="2876.5" y="271.9316">verifyNumerical(String ficheiro)</text><ellipse cx="2867.5" cy="286.2559" fill="#84BE84" rx="3" ry="3" style="stroke:#038048;stroke-width:1.0;"/><text fill="#000000" font-family="sans-serif" font-size="14" lengthAdjust="spacing" textLength="188" x="2876.5" y="290.5527">verifyMatching(String ficheiro)</text><ellipse cx="2867.5" cy="304.877" fill="#84BE84" rx="3" ry="3" style="stroke:#038048;stroke-width:1.0;"/><text fill="#000000" font-family="sans-serif" font-size="14" lengthAdjust="spacing" textLength="212" x="2876.5" y="309.1738">verifyMissingWord(String ficheiro)</text><ellipse cx="2867.5" cy="323.498" fill="#84BE84" rx="3" ry="3" style="stroke:#038048;stroke-width:1.0;"/><text fill="#000000" font-family="sans-serif" font-size="14" lengthAdjust="spacing" textLength="211" x="2876.5" y="327.7949">verifyShortAnswer(String ficheiro)</text><ellipse cx="2867.5" cy="342.1191" fill="#84BE84" rx="3" ry="3" style="stroke:#038048;stroke-width:1.0;"/><text fill="#000000" font-family="sans-serif" font-size="14" lengthAdjust="spacing" textLength="212" x="2876.5" y="346.416">verifyTrueOrFalse(String ficheiro)</text><ellipse cx="2867.5" cy="360.7402" fill="#84BE84" rx="3" ry="3" style="stroke:#038048;stroke-width:1.0;"/><text fill="#000000" font-family="sans-serif" font-size="14" lengthAdjust="spacing" textLength="223" x="2876.5" y="365.0371">verifyMultipleChoice(String ficheiro)</text></g><!--class CreateQuestionUI--><g id="elem_CreateQuestionUI"><rect codeLine="53" fill="#F1F1F1" height="122.4844" id="CreateQuestionUI" rx="2.5" ry="2.5" style="stroke:#181818;stroke-width:0.5;" width="465" x="1061.5" y="207"/><ellipse cx="1233.75" cy="223" fill="#ADD1B2" rx="11" ry="11" style="stroke:#181818;stroke-width:1.0;"/><path d="M1236.5156,218.875 Q1236.6719,218.6563 1236.8594,218.5469 Q1237.0469,218.4375 1237.2656,218.4375 Q1237.6406,218.4375 1237.875,218.7031 Q1238.1094,218.9531 1238.1094,219.5625 L1238.1094,221.0156 Q1238.1094,221.625 1237.875,221.8906 Q1237.6406,222.1563 1237.2656,222.1563 Q1236.9219,222.1563 1236.7188,221.9531 Q1236.5156,221.7656 1236.4063,221.25 Q1236.3594,220.8906 1236.1719,220.7031 Q1235.8438,220.3281 1235.2344,220.1094 Q1234.625,219.8906 1234,219.8906 Q1233.2344,219.8906 1232.5938,220.2188 Q1231.9688,220.5469 1231.4688,221.2969 Q1230.9844,222.0469 1230.9844,223.0781 L1230.9844,224.1719 Q1230.9844,225.4063 1231.875,226.2344 Q1232.7656,227.0469 1234.3594,227.0469 Q1235.2969,227.0469 1235.9531,226.7969 Q1236.3438,226.6406 1236.7656,226.2031 Q1237.0313,225.9375 1237.1719,225.8594 Q1237.3281,225.7813 1237.5313,225.7813 Q1237.8594,225.7813 1238.1094,226.0469 Q1238.375,226.2969 1238.375,226.6406 Q1238.375,226.9844 1238.0313,227.3906 Q1237.5313,227.9688 1236.7344,228.2969 Q1235.6563,228.75 1234.3594,228.75 Q1232.8438,228.75 1231.6406,228.125 Q1230.6563,227.625 1229.9688,226.5625 Q1229.2813,225.4844 1229.2813,224.2031 L1229.2813,223.0469 Q1229.2813,221.7188 1229.8906,220.5781 Q1230.5156,219.4219 1231.6094,218.8125 Q1232.7031,218.1875 1233.9375,218.1875 Q1234.6719,218.1875 1235.3125,218.3594 Q1235.9688,218.5156 1236.5156,218.875 Z " fill="#000000"/><text fill="#000000" font-family="sans-serif" font-size="14" lengthAdjust="spacing" textLength="112" x="1254.25" y="228.7969">CreateQuestionUI</text><line style="stroke:#181818;stroke-width:0.5;" x1="1062.5" x2="1525.5" y1="239" y2="239"/><ellipse cx="1072.5" cy="253.8105" fill="#000000" rx="3" ry="3" style="stroke:#000000;stroke-width:1.0;"/><text fill="#000000" font-family="sans-serif" font-size="14" lengthAdjust="spacing" textLength="248" x="1081.5" y="258.1074">CreateQuestionController theController</text><line style="stroke:#181818;stroke-width:0.5;" x1="1062.5" x2="1525.5" y1="265.6211" y2="265.6211"/><ellipse cx="1072.5" cy="280.4316" fill="#84BE84" rx="3" ry="3" style="stroke:#038048;stroke-width:1.0;"/><text fill="#000000" font-family="sans-serif" font-size="14" lengthAdjust="spacing" textLength="123" x="1081.5" y="284.7285">doShow() : boolean</text><ellipse cx="1072.5" cy="299.0527" fill="#84BE84" rx="3" ry="3" style="stroke:#038048;stroke-width:1.0;"/><text fill="#000000" font-family="sans-serif" font-size="14" lengthAdjust="spacing" textLength="113" x="1081.5" y="303.3496">headline() : String</text><ellipse cx="1072.5" cy="317.6738" fill="#84BE84" rx="3" ry="3" style="stroke:#038048;stroke-width:1.0;"/><text fill="#000000" font-family="sans-serif" font-size="14" lengthAdjust="spacing" textLength="439" x="1081.5" y="321.9707">showTypeQuestions(final List&lt;QuestionType&gt; perms) : QuestionType</text></g><!--class CreateQuestionController--><g id="elem_CreateQuestionController"><rect codeLine="60" fill="#F1F1F1" height="122.4844" id="CreateQuestionController" rx="2.5" ry="2.5" style="stroke:#181818;stroke-width:0.5;" width="447" x="514.5" y="452"/><ellipse cx="652.75" cy="468" fill="#ADD1B2" rx="11" ry="11" style="stroke:#181818;stroke-width:1.0;"/><path d="M655.5156,463.875 Q655.6719,463.6563 655.8594,463.5469 Q656.0469,463.4375 656.2656,463.4375 Q656.6406,463.4375 656.875,463.7031 Q657.1094,463.9531 657.1094,464.5625 L657.1094,466.0156 Q657.1094,466.625 656.875,466.8906 Q656.6406,467.1563 656.2656,467.1563 Q655.9219,467.1563 655.7188,466.9531 Q655.5156,466.7656 655.4063,466.25 Q655.3594,465.8906 655.1719,465.7031 Q654.8438,465.3281 654.2344,465.1094 Q653.625,464.8906 653,464.8906 Q652.2344,464.8906 651.5938,465.2188 Q650.9688,465.5469 650.4688,466.2969 Q649.9844,467.0469 649.9844,468.0781 L649.9844,469.1719 Q649.9844,470.4063 650.875,471.2344 Q651.7656,472.0469 653.3594,472.0469 Q654.2969,472.0469 654.9531,471.7969 Q655.3438,471.6406 655.7656,471.2031 Q656.0313,470.9375 656.1719,470.8594 Q656.3281,470.7813 656.5313,470.7813 Q656.8594,470.7813 657.1094,471.0469 Q657.375,471.2969 657.375,471.6406 Q657.375,471.9844 657.0313,472.3906 Q656.5313,472.9688 655.7344,473.2969 Q654.6563,473.75 653.3594,473.75 Q651.8438,473.75 650.6406,473.125 Q649.6563,472.625 648.9688,471.5625 Q648.2813,470.4844 648.2813,469.2031 L648.2813,468.0469 Q648.2813,466.7188 648.8906,465.5781 Q649.5156,464.4219 650.6094,463.8125 Q651.7031,463.1875 652.9375,463.1875 Q653.6719,463.1875 654.3125,463.3594 Q654.9688,463.5156 655.5156,463.875 Z " fill="#000000"/><text fill="#000000" font-family="sans-serif" font-size="14" lengthAdjust="spacing" textLength="162" x="673.25" y="473.7969">CreateQuestionController</text><line style="stroke:#181818;stroke-width:0.5;" x1="515.5" x2="960.5" y1="484" y2="484"/><ellipse cx="525.5" cy="498.8105" fill="#000000" rx="3" ry="3" style="stroke:#000000;stroke-width:1.0;"/><text fill="#000000" font-family="sans-serif" font-size="14" lengthAdjust="spacing" textLength="125" x="534.5" y="503.1074">QuestionRepository</text><ellipse cx="525.5" cy="517.4316" fill="#000000" rx="3" ry="3" style="stroke:#000000;stroke-width:1.0;"/><text fill="#000000" font-family="sans-serif" font-size="14" lengthAdjust="spacing" textLength="140" x="534.5" y="521.7285">VerifyQuestionService</text><line style="stroke:#181818;stroke-width:0.5;" x1="515.5" x2="960.5" y1="529.2422" y2="529.2422"/><ellipse cx="525.5" cy="544.0527" fill="#84BE84" rx="3" ry="3" style="stroke:#038048;stroke-width:1.0;"/><text fill="#000000" font-family="sans-serif" font-size="14" lengthAdjust="spacing" textLength="324" x="534.5" y="548.3496">verifyQuestion(QuestionType type, String fileName)</text><ellipse cx="525.5" cy="562.6738" fill="#84BE84" rx="3" ry="3" style="stroke:#038048;stroke-width:1.0;"/><text fill="#000000" font-family="sans-serif" font-size="14" lengthAdjust="spacing" textLength="421" x="534.5" y="566.9707">createQuestion(QuestionType type, String fileName) : QuestionDto</text></g><!--class RepositoryFactory--><g id="elem_RepositoryFactory"><rect codeLine="67" fill="#F1F1F1" height="48" id="RepositoryFactory" rx="2.5" ry="2.5" style="stroke:#181818;stroke-width:0.5;" width="148" x="664" y="718"/><ellipse cx="679" cy="734" fill="#ADD1B2" rx="11" ry="11" style="stroke:#181818;stroke-width:1.0;"/><path d="M681.7656,729.875 Q681.9219,729.6563 682.1094,729.5469 Q682.2969,729.4375 682.5156,729.4375 Q682.8906,729.4375 683.125,729.7031 Q683.3594,729.9531 683.3594,730.5625 L683.3594,732.0156 Q683.3594,732.625 683.125,732.8906 Q682.8906,733.1563 682.5156,733.1563 Q682.1719,733.1563 681.9688,732.9531 Q681.7656,732.7656 681.6563,732.25 Q681.6094,731.8906 681.4219,731.7031 Q681.0938,731.3281 680.4844,731.1094 Q679.875,730.8906 679.25,730.8906 Q678.4844,730.8906 677.8438,731.2188 Q677.2188,731.5469 676.7188,732.2969 Q676.2344,733.0469 676.2344,734.0781 L676.2344,735.1719 Q676.2344,736.4063 677.125,737.2344 Q678.0156,738.0469 679.6094,738.0469 Q680.5469,738.0469 681.2031,737.7969 Q681.5938,737.6406 682.0156,737.2031 Q682.2813,736.9375 682.4219,736.8594 Q682.5781,736.7813 682.7813,736.7813 Q683.1094,736.7813 683.3594,737.0469 Q683.625,737.2969 683.625,737.6406 Q683.625,737.9844 683.2813,738.3906 Q682.7813,738.9688 681.9844,739.2969 Q680.9063,739.75 679.6094,739.75 Q678.0938,739.75 676.8906,739.125 Q675.9063,738.625 675.2188,737.5625 Q674.5313,736.4844 674.5313,735.2031 L674.5313,734.0469 Q674.5313,732.7188 675.1406,731.5781 Q675.7656,730.4219 676.8594,729.8125 Q677.9531,729.1875 679.1875,729.1875 Q679.9219,729.1875 680.5625,729.3594 Q681.2188,729.5156 681.7656,729.875 Z " fill="#000000"/><text fill="#000000" font-family="sans-serif" font-size="14" lengthAdjust="spacing" textLength="116" x="693" y="739.7969">RepositoryFactory</text><line style="stroke:#181818;stroke-width:0.5;" x1="665" x2="811" y1="750" y2="750"/><line style="stroke:#181818;stroke-width:0.5;" x1="665" x2="811" y1="758" y2="758"/></g><!--class ExamLexer--><g id="elem_ExamLexer"><rect codeLine="70" fill="#F1F1F1" height="48" id="ExamLexer" rx="2.5" ry="2.5" style="stroke:#181818;stroke-width:0.5;" width="101" x="422.5" y="892"/><ellipse cx="437.5" cy="908" fill="#ADD1B2" rx="11" ry="11" style="stroke:#181818;stroke-width:1.0;"/><path d="M440.2656,903.875 Q440.4219,903.6563 440.6094,903.5469 Q440.7969,903.4375 441.0156,903.4375 Q441.3906,903.4375 441.625,903.7031 Q441.8594,903.9531 441.8594,904.5625 L441.8594,906.0156 Q441.8594,906.625 441.625,906.8906 Q441.3906,907.1563 441.0156,907.1563 Q440.6719,907.1563 440.4688,906.9531 Q440.2656,906.7656 440.1563,906.25 Q440.1094,905.8906 439.9219,905.7031 Q439.5938,905.3281 438.9844,905.1094 Q438.375,904.8906 437.75,904.8906 Q436.9844,904.8906 436.3438,905.2188 Q435.7188,905.5469 435.2188,906.2969 Q434.7344,907.0469 434.7344,908.0781 L434.7344,909.1719 Q434.7344,910.4063 435.625,911.2344 Q436.5156,912.0469 438.1094,912.0469 Q439.0469,912.0469 439.7031,911.7969 Q440.0938,911.6406 440.5156,911.2031 Q440.7813,910.9375 440.9219,910.8594 Q441.0781,910.7813 441.2813,910.7813 Q441.6094,910.7813 441.8594,911.0469 Q442.125,911.2969 442.125,911.6406 Q442.125,911.9844 441.7813,912.3906 Q441.2813,912.9688 440.4844,913.2969 Q439.4063,913.75 438.1094,913.75 Q436.5938,913.75 435.3906,913.125 Q434.4063,912.625 433.7188,911.5625 Q433.0313,910.4844 433.0313,909.2031 L433.0313,908.0469 Q433.0313,906.7188 433.6406,905.5781 Q434.2656,904.4219 435.3594,903.8125 Q436.4531,903.1875 437.6875,903.1875 Q438.4219,903.1875 439.0625,903.3594 Q439.7188,903.5156 440.2656,903.875 Z " fill="#000000"/><text fill="#000000" font-family="sans-serif" font-size="14" lengthAdjust="spacing" textLength="69" x="451.5" y="913.7969">ExamLexer</text><line style="stroke:#181818;stroke-width:0.5;" x1="423.5" x2="522.5" y1="924" y2="924"/><line style="stroke:#181818;stroke-width:0.5;" x1="423.5" x2="522.5" y1="932" y2="932"/></g><!--class ExamParser--><g id="elem_ExamParser"><rect codeLine="73" fill="#F1F1F1" height="48" id="ExamParser" rx="2.5" ry="2.5" style="stroke:#181818;stroke-width:0.5;" width="108" x="559" y="892"/><ellipse cx="574" cy="908" fill="#ADD1B2" rx="11" ry="11" style="stroke:#181818;stroke-width:1.0;"/><path d="M576.7656,903.875 Q576.9219,903.6563 577.1094,903.5469 Q577.2969,903.4375 577.5156,903.4375 Q577.8906,903.4375 578.125,903.7031 Q578.3594,903.9531 578.3594,904.5625 L578.3594,906.0156 Q578.3594,906.625 578.125,906.8906 Q577.8906,907.1563 577.5156,907.1563 Q577.1719,907.1563 576.9688,906.9531 Q576.7656,906.7656 576.6563,906.25 Q576.6094,905.8906 576.4219,905.7031 Q576.0938,905.3281 575.4844,905.1094 Q574.875,904.8906 574.25,904.8906 Q573.4844,904.8906 572.8438,905.2188 Q572.2188,905.5469 571.7188,906.2969 Q571.2344,907.0469 571.2344,908.0781 L571.2344,909.1719 Q571.2344,910.4063 572.125,911.2344 Q573.0156,912.0469 574.6094,912.0469 Q575.5469,912.0469 576.2031,911.7969 Q576.5938,911.6406 577.0156,911.2031 Q577.2813,910.9375 577.4219,910.8594 Q577.5781,910.7813 577.7813,910.7813 Q578.1094,910.7813 578.3594,911.0469 Q578.625,911.2969 578.625,911.6406 Q578.625,911.9844 578.2813,912.3906 Q577.7813,912.9688 576.9844,913.2969 Q575.9063,913.75 574.6094,913.75 Q573.0938,913.75 571.8906,913.125 Q570.9063,912.625 570.2188,911.5625 Q569.5313,910.4844 569.5313,909.2031 L569.5313,908.0469 Q569.5313,906.7188 570.1406,905.5781 Q570.7656,904.4219 571.8594,903.8125 Q572.9531,903.1875 574.1875,903.1875 Q574.9219,903.1875 575.5625,903.3594 Q576.2188,903.5156 576.7656,903.875 Z " fill="#000000"/><text fill="#000000" font-family="sans-serif" font-size="14" lengthAdjust="spacing" textLength="76" x="588" y="913.7969">ExamParser</text><line style="stroke:#181818;stroke-width:0.5;" x1="560" x2="666" y1="924" y2="924"/><line style="stroke:#181818;stroke-width:0.5;" x1="560" x2="666" y1="932" y2="932"/></g><!--class ExamReadFile--><g id="elem_ExamReadFile"><rect codeLine="76" fill="#F1F1F1" height="66.6211" id="ExamReadFile" rx="2.5" ry="2.5" style="stroke:#181818;stroke-width:0.5;" width="269" x="847.5" y="708.5"/><ellipse cx="932.25" cy="724.5" fill="#ADD1B2" rx="11" ry="11" style="stroke:#181818;stroke-width:1.0;"/><path d="M935.0156,720.375 Q935.1719,720.1563 935.3594,720.0469 Q935.5469,719.9375 935.7656,719.9375 Q936.1406,719.9375 936.375,720.2031 Q936.6094,720.4531 936.6094,721.0625 L936.6094,722.5156 Q936.6094,723.125 936.375,723.3906 Q936.1406,723.6563 935.7656,723.6563 Q935.4219,723.6563 935.2188,723.4531 Q935.0156,723.2656 934.9063,722.75 Q934.8594,722.3906 934.6719,722.2031 Q934.3438,721.8281 933.7344,721.6094 Q933.125,721.3906 932.5,721.3906 Q931.7344,721.3906 931.0938,721.7188 Q930.4688,722.0469 929.9688,722.7969 Q929.4844,723.5469 929.4844,724.5781 L929.4844,725.6719 Q929.4844,726.9063 930.375,727.7344 Q931.2656,728.5469 932.8594,728.5469 Q933.7969,728.5469 934.4531,728.2969 Q934.8438,728.1406 935.2656,727.7031 Q935.5313,727.4375 935.6719,727.3594 Q935.8281,727.2813 936.0313,727.2813 Q936.3594,727.2813 936.6094,727.5469 Q936.875,727.7969 936.875,728.1406 Q936.875,728.4844 936.5313,728.8906 Q936.0313,729.4688 935.2344,729.7969 Q934.1563,730.25 932.8594,730.25 Q931.3438,730.25 930.1406,729.625 Q929.1563,729.125 928.4688,728.0625 Q927.7813,726.9844 927.7813,725.7031 L927.7813,724.5469 Q927.7813,723.2188 928.3906,722.0781 Q929.0156,720.9219 930.1094,720.3125 Q931.2031,719.6875 932.4375,719.6875 Q933.1719,719.6875 933.8125,719.8594 Q934.4688,720.0156 935.0156,720.375 Z " fill="#000000"/><text fill="#000000" font-family="sans-serif" font-size="14" lengthAdjust="spacing" textLength="91" x="952.75" y="730.2969">ExamReadFile</text><line style="stroke:#181818;stroke-width:0.5;" x1="848.5" x2="1115.5" y1="740.5" y2="740.5"/><line style="stroke:#181818;stroke-width:0.5;" x1="848.5" x2="1115.5" y1="748.5" y2="748.5"/><ellipse cx="858.5" cy="763.3105" fill="#84BE84" rx="3" ry="3" style="stroke:#038048;stroke-width:1.0;"/><text fill="#000000" font-family="sans-serif" font-size="14" lengthAdjust="spacing" textLength="243" x="867.5" y="767.6074">FileToString(String path) : List&lt;String&gt;</text></g><!--class QuestionRepository--><g id="elem_QuestionRepository"><rect codeLine="80" fill="#F1F1F1" height="85.2422" id="QuestionRepository" rx="2.5" ry="2.5" style="stroke:#181818;stroke-width:0.5;" width="328" x="1152" y="699.5"/><ellipse cx="1249.25" cy="715.5" fill="#ADD1B2" rx="11" ry="11" style="stroke:#181818;stroke-width:1.0;"/><path d="M1252.0156,711.375 Q1252.1719,711.1563 1252.3594,711.0469 Q1252.5469,710.9375 1252.7656,710.9375 Q1253.1406,710.9375 1253.375,711.2031 Q1253.6094,711.4531 1253.6094,712.0625 L1253.6094,713.5156 Q1253.6094,714.125 1253.375,714.3906 Q1253.1406,714.6563 1252.7656,714.6563 Q1252.4219,714.6563 1252.2188,714.4531 Q1252.0156,714.2656 1251.9063,713.75 Q1251.8594,713.3906 1251.6719,713.2031 Q1251.3438,712.8281 1250.7344,712.6094 Q1250.125,712.3906 1249.5,712.3906 Q1248.7344,712.3906 1248.0938,712.7188 Q1247.4688,713.0469 1246.9688,713.7969 Q1246.4844,714.5469 1246.4844,715.5781 L1246.4844,716.6719 Q1246.4844,717.9063 1247.375,718.7344 Q1248.2656,719.5469 1249.8594,719.5469 Q1250.7969,719.5469 1251.4531,719.2969 Q1251.8438,719.1406 1252.2656,718.7031 Q1252.5313,718.4375 1252.6719,718.3594 Q1252.8281,718.2813 1253.0313,718.2813 Q1253.3594,718.2813 1253.6094,718.5469 Q1253.875,718.7969 1253.875,719.1406 Q1253.875,719.4844 1253.5313,719.8906 Q1253.0313,720.4688 1252.2344,720.7969 Q1251.1563,721.25 1249.8594,721.25 Q1248.3438,721.25 1247.1406,720.625 Q1246.1563,720.125 1245.4688,719.0625 Q1244.7813,717.9844 1244.7813,716.7031 L1244.7813,715.5469 Q1244.7813,714.2188 1245.3906,713.0781 Q1246.0156,711.9219 1247.1094,711.3125 Q1248.2031,710.6875 1249.4375,710.6875 Q1250.1719,710.6875 1250.8125,710.8594 Q1251.4688,711.0156 1252.0156,711.375 Z " fill="#000000"/><text fill="#000000" font-family="sans-serif" font-size="14" lengthAdjust="spacing" textLength="125" x="1269.75" y="721.2969">QuestionRepository</text><line style="stroke:#181818;stroke-width:0.5;" x1="1153" x2="1479" y1="731.5" y2="731.5"/><line style="stroke:#181818;stroke-width:0.5;" x1="1153" x2="1479" y1="739.5" y2="739.5"/><ellipse cx="1163" cy="754.3105" fill="#84BE84" rx="3" ry="3" style="stroke:#038048;stroke-width:1.0;"/><text fill="#000000" font-family="sans-serif" font-size="14" lengthAdjust="spacing" textLength="302" x="1172" y="758.6074">findbytype(QuestionType type) : List&lt;Question&gt;</text><ellipse cx="1163" cy="772.9316" fill="#84BE84" rx="3" ry="3" style="stroke:#038048;stroke-width:1.0;"/><text fill="#000000" font-family="sans-serif" font-size="14" lengthAdjust="spacing" textLength="163" x="1172" y="777.2285">save(question) : Question</text></g><!--class QuestionDto--><g id="elem_QuestionDto"><rect codeLine="85" fill="#F1F1F1" height="178.3477" id="QuestionDto" rx="2.5" ry="2.5" style="stroke:#181818;stroke-width:0.5;" width="279" x="142.5" y="653"/><ellipse cx="238.25" cy="669" fill="#ADD1B2" rx="11" ry="11" style="stroke:#181818;stroke-width:1.0;"/><path d="M241.0156,664.875 Q241.1719,664.6563 241.3594,664.5469 Q241.5469,664.4375 241.7656,664.4375 Q242.1406,664.4375 242.375,664.7031 Q242.6094,664.9531 242.6094,665.5625 L242.6094,667.0156 Q242.6094,667.625 242.375,667.8906 Q242.1406,668.1563 241.7656,668.1563 Q241.4219,668.1563 241.2188,667.9531 Q241.0156,667.7656 240.9063,667.25 Q240.8594,666.8906 240.6719,666.7031 Q240.3438,666.3281 239.7344,666.1094 Q239.125,665.8906 238.5,665.8906 Q237.7344,665.8906 237.0938,666.2188 Q236.4688,666.5469 235.9688,667.2969 Q235.4844,668.0469 235.4844,669.0781 L235.4844,670.1719 Q235.4844,671.4063 236.375,672.2344 Q237.2656,673.0469 238.8594,673.0469 Q239.7969,673.0469 240.4531,672.7969 Q240.8438,672.6406 241.2656,672.2031 Q241.5313,671.9375 241.6719,671.8594 Q241.8281,671.7813 242.0313,671.7813 Q242.3594,671.7813 242.6094,672.0469 Q242.875,672.2969 242.875,672.6406 Q242.875,672.9844 242.5313,673.3906 Q242.0313,673.9688 241.2344,674.2969 Q240.1563,674.75 238.8594,674.75 Q237.3438,674.75 236.1406,674.125 Q235.1563,673.625 234.4688,672.5625 Q233.7813,671.4844 233.7813,670.2031 L233.7813,669.0469 Q233.7813,667.7188 234.3906,666.5781 Q235.0156,665.4219 236.1094,664.8125 Q237.2031,664.1875 238.4375,664.1875 Q239.1719,664.1875 239.8125,664.3594 Q240.4688,664.5156 241.0156,664.875 Z " fill="#000000"/><text fill="#000000" font-family="sans-serif" font-size="14" lengthAdjust="spacing" textLength="79" x="258.75" y="674.7969">QuestionDto</text><line style="stroke:#181818;stroke-width:0.5;" x1="143.5" x2="420.5" y1="685" y2="685"/><ellipse cx="153.5" cy="699.8105" fill="#000000" rx="3" ry="3" style="stroke:#000000;stroke-width:1.0;"/><text fill="#000000" font-family="sans-serif" font-size="14" lengthAdjust="spacing" textLength="88" x="162.5" y="704.1074">String content</text><ellipse cx="153.5" cy="718.4316" fill="#000000" rx="3" ry="3" style="stroke:#000000;stroke-width:1.0;"/><text fill="#000000" font-family="sans-serif" font-size="14" lengthAdjust="spacing" textLength="68" x="162.5" y="722.7285">String type</text><line style="stroke:#181818;stroke-width:0.5;" x1="143.5" x2="420.5" y1="730.2422" y2="730.2422"/><ellipse cx="153.5" cy="745.0527" fill="#84BE84" rx="3" ry="3" style="stroke:#038048;stroke-width:1.0;"/><text fill="#000000" font-family="sans-serif" font-size="14" lengthAdjust="spacing" textLength="253" x="162.5" y="749.3496">QuestionDto(String content, String type)</text><ellipse cx="153.5" cy="763.6738" fill="#84BE84" rx="3" ry="3" style="stroke:#038048;stroke-width:1.0;"/><text fill="#000000" font-family="sans-serif" font-size="14" lengthAdjust="spacing" textLength="189" x="162.5" y="767.9707">toDto(question) : QuestionDto</text><ellipse cx="153.5" cy="782.2949" fill="#84BE84" rx="3" ry="3" style="stroke:#038048;stroke-width:1.0;"/><text fill="#000000" font-family="sans-serif" font-size="14" lengthAdjust="spacing" textLength="129" x="162.5" y="786.5918">getContent() : String</text><ellipse cx="153.5" cy="800.916" fill="#84BE84" rx="3" ry="3" style="stroke:#038048;stroke-width:1.0;"/><text fill="#000000" font-family="sans-serif" font-size="14" lengthAdjust="spacing" textLength="111" x="162.5" y="805.2129">getType() : String</text><ellipse cx="153.5" cy="819.5371" fill="#84BE84" rx="3" ry="3" style="stroke:#038048;stroke-width:1.0;"/><text fill="#000000" font-family="sans-serif" font-size="14" lengthAdjust="spacing" textLength="108" x="162.5" y="823.834">toString() : String</text></g><!--class CreateExamUI--><g id="elem_CreateExamUI"><rect fill="#F1F1F1" height="48" id="CreateExamUI" rx="2.5" ry="2.5" style="stroke:#181818;stroke-width:0.5;" width="121" x="1405.5" y="489"/><ellipse cx="1420.5" cy="505" fill="#ADD1B2" rx="11" ry="11" style="stroke:#181818;stroke-width:1.0;"/><path d="M1423.2656,500.875 Q1423.4219,500.6563 1423.6094,500.5469 Q1423.7969,500.4375 1424.0156,500.4375 Q1424.3906,500.4375 1424.625,500.7031 Q1424.8594,500.9531 1424.8594,501.5625 L1424.8594,503.0156 Q1424.8594,503.625 1424.625,503.8906 Q1424.3906,504.1563 1424.0156,504.1563 Q1423.6719,504.1563 1423.4688,503.9531 Q1423.2656,503.7656 1423.1563,503.25 Q1423.1094,502.8906 1422.9219,502.7031 Q1422.5938,502.3281 1421.9844,502.1094 Q1421.375,501.8906 1420.75,501.8906 Q1419.9844,501.8906 1419.3438,502.2188 Q1418.7188,502.5469 1418.2188,503.2969 Q1417.7344,504.0469 1417.7344,505.0781 L1417.7344,506.1719 Q1417.7344,507.4063 1418.625,508.2344 Q1419.5156,509.0469 1421.1094,509.0469 Q1422.0469,509.0469 1422.7031,508.7969 Q1423.0938,508.6406 1423.5156,508.2031 Q1423.7813,507.9375 1423.9219,507.8594 Q1424.0781,507.7813 1424.2813,507.7813 Q1424.6094,507.7813 1424.8594,508.0469 Q1425.125,508.2969 1425.125,508.6406 Q1425.125,508.9844 1424.7813,509.3906 Q1424.2813,509.9688 1423.4844,510.2969 Q1422.4063,510.75 1421.1094,510.75 Q1419.5938,510.75 1418.3906,510.125 Q1417.4063,509.625 1416.7188,508.5625 Q1416.0313,507.4844 1416.0313,506.2031 L1416.0313,505.0469 Q1416.0313,503.7188 1416.6406,502.5781 Q1417.2656,501.4219 1418.3594,500.8125 Q1419.4531,500.1875 1420.6875,500.1875 Q1421.4219,500.1875 1422.0625,500.3594 Q1422.7188,500.5156 1423.2656,500.875 Z " fill="#000000"/><text fill="#000000" font-family="sans-serif" font-size="14" lengthAdjust="spacing" textLength="89" x="1434.5" y="510.7969">CreateExamUI</text><line style="stroke:#181818;stroke-width:0.5;" x1="1406.5" x2="1525.5" y1="521" y2="521"/><line style="stroke:#181818;stroke-width:0.5;" x1="1406.5" x2="1525.5" y1="529" y2="529"/></g><!--class VerifyQuestionService--><g id="elem_VerifyQuestionService"><rect fill="#F1F1F1" height="48" id="VerifyQuestionService" rx="2.5" ry="2.5" style="stroke:#181818;stroke-width:0.5;" width="172" x="457" y="718"/><ellipse cx="472" cy="734" fill="#ADD1B2" rx="11" ry="11" style="stroke:#181818;stroke-width:1.0;"/><path d="M474.7656,729.875 Q474.9219,729.6563 475.1094,729.5469 Q475.2969,729.4375 475.5156,729.4375 Q475.8906,729.4375 476.125,729.7031 Q476.3594,729.9531 476.3594,730.5625 L476.3594,732.0156 Q476.3594,732.625 476.125,732.8906 Q475.8906,733.1563 475.5156,733.1563 Q475.1719,733.1563 474.9688,732.9531 Q474.7656,732.7656 474.6563,732.25 Q474.6094,731.8906 474.4219,731.7031 Q474.0938,731.3281 473.4844,731.1094 Q472.875,730.8906 472.25,730.8906 Q471.4844,730.8906 470.8438,731.2188 Q470.2188,731.5469 469.7188,732.2969 Q469.2344,733.0469 469.2344,734.0781 L469.2344,735.1719 Q469.2344,736.4063 470.125,737.2344 Q471.0156,738.0469 472.6094,738.0469 Q473.5469,738.0469 474.2031,737.7969 Q474.5938,737.6406 475.0156,737.2031 Q475.2813,736.9375 475.4219,736.8594 Q475.5781,736.7813 475.7813,736.7813 Q476.1094,736.7813 476.3594,737.0469 Q476.625,737.2969 476.625,737.6406 Q476.625,737.9844 476.2813,738.3906 Q475.7813,738.9688 474.9844,739.2969 Q473.9063,739.75 472.6094,739.75 Q471.0938,739.75 469.8906,739.125 Q468.9063,738.625 468.2188,737.5625 Q467.5313,736.4844 467.5313,735.2031 L467.5313,734.0469 Q467.5313,732.7188 468.1406,731.5781 Q468.7656,730.4219 469.8594,729.8125 Q470.9531,729.1875 472.1875,729.1875 Q472.9219,729.1875 473.5625,729.3594 Q474.2188,729.5156 474.7656,729.875 Z " fill="#000000"/><text fill="#000000" font-family="sans-serif" font-size="14" lengthAdjust="spacing" textLength="140" x="486" y="739.7969">VerifyQuestionService</text><line style="stroke:#181818;stroke-width:0.5;" x1="458" x2="628" y1="750" y2="750"/><line style="stroke:#181818;stroke-width:0.5;" x1="458" x2="628" y1="758" y2="758"/></g><!--link SystemUser to EmailAdderss--><g id="link_SystemUser_EmailAdderss"><path codeLine="100" d="M1745.85,325.05 C1732.33,372 1713.45,437.54 1702.01,477.24 " fill="none" id="SystemUser-to-EmailAdderss" style="stroke:#181818;stroke-width:1.0;"/><polygon fill="#181818" points="1700.52,482.43,1706.8593,474.8926,1701.9068,477.6262,1699.1732,472.6737,1700.52,482.43" style="stroke:#181818;stroke-width:1.0;"/><text fill="#000000" font-family="sans-serif" font-size="13" lengthAdjust="spacing" textLength="7" x="1694.5554" y="471.4732">1</text></g><!--link SystemUser to Password--><g id="link_SystemUser_Password"><path codeLine="101" d="M1778.61,325.14 C1787.35,354.16 1798.43,390.08 1809,422 C1815.05,440.26 1822.19,460.45 1828.18,477.07 " fill="none" id="SystemUser-to-Password" style="stroke:#181818;stroke-width:1.0;"/><polygon fill="#181818" points="1830.01,482.11,1830.7103,472.2861,1828.3093,477.4081,1823.1873,475.0072,1830.01,482.11" style="stroke:#181818;stroke-width:1.0;"/><text fill="#000000" font-family="sans-serif" font-size="13" lengthAdjust="spacing" textLength="7" x="1820.0214" y="471.0872">1</text></g><!--link SystemUser to Role--><g id="link_SystemUser_Role"><path codeLine="102" d="M1784.24,325.15 C1799.04,356.81 1821.1,395.26 1850,422 C1872.76,443.06 1887.06,435 1913,452 C1921.07,457.29 1929.19,463.44 1936.89,469.76 " fill="none" id="SystemUser-to-Role" style="stroke:#181818;stroke-width:1.0;"/><polygon fill="#181818" points="1941.12,473.28,1936.7635,464.447,1937.2777,470.0805,1931.6443,470.5947,1941.12,473.28" style="stroke:#181818;stroke-width:1.0;"/><text fill="#000000" font-family="sans-serif" font-size="13" lengthAdjust="spacing" textLength="7" x="1926.7696" y="462.3292">1</text></g><!--link eCourseSystemUser to SystemUser--><g id="link_eCourseSystemUser_SystemUser"><path codeLine="104" d="M1962.49,59.17 C1922.92,68.76 1876.64,85.39 1843,114 C1814.75,138.03 1794.91,174.44 1781.94,205.71 " fill="none" id="eCourseSystemUser-to-SystemUser" style="stroke:#181818;stroke-width:1.0;"/><polygon fill="#181818" points="1779.92,210.69,1787.02,203.8644,1781.8065,206.0595,1779.6113,200.846,1779.92,210.69" style="stroke:#181818;stroke-width:1.0;"/><text fill="#000000" font-family="sans-serif" font-size="13" lengthAdjust="spacing" textLength="7" x="1774.6774" y="199.7286">1</text></g><!--link eCourseSystemUser to Role--><g id="link_eCourseSystemUser_Role"><path codeLine="105" d="M1976.99,84.09 C1949.33,103.7 1920.12,130.44 1905,163 C1865.68,247.65 1881.64,282.64 1905,373 C1913.91,407.46 1933.4,442.5 1950.54,468.78 " fill="none" id="eCourseSystemUser-to-Role" style="stroke:#181818;stroke-width:1.0;"/><polygon fill="#181818" points="1953.49,473.25,1951.8644,463.5362,1950.733,469.0788,1945.1904,467.9474,1953.49,473.25" style="stroke:#181818;stroke-width:1.0;"/><text fill="#000000" font-family="sans-serif" font-size="13" lengthAdjust="spacing" textLength="7" x="1941.1883" y="462.2942">1</text></g><!--link eCourseSystemUser to UserStatus--><g id="link_eCourseSystemUser_UserStatus"><path codeLine="106" d="M2031.05,84.15 C2019.71,119.85 2002.58,173.82 1989.86,213.89 " fill="none" id="eCourseSystemUser-to-UserStatus" style="stroke:#181818;stroke-width:1.0;"/><polygon fill="#181818" points="1988.33,218.7,1994.8513,211.3195,1989.8336,213.9314,1987.2216,208.9137,1988.33,218.7" style="stroke:#181818;stroke-width:1.0;"/><text fill="#000000" font-family="sans-serif" font-size="13" lengthAdjust="spacing" textLength="7" x="1982.9936" y="207.633">1</text></g><!--link eCourseSystemUser to Acronym--><g id="link_eCourseSystemUser_Acronym"><path codeLine="107" d="M2054.95,84.15 C2068.16,125.76 2089.25,192.2 2102.05,232.5 " fill="none" id="eCourseSystemUser-to-Acronym" style="stroke:#181818;stroke-width:1.0;"/><polygon fill="#181818" points="2103.56,237.28,2104.6501,227.4917,2102.0475,232.5142,2097.0249,229.9116,2103.56,237.28" style="stroke:#181818;stroke-width:1.0;"/><text fill="#000000" font-family="sans-serif" font-size="13" lengthAdjust="spacing" textLength="7" x="2093.8911" y="226.2923">1</text></g><!--link eCourseSystemUser to NIF--><g id="link_eCourseSystemUser_NIF"><path codeLine="108" d="M2095.61,84.03 C2123.77,105.45 2158.09,133.81 2185,163 C2204.73,184.41 2223.33,211.53 2236.69,232.71 " fill="none" id="eCourseSystemUser-to-NIF" style="stroke:#181818;stroke-width:1.0;"/><polygon fill="#181818" points="2239.46,237.14,2238.0732,227.3893,2236.8062,232.9024,2231.293,231.6354,2239.46,237.14" style="stroke:#181818;stroke-width:1.0;"/><text fill="#000000" font-family="sans-serif" font-size="13" lengthAdjust="spacing" textLength="7" x="2228.1205" y="226.1234">1</text></g><!--link eCourseSystemUser to BirthDate--><g id="link_eCourseSystemUser_BirthDate"><path codeLine="109" d="M2123.79,65.87 C2184.95,83.55 2268.46,114.44 2329,163 C2352.61,181.94 2371.66,210.62 2384.23,233.08 " fill="none" id="eCourseSystemUser-to-BirthDate" style="stroke:#181818;stroke-width:1.0;"/><polygon fill="#181818" points="2386.65,237.48,2385.8004,227.6679,2384.2327,233.1032,2378.7974,231.5355,2386.65,237.48" style="stroke:#181818;stroke-width:1.0;"/><text fill="#000000" font-family="sans-serif" font-size="13" lengthAdjust="spacing" textLength="7" x="2375.7453" y="226.0502">1</text></g><!--link eCourseSystemUser to MechanographicNumber--><g id="link_eCourseSystemUser_MechanographicNumber"><path codeLine="110" d="M2123.9,56.45 C2213.8,70.14 2361.04,100.56 2473,163 C2501.78,179.05 2528.87,204.16 2549.09,225.69 " fill="none" id="eCourseSystemUser-to-MechanographicNumber" style="stroke:#181818;stroke-width:1.0;"/><polygon fill="#181818" points="2552.53,229.39,2549.3302,220.0754,2549.125,225.7286,2543.4719,225.5234,2552.53,229.39" style="stroke:#181818;stroke-width:1.0;"/><text fill="#000000" font-family="sans-serif" font-size="13" lengthAdjust="spacing" textLength="7" x="2539.301" y="218.0935">1</text></g><!--link eCourseSystemUser to Grade--><g id="link_eCourseSystemUser_Grade"><path codeLine="111" d="M2123.72,53.26 C2276.34,67.27 2600.35,103.25 2694,163 C2720.15,179.69 2739.6,209.42 2751.82,232.84 " fill="none" id="eCourseSystemUser-to-Grade" style="stroke:#181818;stroke-width:1.0;"/><polygon fill="#181818" points="2754.17,237.43,2753.6474,227.595,2751.8997,232.9751,2746.5196,231.2274,2754.17,237.43" style="stroke:#181818;stroke-width:1.0;"/><polygon fill="#000000" points="2630.8074,125.02,2622.9187,119.7078,2621.3029,125.3592,2630.8074,125.02" style="stroke:#000000;stroke-width:1.0;"/><text fill="#000000" font-family="sans-serif" font-size="13" lengthAdjust="spacing" textLength="79" x="2635" y="129.0283">student has a</text><text fill="#000000" font-family="sans-serif" font-size="13" lengthAdjust="spacing" textLength="7" x="2743.8019" y="226.4732">1</text></g><!--link eCourseSystemUser to VerifQuestionService--><g id="link_eCourseSystemUser_VerifQuestionService"><path codeLine="113" d="M2123.65,46.73 C2252.37,48.82 2511.32,60.1 2723,114 C2767,125.2 2811.44,145.19 2851.43,167.1 " fill="none" id="eCourseSystemUser-to-VerifQuestionService" style="stroke:#181818;stroke-width:1.0;"/><polygon fill="#181818" points="2856.28,169.78,2850.3355,161.9274,2851.9032,167.3627,2846.4679,168.9304,2856.28,169.78" style="stroke:#181818;stroke-width:1.0;"/><polygon fill="#000000" points="2789.933,124.4614,2781.4887,120.0859,2780.5296,125.885,2789.933,124.4614" style="stroke:#000000;stroke-width:1.0;"/><text fill="#000000" font-family="sans-serif" font-size="13" lengthAdjust="spacing" textLength="28" x="2794" y="129.0283">uses</text></g><!--link eCourseSystemUser to Question--><g id="link_eCourseSystemUser_Question"><path codeLine="115" d="M1962.45,55.89 C1850.6,68.93 1641.92,93.25 1464,114 C1277.33,135.77 1223.92,108.7 1044,163 C629.74,288.02 528.74,353.38 176,604 C145.05,625.99 116.87,657.63 95.71,684.97 " fill="none" id="eCourseSystemUser-Question" style="stroke:#181818;stroke-width:1.0;"/><polygon fill="#000000" points="470.2618,414.2422,479.7718,414.1388,477.8947,408.5687,470.2618,414.2422" style="stroke:#000000;stroke-width:1.0;"/><text fill="#000000" font-family="sans-serif" font-size="13" lengthAdjust="spacing" textLength="93" x="484" y="418.0283">creates/updates</text><text fill="#000000" font-family="sans-serif" font-size="13" lengthAdjust="spacing" textLength="5" x="1949.5343" y="71.7544">*</text><text fill="#000000" font-family="sans-serif" font-size="13" lengthAdjust="spacing" textLength="5" x="95.3494" y="673.6347">*</text></g><!--link eCourseSystemUser to QuestionType--><g id="link_eCourseSystemUser_QuestionType"><path codeLine="117" d="M1962.14,50.85 C1881.59,59.66 1760.2,85.85 1691,163 C1545.48,325.22 1562.5,617.63 1572.33,711.29 " fill="none" id="eCourseSystemUser-QuestionType" style="stroke:#181818;stroke-width:1.0;"/><polygon fill="#000000" points="1585.4585,416.9514,1592.587,410.6558,1587.5251,407.6681,1585.4585,416.9514" style="stroke:#000000;stroke-width:1.0;"/><text fill="#000000" font-family="sans-serif" font-size="13" lengthAdjust="spacing" textLength="42" x="1597" y="418.0283">choose</text><text fill="#000000" font-family="sans-serif" font-size="13" lengthAdjust="spacing" textLength="5" x="1949.4553" y="47.6224">*</text><text fill="#000000" font-family="sans-serif" font-size="13" lengthAdjust="spacing" textLength="5" x="1566.0574" y="700.3044">*</text></g><!--link Question to QuestionType--><g id="link_Question_QuestionType"><path codeLine="120" d="M89.01,684.89 C98.87,672.28 110.91,660.47 125,653 C222.94,601.1 512.2,628.11 623,625 C817.25,619.54 1321.11,570.38 1497,653 C1523.18,665.3 1544.35,690.76 1558.16,711.31 " fill="none" id="Question-QuestionType" style="stroke:#181818;stroke-width:1.0;"/><polygon fill="#000000" points="632.9992,613.7354,624.0084,610.6343,623.9027,616.5112,632.9992,613.7354" style="stroke:#000000;stroke-width:1.0;"/><text fill="#000000" font-family="sans-serif" font-size="13" lengthAdjust="spacing" textLength="21" x="637" y="619.0283">has</text><text fill="#000000" font-family="sans-serif" font-size="13" lengthAdjust="spacing" textLength="5" x="87.791" y="673.5444">*</text><text fill="#000000" font-family="sans-serif" font-size="13" lengthAdjust="spacing" textLength="7" x="1546.7586" y="700.3285">1</text></g><!--link eCourseSystemUser to CreateQuestionUI--><g id="link_eCourseSystemUser_CreateQuestionUI"><path codeLine="123" d="M1962.5,51.93 C1834.67,61.35 1591.5,82.76 1511,114 C1457.72,134.68 1405.15,171.21 1365.1,203.39 " fill="none" id="eCourseSystemUser-to-CreateQuestionUI" style="stroke:#181818;stroke-width:1.0;"/><polygon fill="#181818" points="1360.77,206.89,1370.2831,204.3402,1364.6576,203.7457,1365.2521,198.1201,1360.77,206.89" style="stroke:#181818;stroke-width:1.0;"/><polygon fill="#000000" points="1511.1533,124.8743,1520.6433,125.5002,1519.1988,119.8026,1511.1533,124.8743" style="stroke:#000000;stroke-width:1.0;"/><text fill="#000000" font-family="sans-serif" font-size="13" lengthAdjust="spacing" textLength="28" x="1525" y="129.0283">uses</text></g><!--link CreateQuestionUI to QuestionType--><g id="link_CreateQuestionUI_QuestionType"><path codeLine="124" d="M1301.02,329.04 C1311.12,394.45 1334.78,499.66 1388,574 C1422.83,622.65 1452.54,612.96 1497,653 C1516.98,671 1537.2,693.62 1552.18,711.42 " fill="none" id="CreateQuestionUI-QuestionType" style="stroke:#181818;stroke-width:1.0;stroke-dasharray:7.0,7.0;"/></g><!--link CreateExamUI to QuestionType--><g id="link_CreateExamUI_QuestionType"><path codeLine="125" d="M1477.15,537.02 C1497.2,578.38 1539.29,665.25 1561.53,711.14 " fill="none" id="CreateExamUI-QuestionType" style="stroke:#181818;stroke-width:1.0;stroke-dasharray:7.0,7.0;"/></g><!--link CreateQuestionUI to CreateQuestionController--><g id="link_CreateQuestionUI_CreateQuestionController"><path codeLine="126" d="M1156.56,329.07 C1070.86,366.52 960.98,414.55 875.3,451.99 " fill="none" id="CreateQuestionUI-CreateQuestionController" style="stroke:#181818;stroke-width:1.0;stroke-dasharray:7.0,7.0;"/></g><!--link CreateQuestionController to RepositoryFactory--><g id="link_CreateQuestionController_RepositoryFactory"><path codeLine="127" d="M738,574.24 C738,621.39 738,684.41 738,717.86 " fill="none" id="CreateQuestionController-RepositoryFactory" style="stroke:#181818;stroke-width:1.0;stroke-dasharray:7.0,7.0;"/></g><!--link CreateQuestionController to QuestionRepository--><g id="link_CreateQuestionController_QuestionRepository"><path codeLine="128" d="M922.99,574.1 C990.07,597.16 1066.05,624.75 1134,653 C1167.54,666.94 1203.71,684 1234.9,699.37 " fill="none" id="CreateQuestionController-QuestionRepository" style="stroke:#181818;stroke-width:1.0;stroke-dasharray:7.0,7.0;"/></g><!--link CreateQuestionController to VerifyQuestionService--><g id="link_CreateQuestionController_VerifyQuestionService"><path codeLine="129" d="M645.59,574.25 C634.59,583.49 624.07,593.48 615,604 C584.82,639 562.69,688.81 551.42,717.74 " fill="none" id="CreateQuestionController-VerifyQuestionService" style="stroke:#181818;stroke-width:1.0;stroke-dasharray:7.0,7.0;"/></g><!--link CreateQuestionController to Question--><g id="link_CreateQuestionController_Question"><path codeLine="130" d="M514.35,527.86 C391.52,544.14 241.03,578.97 125,653 C112.14,661.2 100.74,672.73 91.13,684.73 " fill="none" id="CreateQuestionController-Question" style="stroke:#181818;stroke-width:1.0;stroke-dasharray:7.0,7.0;"/></g><!--link CreateQuestionController to QuestionDto--><g id="link_CreateQuestionController_QuestionDto"><path codeLine="131" d="M603,574.13 C551.28,597.85 492,625.88 439,653 C433.3,655.92 427.5,658.93 421.66,662.01 " fill="none" id="CreateQuestionController-QuestionDto" style="stroke:#181818;stroke-width:1.0;stroke-dasharray:7.0,7.0;"/></g><!--link CreateQuestionController to ExamReadFile--><g id="link_CreateQuestionController_ExamReadFile"><path codeLine="132" d="M802.75,574.24 C848.91,617.19 909.23,673.3 946.79,708.24 " fill="none" id="CreateQuestionController-ExamReadFile" style="stroke:#181818;stroke-width:1.0;stroke-dasharray:7.0,7.0;"/></g><!--link VerifyQuestionService to ExamLexer--><g id="link_VerifyQuestionService_ExamLexer"><path codeLine="133" d="M533.56,766.2 C520.16,799.12 495.78,859.03 482.4,891.9 " fill="none" id="VerifyQuestionService-ExamLexer" style="stroke:#181818;stroke-width:1.0;stroke-dasharray:7.0,7.0;"/></g><!--link VerifyQuestionService to ExamParser--><g id="link_VerifyQuestionService_ExamParser"><path codeLine="134" d="M552.44,766.2 C565.84,799.12 590.22,859.03 603.6,891.9 " fill="none" id="VerifyQuestionService-ExamParser" style="stroke:#181818;stroke-width:1.0;stroke-dasharray:7.0,7.0;"/></g><!--SRC=[ZLLRJzim57xFhx3wih814wzL5QcKTaA2ZhN0djtaq7Xox60xXMZQVzzn4kT2BZGFIUplEtVxd81JhSakqmRY9msApETAIkFx-BCIXfaCV_zw19-lP4DZA7yjLzZbFyyBSXsmbAdIyAcgMc8LKyONOGWA5_FvC-Kf4Bd_0m4AET9MSkZpPMSK4mVIzi6QtHbgKgiFH1fN0j_8QhEulbkLYvlRNRwg91_mzIPLY7B7NZyMWP8YYmVnpUrw4BjcoaGtrC0Wunw2Y0fvK3I9MB19utsUlpOPDsXgP4mD2oZd6Jc008LgmrhH3qN3OJE_Kj26IT4i3Hn1c4PYcSr1AjXh2YXOx0LI66JLwNAA7hC4gbHx3dq6nLuSPGVgo0BBqiLVeoOvCVl0d9wLw357forR1b_dhlWlB8Y0ATaMmEpX5pCq7QNTKnD427_2ObeZ-XkFnZXn5qbb5aA_WHedFgeKVgervHe-CPromn8EoqZQh7IuLJ6M2l0Gk3GztLQbR0DBBAAIdEF9CX7Kgz9eA364j-aPcP6zn4j7HGb4G4FE1EHGuKM9Q1ImLN4MzFI52Sh97TDctYoRJn9GiROAcjj38JGyTQ4uQ0k9rCn8bPL0xn5gvT5XemU9WsrkhW11ovrJ11kHtHXP1rRxkwQ1_M14TGDyf_4TlETXjZOVgDBTtIqMOeq6g-jZ5u-oSCMTZuIQo7gJrw3OyxltjdQhKeQb2_UPZQuRRwNG8Rux0VG8qzToivc4habCoyVcxTfAQzFQAxKtHATjaVCcsrNDI4liyyQMfE0Sm2mB5TtZZ9YDk0iOb-C6Wl7XysKBdEP7FsA9zhp6zBkuyCdaQjAQSdsucpnzc1r-djUTh0wljqP8kP9Xk9wP8wHo-eqmSFwDeDK47E7qpS0HUZ7fPaIRDCHoaeXgGea_bAxUcJGZgGRTBpJvEY4N-RkQchEoCUZlQHBQxwcI-KL2wKXA3LR8gtIMvAiEsSPZcVtXT7f-5Ke7kRniDzs2O1lA8DYM7chEtc3NHg5EunjbzxJtCNf_qp_5m4aasox6UCrcxFNwubXvTn-d5BtUy_u3]--></g></svg>