<?xml version="1.0" encoding="us-ascii" standalone="no"?><svg xmlns="http://www.w3.org/2000/svg" xmlns:xlink="http://www.w3.org/1999/xlink" contentStyleType="text/css" height="1345px" preserveAspectRatio="none" style="width:805px;height:1345px;background:#FFFFFF;" version="1.1" viewBox="0 0 805 1345" width="805px" zoomAndPan="magnify"><defs/><g><!--cluster ECOURSESYSTEMUSER--><g id="cluster_ECOURSESYSTEMUSER"><path d="M89.0462,405.0137 L254.0462,405.0137 A3.75,3.75 0 0 1 256.5462,407.5137 L263.5462,429.6348 L796.0462,429.6348 A2.5,2.5 0 0 1 798.5462,432.1348 L798.5462,1255.5137 A2.5,2.5 0 0 1 796.0462,1258.0137 L89.0462,1258.0137 A2.5,2.5 0 0 1 86.5462,1255.5137 L86.5462,407.5137 A2.5,2.5 0 0 1 89.0462,405.0137 " fill="none" style="stroke:#000000;stroke-width:1.5;"/><line style="stroke:#000000;stroke-width:1.5;" x1="86.5462" x2="263.5462" y1="429.6348" y2="429.6348"/><text fill="#000000" font-family="sans-serif" font-size="14" font-weight="bold" lengthAdjust="spacing" textLength="164" x="90.5462" y="422.1211">ECOURSESYSTEMUSER</text><text fill="#000000" font-family="sans-serif" font-size="14" font-style="italic" lengthAdjust="spacing" textLength="82" x="405.5462" y="446.7422">&#171;Aggregate&#187;</text></g><!--cluster QUESTION--><g id="cluster_QUESTION"><path d="M93.5462,6.0137 L166.5462,6.0137 A3.75,3.75 0 0 1 169.0462,8.5137 L176.0462,30.6348 L272.5462,30.6348 A2.5,2.5 0 0 1 275.0462,33.1348 L275.0462,378.5137 A2.5,2.5 0 0 1 272.5462,381.0137 L93.5462,381.0137 A2.5,2.5 0 0 1 91.0462,378.5137 L91.0462,8.5137 A2.5,2.5 0 0 1 93.5462,6.0137 " fill="none" style="stroke:#000000;stroke-width:1.5;"/><line style="stroke:#000000;stroke-width:1.5;" x1="91.0462" x2="176.0462" y1="30.6348" y2="30.6348"/><text fill="#000000" font-family="sans-serif" font-size="14" font-weight="bold" lengthAdjust="spacing" textLength="72" x="95.0462" y="23.1211">QUESTION</text><text fill="#000000" font-family="sans-serif" font-size="14" font-style="italic" lengthAdjust="spacing" textLength="81" x="146.5462" y="47.7422">&#171;aggregate&#187;</text></g><!--class SystemUser--><g id="elem_SystemUser"><rect codeLine="7" fill="#F1F1F1" height="113.7852" id="SystemUser" rx="2.5" ry="2.5" style="stroke:#181818;stroke-width:0.5;" width="107" x="457.0462" y="1091.0137"/><ellipse cx="472.0462" cy="1121.2852" fill="#ADD1B2" rx="11" ry="11" style="stroke:#181818;stroke-width:1.0;"/><path d="M474.8118,1117.1602 Q474.9681,1116.9414 475.1556,1116.832 Q475.3431,1116.7227 475.5618,1116.7227 Q475.9368,1116.7227 476.1712,1116.9883 Q476.4056,1117.2383 476.4056,1117.8477 L476.4056,1119.3008 Q476.4056,1119.9102 476.1712,1120.1758 Q475.9368,1120.4414 475.5618,1120.4414 Q475.2181,1120.4414 475.0149,1120.2383 Q474.8118,1120.0508 474.7024,1119.5352 Q474.6556,1119.1758 474.4681,1118.9883 Q474.1399,1118.6133 473.5306,1118.3945 Q472.9212,1118.1758 472.2962,1118.1758 Q471.5306,1118.1758 470.8899,1118.5039 Q470.2649,1118.832 469.7649,1119.582 Q469.2806,1120.332 469.2806,1121.3633 L469.2806,1122.457 Q469.2806,1123.6914 470.1712,1124.5195 Q471.0618,1125.332 472.6556,1125.332 Q473.5931,1125.332 474.2493,1125.082 Q474.6399,1124.9258 475.0618,1124.4883 Q475.3274,1124.2227 475.4681,1124.1445 Q475.6243,1124.0664 475.8274,1124.0664 Q476.1556,1124.0664 476.4056,1124.332 Q476.6712,1124.582 476.6712,1124.9258 Q476.6712,1125.2695 476.3274,1125.6758 Q475.8274,1126.2539 475.0306,1126.582 Q473.9524,1127.0352 472.6556,1127.0352 Q471.1399,1127.0352 469.9368,1126.4102 Q468.9524,1125.9102 468.2649,1124.8477 Q467.5774,1123.7695 467.5774,1122.4883 L467.5774,1121.332 Q467.5774,1120.0039 468.1868,1118.8633 Q468.8118,1117.707 469.9056,1117.0977 Q470.9993,1116.4727 472.2337,1116.4727 Q472.9681,1116.4727 473.6087,1116.6445 Q474.2649,1116.8008 474.8118,1117.1602 Z " fill="#000000"/><text fill="#000000" font-family="sans-serif" font-size="12" font-style="italic" lengthAdjust="spacing" textLength="35" x="506.0462" y="1108.9629">&#171;root&#187;</text><text fill="#000000" font-family="sans-serif" font-size="12" font-style="italic" lengthAdjust="spacing" textLength="44" x="501.5462" y="1124.9238">&#171;Entity&#187;</text><text fill="#000000" font-family="sans-serif" font-size="14" lengthAdjust="spacing" textLength="75" x="486.0462" y="1143.043">SystemUser</text><line style="stroke:#181818;stroke-width:0.5;" x1="458.0462" x2="563.0462" y1="1151.5566" y2="1151.5566"/><ellipse cx="468.0462" cy="1166.3672" fill="#000000" rx="3" ry="3" style="stroke:#000000;stroke-width:1.0;"/><text fill="#000000" font-family="sans-serif" font-size="14" lengthAdjust="spacing" textLength="36" x="477.0462" y="1170.6641">Name</text><ellipse cx="468.0462" cy="1184.9883" fill="#000000" rx="3" ry="3" style="stroke:#000000;stroke-width:1.0;"/><text fill="#000000" font-family="sans-serif" font-size="14" lengthAdjust="spacing" textLength="64" x="477.0462" y="1189.2852">Username</text><line style="stroke:#181818;stroke-width:0.5;" x1="458.0462" x2="563.0462" y1="1196.7988" y2="1196.7988"/></g><!--class eCourseSystemUser--><g id="elem_eCourseSystemUser"><rect codeLine="12" fill="#F1F1F1" height="76.543" id="eCourseSystemUser" rx="2.5" ry="2.5" style="stroke:#181818;stroke-width:0.5;" width="161" x="102.5462" y="709.5137"/><ellipse cx="117.5462" cy="739.7852" fill="#ADD1B2" rx="11" ry="11" style="stroke:#181818;stroke-width:1.0;"/><path d="M120.3118,735.6602 Q120.4681,735.4414 120.6556,735.332 Q120.8431,735.2227 121.0618,735.2227 Q121.4368,735.2227 121.6712,735.4883 Q121.9056,735.7383 121.9056,736.3477 L121.9056,737.8008 Q121.9056,738.4102 121.6712,738.6758 Q121.4368,738.9414 121.0618,738.9414 Q120.7181,738.9414 120.5149,738.7383 Q120.3118,738.5508 120.2024,738.0352 Q120.1556,737.6758 119.9681,737.4883 Q119.6399,737.1133 119.0306,736.8945 Q118.4212,736.6758 117.7962,736.6758 Q117.0306,736.6758 116.3899,737.0039 Q115.7649,737.332 115.2649,738.082 Q114.7806,738.832 114.7806,739.8633 L114.7806,740.957 Q114.7806,742.1914 115.6712,743.0195 Q116.5618,743.832 118.1556,743.832 Q119.0931,743.832 119.7493,743.582 Q120.1399,743.4258 120.5618,742.9883 Q120.8274,742.7227 120.9681,742.6445 Q121.1243,742.5664 121.3274,742.5664 Q121.6556,742.5664 121.9056,742.832 Q122.1712,743.082 122.1712,743.4258 Q122.1712,743.7695 121.8274,744.1758 Q121.3274,744.7539 120.5306,745.082 Q119.4524,745.5352 118.1556,745.5352 Q116.6399,745.5352 115.4368,744.9102 Q114.4524,744.4102 113.7649,743.3477 Q113.0774,742.2695 113.0774,740.9883 L113.0774,739.832 Q113.0774,738.5039 113.6868,737.3633 Q114.3118,736.207 115.4056,735.5977 Q116.4993,734.9727 117.7337,734.9727 Q118.4681,734.9727 119.1087,735.1445 Q119.7649,735.3008 120.3118,735.6602 Z " fill="#000000"/><text fill="#000000" font-family="sans-serif" font-size="12" font-style="italic" lengthAdjust="spacing" textLength="35" x="178.5462" y="727.4629">&#171;root&#187;</text><text fill="#000000" font-family="sans-serif" font-size="12" font-style="italic" lengthAdjust="spacing" textLength="44" x="174.0462" y="743.4238">&#171;Entity&#187;</text><text fill="#000000" font-family="sans-serif" font-size="14" lengthAdjust="spacing" textLength="129" x="131.5462" y="761.543">eCourseSystemUser</text><line style="stroke:#181818;stroke-width:0.5;" x1="103.5462" x2="262.5462" y1="770.0566" y2="770.0566"/><line style="stroke:#181818;stroke-width:0.5;" x1="103.5462" x2="262.5462" y1="778.0566" y2="778.0566"/></g><!--class EmailAdderss--><g id="elem_EmailAdderss"><rect codeLine="16" fill="#F1F1F1" height="60.582" id="EmailAdderss" rx="2.5" ry="2.5" style="stroke:#181818;stroke-width:0.5;" width="118" x="664.5462" y="1066.5137"/><ellipse cx="679.5462" cy="1088.8047" fill="#ADD1B2" rx="11" ry="11" style="stroke:#181818;stroke-width:1.0;"/><path d="M682.3118,1084.6797 Q682.4681,1084.4609 682.6556,1084.3516 Q682.8431,1084.2422 683.0618,1084.2422 Q683.4368,1084.2422 683.6712,1084.5078 Q683.9056,1084.7578 683.9056,1085.3672 L683.9056,1086.8203 Q683.9056,1087.4297 683.6712,1087.6953 Q683.4368,1087.9609 683.0618,1087.9609 Q682.7181,1087.9609 682.5149,1087.7578 Q682.3118,1087.5703 682.2024,1087.0547 Q682.1556,1086.6953 681.9681,1086.5078 Q681.6399,1086.1328 681.0306,1085.9141 Q680.4212,1085.6953 679.7962,1085.6953 Q679.0306,1085.6953 678.3899,1086.0234 Q677.7649,1086.3516 677.2649,1087.1016 Q676.7806,1087.8516 676.7806,1088.8828 L676.7806,1089.9766 Q676.7806,1091.2109 677.6712,1092.0391 Q678.5618,1092.8516 680.1556,1092.8516 Q681.0931,1092.8516 681.7493,1092.6016 Q682.1399,1092.4453 682.5618,1092.0078 Q682.8274,1091.7422 682.9681,1091.6641 Q683.1243,1091.5859 683.3274,1091.5859 Q683.6556,1091.5859 683.9056,1091.8516 Q684.1712,1092.1016 684.1712,1092.4453 Q684.1712,1092.7891 683.8274,1093.1953 Q683.3274,1093.7734 682.5306,1094.1016 Q681.4524,1094.5547 680.1556,1094.5547 Q678.6399,1094.5547 677.4368,1093.9297 Q676.4524,1093.4297 675.7649,1092.3672 Q675.0774,1091.2891 675.0774,1090.0078 L675.0774,1088.8516 Q675.0774,1087.5234 675.6868,1086.3828 Q676.3118,1085.2266 677.4056,1084.6172 Q678.4993,1083.9922 679.7337,1083.9922 Q680.4681,1083.9922 681.1087,1084.1641 Q681.7649,1084.3203 682.3118,1084.6797 Z " fill="#000000"/><text fill="#000000" font-family="sans-serif" font-size="12" font-style="italic" lengthAdjust="spacing" textLength="83" x="695.0462" y="1084.4629">&#171;Value object&#187;</text><text fill="#000000" font-family="sans-serif" font-size="14" lengthAdjust="spacing" textLength="86" x="693.5462" y="1102.582">EmailAdderss</text><line style="stroke:#181818;stroke-width:0.5;" x1="665.5462" x2="781.5462" y1="1111.0957" y2="1111.0957"/><line style="stroke:#181818;stroke-width:0.5;" x1="665.5462" x2="781.5462" y1="1119.0957" y2="1119.0957"/></g><!--class Role--><g id="elem_Role"><rect codeLine="18" fill="#F1F1F1" height="79.2031" id="Role" rx="2.5" ry="2.5" style="stroke:#181818;stroke-width:0.5;" width="102" x="672.5462" y="1162.5137"/><ellipse cx="701.0462" cy="1184.8047" fill="#ADD1B2" rx="11" ry="11" style="stroke:#181818;stroke-width:1.0;"/><path d="M703.8118,1180.6797 Q703.9681,1180.4609 704.1556,1180.3516 Q704.3431,1180.2422 704.5618,1180.2422 Q704.9368,1180.2422 705.1712,1180.5078 Q705.4056,1180.7578 705.4056,1181.3672 L705.4056,1182.8203 Q705.4056,1183.4297 705.1712,1183.6953 Q704.9368,1183.9609 704.5618,1183.9609 Q704.2181,1183.9609 704.0149,1183.7578 Q703.8118,1183.5703 703.7024,1183.0547 Q703.6556,1182.6953 703.4681,1182.5078 Q703.1399,1182.1328 702.5306,1181.9141 Q701.9212,1181.6953 701.2962,1181.6953 Q700.5306,1181.6953 699.8899,1182.0234 Q699.2649,1182.3516 698.7649,1183.1016 Q698.2806,1183.8516 698.2806,1184.8828 L698.2806,1185.9766 Q698.2806,1187.2109 699.1712,1188.0391 Q700.0618,1188.8516 701.6556,1188.8516 Q702.5931,1188.8516 703.2493,1188.6016 Q703.6399,1188.4453 704.0618,1188.0078 Q704.3274,1187.7422 704.4681,1187.6641 Q704.6243,1187.5859 704.8274,1187.5859 Q705.1556,1187.5859 705.4056,1187.8516 Q705.6712,1188.1016 705.6712,1188.4453 Q705.6712,1188.7891 705.3274,1189.1953 Q704.8274,1189.7734 704.0306,1190.1016 Q702.9524,1190.5547 701.6556,1190.5547 Q700.1399,1190.5547 698.9368,1189.9297 Q697.9524,1189.4297 697.2649,1188.3672 Q696.5774,1187.2891 696.5774,1186.0078 L696.5774,1184.8516 Q696.5774,1183.5234 697.1868,1182.3828 Q697.8118,1181.2266 698.9056,1180.6172 Q699.9993,1179.9922 701.2337,1179.9922 Q701.9681,1179.9922 702.6087,1180.1641 Q703.2649,1180.3203 703.8118,1180.6797 Z " fill="#000000"/><text fill="#000000" font-family="sans-serif" font-size="12" font-style="italic" lengthAdjust="spacing" textLength="44" x="716.0462" y="1180.4629">&#171;Entity&#187;</text><text fill="#000000" font-family="sans-serif" font-size="14" lengthAdjust="spacing" textLength="29" x="723.5462" y="1198.582">Role</text><line style="stroke:#181818;stroke-width:0.5;" x1="673.5462" x2="773.5462" y1="1207.0957" y2="1207.0957"/><ellipse cx="683.5462" cy="1221.9063" fill="#000000" rx="3" ry="3" style="stroke:#000000;stroke-width:1.0;"/><text fill="#000000" font-family="sans-serif" font-size="14" lengthAdjust="spacing" textLength="76" x="692.5462" y="1226.2031">String name</text><line style="stroke:#181818;stroke-width:0.5;" x1="673.5462" x2="773.5462" y1="1233.7168" y2="1233.7168"/></g><!--class UserStatus--><g id="elem_UserStatus"><rect codeLine="22" fill="#F1F1F1" height="97.8242" id="UserStatus" rx="2.5" ry="2.5" style="stroke:#181818;stroke-width:0.5;" width="101" x="460.0462" y="958.0137"/><ellipse cx="475.0462" cy="980.3047" fill="#ADD1B2" rx="11" ry="11" style="stroke:#181818;stroke-width:1.0;"/><path d="M477.8118,976.1797 Q477.9681,975.9609 478.1556,975.8516 Q478.3431,975.7422 478.5618,975.7422 Q478.9368,975.7422 479.1712,976.0078 Q479.4056,976.2578 479.4056,976.8672 L479.4056,978.3203 Q479.4056,978.9297 479.1712,979.1953 Q478.9368,979.4609 478.5618,979.4609 Q478.2181,979.4609 478.0149,979.2578 Q477.8118,979.0703 477.7024,978.5547 Q477.6556,978.1953 477.4681,978.0078 Q477.1399,977.6328 476.5306,977.4141 Q475.9212,977.1953 475.2962,977.1953 Q474.5306,977.1953 473.8899,977.5234 Q473.2649,977.8516 472.7649,978.6016 Q472.2806,979.3516 472.2806,980.3828 L472.2806,981.4766 Q472.2806,982.7109 473.1712,983.5391 Q474.0618,984.3516 475.6556,984.3516 Q476.5931,984.3516 477.2493,984.1016 Q477.6399,983.9453 478.0618,983.5078 Q478.3274,983.2422 478.4681,983.1641 Q478.6243,983.0859 478.8274,983.0859 Q479.1556,983.0859 479.4056,983.3516 Q479.6712,983.6016 479.6712,983.9453 Q479.6712,984.2891 479.3274,984.6953 Q478.8274,985.2734 478.0306,985.6016 Q476.9524,986.0547 475.6556,986.0547 Q474.1399,986.0547 472.9368,985.4297 Q471.9524,984.9297 471.2649,983.8672 Q470.5774,982.7891 470.5774,981.5078 L470.5774,980.3516 Q470.5774,979.0234 471.1868,977.8828 Q471.8118,976.7266 472.9056,976.1172 Q473.9993,975.4922 475.2337,975.4922 Q475.9681,975.4922 476.6087,975.6641 Q477.2649,975.8203 477.8118,976.1797 Z " fill="#000000"/><text fill="#000000" font-family="sans-serif" font-size="12" font-style="italic" lengthAdjust="spacing" textLength="46" x="500.5462" y="975.9629">&#171;enum&#187;</text><text fill="#000000" font-family="sans-serif" font-size="14" lengthAdjust="spacing" textLength="69" x="489.0462" y="994.082">UserStatus</text><line style="stroke:#181818;stroke-width:0.5;" x1="461.0462" x2="560.0462" y1="1002.5957" y2="1002.5957"/><ellipse cx="471.0462" cy="1017.4063" fill="none" rx="3" ry="3" style="stroke:#038048;stroke-width:1.0;"/><text fill="#000000" font-family="sans-serif" font-size="14" lengthAdjust="spacing" textLength="53" x="480.0462" y="1021.7031">ENABLE</text><ellipse cx="471.0462" cy="1036.0273" fill="none" rx="3" ry="3" style="stroke:#038048;stroke-width:1.0;"/><text fill="#000000" font-family="sans-serif" font-size="14" lengthAdjust="spacing" textLength="57" x="480.0462" y="1040.3242">DISABLE</text><line style="stroke:#181818;stroke-width:0.5;" x1="461.0462" x2="560.0462" y1="1047.8379" y2="1047.8379"/></g><!--class Password--><g id="elem_Password"><rect codeLine="27" fill="#F1F1F1" height="60.582" id="Password" rx="2.5" ry="2.5" style="stroke:#181818;stroke-width:0.5;" width="109" x="669.0462" y="970.5137"/><ellipse cx="684.0462" cy="992.8047" fill="#ADD1B2" rx="11" ry="11" style="stroke:#181818;stroke-width:1.0;"/><path d="M686.8118,988.6797 Q686.9681,988.4609 687.1556,988.3516 Q687.3431,988.2422 687.5618,988.2422 Q687.9368,988.2422 688.1712,988.5078 Q688.4056,988.7578 688.4056,989.3672 L688.4056,990.8203 Q688.4056,991.4297 688.1712,991.6953 Q687.9368,991.9609 687.5618,991.9609 Q687.2181,991.9609 687.0149,991.7578 Q686.8118,991.5703 686.7024,991.0547 Q686.6556,990.6953 686.4681,990.5078 Q686.1399,990.1328 685.5306,989.9141 Q684.9212,989.6953 684.2962,989.6953 Q683.5306,989.6953 682.8899,990.0234 Q682.2649,990.3516 681.7649,991.1016 Q681.2806,991.8516 681.2806,992.8828 L681.2806,993.9766 Q681.2806,995.2109 682.1712,996.0391 Q683.0618,996.8516 684.6556,996.8516 Q685.5931,996.8516 686.2493,996.6016 Q686.6399,996.4453 687.0618,996.0078 Q687.3274,995.7422 687.4681,995.6641 Q687.6243,995.5859 687.8274,995.5859 Q688.1556,995.5859 688.4056,995.8516 Q688.6712,996.1016 688.6712,996.4453 Q688.6712,996.7891 688.3274,997.1953 Q687.8274,997.7734 687.0306,998.1016 Q685.9524,998.5547 684.6556,998.5547 Q683.1399,998.5547 681.9368,997.9297 Q680.9524,997.4297 680.2649,996.3672 Q679.5774,995.2891 679.5774,994.0078 L679.5774,992.8516 Q679.5774,991.5234 680.1868,990.3828 Q680.8118,989.2266 681.9056,988.6172 Q682.9993,987.9922 684.2337,987.9922 Q684.9681,987.9922 685.6087,988.1641 Q686.2649,988.3203 686.8118,988.6797 Z " fill="#000000"/><text fill="#000000" font-family="sans-serif" font-size="12" font-style="italic" lengthAdjust="spacing" textLength="81" x="696.0462" y="988.4629">&#171;value object&#187;</text><text fill="#000000" font-family="sans-serif" font-size="14" lengthAdjust="spacing" textLength="61" x="706.0462" y="1006.582">Password</text><line style="stroke:#181818;stroke-width:0.5;" x1="670.0462" x2="777.0462" y1="1015.0957" y2="1015.0957"/><line style="stroke:#181818;stroke-width:0.5;" x1="670.0462" x2="777.0462" y1="1023.0957" y2="1023.0957"/></g><!--class Acronym--><g id="elem_Acronym"><rect codeLine="29" fill="#F1F1F1" height="60.582" id="Acronym" rx="2.5" ry="2.5" style="stroke:#181818;stroke-width:0.5;" width="109" x="456.0462" y="861.5137"/><ellipse cx="471.0462" cy="883.8047" fill="#ADD1B2" rx="11" ry="11" style="stroke:#181818;stroke-width:1.0;"/><path d="M473.8118,879.6797 Q473.9681,879.4609 474.1556,879.3516 Q474.3431,879.2422 474.5618,879.2422 Q474.9368,879.2422 475.1712,879.5078 Q475.4056,879.7578 475.4056,880.3672 L475.4056,881.8203 Q475.4056,882.4297 475.1712,882.6953 Q474.9368,882.9609 474.5618,882.9609 Q474.2181,882.9609 474.0149,882.7578 Q473.8118,882.5703 473.7024,882.0547 Q473.6556,881.6953 473.4681,881.5078 Q473.1399,881.1328 472.5306,880.9141 Q471.9212,880.6953 471.2962,880.6953 Q470.5306,880.6953 469.8899,881.0234 Q469.2649,881.3516 468.7649,882.1016 Q468.2806,882.8516 468.2806,883.8828 L468.2806,884.9766 Q468.2806,886.2109 469.1712,887.0391 Q470.0618,887.8516 471.6556,887.8516 Q472.5931,887.8516 473.2493,887.6016 Q473.6399,887.4453 474.0618,887.0078 Q474.3274,886.7422 474.4681,886.6641 Q474.6243,886.5859 474.8274,886.5859 Q475.1556,886.5859 475.4056,886.8516 Q475.6712,887.1016 475.6712,887.4453 Q475.6712,887.7891 475.3274,888.1953 Q474.8274,888.7734 474.0306,889.1016 Q472.9524,889.5547 471.6556,889.5547 Q470.1399,889.5547 468.9368,888.9297 Q467.9524,888.4297 467.2649,887.3672 Q466.5774,886.2891 466.5774,885.0078 L466.5774,883.8516 Q466.5774,882.5234 467.1868,881.3828 Q467.8118,880.2266 468.9056,879.6172 Q469.9993,878.9922 471.2337,878.9922 Q471.9681,878.9922 472.6087,879.1641 Q473.2649,879.3203 473.8118,879.6797 Z " fill="#000000"/><text fill="#000000" font-family="sans-serif" font-size="12" font-style="italic" lengthAdjust="spacing" textLength="81" x="483.0462" y="879.4629">&#171;value object&#187;</text><text fill="#000000" font-family="sans-serif" font-size="14" lengthAdjust="spacing" textLength="55" x="496.0462" y="897.582">Acronym</text><line style="stroke:#181818;stroke-width:0.5;" x1="457.0462" x2="564.0462" y1="906.0957" y2="906.0957"/><line style="stroke:#181818;stroke-width:0.5;" x1="457.0462" x2="564.0462" y1="914.0957" y2="914.0957"/></g><!--class NIF--><g id="elem_NIF"><rect codeLine="31" fill="#F1F1F1" height="60.582" id="NIF" rx="2.5" ry="2.5" style="stroke:#181818;stroke-width:0.5;" width="109" x="456.0462" y="765.5137"/><ellipse cx="471.0462" cy="787.8047" fill="#ADD1B2" rx="11" ry="11" style="stroke:#181818;stroke-width:1.0;"/><path d="M473.8118,783.6797 Q473.9681,783.4609 474.1556,783.3516 Q474.3431,783.2422 474.5618,783.2422 Q474.9368,783.2422 475.1712,783.5078 Q475.4056,783.7578 475.4056,784.3672 L475.4056,785.8203 Q475.4056,786.4297 475.1712,786.6953 Q474.9368,786.9609 474.5618,786.9609 Q474.2181,786.9609 474.0149,786.7578 Q473.8118,786.5703 473.7024,786.0547 Q473.6556,785.6953 473.4681,785.5078 Q473.1399,785.1328 472.5306,784.9141 Q471.9212,784.6953 471.2962,784.6953 Q470.5306,784.6953 469.8899,785.0234 Q469.2649,785.3516 468.7649,786.1016 Q468.2806,786.8516 468.2806,787.8828 L468.2806,788.9766 Q468.2806,790.2109 469.1712,791.0391 Q470.0618,791.8516 471.6556,791.8516 Q472.5931,791.8516 473.2493,791.6016 Q473.6399,791.4453 474.0618,791.0078 Q474.3274,790.7422 474.4681,790.6641 Q474.6243,790.5859 474.8274,790.5859 Q475.1556,790.5859 475.4056,790.8516 Q475.6712,791.1016 475.6712,791.4453 Q475.6712,791.7891 475.3274,792.1953 Q474.8274,792.7734 474.0306,793.1016 Q472.9524,793.5547 471.6556,793.5547 Q470.1399,793.5547 468.9368,792.9297 Q467.9524,792.4297 467.2649,791.3672 Q466.5774,790.2891 466.5774,789.0078 L466.5774,787.8516 Q466.5774,786.5234 467.1868,785.3828 Q467.8118,784.2266 468.9056,783.6172 Q469.9993,782.9922 471.2337,782.9922 Q471.9681,782.9922 472.6087,783.1641 Q473.2649,783.3203 473.8118,783.6797 Z " fill="#000000"/><text fill="#000000" font-family="sans-serif" font-size="12" font-style="italic" lengthAdjust="spacing" textLength="81" x="483.0462" y="783.4629">&#171;value object&#187;</text><text fill="#000000" font-family="sans-serif" font-size="14" lengthAdjust="spacing" textLength="21" x="513.0462" y="801.582">NIF</text><line style="stroke:#181818;stroke-width:0.5;" x1="457.0462" x2="564.0462" y1="810.0957" y2="810.0957"/><line style="stroke:#181818;stroke-width:0.5;" x1="457.0462" x2="564.0462" y1="818.0957" y2="818.0957"/></g><!--class BirthDate--><g id="elem_BirthDate"><rect codeLine="33" fill="#F1F1F1" height="60.582" id="BirthDate" rx="2.5" ry="2.5" style="stroke:#181818;stroke-width:0.5;" width="109" x="456.0462" y="669.5137"/><ellipse cx="471.0462" cy="691.8047" fill="#ADD1B2" rx="11" ry="11" style="stroke:#181818;stroke-width:1.0;"/><path d="M473.8118,687.6797 Q473.9681,687.4609 474.1556,687.3516 Q474.3431,687.2422 474.5618,687.2422 Q474.9368,687.2422 475.1712,687.5078 Q475.4056,687.7578 475.4056,688.3672 L475.4056,689.8203 Q475.4056,690.4297 475.1712,690.6953 Q474.9368,690.9609 474.5618,690.9609 Q474.2181,690.9609 474.0149,690.7578 Q473.8118,690.5703 473.7024,690.0547 Q473.6556,689.6953 473.4681,689.5078 Q473.1399,689.1328 472.5306,688.9141 Q471.9212,688.6953 471.2962,688.6953 Q470.5306,688.6953 469.8899,689.0234 Q469.2649,689.3516 468.7649,690.1016 Q468.2806,690.8516 468.2806,691.8828 L468.2806,692.9766 Q468.2806,694.2109 469.1712,695.0391 Q470.0618,695.8516 471.6556,695.8516 Q472.5931,695.8516 473.2493,695.6016 Q473.6399,695.4453 474.0618,695.0078 Q474.3274,694.7422 474.4681,694.6641 Q474.6243,694.5859 474.8274,694.5859 Q475.1556,694.5859 475.4056,694.8516 Q475.6712,695.1016 475.6712,695.4453 Q475.6712,695.7891 475.3274,696.1953 Q474.8274,696.7734 474.0306,697.1016 Q472.9524,697.5547 471.6556,697.5547 Q470.1399,697.5547 468.9368,696.9297 Q467.9524,696.4297 467.2649,695.3672 Q466.5774,694.2891 466.5774,693.0078 L466.5774,691.8516 Q466.5774,690.5234 467.1868,689.3828 Q467.8118,688.2266 468.9056,687.6172 Q469.9993,686.9922 471.2337,686.9922 Q471.9681,686.9922 472.6087,687.1641 Q473.2649,687.3203 473.8118,687.6797 Z " fill="#000000"/><text fill="#000000" font-family="sans-serif" font-size="12" font-style="italic" lengthAdjust="spacing" textLength="81" x="483.0462" y="687.4629">&#171;value object&#187;</text><text fill="#000000" font-family="sans-serif" font-size="14" lengthAdjust="spacing" textLength="59" x="494.0462" y="705.582">BirthDate</text><line style="stroke:#181818;stroke-width:0.5;" x1="457.0462" x2="564.0462" y1="714.0957" y2="714.0957"/><line style="stroke:#181818;stroke-width:0.5;" x1="457.0462" x2="564.0462" y1="722.0957" y2="722.0957"/></g><!--class MechanographicNumber--><g id="elem_MechanographicNumber"><rect codeLine="35" fill="#F1F1F1" height="76.543" id="MechanographicNumber" rx="2.5" ry="2.5" style="stroke:#181818;stroke-width:0.5;" width="186" x="417.5462" y="557.5137"/><ellipse cx="432.5462" cy="587.7852" fill="#ADD1B2" rx="11" ry="11" style="stroke:#181818;stroke-width:1.0;"/><path d="M435.3118,583.6602 Q435.4681,583.4414 435.6556,583.332 Q435.8431,583.2227 436.0618,583.2227 Q436.4368,583.2227 436.6712,583.4883 Q436.9056,583.7383 436.9056,584.3477 L436.9056,585.8008 Q436.9056,586.4102 436.6712,586.6758 Q436.4368,586.9414 436.0618,586.9414 Q435.7181,586.9414 435.5149,586.7383 Q435.3118,586.5508 435.2024,586.0352 Q435.1556,585.6758 434.9681,585.4883 Q434.6399,585.1133 434.0306,584.8945 Q433.4212,584.6758 432.7962,584.6758 Q432.0306,584.6758 431.3899,585.0039 Q430.7649,585.332 430.2649,586.082 Q429.7806,586.832 429.7806,587.8633 L429.7806,588.957 Q429.7806,590.1914 430.6712,591.0195 Q431.5618,591.832 433.1556,591.832 Q434.0931,591.832 434.7493,591.582 Q435.1399,591.4258 435.5618,590.9883 Q435.8274,590.7227 435.9681,590.6445 Q436.1243,590.5664 436.3274,590.5664 Q436.6556,590.5664 436.9056,590.832 Q437.1712,591.082 437.1712,591.4258 Q437.1712,591.7695 436.8274,592.1758 Q436.3274,592.7539 435.5306,593.082 Q434.4524,593.5352 433.1556,593.5352 Q431.6399,593.5352 430.4368,592.9102 Q429.4524,592.4102 428.7649,591.3477 Q428.0774,590.2695 428.0774,588.9883 L428.0774,587.832 Q428.0774,586.5039 428.6868,585.3633 Q429.3118,584.207 430.4056,583.5977 Q431.4993,582.9727 432.7337,582.9727 Q433.4681,582.9727 434.1087,583.1445 Q434.7649,583.3008 435.3118,583.6602 Z " fill="#000000"/><text fill="#000000" font-family="sans-serif" font-size="12" font-style="italic" lengthAdjust="spacing" textLength="81" x="483.0462" y="575.4629">&#171;value object&#187;</text><text fill="#000000" font-family="sans-serif" font-size="12" font-style="italic" lengthAdjust="spacing" textLength="146" x="450.5462" y="591.4238">&#171;automatically generated&#187;</text><text fill="#000000" font-family="sans-serif" font-size="14" lengthAdjust="spacing" textLength="154" x="446.5462" y="609.543">MechanographicNumber</text><line style="stroke:#181818;stroke-width:0.5;" x1="418.5462" x2="602.5462" y1="618.0566" y2="618.0566"/><line style="stroke:#181818;stroke-width:0.5;" x1="418.5462" x2="602.5462" y1="626.0566" y2="626.0566"/></g><!--class Grade--><g id="elem_Grade"><rect codeLine="37" fill="#F1F1F1" height="60.582" id="Grade" rx="2.5" ry="2.5" style="stroke:#181818;stroke-width:0.5;" width="109" x="456.0462" y="461.5137"/><ellipse cx="471.0462" cy="483.8047" fill="#ADD1B2" rx="11" ry="11" style="stroke:#181818;stroke-width:1.0;"/><path d="M473.8118,479.6797 Q473.9681,479.4609 474.1556,479.3516 Q474.3431,479.2422 474.5618,479.2422 Q474.9368,479.2422 475.1712,479.5078 Q475.4056,479.7578 475.4056,480.3672 L475.4056,481.8203 Q475.4056,482.4297 475.1712,482.6953 Q474.9368,482.9609 474.5618,482.9609 Q474.2181,482.9609 474.0149,482.7578 Q473.8118,482.5703 473.7024,482.0547 Q473.6556,481.6953 473.4681,481.5078 Q473.1399,481.1328 472.5306,480.9141 Q471.9212,480.6953 471.2962,480.6953 Q470.5306,480.6953 469.8899,481.0234 Q469.2649,481.3516 468.7649,482.1016 Q468.2806,482.8516 468.2806,483.8828 L468.2806,484.9766 Q468.2806,486.2109 469.1712,487.0391 Q470.0618,487.8516 471.6556,487.8516 Q472.5931,487.8516 473.2493,487.6016 Q473.6399,487.4453 474.0618,487.0078 Q474.3274,486.7422 474.4681,486.6641 Q474.6243,486.5859 474.8274,486.5859 Q475.1556,486.5859 475.4056,486.8516 Q475.6712,487.1016 475.6712,487.4453 Q475.6712,487.7891 475.3274,488.1953 Q474.8274,488.7734 474.0306,489.1016 Q472.9524,489.5547 471.6556,489.5547 Q470.1399,489.5547 468.9368,488.9297 Q467.9524,488.4297 467.2649,487.3672 Q466.5774,486.2891 466.5774,485.0078 L466.5774,483.8516 Q466.5774,482.5234 467.1868,481.3828 Q467.8118,480.2266 468.9056,479.6172 Q469.9993,478.9922 471.2337,478.9922 Q471.9681,478.9922 472.6087,479.1641 Q473.2649,479.3203 473.8118,479.6797 Z " fill="#000000"/><text fill="#000000" font-family="sans-serif" font-size="12" font-style="italic" lengthAdjust="spacing" textLength="81" x="483.0462" y="479.4629">&#171;value object&#187;</text><text fill="#000000" font-family="sans-serif" font-size="14" lengthAdjust="spacing" textLength="40" x="503.5462" y="497.582">Grade</text><line style="stroke:#181818;stroke-width:0.5;" x1="457.0462" x2="564.0462" y1="506.0957" y2="506.0957"/><line style="stroke:#181818;stroke-width:0.5;" x1="457.0462" x2="564.0462" y1="514.0957" y2="514.0957"/></g><!--class Question--><g id="elem_Question"><rect codeLine="42" fill="#F1F1F1" height="113.7852" id="Question" rx="2.5" ry="2.5" style="stroke:#181818;stroke-width:0.5;" width="100" x="133.0462" y="251.0137"/><ellipse cx="152.9962" cy="281.2852" fill="#ADD1B2" rx="11" ry="11" style="stroke:#181818;stroke-width:1.0;"/><path d="M155.7618,277.1602 Q155.9181,276.9414 156.1056,276.832 Q156.2931,276.7227 156.5118,276.7227 Q156.8868,276.7227 157.1212,276.9883 Q157.3556,277.2383 157.3556,277.8477 L157.3556,279.3008 Q157.3556,279.9102 157.1212,280.1758 Q156.8868,280.4414 156.5118,280.4414 Q156.1681,280.4414 155.9649,280.2383 Q155.7618,280.0508 155.6524,279.5352 Q155.6056,279.1758 155.4181,278.9883 Q155.0899,278.6133 154.4806,278.3945 Q153.8712,278.1758 153.2462,278.1758 Q152.4806,278.1758 151.8399,278.5039 Q151.2149,278.832 150.7149,279.582 Q150.2306,280.332 150.2306,281.3633 L150.2306,282.457 Q150.2306,283.6914 151.1212,284.5195 Q152.0118,285.332 153.6056,285.332 Q154.5431,285.332 155.1993,285.082 Q155.5899,284.9258 156.0118,284.4883 Q156.2774,284.2227 156.4181,284.1445 Q156.5743,284.0664 156.7774,284.0664 Q157.1056,284.0664 157.3556,284.332 Q157.6212,284.582 157.6212,284.9258 Q157.6212,285.2695 157.2774,285.6758 Q156.7774,286.2539 155.9806,286.582 Q154.9024,287.0352 153.6056,287.0352 Q152.0899,287.0352 150.8868,286.4102 Q149.9024,285.9102 149.2149,284.8477 Q148.5274,283.7695 148.5274,282.4883 L148.5274,281.332 Q148.5274,280.0039 149.1368,278.8633 Q149.7618,277.707 150.8556,277.0977 Q151.9493,276.4727 153.1837,276.4727 Q153.9181,276.4727 154.5587,276.6445 Q155.2149,276.8008 155.7618,277.1602 Z " fill="#000000"/><text fill="#000000" font-family="sans-serif" font-size="12" font-style="italic" lengthAdjust="spacing" textLength="35" x="179.0962" y="268.9629">&#171;root&#187;</text><text fill="#000000" font-family="sans-serif" font-size="12" font-style="italic" lengthAdjust="spacing" textLength="44" x="174.5962" y="284.9238">&#171;event&#187;</text><text fill="#000000" font-family="sans-serif" font-size="14" lengthAdjust="spacing" textLength="57" x="168.0962" y="303.043">Question</text><line style="stroke:#181818;stroke-width:0.5;" x1="134.0462" x2="232.0462" y1="311.5566" y2="311.5566"/><ellipse cx="144.0462" cy="326.3672" fill="#000000" rx="3" ry="3" style="stroke:#000000;stroke-width:1.0;"/><text fill="#000000" font-family="sans-serif" font-size="14" lengthAdjust="spacing" textLength="74" x="153.0462" y="330.6641">id &#171;unique&#187;</text><ellipse cx="144.0462" cy="344.9883" fill="#000000" rx="3" ry="3" style="stroke:#000000;stroke-width:1.0;"/><text fill="#000000" font-family="sans-serif" font-size="14" lengthAdjust="spacing" textLength="47" x="153.0462" y="349.2852">content</text><line style="stroke:#181818;stroke-width:0.5;" x1="134.0462" x2="232.0462" y1="356.7988" y2="356.7988"/></g><!--class QuestionType--><g id="elem_QuestionType"><rect codeLine="47" fill="#F1F1F1" height="135.0664" id="QuestionType" rx="2.5" ry="2.5" style="stroke:#181818;stroke-width:0.5;" width="152" x="107.0462" y="62.5137"/><ellipse cx="135.9962" cy="84.8047" fill="#ADD1B2" rx="11" ry="11" style="stroke:#181818;stroke-width:1.0;"/><path d="M138.7618,80.6797 Q138.9181,80.4609 139.1056,80.3516 Q139.2931,80.2422 139.5118,80.2422 Q139.8868,80.2422 140.1212,80.5078 Q140.3556,80.7578 140.3556,81.3672 L140.3556,82.8203 Q140.3556,83.4297 140.1212,83.6953 Q139.8868,83.9609 139.5118,83.9609 Q139.1681,83.9609 138.9649,83.7578 Q138.7618,83.5703 138.6524,83.0547 Q138.6056,82.6953 138.4181,82.5078 Q138.0899,82.1328 137.4806,81.9141 Q136.8712,81.6953 136.2462,81.6953 Q135.4806,81.6953 134.8399,82.0234 Q134.2149,82.3516 133.7149,83.1016 Q133.2306,83.8516 133.2306,84.8828 L133.2306,85.9766 Q133.2306,87.2109 134.1212,88.0391 Q135.0118,88.8516 136.6056,88.8516 Q137.5431,88.8516 138.1993,88.6016 Q138.5899,88.4453 139.0118,88.0078 Q139.2774,87.7422 139.4181,87.6641 Q139.5743,87.5859 139.7774,87.5859 Q140.1056,87.5859 140.3556,87.8516 Q140.6212,88.1016 140.6212,88.4453 Q140.6212,88.7891 140.2774,89.1953 Q139.7774,89.7734 138.9806,90.1016 Q137.9024,90.5547 136.6056,90.5547 Q135.0899,90.5547 133.8868,89.9297 Q132.9024,89.4297 132.2149,88.3672 Q131.5274,87.2891 131.5274,86.0078 L131.5274,84.8516 Q131.5274,83.5234 132.1368,82.3828 Q132.7618,81.2266 133.8556,80.6172 Q134.9493,79.9922 136.1837,79.9922 Q136.9181,79.9922 137.5587,80.1641 Q138.2149,80.3203 138.7618,80.6797 Z " fill="#000000"/><text fill="#000000" font-family="sans-serif" font-size="12" font-style="italic" lengthAdjust="spacing" textLength="46" x="174.5962" y="80.4629">&#171;enum&#187;</text><text fill="#000000" font-family="sans-serif" font-size="14" lengthAdjust="spacing" textLength="89" x="153.0962" y="98.582">QuestionType</text><line style="stroke:#181818;stroke-width:0.5;" x1="108.0462" x2="258.0462" y1="107.0957" y2="107.0957"/><ellipse cx="118.0462" cy="121.9063" fill="none" rx="3" ry="3" style="stroke:#038048;stroke-width:1.0;"/><text fill="#000000" font-family="sans-serif" font-size="14" lengthAdjust="spacing" textLength="126" x="127.0462" y="126.2031">MULTIPLE_CHOICE</text><ellipse cx="118.0462" cy="140.5273" fill="none" rx="3" ry="3" style="stroke:#038048;stroke-width:1.0;"/><text fill="#000000" font-family="sans-serif" font-size="14" lengthAdjust="spacing" textLength="118" x="127.0462" y="144.8242">TRUE_OR_FALSE</text><ellipse cx="118.0462" cy="159.1484" fill="none" rx="3" ry="3" style="stroke:#038048;stroke-width:1.0;"/><text fill="#000000" font-family="sans-serif" font-size="14" lengthAdjust="spacing" textLength="115" x="127.0462" y="163.4453">SHORT_ANSWER</text><ellipse cx="118.0462" cy="177.7695" fill="none" rx="3" ry="3" style="stroke:#038048;stroke-width:1.0;"/><text fill="#000000" font-family="sans-serif" font-size="14" lengthAdjust="spacing" textLength="71" x="127.0462" y="182.0664">MATCHING</text><line style="stroke:#181818;stroke-width:0.5;" x1="108.0462" x2="258.0462" y1="189.5801" y2="189.5801"/></g><!--class VerifQuestionService--><g id="elem_VerifQuestionService"><rect codeLine="56" fill="#F1F1F1" height="60.582" id="VerifQuestionService" rx="2.5" ry="2.5" style="stroke:#181818;stroke-width:0.5;" width="165" x="428.0462" y="1277.5137"/><ellipse cx="443.0462" cy="1299.8047" fill="#ADD1B2" rx="11" ry="11" style="stroke:#181818;stroke-width:1.0;"/><path d="M445.8118,1295.6797 Q445.9681,1295.4609 446.1556,1295.3516 Q446.3431,1295.2422 446.5618,1295.2422 Q446.9368,1295.2422 447.1712,1295.5078 Q447.4056,1295.7578 447.4056,1296.3672 L447.4056,1297.8203 Q447.4056,1298.4297 447.1712,1298.6953 Q446.9368,1298.9609 446.5618,1298.9609 Q446.2181,1298.9609 446.0149,1298.7578 Q445.8118,1298.5703 445.7024,1298.0547 Q445.6556,1297.6953 445.4681,1297.5078 Q445.1399,1297.1328 444.5306,1296.9141 Q443.9212,1296.6953 443.2962,1296.6953 Q442.5306,1296.6953 441.8899,1297.0234 Q441.2649,1297.3516 440.7649,1298.1016 Q440.2806,1298.8516 440.2806,1299.8828 L440.2806,1300.9766 Q440.2806,1302.2109 441.1712,1303.0391 Q442.0618,1303.8516 443.6556,1303.8516 Q444.5931,1303.8516 445.2493,1303.6016 Q445.6399,1303.4453 446.0618,1303.0078 Q446.3274,1302.7422 446.4681,1302.6641 Q446.6243,1302.5859 446.8274,1302.5859 Q447.1556,1302.5859 447.4056,1302.8516 Q447.6712,1303.1016 447.6712,1303.4453 Q447.6712,1303.7891 447.3274,1304.1953 Q446.8274,1304.7734 446.0306,1305.1016 Q444.9524,1305.5547 443.6556,1305.5547 Q442.1399,1305.5547 440.9368,1304.9297 Q439.9524,1304.4297 439.2649,1303.3672 Q438.5774,1302.2891 438.5774,1301.0078 L438.5774,1299.8516 Q438.5774,1298.5234 439.1868,1297.3828 Q439.8118,1296.2266 440.9056,1295.6172 Q441.9993,1294.9922 443.2337,1294.9922 Q443.9681,1294.9922 444.6087,1295.1641 Q445.2649,1295.3203 445.8118,1295.6797 Z " fill="#000000"/><text fill="#000000" font-family="sans-serif" font-size="12" font-style="italic" lengthAdjust="spacing" textLength="53" x="497.0462" y="1295.4629">&#171;service&#187;</text><text fill="#000000" font-family="sans-serif" font-size="14" lengthAdjust="spacing" textLength="133" x="457.0462" y="1313.582">VerifQuestionService</text><line style="stroke:#181818;stroke-width:0.5;" x1="429.0462" x2="592.0462" y1="1322.0957" y2="1322.0957"/><line style="stroke:#181818;stroke-width:0.5;" x1="429.0462" x2="592.0462" y1="1330.0957" y2="1330.0957"/></g><!--link SystemUser to EmailAdderss--><g id="link_SystemUser_EmailAdderss"><path codeLine="64" d="M564.2462,1135.2737 C592.9762,1128.3337 628.7462,1119.6837 659.0162,1112.3737 " fill="none" id="SystemUser-to-EmailAdderss" style="stroke:#181818;stroke-width:1.0;"/><polygon fill="#181818" points="664.2062,1111.1137,654.5204,1109.3288,659.3448,1112.2827,656.3908,1117.107,664.2062,1111.1137" style="stroke:#181818;stroke-width:1.0;"/><text fill="#000000" font-family="sans-serif" font-size="13" lengthAdjust="spacing" textLength="7" x="649.5476" y="1127.9396">1</text></g><!--link SystemUser to Password--><g id="link_SystemUser_Password"><path codeLine="65" d="M564.2462,1111.2937 C598.0062,1087.7737 641.4862,1057.4837 674.3362,1034.6037 " fill="none" id="SystemUser-to-Password" style="stroke:#181818;stroke-width:1.0;"/><polygon fill="#181818" points="678.6962,1031.5637,669.0223,1033.4118,674.5893,1034.4157,673.5854,1039.9827,678.6962,1031.5637" style="stroke:#181818;stroke-width:1.0;"/><text fill="#000000" font-family="sans-serif" font-size="13" lengthAdjust="spacing" textLength="7" x="662.4795" y="1053.1035">1</text></g><!--link SystemUser to Role--><g id="link_SystemUser_Role"><path codeLine="66" d="M564.2462,1161.5037 C595.6462,1169.5337 635.4562,1179.7237 667.2962,1187.8737 " fill="none" id="SystemUser-to-Role" style="stroke:#181818;stroke-width:1.0;"/><polygon fill="#181818" points="672.3362,1189.1637,664.613,1183.052,667.4931,1187.9208,662.6244,1190.8009,672.3362,1189.1637" style="stroke:#181818;stroke-width:1.0;"/><text fill="#000000" font-family="sans-serif" font-size="13" lengthAdjust="spacing" textLength="7" x="657.6426" y="1202.5865">1</text></g><!--link eCourseSystemUser to SystemUser--><g id="link_eCourseSystemUser_SystemUser"><path codeLine="68" d="M205.8062,786.6737 C226.8762,823.2337 260.4262,879.1737 293.5462,925.0137 C343.8062,994.5737 356.4562,1012.7437 417.5462,1073.0137 C428.4862,1083.8037 440.8562,1094.6737 452.8962,1104.6637 " fill="none" id="eCourseSystemUser-to-SystemUser" style="stroke:#181818;stroke-width:1.0;"/><polygon fill="#181818" points="456.9662,1108.0137,452.5742,1099.1983,453.1111,1104.8296,447.4797,1105.3665,456.9662,1108.0137" style="stroke:#181818;stroke-width:1.0;"/><text fill="#000000" font-family="sans-serif" font-size="13" lengthAdjust="spacing" textLength="7" x="441.9393" y="1117.6479">1</text></g><!--link eCourseSystemUser to Role--><g id="link_eCourseSystemUser_Role"><path codeLine="69" d="M188.2262,786.7537 C201.1162,883.9237 250.1462,1136.3337 417.5462,1222.0137 C496.9562,1262.6637 603.6062,1241.2937 667.4762,1221.8337 " fill="none" id="eCourseSystemUser-to-Role" style="stroke:#181818;stroke-width:1.0;"/><polygon fill="#181818" points="672.3762,1220.3237,662.5981,1219.1453,667.597,1221.7931,664.9492,1226.792,672.3762,1220.3237" style="stroke:#181818;stroke-width:1.0;"/><text fill="#000000" font-family="sans-serif" font-size="13" lengthAdjust="spacing" textLength="7" x="657.6882" y="1238.1283">1</text></g><!--link eCourseSystemUser to UserStatus--><g id="link_eCourseSystemUser_UserStatus"><path codeLine="70" d="M225.4662,786.5237 C245.6562,804.9237 270.5162,827.0337 293.5462,846.0137 C346.9162,890.0037 362.0362,898.7637 417.5462,940.0137 C429.7962,949.1237 443.0362,958.8337 455.5462,967.9537 " fill="none" id="eCourseSystemUser-to-UserStatus" style="stroke:#181818;stroke-width:1.0;"/><polygon fill="#181818" points="459.7662,971.0237,454.8635,962.4818,455.7305,968.0718,450.1405,968.9388,459.7662,971.0237" style="stroke:#181818;stroke-width:1.0;"/><text fill="#000000" font-family="sans-serif" font-size="13" lengthAdjust="spacing" textLength="7" x="445.1331" y="981.219">1</text></g><!--link eCourseSystemUser to Acronym--><g id="link_eCourseSystemUser_Acronym"><path codeLine="71" d="M263.6762,783.2437 C321.5862,808.8637 398.6962,842.9737 451.0162,866.1237 " fill="none" id="eCourseSystemUser-to-Acronym" style="stroke:#181818;stroke-width:1.0;"/><polygon fill="#181818" points="455.6762,868.1837,449.0722,860.877,451.1059,866.1556,445.8273,868.1894,455.6762,868.1837" style="stroke:#181818;stroke-width:1.0;"/><text fill="#000000" font-family="sans-serif" font-size="13" lengthAdjust="spacing" textLength="7" x="441.1975" y="880.2933">1</text></g><!--link eCourseSystemUser to NIF--><g id="link_eCourseSystemUser_NIF"><path codeLine="72" d="M263.6762,759.7537 C321.4662,768.2837 398.3862,779.6237 450.6962,787.3337 " fill="none" id="eCourseSystemUser-to-NIF" style="stroke:#181818;stroke-width:1.0;"/><polygon fill="#181818" points="455.6762,788.0737,447.3557,782.804,450.7296,787.3446,446.1891,790.7185,455.6762,788.0737" style="stroke:#181818;stroke-width:1.0;"/><text fill="#000000" font-family="sans-serif" font-size="13" lengthAdjust="spacing" textLength="7" x="441.1975" y="802.2192">1</text></g><!--link eCourseSystemUser to BirthDate--><g id="link_eCourseSystemUser_BirthDate"><path codeLine="73" d="M263.6762,736.2737 C321.4662,727.7437 398.3862,716.4037 450.6962,708.6937 " fill="none" id="eCourseSystemUser-to-BirthDate" style="stroke:#181818;stroke-width:1.0;"/><polygon fill="#181818" points="455.6762,707.9537,446.1891,705.3088,450.7296,708.6828,447.3557,713.2233,455.6762,707.9537" style="stroke:#181818;stroke-width:1.0;"/><text fill="#000000" font-family="sans-serif" font-size="13" lengthAdjust="spacing" textLength="7" x="441.1975" y="724.1338">1</text></g><!--link eCourseSystemUser to MechanographicNumber--><g id="link_eCourseSystemUser_MechanographicNumber"><path codeLine="74" d="M263.6762,710.8337 C311.7162,688.3937 372.9662,659.7937 422.3162,636.7437 " fill="none" id="eCourseSystemUser-to-MechanographicNumber" style="stroke:#181818;stroke-width:1.0;"/><polygon fill="#181818" points="427.0562,634.5337,417.209,634.7166,422.5256,636.6489,420.5934,641.9655,427.0562,634.5337" style="stroke:#181818;stroke-width:1.0;"/><text fill="#000000" font-family="sans-serif" font-size="13" lengthAdjust="spacing" textLength="7" x="406.1921" y="656.1154">1</text></g><!--link eCourseSystemUser to Grade--><g id="link_eCourseSystemUser_Grade"><path codeLine="75" d="M221.6362,709.1537 C265.8462,664.7837 342.7162,591.6837 417.5462,540.0137 C428.0162,532.7837 439.7162,525.8937 451.1562,519.6937 " fill="none" id="eCourseSystemUser-to-Grade" style="stroke:#181818;stroke-width:1.0;"/><polygon fill="#181818" points="455.6962,517.2737,445.873,517.9845,451.2856,519.6288,449.6413,525.0414,455.6962,517.2737" style="stroke:#181818;stroke-width:1.0;"/><polygon fill="#000000" points="302.4022,553.4762,293.5557,556.9678,297.2975,561.5008,302.4022,553.4762" style="stroke:#000000;stroke-width:1.0;"/><text fill="#000000" font-family="sans-serif" font-size="13" lengthAdjust="spacing" textLength="79" x="307.5462" y="562.042">student has a</text><text fill="#000000" font-family="sans-serif" font-size="13" lengthAdjust="spacing" textLength="7" x="441.2201" y="535.6729">1</text></g><!--link eCourseSystemUser to VerifQuestionService--><g id="link_eCourseSystemUser_VerifQuestionService"><path codeLine="77" d="M186.6962,786.6637 C194.9862,895.5837 224.1162,1201.5337 293.5462,1269.0137 C327.2962,1301.8137 378.7462,1312.0437 422.9662,1313.8437 " fill="none" id="eCourseSystemUser-to-VerifQuestionService" style="stroke:#181818;stroke-width:1.0;"/><polygon fill="#181818" points="428.0462,1314.0137,419.1885,1309.7076,423.0491,1313.8423,418.9144,1317.7029,428.0462,1314.0137" style="stroke:#181818;stroke-width:1.0;"/><polygon fill="#000000" points="326.0911,1264.2219,325.0737,1254.7659,319.7099,1257.1698,326.0911,1264.2219" style="stroke:#000000;stroke-width:1.0;"/><text fill="#000000" font-family="sans-serif" font-size="13" lengthAdjust="spacing" textLength="28" x="333.0462" y="1265.042">uses</text></g><!--link eCourseSystemUser to Question--><g id="link_eCourseSystemUser_Question"><path codeLine="79" d="M183.0462,709.3537 C183.0462,631.6537 183.0462,456.2537 183.0462,365.2337 " fill="none" id="eCourseSystemUser-Question" style="stroke:#181818;stroke-width:1.0;"/><polygon fill="#000000" points="121.5462,532.4092,118.6073,541.4543,124.4851,541.4543,121.5462,532.4092" style="stroke:#000000;stroke-width:1.0;"/><text fill="#000000" font-family="sans-serif" font-size="13" lengthAdjust="spacing" textLength="93" x="130.5462" y="542.792">creates/updates</text><text fill="#000000" font-family="sans-serif" font-size="13" lengthAdjust="spacing" textLength="5" x="177.6165" y="698.3407">*</text><text fill="#000000" font-family="sans-serif" font-size="13" lengthAdjust="spacing" textLength="5" x="177.7571" y="386.8901">*</text></g><!--link eCourseSystemUser to QuestionType--><g id="link_eCourseSystemUser_QuestionType"><path codeLine="81" d="M155.3962,709.0937 C119.9262,656.5437 60.2862,558.6237 37.5462,464.5137 C28.7962,428.2937 6.9762,366.6737 78.5462,233.0137 C86.0062,219.0937 95.9762,205.8737 106.8062,193.8237 " fill="none" id="eCourseSystemUser-QuestionType" style="stroke:#181818;stroke-width:1.0;"/><polygon fill="#000000" points="18.0768,450.1813,16,459.4623,21.8519,458.9105,18.0768,450.1813" style="stroke:#000000;stroke-width:1.0;"/><text fill="#000000" font-family="sans-serif" font-size="13" lengthAdjust="spacing" textLength="42" x="27.5462" y="460.542">choose</text><text fill="#000000" font-family="sans-serif" font-size="13" lengthAdjust="spacing" textLength="5" x="145.4026" y="698.33">*</text><text fill="#000000" font-family="sans-serif" font-size="13" lengthAdjust="spacing" textLength="5" x="94.0552" y="214.9811">*</text></g><!--link Question to QuestionType--><g id="link_Question_QuestionType"><path codeLine="84" d="M183.0462,250.7137 C183.0462,233.8437 183.0462,215.2237 183.0462,197.7637 " fill="none" id="Question-QuestionType" style="stroke:#181818;stroke-width:1.0;"/><polygon fill="#000000" points="157.5462,219.4092,154.6073,228.4543,160.4851,228.4543,157.5462,219.4092" style="stroke:#000000;stroke-width:1.0;"/><text fill="#000000" font-family="sans-serif" font-size="13" lengthAdjust="spacing" textLength="21" x="166.5462" y="229.792">has</text><text fill="#000000" font-family="sans-serif" font-size="13" lengthAdjust="spacing" textLength="5" x="177.7415" y="239.7534">*</text><text fill="#000000" font-family="sans-serif" font-size="13" lengthAdjust="spacing" textLength="7" x="175.6852" y="219.6669">1</text></g><!--SRC=[ZPDTRzem58Rl_IiiRYfrOgYt24LAgLkG8BHnqcfNo4rE4s-9dVc32KtzxtE0G1WXMuGISivxtXpxFBx9ZQdqU3Ig2YQCBOklYIn76dvQ40aCKyuonKg42lWms4YiU9ORd785YU5I85Inv0VB00_8T1M7bD1lD2BBc99mW2SJFyiKPCo0v-7V265t9GNJ6jEjDb366fHJAIcD4qmcH1XkjZijFbotE60bj5xh6j64FjkUC9LMQVYdzMKbAHal_3G5vLucarTMMC3o_RjRfEUrXQ4iu5gVr2WkCjpTMzqEDSpOsX-4BS-Als0I-FSBqWeypEanSkRqx6w_f4gTp-PgdtwYfDYMlPfW_jYRl-VAv0zkThsg9IGv4z9HKkKy2Mpvljltym8NODR8aXcUiABOuWm4A6UTdfizAPPsVUwpnTbBJ6WqNmKrNkmChvFFYmLTuza603OWp5yZu_KkMi4TxUupftWYXN7goyrlZADj1ST1jkUuZ1VH_7b1rjFPQZvj3pGAOx9UXUj7Vq7RSJfRXT7Q3-WR2Tj6VZITpOEdfWVtsxVm2ef_D7rGK1kUrAte_Ryzu4wCq4q81Qj5EkULHgXrBeP33m_k1cVST-KRrhfozL50wFBCDVbJg4UqCxcUFfsQ7j61zHw58xqdU-IyHzD5UOzyp_4OQsDJnn7EcSOCUzUsgtEaOsmrwEwYmUq03tVt8-bZd2XmYz0ZMwNrytyhToYxwbnA3NKHEdeUn7SNudez7le3]--></g></svg>