<?xml version="1.0" encoding="us-ascii" standalone="no"?><svg xmlns="http://www.w3.org/2000/svg" xmlns:xlink="http://www.w3.org/1999/xlink" contentStyleType="text/css" height="1244.1px" preserveAspectRatio="none" style="width:1808px;height:1244px;background:#FFFFFF;" version="1.1" viewBox="0 0 1808 1244" width="1808.4px" zoomAndPan="magnify"><defs/><g><rect fill="#FFFFFF" height="992.3955" style="stroke:#181818;stroke-width:1.1;" width="11" x="32.45" y="133.6865"/><rect fill="#FFFFFF" height="83.1402" style="stroke:#181818;stroke-width:1.1;" width="11" x="290.95" y="133.6865"/><rect fill="#FFFFFF" height="34.4201" style="stroke:#181818;stroke-width:1.1;" width="11" x="290.95" y="251.2469"/><rect fill="#FFFFFF" height="805.9949" style="stroke:#181818;stroke-width:1.1;" width="11" x="290.95" y="320.0871"/><rect fill="#FFFFFF" height="316.7871" style="stroke:#181818;stroke-width:1.1;" width="11" x="543.95" y="354.5072"/><rect fill="#FFFFFF" height="338.0072" style="stroke:#181818;stroke-width:1.1;" width="11" x="543.95" y="705.7145"/><rect fill="#FFFFFF" height="247.9469" style="stroke:#181818;stroke-width:1.1;" width="11" x="883.85" y="388.9273"/><rect fill="#FFFFFF" height="160.4066" style="stroke:#181818;stroke-width:1.1;" width="11" x="1123.65" y="434.3475"/><rect fill="#FFFFFF" height="112.4234" style="stroke:#181818;stroke-width:1.1;" width="11" x="1229.8" y="482.3307"/><rect fill="#FFFFFF" height="83.1402" style="stroke:#181818;stroke-width:1.1;" width="11" x="1348.05" y="740.1346"/><rect fill="#FFFFFF" height="83.1402" style="stroke:#181818;stroke-width:1.1;" width="11" x="1660.45" y="926.1613"/><line style="stroke:#181818;stroke-width:0.55;stroke-dasharray:5.0,5.0;" x1="37.4" x2="37.4" y1="97.0664" y2="1135.982"/><line style="stroke:#181818;stroke-width:0.55;stroke-dasharray:5.0,5.0;" x1="296.45" x2="296.45" y1="97.0664" y2="1135.982"/><line style="stroke:#181818;stroke-width:0.55;stroke-dasharray:5.0,5.0;" x1="549.45" x2="549.45" y1="97.0664" y2="1135.982"/><line style="stroke:#181818;stroke-width:0.55;stroke-dasharray:5.0,5.0;" x1="726.55" x2="726.55" y1="97.0664" y2="1135.982"/><line style="stroke:#181818;stroke-width:0.55;stroke-dasharray:5.0,5.0;" x1="889.35" x2="889.35" y1="97.0664" y2="1135.982"/><line style="stroke:#181818;stroke-width:0.55;stroke-dasharray:5.0,5.0;" x1="1128.6" x2="1128.6" y1="432.7189" y2="1135.982"/><line style="stroke:#181818;stroke-width:0.55;stroke-dasharray:5.0,5.0;" x1="1235.3" x2="1235.3" y1="480.7021" y2="1135.982"/><line style="stroke:#181818;stroke-width:0.55;stroke-dasharray:5.0,5.0;" x1="1353" x2="1353" y1="97.0664" y2="1135.982"/><line style="stroke:#181818;stroke-width:0.55;stroke-dasharray:5.0,5.0;" x1="1543.3" x2="1543.3" y1="877.308" y2="1135.982"/><line style="stroke:#181818;stroke-width:0.55;stroke-dasharray:5.0,5.0;" x1="1665.4" x2="1665.4" y1="97.0664" y2="1135.982"/><text fill="#000000" font-family="sans-serif" font-size="15.4" lengthAdjust="spacing" textLength="58.3" x="5.5" y="93.2014">Teacher</text><ellipse cx="37.95" cy="19.9332" fill="#E2E2F0" rx="8.8" ry="8.8" style="stroke:#181818;stroke-width:0.55;"/><path d="M37.95,28.7332 L37.95,58.4332 M23.65,37.5332 L52.25,37.5332 M37.95,58.4332 L23.65,74.9332 M37.95,58.4332 L52.25,74.9332 " fill="none" style="stroke:#181818;stroke-width:0.55;"/><text fill="#000000" font-family="sans-serif" font-size="15.4" lengthAdjust="spacing" textLength="58.3" x="5.5" y="1151.5002">Teacher</text><ellipse cx="37.95" cy="1164.7152" fill="#E2E2F0" rx="8.8" ry="8.8" style="stroke:#181818;stroke-width:0.55;"/><path d="M37.95,1173.5152 L37.95,1203.2152 M23.65,1182.3152 L52.25,1182.3152 M37.95,1203.2152 L23.65,1219.7152 M37.95,1203.2152 L52.25,1219.7152 " fill="none" style="stroke:#181818;stroke-width:0.55;"/><rect fill="#E2E2F0" height="35.8832" rx="2.75" ry="2.75" style="stroke:#181818;stroke-width:0.55;" width="143" x="224.95" y="60.0832"/><text fill="#000000" font-family="sans-serif" font-size="15.4" lengthAdjust="spacing" textLength="127.6" x="232.65" y="84.4014">:CreateQuestionUI</text><rect fill="#E2E2F0" height="35.8832" rx="2.75" ry="2.75" style="stroke:#181818;stroke-width:0.55;" width="143" x="224.95" y="1134.882"/><text fill="#000000" font-family="sans-serif" font-size="15.4" lengthAdjust="spacing" textLength="127.6" x="232.65" y="1159.2002">:CreateQuestionUI</text><rect fill="#E2E2F0" height="35.8832" rx="2.75" ry="2.75" style="stroke:#181818;stroke-width:0.55;" width="198" x="450.45" y="60.0832"/><text fill="#000000" font-family="sans-serif" font-size="15.4" lengthAdjust="spacing" textLength="182.6" x="458.15" y="84.4014">:CreateQuestionController</text><rect fill="#E2E2F0" height="35.8832" rx="2.75" ry="2.75" style="stroke:#181818;stroke-width:0.55;" width="198" x="450.45" y="1134.882"/><text fill="#000000" font-family="sans-serif" font-size="15.4" lengthAdjust="spacing" textLength="182.6" x="458.15" y="1159.2002">:CreateQuestionController</text><text fill="#000000" font-family="sans-serif" font-size="15.4" font-style="italic" lengthAdjust="spacing" textLength="86.9" x="679.8" y="72.7182">&#171;repository&#187;</text><text fill="#000000" font-family="sans-serif" font-size="15.4" lengthAdjust="spacing" textLength="127.6" x="659.45" y="93.2014">RepositoryFactory</text><path d="M706.75,16.5 C706.75,5.5 726.55,5.5 726.55,5.5 C726.55,5.5 746.35,5.5 746.35,16.5 L746.35,45.1 C746.35,56.1 726.55,56.1 726.55,56.1 C726.55,56.1 706.75,56.1 706.75,45.1 L706.75,16.5 " fill="#E2E2F0" style="stroke:#181818;stroke-width:1.6500000000000001;"/><path d="M706.75,16.5 C706.75,27.5 726.55,27.5 726.55,27.5 C726.55,27.5 746.35,27.5 746.35,16.5 " fill="none" style="stroke:#181818;stroke-width:1.6500000000000001;"/><text fill="#000000" font-family="sans-serif" font-size="15.4" font-style="italic" lengthAdjust="spacing" textLength="86.9" x="679.8" y="1151.5002">&#171;repository&#187;</text><text fill="#000000" font-family="sans-serif" font-size="15.4" lengthAdjust="spacing" textLength="127.6" x="659.45" y="1171.9834">RepositoryFactory</text><path d="M706.75,1186.8484 C706.75,1175.8484 726.55,1175.8484 726.55,1175.8484 C726.55,1175.8484 746.35,1175.8484 746.35,1186.8484 L746.35,1215.4484 C746.35,1226.4484 726.55,1226.4484 726.55,1226.4484 C726.55,1226.4484 706.75,1226.4484 706.75,1215.4484 L706.75,1186.8484 " fill="#E2E2F0" style="stroke:#181818;stroke-width:1.6500000000000001;"/><path d="M706.75,1186.8484 C706.75,1197.8484 726.55,1197.8484 726.55,1197.8484 C726.55,1197.8484 746.35,1197.8484 746.35,1186.8484 " fill="none" style="stroke:#181818;stroke-width:1.6500000000000001;"/><rect fill="#E2E2F0" height="56.3664" rx="2.75" ry="2.75" style="stroke:#181818;stroke-width:0.55;" width="169.4" x="804.65" y="39.6"/><text fill="#000000" font-family="sans-serif" font-size="15.4" font-style="italic" lengthAdjust="spacing" textLength="66" x="856.35" y="63.9182">&#171;service&#187;</text><text fill="#000000" font-family="sans-serif" font-size="15.4" lengthAdjust="spacing" textLength="154" x="812.35" y="84.4014">VerifyQuestionService</text><rect fill="#E2E2F0" height="56.3664" rx="2.75" ry="2.75" style="stroke:#181818;stroke-width:0.55;" width="169.4" x="804.65" y="1134.882"/><text fill="#000000" font-family="sans-serif" font-size="15.4" font-style="italic" lengthAdjust="spacing" textLength="66" x="856.35" y="1159.2002">&#171;service&#187;</text><text fill="#000000" font-family="sans-serif" font-size="15.4" lengthAdjust="spacing" textLength="154" x="812.35" y="1179.6834">VerifyQuestionService</text><rect fill="#E2E2F0" height="35.8832" rx="2.75" ry="2.75" style="stroke:#181818;stroke-width:0.55;" width="91.3" x="1083.5" y="1134.882"/><text fill="#000000" font-family="sans-serif" font-size="15.4" lengthAdjust="spacing" textLength="75.9" x="1091.2" y="1159.2002">ExamLexer</text><rect fill="#E2E2F0" height="35.8832" rx="2.75" ry="2.75" style="stroke:#181818;stroke-width:0.55;" width="99" x="1185.8" y="1134.882"/><text fill="#000000" font-family="sans-serif" font-size="15.4" lengthAdjust="spacing" textLength="83.6" x="1193.5" y="1159.2002">ExamParser</text><rect fill="#E2E2F0" height="35.8832" rx="2.75" ry="2.75" style="stroke:#181818;stroke-width:0.55;" width="115.5" x="1295.8" y="60.0832"/><text fill="#000000" font-family="sans-serif" font-size="15.4" lengthAdjust="spacing" textLength="100.1" x="1303.5" y="84.4014">ExamReadFile</text><rect fill="#E2E2F0" height="35.8832" rx="2.75" ry="2.75" style="stroke:#181818;stroke-width:0.55;" width="115.5" x="1295.8" y="1134.882"/><text fill="#000000" font-family="sans-serif" font-size="15.4" lengthAdjust="spacing" textLength="100.1" x="1303.5" y="1159.2002">ExamReadFile</text><rect fill="#E2E2F0" height="56.3664" rx="2.75" ry="2.75" style="stroke:#181818;stroke-width:0.55;" width="78.1" x="1504.8" y="1134.882"/><text fill="#000000" font-family="sans-serif" font-size="15.4" font-style="italic" lengthAdjust="spacing" textLength="55" x="1516.35" y="1159.2002">&#171;entity&#187;</text><text fill="#000000" font-family="sans-serif" font-size="15.4" lengthAdjust="spacing" textLength="62.7" x="1512.5" y="1179.6834">Question</text><text fill="#000000" font-family="sans-serif" font-size="15.4" font-style="italic" lengthAdjust="spacing" textLength="82.5" x="1621.4" y="72.7182">&#171;database&#187;</text><text fill="#000000" font-family="sans-serif" font-size="15.4" lengthAdjust="spacing" textLength="137.5" x="1593.9" y="93.2014">QuestionRepository</text><path d="M1646.15,16.5 C1646.15,5.5 1665.95,5.5 1665.95,5.5 C1665.95,5.5 1685.75,5.5 1685.75,16.5 L1685.75,45.1 C1685.75,56.1 1665.95,56.1 1665.95,56.1 C1665.95,56.1 1646.15,56.1 1646.15,45.1 L1646.15,16.5 " fill="#E2E2F0" style="stroke:#181818;stroke-width:1.6500000000000001;"/><path d="M1646.15,16.5 C1646.15,27.5 1665.95,27.5 1665.95,27.5 C1665.95,27.5 1685.75,27.5 1685.75,16.5 " fill="none" style="stroke:#181818;stroke-width:1.6500000000000001;"/><text fill="#000000" font-family="sans-serif" font-size="15.4" font-style="italic" lengthAdjust="spacing" textLength="82.5" x="1621.4" y="1151.5002">&#171;database&#187;</text><text fill="#000000" font-family="sans-serif" font-size="15.4" lengthAdjust="spacing" textLength="137.5" x="1593.9" y="1171.9834">QuestionRepository</text><path d="M1646.15,1186.8484 C1646.15,1175.8484 1665.95,1175.8484 1665.95,1175.8484 C1665.95,1175.8484 1685.75,1175.8484 1685.75,1186.8484 L1685.75,1215.4484 C1685.75,1226.4484 1665.95,1226.4484 1665.95,1226.4484 C1665.95,1226.4484 1646.15,1226.4484 1646.15,1215.4484 L1646.15,1186.8484 " fill="#E2E2F0" style="stroke:#181818;stroke-width:1.6500000000000001;"/><path d="M1646.15,1186.8484 C1646.15,1197.8484 1665.95,1197.8484 1665.95,1197.8484 C1665.95,1197.8484 1685.75,1197.8484 1685.75,1186.8484 " fill="none" style="stroke:#181818;stroke-width:1.6500000000000001;"/><rect fill="#FFFFFF" height="992.3955" style="stroke:#181818;stroke-width:1.1;" width="11" x="32.45" y="133.6865"/><rect fill="#FFFFFF" height="83.1402" style="stroke:#181818;stroke-width:1.1;" width="11" x="290.95" y="133.6865"/><rect fill="#FFFFFF" height="34.4201" style="stroke:#181818;stroke-width:1.1;" width="11" x="290.95" y="251.2469"/><rect fill="#FFFFFF" height="805.9949" style="stroke:#181818;stroke-width:1.1;" width="11" x="290.95" y="320.0871"/><rect fill="#FFFFFF" height="316.7871" style="stroke:#181818;stroke-width:1.1;" width="11" x="543.95" y="354.5072"/><rect fill="#FFFFFF" height="338.0072" style="stroke:#181818;stroke-width:1.1;" width="11" x="543.95" y="705.7145"/><rect fill="#FFFFFF" height="247.9469" style="stroke:#181818;stroke-width:1.1;" width="11" x="883.85" y="388.9273"/><rect fill="#FFFFFF" height="160.4066" style="stroke:#181818;stroke-width:1.1;" width="11" x="1123.65" y="434.3475"/><rect fill="#FFFFFF" height="112.4234" style="stroke:#181818;stroke-width:1.1;" width="11" x="1229.8" y="482.3307"/><rect fill="#FFFFFF" height="83.1402" style="stroke:#181818;stroke-width:1.1;" width="11" x="1348.05" y="740.1346"/><rect fill="#FFFFFF" height="83.1402" style="stroke:#181818;stroke-width:1.1;" width="11" x="1660.45" y="926.1613"/><polygon fill="#181818" points="277.75,129.2865,288.75,133.6865,277.75,138.0865,282.15,133.6865" style="stroke:#181818;stroke-width:1.1;"/><line style="stroke:#181818;stroke-width:1.1;" x1="43.45" x2="284.35" y1="133.6865" y2="133.6865"/><text fill="#000000" font-family="sans-serif" font-size="14.3" font-weight="bold" lengthAdjust="spacing" textLength="7.7" x="51.15" y="127.8976">1</text><text fill="#000000" font-family="sans-serif" font-size="14.3" lengthAdjust="spacing" textLength="196.9" x="63.25" y="127.8976">Starts creating a new Question</text><line style="stroke:#181818;stroke-width:1.1;" x1="301.95" x2="348.15" y1="168.1066" y2="168.1066"/><line style="stroke:#181818;stroke-width:1.1;" x1="348.15" x2="348.15" y1="168.1066" y2="182.4066"/><line style="stroke:#181818;stroke-width:1.1;" x1="303.05" x2="348.15" y1="182.4066" y2="182.4066"/><polygon fill="#181818" points="314.05,178.0066,303.05,182.4066,314.05,186.8066,309.65,182.4066" style="stroke:#181818;stroke-width:1.1;"/><text fill="#000000" font-family="sans-serif" font-size="14.3" font-weight="bold" lengthAdjust="spacing" textLength="7.7" x="309.65" y="162.3177">2</text><text fill="#000000" font-family="sans-serif" font-size="14.3" lengthAdjust="spacing" textLength="177.1" x="321.75" y="162.3177">showTypeQuestions(perms)</text><polygon fill="#181818" points="55.55,212.4268,44.55,216.8268,55.55,221.2268,51.15,216.8268" style="stroke:#181818;stroke-width:1.1;"/><line style="stroke:#181818;stroke-width:1.1;stroke-dasharray:2.0,2.0;" x1="48.95" x2="295.35" y1="216.8268" y2="216.8268"/><text fill="#000000" font-family="sans-serif" font-size="14.3" font-weight="bold" lengthAdjust="spacing" textLength="7.7" x="62.15" y="211.0378">3</text><text fill="#000000" font-family="sans-serif" font-size="14.3" lengthAdjust="spacing" textLength="204.6" x="74.25" y="211.0378">asks to select the question type</text><polygon fill="#181818" points="277.75,246.8469,288.75,251.2469,277.75,255.6469,282.15,251.2469" style="stroke:#181818;stroke-width:1.1;"/><line style="stroke:#181818;stroke-width:1.1;" x1="43.45" x2="284.35" y1="251.2469" y2="251.2469"/><text fill="#000000" font-family="sans-serif" font-size="14.3" font-weight="bold" lengthAdjust="spacing" textLength="7.7" x="51.15" y="245.4579">4</text><text fill="#000000" font-family="sans-serif" font-size="14.3" lengthAdjust="spacing" textLength="160.6" x="63.25" y="245.4579">selects the question type</text><polygon fill="#181818" points="55.55,281.267,44.55,285.667,55.55,290.067,51.15,285.667" style="stroke:#181818;stroke-width:1.1;"/><line style="stroke:#181818;stroke-width:1.1;stroke-dasharray:2.0,2.0;" x1="48.95" x2="295.35" y1="285.667" y2="285.667"/><text fill="#000000" font-family="sans-serif" font-size="14.3" font-weight="bold" lengthAdjust="spacing" textLength="7.7" x="62.15" y="279.878">5</text><text fill="#000000" font-family="sans-serif" font-size="14.3" lengthAdjust="spacing" textLength="209" x="74.25" y="279.878">asks to enter the question txt file</text><polygon fill="#181818" points="277.75,315.6871,288.75,320.0871,277.75,324.4871,282.15,320.0871" style="stroke:#181818;stroke-width:1.1;"/><line style="stroke:#181818;stroke-width:1.1;" x1="43.45" x2="284.35" y1="320.0871" y2="320.0871"/><text fill="#000000" font-family="sans-serif" font-size="14.3" font-weight="bold" lengthAdjust="spacing" textLength="7.7" x="51.15" y="314.2981">6</text><text fill="#000000" font-family="sans-serif" font-size="14.3" lengthAdjust="spacing" textLength="165" x="63.25" y="314.2981">enters the question txt file</text><polygon fill="#181818" points="530.75,350.1072,541.75,354.5072,530.75,358.9072,535.15,354.5072" style="stroke:#181818;stroke-width:1.1;"/><line style="stroke:#181818;stroke-width:1.1;" x1="301.95" x2="537.35" y1="354.5072" y2="354.5072"/><text fill="#000000" font-family="sans-serif" font-size="14.3" font-weight="bold" lengthAdjust="spacing" textLength="7.7" x="309.65" y="348.7183">7</text><text fill="#000000" font-family="sans-serif" font-size="14.3" lengthAdjust="spacing" textLength="193.6" x="321.75" y="348.7183">verifyQuestion(type, fileName);</text><polygon fill="#181818" points="870.65,384.5273,881.65,388.9273,870.65,393.3273,875.05,388.9273" style="stroke:#181818;stroke-width:1.1;"/><line style="stroke:#181818;stroke-width:1.1;" x1="554.95" x2="877.25" y1="388.9273" y2="388.9273"/><text fill="#000000" font-family="sans-serif" font-size="14.3" font-weight="bold" lengthAdjust="spacing" textLength="7.7" x="562.65" y="383.1384">8</text><text fill="#000000" font-family="sans-serif" font-size="14.3" lengthAdjust="spacing" textLength="193.6" x="574.75" y="383.1384">verifyQuestion(type, fileName);</text><polygon fill="#181818" points="1070.3,418.9475,1081.3,423.3475,1070.3,427.7475,1074.7,423.3475" style="stroke:#181818;stroke-width:1.1;"/><line style="stroke:#181818;stroke-width:1.1;" x1="894.85" x2="1076.9" y1="423.3475" y2="423.3475"/><text fill="#000000" font-family="sans-serif" font-size="14.3" font-weight="bold" lengthAdjust="spacing" textLength="7.7" x="902.55" y="417.5585">9</text><text fill="#000000" font-family="sans-serif" font-size="14.3" lengthAdjust="spacing" textLength="4.4" x="914.65" y="417.5585">&#160;</text><rect fill="#E2E2F0" height="35.8832" rx="2.75" ry="2.75" style="stroke:#181818;stroke-width:0.55;" width="91.3" x="1083.5" y="397.7273"/><text fill="#000000" font-family="sans-serif" font-size="15.4" lengthAdjust="spacing" textLength="75.9" x="1091.2" y="422.0455">ExamLexer</text><polygon fill="#181818" points="1172.6,466.9307,1183.6,471.3307,1172.6,475.7307,1177,471.3307" style="stroke:#181818;stroke-width:1.1;"/><line style="stroke:#181818;stroke-width:1.1;" x1="894.85" x2="1179.2" y1="471.3307" y2="471.3307"/><text fill="#000000" font-family="sans-serif" font-size="14.3" font-weight="bold" lengthAdjust="spacing" textLength="15.4" x="902.55" y="465.5417">10</text><text fill="#000000" font-family="sans-serif" font-size="14.3" lengthAdjust="spacing" textLength="4.4" x="922.35" y="465.5417">&#160;</text><rect fill="#E2E2F0" height="35.8832" rx="2.75" ry="2.75" style="stroke:#181818;stroke-width:0.55;" width="99" x="1185.8" y="445.7105"/><text fill="#000000" font-family="sans-serif" font-size="15.4" lengthAdjust="spacing" textLength="83.6" x="1193.5" y="470.0287">ExamParser</text><polygon fill="#181818" points="906.95,514.9139,895.95,519.3139,906.95,523.7139,902.55,519.3139" style="stroke:#181818;stroke-width:1.1;"/><line style="stroke:#181818;stroke-width:1.1;stroke-dasharray:2.0,2.0;" x1="900.35" x2="1122.55" y1="519.3139" y2="519.3139"/><text fill="#000000" font-family="sans-serif" font-size="14.3" font-weight="bold" lengthAdjust="spacing" textLength="15.4" x="913.55" y="513.5249">11</text><text fill="#000000" font-family="sans-serif" font-size="14.3" lengthAdjust="spacing" textLength="4.4" x="933.35" y="513.5249">&#160;</text><polygon fill="#181818" points="906.95,549.334,895.95,553.734,906.95,558.134,902.55,553.734" style="stroke:#181818;stroke-width:1.1;"/><line style="stroke:#181818;stroke-width:1.1;stroke-dasharray:2.0,2.0;" x1="900.35" x2="1228.7" y1="553.734" y2="553.734"/><text fill="#000000" font-family="sans-serif" font-size="14.3" font-weight="bold" lengthAdjust="spacing" textLength="15.4" x="913.55" y="547.945">12</text><text fill="#000000" font-family="sans-serif" font-size="14.3" lengthAdjust="spacing" textLength="4.4" x="933.35" y="547.945">&#160;</text><line style="stroke:#181818;stroke-width:1.1;" x1="894.85" x2="941.05" y1="593.6541" y2="593.6541"/><line style="stroke:#181818;stroke-width:1.1;" x1="941.05" x2="941.05" y1="593.6541" y2="607.9541"/><line style="stroke:#181818;stroke-width:1.1;" x1="889.35" x2="941.05" y1="607.9541" y2="607.9541"/><polygon fill="#181818" points="900.35,603.5541,889.35,607.9541,900.35,612.3541,895.95,607.9541" style="stroke:#181818;stroke-width:1.1;"/><text fill="#000000" font-family="sans-serif" font-size="14.3" font-weight="bold" lengthAdjust="spacing" textLength="15.4" x="902.55" y="587.8651">13</text><text fill="#000000" font-family="sans-serif" font-size="14.3" lengthAdjust="spacing" textLength="193.6" x="922.35" y="587.8651">verifyQuestion(type, fileName);</text><polygon fill="#181818" points="567.05,632.4742,556.05,636.8742,567.05,641.2742,562.65,636.8742" style="stroke:#181818;stroke-width:1.1;"/><line style="stroke:#181818;stroke-width:1.1;stroke-dasharray:2.0,2.0;" x1="560.45" x2="888.25" y1="636.8742" y2="636.8742"/><text fill="#000000" font-family="sans-serif" font-size="14.3" font-weight="bold" lengthAdjust="spacing" textLength="15.4" x="573.65" y="631.0853">14</text><text fill="#000000" font-family="sans-serif" font-size="14.3" lengthAdjust="spacing" textLength="4.4" x="593.45" y="631.0853">&#160;</text><polygon fill="#181818" points="314.05,666.8943,303.05,671.2943,314.05,675.6943,309.65,671.2943" style="stroke:#181818;stroke-width:1.1;"/><line style="stroke:#181818;stroke-width:1.1;stroke-dasharray:2.0,2.0;" x1="307.45" x2="548.35" y1="671.2943" y2="671.2943"/><text fill="#000000" font-family="sans-serif" font-size="14.3" font-weight="bold" lengthAdjust="spacing" textLength="15.4" x="320.65" y="665.5054">15</text><text fill="#000000" font-family="sans-serif" font-size="14.3" lengthAdjust="spacing" textLength="4.4" x="340.45" y="665.5054">&#160;</text><polygon fill="#181818" points="530.75,701.3145,541.75,705.7145,530.75,710.1145,535.15,705.7145" style="stroke:#181818;stroke-width:1.1;"/><line style="stroke:#181818;stroke-width:1.1;" x1="301.95" x2="537.35" y1="705.7145" y2="705.7145"/><text fill="#000000" font-family="sans-serif" font-size="14.3" font-weight="bold" lengthAdjust="spacing" textLength="15.4" x="309.65" y="699.9255">16</text><text fill="#000000" font-family="sans-serif" font-size="14.3" lengthAdjust="spacing" textLength="201.3" x="329.45" y="699.9255">createQuestion(type, fileName);</text><polygon fill="#181818" points="1334.85,735.7346,1345.85,740.1346,1334.85,744.5346,1339.25,740.1346" style="stroke:#181818;stroke-width:1.1;"/><line style="stroke:#181818;stroke-width:1.1;" x1="554.95" x2="1341.45" y1="740.1346" y2="740.1346"/><text fill="#000000" font-family="sans-serif" font-size="14.3" font-weight="bold" lengthAdjust="spacing" textLength="15.4" x="562.65" y="734.3456">17</text><text fill="#000000" font-family="sans-serif" font-size="14.3" lengthAdjust="spacing" textLength="144.1" x="582.45" y="734.3456">FileToString(finalPath);</text><line style="stroke:#181818;stroke-width:1.1;" x1="1359.05" x2="1405.25" y1="774.5547" y2="774.5547"/><line style="stroke:#181818;stroke-width:1.1;" x1="1405.25" x2="1405.25" y1="774.5547" y2="788.8547"/><line style="stroke:#181818;stroke-width:1.1;" x1="1360.15" x2="1405.25" y1="788.8547" y2="788.8547"/><polygon fill="#181818" points="1371.15,784.4547,1360.15,788.8547,1371.15,793.2547,1366.75,788.8547" style="stroke:#181818;stroke-width:1.1;"/><text fill="#000000" font-family="sans-serif" font-size="14.3" font-weight="bold" lengthAdjust="spacing" textLength="15.4" x="1366.75" y="768.7657">18</text><text fill="#000000" font-family="sans-serif" font-size="14.3" lengthAdjust="spacing" textLength="144.1" x="1386.55" y="768.7657">FileToString(finalPath);</text><polygon fill="#181818" points="567.05,818.8748,556.05,823.2748,567.05,827.6748,562.65,823.2748" style="stroke:#181818;stroke-width:1.1;"/><line style="stroke:#181818;stroke-width:1.1;stroke-dasharray:2.0,2.0;" x1="560.45" x2="1352.45" y1="823.2748" y2="823.2748"/><text fill="#000000" font-family="sans-serif" font-size="14.3" font-weight="bold" lengthAdjust="spacing" textLength="15.4" x="573.65" y="817.4858">19</text><text fill="#000000" font-family="sans-serif" font-size="14.3" lengthAdjust="spacing" textLength="29.7" x="593.45" y="817.4858">lines</text><polygon fill="#181818" points="1491.6,853.2949,1502.6,857.6949,1491.6,862.0949,1496,857.6949" style="stroke:#181818;stroke-width:1.1;"/><line style="stroke:#181818;stroke-width:1.1;" x1="554.95" x2="1498.2" y1="857.6949" y2="857.6949"/><text fill="#000000" font-family="sans-serif" font-size="14.3" font-weight="bold" lengthAdjust="spacing" textLength="15.4" x="562.65" y="851.906">20</text><text fill="#000000" font-family="sans-serif" font-size="14.3" lengthAdjust="spacing" textLength="132" x="582.45" y="851.906">Question(type, lines)</text><rect fill="#E2E2F0" height="56.3664" rx="2.75" ry="2.75" style="stroke:#181818;stroke-width:0.55;" width="78.1" x="1504.8" y="832.0748"/><text fill="#000000" font-family="sans-serif" font-size="15.4" font-style="italic" lengthAdjust="spacing" textLength="55" x="1516.35" y="856.393">&#171;entity&#187;</text><text fill="#000000" font-family="sans-serif" font-size="15.4" lengthAdjust="spacing" textLength="62.7" x="1512.5" y="876.8762">Question</text><polygon fill="#181818" points="1647.25,921.7613,1658.25,926.1613,1647.25,930.5613,1651.65,926.1613" style="stroke:#181818;stroke-width:1.1;"/><line style="stroke:#181818;stroke-width:1.1;" x1="554.95" x2="1653.85" y1="926.1613" y2="926.1613"/><text fill="#000000" font-family="sans-serif" font-size="14.3" font-weight="bold" lengthAdjust="spacing" textLength="15.4" x="562.65" y="920.3724">21</text><text fill="#000000" font-family="sans-serif" font-size="14.3" lengthAdjust="spacing" textLength="102.3" x="582.45" y="920.3724">saveQ(question)</text><line style="stroke:#181818;stroke-width:1.1;" x1="1671.45" x2="1717.65" y1="960.5814" y2="960.5814"/><line style="stroke:#181818;stroke-width:1.1;" x1="1717.65" x2="1717.65" y1="960.5814" y2="974.8814"/><line style="stroke:#181818;stroke-width:1.1;" x1="1672.55" x2="1717.65" y1="974.8814" y2="974.8814"/><polygon fill="#181818" points="1683.55,970.4814,1672.55,974.8814,1683.55,979.2814,1679.15,974.8814" style="stroke:#181818;stroke-width:1.1;"/><text fill="#000000" font-family="sans-serif" font-size="14.3" font-weight="bold" lengthAdjust="spacing" textLength="15.4" x="1679.15" y="954.7925">22</text><text fill="#000000" font-family="sans-serif" font-size="14.3" lengthAdjust="spacing" textLength="102.3" x="1698.95" y="954.7925">saveQ(question)</text><polygon fill="#181818" points="567.05,1004.9016,556.05,1009.3016,567.05,1013.7016,562.65,1009.3016" style="stroke:#181818;stroke-width:1.1;"/><line style="stroke:#181818;stroke-width:1.1;stroke-dasharray:2.0,2.0;" x1="560.45" x2="1664.85" y1="1009.3016" y2="1009.3016"/><text fill="#000000" font-family="sans-serif" font-size="14.3" font-weight="bold" lengthAdjust="spacing" textLength="15.4" x="573.65" y="1003.5126">23</text><text fill="#000000" font-family="sans-serif" font-size="14.3" lengthAdjust="spacing" textLength="4.4" x="593.45" y="1003.5126">&#160;</text><polygon fill="#181818" points="314.05,1039.3217,303.05,1043.7217,314.05,1048.1217,309.65,1043.7217" style="stroke:#181818;stroke-width:1.1;"/><line style="stroke:#181818;stroke-width:1.1;stroke-dasharray:2.0,2.0;" x1="307.45" x2="548.35" y1="1043.7217" y2="1043.7217"/><text fill="#000000" font-family="sans-serif" font-size="14.3" font-weight="bold" lengthAdjust="spacing" textLength="15.4" x="320.65" y="1037.9327">24</text><text fill="#000000" font-family="sans-serif" font-size="14.3" lengthAdjust="spacing" textLength="75.9" x="340.45" y="1037.9327">questionDto</text><polygon fill="#181818" points="55.55,1111.782,44.55,1116.182,55.55,1120.582,51.15,1116.182" style="stroke:#181818;stroke-width:1.1;"/><line style="stroke:#181818;stroke-width:1.1;stroke-dasharray:2.0,2.0;" x1="48.95" x2="289.85" y1="1116.182" y2="1116.182"/><text fill="#000000" font-family="sans-serif" font-size="14.3" font-weight="bold" lengthAdjust="spacing" textLength="15.4" x="62.15" y="1091.3729">25</text><text fill="#000000" font-family="sans-serif" font-size="14.3" lengthAdjust="spacing" textLength="182.6" x="81.95" y="1072.3528">shows the question data and</text><text fill="#000000" font-family="sans-serif" font-size="14.3" lengthAdjust="spacing" textLength="165" x="86.35" y="1091.3729">confirm the creation of the</text><text fill="#000000" font-family="sans-serif" font-size="14.3" lengthAdjust="spacing" textLength="167.2" x="86.35" y="1110.3931">question was successfully</text><!--SRC=[ZLJBRjim4BppAuXSQWTrVNS30q5g0m7IGduafrmsz2ecAf4AIVdnzzsbgfVj13vICxCx7ExgspQ4ma_6uo834yey-w5iFlRuKQ9HEDfeU7UG2m5biARCtz09SQ-2TNADeBRe97Zv6umG1RYWbIweZBoPF3Y4W8iIVT3MF3_UCE_vyKlMWpN1sIn35zbq51i8y0OUvH8BwpNrFSw1sn-PCRzVohixrq3JQQ_-2pgT7klgAtGxhP1r193ELnzEHBC3v4zug2usEpoTWGauNwF96Rf4sCnr5jlCblCUNZjXR56I0pH11tRTNBEcjDUDv6U-PqqYlX0KkHnDAL4vaQj0JRnK7AOsxnAamNrJIb1UUaSnnsTg3lGM91vDOmM_jVlriMXUmWyATBaVHWgruMuJSlBNos2bnmnLa66BygE-KY2rs62tVCzZfV4NH3t9nNuK4mNULnw2J2dchrf6cVz4TzProlD6gbrlQ0PiyNkK_84SXpz5g-Jv52mYBK_K5TfM_CABn2eIqvJTtif92_BODLXoYYM2y1XJx4gdf7EgXTSvwiJ7JNl7XFnMrQfmH1UE_kFbOzmzB7AxcQhUcb-RAQqFQNcPrdOL74ts8DK6iWJ2jYVYFHFCla8KQOsnJ1lqFU-nrdy3YvAZboU-esROacWtQRnXXuj1FMR3ZZd2XM3Ivzo8NiWuIjkCILgBVWLxEV5cTtYZJsQV_nyIp4Q-6gciIRNB8w7wRn31fl5CSAFPqz_7bqgXzscPPKSUYNy0]--></g></svg>