<?xml version="1.0" encoding="us-ascii" standalone="no"?><svg xmlns="http://www.w3.org/2000/svg" xmlns:xlink="http://www.w3.org/1999/xlink" contentStyleType="text/css" height="391px" preserveAspectRatio="none" style="width:331px;height:391px;background:#FFFFFF;" version="1.1" viewBox="0 0 331 391" width="331px" zoomAndPan="magnify"><defs/><g><rect fill="#FFFFFF" height="197.0371" style="stroke:#181818;stroke-width:1.0;" width="10" x="29.5" y="93.6211"/><rect fill="#FFFFFF" height="31.291" style="stroke:#181818;stroke-width:1.0;" width="10" x="288.5" y="116.9121"/><rect fill="#FFFFFF" height="31.291" style="stroke:#181818;stroke-width:1.0;" width="10" x="288.5" y="179.4941"/><rect fill="#FFFFFF" height="48.582" style="stroke:#181818;stroke-width:1.0;" width="10" x="288.5" y="242.0762"/><line style="stroke:#181818;stroke-width:0.5;stroke-dasharray:5.0,5.0;" x1="34" x2="34" y1="83.6211" y2="308.6582"/><line style="stroke:#181818;stroke-width:0.5;stroke-dasharray:5.0,5.0;" x1="293.5" x2="293.5" y1="83.6211" y2="308.6582"/><text fill="#000000" font-family="sans-serif" font-size="14" lengthAdjust="spacing" textLength="53" x="5" y="80.1074">Teacher</text><ellipse cx="34.5" cy="13.5" fill="#E2E2F0" rx="8" ry="8" style="stroke:#181818;stroke-width:0.5;"/><path d="M34.5,21.5 L34.5,48.5 M21.5,29.5 L47.5,29.5 M34.5,48.5 L21.5,63.5 M34.5,48.5 L47.5,63.5 " fill="none" style="stroke:#181818;stroke-width:0.5;"/><text fill="#000000" font-family="sans-serif" font-size="14" lengthAdjust="spacing" textLength="53" x="5" y="322.7656">Teacher</text><ellipse cx="34.5" cy="334.7793" fill="#E2E2F0" rx="8" ry="8" style="stroke:#181818;stroke-width:0.5;"/><path d="M34.5,342.7793 L34.5,369.7793 M21.5,350.7793 L47.5,350.7793 M34.5,369.7793 L21.5,384.7793 M34.5,369.7793 L47.5,384.7793 " fill="none" style="stroke:#181818;stroke-width:0.5;"/><rect fill="#E2E2F0" height="32.6211" rx="2.5" ry="2.5" style="stroke:#181818;stroke-width:0.5;" width="64" x="261.5" y="50"/><text fill="#000000" font-family="sans-serif" font-size="14" lengthAdjust="spacing" textLength="50" x="268.5" y="72.1074">:System</text><rect fill="#E2E2F0" height="32.6211" rx="2.5" ry="2.5" style="stroke:#181818;stroke-width:0.5;" width="64" x="261.5" y="307.6582"/><text fill="#000000" font-family="sans-serif" font-size="14" lengthAdjust="spacing" textLength="50" x="268.5" y="329.7656">:System</text><rect fill="#FFFFFF" height="197.0371" style="stroke:#181818;stroke-width:1.0;" width="10" x="29.5" y="93.6211"/><rect fill="#FFFFFF" height="31.291" style="stroke:#181818;stroke-width:1.0;" width="10" x="288.5" y="116.9121"/><rect fill="#FFFFFF" height="31.291" style="stroke:#181818;stroke-width:1.0;" width="10" x="288.5" y="179.4941"/><rect fill="#FFFFFF" height="48.582" style="stroke:#181818;stroke-width:1.0;" width="10" x="288.5" y="242.0762"/><polygon fill="#181818" points="276.5,112.9121,286.5,116.9121,276.5,120.9121,280.5,116.9121" style="stroke:#181818;stroke-width:1.0;"/><line style="stroke:#181818;stroke-width:1.0;" x1="39.5" x2="282.5" y1="116.9121" y2="116.9121"/><text fill="#000000" font-family="sans-serif" font-size="13" font-weight="bold" lengthAdjust="spacing" textLength="7" x="46.5" y="111.6494">1</text><text fill="#000000" font-family="sans-serif" font-size="13" lengthAdjust="spacing" textLength="174" x="57.5" y="111.6494">asks to create a new question</text><polygon fill="#181818" points="50.5,144.2031,40.5,148.2031,50.5,152.2031,46.5,148.2031" style="stroke:#181818;stroke-width:1.0;"/><line style="stroke:#181818;stroke-width:1.0;stroke-dasharray:2.0,2.0;" x1="44.5" x2="292.5" y1="148.2031" y2="148.2031"/><text fill="#000000" font-family="sans-serif" font-size="13" font-weight="bold" lengthAdjust="spacing" textLength="7" x="56.5" y="142.9404">2</text><text fill="#000000" font-family="sans-serif" font-size="13" lengthAdjust="spacing" textLength="186" x="67.5" y="142.9404">asks to select the question type</text><polygon fill="#181818" points="276.5,175.4941,286.5,179.4941,276.5,183.4941,280.5,179.4941" style="stroke:#181818;stroke-width:1.0;"/><line style="stroke:#181818;stroke-width:1.0;" x1="39.5" x2="282.5" y1="179.4941" y2="179.4941"/><text fill="#000000" font-family="sans-serif" font-size="13" font-weight="bold" lengthAdjust="spacing" textLength="7" x="46.5" y="174.2314">3</text><text fill="#000000" font-family="sans-serif" font-size="13" lengthAdjust="spacing" textLength="146" x="57.5" y="174.2314">selects the question type</text><polygon fill="#181818" points="50.5,206.7852,40.5,210.7852,50.5,214.7852,46.5,210.7852" style="stroke:#181818;stroke-width:1.0;"/><line style="stroke:#181818;stroke-width:1.0;stroke-dasharray:2.0,2.0;" x1="44.5" x2="292.5" y1="210.7852" y2="210.7852"/><text fill="#000000" font-family="sans-serif" font-size="13" font-weight="bold" lengthAdjust="spacing" textLength="7" x="56.5" y="205.5225">4</text><text fill="#000000" font-family="sans-serif" font-size="13" lengthAdjust="spacing" textLength="190" x="67.5" y="205.5225">asks to enter the question txt file</text><polygon fill="#181818" points="276.5,238.0762,286.5,242.0762,276.5,246.0762,280.5,242.0762" style="stroke:#181818;stroke-width:1.0;"/><line style="stroke:#181818;stroke-width:1.0;" x1="39.5" x2="282.5" y1="242.0762" y2="242.0762"/><text fill="#000000" font-family="sans-serif" font-size="13" font-weight="bold" lengthAdjust="spacing" textLength="7" x="46.5" y="236.8135">5</text><text fill="#000000" font-family="sans-serif" font-size="13" lengthAdjust="spacing" textLength="150" x="57.5" y="236.8135">enters the question txt file</text><polygon fill="#181818" points="45.5,286.6582,35.5,290.6582,45.5,294.6582,41.5,290.6582" style="stroke:#181818;stroke-width:1.0;"/><line style="stroke:#181818;stroke-width:1.0;stroke-dasharray:2.0,2.0;" x1="39.5" x2="292.5" y1="290.6582" y2="290.6582"/><text fill="#000000" font-family="sans-serif" font-size="13" font-weight="bold" lengthAdjust="spacing" textLength="7" x="51.5" y="276.75">6</text><text fill="#000000" font-family="sans-serif" font-size="13" lengthAdjust="spacing" textLength="178" x="62.5" y="268.1045">verifies the question txt file and</text><text fill="#000000" font-family="sans-serif" font-size="13" lengthAdjust="spacing" textLength="210" x="66.5" y="285.3955">confirms the creation of the question</text><!--SRC=[dT6nae9030RWdgV8s5Xnz1I-X5TUarj-P4Ssoss2dcz_A0Ww8uNNPNUIB_zCjerPfsLHT2sBzQ7zS34KYfyUuf1NdW-9GvPnRr7wy8qqrCvYea-mQwQdFx5X-PaAodUqAVSNDOHDIQn79Ola4gxTJ88p3NlKV9G7PXx9vehoWPhK1LAqS4RMO6R8BXso2Y-mbLGZeY-KVoI2sB3WcVergdtxNgYReolG6xbEIBxsM968fQ8l8HUbzYcCNRVhNBjY_JIral_Xztx-Fm00]--></g></svg>