<?xml version="1.0" encoding="us-ascii" standalone="no"?><svg xmlns="http://www.w3.org/2000/svg" xmlns:xlink="http://www.w3.org/1999/xlink" contentStyleType="text/css" height="124px" preserveAspectRatio="none" style="width:304px;height:124px;background:#FFFFFF;" version="1.1" viewBox="0 0 304 124" width="304px" zoomAndPan="magnify"><defs/><g><!--entity Teacher--><g id="elem_Teacher"><ellipse cx="32.5" cy="32.5" fill="#F1F1F1" rx="8" ry="8" style="stroke:#181818;stroke-width:0.5;"/><path d="M32.5,40.5 L32.5,67.5 M19.5,48.5 L45.5,48.5 M32.5,67.5 L19.5,82.5 M32.5,67.5 L45.5,82.5 " fill="none" style="stroke:#181818;stroke-width:0.5;"/><text fill="#000000" font-family="sans-serif" font-size="14" lengthAdjust="spacing" textLength="53" x="6" y="99.1074">Teacher</text></g><g id="elem_UC1"><ellipse cx="208.5532" cy="26.3106" fill="#F1F1F1" rx="89.5532" ry="20.3106" style="stroke:#181818;stroke-width:0.5;"/><text fill="#000000" font-family="sans-serif" font-size="14" lengthAdjust="spacing" textLength="133" x="139.0532" y="31.1144">Create/Add Question</text></g><g id="elem_UC2"><ellipse cx="208.6394" cy="100.7279" fill="#F1F1F1" rx="79.1394" ry="18.2279" style="stroke:#181818;stroke-width:0.5;"/><text fill="#000000" font-family="sans-serif" font-size="14" lengthAdjust="spacing" textLength="106" x="152.6394" y="105.5316">Update Question</text></g><!--link Teacher to UC1--><g id="link_Teacher_UC1"><path d="M59.17,58.04 C79.73,53.67 109.58,47.32 137.13,41.46 " fill="none" id="Teacher-to-UC1" style="stroke:#181818;stroke-width:1.0;"/><polygon fill="#181818" points="142.24,40.38,132.609,38.3199,137.3473,41.4101,134.2571,46.1483,142.24,40.38" style="stroke:#181818;stroke-width:1.0;"/></g><!--link Teacher to UC2--><g id="link_Teacher_UC2"><path d="M59.17,68.96 C81.69,73.75 115.37,80.91 144.94,87.2 " fill="none" id="Teacher-to-UC2" style="stroke:#181818;stroke-width:1.0;"/><polygon fill="#181818" points="150.03,88.28,142.0633,82.4894,145.1402,87.2363,140.3933,90.3131,150.03,88.28" style="stroke:#181818;stroke-width:1.0;"/></g><!--SRC=[oqbDAr4eoLSeoapFA558oInAJIx9pC_ZIamkoIzI24bDJCv8BU8gBKvDJYnELL1oBafDB4dLTqn9KGWiJIq6ALLII2nM27KsH2WABKW1Aa9NOCG5DKr1LzSEh06LRmG0]--></g></svg>