<?xml version="1.0" encoding="us-ascii" standalone="no"?><svg xmlns="http://www.w3.org/2000/svg" xmlns:xlink="http://www.w3.org/1999/xlink" contentStyleType="text/css" height="1182px" preserveAspectRatio="none" style="width:3156px;height:1182px;background:#FFFFFF;" version="1.1" viewBox="0 0 3156 1182" width="3156px" zoomAndPan="magnify"><defs/><g><!--class CreatePostItUI--><g id="elem_CreatePostItUI"><rect codeLine="4" fill="#F1F1F1" height="122.4844" id="CreatePostItUI" rx="2.5" ry="2.5" style="stroke:#181818;stroke-width:0.5;" width="236" x="1749" y="44.5"/><ellipse cx="1817.75" cy="60.5" fill="#ADD1B2" rx="11" ry="11" style="stroke:#181818;stroke-width:1.0;"/><path d="M1820.5156,56.375 Q1820.6719,56.1563 1820.8594,56.0469 Q1821.0469,55.9375 1821.2656,55.9375 Q1821.6406,55.9375 1821.875,56.2031 Q1822.1094,56.4531 1822.1094,57.0625 L1822.1094,58.5156 Q1822.1094,59.125 1821.875,59.3906 Q1821.6406,59.6563 1821.2656,59.6563 Q1820.9219,59.6563 1820.7188,59.4531 Q1820.5156,59.2656 1820.4063,58.75 Q1820.3594,58.3906 1820.1719,58.2031 Q1819.8438,57.8281 1819.2344,57.6094 Q1818.625,57.3906 1818,57.3906 Q1817.2344,57.3906 1816.5938,57.7188 Q1815.9688,58.0469 1815.4688,58.7969 Q1814.9844,59.5469 1814.9844,60.5781 L1814.9844,61.6719 Q1814.9844,62.9063 1815.875,63.7344 Q1816.7656,64.5469 1818.3594,64.5469 Q1819.2969,64.5469 1819.9531,64.2969 Q1820.3438,64.1406 1820.7656,63.7031 Q1821.0313,63.4375 1821.1719,63.3594 Q1821.3281,63.2813 1821.5313,63.2813 Q1821.8594,63.2813 1822.1094,63.5469 Q1822.375,63.7969 1822.375,64.1406 Q1822.375,64.4844 1822.0313,64.8906 Q1821.5313,65.4688 1820.7344,65.7969 Q1819.6563,66.25 1818.3594,66.25 Q1816.8438,66.25 1815.6406,65.625 Q1814.6563,65.125 1813.9688,64.0625 Q1813.2813,62.9844 1813.2813,61.7031 L1813.2813,60.5469 Q1813.2813,59.2188 1813.8906,58.0781 Q1814.5156,56.9219 1815.6094,56.3125 Q1816.7031,55.6875 1817.9375,55.6875 Q1818.6719,55.6875 1819.3125,55.8594 Q1819.9688,56.0156 1820.5156,56.375 Z " fill="#000000"/><text fill="#000000" font-family="sans-serif" font-size="14" lengthAdjust="spacing" textLength="90" x="1838.25" y="66.2969">CreatePostItUI</text><line style="stroke:#181818;stroke-width:0.5;" x1="1750" x2="1984" y1="76.5" y2="76.5"/><line style="stroke:#181818;stroke-width:0.5;" x1="1750" x2="1984" y1="84.5" y2="84.5"/><ellipse cx="1760" cy="99.3105" fill="#84BE84" rx="3" ry="3" style="stroke:#038048;stroke-width:1.0;"/><text fill="#000000" font-family="sans-serif" font-size="14" lengthAdjust="spacing" textLength="210" x="1769" y="103.6074">getUserBoards(): List&lt;BoardDto&gt;</text><ellipse cx="1760" cy="117.9316" fill="#84BE84" rx="3" ry="3" style="stroke:#038048;stroke-width:1.0;"/><text fill="#000000" font-family="sans-serif" font-size="14" lengthAdjust="spacing" textLength="116" x="1769" y="122.2285">getBoard(boardId)</text><ellipse cx="1760" cy="136.5527" fill="#84BE84" rx="3" ry="3" style="stroke:#038048;stroke-width:1.0;"/><text fill="#000000" font-family="sans-serif" font-size="14" lengthAdjust="spacing" textLength="154" x="1769" y="140.8496">createPostIt() : PostItDto</text><ellipse cx="1760" cy="155.1738" fill="#84BE84" rx="3" ry="3" style="stroke:#038048;stroke-width:1.0;"/><text fill="#000000" font-family="sans-serif" font-size="14" lengthAdjust="spacing" textLength="109" x="1769" y="159.4707">savePostIt(postIt)</text></g><!--class CreatePostItController--><g id="elem_CreatePostItController"><rect codeLine="11" fill="#F1F1F1" height="122.4844" id="CreatePostItController" rx="2.5" ry="2.5" style="stroke:#181818;stroke-width:0.5;" width="236" x="1521" y="279.5"/><ellipse cx="1564.8" cy="295.5" fill="#ADD1B2" rx="11" ry="11" style="stroke:#181818;stroke-width:1.0;"/><path d="M1567.5656,291.375 Q1567.7219,291.1563 1567.9094,291.0469 Q1568.0969,290.9375 1568.3156,290.9375 Q1568.6906,290.9375 1568.925,291.2031 Q1569.1594,291.4531 1569.1594,292.0625 L1569.1594,293.5156 Q1569.1594,294.125 1568.925,294.3906 Q1568.6906,294.6563 1568.3156,294.6563 Q1567.9719,294.6563 1567.7688,294.4531 Q1567.5656,294.2656 1567.4563,293.75 Q1567.4094,293.3906 1567.2219,293.2031 Q1566.8938,292.8281 1566.2844,292.6094 Q1565.675,292.3906 1565.05,292.3906 Q1564.2844,292.3906 1563.6438,292.7188 Q1563.0188,293.0469 1562.5188,293.7969 Q1562.0344,294.5469 1562.0344,295.5781 L1562.0344,296.6719 Q1562.0344,297.9063 1562.925,298.7344 Q1563.8156,299.5469 1565.4094,299.5469 Q1566.3469,299.5469 1567.0031,299.2969 Q1567.3938,299.1406 1567.8156,298.7031 Q1568.0813,298.4375 1568.2219,298.3594 Q1568.3781,298.2813 1568.5813,298.2813 Q1568.9094,298.2813 1569.1594,298.5469 Q1569.425,298.7969 1569.425,299.1406 Q1569.425,299.4844 1569.0813,299.8906 Q1568.5813,300.4688 1567.7844,300.7969 Q1566.7063,301.25 1565.4094,301.25 Q1563.8938,301.25 1562.6906,300.625 Q1561.7063,300.125 1561.0188,299.0625 Q1560.3313,297.9844 1560.3313,296.7031 L1560.3313,295.5469 Q1560.3313,294.2188 1560.9406,293.0781 Q1561.5656,291.9219 1562.6594,291.3125 Q1563.7531,290.6875 1564.9875,290.6875 Q1565.7219,290.6875 1566.3625,290.8594 Q1567.0188,291.0156 1567.5656,291.375 Z " fill="#000000"/><text fill="#000000" font-family="sans-serif" font-size="14" lengthAdjust="spacing" textLength="140" x="1585.2" y="301.2969">CreatePostItController</text><line style="stroke:#181818;stroke-width:0.5;" x1="1522" x2="1756" y1="311.5" y2="311.5"/><line style="stroke:#181818;stroke-width:0.5;" x1="1522" x2="1756" y1="319.5" y2="319.5"/><ellipse cx="1532" cy="334.3105" fill="#84BE84" rx="3" ry="3" style="stroke:#038048;stroke-width:1.0;"/><text fill="#000000" font-family="sans-serif" font-size="14" lengthAdjust="spacing" textLength="210" x="1541" y="338.6074">getUserBoards(): List&lt;BoardDto&gt;</text><ellipse cx="1532" cy="352.9316" fill="#84BE84" rx="3" ry="3" style="stroke:#038048;stroke-width:1.0;"/><text fill="#000000" font-family="sans-serif" font-size="14" lengthAdjust="spacing" textLength="162" x="1541" y="357.2285">getBoard(boardId): Board</text><ellipse cx="1532" cy="371.5527" fill="#84BE84" rx="3" ry="3" style="stroke:#038048;stroke-width:1.0;"/><text fill="#000000" font-family="sans-serif" font-size="14" lengthAdjust="spacing" textLength="127" x="1541" y="375.8496">createPostIt(): postIt</text><ellipse cx="1532" cy="390.1738" fill="#84BE84" rx="3" ry="3" style="stroke:#038048;stroke-width:1.0;"/><text fill="#000000" font-family="sans-serif" font-size="14" lengthAdjust="spacing" textLength="147" x="1541" y="394.4707">saveShareBoard(code)</text></g><!--class UserAccessBoardsService--><g id="elem_UserAccessBoardsService"><rect codeLine="18" fill="#F1F1F1" height="103.8633" id="UserAccessBoardsService" rx="2.5" ry="2.5" style="stroke:#181818;stroke-width:0.5;" width="794" x="2355" y="528"/><ellipse cx="2664.75" cy="544" fill="#ADD1B2" rx="11" ry="11" style="stroke:#181818;stroke-width:1.0;"/><path d="M2667.5156,539.875 Q2667.6719,539.6563 2667.8594,539.5469 Q2668.0469,539.4375 2668.2656,539.4375 Q2668.6406,539.4375 2668.875,539.7031 Q2669.1094,539.9531 2669.1094,540.5625 L2669.1094,542.0156 Q2669.1094,542.625 2668.875,542.8906 Q2668.6406,543.1563 2668.2656,543.1563 Q2667.9219,543.1563 2667.7188,542.9531 Q2667.5156,542.7656 2667.4063,542.25 Q2667.3594,541.8906 2667.1719,541.7031 Q2666.8438,541.3281 2666.2344,541.1094 Q2665.625,540.8906 2665,540.8906 Q2664.2344,540.8906 2663.5938,541.2188 Q2662.9688,541.5469 2662.4688,542.2969 Q2661.9844,543.0469 2661.9844,544.0781 L2661.9844,545.1719 Q2661.9844,546.4063 2662.875,547.2344 Q2663.7656,548.0469 2665.3594,548.0469 Q2666.2969,548.0469 2666.9531,547.7969 Q2667.3438,547.6406 2667.7656,547.2031 Q2668.0313,546.9375 2668.1719,546.8594 Q2668.3281,546.7813 2668.5313,546.7813 Q2668.8594,546.7813 2669.1094,547.0469 Q2669.375,547.2969 2669.375,547.6406 Q2669.375,547.9844 2669.0313,548.3906 Q2668.5313,548.9688 2667.7344,549.2969 Q2666.6563,549.75 2665.3594,549.75 Q2663.8438,549.75 2662.6406,549.125 Q2661.6563,548.625 2660.9688,547.5625 Q2660.2813,546.4844 2660.2813,545.2031 L2660.2813,544.0469 Q2660.2813,542.7188 2660.8906,541.5781 Q2661.5156,540.4219 2662.6094,539.8125 Q2663.7031,539.1875 2664.9375,539.1875 Q2665.6719,539.1875 2666.3125,539.3594 Q2666.9688,539.5156 2667.5156,539.875 Z " fill="#000000"/><text fill="#000000" font-family="sans-serif" font-size="14" lengthAdjust="spacing" textLength="166" x="2685.25" y="549.7969">UserAccessBoardsService</text><line style="stroke:#181818;stroke-width:0.5;" x1="2356" x2="3148" y1="560" y2="560"/><text fill="#000000" font-family="sans-serif" font-size="14" lengthAdjust="spacing" textLength="8" x="2361" y="579.1074">+</text><line style="stroke:#181818;stroke-width:0.5;" x1="2356" x2="3148" y1="586.6211" y2="586.6211"/><ellipse cx="2366" cy="601.4316" fill="#84BE84" rx="3" ry="3" style="stroke:#038048;stroke-width:1.0;"/><text fill="#000000" font-family="sans-serif" font-size="14" lengthAdjust="spacing" textLength="735" x="2375" y="605.7285">findBoardsOfUser(EmailAddress email, BoardRepository repo, eCourseUserRepository userRepository): List&lt;Board&gt;</text><ellipse cx="2366" cy="620.0527" fill="#84BE84" rx="3" ry="3" style="stroke:#038048;stroke-width:1.0;"/><text fill="#000000" font-family="sans-serif" font-size="14" lengthAdjust="spacing" textLength="768" x="2375" y="624.3496">findBoardsOfUserWrite(EmailAddress email, BoardRepository repo, eCourseUserRepository userRepository): List&lt;Board&gt;</text></g><!--class RepositoryFactory--><g id="elem_RepositoryFactory"><rect codeLine="24" fill="#F1F1F1" height="48" id="RepositoryFactory" rx="2.5" ry="2.5" style="stroke:#181818;stroke-width:0.5;" width="148" x="2101" y="556"/><ellipse cx="2116" cy="572" fill="#ADD1B2" rx="11" ry="11" style="stroke:#181818;stroke-width:1.0;"/><path d="M2118.7656,567.875 Q2118.9219,567.6563 2119.1094,567.5469 Q2119.2969,567.4375 2119.5156,567.4375 Q2119.8906,567.4375 2120.125,567.7031 Q2120.3594,567.9531 2120.3594,568.5625 L2120.3594,570.0156 Q2120.3594,570.625 2120.125,570.8906 Q2119.8906,571.1563 2119.5156,571.1563 Q2119.1719,571.1563 2118.9688,570.9531 Q2118.7656,570.7656 2118.6563,570.25 Q2118.6094,569.8906 2118.4219,569.7031 Q2118.0938,569.3281 2117.4844,569.1094 Q2116.875,568.8906 2116.25,568.8906 Q2115.4844,568.8906 2114.8438,569.2188 Q2114.2188,569.5469 2113.7188,570.2969 Q2113.2344,571.0469 2113.2344,572.0781 L2113.2344,573.1719 Q2113.2344,574.4063 2114.125,575.2344 Q2115.0156,576.0469 2116.6094,576.0469 Q2117.5469,576.0469 2118.2031,575.7969 Q2118.5938,575.6406 2119.0156,575.2031 Q2119.2813,574.9375 2119.4219,574.8594 Q2119.5781,574.7813 2119.7813,574.7813 Q2120.1094,574.7813 2120.3594,575.0469 Q2120.625,575.2969 2120.625,575.6406 Q2120.625,575.9844 2120.2813,576.3906 Q2119.7813,576.9688 2118.9844,577.2969 Q2117.9063,577.75 2116.6094,577.75 Q2115.0938,577.75 2113.8906,577.125 Q2112.9063,576.625 2112.2188,575.5625 Q2111.5313,574.4844 2111.5313,573.2031 L2111.5313,572.0469 Q2111.5313,570.7188 2112.1406,569.5781 Q2112.7656,568.4219 2113.8594,567.8125 Q2114.9531,567.1875 2116.1875,567.1875 Q2116.9219,567.1875 2117.5625,567.3594 Q2118.2188,567.5156 2118.7656,567.875 Z " fill="#000000"/><text fill="#000000" font-family="sans-serif" font-size="14" lengthAdjust="spacing" textLength="116" x="2130" y="577.7969">RepositoryFactory</text><line style="stroke:#181818;stroke-width:0.5;" x1="2102" x2="2248" y1="588" y2="588"/><line style="stroke:#181818;stroke-width:0.5;" x1="2102" x2="2248" y1="596" y2="596"/></g><!--class BoardRepsitory--><g id="elem_BoardRepsitory"><rect codeLine="28" fill="#F1F1F1" height="103.8633" id="BoardRepsitory" rx="2.5" ry="2.5" style="stroke:#181818;stroke-width:0.5;" width="300" x="380" y="528"/><ellipse cx="476.75" cy="544" fill="#ADD1B2" rx="11" ry="11" style="stroke:#181818;stroke-width:1.0;"/><path d="M479.5156,539.875 Q479.6719,539.6563 479.8594,539.5469 Q480.0469,539.4375 480.2656,539.4375 Q480.6406,539.4375 480.875,539.7031 Q481.1094,539.9531 481.1094,540.5625 L481.1094,542.0156 Q481.1094,542.625 480.875,542.8906 Q480.6406,543.1563 480.2656,543.1563 Q479.9219,543.1563 479.7188,542.9531 Q479.5156,542.7656 479.4063,542.25 Q479.3594,541.8906 479.1719,541.7031 Q478.8438,541.3281 478.2344,541.1094 Q477.625,540.8906 477,540.8906 Q476.2344,540.8906 475.5938,541.2188 Q474.9688,541.5469 474.4688,542.2969 Q473.9844,543.0469 473.9844,544.0781 L473.9844,545.1719 Q473.9844,546.4063 474.875,547.2344 Q475.7656,548.0469 477.3594,548.0469 Q478.2969,548.0469 478.9531,547.7969 Q479.3438,547.6406 479.7656,547.2031 Q480.0313,546.9375 480.1719,546.8594 Q480.3281,546.7813 480.5313,546.7813 Q480.8594,546.7813 481.1094,547.0469 Q481.375,547.2969 481.375,547.6406 Q481.375,547.9844 481.0313,548.3906 Q480.5313,548.9688 479.7344,549.2969 Q478.6563,549.75 477.3594,549.75 Q475.8438,549.75 474.6406,549.125 Q473.6563,548.625 472.9688,547.5625 Q472.2813,546.4844 472.2813,545.2031 L472.2813,544.0469 Q472.2813,542.7188 472.8906,541.5781 Q473.5156,540.4219 474.6094,539.8125 Q475.7031,539.1875 476.9375,539.1875 Q477.6719,539.1875 478.3125,539.3594 Q478.9688,539.5156 479.5156,539.875 Z " fill="#000000"/><text fill="#000000" font-family="sans-serif" font-size="14" lengthAdjust="spacing" textLength="98" x="497.25" y="549.7969">BoardRepsitory</text><line style="stroke:#181818;stroke-width:0.5;" x1="381" x2="679" y1="560" y2="560"/><line style="stroke:#181818;stroke-width:0.5;" x1="381" x2="679" y1="568" y2="568"/><ellipse cx="391" cy="582.8105" fill="#84BE84" rx="3" ry="3" style="stroke:#038048;stroke-width:1.0;"/><text fill="#000000" font-family="sans-serif" font-size="14" lengthAdjust="spacing" textLength="256" x="400" y="587.1074">findBoeardsHiOwn(): List&lt;SharedBoard&gt;</text><ellipse cx="391" cy="601.4316" fill="#84BE84" rx="3" ry="3" style="stroke:#038048;stroke-width:1.0;"/><text fill="#000000" font-family="sans-serif" font-size="14" lengthAdjust="spacing" textLength="274" x="400" y="605.7285">findBoeardsHiShared(): List&lt;SharedBoard&gt;</text><ellipse cx="391" cy="620.0527" fill="#84BE84" rx="3" ry="3" style="stroke:#038048;stroke-width:1.0;"/><text fill="#000000" font-family="sans-serif" font-size="14" lengthAdjust="spacing" textLength="88" x="400" y="624.3496">save(boardId)</text></g><!--class PostItRepository--><g id="elem_PostItRepository"><rect codeLine="34" fill="#F1F1F1" height="66.6211" id="PostItRepository" rx="2.5" ry="2.5" style="stroke:#181818;stroke-width:0.5;" width="135" x="715.5" y="546.5"/><ellipse cx="730.5" cy="562.5" fill="#ADD1B2" rx="11" ry="11" style="stroke:#181818;stroke-width:1.0;"/><path d="M733.2656,558.375 Q733.4219,558.1563 733.6094,558.0469 Q733.7969,557.9375 734.0156,557.9375 Q734.3906,557.9375 734.625,558.2031 Q734.8594,558.4531 734.8594,559.0625 L734.8594,560.5156 Q734.8594,561.125 734.625,561.3906 Q734.3906,561.6563 734.0156,561.6563 Q733.6719,561.6563 733.4688,561.4531 Q733.2656,561.2656 733.1563,560.75 Q733.1094,560.3906 732.9219,560.2031 Q732.5938,559.8281 731.9844,559.6094 Q731.375,559.3906 730.75,559.3906 Q729.9844,559.3906 729.3438,559.7188 Q728.7188,560.0469 728.2188,560.7969 Q727.7344,561.5469 727.7344,562.5781 L727.7344,563.6719 Q727.7344,564.9063 728.625,565.7344 Q729.5156,566.5469 731.1094,566.5469 Q732.0469,566.5469 732.7031,566.2969 Q733.0938,566.1406 733.5156,565.7031 Q733.7813,565.4375 733.9219,565.3594 Q734.0781,565.2813 734.2813,565.2813 Q734.6094,565.2813 734.8594,565.5469 Q735.125,565.7969 735.125,566.1406 Q735.125,566.4844 734.7813,566.8906 Q734.2813,567.4688 733.4844,567.7969 Q732.4063,568.25 731.1094,568.25 Q729.5938,568.25 728.3906,567.625 Q727.4063,567.125 726.7188,566.0625 Q726.0313,564.9844 726.0313,563.7031 L726.0313,562.5469 Q726.0313,561.2188 726.6406,560.0781 Q727.2656,558.9219 728.3594,558.3125 Q729.4531,557.6875 730.6875,557.6875 Q731.4219,557.6875 732.0625,557.8594 Q732.7188,558.0156 733.2656,558.375 Z " fill="#000000"/><text fill="#000000" font-family="sans-serif" font-size="14" lengthAdjust="spacing" textLength="103" x="744.5" y="568.2969">PostItRepository</text><line style="stroke:#181818;stroke-width:0.5;" x1="716.5" x2="849.5" y1="578.5" y2="578.5"/><line style="stroke:#181818;stroke-width:0.5;" x1="716.5" x2="849.5" y1="586.5" y2="586.5"/><ellipse cx="726.5" cy="601.3105" fill="#84BE84" rx="3" ry="3" style="stroke:#038048;stroke-width:1.0;"/><text fill="#000000" font-family="sans-serif" font-size="14" lengthAdjust="spacing" textLength="74" x="735.5" y="605.6074">save(postIt)</text></g><!--class Board--><g id="elem_Board"><rect codeLine="39" fill="#F1F1F1" height="151.0273" id="Board" rx="2.5" ry="2.5" style="stroke:#181818;stroke-width:0.5;" width="271" x="52.5" y="265"/><ellipse cx="164.25" cy="295.2715" fill="#ADD1B2" rx="11" ry="11" style="stroke:#181818;stroke-width:1.0;"/><path d="M167.0156,291.1465 Q167.1719,290.9277 167.3594,290.8184 Q167.5469,290.709 167.7656,290.709 Q168.1406,290.709 168.375,290.9746 Q168.6094,291.2246 168.6094,291.834 L168.6094,293.2871 Q168.6094,293.8965 168.375,294.1621 Q168.1406,294.4277 167.7656,294.4277 Q167.4219,294.4277 167.2188,294.2246 Q167.0156,294.0371 166.9063,293.5215 Q166.8594,293.1621 166.6719,292.9746 Q166.3438,292.5996 165.7344,292.3809 Q165.125,292.1621 164.5,292.1621 Q163.7344,292.1621 163.0938,292.4902 Q162.4688,292.8184 161.9688,293.5684 Q161.4844,294.3184 161.4844,295.3496 L161.4844,296.4434 Q161.4844,297.6777 162.375,298.5059 Q163.2656,299.3184 164.8594,299.3184 Q165.7969,299.3184 166.4531,299.0684 Q166.8438,298.9121 167.2656,298.4746 Q167.5313,298.209 167.6719,298.1309 Q167.8281,298.0527 168.0313,298.0527 Q168.3594,298.0527 168.6094,298.3184 Q168.875,298.5684 168.875,298.9121 Q168.875,299.2559 168.5313,299.6621 Q168.0313,300.2402 167.2344,300.5684 Q166.1563,301.0215 164.8594,301.0215 Q163.3438,301.0215 162.1406,300.3965 Q161.1563,299.8965 160.4688,298.834 Q159.7813,297.7559 159.7813,296.4746 L159.7813,295.3184 Q159.7813,293.9902 160.3906,292.8496 Q161.0156,291.6934 162.1094,291.084 Q163.2031,290.459 164.4375,290.459 Q165.1719,290.459 165.8125,290.6309 Q166.4688,290.7871 167.0156,291.1465 Z " fill="#000000"/><text fill="#000000" font-family="sans-serif" font-size="12" font-style="italic" lengthAdjust="spacing" textLength="35" x="186.75" y="282.9492">&#171;root&#187;</text><text fill="#000000" font-family="sans-serif" font-size="12" font-style="italic" lengthAdjust="spacing" textLength="43" x="182.75" y="298.9102">&#171;entity&#187;</text><text fill="#000000" font-family="sans-serif" font-size="14" lengthAdjust="spacing" textLength="38" x="185.25" y="317.0293">Board</text><line style="stroke:#181818;stroke-width:0.5;" x1="53.5" x2="322.5" y1="325.543" y2="325.543"/><ellipse cx="63.5" cy="340.3535" fill="#000000" rx="3" ry="3" style="stroke:#000000;stroke-width:1.0;"/><text fill="#000000" font-family="sans-serif" font-size="14" lengthAdjust="spacing" textLength="245" x="72.5" y="344.6504">id &#171;unique&#187; &#171;automatically generated&#187;</text><ellipse cx="63.5" cy="358.9746" fill="#000000" rx="3" ry="3" style="stroke:#000000;stroke-width:1.0;"/><text fill="#000000" font-family="sans-serif" font-size="14" lengthAdjust="spacing" textLength="73" x="72.5" y="363.2715">boradName</text><ellipse cx="63.5" cy="377.5957" fill="#000000" rx="3" ry="3" style="stroke:#000000;stroke-width:1.0;"/><text fill="#000000" font-family="sans-serif" font-size="14" lengthAdjust="spacing" textLength="59" x="72.5" y="381.8926">maxRows</text><ellipse cx="63.5" cy="396.2168" fill="#000000" rx="3" ry="3" style="stroke:#000000;stroke-width:1.0;"/><text fill="#000000" font-family="sans-serif" font-size="14" lengthAdjust="spacing" textLength="80" x="72.5" y="400.5137">maxColumns</text><line style="stroke:#181818;stroke-width:0.5;" x1="53.5" x2="322.5" y1="408.0273" y2="408.0273"/></g><!--class Cell--><g id="elem_Cell"><rect codeLine="46" fill="#F1F1F1" height="97.8242" id="Cell" rx="2.5" ry="2.5" style="stroke:#181818;stroke-width:0.5;" width="73" x="81.5" y="744"/><ellipse cx="97.4" cy="766.291" fill="#ADD1B2" rx="11" ry="11" style="stroke:#181818;stroke-width:1.0;"/><path d="M100.1656,762.166 Q100.3219,761.9473 100.5094,761.8379 Q100.6969,761.7285 100.9156,761.7285 Q101.2906,761.7285 101.525,761.9941 Q101.7594,762.2441 101.7594,762.8535 L101.7594,764.3066 Q101.7594,764.916 101.525,765.1816 Q101.2906,765.4473 100.9156,765.4473 Q100.5719,765.4473 100.3688,765.2441 Q100.1656,765.0566 100.0563,764.541 Q100.0094,764.1816 99.8219,763.9941 Q99.4938,763.6191 98.8844,763.4004 Q98.275,763.1816 97.65,763.1816 Q96.8844,763.1816 96.2438,763.5098 Q95.6188,763.8379 95.1188,764.5879 Q94.6344,765.3379 94.6344,766.3691 L94.6344,767.4629 Q94.6344,768.6973 95.525,769.5254 Q96.4156,770.3379 98.0094,770.3379 Q98.9469,770.3379 99.6031,770.0879 Q99.9938,769.9316 100.4156,769.4941 Q100.6813,769.2285 100.8219,769.1504 Q100.9781,769.0723 101.1813,769.0723 Q101.5094,769.0723 101.7594,769.3379 Q102.025,769.5879 102.025,769.9316 Q102.025,770.2754 101.6813,770.6816 Q101.1813,771.2598 100.3844,771.5879 Q99.3063,772.041 98.0094,772.041 Q96.4938,772.041 95.2906,771.416 Q94.3063,770.916 93.6188,769.8535 Q92.9313,768.7754 92.9313,767.4941 L92.9313,766.3379 Q92.9313,765.0098 93.5406,763.8691 Q94.1656,762.7129 95.2594,762.1035 Q96.3531,761.4785 97.5875,761.4785 Q98.3219,761.4785 98.9625,761.6504 Q99.6188,761.8066 100.1656,762.166 Z " fill="#000000"/><text fill="#000000" font-family="sans-serif" font-size="12" font-style="italic" lengthAdjust="spacing" textLength="43" x="109.6" y="761.9492">&#171;entity&#187;</text><text fill="#000000" font-family="sans-serif" font-size="14" lengthAdjust="spacing" textLength="24" x="119.1" y="780.0684">Cell</text><line style="stroke:#181818;stroke-width:0.5;" x1="82.5" x2="153.5" y1="788.582" y2="788.582"/><ellipse cx="92.5" cy="803.3926" fill="#000000" rx="3" ry="3" style="stroke:#000000;stroke-width:1.0;"/><text fill="#000000" font-family="sans-serif" font-size="14" lengthAdjust="spacing" textLength="11" x="101.5" y="807.6895">id</text><ellipse cx="92.5" cy="822.0137" fill="#000000" rx="3" ry="3" style="stroke:#000000;stroke-width:1.0;"/><text fill="#000000" font-family="sans-serif" font-size="14" lengthAdjust="spacing" textLength="47" x="101.5" y="826.3105">content</text><line style="stroke:#181818;stroke-width:0.5;" x1="82.5" x2="153.5" y1="833.8242" y2="833.8242"/></g><!--class ColumnCell--><g id="elem_ColumnCell"><rect codeLine="51" fill="#F1F1F1" height="116.4453" id="ColumnCell" rx="2.5" ry="2.5" style="stroke:#181818;stroke-width:0.5;" width="104" x="7" y="522"/><ellipse cx="22" cy="544.291" fill="#ADD1B2" rx="11" ry="11" style="stroke:#181818;stroke-width:1.0;"/><path d="M24.7656,540.166 Q24.9219,539.9473 25.1094,539.8379 Q25.2969,539.7285 25.5156,539.7285 Q25.8906,539.7285 26.125,539.9941 Q26.3594,540.2441 26.3594,540.8535 L26.3594,542.3066 Q26.3594,542.916 26.125,543.1816 Q25.8906,543.4473 25.5156,543.4473 Q25.1719,543.4473 24.9688,543.2441 Q24.7656,543.0566 24.6563,542.541 Q24.6094,542.1816 24.4219,541.9941 Q24.0938,541.6191 23.4844,541.4004 Q22.875,541.1816 22.25,541.1816 Q21.4844,541.1816 20.8438,541.5098 Q20.2188,541.8379 19.7188,542.5879 Q19.2344,543.3379 19.2344,544.3691 L19.2344,545.4629 Q19.2344,546.6973 20.125,547.5254 Q21.0156,548.3379 22.6094,548.3379 Q23.5469,548.3379 24.2031,548.0879 Q24.5938,547.9316 25.0156,547.4941 Q25.2813,547.2285 25.4219,547.1504 Q25.5781,547.0723 25.7813,547.0723 Q26.1094,547.0723 26.3594,547.3379 Q26.625,547.5879 26.625,547.9316 Q26.625,548.2754 26.2813,548.6816 Q25.7813,549.2598 24.9844,549.5879 Q23.9063,550.041 22.6094,550.041 Q21.0938,550.041 19.8906,549.416 Q18.9063,548.916 18.2188,547.8535 Q17.5313,546.7754 17.5313,545.4941 L17.5313,544.3379 Q17.5313,543.0098 18.1406,541.8691 Q18.7656,540.7129 19.8594,540.1035 Q20.9531,539.4785 22.1875,539.4785 Q22.9219,539.4785 23.5625,539.6504 Q24.2188,539.8066 24.7656,540.166 Z " fill="#000000"/><text fill="#000000" font-family="sans-serif" font-size="12" font-style="italic" lengthAdjust="spacing" textLength="43" x="50.5" y="539.9492">&#171;entity&#187;</text><text fill="#000000" font-family="sans-serif" font-size="14" lengthAdjust="spacing" textLength="72" x="36" y="558.0684">ColumnCell</text><line style="stroke:#181818;stroke-width:0.5;" x1="8" x2="110" y1="566.582" y2="566.582"/><ellipse cx="18" cy="581.3926" fill="#000000" rx="3" ry="3" style="stroke:#000000;stroke-width:1.0;"/><text fill="#000000" font-family="sans-serif" font-size="14" lengthAdjust="spacing" textLength="11" x="27" y="585.6895">id</text><ellipse cx="18" cy="600.0137" fill="#000000" rx="3" ry="3" style="stroke:#000000;stroke-width:1.0;"/><text fill="#000000" font-family="sans-serif" font-size="14" lengthAdjust="spacing" textLength="76" x="27" y="604.3105">columnTittle</text><ellipse cx="18" cy="618.6348" fill="#000000" rx="3" ry="3" style="stroke:#000000;stroke-width:1.0;"/><text fill="#000000" font-family="sans-serif" font-size="14" lengthAdjust="spacing" textLength="45" x="27" y="622.9316">column</text><line style="stroke:#181818;stroke-width:0.5;" x1="8" x2="110" y1="630.4453" y2="630.4453"/></g><!--class RowCell--><g id="elem_RowCell"><rect codeLine="57" fill="#F1F1F1" height="116.4453" id="RowCell" rx="2.5" ry="2.5" style="stroke:#181818;stroke-width:0.5;" width="83" x="146.5" y="522"/><ellipse cx="161.5" cy="544.291" fill="#ADD1B2" rx="11" ry="11" style="stroke:#181818;stroke-width:1.0;"/><path d="M164.2656,540.166 Q164.4219,539.9473 164.6094,539.8379 Q164.7969,539.7285 165.0156,539.7285 Q165.3906,539.7285 165.625,539.9941 Q165.8594,540.2441 165.8594,540.8535 L165.8594,542.3066 Q165.8594,542.916 165.625,543.1816 Q165.3906,543.4473 165.0156,543.4473 Q164.6719,543.4473 164.4688,543.2441 Q164.2656,543.0566 164.1563,542.541 Q164.1094,542.1816 163.9219,541.9941 Q163.5938,541.6191 162.9844,541.4004 Q162.375,541.1816 161.75,541.1816 Q160.9844,541.1816 160.3438,541.5098 Q159.7188,541.8379 159.2188,542.5879 Q158.7344,543.3379 158.7344,544.3691 L158.7344,545.4629 Q158.7344,546.6973 159.625,547.5254 Q160.5156,548.3379 162.1094,548.3379 Q163.0469,548.3379 163.7031,548.0879 Q164.0938,547.9316 164.5156,547.4941 Q164.7813,547.2285 164.9219,547.1504 Q165.0781,547.0723 165.2813,547.0723 Q165.6094,547.0723 165.8594,547.3379 Q166.125,547.5879 166.125,547.9316 Q166.125,548.2754 165.7813,548.6816 Q165.2813,549.2598 164.4844,549.5879 Q163.4063,550.041 162.1094,550.041 Q160.5938,550.041 159.3906,549.416 Q158.4063,548.916 157.7188,547.8535 Q157.0313,546.7754 157.0313,545.4941 L157.0313,544.3379 Q157.0313,543.0098 157.6406,541.8691 Q158.2656,540.7129 159.3594,540.1035 Q160.4531,539.4785 161.6875,539.4785 Q162.4219,539.4785 163.0625,539.6504 Q163.7188,539.8066 164.2656,540.166 Z " fill="#000000"/><text fill="#000000" font-family="sans-serif" font-size="12" font-style="italic" lengthAdjust="spacing" textLength="43" x="179.5" y="539.9492">&#171;entity&#187;</text><text fill="#000000" font-family="sans-serif" font-size="14" lengthAdjust="spacing" textLength="51" x="175.5" y="558.0684">RowCell</text><line style="stroke:#181818;stroke-width:0.5;" x1="147.5" x2="228.5" y1="566.582" y2="566.582"/><ellipse cx="157.5" cy="581.3926" fill="#000000" rx="3" ry="3" style="stroke:#000000;stroke-width:1.0;"/><text fill="#000000" font-family="sans-serif" font-size="14" lengthAdjust="spacing" textLength="11" x="166.5" y="585.6895">id</text><ellipse cx="157.5" cy="600.0137" fill="#000000" rx="3" ry="3" style="stroke:#000000;stroke-width:1.0;"/><text fill="#000000" font-family="sans-serif" font-size="14" lengthAdjust="spacing" textLength="53" x="166.5" y="604.3105">rowTittle</text><ellipse cx="157.5" cy="618.6348" fill="#000000" rx="3" ry="3" style="stroke:#000000;stroke-width:1.0;"/><text fill="#000000" font-family="sans-serif" font-size="14" lengthAdjust="spacing" textLength="22" x="166.5" y="622.9316">row</text><line style="stroke:#181818;stroke-width:0.5;" x1="147.5" x2="228.5" y1="630.4453" y2="630.4453"/></g><!--class PostIt--><g id="elem_PostIt"><rect codeLine="63" fill="#F1F1F1" height="169.6484" id="PostIt" rx="2.5" ry="2.5" style="stroke:#181818;stroke-width:0.5;" width="80" x="265" y="495"/><ellipse cx="284.05" cy="525.2715" fill="#ADD1B2" rx="11" ry="11" style="stroke:#181818;stroke-width:1.0;"/><path d="M286.8156,521.1465 Q286.9719,520.9277 287.1594,520.8184 Q287.3469,520.709 287.5656,520.709 Q287.9406,520.709 288.175,520.9746 Q288.4094,521.2246 288.4094,521.834 L288.4094,523.2871 Q288.4094,523.8965 288.175,524.1621 Q287.9406,524.4277 287.5656,524.4277 Q287.2219,524.4277 287.0188,524.2246 Q286.8156,524.0371 286.7063,523.5215 Q286.6594,523.1621 286.4719,522.9746 Q286.1438,522.5996 285.5344,522.3809 Q284.925,522.1621 284.3,522.1621 Q283.5344,522.1621 282.8938,522.4902 Q282.2688,522.8184 281.7688,523.5684 Q281.2844,524.3184 281.2844,525.3496 L281.2844,526.4434 Q281.2844,527.6777 282.175,528.5059 Q283.0656,529.3184 284.6594,529.3184 Q285.5969,529.3184 286.2531,529.0684 Q286.6438,528.9121 287.0656,528.4746 Q287.3313,528.209 287.4719,528.1309 Q287.6281,528.0527 287.8313,528.0527 Q288.1594,528.0527 288.4094,528.3184 Q288.675,528.5684 288.675,528.9121 Q288.675,529.2559 288.3313,529.6621 Q287.8313,530.2402 287.0344,530.5684 Q285.9563,531.0215 284.6594,531.0215 Q283.1438,531.0215 281.9406,530.3965 Q280.9563,529.8965 280.2688,528.834 Q279.5813,527.7559 279.5813,526.4746 L279.5813,525.3184 Q279.5813,523.9902 280.1906,522.8496 Q280.8156,521.6934 281.9094,521.084 Q283.0031,520.459 284.2375,520.459 Q284.9719,520.459 285.6125,520.6309 Q286.2688,520.7871 286.8156,521.1465 Z " fill="#000000"/><text fill="#000000" font-family="sans-serif" font-size="12" font-style="italic" lengthAdjust="spacing" textLength="35" x="300.95" y="512.9492">&#171;root&#187;</text><text fill="#000000" font-family="sans-serif" font-size="12" font-style="italic" lengthAdjust="spacing" textLength="43" x="296.95" y="528.9102">&#171;entity&#187;</text><text fill="#000000" font-family="sans-serif" font-size="14" lengthAdjust="spacing" textLength="35" x="300.95" y="547.0293">PostIt</text><line style="stroke:#181818;stroke-width:0.5;" x1="266" x2="344" y1="555.543" y2="555.543"/><ellipse cx="276" cy="570.3535" fill="#000000" rx="3" ry="3" style="stroke:#000000;stroke-width:1.0;"/><text fill="#000000" font-family="sans-serif" font-size="14" lengthAdjust="spacing" textLength="11" x="285" y="574.6504">id</text><ellipse cx="276" cy="588.9746" fill="#000000" rx="3" ry="3" style="stroke:#000000;stroke-width:1.0;"/><text fill="#000000" font-family="sans-serif" font-size="14" lengthAdjust="spacing" textLength="22" x="285" y="593.2715">row</text><ellipse cx="276" cy="607.5957" fill="#000000" rx="3" ry="3" style="stroke:#000000;stroke-width:1.0;"/><text fill="#000000" font-family="sans-serif" font-size="14" lengthAdjust="spacing" textLength="45" x="285" y="611.8926">column</text><ellipse cx="276" cy="626.2168" fill="#000000" rx="3" ry="3" style="stroke:#000000;stroke-width:1.0;"/><text fill="#000000" font-family="sans-serif" font-size="14" lengthAdjust="spacing" textLength="47" x="285" y="630.5137">content</text><ellipse cx="276" cy="644.8379" fill="#000000" rx="3" ry="3" style="stroke:#000000;stroke-width:1.0;"/><text fill="#000000" font-family="sans-serif" font-size="14" lengthAdjust="spacing" textLength="54" x="285" y="649.1348">ownUser</text><line style="stroke:#181818;stroke-width:0.5;" x1="266" x2="344" y1="656.6484" y2="656.6484"/></g><!--class Content--><g id="elem_Content"><rect codeLine="71" fill="#F1F1F1" height="79.2031" id="Content" rx="2.5" ry="2.5" style="stroke:#181818;stroke-width:0.5;" width="109" x="269.5" y="938.5"/><ellipse cx="284.5" cy="960.791" fill="#ADD1B2" rx="11" ry="11" style="stroke:#181818;stroke-width:1.0;"/><path d="M287.2656,956.666 Q287.4219,956.4473 287.6094,956.3379 Q287.7969,956.2285 288.0156,956.2285 Q288.3906,956.2285 288.625,956.4941 Q288.8594,956.7441 288.8594,957.3535 L288.8594,958.8066 Q288.8594,959.416 288.625,959.6816 Q288.3906,959.9473 288.0156,959.9473 Q287.6719,959.9473 287.4688,959.7441 Q287.2656,959.5566 287.1563,959.041 Q287.1094,958.6816 286.9219,958.4941 Q286.5938,958.1191 285.9844,957.9004 Q285.375,957.6816 284.75,957.6816 Q283.9844,957.6816 283.3438,958.0098 Q282.7188,958.3379 282.2188,959.0879 Q281.7344,959.8379 281.7344,960.8691 L281.7344,961.9629 Q281.7344,963.1973 282.625,964.0254 Q283.5156,964.8379 285.1094,964.8379 Q286.0469,964.8379 286.7031,964.5879 Q287.0938,964.4316 287.5156,963.9941 Q287.7813,963.7285 287.9219,963.6504 Q288.0781,963.5723 288.2813,963.5723 Q288.6094,963.5723 288.8594,963.8379 Q289.125,964.0879 289.125,964.4316 Q289.125,964.7754 288.7813,965.1816 Q288.2813,965.7598 287.4844,966.0879 Q286.4063,966.541 285.1094,966.541 Q283.5938,966.541 282.3906,965.916 Q281.4063,965.416 280.7188,964.3535 Q280.0313,963.2754 280.0313,961.9941 L280.0313,960.8379 Q280.0313,959.5098 280.6406,958.3691 Q281.2656,957.2129 282.3594,956.6035 Q283.4531,955.9785 284.6875,955.9785 Q285.4219,955.9785 286.0625,956.1504 Q286.7188,956.3066 287.2656,956.666 Z " fill="#000000"/><text fill="#000000" font-family="sans-serif" font-size="12" font-style="italic" lengthAdjust="spacing" textLength="81" x="296.5" y="956.4492">&#171;value object&#187;</text><text fill="#000000" font-family="sans-serif" font-size="14" lengthAdjust="spacing" textLength="50" x="312" y="974.5684">Content</text><line style="stroke:#181818;stroke-width:0.5;" x1="270.5" x2="377.5" y1="983.082" y2="983.082"/><ellipse cx="280.5" cy="997.8926" fill="#000000" rx="3" ry="3" style="stroke:#000000;stroke-width:1.0;"/><text fill="#000000" font-family="sans-serif" font-size="14" lengthAdjust="spacing" textLength="47" x="289.5" y="1002.1895">content</text><line style="stroke:#181818;stroke-width:0.5;" x1="270.5" x2="377.5" y1="1009.7031" y2="1009.7031"/></g><!--class BoardPostIt--><g id="elem_BoardPostIt"><rect codeLine="75" fill="#F1F1F1" height="66.6211" id="BoardPostIt" rx="2.5" ry="2.5" style="stroke:#181818;stroke-width:0.5;" width="105" x="885.5" y="546.5"/><ellipse cx="900.5" cy="562.5" fill="#ADD1B2" rx="11" ry="11" style="stroke:#181818;stroke-width:1.0;"/><path d="M903.2656,558.375 Q903.4219,558.1563 903.6094,558.0469 Q903.7969,557.9375 904.0156,557.9375 Q904.3906,557.9375 904.625,558.2031 Q904.8594,558.4531 904.8594,559.0625 L904.8594,560.5156 Q904.8594,561.125 904.625,561.3906 Q904.3906,561.6563 904.0156,561.6563 Q903.6719,561.6563 903.4688,561.4531 Q903.2656,561.2656 903.1563,560.75 Q903.1094,560.3906 902.9219,560.2031 Q902.5938,559.8281 901.9844,559.6094 Q901.375,559.3906 900.75,559.3906 Q899.9844,559.3906 899.3438,559.7188 Q898.7188,560.0469 898.2188,560.7969 Q897.7344,561.5469 897.7344,562.5781 L897.7344,563.6719 Q897.7344,564.9063 898.625,565.7344 Q899.5156,566.5469 901.1094,566.5469 Q902.0469,566.5469 902.7031,566.2969 Q903.0938,566.1406 903.5156,565.7031 Q903.7813,565.4375 903.9219,565.3594 Q904.0781,565.2813 904.2813,565.2813 Q904.6094,565.2813 904.8594,565.5469 Q905.125,565.7969 905.125,566.1406 Q905.125,566.4844 904.7813,566.8906 Q904.2813,567.4688 903.4844,567.7969 Q902.4063,568.25 901.1094,568.25 Q899.5938,568.25 898.3906,567.625 Q897.4063,567.125 896.7188,566.0625 Q896.0313,564.9844 896.0313,563.7031 L896.0313,562.5469 Q896.0313,561.2188 896.6406,560.0781 Q897.2656,558.9219 898.3594,558.3125 Q899.4531,557.6875 900.6875,557.6875 Q901.4219,557.6875 902.0625,557.8594 Q902.7188,558.0156 903.2656,558.375 Z " fill="#000000"/><text fill="#000000" font-family="sans-serif" font-size="14" lengthAdjust="spacing" textLength="73" x="914.5" y="568.2969">BoardPostIt</text><line style="stroke:#181818;stroke-width:0.5;" x1="886.5" x2="989.5" y1="578.5" y2="578.5"/><line style="stroke:#181818;stroke-width:0.5;" x1="886.5" x2="989.5" y1="586.5" y2="586.5"/><ellipse cx="896.5" cy="601.3105" fill="#84BE84" rx="3" ry="3" style="stroke:#038048;stroke-width:1.0;"/><text fill="#000000" font-family="sans-serif" font-size="14" lengthAdjust="spacing" textLength="31" x="905.5" y="605.6074">run()</text></g><!--class SystemUser--><g id="elem_SystemUser"><rect codeLine="81" fill="#F1F1F1" height="113.7852" id="SystemUser" rx="2.5" ry="2.5" style="stroke:#181818;stroke-width:0.5;" width="107" x="505.5" y="921"/><ellipse cx="520.5" cy="951.2715" fill="#ADD1B2" rx="11" ry="11" style="stroke:#181818;stroke-width:1.0;"/><path d="M523.2656,947.1465 Q523.4219,946.9277 523.6094,946.8184 Q523.7969,946.709 524.0156,946.709 Q524.3906,946.709 524.625,946.9746 Q524.8594,947.2246 524.8594,947.834 L524.8594,949.2871 Q524.8594,949.8965 524.625,950.1621 Q524.3906,950.4277 524.0156,950.4277 Q523.6719,950.4277 523.4688,950.2246 Q523.2656,950.0371 523.1563,949.5215 Q523.1094,949.1621 522.9219,948.9746 Q522.5938,948.5996 521.9844,948.3809 Q521.375,948.1621 520.75,948.1621 Q519.9844,948.1621 519.3438,948.4902 Q518.7188,948.8184 518.2188,949.5684 Q517.7344,950.3184 517.7344,951.3496 L517.7344,952.4434 Q517.7344,953.6777 518.625,954.5059 Q519.5156,955.3184 521.1094,955.3184 Q522.0469,955.3184 522.7031,955.0684 Q523.0938,954.9121 523.5156,954.4746 Q523.7813,954.209 523.9219,954.1309 Q524.0781,954.0527 524.2813,954.0527 Q524.6094,954.0527 524.8594,954.3184 Q525.125,954.5684 525.125,954.9121 Q525.125,955.2559 524.7813,955.6621 Q524.2813,956.2402 523.4844,956.5684 Q522.4063,957.0215 521.1094,957.0215 Q519.5938,957.0215 518.3906,956.3965 Q517.4063,955.8965 516.7188,954.834 Q516.0313,953.7559 516.0313,952.4746 L516.0313,951.3184 Q516.0313,949.9902 516.6406,948.8496 Q517.2656,947.6934 518.3594,947.084 Q519.4531,946.459 520.6875,946.459 Q521.4219,946.459 522.0625,946.6309 Q522.7188,946.7871 523.2656,947.1465 Z " fill="#000000"/><text fill="#000000" font-family="sans-serif" font-size="12" font-style="italic" lengthAdjust="spacing" textLength="35" x="554.5" y="938.9492">&#171;root&#187;</text><text fill="#000000" font-family="sans-serif" font-size="12" font-style="italic" lengthAdjust="spacing" textLength="44" x="550" y="954.9102">&#171;Entity&#187;</text><text fill="#000000" font-family="sans-serif" font-size="14" lengthAdjust="spacing" textLength="75" x="534.5" y="973.0293">SystemUser</text><line style="stroke:#181818;stroke-width:0.5;" x1="506.5" x2="611.5" y1="981.543" y2="981.543"/><ellipse cx="516.5" cy="996.3535" fill="#000000" rx="3" ry="3" style="stroke:#000000;stroke-width:1.0;"/><text fill="#000000" font-family="sans-serif" font-size="14" lengthAdjust="spacing" textLength="36" x="525.5" y="1000.6504">Name</text><ellipse cx="516.5" cy="1014.9746" fill="#000000" rx="3" ry="3" style="stroke:#000000;stroke-width:1.0;"/><text fill="#000000" font-family="sans-serif" font-size="14" lengthAdjust="spacing" textLength="64" x="525.5" y="1019.2715">Username</text><line style="stroke:#181818;stroke-width:0.5;" x1="506.5" x2="611.5" y1="1026.7852" y2="1026.7852"/></g><!--class eCourseSystemUser--><g id="elem_eCourseSystemUser"><rect codeLine="86" fill="#F1F1F1" height="76.543" id="eCourseSystemUser" rx="2.5" ry="2.5" style="stroke:#181818;stroke-width:0.5;" width="161" x="587.5" y="754.5"/><ellipse cx="602.5" cy="784.7715" fill="#ADD1B2" rx="11" ry="11" style="stroke:#181818;stroke-width:1.0;"/><path d="M605.2656,780.6465 Q605.4219,780.4277 605.6094,780.3184 Q605.7969,780.209 606.0156,780.209 Q606.3906,780.209 606.625,780.4746 Q606.8594,780.7246 606.8594,781.334 L606.8594,782.7871 Q606.8594,783.3965 606.625,783.6621 Q606.3906,783.9277 606.0156,783.9277 Q605.6719,783.9277 605.4688,783.7246 Q605.2656,783.5371 605.1563,783.0215 Q605.1094,782.6621 604.9219,782.4746 Q604.5938,782.0996 603.9844,781.8809 Q603.375,781.6621 602.75,781.6621 Q601.9844,781.6621 601.3438,781.9902 Q600.7188,782.3184 600.2188,783.0684 Q599.7344,783.8184 599.7344,784.8496 L599.7344,785.9434 Q599.7344,787.1777 600.625,788.0059 Q601.5156,788.8184 603.1094,788.8184 Q604.0469,788.8184 604.7031,788.5684 Q605.0938,788.4121 605.5156,787.9746 Q605.7813,787.709 605.9219,787.6309 Q606.0781,787.5527 606.2813,787.5527 Q606.6094,787.5527 606.8594,787.8184 Q607.125,788.0684 607.125,788.4121 Q607.125,788.7559 606.7813,789.1621 Q606.2813,789.7402 605.4844,790.0684 Q604.4063,790.5215 603.1094,790.5215 Q601.5938,790.5215 600.3906,789.8965 Q599.4063,789.3965 598.7188,788.334 Q598.0313,787.2559 598.0313,785.9746 L598.0313,784.8184 Q598.0313,783.4902 598.6406,782.3496 Q599.2656,781.1934 600.3594,780.584 Q601.4531,779.959 602.6875,779.959 Q603.4219,779.959 604.0625,780.1309 Q604.7188,780.2871 605.2656,780.6465 Z " fill="#000000"/><text fill="#000000" font-family="sans-serif" font-size="12" font-style="italic" lengthAdjust="spacing" textLength="35" x="663.5" y="772.4492">&#171;root&#187;</text><text fill="#000000" font-family="sans-serif" font-size="12" font-style="italic" lengthAdjust="spacing" textLength="44" x="659" y="788.4102">&#171;Entity&#187;</text><text fill="#000000" font-family="sans-serif" font-size="14" lengthAdjust="spacing" textLength="129" x="616.5" y="806.5293">eCourseSystemUser</text><line style="stroke:#181818;stroke-width:0.5;" x1="588.5" x2="747.5" y1="815.043" y2="815.043"/><line style="stroke:#181818;stroke-width:0.5;" x1="588.5" x2="747.5" y1="823.043" y2="823.043"/></g><!--class EmailAdderss--><g id="elem_EmailAdderss"><rect codeLine="90" fill="#F1F1F1" height="60.582" id="EmailAdderss" rx="2.5" ry="2.5" style="stroke:#181818;stroke-width:0.5;" width="118" x="519" y="1105"/><ellipse cx="534" cy="1127.291" fill="#ADD1B2" rx="11" ry="11" style="stroke:#181818;stroke-width:1.0;"/><path d="M536.7656,1123.166 Q536.9219,1122.9473 537.1094,1122.8379 Q537.2969,1122.7285 537.5156,1122.7285 Q537.8906,1122.7285 538.125,1122.9941 Q538.3594,1123.2441 538.3594,1123.8535 L538.3594,1125.3066 Q538.3594,1125.916 538.125,1126.1816 Q537.8906,1126.4473 537.5156,1126.4473 Q537.1719,1126.4473 536.9688,1126.2441 Q536.7656,1126.0566 536.6563,1125.541 Q536.6094,1125.1816 536.4219,1124.9941 Q536.0938,1124.6191 535.4844,1124.4004 Q534.875,1124.1816 534.25,1124.1816 Q533.4844,1124.1816 532.8438,1124.5098 Q532.2188,1124.8379 531.7188,1125.5879 Q531.2344,1126.3379 531.2344,1127.3691 L531.2344,1128.4629 Q531.2344,1129.6973 532.125,1130.5254 Q533.0156,1131.3379 534.6094,1131.3379 Q535.5469,1131.3379 536.2031,1131.0879 Q536.5938,1130.9316 537.0156,1130.4941 Q537.2813,1130.2285 537.4219,1130.1504 Q537.5781,1130.0723 537.7813,1130.0723 Q538.1094,1130.0723 538.3594,1130.3379 Q538.625,1130.5879 538.625,1130.9316 Q538.625,1131.2754 538.2813,1131.6816 Q537.7813,1132.2598 536.9844,1132.5879 Q535.9063,1133.041 534.6094,1133.041 Q533.0938,1133.041 531.8906,1132.416 Q530.9063,1131.916 530.2188,1130.8535 Q529.5313,1129.7754 529.5313,1128.4941 L529.5313,1127.3379 Q529.5313,1126.0098 530.1406,1124.8691 Q530.7656,1123.7129 531.8594,1123.1035 Q532.9531,1122.4785 534.1875,1122.4785 Q534.9219,1122.4785 535.5625,1122.6504 Q536.2188,1122.8066 536.7656,1123.166 Z " fill="#000000"/><text fill="#000000" font-family="sans-serif" font-size="12" font-style="italic" lengthAdjust="spacing" textLength="83" x="549.5" y="1122.9492">&#171;Value object&#187;</text><text fill="#000000" font-family="sans-serif" font-size="14" lengthAdjust="spacing" textLength="86" x="548" y="1141.0684">EmailAdderss</text><line style="stroke:#181818;stroke-width:0.5;" x1="520" x2="636" y1="1149.582" y2="1149.582"/><line style="stroke:#181818;stroke-width:0.5;" x1="520" x2="636" y1="1157.582" y2="1157.582"/></g><!--class Role--><g id="elem_Role"><rect codeLine="92" fill="#F1F1F1" height="79.2031" id="Role" rx="2.5" ry="2.5" style="stroke:#181818;stroke-width:0.5;" width="102" x="382" y="1096"/><ellipse cx="410.5" cy="1118.291" fill="#ADD1B2" rx="11" ry="11" style="stroke:#181818;stroke-width:1.0;"/><path d="M413.2656,1114.166 Q413.4219,1113.9473 413.6094,1113.8379 Q413.7969,1113.7285 414.0156,1113.7285 Q414.3906,1113.7285 414.625,1113.9941 Q414.8594,1114.2441 414.8594,1114.8535 L414.8594,1116.3066 Q414.8594,1116.916 414.625,1117.1816 Q414.3906,1117.4473 414.0156,1117.4473 Q413.6719,1117.4473 413.4688,1117.2441 Q413.2656,1117.0566 413.1563,1116.541 Q413.1094,1116.1816 412.9219,1115.9941 Q412.5938,1115.6191 411.9844,1115.4004 Q411.375,1115.1816 410.75,1115.1816 Q409.9844,1115.1816 409.3438,1115.5098 Q408.7188,1115.8379 408.2188,1116.5879 Q407.7344,1117.3379 407.7344,1118.3691 L407.7344,1119.4629 Q407.7344,1120.6973 408.625,1121.5254 Q409.5156,1122.3379 411.1094,1122.3379 Q412.0469,1122.3379 412.7031,1122.0879 Q413.0938,1121.9316 413.5156,1121.4941 Q413.7813,1121.2285 413.9219,1121.1504 Q414.0781,1121.0723 414.2813,1121.0723 Q414.6094,1121.0723 414.8594,1121.3379 Q415.125,1121.5879 415.125,1121.9316 Q415.125,1122.2754 414.7813,1122.6816 Q414.2813,1123.2598 413.4844,1123.5879 Q412.4063,1124.041 411.1094,1124.041 Q409.5938,1124.041 408.3906,1123.416 Q407.4063,1122.916 406.7188,1121.8535 Q406.0313,1120.7754 406.0313,1119.4941 L406.0313,1118.3379 Q406.0313,1117.0098 406.6406,1115.8691 Q407.2656,1114.7129 408.3594,1114.1035 Q409.4531,1113.4785 410.6875,1113.4785 Q411.4219,1113.4785 412.0625,1113.6504 Q412.7188,1113.8066 413.2656,1114.166 Z " fill="#000000"/><text fill="#000000" font-family="sans-serif" font-size="12" font-style="italic" lengthAdjust="spacing" textLength="44" x="425.5" y="1113.9492">&#171;Entity&#187;</text><text fill="#000000" font-family="sans-serif" font-size="14" lengthAdjust="spacing" textLength="29" x="433" y="1132.0684">Role</text><line style="stroke:#181818;stroke-width:0.5;" x1="383" x2="483" y1="1140.582" y2="1140.582"/><ellipse cx="393" cy="1155.3926" fill="#000000" rx="3" ry="3" style="stroke:#000000;stroke-width:1.0;"/><text fill="#000000" font-family="sans-serif" font-size="14" lengthAdjust="spacing" textLength="76" x="402" y="1159.6895">String name</text><line style="stroke:#181818;stroke-width:0.5;" x1="383" x2="483" y1="1167.2031" y2="1167.2031"/></g><!--class UserStatus--><g id="elem_UserStatus"><rect codeLine="96" fill="#F1F1F1" height="97.8242" id="UserStatus" rx="2.5" ry="2.5" style="stroke:#181818;stroke-width:0.5;" width="101" x="647.5" y="929"/><ellipse cx="662.5" cy="951.291" fill="#ADD1B2" rx="11" ry="11" style="stroke:#181818;stroke-width:1.0;"/><path d="M665.2656,947.166 Q665.4219,946.9473 665.6094,946.8379 Q665.7969,946.7285 666.0156,946.7285 Q666.3906,946.7285 666.625,946.9941 Q666.8594,947.2441 666.8594,947.8535 L666.8594,949.3066 Q666.8594,949.916 666.625,950.1816 Q666.3906,950.4473 666.0156,950.4473 Q665.6719,950.4473 665.4688,950.2441 Q665.2656,950.0566 665.1563,949.541 Q665.1094,949.1816 664.9219,948.9941 Q664.5938,948.6191 663.9844,948.4004 Q663.375,948.1816 662.75,948.1816 Q661.9844,948.1816 661.3438,948.5098 Q660.7188,948.8379 660.2188,949.5879 Q659.7344,950.3379 659.7344,951.3691 L659.7344,952.4629 Q659.7344,953.6973 660.625,954.5254 Q661.5156,955.3379 663.1094,955.3379 Q664.0469,955.3379 664.7031,955.0879 Q665.0938,954.9316 665.5156,954.4941 Q665.7813,954.2285 665.9219,954.1504 Q666.0781,954.0723 666.2813,954.0723 Q666.6094,954.0723 666.8594,954.3379 Q667.125,954.5879 667.125,954.9316 Q667.125,955.2754 666.7813,955.6816 Q666.2813,956.2598 665.4844,956.5879 Q664.4063,957.041 663.1094,957.041 Q661.5938,957.041 660.3906,956.416 Q659.4063,955.916 658.7188,954.8535 Q658.0313,953.7754 658.0313,952.4941 L658.0313,951.3379 Q658.0313,950.0098 658.6406,948.8691 Q659.2656,947.7129 660.3594,947.1035 Q661.4531,946.4785 662.6875,946.4785 Q663.4219,946.4785 664.0625,946.6504 Q664.7188,946.8066 665.2656,947.166 Z " fill="#000000"/><text fill="#000000" font-family="sans-serif" font-size="12" font-style="italic" lengthAdjust="spacing" textLength="46" x="688" y="946.9492">&#171;enum&#187;</text><text fill="#000000" font-family="sans-serif" font-size="14" lengthAdjust="spacing" textLength="69" x="676.5" y="965.0684">UserStatus</text><line style="stroke:#181818;stroke-width:0.5;" x1="648.5" x2="747.5" y1="973.582" y2="973.582"/><ellipse cx="658.5" cy="988.3926" fill="none" rx="3" ry="3" style="stroke:#038048;stroke-width:1.0;"/><text fill="#000000" font-family="sans-serif" font-size="14" lengthAdjust="spacing" textLength="53" x="667.5" y="992.6895">ENABLE</text><ellipse cx="658.5" cy="1007.0137" fill="none" rx="3" ry="3" style="stroke:#038048;stroke-width:1.0;"/><text fill="#000000" font-family="sans-serif" font-size="14" lengthAdjust="spacing" textLength="57" x="667.5" y="1011.3105">DISABLE</text><line style="stroke:#181818;stroke-width:0.5;" x1="648.5" x2="747.5" y1="1018.8242" y2="1018.8242"/></g><!--class Password--><g id="elem_Password"><rect codeLine="101" fill="#F1F1F1" height="60.582" id="Password" rx="2.5" ry="2.5" style="stroke:#181818;stroke-width:0.5;" width="109" x="672.5" y="1105"/><ellipse cx="687.5" cy="1127.291" fill="#ADD1B2" rx="11" ry="11" style="stroke:#181818;stroke-width:1.0;"/><path d="M690.2656,1123.166 Q690.4219,1122.9473 690.6094,1122.8379 Q690.7969,1122.7285 691.0156,1122.7285 Q691.3906,1122.7285 691.625,1122.9941 Q691.8594,1123.2441 691.8594,1123.8535 L691.8594,1125.3066 Q691.8594,1125.916 691.625,1126.1816 Q691.3906,1126.4473 691.0156,1126.4473 Q690.6719,1126.4473 690.4688,1126.2441 Q690.2656,1126.0566 690.1563,1125.541 Q690.1094,1125.1816 689.9219,1124.9941 Q689.5938,1124.6191 688.9844,1124.4004 Q688.375,1124.1816 687.75,1124.1816 Q686.9844,1124.1816 686.3438,1124.5098 Q685.7188,1124.8379 685.2188,1125.5879 Q684.7344,1126.3379 684.7344,1127.3691 L684.7344,1128.4629 Q684.7344,1129.6973 685.625,1130.5254 Q686.5156,1131.3379 688.1094,1131.3379 Q689.0469,1131.3379 689.7031,1131.0879 Q690.0938,1130.9316 690.5156,1130.4941 Q690.7813,1130.2285 690.9219,1130.1504 Q691.0781,1130.0723 691.2813,1130.0723 Q691.6094,1130.0723 691.8594,1130.3379 Q692.125,1130.5879 692.125,1130.9316 Q692.125,1131.2754 691.7813,1131.6816 Q691.2813,1132.2598 690.4844,1132.5879 Q689.4063,1133.041 688.1094,1133.041 Q686.5938,1133.041 685.3906,1132.416 Q684.4063,1131.916 683.7188,1130.8535 Q683.0313,1129.7754 683.0313,1128.4941 L683.0313,1127.3379 Q683.0313,1126.0098 683.6406,1124.8691 Q684.2656,1123.7129 685.3594,1123.1035 Q686.4531,1122.4785 687.6875,1122.4785 Q688.4219,1122.4785 689.0625,1122.6504 Q689.7188,1122.8066 690.2656,1123.166 Z " fill="#000000"/><text fill="#000000" font-family="sans-serif" font-size="12" font-style="italic" lengthAdjust="spacing" textLength="81" x="699.5" y="1122.9492">&#171;value object&#187;</text><text fill="#000000" font-family="sans-serif" font-size="14" lengthAdjust="spacing" textLength="61" x="709.5" y="1141.0684">Password</text><line style="stroke:#181818;stroke-width:0.5;" x1="673.5" x2="780.5" y1="1149.582" y2="1149.582"/><line style="stroke:#181818;stroke-width:0.5;" x1="673.5" x2="780.5" y1="1157.582" y2="1157.582"/></g><!--class Acronym--><g id="elem_Acronym"><rect codeLine="103" fill="#F1F1F1" height="60.582" id="Acronym" rx="2.5" ry="2.5" style="stroke:#181818;stroke-width:0.5;" width="109" x="783.5" y="947.5"/><ellipse cx="798.5" cy="969.791" fill="#ADD1B2" rx="11" ry="11" style="stroke:#181818;stroke-width:1.0;"/><path d="M801.2656,965.666 Q801.4219,965.4473 801.6094,965.3379 Q801.7969,965.2285 802.0156,965.2285 Q802.3906,965.2285 802.625,965.4941 Q802.8594,965.7441 802.8594,966.3535 L802.8594,967.8066 Q802.8594,968.416 802.625,968.6816 Q802.3906,968.9473 802.0156,968.9473 Q801.6719,968.9473 801.4688,968.7441 Q801.2656,968.5566 801.1563,968.041 Q801.1094,967.6816 800.9219,967.4941 Q800.5938,967.1191 799.9844,966.9004 Q799.375,966.6816 798.75,966.6816 Q797.9844,966.6816 797.3438,967.0098 Q796.7188,967.3379 796.2188,968.0879 Q795.7344,968.8379 795.7344,969.8691 L795.7344,970.9629 Q795.7344,972.1973 796.625,973.0254 Q797.5156,973.8379 799.1094,973.8379 Q800.0469,973.8379 800.7031,973.5879 Q801.0938,973.4316 801.5156,972.9941 Q801.7813,972.7285 801.9219,972.6504 Q802.0781,972.5723 802.2813,972.5723 Q802.6094,972.5723 802.8594,972.8379 Q803.125,973.0879 803.125,973.4316 Q803.125,973.7754 802.7813,974.1816 Q802.2813,974.7598 801.4844,975.0879 Q800.4063,975.541 799.1094,975.541 Q797.5938,975.541 796.3906,974.916 Q795.4063,974.416 794.7188,973.3535 Q794.0313,972.2754 794.0313,970.9941 L794.0313,969.8379 Q794.0313,968.5098 794.6406,967.3691 Q795.2656,966.2129 796.3594,965.6035 Q797.4531,964.9785 798.6875,964.9785 Q799.4219,964.9785 800.0625,965.1504 Q800.7188,965.3066 801.2656,965.666 Z " fill="#000000"/><text fill="#000000" font-family="sans-serif" font-size="12" font-style="italic" lengthAdjust="spacing" textLength="81" x="810.5" y="965.4492">&#171;value object&#187;</text><text fill="#000000" font-family="sans-serif" font-size="14" lengthAdjust="spacing" textLength="55" x="823.5" y="983.5684">Acronym</text><line style="stroke:#181818;stroke-width:0.5;" x1="784.5" x2="891.5" y1="992.082" y2="992.082"/><line style="stroke:#181818;stroke-width:0.5;" x1="784.5" x2="891.5" y1="1000.082" y2="1000.082"/></g><!--class NIF--><g id="elem_NIF"><rect codeLine="105" fill="#F1F1F1" height="60.582" id="NIF" rx="2.5" ry="2.5" style="stroke:#181818;stroke-width:0.5;" width="109" x="927.5" y="947.5"/><ellipse cx="942.5" cy="969.791" fill="#ADD1B2" rx="11" ry="11" style="stroke:#181818;stroke-width:1.0;"/><path d="M945.2656,965.666 Q945.4219,965.4473 945.6094,965.3379 Q945.7969,965.2285 946.0156,965.2285 Q946.3906,965.2285 946.625,965.4941 Q946.8594,965.7441 946.8594,966.3535 L946.8594,967.8066 Q946.8594,968.416 946.625,968.6816 Q946.3906,968.9473 946.0156,968.9473 Q945.6719,968.9473 945.4688,968.7441 Q945.2656,968.5566 945.1563,968.041 Q945.1094,967.6816 944.9219,967.4941 Q944.5938,967.1191 943.9844,966.9004 Q943.375,966.6816 942.75,966.6816 Q941.9844,966.6816 941.3438,967.0098 Q940.7188,967.3379 940.2188,968.0879 Q939.7344,968.8379 939.7344,969.8691 L939.7344,970.9629 Q939.7344,972.1973 940.625,973.0254 Q941.5156,973.8379 943.1094,973.8379 Q944.0469,973.8379 944.7031,973.5879 Q945.0938,973.4316 945.5156,972.9941 Q945.7813,972.7285 945.9219,972.6504 Q946.0781,972.5723 946.2813,972.5723 Q946.6094,972.5723 946.8594,972.8379 Q947.125,973.0879 947.125,973.4316 Q947.125,973.7754 946.7813,974.1816 Q946.2813,974.7598 945.4844,975.0879 Q944.4063,975.541 943.1094,975.541 Q941.5938,975.541 940.3906,974.916 Q939.4063,974.416 938.7188,973.3535 Q938.0313,972.2754 938.0313,970.9941 L938.0313,969.8379 Q938.0313,968.5098 938.6406,967.3691 Q939.2656,966.2129 940.3594,965.6035 Q941.4531,964.9785 942.6875,964.9785 Q943.4219,964.9785 944.0625,965.1504 Q944.7188,965.3066 945.2656,965.666 Z " fill="#000000"/><text fill="#000000" font-family="sans-serif" font-size="12" font-style="italic" lengthAdjust="spacing" textLength="81" x="954.5" y="965.4492">&#171;value object&#187;</text><text fill="#000000" font-family="sans-serif" font-size="14" lengthAdjust="spacing" textLength="21" x="984.5" y="983.5684">NIF</text><line style="stroke:#181818;stroke-width:0.5;" x1="928.5" x2="1035.5" y1="992.082" y2="992.082"/><line style="stroke:#181818;stroke-width:0.5;" x1="928.5" x2="1035.5" y1="1000.082" y2="1000.082"/></g><!--class BirthDate--><g id="elem_BirthDate"><rect codeLine="107" fill="#F1F1F1" height="60.582" id="BirthDate" rx="2.5" ry="2.5" style="stroke:#181818;stroke-width:0.5;" width="109" x="1071.5" y="947.5"/><ellipse cx="1086.5" cy="969.791" fill="#ADD1B2" rx="11" ry="11" style="stroke:#181818;stroke-width:1.0;"/><path d="M1089.2656,965.666 Q1089.4219,965.4473 1089.6094,965.3379 Q1089.7969,965.2285 1090.0156,965.2285 Q1090.3906,965.2285 1090.625,965.4941 Q1090.8594,965.7441 1090.8594,966.3535 L1090.8594,967.8066 Q1090.8594,968.416 1090.625,968.6816 Q1090.3906,968.9473 1090.0156,968.9473 Q1089.6719,968.9473 1089.4688,968.7441 Q1089.2656,968.5566 1089.1563,968.041 Q1089.1094,967.6816 1088.9219,967.4941 Q1088.5938,967.1191 1087.9844,966.9004 Q1087.375,966.6816 1086.75,966.6816 Q1085.9844,966.6816 1085.3438,967.0098 Q1084.7188,967.3379 1084.2188,968.0879 Q1083.7344,968.8379 1083.7344,969.8691 L1083.7344,970.9629 Q1083.7344,972.1973 1084.625,973.0254 Q1085.5156,973.8379 1087.1094,973.8379 Q1088.0469,973.8379 1088.7031,973.5879 Q1089.0938,973.4316 1089.5156,972.9941 Q1089.7813,972.7285 1089.9219,972.6504 Q1090.0781,972.5723 1090.2813,972.5723 Q1090.6094,972.5723 1090.8594,972.8379 Q1091.125,973.0879 1091.125,973.4316 Q1091.125,973.7754 1090.7813,974.1816 Q1090.2813,974.7598 1089.4844,975.0879 Q1088.4063,975.541 1087.1094,975.541 Q1085.5938,975.541 1084.3906,974.916 Q1083.4063,974.416 1082.7188,973.3535 Q1082.0313,972.2754 1082.0313,970.9941 L1082.0313,969.8379 Q1082.0313,968.5098 1082.6406,967.3691 Q1083.2656,966.2129 1084.3594,965.6035 Q1085.4531,964.9785 1086.6875,964.9785 Q1087.4219,964.9785 1088.0625,965.1504 Q1088.7188,965.3066 1089.2656,965.666 Z " fill="#000000"/><text fill="#000000" font-family="sans-serif" font-size="12" font-style="italic" lengthAdjust="spacing" textLength="81" x="1098.5" y="965.4492">&#171;value object&#187;</text><text fill="#000000" font-family="sans-serif" font-size="14" lengthAdjust="spacing" textLength="59" x="1109.5" y="983.5684">BirthDate</text><line style="stroke:#181818;stroke-width:0.5;" x1="1072.5" x2="1179.5" y1="992.082" y2="992.082"/><line style="stroke:#181818;stroke-width:0.5;" x1="1072.5" x2="1179.5" y1="1000.082" y2="1000.082"/></g><!--class MechanographicNumber--><g id="elem_MechanographicNumber"><rect codeLine="109" fill="#F1F1F1" height="76.543" id="MechanographicNumber" rx="2.5" ry="2.5" style="stroke:#181818;stroke-width:0.5;" width="186" x="1216" y="939.5"/><ellipse cx="1231" cy="969.7715" fill="#ADD1B2" rx="11" ry="11" style="stroke:#181818;stroke-width:1.0;"/><path d="M1233.7656,965.6465 Q1233.9219,965.4277 1234.1094,965.3184 Q1234.2969,965.209 1234.5156,965.209 Q1234.8906,965.209 1235.125,965.4746 Q1235.3594,965.7246 1235.3594,966.334 L1235.3594,967.7871 Q1235.3594,968.3965 1235.125,968.6621 Q1234.8906,968.9277 1234.5156,968.9277 Q1234.1719,968.9277 1233.9688,968.7246 Q1233.7656,968.5371 1233.6563,968.0215 Q1233.6094,967.6621 1233.4219,967.4746 Q1233.0938,967.0996 1232.4844,966.8809 Q1231.875,966.6621 1231.25,966.6621 Q1230.4844,966.6621 1229.8438,966.9902 Q1229.2188,967.3184 1228.7188,968.0684 Q1228.2344,968.8184 1228.2344,969.8496 L1228.2344,970.9434 Q1228.2344,972.1777 1229.125,973.0059 Q1230.0156,973.8184 1231.6094,973.8184 Q1232.5469,973.8184 1233.2031,973.5684 Q1233.5938,973.4121 1234.0156,972.9746 Q1234.2813,972.709 1234.4219,972.6309 Q1234.5781,972.5527 1234.7813,972.5527 Q1235.1094,972.5527 1235.3594,972.8184 Q1235.625,973.0684 1235.625,973.4121 Q1235.625,973.7559 1235.2813,974.1621 Q1234.7813,974.7402 1233.9844,975.0684 Q1232.9063,975.5215 1231.6094,975.5215 Q1230.0938,975.5215 1228.8906,974.8965 Q1227.9063,974.3965 1227.2188,973.334 Q1226.5313,972.2559 1226.5313,970.9746 L1226.5313,969.8184 Q1226.5313,968.4902 1227.1406,967.3496 Q1227.7656,966.1934 1228.8594,965.584 Q1229.9531,964.959 1231.1875,964.959 Q1231.9219,964.959 1232.5625,965.1309 Q1233.2188,965.2871 1233.7656,965.6465 Z " fill="#000000"/><text fill="#000000" font-family="sans-serif" font-size="12" font-style="italic" lengthAdjust="spacing" textLength="81" x="1281.5" y="957.4492">&#171;value object&#187;</text><text fill="#000000" font-family="sans-serif" font-size="12" font-style="italic" lengthAdjust="spacing" textLength="146" x="1249" y="973.4102">&#171;automatically generated&#187;</text><text fill="#000000" font-family="sans-serif" font-size="14" lengthAdjust="spacing" textLength="154" x="1245" y="991.5293">MechanographicNumber</text><line style="stroke:#181818;stroke-width:0.5;" x1="1217" x2="1401" y1="1000.043" y2="1000.043"/><line style="stroke:#181818;stroke-width:0.5;" x1="1217" x2="1401" y1="1008.043" y2="1008.043"/></g><!--class Grade--><g id="elem_Grade"><rect codeLine="111" fill="#F1F1F1" height="60.582" id="Grade" rx="2.5" ry="2.5" style="stroke:#181818;stroke-width:0.5;" width="109" x="1437.5" y="947.5"/><ellipse cx="1452.5" cy="969.791" fill="#ADD1B2" rx="11" ry="11" style="stroke:#181818;stroke-width:1.0;"/><path d="M1455.2656,965.666 Q1455.4219,965.4473 1455.6094,965.3379 Q1455.7969,965.2285 1456.0156,965.2285 Q1456.3906,965.2285 1456.625,965.4941 Q1456.8594,965.7441 1456.8594,966.3535 L1456.8594,967.8066 Q1456.8594,968.416 1456.625,968.6816 Q1456.3906,968.9473 1456.0156,968.9473 Q1455.6719,968.9473 1455.4688,968.7441 Q1455.2656,968.5566 1455.1563,968.041 Q1455.1094,967.6816 1454.9219,967.4941 Q1454.5938,967.1191 1453.9844,966.9004 Q1453.375,966.6816 1452.75,966.6816 Q1451.9844,966.6816 1451.3438,967.0098 Q1450.7188,967.3379 1450.2188,968.0879 Q1449.7344,968.8379 1449.7344,969.8691 L1449.7344,970.9629 Q1449.7344,972.1973 1450.625,973.0254 Q1451.5156,973.8379 1453.1094,973.8379 Q1454.0469,973.8379 1454.7031,973.5879 Q1455.0938,973.4316 1455.5156,972.9941 Q1455.7813,972.7285 1455.9219,972.6504 Q1456.0781,972.5723 1456.2813,972.5723 Q1456.6094,972.5723 1456.8594,972.8379 Q1457.125,973.0879 1457.125,973.4316 Q1457.125,973.7754 1456.7813,974.1816 Q1456.2813,974.7598 1455.4844,975.0879 Q1454.4063,975.541 1453.1094,975.541 Q1451.5938,975.541 1450.3906,974.916 Q1449.4063,974.416 1448.7188,973.3535 Q1448.0313,972.2754 1448.0313,970.9941 L1448.0313,969.8379 Q1448.0313,968.5098 1448.6406,967.3691 Q1449.2656,966.2129 1450.3594,965.6035 Q1451.4531,964.9785 1452.6875,964.9785 Q1453.4219,964.9785 1454.0625,965.1504 Q1454.7188,965.3066 1455.2656,965.666 Z " fill="#000000"/><text fill="#000000" font-family="sans-serif" font-size="12" font-style="italic" lengthAdjust="spacing" textLength="81" x="1464.5" y="965.4492">&#171;value object&#187;</text><text fill="#000000" font-family="sans-serif" font-size="14" lengthAdjust="spacing" textLength="40" x="1485" y="983.5684">Grade</text><line style="stroke:#181818;stroke-width:0.5;" x1="1438.5" x2="1545.5" y1="992.082" y2="992.082"/><line style="stroke:#181818;stroke-width:0.5;" x1="1438.5" x2="1545.5" y1="1000.082" y2="1000.082"/></g><!--class UserRepository--><g id="elem_UserRepository"><rect codeLine="113" fill="#F1F1F1" height="196.9688" id="UserRepository" rx="2.5" ry="2.5" style="stroke:#181818;stroke-width:0.5;" width="328" x="2020" y="7"/><ellipse cx="2131.25" cy="23" fill="#ADD1B2" rx="11" ry="11" style="stroke:#181818;stroke-width:1.0;"/><path d="M2134.0156,18.875 Q2134.1719,18.6563 2134.3594,18.5469 Q2134.5469,18.4375 2134.7656,18.4375 Q2135.1406,18.4375 2135.375,18.7031 Q2135.6094,18.9531 2135.6094,19.5625 L2135.6094,21.0156 Q2135.6094,21.625 2135.375,21.8906 Q2135.1406,22.1563 2134.7656,22.1563 Q2134.4219,22.1563 2134.2188,21.9531 Q2134.0156,21.7656 2133.9063,21.25 Q2133.8594,20.8906 2133.6719,20.7031 Q2133.3438,20.3281 2132.7344,20.1094 Q2132.125,19.8906 2131.5,19.8906 Q2130.7344,19.8906 2130.0938,20.2188 Q2129.4688,20.5469 2128.9688,21.2969 Q2128.4844,22.0469 2128.4844,23.0781 L2128.4844,24.1719 Q2128.4844,25.4063 2129.375,26.2344 Q2130.2656,27.0469 2131.8594,27.0469 Q2132.7969,27.0469 2133.4531,26.7969 Q2133.8438,26.6406 2134.2656,26.2031 Q2134.5313,25.9375 2134.6719,25.8594 Q2134.8281,25.7813 2135.0313,25.7813 Q2135.3594,25.7813 2135.6094,26.0469 Q2135.875,26.2969 2135.875,26.6406 Q2135.875,26.9844 2135.5313,27.3906 Q2135.0313,27.9688 2134.2344,28.2969 Q2133.1563,28.75 2131.8594,28.75 Q2130.3438,28.75 2129.1406,28.125 Q2128.1563,27.625 2127.4688,26.5625 Q2126.7813,25.4844 2126.7813,24.2031 L2126.7813,23.0469 Q2126.7813,21.7188 2127.3906,20.5781 Q2128.0156,19.4219 2129.1094,18.8125 Q2130.2031,18.1875 2131.4375,18.1875 Q2132.1719,18.1875 2132.8125,18.3594 Q2133.4688,18.5156 2134.0156,18.875 Z " fill="#000000"/><text fill="#000000" font-family="sans-serif" font-size="14" lengthAdjust="spacing" textLength="97" x="2151.75" y="28.7969">UserRepository</text><line style="stroke:#181818;stroke-width:0.5;" x1="2021" x2="2347" y1="39" y2="39"/><line style="stroke:#181818;stroke-width:0.5;" x1="2021" x2="2347" y1="47" y2="47"/><ellipse cx="2031" cy="61.8105" fill="#84BE84" rx="3" ry="3" style="stroke:#038048;stroke-width:1.0;"/><text fill="#000000" font-family="sans-serif" font-size="14" lengthAdjust="spacing" textLength="127" x="2040" y="66.1074">addUser(user: user)</text><ellipse cx="2031" cy="80.4316" fill="#84BE84" rx="3" ry="3" style="stroke:#038048;stroke-width:1.0;"/><text fill="#000000" font-family="sans-serif" font-size="14" lengthAdjust="spacing" textLength="150" x="2040" y="84.7285">removeUser(user: user)</text><ellipse cx="2031" cy="108.3633" fill="#84BE84" rx="3" ry="3" style="stroke:#038048;stroke-width:1.0;"/><text fill="#000000" font-family="sans-serif" font-size="14" lengthAdjust="spacing" textLength="298" x="2040" y="103.3496">CreateUser(String: fullName, String: fhortName,</text><text fill="#000000" font-family="sans-serif" font-size="14" lengthAdjust="spacing" textLength="286" x="2048" y="121.9707">Role: role, Email: email, Password, password)</text><ellipse cx="2031" cy="136.2949" fill="#84BE84" rx="3" ry="3" style="stroke:#038048;stroke-width:1.0;"/><text fill="#000000" font-family="sans-serif" font-size="14" lengthAdjust="spacing" textLength="183" x="2040" y="140.5918">searchUser(user: user): User</text><ellipse cx="2031" cy="154.916" fill="#84BE84" rx="3" ry="3" style="stroke:#038048;stroke-width:1.0;"/><text fill="#000000" font-family="sans-serif" font-size="14" lengthAdjust="spacing" textLength="172" x="2040" y="159.2129">alterUserStatus(User: user)</text><ellipse cx="2031" cy="173.5371" fill="#84BE84" rx="3" ry="3" style="stroke:#038048;stroke-width:1.0;"/><text fill="#000000" font-family="sans-serif" font-size="14" lengthAdjust="spacing" textLength="160" x="2040" y="177.834">totalNumberOfUsers(): int</text><ellipse cx="2031" cy="192.1582" fill="#84BE84" rx="3" ry="3" style="stroke:#038048;stroke-width:1.0;"/><text fill="#000000" font-family="sans-serif" font-size="14" lengthAdjust="spacing" textLength="184" x="2040" y="196.4551">listSystemUsers(): List&lt;User&gt;</text></g><!--class CreatePostItService--><g id="elem_CreatePostItService"><rect codeLine="123" fill="#F1F1F1" height="159.7266" id="CreatePostItService" rx="2.5" ry="2.5" style="stroke:#181818;stroke-width:0.5;" width="812" x="1026" y="500"/><ellipse cx="1365.25" cy="516" fill="#ADD1B2" rx="11" ry="11" style="stroke:#181818;stroke-width:1.0;"/><path d="M1368.0156,511.875 Q1368.1719,511.6563 1368.3594,511.5469 Q1368.5469,511.4375 1368.7656,511.4375 Q1369.1406,511.4375 1369.375,511.7031 Q1369.6094,511.9531 1369.6094,512.5625 L1369.6094,514.0156 Q1369.6094,514.625 1369.375,514.8906 Q1369.1406,515.1563 1368.7656,515.1563 Q1368.4219,515.1563 1368.2188,514.9531 Q1368.0156,514.7656 1367.9063,514.25 Q1367.8594,513.8906 1367.6719,513.7031 Q1367.3438,513.3281 1366.7344,513.1094 Q1366.125,512.8906 1365.5,512.8906 Q1364.7344,512.8906 1364.0938,513.2188 Q1363.4688,513.5469 1362.9688,514.2969 Q1362.4844,515.0469 1362.4844,516.0781 L1362.4844,517.1719 Q1362.4844,518.4063 1363.375,519.2344 Q1364.2656,520.0469 1365.8594,520.0469 Q1366.7969,520.0469 1367.4531,519.7969 Q1367.8438,519.6406 1368.2656,519.2031 Q1368.5313,518.9375 1368.6719,518.8594 Q1368.8281,518.7813 1369.0313,518.7813 Q1369.3594,518.7813 1369.6094,519.0469 Q1369.875,519.2969 1369.875,519.6406 Q1369.875,519.9844 1369.5313,520.3906 Q1369.0313,520.9688 1368.2344,521.2969 Q1367.1563,521.75 1365.8594,521.75 Q1364.3438,521.75 1363.1406,521.125 Q1362.1563,520.625 1361.4688,519.5625 Q1360.7813,518.4844 1360.7813,517.2031 L1360.7813,516.0469 Q1360.7813,514.7188 1361.3906,513.5781 Q1362.0156,512.4219 1363.1094,511.8125 Q1364.2031,511.1875 1365.4375,511.1875 Q1366.1719,511.1875 1366.8125,511.3594 Q1367.4688,511.5156 1368.0156,511.875 Z " fill="#000000"/><text fill="#000000" font-family="sans-serif" font-size="14" lengthAdjust="spacing" textLength="125" x="1385.75" y="521.7969">CreatePostItService</text><line style="stroke:#181818;stroke-width:0.5;" x1="1027" x2="1837" y1="532" y2="532"/><ellipse cx="1037" cy="546.8105" fill="#000000" rx="3" ry="3" style="stroke:#000000;stroke-width:1.0;"/><text fill="#000000" font-family="sans-serif" font-size="14" lengthAdjust="spacing" textLength="215" x="1046" y="551.1074">BoardRepository boardRepository</text><ellipse cx="1037" cy="565.4316" fill="#000000" rx="3" ry="3" style="stroke:#000000;stroke-width:1.0;"/><text fill="#000000" font-family="sans-serif" font-size="14" lengthAdjust="spacing" textLength="329" x="1046" y="569.7285">BoardChangesRepository boardChangesRepository</text><ellipse cx="1037" cy="584.0527" fill="#000000" rx="3" ry="3" style="stroke:#000000;stroke-width:1.0;"/><text fill="#000000" font-family="sans-serif" font-size="14" lengthAdjust="spacing" textLength="157" x="1046" y="588.3496">EventPublisher publisher</text><line style="stroke:#181818;stroke-width:0.5;" x1="1027" x2="1837" y1="595.8633" y2="595.8633"/><ellipse cx="1037" cy="610.6738" fill="#84BE84" rx="3" ry="3" style="stroke:#038048;stroke-width:1.0;"/><text fill="#000000" font-family="sans-serif" font-size="14" lengthAdjust="spacing" textLength="687" x="1046" y="614.9707">CreatePostItService(BoardRepository boardRepository, BoardChangesRepository boardChangesRepository)</text><ellipse cx="1037" cy="629.2949" fill="#84BE84" rx="3" ry="3" style="stroke:#038048;stroke-width:1.0;"/><text fill="#000000" font-family="sans-serif" font-size="14" lengthAdjust="spacing" textLength="786" x="1046" y="633.5918">createPostIt(String postItRow, String postItColumn, String postItContent, String boardId, eCourseSystemUser user) : PostItDto</text><ellipse cx="1037" cy="647.916" fill="#84BE84" rx="3" ry="3" style="stroke:#038048;stroke-width:1.0;"/><text fill="#000000" font-family="sans-serif" font-size="14" lengthAdjust="spacing" textLength="754" x="1046" y="652.2129">createPostItSync(String boardId, int postItRow, int postItColumn, String postItContent, eCourseSystemUser user) : Board</text></g><!--class SharedBoard--><g id="elem_SharedBoard"><rect fill="#F1F1F1" height="48" id="SharedBoard" rx="2.5" ry="2.5" style="stroke:#181818;stroke-width:0.5;" width="116" x="1919" y="954"/><ellipse cx="1934" cy="970" fill="#ADD1B2" rx="11" ry="11" style="stroke:#181818;stroke-width:1.0;"/><path d="M1936.7656,965.875 Q1936.9219,965.6563 1937.1094,965.5469 Q1937.2969,965.4375 1937.5156,965.4375 Q1937.8906,965.4375 1938.125,965.7031 Q1938.3594,965.9531 1938.3594,966.5625 L1938.3594,968.0156 Q1938.3594,968.625 1938.125,968.8906 Q1937.8906,969.1563 1937.5156,969.1563 Q1937.1719,969.1563 1936.9688,968.9531 Q1936.7656,968.7656 1936.6563,968.25 Q1936.6094,967.8906 1936.4219,967.7031 Q1936.0938,967.3281 1935.4844,967.1094 Q1934.875,966.8906 1934.25,966.8906 Q1933.4844,966.8906 1932.8438,967.2188 Q1932.2188,967.5469 1931.7188,968.2969 Q1931.2344,969.0469 1931.2344,970.0781 L1931.2344,971.1719 Q1931.2344,972.4063 1932.125,973.2344 Q1933.0156,974.0469 1934.6094,974.0469 Q1935.5469,974.0469 1936.2031,973.7969 Q1936.5938,973.6406 1937.0156,973.2031 Q1937.2813,972.9375 1937.4219,972.8594 Q1937.5781,972.7813 1937.7813,972.7813 Q1938.1094,972.7813 1938.3594,973.0469 Q1938.625,973.2969 1938.625,973.6406 Q1938.625,973.9844 1938.2813,974.3906 Q1937.7813,974.9688 1936.9844,975.2969 Q1935.9063,975.75 1934.6094,975.75 Q1933.0938,975.75 1931.8906,975.125 Q1930.9063,974.625 1930.2188,973.5625 Q1929.5313,972.4844 1929.5313,971.2031 L1929.5313,970.0469 Q1929.5313,968.7188 1930.1406,967.5781 Q1930.7656,966.4219 1931.8594,965.8125 Q1932.9531,965.1875 1934.1875,965.1875 Q1934.9219,965.1875 1935.5625,965.3594 Q1936.2188,965.5156 1936.7656,965.875 Z " fill="#000000"/><text fill="#000000" font-family="sans-serif" font-size="14" lengthAdjust="spacing" textLength="84" x="1948" y="975.7969">SharedBoard</text><line style="stroke:#181818;stroke-width:0.5;" x1="1920" x2="2034" y1="986" y2="986"/><line style="stroke:#181818;stroke-width:0.5;" x1="1920" x2="2034" y1="994" y2="994"/></g><!--class UserRepsitory--><g id="elem_UserRepsitory"><rect fill="#F1F1F1" height="48" id="UserRepsitory" rx="2.5" ry="2.5" style="stroke:#181818;stroke-width:0.5;" width="121" x="1873.5" y="556"/><ellipse cx="1888.5" cy="572" fill="#ADD1B2" rx="11" ry="11" style="stroke:#181818;stroke-width:1.0;"/><path d="M1891.2656,567.875 Q1891.4219,567.6563 1891.6094,567.5469 Q1891.7969,567.4375 1892.0156,567.4375 Q1892.3906,567.4375 1892.625,567.7031 Q1892.8594,567.9531 1892.8594,568.5625 L1892.8594,570.0156 Q1892.8594,570.625 1892.625,570.8906 Q1892.3906,571.1563 1892.0156,571.1563 Q1891.6719,571.1563 1891.4688,570.9531 Q1891.2656,570.7656 1891.1563,570.25 Q1891.1094,569.8906 1890.9219,569.7031 Q1890.5938,569.3281 1889.9844,569.1094 Q1889.375,568.8906 1888.75,568.8906 Q1887.9844,568.8906 1887.3438,569.2188 Q1886.7188,569.5469 1886.2188,570.2969 Q1885.7344,571.0469 1885.7344,572.0781 L1885.7344,573.1719 Q1885.7344,574.4063 1886.625,575.2344 Q1887.5156,576.0469 1889.1094,576.0469 Q1890.0469,576.0469 1890.7031,575.7969 Q1891.0938,575.6406 1891.5156,575.2031 Q1891.7813,574.9375 1891.9219,574.8594 Q1892.0781,574.7813 1892.2813,574.7813 Q1892.6094,574.7813 1892.8594,575.0469 Q1893.125,575.2969 1893.125,575.6406 Q1893.125,575.9844 1892.7813,576.3906 Q1892.2813,576.9688 1891.4844,577.2969 Q1890.4063,577.75 1889.1094,577.75 Q1887.5938,577.75 1886.3906,577.125 Q1885.4063,576.625 1884.7188,575.5625 Q1884.0313,574.4844 1884.0313,573.2031 L1884.0313,572.0469 Q1884.0313,570.7188 1884.6406,569.5781 Q1885.2656,568.4219 1886.3594,567.8125 Q1887.4531,567.1875 1888.6875,567.1875 Q1889.4219,567.1875 1890.0625,567.3594 Q1890.7188,567.5156 1891.2656,567.875 Z " fill="#000000"/><text fill="#000000" font-family="sans-serif" font-size="14" lengthAdjust="spacing" textLength="89" x="1902.5" y="577.7969">UserRepsitory</text><line style="stroke:#181818;stroke-width:0.5;" x1="1874.5" x2="1993.5" y1="588" y2="588"/><line style="stroke:#181818;stroke-width:0.5;" x1="1874.5" x2="1993.5" y1="596" y2="596"/></g><!--class ShareBoardRepsitory--><g id="elem_ShareBoardRepsitory"><rect fill="#F1F1F1" height="48" id="ShareBoardRepsitory" rx="2.5" ry="2.5" style="stroke:#181818;stroke-width:0.5;" width="168" x="2531" y="769"/><ellipse cx="2546" cy="785" fill="#ADD1B2" rx="11" ry="11" style="stroke:#181818;stroke-width:1.0;"/><path d="M2548.7656,780.875 Q2548.9219,780.6563 2549.1094,780.5469 Q2549.2969,780.4375 2549.5156,780.4375 Q2549.8906,780.4375 2550.125,780.7031 Q2550.3594,780.9531 2550.3594,781.5625 L2550.3594,783.0156 Q2550.3594,783.625 2550.125,783.8906 Q2549.8906,784.1563 2549.5156,784.1563 Q2549.1719,784.1563 2548.9688,783.9531 Q2548.7656,783.7656 2548.6563,783.25 Q2548.6094,782.8906 2548.4219,782.7031 Q2548.0938,782.3281 2547.4844,782.1094 Q2546.875,781.8906 2546.25,781.8906 Q2545.4844,781.8906 2544.8438,782.2188 Q2544.2188,782.5469 2543.7188,783.2969 Q2543.2344,784.0469 2543.2344,785.0781 L2543.2344,786.1719 Q2543.2344,787.4063 2544.125,788.2344 Q2545.0156,789.0469 2546.6094,789.0469 Q2547.5469,789.0469 2548.2031,788.7969 Q2548.5938,788.6406 2549.0156,788.2031 Q2549.2813,787.9375 2549.4219,787.8594 Q2549.5781,787.7813 2549.7813,787.7813 Q2550.1094,787.7813 2550.3594,788.0469 Q2550.625,788.2969 2550.625,788.6406 Q2550.625,788.9844 2550.2813,789.3906 Q2549.7813,789.9688 2548.9844,790.2969 Q2547.9063,790.75 2546.6094,790.75 Q2545.0938,790.75 2543.8906,790.125 Q2542.9063,789.625 2542.2188,788.5625 Q2541.5313,787.4844 2541.5313,786.2031 L2541.5313,785.0469 Q2541.5313,783.7188 2542.1406,782.5781 Q2542.7656,781.4219 2543.8594,780.8125 Q2544.9531,780.1875 2546.1875,780.1875 Q2546.9219,780.1875 2547.5625,780.3594 Q2548.2188,780.5156 2548.7656,780.875 Z " fill="#000000"/><text fill="#000000" font-family="sans-serif" font-size="14" lengthAdjust="spacing" textLength="136" x="2560" y="790.7969">ShareBoardRepsitory</text><line style="stroke:#181818;stroke-width:0.5;" x1="2532" x2="2698" y1="801" y2="801"/><line style="stroke:#181818;stroke-width:0.5;" x1="2532" x2="2698" y1="809" y2="809"/></g><!--link SystemUser to EmailAdderss--><g id="link_SystemUser_EmailAdderss"><path codeLine="133" d="M565.86,1035.14 C568.48,1056.61 571.4,1080.47 573.71,1099.42 " fill="none" id="SystemUser-to-EmailAdderss" style="stroke:#181818;stroke-width:1.0;"/><polygon fill="#181818" points="574.35,1104.63,577.2396,1095.2146,573.7492,1099.6662,569.2975,1096.1759,574.35,1104.63" style="stroke:#181818;stroke-width:1.0;"/><text fill="#000000" font-family="sans-serif" font-size="13" lengthAdjust="spacing" textLength="7" x="565.8753" y="1093.6114">1</text></g><!--link SystemUser to Password--><g id="link_SystemUser_Password"><path codeLine="134" d="M612.62,1028.63 C638.22,1052.32 668.17,1080.04 691,1101.18 " fill="none" id="SystemUser-to-Password" style="stroke:#181818;stroke-width:1.0;"/><polygon fill="#181818" points="694.89,1104.78,691.0045,1095.73,691.2215,1101.3827,685.5688,1101.5996,694.89,1104.78" style="stroke:#181818;stroke-width:1.0;"/><text fill="#000000" font-family="sans-serif" font-size="13" lengthAdjust="spacing" textLength="7" x="680.5454" y="1093.7923">1</text></g><!--link SystemUser to Role--><g id="link_SystemUser_Role"><path codeLine="135" d="M513.51,1035.14 C498.31,1053.9 481.63,1074.49 467.41,1092.04 " fill="none" id="SystemUser-to-Role" style="stroke:#181818;stroke-width:1.0;"/><polygon fill="#181818" points="464.23,1095.96,473.0079,1091.4937,467.3813,1092.0781,466.7969,1086.4515,464.23,1095.96" style="stroke:#181818;stroke-width:1.0;"/><text fill="#000000" font-family="sans-serif" font-size="13" lengthAdjust="spacing" textLength="7" x="461.9961" y="1084.739">1</text></g><!--link eCourseSystemUser to SystemUser--><g id="link_eCourseSystemUser_SystemUser"><path codeLine="137" d="M658.89,831.88 C653.5,850.44 645.62,872.69 635,891 C629.59,900.33 623.06,909.56 616.14,918.32 " fill="none" id="eCourseSystemUser-to-SystemUser" style="stroke:#181818;stroke-width:1.0;"/><polygon fill="#181818" points="612.71,922.57,621.4718,918.0722,615.8474,918.6768,615.2427,913.0524,612.71,922.57" style="stroke:#181818;stroke-width:1.0;"/><text fill="#000000" font-family="sans-serif" font-size="13" lengthAdjust="spacing" textLength="7" x="620.3976" y="911.0417">1</text></g><!--link eCourseSystemUser to Role--><g id="link_eCourseSystemUser_Role"><path codeLine="138" d="M647.51,831.54 C634.63,851.88 616.24,875.87 594,891 C553.52,918.54 522.21,885.97 488,921 C443.62,966.44 433.67,1042.69 432.15,1090.7 " fill="none" id="eCourseSystemUser-to-Role" style="stroke:#181818;stroke-width:1.0;"/><polygon fill="#181818" points="432.02,1095.84,436.2754,1086.9579,432.1628,1090.842,428.2787,1086.7294,432.02,1095.84" style="stroke:#181818;stroke-width:1.0;"/><text fill="#000000" font-family="sans-serif" font-size="13" lengthAdjust="spacing" textLength="7" x="424.25" y="1084.5984">1</text></g><!--link eCourseSystemUser to UserStatus--><g id="link_eCourseSystemUser_UserStatus"><path codeLine="139" d="M674.22,831.92 C678.56,858.44 684.43,894.24 689.25,923.64 " fill="none" id="eCourseSystemUser-to-UserStatus" style="stroke:#181818;stroke-width:1.0;"/><polygon fill="#181818" points="690.08,928.67,692.5639,919.1395,689.2673,923.7365,684.6703,920.4399,690.08,928.67" style="stroke:#181818;stroke-width:1.0;"/><text fill="#000000" font-family="sans-serif" font-size="13" lengthAdjust="spacing" textLength="7" x="681.4741" y="917.5988">1</text></g><!--link eCourseSystemUser to Acronym--><g id="link_eCourseSystemUser_Acronym"><path codeLine="140" d="M703.22,831.92 C733.78,864.81 777.6,911.98 806.89,943.51 " fill="none" id="eCourseSystemUser-to-Acronym" style="stroke:#181818;stroke-width:1.0;"/><polygon fill="#181818" points="810.38,947.27,807.1815,937.955,806.9756,943.6081,801.3224,943.4021,810.38,947.27" style="stroke:#181818;stroke-width:1.0;"/><text fill="#000000" font-family="sans-serif" font-size="13" lengthAdjust="spacing" textLength="7" x="796.9615" y="936.2802">1</text></g><!--link eCourseSystemUser to NIF--><g id="link_eCourseSystemUser_NIF"><path codeLine="141" d="M748.2,831.6 C796.31,855.25 858.04,887.54 910,921 C920.81,927.96 932.01,936.15 942.26,944.07 " fill="none" id="eCourseSystemUser-to-NIF" style="stroke:#181818;stroke-width:1.0;"/><polygon fill="#181818" points="946.29,947.21,941.6481,938.5236,942.3455,944.1373,936.7319,944.8348,946.29,947.21" style="stroke:#181818;stroke-width:1.0;"/><text fill="#000000" font-family="sans-serif" font-size="13" lengthAdjust="spacing" textLength="7" x="931.2029" y="936.2079">1</text></g><!--link eCourseSystemUser to BirthDate--><g id="link_eCourseSystemUser_BirthDate"><path codeLine="142" d="M748.86,811.98 C829.29,831.82 954.69,868.1 1054,921 C1065.97,927.38 1077.99,935.75 1088.68,944.08 " fill="none" id="eCourseSystemUser-to-BirthDate" style="stroke:#181818;stroke-width:1.0;"/><polygon fill="#181818" points="1092.87,947.38,1088.2826,938.6648,1088.9449,944.2827,1083.3269,944.945,1092.87,947.38" style="stroke:#181818;stroke-width:1.0;"/><text fill="#000000" font-family="sans-serif" font-size="13" lengthAdjust="spacing" textLength="7" x="1078.3151" y="936.4129">1</text></g><!--link eCourseSystemUser to MechanographicNumber--><g id="link_eCourseSystemUser_MechanographicNumber"><path codeLine="143" d="M748.73,807.27 C854.15,825.96 1043.46,864.23 1198,921 C1210.54,925.61 1223.51,931.26 1235.96,937.18 " fill="none" id="eCourseSystemUser-to-MechanographicNumber" style="stroke:#181818;stroke-width:1.0;"/><polygon fill="#181818" points="1240.52,939.38,1234.1241,931.8905,1236.0086,937.2242,1230.6749,939.1087,1240.52,939.38" style="stroke:#181818;stroke-width:1.0;"/><text fill="#000000" font-family="sans-serif" font-size="13" lengthAdjust="spacing" textLength="7" x="1221.1484" y="928.3739">1</text></g><!--link eCourseSystemUser to Grade--><g id="link_eCourseSystemUser_Grade"><path codeLine="144" d="M748.6,795.04 C890.13,799.55 1190.04,821.23 1419,921 C1432.17,926.74 1445.1,935.36 1456.33,944.13 " fill="none" id="eCourseSystemUser-to-Grade" style="stroke:#181818;stroke-width:1.0;"/><polygon fill="#181818" points="1460.39,947.36,1455.8531,938.6183,1456.4829,944.24,1450.8612,944.8697,1460.39,947.36" style="stroke:#181818;stroke-width:1.0;"/><polygon fill="#000000" points="1332.8926,882.6762,1324.6476,877.9359,1323.436,883.6875,1332.8926,882.6762" style="stroke:#000000;stroke-width:1.0;"/><text fill="#000000" font-family="sans-serif" font-size="13" lengthAdjust="spacing" textLength="79" x="1337" y="887.0283">student has a</text><text fill="#000000" font-family="sans-serif" font-size="13" lengthAdjust="spacing" textLength="7" x="1446.1486" y="936.3888">1</text></g><!--link eCourseSystemUser to SharedBoard--><g id="link_eCourseSystemUser_SharedBoard"><path codeLine="145" d="M748.76,796.57 C962.88,803.93 1541.35,827.44 1727,872 C1800.61,889.67 1880.39,926.57 1929.54,951.57 " fill="none" id="eCourseSystemUser-to-SharedBoard" style="stroke:#181818;stroke-width:1.0;"/><polygon fill="#181818" points="1934.2,953.95,1927.9974,946.2996,1929.7451,951.6797,1924.365,953.4274,1934.2,953.95" style="stroke:#181818;stroke-width:1.0;"/><polygon fill="#000000" points="1793.9575,882.2963,1785.3718,878.2051,1784.6068,884.033,1793.9575,882.2963" style="stroke:#000000;stroke-width:1.0;"/><text fill="#000000" font-family="sans-serif" font-size="13" lengthAdjust="spacing" textLength="30" x="1798" y="887.0283">owns</text><text fill="#000000" font-family="sans-serif" font-size="13" lengthAdjust="spacing" textLength="5" x="1917.5919" y="942.6747">*</text></g><!--link eCourseSystemUser to SharedBoard--><g id="link_eCourseSystemUser_SharedBoard"><path codeLine="146" d="M748.67,800.04 C887.35,810.93 1179.72,836.1 1425,872 C1603.21,898.08 1811.49,941.16 1913.77,963.15 " fill="none" id="eCourseSystemUser-to-SharedBoard-1" style="stroke:#181818;stroke-width:1.0;"/><polygon fill="#181818" points="1918.86,964.25,1910.9095,958.4371,1913.9731,963.1926,1909.2176,966.2562,1918.86,964.25" style="stroke:#181818;stroke-width:1.0;"/><polygon fill="#000000" points="1532.0483,880.9523,1540.5986,885.1169,1541.4135,879.2958,1532.0483,880.9523" style="stroke:#000000;stroke-width:1.0;"/><text fill="#000000" font-family="sans-serif" font-size="13" lengthAdjust="spacing" textLength="54" x="1546" y="887.0283">shared to</text><text fill="#000000" font-family="sans-serif" font-size="13" lengthAdjust="spacing" textLength="5" x="1906.0905" y="958.4462">*</text></g><!--link eCourseSystemUser to PostIt--><g id="link_eCourseSystemUser_PostIt"><path codeLine="147" d="M609.15,754.45 C571.27,730.82 525.27,703.28 504,695 C443.89,671.6 415.55,700.96 362,665 C357.3,661.84 352.87,658.15 348.74,654.11 " fill="none" id="eCourseSystemUser-to-PostIt" style="stroke:#181818;stroke-width:1.0;"/><polygon fill="#181818" points="345.02,650.31,348.4441,659.5445,348.5125,653.888,354.169,653.9565,345.02,650.31" style="stroke:#181818;stroke-width:1.0;"/><polygon fill="#000000" points="541.3344,702.8478,548.7179,708.8423,550.8313,703.3575,541.3344,702.8478" style="stroke:#000000;stroke-width:1.0;"/><text fill="#000000" font-family="sans-serif" font-size="13" lengthAdjust="spacing" textLength="54" x="555" y="710.0283">creates a</text><text fill="#000000" font-family="sans-serif" font-size="13" lengthAdjust="spacing" textLength="5" x="353.1254" y="679.4227">*</text></g><!--link eCourseSystemUser to PostIt--><g id="link_eCourseSystemUser_PostIt"><path codeLine="148" d="M658.13,754.34 C650.63,733.44 638.09,708.92 618,695 C523.83,629.77 459.92,724.45 362,665 C357.27,662.13 352.84,658.7 348.72,654.89 " fill="none" id="eCourseSystemUser-to-PostIt-1" style="stroke:#181818;stroke-width:1.0;"/><polygon fill="#181818" points="345.01,651.29,348.6752,660.4315,348.5952,654.7752,354.2515,654.6952,345.01,651.29" style="stroke:#181818;stroke-width:1.0;"/><polygon fill="#000000" points="637.2398,703.1155,644.9517,708.6813,646.7504,703.0854,637.2398,703.1155" style="stroke:#000000;stroke-width:1.0;"/><text fill="#000000" font-family="sans-serif" font-size="13" lengthAdjust="spacing" textLength="57" x="651" y="710.0283">updates a</text><text fill="#000000" font-family="sans-serif" font-size="13" lengthAdjust="spacing" textLength="5" x="350.0908" y="686.8482">*</text></g><!--link eCourseSystemUser to PostIt--><g id="link_eCourseSystemUser_PostIt"><path codeLine="149" d="M587.39,782.39 C501.97,770.59 374.71,747.89 340,714 C327.85,702.13 319.75,686.59 314.38,670.33 " fill="none" id="eCourseSystemUser-to-PostIt-2" style="stroke:#181818;stroke-width:1.0;"/><polygon fill="#181818" points="312.8,665.27,311.6565,675.0523,314.2865,670.0439,319.2948,672.6739,312.8,665.27" style="stroke:#181818;stroke-width:1.0;"/><polygon fill="#000000" points="340.3745,702.7469,347.6262,708.9003,349.8581,703.4627,340.3745,702.7469" style="stroke:#000000;stroke-width:1.0;"/><text fill="#000000" font-family="sans-serif" font-size="13" lengthAdjust="spacing" textLength="53" x="354" y="710.0283">deletes a</text><text fill="#000000" font-family="sans-serif" font-size="13" lengthAdjust="spacing" textLength="5" x="308.2223" y="686.7962">*</text></g><!--link PostIt to eCourseSystemUser--><g id="link_PostIt_eCourseSystemUser"><path codeLine="162" d="M345.04,646.82 C350.33,653.33 356.01,659.54 362,665 C370.34,672.6 440.71,709.35 451,714 C495.15,733.94 546.04,752.45 587.44,766.44 " fill="none" id="PostIt-eCourseSystemUser" style="stroke:#181818;stroke-width:1.0;"/><polygon fill="#000000" points="451.5162,702.4329,458.3269,709.0711,460.928,703.8001,451.5162,702.4329" style="stroke:#000000;stroke-width:1.0;"/><text fill="#000000" font-family="sans-serif" font-size="13" lengthAdjust="spacing" textLength="30" x="465" y="710.0283">owns</text><text fill="#000000" font-family="sans-serif" font-size="13" lengthAdjust="spacing" textLength="5" x="352.8833" y="654.6603">*</text><text fill="#000000" font-family="sans-serif" font-size="13" lengthAdjust="spacing" textLength="5" x="574.5233" y="760.1623">*</text></g><!--link eCourseSystemUser to Content--><g id="link_eCourseSystemUser_Content"><path codeLine="150" d="M587.2,799.58 C490.25,808.16 336.31,828.4 301,872 C287.02,889.26 291.01,913.16 299.28,933.8 " fill="none" id="eCourseSystemUser-to-Content" style="stroke:#181818;stroke-width:1.0;"/><polygon fill="#181818" points="301.23,938.42,301.424,928.5731,299.2897,933.8118,294.0509,931.6775,301.23,938.42" style="stroke:#181818;stroke-width:1.0;"/><polygon fill="#000000" points="301.4682,883.7581,310.908,882.6001,308.4245,877.2727,301.4682,883.7581" style="stroke:#000000;stroke-width:1.0;"/><text fill="#000000" font-family="sans-serif" font-size="13" lengthAdjust="spacing" textLength="54" x="315" y="887.0283">creates a</text><text fill="#000000" font-family="sans-serif" font-size="13" lengthAdjust="spacing" textLength="5" x="297.7461" y="927.1921">*</text></g><!--link eCourseSystemUser to Content--><g id="link_eCourseSystemUser_Content"><path codeLine="151" d="M587.43,805.75 C533.7,816.48 463.4,836.32 410,872 C386.03,888.02 365.33,912.71 350.25,934.12 " fill="none" id="eCourseSystemUser-to-Content-1" style="stroke:#181818;stroke-width:1.0;"/><polygon fill="#181818" points="347.31,938.36,355.729,933.2493,350.162,934.2532,349.1581,928.6861,347.31,938.36" style="stroke:#181818;stroke-width:1.0;"/><polygon fill="#000000" points="410.6027,884.0255,419.9564,882.3047,417.1586,877.1354,410.6027,884.0255" style="stroke:#000000;stroke-width:1.0;"/><text fill="#000000" font-family="sans-serif" font-size="13" lengthAdjust="spacing" textLength="57" x="424" y="887.0283">updates a</text><text fill="#000000" font-family="sans-serif" font-size="13" lengthAdjust="spacing" textLength="5" x="345.8867" y="927.1218">*</text></g><!--link eCourseSystemUser to Content--><g id="link_eCourseSystemUser_Content"><path codeLine="152" d="M597.6,831.63 C551.29,856.37 497.21,885.21 486,891 C459.51,904.68 452.41,907.16 426,921 C412.1,928.29 397.23,936.31 383.28,943.96 " fill="none" id="eCourseSystemUser-to-Content-2" style="stroke:#181818;stroke-width:1.0;"/><polygon fill="#181818" points="378.58,946.53,388.3933,945.6939,382.9602,944.1188,384.5353,938.6856,378.58,946.53" style="stroke:#181818;stroke-width:1.0;"/><polygon fill="#000000" points="521.5714,883.9666,530.9471,882.3707,528.2185,877.1646,521.5714,883.9666" style="stroke:#000000;stroke-width:1.0;"/><text fill="#000000" font-family="sans-serif" font-size="13" lengthAdjust="spacing" textLength="53" x="535" y="887.0283">deletes a</text><text fill="#000000" font-family="sans-serif" font-size="13" lengthAdjust="spacing" textLength="5" x="386.6069" y="937.9437">*</text></g><!--link Board to RowCell--><g id="link_Board_RowCell"><path codeLine="154" d="M188,416.32 C188,450.45 188,490.21 188,521.88 " fill="none" id="Board-RowCell" style="stroke:#181818;stroke-width:1.0;"/><polygon fill="#000000" points="193,460.6455,195.9389,451.6004,190.0611,451.6004,193,460.6455" style="stroke:#000000;stroke-width:1.0;"/><text fill="#000000" font-family="sans-serif" font-size="13" lengthAdjust="spacing" textLength="21" x="202" y="461.0283">has</text><text fill="#000000" font-family="sans-serif" font-size="13" lengthAdjust="spacing" textLength="7" x="180.6773" y="438.1337">1</text><text fill="#000000" font-family="sans-serif" font-size="13" lengthAdjust="spacing" textLength="29" x="157.2328" y="510.7796">1..20</text></g><!--link Board to ColumnCell--><g id="link_Board_ColumnCell"><path codeLine="155" d="M147.36,416.32 C128.82,450.45 107.23,490.21 90.02,521.88 " fill="none" id="Board-ColumnCell" style="stroke:#181818;stroke-width:1.0;"/><polygon fill="#000000" points="134.6134,460.0391,141.5133,453.4938,136.3483,450.6882,134.6134,460.0391" style="stroke:#000000;stroke-width:1.0;"/><text fill="#000000" font-family="sans-serif" font-size="13" lengthAdjust="spacing" textLength="21" x="146" y="461.0283">has</text><text fill="#000000" font-family="sans-serif" font-size="13" lengthAdjust="spacing" textLength="7" x="136.2908" y="438.1337">1</text><text fill="#000000" font-family="sans-serif" font-size="13" lengthAdjust="spacing" textLength="29" x="63.0334" y="510.7796">1..10</text></g><!--link Board to PostIt--><g id="link_Board_PostIt"><path codeLine="156" d="M224.86,416.32 C237.59,442.15 251.9,471.22 264.88,497.56 " fill="none" id="Board-PostIt" style="stroke:#181818;stroke-width:1.0;"/><polygon fill="#000000" points="254.2095,460.1308,252.8489,450.7181,247.5761,453.3155,254.2095,460.1308" style="stroke:#000000;stroke-width:1.0;"/><text fill="#000000" font-family="sans-serif" font-size="13" lengthAdjust="spacing" textLength="21" x="261" y="461.0283">has</text><text fill="#000000" font-family="sans-serif" font-size="13" lengthAdjust="spacing" textLength="7" x="220.9354" y="438.1337">1</text><text fill="#000000" font-family="sans-serif" font-size="13" lengthAdjust="spacing" textLength="5" x="254.6857" y="483.5442">*</text></g><!--link ColumnCell to Cell--><g id="link_ColumnCell_Cell"><path codeLine="158" d="M74.97,638.1 C82.41,664.71 91.32,696.58 99.09,724.39 " fill="none" id="ColumnCell-to-Cell" style="stroke:#181818;stroke-width:1.0;"/><polygon fill="none" points="105.87,722.64,104.52,743.79,92.39,726.41,105.87,722.64" style="stroke:#181818;stroke-width:1.0;"/></g><!--link RowCell to Cell--><g id="link_RowCell_Cell"><path codeLine="159" d="M169.06,638.1 C160.18,664.84 149.55,696.89 140.3,724.79 " fill="none" id="RowCell-to-Cell" style="stroke:#181818;stroke-width:1.0;"/><polygon fill="none" points="146.94,727.01,133.99,743.79,133.65,722.6,146.94,727.01" style="stroke:#181818;stroke-width:1.0;"/></g><!--link PostIt to Content--><g id="link_PostIt_Content"><path codeLine="161" d="M287.17,665.15 C276.83,728.03 268.73,815.75 285,891 C288.5,907.18 295.31,923.98 302.27,938.4 " fill="none" id="PostIt-Content" style="stroke:#181818;stroke-width:1.0;"/><polygon fill="#000000" points="283.2759,798.1379,285.7113,788.9444,279.8424,789.2687,283.2759,798.1379" style="stroke:#000000;stroke-width:1.0;"/><text fill="#000000" font-family="sans-serif" font-size="13" lengthAdjust="spacing" textLength="49" x="292" y="798.5283">contains</text><text fill="#000000" font-family="sans-serif" font-size="13" lengthAdjust="spacing" textLength="5" x="280.55" y="686.6667">*</text><text fill="#000000" font-family="sans-serif" font-size="13" lengthAdjust="spacing" textLength="5" x="293.1055" y="927.1687">*</text></g><!--link eCourseSystemUser to CreatePostItUI--><g id="link_eCourseSystemUser_CreatePostItUI"><path codeLine="165" d="M748.6,791.84 C1058.75,790.41 2163.16,777.41 2267,665 C2318.27,609.5 2296.42,564.59 2267,495 C2232.93,414.42 2047.57,253.95 1941.54,166.58 " fill="none" id="eCourseSystemUser-CreatePostItUI" style="stroke:#181818;stroke-width:1.0;stroke-dasharray:7.0,7.0;"/></g><!--link CreatePostItUI to CreatePostItController--><g id="link_CreatePostItUI_CreatePostItController"><path codeLine="166" d="M1808.28,166.5 C1774.38,201.16 1731.86,244.61 1697.91,279.3 " fill="none" id="CreatePostItUI-CreatePostItController" style="stroke:#181818;stroke-width:1.0;stroke-dasharray:7.0,7.0;"/></g><!--link CreatePostItController to RepositoryFactory--><g id="link_CreatePostItController_RepositoryFactory"><path codeLine="168" d="M1757.38,348.35 C1850.04,358.55 1978.73,383.78 2074,446 C2116.48,473.74 2148.08,525.71 2163.82,555.81 " fill="none" id="CreatePostItController-RepositoryFactory" style="stroke:#181818;stroke-width:1.0;stroke-dasharray:7.0,7.0;"/></g><!--link CreatePostItController to BoardRepsitory--><g id="link_CreatePostItController_BoardRepsitory"><path codeLine="169" d="M1520.68,347.8 C1339.17,360.33 983.07,396.29 698,495 C672.42,503.86 645.77,515.8 621.43,527.9 " fill="none" id="CreatePostItController-BoardRepsitory" style="stroke:#181818;stroke-width:1.0;stroke-dasharray:7.0,7.0;"/></g><!--link CreatePostItController to PostItRepository--><g id="link_CreatePostItController_PostItRepository"><path codeLine="170" d="M1520.8,342.56 C1362.38,348.79 1076.94,377.18 868,495 C845.05,507.94 823.95,528.72 808.51,546.37 " fill="none" id="CreatePostItController-PostItRepository" style="stroke:#181818;stroke-width:1.0;stroke-dasharray:7.0,7.0;"/></g><!--link CreatePostItController to UserRepsitory--><g id="link_CreatePostItController_UserRepsitory"><path codeLine="171" d="M1731.87,401.52 C1771.2,428.43 1816.68,461.6 1855,495 C1876.73,513.94 1899.01,538.15 1914.35,555.71 " fill="none" id="CreatePostItController-UserRepsitory" style="stroke:#181818;stroke-width:1.0;stroke-dasharray:7.0,7.0;"/></g><!--link CreatePostItController to UserAccessBoardsService--><g id="link_CreatePostItController_UserAccessBoardsService"><path codeLine="172" d="M1757.06,366.69 C1936.15,404.91 2280.25,478.33 2512.99,528 " fill="none" id="CreatePostItController-UserAccessBoardsService" style="stroke:#181818;stroke-width:1.0;stroke-dasharray:7.0,7.0;"/></g><!--link CreatePostItController to CreatePostItService--><g id="link_CreatePostItController_CreatePostItService"><path codeLine="173" d="M1586.5,401.74 C1560.51,431.56 1528.79,467.94 1500.88,499.97 " fill="none" id="CreatePostItController-CreatePostItService" style="stroke:#181818;stroke-width:1.0;stroke-dasharray:7.0,7.0;"/></g><!--link CreatePostItController to BoardPostIt--><g id="link_CreatePostItController_BoardPostIt"><path codeLine="174" d="M1520.87,348.18 C1387.3,360.48 1167.67,395.49 1008,495 C987.54,507.75 970.15,528.52 957.82,546.22 " fill="none" id="CreatePostItController-BoardPostIt" style="stroke:#181818;stroke-width:1.0;stroke-dasharray:7.0,7.0;"/></g><!--link CreatePostItController to SharedBoard--><g id="link_CreatePostItController_SharedBoard"><path codeLine="175" d="M1757.14,355.56 C1843.72,372.73 1955.59,410.78 2012,495 C2111.69,643.83 2020.76,879.66 1987.82,953.86 " fill="none" id="CreatePostItController-SharedBoard" style="stroke:#181818;stroke-width:1.0;stroke-dasharray:7.0,7.0;"/></g><!--link CreatePostItController to PostIt--><g id="link_CreatePostItController_PostIt"><path codeLine="176" d="M1520.81,343.39 C1242.58,349.76 555.21,377.31 362,495 C355.83,498.76 350.17,503.47 345.02,508.73 " fill="none" id="CreatePostItController-PostIt" style="stroke:#181818;stroke-width:1.0;stroke-dasharray:7.0,7.0;"/></g><!--link UserAccessBoardsService to ShareBoardRepsitory--><g id="link_UserAccessBoardsService_ShareBoardRepsitory"><path codeLine="178" d="M2718.84,632.08 C2690.57,675.62 2651.24,736.19 2630.01,768.88 " fill="none" id="UserAccessBoardsService-ShareBoardRepsitory" style="stroke:#181818;stroke-width:1.0;stroke-dasharray:7.0,7.0;"/></g><!--link UserAccessBoardsService to SharedBoard--><g id="link_UserAccessBoardsService_SharedBoard"><path codeLine="179" d="M2761.16,632.09 C2768.51,690.82 2770.17,786.26 2717,842 C2623.2,940.33 2192.81,968.01 2035.12,974.92 " fill="none" id="UserAccessBoardsService-SharedBoard" style="stroke:#181818;stroke-width:1.0;stroke-dasharray:7.0,7.0;"/></g><!--SRC=[lLTBR-Cs4BxpLn0vELaxsErHC0GaZhSriCqkrarxwOMMc9W59ReaPTT8-zyxV4YadavGe3au6iutmu-SuGofnG5hWNT2Qr7Wd4cQQIPAX39EbC8hIOcctuJI6_sqmQy8mzy7_4BrawBoNX2PgzbrWhymfPTMVD0Y3IWxDDkPtqr-xSUpoEdi6YVOVOAb1oXohDK7- -yQ_JF4Q2LABGNdLFvNPWcsyY3113iI4RdjdaZgF6GYfn4zC_bTbb6b78KjbKUMqORVCojpf_dwRB2pTK4Olyjp2IQO6c7kk7odC2tJGfwnXCyvfYjHIKMDLQIhMc9hmUd8dBz9fkd_C77ObO3xJ39h_Og2jfxLEsvl5JMyVs9VJsKJJRlx-S0IFTRff-0cXY4h6o8kuj4QNsDyb8enSRnSIY5qci87BJNJP_XqXZUO6NLLiZyhQW6aWcD6DCi8vsT8mv9AoBGyJJr-9oJ97qb1lLoGlxwBamhIIl2gA5Lq7YZdmpFxZmmE2MWZ2-lY3NO6zWlJcjFMK1HMSRheHefJomV8tGs_i8EHOOj6UtbE4gVIf6cyMAi6pqV2Auh5xW-eS97_tlROe7fYTVnb1Tbd0-z1sxFIj31JnUJNNV9H90ssD68paJzM5rq5Y_h8KWd2SlbhQqKXA9mESTbgoSeNtEPWfjrgeYjbzxug6eCFUFruT_zbxOM7pTPA8NJmSn8s_O-3FEuoASfpCQf_t7mUrTqpgVSFS3964J_JR4zAyIB9OS-onwhOsVth17dgm7b7FyA16v-cK_FghI5vRektgO69hOHrRvEq44SwedIzoofTD1ByN75kicIEcv6zaDeD_LvY6yu4af-3REEVrCMwZi0S7_nNFO-2GfZjkoGIkvfw1LnJ6Q8_U-gHrK8JxZRMjGtRJbbPzq4EjJNaRkYrHag7-tMx6TxqsiskBSUe5KJxXQekk3ViRTP7EDFVgXsGt4DY7EglLY1Qf6ONoCpVnsFmhkEFe6iaK3pheFiHLvXxWxO-DQE-Qyq7oeUDti1rAkQmFPVPhEiAWXgJ2k8qet46xZ9bwcMaN2nIVFNfgbN5XlHrNW_fp6b0g3znhGz34o3hP5mTJiK4o5Ut2GJKjmbjK-4cC4CrRWBkAbc2bQvoq_BsH662qp6B6zYjS3C2E-YTwXrmPINpU5XEsFX6clWalCIeWLU7_3tmd79w6LvV1jxA9k3VHYVWOpx8xPW9qM81_svlV_XurToT4Xkdj0_wzF4glgeDu-8zS7eKsImMVwVsWeZgsS88ydR6XVSKRGzy4MRJeG_hhz_dpX8D7StRsyuh4dKUbHr0UDGXDFBO0ulUYs82stvVJ02xz_y9gByOl0aty1wSi1ZeJPVMvXGJgEZaNbm-GcDlsDfHPpylmVsy2FqB]--></g></svg>