<?xml version="1.0" encoding="us-ascii" standalone="no"?><svg xmlns="http://www.w3.org/2000/svg" xmlns:xlink="http://www.w3.org/1999/xlink" contentStyleType="text/css" height="704px" preserveAspectRatio="none" style="width:2327px;height:704px;background:#FFFFFF;" version="1.1" viewBox="0 0 2327 704" width="2327px" zoomAndPan="magnify"><defs/><g><!--cluster ECOURSESYSTEMUSER--><g id="cluster_ECOURSESYSTEMUSER"><path d="M8.5,43.0137 L173.5,43.0137 A3.75,3.75 0 0 1 176,45.5137 L183,67.6348 L1115.5,67.6348 A2.5,2.5 0 0 1 1118,70.1348 L1118,685.0137 A2.5,2.5 0 0 1 1115.5,687.5137 L8.5,687.5137 A2.5,2.5 0 0 1 6,685.0137 L6,45.5137 A2.5,2.5 0 0 1 8.5,43.0137 " fill="none" style="stroke:#000000;stroke-width:1.5;"/><line style="stroke:#000000;stroke-width:1.5;" x1="6" x2="183" y1="67.6348" y2="67.6348"/><text fill="#000000" font-family="sans-serif" font-size="14" font-weight="bold" lengthAdjust="spacing" textLength="164" x="10" y="60.1211">ECOURSESYSTEMUSER</text><text fill="#000000" font-family="sans-serif" font-size="14" font-style="italic" lengthAdjust="spacing" textLength="82" x="525" y="84.7422">&#171;Aggregate&#187;</text></g><!--cluster SHAREBOARD--><g id="cluster_SHAREBOARD"><path d="M2018.5,6.0137 L2116.5,6.0137 A3.75,3.75 0 0 1 2119,8.5137 L2126,30.6348 L2317.5,30.6348 A2.5,2.5 0 0 1 2320,33.1348 L2320,694.5137 A2.5,2.5 0 0 1 2317.5,697.0137 L2018.5,697.0137 A2.5,2.5 0 0 1 2016,694.5137 L2016,8.5137 A2.5,2.5 0 0 1 2018.5,6.0137 " fill="none" style="stroke:#000000;stroke-width:1.5;"/><line style="stroke:#000000;stroke-width:1.5;" x1="2016" x2="2126" y1="30.6348" y2="30.6348"/><text fill="#000000" font-family="sans-serif" font-size="14" font-weight="bold" lengthAdjust="spacing" textLength="97" x="2020" y="23.1211">SHAREBOARD</text><text fill="#000000" font-family="sans-serif" font-size="14" font-style="italic" lengthAdjust="spacing" textLength="81" x="2131.5" y="47.7422">&#171;aggregate&#187;</text></g><!--cluster Post-It--><g id="cluster_Post-It"><path d="M1487.5,278.0137 L1533.5,278.0137 A3.75,3.75 0 0 1 1536,280.5137 L1543,302.6348 L1624.5,302.6348 A2.5,2.5 0 0 1 1627,305.1348 L1627,685.0137 A2.5,2.5 0 0 1 1624.5,687.5137 L1487.5,687.5137 A2.5,2.5 0 0 1 1485,685.0137 L1485,280.5137 A2.5,2.5 0 0 1 1487.5,278.0137 " fill="none" style="stroke:#000000;stroke-width:1.5;"/><line style="stroke:#000000;stroke-width:1.5;" x1="1485" x2="1543" y1="302.6348" y2="302.6348"/><text fill="#000000" font-family="sans-serif" font-size="14" font-weight="bold" lengthAdjust="spacing" textLength="45" x="1489" y="295.1211">Post-It</text><text fill="#000000" font-family="sans-serif" font-size="14" font-style="italic" lengthAdjust="spacing" textLength="81" x="1519.5" y="319.7422">&#171;agreggate&#187;</text></g><!--class SystemUser--><g id="elem_SystemUser"><rect codeLine="6" fill="#F1F1F1" height="113.7852" id="SystemUser" rx="2.5" ry="2.5" style="stroke:#181818;stroke-width:0.5;" width="107" x="994.5" y="362.0137"/><ellipse cx="1009.5" cy="392.2852" fill="#ADD1B2" rx="11" ry="11" style="stroke:#181818;stroke-width:1.0;"/><path d="M1012.2656,388.1602 Q1012.4219,387.9414 1012.6094,387.832 Q1012.7969,387.7227 1013.0156,387.7227 Q1013.3906,387.7227 1013.625,387.9883 Q1013.8594,388.2383 1013.8594,388.8477 L1013.8594,390.3008 Q1013.8594,390.9102 1013.625,391.1758 Q1013.3906,391.4414 1013.0156,391.4414 Q1012.6719,391.4414 1012.4688,391.2383 Q1012.2656,391.0508 1012.1563,390.5352 Q1012.1094,390.1758 1011.9219,389.9883 Q1011.5938,389.6133 1010.9844,389.3945 Q1010.375,389.1758 1009.75,389.1758 Q1008.9844,389.1758 1008.3438,389.5039 Q1007.7188,389.832 1007.2188,390.582 Q1006.7344,391.332 1006.7344,392.3633 L1006.7344,393.457 Q1006.7344,394.6914 1007.625,395.5195 Q1008.5156,396.332 1010.1094,396.332 Q1011.0469,396.332 1011.7031,396.082 Q1012.0938,395.9258 1012.5156,395.4883 Q1012.7813,395.2227 1012.9219,395.1445 Q1013.0781,395.0664 1013.2813,395.0664 Q1013.6094,395.0664 1013.8594,395.332 Q1014.125,395.582 1014.125,395.9258 Q1014.125,396.2695 1013.7813,396.6758 Q1013.2813,397.2539 1012.4844,397.582 Q1011.4063,398.0352 1010.1094,398.0352 Q1008.5938,398.0352 1007.3906,397.4102 Q1006.4063,396.9102 1005.7188,395.8477 Q1005.0313,394.7695 1005.0313,393.4883 L1005.0313,392.332 Q1005.0313,391.0039 1005.6406,389.8633 Q1006.2656,388.707 1007.3594,388.0977 Q1008.4531,387.4727 1009.6875,387.4727 Q1010.4219,387.4727 1011.0625,387.6445 Q1011.7188,387.8008 1012.2656,388.1602 Z " fill="#000000"/><text fill="#000000" font-family="sans-serif" font-size="12" font-style="italic" lengthAdjust="spacing" textLength="35" x="1043.5" y="379.9629">&#171;root&#187;</text><text fill="#000000" font-family="sans-serif" font-size="12" font-style="italic" lengthAdjust="spacing" textLength="44" x="1039" y="395.9238">&#171;Entity&#187;</text><text fill="#000000" font-family="sans-serif" font-size="14" lengthAdjust="spacing" textLength="75" x="1023.5" y="414.043">SystemUser</text><line style="stroke:#181818;stroke-width:0.5;" x1="995.5" x2="1100.5" y1="422.5566" y2="422.5566"/><ellipse cx="1005.5" cy="437.3672" fill="#000000" rx="3" ry="3" style="stroke:#000000;stroke-width:1.0;"/><text fill="#000000" font-family="sans-serif" font-size="14" lengthAdjust="spacing" textLength="36" x="1014.5" y="441.6641">Name</text><ellipse cx="1005.5" cy="455.9883" fill="#000000" rx="3" ry="3" style="stroke:#000000;stroke-width:1.0;"/><text fill="#000000" font-family="sans-serif" font-size="14" lengthAdjust="spacing" textLength="64" x="1014.5" y="460.2852">Username</text><line style="stroke:#181818;stroke-width:0.5;" x1="995.5" x2="1100.5" y1="467.7988" y2="467.7988"/></g><!--class eCourseSystemUser--><g id="elem_eCourseSystemUser"><rect codeLine="11" fill="#F1F1F1" height="76.543" id="eCourseSystemUser" rx="2.5" ry="2.5" style="stroke:#181818;stroke-width:0.5;" width="161" x="932.5" y="99.0137"/><ellipse cx="947.5" cy="129.2852" fill="#ADD1B2" rx="11" ry="11" style="stroke:#181818;stroke-width:1.0;"/><path d="M950.2656,125.1602 Q950.4219,124.9414 950.6094,124.832 Q950.7969,124.7227 951.0156,124.7227 Q951.3906,124.7227 951.625,124.9883 Q951.8594,125.2383 951.8594,125.8477 L951.8594,127.3008 Q951.8594,127.9102 951.625,128.1758 Q951.3906,128.4414 951.0156,128.4414 Q950.6719,128.4414 950.4688,128.2383 Q950.2656,128.0508 950.1563,127.5352 Q950.1094,127.1758 949.9219,126.9883 Q949.5938,126.6133 948.9844,126.3945 Q948.375,126.1758 947.75,126.1758 Q946.9844,126.1758 946.3438,126.5039 Q945.7188,126.832 945.2188,127.582 Q944.7344,128.332 944.7344,129.3633 L944.7344,130.457 Q944.7344,131.6914 945.625,132.5195 Q946.5156,133.332 948.1094,133.332 Q949.0469,133.332 949.7031,133.082 Q950.0938,132.9258 950.5156,132.4883 Q950.7813,132.2227 950.9219,132.1445 Q951.0781,132.0664 951.2813,132.0664 Q951.6094,132.0664 951.8594,132.332 Q952.125,132.582 952.125,132.9258 Q952.125,133.2695 951.7813,133.6758 Q951.2813,134.2539 950.4844,134.582 Q949.4063,135.0352 948.1094,135.0352 Q946.5938,135.0352 945.3906,134.4102 Q944.4063,133.9102 943.7188,132.8477 Q943.0313,131.7695 943.0313,130.4883 L943.0313,129.332 Q943.0313,128.0039 943.6406,126.8633 Q944.2656,125.707 945.3594,125.0977 Q946.4531,124.4727 947.6875,124.4727 Q948.4219,124.4727 949.0625,124.6445 Q949.7188,124.8008 950.2656,125.1602 Z " fill="#000000"/><text fill="#000000" font-family="sans-serif" font-size="12" font-style="italic" lengthAdjust="spacing" textLength="35" x="1008.5" y="116.9629">&#171;root&#187;</text><text fill="#000000" font-family="sans-serif" font-size="12" font-style="italic" lengthAdjust="spacing" textLength="44" x="1004" y="132.9238">&#171;Entity&#187;</text><text fill="#000000" font-family="sans-serif" font-size="14" lengthAdjust="spacing" textLength="129" x="961.5" y="151.043">eCourseSystemUser</text><line style="stroke:#181818;stroke-width:0.5;" x1="933.5" x2="1092.5" y1="159.5566" y2="159.5566"/><line style="stroke:#181818;stroke-width:0.5;" x1="933.5" x2="1092.5" y1="167.5566" y2="167.5566"/></g><!--class EmailAdderss--><g id="elem_EmailAdderss"><rect codeLine="15" fill="#F1F1F1" height="60.582" id="EmailAdderss" rx="2.5" ry="2.5" style="stroke:#181818;stroke-width:0.5;" width="118" x="839" y="601.5137"/><ellipse cx="854" cy="623.8047" fill="#ADD1B2" rx="11" ry="11" style="stroke:#181818;stroke-width:1.0;"/><path d="M856.7656,619.6797 Q856.9219,619.4609 857.1094,619.3516 Q857.2969,619.2422 857.5156,619.2422 Q857.8906,619.2422 858.125,619.5078 Q858.3594,619.7578 858.3594,620.3672 L858.3594,621.8203 Q858.3594,622.4297 858.125,622.6953 Q857.8906,622.9609 857.5156,622.9609 Q857.1719,622.9609 856.9688,622.7578 Q856.7656,622.5703 856.6563,622.0547 Q856.6094,621.6953 856.4219,621.5078 Q856.0938,621.1328 855.4844,620.9141 Q854.875,620.6953 854.25,620.6953 Q853.4844,620.6953 852.8438,621.0234 Q852.2188,621.3516 851.7188,622.1016 Q851.2344,622.8516 851.2344,623.8828 L851.2344,624.9766 Q851.2344,626.2109 852.125,627.0391 Q853.0156,627.8516 854.6094,627.8516 Q855.5469,627.8516 856.2031,627.6016 Q856.5938,627.4453 857.0156,627.0078 Q857.2813,626.7422 857.4219,626.6641 Q857.5781,626.5859 857.7813,626.5859 Q858.1094,626.5859 858.3594,626.8516 Q858.625,627.1016 858.625,627.4453 Q858.625,627.7891 858.2813,628.1953 Q857.7813,628.7734 856.9844,629.1016 Q855.9063,629.5547 854.6094,629.5547 Q853.0938,629.5547 851.8906,628.9297 Q850.9063,628.4297 850.2188,627.3672 Q849.5313,626.2891 849.5313,625.0078 L849.5313,623.8516 Q849.5313,622.5234 850.1406,621.3828 Q850.7656,620.2266 851.8594,619.6172 Q852.9531,618.9922 854.1875,618.9922 Q854.9219,618.9922 855.5625,619.1641 Q856.2188,619.3203 856.7656,619.6797 Z " fill="#000000"/><text fill="#000000" font-family="sans-serif" font-size="12" font-style="italic" lengthAdjust="spacing" textLength="83" x="869.5" y="619.4629">&#171;Value object&#187;</text><text fill="#000000" font-family="sans-serif" font-size="14" lengthAdjust="spacing" textLength="86" x="868" y="637.582">EmailAdderss</text><line style="stroke:#181818;stroke-width:0.5;" x1="840" x2="956" y1="646.0957" y2="646.0957"/><line style="stroke:#181818;stroke-width:0.5;" x1="840" x2="956" y1="654.0957" y2="654.0957"/></g><!--class Role--><g id="elem_Role"><rect codeLine="17" fill="#F1F1F1" height="79.2031" id="Role" rx="2.5" ry="2.5" style="stroke:#181818;stroke-width:0.5;" width="102" x="702" y="592.5137"/><ellipse cx="730.5" cy="614.8047" fill="#ADD1B2" rx="11" ry="11" style="stroke:#181818;stroke-width:1.0;"/><path d="M733.2656,610.6797 Q733.4219,610.4609 733.6094,610.3516 Q733.7969,610.2422 734.0156,610.2422 Q734.3906,610.2422 734.625,610.5078 Q734.8594,610.7578 734.8594,611.3672 L734.8594,612.8203 Q734.8594,613.4297 734.625,613.6953 Q734.3906,613.9609 734.0156,613.9609 Q733.6719,613.9609 733.4688,613.7578 Q733.2656,613.5703 733.1563,613.0547 Q733.1094,612.6953 732.9219,612.5078 Q732.5938,612.1328 731.9844,611.9141 Q731.375,611.6953 730.75,611.6953 Q729.9844,611.6953 729.3438,612.0234 Q728.7188,612.3516 728.2188,613.1016 Q727.7344,613.8516 727.7344,614.8828 L727.7344,615.9766 Q727.7344,617.2109 728.625,618.0391 Q729.5156,618.8516 731.1094,618.8516 Q732.0469,618.8516 732.7031,618.6016 Q733.0938,618.4453 733.5156,618.0078 Q733.7813,617.7422 733.9219,617.6641 Q734.0781,617.5859 734.2813,617.5859 Q734.6094,617.5859 734.8594,617.8516 Q735.125,618.1016 735.125,618.4453 Q735.125,618.7891 734.7813,619.1953 Q734.2813,619.7734 733.4844,620.1016 Q732.4063,620.5547 731.1094,620.5547 Q729.5938,620.5547 728.3906,619.9297 Q727.4063,619.4297 726.7188,618.3672 Q726.0313,617.2891 726.0313,616.0078 L726.0313,614.8516 Q726.0313,613.5234 726.6406,612.3828 Q727.2656,611.2266 728.3594,610.6172 Q729.4531,609.9922 730.6875,609.9922 Q731.4219,609.9922 732.0625,610.1641 Q732.7188,610.3203 733.2656,610.6797 Z " fill="#000000"/><text fill="#000000" font-family="sans-serif" font-size="12" font-style="italic" lengthAdjust="spacing" textLength="44" x="745.5" y="610.4629">&#171;Entity&#187;</text><text fill="#000000" font-family="sans-serif" font-size="14" lengthAdjust="spacing" textLength="29" x="753" y="628.582">Role</text><line style="stroke:#181818;stroke-width:0.5;" x1="703" x2="803" y1="637.0957" y2="637.0957"/><ellipse cx="713" cy="651.9063" fill="#000000" rx="3" ry="3" style="stroke:#000000;stroke-width:1.0;"/><text fill="#000000" font-family="sans-serif" font-size="14" lengthAdjust="spacing" textLength="76" x="722" y="656.2031">String name</text><line style="stroke:#181818;stroke-width:0.5;" x1="703" x2="803" y1="663.7168" y2="663.7168"/></g><!--class UserStatus--><g id="elem_UserStatus"><rect codeLine="21" fill="#F1F1F1" height="97.8242" id="UserStatus" rx="2.5" ry="2.5" style="stroke:#181818;stroke-width:0.5;" width="101" x="22.5" y="370.0137"/><ellipse cx="37.5" cy="392.3047" fill="#ADD1B2" rx="11" ry="11" style="stroke:#181818;stroke-width:1.0;"/><path d="M40.2656,388.1797 Q40.4219,387.9609 40.6094,387.8516 Q40.7969,387.7422 41.0156,387.7422 Q41.3906,387.7422 41.625,388.0078 Q41.8594,388.2578 41.8594,388.8672 L41.8594,390.3203 Q41.8594,390.9297 41.625,391.1953 Q41.3906,391.4609 41.0156,391.4609 Q40.6719,391.4609 40.4688,391.2578 Q40.2656,391.0703 40.1563,390.5547 Q40.1094,390.1953 39.9219,390.0078 Q39.5938,389.6328 38.9844,389.4141 Q38.375,389.1953 37.75,389.1953 Q36.9844,389.1953 36.3438,389.5234 Q35.7188,389.8516 35.2188,390.6016 Q34.7344,391.3516 34.7344,392.3828 L34.7344,393.4766 Q34.7344,394.7109 35.625,395.5391 Q36.5156,396.3516 38.1094,396.3516 Q39.0469,396.3516 39.7031,396.1016 Q40.0938,395.9453 40.5156,395.5078 Q40.7813,395.2422 40.9219,395.1641 Q41.0781,395.0859 41.2813,395.0859 Q41.6094,395.0859 41.8594,395.3516 Q42.125,395.6016 42.125,395.9453 Q42.125,396.2891 41.7813,396.6953 Q41.2813,397.2734 40.4844,397.6016 Q39.4063,398.0547 38.1094,398.0547 Q36.5938,398.0547 35.3906,397.4297 Q34.4063,396.9297 33.7188,395.8672 Q33.0313,394.7891 33.0313,393.5078 L33.0313,392.3516 Q33.0313,391.0234 33.6406,389.8828 Q34.2656,388.7266 35.3594,388.1172 Q36.4531,387.4922 37.6875,387.4922 Q38.4219,387.4922 39.0625,387.6641 Q39.7188,387.8203 40.2656,388.1797 Z " fill="#000000"/><text fill="#000000" font-family="sans-serif" font-size="12" font-style="italic" lengthAdjust="spacing" textLength="46" x="63" y="387.9629">&#171;enum&#187;</text><text fill="#000000" font-family="sans-serif" font-size="14" lengthAdjust="spacing" textLength="69" x="51.5" y="406.082">UserStatus</text><line style="stroke:#181818;stroke-width:0.5;" x1="23.5" x2="122.5" y1="414.5957" y2="414.5957"/><ellipse cx="33.5" cy="429.4063" fill="none" rx="3" ry="3" style="stroke:#038048;stroke-width:1.0;"/><text fill="#000000" font-family="sans-serif" font-size="14" lengthAdjust="spacing" textLength="53" x="42.5" y="433.7031">ENABLE</text><ellipse cx="33.5" cy="448.0273" fill="none" rx="3" ry="3" style="stroke:#038048;stroke-width:1.0;"/><text fill="#000000" font-family="sans-serif" font-size="14" lengthAdjust="spacing" textLength="57" x="42.5" y="452.3242">DISABLE</text><line style="stroke:#181818;stroke-width:0.5;" x1="23.5" x2="122.5" y1="459.8379" y2="459.8379"/></g><!--class Password--><g id="elem_Password"><rect codeLine="26" fill="#F1F1F1" height="60.582" id="Password" rx="2.5" ry="2.5" style="stroke:#181818;stroke-width:0.5;" width="109" x="992.5" y="601.5137"/><ellipse cx="1007.5" cy="623.8047" fill="#ADD1B2" rx="11" ry="11" style="stroke:#181818;stroke-width:1.0;"/><path d="M1010.2656,619.6797 Q1010.4219,619.4609 1010.6094,619.3516 Q1010.7969,619.2422 1011.0156,619.2422 Q1011.3906,619.2422 1011.625,619.5078 Q1011.8594,619.7578 1011.8594,620.3672 L1011.8594,621.8203 Q1011.8594,622.4297 1011.625,622.6953 Q1011.3906,622.9609 1011.0156,622.9609 Q1010.6719,622.9609 1010.4688,622.7578 Q1010.2656,622.5703 1010.1563,622.0547 Q1010.1094,621.6953 1009.9219,621.5078 Q1009.5938,621.1328 1008.9844,620.9141 Q1008.375,620.6953 1007.75,620.6953 Q1006.9844,620.6953 1006.3438,621.0234 Q1005.7188,621.3516 1005.2188,622.1016 Q1004.7344,622.8516 1004.7344,623.8828 L1004.7344,624.9766 Q1004.7344,626.2109 1005.625,627.0391 Q1006.5156,627.8516 1008.1094,627.8516 Q1009.0469,627.8516 1009.7031,627.6016 Q1010.0938,627.4453 1010.5156,627.0078 Q1010.7813,626.7422 1010.9219,626.6641 Q1011.0781,626.5859 1011.2813,626.5859 Q1011.6094,626.5859 1011.8594,626.8516 Q1012.125,627.1016 1012.125,627.4453 Q1012.125,627.7891 1011.7813,628.1953 Q1011.2813,628.7734 1010.4844,629.1016 Q1009.4063,629.5547 1008.1094,629.5547 Q1006.5938,629.5547 1005.3906,628.9297 Q1004.4063,628.4297 1003.7188,627.3672 Q1003.0313,626.2891 1003.0313,625.0078 L1003.0313,623.8516 Q1003.0313,622.5234 1003.6406,621.3828 Q1004.2656,620.2266 1005.3594,619.6172 Q1006.4531,618.9922 1007.6875,618.9922 Q1008.4219,618.9922 1009.0625,619.1641 Q1009.7188,619.3203 1010.2656,619.6797 Z " fill="#000000"/><text fill="#000000" font-family="sans-serif" font-size="12" font-style="italic" lengthAdjust="spacing" textLength="81" x="1019.5" y="619.4629">&#171;value object&#187;</text><text fill="#000000" font-family="sans-serif" font-size="14" lengthAdjust="spacing" textLength="61" x="1029.5" y="637.582">Password</text><line style="stroke:#181818;stroke-width:0.5;" x1="993.5" x2="1100.5" y1="646.0957" y2="646.0957"/><line style="stroke:#181818;stroke-width:0.5;" x1="993.5" x2="1100.5" y1="654.0957" y2="654.0957"/></g><!--class Acronym--><g id="elem_Acronym"><rect codeLine="28" fill="#F1F1F1" height="60.582" id="Acronym" rx="2.5" ry="2.5" style="stroke:#181818;stroke-width:0.5;" width="109" x="158.5" y="388.5137"/><ellipse cx="173.5" cy="410.8047" fill="#ADD1B2" rx="11" ry="11" style="stroke:#181818;stroke-width:1.0;"/><path d="M176.2656,406.6797 Q176.4219,406.4609 176.6094,406.3516 Q176.7969,406.2422 177.0156,406.2422 Q177.3906,406.2422 177.625,406.5078 Q177.8594,406.7578 177.8594,407.3672 L177.8594,408.8203 Q177.8594,409.4297 177.625,409.6953 Q177.3906,409.9609 177.0156,409.9609 Q176.6719,409.9609 176.4688,409.7578 Q176.2656,409.5703 176.1563,409.0547 Q176.1094,408.6953 175.9219,408.5078 Q175.5938,408.1328 174.9844,407.9141 Q174.375,407.6953 173.75,407.6953 Q172.9844,407.6953 172.3438,408.0234 Q171.7188,408.3516 171.2188,409.1016 Q170.7344,409.8516 170.7344,410.8828 L170.7344,411.9766 Q170.7344,413.2109 171.625,414.0391 Q172.5156,414.8516 174.1094,414.8516 Q175.0469,414.8516 175.7031,414.6016 Q176.0938,414.4453 176.5156,414.0078 Q176.7813,413.7422 176.9219,413.6641 Q177.0781,413.5859 177.2813,413.5859 Q177.6094,413.5859 177.8594,413.8516 Q178.125,414.1016 178.125,414.4453 Q178.125,414.7891 177.7813,415.1953 Q177.2813,415.7734 176.4844,416.1016 Q175.4063,416.5547 174.1094,416.5547 Q172.5938,416.5547 171.3906,415.9297 Q170.4063,415.4297 169.7188,414.3672 Q169.0313,413.2891 169.0313,412.0078 L169.0313,410.8516 Q169.0313,409.5234 169.6406,408.3828 Q170.2656,407.2266 171.3594,406.6172 Q172.4531,405.9922 173.6875,405.9922 Q174.4219,405.9922 175.0625,406.1641 Q175.7188,406.3203 176.2656,406.6797 Z " fill="#000000"/><text fill="#000000" font-family="sans-serif" font-size="12" font-style="italic" lengthAdjust="spacing" textLength="81" x="185.5" y="406.4629">&#171;value object&#187;</text><text fill="#000000" font-family="sans-serif" font-size="14" lengthAdjust="spacing" textLength="55" x="198.5" y="424.582">Acronym</text><line style="stroke:#181818;stroke-width:0.5;" x1="159.5" x2="266.5" y1="433.0957" y2="433.0957"/><line style="stroke:#181818;stroke-width:0.5;" x1="159.5" x2="266.5" y1="441.0957" y2="441.0957"/></g><!--class NIF--><g id="elem_NIF"><rect codeLine="30" fill="#F1F1F1" height="60.582" id="NIF" rx="2.5" ry="2.5" style="stroke:#181818;stroke-width:0.5;" width="109" x="302.5" y="388.5137"/><ellipse cx="317.5" cy="410.8047" fill="#ADD1B2" rx="11" ry="11" style="stroke:#181818;stroke-width:1.0;"/><path d="M320.2656,406.6797 Q320.4219,406.4609 320.6094,406.3516 Q320.7969,406.2422 321.0156,406.2422 Q321.3906,406.2422 321.625,406.5078 Q321.8594,406.7578 321.8594,407.3672 L321.8594,408.8203 Q321.8594,409.4297 321.625,409.6953 Q321.3906,409.9609 321.0156,409.9609 Q320.6719,409.9609 320.4688,409.7578 Q320.2656,409.5703 320.1563,409.0547 Q320.1094,408.6953 319.9219,408.5078 Q319.5938,408.1328 318.9844,407.9141 Q318.375,407.6953 317.75,407.6953 Q316.9844,407.6953 316.3438,408.0234 Q315.7188,408.3516 315.2188,409.1016 Q314.7344,409.8516 314.7344,410.8828 L314.7344,411.9766 Q314.7344,413.2109 315.625,414.0391 Q316.5156,414.8516 318.1094,414.8516 Q319.0469,414.8516 319.7031,414.6016 Q320.0938,414.4453 320.5156,414.0078 Q320.7813,413.7422 320.9219,413.6641 Q321.0781,413.5859 321.2813,413.5859 Q321.6094,413.5859 321.8594,413.8516 Q322.125,414.1016 322.125,414.4453 Q322.125,414.7891 321.7813,415.1953 Q321.2813,415.7734 320.4844,416.1016 Q319.4063,416.5547 318.1094,416.5547 Q316.5938,416.5547 315.3906,415.9297 Q314.4063,415.4297 313.7188,414.3672 Q313.0313,413.2891 313.0313,412.0078 L313.0313,410.8516 Q313.0313,409.5234 313.6406,408.3828 Q314.2656,407.2266 315.3594,406.6172 Q316.4531,405.9922 317.6875,405.9922 Q318.4219,405.9922 319.0625,406.1641 Q319.7188,406.3203 320.2656,406.6797 Z " fill="#000000"/><text fill="#000000" font-family="sans-serif" font-size="12" font-style="italic" lengthAdjust="spacing" textLength="81" x="329.5" y="406.4629">&#171;value object&#187;</text><text fill="#000000" font-family="sans-serif" font-size="14" lengthAdjust="spacing" textLength="21" x="359.5" y="424.582">NIF</text><line style="stroke:#181818;stroke-width:0.5;" x1="303.5" x2="410.5" y1="433.0957" y2="433.0957"/><line style="stroke:#181818;stroke-width:0.5;" x1="303.5" x2="410.5" y1="441.0957" y2="441.0957"/></g><!--class BirthDate--><g id="elem_BirthDate"><rect codeLine="32" fill="#F1F1F1" height="60.582" id="BirthDate" rx="2.5" ry="2.5" style="stroke:#181818;stroke-width:0.5;" width="109" x="446.5" y="388.5137"/><ellipse cx="461.5" cy="410.8047" fill="#ADD1B2" rx="11" ry="11" style="stroke:#181818;stroke-width:1.0;"/><path d="M464.2656,406.6797 Q464.4219,406.4609 464.6094,406.3516 Q464.7969,406.2422 465.0156,406.2422 Q465.3906,406.2422 465.625,406.5078 Q465.8594,406.7578 465.8594,407.3672 L465.8594,408.8203 Q465.8594,409.4297 465.625,409.6953 Q465.3906,409.9609 465.0156,409.9609 Q464.6719,409.9609 464.4688,409.7578 Q464.2656,409.5703 464.1563,409.0547 Q464.1094,408.6953 463.9219,408.5078 Q463.5938,408.1328 462.9844,407.9141 Q462.375,407.6953 461.75,407.6953 Q460.9844,407.6953 460.3438,408.0234 Q459.7188,408.3516 459.2188,409.1016 Q458.7344,409.8516 458.7344,410.8828 L458.7344,411.9766 Q458.7344,413.2109 459.625,414.0391 Q460.5156,414.8516 462.1094,414.8516 Q463.0469,414.8516 463.7031,414.6016 Q464.0938,414.4453 464.5156,414.0078 Q464.7813,413.7422 464.9219,413.6641 Q465.0781,413.5859 465.2813,413.5859 Q465.6094,413.5859 465.8594,413.8516 Q466.125,414.1016 466.125,414.4453 Q466.125,414.7891 465.7813,415.1953 Q465.2813,415.7734 464.4844,416.1016 Q463.4063,416.5547 462.1094,416.5547 Q460.5938,416.5547 459.3906,415.9297 Q458.4063,415.4297 457.7188,414.3672 Q457.0313,413.2891 457.0313,412.0078 L457.0313,410.8516 Q457.0313,409.5234 457.6406,408.3828 Q458.2656,407.2266 459.3594,406.6172 Q460.4531,405.9922 461.6875,405.9922 Q462.4219,405.9922 463.0625,406.1641 Q463.7188,406.3203 464.2656,406.6797 Z " fill="#000000"/><text fill="#000000" font-family="sans-serif" font-size="12" font-style="italic" lengthAdjust="spacing" textLength="81" x="473.5" y="406.4629">&#171;value object&#187;</text><text fill="#000000" font-family="sans-serif" font-size="14" lengthAdjust="spacing" textLength="59" x="484.5" y="424.582">BirthDate</text><line style="stroke:#181818;stroke-width:0.5;" x1="447.5" x2="554.5" y1="433.0957" y2="433.0957"/><line style="stroke:#181818;stroke-width:0.5;" x1="447.5" x2="554.5" y1="441.0957" y2="441.0957"/></g><!--class MechanographicNumber--><g id="elem_MechanographicNumber"><rect codeLine="34" fill="#F1F1F1" height="76.543" id="MechanographicNumber" rx="2.5" ry="2.5" style="stroke:#181818;stroke-width:0.5;" width="186" x="591" y="380.5137"/><ellipse cx="606" cy="410.7852" fill="#ADD1B2" rx="11" ry="11" style="stroke:#181818;stroke-width:1.0;"/><path d="M608.7656,406.6602 Q608.9219,406.4414 609.1094,406.332 Q609.2969,406.2227 609.5156,406.2227 Q609.8906,406.2227 610.125,406.4883 Q610.3594,406.7383 610.3594,407.3477 L610.3594,408.8008 Q610.3594,409.4102 610.125,409.6758 Q609.8906,409.9414 609.5156,409.9414 Q609.1719,409.9414 608.9688,409.7383 Q608.7656,409.5508 608.6563,409.0352 Q608.6094,408.6758 608.4219,408.4883 Q608.0938,408.1133 607.4844,407.8945 Q606.875,407.6758 606.25,407.6758 Q605.4844,407.6758 604.8438,408.0039 Q604.2188,408.332 603.7188,409.082 Q603.2344,409.832 603.2344,410.8633 L603.2344,411.957 Q603.2344,413.1914 604.125,414.0195 Q605.0156,414.832 606.6094,414.832 Q607.5469,414.832 608.2031,414.582 Q608.5938,414.4258 609.0156,413.9883 Q609.2813,413.7227 609.4219,413.6445 Q609.5781,413.5664 609.7813,413.5664 Q610.1094,413.5664 610.3594,413.832 Q610.625,414.082 610.625,414.4258 Q610.625,414.7695 610.2813,415.1758 Q609.7813,415.7539 608.9844,416.082 Q607.9063,416.5352 606.6094,416.5352 Q605.0938,416.5352 603.8906,415.9102 Q602.9063,415.4102 602.2188,414.3477 Q601.5313,413.2695 601.5313,411.9883 L601.5313,410.832 Q601.5313,409.5039 602.1406,408.3633 Q602.7656,407.207 603.8594,406.5977 Q604.9531,405.9727 606.1875,405.9727 Q606.9219,405.9727 607.5625,406.1445 Q608.2188,406.3008 608.7656,406.6602 Z " fill="#000000"/><text fill="#000000" font-family="sans-serif" font-size="12" font-style="italic" lengthAdjust="spacing" textLength="81" x="656.5" y="398.4629">&#171;value object&#187;</text><text fill="#000000" font-family="sans-serif" font-size="12" font-style="italic" lengthAdjust="spacing" textLength="146" x="624" y="414.4238">&#171;automatically generated&#187;</text><text fill="#000000" font-family="sans-serif" font-size="14" lengthAdjust="spacing" textLength="154" x="620" y="432.543">MechanographicNumber</text><line style="stroke:#181818;stroke-width:0.5;" x1="592" x2="776" y1="441.0566" y2="441.0566"/><line style="stroke:#181818;stroke-width:0.5;" x1="592" x2="776" y1="449.0566" y2="449.0566"/></g><!--class Grade--><g id="elem_Grade"><rect codeLine="36" fill="#F1F1F1" height="60.582" id="Grade" rx="2.5" ry="2.5" style="stroke:#181818;stroke-width:0.5;" width="109" x="812.5" y="388.5137"/><ellipse cx="827.5" cy="410.8047" fill="#ADD1B2" rx="11" ry="11" style="stroke:#181818;stroke-width:1.0;"/><path d="M830.2656,406.6797 Q830.4219,406.4609 830.6094,406.3516 Q830.7969,406.2422 831.0156,406.2422 Q831.3906,406.2422 831.625,406.5078 Q831.8594,406.7578 831.8594,407.3672 L831.8594,408.8203 Q831.8594,409.4297 831.625,409.6953 Q831.3906,409.9609 831.0156,409.9609 Q830.6719,409.9609 830.4688,409.7578 Q830.2656,409.5703 830.1563,409.0547 Q830.1094,408.6953 829.9219,408.5078 Q829.5938,408.1328 828.9844,407.9141 Q828.375,407.6953 827.75,407.6953 Q826.9844,407.6953 826.3438,408.0234 Q825.7188,408.3516 825.2188,409.1016 Q824.7344,409.8516 824.7344,410.8828 L824.7344,411.9766 Q824.7344,413.2109 825.625,414.0391 Q826.5156,414.8516 828.1094,414.8516 Q829.0469,414.8516 829.7031,414.6016 Q830.0938,414.4453 830.5156,414.0078 Q830.7813,413.7422 830.9219,413.6641 Q831.0781,413.5859 831.2813,413.5859 Q831.6094,413.5859 831.8594,413.8516 Q832.125,414.1016 832.125,414.4453 Q832.125,414.7891 831.7813,415.1953 Q831.2813,415.7734 830.4844,416.1016 Q829.4063,416.5547 828.1094,416.5547 Q826.5938,416.5547 825.3906,415.9297 Q824.4063,415.4297 823.7188,414.3672 Q823.0313,413.2891 823.0313,412.0078 L823.0313,410.8516 Q823.0313,409.5234 823.6406,408.3828 Q824.2656,407.2266 825.3594,406.6172 Q826.4531,405.9922 827.6875,405.9922 Q828.4219,405.9922 829.0625,406.1641 Q829.7188,406.3203 830.2656,406.6797 Z " fill="#000000"/><text fill="#000000" font-family="sans-serif" font-size="12" font-style="italic" lengthAdjust="spacing" textLength="81" x="839.5" y="406.4629">&#171;value object&#187;</text><text fill="#000000" font-family="sans-serif" font-size="14" lengthAdjust="spacing" textLength="40" x="860" y="424.582">Grade</text><line style="stroke:#181818;stroke-width:0.5;" x1="813.5" x2="920.5" y1="433.0957" y2="433.0957"/><line style="stroke:#181818;stroke-width:0.5;" x1="813.5" x2="920.5" y1="441.0957" y2="441.0957"/></g><!--class Board--><g id="elem_Board"><rect codeLine="42" fill="#F1F1F1" height="151.0273" id="Board" rx="2.5" ry="2.5" style="stroke:#181818;stroke-width:0.5;" width="271" x="2032.5" y="62.0137"/><ellipse cx="2144.25" cy="92.2852" fill="#ADD1B2" rx="11" ry="11" style="stroke:#181818;stroke-width:1.0;"/><path d="M2147.0156,88.1602 Q2147.1719,87.9414 2147.3594,87.832 Q2147.5469,87.7227 2147.7656,87.7227 Q2148.1406,87.7227 2148.375,87.9883 Q2148.6094,88.2383 2148.6094,88.8477 L2148.6094,90.3008 Q2148.6094,90.9102 2148.375,91.1758 Q2148.1406,91.4414 2147.7656,91.4414 Q2147.4219,91.4414 2147.2188,91.2383 Q2147.0156,91.0508 2146.9063,90.5352 Q2146.8594,90.1758 2146.6719,89.9883 Q2146.3438,89.6133 2145.7344,89.3945 Q2145.125,89.1758 2144.5,89.1758 Q2143.7344,89.1758 2143.0938,89.5039 Q2142.4688,89.832 2141.9688,90.582 Q2141.4844,91.332 2141.4844,92.3633 L2141.4844,93.457 Q2141.4844,94.6914 2142.375,95.5195 Q2143.2656,96.332 2144.8594,96.332 Q2145.7969,96.332 2146.4531,96.082 Q2146.8438,95.9258 2147.2656,95.4883 Q2147.5313,95.2227 2147.6719,95.1445 Q2147.8281,95.0664 2148.0313,95.0664 Q2148.3594,95.0664 2148.6094,95.332 Q2148.875,95.582 2148.875,95.9258 Q2148.875,96.2695 2148.5313,96.6758 Q2148.0313,97.2539 2147.2344,97.582 Q2146.1563,98.0352 2144.8594,98.0352 Q2143.3438,98.0352 2142.1406,97.4102 Q2141.1563,96.9102 2140.4688,95.8477 Q2139.7813,94.7695 2139.7813,93.4883 L2139.7813,92.332 Q2139.7813,91.0039 2140.3906,89.8633 Q2141.0156,88.707 2142.1094,88.0977 Q2143.2031,87.4727 2144.4375,87.4727 Q2145.1719,87.4727 2145.8125,87.6445 Q2146.4688,87.8008 2147.0156,88.1602 Z " fill="#000000"/><text fill="#000000" font-family="sans-serif" font-size="12" font-style="italic" lengthAdjust="spacing" textLength="35" x="2166.75" y="79.9629">&#171;root&#187;</text><text fill="#000000" font-family="sans-serif" font-size="12" font-style="italic" lengthAdjust="spacing" textLength="43" x="2162.75" y="95.9238">&#171;entity&#187;</text><text fill="#000000" font-family="sans-serif" font-size="14" lengthAdjust="spacing" textLength="38" x="2165.25" y="114.043">Board</text><line style="stroke:#181818;stroke-width:0.5;" x1="2033.5" x2="2302.5" y1="122.5566" y2="122.5566"/><ellipse cx="2043.5" cy="137.3672" fill="#000000" rx="3" ry="3" style="stroke:#000000;stroke-width:1.0;"/><text fill="#000000" font-family="sans-serif" font-size="14" lengthAdjust="spacing" textLength="245" x="2052.5" y="141.6641">id &#171;unique&#187; &#171;automatically generated&#187;</text><ellipse cx="2043.5" cy="155.9883" fill="#000000" rx="3" ry="3" style="stroke:#000000;stroke-width:1.0;"/><text fill="#000000" font-family="sans-serif" font-size="14" lengthAdjust="spacing" textLength="73" x="2052.5" y="160.2852">boradName</text><ellipse cx="2043.5" cy="174.6094" fill="#000000" rx="3" ry="3" style="stroke:#000000;stroke-width:1.0;"/><text fill="#000000" font-family="sans-serif" font-size="14" lengthAdjust="spacing" textLength="59" x="2052.5" y="178.9063">maxRows</text><ellipse cx="2043.5" cy="193.2305" fill="#000000" rx="3" ry="3" style="stroke:#000000;stroke-width:1.0;"/><text fill="#000000" font-family="sans-serif" font-size="14" lengthAdjust="spacing" textLength="80" x="2052.5" y="197.5273">maxColumns</text><line style="stroke:#181818;stroke-width:0.5;" x1="2033.5" x2="2302.5" y1="205.041" y2="205.041"/></g><!--class Cell--><g id="elem_Cell"><rect codeLine="49" fill="#F1F1F1" height="97.8242" id="Cell" rx="2.5" ry="2.5" style="stroke:#181818;stroke-width:0.5;" width="73" x="2116.5" y="583.0137"/><ellipse cx="2132.4" cy="605.3047" fill="#ADD1B2" rx="11" ry="11" style="stroke:#181818;stroke-width:1.0;"/><path d="M2135.1656,601.1797 Q2135.3219,600.9609 2135.5094,600.8516 Q2135.6969,600.7422 2135.9156,600.7422 Q2136.2906,600.7422 2136.525,601.0078 Q2136.7594,601.2578 2136.7594,601.8672 L2136.7594,603.3203 Q2136.7594,603.9297 2136.525,604.1953 Q2136.2906,604.4609 2135.9156,604.4609 Q2135.5719,604.4609 2135.3688,604.2578 Q2135.1656,604.0703 2135.0563,603.5547 Q2135.0094,603.1953 2134.8219,603.0078 Q2134.4938,602.6328 2133.8844,602.4141 Q2133.275,602.1953 2132.65,602.1953 Q2131.8844,602.1953 2131.2438,602.5234 Q2130.6188,602.8516 2130.1188,603.6016 Q2129.6344,604.3516 2129.6344,605.3828 L2129.6344,606.4766 Q2129.6344,607.7109 2130.525,608.5391 Q2131.4156,609.3516 2133.0094,609.3516 Q2133.9469,609.3516 2134.6031,609.1016 Q2134.9938,608.9453 2135.4156,608.5078 Q2135.6813,608.2422 2135.8219,608.1641 Q2135.9781,608.0859 2136.1813,608.0859 Q2136.5094,608.0859 2136.7594,608.3516 Q2137.025,608.6016 2137.025,608.9453 Q2137.025,609.2891 2136.6813,609.6953 Q2136.1813,610.2734 2135.3844,610.6016 Q2134.3063,611.0547 2133.0094,611.0547 Q2131.4938,611.0547 2130.2906,610.4297 Q2129.3063,609.9297 2128.6188,608.8672 Q2127.9313,607.7891 2127.9313,606.5078 L2127.9313,605.3516 Q2127.9313,604.0234 2128.5406,602.8828 Q2129.1656,601.7266 2130.2594,601.1172 Q2131.3531,600.4922 2132.5875,600.4922 Q2133.3219,600.4922 2133.9625,600.6641 Q2134.6188,600.8203 2135.1656,601.1797 Z " fill="#000000"/><text fill="#000000" font-family="sans-serif" font-size="12" font-style="italic" lengthAdjust="spacing" textLength="43" x="2144.6" y="600.9629">&#171;entity&#187;</text><text fill="#000000" font-family="sans-serif" font-size="14" lengthAdjust="spacing" textLength="24" x="2154.1" y="619.082">Cell</text><line style="stroke:#181818;stroke-width:0.5;" x1="2117.5" x2="2188.5" y1="627.5957" y2="627.5957"/><ellipse cx="2127.5" cy="642.4063" fill="#000000" rx="3" ry="3" style="stroke:#000000;stroke-width:1.0;"/><text fill="#000000" font-family="sans-serif" font-size="14" lengthAdjust="spacing" textLength="11" x="2136.5" y="646.7031">id</text><ellipse cx="2127.5" cy="661.0273" fill="#000000" rx="3" ry="3" style="stroke:#000000;stroke-width:1.0;"/><text fill="#000000" font-family="sans-serif" font-size="14" lengthAdjust="spacing" textLength="47" x="2136.5" y="665.3242">content</text><line style="stroke:#181818;stroke-width:0.5;" x1="2117.5" x2="2188.5" y1="672.8379" y2="672.8379"/></g><!--class ColumnCell--><g id="elem_ColumnCell"><rect codeLine="54" fill="#F1F1F1" height="116.4453" id="ColumnCell" rx="2.5" ry="2.5" style="stroke:#181818;stroke-width:0.5;" width="104" x="2037" y="361.0137"/><ellipse cx="2052" cy="383.3047" fill="#ADD1B2" rx="11" ry="11" style="stroke:#181818;stroke-width:1.0;"/><path d="M2054.7656,379.1797 Q2054.9219,378.9609 2055.1094,378.8516 Q2055.2969,378.7422 2055.5156,378.7422 Q2055.8906,378.7422 2056.125,379.0078 Q2056.3594,379.2578 2056.3594,379.8672 L2056.3594,381.3203 Q2056.3594,381.9297 2056.125,382.1953 Q2055.8906,382.4609 2055.5156,382.4609 Q2055.1719,382.4609 2054.9688,382.2578 Q2054.7656,382.0703 2054.6563,381.5547 Q2054.6094,381.1953 2054.4219,381.0078 Q2054.0938,380.6328 2053.4844,380.4141 Q2052.875,380.1953 2052.25,380.1953 Q2051.4844,380.1953 2050.8438,380.5234 Q2050.2188,380.8516 2049.7188,381.6016 Q2049.2344,382.3516 2049.2344,383.3828 L2049.2344,384.4766 Q2049.2344,385.7109 2050.125,386.5391 Q2051.0156,387.3516 2052.6094,387.3516 Q2053.5469,387.3516 2054.2031,387.1016 Q2054.5938,386.9453 2055.0156,386.5078 Q2055.2813,386.2422 2055.4219,386.1641 Q2055.5781,386.0859 2055.7813,386.0859 Q2056.1094,386.0859 2056.3594,386.3516 Q2056.625,386.6016 2056.625,386.9453 Q2056.625,387.2891 2056.2813,387.6953 Q2055.7813,388.2734 2054.9844,388.6016 Q2053.9063,389.0547 2052.6094,389.0547 Q2051.0938,389.0547 2049.8906,388.4297 Q2048.9063,387.9297 2048.2188,386.8672 Q2047.5313,385.7891 2047.5313,384.5078 L2047.5313,383.3516 Q2047.5313,382.0234 2048.1406,380.8828 Q2048.7656,379.7266 2049.8594,379.1172 Q2050.9531,378.4922 2052.1875,378.4922 Q2052.9219,378.4922 2053.5625,378.6641 Q2054.2188,378.8203 2054.7656,379.1797 Z " fill="#000000"/><text fill="#000000" font-family="sans-serif" font-size="12" font-style="italic" lengthAdjust="spacing" textLength="43" x="2080.5" y="378.9629">&#171;entity&#187;</text><text fill="#000000" font-family="sans-serif" font-size="14" lengthAdjust="spacing" textLength="72" x="2066" y="397.082">ColumnCell</text><line style="stroke:#181818;stroke-width:0.5;" x1="2038" x2="2140" y1="405.5957" y2="405.5957"/><ellipse cx="2048" cy="420.4063" fill="#000000" rx="3" ry="3" style="stroke:#000000;stroke-width:1.0;"/><text fill="#000000" font-family="sans-serif" font-size="14" lengthAdjust="spacing" textLength="11" x="2057" y="424.7031">id</text><ellipse cx="2048" cy="439.0273" fill="#000000" rx="3" ry="3" style="stroke:#000000;stroke-width:1.0;"/><text fill="#000000" font-family="sans-serif" font-size="14" lengthAdjust="spacing" textLength="76" x="2057" y="443.3242">columnTittle</text><ellipse cx="2048" cy="457.6484" fill="#000000" rx="3" ry="3" style="stroke:#000000;stroke-width:1.0;"/><text fill="#000000" font-family="sans-serif" font-size="14" lengthAdjust="spacing" textLength="45" x="2057" y="461.9453">column</text><line style="stroke:#181818;stroke-width:0.5;" x1="2038" x2="2140" y1="469.459" y2="469.459"/></g><!--class RowCell--><g id="elem_RowCell"><rect codeLine="60" fill="#F1F1F1" height="116.4453" id="RowCell" rx="2.5" ry="2.5" style="stroke:#181818;stroke-width:0.5;" width="83" x="2176.5" y="361.0137"/><ellipse cx="2191.5" cy="383.3047" fill="#ADD1B2" rx="11" ry="11" style="stroke:#181818;stroke-width:1.0;"/><path d="M2194.2656,379.1797 Q2194.4219,378.9609 2194.6094,378.8516 Q2194.7969,378.7422 2195.0156,378.7422 Q2195.3906,378.7422 2195.625,379.0078 Q2195.8594,379.2578 2195.8594,379.8672 L2195.8594,381.3203 Q2195.8594,381.9297 2195.625,382.1953 Q2195.3906,382.4609 2195.0156,382.4609 Q2194.6719,382.4609 2194.4688,382.2578 Q2194.2656,382.0703 2194.1563,381.5547 Q2194.1094,381.1953 2193.9219,381.0078 Q2193.5938,380.6328 2192.9844,380.4141 Q2192.375,380.1953 2191.75,380.1953 Q2190.9844,380.1953 2190.3438,380.5234 Q2189.7188,380.8516 2189.2188,381.6016 Q2188.7344,382.3516 2188.7344,383.3828 L2188.7344,384.4766 Q2188.7344,385.7109 2189.625,386.5391 Q2190.5156,387.3516 2192.1094,387.3516 Q2193.0469,387.3516 2193.7031,387.1016 Q2194.0938,386.9453 2194.5156,386.5078 Q2194.7813,386.2422 2194.9219,386.1641 Q2195.0781,386.0859 2195.2813,386.0859 Q2195.6094,386.0859 2195.8594,386.3516 Q2196.125,386.6016 2196.125,386.9453 Q2196.125,387.2891 2195.7813,387.6953 Q2195.2813,388.2734 2194.4844,388.6016 Q2193.4063,389.0547 2192.1094,389.0547 Q2190.5938,389.0547 2189.3906,388.4297 Q2188.4063,387.9297 2187.7188,386.8672 Q2187.0313,385.7891 2187.0313,384.5078 L2187.0313,383.3516 Q2187.0313,382.0234 2187.6406,380.8828 Q2188.2656,379.7266 2189.3594,379.1172 Q2190.4531,378.4922 2191.6875,378.4922 Q2192.4219,378.4922 2193.0625,378.6641 Q2193.7188,378.8203 2194.2656,379.1797 Z " fill="#000000"/><text fill="#000000" font-family="sans-serif" font-size="12" font-style="italic" lengthAdjust="spacing" textLength="43" x="2209.5" y="378.9629">&#171;entity&#187;</text><text fill="#000000" font-family="sans-serif" font-size="14" lengthAdjust="spacing" textLength="51" x="2205.5" y="397.082">RowCell</text><line style="stroke:#181818;stroke-width:0.5;" x1="2177.5" x2="2258.5" y1="405.5957" y2="405.5957"/><ellipse cx="2187.5" cy="420.4063" fill="#000000" rx="3" ry="3" style="stroke:#000000;stroke-width:1.0;"/><text fill="#000000" font-family="sans-serif" font-size="14" lengthAdjust="spacing" textLength="11" x="2196.5" y="424.7031">id</text><ellipse cx="2187.5" cy="439.0273" fill="#000000" rx="3" ry="3" style="stroke:#000000;stroke-width:1.0;"/><text fill="#000000" font-family="sans-serif" font-size="14" lengthAdjust="spacing" textLength="53" x="2196.5" y="443.3242">rowTittle</text><ellipse cx="2187.5" cy="457.6484" fill="#000000" rx="3" ry="3" style="stroke:#000000;stroke-width:1.0;"/><text fill="#000000" font-family="sans-serif" font-size="14" lengthAdjust="spacing" textLength="22" x="2196.5" y="461.9453">row</text><line style="stroke:#181818;stroke-width:0.5;" x1="2177.5" x2="2258.5" y1="469.459" y2="469.459"/></g><!--class PostIt--><g id="elem_PostIt"><rect codeLine="69" fill="#F1F1F1" height="169.6484" id="PostIt" rx="2.5" ry="2.5" style="stroke:#181818;stroke-width:0.5;" width="80" x="1501" y="334.0137"/><ellipse cx="1520.05" cy="364.2852" fill="#ADD1B2" rx="11" ry="11" style="stroke:#181818;stroke-width:1.0;"/><path d="M1522.8156,360.1602 Q1522.9719,359.9414 1523.1594,359.832 Q1523.3469,359.7227 1523.5656,359.7227 Q1523.9406,359.7227 1524.175,359.9883 Q1524.4094,360.2383 1524.4094,360.8477 L1524.4094,362.3008 Q1524.4094,362.9102 1524.175,363.1758 Q1523.9406,363.4414 1523.5656,363.4414 Q1523.2219,363.4414 1523.0188,363.2383 Q1522.8156,363.0508 1522.7063,362.5352 Q1522.6594,362.1758 1522.4719,361.9883 Q1522.1438,361.6133 1521.5344,361.3945 Q1520.925,361.1758 1520.3,361.1758 Q1519.5344,361.1758 1518.8938,361.5039 Q1518.2688,361.832 1517.7688,362.582 Q1517.2844,363.332 1517.2844,364.3633 L1517.2844,365.457 Q1517.2844,366.6914 1518.175,367.5195 Q1519.0656,368.332 1520.6594,368.332 Q1521.5969,368.332 1522.2531,368.082 Q1522.6438,367.9258 1523.0656,367.4883 Q1523.3313,367.2227 1523.4719,367.1445 Q1523.6281,367.0664 1523.8313,367.0664 Q1524.1594,367.0664 1524.4094,367.332 Q1524.675,367.582 1524.675,367.9258 Q1524.675,368.2695 1524.3313,368.6758 Q1523.8313,369.2539 1523.0344,369.582 Q1521.9563,370.0352 1520.6594,370.0352 Q1519.1438,370.0352 1517.9406,369.4102 Q1516.9563,368.9102 1516.2688,367.8477 Q1515.5813,366.7695 1515.5813,365.4883 L1515.5813,364.332 Q1515.5813,363.0039 1516.1906,361.8633 Q1516.8156,360.707 1517.9094,360.0977 Q1519.0031,359.4727 1520.2375,359.4727 Q1520.9719,359.4727 1521.6125,359.6445 Q1522.2688,359.8008 1522.8156,360.1602 Z " fill="#000000"/><text fill="#000000" font-family="sans-serif" font-size="12" font-style="italic" lengthAdjust="spacing" textLength="35" x="1536.95" y="351.9629">&#171;root&#187;</text><text fill="#000000" font-family="sans-serif" font-size="12" font-style="italic" lengthAdjust="spacing" textLength="43" x="1532.95" y="367.9238">&#171;entity&#187;</text><text fill="#000000" font-family="sans-serif" font-size="14" lengthAdjust="spacing" textLength="35" x="1536.95" y="386.043">PostIt</text><line style="stroke:#181818;stroke-width:0.5;" x1="1502" x2="1580" y1="394.5566" y2="394.5566"/><ellipse cx="1512" cy="409.3672" fill="#000000" rx="3" ry="3" style="stroke:#000000;stroke-width:1.0;"/><text fill="#000000" font-family="sans-serif" font-size="14" lengthAdjust="spacing" textLength="11" x="1521" y="413.6641">id</text><ellipse cx="1512" cy="427.9883" fill="#000000" rx="3" ry="3" style="stroke:#000000;stroke-width:1.0;"/><text fill="#000000" font-family="sans-serif" font-size="14" lengthAdjust="spacing" textLength="22" x="1521" y="432.2852">row</text><ellipse cx="1512" cy="446.6094" fill="#000000" rx="3" ry="3" style="stroke:#000000;stroke-width:1.0;"/><text fill="#000000" font-family="sans-serif" font-size="14" lengthAdjust="spacing" textLength="45" x="1521" y="450.9063">column</text><ellipse cx="1512" cy="465.2305" fill="#000000" rx="3" ry="3" style="stroke:#000000;stroke-width:1.0;"/><text fill="#000000" font-family="sans-serif" font-size="14" lengthAdjust="spacing" textLength="47" x="1521" y="469.5273">content</text><ellipse cx="1512" cy="483.8516" fill="#000000" rx="3" ry="3" style="stroke:#000000;stroke-width:1.0;"/><text fill="#000000" font-family="sans-serif" font-size="14" lengthAdjust="spacing" textLength="54" x="1521" y="488.1484">ownUser</text><line style="stroke:#181818;stroke-width:0.5;" x1="1502" x2="1580" y1="495.6621" y2="495.6621"/></g><!--class Content--><g id="elem_Content"><rect codeLine="77" fill="#F1F1F1" height="79.2031" id="Content" rx="2.5" ry="2.5" style="stroke:#181818;stroke-width:0.5;" width="109" x="1501.5" y="592.5137"/><ellipse cx="1516.5" cy="614.8047" fill="#ADD1B2" rx="11" ry="11" style="stroke:#181818;stroke-width:1.0;"/><path d="M1519.2656,610.6797 Q1519.4219,610.4609 1519.6094,610.3516 Q1519.7969,610.2422 1520.0156,610.2422 Q1520.3906,610.2422 1520.625,610.5078 Q1520.8594,610.7578 1520.8594,611.3672 L1520.8594,612.8203 Q1520.8594,613.4297 1520.625,613.6953 Q1520.3906,613.9609 1520.0156,613.9609 Q1519.6719,613.9609 1519.4688,613.7578 Q1519.2656,613.5703 1519.1563,613.0547 Q1519.1094,612.6953 1518.9219,612.5078 Q1518.5938,612.1328 1517.9844,611.9141 Q1517.375,611.6953 1516.75,611.6953 Q1515.9844,611.6953 1515.3438,612.0234 Q1514.7188,612.3516 1514.2188,613.1016 Q1513.7344,613.8516 1513.7344,614.8828 L1513.7344,615.9766 Q1513.7344,617.2109 1514.625,618.0391 Q1515.5156,618.8516 1517.1094,618.8516 Q1518.0469,618.8516 1518.7031,618.6016 Q1519.0938,618.4453 1519.5156,618.0078 Q1519.7813,617.7422 1519.9219,617.6641 Q1520.0781,617.5859 1520.2813,617.5859 Q1520.6094,617.5859 1520.8594,617.8516 Q1521.125,618.1016 1521.125,618.4453 Q1521.125,618.7891 1520.7813,619.1953 Q1520.2813,619.7734 1519.4844,620.1016 Q1518.4063,620.5547 1517.1094,620.5547 Q1515.5938,620.5547 1514.3906,619.9297 Q1513.4063,619.4297 1512.7188,618.3672 Q1512.0313,617.2891 1512.0313,616.0078 L1512.0313,614.8516 Q1512.0313,613.5234 1512.6406,612.3828 Q1513.2656,611.2266 1514.3594,610.6172 Q1515.4531,609.9922 1516.6875,609.9922 Q1517.4219,609.9922 1518.0625,610.1641 Q1518.7188,610.3203 1519.2656,610.6797 Z " fill="#000000"/><text fill="#000000" font-family="sans-serif" font-size="12" font-style="italic" lengthAdjust="spacing" textLength="81" x="1528.5" y="610.4629">&#171;value object&#187;</text><text fill="#000000" font-family="sans-serif" font-size="14" lengthAdjust="spacing" textLength="50" x="1544" y="628.582">Content</text><line style="stroke:#181818;stroke-width:0.5;" x1="1502.5" x2="1609.5" y1="637.0957" y2="637.0957"/><ellipse cx="1512.5" cy="651.9063" fill="#000000" rx="3" ry="3" style="stroke:#000000;stroke-width:1.0;"/><text fill="#000000" font-family="sans-serif" font-size="14" lengthAdjust="spacing" textLength="47" x="1521.5" y="656.2031">content</text><line style="stroke:#181818;stroke-width:0.5;" x1="1502.5" x2="1609.5" y1="663.7168" y2="663.7168"/></g><!--class CreatePostItService--><g id="elem_CreatePostItService"><rect codeLine="82" fill="#F1F1F1" height="60.582" id="CreatePostItService" rx="2.5" ry="2.5" style="stroke:#181818;stroke-width:0.5;" width="157" x="1136.5" y="388.5137"/><ellipse cx="1151.5" cy="410.8047" fill="#ADD1B2" rx="11" ry="11" style="stroke:#181818;stroke-width:1.0;"/><path d="M1154.2656,406.6797 Q1154.4219,406.4609 1154.6094,406.3516 Q1154.7969,406.2422 1155.0156,406.2422 Q1155.3906,406.2422 1155.625,406.5078 Q1155.8594,406.7578 1155.8594,407.3672 L1155.8594,408.8203 Q1155.8594,409.4297 1155.625,409.6953 Q1155.3906,409.9609 1155.0156,409.9609 Q1154.6719,409.9609 1154.4688,409.7578 Q1154.2656,409.5703 1154.1563,409.0547 Q1154.1094,408.6953 1153.9219,408.5078 Q1153.5938,408.1328 1152.9844,407.9141 Q1152.375,407.6953 1151.75,407.6953 Q1150.9844,407.6953 1150.3438,408.0234 Q1149.7188,408.3516 1149.2188,409.1016 Q1148.7344,409.8516 1148.7344,410.8828 L1148.7344,411.9766 Q1148.7344,413.2109 1149.625,414.0391 Q1150.5156,414.8516 1152.1094,414.8516 Q1153.0469,414.8516 1153.7031,414.6016 Q1154.0938,414.4453 1154.5156,414.0078 Q1154.7813,413.7422 1154.9219,413.6641 Q1155.0781,413.5859 1155.2813,413.5859 Q1155.6094,413.5859 1155.8594,413.8516 Q1156.125,414.1016 1156.125,414.4453 Q1156.125,414.7891 1155.7813,415.1953 Q1155.2813,415.7734 1154.4844,416.1016 Q1153.4063,416.5547 1152.1094,416.5547 Q1150.5938,416.5547 1149.3906,415.9297 Q1148.4063,415.4297 1147.7188,414.3672 Q1147.0313,413.2891 1147.0313,412.0078 L1147.0313,410.8516 Q1147.0313,409.5234 1147.6406,408.3828 Q1148.2656,407.2266 1149.3594,406.6172 Q1150.4531,405.9922 1151.6875,405.9922 Q1152.4219,405.9922 1153.0625,406.1641 Q1153.7188,406.3203 1154.2656,406.6797 Z " fill="#000000"/><text fill="#000000" font-family="sans-serif" font-size="12" font-style="italic" lengthAdjust="spacing" textLength="53" x="1201.5" y="406.4629">&#171;service&#187;</text><text fill="#000000" font-family="sans-serif" font-size="14" lengthAdjust="spacing" textLength="125" x="1165.5" y="424.582">CreatePostItService</text><line style="stroke:#181818;stroke-width:0.5;" x1="1137.5" x2="1292.5" y1="433.0957" y2="433.0957"/><line style="stroke:#181818;stroke-width:0.5;" x1="1137.5" x2="1292.5" y1="441.0957" y2="441.0957"/></g><!--class SharedBoard--><g id="elem_SharedBoard"><rect fill="#F1F1F1" height="48" id="SharedBoard" rx="2.5" ry="2.5" style="stroke:#181818;stroke-width:0.5;" width="116" x="1329" y="395.0137"/><ellipse cx="1344" cy="411.0137" fill="#ADD1B2" rx="11" ry="11" style="stroke:#181818;stroke-width:1.0;"/><path d="M1346.7656,406.8887 Q1346.9219,406.6699 1347.1094,406.5605 Q1347.2969,406.4512 1347.5156,406.4512 Q1347.8906,406.4512 1348.125,406.7168 Q1348.3594,406.9668 1348.3594,407.5762 L1348.3594,409.0293 Q1348.3594,409.6387 1348.125,409.9043 Q1347.8906,410.1699 1347.5156,410.1699 Q1347.1719,410.1699 1346.9688,409.9668 Q1346.7656,409.7793 1346.6563,409.2637 Q1346.6094,408.9043 1346.4219,408.7168 Q1346.0938,408.3418 1345.4844,408.123 Q1344.875,407.9043 1344.25,407.9043 Q1343.4844,407.9043 1342.8438,408.2324 Q1342.2188,408.5605 1341.7188,409.3105 Q1341.2344,410.0605 1341.2344,411.0918 L1341.2344,412.1855 Q1341.2344,413.4199 1342.125,414.248 Q1343.0156,415.0605 1344.6094,415.0605 Q1345.5469,415.0605 1346.2031,414.8105 Q1346.5938,414.6543 1347.0156,414.2168 Q1347.2813,413.9512 1347.4219,413.873 Q1347.5781,413.7949 1347.7813,413.7949 Q1348.1094,413.7949 1348.3594,414.0605 Q1348.625,414.3105 1348.625,414.6543 Q1348.625,414.998 1348.2813,415.4043 Q1347.7813,415.9824 1346.9844,416.3105 Q1345.9063,416.7637 1344.6094,416.7637 Q1343.0938,416.7637 1341.8906,416.1387 Q1340.9063,415.6387 1340.2188,414.5762 Q1339.5313,413.498 1339.5313,412.2168 L1339.5313,411.0605 Q1339.5313,409.7324 1340.1406,408.5918 Q1340.7656,407.4355 1341.8594,406.8262 Q1342.9531,406.2012 1344.1875,406.2012 Q1344.9219,406.2012 1345.5625,406.373 Q1346.2188,406.5293 1346.7656,406.8887 Z " fill="#000000"/><text fill="#000000" font-family="sans-serif" font-size="14" lengthAdjust="spacing" textLength="84" x="1358" y="416.8105">SharedBoard</text><line style="stroke:#181818;stroke-width:0.5;" x1="1330" x2="1444" y1="427.0137" y2="427.0137"/><line style="stroke:#181818;stroke-width:0.5;" x1="1330" x2="1444" y1="435.0137" y2="435.0137"/></g><!--link SystemUser to EmailAdderss--><g id="link_SystemUser_EmailAdderss"><path codeLine="89" d="M1030.61,476.1637 C1021.25,501.1337 1008.08,530.0237 991,553.0137 C978.49,569.8537 961.64,585.3937 945.73,598.1037 " fill="none" id="SystemUser-to-EmailAdderss" style="stroke:#181818;stroke-width:1.0;"/><polygon fill="#181818" points="941.7,601.2637,951.2485,598.8501,945.6321,598.1752,946.307,592.5587,941.7,601.2637" style="stroke:#181818;stroke-width:1.0;"/><text fill="#000000" font-family="sans-serif" font-size="13" lengthAdjust="spacing" textLength="7" x="942.9913" y="590.2698">1</text></g><!--link SystemUser to Password--><g id="link_SystemUser_Password"><path codeLine="90" d="M1047.73,476.2837 C1047.55,514.4037 1047.32,563.5837 1047.17,596.1537 " fill="none" id="SystemUser-to-Password" style="stroke:#181818;stroke-width:1.0;"/><polygon fill="#181818" points="1047.14,601.2337,1051.1914,592.2567,1047.1686,596.2338,1043.1915,592.211,1047.14,601.2337" style="stroke:#181818;stroke-width:1.0;"/><text fill="#000000" font-family="sans-serif" font-size="13" lengthAdjust="spacing" textLength="7" x="1039.447" y="590.2336">1</text></g><!--link SystemUser to Role--><g id="link_SystemUser_Role"><path codeLine="91" d="M1019.67,476.1737 C1002.67,507.7037 981.59,542.7437 967,553.0137 C912.82,591.1337 881.79,556.6937 821,583.0137 C816.43,584.9937 811.85,587.3137 807.35,589.8437 " fill="none" id="SystemUser-to-Role" style="stroke:#181818;stroke-width:1.0;"/><polygon fill="#181818" points="802.89,592.4337,812.6815,591.372,807.2135,589.9223,808.6633,584.4544,802.89,592.4337" style="stroke:#181818;stroke-width:1.0;"/><text fill="#000000" font-family="sans-serif" font-size="13" lengthAdjust="spacing" textLength="7" x="803.8633" y="581.2058">1</text></g><!--link eCourseSystemUser to SystemUser--><g id="link_eCourseSystemUser_SystemUser"><path codeLine="93" d="M988.1,176.0237 C975.03,200.1937 963.04,232.5137 970,262.0137 C977.86,295.3037 993.97,329.5837 1009.52,357.5037 " fill="none" id="eCourseSystemUser-to-SystemUser" style="stroke:#181818;stroke-width:1.0;"/><polygon fill="#181818" points="1012.01,361.9337,1011.0733,352.1295,1009.5539,357.5785,1004.1049,356.0591,1012.01,361.9337" style="stroke:#181818;stroke-width:1.0;"/><text fill="#000000" font-family="sans-serif" font-size="13" lengthAdjust="spacing" textLength="7" x="999.9503" y="350.592">1</text></g><!--link eCourseSystemUser to Role--><g id="link_eCourseSystemUser_Role"><path codeLine="94" d="M990.83,176.4437 C980.61,195.7337 969.36,219.9437 963,243.0137 C932.04,355.3137 998.52,403.8737 939,504.0137 C906.75,558.2637 873.01,547.2537 821,583.0137 C816.89,585.8337 812.66,588.7737 808.4,591.7337 " fill="none" id="eCourseSystemUser-to-Role" style="stroke:#181818;stroke-width:1.0;"/><polygon fill="#181818" points="804.14,594.7037,813.8065,592.8172,808.2355,591.8354,809.2173,586.2644,804.14,594.7037" style="stroke:#181818;stroke-width:1.0;"/><text fill="#000000" font-family="sans-serif" font-size="13" lengthAdjust="spacing" textLength="7" x="812.1653" y="585.0101">1</text></g><!--link eCourseSystemUser to UserStatus--><g id="link_eCourseSystemUser_UserStatus"><path codeLine="95" d="M932.17,140.8837 C740.27,148.0337 264.06,175.1237 141,270.0137 C111.03,293.1237 93.81,332.5237 84.2,364.8637 " fill="none" id="eCourseSystemUser-to-UserStatus" style="stroke:#181818;stroke-width:1.0;"/><polygon fill="#181818" points="82.72,369.9837,89.0593,362.4462,84.1068,365.1798,81.3732,360.2273,82.72,369.9837" style="stroke:#181818;stroke-width:1.0;"/><text fill="#000000" font-family="sans-serif" font-size="13" lengthAdjust="spacing" textLength="7" x="76.6336" y="358.5966">1</text></g><!--link eCourseSystemUser to Acronym--><g id="link_eCourseSystemUser_Acronym"><path codeLine="96" d="M932.48,143.9537 C764.98,156.6937 386.16,193.3737 285,270.0137 C248.31,297.8037 229.29,349.2237 220.22,383.5237 " fill="none" id="eCourseSystemUser-to-Acronym" style="stroke:#181818;stroke-width:1.0;"/><polygon fill="#181818" points="218.96,388.4537,225.0717,380.7305,220.2029,383.6106,217.3228,378.7418,218.96,388.4537" style="stroke:#181818;stroke-width:1.0;"/><text fill="#000000" font-family="sans-serif" font-size="13" lengthAdjust="spacing" textLength="7" x="212.4981" y="377.0152">1</text></g><!--link eCourseSystemUser to NIF--><g id="link_eCourseSystemUser_NIF"><path codeLine="97" d="M932.28,147.9737 C790.98,165.9137 506.45,208.6837 429,270.0137 C393.02,298.5037 373.85,349.4937 364.56,383.5437 " fill="none" id="eCourseSystemUser-to-NIF" style="stroke:#181818;stroke-width:1.0;"/><polygon fill="#181818" points="363.26,388.4337,369.4411,380.7659,364.5465,383.602,361.7104,378.7075,363.26,388.4337" style="stroke:#181818;stroke-width:1.0;"/><text fill="#000000" font-family="sans-serif" font-size="13" lengthAdjust="spacing" textLength="7" x="356.8293" y="377.4749">1</text></g><!--link eCourseSystemUser to BirthDate--><g id="link_eCourseSystemUser_BirthDate"><path codeLine="98" d="M932.37,143.3537 C836.43,153.0637 676.3,182.2637 573,270.0137 C538.23,299.5437 518.83,349.8037 509.15,383.4537 " fill="none" id="eCourseSystemUser-to-BirthDate" style="stroke:#181818;stroke-width:1.0;"/><polygon fill="#181818" points="507.79,388.2937,514.0819,380.7166,509.1466,383.4812,506.382,378.546,507.79,388.2937" style="stroke:#181818;stroke-width:1.0;"/><text fill="#000000" font-family="sans-serif" font-size="13" lengthAdjust="spacing" textLength="7" x="501.4686" y="377.306">1</text></g><!--link eCourseSystemUser to MechanographicNumber--><g id="link_eCourseSystemUser_MechanographicNumber"><path codeLine="99" d="M934.96,176.0837 C891.04,199.4537 836.8,232.2237 795,270.0137 C760.6,301.1137 729.69,344.2137 709.28,375.8937 " fill="none" id="eCourseSystemUser-to-MechanographicNumber" style="stroke:#181818;stroke-width:1.0;"/><polygon fill="#181818" points="706.34,380.4737,714.5501,375.0336,709.0272,376.2571,707.8036,370.7342,706.34,380.4737" style="stroke:#181818;stroke-width:1.0;"/><text fill="#000000" font-family="sans-serif" font-size="13" lengthAdjust="spacing" textLength="7" x="702.6959" y="369.1896">1</text></g><!--link eCourseSystemUser to Grade--><g id="link_eCourseSystemUser_Grade"><path codeLine="100" d="M932.5,171.5437 C902.57,188.2437 871.82,211.7337 855,243.0137 C831.33,287.0437 842.95,346.5437 854.33,383.5837 " fill="none" id="eCourseSystemUser-to-Grade" style="stroke:#181818;stroke-width:1.0;"/><polygon fill="#181818" points="855.86,388.4337,856.9684,378.6474,854.3564,383.6651,849.3387,381.0531,855.86,388.4337" style="stroke:#181818;stroke-width:1.0;"/><polygon fill="#000000" points="858.2705,257.3505,864.1567,249.8804,858.6417,247.8472,858.2705,257.3505" style="stroke:#000000;stroke-width:1.0;"/><text fill="#000000" font-family="sans-serif" font-size="13" lengthAdjust="spacing" textLength="79" x="869" y="258.042">student has a</text><text fill="#000000" font-family="sans-serif" font-size="13" lengthAdjust="spacing" textLength="7" x="845.8405" y="377.4749">1</text></g><!--link eCourseSystemUser to SharedBoard--><g id="link_eCourseSystemUser_SharedBoard"><path codeLine="101" d="M1060.13,176.2137 C1102.03,208.8837 1160.74,252.3837 1188,262.0137 C1213.83,271.1437 1288.1,254.9837 1311,270.0137 C1352.78,297.4237 1372.8,355.3737 1381.39,390.0737 " fill="none" id="eCourseSystemUser-to-SharedBoard" style="stroke:#181818;stroke-width:1.0;"/><polygon fill="#181818" points="1382.57,395.0137,1384.3484,385.3267,1381.3977,390.153,1376.5714,387.2023,1382.57,395.0137" style="stroke:#181818;stroke-width:1.0;"/><polygon fill="#000000" points="1197.1621,255.4299,1191.2613,247.9712,1188.0042,252.8641,1197.1621,255.4299" style="stroke:#000000;stroke-width:1.0;"/><text fill="#000000" font-family="sans-serif" font-size="13" lengthAdjust="spacing" textLength="30" x="1202" y="258.042">owns</text><text fill="#000000" font-family="sans-serif" font-size="13" lengthAdjust="spacing" textLength="5" x="1375.7942" y="383.7512">*</text></g><!--link eCourseSystemUser to SharedBoard--><g id="link_eCourseSystemUser_SharedBoard"><path codeLine="102" d="M1021,176.2737 C1029.27,205.0937 1045.3,242.9937 1075,262.0137 C1097.09,276.1637 1288.84,255.9637 1311,270.0137 C1353.2,296.7737 1373.07,354.9537 1381.52,389.8637 " fill="none" id="eCourseSystemUser-to-SharedBoard-1" style="stroke:#181818;stroke-width:1.0;"/><polygon fill="#181818" points="1382.69,394.8437,1384.5286,385.168,1381.548,389.9758,1376.7401,386.9952,1382.69,394.8437" style="stroke:#181818;stroke-width:1.0;"/><polygon fill="#000000" points="1075.6983,250.1106,1081.9822,257.2495,1084.9782,252.1925,1075.6983,250.1106" style="stroke:#000000;stroke-width:1.0;"/><text fill="#000000" font-family="sans-serif" font-size="13" lengthAdjust="spacing" textLength="54" x="1089" y="258.042">shared to</text><text fill="#000000" font-family="sans-serif" font-size="13" lengthAdjust="spacing" textLength="5" x="1382.2488" y="383.9441">*</text></g><!--link eCourseSystemUser to PostIt--><g id="link_eCourseSystemUser_PostIt"><path codeLine="103" d="M1093.54,174.9237 C1136.39,194.5937 1189.83,219.5737 1237,243.0137 C1253.2,251.0637 1255.53,257.2937 1273,262.0137 C1293.4,267.5237 1445.14,258.7237 1463,270.0137 C1484.98,283.9137 1501.12,306.1937 1512.83,329.2937 " fill="none" id="eCourseSystemUser-to-PostIt" style="stroke:#181818;stroke-width:1.0;"/><polygon fill="#181818" points="1515.11,333.9137,1514.7383,324.0718,1512.9083,329.4245,1507.5556,327.5945,1515.11,333.9137" style="stroke:#181818;stroke-width:1.0;"/><polygon fill="#000000" points="1282.6921,254.3867,1275.2194,248.5037,1273.1886,254.0196,1282.6921,254.3867" style="stroke:#000000;stroke-width:1.0;"/><text fill="#000000" font-family="sans-serif" font-size="13" lengthAdjust="spacing" textLength="54" x="1287" y="258.042">creates a</text><text fill="#000000" font-family="sans-serif" font-size="13" lengthAdjust="spacing" textLength="5" x="1513.0268" y="322.6344">*</text></g><!--link eCourseSystemUser to PostIt--><g id="link_eCourseSystemUser_PostIt"><path codeLine="104" d="M1093.5,159.3537 C1161.86,178.0837 1261.97,207.9937 1346,243.0137 C1362.7,249.9737 1364.67,256.8037 1382,262.0137 C1399.32,267.2237 1447.99,259.9237 1463,270.0137 C1484.35,284.3737 1500.27,306.5237 1511.95,329.3437 " fill="none" id="eCourseSystemUser-to-PostIt-1" style="stroke:#181818;stroke-width:1.0;"/><polygon fill="#181818" points="1514.23,333.9137,1513.7954,324.0744,1511.9997,329.4387,1506.6354,327.643,1514.23,333.9137" style="stroke:#181818;stroke-width:1.0;"/><polygon fill="#000000" points="1391.6324,254.541,1384.3585,248.4139,1382.1462,253.8596,1391.6324,254.541" style="stroke:#000000;stroke-width:1.0;"/><text fill="#000000" font-family="sans-serif" font-size="13" lengthAdjust="spacing" textLength="57" x="1396" y="258.042">updates a</text><text fill="#000000" font-family="sans-serif" font-size="13" lengthAdjust="spacing" textLength="5" x="1506.6231" y="322.6344">*</text></g><!--link eCourseSystemUser to PostIt--><g id="link_eCourseSystemUser_PostIt"><path codeLine="105" d="M1093.62,148.9437 C1206.1,164.8937 1402.59,198.2637 1458,243.0137 C1485.07,264.8737 1503.81,297.6437 1516.54,328.9437 " fill="none" id="eCourseSystemUser-to-PostIt-2" style="stroke:#181818;stroke-width:1.0;"/><polygon fill="#181818" points="1518.54,333.9537,1518.9375,324.1128,1516.6954,329.3064,1511.5018,327.0642,1518.54,333.9537" style="stroke:#181818;stroke-width:1.0;"/><polygon fill="#000000" points="1485.6006,254.6173,1478.4289,248.3709,1476.1271,253.7792,1485.6006,254.6173" style="stroke:#000000;stroke-width:1.0;"/><text fill="#000000" font-family="sans-serif" font-size="13" lengthAdjust="spacing" textLength="53" x="1490" y="258.042">deletes a</text><text fill="#000000" font-family="sans-serif" font-size="13" lengthAdjust="spacing" textLength="5" x="1516.7623" y="322.6779">*</text></g><!--link PostIt to eCourseSystemUser--><g id="link_PostIt_eCourseSystemUser"><path codeLine="120" d="M1569.05,333.8137 C1574.17,302.1937 1572.53,267.9037 1552,243.0137 C1494.84,173.7037 1229.62,149.8037 1093.74,142.0237 " fill="none" id="PostIt-eCourseSystemUser" style="stroke:#181818;stroke-width:1.0;"/><polygon fill="#000000" points="1570.6368,254.5301,1563.3485,248.4201,1561.1491,253.871,1570.6368,254.5301" style="stroke:#000000;stroke-width:1.0;"/><text fill="#000000" font-family="sans-serif" font-size="13" lengthAdjust="spacing" textLength="30" x="1575" y="258.042">owns</text><text fill="#000000" font-family="sans-serif" font-size="13" lengthAdjust="spacing" textLength="5" x="1566.2457" y="322.8173">*</text><text fill="#000000" font-family="sans-serif" font-size="13" lengthAdjust="spacing" textLength="5" x="1101.4137" y="138.7186">*</text></g><!--link eCourseSystemUser to Content--><g id="link_eCourseSystemUser_Content"><path codeLine="106" d="M1093.67,143.9937 C1299.23,158.8837 1829.33,203.5137 1869,270.0137 C1922.28,359.3337 1909.28,408.1337 1869,504.0137 C1828.82,599.6337 1694.76,623.7537 1615.72,629.5237 " fill="none" id="eCourseSystemUser-to-Content" style="stroke:#181818;stroke-width:1.0;"/><polygon fill="#181818" points="1610.59,629.8737,1619.8432,633.2468,1615.5782,629.5306,1619.2944,625.2656,1610.59,629.8737" style="stroke:#181818;stroke-width:1.0;"/><polygon fill="#000000" points="1912.6613,422.5643,1908.0395,414.2523,1904.0365,418.5564,1912.6613,422.5643" style="stroke:#000000;stroke-width:1.0;"/><text fill="#000000" font-family="sans-serif" font-size="13" lengthAdjust="spacing" textLength="54" x="1918" y="424.542">creates a</text><text fill="#000000" font-family="sans-serif" font-size="13" lengthAdjust="spacing" textLength="5" x="1618.6183" y="625.4119">*</text></g><!--link eCourseSystemUser to Content--><g id="link_eCourseSystemUser_Content"><path codeLine="107" d="M1093.57,140.3937 C1241.49,145.7037 1547.36,165.9637 1614,243.0137 C1704.16,347.2537 1669.41,423.6037 1622,553.0137 C1617.33,565.7737 1609.54,577.8737 1600.93,588.5837 " fill="none" id="eCourseSystemUser-to-Content-1" style="stroke:#181818;stroke-width:1.0;"/><polygon fill="#181818" points="1597.72,592.4537,1606.5433,588.0778,1600.9111,588.6044,1600.3845,582.9721,1597.72,592.4537" style="stroke:#181818;stroke-width:1.0;"/><polygon fill="#000000" points="1678.7473,422.4694,1673.9141,414.2785,1670.0227,418.6837,1678.7473,422.4694" style="stroke:#000000;stroke-width:1.0;"/><text fill="#000000" font-family="sans-serif" font-size="13" lengthAdjust="spacing" textLength="57" x="1684" y="424.542">updates a</text><text fill="#000000" font-family="sans-serif" font-size="13" lengthAdjust="spacing" textLength="5" x="1599.4609" y="581.2292">*</text></g><!--link eCourseSystemUser to Content--><g id="link_eCourseSystemUser_Content"><path codeLine="108" d="M1093.59,139.9237 C1267.91,144.9137 1670.73,167.5337 1750,270.0137 C1813.63,352.2737 1799.46,412.5237 1750,504.0137 C1721.68,556.3937 1661.32,590.6437 1615.4,610.2237 " fill="none" id="eCourseSystemUser-to-Content-2" style="stroke:#181818;stroke-width:1.0;"/><polygon fill="#181818" points="1610.72,612.1937,1620.5669,612.3877,1615.3282,610.2534,1617.4625,605.0146,1610.72,612.1937" style="stroke:#181818;stroke-width:1.0;"/><polygon fill="#000000" points="1800.7141,422.5066,1795.9628,414.2679,1792.0276,418.6341,1800.7141,422.5066" style="stroke:#000000;stroke-width:1.0;"/><text fill="#000000" font-family="sans-serif" font-size="13" lengthAdjust="spacing" textLength="53" x="1806" y="424.542">deletes a</text><text fill="#000000" font-family="sans-serif" font-size="13" lengthAdjust="spacing" textLength="5" x="1618.4089" y="605.4224">*</text></g><!--link eCourseSystemUser to CreatePostItService--><g id="link_eCourseSystemUser_CreatePostItService"><path codeLine="110" d="M996.7,176.0237 C987.64,203.3737 981.94,239.4437 1003,262.0137 C1020.47,280.7437 1095.9,257.0637 1118,270.0137 C1161.07,295.2537 1188.55,348.0837 1202.87,383.3137 " fill="none" id="eCourseSystemUser-to-CreatePostItService" style="stroke:#181818;stroke-width:1.0;"/><polygon fill="#181818" points="1204.89,388.3737,1205.2718,378.5322,1203.038,383.7293,1197.8409,381.4955,1204.89,388.3737" style="stroke:#181818;stroke-width:1.0;"/><polygon fill="#000000" points="1011.5259,256.2043,1007.2312,247.7186,1003.0637,251.8636,1011.5259,256.2043" style="stroke:#000000;stroke-width:1.0;"/><text fill="#000000" font-family="sans-serif" font-size="13" lengthAdjust="spacing" textLength="21" x="1017" y="258.042">use</text><text fill="#000000" font-family="sans-serif" font-size="13" lengthAdjust="spacing" textLength="5" x="1197.2892" y="377.4025">*</text></g><!--link Board to RowCell--><g id="link_Board_RowCell"><path codeLine="112" d="M2181.33,213.0437 C2189.64,259.4637 2200.15,318.2437 2207.79,360.9437 " fill="none" id="Board-RowCell" style="stroke:#181818;stroke-width:1.0;"/><polygon fill="#000000" points="2195.8805,257.581,2197.1806,248.1597,2191.3946,249.1949,2195.8805,257.581" style="stroke:#000000;stroke-width:1.0;"/><text fill="#000000" font-family="sans-serif" font-size="13" lengthAdjust="spacing" textLength="21" x="2204" y="258.042">has</text><text fill="#000000" font-family="sans-serif" font-size="13" lengthAdjust="spacing" textLength="7" x="2175.2669" y="235.0937">1</text><text fill="#000000" font-family="sans-serif" font-size="13" lengthAdjust="spacing" textLength="29" x="2175.7785" y="349.8494">1..20</text></g><!--link Board to ColumnCell--><g id="link_Board_ColumnCell"><path codeLine="113" d="M2146.93,213.0437 C2133.81,259.4637 2117.2,318.2437 2105.13,360.9437 " fill="none" id="Board-ColumnCell" style="stroke:#181818;stroke-width:1.0;"/><polygon fill="#000000" points="2140.6401,257.4707,2145.9283,249.5659,2140.272,247.9673,2140.6401,257.4707" style="stroke:#000000;stroke-width:1.0;"/><text fill="#000000" font-family="sans-serif" font-size="13" lengthAdjust="spacing" textLength="21" x="2151" y="258.042">has</text><text fill="#000000" font-family="sans-serif" font-size="13" lengthAdjust="spacing" textLength="7" x="2137.5882" y="235.0937">1</text><text fill="#000000" font-family="sans-serif" font-size="13" lengthAdjust="spacing" textLength="29" x="2076.3287" y="349.8494">1..10</text></g><!--link Board to PostIt--><g id="link_Board_PostIt"><path codeLine="114" d="M2032.44,156.3737 C1888.16,177.7637 1671.98,217.4037 1608,270.0137 C1587.96,286.4937 1573.67,310.2437 1563.58,333.9137 " fill="none" id="Board-PostIt" style="stroke:#181818;stroke-width:1.0;"/><polygon fill="#000000" points="1647.324,254.4298,1656.8237,253.9752,1654.7422,248.4782,1647.324,254.4298" style="stroke:#000000;stroke-width:1.0;"/><text fill="#000000" font-family="sans-serif" font-size="13" lengthAdjust="spacing" textLength="21" x="1661" y="258.042">has</text><text fill="#000000" font-family="sans-serif" font-size="13" lengthAdjust="spacing" textLength="7" x="2017.4006" y="154.0086">1</text><text fill="#000000" font-family="sans-serif" font-size="13" lengthAdjust="spacing" textLength="5" x="1560.3684" y="322.6344">*</text></g><!--link ColumnCell to Cell--><g id="link_ColumnCell_Cell"><path codeLine="116" d="M2106.32,477.1137 C2114.39,503.7237 2124.06,535.5937 2132.49,563.4037 " fill="none" id="ColumnCell-to-Cell" style="stroke:#181818;stroke-width:1.0;"/><polygon fill="none" points="2139.27,561.6337,2138.38,582.8037,2125.87,565.6937,2139.27,561.6337" style="stroke:#181818;stroke-width:1.0;"/></g><!--link RowCell to Cell--><g id="link_RowCell_Cell"><path codeLine="117" d="M2200.41,477.1137 C2192.21,503.7237 2182.4,535.5937 2173.83,563.4037 " fill="none" id="RowCell-to-Cell" style="stroke:#181818;stroke-width:1.0;"/><polygon fill="none" points="2180.43,565.7537,2167.85,582.8037,2167.05,561.6337,2180.43,565.7537" style="stroke:#181818;stroke-width:1.0;"/></g><!--link PostIt to Content--><g id="link_PostIt_Content"><path codeLine="119" d="M1546.99,504.3137 C1549.16,534.7337 1551.49,567.6037 1553.24,592.2437 " fill="none" id="PostIt-Content" style="stroke:#181818;stroke-width:1.0;"/><polygon fill="#000000" points="1555.3545,548.6466,1557.6447,539.4159,1551.7817,539.8326,1555.3545,548.6466" style="stroke:#000000;stroke-width:1.0;"/><text fill="#000000" font-family="sans-serif" font-size="13" lengthAdjust="spacing" textLength="49" x="1564" y="549.042">contains</text><text fill="#000000" font-family="sans-serif" font-size="13" lengthAdjust="spacing" textLength="5" x="1542.2572" y="525.5482">*</text><text fill="#000000" font-family="sans-serif" font-size="13" lengthAdjust="spacing" textLength="5" x="1547.3688" y="581.2846">*</text></g><!--SRC=[bLJHRfim57ttLrXvgTI9fDrZX2BHX6sHrhI2fj8UNRW2RyRERDCiwlhliu4aPX2Iyf3WwtEFh-yzdAjSwusQJYORHhWk2pPEH35HyBi4de2NKf99KY24DYJvHJB0et3-i8xYCFuHFuNtwpYCHjZtWooJa14Dinb-GmYR9s54AHplb8PYhK0Qb1H26u3lXrnJlQkmk7ckyOeKu2nj3j-7tbrEc8jIAZXBtSqC2q9PaAOWpSBtdmah0OkNdv2OP1SO2GQdweorf3p3_RNPSc9DT6dvWPT5A_aJ3bV1tVVG2IoMyI7IOdeqFriXKyFpUhBE8962xuf1p6hvPN3_ZagTBypi1b7taEI42wE6JKwJLLcyL7rl9vW0ARKeYAO9OMo7C-0W3NNQ9ligITfttBihjFXR48Lt3q6qi0eZBOKvrGjIzUWW0EYR6RMGabCZwpDL7dDUXAdoFr4Mv4yajgeTcGjM5bnrHpW7navNv2mImRL1zJ1Kr1_WiV0dgZM3JhZBRgvoCRKKsmwlYJMaxyxS7eNItbBNGpCpwxC5Yrdg2yRMSrhdJjqUrX6nvVPpxEjg1UtAz-taJ4n-aol1tAUkFmRvIXChP5M_LHHMnEWg0cRq9RZAwKOXv9YLvytmw7RKCgE-_Rq1zErPVqAeQuJx_MDe05IHdDu-Mja0g36W0OIndu7TW_aCOFgiPm1UcyiKArscTievKPZWsQcCQzEjd4X8QoUPMjce3y1LjS9QO7yWfn7y52ULVivLT82Nc_GZy1GOd8VlzNzfDKVyPUKSyMuzGmaz7vKvJ85Dgnjj9-jvvcyy_dmpEbZNj1hlh0kwlHcvxjcFSrjNxoCdn_F-pYeFH_lJZX7Kv5cAXidfgdaZj59H5zRjGYCv7_q3]--></g></svg>