<?xml version="1.0" encoding="us-ascii" standalone="no"?><svg xmlns="http://www.w3.org/2000/svg" xmlns:xlink="http://www.w3.org/1999/xlink" contentStyleType="text/css" height="1760px" preserveAspectRatio="none" style="width:3130px;height:1760px;background:#FFFFFF;" version="1.1" viewBox="0 0 3130 1760" width="3130px" zoomAndPan="magnify"><defs/><g><rect fill="#FFFFFF" height="1530.8438" style="stroke:#181818;stroke-width:1.0;" width="10" x="17.5" y="121.5332"/><rect fill="#FFFFFF" height="646.5293" style="stroke:#181818;stroke-width:1.0;" width="10" x="451.5" y="121.5332"/><rect fill="#FFFFFF" height="31.291" style="stroke:#181818;stroke-width:1.0;" width="10" x="451.5" y="799.3535"/><rect fill="#FFFFFF" height="781.4414" style="stroke:#181818;stroke-width:1.0;" width="10" x="451.5" y="861.9355"/><rect fill="#FFFFFF" height="75.582" style="stroke:#181818;stroke-width:1.0;" width="10" x="631.5" y="152.8242"/><rect fill="#FFFFFF" height="477.0742" style="stroke:#181818;stroke-width:1.0;" width="10" x="927.5" y="259.6973"/><rect fill="#FFFFFF" height="718.8594" style="stroke:#181818;stroke-width:1.0;" width="10" x="927.5" y="893.2266"/><rect fill="#FFFFFF" height="31.291" style="stroke:#181818;stroke-width:1.0;" width="10" x="1090" y="322.2793"/><rect fill="#FFFFFF" height="31.291" style="stroke:#181818;stroke-width:1.0;" width="10" x="1090" y="924.5176"/><rect fill="#FFFFFF" height="320.6191" style="stroke:#181818;stroke-width:1.0;" width="10" x="1388.5" y="384.8613"/><rect fill="#FFFFFF" height="75.582" style="stroke:#181818;stroke-width:1.0;" width="10" x="1674" y="416.1523"/><rect fill="#FFFFFF" height="75.582" style="stroke:#181818;stroke-width:1.0;" width="10" x="1674" y="987.0996"/><rect fill="#FFFFFF" height="518.1133" style="stroke:#181818;stroke-width:1.0;" width="10" x="1848" y="1093.9727"/><rect fill="#FFFFFF" height="30" style="stroke:#181818;stroke-width:1.0;" width="10" x="2584.5" y="1320.0488"/><rect fill="#FFFFFF" height="151.1641" style="stroke:#181818;stroke-width:1.0;" width="10" x="2693.5" y="523.0254"/><rect fill="#FFFFFF" height="75.582" style="stroke:#181818;stroke-width:1.0;" width="10" x="2693.5" y="1169.5547"/><rect fill="#FFFFFF" height="75.582" style="stroke:#181818;stroke-width:1.0;" width="10" x="2693.5" y="1381.3398"/><rect fill="#FFFFFF" height="30" style="stroke:#181818;stroke-width:1.0;" width="10" x="2951.5" y="1488.2129"/><rect fill="#FFFFFF" height="31.291" style="stroke:#181818;stroke-width:1.0;" width="10" x="3068.5" y="1549.5039"/><line style="stroke:#181818;stroke-width:0.5;stroke-dasharray:5.0,5.0;" x1="22" x2="22" y1="88.2422" y2="1661.377"/><line style="stroke:#181818;stroke-width:0.5;stroke-dasharray:5.0,5.0;" x1="456.5" x2="456.5" y1="88.2422" y2="1661.377"/><line style="stroke:#181818;stroke-width:0.5;stroke-dasharray:5.0,5.0;" x1="636.5" x2="636.5" y1="88.2422" y2="1661.377"/><line style="stroke:#181818;stroke-width:0.5;stroke-dasharray:5.0,5.0;" x1="932.5" x2="932.5" y1="88.2422" y2="1661.377"/><line style="stroke:#181818;stroke-width:0.5;stroke-dasharray:5.0,5.0;" x1="1094.5" x2="1094.5" y1="88.2422" y2="1661.377"/><line style="stroke:#181818;stroke-width:0.5;stroke-dasharray:5.0,5.0;" x1="1393.5" x2="1393.5" y1="88.2422" y2="1661.377"/><line style="stroke:#181818;stroke-width:0.5;stroke-dasharray:5.0,5.0;" x1="1556.5" x2="1556.5" y1="88.2422" y2="1661.377"/><line style="stroke:#181818;stroke-width:0.5;stroke-dasharray:5.0,5.0;" x1="1678.5" x2="1678.5" y1="88.2422" y2="1661.377"/><line style="stroke:#181818;stroke-width:0.5;stroke-dasharray:5.0,5.0;" x1="1852.5" x2="1852.5" y1="88.2422" y2="1661.377"/><line style="stroke:#181818;stroke-width:0.5;stroke-dasharray:5.0,5.0;" x1="2505.5" x2="2505.5" y1="1284.9473" y2="1661.377"/><line style="stroke:#181818;stroke-width:0.5;stroke-dasharray:5.0,5.0;" x1="2589.5" x2="2589.5" y1="88.2422" y2="1661.377"/><line style="stroke:#181818;stroke-width:0.5;stroke-dasharray:5.0,5.0;" x1="2698.5" x2="2698.5" y1="88.2422" y2="1661.377"/><line style="stroke:#181818;stroke-width:0.5;stroke-dasharray:5.0,5.0;" x1="2956" x2="2956" y1="88.2422" y2="1661.377"/><line style="stroke:#181818;stroke-width:0.5;stroke-dasharray:5.0,5.0;" x1="3073" x2="3073" y1="88.2422" y2="1661.377"/><text fill="#000000" font-family="sans-serif" font-size="14" lengthAdjust="spacing" textLength="29" x="5" y="84.7285">User</text><ellipse cx="22.5" cy="18.1211" fill="#E2E2F0" rx="8" ry="8" style="stroke:#181818;stroke-width:0.5;"/><path d="M22.5,26.1211 L22.5,53.1211 M9.5,34.1211 L35.5,34.1211 M22.5,53.1211 L9.5,68.1211 M22.5,53.1211 L35.5,68.1211 " fill="none" style="stroke:#181818;stroke-width:0.5;"/><text fill="#000000" font-family="sans-serif" font-size="14" lengthAdjust="spacing" textLength="29" x="5" y="1675.4844">User</text><ellipse cx="22.5" cy="1687.498" fill="#E2E2F0" rx="8" ry="8" style="stroke:#181818;stroke-width:0.5;"/><path d="M22.5,1695.498 L22.5,1722.498 M9.5,1703.498 L35.5,1703.498 M22.5,1722.498 L9.5,1737.498 M22.5,1722.498 L35.5,1737.498 " fill="none" style="stroke:#181818;stroke-width:0.5;"/><rect fill="#E2E2F0" height="32.6211" rx="2.5" ry="2.5" style="stroke:#181818;stroke-width:0.5;" width="108" x="402.5" y="54.6211"/><text fill="#000000" font-family="sans-serif" font-size="14" lengthAdjust="spacing" textLength="94" x="409.5" y="76.7285">:CreatePostItUI</text><rect fill="#E2E2F0" height="32.6211" rx="2.5" ry="2.5" style="stroke:#181818;stroke-width:0.5;" width="108" x="402.5" y="1660.377"/><text fill="#000000" font-family="sans-serif" font-size="14" lengthAdjust="spacing" textLength="94" x="409.5" y="1682.4844">:CreatePostItUI</text><rect fill="#E2E2F0" height="32.6211" rx="2.5" ry="2.5" style="stroke:#181818;stroke-width:0.5;" width="144" x="564.5" y="54.6211"/><text fill="#000000" font-family="sans-serif" font-size="14" lengthAdjust="spacing" textLength="130" x="571.5" y="76.7285">:SharedBoardServer</text><rect fill="#E2E2F0" height="32.6211" rx="2.5" ry="2.5" style="stroke:#181818;stroke-width:0.5;" width="144" x="564.5" y="1660.377"/><text fill="#000000" font-family="sans-serif" font-size="14" lengthAdjust="spacing" textLength="130" x="571.5" y="1682.4844">:SharedBoardServer</text><rect fill="#E2E2F0" height="32.6211" rx="2.5" ry="2.5" style="stroke:#181818;stroke-width:0.5;" width="158" x="853.5" y="54.6211"/><text fill="#000000" font-family="sans-serif" font-size="14" lengthAdjust="spacing" textLength="144" x="860.5" y="76.7285">:CreatePostItController</text><rect fill="#E2E2F0" height="32.6211" rx="2.5" ry="2.5" style="stroke:#181818;stroke-width:0.5;" width="158" x="853.5" y="1660.377"/><text fill="#000000" font-family="sans-serif" font-size="14" lengthAdjust="spacing" textLength="144" x="860.5" y="1682.4844">:CreatePostItController</text><rect fill="#E2E2F0" height="51.2422" rx="2.5" ry="2.5" style="stroke:#181818;stroke-width:0.5;" width="147" x="1021.5" y="36"/><text fill="#000000" font-family="sans-serif" font-size="14" font-style="italic" lengthAdjust="spacing" textLength="60" x="1065" y="58.1074">&#171;service&#187;</text><text fill="#000000" font-family="sans-serif" font-size="14" lengthAdjust="spacing" textLength="133" x="1028.5" y="76.7285">:AuthorizationService</text><rect fill="#E2E2F0" height="51.2422" rx="2.5" ry="2.5" style="stroke:#181818;stroke-width:0.5;" width="147" x="1021.5" y="1660.377"/><text fill="#000000" font-family="sans-serif" font-size="14" font-style="italic" lengthAdjust="spacing" textLength="60" x="1065" y="1682.4844">&#171;service&#187;</text><text fill="#000000" font-family="sans-serif" font-size="14" lengthAdjust="spacing" textLength="133" x="1028.5" y="1701.1055">:AuthorizationService</text><rect fill="#E2E2F0" height="51.2422" rx="2.5" ry="2.5" style="stroke:#181818;stroke-width:0.5;" width="184" x="1301.5" y="36"/><text fill="#000000" font-family="sans-serif" font-size="14" font-style="italic" lengthAdjust="spacing" textLength="60" x="1363.5" y="58.1074">&#171;service&#187;</text><text fill="#000000" font-family="sans-serif" font-size="14" lengthAdjust="spacing" textLength="170" x="1308.5" y="76.7285">:UserAccessBoardsService</text><rect fill="#E2E2F0" height="51.2422" rx="2.5" ry="2.5" style="stroke:#181818;stroke-width:0.5;" width="184" x="1301.5" y="1660.377"/><text fill="#000000" font-family="sans-serif" font-size="14" font-style="italic" lengthAdjust="spacing" textLength="60" x="1363.5" y="1682.4844">&#171;service&#187;</text><text fill="#000000" font-family="sans-serif" font-size="14" lengthAdjust="spacing" textLength="170" x="1308.5" y="1701.1055">:UserAccessBoardsService</text><text fill="#000000" font-family="sans-serif" font-size="14" font-style="italic" lengthAdjust="spacing" textLength="79" x="1514" y="66.1074">&#171;repository&#187;</text><text fill="#000000" font-family="sans-serif" font-size="14" lengthAdjust="spacing" textLength="116" x="1495.5" y="84.7285">RepositoryFactory</text><path d="M1538.5,15 C1538.5,5 1556.5,5 1556.5,5 C1556.5,5 1574.5,5 1574.5,15 L1574.5,41 C1574.5,51 1556.5,51 1556.5,51 C1556.5,51 1538.5,51 1538.5,41 L1538.5,15 " fill="#E2E2F0" style="stroke:#181818;stroke-width:1.5;"/><path d="M1538.5,15 C1538.5,25 1556.5,25 1556.5,25 C1556.5,25 1574.5,25 1574.5,15 " fill="none" style="stroke:#181818;stroke-width:1.5;"/><text fill="#000000" font-family="sans-serif" font-size="14" font-style="italic" lengthAdjust="spacing" textLength="79" x="1514" y="1675.4844">&#171;repository&#187;</text><text fill="#000000" font-family="sans-serif" font-size="14" lengthAdjust="spacing" textLength="116" x="1495.5" y="1694.1055">RepositoryFactory</text><path d="M1538.5,1707.6191 C1538.5,1697.6191 1556.5,1697.6191 1556.5,1697.6191 C1556.5,1697.6191 1574.5,1697.6191 1574.5,1707.6191 L1574.5,1733.6191 C1574.5,1743.6191 1556.5,1743.6191 1556.5,1743.6191 C1556.5,1743.6191 1538.5,1743.6191 1538.5,1733.6191 L1538.5,1707.6191 " fill="#E2E2F0" style="stroke:#181818;stroke-width:1.5;"/><path d="M1538.5,1707.6191 C1538.5,1717.6191 1556.5,1717.6191 1556.5,1717.6191 C1556.5,1717.6191 1574.5,1717.6191 1574.5,1707.6191 " fill="none" style="stroke:#181818;stroke-width:1.5;"/><text fill="#000000" font-family="sans-serif" font-size="14" font-style="italic" lengthAdjust="spacing" textLength="79" x="1636.5" y="66.1074">&#171;repository&#187;</text><text fill="#000000" font-family="sans-serif" font-size="14" lengthAdjust="spacing" textLength="97" x="1627.5" y="84.7285">UserRepository</text><path d="M1661,15 C1661,5 1679,5 1679,5 C1679,5 1697,5 1697,15 L1697,41 C1697,51 1679,51 1679,51 C1679,51 1661,51 1661,41 L1661,15 " fill="#E2E2F0" style="stroke:#181818;stroke-width:1.5;"/><path d="M1661,15 C1661,25 1679,25 1679,25 C1679,25 1697,25 1697,15 " fill="none" style="stroke:#181818;stroke-width:1.5;"/><text fill="#000000" font-family="sans-serif" font-size="14" font-style="italic" lengthAdjust="spacing" textLength="79" x="1636.5" y="1675.4844">&#171;repository&#187;</text><text fill="#000000" font-family="sans-serif" font-size="14" lengthAdjust="spacing" textLength="97" x="1627.5" y="1694.1055">UserRepository</text><path d="M1661,1707.6191 C1661,1697.6191 1679,1697.6191 1679,1697.6191 C1679,1697.6191 1697,1697.6191 1697,1707.6191 L1697,1733.6191 C1697,1743.6191 1679,1743.6191 1679,1743.6191 C1679,1743.6191 1661,1743.6191 1661,1733.6191 L1661,1707.6191 " fill="#E2E2F0" style="stroke:#181818;stroke-width:1.5;"/><path d="M1661,1707.6191 C1661,1717.6191 1679,1717.6191 1679,1717.6191 C1679,1717.6191 1697,1717.6191 1697,1707.6191 " fill="none" style="stroke:#181818;stroke-width:1.5;"/><rect fill="#E2E2F0" height="51.2422" rx="2.5" ry="2.5" style="stroke:#181818;stroke-width:0.5;" width="143" x="1781.5" y="36"/><text fill="#000000" font-family="sans-serif" font-size="14" font-style="italic" lengthAdjust="spacing" textLength="60" x="1823" y="58.1074">&#171;service&#187;</text><text fill="#000000" font-family="sans-serif" font-size="14" lengthAdjust="spacing" textLength="129" x="1788.5" y="76.7285">:CreatePostItService</text><rect fill="#E2E2F0" height="51.2422" rx="2.5" ry="2.5" style="stroke:#181818;stroke-width:0.5;" width="143" x="1781.5" y="1660.377"/><text fill="#000000" font-family="sans-serif" font-size="14" font-style="italic" lengthAdjust="spacing" textLength="60" x="1823" y="1682.4844">&#171;service&#187;</text><text fill="#000000" font-family="sans-serif" font-size="14" lengthAdjust="spacing" textLength="129" x="1788.5" y="1701.1055">:CreatePostItService</text><rect fill="#E2E2F0" height="32.6211" rx="2.5" ry="2.5" style="stroke:#181818;stroke-width:0.5;" width="53" x="2479.5" y="1660.377"/><text fill="#000000" font-family="sans-serif" font-size="14" lengthAdjust="spacing" textLength="39" x="2486.5" y="1682.4844">:PostIt</text><rect fill="#E2E2F0" height="32.6211" rx="2.5" ry="2.5" style="stroke:#181818;stroke-width:0.5;" width="94" x="2542.5" y="54.6211"/><text fill="#000000" font-family="sans-serif" font-size="14" lengthAdjust="spacing" textLength="80" x="2549.5" y="76.7285">:ShareBoard</text><rect fill="#E2E2F0" height="32.6211" rx="2.5" ry="2.5" style="stroke:#181818;stroke-width:0.5;" width="94" x="2542.5" y="1660.377"/><text fill="#000000" font-family="sans-serif" font-size="14" lengthAdjust="spacing" textLength="80" x="2549.5" y="1682.4844">:ShareBoard</text><text fill="#000000" font-family="sans-serif" font-size="14" font-style="italic" lengthAdjust="spacing" textLength="79" x="2656" y="66.1074">&#171;repository&#187;</text><text fill="#000000" font-family="sans-serif" font-size="14" lengthAdjust="spacing" textLength="98" x="2646.5" y="84.7285">BoardRepsitory</text><path d="M2680.5,15 C2680.5,5 2698.5,5 2698.5,5 C2698.5,5 2716.5,5 2716.5,15 L2716.5,41 C2716.5,51 2698.5,51 2698.5,51 C2698.5,51 2680.5,51 2680.5,41 L2680.5,15 " fill="#E2E2F0" style="stroke:#181818;stroke-width:1.5;"/><path d="M2680.5,15 C2680.5,25 2698.5,25 2698.5,25 C2698.5,25 2716.5,25 2716.5,15 " fill="none" style="stroke:#181818;stroke-width:1.5;"/><text fill="#000000" font-family="sans-serif" font-size="14" font-style="italic" lengthAdjust="spacing" textLength="79" x="2656" y="1675.4844">&#171;repository&#187;</text><text fill="#000000" font-family="sans-serif" font-size="14" lengthAdjust="spacing" textLength="98" x="2646.5" y="1694.1055">BoardRepsitory</text><path d="M2680.5,1707.6191 C2680.5,1697.6191 2698.5,1697.6191 2698.5,1697.6191 C2698.5,1697.6191 2716.5,1697.6191 2716.5,1707.6191 L2716.5,1733.6191 C2716.5,1743.6191 2698.5,1743.6191 2698.5,1743.6191 C2698.5,1743.6191 2680.5,1743.6191 2680.5,1733.6191 L2680.5,1707.6191 " fill="#E2E2F0" style="stroke:#181818;stroke-width:1.5;"/><path d="M2680.5,1707.6191 C2680.5,1717.6191 2698.5,1717.6191 2698.5,1717.6191 C2698.5,1717.6191 2716.5,1717.6191 2716.5,1707.6191 " fill="none" style="stroke:#181818;stroke-width:1.5;"/><rect fill="#E2E2F0" height="51.2422" rx="2.5" ry="2.5" style="stroke:#181818;stroke-width:0.5;" width="113" x="2900" y="36"/><text fill="#000000" font-family="sans-serif" font-size="14" font-style="italic" lengthAdjust="spacing" textLength="74" x="2919.5" y="58.1074">&#171;publisher&#187;</text><text fill="#000000" font-family="sans-serif" font-size="14" lengthAdjust="spacing" textLength="99" x="2907" y="76.7285">:EventPublisher</text><rect fill="#E2E2F0" height="51.2422" rx="2.5" ry="2.5" style="stroke:#181818;stroke-width:0.5;" width="113" x="2900" y="1660.377"/><text fill="#000000" font-family="sans-serif" font-size="14" font-style="italic" lengthAdjust="spacing" textLength="74" x="2919.5" y="1682.4844">&#171;publisher&#187;</text><text fill="#000000" font-family="sans-serif" font-size="14" lengthAdjust="spacing" textLength="99" x="2907" y="1701.1055">:EventPublisher</text><rect fill="#E2E2F0" height="51.2422" rx="2.5" ry="2.5" style="stroke:#181818;stroke-width:0.5;" width="101" x="3023" y="36"/><text fill="#000000" font-family="sans-serif" font-size="14" font-style="italic" lengthAdjust="spacing" textLength="64" x="3041.5" y="58.1074">&#171;mapper&#187;</text><text fill="#000000" font-family="sans-serif" font-size="14" lengthAdjust="spacing" textLength="87" x="3030" y="76.7285">:PostItMapper</text><rect fill="#E2E2F0" height="51.2422" rx="2.5" ry="2.5" style="stroke:#181818;stroke-width:0.5;" width="101" x="3023" y="1660.377"/><text fill="#000000" font-family="sans-serif" font-size="14" font-style="italic" lengthAdjust="spacing" textLength="64" x="3041.5" y="1682.4844">&#171;mapper&#187;</text><text fill="#000000" font-family="sans-serif" font-size="14" lengthAdjust="spacing" textLength="87" x="3030" y="1701.1055">:PostItMapper</text><rect fill="#FFFFFF" height="1530.8438" style="stroke:#181818;stroke-width:1.0;" width="10" x="17.5" y="121.5332"/><rect fill="#FFFFFF" height="646.5293" style="stroke:#181818;stroke-width:1.0;" width="10" x="451.5" y="121.5332"/><rect fill="#FFFFFF" height="31.291" style="stroke:#181818;stroke-width:1.0;" width="10" x="451.5" y="799.3535"/><rect fill="#FFFFFF" height="781.4414" style="stroke:#181818;stroke-width:1.0;" width="10" x="451.5" y="861.9355"/><rect fill="#FFFFFF" height="75.582" style="stroke:#181818;stroke-width:1.0;" width="10" x="631.5" y="152.8242"/><rect fill="#FFFFFF" height="477.0742" style="stroke:#181818;stroke-width:1.0;" width="10" x="927.5" y="259.6973"/><rect fill="#FFFFFF" height="718.8594" style="stroke:#181818;stroke-width:1.0;" width="10" x="927.5" y="893.2266"/><rect fill="#FFFFFF" height="31.291" style="stroke:#181818;stroke-width:1.0;" width="10" x="1090" y="322.2793"/><rect fill="#FFFFFF" height="31.291" style="stroke:#181818;stroke-width:1.0;" width="10" x="1090" y="924.5176"/><rect fill="#FFFFFF" height="320.6191" style="stroke:#181818;stroke-width:1.0;" width="10" x="1388.5" y="384.8613"/><rect fill="#FFFFFF" height="75.582" style="stroke:#181818;stroke-width:1.0;" width="10" x="1674" y="416.1523"/><rect fill="#FFFFFF" height="75.582" style="stroke:#181818;stroke-width:1.0;" width="10" x="1674" y="987.0996"/><rect fill="#FFFFFF" height="518.1133" style="stroke:#181818;stroke-width:1.0;" width="10" x="1848" y="1093.9727"/><rect fill="#FFFFFF" height="30" style="stroke:#181818;stroke-width:1.0;" width="10" x="2584.5" y="1320.0488"/><rect fill="#FFFFFF" height="151.1641" style="stroke:#181818;stroke-width:1.0;" width="10" x="2693.5" y="523.0254"/><rect fill="#FFFFFF" height="75.582" style="stroke:#181818;stroke-width:1.0;" width="10" x="2693.5" y="1169.5547"/><rect fill="#FFFFFF" height="75.582" style="stroke:#181818;stroke-width:1.0;" width="10" x="2693.5" y="1381.3398"/><rect fill="#FFFFFF" height="30" style="stroke:#181818;stroke-width:1.0;" width="10" x="2951.5" y="1488.2129"/><rect fill="#FFFFFF" height="31.291" style="stroke:#181818;stroke-width:1.0;" width="10" x="3068.5" y="1549.5039"/><polygon fill="#181818" points="439.5,117.5332,449.5,121.5332,439.5,125.5332,443.5,121.5332" style="stroke:#181818;stroke-width:1.0;"/><line style="stroke:#181818;stroke-width:1.0;" x1="27.5" x2="445.5" y1="121.5332" y2="121.5332"/><text fill="#000000" font-family="sans-serif" font-size="13" font-weight="bold" lengthAdjust="spacing" textLength="7" x="34.5" y="116.2705">1</text><text fill="#000000" font-family="sans-serif" font-size="13" lengthAdjust="spacing" textLength="138" x="45.5" y="116.2705">Starts creating a Post-It</text><polygon fill="#181818" points="619.5,148.8242,629.5,152.8242,619.5,156.8242,623.5,152.8242" style="stroke:#181818;stroke-width:1.0;"/><line style="stroke:#181818;stroke-width:1.0;" x1="461.5" x2="625.5" y1="152.8242" y2="152.8242"/><text fill="#000000" font-family="sans-serif" font-size="13" font-weight="bold" lengthAdjust="spacing" textLength="7" x="468.5" y="147.5615">2</text><text fill="#000000" font-family="sans-serif" font-size="13" lengthAdjust="spacing" textLength="78" x="479.5" y="147.5615">createPostIt()</text><line style="stroke:#181818;stroke-width:1.0;" x1="641.5" x2="683.5" y1="184.1152" y2="184.1152"/><line style="stroke:#181818;stroke-width:1.0;" x1="683.5" x2="683.5" y1="184.1152" y2="197.1152"/><line style="stroke:#181818;stroke-width:1.0;" x1="642.5" x2="683.5" y1="197.1152" y2="197.1152"/><polygon fill="#181818" points="652.5,193.1152,642.5,197.1152,652.5,201.1152,648.5,197.1152" style="stroke:#181818;stroke-width:1.0;"/><text fill="#000000" font-family="sans-serif" font-size="13" font-weight="bold" lengthAdjust="spacing" textLength="7" x="648.5" y="178.8525">3</text><text fill="#000000" font-family="sans-serif" font-size="13" lengthAdjust="spacing" textLength="68" x="659.5" y="178.8525">getInstace()</text><polygon fill="#181818" points="472.5,224.4063,462.5,228.4063,472.5,232.4063,468.5,228.4063" style="stroke:#181818;stroke-width:1.0;"/><line style="stroke:#181818;stroke-width:1.0;stroke-dasharray:2.0,2.0;" x1="466.5" x2="635.5" y1="228.4063" y2="228.4063"/><text fill="#000000" font-family="sans-serif" font-size="13" font-weight="bold" lengthAdjust="spacing" textLength="7" x="478.5" y="223.1436">4</text><text fill="#000000" font-family="sans-serif" font-size="13" lengthAdjust="spacing" textLength="135" x="489.5" y="223.1436">CreatePostItController()</text><polygon fill="#181818" points="915.5,255.6973,925.5,259.6973,915.5,263.6973,919.5,259.6973" style="stroke:#181818;stroke-width:1.0;"/><line style="stroke:#181818;stroke-width:1.0;" x1="461.5" x2="921.5" y1="259.6973" y2="259.6973"/><text fill="#000000" font-family="sans-serif" font-size="13" font-weight="bold" lengthAdjust="spacing" textLength="7" x="468.5" y="254.4346">5</text><text fill="#000000" font-family="sans-serif" font-size="13" lengthAdjust="spacing" textLength="94" x="479.5" y="254.4346">getUserBoards()</text><polygon fill="#181818" points="1544.5,286.9883,1554.5,290.9883,1544.5,294.9883,1548.5,290.9883" style="stroke:#181818;stroke-width:1.0;"/><line style="stroke:#181818;stroke-width:1.0;" x1="937.5" x2="1550.5" y1="290.9883" y2="290.9883"/><text fill="#000000" font-family="sans-serif" font-size="13" font-weight="bold" lengthAdjust="spacing" textLength="7" x="944.5" y="285.7256">6</text><text fill="#000000" font-family="sans-serif" font-size="13" lengthAdjust="spacing" textLength="4" x="955.5" y="285.7256">&#160;</text><polygon fill="#181818" points="1078,318.2793,1088,322.2793,1078,326.2793,1082,322.2793" style="stroke:#181818;stroke-width:1.0;"/><line style="stroke:#181818;stroke-width:1.0;" x1="937.5" x2="1084" y1="322.2793" y2="322.2793"/><text fill="#000000" font-family="sans-serif" font-size="13" font-weight="bold" lengthAdjust="spacing" textLength="7" x="944.5" y="317.0166">7</text><text fill="#000000" font-family="sans-serif" font-size="13" lengthAdjust="spacing" textLength="57" x="955.5" y="317.0166">session( )</text><polygon fill="#181818" points="948.5,349.5703,938.5,353.5703,948.5,357.5703,944.5,353.5703" style="stroke:#181818;stroke-width:1.0;"/><line style="stroke:#181818;stroke-width:1.0;stroke-dasharray:2.0,2.0;" x1="942.5" x2="1094" y1="353.5703" y2="353.5703"/><text fill="#000000" font-family="sans-serif" font-size="13" font-weight="bold" lengthAdjust="spacing" textLength="7" x="954.5" y="348.3076">8</text><text fill="#000000" font-family="sans-serif" font-size="13" lengthAdjust="spacing" textLength="78" x="965.5" y="348.3076">sessionEmail</text><polygon fill="#181818" points="1376.5,380.8613,1386.5,384.8613,1376.5,388.8613,1380.5,384.8613" style="stroke:#181818;stroke-width:1.0;"/><line style="stroke:#181818;stroke-width:1.0;" x1="937.5" x2="1382.5" y1="384.8613" y2="384.8613"/><text fill="#000000" font-family="sans-serif" font-size="13" font-weight="bold" lengthAdjust="spacing" textLength="7" x="944.5" y="379.5986">9</text><text fill="#000000" font-family="sans-serif" font-size="13" lengthAdjust="spacing" textLength="421" x="955.5" y="379.5986">findBoardsOfUserWrite(sessionEmail, theRepository, theUserRepository)</text><polygon fill="#181818" points="1662,412.1523,1672,416.1523,1662,420.1523,1666,416.1523" style="stroke:#181818;stroke-width:1.0;"/><line style="stroke:#181818;stroke-width:1.0;" x1="1398.5" x2="1668" y1="416.1523" y2="416.1523"/><text fill="#000000" font-family="sans-serif" font-size="13" font-weight="bold" lengthAdjust="spacing" textLength="14" x="1405.5" y="410.8896">10</text><text fill="#000000" font-family="sans-serif" font-size="13" lengthAdjust="spacing" textLength="146" x="1423.5" y="410.8896">user = searchUser(email)</text><line style="stroke:#181818;stroke-width:1.0;" x1="1684" x2="1726" y1="447.4434" y2="447.4434"/><line style="stroke:#181818;stroke-width:1.0;" x1="1726" x2="1726" y1="447.4434" y2="460.4434"/><line style="stroke:#181818;stroke-width:1.0;" x1="1685" x2="1726" y1="460.4434" y2="460.4434"/><polygon fill="#181818" points="1695,456.4434,1685,460.4434,1695,464.4434,1691,460.4434" style="stroke:#181818;stroke-width:1.0;"/><text fill="#000000" font-family="sans-serif" font-size="13" font-weight="bold" lengthAdjust="spacing" textLength="14" x="1691" y="442.1807">11</text><text fill="#000000" font-family="sans-serif" font-size="13" lengthAdjust="spacing" textLength="105" x="1709" y="442.1807">searchUser(email)</text><polygon fill="#181818" points="1409.5,487.7344,1399.5,491.7344,1409.5,495.7344,1405.5,491.7344" style="stroke:#181818;stroke-width:1.0;"/><line style="stroke:#181818;stroke-width:1.0;stroke-dasharray:2.0,2.0;" x1="1403.5" x2="1678" y1="491.7344" y2="491.7344"/><text fill="#000000" font-family="sans-serif" font-size="13" font-weight="bold" lengthAdjust="spacing" textLength="14" x="1415.5" y="486.4717">12</text><text fill="#000000" font-family="sans-serif" font-size="13" lengthAdjust="spacing" textLength="25" x="1433.5" y="486.4717">user</text><polygon fill="#181818" points="2681.5,519.0254,2691.5,523.0254,2681.5,527.0254,2685.5,523.0254" style="stroke:#181818;stroke-width:1.0;"/><line style="stroke:#181818;stroke-width:1.0;" x1="1398.5" x2="2687.5" y1="523.0254" y2="523.0254"/><text fill="#000000" font-family="sans-serif" font-size="13" font-weight="bold" lengthAdjust="spacing" textLength="14" x="1405.5" y="517.7627">13</text><text fill="#000000" font-family="sans-serif" font-size="13" lengthAdjust="spacing" textLength="4" x="1423.5" y="517.7627">&#160;</text><line style="stroke:#181818;stroke-width:1.0;" x1="2703.5" x2="2745.5" y1="554.3164" y2="554.3164"/><line style="stroke:#181818;stroke-width:1.0;" x1="2745.5" x2="2745.5" y1="554.3164" y2="567.3164"/><line style="stroke:#181818;stroke-width:1.0;" x1="2704.5" x2="2745.5" y1="567.3164" y2="567.3164"/><polygon fill="#181818" points="2714.5,563.3164,2704.5,567.3164,2714.5,571.3164,2710.5,567.3164" style="stroke:#181818;stroke-width:1.0;"/><text fill="#000000" font-family="sans-serif" font-size="13" font-weight="bold" lengthAdjust="spacing" textLength="14" x="2710.5" y="549.0537">14</text><text fill="#000000" font-family="sans-serif" font-size="13" lengthAdjust="spacing" textLength="104" x="2728.5" y="549.0537">getallOwned(user)</text><polygon fill="#181818" points="1409.5,594.6074,1399.5,598.6074,1409.5,602.6074,1405.5,598.6074" style="stroke:#181818;stroke-width:1.0;"/><line style="stroke:#181818;stroke-width:1.0;stroke-dasharray:2.0,2.0;" x1="1403.5" x2="2692.5" y1="598.6074" y2="598.6074"/><text fill="#000000" font-family="sans-serif" font-size="13" font-weight="bold" lengthAdjust="spacing" textLength="14" x="1415.5" y="593.3447">15</text><text fill="#000000" font-family="sans-serif" font-size="13" lengthAdjust="spacing" textLength="85" x="1433.5" y="593.3447">onwendBoards</text><line style="stroke:#181818;stroke-width:1.0;" x1="2703.5" x2="2745.5" y1="629.8984" y2="629.8984"/><line style="stroke:#181818;stroke-width:1.0;" x1="2745.5" x2="2745.5" y1="629.8984" y2="642.8984"/><line style="stroke:#181818;stroke-width:1.0;" x1="2704.5" x2="2745.5" y1="642.8984" y2="642.8984"/><polygon fill="#181818" points="2714.5,638.8984,2704.5,642.8984,2714.5,646.8984,2710.5,642.8984" style="stroke:#181818;stroke-width:1.0;"/><text fill="#000000" font-family="sans-serif" font-size="13" font-weight="bold" lengthAdjust="spacing" textLength="14" x="2710.5" y="624.6357">16</text><text fill="#000000" font-family="sans-serif" font-size="13" lengthAdjust="spacing" textLength="166" x="2728.5" y="624.6357">findBoardsSharedWrite(user)</text><polygon fill="#181818" points="1409.5,670.1895,1399.5,674.1895,1409.5,678.1895,1405.5,674.1895" style="stroke:#181818;stroke-width:1.0;"/><line style="stroke:#181818;stroke-width:1.0;stroke-dasharray:2.0,2.0;" x1="1403.5" x2="2697.5" y1="674.1895" y2="674.1895"/><text fill="#000000" font-family="sans-serif" font-size="13" font-weight="bold" lengthAdjust="spacing" textLength="14" x="1415.5" y="668.9268">17</text><text fill="#000000" font-family="sans-serif" font-size="13" lengthAdjust="spacing" textLength="80" x="1433.5" y="668.9268">sharedBoards</text><polygon fill="#181818" points="948.5,701.4805,938.5,705.4805,948.5,709.4805,944.5,705.4805" style="stroke:#181818;stroke-width:1.0;"/><line style="stroke:#181818;stroke-width:1.0;stroke-dasharray:2.0,2.0;" x1="942.5" x2="1392.5" y1="705.4805" y2="705.4805"/><text fill="#000000" font-family="sans-serif" font-size="13" font-weight="bold" lengthAdjust="spacing" textLength="14" x="954.5" y="700.2178">18</text><text fill="#000000" font-family="sans-serif" font-size="13" lengthAdjust="spacing" textLength="39" x="972.5" y="700.2178">boards</text><polygon fill="#181818" points="472.5,732.7715,462.5,736.7715,472.5,740.7715,468.5,736.7715" style="stroke:#181818;stroke-width:1.0;"/><line style="stroke:#181818;stroke-width:1.0;stroke-dasharray:2.0,2.0;" x1="466.5" x2="931.5" y1="736.7715" y2="736.7715"/><text fill="#000000" font-family="sans-serif" font-size="13" font-weight="bold" lengthAdjust="spacing" textLength="14" x="478.5" y="731.5088">19</text><text fill="#000000" font-family="sans-serif" font-size="13" lengthAdjust="spacing" textLength="39" x="496.5" y="731.5088">boards</text><polygon fill="#181818" points="38.5,764.0625,28.5,768.0625,38.5,772.0625,34.5,768.0625" style="stroke:#181818;stroke-width:1.0;"/><line style="stroke:#181818;stroke-width:1.0;stroke-dasharray:2.0,2.0;" x1="32.5" x2="455.5" y1="768.0625" y2="768.0625"/><text fill="#000000" font-family="sans-serif" font-size="13" font-weight="bold" lengthAdjust="spacing" textLength="14" x="44.5" y="762.7998">20</text><text fill="#000000" font-family="sans-serif" font-size="13" lengthAdjust="spacing" textLength="382" x="62.5" y="762.7998">print the boards that the user owns and/or the ones that he shares</text><polygon fill="#181818" points="439.5,795.3535,449.5,799.3535,439.5,803.3535,443.5,799.3535" style="stroke:#181818;stroke-width:1.0;"/><line style="stroke:#181818;stroke-width:1.0;" x1="27.5" x2="445.5" y1="799.3535" y2="799.3535"/><text fill="#000000" font-family="sans-serif" font-size="13" font-weight="bold" lengthAdjust="spacing" textLength="14" x="34.5" y="794.0908">21</text><text fill="#000000" font-family="sans-serif" font-size="13" lengthAdjust="spacing" textLength="89" x="52.5" y="794.0908">selects a board</text><polygon fill="#181818" points="38.5,826.6445,28.5,830.6445,38.5,834.6445,34.5,830.6445" style="stroke:#181818;stroke-width:1.0;"/><line style="stroke:#181818;stroke-width:1.0;stroke-dasharray:2.0,2.0;" x1="32.5" x2="455.5" y1="830.6445" y2="830.6445"/><text fill="#000000" font-family="sans-serif" font-size="13" font-weight="bold" lengthAdjust="spacing" textLength="14" x="44.5" y="825.3818">22</text><text fill="#000000" font-family="sans-serif" font-size="13" lengthAdjust="spacing" textLength="338" x="62.5" y="825.3818">asks for the post-it information (Row, Column and Content)</text><polygon fill="#181818" points="439.5,857.9355,449.5,861.9355,439.5,865.9355,443.5,861.9355" style="stroke:#181818;stroke-width:1.0;"/><line style="stroke:#181818;stroke-width:1.0;" x1="27.5" x2="445.5" y1="861.9355" y2="861.9355"/><text fill="#000000" font-family="sans-serif" font-size="13" font-weight="bold" lengthAdjust="spacing" textLength="14" x="34.5" y="856.6729">23</text><text fill="#000000" font-family="sans-serif" font-size="13" lengthAdjust="spacing" textLength="148" x="52.5" y="856.6729">fills the post-it information</text><polygon fill="#181818" points="915.5,889.2266,925.5,893.2266,915.5,897.2266,919.5,893.2266" style="stroke:#181818;stroke-width:1.0;"/><line style="stroke:#181818;stroke-width:1.0;" x1="461.5" x2="921.5" y1="893.2266" y2="893.2266"/><text fill="#000000" font-family="sans-serif" font-size="13" font-weight="bold" lengthAdjust="spacing" textLength="14" x="468.5" y="887.9639">24</text><text fill="#000000" font-family="sans-serif" font-size="13" lengthAdjust="spacing" textLength="429" x="486.5" y="887.9639">pst = createPostIt(postItRow, postItColumn, postItContent, selectedBoard)</text><polygon fill="#181818" points="1078,920.5176,1088,924.5176,1078,928.5176,1082,924.5176" style="stroke:#181818;stroke-width:1.0;"/><line style="stroke:#181818;stroke-width:1.0;" x1="937.5" x2="1084" y1="924.5176" y2="924.5176"/><text fill="#000000" font-family="sans-serif" font-size="13" font-weight="bold" lengthAdjust="spacing" textLength="14" x="944.5" y="919.2549">25</text><text fill="#000000" font-family="sans-serif" font-size="13" lengthAdjust="spacing" textLength="57" x="962.5" y="919.2549">session( )</text><polygon fill="#181818" points="948.5,951.8086,938.5,955.8086,948.5,959.8086,944.5,955.8086" style="stroke:#181818;stroke-width:1.0;"/><line style="stroke:#181818;stroke-width:1.0;stroke-dasharray:2.0,2.0;" x1="942.5" x2="1094" y1="955.8086" y2="955.8086"/><text fill="#000000" font-family="sans-serif" font-size="13" font-weight="bold" lengthAdjust="spacing" textLength="14" x="954.5" y="950.5459">26</text><text fill="#000000" font-family="sans-serif" font-size="13" lengthAdjust="spacing" textLength="78" x="972.5" y="950.5459">sessionEmail</text><polygon fill="#181818" points="1662,983.0996,1672,987.0996,1662,991.0996,1666,987.0996" style="stroke:#181818;stroke-width:1.0;"/><line style="stroke:#181818;stroke-width:1.0;" x1="937.5" x2="1668" y1="987.0996" y2="987.0996"/><text fill="#000000" font-family="sans-serif" font-size="13" font-weight="bold" lengthAdjust="spacing" textLength="14" x="944.5" y="981.8369">27</text><text fill="#000000" font-family="sans-serif" font-size="13" lengthAdjust="spacing" textLength="152" x="962.5" y="981.8369">searchUser(sessionEmail)</text><line style="stroke:#181818;stroke-width:1.0;" x1="1684" x2="1726" y1="1018.3906" y2="1018.3906"/><line style="stroke:#181818;stroke-width:1.0;" x1="1726" x2="1726" y1="1018.3906" y2="1031.3906"/><line style="stroke:#181818;stroke-width:1.0;" x1="1685" x2="1726" y1="1031.3906" y2="1031.3906"/><polygon fill="#181818" points="1695,1027.3906,1685,1031.3906,1695,1035.3906,1691,1031.3906" style="stroke:#181818;stroke-width:1.0;"/><text fill="#000000" font-family="sans-serif" font-size="13" font-weight="bold" lengthAdjust="spacing" textLength="14" x="1691" y="1013.1279">28</text><text fill="#000000" font-family="sans-serif" font-size="13" lengthAdjust="spacing" textLength="132" x="1709" y="1013.1279">searchUser(userEmail)</text><polygon fill="#181818" points="948.5,1058.6816,938.5,1062.6816,948.5,1066.6816,944.5,1062.6816" style="stroke:#181818;stroke-width:1.0;"/><line style="stroke:#181818;stroke-width:1.0;stroke-dasharray:2.0,2.0;" x1="942.5" x2="1678" y1="1062.6816" y2="1062.6816"/><text fill="#000000" font-family="sans-serif" font-size="13" font-weight="bold" lengthAdjust="spacing" textLength="14" x="954.5" y="1057.4189">29</text><text fill="#000000" font-family="sans-serif" font-size="13" lengthAdjust="spacing" textLength="25" x="972.5" y="1057.4189">user</text><polygon fill="#181818" points="1836,1089.9727,1846,1093.9727,1836,1097.9727,1840,1093.9727" style="stroke:#181818;stroke-width:1.0;"/><line style="stroke:#181818;stroke-width:1.0;" x1="937.5" x2="1842" y1="1093.9727" y2="1093.9727"/><text fill="#000000" font-family="sans-serif" font-size="13" font-weight="bold" lengthAdjust="spacing" textLength="14" x="944.5" y="1088.71">30</text><text fill="#000000" font-family="sans-serif" font-size="13" lengthAdjust="spacing" textLength="387" x="962.5" y="1088.71">createPostIt(postItRow, postItColumn, postItContent, boardId, user)</text><line style="stroke:#181818;stroke-width:1.0;" x1="1858" x2="1900" y1="1125.2637" y2="1125.2637"/><line style="stroke:#181818;stroke-width:1.0;" x1="1900" x2="1900" y1="1125.2637" y2="1138.2637"/><line style="stroke:#181818;stroke-width:1.0;" x1="1859" x2="1900" y1="1138.2637" y2="1138.2637"/><polygon fill="#181818" points="1869,1134.2637,1859,1138.2637,1869,1142.2637,1865,1138.2637" style="stroke:#181818;stroke-width:1.0;"/><text fill="#000000" font-family="sans-serif" font-size="13" font-weight="bold" lengthAdjust="spacing" textLength="14" x="1865" y="1120.001">31</text><text fill="#000000" font-family="sans-serif" font-size="13" lengthAdjust="spacing" textLength="611" x="1883" y="1120.001">createPostItSync(boardId, Integer.parseInt(postItRow), Integer.parseInt(postItColumn), postItContent, user)</text><polygon fill="#181818" points="2681.5,1165.5547,2691.5,1169.5547,2681.5,1173.5547,2685.5,1169.5547" style="stroke:#181818;stroke-width:1.0;"/><line style="stroke:#181818;stroke-width:1.0;" x1="1858" x2="2687.5" y1="1169.5547" y2="1169.5547"/><text fill="#000000" font-family="sans-serif" font-size="13" font-weight="bold" lengthAdjust="spacing" textLength="14" x="1865" y="1164.292">32</text><text fill="#000000" font-family="sans-serif" font-size="13" lengthAdjust="spacing" textLength="216" x="1883" y="1164.292">findByCode(Long.parseLong(boardId))</text><line style="stroke:#181818;stroke-width:1.0;" x1="2703.5" x2="2745.5" y1="1200.8457" y2="1200.8457"/><line style="stroke:#181818;stroke-width:1.0;" x1="2745.5" x2="2745.5" y1="1200.8457" y2="1213.8457"/><line style="stroke:#181818;stroke-width:1.0;" x1="2704.5" x2="2745.5" y1="1213.8457" y2="1213.8457"/><polygon fill="#181818" points="2714.5,1209.8457,2704.5,1213.8457,2714.5,1217.8457,2710.5,1213.8457" style="stroke:#181818;stroke-width:1.0;"/><text fill="#000000" font-family="sans-serif" font-size="13" font-weight="bold" lengthAdjust="spacing" textLength="14" x="2710.5" y="1195.583">33</text><text fill="#000000" font-family="sans-serif" font-size="13" lengthAdjust="spacing" textLength="216" x="2728.5" y="1195.583">findByCode(Long.parseLong(boardId))</text><polygon fill="#181818" points="1869,1241.1367,1859,1245.1367,1869,1249.1367,1865,1245.1367" style="stroke:#181818;stroke-width:1.0;"/><line style="stroke:#181818;stroke-width:1.0;stroke-dasharray:2.0,2.0;" x1="1863" x2="2697.5" y1="1245.1367" y2="1245.1367"/><text fill="#000000" font-family="sans-serif" font-size="13" font-weight="bold" lengthAdjust="spacing" textLength="14" x="1875" y="1239.874">34</text><text fill="#000000" font-family="sans-serif" font-size="13" lengthAdjust="spacing" textLength="32" x="1893" y="1239.874">board</text><polygon fill="#181818" points="2467.5,1272.4277,2477.5,1276.4277,2467.5,1280.4277,2471.5,1276.4277" style="stroke:#181818;stroke-width:1.0;"/><line style="stroke:#181818;stroke-width:1.0;" x1="1858" x2="2473.5" y1="1276.4277" y2="1276.4277"/><text fill="#000000" font-family="sans-serif" font-size="13" font-weight="bold" lengthAdjust="spacing" textLength="14" x="1865" y="1271.165">35</text><text fill="#000000" font-family="sans-serif" font-size="13" lengthAdjust="spacing" textLength="126" x="1883" y="1271.165">postIt = createPostIt()</text><rect fill="#E2E2F0" height="32.6211" rx="2.5" ry="2.5" style="stroke:#181818;stroke-width:0.5;" width="53" x="2479.5" y="1253.1367"/><text fill="#000000" font-family="sans-serif" font-size="14" lengthAdjust="spacing" textLength="39" x="2486.5" y="1275.2441">:PostIt</text><polygon fill="#181818" points="2572.5,1316.0488,2582.5,1320.0488,2572.5,1324.0488,2576.5,1320.0488" style="stroke:#181818;stroke-width:1.0;"/><line style="stroke:#181818;stroke-width:1.0;" x1="1858" x2="2578.5" y1="1320.0488" y2="1320.0488"/><text fill="#000000" font-family="sans-serif" font-size="13" font-weight="bold" lengthAdjust="spacing" textLength="14" x="1865" y="1314.7861">36</text><text fill="#000000" font-family="sans-serif" font-size="13" lengthAdjust="spacing" textLength="83" x="1883" y="1314.7861">addCell(postIt)</text><polygon fill="#181818" points="2681.5,1377.3398,2691.5,1381.3398,2681.5,1385.3398,2685.5,1381.3398" style="stroke:#181818;stroke-width:1.0;"/><line style="stroke:#181818;stroke-width:1.0;" x1="1858" x2="2687.5" y1="1381.3398" y2="1381.3398"/><text fill="#000000" font-family="sans-serif" font-size="13" font-weight="bold" lengthAdjust="spacing" textLength="14" x="1865" y="1376.0771">37</text><text fill="#000000" font-family="sans-serif" font-size="13" lengthAdjust="spacing" textLength="66" x="1883" y="1376.0771">save(postIt)</text><line style="stroke:#181818;stroke-width:1.0;" x1="2703.5" x2="2745.5" y1="1412.6309" y2="1412.6309"/><line style="stroke:#181818;stroke-width:1.0;" x1="2745.5" x2="2745.5" y1="1412.6309" y2="1425.6309"/><line style="stroke:#181818;stroke-width:1.0;" x1="2704.5" x2="2745.5" y1="1425.6309" y2="1425.6309"/><polygon fill="#181818" points="2714.5,1421.6309,2704.5,1425.6309,2714.5,1429.6309,2710.5,1425.6309" style="stroke:#181818;stroke-width:1.0;"/><text fill="#000000" font-family="sans-serif" font-size="13" font-weight="bold" lengthAdjust="spacing" textLength="14" x="2710.5" y="1407.3682">38</text><text fill="#000000" font-family="sans-serif" font-size="13" lengthAdjust="spacing" textLength="66" x="2728.5" y="1407.3682">save(postIt)</text><polygon fill="#181818" points="1869,1452.9219,1859,1456.9219,1869,1460.9219,1865,1456.9219" style="stroke:#181818;stroke-width:1.0;"/><line style="stroke:#181818;stroke-width:1.0;stroke-dasharray:2.0,2.0;" x1="1863" x2="2697.5" y1="1456.9219" y2="1456.9219"/><text fill="#000000" font-family="sans-serif" font-size="13" font-weight="bold" lengthAdjust="spacing" textLength="14" x="1875" y="1451.6592">39</text><text fill="#000000" font-family="sans-serif" font-size="13" lengthAdjust="spacing" textLength="32" x="1893" y="1451.6592">postIt</text><polygon fill="#181818" points="2939.5,1484.2129,2949.5,1488.2129,2939.5,1492.2129,2943.5,1488.2129" style="stroke:#181818;stroke-width:1.0;"/><line style="stroke:#181818;stroke-width:1.0;" x1="1858" x2="2945.5" y1="1488.2129" y2="1488.2129"/><text fill="#000000" font-family="sans-serif" font-size="13" font-weight="bold" lengthAdjust="spacing" textLength="14" x="1865" y="1482.9502">40</text><text fill="#000000" font-family="sans-serif" font-size="13" lengthAdjust="spacing" textLength="87" x="1883" y="1482.9502">publish( event )</text><polygon fill="#181818" points="3056.5,1545.5039,3066.5,1549.5039,3056.5,1553.5039,3060.5,1549.5039" style="stroke:#181818;stroke-width:1.0;"/><line style="stroke:#181818;stroke-width:1.0;" x1="1858" x2="3062.5" y1="1549.5039" y2="1549.5039"/><text fill="#000000" font-family="sans-serif" font-size="13" font-weight="bold" lengthAdjust="spacing" textLength="14" x="1865" y="1544.2412">41</text><text fill="#000000" font-family="sans-serif" font-size="13" lengthAdjust="spacing" textLength="222" x="1883" y="1544.2412">toDTO( board.GetPostIt(row, column) )</text><polygon fill="#181818" points="1869,1576.7949,1859,1580.7949,1869,1584.7949,1865,1580.7949" style="stroke:#181818;stroke-width:1.0;"/><line style="stroke:#181818;stroke-width:1.0;stroke-dasharray:2.0,2.0;" x1="1863" x2="3072.5" y1="1580.7949" y2="1580.7949"/><text fill="#000000" font-family="sans-serif" font-size="13" font-weight="bold" lengthAdjust="spacing" textLength="14" x="1875" y="1575.5322">42</text><text fill="#000000" font-family="sans-serif" font-size="13" lengthAdjust="spacing" textLength="52" x="1893" y="1575.5322">postitDto</text><polygon fill="#181818" points="943.5,1608.0859,933.5,1612.0859,943.5,1616.0859,939.5,1612.0859" style="stroke:#181818;stroke-width:1.0;"/><line style="stroke:#181818;stroke-width:1.0;stroke-dasharray:2.0,2.0;" x1="937.5" x2="1852" y1="1612.0859" y2="1612.0859"/><text fill="#000000" font-family="sans-serif" font-size="13" font-weight="bold" lengthAdjust="spacing" textLength="14" x="949.5" y="1606.8232">43</text><text fill="#000000" font-family="sans-serif" font-size="13" lengthAdjust="spacing" textLength="52" x="967.5" y="1606.8232">postitDto</text><polygon fill="#181818" points="38.5,1639.377,28.5,1643.377,38.5,1647.377,34.5,1643.377" style="stroke:#181818;stroke-width:1.0;"/><line style="stroke:#181818;stroke-width:1.0;stroke-dasharray:2.0,2.0;" x1="32.5" x2="455.5" y1="1643.377" y2="1643.377"/><text fill="#000000" font-family="sans-serif" font-size="13" font-weight="bold" lengthAdjust="spacing" textLength="14" x="44.5" y="1638.1143">44</text><text fill="#000000" font-family="sans-serif" font-size="13" lengthAdjust="spacing" textLength="273" x="62.5" y="1638.1143">Inform that the post-it was created successfully</text><!--SRC=[jLPDZziu3BthLmYzh5FCnzte3f19fri3MqmGTr2WDutD9C8wbYl94yp- -YKbsPQSP0gqs4jYoO_a8_L8-O-zjPt9Rs-xHhIsFpGtbJhS6lZHGrl1TIt5Jei3OwAtgkqFpw0PMrPMQVvaG7DXy1-tEg6jh6I7FlYxVAL1M5WhOmlxLBnpg6A6AVT2GtslXAvBq2-W7QoyBz_mjLAjrQff0XYNh1PMF0i3t7dQG6SaadlrnFY73newvRVkxcQUbxtTAot_5LQgbZZ82fpVvTFNpz_HrlWzD9mdIBalgmgCSM5DRFsql2yJuv7YPkJoILG3oq_BpPpcQ41X9YFdlDoydLHShfZLgaX9fLOUxu3hWfqxAPTdEABVAVh32xHstJytqkp3CJwiqQGRjYvm-oAwBk2_BCdWu3RSsJ2K8B- -Gutnd9SMhGslg0wotN71oS5rOHdMNBvWSPnYfmNcYuPeZjf3-oegOBQOSAHCGep07TYYDLPKW33tPg1mNhA8gY5nXt7H117E6HssLrCSbZJEy8VYebJ6Pw_Hd1lK8Cetuv6DUySyujf7c90F1o6Rc8b73twTUdE-bQtlJVEu9MBVjBIGnIwkkDt394wtJFMwO56LqIrplYa6YZZdFSsFFv6MqDMUB3CWlubLYGaJUZGwWtRl9-RaDaxF-nWY6vx7Ea3b3Djq1A9f7eyjr1avMRYNasFL7c4eYjFSQ3aLomyrNwnpFimqz4n2qdYE27LoU3v5K07z8GqoEmKviJXPEMeQGPsMs4LuDW6EZyAlNVtLiJLSjFKj3dJQL2q422uSsvH5aJQRWGOgx3RXlPzsrSX3c7yCtuOe7NMaj5osk7DmyvTd6tMymWoQ_j0I8qh6ugnOl1L_Avl6N7APiWbDxihR6OlAIpgzSt-EGnSQbvXCAqVcAcGSpZ3MQjoe_rjppdiWDbkaVNEfRUZO0txe74_XREE4m7HxvBzMC2UCehxYlX-cUXKb8xTdlPUlRPMDbWMwse6-mNl102wcs8kBBpsRnGaTpo84dhhtTQLgoFvMxSuxegU1m28PIUQaytzY6oQ0JzAtoQpp0vjryVuzTQmZFDVdoBcyfswgwnKqJSWrkQNIIuObgHhn0gSsQKe99k7kDo-GnqiS4VuIppZGBH-h_c4Ts-5giAFBFETMVVpwcFdgtFm5DYIjILsLFydO6nenCaovIVlHgZWCmNoSKUGJBfcRgCNv69scLuuQew4oZSvXs1n5-D20cflUVGzk-wPvPVEPnTX_]--></g></svg>