<?xml version="1.0" encoding="us-ascii" standalone="no"?><svg xmlns="http://www.w3.org/2000/svg" xmlns:xlink="http://www.w3.org/1999/xlink" contentStyleType="text/css" height="409px" preserveAspectRatio="none" style="width:415px;height:409px;background:#FFFFFF;" version="1.1" viewBox="0 0 415 409" width="415px" zoomAndPan="magnify"><defs/><g><rect fill="#FFFFFF" height="214.3281" style="stroke:#181818;stroke-width:1.0;" width="10" x="17.5" y="93.6211"/><rect fill="#FFFFFF" height="48.582" style="stroke:#181818;stroke-width:1.0;" width="10" x="372.5" y="116.9121"/><rect fill="#FFFFFF" height="48.582" style="stroke:#181818;stroke-width:1.0;" width="10" x="372.5" y="196.7852"/><rect fill="#FFFFFF" height="31.291" style="stroke:#181818;stroke-width:1.0;" width="10" x="372.5" y="276.6582"/><line style="stroke:#181818;stroke-width:0.5;stroke-dasharray:5.0,5.0;" x1="22" x2="22" y1="83.6211" y2="325.9492"/><line style="stroke:#181818;stroke-width:0.5;stroke-dasharray:5.0,5.0;" x1="377.5" x2="377.5" y1="83.6211" y2="325.9492"/><text fill="#000000" font-family="sans-serif" font-size="14" lengthAdjust="spacing" textLength="29" x="5" y="80.1074">User</text><ellipse cx="22.5" cy="13.5" fill="#E2E2F0" rx="8" ry="8" style="stroke:#181818;stroke-width:0.5;"/><path d="M22.5,21.5 L22.5,48.5 M9.5,29.5 L35.5,29.5 M22.5,48.5 L9.5,63.5 M22.5,48.5 L35.5,63.5 " fill="none" style="stroke:#181818;stroke-width:0.5;"/><text fill="#000000" font-family="sans-serif" font-size="14" lengthAdjust="spacing" textLength="29" x="5" y="340.0566">User</text><ellipse cx="22.5" cy="352.0703" fill="#E2E2F0" rx="8" ry="8" style="stroke:#181818;stroke-width:0.5;"/><path d="M22.5,360.0703 L22.5,387.0703 M9.5,368.0703 L35.5,368.0703 M22.5,387.0703 L9.5,402.0703 M22.5,387.0703 L35.5,402.0703 " fill="none" style="stroke:#181818;stroke-width:0.5;"/><rect fill="#E2E2F0" height="32.6211" rx="2.5" ry="2.5" style="stroke:#181818;stroke-width:0.5;" width="64" x="345.5" y="50"/><text fill="#000000" font-family="sans-serif" font-size="14" lengthAdjust="spacing" textLength="50" x="352.5" y="72.1074">:System</text><rect fill="#E2E2F0" height="32.6211" rx="2.5" ry="2.5" style="stroke:#181818;stroke-width:0.5;" width="64" x="345.5" y="324.9492"/><text fill="#000000" font-family="sans-serif" font-size="14" lengthAdjust="spacing" textLength="50" x="352.5" y="347.0566">:System</text><rect fill="#FFFFFF" height="214.3281" style="stroke:#181818;stroke-width:1.0;" width="10" x="17.5" y="93.6211"/><rect fill="#FFFFFF" height="48.582" style="stroke:#181818;stroke-width:1.0;" width="10" x="372.5" y="116.9121"/><rect fill="#FFFFFF" height="48.582" style="stroke:#181818;stroke-width:1.0;" width="10" x="372.5" y="196.7852"/><rect fill="#FFFFFF" height="31.291" style="stroke:#181818;stroke-width:1.0;" width="10" x="372.5" y="276.6582"/><polygon fill="#181818" points="360.5,112.9121,370.5,116.9121,360.5,120.9121,364.5,116.9121" style="stroke:#181818;stroke-width:1.0;"/><line style="stroke:#181818;stroke-width:1.0;" x1="27.5" x2="366.5" y1="116.9121" y2="116.9121"/><text fill="#000000" font-family="sans-serif" font-size="13" font-weight="bold" lengthAdjust="spacing" textLength="7" x="34.5" y="111.6494">1</text><text fill="#000000" font-family="sans-serif" font-size="13" lengthAdjust="spacing" textLength="235" x="45.5" y="111.6494">asks to create a Post-It in a Share board</text><polygon fill="#181818" points="38.5,161.4941,28.5,165.4941,38.5,169.4941,34.5,165.4941" style="stroke:#181818;stroke-width:1.0;"/><line style="stroke:#181818;stroke-width:1.0;" x1="32.5" x2="376.5" y1="165.4941" y2="165.4941"/><text fill="#000000" font-family="sans-serif" font-size="13" font-weight="bold" lengthAdjust="spacing" textLength="7" x="44.5" y="151.5859">2</text><text fill="#000000" font-family="sans-serif" font-size="13" lengthAdjust="spacing" textLength="199" x="55.5" y="142.9404">show boards that the user owns or</text><text fill="#000000" font-family="sans-serif" font-size="13" lengthAdjust="spacing" textLength="208" x="59.5" y="160.2314">boards that are shared with the user</text><polygon fill="#181818" points="360.5,192.7852,370.5,196.7852,360.5,200.7852,364.5,196.7852" style="stroke:#181818;stroke-width:1.0;"/><line style="stroke:#181818;stroke-width:1.0;" x1="27.5" x2="366.5" y1="196.7852" y2="196.7852"/><text fill="#000000" font-family="sans-serif" font-size="13" font-weight="bold" lengthAdjust="spacing" textLength="7" x="34.5" y="191.5225">3</text><text fill="#000000" font-family="sans-serif" font-size="13" lengthAdjust="spacing" textLength="161" x="45.5" y="191.5225">types the post-it information</text><polygon fill="#181818" points="38.5,241.3672,28.5,245.3672,38.5,249.3672,34.5,245.3672" style="stroke:#181818;stroke-width:1.0;"/><line style="stroke:#181818;stroke-width:1.0;" x1="32.5" x2="376.5" y1="245.3672" y2="245.3672"/><text fill="#000000" font-family="sans-serif" font-size="13" font-weight="bold" lengthAdjust="spacing" textLength="7" x="44.5" y="231.459">4</text><text fill="#000000" font-family="sans-serif" font-size="13" lengthAdjust="spacing" textLength="306" x="55.5" y="222.8135">verify if the post-it information is valid, print the post-it</text><text fill="#000000" font-family="sans-serif" font-size="13" lengthAdjust="spacing" textLength="212" x="59.5" y="240.1045">information and asks for confirmation</text><polygon fill="#181818" points="360.5,272.6582,370.5,276.6582,360.5,280.6582,364.5,276.6582" style="stroke:#181818;stroke-width:1.0;"/><line style="stroke:#181818;stroke-width:1.0;" x1="27.5" x2="366.5" y1="276.6582" y2="276.6582"/><text fill="#000000" font-family="sans-serif" font-size="13" font-weight="bold" lengthAdjust="spacing" textLength="7" x="34.5" y="271.3955">5</text><text fill="#000000" font-family="sans-serif" font-size="13" lengthAdjust="spacing" textLength="161" x="45.5" y="271.3955">confirms the post-it creation</text><polygon fill="#181818" points="33.5,303.9492,23.5,307.9492,33.5,311.9492,29.5,307.9492" style="stroke:#181818;stroke-width:1.0;"/><line style="stroke:#181818;stroke-width:1.0;" x1="27.5" x2="376.5" y1="307.9492" y2="307.9492"/><text fill="#000000" font-family="sans-serif" font-size="13" font-weight="bold" lengthAdjust="spacing" textLength="7" x="39.5" y="302.6865">6</text><text fill="#000000" font-family="sans-serif" font-size="13" lengthAdjust="spacing" textLength="310" x="50.5" y="302.6865">Informs that the post-it has been created successfully</text><!--SRC=[bLAzReGm3Dvv2kkMBgNi3DrlgtJgriKafeaA2OqT46_VXECGI7VITR4Sn_v-uhmOaO7hgXewT1BxxatvlcBwZUGKbThYTy2-A32ATx5lAAHSYG_moMjkHnHQZpb2-Gwd-ZApK7-g0Vc7GJoeGBaFuSEpb6S1wzBXOZ0GD1w3te5juyMMPTICNWCRFrqd4gv1IO4WPc8_EOOaxSiTxZC3PnuDanMpzHUQxZ3Uyo3pGBpC3LcypU9R7teKwzspkaSAjft1je-0m3ACs5dz2aEmJWvzoTE-5Ps-lcmgWVAkjJSrJvjQfuw-bYtzmzHvqRHRn0t884D3vDQzQ-2e536tiUlc1o9trUKx_G40]--></g></svg>