<?xml version="1.0" encoding="us-ascii" standalone="no"?><svg xmlns="http://www.w3.org/2000/svg" xmlns:xlink="http://www.w3.org/1999/xlink" contentStyleType="text/css" height="1335px" preserveAspectRatio="none" style="width:1005px;height:1335px;background:#FFFFFF;" version="1.1" viewBox="0 0 1005 1335" width="1005px" zoomAndPan="magnify"><defs/><g><!--class eCourseSystemUser--><g id="elem_eCourseSystemUser"><rect codeLine="3" fill="#F1F1F1" height="401.8008" id="eCourseSystemUser" rx="2.5" ry="2.5" style="stroke:#181818;stroke-width:0.5;" width="545" x="409" y="7"/><ellipse cx="612.75" cy="23" fill="#ADD1B2" rx="11" ry="11" style="stroke:#181818;stroke-width:1.0;"/><path d="M615.5156,18.875 Q615.6719,18.6563 615.8594,18.5469 Q616.0469,18.4375 616.2656,18.4375 Q616.6406,18.4375 616.875,18.7031 Q617.1094,18.9531 617.1094,19.5625 L617.1094,21.0156 Q617.1094,21.625 616.875,21.8906 Q616.6406,22.1563 616.2656,22.1563 Q615.9219,22.1563 615.7188,21.9531 Q615.5156,21.7656 615.4063,21.25 Q615.3594,20.8906 615.1719,20.7031 Q614.8438,20.3281 614.2344,20.1094 Q613.625,19.8906 613,19.8906 Q612.2344,19.8906 611.5938,20.2188 Q610.9688,20.5469 610.4688,21.2969 Q609.9844,22.0469 609.9844,23.0781 L609.9844,24.1719 Q609.9844,25.4063 610.875,26.2344 Q611.7656,27.0469 613.3594,27.0469 Q614.2969,27.0469 614.9531,26.7969 Q615.3438,26.6406 615.7656,26.2031 Q616.0313,25.9375 616.1719,25.8594 Q616.3281,25.7813 616.5313,25.7813 Q616.8594,25.7813 617.1094,26.0469 Q617.375,26.2969 617.375,26.6406 Q617.375,26.9844 617.0313,27.3906 Q616.5313,27.9688 615.7344,28.2969 Q614.6563,28.75 613.3594,28.75 Q611.8438,28.75 610.6406,28.125 Q609.6563,27.625 608.9688,26.5625 Q608.2813,25.4844 608.2813,24.2031 L608.2813,23.0469 Q608.2813,21.7188 608.8906,20.5781 Q609.5156,19.4219 610.6094,18.8125 Q611.7031,18.1875 612.9375,18.1875 Q613.6719,18.1875 614.3125,18.3594 Q614.9688,18.5156 615.5156,18.875 Z " fill="#000000"/><text fill="#000000" font-family="sans-serif" font-size="14" lengthAdjust="spacing" textLength="129" x="633.25" y="28.7969">eCourseSystemUser</text><line style="stroke:#181818;stroke-width:0.5;" x1="410" x2="953" y1="39" y2="39"/><ellipse cx="420" cy="53.8105" fill="#000000" rx="3" ry="3" style="stroke:#000000;stroke-width:1.0;"/><text fill="#000000" font-family="sans-serif" font-size="14" lengthAdjust="spacing" textLength="131" x="429" y="58.1074">EmailAdderess email</text><ellipse cx="420" cy="72.4316" fill="#000000" rx="3" ry="3" style="stroke:#000000;stroke-width:1.0;"/><text fill="#000000" font-family="sans-serif" font-size="14" lengthAdjust="spacing" textLength="111" x="429" y="76.7285">UserStatus status</text><ellipse cx="420" cy="91.0527" fill="#000000" rx="3" ry="3" style="stroke:#000000;stroke-width:1.0;"/><text fill="#000000" font-family="sans-serif" font-size="14" lengthAdjust="spacing" textLength="197" x="429" y="95.3496">List&lt;Course&gt; coursesTeaching</text><ellipse cx="420" cy="109.6738" fill="#000000" rx="3" ry="3" style="stroke:#000000;stroke-width:1.0;"/><text fill="#000000" font-family="sans-serif" font-size="14" lengthAdjust="spacing" textLength="194" x="429" y="113.9707">List&lt;Course&gt; coursesTeached</text><ellipse cx="420" cy="128.2949" fill="#000000" rx="3" ry="3" style="stroke:#000000;stroke-width:1.0;"/><text fill="#000000" font-family="sans-serif" font-size="14" lengthAdjust="spacing" textLength="113" x="429" y="132.5918">Acronym acronym</text><ellipse cx="420" cy="146.916" fill="#000000" rx="3" ry="3" style="stroke:#000000;stroke-width:1.0;"/><text fill="#000000" font-family="sans-serif" font-size="14" lengthAdjust="spacing" textLength="40" x="429" y="151.2129">NIF nif</text><ellipse cx="420" cy="165.5371" fill="#000000" rx="3" ry="3" style="stroke:#000000;stroke-width:1.0;"/><text fill="#000000" font-family="sans-serif" font-size="14" lengthAdjust="spacing" textLength="121" x="429" y="169.834">BirthDate birthDate</text><ellipse cx="420" cy="184.1582" fill="#000000" rx="3" ry="3" style="stroke:#000000;stroke-width:1.0;"/><text fill="#000000" font-family="sans-serif" font-size="14" lengthAdjust="spacing" textLength="81" x="429" y="188.4551">Grade grade</text><ellipse cx="420" cy="202.7793" fill="#000000" rx="3" ry="3" style="stroke:#000000;stroke-width:1.0;"/><text fill="#000000" font-family="sans-serif" font-size="14" lengthAdjust="spacing" textLength="165" x="429" y="207.0762">int mecanographicNumber</text><ellipse cx="420" cy="221.4004" fill="#000000" rx="3" ry="3" style="stroke:#000000;stroke-width:1.0;"/><text fill="#000000" font-family="sans-serif" font-size="14" lengthAdjust="spacing" textLength="152" x="429" y="225.6973">SystemUser systemUser</text><line style="stroke:#181818;stroke-width:0.5;" x1="410" x2="953" y1="233.2109" y2="233.2109"/><ellipse cx="420" cy="257.332" fill="#84BE84" rx="3" ry="3" style="stroke:#038048;stroke-width:1.0;"/><text fill="#000000" font-family="sans-serif" font-size="14" lengthAdjust="spacing" textLength="515" x="429" y="252.3184">eCourseSystemUser(String: name, String: fullName, String: shortName, Role: role,</text><text fill="#000000" font-family="sans-serif" font-size="14" lengthAdjust="spacing" textLength="322" x="433" y="270.9395">Email: email, Password, password, boolean: status)</text><ellipse cx="420" cy="303.8848" fill="#84BE84" rx="3" ry="3" style="stroke:#038048;stroke-width:1.0;"/><text fill="#000000" font-family="sans-serif" font-size="14" lengthAdjust="spacing" textLength="433" x="429" y="289.5605">eCourseSystemUser(String: name, boolean: regent, String: acronym,</text><text fill="#000000" font-family="sans-serif" font-size="14" lengthAdjust="spacing" textLength="409" x="437" y="308.1816">NIF: nif, BirthDate: birthDate, String: fullName, String: shortName,</text><text fill="#000000" font-family="sans-serif" font-size="14" lengthAdjust="spacing" textLength="391" x="433" y="326.8027">Role: role, Email: email, Password, password, boolean: status)</text><ellipse cx="420" cy="359.748" fill="#84BE84" rx="3" ry="3" style="stroke:#038048;stroke-width:1.0;"/><text fill="#000000" font-family="sans-serif" font-size="14" lengthAdjust="spacing" textLength="315" x="429" y="345.4238">Student(String: name, int: mecanographicNumber,</text><text fill="#000000" font-family="sans-serif" font-size="14" lengthAdjust="spacing" textLength="409" x="437" y="364.0449">NIF: nif, BirthDate: birthDate, String: fullName, String: shortName,</text><text fill="#000000" font-family="sans-serif" font-size="14" lengthAdjust="spacing" textLength="391" x="437" y="382.666">Role: role, Email: email, Password, password, boolean: status)</text><ellipse cx="420" cy="396.9902" fill="#84BE84" rx="3" ry="3" style="stroke:#038048;stroke-width:1.0;"/><text fill="#000000" font-family="sans-serif" font-size="14" lengthAdjust="spacing" textLength="205" x="429" y="401.2871">AlterUserStatus(boolean: status)</text></g><!--class Course--><g id="elem_Course"><rect codeLine="20" fill="#F1F1F1" height="159.7266" id="Course" rx="2.5" ry="2.5" style="stroke:#181818;stroke-width:0.5;" width="515" x="483" y="985"/><ellipse cx="713.25" cy="1001" fill="#ADD1B2" rx="11" ry="11" style="stroke:#181818;stroke-width:1.0;"/><path d="M716.0156,996.875 Q716.1719,996.6563 716.3594,996.5469 Q716.5469,996.4375 716.7656,996.4375 Q717.1406,996.4375 717.375,996.7031 Q717.6094,996.9531 717.6094,997.5625 L717.6094,999.0156 Q717.6094,999.625 717.375,999.8906 Q717.1406,1000.1563 716.7656,1000.1563 Q716.4219,1000.1563 716.2188,999.9531 Q716.0156,999.7656 715.9063,999.25 Q715.8594,998.8906 715.6719,998.7031 Q715.3438,998.3281 714.7344,998.1094 Q714.125,997.8906 713.5,997.8906 Q712.7344,997.8906 712.0938,998.2188 Q711.4688,998.5469 710.9688,999.2969 Q710.4844,1000.0469 710.4844,1001.0781 L710.4844,1002.1719 Q710.4844,1003.4063 711.375,1004.2344 Q712.2656,1005.0469 713.8594,1005.0469 Q714.7969,1005.0469 715.4531,1004.7969 Q715.8438,1004.6406 716.2656,1004.2031 Q716.5313,1003.9375 716.6719,1003.8594 Q716.8281,1003.7813 717.0313,1003.7813 Q717.3594,1003.7813 717.6094,1004.0469 Q717.875,1004.2969 717.875,1004.6406 Q717.875,1004.9844 717.5313,1005.3906 Q717.0313,1005.9688 716.2344,1006.2969 Q715.1563,1006.75 713.8594,1006.75 Q712.3438,1006.75 711.1406,1006.125 Q710.1563,1005.625 709.4688,1004.5625 Q708.7813,1003.4844 708.7813,1002.2031 L708.7813,1001.0469 Q708.7813,999.7188 709.3906,998.5781 Q710.0156,997.4219 711.1094,996.8125 Q712.2031,996.1875 713.4375,996.1875 Q714.1719,996.1875 714.8125,996.3594 Q715.4688,996.5156 716.0156,996.875 Z " fill="#000000"/><text fill="#000000" font-family="sans-serif" font-size="14" lengthAdjust="spacing" textLength="46" x="733.75" y="1006.7969">Course</text><line style="stroke:#181818;stroke-width:0.5;" x1="484" x2="997" y1="1017" y2="1017"/><ellipse cx="494" cy="1031.8105" fill="#000000" rx="3" ry="3" style="stroke:#000000;stroke-width:1.0;"/><text fill="#000000" font-family="sans-serif" font-size="14" lengthAdjust="spacing" textLength="30" x="503" y="1036.1074">int id</text><ellipse cx="494" cy="1050.4316" fill="#000000" rx="3" ry="3" style="stroke:#000000;stroke-width:1.0;"/><text fill="#000000" font-family="sans-serif" font-size="14" lengthAdjust="spacing" textLength="35" x="503" y="1054.7285">name</text><ellipse cx="494" cy="1069.0527" fill="#000000" rx="3" ry="3" style="stroke:#000000;stroke-width:1.0;"/><text fill="#000000" font-family="sans-serif" font-size="14" lengthAdjust="spacing" textLength="128" x="503" y="1073.3496">CourseStatus status</text><ellipse cx="494" cy="1087.6738" fill="#000000" rx="3" ry="3" style="stroke:#000000;stroke-width:1.0;"/><text fill="#000000" font-family="sans-serif" font-size="14" lengthAdjust="spacing" textLength="69" x="503" y="1091.9707">Code code</text><ellipse cx="494" cy="1106.2949" fill="#000000" rx="3" ry="3" style="stroke:#000000;stroke-width:1.0;"/><text fill="#000000" font-family="sans-serif" font-size="14" lengthAdjust="spacing" textLength="98" x="503" y="1110.5918">Teacher regent</text><line style="stroke:#181818;stroke-width:0.5;" x1="484" x2="997" y1="1118.1055" y2="1118.1055"/><ellipse cx="494" cy="1132.916" fill="#84BE84" rx="3" ry="3" style="stroke:#038048;stroke-width:1.0;"/><text fill="#000000" font-family="sans-serif" font-size="14" lengthAdjust="spacing" textLength="489" x="503" y="1137.2129">Course(int id, String name, CourseStatus status, Code code, Teacher regent)</text></g><!--class UserRepository--><g id="elem_UserRepository"><rect codeLine="29" fill="#F1F1F1" height="196.9688" id="UserRepository" rx="2.5" ry="2.5" style="stroke:#181818;stroke-width:0.5;" width="328" x="45.5" y="109.5"/><ellipse cx="156.75" cy="125.5" fill="#ADD1B2" rx="11" ry="11" style="stroke:#181818;stroke-width:1.0;"/><path d="M159.5156,121.375 Q159.6719,121.1563 159.8594,121.0469 Q160.0469,120.9375 160.2656,120.9375 Q160.6406,120.9375 160.875,121.2031 Q161.1094,121.4531 161.1094,122.0625 L161.1094,123.5156 Q161.1094,124.125 160.875,124.3906 Q160.6406,124.6563 160.2656,124.6563 Q159.9219,124.6563 159.7188,124.4531 Q159.5156,124.2656 159.4063,123.75 Q159.3594,123.3906 159.1719,123.2031 Q158.8438,122.8281 158.2344,122.6094 Q157.625,122.3906 157,122.3906 Q156.2344,122.3906 155.5938,122.7188 Q154.9688,123.0469 154.4688,123.7969 Q153.9844,124.5469 153.9844,125.5781 L153.9844,126.6719 Q153.9844,127.9063 154.875,128.7344 Q155.7656,129.5469 157.3594,129.5469 Q158.2969,129.5469 158.9531,129.2969 Q159.3438,129.1406 159.7656,128.7031 Q160.0313,128.4375 160.1719,128.3594 Q160.3281,128.2813 160.5313,128.2813 Q160.8594,128.2813 161.1094,128.5469 Q161.375,128.7969 161.375,129.1406 Q161.375,129.4844 161.0313,129.8906 Q160.5313,130.4688 159.7344,130.7969 Q158.6563,131.25 157.3594,131.25 Q155.8438,131.25 154.6406,130.625 Q153.6563,130.125 152.9688,129.0625 Q152.2813,127.9844 152.2813,126.7031 L152.2813,125.5469 Q152.2813,124.2188 152.8906,123.0781 Q153.5156,121.9219 154.6094,121.3125 Q155.7031,120.6875 156.9375,120.6875 Q157.6719,120.6875 158.3125,120.8594 Q158.9688,121.0156 159.5156,121.375 Z " fill="#000000"/><text fill="#000000" font-family="sans-serif" font-size="14" lengthAdjust="spacing" textLength="97" x="177.25" y="131.2969">UserRepository</text><line style="stroke:#181818;stroke-width:0.5;" x1="46.5" x2="372.5" y1="141.5" y2="141.5"/><line style="stroke:#181818;stroke-width:0.5;" x1="46.5" x2="372.5" y1="149.5" y2="149.5"/><ellipse cx="56.5" cy="164.3105" fill="#84BE84" rx="3" ry="3" style="stroke:#038048;stroke-width:1.0;"/><text fill="#000000" font-family="sans-serif" font-size="14" lengthAdjust="spacing" textLength="127" x="65.5" y="168.6074">addUser(user: user)</text><ellipse cx="56.5" cy="182.9316" fill="#84BE84" rx="3" ry="3" style="stroke:#038048;stroke-width:1.0;"/><text fill="#000000" font-family="sans-serif" font-size="14" lengthAdjust="spacing" textLength="150" x="65.5" y="187.2285">removeUser(user: user)</text><ellipse cx="56.5" cy="210.8633" fill="#84BE84" rx="3" ry="3" style="stroke:#038048;stroke-width:1.0;"/><text fill="#000000" font-family="sans-serif" font-size="14" lengthAdjust="spacing" textLength="298" x="65.5" y="205.8496">CreateUser(String: fullName, String: fhortName,</text><text fill="#000000" font-family="sans-serif" font-size="14" lengthAdjust="spacing" textLength="286" x="73.5" y="224.4707">Role: role, Email: email, Password, password)</text><ellipse cx="56.5" cy="238.7949" fill="#84BE84" rx="3" ry="3" style="stroke:#038048;stroke-width:1.0;"/><text fill="#000000" font-family="sans-serif" font-size="14" lengthAdjust="spacing" textLength="183" x="65.5" y="243.0918">searchUser(user: user): User</text><ellipse cx="56.5" cy="257.416" fill="#84BE84" rx="3" ry="3" style="stroke:#038048;stroke-width:1.0;"/><text fill="#000000" font-family="sans-serif" font-size="14" lengthAdjust="spacing" textLength="172" x="65.5" y="261.7129">alterUserStatus(User: user)</text><ellipse cx="56.5" cy="276.0371" fill="#84BE84" rx="3" ry="3" style="stroke:#038048;stroke-width:1.0;"/><text fill="#000000" font-family="sans-serif" font-size="14" lengthAdjust="spacing" textLength="160" x="65.5" y="280.334">totalNumberOfUsers(): int</text><ellipse cx="56.5" cy="294.6582" fill="#84BE84" rx="3" ry="3" style="stroke:#038048;stroke-width:1.0;"/><text fill="#000000" font-family="sans-serif" font-size="14" lengthAdjust="spacing" textLength="184" x="65.5" y="298.9551">listSystemUsers(): List&lt;User&gt;</text></g><!--class CourseRepository--><g id="elem_CourseRepository"><rect codeLine="39" fill="#F1F1F1" height="122.4844" id="CourseRepository" rx="2.5" ry="2.5" style="stroke:#181818;stroke-width:0.5;" width="535" x="137" y="1206"/><ellipse cx="343.25" cy="1222" fill="#ADD1B2" rx="11" ry="11" style="stroke:#181818;stroke-width:1.0;"/><path d="M346.0156,1217.875 Q346.1719,1217.6563 346.3594,1217.5469 Q346.5469,1217.4375 346.7656,1217.4375 Q347.1406,1217.4375 347.375,1217.7031 Q347.6094,1217.9531 347.6094,1218.5625 L347.6094,1220.0156 Q347.6094,1220.625 347.375,1220.8906 Q347.1406,1221.1563 346.7656,1221.1563 Q346.4219,1221.1563 346.2188,1220.9531 Q346.0156,1220.7656 345.9063,1220.25 Q345.8594,1219.8906 345.6719,1219.7031 Q345.3438,1219.3281 344.7344,1219.1094 Q344.125,1218.8906 343.5,1218.8906 Q342.7344,1218.8906 342.0938,1219.2188 Q341.4688,1219.5469 340.9688,1220.2969 Q340.4844,1221.0469 340.4844,1222.0781 L340.4844,1223.1719 Q340.4844,1224.4063 341.375,1225.2344 Q342.2656,1226.0469 343.8594,1226.0469 Q344.7969,1226.0469 345.4531,1225.7969 Q345.8438,1225.6406 346.2656,1225.2031 Q346.5313,1224.9375 346.6719,1224.8594 Q346.8281,1224.7813 347.0313,1224.7813 Q347.3594,1224.7813 347.6094,1225.0469 Q347.875,1225.2969 347.875,1225.6406 Q347.875,1225.9844 347.5313,1226.3906 Q347.0313,1226.9688 346.2344,1227.2969 Q345.1563,1227.75 343.8594,1227.75 Q342.3438,1227.75 341.1406,1227.125 Q340.1563,1226.625 339.4688,1225.5625 Q338.7813,1224.4844 338.7813,1223.2031 L338.7813,1222.0469 Q338.7813,1220.7188 339.3906,1219.5781 Q340.0156,1218.4219 341.1094,1217.8125 Q342.2031,1217.1875 343.4375,1217.1875 Q344.1719,1217.1875 344.8125,1217.3594 Q345.4688,1217.5156 346.0156,1217.875 Z " fill="#000000"/><text fill="#000000" font-family="sans-serif" font-size="14" lengthAdjust="spacing" textLength="114" x="363.75" y="1227.7969">CourseRepository</text><line style="stroke:#181818;stroke-width:0.5;" x1="138" x2="671" y1="1238" y2="1238"/><line style="stroke:#181818;stroke-width:0.5;" x1="138" x2="671" y1="1246" y2="1246"/><ellipse cx="148" cy="1260.8105" fill="#84BE84" rx="3" ry="3" style="stroke:#038048;stroke-width:1.0;"/><text fill="#000000" font-family="sans-serif" font-size="14" lengthAdjust="spacing" textLength="174" x="157" y="1265.1074">addCourse(course: course)</text><ellipse cx="148" cy="1279.4316" fill="#84BE84" rx="3" ry="3" style="stroke:#038048;stroke-width:1.0;"/><text fill="#000000" font-family="sans-serif" font-size="14" lengthAdjust="spacing" textLength="197" x="157" y="1283.7285">removeCourse(course: course)</text><ellipse cx="148" cy="1298.0527" fill="#84BE84" rx="3" ry="3" style="stroke:#038048;stroke-width:1.0;"/><text fill="#000000" font-family="sans-serif" font-size="14" lengthAdjust="spacing" textLength="243" x="157" y="1302.3496">verifyCourse(course: course): boolean</text><ellipse cx="148" cy="1316.6738" fill="#84BE84" rx="3" ry="3" style="stroke:#038048;stroke-width:1.0;"/><text fill="#000000" font-family="sans-serif" font-size="14" lengthAdjust="spacing" textLength="509" x="157" y="1320.9707">Course(int: id, String: name, CourseStatus: status, Code: code, Teacher: regent)</text></g><!--class CreateNewCourseUI--><g id="elem_CreateNewCourseUI"><rect codeLine="46" fill="#F1F1F1" height="122.4844" id="CreateNewCourseUI" rx="2.5" ry="2.5" style="stroke:#181818;stroke-width:0.5;" width="575" x="361" y="470"/><ellipse cx="580.75" cy="486" fill="#ADD1B2" rx="11" ry="11" style="stroke:#181818;stroke-width:1.0;"/><path d="M583.5156,481.875 Q583.6719,481.6563 583.8594,481.5469 Q584.0469,481.4375 584.2656,481.4375 Q584.6406,481.4375 584.875,481.7031 Q585.1094,481.9531 585.1094,482.5625 L585.1094,484.0156 Q585.1094,484.625 584.875,484.8906 Q584.6406,485.1563 584.2656,485.1563 Q583.9219,485.1563 583.7188,484.9531 Q583.5156,484.7656 583.4063,484.25 Q583.3594,483.8906 583.1719,483.7031 Q582.8438,483.3281 582.2344,483.1094 Q581.625,482.8906 581,482.8906 Q580.2344,482.8906 579.5938,483.2188 Q578.9688,483.5469 578.4688,484.2969 Q577.9844,485.0469 577.9844,486.0781 L577.9844,487.1719 Q577.9844,488.4063 578.875,489.2344 Q579.7656,490.0469 581.3594,490.0469 Q582.2969,490.0469 582.9531,489.7969 Q583.3438,489.6406 583.7656,489.2031 Q584.0313,488.9375 584.1719,488.8594 Q584.3281,488.7813 584.5313,488.7813 Q584.8594,488.7813 585.1094,489.0469 Q585.375,489.2969 585.375,489.6406 Q585.375,489.9844 585.0313,490.3906 Q584.5313,490.9688 583.7344,491.2969 Q582.6563,491.75 581.3594,491.75 Q579.8438,491.75 578.6406,491.125 Q577.6563,490.625 576.9688,489.5625 Q576.2813,488.4844 576.2813,487.2031 L576.2813,486.0469 Q576.2813,484.7188 576.8906,483.5781 Q577.5156,482.4219 578.6094,481.8125 Q579.7031,481.1875 580.9375,481.1875 Q581.6719,481.1875 582.3125,481.3594 Q582.9688,481.5156 583.5156,481.875 Z " fill="#000000"/><text fill="#000000" font-family="sans-serif" font-size="14" lengthAdjust="spacing" textLength="127" x="601.25" y="491.7969">CreateNewCourseUI</text><line style="stroke:#181818;stroke-width:0.5;" x1="362" x2="935" y1="502" y2="502"/><line style="stroke:#181818;stroke-width:0.5;" x1="362" x2="935" y1="510" y2="510"/><ellipse cx="372" cy="524.8105" fill="#84BE84" rx="3" ry="3" style="stroke:#038048;stroke-width:1.0;"/><text fill="#000000" font-family="sans-serif" font-size="14" lengthAdjust="spacing" textLength="183" x="381" y="529.1074">verifyCourse(int id) : boolean</text><ellipse cx="372" cy="543.4316" fill="#84BE84" rx="3" ry="3" style="stroke:#038048;stroke-width:1.0;"/><text fill="#000000" font-family="sans-serif" font-size="14" lengthAdjust="spacing" textLength="121" x="381" y="547.7285">existTeacher(int id)</text><ellipse cx="372" cy="562.0527" fill="#84BE84" rx="3" ry="3" style="stroke:#038048;stroke-width:1.0;"/><text fill="#000000" font-family="sans-serif" font-size="14" lengthAdjust="spacing" textLength="549" x="381" y="566.3496">createCourse(int: id, String: name, CourseStatus: status, Code: code, Teacher: regent)</text><ellipse cx="372" cy="580.6738" fill="#84BE84" rx="3" ry="3" style="stroke:#038048;stroke-width:1.0;"/><text fill="#000000" font-family="sans-serif" font-size="14" lengthAdjust="spacing" textLength="183" x="381" y="584.9707">saveCourse(Course: course)</text></g><!--class CreateNewCourseController--><g id="elem_CreateNewCourseController"><rect codeLine="53" fill="#F1F1F1" height="122.4844" id="CreateNewCourseController" rx="2.5" ry="2.5" style="stroke:#181818;stroke-width:0.5;" width="575" x="7" y="718.5"/><ellipse cx="201.75" cy="734.5" fill="#ADD1B2" rx="11" ry="11" style="stroke:#181818;stroke-width:1.0;"/><path d="M204.5156,730.375 Q204.6719,730.1563 204.8594,730.0469 Q205.0469,729.9375 205.2656,729.9375 Q205.6406,729.9375 205.875,730.2031 Q206.1094,730.4531 206.1094,731.0625 L206.1094,732.5156 Q206.1094,733.125 205.875,733.3906 Q205.6406,733.6563 205.2656,733.6563 Q204.9219,733.6563 204.7188,733.4531 Q204.5156,733.2656 204.4063,732.75 Q204.3594,732.3906 204.1719,732.2031 Q203.8438,731.8281 203.2344,731.6094 Q202.625,731.3906 202,731.3906 Q201.2344,731.3906 200.5938,731.7188 Q199.9688,732.0469 199.4688,732.7969 Q198.9844,733.5469 198.9844,734.5781 L198.9844,735.6719 Q198.9844,736.9063 199.875,737.7344 Q200.7656,738.5469 202.3594,738.5469 Q203.2969,738.5469 203.9531,738.2969 Q204.3438,738.1406 204.7656,737.7031 Q205.0313,737.4375 205.1719,737.3594 Q205.3281,737.2813 205.5313,737.2813 Q205.8594,737.2813 206.1094,737.5469 Q206.375,737.7969 206.375,738.1406 Q206.375,738.4844 206.0313,738.8906 Q205.5313,739.4688 204.7344,739.7969 Q203.6563,740.25 202.3594,740.25 Q200.8438,740.25 199.6406,739.625 Q198.6563,739.125 197.9688,738.0625 Q197.2813,736.9844 197.2813,735.7031 L197.2813,734.5469 Q197.2813,733.2188 197.8906,732.0781 Q198.5156,730.9219 199.6094,730.3125 Q200.7031,729.6875 201.9375,729.6875 Q202.6719,729.6875 203.3125,729.8594 Q203.9688,730.0156 204.5156,730.375 Z " fill="#000000"/><text fill="#000000" font-family="sans-serif" font-size="14" lengthAdjust="spacing" textLength="177" x="222.25" y="740.2969">CreateNewCourseController</text><line style="stroke:#181818;stroke-width:0.5;" x1="8" x2="581" y1="750.5" y2="750.5"/><line style="stroke:#181818;stroke-width:0.5;" x1="8" x2="581" y1="758.5" y2="758.5"/><ellipse cx="18" cy="773.3105" fill="#84BE84" rx="3" ry="3" style="stroke:#038048;stroke-width:1.0;"/><text fill="#000000" font-family="sans-serif" font-size="14" lengthAdjust="spacing" textLength="183" x="27" y="777.6074">verifyCourse(int id) : boolean</text><ellipse cx="18" cy="791.9316" fill="#84BE84" rx="3" ry="3" style="stroke:#038048;stroke-width:1.0;"/><text fill="#000000" font-family="sans-serif" font-size="14" lengthAdjust="spacing" textLength="121" x="27" y="796.2285">existTeacher(int id)</text><ellipse cx="18" cy="810.5527" fill="#84BE84" rx="3" ry="3" style="stroke:#038048;stroke-width:1.0;"/><text fill="#000000" font-family="sans-serif" font-size="14" lengthAdjust="spacing" textLength="549" x="27" y="814.8496">createCourse(int: id, String: name, CourseStatus: status, Code: code, Teacher: regent)</text><ellipse cx="18" cy="829.1738" fill="#84BE84" rx="3" ry="3" style="stroke:#038048;stroke-width:1.0;"/><text fill="#000000" font-family="sans-serif" font-size="14" lengthAdjust="spacing" textLength="131" x="27" y="833.4707">add(Course: course)</text></g><!--class CourseBuilder--><g id="elem_CourseBuilder"><rect codeLine="60" fill="#F1F1F1" height="252.832" id="CourseBuilder" rx="2.5" ry="2.5" style="stroke:#181818;stroke-width:0.5;" width="338" x="617.5" y="653"/><ellipse cx="737.25" cy="669" fill="#ADD1B2" rx="11" ry="11" style="stroke:#181818;stroke-width:1.0;"/><path d="M740.0156,664.875 Q740.1719,664.6563 740.3594,664.5469 Q740.5469,664.4375 740.7656,664.4375 Q741.1406,664.4375 741.375,664.7031 Q741.6094,664.9531 741.6094,665.5625 L741.6094,667.0156 Q741.6094,667.625 741.375,667.8906 Q741.1406,668.1563 740.7656,668.1563 Q740.4219,668.1563 740.2188,667.9531 Q740.0156,667.7656 739.9063,667.25 Q739.8594,666.8906 739.6719,666.7031 Q739.3438,666.3281 738.7344,666.1094 Q738.125,665.8906 737.5,665.8906 Q736.7344,665.8906 736.0938,666.2188 Q735.4688,666.5469 734.9688,667.2969 Q734.4844,668.0469 734.4844,669.0781 L734.4844,670.1719 Q734.4844,671.4063 735.375,672.2344 Q736.2656,673.0469 737.8594,673.0469 Q738.7969,673.0469 739.4531,672.7969 Q739.8438,672.6406 740.2656,672.2031 Q740.5313,671.9375 740.6719,671.8594 Q740.8281,671.7813 741.0313,671.7813 Q741.3594,671.7813 741.6094,672.0469 Q741.875,672.2969 741.875,672.6406 Q741.875,672.9844 741.5313,673.3906 Q741.0313,673.9688 740.2344,674.2969 Q739.1563,674.75 737.8594,674.75 Q736.3438,674.75 735.1406,674.125 Q734.1563,673.625 733.4688,672.5625 Q732.7813,671.4844 732.7813,670.2031 L732.7813,669.0469 Q732.7813,667.7188 733.3906,666.5781 Q734.0156,665.4219 735.1094,664.8125 Q736.2031,664.1875 737.4375,664.1875 Q738.1719,664.1875 738.8125,664.3594 Q739.4688,664.5156 740.0156,664.875 Z " fill="#000000"/><text fill="#000000" font-family="sans-serif" font-size="14" lengthAdjust="spacing" textLength="90" x="757.75" y="674.7969">CourseBuilder</text><line style="stroke:#181818;stroke-width:0.5;" x1="618.5" x2="954.5" y1="685" y2="685"/><rect fill="none" height="6" style="stroke:#C82930;stroke-width:1.0;" width="6" x="625.5" y="696.8105"/><text fill="#000000" font-family="sans-serif" font-size="14" lengthAdjust="spacing" textLength="34" x="637.5" y="704.1074">id: int</text><rect fill="none" height="6" style="stroke:#C82930;stroke-width:1.0;" width="6" x="625.5" y="715.4316"/><text fill="#000000" font-family="sans-serif" font-size="14" lengthAdjust="spacing" textLength="80" x="637.5" y="722.7285">name: String</text><rect fill="none" height="6" style="stroke:#C82930;stroke-width:1.0;" width="6" x="625.5" y="734.0527"/><text fill="#000000" font-family="sans-serif" font-size="14" lengthAdjust="spacing" textLength="132" x="637.5" y="741.3496">status: CourseStatus</text><rect fill="none" height="6" style="stroke:#C82930;stroke-width:1.0;" width="6" x="625.5" y="752.6738"/><text fill="#000000" font-family="sans-serif" font-size="14" lengthAdjust="spacing" textLength="73" x="637.5" y="759.9707">code: Code</text><rect fill="none" height="6" style="stroke:#C82930;stroke-width:1.0;" width="6" x="625.5" y="771.2949"/><text fill="#000000" font-family="sans-serif" font-size="14" lengthAdjust="spacing" textLength="102" x="637.5" y="778.5918">regent: Teacher</text><line style="stroke:#181818;stroke-width:0.5;" x1="618.5" x2="954.5" y1="786.1055" y2="786.1055"/><ellipse cx="628.5" cy="800.916" fill="#84BE84" rx="3" ry="3" style="stroke:#038048;stroke-width:1.0;"/><text fill="#000000" font-family="sans-serif" font-size="14" lengthAdjust="spacing" textLength="40" x="637.5" y="805.2129">build()</text><ellipse cx="628.5" cy="819.5371" fill="#84BE84" rx="3" ry="3" style="stroke:#038048;stroke-width:1.0;"/><text fill="#000000" font-family="sans-serif" font-size="14" lengthAdjust="spacing" textLength="185" x="637.5" y="823.834">withId( id: int ): CourseBuilder</text><ellipse cx="628.5" cy="838.1582" fill="#84BE84" rx="3" ry="3" style="stroke:#038048;stroke-width:1.0;"/><text fill="#000000" font-family="sans-serif" font-size="14" lengthAdjust="spacing" textLength="256" x="637.5" y="842.4551">withName( name: String ): CourseBuilder</text><ellipse cx="628.5" cy="856.7793" fill="#84BE84" rx="3" ry="3" style="stroke:#038048;stroke-width:1.0;"/><text fill="#000000" font-family="sans-serif" font-size="14" lengthAdjust="spacing" textLength="312" x="637.5" y="861.0762">withStatus( status: CourseStatus ): CourseBuilder</text><ellipse cx="628.5" cy="875.4004" fill="#84BE84" rx="3" ry="3" style="stroke:#038048;stroke-width:1.0;"/><text fill="#000000" font-family="sans-serif" font-size="14" lengthAdjust="spacing" textLength="247" x="637.5" y="879.6973">withCode( code: Code ): CourseBuilder</text><ellipse cx="628.5" cy="894.0215" fill="#84BE84" rx="3" ry="3" style="stroke:#038048;stroke-width:1.0;"/><text fill="#000000" font-family="sans-serif" font-size="14" lengthAdjust="spacing" textLength="288" x="637.5" y="898.3184">withRegent( regent: Teacher ): CourseBuilder</text></g><!--link UserRepository to eCourseSystemUser--><g id="link_UserRepository_eCourseSystemUser"><path codeLine="79" d="M373.59,208 C385.32,208 397.05,208 408.77,208 " fill="none" id="UserRepository-eCourseSystemUser" style="stroke:#181818;stroke-width:1.0;"/></g><!--link Course to CourseRepository--><g id="link_Course_CourseRepository"><path codeLine="80" d="M607.7,1145.05 C573.68,1165.3 537.63,1186.75 505.5,1205.88 " fill="none" id="Course-CourseRepository" style="stroke:#181818;stroke-width:1.0;"/></g><!--link eCourseSystemUser to CreateNewCourseUI--><g id="link_eCourseSystemUser_CreateNewCourseUI"><path codeLine="82" d="M660.93,409.1 C658.68,430.96 656.54,451.78 654.69,469.79 " fill="none" id="eCourseSystemUser-CreateNewCourseUI" style="stroke:#181818;stroke-width:1.0;stroke-dasharray:7.0,7.0;"/></g><!--link CreateNewCourseUI to CreateNewCourseController--><g id="link_CreateNewCourseUI_CreateNewCourseController"><path codeLine="83" d="M561.9,592.3 C506.84,630.64 435.82,680.09 380.82,718.4 " fill="none" id="CreateNewCourseUI-CreateNewCourseController" style="stroke:#181818;stroke-width:1.0;stroke-dasharray:7.0,7.0;"/></g><!--link CreateNewCourseController to CourseRepository--><g id="link_CreateNewCourseController_CourseRepository"><path codeLine="84" d="M308.1,840.52 C329.22,933.75 369.69,1112.35 390.85,1205.74 " fill="none" id="CreateNewCourseController-CourseRepository" style="stroke:#181818;stroke-width:1.0;stroke-dasharray:7.0,7.0;"/></g><!--link CreateNewCourseController to UserRepository--><g id="link_CreateNewCourseController_UserRepository"><path codeLine="85" d="M285.54,718.46 C270.9,620.37 241.71,424.82 224.06,306.58 " fill="none" id="CreateNewCourseController-UserRepository" style="stroke:#181818;stroke-width:1.0;stroke-dasharray:7.0,7.0;"/></g><!--link CreateNewCourseController to CourseBuilder--><g id="link_CreateNewCourseController_CourseBuilder"><path codeLine="86" d="M582.3,779.5 C592.26,779.5 602.23,779.5 612.19,779.5 " fill="none" id="CreateNewCourseController-to-CourseBuilder" style="stroke:#181818;stroke-width:1.0;"/><polygon fill="#181818" points="617.4,779.5,608.4,775.5,612.4,779.5,608.4,783.5,617.4,779.5" style="stroke:#181818;stroke-width:1.0;"/></g><!--link CourseBuilder to Course--><g id="link_CourseBuilder_Course"><path codeLine="87" d="M766.12,906.09 C762.08,931.01 757.93,956.61 754.17,979.74 " fill="none" id="CourseBuilder-to-Course" style="stroke:#181818;stroke-width:1.0;"/><polygon fill="#181818" points="753.33,984.95,758.7203,976.7072,754.1311,980.0146,750.8237,975.4254,753.33,984.95" style="stroke:#181818;stroke-width:1.0;"/><text fill="#000000" font-family="sans-serif" font-size="13" lengthAdjust="spacing" textLength="34" x="761.5" y="951.0283">builds</text></g><!--SRC=[pLR9Rjim4BthAtYht4Zv0A8muAWB31HkOJUtNcXfR16GH8EauXf5_xrSHhli1e4FpK7BS3HyxyqREcd1b2AGY5egs5sKXl9PWII_0sB-tfDF9UF5Aij0WispRxXYqtQQwLeHvMuO_ygL_k3hBKdgxke7i3JdrV5VAP1XnYgLehgKXFaxHZVhpwJY1tnxubBd7va6ic-USEMBP1cGexrYX5UQb92oIfZeAUVffYxt876rnrkrZsxjOIfDkDFIKA6aOYL4f7axr4Mn6KHKBgJseQqeW19fhX7vMNbHgLSp8jzD1yv2PX4vjKzxON9PHL7QnIl1j9z9E4AbEooeezlToaYjZb4d8UqqV2KbKwZFwisKThhE3DGH4TClEjUm-nAu3uDLeK5sqn1Eqlu4GUh6p7UldIrhIjuutlB6Hspop6mbmlWw5Qsj_T18R3VYyP-7ldf37NMTAHrrLQDHmHvqosyB9w6u5lA251u8op9dmzfSAB7NHXK9fNY1Auk91DEeWO6dlJgylLVDFWgOJFCn24fwyyr6tNkUWDL2iyBRxzl1BglGbE2jteKvpRg9T8lkWBDlot7pvpN4blcZaEAHE5JoPieBI7wupAVGnhSJUz2UF-YCGUZ08NHe4JhrYE_g1iw-oFEwfJZ0vusv86DWyCkeXjMR95nANUMx8qUJi5RTPAJkDMg9gBHnOj7-KFxd58t5Rd1pWQUQ5rdB9pQxTnwFtVuKqM188Om-A5nA7QAaEQTYH4CRU8XgRxSC6undhlDr5ZORamKT8kkbsKCX762wbOs3FGlurdSMVzZZSYjtwmY6OwBJJupgGV1k2mNJN5GgvoTb0jF_l-823ZeU7Ri1_e34yUGqcQln-3WToM0wfDEqpjx1TUFRpyOWRcQFkLpDZIK_vZfUZgGR-ZHkr-sKsQ0LyYy0]--></g></svg>