<?xml version="1.0" encoding="us-ascii" standalone="no"?><svg xmlns="http://www.w3.org/2000/svg" xmlns:xlink="http://www.w3.org/1999/xlink" contentStyleType="text/css" height="1335.1px" preserveAspectRatio="none" style="width:2329px;height:1335px;background:#FFFFFF;" version="1.1" viewBox="0 0 2329 1335" width="2329.6px" zoomAndPan="magnify"><defs/><g><rect fill="#FFFFFF" height="1036.9379" style="stroke:#181818;stroke-width:1.3;" width="13" x="40.3" y="157.9932"/><rect fill="#FFFFFF" height="40.6783" style="stroke:#181818;stroke-width:1.3;" width="13" x="587.6" y="157.9932"/><rect fill="#FFFFFF" height="203.3916" style="stroke:#181818;stroke-width:1.3;" width="13" x="587.6" y="239.3498"/><rect fill="#FFFFFF" height="398.1631" style="stroke:#181818;stroke-width:1.3;" width="13" x="587.6" y="483.4197"/><rect fill="#FFFFFF" height="260.9699" style="stroke:#181818;stroke-width:1.3;" width="13" x="587.6" y="922.2611"/><rect fill="#FFFFFF" height="122.035" style="stroke:#181818;stroke-width:1.3;" width="13" x="991.9" y="280.0281"/><rect fill="#FFFFFF" height="316.8064" style="stroke:#181818;stroke-width:1.3;" width="13" x="991.9" y="524.098"/><rect fill="#FFFFFF" height="179.6133" style="stroke:#181818;stroke-width:1.3;" width="13" x="991.9" y="962.9395"/><rect fill="#FFFFFF" height="40.6783" style="stroke:#181818;stroke-width:1.3;" width="13" x="1389.7" y="320.7064"/><rect fill="#FFFFFF" height="97.3857" style="stroke:#181818;stroke-width:1.3;" width="13" x="1389.7" y="686.8113"/><rect fill="#FFFFFF" height="98.2566" style="stroke:#181818;stroke-width:1.3;" width="13" x="1389.7" y="1003.6178"/><rect fill="#FFFFFF" height="40.6783" style="stroke:#181818;stroke-width:1.3;" width="13" x="1588.6" y="564.7764"/><rect fill="#FFFFFF" height="43.7074" style="stroke:#181818;stroke-width:1.3;" width="13" x="1872.65" y="740.4896"/><line style="stroke:#181818;stroke-width:0.65;stroke-dasharray:5.0,5.0;" x1="46.8" x2="46.8" y1="114.7148" y2="1206.6311"/><line style="stroke:#181818;stroke-width:0.65;stroke-dasharray:5.0,5.0;" x1="593.45" x2="593.45" y1="114.7148" y2="1206.6311"/><line style="stroke:#181818;stroke-width:0.65;stroke-dasharray:5.0,5.0;" x1="997.75" x2="997.75" y1="114.7148" y2="1206.6311"/><line style="stroke:#181818;stroke-width:0.65;stroke-dasharray:5.0,5.0;" x1="1396.2" x2="1396.2" y1="114.7148" y2="1206.6311"/><line style="stroke:#181818;stroke-width:0.65;stroke-dasharray:5.0,5.0;" x1="1594.45" x2="1594.45" y1="114.7148" y2="1206.6311"/><line style="stroke:#181818;stroke-width:0.65;stroke-dasharray:5.0,5.0;" x1="1878.5" x2="1878.5" y1="738.565" y2="1206.6311"/><line style="stroke:#181818;stroke-width:0.65;stroke-dasharray:5.0,5.0;" x1="2266.55" x2="2266.55" y1="795.2725" y2="1206.6311"/><text fill="#000000" font-family="sans-serif" font-size="18.2" lengthAdjust="spacing" textLength="72.8" x="6.5" y="110.1471">Manager</text><ellipse cx="46.8" cy="23.5574" fill="#E2E2F0" rx="10.4" ry="10.4" style="stroke:#181818;stroke-width:0.65;"/><path d="M46.8,33.9574 L46.8,69.0574 M29.9,44.3574 L63.7,44.3574 M46.8,69.0574 L29.9,88.5574 M46.8,69.0574 L63.7,88.5574 " fill="none" style="stroke:#181818;stroke-width:0.65;"/><text fill="#000000" font-family="sans-serif" font-size="18.2" lengthAdjust="spacing" textLength="72.8" x="6.5" y="1224.9707">Manager</text><ellipse cx="46.8" cy="1240.5885" fill="#E2E2F0" rx="10.4" ry="10.4" style="stroke:#181818;stroke-width:0.65;"/><path d="M46.8,1250.9885 L46.8,1286.0885 M29.9,1261.3885 L63.7,1261.3885 M46.8,1286.0885 L29.9,1305.5885 M46.8,1286.0885 L63.7,1305.5885 " fill="none" style="stroke:#181818;stroke-width:0.65;"/><rect fill="#E2E2F0" height="42.4074" rx="3.25" ry="3.25" style="stroke:#181818;stroke-width:0.65;" width="188.5" x="499.85" y="71.0074"/><text fill="#000000" font-family="sans-serif" font-size="18.2" lengthAdjust="spacing" textLength="170.3" x="508.95" y="99.7471">:CreateNewCourseUI</text><rect fill="#E2E2F0" height="42.4074" rx="3.25" ry="3.25" style="stroke:#181818;stroke-width:0.65;" width="188.5" x="499.85" y="1205.3311"/><text fill="#000000" font-family="sans-serif" font-size="18.2" lengthAdjust="spacing" textLength="170.3" x="508.95" y="1234.0707">:CreateNewCourseUI</text><rect fill="#E2E2F0" height="42.4074" rx="3.25" ry="3.25" style="stroke:#181818;stroke-width:0.65;" width="253.5" x="871.65" y="71.0074"/><text fill="#000000" font-family="sans-serif" font-size="18.2" lengthAdjust="spacing" textLength="235.3" x="880.75" y="99.7471">:CreateNewCourseController</text><rect fill="#E2E2F0" height="42.4074" rx="3.25" ry="3.25" style="stroke:#181818;stroke-width:0.65;" width="253.5" x="871.65" y="1205.3311"/><text fill="#000000" font-family="sans-serif" font-size="18.2" lengthAdjust="spacing" textLength="235.3" x="880.75" y="1234.0707">:CreateNewCourseController</text><text fill="#000000" font-family="sans-serif" font-size="18.2" font-style="italic" lengthAdjust="spacing" textLength="102.7" x="1340.95" y="85.9396">&#171;repository&#187;</text><text fill="#000000" font-family="sans-serif" font-size="18.2" lengthAdjust="spacing" textLength="137.8" x="1323.4" y="110.1471">CourseRepsitory</text><path d="M1372.8,19.5 C1372.8,6.5 1396.2,6.5 1396.2,6.5 C1396.2,6.5 1419.6,6.5 1419.6,19.5 L1419.6,53.3 C1419.6,66.3 1396.2,66.3 1396.2,66.3 C1396.2,66.3 1372.8,66.3 1372.8,53.3 L1372.8,19.5 " fill="#E2E2F0" style="stroke:#181818;stroke-width:1.9500000000000002;"/><path d="M1372.8,19.5 C1372.8,32.5 1396.2,32.5 1396.2,32.5 C1396.2,32.5 1419.6,32.5 1419.6,19.5 " fill="none" style="stroke:#181818;stroke-width:1.9500000000000002;"/><text fill="#000000" font-family="sans-serif" font-size="18.2" font-style="italic" lengthAdjust="spacing" textLength="102.7" x="1340.95" y="1224.9707">&#171;repository&#187;</text><text fill="#000000" font-family="sans-serif" font-size="18.2" lengthAdjust="spacing" textLength="137.8" x="1323.4" y="1249.1781">CourseRepsitory</text><path d="M1372.8,1266.7459 C1372.8,1253.7459 1396.2,1253.7459 1396.2,1253.7459 C1396.2,1253.7459 1419.6,1253.7459 1419.6,1266.7459 L1419.6,1300.5459 C1419.6,1313.5459 1396.2,1313.5459 1396.2,1313.5459 C1396.2,1313.5459 1372.8,1313.5459 1372.8,1300.5459 L1372.8,1266.7459 " fill="#E2E2F0" style="stroke:#181818;stroke-width:1.9500000000000002;"/><path d="M1372.8,1266.7459 C1372.8,1279.7459 1396.2,1279.7459 1396.2,1279.7459 C1396.2,1279.7459 1419.6,1279.7459 1419.6,1266.7459 " fill="none" style="stroke:#181818;stroke-width:1.9500000000000002;"/><text fill="#000000" font-family="sans-serif" font-size="18.2" font-style="italic" lengthAdjust="spacing" textLength="102.7" x="1539.85" y="85.9396">&#171;repository&#187;</text><text fill="#000000" font-family="sans-serif" font-size="18.2" lengthAdjust="spacing" textLength="115.7" x="1533.35" y="110.1471">UserRepsitory</text><path d="M1571.7,19.5 C1571.7,6.5 1595.1,6.5 1595.1,6.5 C1595.1,6.5 1618.5,6.5 1618.5,19.5 L1618.5,53.3 C1618.5,66.3 1595.1,66.3 1595.1,66.3 C1595.1,66.3 1571.7,66.3 1571.7,53.3 L1571.7,19.5 " fill="#E2E2F0" style="stroke:#181818;stroke-width:1.9500000000000002;"/><path d="M1571.7,19.5 C1571.7,32.5 1595.1,32.5 1595.1,32.5 C1595.1,32.5 1618.5,32.5 1618.5,19.5 " fill="none" style="stroke:#181818;stroke-width:1.9500000000000002;"/><text fill="#000000" font-family="sans-serif" font-size="18.2" font-style="italic" lengthAdjust="spacing" textLength="102.7" x="1539.85" y="1224.9707">&#171;repository&#187;</text><text fill="#000000" font-family="sans-serif" font-size="18.2" lengthAdjust="spacing" textLength="115.7" x="1533.35" y="1249.1781">UserRepsitory</text><path d="M1571.7,1266.7459 C1571.7,1253.7459 1595.1,1253.7459 1595.1,1253.7459 C1595.1,1253.7459 1618.5,1253.7459 1618.5,1266.7459 L1618.5,1300.5459 C1618.5,1313.5459 1595.1,1313.5459 1595.1,1313.5459 C1595.1,1313.5459 1571.7,1313.5459 1571.7,1300.5459 L1571.7,1266.7459 " fill="#E2E2F0" style="stroke:#181818;stroke-width:1.9500000000000002;"/><path d="M1571.7,1266.7459 C1571.7,1279.7459 1595.1,1279.7459 1595.1,1279.7459 C1595.1,1279.7459 1618.5,1279.7459 1618.5,1266.7459 " fill="none" style="stroke:#181818;stroke-width:1.9500000000000002;"/><rect fill="#E2E2F0" height="42.4074" rx="3.25" ry="3.25" style="stroke:#181818;stroke-width:0.65;" width="170.3" x="1794" y="1205.3311"/><text fill="#000000" font-family="sans-serif" font-size="18.2" lengthAdjust="spacing" textLength="152.1" x="1803.1" y="1234.0707">CB: CourseBuilder</text><rect fill="#E2E2F0" height="42.4074" rx="3.25" ry="3.25" style="stroke:#181818;stroke-width:0.65;" width="110.5" x="2211.95" y="1205.3311"/><text fill="#000000" font-family="sans-serif" font-size="18.2" lengthAdjust="spacing" textLength="92.3" x="2221.05" y="1234.0707">Cs: Course</text><rect fill="#FFFFFF" height="1036.9379" style="stroke:#181818;stroke-width:1.3;" width="13" x="40.3" y="157.9932"/><rect fill="#FFFFFF" height="40.6783" style="stroke:#181818;stroke-width:1.3;" width="13" x="587.6" y="157.9932"/><rect fill="#FFFFFF" height="203.3916" style="stroke:#181818;stroke-width:1.3;" width="13" x="587.6" y="239.3498"/><rect fill="#FFFFFF" height="398.1631" style="stroke:#181818;stroke-width:1.3;" width="13" x="587.6" y="483.4197"/><rect fill="#FFFFFF" height="260.9699" style="stroke:#181818;stroke-width:1.3;" width="13" x="587.6" y="922.2611"/><rect fill="#FFFFFF" height="122.035" style="stroke:#181818;stroke-width:1.3;" width="13" x="991.9" y="280.0281"/><rect fill="#FFFFFF" height="316.8064" style="stroke:#181818;stroke-width:1.3;" width="13" x="991.9" y="524.098"/><rect fill="#FFFFFF" height="179.6133" style="stroke:#181818;stroke-width:1.3;" width="13" x="991.9" y="962.9395"/><rect fill="#FFFFFF" height="40.6783" style="stroke:#181818;stroke-width:1.3;" width="13" x="1389.7" y="320.7064"/><rect fill="#FFFFFF" height="97.3857" style="stroke:#181818;stroke-width:1.3;" width="13" x="1389.7" y="686.8113"/><rect fill="#FFFFFF" height="98.2566" style="stroke:#181818;stroke-width:1.3;" width="13" x="1389.7" y="1003.6178"/><rect fill="#FFFFFF" height="40.6783" style="stroke:#181818;stroke-width:1.3;" width="13" x="1588.6" y="564.7764"/><rect fill="#FFFFFF" height="43.7074" style="stroke:#181818;stroke-width:1.3;" width="13" x="1872.65" y="740.4896"/><polygon fill="#181818" points="572,152.7932,585,157.9932,572,163.1932,577.2,157.9932" style="stroke:#181818;stroke-width:1.3;"/><line style="stroke:#181818;stroke-width:1.3;" x1="53.3" x2="579.8" y1="157.9932" y2="157.9932"/><text fill="#000000" font-family="sans-serif" font-size="16.9" font-weight="bold" lengthAdjust="spacing" textLength="9.1" x="62.4" y="151.1517">1</text><text fill="#000000" font-family="sans-serif" font-size="16.9" lengthAdjust="spacing" textLength="218.4" x="76.7" y="151.1517">Starts creating a new Course</text><polygon fill="#181818" points="67.6,193.4715,54.6,198.6715,67.6,203.8715,62.4,198.6715" style="stroke:#181818;stroke-width:1.3;"/><line style="stroke:#181818;stroke-width:1.3;" x1="59.8" x2="592.8" y1="198.6715" y2="198.6715"/><text fill="#000000" font-family="sans-serif" font-size="16.9" font-weight="bold" lengthAdjust="spacing" textLength="9.1" x="75.4" y="191.83">2</text><text fill="#000000" font-family="sans-serif" font-size="16.9" lengthAdjust="spacing" textLength="488.8" x="89.7" y="191.83">requests course data (name, address, contact, citizenNumber,id)</text><polygon fill="#181818" points="572,234.1498,585,239.3498,572,244.5498,577.2,239.3498" style="stroke:#181818;stroke-width:1.3;"/><line style="stroke:#181818;stroke-width:1.3;" x1="53.3" x2="579.8" y1="239.3498" y2="239.3498"/><text fill="#000000" font-family="sans-serif" font-size="16.9" font-weight="bold" lengthAdjust="spacing" textLength="9.1" x="62.4" y="232.5083">3</text><text fill="#000000" font-family="sans-serif" font-size="16.9" lengthAdjust="spacing" textLength="158.6" x="76.7" y="232.5083">types requested data</text><polygon fill="#181818" points="976.3,274.8281,989.3,280.0281,976.3,285.2281,981.5,280.0281" style="stroke:#181818;stroke-width:1.3;"/><line style="stroke:#181818;stroke-width:1.3;" x1="600.6" x2="984.1" y1="280.0281" y2="280.0281"/><text fill="#000000" font-family="sans-serif" font-size="16.9" font-weight="bold" lengthAdjust="spacing" textLength="9.1" x="609.7" y="273.1866">4</text><text fill="#000000" font-family="sans-serif" font-size="16.9" lengthAdjust="spacing" textLength="114.4" x="624" y="273.1866">verifyCourse(id)</text><polygon fill="#181818" points="1374.1,315.5064,1387.1,320.7064,1374.1,325.9064,1379.3,320.7064" style="stroke:#181818;stroke-width:1.3;"/><line style="stroke:#181818;stroke-width:1.3;" x1="1004.9" x2="1381.9" y1="320.7064" y2="320.7064"/><text fill="#000000" font-family="sans-serif" font-size="16.9" font-weight="bold" lengthAdjust="spacing" textLength="9.1" x="1014" y="313.8649">5</text><text fill="#000000" font-family="sans-serif" font-size="16.9" lengthAdjust="spacing" textLength="114.4" x="1028.3" y="313.8649">verifyCourse(id)</text><polygon fill="#181818" points="1019.2,356.1848,1006.2,361.3848,1019.2,366.5848,1014,361.3848" style="stroke:#181818;stroke-width:1.3;"/><line style="stroke:#181818;stroke-width:1.3;stroke-dasharray:2.0,2.0;" x1="1011.4" x2="1394.9" y1="361.3848" y2="361.3848"/><text fill="#000000" font-family="sans-serif" font-size="16.9" font-weight="bold" lengthAdjust="spacing" textLength="9.1" x="1027" y="354.5433">6</text><text fill="#000000" font-family="sans-serif" font-size="16.9" lengthAdjust="spacing" textLength="35.1" x="1041.3" y="354.5433">false</text><polygon fill="#181818" points="614.9,396.8631,601.9,402.0631,614.9,407.2631,609.7,402.0631" style="stroke:#181818;stroke-width:1.3;"/><line style="stroke:#181818;stroke-width:1.3;stroke-dasharray:2.0,2.0;" x1="607.1" x2="997.1" y1="402.0631" y2="402.0631"/><text fill="#000000" font-family="sans-serif" font-size="16.9" font-weight="bold" lengthAdjust="spacing" textLength="9.1" x="622.7" y="395.2216">7</text><text fill="#000000" font-family="sans-serif" font-size="16.9" lengthAdjust="spacing" textLength="35.1" x="637" y="395.2216">false</text><polygon fill="#181818" points="67.6,437.5414,54.6,442.7414,67.6,447.9414,62.4,442.7414" style="stroke:#181818;stroke-width:1.3;"/><line style="stroke:#181818;stroke-width:1.3;stroke-dasharray:2.0,2.0;" x1="59.8" x2="592.8" y1="442.7414" y2="442.7414"/><text fill="#000000" font-family="sans-serif" font-size="16.9" font-weight="bold" lengthAdjust="spacing" textLength="9.1" x="75.4" y="435.8999">8</text><text fill="#000000" font-family="sans-serif" font-size="16.9" lengthAdjust="spacing" textLength="345.8" x="89.7" y="435.8999">Course don't exist and asks for regent teacher</text><polygon fill="#181818" points="572,478.2197,585,483.4197,572,488.6197,577.2,483.4197" style="stroke:#181818;stroke-width:1.3;"/><line style="stroke:#181818;stroke-width:1.3;" x1="53.3" x2="579.8" y1="483.4197" y2="483.4197"/><text fill="#000000" font-family="sans-serif" font-size="16.9" font-weight="bold" lengthAdjust="spacing" textLength="9.1" x="62.4" y="476.5782">9</text><text fill="#000000" font-family="sans-serif" font-size="16.9" lengthAdjust="spacing" textLength="172.9" x="76.7" y="476.5782">types regent teacher id</text><polygon fill="#181818" points="976.3,518.898,989.3,524.098,976.3,529.298,981.5,524.098" style="stroke:#181818;stroke-width:1.3;"/><line style="stroke:#181818;stroke-width:1.3;" x1="600.6" x2="984.1" y1="524.098" y2="524.098"/><text fill="#000000" font-family="sans-serif" font-size="16.9" font-weight="bold" lengthAdjust="spacing" textLength="18.2" x="609.7" y="517.2565">10</text><text fill="#000000" font-family="sans-serif" font-size="16.9" lengthAdjust="spacing" textLength="119.6" x="633.1" y="517.2565">existTeacher(id)</text><polygon fill="#181818" points="1573,559.5764,1586,564.7764,1573,569.9764,1578.2,564.7764" style="stroke:#181818;stroke-width:1.3;"/><line style="stroke:#181818;stroke-width:1.3;" x1="1004.9" x2="1580.8" y1="564.7764" y2="564.7764"/><text fill="#000000" font-family="sans-serif" font-size="16.9" font-weight="bold" lengthAdjust="spacing" textLength="18.2" x="1014" y="557.9349">11</text><text fill="#000000" font-family="sans-serif" font-size="16.9" lengthAdjust="spacing" textLength="119.6" x="1037.4" y="557.9349">existTeacher(id)</text><polygon fill="#181818" points="1019.2,600.2547,1006.2,605.4547,1019.2,610.6547,1014,605.4547" style="stroke:#181818;stroke-width:1.3;"/><line style="stroke:#181818;stroke-width:1.3;stroke-dasharray:2.0,2.0;" x1="1011.4" x2="1593.8" y1="605.4547" y2="605.4547"/><text fill="#000000" font-family="sans-serif" font-size="16.9" font-weight="bold" lengthAdjust="spacing" textLength="18.2" x="1027" y="598.6132">12</text><text fill="#000000" font-family="sans-serif" font-size="16.9" lengthAdjust="spacing" textLength="55.9" x="1050.4" y="598.6132">teacher</text><polygon fill="#181818" points="976.3,640.933,989.3,646.133,976.3,651.333,981.5,646.133" style="stroke:#181818;stroke-width:1.3;"/><line style="stroke:#181818;stroke-width:1.3;" x1="600.6" x2="984.1" y1="646.133" y2="646.133"/><text fill="#000000" font-family="sans-serif" font-size="16.9" font-weight="bold" lengthAdjust="spacing" textLength="18.2" x="609.7" y="639.2915">13</text><text fill="#000000" font-family="sans-serif" font-size="16.9" lengthAdjust="spacing" textLength="336.7" x="633.1" y="639.2915">createCourse(id, name, status, code, regent)</text><polygon fill="#181818" points="1374.1,681.6113,1387.1,686.8113,1374.1,692.0113,1379.3,686.8113" style="stroke:#181818;stroke-width:1.3;"/><line style="stroke:#181818;stroke-width:1.3;" x1="1004.9" x2="1381.9" y1="686.8113" y2="686.8113"/><text fill="#000000" font-family="sans-serif" font-size="16.9" font-weight="bold" lengthAdjust="spacing" textLength="18.2" x="1014" y="679.9698">14</text><text fill="#000000" font-family="sans-serif" font-size="16.9" lengthAdjust="spacing" textLength="336.7" x="1037.4" y="679.9698">createCourse(id, name, status, code, regent)</text><polygon fill="#181818" points="1778.4,722.2896,1791.4,727.4896,1778.4,732.6896,1783.6,727.4896" style="stroke:#181818;stroke-width:1.3;"/><line style="stroke:#181818;stroke-width:1.3;" x1="1402.7" x2="1786.2" y1="727.4896" y2="727.4896"/><text fill="#000000" font-family="sans-serif" font-size="16.9" font-weight="bold" lengthAdjust="spacing" textLength="18.2" x="1411.8" y="720.6481">15</text><text fill="#000000" font-family="sans-serif" font-size="16.9" lengthAdjust="spacing" textLength="336.7" x="1435.2" y="720.6481">createCourse(id, name, status, code, regent)</text><rect fill="#E2E2F0" height="42.4074" rx="3.25" ry="3.25" style="stroke:#181818;stroke-width:0.65;" width="170.3" x="1794" y="697.2113"/><text fill="#000000" font-family="sans-serif" font-size="18.2" lengthAdjust="spacing" textLength="152.1" x="1803.1" y="725.951">CB: CourseBuilder</text><polygon fill="#181818" points="2196.35,778.9971,2209.35,784.1971,2196.35,789.3971,2201.55,784.1971" style="stroke:#181818;stroke-width:1.3;"/><line style="stroke:#181818;stroke-width:1.3;stroke-dasharray:2.0,2.0;" x1="1879.15" x2="2204.15" y1="784.1971" y2="784.1971"/><text fill="#000000" font-family="sans-serif" font-size="16.9" font-weight="bold" lengthAdjust="spacing" textLength="18.2" x="1888.25" y="777.3556">16</text><text fill="#000000" font-family="sans-serif" font-size="16.9" lengthAdjust="spacing" textLength="271.7" x="1911.65" y="777.3556">build(id, name, status, code, regent)</text><rect fill="#E2E2F0" height="42.4074" rx="3.25" ry="3.25" style="stroke:#181818;stroke-width:0.65;" width="110.5" x="2211.95" y="753.9188"/><text fill="#000000" font-family="sans-serif" font-size="18.2" lengthAdjust="spacing" textLength="92.3" x="2221.05" y="782.6584">Cs: Course</text><polygon fill="#181818" points="614.9,835.7045,601.9,840.9045,614.9,846.1045,609.7,840.9045" style="stroke:#181818;stroke-width:1.3;"/><line style="stroke:#181818;stroke-width:1.3;stroke-dasharray:2.0,2.0;" x1="607.1" x2="997.1" y1="840.9045" y2="840.9045"/><text fill="#000000" font-family="sans-serif" font-size="16.9" font-weight="bold" lengthAdjust="spacing" textLength="18.2" x="622.7" y="834.063">17</text><text fill="#000000" font-family="sans-serif" font-size="16.9" lengthAdjust="spacing" textLength="53.3" x="646.1" y="834.063">Course</text><polygon fill="#181818" points="67.6,876.3828,54.6,881.5828,67.6,886.7828,62.4,881.5828" style="stroke:#181818;stroke-width:1.3;"/><line style="stroke:#181818;stroke-width:1.3;stroke-dasharray:2.0,2.0;" x1="59.8" x2="592.8" y1="881.5828" y2="881.5828"/><text fill="#000000" font-family="sans-serif" font-size="16.9" font-weight="bold" lengthAdjust="spacing" textLength="18.2" x="75.4" y="874.7413">18</text><text fill="#000000" font-family="sans-serif" font-size="16.9" lengthAdjust="spacing" textLength="284.7" x="98.8" y="874.7413">shows data and requests confirmation</text><polygon fill="#181818" points="572,917.0611,585,922.2611,572,927.4611,577.2,922.2611" style="stroke:#181818;stroke-width:1.3;"/><line style="stroke:#181818;stroke-width:1.3;" x1="53.3" x2="579.8" y1="922.2611" y2="922.2611"/><text fill="#000000" font-family="sans-serif" font-size="16.9" font-weight="bold" lengthAdjust="spacing" textLength="18.2" x="62.4" y="915.4196">19</text><text fill="#000000" font-family="sans-serif" font-size="16.9" lengthAdjust="spacing" textLength="101.4" x="85.8" y="915.4196">confirms data</text><polygon fill="#181818" points="976.3,957.7395,989.3,962.9395,976.3,968.1395,981.5,962.9395" style="stroke:#181818;stroke-width:1.3;"/><line style="stroke:#181818;stroke-width:1.3;" x1="600.6" x2="984.1" y1="962.9395" y2="962.9395"/><text fill="#000000" font-family="sans-serif" font-size="16.9" font-weight="bold" lengthAdjust="spacing" textLength="18.2" x="609.7" y="956.0979">20</text><text fill="#000000" font-family="sans-serif" font-size="16.9" lengthAdjust="spacing" textLength="150.8" x="633.1" y="956.0979">saveCourse(Course)</text><polygon fill="#181818" points="1374.1,998.4178,1387.1,1003.6178,1374.1,1008.8178,1379.3,1003.6178" style="stroke:#181818;stroke-width:1.3;"/><line style="stroke:#181818;stroke-width:1.3;" x1="1004.9" x2="1381.9" y1="1003.6178" y2="1003.6178"/><text fill="#000000" font-family="sans-serif" font-size="16.9" font-weight="bold" lengthAdjust="spacing" textLength="18.2" x="1014" y="996.7763">21</text><text fill="#000000" font-family="sans-serif" font-size="16.9" lengthAdjust="spacing" textLength="91" x="1037.4" y="996.7763">add(Course)</text><line style="stroke:#181818;stroke-width:1.3;" x1="1402.7" x2="1457.3" y1="1044.2961" y2="1044.2961"/><line style="stroke:#181818;stroke-width:1.3;" x1="1457.3" x2="1457.3" y1="1044.2961" y2="1061.1961"/><line style="stroke:#181818;stroke-width:1.3;" x1="1404" x2="1457.3" y1="1061.1961" y2="1061.1961"/><polygon fill="#181818" points="1417,1055.9961,1404,1061.1961,1417,1066.3961,1411.8,1061.1961" style="stroke:#181818;stroke-width:1.3;"/><text fill="#000000" font-family="sans-serif" font-size="16.9" font-weight="bold" lengthAdjust="spacing" textLength="18.2" x="1411.8" y="1037.4546">22</text><text fill="#000000" font-family="sans-serif" font-size="16.9" lengthAdjust="spacing" textLength="144.3" x="1435.2" y="1037.4546">addCourse(Course)</text><polygon fill="#181818" points="1019.2,1096.6744,1006.2,1101.8744,1019.2,1107.0744,1014,1101.8744" style="stroke:#181818;stroke-width:1.3;"/><line style="stroke:#181818;stroke-width:1.3;stroke-dasharray:2.0,2.0;" x1="1011.4" x2="1394.9" y1="1101.8744" y2="1101.8744"/><text fill="#000000" font-family="sans-serif" font-size="16.9" font-weight="bold" lengthAdjust="spacing" textLength="18.2" x="1027" y="1095.0329">23</text><text fill="#000000" font-family="sans-serif" font-size="16.9" lengthAdjust="spacing" textLength="206.7" x="1050.4" y="1095.0329">Course added successfully!</text><polygon fill="#181818" points="614.9,1137.3527,601.9,1142.5527,614.9,1147.7527,609.7,1142.5527" style="stroke:#181818;stroke-width:1.3;"/><line style="stroke:#181818;stroke-width:1.3;stroke-dasharray:2.0,2.0;" x1="607.1" x2="997.1" y1="1142.5527" y2="1142.5527"/><text fill="#000000" font-family="sans-serif" font-size="16.9" font-weight="bold" lengthAdjust="spacing" textLength="18.2" x="622.7" y="1135.7112">24</text><text fill="#000000" font-family="sans-serif" font-size="16.9" lengthAdjust="spacing" textLength="206.7" x="646.1" y="1135.7112">Course added successfully!</text><polygon fill="#181818" points="67.6,1178.0311,54.6,1183.2311,67.6,1188.4311,62.4,1183.2311" style="stroke:#181818;stroke-width:1.3;"/><line style="stroke:#181818;stroke-width:1.3;stroke-dasharray:2.0,2.0;" x1="59.8" x2="592.8" y1="1183.2311" y2="1183.2311"/><text fill="#000000" font-family="sans-serif" font-size="16.9" font-weight="bold" lengthAdjust="spacing" textLength="18.2" x="75.4" y="1176.3896">25</text><text fill="#000000" font-family="sans-serif" font-size="16.9" lengthAdjust="spacing" textLength="206.7" x="98.8" y="1176.3896">Course added successfully!</text><!--SRC=[dLJBajem4BphAoPxsKVXS7TjKHLyuf0zGFm1mXf05LjsD3A4V7r6yWFpyf9SmB9QFQEURZ_ldAiedawhN1fN5_dNh2ocXBzgD1b6IikjbOKGidQbgOirMY6-PQwqy5qQkKKBaloZ49MqJcUwOXfuYXEBqk477fAojeJfuia3qyKuB2cDisMUemrmNWebdLnBGcWGIwn8S_bZe5kkuFtTObKsxsQp4pmbjETWkiIUjPBCuxR4lDQvwZgONw2eGpNR98JWsqCquxj132l7Q8BCNqkRBKWmU6XF29avlUVh1htw1MiYqWKJU9uOh9UUF4Su1Fv2y69aWHEGIbaacl2USKp03zhfFsW-mcGcMhqAXMVCm-RSiKBg2g0ArDTziEYCtQFLcsFJ-8ldxN5-A89_efcNVmp9-qovN4M1D8QDp5c5OOCUuAcOQt5ZFvJYrgDUdQGLfJJF3l2t9WVIA1x5Ju8DczBY5dbEZZbsRDK7n1ZYGQjxUeHQFnhONJre59YoMLBgnBZL8Wqh1WzXh-i46W-GawuE5b2yQlf_FHl8Fnsy7jQCJV_szhyq71YHpFqboPEiVPO-FJqS-VoMGO83mjZQA5sRvEGHsfK7QdBZlJ48bDbeMt0m_MVblZDQ78tcW-I-qwRvkvUGsAUsnvphtSZTWIxeXibfRSyWZYtLMSPVWKsTvySl8t5wxD19FjRWuKgBlm00]--></g></svg>