<?xml version="1.0" encoding="UTF-8" standalone="no"?><svg xmlns="http://www.w3.org/2000/svg" xmlns:xlink="http://www.w3.org/1999/xlink" contentStyleType="text/css" height="774px" preserveAspectRatio="none" style="width:1055px;height:774px;background:#FFFFFF;" version="1.1" viewBox="0 0 1055 774" width="1055px" zoomAndPan="magnify"><defs/><g><!--MD5=[d6181cb537bdc20c0a3007a98a56832d]
class Student--><g id="elem_Student"><rect codeLine="2" fill="#F1F1F1" height="73.7969" id="Student" rx="2.5" ry="2.5" style="stroke:#181818;stroke-width:0.5;" width="81" x="564.74" y="7"/><ellipse cx="579.74" cy="35.8984" fill="#ADD1B2" rx="11" ry="11" style="stroke:#181818;stroke-width:1.0;"/><path d="M581.74,32.3984 Q581.9431,31.8984 582.1775,31.6484 Q582.4119,31.3984 582.6775,31.3984 Q583.1462,31.3984 583.4431,31.6797 Q583.74,31.9609 583.74,32.6172 L583.74,34.1797 Q583.74,34.8359 583.4587,35.1172 Q583.1775,35.3984 582.74,35.3984 Q582.3494,35.3984 582.0994,35.2266 Q581.8494,35.0547 581.74,34.6016 Q581.6931,34.2891 581.5212,34.1172 Q581.2087,33.7891 580.6462,33.6016 Q580.0837,33.3984 579.5212,33.3984 Q578.8181,33.3984 578.2244,33.6797 Q577.6462,33.9609 577.1931,34.5859 Q576.74,35.2109 576.74,36.0703 L576.74,36.9922 Q576.74,38.0234 577.5837,38.7109 Q578.4275,39.3984 579.9275,39.3984 Q580.8181,39.3984 581.4431,39.1953 Q581.8025,39.0859 582.2087,38.7266 Q582.4744,38.5234 582.615,38.4609 Q582.7556,38.3984 582.9275,38.3984 Q583.2556,38.3984 583.49,38.6641 Q583.74,38.9141 583.74,39.2734 Q583.74,39.6172 583.3962,40.0234 Q582.8962,40.6172 582.0994,40.9453 Q581.0525,41.3984 579.7712,41.3984 Q578.2712,41.3984 577.0681,40.8047 Q576.0994,40.3359 575.4119,39.3203 Q574.74,38.3047 574.74,37.1016 L574.74,36.0078 Q574.74,34.7578 575.3337,33.6641 Q575.9431,32.5703 576.99,31.9922 Q578.0525,31.3984 579.24,31.3984 Q579.9587,31.3984 580.5837,31.6484 Q581.2087,31.8984 581.74,32.3984 Z " fill="#000000"/><text fill="#000000" font-family="sans-serif" font-size="12" font-style="italic" lengthAdjust="spacing" textLength="35" x="600.74" y="24.457">«root»</text><text fill="#000000" font-family="sans-serif" font-size="12" font-style="italic" lengthAdjust="spacing" textLength="43" x="596.74" y="39.5508">«entity»</text><text fill="#000000" font-family="sans-serif" font-size="14" lengthAdjust="spacing" textLength="49" x="593.74" y="56.7207">Student</text><line style="stroke:#181818;stroke-width:0.5;" x1="565.74" x2="644.74" y1="64.7969" y2="64.7969"/><line style="stroke:#181818;stroke-width:0.5;" x1="565.74" x2="644.74" y1="72.7969" y2="72.7969"/></g><!--MD5=[7c0272b84c789307248a1fca2b57a537]
class ListGradesStudentsUI--><g id="elem_ListGradesStudentsUI"><rect codeLine="6" fill="#F1F1F1" height="48" id="ListGradesStudentsUI" rx="2.5" ry="2.5" style="stroke:#181818;stroke-width:0.5;" width="169" x="712.74" y="159"/><ellipse cx="727.74" cy="175" fill="#ADD1B2" rx="11" ry="11" style="stroke:#181818;stroke-width:1.0;"/><path d="M729.74,171.5 Q729.9431,171 730.1775,170.75 Q730.4119,170.5 730.6775,170.5 Q731.1462,170.5 731.4431,170.7813 Q731.74,171.0625 731.74,171.7188 L731.74,173.2813 Q731.74,173.9375 731.4587,174.2188 Q731.1775,174.5 730.74,174.5 Q730.3494,174.5 730.0994,174.3281 Q729.8494,174.1563 729.74,173.7031 Q729.6931,173.3906 729.5212,173.2188 Q729.2087,172.8906 728.6462,172.7031 Q728.0837,172.5 727.5212,172.5 Q726.8181,172.5 726.2244,172.7813 Q725.6462,173.0625 725.1931,173.6875 Q724.74,174.3125 724.74,175.1719 L724.74,176.0938 Q724.74,177.125 725.5837,177.8125 Q726.4275,178.5 727.9275,178.5 Q728.8181,178.5 729.4431,178.2969 Q729.8025,178.1875 730.2087,177.8281 Q730.4744,177.625 730.615,177.5625 Q730.7556,177.5 730.9275,177.5 Q731.2556,177.5 731.49,177.7656 Q731.74,178.0156 731.74,178.375 Q731.74,178.7188 731.3962,179.125 Q730.8962,179.7188 730.0994,180.0469 Q729.0525,180.5 727.7712,180.5 Q726.2712,180.5 725.0681,179.9063 Q724.0994,179.4375 723.4119,178.4219 Q722.74,177.4063 722.74,176.2031 L722.74,175.1094 Q722.74,173.8594 723.3337,172.7656 Q723.9431,171.6719 724.99,171.0938 Q726.0525,170.5 727.24,170.5 Q727.9587,170.5 728.5837,170.75 Q729.2087,171 729.74,171.5 Z " fill="#000000"/><text fill="#000000" font-family="sans-serif" font-size="14" lengthAdjust="spacing" textLength="137" x="741.74" y="180.7285">ListGradesStudentsUI</text><line style="stroke:#181818;stroke-width:0.5;" x1="713.74" x2="880.74" y1="191" y2="191"/><line style="stroke:#181818;stroke-width:0.5;" x1="713.74" x2="880.74" y1="199" y2="199"/></g><!--MD5=[a532b2a1c4b34e5f6e46bae66f73a67c]
class ListGradesStudentsController--><g id="elem_ListGradesStudentsController"><rect codeLine="9" fill="#F1F1F1" height="65.6094" id="ListGradesStudentsController" rx="2.5" ry="2.5" style="stroke:#181818;stroke-width:0.5;" width="219" x="596.74" y="268"/><ellipse cx="611.74" cy="284" fill="#ADD1B2" rx="11" ry="11" style="stroke:#181818;stroke-width:1.0;"/><path d="M613.74,280.5 Q613.9431,280 614.1775,279.75 Q614.4119,279.5 614.6775,279.5 Q615.1462,279.5 615.4431,279.7813 Q615.74,280.0625 615.74,280.7188 L615.74,282.2813 Q615.74,282.9375 615.4587,283.2188 Q615.1775,283.5 614.74,283.5 Q614.3494,283.5 614.0994,283.3281 Q613.8494,283.1563 613.74,282.7031 Q613.6931,282.3906 613.5212,282.2188 Q613.2087,281.8906 612.6462,281.7031 Q612.0837,281.5 611.5212,281.5 Q610.8181,281.5 610.2244,281.7813 Q609.6462,282.0625 609.1931,282.6875 Q608.74,283.3125 608.74,284.1719 L608.74,285.0938 Q608.74,286.125 609.5837,286.8125 Q610.4275,287.5 611.9275,287.5 Q612.8181,287.5 613.4431,287.2969 Q613.8025,287.1875 614.2087,286.8281 Q614.4744,286.625 614.615,286.5625 Q614.7556,286.5 614.9275,286.5 Q615.2556,286.5 615.49,286.7656 Q615.74,287.0156 615.74,287.375 Q615.74,287.7188 615.3962,288.125 Q614.8962,288.7188 614.0994,289.0469 Q613.0525,289.5 611.7712,289.5 Q610.2712,289.5 609.0681,288.9063 Q608.0994,288.4375 607.4119,287.4219 Q606.74,286.4063 606.74,285.2031 L606.74,284.1094 Q606.74,282.8594 607.3337,281.7656 Q607.9431,280.6719 608.99,280.0938 Q610.0525,279.5 611.24,279.5 Q611.9587,279.5 612.5837,279.75 Q613.2087,280 613.74,280.5 Z " fill="#000000"/><text fill="#000000" font-family="sans-serif" font-size="14" lengthAdjust="spacing" textLength="187" x="625.74" y="289.7285">ListGradesStudentsController</text><line style="stroke:#181818;stroke-width:0.5;" x1="597.74" x2="814.74" y1="300" y2="300"/><line style="stroke:#181818;stroke-width:0.5;" x1="597.74" x2="814.74" y1="308" y2="308"/><ellipse cx="607.74" cy="322.3047" fill="#84BE84" rx="3" ry="3" style="stroke:#038048;stroke-width:1.0;"/><text fill="#000000" font-family="sans-serif" font-size="14" lengthAdjust="spacing" textLength="130" x="616.74" y="326.5332">listGradesStudents()</text></g><!--MD5=[e1950b721890adcab185987402bb4ea9]
class ListGradesStudentService--><g id="elem_ListGradesStudentService"><rect codeLine="12" fill="#F1F1F1" height="65.6094" id="ListGradesStudentService" rx="2.5" ry="2.5" style="stroke:#181818;stroke-width:0.5;" width="197" x="204.74" y="395"/><ellipse cx="219.74" cy="411" fill="#ADD1B2" rx="11" ry="11" style="stroke:#181818;stroke-width:1.0;"/><path d="M221.74,407.5 Q221.9431,407 222.1775,406.75 Q222.4119,406.5 222.6775,406.5 Q223.1463,406.5 223.4431,406.7813 Q223.74,407.0625 223.74,407.7188 L223.74,409.2813 Q223.74,409.9375 223.4588,410.2188 Q223.1775,410.5 222.74,410.5 Q222.3494,410.5 222.0994,410.3281 Q221.8494,410.1563 221.74,409.7031 Q221.6931,409.3906 221.5213,409.2188 Q221.2088,408.8906 220.6463,408.7031 Q220.0838,408.5 219.5213,408.5 Q218.8181,408.5 218.2244,408.7813 Q217.6463,409.0625 217.1931,409.6875 Q216.74,410.3125 216.74,411.1719 L216.74,412.0938 Q216.74,413.125 217.5838,413.8125 Q218.4275,414.5 219.9275,414.5 Q220.8181,414.5 221.4431,414.2969 Q221.8025,414.1875 222.2088,413.8281 Q222.4744,413.625 222.615,413.5625 Q222.7556,413.5 222.9275,413.5 Q223.2556,413.5 223.49,413.7656 Q223.74,414.0156 223.74,414.375 Q223.74,414.7188 223.3963,415.125 Q222.8963,415.7188 222.0994,416.0469 Q221.0525,416.5 219.7713,416.5 Q218.2713,416.5 217.0681,415.9063 Q216.0994,415.4375 215.4119,414.4219 Q214.74,413.4063 214.74,412.2031 L214.74,411.1094 Q214.74,409.8594 215.3338,408.7656 Q215.9431,407.6719 216.99,407.0938 Q218.0525,406.5 219.24,406.5 Q219.9588,406.5 220.5838,406.75 Q221.2088,407 221.74,407.5 Z " fill="#000000"/><text fill="#000000" font-family="sans-serif" font-size="14" lengthAdjust="spacing" textLength="165" x="233.74" y="416.7285">ListGradesStudentService</text><line style="stroke:#181818;stroke-width:0.5;" x1="205.74" x2="400.74" y1="427" y2="427"/><line style="stroke:#181818;stroke-width:0.5;" x1="205.74" x2="400.74" y1="435" y2="435"/><ellipse cx="215.74" cy="449.3047" fill="#84BE84" rx="3" ry="3" style="stroke:#038048;stroke-width:1.0;"/><text fill="#000000" font-family="sans-serif" font-size="14" lengthAdjust="spacing" textLength="130" x="224.74" y="453.5332">listGradesStudents()</text></g><!--MD5=[54a33dd013dd881697601ca49de6dfbc]
class AuthorizationService--><g id="elem_AuthorizationService"><rect codeLine="16" fill="#F1F1F1" height="65.6094" id="AuthorizationService" rx="2.5" ry="2.5" style="stroke:#181818;stroke-width:0.5;" width="161" x="436.74" y="395"/><ellipse cx="451.74" cy="411" fill="#ADD1B2" rx="11" ry="11" style="stroke:#181818;stroke-width:1.0;"/><path d="M453.74,407.5 Q453.9431,407 454.1775,406.75 Q454.4119,406.5 454.6775,406.5 Q455.1463,406.5 455.4431,406.7813 Q455.74,407.0625 455.74,407.7188 L455.74,409.2813 Q455.74,409.9375 455.4588,410.2188 Q455.1775,410.5 454.74,410.5 Q454.3494,410.5 454.0994,410.3281 Q453.8494,410.1563 453.74,409.7031 Q453.6931,409.3906 453.5213,409.2188 Q453.2088,408.8906 452.6463,408.7031 Q452.0838,408.5 451.5213,408.5 Q450.8181,408.5 450.2244,408.7813 Q449.6463,409.0625 449.1931,409.6875 Q448.74,410.3125 448.74,411.1719 L448.74,412.0938 Q448.74,413.125 449.5838,413.8125 Q450.4275,414.5 451.9275,414.5 Q452.8181,414.5 453.4431,414.2969 Q453.8025,414.1875 454.2088,413.8281 Q454.4744,413.625 454.615,413.5625 Q454.7556,413.5 454.9275,413.5 Q455.2556,413.5 455.49,413.7656 Q455.74,414.0156 455.74,414.375 Q455.74,414.7188 455.3963,415.125 Q454.8963,415.7188 454.0994,416.0469 Q453.0525,416.5 451.7713,416.5 Q450.2713,416.5 449.0681,415.9063 Q448.0994,415.4375 447.4119,414.4219 Q446.74,413.4063 446.74,412.2031 L446.74,411.1094 Q446.74,409.8594 447.3338,408.7656 Q447.9431,407.6719 448.99,407.0938 Q450.0525,406.5 451.24,406.5 Q451.9588,406.5 452.5838,406.75 Q453.2088,407 453.74,407.5 Z " fill="#000000"/><text fill="#000000" font-family="sans-serif" font-size="14" lengthAdjust="spacing" textLength="129" x="465.74" y="416.7285">AuthorizationService</text><line style="stroke:#181818;stroke-width:0.5;" x1="437.74" x2="596.74" y1="427" y2="427"/><line style="stroke:#181818;stroke-width:0.5;" x1="437.74" x2="596.74" y1="435" y2="435"/><ellipse cx="447.74" cy="449.3047" fill="#84BE84" rx="3" ry="3" style="stroke:#038048;stroke-width:1.0;"/><text fill="#000000" font-family="sans-serif" font-size="14" lengthAdjust="spacing" textLength="58" x="456.74" y="453.5332">session()</text></g><!--MD5=[c5b08e60048ef1bcd788d24cf324082e]
class UserSession--><g id="elem_UserSession"><rect codeLine="20" fill="#F1F1F1" height="65.6094" id="UserSession" rx="2.5" ry="2.5" style="stroke:#181818;stroke-width:0.5;" width="111" x="703.74" y="522"/><ellipse cx="718.74" cy="538" fill="#ADD1B2" rx="11" ry="11" style="stroke:#181818;stroke-width:1.0;"/><path d="M720.74,534.5 Q720.9431,534 721.1775,533.75 Q721.4119,533.5 721.6775,533.5 Q722.1462,533.5 722.4431,533.7813 Q722.74,534.0625 722.74,534.7188 L722.74,536.2813 Q722.74,536.9375 722.4587,537.2188 Q722.1775,537.5 721.74,537.5 Q721.3494,537.5 721.0994,537.3281 Q720.8494,537.1563 720.74,536.7031 Q720.6931,536.3906 720.5212,536.2188 Q720.2087,535.8906 719.6462,535.7031 Q719.0837,535.5 718.5212,535.5 Q717.8181,535.5 717.2244,535.7813 Q716.6462,536.0625 716.1931,536.6875 Q715.74,537.3125 715.74,538.1719 L715.74,539.0938 Q715.74,540.125 716.5837,540.8125 Q717.4275,541.5 718.9275,541.5 Q719.8181,541.5 720.4431,541.2969 Q720.8025,541.1875 721.2087,540.8281 Q721.4744,540.625 721.615,540.5625 Q721.7556,540.5 721.9275,540.5 Q722.2556,540.5 722.49,540.7656 Q722.74,541.0156 722.74,541.375 Q722.74,541.7188 722.3962,542.125 Q721.8962,542.7188 721.0994,543.0469 Q720.0525,543.5 718.7712,543.5 Q717.2712,543.5 716.0681,542.9063 Q715.0994,542.4375 714.4119,541.4219 Q713.74,540.4063 713.74,539.2031 L713.74,538.1094 Q713.74,536.8594 714.3337,535.7656 Q714.9431,534.6719 715.99,534.0938 Q717.0525,533.5 718.24,533.5 Q718.9587,533.5 719.5837,533.75 Q720.2087,534 720.74,534.5 Z " fill="#000000"/><text fill="#000000" font-family="sans-serif" font-size="14" lengthAdjust="spacing" textLength="79" x="732.74" y="543.7285">UserSession</text><line style="stroke:#181818;stroke-width:0.5;" x1="704.74" x2="813.74" y1="554" y2="554"/><line style="stroke:#181818;stroke-width:0.5;" x1="704.74" x2="813.74" y1="562" y2="562"/><ellipse cx="714.74" cy="576.3047" fill="#84BE84" rx="3" ry="3" style="stroke:#038048;stroke-width:1.0;"/><text fill="#000000" font-family="sans-serif" font-size="14" lengthAdjust="spacing" textLength="43" x="723.74" y="580.5332">email()</text></g><!--MD5=[98949971b4621db965bb05985e1de8c6]
class eCourseSystemUserRepository--><g id="elem_eCourseSystemUserRepository"><rect codeLine="24" fill="#F1F1F1" height="65.6094" id="eCourseSystemUserRepository" rx="2.5" ry="2.5" style="stroke:#181818;stroke-width:0.5;" width="229" x="819.74" y="675"/><ellipse cx="834.74" cy="691" fill="#ADD1B2" rx="11" ry="11" style="stroke:#181818;stroke-width:1.0;"/><path d="M836.74,687.5 Q836.9431,687 837.1775,686.75 Q837.4119,686.5 837.6775,686.5 Q838.1462,686.5 838.4431,686.7813 Q838.74,687.0625 838.74,687.7188 L838.74,689.2813 Q838.74,689.9375 838.4587,690.2188 Q838.1775,690.5 837.74,690.5 Q837.3494,690.5 837.0994,690.3281 Q836.8494,690.1563 836.74,689.7031 Q836.6931,689.3906 836.5212,689.2188 Q836.2087,688.8906 835.6462,688.7031 Q835.0837,688.5 834.5212,688.5 Q833.8181,688.5 833.2244,688.7813 Q832.6462,689.0625 832.1931,689.6875 Q831.74,690.3125 831.74,691.1719 L831.74,692.0938 Q831.74,693.125 832.5837,693.8125 Q833.4275,694.5 834.9275,694.5 Q835.8181,694.5 836.4431,694.2969 Q836.8025,694.1875 837.2087,693.8281 Q837.4744,693.625 837.615,693.5625 Q837.7556,693.5 837.9275,693.5 Q838.2556,693.5 838.49,693.7656 Q838.74,694.0156 838.74,694.375 Q838.74,694.7188 838.3962,695.125 Q837.8962,695.7188 837.0994,696.0469 Q836.0525,696.5 834.7712,696.5 Q833.2712,696.5 832.0681,695.9063 Q831.0994,695.4375 830.4119,694.4219 Q829.74,693.4063 829.74,692.2031 L829.74,691.1094 Q829.74,689.8594 830.3337,688.7656 Q830.9431,687.6719 831.99,687.0938 Q833.0525,686.5 834.24,686.5 Q834.9587,686.5 835.5837,686.75 Q836.2087,687 836.74,687.5 Z " fill="#000000"/><text fill="#000000" font-family="sans-serif" font-size="14" lengthAdjust="spacing" textLength="197" x="848.74" y="696.7285">eCourseSystemUserRepository</text><line style="stroke:#181818;stroke-width:0.5;" x1="820.74" x2="1047.74" y1="707" y2="707"/><line style="stroke:#181818;stroke-width:0.5;" x1="820.74" x2="1047.74" y1="715" y2="715"/><ellipse cx="830.74" cy="729.3047" fill="#84BE84" rx="3" ry="3" style="stroke:#038048;stroke-width:1.0;"/><text fill="#000000" font-family="sans-serif" font-size="14" lengthAdjust="spacing" textLength="115" x="839.74" y="733.5332">searchUser(email)</text></g><!--MD5=[20e583d4e0df3a755fa236795f6d14ab]
class eCourseSystemUser--><g id="elem_eCourseSystemUser"><rect codeLine="28" fill="#F1F1F1" height="65.6094" id="eCourseSystemUser" rx="2.5" ry="2.5" style="stroke:#181818;stroke-width:0.5;" width="161" x="716.74" y="11"/><ellipse cx="731.74" cy="27" fill="#ADD1B2" rx="11" ry="11" style="stroke:#181818;stroke-width:1.0;"/><path d="M733.74,23.5 Q733.9431,23 734.1775,22.75 Q734.4119,22.5 734.6775,22.5 Q735.1462,22.5 735.4431,22.7813 Q735.74,23.0625 735.74,23.7188 L735.74,25.2813 Q735.74,25.9375 735.4587,26.2188 Q735.1775,26.5 734.74,26.5 Q734.3494,26.5 734.0994,26.3281 Q733.8494,26.1563 733.74,25.7031 Q733.6931,25.3906 733.5212,25.2188 Q733.2087,24.8906 732.6462,24.7031 Q732.0837,24.5 731.5212,24.5 Q730.8181,24.5 730.2244,24.7813 Q729.6462,25.0625 729.1931,25.6875 Q728.74,26.3125 728.74,27.1719 L728.74,28.0938 Q728.74,29.125 729.5837,29.8125 Q730.4275,30.5 731.9275,30.5 Q732.8181,30.5 733.4431,30.2969 Q733.8025,30.1875 734.2087,29.8281 Q734.4744,29.625 734.615,29.5625 Q734.7556,29.5 734.9275,29.5 Q735.2556,29.5 735.49,29.7656 Q735.74,30.0156 735.74,30.375 Q735.74,30.7188 735.3962,31.125 Q734.8962,31.7188 734.0994,32.0469 Q733.0525,32.5 731.7712,32.5 Q730.2712,32.5 729.0681,31.9063 Q728.0994,31.4375 727.4119,30.4219 Q726.74,29.4063 726.74,28.2031 L726.74,27.1094 Q726.74,25.8594 727.3337,24.7656 Q727.9431,23.6719 728.99,23.0938 Q730.0525,22.5 731.24,22.5 Q731.9587,22.5 732.5837,22.75 Q733.2087,23 733.74,23.5 Z " fill="#000000"/><text fill="#000000" font-family="sans-serif" font-size="14" lengthAdjust="spacing" textLength="129" x="745.74" y="32.7285">eCourseSystemUser</text><line style="stroke:#181818;stroke-width:0.5;" x1="717.74" x2="876.74" y1="43" y2="43"/><line style="stroke:#181818;stroke-width:0.5;" x1="717.74" x2="876.74" y1="51" y2="51"/><ellipse cx="727.74" cy="65.3047" fill="#84BE84" rx="3" ry="3" style="stroke:#038048;stroke-width:1.0;"/><text fill="#000000" font-family="sans-serif" font-size="14" lengthAdjust="spacing" textLength="116" x="736.74" y="69.5332">coursesLearning()</text></g><!--MD5=[3ee499f49186d42e50124f3efd1ade05]
class ExamRepository--><g id="elem_ExamRepository"><rect codeLine="32" fill="#F1F1F1" height="65.6094" id="ExamRepository" rx="2.5" ry="2.5" style="stroke:#181818;stroke-width:0.5;" width="178" x="633.24" y="395"/><ellipse cx="668.04" cy="411" fill="#ADD1B2" rx="11" ry="11" style="stroke:#181818;stroke-width:1.0;"/><path d="M670.04,407.5 Q670.2431,407 670.4775,406.75 Q670.7119,406.5 670.9775,406.5 Q671.4462,406.5 671.7431,406.7813 Q672.04,407.0625 672.04,407.7188 L672.04,409.2813 Q672.04,409.9375 671.7587,410.2188 Q671.4775,410.5 671.04,410.5 Q670.6494,410.5 670.3994,410.3281 Q670.1494,410.1563 670.04,409.7031 Q669.9931,409.3906 669.8212,409.2188 Q669.5087,408.8906 668.9462,408.7031 Q668.3837,408.5 667.8212,408.5 Q667.1181,408.5 666.5244,408.7813 Q665.9462,409.0625 665.4931,409.6875 Q665.04,410.3125 665.04,411.1719 L665.04,412.0938 Q665.04,413.125 665.8837,413.8125 Q666.7275,414.5 668.2275,414.5 Q669.1181,414.5 669.7431,414.2969 Q670.1025,414.1875 670.5087,413.8281 Q670.7744,413.625 670.915,413.5625 Q671.0556,413.5 671.2275,413.5 Q671.5556,413.5 671.79,413.7656 Q672.04,414.0156 672.04,414.375 Q672.04,414.7188 671.6962,415.125 Q671.1962,415.7188 670.3994,416.0469 Q669.3525,416.5 668.0712,416.5 Q666.5712,416.5 665.3681,415.9063 Q664.3994,415.4375 663.7119,414.4219 Q663.04,413.4063 663.04,412.2031 L663.04,411.1094 Q663.04,409.8594 663.6337,408.7656 Q664.2431,407.6719 665.29,407.0938 Q666.3525,406.5 667.54,406.5 Q668.2587,406.5 668.8837,406.75 Q669.5087,407 670.04,407.5 Z " fill="#000000"/><text fill="#000000" font-family="sans-serif" font-size="14" lengthAdjust="spacing" textLength="102" x="686.44" y="416.7285">ExamRepository</text><line style="stroke:#181818;stroke-width:0.5;" x1="634.24" x2="810.24" y1="427" y2="427"/><line style="stroke:#181818;stroke-width:0.5;" x1="634.24" x2="810.24" y1="435" y2="435"/><ellipse cx="644.24" cy="449.3047" fill="#84BE84" rx="3" ry="3" style="stroke:#038048;stroke-width:1.0;"/><text fill="#000000" font-family="sans-serif" font-size="14" lengthAdjust="spacing" textLength="152" x="653.24" y="453.5332">findAllOfCourse(course)</text></g><!--MD5=[d44ba2c2ca1fe374e464967a1111cada]
class ExamMapper--><g id="elem_ExamMapper"><rect codeLine="35" fill="#F1F1F1" height="65.6094" id="ExamMapper" rx="2.5" ry="2.5" style="stroke:#181818;stroke-width:0.5;" width="114" x="50.24" y="522"/><ellipse cx="65.24" cy="538" fill="#ADD1B2" rx="11" ry="11" style="stroke:#181818;stroke-width:1.0;"/><path d="M67.24,534.5 Q67.4431,534 67.6775,533.75 Q67.9119,533.5 68.1775,533.5 Q68.6463,533.5 68.9431,533.7813 Q69.24,534.0625 69.24,534.7188 L69.24,536.2813 Q69.24,536.9375 68.9588,537.2188 Q68.6775,537.5 68.24,537.5 Q67.8494,537.5 67.5994,537.3281 Q67.3494,537.1563 67.24,536.7031 Q67.1931,536.3906 67.0213,536.2188 Q66.7088,535.8906 66.1463,535.7031 Q65.5838,535.5 65.0213,535.5 Q64.3181,535.5 63.7244,535.7813 Q63.1463,536.0625 62.6931,536.6875 Q62.24,537.3125 62.24,538.1719 L62.24,539.0938 Q62.24,540.125 63.0838,540.8125 Q63.9275,541.5 65.4275,541.5 Q66.3181,541.5 66.9431,541.2969 Q67.3025,541.1875 67.7088,540.8281 Q67.9744,540.625 68.115,540.5625 Q68.2556,540.5 68.4275,540.5 Q68.7556,540.5 68.99,540.7656 Q69.24,541.0156 69.24,541.375 Q69.24,541.7188 68.8963,542.125 Q68.3963,542.7188 67.5994,543.0469 Q66.5525,543.5 65.2713,543.5 Q63.7713,543.5 62.5681,542.9063 Q61.5994,542.4375 60.9119,541.4219 Q60.24,540.4063 60.24,539.2031 L60.24,538.1094 Q60.24,536.8594 60.8338,535.7656 Q61.4431,534.6719 62.49,534.0938 Q63.5525,533.5 64.74,533.5 Q65.4588,533.5 66.0838,533.75 Q66.7088,534 67.24,534.5 Z " fill="#000000"/><text fill="#000000" font-family="sans-serif" font-size="14" lengthAdjust="spacing" textLength="82" x="79.24" y="543.7285">ExamMapper</text><line style="stroke:#181818;stroke-width:0.5;" x1="51.24" x2="163.24" y1="554" y2="554"/><line style="stroke:#181818;stroke-width:0.5;" x1="51.24" x2="163.24" y1="562" y2="562"/><ellipse cx="61.24" cy="576.3047" fill="#84BE84" rx="3" ry="3" style="stroke:#038048;stroke-width:1.0;"/><text fill="#000000" font-family="sans-serif" font-size="14" lengthAdjust="spacing" textLength="85" x="70.24" y="580.5332">toDTO(exam)</text></g><!--MD5=[eaaadc17e984e460b7e50ad22d2a83e6]
class ExamDTO--><g id="elem_ExamDTO"><rect codeLine="38" fill="#F1F1F1" height="118.4375" id="ExamDTO" rx="2.5" ry="2.5" style="stroke:#181818;stroke-width:0.5;" width="103" x="16.74" y="649"/><ellipse cx="34.89" cy="665" fill="#ADD1B2" rx="11" ry="11" style="stroke:#181818;stroke-width:1.0;"/><path d="M36.89,661.5 Q37.0931,661 37.3275,660.75 Q37.5619,660.5 37.8275,660.5 Q38.2963,660.5 38.5931,660.7813 Q38.89,661.0625 38.89,661.7188 L38.89,663.2813 Q38.89,663.9375 38.6088,664.2188 Q38.3275,664.5 37.89,664.5 Q37.4994,664.5 37.2494,664.3281 Q36.9994,664.1563 36.89,663.7031 Q36.8431,663.3906 36.6713,663.2188 Q36.3588,662.8906 35.7963,662.7031 Q35.2338,662.5 34.6713,662.5 Q33.9681,662.5 33.3744,662.7813 Q32.7963,663.0625 32.3431,663.6875 Q31.89,664.3125 31.89,665.1719 L31.89,666.0938 Q31.89,667.125 32.7338,667.8125 Q33.5775,668.5 35.0775,668.5 Q35.9681,668.5 36.5931,668.2969 Q36.9525,668.1875 37.3588,667.8281 Q37.6244,667.625 37.765,667.5625 Q37.9056,667.5 38.0775,667.5 Q38.4056,667.5 38.64,667.7656 Q38.89,668.0156 38.89,668.375 Q38.89,668.7188 38.5463,669.125 Q38.0463,669.7188 37.2494,670.0469 Q36.2025,670.5 34.9213,670.5 Q33.4213,670.5 32.2181,669.9063 Q31.2494,669.4375 30.5619,668.4219 Q29.89,667.4063 29.89,666.2031 L29.89,665.1094 Q29.89,663.8594 30.4838,662.7656 Q31.0931,661.6719 32.14,661.0938 Q33.2025,660.5 34.39,660.5 Q35.1088,660.5 35.7338,660.75 Q36.3588,661 36.89,661.5 Z " fill="#000000"/><text fill="#000000" font-family="sans-serif" font-size="14" lengthAdjust="spacing" textLength="64" x="49.59" y="670.7285">ExamDTO</text><line style="stroke:#181818;stroke-width:0.5;" x1="17.74" x2="118.74" y1="681" y2="681"/><ellipse cx="27.74" cy="695.3047" fill="none" rx="3" ry="3" style="stroke:#038048;stroke-width:1.0;"/><text fill="#000000" font-family="sans-serif" font-size="14" lengthAdjust="spacing" textLength="31" x="36.74" y="699.5332">code</text><ellipse cx="27.74" cy="712.9141" fill="none" rx="3" ry="3" style="stroke:#038048;stroke-width:1.0;"/><text fill="#000000" font-family="sans-serif" font-size="14" lengthAdjust="spacing" textLength="35" x="36.74" y="717.1426">name</text><ellipse cx="27.74" cy="730.5234" fill="none" rx="3" ry="3" style="stroke:#038048;stroke-width:1.0;"/><text fill="#000000" font-family="sans-serif" font-size="14" lengthAdjust="spacing" textLength="69" x="36.74" y="734.752">description</text><ellipse cx="27.74" cy="748.1328" fill="none" rx="3" ry="3" style="stroke:#038048;stroke-width:1.0;"/><text fill="#000000" font-family="sans-serif" font-size="14" lengthAdjust="spacing" textLength="77" x="36.74" y="752.3613">courseCode</text><line style="stroke:#181818;stroke-width:0.5;" x1="17.74" x2="118.74" y1="759.4375" y2="759.4375"/></g><!--MD5=[fd1617a40d9ae03afbea0ce52f4d1389]
class ExamGradeMapper--><g id="elem_ExamGradeMapper"><rect codeLine="44" fill="#F1F1F1" height="65.6094" id="ExamGradeMapper" rx="2.5" ry="2.5" style="stroke:#181818;stroke-width:0.5;" width="154" x="270.24" y="522"/><ellipse cx="285.24" cy="538" fill="#ADD1B2" rx="11" ry="11" style="stroke:#181818;stroke-width:1.0;"/><path d="M287.24,534.5 Q287.4431,534 287.6775,533.75 Q287.9119,533.5 288.1775,533.5 Q288.6463,533.5 288.9431,533.7813 Q289.24,534.0625 289.24,534.7188 L289.24,536.2813 Q289.24,536.9375 288.9588,537.2188 Q288.6775,537.5 288.24,537.5 Q287.8494,537.5 287.5994,537.3281 Q287.3494,537.1563 287.24,536.7031 Q287.1931,536.3906 287.0213,536.2188 Q286.7088,535.8906 286.1463,535.7031 Q285.5838,535.5 285.0213,535.5 Q284.3181,535.5 283.7244,535.7813 Q283.1463,536.0625 282.6931,536.6875 Q282.24,537.3125 282.24,538.1719 L282.24,539.0938 Q282.24,540.125 283.0838,540.8125 Q283.9275,541.5 285.4275,541.5 Q286.3181,541.5 286.9431,541.2969 Q287.3025,541.1875 287.7088,540.8281 Q287.9744,540.625 288.115,540.5625 Q288.2556,540.5 288.4275,540.5 Q288.7556,540.5 288.99,540.7656 Q289.24,541.0156 289.24,541.375 Q289.24,541.7188 288.8963,542.125 Q288.3963,542.7188 287.5994,543.0469 Q286.5525,543.5 285.2713,543.5 Q283.7713,543.5 282.5681,542.9063 Q281.5994,542.4375 280.9119,541.4219 Q280.24,540.4063 280.24,539.2031 L280.24,538.1094 Q280.24,536.8594 280.8338,535.7656 Q281.4431,534.6719 282.49,534.0938 Q283.5525,533.5 284.74,533.5 Q285.4588,533.5 286.0838,533.75 Q286.7088,534 287.24,534.5 Z " fill="#000000"/><text fill="#000000" font-family="sans-serif" font-size="14" lengthAdjust="spacing" textLength="122" x="299.24" y="543.7285">ExamGradeMapper</text><line style="stroke:#181818;stroke-width:0.5;" x1="271.24" x2="423.24" y1="554" y2="554"/><line style="stroke:#181818;stroke-width:0.5;" x1="271.24" x2="423.24" y1="562" y2="562"/><ellipse cx="281.24" cy="576.3047" fill="#84BE84" rx="3" ry="3" style="stroke:#038048;stroke-width:1.0;"/><text fill="#000000" font-family="sans-serif" font-size="14" lengthAdjust="spacing" textLength="125" x="290.24" y="580.5332">toDTO(examGrade)</text></g><!--MD5=[5dc7c132bd6aa30d6acb5715b5b1b1e7]
class ExamGradeDTO--><g id="elem_ExamGradeDTO"><rect codeLine="47" fill="#F1F1F1" height="83.2188" id="ExamGradeDTO" rx="2.5" ry="2.5" style="stroke:#181818;stroke-width:0.5;" width="136" x="187.24" y="666.5"/><ellipse cx="202.24" cy="682.5" fill="#ADD1B2" rx="11" ry="11" style="stroke:#181818;stroke-width:1.0;"/><path d="M204.24,679 Q204.4431,678.5 204.6775,678.25 Q204.9119,678 205.1775,678 Q205.6463,678 205.9431,678.2813 Q206.24,678.5625 206.24,679.2188 L206.24,680.7813 Q206.24,681.4375 205.9588,681.7188 Q205.6775,682 205.24,682 Q204.8494,682 204.5994,681.8281 Q204.3494,681.6563 204.24,681.2031 Q204.1931,680.8906 204.0213,680.7188 Q203.7088,680.3906 203.1463,680.2031 Q202.5838,680 202.0213,680 Q201.3181,680 200.7244,680.2813 Q200.1463,680.5625 199.6931,681.1875 Q199.24,681.8125 199.24,682.6719 L199.24,683.5938 Q199.24,684.625 200.0838,685.3125 Q200.9275,686 202.4275,686 Q203.3181,686 203.9431,685.7969 Q204.3025,685.6875 204.7088,685.3281 Q204.9744,685.125 205.115,685.0625 Q205.2556,685 205.4275,685 Q205.7556,685 205.99,685.2656 Q206.24,685.5156 206.24,685.875 Q206.24,686.2188 205.8963,686.625 Q205.3963,687.2188 204.5994,687.5469 Q203.5525,688 202.2713,688 Q200.7713,688 199.5681,687.4063 Q198.5994,686.9375 197.9119,685.9219 Q197.24,684.9063 197.24,683.7031 L197.24,682.6094 Q197.24,681.3594 197.8338,680.2656 Q198.4431,679.1719 199.49,678.5938 Q200.5525,678 201.74,678 Q202.4588,678 203.0838,678.25 Q203.7088,678.5 204.24,679 Z " fill="#000000"/><text fill="#000000" font-family="sans-serif" font-size="14" lengthAdjust="spacing" textLength="104" x="216.24" y="688.2285">ExamGradeDTO</text><line style="stroke:#181818;stroke-width:0.5;" x1="188.24" x2="322.24" y1="698.5" y2="698.5"/><ellipse cx="198.24" cy="712.8047" fill="none" rx="3" ry="3" style="stroke:#038048;stroke-width:1.0;"/><text fill="#000000" font-family="sans-serif" font-size="14" lengthAdjust="spacing" textLength="47" x="207.24" y="717.0332">student</text><ellipse cx="198.24" cy="730.4141" fill="none" rx="3" ry="3" style="stroke:#038048;stroke-width:1.0;"/><text fill="#000000" font-family="sans-serif" font-size="14" lengthAdjust="spacing" textLength="37" x="207.24" y="734.6426">grade</text><line style="stroke:#181818;stroke-width:0.5;" x1="188.24" x2="322.24" y1="741.7188" y2="741.7188"/></g><!--MD5=[4066b0363c5a91ff3b6e03e0428953a9]
class Course--><g id="elem_Course"><rect codeLine="52" fill="#F1F1F1" height="48" id="Course" rx="2.5" ry="2.5" style="stroke:#181818;stroke-width:0.5;" width="78" x="850.24" y="531"/><ellipse cx="865.24" cy="547" fill="#ADD1B2" rx="11" ry="11" style="stroke:#181818;stroke-width:1.0;"/><path d="M867.24,543.5 Q867.4431,543 867.6775,542.75 Q867.9119,542.5 868.1775,542.5 Q868.6462,542.5 868.9431,542.7813 Q869.24,543.0625 869.24,543.7188 L869.24,545.2813 Q869.24,545.9375 868.9587,546.2188 Q868.6775,546.5 868.24,546.5 Q867.8494,546.5 867.5994,546.3281 Q867.3494,546.1563 867.24,545.7031 Q867.1931,545.3906 867.0212,545.2188 Q866.7087,544.8906 866.1462,544.7031 Q865.5837,544.5 865.0212,544.5 Q864.3181,544.5 863.7244,544.7813 Q863.1462,545.0625 862.6931,545.6875 Q862.24,546.3125 862.24,547.1719 L862.24,548.0938 Q862.24,549.125 863.0837,549.8125 Q863.9275,550.5 865.4275,550.5 Q866.3181,550.5 866.9431,550.2969 Q867.3025,550.1875 867.7087,549.8281 Q867.9744,549.625 868.115,549.5625 Q868.2556,549.5 868.4275,549.5 Q868.7556,549.5 868.99,549.7656 Q869.24,550.0156 869.24,550.375 Q869.24,550.7188 868.8962,551.125 Q868.3962,551.7188 867.5994,552.0469 Q866.5525,552.5 865.2712,552.5 Q863.7712,552.5 862.5681,551.9063 Q861.5994,551.4375 860.9119,550.4219 Q860.24,549.4063 860.24,548.2031 L860.24,547.1094 Q860.24,545.8594 860.8337,544.7656 Q861.4431,543.6719 862.49,543.0938 Q863.5525,542.5 864.74,542.5 Q865.4587,542.5 866.0837,542.75 Q866.7087,543 867.24,543.5 Z " fill="#000000"/><text fill="#000000" font-family="sans-serif" font-size="14" lengthAdjust="spacing" textLength="46" x="879.24" y="552.7285">Course</text><line style="stroke:#181818;stroke-width:0.5;" x1="851.24" x2="927.24" y1="563" y2="563"/><line style="stroke:#181818;stroke-width:0.5;" x1="851.24" x2="927.24" y1="571" y2="571"/></g><!--MD5=[4ec975f1641a34b3290014bf4027a644]
class Exam--><g id="elem_Exam"><rect codeLine="55" fill="#F1F1F1" height="65.6094" id="Exam" rx="2.5" ry="2.5" style="stroke:#181818;stroke-width:0.5;" width="138" x="530.24" y="522"/><ellipse cx="577.99" cy="538" fill="#ADD1B2" rx="11" ry="11" style="stroke:#181818;stroke-width:1.0;"/><path d="M579.99,534.5 Q580.1931,534 580.4275,533.75 Q580.6619,533.5 580.9275,533.5 Q581.3962,533.5 581.6931,533.7813 Q581.99,534.0625 581.99,534.7188 L581.99,536.2813 Q581.99,536.9375 581.7087,537.2188 Q581.4275,537.5 580.99,537.5 Q580.5994,537.5 580.3494,537.3281 Q580.0994,537.1563 579.99,536.7031 Q579.9431,536.3906 579.7712,536.2188 Q579.4587,535.8906 578.8962,535.7031 Q578.3337,535.5 577.7712,535.5 Q577.0681,535.5 576.4744,535.7813 Q575.8962,536.0625 575.4431,536.6875 Q574.99,537.3125 574.99,538.1719 L574.99,539.0938 Q574.99,540.125 575.8337,540.8125 Q576.6775,541.5 578.1775,541.5 Q579.0681,541.5 579.6931,541.2969 Q580.0525,541.1875 580.4587,540.8281 Q580.7244,540.625 580.865,540.5625 Q581.0056,540.5 581.1775,540.5 Q581.5056,540.5 581.74,540.7656 Q581.99,541.0156 581.99,541.375 Q581.99,541.7188 581.6462,542.125 Q581.1462,542.7188 580.3494,543.0469 Q579.3025,543.5 578.0212,543.5 Q576.5212,543.5 575.3181,542.9063 Q574.3494,542.4375 573.6619,541.4219 Q572.99,540.4063 572.99,539.2031 L572.99,538.1094 Q572.99,536.8594 573.5837,535.7656 Q574.1931,534.6719 575.24,534.0938 Q576.3025,533.5 577.49,533.5 Q578.2087,533.5 578.8337,533.75 Q579.4587,534 579.99,534.5 Z " fill="#000000"/><text fill="#000000" font-family="sans-serif" font-size="14" lengthAdjust="spacing" textLength="34" x="598.49" y="543.7285">Exam</text><line style="stroke:#181818;stroke-width:0.5;" x1="531.24" x2="667.24" y1="554" y2="554"/><line style="stroke:#181818;stroke-width:0.5;" x1="531.24" x2="667.24" y1="562" y2="562"/><ellipse cx="541.24" cy="576.3047" fill="#84BE84" rx="3" ry="3" style="stroke:#038048;stroke-width:1.0;"/><text fill="#000000" font-family="sans-serif" font-size="14" lengthAdjust="spacing" textLength="112" x="550.24" y="580.5332">gradeByStudent()</text></g><!--MD5=[a9125d0510b9ab5929f0efc4c4be4273]
class ExamGrade--><g id="elem_ExamGrade"><rect fill="#F1F1F1" height="48" id="ExamGrade" rx="2.5" ry="2.5" style="stroke:#181818;stroke-width:0.5;" width="106" x="465.24" y="684"/><ellipse cx="480.24" cy="700" fill="#ADD1B2" rx="11" ry="11" style="stroke:#181818;stroke-width:1.0;"/><path d="M482.24,696.5 Q482.4431,696 482.6775,695.75 Q482.9119,695.5 483.1775,695.5 Q483.6463,695.5 483.9431,695.7813 Q484.24,696.0625 484.24,696.7188 L484.24,698.2813 Q484.24,698.9375 483.9588,699.2188 Q483.6775,699.5 483.24,699.5 Q482.8494,699.5 482.5994,699.3281 Q482.3494,699.1563 482.24,698.7031 Q482.1931,698.3906 482.0213,698.2188 Q481.7088,697.8906 481.1463,697.7031 Q480.5838,697.5 480.0213,697.5 Q479.3181,697.5 478.7244,697.7813 Q478.1463,698.0625 477.6931,698.6875 Q477.24,699.3125 477.24,700.1719 L477.24,701.0938 Q477.24,702.125 478.0838,702.8125 Q478.9275,703.5 480.4275,703.5 Q481.3181,703.5 481.9431,703.2969 Q482.3025,703.1875 482.7088,702.8281 Q482.9744,702.625 483.115,702.5625 Q483.2556,702.5 483.4275,702.5 Q483.7556,702.5 483.99,702.7656 Q484.24,703.0156 484.24,703.375 Q484.24,703.7188 483.8963,704.125 Q483.3963,704.7188 482.5994,705.0469 Q481.5525,705.5 480.2713,705.5 Q478.7713,705.5 477.5681,704.9063 Q476.5994,704.4375 475.9119,703.4219 Q475.24,702.4063 475.24,701.2031 L475.24,700.1094 Q475.24,698.8594 475.8338,697.7656 Q476.4431,696.6719 477.49,696.0938 Q478.5525,695.5 479.74,695.5 Q480.4588,695.5 481.0838,695.75 Q481.7088,696 482.24,696.5 Z " fill="#000000"/><text fill="#000000" font-family="sans-serif" font-size="14" lengthAdjust="spacing" textLength="74" x="494.24" y="705.7285">ExamGrade</text><line style="stroke:#181818;stroke-width:0.5;" x1="466.24" x2="570.24" y1="716" y2="716"/><line style="stroke:#181818;stroke-width:0.5;" x1="466.24" x2="570.24" y1="724" y2="724"/></g><!--MD5=[8bc65f3b90290c21b1c14af63c410e92]
link Student to eCourseSystemUser--><g id="link_Student_eCourseSystemUser"><path codeLine="60" d="M645.96,44 C666.54,44 692.27,44 716.64,44 " fill="none" id="Student-eCourseSystemUser" style="stroke:#181818;stroke-width:1.0;"/><polygon fill="#000000" points="673.24,32.1758,664.1949,29.2369,664.1949,35.1147,673.24,32.1758" style="stroke:#000000;stroke-width:1.0;"/><text fill="#000000" font-family="sans-serif" font-size="13" lengthAdjust="spacing" textLength="21" x="677.24" y="37.4951">is a</text><text fill="#000000" font-family="sans-serif" font-size="13" lengthAdjust="spacing" textLength="5" x="653.6586" y="40.1195">*</text><text fill="#000000" font-family="sans-serif" font-size="13" lengthAdjust="spacing" textLength="7" x="701.6242" y="40.768">1</text></g><!--MD5=[1be8a598043b665d1af3ed8263571253]
link eCourseSystemUser to ListGradesStudentsUI--><g id="link_eCourseSystemUser_ListGradesStudentsUI"><path codeLine="62" d="M797.24,77.12 C797.24,102.11 797.24,136.21 797.24,158.65 " fill="none" id="eCourseSystemUser-ListGradesStudentsUI" style="stroke:#181818;stroke-width:1.0;stroke-dasharray:7.0,7.0;"/><text fill="#000000" font-family="sans-serif" font-size="13" lengthAdjust="spacing" textLength="50" x="798.24" y="125.4951">interacts</text></g><!--MD5=[1308ec894d7aa0366efc6d4993884ad5]
link ListGradesStudentsUI to ListGradesStudentsController--><g id="link_ListGradesStudentsUI_ListGradesStudentsController"><path codeLine="63" d="M779.04,207.2 C765.45,224.52 746.71,248.41 731.64,267.62 " fill="none" id="ListGradesStudentsUI-ListGradesStudentsController" style="stroke:#181818;stroke-width:1.0;"/></g><!--MD5=[58d27871c199f5a787b77870d6536a6c]
link ListGradesStudentsController to AuthorizationService--><g id="link_ListGradesStudentsController_AuthorizationService"><path codeLine="64" d="M657.57,334.19 C629.35,352.85 593.94,376.27 565.75,394.92 " fill="none" id="ListGradesStudentsController-AuthorizationService" style="stroke:#181818;stroke-width:1.0;"/></g><!--MD5=[542acb1bf4952cdf49507abe35acfc22]
link ListGradesStudentsController to ListGradesStudentService--><g id="link_ListGradesStudentsController_ListGradesStudentService"><path codeLine="65" d="M604.54,334.01 C572.75,343.97 537.55,354.98 505.24,365 C471.6,375.43 434.79,386.76 401.91,396.84 " fill="none" id="ListGradesStudentsController-ListGradesStudentService" style="stroke:#181818;stroke-width:1.0;"/></g><!--MD5=[51777fa5f2d524d4088e82040ea93a10]
link AuthorizationService to UserSession--><g id="link_AuthorizationService_UserSession"><path codeLine="66" d="M579.25,461.03 C617.62,480.85 666.47,506.08 703.59,525.26 " fill="none" id="AuthorizationService-UserSession" style="stroke:#181818;stroke-width:1.0;"/></g><!--MD5=[e3f8e7ab2bcfdc2e73ba6fc51fbf5411]
link UserSession to eCourseSystemUserRepository--><g id="link_UserSession_eCourseSystemUserRepository"><path codeLine="67" d="M796.35,588.02 C825.95,613.56 867.22,649.17 896.88,674.76 " fill="none" id="UserSession-eCourseSystemUserRepository" style="stroke:#181818;stroke-width:1.0;"/></g><!--MD5=[e08a2d4854c6147b5a703b42cd790614]
link eCourseSystemUserRepository to eCourseSystemUser--><g id="link_eCourseSystemUserRepository_eCourseSystemUser"><path codeLine="68" d="M959.83,674.92 C980.52,645.69 1006.24,600.44 1006.24,556 C1006.24,182 1006.24,182 1006.24,182 C1006.24,117.9 936.62,82.15 877.75,63.39 " fill="none" id="eCourseSystemUserRepository-eCourseSystemUser" style="stroke:#181818;stroke-width:1.0;"/></g><!--MD5=[bf1d6590099f65e557f09ed336cb0f62]
link eCourseSystemUser to Course--><g id="link_eCourseSystemUser_Course"><path codeLine="69" d="M860.18,77.08 C896.58,100.55 935.24,136.26 935.24,182 C935.24,182 935.24,182 935.24,429 C935.24,466.46 916.82,506.57 903.29,530.97 " fill="none" id="eCourseSystemUser-Course" style="stroke:#181818;stroke-width:1.0;"/><text fill="#000000" font-family="sans-serif" font-size="13" lengthAdjust="spacing" textLength="7" x="864.1393" y="98.2177">1</text><text fill="#000000" font-family="sans-serif" font-size="13" lengthAdjust="spacing" textLength="5" x="901.2497" y="520.3025">*</text></g><!--MD5=[6c334283eaa75cb15815757d5894484b]
link ListGradesStudentsController to Course--><g id="link_ListGradesStudentsController_Course"><path codeLine="70" d="M761.85,334.17 C785.26,350 811.2,370.88 829.24,395 C860.87,437.29 877.6,498.18 884.8,530.98 " fill="none" id="ListGradesStudentsController-Course" style="stroke:#181818;stroke-width:1.0;stroke-dasharray:7.0,7.0;"/></g><!--MD5=[1ab2e833efca4fb4564a4b0171d20e83]
link ListGradesStudentsController to eCourseSystemUser--><g id="link_ListGradesStudentsController_eCourseSystemUser"><path codeLine="71" d="M696.04,267.79 C688.51,238.46 681.7,194.44 695.24,159 C707.56,126.75 733.67,97.86 756.39,77.23 " fill="none" id="ListGradesStudentsController-eCourseSystemUser" style="stroke:#181818;stroke-width:1.0;stroke-dasharray:7.0,7.0;"/></g><!--MD5=[d4f1e586e731ab3203fd22cba4290ac4]
link ListGradesStudentsController to ExamRepository--><g id="link_ListGradesStudentsController_ExamRepository"><path codeLine="72" d="M710.36,334.19 C712.75,352.85 715.75,376.27 718.13,394.92 " fill="none" id="ListGradesStudentsController-ExamRepository" style="stroke:#181818;stroke-width:1.0;"/></g><!--MD5=[ed5af04648cbee6adaa2466550883acf]
link ExamRepository to Course--><g id="link_ExamRepository_Course"><path codeLine="73" d="M765.25,461.19 C794.43,483.04 832.33,511.4 858.5,530.99 " fill="none" id="ExamRepository-Course" style="stroke:#181818;stroke-width:1.0;stroke-dasharray:7.0,7.0;"/></g><!--MD5=[39084b6c3c8400edf543878e1754c2ff]
link ExamRepository to Exam--><g id="link_ExamRepository_Exam"><path codeLine="74" d="M690.56,461.19 C672.2,479.85 649.15,503.27 630.81,521.92 " fill="none" id="ExamRepository-Exam" style="stroke:#181818;stroke-width:1.0;"/><text fill="#000000" font-family="sans-serif" font-size="13" lengthAdjust="spacing" textLength="7" x="677.2936" y="482.0882">1</text><text fill="#000000" font-family="sans-serif" font-size="13" lengthAdjust="spacing" textLength="5" x="631.8057" y="511.0189">*</text></g><!--MD5=[8b04dd42421ea96a674a45b9eeacf44e]
link Exam to ExamGrade--><g id="link_Exam_ExamGrade"><path codeLine="75" d="M582.06,588.02 C566.64,616.77 544.39,658.26 530.64,683.88 " fill="none" id="Exam-ExamGrade" style="stroke:#181818;stroke-width:1.0;"/><text fill="#000000" font-family="sans-serif" font-size="13" lengthAdjust="spacing" textLength="7" x="571.2471" y="609.1466">1</text><text fill="#000000" font-family="sans-serif" font-size="13" lengthAdjust="spacing" textLength="7" x="525.9206" y="673.1894">1</text></g><!--MD5=[900edcb35d7f0f4ec78d944212cba16f]
link ListGradesStudentService to Exam--><g id="link_ListGradesStudentService_Exam"><path codeLine="76" d="M401.75,456.75 C442.42,468.78 484.42,482.12 503.24,491 C521.27,499.5 539.86,510.98 555.83,521.8 " fill="none" id="ListGradesStudentService-Exam" style="stroke:#181818;stroke-width:1.0;stroke-dasharray:7.0,7.0;"/></g><!--MD5=[b07c0ec13f8203be42fb8449b3a7db81]
link ListGradesStudentService to eCourseSystemUser--><g id="link_ListGradesStudentService_eCourseSystemUser"><path codeLine="77" d="M342.24,394.77 C412.94,336.66 567.42,211.06 702.24,111 C717.4,99.75 734.23,87.86 749.47,77.32 " fill="none" id="ListGradesStudentService-eCourseSystemUser" style="stroke:#181818;stroke-width:1.0;stroke-dasharray:7.0,7.0;"/></g><!--MD5=[d9b8098503c21d3d85b9dbe6e404f1b1]
link ListGradesStudentService to ExamGrade--><g id="link_ListGradesStudentService_ExamGrade"><path codeLine="78" d="M366.7,461.04 C392.54,476.6 421.01,497.3 441.24,522 C482.12,571.93 504.19,646.64 513.24,684 " fill="none" id="ListGradesStudentService-ExamGrade" style="stroke:#181818;stroke-width:1.0;stroke-dasharray:7.0,7.0;"/></g><!--MD5=[b8e27b13728c2d75d9aae9677244c72b]
link ListGradesStudentService to ExamGradeMapper--><g id="link_ListGradesStudentService_ExamGradeMapper"><path codeLine="79" d="M314.57,461.19 C321.14,479.85 329.38,503.27 335.95,521.92 " fill="none" id="ListGradesStudentService-ExamGradeMapper" style="stroke:#181818;stroke-width:1.0;"/></g><!--MD5=[a20e14de96b390c92635632f78609772]
link ExamGradeMapper to ExamGradeDTO--><g id="link_ExamGradeMapper_ExamGradeDTO"><path codeLine="80" d="M327.73,588.02 C313.8,610.88 294.97,641.8 279.98,666.39 " fill="none" id="ExamGradeMapper-ExamGradeDTO" style="stroke:#181818;stroke-width:1.0;"/><text fill="#000000" font-family="sans-serif" font-size="13" lengthAdjust="spacing" textLength="7" x="316.4875" y="609.1466">1</text><text fill="#000000" font-family="sans-serif" font-size="13" lengthAdjust="spacing" textLength="5" x="278.6635" y="655.6795">*</text></g><!--MD5=[47660e436299cd67cfb0e6d687feea86]
link ListGradesStudentService to ExamGradeDTO--><g id="link_ListGradesStudentService_ExamGradeDTO"><path codeLine="81" d="M280.26,461.3 C269.46,478.46 257.77,500.42 252.24,522 C239.84,570.39 243.61,628.25 248.48,666.22 " fill="none" id="ListGradesStudentService-ExamGradeDTO" style="stroke:#181818;stroke-width:1.0;stroke-dasharray:7.0,7.0;"/></g><!--MD5=[039edc44c986f80e17fc2af3d2649e4b]
link ListGradesStudentService to ExamMapper--><g id="link_ListGradesStudentService_ExamMapper"><path codeLine="82" d="M241.6,461.13 C224.98,470.33 207.19,480.67 191.24,491 C176.7,500.41 161.39,511.51 147.87,521.76 " fill="none" id="ListGradesStudentService-ExamMapper" style="stroke:#181818;stroke-width:1.0;stroke-dasharray:7.0,7.0;"/></g><!--MD5=[8a5684ba29e787ecead4e9728fe97fa9]
link ExamMapper to ExamDTO--><g id="link_ExamMapper_ExamDTO"><path codeLine="83" d="M98.97,588.02 C94.41,605.68 88.6,628.16 83.27,648.81 " fill="none" id="ExamMapper-ExamDTO" style="stroke:#181818;stroke-width:1.0;"/><text fill="#000000" font-family="sans-serif" font-size="13" lengthAdjust="spacing" textLength="7" x="89.7999" y="609.1466">1</text><text fill="#000000" font-family="sans-serif" font-size="13" lengthAdjust="spacing" textLength="5" x="79.7971" y="638.1111">*</text></g><!--MD5=[3bd9cfcc8ddf31448b6ce8b134bd93e6]
link ListGradesStudentService to ExamDTO--><g id="link_ListGradesStudentService_ExamDTO"><path codeLine="84" d="M204.66,435.12 C144.22,444.56 71.19,467.45 32.24,522 C6,558.75 18.51,609.64 35.62,648.74 " fill="none" id="ListGradesStudentService-ExamDTO" style="stroke:#181818;stroke-width:1.0;stroke-dasharray:7.0,7.0;"/></g><!--MD5=[5107df8f8659cdce4e667975f8454903]
@startuml

class Student <<root>> <<entity>> {
}


class ListGradesStudentsUI  {
}

class ListGradesStudentsController{
    +listGradesStudents()
}
class ListGradesStudentService{
    +listGradesStudents()
}

class AuthorizationService{
    +session()
}

class UserSession{
    +email()
}

class eCourseSystemUserRepository{
    +searchUser(email)
}

class eCourseSystemUser{
    +coursesLearning()
}

class ExamRepository{
    +findAllOfCourse(course)
}
class ExamMapper{
    +toDTO(exam)
}
class ExamDTO{
    +code
    +name
    +description
    +courseCode
}
class ExamGradeMapper{
    +toDTO(examGrade)
}
class ExamGradeDTO{
    +student
    +grade
}

class Course{
}

class Exam{
    +gradeByStudent()
}


eCourseSystemUser "1" -left- "*" Student : is a <

eCourseSystemUser .. ListGradesStudentsUI : interacts
ListGradesStudentsUI - - ListGradesStudentsController
ListGradesStudentsController - - AuthorizationService
ListGradesStudentsController - - ListGradesStudentService
AuthorizationService - - UserSession
UserSession - - eCourseSystemUserRepository
eCourseSystemUserRepository - - eCourseSystemUser
eCourseSystemUser "1"- - "*"Course
ListGradesStudentsController .. Course
ListGradesStudentsController .. eCourseSystemUser
ListGradesStudentsController - - ExamRepository
ExamRepository .. Course
ExamRepository "1"- - "*" Exam
Exam "1"- -"1"  ExamGrade
ListGradesStudentService .. Exam
ListGradesStudentService .. eCourseSystemUser
ListGradesStudentService .. ExamGrade
ListGradesStudentService - - ExamGradeMapper
ExamGradeMapper "1"- - "*" ExamGradeDTO
ListGradesStudentService .. ExamGradeDTO
ListGradesStudentService .. ExamMapper
ExamMapper "1"- - "*" ExamDTO
ListGradesStudentService .. ExamDTO
@enduml

PlantUML version 1.2022.12(Sun Oct 23 19:12:26 BST 2022)
(GPL source distribution)
Java Runtime: OpenJDK Runtime Environment
JVM: OpenJDK 64-Bit Server VM
Default Encoding: Cp1252
Language: pt
Country: PT
--></g></svg>