<?xml version="1.0" encoding="UTF-8" standalone="no"?><svg xmlns="http://www.w3.org/2000/svg" xmlns:xlink="http://www.w3.org/1999/xlink" contentStyleType="text/css" height="1452px" preserveAspectRatio="none" style="width:809px;height:1452px;background:#FFFFFF;" version="1.1" viewBox="0 0 809 1452" width="809px" zoomAndPan="magnify"><defs/><g><!--MD5=[a24c54bdd3aee88d5f4bc9207185f02e]
cluster ECOURSESYSTEMUSER--><g id="cluster_ECOURSESYSTEMUSER"><path d="M82.2483,545 L247.2483,545 A3.75,3.75 0 0 1 249.7483,547.5 L256.7483,568.6094 L800.2483,568.6094 A2.5,2.5 0 0 1 802.7483,571.1094 L802.7483,1375.5 A2.5,2.5 0 0 1 800.2483,1378 L82.2483,1378 A2.5,2.5 0 0 1 79.7483,1375.5 L79.7483,547.5 A2.5,2.5 0 0 1 82.2483,545 " fill="none" style="stroke:#000000;stroke-width:1.5;"/><line style="stroke:#000000;stroke-width:1.5;" x1="79.7483" x2="256.7483" y1="568.6094" y2="568.6094"/><text fill="#000000" font-family="sans-serif" font-size="14" font-weight="bold" lengthAdjust="spacing" textLength="164" x="83.7483" y="561.5332">ECOURSESYSTEMUSER</text><text fill="#000000" font-family="sans-serif" font-size="14" font-style="italic" lengthAdjust="spacing" textLength="82" x="404.2483" y="585.1426">«Aggregate»</text></g><!--MD5=[460954dfbe7236c2aa57156a2b4cb7db]
cluster COURSE--><g id="cluster_COURSE"><path d="M100.7483,6 L160.7483,6 A3.75,3.75 0 0 1 163.2483,8.5 L170.2483,29.6094 L581.7483,29.6094 A2.5,2.5 0 0 1 584.2483,32.1094 L584.2483,262.5 A2.5,2.5 0 0 1 581.7483,265 L100.7483,265 A2.5,2.5 0 0 1 98.2483,262.5 L98.2483,8.5 A2.5,2.5 0 0 1 100.7483,6 " fill="none" style="stroke:#000000;stroke-width:1.5;"/><line style="stroke:#000000;stroke-width:1.5;" x1="98.2483" x2="170.2483" y1="29.6094" y2="29.6094"/><text fill="#000000" font-family="sans-serif" font-size="14" font-weight="bold" lengthAdjust="spacing" textLength="59" x="102.2483" y="22.5332">COURSE</text><text fill="#000000" font-family="sans-serif" font-size="14" font-style="italic" lengthAdjust="spacing" textLength="81" x="304.7483" y="46.1426">«aggregate»</text></g><!--MD5=[1c4dd89a5f907a7298495cf5356641eb]
cluster EXAM--><g id="cluster_EXAM"><path d="M102.7483,289 L143.7483,289 A3.75,3.75 0 0 1 146.2483,291.5 L153.2483,312.6094 L577.2483,312.6094 A2.5,2.5 0 0 1 579.7483,315.1094 L579.7483,518.5 A2.5,2.5 0 0 1 577.2483,521 L102.7483,521 A2.5,2.5 0 0 1 100.2483,518.5 L100.2483,291.5 A2.5,2.5 0 0 1 102.7483,289 " fill="none" style="stroke:#000000;stroke-width:1.5;"/><line style="stroke:#000000;stroke-width:1.5;" x1="100.2483" x2="153.2483" y1="312.6094" y2="312.6094"/><text fill="#000000" font-family="sans-serif" font-size="14" font-weight="bold" lengthAdjust="spacing" textLength="40" x="104.2483" y="305.5332">EXAM</text><text fill="#000000" font-family="sans-serif" font-size="14" font-style="italic" lengthAdjust="spacing" textLength="81" x="303.4983" y="329.1426">«aggregate»</text></g><!--MD5=[bc064d979c32666ae52f3d7624591b7b]
class SystemUser--><g id="elem_SystemUser"><rect codeLine="7" fill="#F1F1F1" height="109.0156" id="SystemUser" rx="2.5" ry="2.5" style="stroke:#181818;stroke-width:0.5;" width="107" x="455.7483" y="1215.5"/><ellipse cx="470.7483" cy="1244.3984" fill="#ADD1B2" rx="11" ry="11" style="stroke:#181818;stroke-width:1.0;"/><path d="M472.7483,1240.8984 Q472.9515,1240.3984 473.1858,1240.1484 Q473.4202,1239.8984 473.6858,1239.8984 Q474.1546,1239.8984 474.4515,1240.1797 Q474.7483,1240.4609 474.7483,1241.1172 L474.7483,1242.6797 Q474.7483,1243.3359 474.4671,1243.6172 Q474.1858,1243.8984 473.7483,1243.8984 Q473.3577,1243.8984 473.1077,1243.7266 Q472.8577,1243.5547 472.7483,1243.1016 Q472.7015,1242.7891 472.5296,1242.6172 Q472.2171,1242.2891 471.6546,1242.1016 Q471.0921,1241.8984 470.5296,1241.8984 Q469.8265,1241.8984 469.2327,1242.1797 Q468.6546,1242.4609 468.2015,1243.0859 Q467.7483,1243.7109 467.7483,1244.5703 L467.7483,1245.4922 Q467.7483,1246.5234 468.5921,1247.2109 Q469.4358,1247.8984 470.9358,1247.8984 Q471.8265,1247.8984 472.4515,1247.6953 Q472.8108,1247.5859 473.2171,1247.2266 Q473.4827,1247.0234 473.6233,1246.9609 Q473.764,1246.8984 473.9358,1246.8984 Q474.264,1246.8984 474.4983,1247.1641 Q474.7483,1247.4141 474.7483,1247.7734 Q474.7483,1248.1172 474.4046,1248.5234 Q473.9046,1249.1172 473.1077,1249.4453 Q472.0608,1249.8984 470.7796,1249.8984 Q469.2796,1249.8984 468.0765,1249.3047 Q467.1077,1248.8359 466.4202,1247.8203 Q465.7483,1246.8047 465.7483,1245.6016 L465.7483,1244.5078 Q465.7483,1243.2578 466.3421,1242.1641 Q466.9515,1241.0703 467.9983,1240.4922 Q469.0608,1239.8984 470.2483,1239.8984 Q470.9671,1239.8984 471.5921,1240.1484 Q472.2171,1240.3984 472.7483,1240.8984 Z " fill="#000000"/><text fill="#000000" font-family="sans-serif" font-size="12" font-style="italic" lengthAdjust="spacing" textLength="35" x="504.7483" y="1232.957">«root»</text><text fill="#000000" font-family="sans-serif" font-size="12" font-style="italic" lengthAdjust="spacing" textLength="44" x="500.2483" y="1248.0508">«Entity»</text><text fill="#000000" font-family="sans-serif" font-size="14" lengthAdjust="spacing" textLength="75" x="484.7483" y="1265.2207">SystemUser</text><line style="stroke:#181818;stroke-width:0.5;" x1="456.7483" x2="561.7483" y1="1273.2969" y2="1273.2969"/><ellipse cx="466.7483" cy="1287.6016" fill="#000000" rx="3" ry="3" style="stroke:#000000;stroke-width:1.0;"/><text fill="#000000" font-family="sans-serif" font-size="14" lengthAdjust="spacing" textLength="36" x="475.7483" y="1291.8301">Name</text><ellipse cx="466.7483" cy="1305.2109" fill="#000000" rx="3" ry="3" style="stroke:#000000;stroke-width:1.0;"/><text fill="#000000" font-family="sans-serif" font-size="14" lengthAdjust="spacing" textLength="64" x="475.7483" y="1309.4395">Username</text><line style="stroke:#181818;stroke-width:0.5;" x1="456.7483" x2="561.7483" y1="1316.5156" y2="1316.5156"/></g><!--MD5=[20e583d4e0df3a755fa236795f6d14ab]
class eCourseSystemUser--><g id="elem_eCourseSystemUser"><rect codeLine="12" fill="#F1F1F1" height="73.7969" id="eCourseSystemUser" rx="2.5" ry="2.5" style="stroke:#181818;stroke-width:0.5;" width="161" x="95.7483" y="796"/><ellipse cx="110.7483" cy="824.8984" fill="#ADD1B2" rx="11" ry="11" style="stroke:#181818;stroke-width:1.0;"/><path d="M112.7483,821.3984 Q112.9515,820.8984 113.1858,820.6484 Q113.4202,820.3984 113.6858,820.3984 Q114.1546,820.3984 114.4515,820.6797 Q114.7483,820.9609 114.7483,821.6172 L114.7483,823.1797 Q114.7483,823.8359 114.4671,824.1172 Q114.1858,824.3984 113.7483,824.3984 Q113.3577,824.3984 113.1077,824.2266 Q112.8577,824.0547 112.7483,823.6016 Q112.7015,823.2891 112.5296,823.1172 Q112.2171,822.7891 111.6546,822.6016 Q111.0921,822.3984 110.5296,822.3984 Q109.8265,822.3984 109.2327,822.6797 Q108.6546,822.9609 108.2015,823.5859 Q107.7483,824.2109 107.7483,825.0703 L107.7483,825.9922 Q107.7483,827.0234 108.5921,827.7109 Q109.4358,828.3984 110.9358,828.3984 Q111.8265,828.3984 112.4515,828.1953 Q112.8108,828.0859 113.2171,827.7266 Q113.4827,827.5234 113.6233,827.4609 Q113.764,827.3984 113.9358,827.3984 Q114.264,827.3984 114.4983,827.6641 Q114.7483,827.9141 114.7483,828.2734 Q114.7483,828.6172 114.4046,829.0234 Q113.9046,829.6172 113.1077,829.9453 Q112.0608,830.3984 110.7796,830.3984 Q109.2796,830.3984 108.0765,829.8047 Q107.1077,829.3359 106.4202,828.3203 Q105.7483,827.3047 105.7483,826.1016 L105.7483,825.0078 Q105.7483,823.7578 106.3421,822.6641 Q106.9515,821.5703 107.9983,820.9922 Q109.0608,820.3984 110.2483,820.3984 Q110.9671,820.3984 111.5921,820.6484 Q112.2171,820.8984 112.7483,821.3984 Z " fill="#000000"/><text fill="#000000" font-family="sans-serif" font-size="12" font-style="italic" lengthAdjust="spacing" textLength="35" x="171.7483" y="813.457">«root»</text><text fill="#000000" font-family="sans-serif" font-size="12" font-style="italic" lengthAdjust="spacing" textLength="44" x="167.2483" y="828.5508">«Entity»</text><text fill="#000000" font-family="sans-serif" font-size="14" lengthAdjust="spacing" textLength="129" x="124.7483" y="845.7207">eCourseSystemUser</text><line style="stroke:#181818;stroke-width:0.5;" x1="96.7483" x2="255.7483" y1="853.7969" y2="853.7969"/><line style="stroke:#181818;stroke-width:0.5;" x1="96.7483" x2="255.7483" y1="861.7969" y2="861.7969"/></g><!--MD5=[e4d65baa86ae757e763babcb916fe418]
class EmailAdderss--><g id="elem_EmailAdderss"><rect codeLine="16" fill="#F1F1F1" height="58.7031" id="EmailAdderss" rx="2.5" ry="2.5" style="stroke:#181818;stroke-width:0.5;" width="118" x="668.7483" y="1097.5"/><ellipse cx="683.7483" cy="1118.8516" fill="#ADD1B2" rx="11" ry="11" style="stroke:#181818;stroke-width:1.0;"/><path d="M685.7483,1115.3516 Q685.9515,1114.8516 686.1858,1114.6016 Q686.4202,1114.3516 686.6858,1114.3516 Q687.1546,1114.3516 687.4515,1114.6328 Q687.7483,1114.9141 687.7483,1115.5703 L687.7483,1117.1328 Q687.7483,1117.7891 687.4671,1118.0703 Q687.1858,1118.3516 686.7483,1118.3516 Q686.3577,1118.3516 686.1077,1118.1797 Q685.8577,1118.0078 685.7483,1117.5547 Q685.7015,1117.2422 685.5296,1117.0703 Q685.2171,1116.7422 684.6546,1116.5547 Q684.0921,1116.3516 683.5296,1116.3516 Q682.8265,1116.3516 682.2327,1116.6328 Q681.6546,1116.9141 681.2015,1117.5391 Q680.7483,1118.1641 680.7483,1119.0234 L680.7483,1119.9453 Q680.7483,1120.9766 681.5921,1121.6641 Q682.4358,1122.3516 683.9358,1122.3516 Q684.8265,1122.3516 685.4515,1122.1484 Q685.8108,1122.0391 686.2171,1121.6797 Q686.4827,1121.4766 686.6233,1121.4141 Q686.764,1121.3516 686.9358,1121.3516 Q687.264,1121.3516 687.4983,1121.6172 Q687.7483,1121.8672 687.7483,1122.2266 Q687.7483,1122.5703 687.4046,1122.9766 Q686.9046,1123.5703 686.1077,1123.8984 Q685.0608,1124.3516 683.7796,1124.3516 Q682.2796,1124.3516 681.0765,1123.7578 Q680.1077,1123.2891 679.4202,1122.2734 Q678.7483,1121.2578 678.7483,1120.0547 L678.7483,1118.9609 Q678.7483,1117.7109 679.3421,1116.6172 Q679.9515,1115.5234 680.9983,1114.9453 Q682.0608,1114.3516 683.2483,1114.3516 Q683.9671,1114.3516 684.5921,1114.6016 Q685.2171,1114.8516 685.7483,1115.3516 Z " fill="#000000"/><text fill="#000000" font-family="sans-serif" font-size="12" font-style="italic" lengthAdjust="spacing" textLength="83" x="699.2483" y="1114.957">«Value object»</text><text fill="#000000" font-family="sans-serif" font-size="14" lengthAdjust="spacing" textLength="86" x="697.7483" y="1132.127">EmailAdderss</text><line style="stroke:#181818;stroke-width:0.5;" x1="669.7483" x2="785.7483" y1="1140.2031" y2="1140.2031"/><line style="stroke:#181818;stroke-width:0.5;" x1="669.7483" x2="785.7483" y1="1148.2031" y2="1148.2031"/></g><!--MD5=[a3638c1e5b65d287ecad7f06f5c0f212]
class Role--><g id="elem_Role"><rect codeLine="18" fill="#F1F1F1" height="76.3125" id="Role" rx="2.5" ry="2.5" style="stroke:#181818;stroke-width:0.5;" width="102" x="676.7483" y="1286"/><ellipse cx="705.2483" cy="1307.3516" fill="#ADD1B2" rx="11" ry="11" style="stroke:#181818;stroke-width:1.0;"/><path d="M707.2483,1303.8516 Q707.4515,1303.3516 707.6858,1303.1016 Q707.9202,1302.8516 708.1858,1302.8516 Q708.6546,1302.8516 708.9515,1303.1328 Q709.2483,1303.4141 709.2483,1304.0703 L709.2483,1305.6328 Q709.2483,1306.2891 708.9671,1306.5703 Q708.6858,1306.8516 708.2483,1306.8516 Q707.8577,1306.8516 707.6077,1306.6797 Q707.3577,1306.5078 707.2483,1306.0547 Q707.2015,1305.7422 707.0296,1305.5703 Q706.7171,1305.2422 706.1546,1305.0547 Q705.5921,1304.8516 705.0296,1304.8516 Q704.3265,1304.8516 703.7327,1305.1328 Q703.1546,1305.4141 702.7015,1306.0391 Q702.2483,1306.6641 702.2483,1307.5234 L702.2483,1308.4453 Q702.2483,1309.4766 703.0921,1310.1641 Q703.9358,1310.8516 705.4358,1310.8516 Q706.3265,1310.8516 706.9515,1310.6484 Q707.3108,1310.5391 707.7171,1310.1797 Q707.9827,1309.9766 708.1233,1309.9141 Q708.264,1309.8516 708.4358,1309.8516 Q708.764,1309.8516 708.9983,1310.1172 Q709.2483,1310.3672 709.2483,1310.7266 Q709.2483,1311.0703 708.9046,1311.4766 Q708.4046,1312.0703 707.6077,1312.3984 Q706.5608,1312.8516 705.2796,1312.8516 Q703.7796,1312.8516 702.5765,1312.2578 Q701.6077,1311.7891 700.9202,1310.7734 Q700.2483,1309.7578 700.2483,1308.5547 L700.2483,1307.4609 Q700.2483,1306.2109 700.8421,1305.1172 Q701.4515,1304.0234 702.4983,1303.4453 Q703.5608,1302.8516 704.7483,1302.8516 Q705.4671,1302.8516 706.0921,1303.1016 Q706.7171,1303.3516 707.2483,1303.8516 Z " fill="#000000"/><text fill="#000000" font-family="sans-serif" font-size="12" font-style="italic" lengthAdjust="spacing" textLength="44" x="720.2483" y="1303.457">«Entity»</text><text fill="#000000" font-family="sans-serif" font-size="14" lengthAdjust="spacing" textLength="29" x="727.7483" y="1320.627">Role</text><line style="stroke:#181818;stroke-width:0.5;" x1="677.7483" x2="777.7483" y1="1328.7031" y2="1328.7031"/><ellipse cx="687.7483" cy="1343.0078" fill="#000000" rx="3" ry="3" style="stroke:#000000;stroke-width:1.0;"/><text fill="#000000" font-family="sans-serif" font-size="14" lengthAdjust="spacing" textLength="76" x="696.7483" y="1347.2363">String name</text><line style="stroke:#181818;stroke-width:0.5;" x1="677.7483" x2="777.7483" y1="1354.3125" y2="1354.3125"/></g><!--MD5=[51fd3fce36c976f35b405d5800336138]
class UserStatus--><g id="elem_UserStatus"><rect codeLine="22" fill="#F1F1F1" height="93.9219" id="UserStatus" rx="2.5" ry="2.5" style="stroke:#181818;stroke-width:0.5;" width="101" x="458.7483" y="1086"/><ellipse cx="473.7483" cy="1107.3516" fill="#ADD1B2" rx="11" ry="11" style="stroke:#181818;stroke-width:1.0;"/><path d="M475.7483,1103.8516 Q475.9515,1103.3516 476.1858,1103.1016 Q476.4202,1102.8516 476.6858,1102.8516 Q477.1546,1102.8516 477.4515,1103.1328 Q477.7483,1103.4141 477.7483,1104.0703 L477.7483,1105.6328 Q477.7483,1106.2891 477.4671,1106.5703 Q477.1858,1106.8516 476.7483,1106.8516 Q476.3577,1106.8516 476.1077,1106.6797 Q475.8577,1106.5078 475.7483,1106.0547 Q475.7015,1105.7422 475.5296,1105.5703 Q475.2171,1105.2422 474.6546,1105.0547 Q474.0921,1104.8516 473.5296,1104.8516 Q472.8265,1104.8516 472.2327,1105.1328 Q471.6546,1105.4141 471.2015,1106.0391 Q470.7483,1106.6641 470.7483,1107.5234 L470.7483,1108.4453 Q470.7483,1109.4766 471.5921,1110.1641 Q472.4358,1110.8516 473.9358,1110.8516 Q474.8265,1110.8516 475.4515,1110.6484 Q475.8108,1110.5391 476.2171,1110.1797 Q476.4827,1109.9766 476.6233,1109.9141 Q476.764,1109.8516 476.9358,1109.8516 Q477.264,1109.8516 477.4983,1110.1172 Q477.7483,1110.3672 477.7483,1110.7266 Q477.7483,1111.0703 477.4046,1111.4766 Q476.9046,1112.0703 476.1077,1112.3984 Q475.0608,1112.8516 473.7796,1112.8516 Q472.2796,1112.8516 471.0765,1112.2578 Q470.1077,1111.7891 469.4202,1110.7734 Q468.7483,1109.7578 468.7483,1108.5547 L468.7483,1107.4609 Q468.7483,1106.2109 469.3421,1105.1172 Q469.9515,1104.0234 470.9983,1103.4453 Q472.0608,1102.8516 473.2483,1102.8516 Q473.9671,1102.8516 474.5921,1103.1016 Q475.2171,1103.3516 475.7483,1103.8516 Z " fill="#000000"/><text fill="#000000" font-family="sans-serif" font-size="12" font-style="italic" lengthAdjust="spacing" textLength="46" x="499.2483" y="1103.457">«enum»</text><text fill="#000000" font-family="sans-serif" font-size="14" lengthAdjust="spacing" textLength="69" x="487.7483" y="1120.627">UserStatus</text><line style="stroke:#181818;stroke-width:0.5;" x1="459.7483" x2="558.7483" y1="1128.7031" y2="1128.7031"/><ellipse cx="469.7483" cy="1143.0078" fill="none" rx="3" ry="3" style="stroke:#038048;stroke-width:1.0;"/><text fill="#000000" font-family="sans-serif" font-size="14" lengthAdjust="spacing" textLength="53" x="478.7483" y="1147.2363">ENABLE</text><ellipse cx="469.7483" cy="1160.6172" fill="none" rx="3" ry="3" style="stroke:#038048;stroke-width:1.0;"/><text fill="#000000" font-family="sans-serif" font-size="14" lengthAdjust="spacing" textLength="57" x="478.7483" y="1164.8457">DISABLE</text><line style="stroke:#181818;stroke-width:0.5;" x1="459.7483" x2="558.7483" y1="1171.9219" y2="1171.9219"/></g><!--MD5=[2f01b1126ff33a0669651ec2488a5ef9]
class Password--><g id="elem_Password"><rect codeLine="27" fill="#F1F1F1" height="58.7031" id="Password" rx="2.5" ry="2.5" style="stroke:#181818;stroke-width:0.5;" width="109" x="673.2483" y="1191.5"/><ellipse cx="688.2483" cy="1212.8516" fill="#ADD1B2" rx="11" ry="11" style="stroke:#181818;stroke-width:1.0;"/><path d="M690.2483,1209.3516 Q690.4515,1208.8516 690.6858,1208.6016 Q690.9202,1208.3516 691.1858,1208.3516 Q691.6546,1208.3516 691.9515,1208.6328 Q692.2483,1208.9141 692.2483,1209.5703 L692.2483,1211.1328 Q692.2483,1211.7891 691.9671,1212.0703 Q691.6858,1212.3516 691.2483,1212.3516 Q690.8577,1212.3516 690.6077,1212.1797 Q690.3577,1212.0078 690.2483,1211.5547 Q690.2015,1211.2422 690.0296,1211.0703 Q689.7171,1210.7422 689.1546,1210.5547 Q688.5921,1210.3516 688.0296,1210.3516 Q687.3265,1210.3516 686.7327,1210.6328 Q686.1546,1210.9141 685.7015,1211.5391 Q685.2483,1212.1641 685.2483,1213.0234 L685.2483,1213.9453 Q685.2483,1214.9766 686.0921,1215.6641 Q686.9358,1216.3516 688.4358,1216.3516 Q689.3265,1216.3516 689.9515,1216.1484 Q690.3108,1216.0391 690.7171,1215.6797 Q690.9827,1215.4766 691.1233,1215.4141 Q691.264,1215.3516 691.4358,1215.3516 Q691.764,1215.3516 691.9983,1215.6172 Q692.2483,1215.8672 692.2483,1216.2266 Q692.2483,1216.5703 691.9046,1216.9766 Q691.4046,1217.5703 690.6077,1217.8984 Q689.5608,1218.3516 688.2796,1218.3516 Q686.7796,1218.3516 685.5765,1217.7578 Q684.6077,1217.2891 683.9202,1216.2734 Q683.2483,1215.2578 683.2483,1214.0547 L683.2483,1212.9609 Q683.2483,1211.7109 683.8421,1210.6172 Q684.4515,1209.5234 685.4983,1208.9453 Q686.5608,1208.3516 687.7483,1208.3516 Q688.4671,1208.3516 689.0921,1208.6016 Q689.7171,1208.8516 690.2483,1209.3516 Z " fill="#000000"/><text fill="#000000" font-family="sans-serif" font-size="12" font-style="italic" lengthAdjust="spacing" textLength="81" x="700.2483" y="1208.957">«value object»</text><text fill="#000000" font-family="sans-serif" font-size="14" lengthAdjust="spacing" textLength="61" x="710.2483" y="1226.127">Password</text><line style="stroke:#181818;stroke-width:0.5;" x1="674.2483" x2="781.2483" y1="1234.2031" y2="1234.2031"/><line style="stroke:#181818;stroke-width:0.5;" x1="674.2483" x2="781.2483" y1="1242.2031" y2="1242.2031"/></g><!--MD5=[739264bb8c13fd453fd6fc4eef2b32cc]
class Acronym--><g id="elem_Acronym"><rect codeLine="29" fill="#F1F1F1" height="58.7031" id="Acronym" rx="2.5" ry="2.5" style="stroke:#181818;stroke-width:0.5;" width="109" x="454.7483" y="991.5"/><ellipse cx="469.7483" cy="1012.8516" fill="#ADD1B2" rx="11" ry="11" style="stroke:#181818;stroke-width:1.0;"/><path d="M471.7483,1009.3516 Q471.9515,1008.8516 472.1858,1008.6016 Q472.4202,1008.3516 472.6858,1008.3516 Q473.1546,1008.3516 473.4515,1008.6328 Q473.7483,1008.9141 473.7483,1009.5703 L473.7483,1011.1328 Q473.7483,1011.7891 473.4671,1012.0703 Q473.1858,1012.3516 472.7483,1012.3516 Q472.3577,1012.3516 472.1077,1012.1797 Q471.8577,1012.0078 471.7483,1011.5547 Q471.7015,1011.2422 471.5296,1011.0703 Q471.2171,1010.7422 470.6546,1010.5547 Q470.0921,1010.3516 469.5296,1010.3516 Q468.8265,1010.3516 468.2327,1010.6328 Q467.6546,1010.9141 467.2015,1011.5391 Q466.7483,1012.1641 466.7483,1013.0234 L466.7483,1013.9453 Q466.7483,1014.9766 467.5921,1015.6641 Q468.4358,1016.3516 469.9358,1016.3516 Q470.8265,1016.3516 471.4515,1016.1484 Q471.8108,1016.0391 472.2171,1015.6797 Q472.4827,1015.4766 472.6233,1015.4141 Q472.764,1015.3516 472.9358,1015.3516 Q473.264,1015.3516 473.4983,1015.6172 Q473.7483,1015.8672 473.7483,1016.2266 Q473.7483,1016.5703 473.4046,1016.9766 Q472.9046,1017.5703 472.1077,1017.8984 Q471.0608,1018.3516 469.7796,1018.3516 Q468.2796,1018.3516 467.0765,1017.7578 Q466.1077,1017.2891 465.4202,1016.2734 Q464.7483,1015.2578 464.7483,1014.0547 L464.7483,1012.9609 Q464.7483,1011.7109 465.3421,1010.6172 Q465.9515,1009.5234 466.9983,1008.9453 Q468.0608,1008.3516 469.2483,1008.3516 Q469.9671,1008.3516 470.5921,1008.6016 Q471.2171,1008.8516 471.7483,1009.3516 Z " fill="#000000"/><text fill="#000000" font-family="sans-serif" font-size="12" font-style="italic" lengthAdjust="spacing" textLength="81" x="481.7483" y="1008.957">«value object»</text><text fill="#000000" font-family="sans-serif" font-size="14" lengthAdjust="spacing" textLength="55" x="494.7483" y="1026.127">Acronym</text><line style="stroke:#181818;stroke-width:0.5;" x1="455.7483" x2="562.7483" y1="1034.2031" y2="1034.2031"/><line style="stroke:#181818;stroke-width:0.5;" x1="455.7483" x2="562.7483" y1="1042.2031" y2="1042.2031"/></g><!--MD5=[339871d7601d113ba04802e4e0a41179]
class NIF--><g id="elem_NIF"><rect codeLine="31" fill="#F1F1F1" height="58.7031" id="NIF" rx="2.5" ry="2.5" style="stroke:#181818;stroke-width:0.5;" width="109" x="454.7483" y="897.5"/><ellipse cx="469.7483" cy="918.8516" fill="#ADD1B2" rx="11" ry="11" style="stroke:#181818;stroke-width:1.0;"/><path d="M471.7483,915.3516 Q471.9515,914.8516 472.1858,914.6016 Q472.4202,914.3516 472.6858,914.3516 Q473.1546,914.3516 473.4515,914.6328 Q473.7483,914.9141 473.7483,915.5703 L473.7483,917.1328 Q473.7483,917.7891 473.4671,918.0703 Q473.1858,918.3516 472.7483,918.3516 Q472.3577,918.3516 472.1077,918.1797 Q471.8577,918.0078 471.7483,917.5547 Q471.7015,917.2422 471.5296,917.0703 Q471.2171,916.7422 470.6546,916.5547 Q470.0921,916.3516 469.5296,916.3516 Q468.8265,916.3516 468.2327,916.6328 Q467.6546,916.9141 467.2015,917.5391 Q466.7483,918.1641 466.7483,919.0234 L466.7483,919.9453 Q466.7483,920.9766 467.5921,921.6641 Q468.4358,922.3516 469.9358,922.3516 Q470.8265,922.3516 471.4515,922.1484 Q471.8108,922.0391 472.2171,921.6797 Q472.4827,921.4766 472.6233,921.4141 Q472.764,921.3516 472.9358,921.3516 Q473.264,921.3516 473.4983,921.6172 Q473.7483,921.8672 473.7483,922.2266 Q473.7483,922.5703 473.4046,922.9766 Q472.9046,923.5703 472.1077,923.8984 Q471.0608,924.3516 469.7796,924.3516 Q468.2796,924.3516 467.0765,923.7578 Q466.1077,923.2891 465.4202,922.2734 Q464.7483,921.2578 464.7483,920.0547 L464.7483,918.9609 Q464.7483,917.7109 465.3421,916.6172 Q465.9515,915.5234 466.9983,914.9453 Q468.0608,914.3516 469.2483,914.3516 Q469.9671,914.3516 470.5921,914.6016 Q471.2171,914.8516 471.7483,915.3516 Z " fill="#000000"/><text fill="#000000" font-family="sans-serif" font-size="12" font-style="italic" lengthAdjust="spacing" textLength="81" x="481.7483" y="914.957">«value object»</text><text fill="#000000" font-family="sans-serif" font-size="14" lengthAdjust="spacing" textLength="21" x="511.7483" y="932.127">NIF</text><line style="stroke:#181818;stroke-width:0.5;" x1="455.7483" x2="562.7483" y1="940.2031" y2="940.2031"/><line style="stroke:#181818;stroke-width:0.5;" x1="455.7483" x2="562.7483" y1="948.2031" y2="948.2031"/></g><!--MD5=[ec957f90f125634d426aef890efece94]
class BirthDate--><g id="elem_BirthDate"><rect codeLine="33" fill="#F1F1F1" height="58.7031" id="BirthDate" rx="2.5" ry="2.5" style="stroke:#181818;stroke-width:0.5;" width="109" x="454.7483" y="803.5"/><ellipse cx="469.7483" cy="824.8516" fill="#ADD1B2" rx="11" ry="11" style="stroke:#181818;stroke-width:1.0;"/><path d="M471.7483,821.3516 Q471.9515,820.8516 472.1858,820.6016 Q472.4202,820.3516 472.6858,820.3516 Q473.1546,820.3516 473.4515,820.6328 Q473.7483,820.9141 473.7483,821.5703 L473.7483,823.1328 Q473.7483,823.7891 473.4671,824.0703 Q473.1858,824.3516 472.7483,824.3516 Q472.3577,824.3516 472.1077,824.1797 Q471.8577,824.0078 471.7483,823.5547 Q471.7015,823.2422 471.5296,823.0703 Q471.2171,822.7422 470.6546,822.5547 Q470.0921,822.3516 469.5296,822.3516 Q468.8265,822.3516 468.2327,822.6328 Q467.6546,822.9141 467.2015,823.5391 Q466.7483,824.1641 466.7483,825.0234 L466.7483,825.9453 Q466.7483,826.9766 467.5921,827.6641 Q468.4358,828.3516 469.9358,828.3516 Q470.8265,828.3516 471.4515,828.1484 Q471.8108,828.0391 472.2171,827.6797 Q472.4827,827.4766 472.6233,827.4141 Q472.764,827.3516 472.9358,827.3516 Q473.264,827.3516 473.4983,827.6172 Q473.7483,827.8672 473.7483,828.2266 Q473.7483,828.5703 473.4046,828.9766 Q472.9046,829.5703 472.1077,829.8984 Q471.0608,830.3516 469.7796,830.3516 Q468.2796,830.3516 467.0765,829.7578 Q466.1077,829.2891 465.4202,828.2734 Q464.7483,827.2578 464.7483,826.0547 L464.7483,824.9609 Q464.7483,823.7109 465.3421,822.6172 Q465.9515,821.5234 466.9983,820.9453 Q468.0608,820.3516 469.2483,820.3516 Q469.9671,820.3516 470.5921,820.6016 Q471.2171,820.8516 471.7483,821.3516 Z " fill="#000000"/><text fill="#000000" font-family="sans-serif" font-size="12" font-style="italic" lengthAdjust="spacing" textLength="81" x="481.7483" y="820.957">«value object»</text><text fill="#000000" font-family="sans-serif" font-size="14" lengthAdjust="spacing" textLength="59" x="492.7483" y="838.127">BirthDate</text><line style="stroke:#181818;stroke-width:0.5;" x1="455.7483" x2="562.7483" y1="846.2031" y2="846.2031"/><line style="stroke:#181818;stroke-width:0.5;" x1="455.7483" x2="562.7483" y1="854.2031" y2="854.2031"/></g><!--MD5=[9de4f19eab90a199848c5893311179be]
class MechanographicNumber--><g id="elem_MechanographicNumber"><rect codeLine="35" fill="#F1F1F1" height="73.7969" id="MechanographicNumber" rx="2.5" ry="2.5" style="stroke:#181818;stroke-width:0.5;" width="186" x="416.2483" y="694"/><ellipse cx="431.2483" cy="722.8984" fill="#ADD1B2" rx="11" ry="11" style="stroke:#181818;stroke-width:1.0;"/><path d="M433.2483,719.3984 Q433.4515,718.8984 433.6858,718.6484 Q433.9202,718.3984 434.1858,718.3984 Q434.6546,718.3984 434.9515,718.6797 Q435.2483,718.9609 435.2483,719.6172 L435.2483,721.1797 Q435.2483,721.8359 434.9671,722.1172 Q434.6858,722.3984 434.2483,722.3984 Q433.8577,722.3984 433.6077,722.2266 Q433.3577,722.0547 433.2483,721.6016 Q433.2015,721.2891 433.0296,721.1172 Q432.7171,720.7891 432.1546,720.6016 Q431.5921,720.3984 431.0296,720.3984 Q430.3265,720.3984 429.7327,720.6797 Q429.1546,720.9609 428.7015,721.5859 Q428.2483,722.2109 428.2483,723.0703 L428.2483,723.9922 Q428.2483,725.0234 429.0921,725.7109 Q429.9358,726.3984 431.4358,726.3984 Q432.3265,726.3984 432.9515,726.1953 Q433.3108,726.0859 433.7171,725.7266 Q433.9827,725.5234 434.1233,725.4609 Q434.264,725.3984 434.4358,725.3984 Q434.764,725.3984 434.9983,725.6641 Q435.2483,725.9141 435.2483,726.2734 Q435.2483,726.6172 434.9046,727.0234 Q434.4046,727.6172 433.6077,727.9453 Q432.5608,728.3984 431.2796,728.3984 Q429.7796,728.3984 428.5765,727.8047 Q427.6077,727.3359 426.9202,726.3203 Q426.2483,725.3047 426.2483,724.1016 L426.2483,723.0078 Q426.2483,721.7578 426.8421,720.6641 Q427.4515,719.5703 428.4983,718.9922 Q429.5608,718.3984 430.7483,718.3984 Q431.4671,718.3984 432.0921,718.6484 Q432.7171,718.8984 433.2483,719.3984 Z " fill="#000000"/><text fill="#000000" font-family="sans-serif" font-size="12" font-style="italic" lengthAdjust="spacing" textLength="81" x="481.7483" y="711.457">«value object»</text><text fill="#000000" font-family="sans-serif" font-size="12" font-style="italic" lengthAdjust="spacing" textLength="146" x="449.2483" y="726.5508">«automatically generated»</text><text fill="#000000" font-family="sans-serif" font-size="14" lengthAdjust="spacing" textLength="154" x="445.2483" y="743.7207">MechanographicNumber</text><line style="stroke:#181818;stroke-width:0.5;" x1="417.2483" x2="601.2483" y1="751.7969" y2="751.7969"/><line style="stroke:#181818;stroke-width:0.5;" x1="417.2483" x2="601.2483" y1="759.7969" y2="759.7969"/></g><!--MD5=[64e7a81d370390ac66d73872e4f36773]
class Grade--><g id="elem_Grade"><rect codeLine="37" fill="#F1F1F1" height="58.7031" id="Grade" rx="2.5" ry="2.5" style="stroke:#181818;stroke-width:0.5;" width="109" x="454.7483" y="599.5"/><ellipse cx="469.7483" cy="620.8516" fill="#ADD1B2" rx="11" ry="11" style="stroke:#181818;stroke-width:1.0;"/><path d="M471.7483,617.3516 Q471.9515,616.8516 472.1858,616.6016 Q472.4202,616.3516 472.6858,616.3516 Q473.1546,616.3516 473.4515,616.6328 Q473.7483,616.9141 473.7483,617.5703 L473.7483,619.1328 Q473.7483,619.7891 473.4671,620.0703 Q473.1858,620.3516 472.7483,620.3516 Q472.3577,620.3516 472.1077,620.1797 Q471.8577,620.0078 471.7483,619.5547 Q471.7015,619.2422 471.5296,619.0703 Q471.2171,618.7422 470.6546,618.5547 Q470.0921,618.3516 469.5296,618.3516 Q468.8265,618.3516 468.2327,618.6328 Q467.6546,618.9141 467.2015,619.5391 Q466.7483,620.1641 466.7483,621.0234 L466.7483,621.9453 Q466.7483,622.9766 467.5921,623.6641 Q468.4358,624.3516 469.9358,624.3516 Q470.8265,624.3516 471.4515,624.1484 Q471.8108,624.0391 472.2171,623.6797 Q472.4827,623.4766 472.6233,623.4141 Q472.764,623.3516 472.9358,623.3516 Q473.264,623.3516 473.4983,623.6172 Q473.7483,623.8672 473.7483,624.2266 Q473.7483,624.5703 473.4046,624.9766 Q472.9046,625.5703 472.1077,625.8984 Q471.0608,626.3516 469.7796,626.3516 Q468.2796,626.3516 467.0765,625.7578 Q466.1077,625.2891 465.4202,624.2734 Q464.7483,623.2578 464.7483,622.0547 L464.7483,620.9609 Q464.7483,619.7109 465.3421,618.6172 Q465.9515,617.5234 466.9983,616.9453 Q468.0608,616.3516 469.2483,616.3516 Q469.9671,616.3516 470.5921,616.6016 Q471.2171,616.8516 471.7483,617.3516 Z " fill="#000000"/><text fill="#000000" font-family="sans-serif" font-size="12" font-style="italic" lengthAdjust="spacing" textLength="81" x="481.7483" y="616.957">«value object»</text><text fill="#000000" font-family="sans-serif" font-size="14" lengthAdjust="spacing" textLength="40" x="502.2483" y="634.127">Grade</text><line style="stroke:#181818;stroke-width:0.5;" x1="455.7483" x2="562.7483" y1="642.2031" y2="642.2031"/><line style="stroke:#181818;stroke-width:0.5;" x1="455.7483" x2="562.7483" y1="650.2031" y2="650.2031"/></g><!--MD5=[4066b0363c5a91ff3b6e03e0428953a9]
class Course--><g id="elem_Course"><rect codeLine="42" fill="#F1F1F1" height="91.4063" id="Course" rx="2.5" ry="2.5" style="stroke:#181818;stroke-width:0.5;" width="124" x="114.2483" y="157.5"/><ellipse cx="149.9483" cy="186.3984" fill="#ADD1B2" rx="11" ry="11" style="stroke:#181818;stroke-width:1.0;"/><path d="M151.9483,182.8984 Q152.1515,182.3984 152.3858,182.1484 Q152.6202,181.8984 152.8858,181.8984 Q153.3546,181.8984 153.6515,182.1797 Q153.9483,182.4609 153.9483,183.1172 L153.9483,184.6797 Q153.9483,185.3359 153.6671,185.6172 Q153.3858,185.8984 152.9483,185.8984 Q152.5577,185.8984 152.3077,185.7266 Q152.0577,185.5547 151.9483,185.1016 Q151.9015,184.7891 151.7296,184.6172 Q151.4171,184.2891 150.8546,184.1016 Q150.2921,183.8984 149.7296,183.8984 Q149.0265,183.8984 148.4327,184.1797 Q147.8546,184.4609 147.4015,185.0859 Q146.9483,185.7109 146.9483,186.5703 L146.9483,187.4922 Q146.9483,188.5234 147.7921,189.2109 Q148.6358,189.8984 150.1358,189.8984 Q151.0265,189.8984 151.6515,189.6953 Q152.0108,189.5859 152.4171,189.2266 Q152.6827,189.0234 152.8233,188.9609 Q152.964,188.8984 153.1358,188.8984 Q153.464,188.8984 153.6983,189.1641 Q153.9483,189.4141 153.9483,189.7734 Q153.9483,190.1172 153.6046,190.5234 Q153.1046,191.1172 152.3077,191.4453 Q151.2608,191.8984 149.9796,191.8984 Q148.4796,191.8984 147.2765,191.3047 Q146.3077,190.8359 145.6202,189.8203 Q144.9483,188.8047 144.9483,187.6016 L144.9483,186.5078 Q144.9483,185.2578 145.5421,184.1641 Q146.1515,183.0703 147.1983,182.4922 Q148.2608,181.8984 149.4483,181.8984 Q150.1671,181.8984 150.7921,182.1484 Q151.4171,182.3984 151.9483,182.8984 Z " fill="#000000"/><text fill="#000000" font-family="sans-serif" font-size="12" font-style="italic" lengthAdjust="spacing" textLength="35" x="174.0483" y="174.957">«root»</text><text fill="#000000" font-family="sans-serif" font-size="12" font-style="italic" lengthAdjust="spacing" textLength="43" x="170.0483" y="190.0508">«entity»</text><text fill="#000000" font-family="sans-serif" font-size="14" lengthAdjust="spacing" textLength="46" x="168.5483" y="207.2207">Course</text><line style="stroke:#181818;stroke-width:0.5;" x1="115.2483" x2="237.2483" y1="215.2969" y2="215.2969"/><ellipse cx="125.2483" cy="229.6016" fill="#000000" rx="3" ry="3" style="stroke:#000000;stroke-width:1.0;"/><text fill="#000000" font-family="sans-serif" font-size="14" lengthAdjust="spacing" textLength="98" x="134.2483" y="233.8301">name «unique»</text><line style="stroke:#181818;stroke-width:0.5;" x1="115.2483" x2="237.2483" y1="240.9063" y2="240.9063"/></g><!--MD5=[05368af1d845ac885e523c7ea58ea16e]
class CourseStatus--><g id="elem_CourseStatus"><rect codeLine="47" fill="#F1F1F1" height="93.9219" id="CourseStatus" rx="2.5" ry="2.5" style="stroke:#181818;stroke-width:0.5;" width="118" x="450.2483" y="60"/><ellipse cx="465.2483" cy="81.3516" fill="#EB937F" rx="11" ry="11" style="stroke:#181818;stroke-width:1.0;"/><path d="M463.7483,82.3516 L463.7483,84.3516 L467.7483,84.3516 L467.7483,83.3516 L467.7483,82.8672 L468.3733,82.3516 L468.7483,82.3516 L469.1233,82.3516 L469.7483,82.8672 L469.7483,83.3516 L469.7483,86.3516 L461.7483,86.3516 L461.264,86.3516 L460.7483,85.7266 L460.7483,85.3516 L460.7483,84.9766 L461.264,84.3516 L461.7483,84.3516 L461.7483,84.3516 L461.7483,78.3516 L461.7483,78.3516 L461.264,78.3516 L460.7483,77.7266 L460.7483,77.3516 L460.7483,76.9766 L461.264,76.3516 L461.7483,76.3516 L469.7483,76.3516 L469.7483,79.3516 L469.7483,79.8359 L469.1233,80.3516 L468.7483,80.3516 L468.3733,80.3516 L467.7483,79.8359 L467.7483,79.3516 L467.7483,78.3516 L463.7483,78.3516 L463.7483,80.3516 L464.7483,80.3516 L464.7483,79.8672 L464.7483,79.8672 L465.3733,79.3516 L465.7483,79.3516 L466.1233,79.3516 L466.7483,79.8672 L466.7483,80.3516 L466.7483,82.3516 L466.7483,82.8359 L466.1233,83.3516 L466.1233,83.3516 L465.7483,83.3516 L465.3733,83.3516 L464.7483,82.8359 L464.7483,82.8359 L464.7483,82.3516 L463.7483,82.3516 Z " fill="#000000"/><text fill="#000000" font-family="sans-serif" font-size="12" font-style="italic" lengthAdjust="spacing" textLength="46" x="499.2483" y="77.457">«enum»</text><text fill="#000000" font-family="sans-serif" font-size="14" lengthAdjust="spacing" textLength="86" x="479.2483" y="94.627">CourseStatus</text><line style="stroke:#181818;stroke-width:0.5;" x1="451.2483" x2="567.2483" y1="102.7031" y2="102.7031"/><ellipse cx="461.2483" cy="117.0078" fill="none" rx="3" ry="3" style="stroke:#038048;stroke-width:1.0;"/><text fill="#000000" font-family="sans-serif" font-size="14" lengthAdjust="spacing" textLength="38" x="470.2483" y="121.2363">OPEN</text><ellipse cx="461.2483" cy="134.6172" fill="none" rx="3" ry="3" style="stroke:#038048;stroke-width:1.0;"/><text fill="#000000" font-family="sans-serif" font-size="14" lengthAdjust="spacing" textLength="57" x="470.2483" y="138.8457">CLOSED</text><line style="stroke:#181818;stroke-width:0.5;" x1="451.2483" x2="567.2483" y1="145.9219" y2="145.9219"/></g><!--MD5=[d48061ccbd276027f3231694ef585189]
class CourseCode--><g id="elem_CourseCode"><rect codeLine="52" fill="#F1F1F1" height="58.7031" id="CourseCode" rx="2.5" ry="2.5" style="stroke:#181818;stroke-width:0.5;" width="112" x="453.2483" y="189.5"/><ellipse cx="468.2483" cy="210.8516" fill="#ADD1B2" rx="11" ry="11" style="stroke:#181818;stroke-width:1.0;"/><path d="M470.2483,207.3516 Q470.4515,206.8516 470.6858,206.6016 Q470.9202,206.3516 471.1858,206.3516 Q471.6546,206.3516 471.9515,206.6328 Q472.2483,206.9141 472.2483,207.5703 L472.2483,209.1328 Q472.2483,209.7891 471.9671,210.0703 Q471.6858,210.3516 471.2483,210.3516 Q470.8577,210.3516 470.6077,210.1797 Q470.3577,210.0078 470.2483,209.5547 Q470.2015,209.2422 470.0296,209.0703 Q469.7171,208.7422 469.1546,208.5547 Q468.5921,208.3516 468.0296,208.3516 Q467.3265,208.3516 466.7327,208.6328 Q466.1546,208.9141 465.7015,209.5391 Q465.2483,210.1641 465.2483,211.0234 L465.2483,211.9453 Q465.2483,212.9766 466.0921,213.6641 Q466.9358,214.3516 468.4358,214.3516 Q469.3265,214.3516 469.9515,214.1484 Q470.3108,214.0391 470.7171,213.6797 Q470.9827,213.4766 471.1233,213.4141 Q471.264,213.3516 471.4358,213.3516 Q471.764,213.3516 471.9983,213.6172 Q472.2483,213.8672 472.2483,214.2266 Q472.2483,214.5703 471.9046,214.9766 Q471.4046,215.5703 470.6077,215.8984 Q469.5608,216.3516 468.2796,216.3516 Q466.7796,216.3516 465.5765,215.7578 Q464.6077,215.2891 463.9202,214.2734 Q463.2483,213.2578 463.2483,212.0547 L463.2483,210.9609 Q463.2483,209.7109 463.8421,208.6172 Q464.4515,207.5234 465.4983,206.9453 Q466.5608,206.3516 467.7483,206.3516 Q468.4671,206.3516 469.0921,206.6016 Q469.7171,206.8516 470.2483,207.3516 Z " fill="#000000"/><text fill="#000000" font-family="sans-serif" font-size="12" font-style="italic" lengthAdjust="spacing" textLength="81" x="481.7483" y="206.957">«value object»</text><text fill="#000000" font-family="sans-serif" font-size="14" lengthAdjust="spacing" textLength="80" x="482.2483" y="224.127">CourseCode</text><line style="stroke:#181818;stroke-width:0.5;" x1="454.2483" x2="564.2483" y1="232.2031" y2="232.2031"/><line style="stroke:#181818;stroke-width:0.5;" x1="454.2483" x2="564.2483" y1="240.2031" y2="240.2031"/></g><!--MD5=[4ec975f1641a34b3290014bf4027a644]
class Exam--><g id="elem_Exam"><rect codeLine="56" fill="#F1F1F1" height="161.8438" id="Exam" rx="2.5" ry="2.5" style="stroke:#181818;stroke-width:0.5;" width="120" x="116.2483" y="343"/><ellipse cx="152.8483" cy="371.8984" fill="#ADD1B2" rx="11" ry="11" style="stroke:#181818;stroke-width:1.0;"/><path d="M154.8483,368.3984 Q155.0515,367.8984 155.2858,367.6484 Q155.5202,367.3984 155.7858,367.3984 Q156.2546,367.3984 156.5515,367.6797 Q156.8483,367.9609 156.8483,368.6172 L156.8483,370.1797 Q156.8483,370.8359 156.5671,371.1172 Q156.2858,371.3984 155.8483,371.3984 Q155.4577,371.3984 155.2077,371.2266 Q154.9577,371.0547 154.8483,370.6016 Q154.8015,370.2891 154.6296,370.1172 Q154.3171,369.7891 153.7546,369.6016 Q153.1921,369.3984 152.6296,369.3984 Q151.9265,369.3984 151.3327,369.6797 Q150.7546,369.9609 150.3015,370.5859 Q149.8483,371.2109 149.8483,372.0703 L149.8483,372.9922 Q149.8483,374.0234 150.6921,374.7109 Q151.5358,375.3984 153.0358,375.3984 Q153.9265,375.3984 154.5515,375.1953 Q154.9108,375.0859 155.3171,374.7266 Q155.5827,374.5234 155.7233,374.4609 Q155.864,374.3984 156.0358,374.3984 Q156.364,374.3984 156.5983,374.6641 Q156.8483,374.9141 156.8483,375.2734 Q156.8483,375.6172 156.5046,376.0234 Q156.0046,376.6172 155.2077,376.9453 Q154.1608,377.3984 152.8796,377.3984 Q151.3796,377.3984 150.1765,376.8047 Q149.2077,376.3359 148.5202,375.3203 Q147.8483,374.3047 147.8483,373.1016 L147.8483,372.0078 Q147.8483,370.7578 148.4421,369.6641 Q149.0515,368.5703 150.0983,367.9922 Q151.1608,367.3984 152.3483,367.3984 Q153.0671,367.3984 153.6921,367.6484 Q154.3171,367.8984 154.8483,368.3984 Z " fill="#000000"/><text fill="#000000" font-family="sans-serif" font-size="12" font-style="italic" lengthAdjust="spacing" textLength="35" x="174.1483" y="360.457">«root»</text><text fill="#000000" font-family="sans-serif" font-size="12" font-style="italic" lengthAdjust="spacing" textLength="44" x="169.6483" y="375.5508">«event»</text><text fill="#000000" font-family="sans-serif" font-size="14" lengthAdjust="spacing" textLength="34" x="174.6483" y="392.7207">Exam</text><line style="stroke:#181818;stroke-width:0.5;" x1="117.2483" x2="235.2483" y1="400.7969" y2="400.7969"/><ellipse cx="127.2483" cy="415.1016" fill="#000000" rx="3" ry="3" style="stroke:#000000;stroke-width:1.0;"/><text fill="#000000" font-family="sans-serif" font-size="14" lengthAdjust="spacing" textLength="94" x="136.2483" y="419.3301">code «unique»</text><ellipse cx="127.2483" cy="432.7109" fill="#000000" rx="3" ry="3" style="stroke:#000000;stroke-width:1.0;"/><text fill="#000000" font-family="sans-serif" font-size="14" lengthAdjust="spacing" textLength="85" x="136.2483" y="436.9395">title «unique»</text><ellipse cx="127.2483" cy="450.3203" fill="#000000" rx="3" ry="3" style="stroke:#000000;stroke-width:1.0;"/><text fill="#000000" font-family="sans-serif" font-size="14" lengthAdjust="spacing" textLength="62" x="136.2483" y="454.5488">openDate</text><ellipse cx="127.2483" cy="467.9297" fill="#000000" rx="3" ry="3" style="stroke:#000000;stroke-width:1.0;"/><text fill="#000000" font-family="sans-serif" font-size="14" lengthAdjust="spacing" textLength="63" x="136.2483" y="472.1582">closeDate</text><ellipse cx="127.2483" cy="485.5391" fill="#000000" rx="3" ry="3" style="stroke:#000000;stroke-width:1.0;"/><text fill="#000000" font-family="sans-serif" font-size="14" lengthAdjust="spacing" textLength="80" x="136.2483" y="489.7676">CourseCode</text><line style="stroke:#181818;stroke-width:0.5;" x1="117.2483" x2="235.2483" y1="496.8438" y2="496.8438"/></g><!--MD5=[a9125d0510b9ab5929f0efc4c4be4273]
class ExamGrade--><g id="elem_ExamGrade"><rect codeLine="64" fill="#F1F1F1" height="58.7031" id="ExamGrade" rx="2.5" ry="2.5" style="stroke:#181818;stroke-width:0.5;" width="109" x="454.7483" y="431.5"/><ellipse cx="469.7483" cy="452.8516" fill="#ADD1B2" rx="11" ry="11" style="stroke:#181818;stroke-width:1.0;"/><path d="M471.7483,449.3516 Q471.9515,448.8516 472.1858,448.6016 Q472.4202,448.3516 472.6858,448.3516 Q473.1546,448.3516 473.4515,448.6328 Q473.7483,448.9141 473.7483,449.5703 L473.7483,451.1328 Q473.7483,451.7891 473.4671,452.0703 Q473.1858,452.3516 472.7483,452.3516 Q472.3577,452.3516 472.1077,452.1797 Q471.8577,452.0078 471.7483,451.5547 Q471.7015,451.2422 471.5296,451.0703 Q471.2171,450.7422 470.6546,450.5547 Q470.0921,450.3516 469.5296,450.3516 Q468.8265,450.3516 468.2327,450.6328 Q467.6546,450.9141 467.2015,451.5391 Q466.7483,452.1641 466.7483,453.0234 L466.7483,453.9453 Q466.7483,454.9766 467.5921,455.6641 Q468.4358,456.3516 469.9358,456.3516 Q470.8265,456.3516 471.4515,456.1484 Q471.8108,456.0391 472.2171,455.6797 Q472.4827,455.4766 472.6233,455.4141 Q472.764,455.3516 472.9358,455.3516 Q473.264,455.3516 473.4983,455.6172 Q473.7483,455.8672 473.7483,456.2266 Q473.7483,456.5703 473.4046,456.9766 Q472.9046,457.5703 472.1077,457.8984 Q471.0608,458.3516 469.7796,458.3516 Q468.2796,458.3516 467.0765,457.7578 Q466.1077,457.2891 465.4202,456.2734 Q464.7483,455.2578 464.7483,454.0547 L464.7483,452.9609 Q464.7483,451.7109 465.3421,450.6172 Q465.9515,449.5234 466.9983,448.9453 Q468.0608,448.3516 469.2483,448.3516 Q469.9671,448.3516 470.5921,448.6016 Q471.2171,448.8516 471.7483,449.3516 Z " fill="#000000"/><text fill="#000000" font-family="sans-serif" font-size="12" font-style="italic" lengthAdjust="spacing" textLength="81" x="481.7483" y="448.957">«value object»</text><text fill="#000000" font-family="sans-serif" font-size="14" lengthAdjust="spacing" textLength="74" x="485.2483" y="466.127">ExamGrade</text><line style="stroke:#181818;stroke-width:0.5;" x1="455.7483" x2="562.7483" y1="474.2031" y2="474.2031"/><line style="stroke:#181818;stroke-width:0.5;" x1="455.7483" x2="562.7483" y1="482.2031" y2="482.2031"/></g><!--MD5=[e1950b721890adcab185987402bb4ea9]
class ListGradesStudentService--><g id="elem_ListGradesStudentService"><rect codeLine="70" fill="#F1F1F1" height="48" id="ListGradesStudentService" rx="2.5" ry="2.5" style="stroke:#181818;stroke-width:0.5;" width="197" x="410.7483" y="1397"/><ellipse cx="425.7483" cy="1413" fill="#ADD1B2" rx="11" ry="11" style="stroke:#181818;stroke-width:1.0;"/><path d="M427.7483,1409.5 Q427.9515,1409 428.1858,1408.75 Q428.4202,1408.5 428.6858,1408.5 Q429.1546,1408.5 429.4515,1408.7813 Q429.7483,1409.0625 429.7483,1409.7188 L429.7483,1411.2813 Q429.7483,1411.9375 429.4671,1412.2188 Q429.1858,1412.5 428.7483,1412.5 Q428.3577,1412.5 428.1077,1412.3281 Q427.8577,1412.1563 427.7483,1411.7031 Q427.7015,1411.3906 427.5296,1411.2188 Q427.2171,1410.8906 426.6546,1410.7031 Q426.0921,1410.5 425.5296,1410.5 Q424.8265,1410.5 424.2327,1410.7813 Q423.6546,1411.0625 423.2015,1411.6875 Q422.7483,1412.3125 422.7483,1413.1719 L422.7483,1414.0938 Q422.7483,1415.125 423.5921,1415.8125 Q424.4358,1416.5 425.9358,1416.5 Q426.8265,1416.5 427.4515,1416.2969 Q427.8108,1416.1875 428.2171,1415.8281 Q428.4827,1415.625 428.6233,1415.5625 Q428.764,1415.5 428.9358,1415.5 Q429.264,1415.5 429.4983,1415.7656 Q429.7483,1416.0156 429.7483,1416.375 Q429.7483,1416.7188 429.4046,1417.125 Q428.9046,1417.7188 428.1077,1418.0469 Q427.0608,1418.5 425.7796,1418.5 Q424.2796,1418.5 423.0765,1417.9063 Q422.1077,1417.4375 421.4202,1416.4219 Q420.7483,1415.4063 420.7483,1414.2031 L420.7483,1413.1094 Q420.7483,1411.8594 421.3421,1410.7656 Q421.9515,1409.6719 422.9983,1409.0938 Q424.0608,1408.5 425.2483,1408.5 Q425.9671,1408.5 426.5921,1408.75 Q427.2171,1409 427.7483,1409.5 Z " fill="#000000"/><text fill="#000000" font-family="sans-serif" font-size="14" lengthAdjust="spacing" textLength="165" x="439.7483" y="1418.7285">ListGradesStudentService</text><line style="stroke:#181818;stroke-width:0.5;" x1="411.7483" x2="606.7483" y1="1429" y2="1429"/><line style="stroke:#181818;stroke-width:0.5;" x1="411.7483" x2="606.7483" y1="1437" y2="1437"/></g><!--MD5=[f231bdc2037d7e99c0f9f97c75c90b8c]
link SystemUser to EmailAdderss--><g id="link_SystemUser_EmailAdderss"><path codeLine="77" d="M562.9383,1235.2 C597.7883,1212.18 643.1983,1182.19 677.3583,1159.62 " fill="none" id="SystemUser-to-EmailAdderss" style="stroke:#181818;stroke-width:1.0;"/><polygon fill="#181818" points="681.8883,1156.63,672.1746,1158.2556,677.7171,1159.387,676.5858,1164.9296,681.8883,1156.63" style="stroke:#181818;stroke-width:1.0;"/><text fill="#000000" font-family="sans-serif" font-size="13" lengthAdjust="spacing" textLength="7" x="665.1706" y="1177.5974">1</text></g><!--MD5=[a00b48498abbf4d3aa5edbf04235e8b3]
link SystemUser to Password--><g id="link_SystemUser_Password"><path codeLine="78" d="M562.9383,1258.08 C594.6583,1250.9 635.1083,1241.74 667.8783,1234.32 " fill="none" id="SystemUser-to-Password" style="stroke:#181818;stroke-width:1.0;"/><polygon fill="#181818" points="673.0783,1233.15,663.4183,1231.2306,668.2011,1234.2513,665.1804,1239.0341,673.0783,1233.15" style="stroke:#181818;stroke-width:1.0;"/><text fill="#000000" font-family="sans-serif" font-size="13" lengthAdjust="spacing" textLength="7" x="658.2617" y="1249.3963">1</text></g><!--MD5=[d3e2c3652565ddd10ca44b31c1cde3f1]
link SystemUser to Role--><g id="link_SystemUser_Role"><path codeLine="79" d="M562.9383,1283.14 C595.8583,1291.35 638.1983,1301.91 671.5783,1310.24 " fill="none" id="SystemUser-to-Role" style="stroke:#181818;stroke-width:1.0;"/><polygon fill="#181818" points="676.4383,1311.45,668.6604,1305.4081,671.5843,1310.2508,666.7417,1313.1746,676.4383,1311.45" style="stroke:#181818;stroke-width:1.0;"/><text fill="#000000" font-family="sans-serif" font-size="13" lengthAdjust="spacing" textLength="7" x="661.7307" y="1324.308">1</text></g><!--MD5=[707c0fa37bcadaff401ff5c196aecfd2]
link eCourseSystemUser to SystemUser--><g id="link_eCourseSystemUser_SystemUser"><path codeLine="81" d="M192.1983,870.15 C211.1583,915.37 246.2983,993.22 286.7483,1054 C333.3583,1124.03 349.1683,1139.69 410.7483,1197 C423.2983,1208.69 437.6883,1220.29 451.4883,1230.7 " fill="none" id="eCourseSystemUser-to-SystemUser" style="stroke:#181818;stroke-width:1.0;"/><polygon fill="#181818" points="455.7483,1233.89,450.9336,1225.2982,451.7432,1230.8968,446.1446,1231.7064,455.7483,1233.89" style="stroke:#181818;stroke-width:1.0;"/><text fill="#000000" font-family="sans-serif" font-size="13" lengthAdjust="spacing" textLength="7" x="440.7327" y="1243.4558">1</text></g><!--MD5=[928caa8145e9fdbdf7ce8b7a9388c5cf]
link eCourseSystemUser to Role--><g id="link_eCourseSystemUser_Role"><path codeLine="82" d="M179.7083,870.02 C188.7583,971.23 229.8783,1251.02 410.7483,1342 C493.9983,1383.87 605.6183,1362.37 671.4883,1343.08 " fill="none" id="eCourseSystemUser-to-Role" style="stroke:#181818;stroke-width:1.0;"/><polygon fill="#181818" points="676.5483,1341.58,666.7802,1340.3214,671.7572,1343.0102,669.0685,1347.9872,676.5483,1341.58" style="stroke:#181818;stroke-width:1.0;"/><text fill="#000000" font-family="sans-serif" font-size="13" lengthAdjust="spacing" textLength="7" x="661.8562" y="1358.6751">1</text></g><!--MD5=[226ee7e7935b9c6b2225cd96a015d9fc]
link eCourseSystemUser to UserStatus--><g id="link_eCourseSystemUser_UserStatus"><path codeLine="83" d="M205.0483,870.13 C226.2283,897.49 256.7583,934.99 286.7483,965 C337.3883,1015.68 353.3083,1025.18 410.7483,1068 C424.5683,1078.3 439.9183,1088.91 454.2783,1098.48 " fill="none" id="eCourseSystemUser-to-UserStatus" style="stroke:#181818;stroke-width:1.0;"/><polygon fill="#181818" points="458.6983,1101.42,453.4287,1093.0995,454.5381,1098.6465,448.9911,1099.7559,458.6983,1101.42" style="stroke:#181818;stroke-width:1.0;"/><text fill="#000000" font-family="sans-serif" font-size="13" lengthAdjust="spacing" textLength="7" x="443.7597" y="1111.4834">1</text></g><!--MD5=[7fc0a473de4ea777906984eac7152d38]
link eCourseSystemUser to Acronym--><g id="link_eCourseSystemUser_Acronym"><path codeLine="84" d="M235.3783,870.19 C282.0883,899.57 349.7383,940.97 410.7483,974 C423.2583,980.77 436.8983,987.65 449.8983,993.98 " fill="none" id="eCourseSystemUser-to-Acronym" style="stroke:#181818;stroke-width:1.0;"/><polygon fill="#181818" points="454.6583,996.28,448.291,988.7662,450.1552,994.1071,444.8143,995.9712,454.6583,996.28" style="stroke:#181818;stroke-width:1.0;"/><text fill="#000000" font-family="sans-serif" font-size="13" lengthAdjust="spacing" textLength="7" x="439.8525" y="1007.5719">1</text></g><!--MD5=[410c4ff2c6c57b4ea47f0914b8fd4a56]
link eCourseSystemUser to NIF--><g id="link_eCourseSystemUser_NIF"><path codeLine="85" d="M256.9483,855.63 C316.2583,872.48 395.8683,895.09 449.4583,910.3 " fill="none" id="eCourseSystemUser-to-NIF" style="stroke:#181818;stroke-width:1.0;"/><polygon fill="#181818" points="454.5583,911.75,446.9812,905.4581,449.7459,910.3934,444.8107,913.158,454.5583,911.75" style="stroke:#181818;stroke-width:1.0;"/><text fill="#000000" font-family="sans-serif" font-size="13" lengthAdjust="spacing" textLength="7" x="439.7391" y="924.3145">1</text></g><!--MD5=[4acda15f84181a880db022c57ecbea25]
link eCourseSystemUser to BirthDate--><g id="link_eCourseSystemUser_BirthDate"><path codeLine="86" d="M256.9483,833 C316.2583,833 395.8683,833 449.4583,833 " fill="none" id="eCourseSystemUser-to-BirthDate" style="stroke:#181818;stroke-width:1.0;"/><polygon fill="#181818" points="454.5583,833,445.5583,829,449.5583,833,445.5583,837,454.5583,833" style="stroke:#181818;stroke-width:1.0;"/><text fill="#000000" font-family="sans-serif" font-size="13" lengthAdjust="spacing" textLength="7" x="439.7391" y="847.6137">1</text></g><!--MD5=[66f04da9ec02c7096c76345605e618df]
link eCourseSystemUser to MechanographicNumber--><g id="link_eCourseSystemUser_MechanographicNumber"><path codeLine="87" d="M256.9483,808.44 C303.2783,794.16 362.0083,776.07 411.0383,760.96 " fill="none" id="eCourseSystemUser-to-MechanographicNumber" style="stroke:#181818;stroke-width:1.0;"/><polygon fill="#181818" points="416.0483,759.41,406.2702,758.2316,411.2691,760.8794,408.6213,765.8783,416.0483,759.41" style="stroke:#181818;stroke-width:1.0;"/><text fill="#000000" font-family="sans-serif" font-size="13" lengthAdjust="spacing" textLength="7" x="401.3426" y="775.8286">1</text></g><!--MD5=[659d153684b242d47cde3f84b74271f5]
link eCourseSystemUser to Grade--><g id="link_eCourseSystemUser_Grade"><path codeLine="88" d="M248.6983,795.89 C298.1983,769.44 358.9683,735.28 380.7483,716 C397.3883,701.27 393.5883,690.12 410.7483,676 C422.4183,666.4 436.3783,658.2 450.0383,651.46 " fill="none" id="eCourseSystemUser-to-Grade" style="stroke:#181818;stroke-width:1.0;"/><polygon fill="#181818" points="454.6483,649.23,444.8043,649.5388,450.1452,651.4029,448.281,656.7438,454.6483,649.23" style="stroke:#181818;stroke-width:1.0;"/><polygon fill="#000000" points="295.8111,704.2614,286.7484,707.1455,290.1745,711.9216,295.8111,704.2614" style="stroke:#000000;stroke-width:1.0;"/><text fill="#000000" font-family="sans-serif" font-size="13" lengthAdjust="spacing" textLength="79" x="300.7483" y="712.4951">student has a</text><text fill="#000000" font-family="sans-serif" font-size="13" lengthAdjust="spacing" textLength="7" x="439.8412" y="666.5621">1</text></g><!--MD5=[5980fc2ae25bd033b005245951a46ced]
link eCourseSystemUser to ListGradesStudentService--><g id="link_eCourseSystemUser_ListGradesStudentService"><path codeLine="90" d="M179.1683,870.18 C185.7683,982.68 211.4283,1316.13 286.7483,1388 C317.9683,1417.79 363.7483,1427.95 405.5983,1429.9 " fill="none" id="eCourseSystemUser-to-ListGradesStudentService" style="stroke:#181818;stroke-width:1.0;"/><polygon fill="#181818" points="410.6883,1430.1,401.8554,1425.7435,405.6923,1429.9002,401.5357,1433.7371,410.6883,1430.1" style="stroke:#181818;stroke-width:1.0;"/><polygon fill="#000000" points="322.6234,1383.8109,321.9558,1374.3238,316.5069,1376.5281,322.6234,1383.8109" style="stroke:#000000;stroke-width:1.0;"/><text fill="#000000" font-family="sans-serif" font-size="13" lengthAdjust="spacing" textLength="21" x="329.7483" y="1384.4951">use</text></g><!--MD5=[5b555dd83ebb0d200ba2da1a08094143]
link eCourseSystemUser to Exam--><g id="link_eCourseSystemUser_Exam"><path codeLine="92" d="M176.2483,795.98 C176.2483,730.7 176.2483,593.67 176.2483,505.39 " fill="none" id="eCourseSystemUser-Exam" style="stroke:#181818;stroke-width:1.0;"/><polygon fill="#000000" points="143.7483,645.6758,140.8094,654.7209,146.6873,654.7209,143.7483,645.6758" style="stroke:#000000;stroke-width:1.0;"/><text fill="#000000" font-family="sans-serif" font-size="13" lengthAdjust="spacing" textLength="36" x="152.7483" y="655.9951">take a</text><text fill="#000000" font-family="sans-serif" font-size="13" lengthAdjust="spacing" textLength="5" x="170.7874" y="785.2257">*</text><text fill="#000000" font-family="sans-serif" font-size="13" lengthAdjust="spacing" textLength="5" x="171.0413" y="526.3088">*</text></g><!--MD5=[a7c83a57986618c5258375fb85626361]
link Course to CourseStatus--><g id="link_Course_CourseStatus"><path codeLine="95" d="M238.3483,185.28 C297.1183,168.23 385.5883,142.57 445.0583,125.33 " fill="none" id="Course-to-CourseStatus" style="stroke:#181818;stroke-width:1.0;"/><polygon fill="#181818" points="450.0083,123.89,440.2531,122.5355,445.2034,125.273,442.4659,130.2234,450.0083,123.89" style="stroke:#181818;stroke-width:1.0;"/><text fill="#000000" font-family="sans-serif" font-size="13" lengthAdjust="spacing" textLength="7" x="435.3619" y="140.4448">1</text></g><!--MD5=[5f51c4f556a3967dddec88ee110fd332]
link Course to CourseCode--><g id="link_Course_CourseCode"><path codeLine="96" d="M238.3483,205.95 C297.9983,208.84 388.2483,213.2 447.7083,216.07 " fill="none" id="Course-to-CourseCode" style="stroke:#181818;stroke-width:1.0;"/><polygon fill="#181818" points="453.0083,216.33,444.213,211.8981,448.0142,216.0874,443.8249,219.8887,453.0083,216.33" style="stroke:#181818;stroke-width:1.0;"/><text fill="#000000" font-family="sans-serif" font-size="13" lengthAdjust="spacing" textLength="7" x="438.3542" y="230.5496">1</text></g><!--MD5=[dbc0e21f6f7374a69879f48b186df618]
link Course to Grade--><g id="link_Course_Grade"><path codeLine="98" d="M213.3083,248.74 C229.1383,271.12 246.4283,299.19 256.7483,327 C289.8583,416.22 228.1983,463.98 286.7483,539 C327.3583,591.03 402.9683,613.15 454.4383,622.44 " fill="none" id="Course-Grade" style="stroke:#181818;stroke-width:1.0;"/><polygon fill="#000000" points="305.0374,525.9745,307.472,535.1681,312.411,531.9813,305.0374,525.9745" style="stroke:#000000;stroke-width:1.0;"/><text fill="#000000" font-family="sans-serif" font-size="13" lengthAdjust="spacing" textLength="47" x="316.7483" y="535.4951">refers to</text><text fill="#000000" font-family="sans-serif" font-size="13" lengthAdjust="spacing" textLength="7" x="211.4472" y="270.4599">1</text><text fill="#000000" font-family="sans-serif" font-size="13" lengthAdjust="spacing" textLength="7" x="439.6029" y="636.1722">1</text></g><!--MD5=[596573b7c910538f47a963b388c4f10f]
link Course to eCourseSystemUser--><g id="link_Course_eCourseSystemUser"><path codeLine="100" d="M127.6883,248.56 C107.2883,270.37 85.2183,298.03 71.7483,327 C22.3383,433.23 32.9383,499.39 39.7483,531 C61.5683,632.24 120.1883,740.42 153.0683,795.72 " fill="none" id="Course-eCourseSystemUser" style="stroke:#181818;stroke-width:1.0;"/><polygon fill="#000000" points="18.5167,517.1812,16,526.3527,21.8715,526.0803,18.5167,517.1812" style="stroke:#000000;stroke-width:1.0;"/><text fill="#000000" font-family="sans-serif" font-size="13" lengthAdjust="spacing" textLength="35" x="27.7483" y="527.4951">is in a</text><text fill="#000000" font-family="sans-serif" font-size="13" lengthAdjust="spacing" textLength="5" x="114.8698" y="270.2523">*</text><text fill="#000000" font-family="sans-serif" font-size="13" lengthAdjust="spacing" textLength="5" x="143.4941" y="785.199">*</text></g><!--MD5=[8b04dd42421ea96a674a45b9eeacf44e]
link Exam to ExamGrade--><g id="link_Exam_ExamGrade"><path codeLine="102" d="M236.4283,430.61 C298.3483,437.54 394.7083,448.31 454.5083,454.99 " fill="none" id="Exam-ExamGrade" style="stroke:#181818;stroke-width:1.0;"/><polygon fill="#000000" points="325.7174,429.7313,317.0548,425.8056,316.4018,431.6471,325.7174,429.7313" style="stroke:#000000;stroke-width:1.0;"/><text fill="#000000" font-family="sans-serif" font-size="13" lengthAdjust="spacing" textLength="21" x="329.7483" y="434.4951">has</text><text fill="#000000" font-family="sans-serif" font-size="13" lengthAdjust="spacing" textLength="7" x="244.1893" y="445.9167">1</text><text fill="#000000" font-family="sans-serif" font-size="13" lengthAdjust="spacing" textLength="7" x="439.6823" y="468.7961">1</text></g><!--MD5=[b6d5de5db98b70b8017fd1f88844f48f]
link Exam to CourseCode--><g id="link_Exam_CourseCode"><path codeLine="103" d="M236.4283,387.35 C300.4883,347.68 401.3983,285.17 460.5783,248.53 " fill="none" id="Exam-CourseCode" style="stroke:#181818;stroke-width:1.0;"/><polygon fill="#000000" points="324.9992,292.5432,315.762,294.807,318.8568,299.8042,324.9992,292.5432" style="stroke:#000000;stroke-width:1.0;"/><text fill="#000000" font-family="sans-serif" font-size="13" lengthAdjust="spacing" textLength="21" x="329.7483" y="300.4951">has</text><text fill="#000000" font-family="sans-serif" font-size="13" lengthAdjust="spacing" textLength="5" x="244.0675" y="397.3843">*</text><text fill="#000000" font-family="sans-serif" font-size="13" lengthAdjust="spacing" textLength="7" x="442.8183" y="269.8325">1</text></g><!--MD5=[f79920641d70a90e5687a5fb2050c66d]
link ExamGrade to eCourseSystemUser--><g id="link_ExamGrade_eCourseSystemUser"><path codeLine="104" d="M480.5483,490.9 C459.5483,514.61 430.9483,549.27 410.7483,583 C393.3583,612.04 404.6083,628.99 380.7483,653 C348.6183,685.33 322.8283,666.15 286.7483,694 C250.2683,722.16 218.9483,765.04 199.2583,795.72 " fill="none" id="ExamGrade-eCourseSystemUser" style="stroke:#181818;stroke-width:1.0;"/><polygon fill="#000000" points="317.3575,647.8503,325.6514,643.1961,321.3318,639.2099,317.3575,647.8503" style="stroke:#000000;stroke-width:1.0;"/><text fill="#000000" font-family="sans-serif" font-size="13" lengthAdjust="spacing" textLength="21" x="329.7483" y="649.4951">has</text><text fill="#000000" font-family="sans-serif" font-size="13" lengthAdjust="spacing" textLength="7" x="467.4102" y="511.6816">1</text><text fill="#000000" font-family="sans-serif" font-size="13" lengthAdjust="spacing" textLength="7" x="195.7336" y="785.199">1</text></g><!--MD5=[0049eca861b3ad82673b85193318e623]
@startuml
'https://plantuml.com/sequence-diagram

left to right direction

package "ECOURSESYSTEMUSER" <<Aggregate>> {

    class SystemUser <<root>> <<Entity>> {
        * Name
        * Username
    }

    class eCourseSystemUser <<root>> <<Entity>> {

    }

    class EmailAdderss <<Value object>>

    class Role <<Entity>> {
        * String name
    }

    class UserStatus <<enum>> {
        + ENABLE
        + DISABLE
    }

    class Password <<value object>>

    class Acronym <<value object>>

    class NIF <<value object>>

    class BirthDate <<value object>>

    class MechanographicNumber <<value object>> <<automatically generated>>

    class Grade <<value object>>

}

package "COURSE" <<aggregate>> {
    class Course <<root>> <<entity>> {
        * name <<unique>>

    }

    enum CourseStatus <<enum>> {
        + OPEN
        + CLOSED
    }

    class CourseCode <<value object>>
}

package "EXAM" <<aggregate>> {
    class Exam <<root>> <<event>> {
        * code <<unique>>
        * title <<unique>>
        * openDate
        * closeDate
        * CourseCode
    }

    class ExamGrade <<value object>>

}



class ListGradesStudentService {
}



'Relationships

SystemUser - -> "1" EmailAdderss
SystemUser - -> "1" Password
SystemUser - -> "1" Role

eCourseSystemUser - -> "1" SystemUser
eCourseSystemUser - -> "1" Role
eCourseSystemUser - -> "1" UserStatus
eCourseSystemUser - -> "1" Acronym
eCourseSystemUser - -> "1" NIF
eCourseSystemUser - -> "1" BirthDate
eCourseSystemUser - -> "1" MechanographicNumber
eCourseSystemUser - -> "1" Grade : student has a >

eCourseSystemUser - -> ListGradesStudentService : use >

eCourseSystemUser "*" - - "*" Exam : take a >


Course - -> "1" CourseStatus
Course - -> "1" CourseCode

Course "1" - - "1" Grade : refers to <

Course "*" - "*" eCourseSystemUser : is in a <

Exam "1" - - "1" ExamGrade : has >
Exam "*" - - "1" CourseCode : has >
ExamGrade "1" - - "1" eCourseSystemUser : has >

@enduml

@startuml

left to right direction

package "ECOURSESYSTEMUSER" <<Aggregate>> {

    class SystemUser <<root>> <<Entity>> {
        * Name
        * Username
    }

    class eCourseSystemUser <<root>> <<Entity>> {

    }

    class EmailAdderss <<Value object>>

    class Role <<Entity>> {
        * String name
    }

    class UserStatus <<enum>> {
        + ENABLE
        + DISABLE
    }

    class Password <<value object>>

    class Acronym <<value object>>

    class NIF <<value object>>

    class BirthDate <<value object>>

    class MechanographicNumber <<value object>> <<automatically generated>>

    class Grade <<value object>>

}

package "COURSE" <<aggregate>> {
    class Course <<root>> <<entity>> {
        * name <<unique>>

    }

    enum CourseStatus <<enum>> {
        + OPEN
        + CLOSED
    }

    class CourseCode <<value object>>
}

package "EXAM" <<aggregate>> {
    class Exam <<root>> <<event>> {
        * code <<unique>>
        * title <<unique>>
        * openDate
        * closeDate
        * CourseCode
    }

    class ExamGrade <<value object>>

}



class ListGradesStudentService {
}




SystemUser - -> "1" EmailAdderss
SystemUser - -> "1" Password
SystemUser - -> "1" Role

eCourseSystemUser - -> "1" SystemUser
eCourseSystemUser - -> "1" Role
eCourseSystemUser - -> "1" UserStatus
eCourseSystemUser - -> "1" Acronym
eCourseSystemUser - -> "1" NIF
eCourseSystemUser - -> "1" BirthDate
eCourseSystemUser - -> "1" MechanographicNumber
eCourseSystemUser - -> "1" Grade : student has a >

eCourseSystemUser - -> ListGradesStudentService : use >

eCourseSystemUser "*" - - "*" Exam : take a >


Course - -> "1" CourseStatus
Course - -> "1" CourseCode

Course "1" - - "1" Grade : refers to <

Course "*" - "*" eCourseSystemUser : is in a <

Exam "1" - - "1" ExamGrade : has >
Exam "*" - - "1" CourseCode : has >
ExamGrade "1" - - "1" eCourseSystemUser : has >

@enduml

PlantUML version 1.2022.12(Sun Oct 23 19:12:26 BST 2022)
(GPL source distribution)
Java Runtime: OpenJDK Runtime Environment
JVM: OpenJDK 64-Bit Server VM
Default Encoding: Cp1252
Language: pt
Country: PT
--></g></svg>