<?xml version="1.0" encoding="UTF-8" standalone="no"?><svg xmlns="http://www.w3.org/2000/svg" xmlns:xlink="http://www.w3.org/1999/xlink" contentStyleType="text/css" height="184px" preserveAspectRatio="none" style="width:467px;height:184px;background:#FFFFFF;" version="1.1" viewBox="0 0 467 184" width="467px" zoomAndPan="magnify"><defs/><g><!--MD5=[494c489cc4328319247ec2e1625e02a3]
entity Student--><g id="elem_Student"><ellipse cx="30.5" cy="60.5" fill="#F1F1F1" rx="8" ry="8" style="stroke:#181818;stroke-width:0.5;"/><path d="M30.5,68.5 L30.5,95.5 M17.5,76.5 L43.5,76.5 M30.5,95.5 L17.5,110.5 M30.5,95.5 L43.5,110.5 " fill="none" style="stroke:#181818;stroke-width:0.5;"/><text fill="#000000" font-family="sans-serif" font-size="14" lengthAdjust="spacing" textLength="49" x="6" y="126.5332">Student</text></g><g id="elem_View Grades"><ellipse cx="182.4169" cy="90.8834" fill="#F1F1F1" rx="67.4169" ry="15.8834" style="stroke:#181818;stroke-width:0.5;"/><text fill="#000000" font-family="sans-serif" font-size="14" lengthAdjust="spacing" textLength="80" x="139.4169" y="95.4">View Grades</text></g><g id="elem_Authenticate"><ellipse cx="386.0842" cy="21.8168" fill="#F1F1F1" rx="67.0842" ry="15.8168" style="stroke:#181818;stroke-width:0.5;"/><text fill="#000000" font-family="sans-serif" font-size="14" lengthAdjust="spacing" textLength="79" x="343.5842" y="26.3334">Authenticate</text></g><g id="elem_Retrieve Grades"><ellipse cx="385.9763" cy="91.0953" fill="#F1F1F1" rx="75.9763" ry="17.5953" style="stroke:#181818;stroke-width:0.5;"/><text fill="#000000" font-family="sans-serif" font-size="14" lengthAdjust="spacing" textLength="104" x="331.0467" y="95.5957">Retrieve Grades</text></g><g id="elem_Display Grades"><ellipse cx="385.876" cy="161.0752" fill="#F1F1F1" rx="73.376" ry="17.0752" style="stroke:#181818;stroke-width:0.5;"/><text fill="#000000" font-family="sans-serif" font-size="14" lengthAdjust="spacing" textLength="97" x="334.376" y="165.5918">Display Grades</text></g><!--MD5=[f292551500dd6ebca969fca9877c2425]
link Student to View Grades--><g id="link_Student_View Grades"><path d="M55.27,91 C71.38,91 93.53,91 114.78,91 " fill="none" id="Student-View Grades" style="stroke:#181818;stroke-width:1.0;"/></g><!--MD5=[31204b3476814c196226883a2f015e1d]
link View Grades to Authenticate--><g id="link_View Grades_Authenticate"><path d="M221.87,77.86 C256.05,66.16 306.01,49.05 341.62,36.85 " fill="none" id="View Grades-to-Authenticate" style="stroke:#181818;stroke-width:1.0;"/><polygon fill="#181818" points="346.77,35.09,336.9603,34.2122,342.0381,36.7054,339.545,41.7832,346.77,35.09" style="stroke:#181818;stroke-width:1.0;"/></g><!--MD5=[074f5b120fd666721dfacc2266ce35f3]
link View Grades to Retrieve Grades--><g id="link_View Grades_Retrieve Grades"><path d="M250.04,91 C267.54,91 286.6,91 304.73,91 " fill="none" id="View Grades-to-Retrieve Grades" style="stroke:#181818;stroke-width:1.0;"/><polygon fill="#181818" points="309.82,91,300.82,87,304.82,91,300.82,95,309.82,91" style="stroke:#181818;stroke-width:1.0;"/></g><!--MD5=[2a736c4536e75a791f0038c2635fef89]
link View Grades to Display Grades--><g id="link_View Grades_Display Grades"><path d="M221.4,104.17 C254.87,115.79 303.74,132.77 339.35,145.14 " fill="none" id="View Grades-to-Display Grades" style="stroke:#181818;stroke-width:1.0;"/><polygon fill="#181818" points="344.5,146.93,337.2994,140.2106,339.774,145.2974,334.6872,147.7721,344.5,146.93" style="stroke:#181818;stroke-width:1.0;"/></g><!--MD5=[8b8d057866bbcbea7e7eb3434091f783]
@startuml
'https://plantuml.com/use-case-diagram

left to right direction

actor Student
  Student - - (View Grades)
  (View Grades) - -> (Authenticate)
  (View Grades) - -> (Retrieve Grades)
  (View Grades) - -> (Display Grades)



@enduml

@startuml

left to right direction

actor Student
  Student - - (View Grades)
  (View Grades) - -> (Authenticate)
  (View Grades) - -> (Retrieve Grades)
  (View Grades) - -> (Display Grades)



@enduml

PlantUML version 1.2022.12(Sun Oct 23 19:12:26 BST 2022)
(GPL source distribution)
Java Runtime: OpenJDK Runtime Environment
JVM: OpenJDK 64-Bit Server VM
Default Encoding: Cp1252
Language: pt
Country: PT
--></g></svg>