<?xml version="1.0" encoding="UTF-8" standalone="no"?><svg xmlns="http://www.w3.org/2000/svg" xmlns:xlink="http://www.w3.org/1999/xlink" contentStyleType="text/css" height="1215px" preserveAspectRatio="none" style="width:2366px;height:1215px;background:#FFFFFF;" version="1.1" viewBox="0 0 2366 1215" width="2366px" zoomAndPan="magnify"><defs/><g><rect fill="#FFFFFF" height="1000.8281" style="stroke:#181818;stroke-width:1.0;" width="10" x="227.5" y="114.9609"/><rect fill="#FFFFFF" height="896.7734" style="stroke:#181818;stroke-width:1.0;" width="10" x="413.5" y="145.3125"/><rect fill="#FFFFFF" height="30.3516" style="stroke:#181818;stroke-width:1.0;" width="10" x="595.5" y="175.6641"/><rect fill="#FFFFFF" height="30.3516" style="stroke:#181818;stroke-width:1.0;" width="10" x="726" y="236.3672"/><rect fill="#FFFFFF" height="30.3516" style="stroke:#181818;stroke-width:1.0;" width="10" x="867.5" y="297.0703"/><rect fill="#FFFFFF" height="30.3516" style="stroke:#181818;stroke-width:1.0;" width="10" x="1169" y="486.6953"/><rect fill="#FFFFFF" height="397.1172" style="stroke:#181818;stroke-width:1.0;" width="10" x="1426" y="614.6172"/><rect fill="#FFFFFF" height="30.3516" style="stroke:#181818;stroke-width:1.0;" width="10" x="1960" y="816.1094"/><rect fill="#FFFFFF" height="30.3516" style="stroke:#181818;stroke-width:1.0;" width="10" x="2069" y="876.8125"/><rect fill="none" height="139.2734" style="stroke:#000000;stroke-width:1.5;" width="1030" x="308" y="445.9922"/><rect fill="none" height="352.7656" style="stroke:#000000;stroke-width:1.5;" width="1042" x="1318" y="629.6172"/><rect fill="none" height="260.1953" style="stroke:#000000;stroke-width:1.5;" width="1022" x="1328" y="715.1875"/><line style="stroke:#181818;stroke-width:0.5;stroke-dasharray:5.0,5.0;" x1="32" x2="32" y1="82.6094" y2="1133.7891"/><line style="stroke:#181818;stroke-width:0.5;stroke-dasharray:5.0,5.0;" x1="232" x2="232" y1="82.6094" y2="1133.7891"/><line style="stroke:#181818;stroke-width:0.5;stroke-dasharray:5.0,5.0;" x1="418" x2="418" y1="82.6094" y2="1133.7891"/><line style="stroke:#181818;stroke-width:0.5;stroke-dasharray:5.0,5.0;" x1="600" x2="600" y1="82.6094" y2="1133.7891"/><line style="stroke:#181818;stroke-width:0.5;stroke-dasharray:5.0,5.0;" x1="731" x2="731" y1="82.6094" y2="1133.7891"/><line style="stroke:#181818;stroke-width:0.5;stroke-dasharray:5.0,5.0;" x1="872" x2="872" y1="82.6094" y2="1133.7891"/><line style="stroke:#181818;stroke-width:0.5;stroke-dasharray:5.0,5.0;" x1="1035" x2="1035" y1="375.5313" y2="1133.7891"/><line style="stroke:#181818;stroke-width:0.5;stroke-dasharray:5.0,5.0;" x1="1174" x2="1174" y1="82.6094" y2="1133.7891"/><line style="stroke:#181818;stroke-width:0.5;stroke-dasharray:5.0,5.0;" x1="1285" x2="1285" y1="565.1563" y2="1133.7891"/><line style="stroke:#181818;stroke-width:0.5;stroke-dasharray:5.0,5.0;" x1="1431" x2="1431" y1="82.6094" y2="1133.7891"/><line style="stroke:#181818;stroke-width:0.5;stroke-dasharray:5.0,5.0;" x1="1676" x2="1676" y1="688.0781" y2="1133.7891"/><line style="stroke:#181818;stroke-width:0.5;stroke-dasharray:5.0,5.0;" x1="1809" x2="1809" y1="773.6484" y2="1133.7891"/><line style="stroke:#181818;stroke-width:0.5;stroke-dasharray:5.0,5.0;" x1="1965" x2="1965" y1="82.6094" y2="1133.7891"/><line style="stroke:#181818;stroke-width:0.5;stroke-dasharray:5.0,5.0;" x1="2074" x2="2074" y1="82.6094" y2="1133.7891"/><line style="stroke:#181818;stroke-width:0.5;stroke-dasharray:5.0,5.0;" x1="2237" x2="2237" y1="955.2734" y2="1133.7891"/><text fill="#000000" font-family="sans-serif" font-size="14" lengthAdjust="spacing" textLength="49" x="5" y="79.5332">Student</text><ellipse cx="32.5" cy="13.5" fill="#E3E3E3" rx="8" ry="8" style="stroke:#181818;stroke-width:0.5;"/><path d="M32.5,21.5 L32.5,48.5 M19.5,29.5 L45.5,29.5 M32.5,48.5 L19.5,63.5 M32.5,48.5 L45.5,63.5 " fill="none" style="stroke:#181818;stroke-width:0.5;"/><text fill="#000000" font-family="sans-serif" font-size="14" lengthAdjust="spacing" textLength="49" x="5" y="1147.3223">Student</text><ellipse cx="32.5" cy="1158.8984" fill="#E3E3E3" rx="8" ry="8" style="stroke:#181818;stroke-width:0.5;"/><path d="M32.5,1166.8984 L32.5,1193.8984 M19.5,1174.8984 L45.5,1174.8984 M32.5,1193.8984 L19.5,1208.8984 M32.5,1193.8984 L45.5,1208.8984 " fill="none" style="stroke:#181818;stroke-width:0.5;"/><rect fill="#E3E3E3" height="49.2188" rx="2.5" ry="2.5" style="stroke:#181818;stroke-width:0.5;" width="151" x="157" y="32.3906"/><text fill="#000000" font-family="sans-serif" font-size="14" font-style="italic" lengthAdjust="spacing" textLength="95" x="185" y="53.9238">«presentation»</text><text fill="#000000" font-family="sans-serif" font-size="14" lengthAdjust="spacing" textLength="137" x="164" y="71.5332">ListGradesStudentsUI</text><rect fill="#E3E3E3" height="49.2188" rx="2.5" ry="2.5" style="stroke:#181818;stroke-width:0.5;" width="151" x="157" y="1132.7891"/><text fill="#000000" font-family="sans-serif" font-size="14" font-style="italic" lengthAdjust="spacing" textLength="95" x="185" y="1154.3223">«presentation»</text><text fill="#000000" font-family="sans-serif" font-size="14" lengthAdjust="spacing" textLength="137" x="164" y="1171.9316">ListGradesStudentsUI</text><rect fill="#E3E3E3" height="49.2188" rx="2.5" ry="2.5" style="stroke:#181818;stroke-width:0.5;" width="201" x="318" y="32.3906"/><text fill="#000000" font-family="sans-serif" font-size="14" font-style="italic" lengthAdjust="spacing" textLength="84" x="376.5" y="53.9238">«application»</text><text fill="#000000" font-family="sans-serif" font-size="14" lengthAdjust="spacing" textLength="187" x="325" y="71.5332">ListGradesStudentsController</text><rect fill="#E3E3E3" height="49.2188" rx="2.5" ry="2.5" style="stroke:#181818;stroke-width:0.5;" width="201" x="318" y="1132.7891"/><text fill="#000000" font-family="sans-serif" font-size="14" font-style="italic" lengthAdjust="spacing" textLength="84" x="376.5" y="1154.3223">«application»</text><text fill="#000000" font-family="sans-serif" font-size="14" lengthAdjust="spacing" textLength="187" x="325" y="1171.9316">ListGradesStudentsController</text><rect fill="#E3E3E3" height="49.2188" rx="2.5" ry="2.5" style="stroke:#181818;stroke-width:0.5;" width="143" x="529" y="32.3906"/><text fill="#000000" font-family="sans-serif" font-size="14" font-style="italic" lengthAdjust="spacing" textLength="84" x="558.5" y="53.9238">«application»</text><text fill="#000000" font-family="sans-serif" font-size="14" lengthAdjust="spacing" textLength="129" x="536" y="71.5332">AuthorizationService</text><rect fill="#E3E3E3" height="49.2188" rx="2.5" ry="2.5" style="stroke:#181818;stroke-width:0.5;" width="143" x="529" y="1132.7891"/><text fill="#000000" font-family="sans-serif" font-size="14" font-style="italic" lengthAdjust="spacing" textLength="84" x="558.5" y="1154.3223">«application»</text><text fill="#000000" font-family="sans-serif" font-size="14" lengthAdjust="spacing" textLength="129" x="536" y="1171.9316">AuthorizationService</text><rect fill="#E3E3E3" height="49.2188" rx="2.5" ry="2.5" style="stroke:#181818;stroke-width:0.5;" width="98" x="682" y="32.3906"/><text fill="#000000" font-family="sans-serif" font-size="14" font-style="italic" lengthAdjust="spacing" textLength="84" x="689" y="53.9238">«application»</text><text fill="#000000" font-family="sans-serif" font-size="14" lengthAdjust="spacing" textLength="79" x="691.5" y="71.5332">UserSession</text><rect fill="#E3E3E3" height="49.2188" rx="2.5" ry="2.5" style="stroke:#181818;stroke-width:0.5;" width="98" x="682" y="1132.7891"/><text fill="#000000" font-family="sans-serif" font-size="14" font-style="italic" lengthAdjust="spacing" textLength="84" x="689" y="1154.3223">«application»</text><text fill="#000000" font-family="sans-serif" font-size="14" lengthAdjust="spacing" textLength="79" x="691.5" y="1171.9316">UserSession</text><rect fill="#E3E3E3" height="49.2188" rx="2.5" ry="2.5" style="stroke:#181818;stroke-width:0.5;" width="165" x="790" y="32.3906"/><text fill="#000000" font-family="sans-serif" font-size="14" font-style="italic" lengthAdjust="spacing" textLength="79" x="833" y="53.9238">«repository»</text><text fill="#000000" font-family="sans-serif" font-size="14" lengthAdjust="spacing" textLength="151" x="797" y="71.5332">eCourseUserRepository</text><rect fill="#E3E3E3" height="49.2188" rx="2.5" ry="2.5" style="stroke:#181818;stroke-width:0.5;" width="165" x="790" y="1132.7891"/><text fill="#000000" font-family="sans-serif" font-size="14" font-style="italic" lengthAdjust="spacing" textLength="79" x="833" y="1154.3223">«repository»</text><text fill="#000000" font-family="sans-serif" font-size="14" lengthAdjust="spacing" textLength="151" x="797" y="1171.9316">eCourseUserRepository</text><rect fill="#E3E3E3" height="49.2188" rx="2.5" ry="2.5" style="stroke:#181818;stroke-width:0.5;" width="141" x="965" y="1132.7891"/><text fill="#000000" font-family="sans-serif" font-size="14" lengthAdjust="spacing" textLength="32" x="1019.5" y="1154.3223">user:</text><text fill="#000000" font-family="sans-serif" font-size="14" lengthAdjust="spacing" textLength="127" x="972" y="1171.9316">EcourseSystemUser</text><rect fill="#E3E3E3" height="49.2188" rx="2.5" ry="2.5" style="stroke:#181818;stroke-width:0.5;" width="116" x="1116" y="32.3906"/><text fill="#000000" font-family="sans-serif" font-size="14" font-style="italic" lengthAdjust="spacing" textLength="79" x="1134.5" y="53.9238">«repository»</text><text fill="#000000" font-family="sans-serif" font-size="14" lengthAdjust="spacing" textLength="102" x="1123" y="71.5332">ExamRepository</text><rect fill="#E3E3E3" height="49.2188" rx="2.5" ry="2.5" style="stroke:#181818;stroke-width:0.5;" width="116" x="1116" y="1132.7891"/><text fill="#000000" font-family="sans-serif" font-size="14" font-style="italic" lengthAdjust="spacing" textLength="79" x="1134.5" y="1154.3223">«repository»</text><text fill="#000000" font-family="sans-serif" font-size="14" lengthAdjust="spacing" textLength="102" x="1123" y="1171.9316">ExamRepository</text><rect fill="#E3E3E3" height="49.2188" rx="2.5" ry="2.5" style="stroke:#181818;stroke-width:0.5;" width="86" x="1242" y="1132.7891"/><text fill="#000000" font-family="sans-serif" font-size="14" lengthAdjust="spacing" textLength="55" x="1257.5" y="1154.3223">examsIn:</text><text fill="#000000" font-family="sans-serif" font-size="14" lengthAdjust="spacing" textLength="72" x="1249" y="1171.9316">List&lt;Exam&gt;</text><rect fill="#E3E3E3" height="49.2188" rx="2.5" ry="2.5" style="stroke:#181818;stroke-width:0.5;" width="186" x="1338" y="32.3906"/><text fill="#000000" font-family="sans-serif" font-size="14" font-style="italic" lengthAdjust="spacing" textLength="60" x="1401" y="53.9238">«service»</text><text fill="#000000" font-family="sans-serif" font-size="14" lengthAdjust="spacing" textLength="172" x="1345" y="71.5332">ListGradesStudentsService</text><rect fill="#E3E3E3" height="49.2188" rx="2.5" ry="2.5" style="stroke:#181818;stroke-width:0.5;" width="186" x="1338" y="1132.7891"/><text fill="#000000" font-family="sans-serif" font-size="14" font-style="italic" lengthAdjust="spacing" textLength="60" x="1401" y="1154.3223">«service»</text><text fill="#000000" font-family="sans-serif" font-size="14" lengthAdjust="spacing" textLength="172" x="1345" y="1171.9316">ListGradesStudentsService</text><rect fill="#E3E3E3" height="49.2188" rx="2.5" ry="2.5" style="stroke:#181818;stroke-width:0.5;" width="51" x="1651" y="1132.7891"/><text fill="#000000" font-family="sans-serif" font-size="14" lengthAdjust="spacing" textLength="37" x="1658" y="1154.3223">exam:</text><text fill="#000000" font-family="sans-serif" font-size="14" lengthAdjust="spacing" textLength="34" x="1659.5" y="1171.9316">Exam</text><rect fill="#E3E3E3" height="49.2188" rx="2.5" ry="2.5" style="stroke:#181818;stroke-width:0.5;" width="195" x="1712" y="1132.7891"/><text fill="#000000" font-family="sans-serif" font-size="14" lengthAdjust="spacing" textLength="71" x="1774" y="1154.3223">optGrades:</text><text fill="#000000" font-family="sans-serif" font-size="14" lengthAdjust="spacing" textLength="181" x="1719" y="1171.9316">Optional&lt;List&lt;ExamGrade&gt;&gt;</text><rect fill="#E3E3E3" height="49.2188" rx="2.5" ry="2.5" style="stroke:#181818;stroke-width:0.5;" width="96" x="1917" y="32.3906"/><text fill="#000000" font-family="sans-serif" font-size="14" font-style="italic" lengthAdjust="spacing" textLength="64" x="1933" y="53.9238">«mapper»</text><text fill="#000000" font-family="sans-serif" font-size="14" lengthAdjust="spacing" textLength="82" x="1924" y="71.5332">ExamMapper</text><rect fill="#E3E3E3" height="49.2188" rx="2.5" ry="2.5" style="stroke:#181818;stroke-width:0.5;" width="96" x="1917" y="1132.7891"/><text fill="#000000" font-family="sans-serif" font-size="14" font-style="italic" lengthAdjust="spacing" textLength="64" x="1933" y="1154.3223">«mapper»</text><text fill="#000000" font-family="sans-serif" font-size="14" lengthAdjust="spacing" textLength="82" x="1924" y="1171.9316">ExamMapper</text><rect fill="#E3E3E3" height="49.2188" rx="2.5" ry="2.5" style="stroke:#181818;stroke-width:0.5;" width="102" x="2023" y="32.3906"/><text fill="#000000" font-family="sans-serif" font-size="14" font-style="italic" lengthAdjust="spacing" textLength="64" x="2042" y="53.9238">«mapper»</text><text fill="#000000" font-family="sans-serif" font-size="14" lengthAdjust="spacing" textLength="88" x="2030" y="71.5332">GradeMapper</text><rect fill="#E3E3E3" height="49.2188" rx="2.5" ry="2.5" style="stroke:#181818;stroke-width:0.5;" width="102" x="2023" y="1132.7891"/><text fill="#000000" font-family="sans-serif" font-size="14" font-style="italic" lengthAdjust="spacing" textLength="64" x="2042" y="1154.3223">«mapper»</text><text fill="#000000" font-family="sans-serif" font-size="14" lengthAdjust="spacing" textLength="88" x="2030" y="1171.9316">GradeMapper</text><rect fill="#E3E3E3" height="49.2188" rx="2.5" ry="2.5" style="stroke:#181818;stroke-width:0.5;" width="205" x="2135" y="1132.7891"/><text fill="#000000" font-family="sans-serif" font-size="14" lengthAdjust="spacing" textLength="75" x="2200" y="1154.3223">gradesMap:</text><text fill="#000000" font-family="sans-serif" font-size="14" lengthAdjust="spacing" textLength="191" x="2142" y="1171.9316">HashMap&lt;Exam, ExamGrade&gt;</text><rect fill="#FFFFFF" height="1000.8281" style="stroke:#181818;stroke-width:1.0;" width="10" x="227.5" y="114.9609"/><rect fill="#FFFFFF" height="896.7734" style="stroke:#181818;stroke-width:1.0;" width="10" x="413.5" y="145.3125"/><rect fill="#FFFFFF" height="30.3516" style="stroke:#181818;stroke-width:1.0;" width="10" x="595.5" y="175.6641"/><rect fill="#FFFFFF" height="30.3516" style="stroke:#181818;stroke-width:1.0;" width="10" x="726" y="236.3672"/><rect fill="#FFFFFF" height="30.3516" style="stroke:#181818;stroke-width:1.0;" width="10" x="867.5" y="297.0703"/><rect fill="#FFFFFF" height="30.3516" style="stroke:#181818;stroke-width:1.0;" width="10" x="1169" y="486.6953"/><rect fill="#FFFFFF" height="397.1172" style="stroke:#181818;stroke-width:1.0;" width="10" x="1426" y="614.6172"/><rect fill="#FFFFFF" height="30.3516" style="stroke:#181818;stroke-width:1.0;" width="10" x="1960" y="816.1094"/><rect fill="#FFFFFF" height="30.3516" style="stroke:#181818;stroke-width:1.0;" width="10" x="2069" y="876.8125"/><polygon fill="#181818" points="215.5,110.9609,225.5,114.9609,215.5,118.9609,219.5,114.9609" style="stroke:#181818;stroke-width:1.0;"/><line style="stroke:#181818;stroke-width:1.0;" x1="32.5" x2="221.5" y1="114.9609" y2="114.9609"/><text fill="#000000" font-family="sans-serif" font-size="13" lengthAdjust="spacing" textLength="176" x="39.5" y="110.1045">Requests to view List of Grade</text><polygon fill="#181818" points="401.5,141.3125,411.5,145.3125,401.5,149.3125,405.5,145.3125" style="stroke:#181818;stroke-width:1.0;"/><line style="stroke:#181818;stroke-width:1.0;" x1="237.5" x2="407.5" y1="145.3125" y2="145.3125"/><text fill="#000000" font-family="sans-serif" font-size="13" lengthAdjust="spacing" textLength="112" x="244.5" y="140.4561">listGradesStudent()</text><polygon fill="#181818" points="583.5,171.6641,593.5,175.6641,583.5,179.6641,587.5,175.6641" style="stroke:#181818;stroke-width:1.0;"/><line style="stroke:#181818;stroke-width:1.0;" x1="423.5" x2="589.5" y1="175.6641" y2="175.6641"/><text fill="#000000" font-family="sans-serif" font-size="13" lengthAdjust="spacing" textLength="53" x="430.5" y="170.8076">session()</text><polygon fill="#181818" points="434.5,202.0156,424.5,206.0156,434.5,210.0156,430.5,206.0156" style="stroke:#181818;stroke-width:1.0;"/><line style="stroke:#181818;stroke-width:1.0;stroke-dasharray:2.0,2.0;" x1="428.5" x2="599.5" y1="206.0156" y2="206.0156"/><text fill="#000000" font-family="sans-serif" font-size="13" lengthAdjust="spacing" textLength="47" x="440.5" y="201.1592">Session</text><polygon fill="#181818" points="714,232.3672,724,236.3672,714,240.3672,718,236.3672" style="stroke:#181818;stroke-width:1.0;"/><line style="stroke:#181818;stroke-width:1.0;" x1="423.5" x2="720" y1="236.3672" y2="236.3672"/><text fill="#000000" font-family="sans-serif" font-size="13" lengthAdjust="spacing" textLength="39" x="430.5" y="231.5107">email()</text><polygon fill="#181818" points="434.5,262.7188,424.5,266.7188,434.5,270.7188,430.5,266.7188" style="stroke:#181818;stroke-width:1.0;"/><line style="stroke:#181818;stroke-width:1.0;stroke-dasharray:2.0,2.0;" x1="428.5" x2="730" y1="266.7188" y2="266.7188"/><text fill="#000000" font-family="sans-serif" font-size="13" lengthAdjust="spacing" textLength="31" x="440.5" y="261.8623">email</text><polygon fill="#181818" points="855.5,293.0703,865.5,297.0703,855.5,301.0703,859.5,297.0703" style="stroke:#181818;stroke-width:1.0;"/><line style="stroke:#181818;stroke-width:1.0;" x1="423.5" x2="861.5" y1="297.0703" y2="297.0703"/><text fill="#000000" font-family="sans-serif" font-size="13" lengthAdjust="spacing" textLength="105" x="430.5" y="292.2139">searchUser(email)</text><polygon fill="#181818" points="434.5,323.4219,424.5,327.4219,434.5,331.4219,430.5,327.4219" style="stroke:#181818;stroke-width:1.0;"/><line style="stroke:#181818;stroke-width:1.0;stroke-dasharray:2.0,2.0;" x1="428.5" x2="871.5" y1="327.4219" y2="327.4219"/><text fill="#000000" font-family="sans-serif" font-size="13" lengthAdjust="spacing" textLength="27" x="440.5" y="322.5654">User</text><polygon fill="#181818" points="953,353.7734,963,357.7734,953,361.7734,957,357.7734" style="stroke:#181818;stroke-width:1.0;"/><line style="stroke:#181818;stroke-width:1.0;" x1="423.5" x2="959" y1="357.7734" y2="357.7734"/><text fill="#000000" font-family="sans-serif" font-size="13" lengthAdjust="spacing" textLength="164" x="430.5" y="352.917">courseIn= coursesLearning()</text><rect fill="#E3E3E3" height="49.2188" rx="2.5" ry="2.5" style="stroke:#181818;stroke-width:0.5;" width="141" x="965" y="335.4219"/><text fill="#000000" font-family="sans-serif" font-size="14" lengthAdjust="spacing" textLength="32" x="1019.5" y="356.9551">user:</text><text fill="#000000" font-family="sans-serif" font-size="14" lengthAdjust="spacing" textLength="127" x="972" y="374.5645">EcourseSystemUser</text><line style="stroke:#181818;stroke-width:1.0;" x1="423.5" x2="465.5" y1="417.9922" y2="417.9922"/><line style="stroke:#181818;stroke-width:1.0;" x1="465.5" x2="465.5" y1="417.9922" y2="430.9922"/><line style="stroke:#181818;stroke-width:1.0;" x1="424.5" x2="465.5" y1="430.9922" y2="430.9922"/><polygon fill="#181818" points="434.5,426.9922,424.5,430.9922,434.5,434.9922,430.5,430.9922" style="stroke:#181818;stroke-width:1.0;"/><text fill="#000000" font-family="sans-serif" font-size="13" lengthAdjust="spacing" textLength="49" x="430.5" y="413.1357">examsIn</text><path d="M308,445.9922 L381,445.9922 L381,454.3438 L371,464.3438 L308,464.3438 L308,445.9922 " fill="#EEEEEE" style="stroke:#000000;stroke-width:1.5;"/><rect fill="none" height="139.2734" style="stroke:#000000;stroke-width:1.5;" width="1030" x="308" y="445.9922"/><text fill="#000000" font-family="sans-serif" font-size="13" font-weight="bold" lengthAdjust="spacing" textLength="28" x="323" y="460.4873">loop</text><text fill="#000000" font-family="sans-serif" font-size="11" font-weight="bold" lengthAdjust="spacing" textLength="160" x="396" y="459.4111">[for each course in courseIn]</text><polygon fill="#181818" points="1157,482.6953,1167,486.6953,1157,490.6953,1161,486.6953" style="stroke:#181818;stroke-width:1.0;"/><line style="stroke:#181818;stroke-width:1.0;" x1="423.5" x2="1163" y1="486.6953" y2="486.6953"/><text fill="#000000" font-family="sans-serif" font-size="13" lengthAdjust="spacing" textLength="136" x="430.5" y="481.8389">findAllOfCourse(course)</text><polygon fill="#181818" points="434.5,513.0469,424.5,517.0469,434.5,521.0469,430.5,517.0469" style="stroke:#181818;stroke-width:1.0;"/><line style="stroke:#181818;stroke-width:1.0;stroke-dasharray:2.0,2.0;" x1="428.5" x2="1173" y1="517.0469" y2="517.0469"/><text fill="#000000" font-family="sans-serif" font-size="13" lengthAdjust="spacing" textLength="39" x="440.5" y="512.1904">exams</text><polygon fill="#181818" points="1230,543.3984,1240,547.3984,1230,551.3984,1234,547.3984" style="stroke:#181818;stroke-width:1.0;"/><line style="stroke:#181818;stroke-width:1.0;" x1="423.5" x2="1236" y1="547.3984" y2="547.3984"/><text fill="#000000" font-family="sans-serif" font-size="13" lengthAdjust="spacing" textLength="93" x="430.5" y="542.542">addAll(examsIn)</text><rect fill="#E3E3E3" height="49.2188" rx="2.5" ry="2.5" style="stroke:#181818;stroke-width:0.5;" width="86" x="1242" y="525.0469"/><text fill="#000000" font-family="sans-serif" font-size="14" lengthAdjust="spacing" textLength="55" x="1257.5" y="546.5801">examsIn:</text><text fill="#000000" font-family="sans-serif" font-size="14" lengthAdjust="spacing" textLength="72" x="1249" y="564.1895">List&lt;Exam&gt;</text><polygon fill="#181818" points="1414,610.6172,1424,614.6172,1414,618.6172,1418,614.6172" style="stroke:#181818;stroke-width:1.0;"/><line style="stroke:#181818;stroke-width:1.0;" x1="423.5" x2="1420" y1="614.6172" y2="614.6172"/><text fill="#000000" font-family="sans-serif" font-size="13" lengthAdjust="spacing" textLength="194" x="430.5" y="609.7607">ListGradesStudent(user,examsIn)</text><path d="M1318,629.6172 L1391,629.6172 L1391,637.9688 L1381,647.9688 L1318,647.9688 L1318,629.6172 " fill="#EEEEEE" style="stroke:#000000;stroke-width:1.5;"/><rect fill="none" height="352.7656" style="stroke:#000000;stroke-width:1.5;" width="1042" x="1318" y="629.6172"/><text fill="#000000" font-family="sans-serif" font-size="13" font-weight="bold" lengthAdjust="spacing" textLength="28" x="1333" y="644.1123">loop</text><text fill="#000000" font-family="sans-serif" font-size="11" font-weight="bold" lengthAdjust="spacing" textLength="149" x="1406" y="643.0361">[for each exam in examsIn]</text><polygon fill="#181818" points="1639,666.3203,1649,670.3203,1639,674.3203,1643,670.3203" style="stroke:#181818;stroke-width:1.0;"/><line style="stroke:#181818;stroke-width:1.0;" x1="1436" x2="1645" y1="670.3203" y2="670.3203"/><text fill="#000000" font-family="sans-serif" font-size="13" lengthAdjust="spacing" textLength="191" x="1443" y="665.4639">optgrades=gradeByStudent(user)</text><rect fill="#E3E3E3" height="49.2188" rx="2.5" ry="2.5" style="stroke:#181818;stroke-width:0.5;" width="51" x="1651" y="647.9688"/><text fill="#000000" font-family="sans-serif" font-size="14" lengthAdjust="spacing" textLength="37" x="1658" y="669.502">exam:</text><text fill="#000000" font-family="sans-serif" font-size="14" lengthAdjust="spacing" textLength="34" x="1659.5" y="687.1113">Exam</text><path d="M1328,715.1875 L1389,715.1875 L1389,723.5391 L1379,733.5391 L1328,733.5391 L1328,715.1875 " fill="#EEEEEE" style="stroke:#000000;stroke-width:1.5;"/><rect fill="none" height="260.1953" style="stroke:#000000;stroke-width:1.5;" width="1022" x="1328" y="715.1875"/><text fill="#000000" font-family="sans-serif" font-size="13" font-weight="bold" lengthAdjust="spacing" textLength="16" x="1343" y="729.6826">alt</text><text fill="#000000" font-family="sans-serif" font-size="11" font-weight="bold" lengthAdjust="spacing" textLength="82" x="1404" y="728.6064">[grades != null]</text><polygon fill="#181818" points="1700,751.8906,1710,755.8906,1700,759.8906,1704,755.8906" style="stroke:#181818;stroke-width:1.0;"/><line style="stroke:#181818;stroke-width:1.0;" x1="1436" x2="1706" y1="755.8906" y2="755.8906"/><text fill="#000000" font-family="sans-serif" font-size="13" lengthAdjust="spacing" textLength="73" x="1443" y="751.0342">grades=get()</text><rect fill="#E3E3E3" height="49.2188" rx="2.5" ry="2.5" style="stroke:#181818;stroke-width:0.5;" width="195" x="1712" y="733.5391"/><text fill="#000000" font-family="sans-serif" font-size="14" lengthAdjust="spacing" textLength="71" x="1774" y="755.0723">optGrades:</text><text fill="#000000" font-family="sans-serif" font-size="14" lengthAdjust="spacing" textLength="181" x="1719" y="772.6816">Optional&lt;List&lt;ExamGrade&gt;&gt;</text><polygon fill="#181818" points="1948,812.1094,1958,816.1094,1948,820.1094,1952,816.1094" style="stroke:#181818;stroke-width:1.0;"/><line style="stroke:#181818;stroke-width:1.0;" x1="1436" x2="1954" y1="816.1094" y2="816.1094"/><text fill="#000000" font-family="sans-serif" font-size="13" lengthAdjust="spacing" textLength="71" x="1443" y="811.2529">toDto(exam)</text><polygon fill="#181818" points="1447,842.4609,1437,846.4609,1447,850.4609,1443,846.4609" style="stroke:#181818;stroke-width:1.0;"/><line style="stroke:#181818;stroke-width:1.0;stroke-dasharray:2.0,2.0;" x1="1441" x2="1964" y1="846.4609" y2="846.4609"/><text fill="#000000" font-family="sans-serif" font-size="13" lengthAdjust="spacing" textLength="52" x="1453" y="841.6045">examDto</text><polygon fill="#181818" points="2057,872.8125,2067,876.8125,2057,880.8125,2061,876.8125" style="stroke:#181818;stroke-width:1.0;"/><line style="stroke:#181818;stroke-width:1.0;" x1="1436" x2="2063" y1="876.8125" y2="876.8125"/><text fill="#000000" font-family="sans-serif" font-size="13" lengthAdjust="spacing" textLength="78" x="1443" y="871.9561">toDto(grades)</text><polygon fill="#181818" points="1447,903.1641,1437,907.1641,1447,911.1641,1443,907.1641" style="stroke:#181818;stroke-width:1.0;"/><line style="stroke:#181818;stroke-width:1.0;stroke-dasharray:2.0,2.0;" x1="1441" x2="2073" y1="907.1641" y2="907.1641"/><text fill="#000000" font-family="sans-serif" font-size="13" lengthAdjust="spacing" textLength="59" x="1453" y="902.3076">gradesDto</text><polygon fill="#181818" points="2123,933.5156,2133,937.5156,2123,941.5156,2127,937.5156" style="stroke:#181818;stroke-width:1.0;"/><line style="stroke:#181818;stroke-width:1.0;" x1="1436" x2="2129" y1="937.5156" y2="937.5156"/><text fill="#000000" font-family="sans-serif" font-size="13" lengthAdjust="spacing" textLength="145" x="1443" y="932.6592">put(examDto, gradesDto)</text><rect fill="#E3E3E3" height="49.2188" rx="2.5" ry="2.5" style="stroke:#181818;stroke-width:0.5;" width="205" x="2135" y="915.1641"/><text fill="#000000" font-family="sans-serif" font-size="14" lengthAdjust="spacing" textLength="75" x="2200" y="936.6973">gradesMap:</text><text fill="#000000" font-family="sans-serif" font-size="14" lengthAdjust="spacing" textLength="191" x="2142" y="954.3066">HashMap&lt;Exam, ExamGrade&gt;</text><polygon fill="#181818" points="434.5,1007.7344,424.5,1011.7344,434.5,1015.7344,430.5,1011.7344" style="stroke:#181818;stroke-width:1.0;"/><line style="stroke:#181818;stroke-width:1.0;stroke-dasharray:2.0,2.0;" x1="428.5" x2="1430" y1="1011.7344" y2="1011.7344"/><text fill="#000000" font-family="sans-serif" font-size="13" lengthAdjust="spacing" textLength="64" x="440.5" y="1006.8779">gradesMap</text><polygon fill="#181818" points="248.5,1038.0859,238.5,1042.0859,248.5,1046.0859,244.5,1042.0859" style="stroke:#181818;stroke-width:1.0;"/><line style="stroke:#181818;stroke-width:1.0;stroke-dasharray:2.0,2.0;" x1="242.5" x2="417.5" y1="1042.0859" y2="1042.0859"/><text fill="#000000" font-family="sans-serif" font-size="13" lengthAdjust="spacing" textLength="64" x="254.5" y="1037.2295">gradesMap</text><line style="stroke:#181818;stroke-width:1.0;" x1="237.5" x2="279.5" y1="1072.4375" y2="1072.4375"/><line style="stroke:#181818;stroke-width:1.0;" x1="279.5" x2="279.5" y1="1072.4375" y2="1085.4375"/><line style="stroke:#181818;stroke-width:1.0;" x1="238.5" x2="279.5" y1="1085.4375" y2="1085.4375"/><polygon fill="#181818" points="248.5,1081.4375,238.5,1085.4375,248.5,1089.4375,244.5,1085.4375" style="stroke:#181818;stroke-width:1.0;"/><text fill="#000000" font-family="sans-serif" font-size="13" lengthAdjust="spacing" textLength="144" x="244.5" y="1067.5811">showGrades(gradesMap)</text><polygon fill="#181818" points="43.5,1111.7891,33.5,1115.7891,43.5,1119.7891,39.5,1115.7891" style="stroke:#181818;stroke-width:1.0;"/><line style="stroke:#181818;stroke-width:1.0;" x1="37.5" x2="231.5" y1="1115.7891" y2="1115.7891"/><text fill="#000000" font-family="sans-serif" font-size="13" lengthAdjust="spacing" textLength="83" x="49.5" y="1110.9326">shows Grades</text><!--MD5=[8527384a990abfa3e5c7b06207f5cf3b]
@startuml
'https://plantuml.com/skinparam
skinparam monochrome true
skinparam packageStyle rect

actor Student as Actor
participant ListGradesStudentsUI as UI <<presentation>>
participant ListGradesStudentsController as Controller <<application>>
participant AuthorizationService as Authz <<application>>
participant UserSession as USS <<application>>
participant eCourseUserRepository as UserRepo <<repository>>
participant "user:\nEcourseSystemUser" as user
participant ExamRepository as ExamRepo <<repository>>
participant "examsIn:\nList<Exam>" as ExamList
participant ListGradesStudentsService as Service <<service>>
participant "exam:\nExam" as Exam
participant "optGrades:\nOptional<List<ExamGrade>>" as ExamG
participant ExamMapper as ExamMapper <<mapper>>
participant GradeMapper as GradeMapper <<mapper>>
participant "gradesMap:\nHashMap<Exam, ExamGrade>" as GradeMap



Actor -> UI: Requests to view List of Grade
activate UI

UI -> Controller: listGradesStudent()
activate Controller
Controller -> Authz: session()
    activate Authz
    Authz - -> Controller: Session
    deactivate Authz
    Controller -> USS: email()
    activate USS
    USS - -> Controller: email
    deactivate USS
    Controller -> UserRepo: searchUser(email)
    activate UserRepo
    UserRepo - -> Controller: User
    deactivate UserRepo
    Controller -> user**:courseIn= coursesLearning()
    Controller -> Controller: examsIn
    loop for each course in courseIn
    Controller->ExamRepo:findAllOfCourse(course)
    activate ExamRepo
    ExamRepo- ->Controller:exams
    deactivate ExamRepo
    Controller->ExamList**:addAll(examsIn)
    end
    Controller->Service:ListGradesStudent(user,examsIn)
    activate Service
    loop for each exam in examsIn
    Service->Exam**:optgrades=gradeByStudent(user)
    ALT grades != null
    Service-> ExamG**: grades=get()
    Service->ExamMapper:toDto(exam)
    activate ExamMapper
    ExamMapper- ->Service:examDto
    deactivate ExamMapper
    Service->GradeMapper:toDto(grades)
    activate GradeMapper
    GradeMapper- ->Service:gradesDto
    deactivate GradeMapper
    Service->GradeMap**:put(examDto, gradesDto)
    end
    end
    Service- ->Controller:gradesMap
    deactivate Service
    Controller- ->UI:gradesMap
    deactivate Controller
    UI->UI: showGrades(gradesMap)
    UI->Actor: shows Grades
    deactivate UI



@enduml

@startuml
skinparam monochrome true
skinparam packageStyle rect

actor Student as Actor
participant ListGradesStudentsUI as UI <<presentation>>
participant ListGradesStudentsController as Controller <<application>>
participant AuthorizationService as Authz <<application>>
participant UserSession as USS <<application>>
participant eCourseUserRepository as UserRepo <<repository>>
participant "user:\nEcourseSystemUser" as user
participant ExamRepository as ExamRepo <<repository>>
participant "examsIn:\nList<Exam>" as ExamList
participant ListGradesStudentsService as Service <<service>>
participant "exam:\nExam" as Exam
participant "optGrades:\nOptional<List<ExamGrade>>" as ExamG
participant ExamMapper as ExamMapper <<mapper>>
participant GradeMapper as GradeMapper <<mapper>>
participant "gradesMap:\nHashMap<Exam, ExamGrade>" as GradeMap



Actor -> UI: Requests to view List of Grade
activate UI

UI -> Controller: listGradesStudent()
activate Controller
Controller -> Authz: session()
    activate Authz
    Authz - -> Controller: Session
    deactivate Authz
    Controller -> USS: email()
    activate USS
    USS - -> Controller: email
    deactivate USS
    Controller -> UserRepo: searchUser(email)
    activate UserRepo
    UserRepo - -> Controller: User
    deactivate UserRepo
    Controller -> user**:courseIn= coursesLearning()
    Controller -> Controller: examsIn
    loop for each course in courseIn
    Controller->ExamRepo:findAllOfCourse(course)
    activate ExamRepo
    ExamRepo- ->Controller:exams
    deactivate ExamRepo
    Controller->ExamList**:addAll(examsIn)
    end
    Controller->Service:ListGradesStudent(user,examsIn)
    activate Service
    loop for each exam in examsIn
    Service->Exam**:optgrades=gradeByStudent(user)
    ALT grades != null
    Service-> ExamG**: grades=get()
    Service->ExamMapper:toDto(exam)
    activate ExamMapper
    ExamMapper- ->Service:examDto
    deactivate ExamMapper
    Service->GradeMapper:toDto(grades)
    activate GradeMapper
    GradeMapper- ->Service:gradesDto
    deactivate GradeMapper
    Service->GradeMap**:put(examDto, gradesDto)
    end
    end
    Service- ->Controller:gradesMap
    deactivate Service
    Controller- ->UI:gradesMap
    deactivate Controller
    UI->UI: showGrades(gradesMap)
    UI->Actor: shows Grades
    deactivate UI



@enduml

PlantUML version 1.2022.12(Sun Oct 23 19:12:26 BST 2022)
(GPL source distribution)
Java Runtime: OpenJDK Runtime Environment
JVM: OpenJDK 64-Bit Server VM
Default Encoding: Cp1252
Language: pt
Country: PT
--></g></svg>