<?xml version="1.0" encoding="us-ascii" standalone="no"?><svg xmlns="http://www.w3.org/2000/svg" xmlns:xlink="http://www.w3.org/1999/xlink" contentStyleType="text/css" height="1019px" preserveAspectRatio="none" style="width:1003px;height:1019px;background:#FFFFFF;" version="1.1" viewBox="0 0 1003 1019" width="1003px" zoomAndPan="magnify"><defs/><g><!--class eCourseSystemUser--><g id="elem_eCourseSystemUser"><rect codeLine="2" fill="#F1F1F1" height="401.8008" id="eCourseSystemUser" rx="2.5" ry="2.5" style="stroke:#181818;stroke-width:0.5;" width="545" x="198.5" y="7"/><ellipse cx="402.25" cy="23" fill="#ADD1B2" rx="11" ry="11" style="stroke:#181818;stroke-width:1.0;"/><path d="M405.0156,18.875 Q405.1719,18.6563 405.3594,18.5469 Q405.5469,18.4375 405.7656,18.4375 Q406.1406,18.4375 406.375,18.7031 Q406.6094,18.9531 406.6094,19.5625 L406.6094,21.0156 Q406.6094,21.625 406.375,21.8906 Q406.1406,22.1563 405.7656,22.1563 Q405.4219,22.1563 405.2188,21.9531 Q405.0156,21.7656 404.9063,21.25 Q404.8594,20.8906 404.6719,20.7031 Q404.3438,20.3281 403.7344,20.1094 Q403.125,19.8906 402.5,19.8906 Q401.7344,19.8906 401.0938,20.2188 Q400.4688,20.5469 399.9688,21.2969 Q399.4844,22.0469 399.4844,23.0781 L399.4844,24.1719 Q399.4844,25.4063 400.375,26.2344 Q401.2656,27.0469 402.8594,27.0469 Q403.7969,27.0469 404.4531,26.7969 Q404.8438,26.6406 405.2656,26.2031 Q405.5313,25.9375 405.6719,25.8594 Q405.8281,25.7813 406.0313,25.7813 Q406.3594,25.7813 406.6094,26.0469 Q406.875,26.2969 406.875,26.6406 Q406.875,26.9844 406.5313,27.3906 Q406.0313,27.9688 405.2344,28.2969 Q404.1563,28.75 402.8594,28.75 Q401.3438,28.75 400.1406,28.125 Q399.1563,27.625 398.4688,26.5625 Q397.7813,25.4844 397.7813,24.2031 L397.7813,23.0469 Q397.7813,21.7188 398.3906,20.5781 Q399.0156,19.4219 400.1094,18.8125 Q401.2031,18.1875 402.4375,18.1875 Q403.1719,18.1875 403.8125,18.3594 Q404.4688,18.5156 405.0156,18.875 Z " fill="#000000"/><text fill="#000000" font-family="sans-serif" font-size="14" lengthAdjust="spacing" textLength="129" x="422.75" y="28.7969">eCourseSystemUser</text><line style="stroke:#181818;stroke-width:0.5;" x1="199.5" x2="742.5" y1="39" y2="39"/><ellipse cx="209.5" cy="53.8105" fill="#000000" rx="3" ry="3" style="stroke:#000000;stroke-width:1.0;"/><text fill="#000000" font-family="sans-serif" font-size="14" lengthAdjust="spacing" textLength="131" x="218.5" y="58.1074">EmailAdderess email</text><ellipse cx="209.5" cy="72.4316" fill="#000000" rx="3" ry="3" style="stroke:#000000;stroke-width:1.0;"/><text fill="#000000" font-family="sans-serif" font-size="14" lengthAdjust="spacing" textLength="111" x="218.5" y="76.7285">UserStatus status</text><ellipse cx="209.5" cy="91.0527" fill="#000000" rx="3" ry="3" style="stroke:#000000;stroke-width:1.0;"/><text fill="#000000" font-family="sans-serif" font-size="14" lengthAdjust="spacing" textLength="197" x="218.5" y="95.3496">List&lt;Course&gt; coursesTeaching</text><ellipse cx="209.5" cy="109.6738" fill="#000000" rx="3" ry="3" style="stroke:#000000;stroke-width:1.0;"/><text fill="#000000" font-family="sans-serif" font-size="14" lengthAdjust="spacing" textLength="194" x="218.5" y="113.9707">List&lt;Course&gt; coursesTeached</text><ellipse cx="209.5" cy="128.2949" fill="#000000" rx="3" ry="3" style="stroke:#000000;stroke-width:1.0;"/><text fill="#000000" font-family="sans-serif" font-size="14" lengthAdjust="spacing" textLength="113" x="218.5" y="132.5918">Acronym acronym</text><ellipse cx="209.5" cy="146.916" fill="#000000" rx="3" ry="3" style="stroke:#000000;stroke-width:1.0;"/><text fill="#000000" font-family="sans-serif" font-size="14" lengthAdjust="spacing" textLength="40" x="218.5" y="151.2129">NIF nif</text><ellipse cx="209.5" cy="165.5371" fill="#000000" rx="3" ry="3" style="stroke:#000000;stroke-width:1.0;"/><text fill="#000000" font-family="sans-serif" font-size="14" lengthAdjust="spacing" textLength="121" x="218.5" y="169.834">BirthDate birthDate</text><ellipse cx="209.5" cy="184.1582" fill="#000000" rx="3" ry="3" style="stroke:#000000;stroke-width:1.0;"/><text fill="#000000" font-family="sans-serif" font-size="14" lengthAdjust="spacing" textLength="81" x="218.5" y="188.4551">Grade grade</text><ellipse cx="209.5" cy="202.7793" fill="#000000" rx="3" ry="3" style="stroke:#000000;stroke-width:1.0;"/><text fill="#000000" font-family="sans-serif" font-size="14" lengthAdjust="spacing" textLength="165" x="218.5" y="207.0762">int mecanographicNumber</text><ellipse cx="209.5" cy="221.4004" fill="#000000" rx="3" ry="3" style="stroke:#000000;stroke-width:1.0;"/><text fill="#000000" font-family="sans-serif" font-size="14" lengthAdjust="spacing" textLength="152" x="218.5" y="225.6973">SystemUser systemUser</text><line style="stroke:#181818;stroke-width:0.5;" x1="199.5" x2="742.5" y1="233.2109" y2="233.2109"/><ellipse cx="209.5" cy="257.332" fill="#84BE84" rx="3" ry="3" style="stroke:#038048;stroke-width:1.0;"/><text fill="#000000" font-family="sans-serif" font-size="14" lengthAdjust="spacing" textLength="515" x="218.5" y="252.3184">eCourseSystemUser(String: name, String: fullName, String: shortName, Role: role,</text><text fill="#000000" font-family="sans-serif" font-size="14" lengthAdjust="spacing" textLength="322" x="222.5" y="270.9395">Email: email, Password, password, boolean: status)</text><ellipse cx="209.5" cy="303.8848" fill="#84BE84" rx="3" ry="3" style="stroke:#038048;stroke-width:1.0;"/><text fill="#000000" font-family="sans-serif" font-size="14" lengthAdjust="spacing" textLength="433" x="218.5" y="289.5605">eCourseSystemUser(String: name, boolean: regent, String: acronym,</text><text fill="#000000" font-family="sans-serif" font-size="14" lengthAdjust="spacing" textLength="409" x="226.5" y="308.1816">NIF: nif, BirthDate: birthDate, String: fullName, String: shortName,</text><text fill="#000000" font-family="sans-serif" font-size="14" lengthAdjust="spacing" textLength="391" x="222.5" y="326.8027">Role: role, Email: email, Password, password, boolean: status)</text><ellipse cx="209.5" cy="359.748" fill="#84BE84" rx="3" ry="3" style="stroke:#038048;stroke-width:1.0;"/><text fill="#000000" font-family="sans-serif" font-size="14" lengthAdjust="spacing" textLength="315" x="218.5" y="345.4238">Student(String: name, int: mecanographicNumber,</text><text fill="#000000" font-family="sans-serif" font-size="14" lengthAdjust="spacing" textLength="409" x="226.5" y="364.0449">NIF: nif, BirthDate: birthDate, String: fullName, String: shortName,</text><text fill="#000000" font-family="sans-serif" font-size="14" lengthAdjust="spacing" textLength="391" x="226.5" y="382.666">Role: role, Email: email, Password, password, boolean: status)</text><ellipse cx="209.5" cy="396.9902" fill="#84BE84" rx="3" ry="3" style="stroke:#038048;stroke-width:1.0;"/><text fill="#000000" font-family="sans-serif" font-size="14" lengthAdjust="spacing" textLength="205" x="218.5" y="401.2871">AlterUserStatus(boolean: status)</text></g><!--class Course--><g id="elem_Course"><rect codeLine="19" fill="#F1F1F1" height="159.7266" id="Course" rx="2.5" ry="2.5" style="stroke:#181818;stroke-width:0.5;" width="515" x="226.5" y="670"/><ellipse cx="456.75" cy="686" fill="#ADD1B2" rx="11" ry="11" style="stroke:#181818;stroke-width:1.0;"/><path d="M459.5156,681.875 Q459.6719,681.6563 459.8594,681.5469 Q460.0469,681.4375 460.2656,681.4375 Q460.6406,681.4375 460.875,681.7031 Q461.1094,681.9531 461.1094,682.5625 L461.1094,684.0156 Q461.1094,684.625 460.875,684.8906 Q460.6406,685.1563 460.2656,685.1563 Q459.9219,685.1563 459.7188,684.9531 Q459.5156,684.7656 459.4063,684.25 Q459.3594,683.8906 459.1719,683.7031 Q458.8438,683.3281 458.2344,683.1094 Q457.625,682.8906 457,682.8906 Q456.2344,682.8906 455.5938,683.2188 Q454.9688,683.5469 454.4688,684.2969 Q453.9844,685.0469 453.9844,686.0781 L453.9844,687.1719 Q453.9844,688.4063 454.875,689.2344 Q455.7656,690.0469 457.3594,690.0469 Q458.2969,690.0469 458.9531,689.7969 Q459.3438,689.6406 459.7656,689.2031 Q460.0313,688.9375 460.1719,688.8594 Q460.3281,688.7813 460.5313,688.7813 Q460.8594,688.7813 461.1094,689.0469 Q461.375,689.2969 461.375,689.6406 Q461.375,689.9844 461.0313,690.3906 Q460.5313,690.9688 459.7344,691.2969 Q458.6563,691.75 457.3594,691.75 Q455.8438,691.75 454.6406,691.125 Q453.6563,690.625 452.9688,689.5625 Q452.2813,688.4844 452.2813,687.2031 L452.2813,686.0469 Q452.2813,684.7188 452.8906,683.5781 Q453.5156,682.4219 454.6094,681.8125 Q455.7031,681.1875 456.9375,681.1875 Q457.6719,681.1875 458.3125,681.3594 Q458.9688,681.5156 459.5156,681.875 Z " fill="#000000"/><text fill="#000000" font-family="sans-serif" font-size="14" lengthAdjust="spacing" textLength="46" x="477.25" y="691.7969">Course</text><line style="stroke:#181818;stroke-width:0.5;" x1="227.5" x2="740.5" y1="702" y2="702"/><ellipse cx="237.5" cy="716.8105" fill="#000000" rx="3" ry="3" style="stroke:#000000;stroke-width:1.0;"/><text fill="#000000" font-family="sans-serif" font-size="14" lengthAdjust="spacing" textLength="30" x="246.5" y="721.1074">int id</text><ellipse cx="237.5" cy="735.4316" fill="#000000" rx="3" ry="3" style="stroke:#000000;stroke-width:1.0;"/><text fill="#000000" font-family="sans-serif" font-size="14" lengthAdjust="spacing" textLength="35" x="246.5" y="739.7285">name</text><ellipse cx="237.5" cy="754.0527" fill="#000000" rx="3" ry="3" style="stroke:#000000;stroke-width:1.0;"/><text fill="#000000" font-family="sans-serif" font-size="14" lengthAdjust="spacing" textLength="128" x="246.5" y="758.3496">CourseStatus status</text><ellipse cx="237.5" cy="772.6738" fill="#000000" rx="3" ry="3" style="stroke:#000000;stroke-width:1.0;"/><text fill="#000000" font-family="sans-serif" font-size="14" lengthAdjust="spacing" textLength="69" x="246.5" y="776.9707">Code code</text><ellipse cx="237.5" cy="791.2949" fill="#000000" rx="3" ry="3" style="stroke:#000000;stroke-width:1.0;"/><text fill="#000000" font-family="sans-serif" font-size="14" lengthAdjust="spacing" textLength="98" x="246.5" y="795.5918">Teacher regent</text><line style="stroke:#181818;stroke-width:0.5;" x1="227.5" x2="740.5" y1="803.1055" y2="803.1055"/><ellipse cx="237.5" cy="817.916" fill="#84BE84" rx="3" ry="3" style="stroke:#038048;stroke-width:1.0;"/><text fill="#000000" font-family="sans-serif" font-size="14" lengthAdjust="spacing" textLength="489" x="246.5" y="822.2129">Course(int id, String name, CourseStatus status, Code code, Teacher regent)</text></g><!--class CourseRepository--><g id="elem_CourseRepository"><rect codeLine="28" fill="#F1F1F1" height="122.4844" id="CourseRepository" rx="2.5" ry="2.5" style="stroke:#181818;stroke-width:0.5;" width="535" x="371.5" y="890"/><ellipse cx="577.75" cy="906" fill="#ADD1B2" rx="11" ry="11" style="stroke:#181818;stroke-width:1.0;"/><path d="M580.5156,901.875 Q580.6719,901.6563 580.8594,901.5469 Q581.0469,901.4375 581.2656,901.4375 Q581.6406,901.4375 581.875,901.7031 Q582.1094,901.9531 582.1094,902.5625 L582.1094,904.0156 Q582.1094,904.625 581.875,904.8906 Q581.6406,905.1563 581.2656,905.1563 Q580.9219,905.1563 580.7188,904.9531 Q580.5156,904.7656 580.4063,904.25 Q580.3594,903.8906 580.1719,903.7031 Q579.8438,903.3281 579.2344,903.1094 Q578.625,902.8906 578,902.8906 Q577.2344,902.8906 576.5938,903.2188 Q575.9688,903.5469 575.4688,904.2969 Q574.9844,905.0469 574.9844,906.0781 L574.9844,907.1719 Q574.9844,908.4063 575.875,909.2344 Q576.7656,910.0469 578.3594,910.0469 Q579.2969,910.0469 579.9531,909.7969 Q580.3438,909.6406 580.7656,909.2031 Q581.0313,908.9375 581.1719,908.8594 Q581.3281,908.7813 581.5313,908.7813 Q581.8594,908.7813 582.1094,909.0469 Q582.375,909.2969 582.375,909.6406 Q582.375,909.9844 582.0313,910.3906 Q581.5313,910.9688 580.7344,911.2969 Q579.6563,911.75 578.3594,911.75 Q576.8438,911.75 575.6406,911.125 Q574.6563,910.625 573.9688,909.5625 Q573.2813,908.4844 573.2813,907.2031 L573.2813,906.0469 Q573.2813,904.7188 573.8906,903.5781 Q574.5156,902.4219 575.6094,901.8125 Q576.7031,901.1875 577.9375,901.1875 Q578.6719,901.1875 579.3125,901.3594 Q579.9688,901.5156 580.5156,901.875 Z " fill="#000000"/><text fill="#000000" font-family="sans-serif" font-size="14" lengthAdjust="spacing" textLength="114" x="598.25" y="911.7969">CourseRepository</text><line style="stroke:#181818;stroke-width:0.5;" x1="372.5" x2="905.5" y1="922" y2="922"/><line style="stroke:#181818;stroke-width:0.5;" x1="372.5" x2="905.5" y1="930" y2="930"/><ellipse cx="382.5" cy="944.8105" fill="#84BE84" rx="3" ry="3" style="stroke:#038048;stroke-width:1.0;"/><text fill="#000000" font-family="sans-serif" font-size="14" lengthAdjust="spacing" textLength="174" x="391.5" y="949.1074">addCourse(course: course)</text><ellipse cx="382.5" cy="963.4316" fill="#84BE84" rx="3" ry="3" style="stroke:#038048;stroke-width:1.0;"/><text fill="#000000" font-family="sans-serif" font-size="14" lengthAdjust="spacing" textLength="197" x="391.5" y="967.7285">removeCourse(course: course)</text><ellipse cx="382.5" cy="982.0527" fill="#84BE84" rx="3" ry="3" style="stroke:#038048;stroke-width:1.0;"/><text fill="#000000" font-family="sans-serif" font-size="14" lengthAdjust="spacing" textLength="243" x="391.5" y="986.3496">verifyCourse(course: course): boolean</text><ellipse cx="382.5" cy="1000.6738" fill="#84BE84" rx="3" ry="3" style="stroke:#038048;stroke-width:1.0;"/><text fill="#000000" font-family="sans-serif" font-size="14" lengthAdjust="spacing" textLength="509" x="391.5" y="1004.9707">Course(int: id, String: name, CourseStatus: status, Code: code, Teacher: regent)</text></g><!--class OpenCloseEnrollmentUI--><g id="elem_OpenCloseEnrollmentUI"><rect codeLine="35" fill="#F1F1F1" height="122.4844" id="OpenCloseEnrollmentUI" rx="2.5" ry="2.5" style="stroke:#181818;stroke-width:0.5;" width="300" x="321" y="478.5"/><ellipse cx="391.75" cy="494.5" fill="#ADD1B2" rx="11" ry="11" style="stroke:#181818;stroke-width:1.0;"/><path d="M394.5156,490.375 Q394.6719,490.1563 394.8594,490.0469 Q395.0469,489.9375 395.2656,489.9375 Q395.6406,489.9375 395.875,490.2031 Q396.1094,490.4531 396.1094,491.0625 L396.1094,492.5156 Q396.1094,493.125 395.875,493.3906 Q395.6406,493.6563 395.2656,493.6563 Q394.9219,493.6563 394.7188,493.4531 Q394.5156,493.2656 394.4063,492.75 Q394.3594,492.3906 394.1719,492.2031 Q393.8438,491.8281 393.2344,491.6094 Q392.625,491.3906 392,491.3906 Q391.2344,491.3906 390.5938,491.7188 Q389.9688,492.0469 389.4688,492.7969 Q388.9844,493.5469 388.9844,494.5781 L388.9844,495.6719 Q388.9844,496.9063 389.875,497.7344 Q390.7656,498.5469 392.3594,498.5469 Q393.2969,498.5469 393.9531,498.2969 Q394.3438,498.1406 394.7656,497.7031 Q395.0313,497.4375 395.1719,497.3594 Q395.3281,497.2813 395.5313,497.2813 Q395.8594,497.2813 396.1094,497.5469 Q396.375,497.7969 396.375,498.1406 Q396.375,498.4844 396.0313,498.8906 Q395.5313,499.4688 394.7344,499.7969 Q393.6563,500.25 392.3594,500.25 Q390.8438,500.25 389.6406,499.625 Q388.6563,499.125 387.9688,498.0625 Q387.2813,496.9844 387.2813,495.7031 L387.2813,494.5469 Q387.2813,493.2188 387.8906,492.0781 Q388.5156,490.9219 389.6094,490.3125 Q390.7031,489.6875 391.9375,489.6875 Q392.6719,489.6875 393.3125,489.8594 Q393.9688,490.0156 394.5156,490.375 Z " fill="#000000"/><text fill="#000000" font-family="sans-serif" font-size="14" lengthAdjust="spacing" textLength="150" x="412.25" y="500.2969">OpenCloseEnrollmentUI</text><line style="stroke:#181818;stroke-width:0.5;" x1="322" x2="620" y1="510.5" y2="510.5"/><line style="stroke:#181818;stroke-width:0.5;" x1="322" x2="620" y1="518.5" y2="518.5"/><ellipse cx="332" cy="533.3105" fill="#84BE84" rx="3" ry="3" style="stroke:#038048;stroke-width:1.0;"/><text fill="#000000" font-family="sans-serif" font-size="14" lengthAdjust="spacing" textLength="237" x="341" y="537.6074">verifyCourseExists(code) : CourseDto</text><ellipse cx="332" cy="551.9316" fill="#84BE84" rx="3" ry="3" style="stroke:#038048;stroke-width:1.0;"/><text fill="#000000" font-family="sans-serif" font-size="14" lengthAdjust="spacing" textLength="220" x="341" y="556.2285">enableenrollments(code) : boolean</text><ellipse cx="332" cy="570.5527" fill="#84BE84" rx="3" ry="3" style="stroke:#038048;stroke-width:1.0;"/><text fill="#000000" font-family="sans-serif" font-size="14" lengthAdjust="spacing" textLength="222" x="341" y="574.8496">disableenrollments(code) : boolean</text><ellipse cx="332" cy="589.1738" fill="#84BE84" rx="3" ry="3" style="stroke:#038048;stroke-width:1.0;"/><text fill="#000000" font-family="sans-serif" font-size="14" lengthAdjust="spacing" textLength="274" x="341" y="593.4707">saveSatusChange(CourseDto) : CourseDto</text></g><!--class OpenCloseEnrollmentController--><g id="elem_OpenCloseEnrollmentController"><rect codeLine="42" fill="#F1F1F1" height="141.1055" id="OpenCloseEnrollmentController" rx="2.5" ry="2.5" style="stroke:#181818;stroke-width:0.5;" width="277" x="656.5" y="469"/><ellipse cx="691.75" cy="485" fill="#ADD1B2" rx="11" ry="11" style="stroke:#181818;stroke-width:1.0;"/><path d="M694.5156,480.875 Q694.6719,480.6563 694.8594,480.5469 Q695.0469,480.4375 695.2656,480.4375 Q695.6406,480.4375 695.875,480.7031 Q696.1094,480.9531 696.1094,481.5625 L696.1094,483.0156 Q696.1094,483.625 695.875,483.8906 Q695.6406,484.1563 695.2656,484.1563 Q694.9219,484.1563 694.7188,483.9531 Q694.5156,483.7656 694.4063,483.25 Q694.3594,482.8906 694.1719,482.7031 Q693.8438,482.3281 693.2344,482.1094 Q692.625,481.8906 692,481.8906 Q691.2344,481.8906 690.5938,482.2188 Q689.9688,482.5469 689.4688,483.2969 Q688.9844,484.0469 688.9844,485.0781 L688.9844,486.1719 Q688.9844,487.4063 689.875,488.2344 Q690.7656,489.0469 692.3594,489.0469 Q693.2969,489.0469 693.9531,488.7969 Q694.3438,488.6406 694.7656,488.2031 Q695.0313,487.9375 695.1719,487.8594 Q695.3281,487.7813 695.5313,487.7813 Q695.8594,487.7813 696.1094,488.0469 Q696.375,488.2969 696.375,488.6406 Q696.375,488.9844 696.0313,489.3906 Q695.5313,489.9688 694.7344,490.2969 Q693.6563,490.75 692.3594,490.75 Q690.8438,490.75 689.6406,490.125 Q688.6563,489.625 687.9688,488.5625 Q687.2813,487.4844 687.2813,486.2031 L687.2813,485.0469 Q687.2813,483.7188 687.8906,482.5781 Q688.5156,481.4219 689.6094,480.8125 Q690.7031,480.1875 691.9375,480.1875 Q692.6719,480.1875 693.3125,480.3594 Q693.9688,480.5156 694.5156,480.875 Z " fill="#000000"/><text fill="#000000" font-family="sans-serif" font-size="14" lengthAdjust="spacing" textLength="200" x="710.25" y="490.7969">OpenCloseEnrollmentController</text><line style="stroke:#181818;stroke-width:0.5;" x1="657.5" x2="932.5" y1="501" y2="501"/><line style="stroke:#181818;stroke-width:0.5;" x1="657.5" x2="932.5" y1="509" y2="509"/><ellipse cx="667.5" cy="523.8105" fill="#84BE84" rx="3" ry="3" style="stroke:#038048;stroke-width:1.0;"/><text fill="#000000" font-family="sans-serif" font-size="14" lengthAdjust="spacing" textLength="220" x="676.5" y="528.1074">verifyCourseExists(code) : boolean</text><ellipse cx="667.5" cy="542.4316" fill="#84BE84" rx="3" ry="3" style="stroke:#038048;stroke-width:1.0;"/><text fill="#000000" font-family="sans-serif" font-size="14" lengthAdjust="spacing" textLength="251" x="676.5" y="546.7285">VerifyCourseIsActive(code) : CourseDto</text><ellipse cx="667.5" cy="561.0527" fill="#84BE84" rx="3" ry="3" style="stroke:#038048;stroke-width:1.0;"/><text fill="#000000" font-family="sans-serif" font-size="14" lengthAdjust="spacing" textLength="220" x="676.5" y="565.3496">enableenrollments(code) : boolean</text><ellipse cx="667.5" cy="579.6738" fill="#84BE84" rx="3" ry="3" style="stroke:#038048;stroke-width:1.0;"/><text fill="#000000" font-family="sans-serif" font-size="14" lengthAdjust="spacing" textLength="222" x="676.5" y="583.9707">disableenrollments(code) : boolean</text><ellipse cx="667.5" cy="598.2949" fill="#84BE84" rx="3" ry="3" style="stroke:#038048;stroke-width:1.0;"/><text fill="#000000" font-family="sans-serif" font-size="14" lengthAdjust="spacing" textLength="80" x="676.5" y="602.5918">add(Course)</text></g><!--class CourseStatus--><g id="elem_CourseStatus"><rect codeLine="50" fill="#F1F1F1" height="135.0664" id="CourseStatus" rx="2.5" ry="2.5" style="stroke:#181818;stroke-width:0.5;" width="184" x="7" y="682.5"/><ellipse cx="51.75" cy="704.791" fill="#ADD1B2" rx="11" ry="11" style="stroke:#181818;stroke-width:1.0;"/><path d="M54.5156,700.666 Q54.6719,700.4473 54.8594,700.3379 Q55.0469,700.2285 55.2656,700.2285 Q55.6406,700.2285 55.875,700.4941 Q56.1094,700.7441 56.1094,701.3535 L56.1094,702.8066 Q56.1094,703.416 55.875,703.6816 Q55.6406,703.9473 55.2656,703.9473 Q54.9219,703.9473 54.7188,703.7441 Q54.5156,703.5566 54.4063,703.041 Q54.3594,702.6816 54.1719,702.4941 Q53.8438,702.1191 53.2344,701.9004 Q52.625,701.6816 52,701.6816 Q51.2344,701.6816 50.5938,702.0098 Q49.9688,702.3379 49.4688,703.0879 Q48.9844,703.8379 48.9844,704.8691 L48.9844,705.9629 Q48.9844,707.1973 49.875,708.0254 Q50.7656,708.8379 52.3594,708.8379 Q53.2969,708.8379 53.9531,708.5879 Q54.3438,708.4316 54.7656,707.9941 Q55.0313,707.7285 55.1719,707.6504 Q55.3281,707.5723 55.5313,707.5723 Q55.8594,707.5723 56.1094,707.8379 Q56.375,708.0879 56.375,708.4316 Q56.375,708.7754 56.0313,709.1816 Q55.5313,709.7598 54.7344,710.0879 Q53.6563,710.541 52.3594,710.541 Q50.8438,710.541 49.6406,709.916 Q48.6563,709.416 47.9688,708.3535 Q47.2813,707.2754 47.2813,705.9941 L47.2813,704.8379 Q47.2813,703.5098 47.8906,702.3691 Q48.5156,701.2129 49.6094,700.6035 Q50.7031,699.9785 51.9375,699.9785 Q52.6719,699.9785 53.3125,700.1504 Q53.9688,700.3066 54.5156,700.666 Z " fill="#000000"/><text fill="#000000" font-family="sans-serif" font-size="12" font-style="italic" lengthAdjust="spacing" textLength="84" x="73.25" y="700.4492">&#171;enumeration&#187;</text><text fill="#000000" font-family="sans-serif" font-size="14" lengthAdjust="spacing" textLength="86" x="72.25" y="718.5684">CourseStatus</text><line style="stroke:#181818;stroke-width:0.5;" x1="8" x2="190" y1="727.082" y2="727.082"/><ellipse cx="18" cy="741.8926" fill="none" rx="3" ry="3" style="stroke:#038048;stroke-width:1.0;"/><text fill="#000000" font-family="sans-serif" font-size="14" lengthAdjust="spacing" textLength="38" x="27" y="746.1895">OPEN</text><ellipse cx="18" cy="760.5137" fill="none" rx="3" ry="3" style="stroke:#038048;stroke-width:1.0;"/><text fill="#000000" font-family="sans-serif" font-size="14" lengthAdjust="spacing" textLength="139" x="27" y="764.8105">OPEN_ENROLLMENT</text><ellipse cx="18" cy="779.1348" fill="none" rx="3" ry="3" style="stroke:#038048;stroke-width:1.0;"/><text fill="#000000" font-family="sans-serif" font-size="14" lengthAdjust="spacing" textLength="158" x="27" y="783.4316">CLOSED_ENROLLMENT</text><ellipse cx="18" cy="797.7559" fill="none" rx="3" ry="3" style="stroke:#038048;stroke-width:1.0;"/><text fill="#000000" font-family="sans-serif" font-size="14" lengthAdjust="spacing" textLength="57" x="27" y="802.0527">CLOSED</text><line style="stroke:#181818;stroke-width:0.5;" x1="8" x2="190" y1="809.5664" y2="809.5664"/></g><!--class RepositoryFactory--><g id="elem_RepositoryFactory"><rect codeLine="57" fill="#F1F1F1" height="48" id="RepositoryFactory" rx="2.5" ry="2.5" style="stroke:#181818;stroke-width:0.5;" width="148" x="848" y="726"/><ellipse cx="863" cy="742" fill="#ADD1B2" rx="11" ry="11" style="stroke:#181818;stroke-width:1.0;"/><path d="M865.7656,737.875 Q865.9219,737.6563 866.1094,737.5469 Q866.2969,737.4375 866.5156,737.4375 Q866.8906,737.4375 867.125,737.7031 Q867.3594,737.9531 867.3594,738.5625 L867.3594,740.0156 Q867.3594,740.625 867.125,740.8906 Q866.8906,741.1563 866.5156,741.1563 Q866.1719,741.1563 865.9688,740.9531 Q865.7656,740.7656 865.6563,740.25 Q865.6094,739.8906 865.4219,739.7031 Q865.0938,739.3281 864.4844,739.1094 Q863.875,738.8906 863.25,738.8906 Q862.4844,738.8906 861.8438,739.2188 Q861.2188,739.5469 860.7188,740.2969 Q860.2344,741.0469 860.2344,742.0781 L860.2344,743.1719 Q860.2344,744.4063 861.125,745.2344 Q862.0156,746.0469 863.6094,746.0469 Q864.5469,746.0469 865.2031,745.7969 Q865.5938,745.6406 866.0156,745.2031 Q866.2813,744.9375 866.4219,744.8594 Q866.5781,744.7813 866.7813,744.7813 Q867.1094,744.7813 867.3594,745.0469 Q867.625,745.2969 867.625,745.6406 Q867.625,745.9844 867.2813,746.3906 Q866.7813,746.9688 865.9844,747.2969 Q864.9063,747.75 863.6094,747.75 Q862.0938,747.75 860.8906,747.125 Q859.9063,746.625 859.2188,745.5625 Q858.5313,744.4844 858.5313,743.2031 L858.5313,742.0469 Q858.5313,740.7188 859.1406,739.5781 Q859.7656,738.4219 860.8594,737.8125 Q861.9531,737.1875 863.1875,737.1875 Q863.9219,737.1875 864.5625,737.3594 Q865.2188,737.5156 865.7656,737.875 Z " fill="#000000"/><text fill="#000000" font-family="sans-serif" font-size="14" lengthAdjust="spacing" textLength="116" x="877" y="747.7969">RepositoryFactory</text><line style="stroke:#181818;stroke-width:0.5;" x1="849" x2="995" y1="758" y2="758"/><line style="stroke:#181818;stroke-width:0.5;" x1="849" x2="995" y1="766" y2="766"/></g><!--link Course to CourseRepository--><g id="link_Course_CourseRepository"><path codeLine="65" d="M545.71,830.22 C561.15,850.06 577.48,871.01 592.08,889.76 " fill="none" id="Course-CourseRepository" style="stroke:#181818;stroke-width:1.0;"/></g><!--link CourseStatus to Course--><g id="link_CourseStatus_Course"><path codeLine="66" d="M191.11,750 C202.84,750 214.57,750 226.29,750 " fill="none" id="CourseStatus-Course" style="stroke:#181818;stroke-width:1.0;"/></g><!--link eCourseSystemUser to OpenCloseEnrollmentUI--><g id="link_eCourseSystemUser_OpenCloseEnrollmentUI"><path codeLine="68" d="M471,409.22 C471,434.28 471,458.2 471,478.49 " fill="none" id="eCourseSystemUser-OpenCloseEnrollmentUI" style="stroke:#181818;stroke-width:1.0;stroke-dasharray:7.0,7.0;"/></g><!--link OpenCloseEnrollmentUI to OpenCloseEnrollmentController--><g id="link_OpenCloseEnrollmentUI_OpenCloseEnrollmentController"><path codeLine="69" d="M621.29,539.5 C632.94,539.5 644.59,539.5 656.24,539.5 " fill="none" id="OpenCloseEnrollmentUI-OpenCloseEnrollmentController" style="stroke:#181818;stroke-width:1.0;stroke-dasharray:7.0,7.0;"/></g><!--link OpenCloseEnrollmentController to CourseRepository--><g id="link_OpenCloseEnrollmentController_CourseRepository"><path codeLine="70" d="M798.73,610.17 C799.2,671.16 792.91,760.61 759,830 C748.26,851.97 731.87,872.31 714.63,889.76 " fill="none" id="OpenCloseEnrollmentController-CourseRepository" style="stroke:#181818;stroke-width:1.0;stroke-dasharray:7.0,7.0;"/></g><!--link OpenCloseEnrollmentController to Course--><g id="link_OpenCloseEnrollmentController_Course"><path codeLine="71" d="M691.01,610.22 C662.4,629.4 631.17,650.33 601.85,669.99 " fill="none" id="OpenCloseEnrollmentController-Course" style="stroke:#181818;stroke-width:1.0;stroke-dasharray:7.0,7.0;"/></g><!--link OpenCloseEnrollmentController to RepositoryFactory--><g id="link_OpenCloseEnrollmentController_RepositoryFactory"><path codeLine="72" d="M837.47,610.22 C861.84,650.23 890.87,697.9 907.79,725.67 " fill="none" id="OpenCloseEnrollmentController-RepositoryFactory" style="stroke:#181818;stroke-width:1.0;stroke-dasharray:7.0,7.0;"/></g><!--link RepositoryFactory to CourseRepository--><g id="link_RepositoryFactory_CourseRepository"><path codeLine="73" d="M893.74,774.1 C873.74,790.2 846.12,811.94 821,830 C794.46,849.08 765.1,868.95 737.86,886.9 " fill="none" id="RepositoryFactory-to-CourseRepository" style="stroke:#181818;stroke-width:1.0;stroke-dasharray:7.0,7.0;"/><polygon fill="#181818" points="733.51,889.77,743.2238,888.1444,737.6812,887.013,738.8126,881.4704,733.51,889.77" style="stroke:#181818;stroke-width:1.0;"/></g><!--link CourseRepository to CourseStatus--><g id="link_CourseRepository_CourseStatus"><path codeLine="74" d="M371.3,890.98 C316.31,874.55 259.75,854.36 209,830 C202.92,827.08 196.82,823.82 190.78,820.34 " fill="none" id="CourseRepository-to-CourseStatus" style="stroke:#181818;stroke-width:1.0;stroke-dasharray:7.0,7.0;"/><polygon fill="#181818" points="186.18,817.64,191.9024,825.6559,190.4875,820.1788,195.9645,818.7639,186.18,817.64" style="stroke:#181818;stroke-width:1.0;"/></g><!--SRC=[lLNRZfim47ttL_YjsIxX0wmeKfgmLQIKhC9kdrQg79W4Is17jaaRLVttsc1k2vkDgbNp06Pcc9bpvWo9CweKXgKef8BeeZJapmea_esm-Nt6GKvPjaWIa63Zx9FpsB18KrqehCgRis-OqhCgtnp7vLqz0OrJne_lXK3Y8XQn5FoIOrhTdJLSFs3E3kxf2vCwNL4DU5-VdEUhf0dWexqw2-CQvn1JBeprbB8uBF8zIEVju5RDiVJT3wcPH5eQA0HpceE7wwT3aMLXpw9I8NLbseaC29Rcwk4NNf5AAZOz_6Wcy5F8nCEdvhGN9fPougYzkx6PvZK9H-2wxSNnM5QtD1BBezTII5eERuHa4dLH_JEaI1U9QVKL43ClCZQmZmNmCGWMcGRPRiDa4FO7eRXSisfwpMvPKR9QyHQtExeXZ-pMKXXTnwAHTRKqqetRzLEzFgcorz0ThoEflJQhzohXeFKTd8HYMiYB0t6FQPAuWjKY4xVGDJiISd66go5daEnm6GyXDUi3SAI3Zep08pryf0-G315kJy2NcL0GS2E8B3VUvtK3izjZyCjylzJ49hp3n1LTQL4lAQVx3A39qaRseIHCtHQew1aY2sMPKdw4ILEmN_qQagNWsfwRB_jLHFtotpk1QxM8DJl3_mDlzEK03zJeP3oR0Izoa5GpmUVp1k3sCGWxnnz1kDjkDj-2yAdMqcOR1Qktx6srLlKFD7RYjrw4FkqWAykgb9qKGcx1fzF1lZZND8E3dlRwHsZux-lxut94uoBr9Jkcshy-U7HT5gRaeESRttW_Ri0W6dBg-_EtMEjyTjgechs_]--></g></svg>