<?xml version="1.0" encoding="us-ascii" standalone="no"?><svg xmlns="http://www.w3.org/2000/svg" xmlns:xlink="http://www.w3.org/1999/xlink" contentStyleType="text/css" height="709px" preserveAspectRatio="none" style="width:1725px;height:709px;background:#FFFFFF;" version="1.1" viewBox="0 0 1725 709" width="1725px" zoomAndPan="magnify"><defs/><g><!--cluster ECOURSESYSTEMUSER--><g id="cluster_ECOURSESYSTEMUSER"><path d="M22.24,124.58 L187.24,124.58 A3.75,3.75 0 0 1 189.74,127.08 L196.74,149.2011 L1128.24,149.2011 A2.5,2.5 0 0 1 1130.74,151.7011 L1130.74,700.08 A2.5,2.5 0 0 1 1128.24,702.58 L22.24,702.58 A2.5,2.5 0 0 1 19.74,700.08 L19.74,127.08 A2.5,2.5 0 0 1 22.24,124.58 " fill="none" style="stroke:#000000;stroke-width:1.5;"/><line style="stroke:#000000;stroke-width:1.5;" x1="19.74" x2="196.74" y1="149.2011" y2="149.2011"/><text fill="#000000" font-family="sans-serif" font-size="14" font-weight="bold" lengthAdjust="spacing" textLength="164" x="23.74" y="141.6874">ECOURSESYSTEMUSER</text><text fill="#000000" font-family="sans-serif" font-size="14" font-style="italic" lengthAdjust="spacing" textLength="82" x="538.24" y="166.3085">&#171;Aggregate&#187;</text></g><!--cluster COURSE--><g id="cluster_COURSE"><path d="M1157.24,51.58 L1217.24,51.58 A3.75,3.75 0 0 1 1219.74,54.08 L1226.74,76.2011 L1716.24,76.2011 A2.5,2.5 0 0 1 1718.74,78.7011 L1718.74,558.08 A2.5,2.5 0 0 1 1716.24,560.58 L1157.24,560.58 A2.5,2.5 0 0 1 1154.74,558.08 L1154.74,54.08 A2.5,2.5 0 0 1 1157.24,51.58 " fill="none" style="stroke:#000000;stroke-width:1.5;"/><line style="stroke:#000000;stroke-width:1.5;" x1="1154.74" x2="1226.74" y1="76.2011" y2="76.2011"/><text fill="#000000" font-family="sans-serif" font-size="14" font-weight="bold" lengthAdjust="spacing" textLength="59" x="1158.74" y="68.6874">COURSE</text><text fill="#000000" font-family="sans-serif" font-size="14" font-style="italic" lengthAdjust="spacing" textLength="81" x="1400.24" y="93.3085">&#171;aggregate&#187;</text></g><!--cluster COURSE--><g id="cluster_COURSE"><path d="M1257.24,115.58 L1317.24,115.58 A3.75,3.75 0 0 1 1319.74,118.08 L1326.74,140.2011 L1615.24,140.2011 A2.5,2.5 0 0 1 1617.74,142.7011 L1617.74,534.08 A2.5,2.5 0 0 1 1615.24,536.58 L1257.24,536.58 A2.5,2.5 0 0 1 1254.74,534.08 L1254.74,118.08 A2.5,2.5 0 0 1 1257.24,115.58 " fill="none" style="stroke:#000000;stroke-width:1.5;"/><line style="stroke:#000000;stroke-width:1.5;" x1="1254.74" x2="1326.74" y1="140.2011" y2="140.2011"/><text fill="#000000" font-family="sans-serif" font-size="14" font-weight="bold" lengthAdjust="spacing" textLength="59" x="1258.74" y="132.6874">COURSE</text><text fill="#000000" font-family="sans-serif" font-size="14" font-style="italic" lengthAdjust="spacing" textLength="81" x="1399.74" y="157.3085">&#171;aggregate&#187;</text></g><!--class SystemUser--><g id="elem_SystemUser"><rect codeLine="3" fill="#F1F1F1" height="113.7852" id="SystemUser" rx="2.5" ry="2.5" style="stroke:#181818;stroke-width:0.5;" width="107" x="73.24" y="396.08"/><ellipse cx="88.24" cy="426.3515" fill="#ADD1B2" rx="11" ry="11" style="stroke:#181818;stroke-width:1.0;"/><path d="M91.0056,422.2265 Q91.1619,422.0077 91.3494,421.8984 Q91.5369,421.789 91.7556,421.789 Q92.1306,421.789 92.365,422.0546 Q92.5994,422.3046 92.5994,422.914 L92.5994,424.3671 Q92.5994,424.9765 92.365,425.2421 Q92.1306,425.5077 91.7556,425.5077 Q91.4119,425.5077 91.2088,425.3046 Q91.0056,425.1171 90.8963,424.6015 Q90.8494,424.2421 90.6619,424.0546 Q90.3338,423.6796 89.7244,423.4609 Q89.115,423.2421 88.49,423.2421 Q87.7244,423.2421 87.0838,423.5702 Q86.4588,423.8984 85.9588,424.6484 Q85.4744,425.3984 85.4744,426.4296 L85.4744,427.5234 Q85.4744,428.7577 86.365,429.5859 Q87.2556,430.3984 88.8494,430.3984 Q89.7869,430.3984 90.4431,430.1484 Q90.8338,429.9921 91.2556,429.5546 Q91.5213,429.289 91.6619,429.2109 Q91.8181,429.1327 92.0213,429.1327 Q92.3494,429.1327 92.5994,429.3984 Q92.865,429.6484 92.865,429.9921 Q92.865,430.3359 92.5213,430.7421 Q92.0213,431.3202 91.2244,431.6484 Q90.1463,432.1015 88.8494,432.1015 Q87.3338,432.1015 86.1306,431.4765 Q85.1463,430.9765 84.4588,429.914 Q83.7713,428.8359 83.7713,427.5546 L83.7713,426.3984 Q83.7713,425.0702 84.3806,423.9296 Q85.0056,422.7734 86.0994,422.164 Q87.1931,421.539 88.4275,421.539 Q89.1619,421.539 89.8025,421.7109 Q90.4588,421.8671 91.0056,422.2265 Z " fill="#000000"/><text fill="#000000" font-family="sans-serif" font-size="12" font-style="italic" lengthAdjust="spacing" textLength="35" x="122.24" y="414.0292">&#171;root&#187;</text><text fill="#000000" font-family="sans-serif" font-size="12" font-style="italic" lengthAdjust="spacing" textLength="44" x="117.74" y="429.9902">&#171;Entity&#187;</text><text fill="#000000" font-family="sans-serif" font-size="14" lengthAdjust="spacing" textLength="75" x="102.24" y="448.1093">SystemUser</text><line style="stroke:#181818;stroke-width:0.5;" x1="74.24" x2="179.24" y1="456.623" y2="456.623"/><ellipse cx="84.24" cy="471.4335" fill="#000000" rx="3" ry="3" style="stroke:#000000;stroke-width:1.0;"/><text fill="#000000" font-family="sans-serif" font-size="14" lengthAdjust="spacing" textLength="36" x="93.24" y="475.7304">Name</text><ellipse cx="84.24" cy="490.0546" fill="#000000" rx="3" ry="3" style="stroke:#000000;stroke-width:1.0;"/><text fill="#000000" font-family="sans-serif" font-size="14" lengthAdjust="spacing" textLength="64" x="93.24" y="494.3515">Username</text><line style="stroke:#181818;stroke-width:0.5;" x1="74.24" x2="179.24" y1="501.8652" y2="501.8652"/></g><!--class eCourseSystemUser--><g id="elem_eCourseSystemUser"><rect codeLine="8" fill="#F1F1F1" height="76.543" id="eCourseSystemUser" rx="2.5" ry="2.5" style="stroke:#181818;stroke-width:0.5;" width="161" x="868.24" y="220.58"/><ellipse cx="883.24" cy="250.8515" fill="#ADD1B2" rx="11" ry="11" style="stroke:#181818;stroke-width:1.0;"/><path d="M886.0056,246.7265 Q886.1619,246.5077 886.3494,246.3984 Q886.5369,246.289 886.7556,246.289 Q887.1306,246.289 887.365,246.5546 Q887.5994,246.8046 887.5994,247.414 L887.5994,248.8671 Q887.5994,249.4765 887.365,249.7421 Q887.1306,250.0077 886.7556,250.0077 Q886.4119,250.0077 886.2088,249.8046 Q886.0056,249.6171 885.8963,249.1015 Q885.8494,248.7421 885.6619,248.5546 Q885.3338,248.1796 884.7244,247.9609 Q884.115,247.7421 883.49,247.7421 Q882.7244,247.7421 882.0838,248.0702 Q881.4588,248.3984 880.9588,249.1484 Q880.4744,249.8984 880.4744,250.9296 L880.4744,252.0234 Q880.4744,253.2577 881.365,254.0859 Q882.2556,254.8984 883.8494,254.8984 Q884.7869,254.8984 885.4431,254.6484 Q885.8338,254.4921 886.2556,254.0546 Q886.5213,253.789 886.6619,253.7109 Q886.8181,253.6327 887.0213,253.6327 Q887.3494,253.6327 887.5994,253.8984 Q887.865,254.1484 887.865,254.4921 Q887.865,254.8359 887.5213,255.2421 Q887.0213,255.8202 886.2244,256.1484 Q885.1463,256.6015 883.8494,256.6015 Q882.3338,256.6015 881.1306,255.9765 Q880.1463,255.4765 879.4588,254.414 Q878.7713,253.3359 878.7713,252.0546 L878.7713,250.8984 Q878.7713,249.5702 879.3806,248.4296 Q880.0056,247.2734 881.0994,246.664 Q882.1931,246.039 883.4275,246.039 Q884.1619,246.039 884.8025,246.2109 Q885.4588,246.3671 886.0056,246.7265 Z " fill="#000000"/><text fill="#000000" font-family="sans-serif" font-size="12" font-style="italic" lengthAdjust="spacing" textLength="35" x="944.24" y="238.5292">&#171;root&#187;</text><text fill="#000000" font-family="sans-serif" font-size="12" font-style="italic" lengthAdjust="spacing" textLength="44" x="939.74" y="254.4902">&#171;Entity&#187;</text><text fill="#000000" font-family="sans-serif" font-size="14" lengthAdjust="spacing" textLength="129" x="897.24" y="272.6093">eCourseSystemUser</text><line style="stroke:#181818;stroke-width:0.5;" x1="869.24" x2="1028.24" y1="281.123" y2="281.123"/><line style="stroke:#181818;stroke-width:0.5;" x1="869.24" x2="1028.24" y1="289.123" y2="289.123"/></g><!--class EmailAdderss--><g id="elem_EmailAdderss"><rect codeLine="12" fill="#F1F1F1" height="60.582" id="EmailAdderss" rx="2.5" ry="2.5" style="stroke:#181818;stroke-width:0.5;" width="118" x="172.74" y="616.58"/><ellipse cx="187.74" cy="638.871" fill="#ADD1B2" rx="11" ry="11" style="stroke:#181818;stroke-width:1.0;"/><path d="M190.5056,634.746 Q190.6619,634.5273 190.8494,634.4179 Q191.0369,634.3085 191.2556,634.3085 Q191.6306,634.3085 191.865,634.5741 Q192.0994,634.8241 192.0994,635.4335 L192.0994,636.8866 Q192.0994,637.496 191.865,637.7616 Q191.6306,638.0273 191.2556,638.0273 Q190.9119,638.0273 190.7088,637.8241 Q190.5056,637.6366 190.3963,637.121 Q190.3494,636.7616 190.1619,636.5741 Q189.8338,636.1991 189.2244,635.9804 Q188.615,635.7616 187.99,635.7616 Q187.2244,635.7616 186.5838,636.0898 Q185.9588,636.4179 185.4588,637.1679 Q184.9744,637.9179 184.9744,638.9491 L184.9744,640.0429 Q184.9744,641.2773 185.865,642.1054 Q186.7556,642.9179 188.3494,642.9179 Q189.2869,642.9179 189.9431,642.6679 Q190.3338,642.5116 190.7556,642.0741 Q191.0213,641.8085 191.1619,641.7304 Q191.3181,641.6523 191.5213,641.6523 Q191.8494,641.6523 192.0994,641.9179 Q192.365,642.1679 192.365,642.5116 Q192.365,642.8554 192.0213,643.2616 Q191.5213,643.8398 190.7244,644.1679 Q189.6463,644.621 188.3494,644.621 Q186.8338,644.621 185.6306,643.996 Q184.6463,643.496 183.9588,642.4335 Q183.2713,641.3554 183.2713,640.0741 L183.2713,638.9179 Q183.2713,637.5898 183.8806,636.4491 Q184.5056,635.2929 185.5994,634.6835 Q186.6931,634.0585 187.9275,634.0585 Q188.6619,634.0585 189.3025,634.2304 Q189.9588,634.3866 190.5056,634.746 Z " fill="#000000"/><text fill="#000000" font-family="sans-serif" font-size="12" font-style="italic" lengthAdjust="spacing" textLength="83" x="203.24" y="634.5292">&#171;Value object&#187;</text><text fill="#000000" font-family="sans-serif" font-size="14" lengthAdjust="spacing" textLength="86" x="201.74" y="652.6484">EmailAdderss</text><line style="stroke:#181818;stroke-width:0.5;" x1="173.74" x2="289.74" y1="661.162" y2="661.162"/><line style="stroke:#181818;stroke-width:0.5;" x1="173.74" x2="289.74" y1="669.162" y2="669.162"/></g><!--class Role--><g id="elem_Role"><rect codeLine="14" fill="#F1F1F1" height="79.2031" id="Role" rx="2.5" ry="2.5" style="stroke:#181818;stroke-width:0.5;" width="102" x="35.74" y="607.58"/><ellipse cx="64.24" cy="629.871" fill="#ADD1B2" rx="11" ry="11" style="stroke:#181818;stroke-width:1.0;"/><path d="M67.0056,625.746 Q67.1619,625.5273 67.3494,625.4179 Q67.5369,625.3085 67.7556,625.3085 Q68.1306,625.3085 68.365,625.5741 Q68.5994,625.8241 68.5994,626.4335 L68.5994,627.8866 Q68.5994,628.496 68.365,628.7616 Q68.1306,629.0273 67.7556,629.0273 Q67.4119,629.0273 67.2088,628.8241 Q67.0056,628.6366 66.8963,628.121 Q66.8494,627.7616 66.6619,627.5741 Q66.3338,627.1991 65.7244,626.9804 Q65.115,626.7616 64.49,626.7616 Q63.7244,626.7616 63.0838,627.0898 Q62.4588,627.4179 61.9588,628.1679 Q61.4744,628.9179 61.4744,629.9491 L61.4744,631.0429 Q61.4744,632.2773 62.365,633.1054 Q63.2556,633.9179 64.8494,633.9179 Q65.7869,633.9179 66.4431,633.6679 Q66.8338,633.5116 67.2556,633.0741 Q67.5213,632.8085 67.6619,632.7304 Q67.8181,632.6523 68.0213,632.6523 Q68.3494,632.6523 68.5994,632.9179 Q68.865,633.1679 68.865,633.5116 Q68.865,633.8554 68.5213,634.2616 Q68.0213,634.8398 67.2244,635.1679 Q66.1463,635.621 64.8494,635.621 Q63.3338,635.621 62.1306,634.996 Q61.1463,634.496 60.4588,633.4335 Q59.7713,632.3554 59.7713,631.0741 L59.7713,629.9179 Q59.7713,628.5898 60.3806,627.4491 Q61.0056,626.2929 62.0994,625.6835 Q63.1931,625.0585 64.4275,625.0585 Q65.1619,625.0585 65.8025,625.2304 Q66.4588,625.3866 67.0056,625.746 Z " fill="#000000"/><text fill="#000000" font-family="sans-serif" font-size="12" font-style="italic" lengthAdjust="spacing" textLength="44" x="79.24" y="625.5292">&#171;Entity&#187;</text><text fill="#000000" font-family="sans-serif" font-size="14" lengthAdjust="spacing" textLength="29" x="86.74" y="643.6484">Role</text><line style="stroke:#181818;stroke-width:0.5;" x1="36.74" x2="136.74" y1="652.162" y2="652.162"/><ellipse cx="46.74" cy="666.9726" fill="#000000" rx="3" ry="3" style="stroke:#000000;stroke-width:1.0;"/><text fill="#000000" font-family="sans-serif" font-size="14" lengthAdjust="spacing" textLength="76" x="55.74" y="671.2695">String name</text><line style="stroke:#181818;stroke-width:0.5;" x1="36.74" x2="136.74" y1="678.7831" y2="678.7831"/></g><!--class UserStatus--><g id="elem_UserStatus"><rect codeLine="18" fill="#F1F1F1" height="97.8242" id="UserStatus" rx="2.5" ry="2.5" style="stroke:#181818;stroke-width:0.5;" width="101" x="215.24" y="404.08"/><ellipse cx="230.24" cy="426.371" fill="#ADD1B2" rx="11" ry="11" style="stroke:#181818;stroke-width:1.0;"/><path d="M233.0056,422.246 Q233.1619,422.0273 233.3494,421.9179 Q233.5369,421.8085 233.7556,421.8085 Q234.1306,421.8085 234.365,422.0741 Q234.5994,422.3241 234.5994,422.9335 L234.5994,424.3866 Q234.5994,424.996 234.365,425.2616 Q234.1306,425.5273 233.7556,425.5273 Q233.4119,425.5273 233.2088,425.3241 Q233.0056,425.1366 232.8963,424.621 Q232.8494,424.2616 232.6619,424.0741 Q232.3338,423.6991 231.7244,423.4804 Q231.115,423.2616 230.49,423.2616 Q229.7244,423.2616 229.0838,423.5898 Q228.4588,423.9179 227.9588,424.6679 Q227.4744,425.4179 227.4744,426.4491 L227.4744,427.5429 Q227.4744,428.7773 228.365,429.6054 Q229.2556,430.4179 230.8494,430.4179 Q231.7869,430.4179 232.4431,430.1679 Q232.8338,430.0116 233.2556,429.5741 Q233.5213,429.3085 233.6619,429.2304 Q233.8181,429.1523 234.0213,429.1523 Q234.3494,429.1523 234.5994,429.4179 Q234.865,429.6679 234.865,430.0116 Q234.865,430.3554 234.5213,430.7616 Q234.0213,431.3398 233.2244,431.6679 Q232.1463,432.121 230.8494,432.121 Q229.3338,432.121 228.1306,431.496 Q227.1463,430.996 226.4588,429.9335 Q225.7713,428.8554 225.7713,427.5741 L225.7713,426.4179 Q225.7713,425.0898 226.3806,423.9491 Q227.0056,422.7929 228.0994,422.1835 Q229.1931,421.5585 230.4275,421.5585 Q231.1619,421.5585 231.8025,421.7304 Q232.4588,421.8866 233.0056,422.246 Z " fill="#000000"/><text fill="#000000" font-family="sans-serif" font-size="12" font-style="italic" lengthAdjust="spacing" textLength="46" x="255.74" y="422.0292">&#171;enum&#187;</text><text fill="#000000" font-family="sans-serif" font-size="14" lengthAdjust="spacing" textLength="69" x="244.24" y="440.1484">UserStatus</text><line style="stroke:#181818;stroke-width:0.5;" x1="216.24" x2="315.24" y1="448.662" y2="448.662"/><ellipse cx="226.24" cy="463.4726" fill="none" rx="3" ry="3" style="stroke:#038048;stroke-width:1.0;"/><text fill="#000000" font-family="sans-serif" font-size="14" lengthAdjust="spacing" textLength="53" x="235.24" y="467.7695">ENABLE</text><ellipse cx="226.24" cy="482.0937" fill="none" rx="3" ry="3" style="stroke:#038048;stroke-width:1.0;"/><text fill="#000000" font-family="sans-serif" font-size="14" lengthAdjust="spacing" textLength="57" x="235.24" y="486.3905">DISABLE</text><line style="stroke:#181818;stroke-width:0.5;" x1="216.24" x2="315.24" y1="493.9042" y2="493.9042"/></g><!--class Password--><g id="elem_Password"><rect codeLine="23" fill="#F1F1F1" height="60.582" id="Password" rx="2.5" ry="2.5" style="stroke:#181818;stroke-width:0.5;" width="109" x="326.24" y="616.58"/><ellipse cx="341.24" cy="638.871" fill="#ADD1B2" rx="11" ry="11" style="stroke:#181818;stroke-width:1.0;"/><path d="M344.0056,634.746 Q344.1619,634.5273 344.3494,634.4179 Q344.5369,634.3085 344.7556,634.3085 Q345.1306,634.3085 345.365,634.5741 Q345.5994,634.8241 345.5994,635.4335 L345.5994,636.8866 Q345.5994,637.496 345.365,637.7616 Q345.1306,638.0273 344.7556,638.0273 Q344.4119,638.0273 344.2088,637.8241 Q344.0056,637.6366 343.8963,637.121 Q343.8494,636.7616 343.6619,636.5741 Q343.3338,636.1991 342.7244,635.9804 Q342.115,635.7616 341.49,635.7616 Q340.7244,635.7616 340.0838,636.0898 Q339.4588,636.4179 338.9588,637.1679 Q338.4744,637.9179 338.4744,638.9491 L338.4744,640.0429 Q338.4744,641.2773 339.365,642.1054 Q340.2556,642.9179 341.8494,642.9179 Q342.7869,642.9179 343.4431,642.6679 Q343.8338,642.5116 344.2556,642.0741 Q344.5213,641.8085 344.6619,641.7304 Q344.8181,641.6523 345.0213,641.6523 Q345.3494,641.6523 345.5994,641.9179 Q345.865,642.1679 345.865,642.5116 Q345.865,642.8554 345.5213,643.2616 Q345.0213,643.8398 344.2244,644.1679 Q343.1463,644.621 341.8494,644.621 Q340.3338,644.621 339.1306,643.996 Q338.1463,643.496 337.4588,642.4335 Q336.7713,641.3554 336.7713,640.0741 L336.7713,638.9179 Q336.7713,637.5898 337.3806,636.4491 Q338.0056,635.2929 339.0994,634.6835 Q340.1931,634.0585 341.4275,634.0585 Q342.1619,634.0585 342.8025,634.2304 Q343.4588,634.3866 344.0056,634.746 Z " fill="#000000"/><text fill="#000000" font-family="sans-serif" font-size="12" font-style="italic" lengthAdjust="spacing" textLength="81" x="353.24" y="634.5292">&#171;value object&#187;</text><text fill="#000000" font-family="sans-serif" font-size="14" lengthAdjust="spacing" textLength="61" x="363.24" y="652.6484">Password</text><line style="stroke:#181818;stroke-width:0.5;" x1="327.24" x2="434.24" y1="661.162" y2="661.162"/><line style="stroke:#181818;stroke-width:0.5;" x1="327.24" x2="434.24" y1="669.162" y2="669.162"/></g><!--class Acronym--><g id="elem_Acronym"><rect codeLine="25" fill="#F1F1F1" height="60.582" id="Acronym" rx="2.5" ry="2.5" style="stroke:#181818;stroke-width:0.5;" width="109" x="351.24" y="422.58"/><ellipse cx="366.24" cy="444.871" fill="#ADD1B2" rx="11" ry="11" style="stroke:#181818;stroke-width:1.0;"/><path d="M369.0056,440.746 Q369.1619,440.5273 369.3494,440.4179 Q369.5369,440.3085 369.7556,440.3085 Q370.1306,440.3085 370.365,440.5741 Q370.5994,440.8241 370.5994,441.4335 L370.5994,442.8866 Q370.5994,443.496 370.365,443.7616 Q370.1306,444.0273 369.7556,444.0273 Q369.4119,444.0273 369.2088,443.8241 Q369.0056,443.6366 368.8963,443.121 Q368.8494,442.7616 368.6619,442.5741 Q368.3338,442.1991 367.7244,441.9804 Q367.115,441.7616 366.49,441.7616 Q365.7244,441.7616 365.0838,442.0898 Q364.4588,442.4179 363.9588,443.1679 Q363.4744,443.9179 363.4744,444.9491 L363.4744,446.0429 Q363.4744,447.2773 364.365,448.1054 Q365.2556,448.9179 366.8494,448.9179 Q367.7869,448.9179 368.4431,448.6679 Q368.8338,448.5116 369.2556,448.0741 Q369.5213,447.8085 369.6619,447.7304 Q369.8181,447.6523 370.0213,447.6523 Q370.3494,447.6523 370.5994,447.9179 Q370.865,448.1679 370.865,448.5116 Q370.865,448.8554 370.5213,449.2616 Q370.0213,449.8398 369.2244,450.1679 Q368.1463,450.621 366.8494,450.621 Q365.3338,450.621 364.1306,449.996 Q363.1463,449.496 362.4588,448.4335 Q361.7713,447.3554 361.7713,446.0741 L361.7713,444.9179 Q361.7713,443.5898 362.3806,442.4491 Q363.0056,441.2929 364.0994,440.6835 Q365.1931,440.0585 366.4275,440.0585 Q367.1619,440.0585 367.8025,440.2304 Q368.4588,440.3866 369.0056,440.746 Z " fill="#000000"/><text fill="#000000" font-family="sans-serif" font-size="12" font-style="italic" lengthAdjust="spacing" textLength="81" x="378.24" y="440.5292">&#171;value object&#187;</text><text fill="#000000" font-family="sans-serif" font-size="14" lengthAdjust="spacing" textLength="55" x="391.24" y="458.6484">Acronym</text><line style="stroke:#181818;stroke-width:0.5;" x1="352.24" x2="459.24" y1="467.162" y2="467.162"/><line style="stroke:#181818;stroke-width:0.5;" x1="352.24" x2="459.24" y1="475.162" y2="475.162"/></g><!--class NIF--><g id="elem_NIF"><rect codeLine="27" fill="#F1F1F1" height="60.582" id="NIF" rx="2.5" ry="2.5" style="stroke:#181818;stroke-width:0.5;" width="109" x="495.24" y="422.58"/><ellipse cx="510.24" cy="444.871" fill="#ADD1B2" rx="11" ry="11" style="stroke:#181818;stroke-width:1.0;"/><path d="M513.0056,440.746 Q513.1619,440.5273 513.3494,440.4179 Q513.5369,440.3085 513.7556,440.3085 Q514.1306,440.3085 514.365,440.5741 Q514.5994,440.8241 514.5994,441.4335 L514.5994,442.8866 Q514.5994,443.496 514.365,443.7616 Q514.1306,444.0273 513.7556,444.0273 Q513.4119,444.0273 513.2088,443.8241 Q513.0056,443.6366 512.8963,443.121 Q512.8494,442.7616 512.6619,442.5741 Q512.3338,442.1991 511.7244,441.9804 Q511.115,441.7616 510.49,441.7616 Q509.7244,441.7616 509.0838,442.0898 Q508.4588,442.4179 507.9588,443.1679 Q507.4744,443.9179 507.4744,444.9491 L507.4744,446.0429 Q507.4744,447.2773 508.365,448.1054 Q509.2556,448.9179 510.8494,448.9179 Q511.7869,448.9179 512.4431,448.6679 Q512.8338,448.5116 513.2556,448.0741 Q513.5213,447.8085 513.6619,447.7304 Q513.8181,447.6523 514.0213,447.6523 Q514.3494,447.6523 514.5994,447.9179 Q514.865,448.1679 514.865,448.5116 Q514.865,448.8554 514.5213,449.2616 Q514.0213,449.8398 513.2244,450.1679 Q512.1463,450.621 510.8494,450.621 Q509.3338,450.621 508.1306,449.996 Q507.1463,449.496 506.4588,448.4335 Q505.7713,447.3554 505.7713,446.0741 L505.7713,444.9179 Q505.7713,443.5898 506.3806,442.4491 Q507.0056,441.2929 508.0994,440.6835 Q509.1931,440.0585 510.4275,440.0585 Q511.1619,440.0585 511.8025,440.2304 Q512.4588,440.3866 513.0056,440.746 Z " fill="#000000"/><text fill="#000000" font-family="sans-serif" font-size="12" font-style="italic" lengthAdjust="spacing" textLength="81" x="522.24" y="440.5292">&#171;value object&#187;</text><text fill="#000000" font-family="sans-serif" font-size="14" lengthAdjust="spacing" textLength="21" x="552.24" y="458.6484">NIF</text><line style="stroke:#181818;stroke-width:0.5;" x1="496.24" x2="603.24" y1="467.162" y2="467.162"/><line style="stroke:#181818;stroke-width:0.5;" x1="496.24" x2="603.24" y1="475.162" y2="475.162"/></g><!--class BirthDate--><g id="elem_BirthDate"><rect codeLine="29" fill="#F1F1F1" height="60.582" id="BirthDate" rx="2.5" ry="2.5" style="stroke:#181818;stroke-width:0.5;" width="109" x="639.24" y="422.58"/><ellipse cx="654.24" cy="444.871" fill="#ADD1B2" rx="11" ry="11" style="stroke:#181818;stroke-width:1.0;"/><path d="M657.0056,440.746 Q657.1619,440.5273 657.3494,440.4179 Q657.5369,440.3085 657.7556,440.3085 Q658.1306,440.3085 658.365,440.5741 Q658.5994,440.8241 658.5994,441.4335 L658.5994,442.8866 Q658.5994,443.496 658.365,443.7616 Q658.1306,444.0273 657.7556,444.0273 Q657.4119,444.0273 657.2088,443.8241 Q657.0056,443.6366 656.8963,443.121 Q656.8494,442.7616 656.6619,442.5741 Q656.3338,442.1991 655.7244,441.9804 Q655.115,441.7616 654.49,441.7616 Q653.7244,441.7616 653.0838,442.0898 Q652.4588,442.4179 651.9588,443.1679 Q651.4744,443.9179 651.4744,444.9491 L651.4744,446.0429 Q651.4744,447.2773 652.365,448.1054 Q653.2556,448.9179 654.8494,448.9179 Q655.7869,448.9179 656.4431,448.6679 Q656.8338,448.5116 657.2556,448.0741 Q657.5213,447.8085 657.6619,447.7304 Q657.8181,447.6523 658.0213,447.6523 Q658.3494,447.6523 658.5994,447.9179 Q658.865,448.1679 658.865,448.5116 Q658.865,448.8554 658.5213,449.2616 Q658.0213,449.8398 657.2244,450.1679 Q656.1463,450.621 654.8494,450.621 Q653.3338,450.621 652.1306,449.996 Q651.1463,449.496 650.4588,448.4335 Q649.7713,447.3554 649.7713,446.0741 L649.7713,444.9179 Q649.7713,443.5898 650.3806,442.4491 Q651.0056,441.2929 652.0994,440.6835 Q653.1931,440.0585 654.4275,440.0585 Q655.1619,440.0585 655.8025,440.2304 Q656.4588,440.3866 657.0056,440.746 Z " fill="#000000"/><text fill="#000000" font-family="sans-serif" font-size="12" font-style="italic" lengthAdjust="spacing" textLength="81" x="666.24" y="440.5292">&#171;value object&#187;</text><text fill="#000000" font-family="sans-serif" font-size="14" lengthAdjust="spacing" textLength="59" x="677.24" y="458.6484">BirthDate</text><line style="stroke:#181818;stroke-width:0.5;" x1="640.24" x2="747.24" y1="467.162" y2="467.162"/><line style="stroke:#181818;stroke-width:0.5;" x1="640.24" x2="747.24" y1="475.162" y2="475.162"/></g><!--class MechanographicNumber--><g id="elem_MechanographicNumber"><rect codeLine="31" fill="#F1F1F1" height="76.543" id="MechanographicNumber" rx="2.5" ry="2.5" style="stroke:#181818;stroke-width:0.5;" width="186" x="783.74" y="414.58"/><ellipse cx="798.74" cy="444.8515" fill="#ADD1B2" rx="11" ry="11" style="stroke:#181818;stroke-width:1.0;"/><path d="M801.5056,440.7265 Q801.6619,440.5077 801.8494,440.3984 Q802.0369,440.289 802.2556,440.289 Q802.6306,440.289 802.865,440.5546 Q803.0994,440.8046 803.0994,441.414 L803.0994,442.8671 Q803.0994,443.4765 802.865,443.7421 Q802.6306,444.0077 802.2556,444.0077 Q801.9119,444.0077 801.7088,443.8046 Q801.5056,443.6171 801.3963,443.1015 Q801.3494,442.7421 801.1619,442.5546 Q800.8338,442.1796 800.2244,441.9609 Q799.615,441.7421 798.99,441.7421 Q798.2244,441.7421 797.5838,442.0702 Q796.9588,442.3984 796.4588,443.1484 Q795.9744,443.8984 795.9744,444.9296 L795.9744,446.0234 Q795.9744,447.2577 796.865,448.0859 Q797.7556,448.8984 799.3494,448.8984 Q800.2869,448.8984 800.9431,448.6484 Q801.3338,448.4921 801.7556,448.0546 Q802.0213,447.789 802.1619,447.7109 Q802.3181,447.6327 802.5213,447.6327 Q802.8494,447.6327 803.0994,447.8984 Q803.365,448.1484 803.365,448.4921 Q803.365,448.8359 803.0213,449.2421 Q802.5213,449.8202 801.7244,450.1484 Q800.6463,450.6015 799.3494,450.6015 Q797.8338,450.6015 796.6306,449.9765 Q795.6463,449.4765 794.9588,448.414 Q794.2713,447.3359 794.2713,446.0546 L794.2713,444.8984 Q794.2713,443.5702 794.8806,442.4296 Q795.5056,441.2734 796.5994,440.664 Q797.6931,440.039 798.9275,440.039 Q799.6619,440.039 800.3025,440.2109 Q800.9588,440.3671 801.5056,440.7265 Z " fill="#000000"/><text fill="#000000" font-family="sans-serif" font-size="12" font-style="italic" lengthAdjust="spacing" textLength="81" x="849.24" y="432.5292">&#171;value object&#187;</text><text fill="#000000" font-family="sans-serif" font-size="12" font-style="italic" lengthAdjust="spacing" textLength="146" x="816.74" y="448.4902">&#171;automatically generated&#187;</text><text fill="#000000" font-family="sans-serif" font-size="14" lengthAdjust="spacing" textLength="154" x="812.74" y="466.6093">MechanographicNumber</text><line style="stroke:#181818;stroke-width:0.5;" x1="784.74" x2="968.74" y1="475.123" y2="475.123"/><line style="stroke:#181818;stroke-width:0.5;" x1="784.74" x2="968.74" y1="483.123" y2="483.123"/></g><!--class Grade--><g id="elem_Grade"><rect codeLine="33" fill="#F1F1F1" height="60.582" id="Grade" rx="2.5" ry="2.5" style="stroke:#181818;stroke-width:0.5;" width="109" x="1005.24" y="422.58"/><ellipse cx="1020.24" cy="444.871" fill="#ADD1B2" rx="11" ry="11" style="stroke:#181818;stroke-width:1.0;"/><path d="M1023.0056,440.746 Q1023.1619,440.5273 1023.3494,440.4179 Q1023.5369,440.3085 1023.7556,440.3085 Q1024.1306,440.3085 1024.365,440.5741 Q1024.5994,440.8241 1024.5994,441.4335 L1024.5994,442.8866 Q1024.5994,443.496 1024.365,443.7616 Q1024.1306,444.0273 1023.7556,444.0273 Q1023.4119,444.0273 1023.2088,443.8241 Q1023.0056,443.6366 1022.8963,443.121 Q1022.8494,442.7616 1022.6619,442.5741 Q1022.3338,442.1991 1021.7244,441.9804 Q1021.115,441.7616 1020.49,441.7616 Q1019.7244,441.7616 1019.0838,442.0898 Q1018.4588,442.4179 1017.9588,443.1679 Q1017.4744,443.9179 1017.4744,444.9491 L1017.4744,446.0429 Q1017.4744,447.2773 1018.365,448.1054 Q1019.2556,448.9179 1020.8494,448.9179 Q1021.7869,448.9179 1022.4431,448.6679 Q1022.8338,448.5116 1023.2556,448.0741 Q1023.5213,447.8085 1023.6619,447.7304 Q1023.8181,447.6523 1024.0213,447.6523 Q1024.3494,447.6523 1024.5994,447.9179 Q1024.865,448.1679 1024.865,448.5116 Q1024.865,448.8554 1024.5213,449.2616 Q1024.0213,449.8398 1023.2244,450.1679 Q1022.1463,450.621 1020.8494,450.621 Q1019.3338,450.621 1018.1306,449.996 Q1017.1463,449.496 1016.4588,448.4335 Q1015.7713,447.3554 1015.7713,446.0741 L1015.7713,444.9179 Q1015.7713,443.5898 1016.3806,442.4491 Q1017.0056,441.2929 1018.0994,440.6835 Q1019.1931,440.0585 1020.4275,440.0585 Q1021.1619,440.0585 1021.8025,440.2304 Q1022.4588,440.3866 1023.0056,440.746 Z " fill="#000000"/><text fill="#000000" font-family="sans-serif" font-size="12" font-style="italic" lengthAdjust="spacing" textLength="81" x="1032.24" y="440.5292">&#171;value object&#187;</text><text fill="#000000" font-family="sans-serif" font-size="14" lengthAdjust="spacing" textLength="40" x="1052.74" y="458.6484">Grade</text><line style="stroke:#181818;stroke-width:0.5;" x1="1006.24" x2="1113.24" y1="467.162" y2="467.162"/><line style="stroke:#181818;stroke-width:0.5;" x1="1006.24" x2="1113.24" y1="475.162" y2="475.162"/></g><!--class Exam--><g id="elem_Exam"><rect fill="#F1F1F1" height="48" id="Exam" rx="2.5" ry="2.5" style="stroke:#181818;stroke-width:0.5;" width="66" x="1636.74" y="429.08"/><ellipse cx="1651.74" cy="445.08" fill="#ADD1B2" rx="11" ry="11" style="stroke:#181818;stroke-width:1.0;"/><path d="M1654.5056,440.955 Q1654.6619,440.7363 1654.8494,440.6269 Q1655.0369,440.5175 1655.2556,440.5175 Q1655.6306,440.5175 1655.865,440.7831 Q1656.0994,441.0331 1656.0994,441.6425 L1656.0994,443.0956 Q1656.0994,443.705 1655.865,443.9706 Q1655.6306,444.2363 1655.2556,444.2363 Q1654.9119,444.2363 1654.7088,444.0331 Q1654.5056,443.8456 1654.3963,443.33 Q1654.3494,442.9706 1654.1619,442.7831 Q1653.8338,442.4081 1653.2244,442.1894 Q1652.615,441.9706 1651.99,441.9706 Q1651.2244,441.9706 1650.5838,442.2988 Q1649.9588,442.6269 1649.4588,443.3769 Q1648.9744,444.1269 1648.9744,445.1581 L1648.9744,446.2519 Q1648.9744,447.4863 1649.865,448.3144 Q1650.7556,449.1269 1652.3494,449.1269 Q1653.2869,449.1269 1653.9431,448.8769 Q1654.3338,448.7206 1654.7556,448.2831 Q1655.0213,448.0175 1655.1619,447.9394 Q1655.3181,447.8613 1655.5213,447.8613 Q1655.8494,447.8613 1656.0994,448.1269 Q1656.365,448.3769 1656.365,448.7206 Q1656.365,449.0644 1656.0213,449.4706 Q1655.5213,450.0488 1654.7244,450.3769 Q1653.6463,450.83 1652.3494,450.83 Q1650.8338,450.83 1649.6306,450.205 Q1648.6463,449.705 1647.9588,448.6425 Q1647.2713,447.5644 1647.2713,446.2831 L1647.2713,445.1269 Q1647.2713,443.7988 1647.8806,442.6581 Q1648.5056,441.5019 1649.5994,440.8925 Q1650.6931,440.2675 1651.9275,440.2675 Q1652.6619,440.2675 1653.3025,440.4394 Q1653.9588,440.5956 1654.5056,440.955 Z " fill="#000000"/><text fill="#000000" font-family="sans-serif" font-size="14" lengthAdjust="spacing" textLength="34" x="1665.74" y="450.8769">Exam</text><line style="stroke:#181818;stroke-width:0.5;" x1="1637.74" x2="1701.74" y1="461.08" y2="461.08"/><line style="stroke:#181818;stroke-width:0.5;" x1="1637.74" x2="1701.74" y1="469.08" y2="469.08"/></g><!--class Class--><g id="elem_Class"><rect fill="#F1F1F1" height="48" id="Class" rx="2.5" ry="2.5" style="stroke:#181818;stroke-width:0.5;" width="67" x="1171.24" y="235.08"/><ellipse cx="1186.24" cy="251.08" fill="#ADD1B2" rx="11" ry="11" style="stroke:#181818;stroke-width:1.0;"/><path d="M1189.0056,246.955 Q1189.1619,246.7363 1189.3494,246.6269 Q1189.5369,246.5175 1189.7556,246.5175 Q1190.1306,246.5175 1190.365,246.7831 Q1190.5994,247.0331 1190.5994,247.6425 L1190.5994,249.0956 Q1190.5994,249.705 1190.365,249.9706 Q1190.1306,250.2363 1189.7556,250.2363 Q1189.4119,250.2363 1189.2088,250.0331 Q1189.0056,249.8456 1188.8963,249.33 Q1188.8494,248.9706 1188.6619,248.7831 Q1188.3338,248.4081 1187.7244,248.1894 Q1187.115,247.9706 1186.49,247.9706 Q1185.7244,247.9706 1185.0838,248.2988 Q1184.4588,248.6269 1183.9588,249.3769 Q1183.4744,250.1269 1183.4744,251.1581 L1183.4744,252.2519 Q1183.4744,253.4863 1184.365,254.3144 Q1185.2556,255.1269 1186.8494,255.1269 Q1187.7869,255.1269 1188.4431,254.8769 Q1188.8338,254.7206 1189.2556,254.2831 Q1189.5213,254.0175 1189.6619,253.9394 Q1189.8181,253.8613 1190.0213,253.8613 Q1190.3494,253.8613 1190.5994,254.1269 Q1190.865,254.3769 1190.865,254.7206 Q1190.865,255.0644 1190.5213,255.4706 Q1190.0213,256.0488 1189.2244,256.3769 Q1188.1463,256.83 1186.8494,256.83 Q1185.3338,256.83 1184.1306,256.205 Q1183.1463,255.705 1182.4588,254.6425 Q1181.7713,253.5644 1181.7713,252.2831 L1181.7713,251.1269 Q1181.7713,249.7988 1182.3806,248.6581 Q1183.0056,247.5019 1184.0994,246.8925 Q1185.1931,246.2675 1186.4275,246.2675 Q1187.1619,246.2675 1187.8025,246.4394 Q1188.4588,246.5956 1189.0056,246.955 Z " fill="#000000"/><text fill="#000000" font-family="sans-serif" font-size="14" lengthAdjust="spacing" textLength="35" x="1200.24" y="256.8769">Class</text><line style="stroke:#181818;stroke-width:0.5;" x1="1172.24" x2="1237.24" y1="267.08" y2="267.08"/><line style="stroke:#181818;stroke-width:0.5;" x1="1172.24" x2="1237.24" y1="275.08" y2="275.08"/></g><!--class Course--><g id="elem_Course"><rect codeLine="39" fill="#F1F1F1" height="95.1641" id="Course" rx="2.5" ry="2.5" style="stroke:#181818;stroke-width:0.5;" width="124" x="1308.74" y="211.58"/><ellipse cx="1344.44" cy="241.8515" fill="#ADD1B2" rx="11" ry="11" style="stroke:#181818;stroke-width:1.0;"/><path d="M1347.2056,237.7265 Q1347.3619,237.5077 1347.5494,237.3984 Q1347.7369,237.289 1347.9556,237.289 Q1348.3306,237.289 1348.565,237.5546 Q1348.7994,237.8046 1348.7994,238.414 L1348.7994,239.8671 Q1348.7994,240.4765 1348.565,240.7421 Q1348.3306,241.0077 1347.9556,241.0077 Q1347.6119,241.0077 1347.4088,240.8046 Q1347.2056,240.6171 1347.0963,240.1015 Q1347.0494,239.7421 1346.8619,239.5546 Q1346.5338,239.1796 1345.9244,238.9609 Q1345.315,238.7421 1344.69,238.7421 Q1343.9244,238.7421 1343.2838,239.0702 Q1342.6588,239.3984 1342.1588,240.1484 Q1341.6744,240.8984 1341.6744,241.9296 L1341.6744,243.0234 Q1341.6744,244.2577 1342.565,245.0859 Q1343.4556,245.8984 1345.0494,245.8984 Q1345.9869,245.8984 1346.6431,245.6484 Q1347.0338,245.4921 1347.4556,245.0546 Q1347.7213,244.789 1347.8619,244.7109 Q1348.0181,244.6327 1348.2213,244.6327 Q1348.5494,244.6327 1348.7994,244.8984 Q1349.065,245.1484 1349.065,245.4921 Q1349.065,245.8359 1348.7213,246.2421 Q1348.2213,246.8202 1347.4244,247.1484 Q1346.3463,247.6015 1345.0494,247.6015 Q1343.5338,247.6015 1342.3306,246.9765 Q1341.3463,246.4765 1340.6588,245.414 Q1339.9713,244.3359 1339.9713,243.0546 L1339.9713,241.8984 Q1339.9713,240.5702 1340.5806,239.4296 Q1341.2056,238.2734 1342.2994,237.664 Q1343.3931,237.039 1344.6275,237.039 Q1345.3619,237.039 1346.0025,237.2109 Q1346.6588,237.3671 1347.2056,237.7265 Z " fill="#000000"/><text fill="#000000" font-family="sans-serif" font-size="12" font-style="italic" lengthAdjust="spacing" textLength="35" x="1368.54" y="229.5292">&#171;root&#187;</text><text fill="#000000" font-family="sans-serif" font-size="12" font-style="italic" lengthAdjust="spacing" textLength="43" x="1364.54" y="245.4902">&#171;entity&#187;</text><text fill="#000000" font-family="sans-serif" font-size="14" lengthAdjust="spacing" textLength="46" x="1363.04" y="263.6093">Course</text><line style="stroke:#181818;stroke-width:0.5;" x1="1309.74" x2="1431.74" y1="272.123" y2="272.123"/><ellipse cx="1319.74" cy="286.9335" fill="#000000" rx="3" ry="3" style="stroke:#000000;stroke-width:1.0;"/><text fill="#000000" font-family="sans-serif" font-size="14" lengthAdjust="spacing" textLength="98" x="1328.74" y="291.2304">name &#171;unique&#187;</text><line style="stroke:#181818;stroke-width:0.5;" x1="1309.74" x2="1431.74" y1="298.7441" y2="298.7441"/></g><!--class CourseStatus--><g id="elem_CourseStatus"><rect codeLine="44" fill="#F1F1F1" height="135.0664" id="CourseStatus" rx="2.5" ry="2.5" style="stroke:#181818;stroke-width:0.5;" width="184" x="1270.74" y="385.58"/><ellipse cx="1315.49" cy="407.871" fill="#EB937F" rx="11" ry="11" style="stroke:#181818;stroke-width:1.0;"/><path d="M1314.3494,408.6679 L1314.3494,411.1679 L1318.6775,411.1679 L1318.6775,410.246 Q1318.6775,409.6366 1318.9119,409.371 Q1319.1619,409.1054 1319.5369,409.1054 Q1319.9119,409.1054 1320.1463,409.371 Q1320.3806,409.6366 1320.3806,410.246 L1320.3806,412.871 L1312.3806,412.871 Q1311.7556,412.871 1311.49,412.6366 Q1311.24,412.4023 1311.24,412.0116 Q1311.24,411.6366 1311.5056,411.4023 Q1311.7713,411.1679 1312.3806,411.1679 L1312.6463,411.1679 L1312.6463,404.5116 L1312.3806,404.5116 Q1311.7556,404.5116 1311.49,404.2773 Q1311.24,404.0429 1311.24,403.6523 Q1311.24,403.2773 1311.49,403.0429 Q1311.7556,402.8085 1312.3806,402.8085 L1320.0056,402.8085 L1320.0056,405.4023 Q1320.0056,406.0116 1319.7713,406.2773 Q1319.5525,406.5273 1319.1619,406.5273 Q1318.7869,406.5273 1318.5525,406.2773 Q1318.3181,406.0116 1318.3181,405.4023 L1318.3181,404.5116 L1314.3494,404.5116 L1314.3494,406.9648 L1315.8338,406.9648 Q1315.8338,406.3085 1315.9588,406.121 Q1316.2244,405.7148 1316.6931,405.7148 Q1317.0681,405.7148 1317.3025,405.9804 Q1317.5369,406.2304 1317.5369,406.8398 L1317.5369,408.8085 Q1317.5369,409.3554 1317.4119,409.5429 Q1317.1463,409.9335 1316.6931,409.9335 Q1316.2244,409.9335 1315.9588,409.5273 Q1315.8338,409.3398 1315.8338,408.6679 L1314.3494,408.6679 Z " fill="#000000"/><text fill="#000000" font-family="sans-serif" font-size="12" font-style="italic" lengthAdjust="spacing" textLength="46" x="1355.99" y="403.5292">&#171;enum&#187;</text><text fill="#000000" font-family="sans-serif" font-size="14" lengthAdjust="spacing" textLength="86" x="1335.99" y="421.6484">CourseStatus</text><line style="stroke:#181818;stroke-width:0.5;" x1="1271.74" x2="1453.74" y1="430.162" y2="430.162"/><ellipse cx="1281.74" cy="444.9726" fill="none" rx="3" ry="3" style="stroke:#038048;stroke-width:1.0;"/><text fill="#000000" font-family="sans-serif" font-size="14" lengthAdjust="spacing" textLength="38" x="1290.74" y="449.2695">OPEN</text><ellipse cx="1281.74" cy="463.5937" fill="none" rx="3" ry="3" style="stroke:#038048;stroke-width:1.0;"/><text fill="#000000" font-family="sans-serif" font-size="14" lengthAdjust="spacing" textLength="139" x="1290.74" y="467.8905">OPEN_ENROLLMENT</text><ellipse cx="1281.74" cy="482.2148" fill="none" rx="3" ry="3" style="stroke:#038048;stroke-width:1.0;"/><text fill="#000000" font-family="sans-serif" font-size="14" lengthAdjust="spacing" textLength="158" x="1290.74" y="486.5116">CLOSED_ENROLLMENT</text><ellipse cx="1281.74" cy="500.8359" fill="none" rx="3" ry="3" style="stroke:#038048;stroke-width:1.0;"/><text fill="#000000" font-family="sans-serif" font-size="14" lengthAdjust="spacing" textLength="57" x="1290.74" y="505.1327">CLOSED</text><line style="stroke:#181818;stroke-width:0.5;" x1="1271.74" x2="1453.74" y1="512.6464" y2="512.6464"/></g><!--class CourseCode--><g id="elem_CourseCode"><rect codeLine="51" fill="#F1F1F1" height="60.582" id="CourseCode" rx="2.5" ry="2.5" style="stroke:#181818;stroke-width:0.5;" width="112" x="1489.74" y="422.58"/><ellipse cx="1504.74" cy="444.871" fill="#ADD1B2" rx="11" ry="11" style="stroke:#181818;stroke-width:1.0;"/><path d="M1507.5056,440.746 Q1507.6619,440.5273 1507.8494,440.4179 Q1508.0369,440.3085 1508.2556,440.3085 Q1508.6306,440.3085 1508.865,440.5741 Q1509.0994,440.8241 1509.0994,441.4335 L1509.0994,442.8866 Q1509.0994,443.496 1508.865,443.7616 Q1508.6306,444.0273 1508.2556,444.0273 Q1507.9119,444.0273 1507.7088,443.8241 Q1507.5056,443.6366 1507.3963,443.121 Q1507.3494,442.7616 1507.1619,442.5741 Q1506.8338,442.1991 1506.2244,441.9804 Q1505.615,441.7616 1504.99,441.7616 Q1504.2244,441.7616 1503.5838,442.0898 Q1502.9588,442.4179 1502.4588,443.1679 Q1501.9744,443.9179 1501.9744,444.9491 L1501.9744,446.0429 Q1501.9744,447.2773 1502.865,448.1054 Q1503.7556,448.9179 1505.3494,448.9179 Q1506.2869,448.9179 1506.9431,448.6679 Q1507.3338,448.5116 1507.7556,448.0741 Q1508.0213,447.8085 1508.1619,447.7304 Q1508.3181,447.6523 1508.5213,447.6523 Q1508.8494,447.6523 1509.0994,447.9179 Q1509.365,448.1679 1509.365,448.5116 Q1509.365,448.8554 1509.0213,449.2616 Q1508.5213,449.8398 1507.7244,450.1679 Q1506.6463,450.621 1505.3494,450.621 Q1503.8338,450.621 1502.6306,449.996 Q1501.6463,449.496 1500.9588,448.4335 Q1500.2713,447.3554 1500.2713,446.0741 L1500.2713,444.9179 Q1500.2713,443.5898 1500.8806,442.4491 Q1501.5056,441.2929 1502.5994,440.6835 Q1503.6931,440.0585 1504.9275,440.0585 Q1505.6619,440.0585 1506.3025,440.2304 Q1506.9588,440.3866 1507.5056,440.746 Z " fill="#000000"/><text fill="#000000" font-family="sans-serif" font-size="12" font-style="italic" lengthAdjust="spacing" textLength="81" x="1518.24" y="440.5292">&#171;value object&#187;</text><text fill="#000000" font-family="sans-serif" font-size="14" lengthAdjust="spacing" textLength="80" x="1518.74" y="458.6484">CourseCode</text><line style="stroke:#181818;stroke-width:0.5;" x1="1490.74" x2="1600.74" y1="467.162" y2="467.162"/><line style="stroke:#181818;stroke-width:0.5;" x1="1490.74" x2="1600.74" y1="475.162" y2="475.162"/></g><!--link SystemUser to EmailAdderss--><g id="link_SystemUser_EmailAdderss"><path codeLine="59" d="M157.39,510.13 C175.43,543.12 197.67,583.77 213.09,611.99 " fill="none" id="SystemUser-to-EmailAdderss" style="stroke:#181818;stroke-width:1.0;"/><polygon fill="#181818" points="215.51,616.4,214.6985,606.5846,213.1097,612.0138,207.6806,610.4251,215.51,616.4" style="stroke:#181818;stroke-width:1.0;"/><text fill="#000000" font-family="sans-serif" font-size="13" lengthAdjust="spacing" textLength="7" x="204.4407" y="605.4206">1</text></g><!--link SystemUser to Password--><g id="link_SystemUser_Password"><path codeLine="60" d="M151.56,510.25 C163.06,530.96 178.5,553.12 197.74,568.58 C238.5,601.33 260.88,586.52 308.74,607.58 C313.41,609.63 318.19,611.87 322.96,614.2 " fill="none" id="SystemUser-to-Password" style="stroke:#181818;stroke-width:1.0;"/><polygon fill="#181818" points="327.72,616.56,321.4203,608.9895,323.2365,614.3468,317.8791,616.1631,327.72,616.56" style="stroke:#181818;stroke-width:1.0;"/><text fill="#000000" font-family="sans-serif" font-size="13" lengthAdjust="spacing" textLength="7" x="311.3589" y="607.1843">1</text></g><!--link SystemUser to Role--><g id="link_SystemUser_Role"><path codeLine="61" d="M115.06,510.13 C108.94,539.52 101.55,574.98 95.86,602.31 " fill="none" id="SystemUser-to-Role" style="stroke:#181818;stroke-width:1.0;"/><polygon fill="#181818" points="94.81,607.32,100.5513,599.3176,95.8235,602.4238,92.7173,597.696,94.81,607.32" style="stroke:#181818;stroke-width:1.0;"/><text fill="#000000" font-family="sans-serif" font-size="13" lengthAdjust="spacing" textLength="7" x="88.5669" y="596.3625">1</text></g><!--link eCourseSystemUser to SystemUser--><g id="link_eCourseSystemUser_SystemUser"><path codeLine="63" d="M867.98,266.96 C698.71,282.43 312.88,323.54 197.74,385.58 C193.28,387.98 188.89,390.74 184.61,393.72 " fill="none" id="eCourseSystemUser-to-SystemUser" style="stroke:#181818;stroke-width:1.0;"/><polygon fill="#181818" points="180.38,396.79,190.0186,394.7658,184.4341,393.8636,185.3363,388.2791,180.38,396.79" style="stroke:#181818;stroke-width:1.0;"/><text fill="#000000" font-family="sans-serif" font-size="13" lengthAdjust="spacing" textLength="7" x="188.4153" y="384.7428">1</text></g><!--link eCourseSystemUser to Role--><g id="link_eCourseSystemUser_Role"><path codeLine="64" d="M867.92,265.22 C657.67,279.43 106.36,322.45 55.74,385.58 C6,447.62 38.52,546.2 64.24,602.63 " fill="none" id="eCourseSystemUser-to-Role" style="stroke:#181818;stroke-width:1.0;"/><polygon fill="#181818" points="66.39,607.28,66.2444,597.4322,64.292,602.7415,58.9828,600.789,66.39,607.28" style="stroke:#181818;stroke-width:1.0;"/><text fill="#000000" font-family="sans-serif" font-size="13" lengthAdjust="spacing" textLength="7" x="55.4398" y="596.3159">1</text></g><!--link eCourseSystemUser to UserStatus--><g id="link_eCourseSystemUser_UserStatus"><path codeLine="65" d="M868.09,261.49 C745.34,266.81 507.59,289.85 333.74,385.58 C326.31,389.67 319.13,394.79 312.39,400.37 " fill="none" id="eCourseSystemUser-to-UserStatus" style="stroke:#181818;stroke-width:1.0;"/><polygon fill="#181818" points="308.26,403.9,317.7017,401.0974,312.0623,400.6531,312.5066,395.0137,308.26,403.9" style="stroke:#181818;stroke-width:1.0;"/><text fill="#000000" font-family="sans-serif" font-size="13" lengthAdjust="spacing" textLength="7" x="306.7472" y="392.8499">1</text></g><!--link eCourseSystemUser to Acronym--><g id="link_eCourseSystemUser_Acronym"><path codeLine="66" d="M868.09,269.51 C770.61,283.54 603.96,316.12 477.74,385.58 C462.2,394.13 447.38,406.74 435.27,418.69 " fill="none" id="eCourseSystemUser-to-Acronym" style="stroke:#181818;stroke-width:1.0;"/><polygon fill="#181818" points="431.6,422.37,440.7852,418.8159,435.1284,418.8273,435.117,413.1705,431.6,422.37" style="stroke:#181818;stroke-width:1.0;"/><text fill="#000000" font-family="sans-serif" font-size="13" lengthAdjust="spacing" textLength="7" x="429.2118" y="411.3844">1</text></g><!--link eCourseSystemUser to NIF--><g id="link_eCourseSystemUser_NIF"><path codeLine="67" d="M868.19,281.64 C799.48,302.16 699.73,337.11 621.74,385.58 C606.94,394.78 592.46,407.26 580.41,418.92 " fill="none" id="eCourseSystemUser-to-NIF" style="stroke:#181818;stroke-width:1.0;"/><polygon fill="#181818" points="576.75,422.51,585.9776,419.0675,580.3211,419.0104,580.3782,413.3538,576.75,422.51" style="stroke:#181818;stroke-width:1.0;"/><text fill="#000000" font-family="sans-serif" font-size="13" lengthAdjust="spacing" textLength="7" x="574.5989" y="411.5532">1</text></g><!--link eCourseSystemUser to BirthDate--><g id="link_eCourseSystemUser_BirthDate"><path codeLine="68" d="M889.93,297.71 C853.56,321.69 806.41,354.07 766.74,385.58 C753.83,395.83 740.33,407.76 728.49,418.66 " fill="none" id="eCourseSystemUser-to-BirthDate" style="stroke:#181818;stroke-width:1.0;"/><polygon fill="#181818" points="724.54,422.32,733.855,419.1215,728.2019,418.9156,728.4079,413.2624,724.54,422.32" style="stroke:#181818;stroke-width:1.0;"/><text fill="#000000" font-family="sans-serif" font-size="13" lengthAdjust="spacing" textLength="7" x="723.1706" y="411.3241">1</text></g><!--link eCourseSystemUser to MechanographicNumber--><g id="link_eCourseSystemUser_MechanographicNumber"><path codeLine="69" d="M934.52,298.01 C922.45,330.2 905.14,376.34 892.62,409.72 " fill="none" id="eCourseSystemUser-to-MechanographicNumber" style="stroke:#181818;stroke-width:1.0;"/><polygon fill="#181818" points="890.81,414.55,897.7154,407.5275,892.5656,409.8684,890.2248,404.7185,890.81,414.55" style="stroke:#181818;stroke-width:1.0;"/><text fill="#000000" font-family="sans-serif" font-size="13" lengthAdjust="spacing" textLength="7" x="885.6928" y="403.2677">1</text></g><!--link eCourseSystemUser to Grade--><g id="link_eCourseSystemUser_Grade"><path codeLine="70" d="M970.67,298.01 C990.87,332.95 1020.56,384.31 1040.02,417.97 " fill="none" id="eCourseSystemUser-to-Grade" style="stroke:#181818;stroke-width:1.0;"/><polygon fill="#181818" points="1042.58,422.4,1041.5184,412.6085,1040.0686,418.0765,1034.6007,416.6267,1042.58,422.4" style="stroke:#181818;stroke-width:1.0;"/><polygon fill="#000000" points="1008.2425,350.5542,1006.2598,341.2526,1001.1711,344.1944,1008.2425,350.5542" style="stroke:#000000;stroke-width:1.0;"/><text fill="#000000" font-family="sans-serif" font-size="13" lengthAdjust="spacing" textLength="79" x="1014.74" y="351.6083">student has a</text><text fill="#000000" font-family="sans-serif" font-size="13" lengthAdjust="spacing" textLength="7" x="1031.3189" y="411.4206">1</text></g><!--link eCourseSystemUser to Course--><g id="link_eCourseSystemUser_Course"><path codeLine="72" d="M981.17,220.45 C1045.89,148.08 1194.35,6 1304.74,82.58 C1346.27,111.39 1361.71,169.71 1367.43,211.43 " fill="none" id="eCourseSystemUser-Course" style="stroke:#181818;stroke-width:1.0;"/><polygon fill="#000000" points="1038.7386,26.1088,1029.6274,23.3818,1029.7646,29.2581,1038.7386,26.1088" style="stroke:#000000;stroke-width:1.0;"/><text fill="#000000" font-family="sans-serif" font-size="13" lengthAdjust="spacing" textLength="53" x="1042.74" y="31.6083">manages</text><text fill="#000000" font-family="sans-serif" font-size="13" lengthAdjust="spacing" textLength="7" x="979.1423" y="209.4421">1</text><text fill="#000000" font-family="sans-serif" font-size="13" lengthAdjust="spacing" textLength="5" x="1361.5767" y="200.2206">*</text></g><!--link eCourseSystemUser to Course--><g id="link_eCourseSystemUser_Course"><path codeLine="74" d="M981.17,220.45 C1045.89,148.08 1194.35,6 1304.74,82.58 C1346.27,111.39 1361.71,169.71 1367.43,211.43 " fill="none" id="eCourseSystemUser-Course-1" style="stroke:#181818;stroke-width:1.0;"/><polygon fill="#000000" points="1002.2386,26.1088,993.1274,23.3818,993.2646,29.2581,1002.2386,26.1088" style="stroke:#000000;stroke-width:1.0;"/><text fill="#000000" font-family="sans-serif" font-size="13" lengthAdjust="spacing" textLength="126" x="1006.24" y="31.6083">Regent is in charge of</text><text fill="#000000" font-family="sans-serif" font-size="13" lengthAdjust="spacing" textLength="7" x="987.3455" y="209.4421">1</text><text fill="#000000" font-family="sans-serif" font-size="13" lengthAdjust="spacing" textLength="5" x="1367.311" y="200.2206">*</text></g><!--link Course to eCourseSystemUser--><g id="link_Course_eCourseSystemUser"><path codeLine="85" d="M1367.43,211.43 C1361.71,169.71 1346.27,111.39 1304.74,82.58 C1194.35,6 1045.89,148.08 981.17,220.45 " fill="none" id="Course-eCourseSystemUser" style="stroke:#181818;stroke-width:1.0;"/><polygon fill="#000000" points="1258.2386,26.1088,1249.1274,23.3818,1249.2646,29.2581,1258.2386,26.1088" style="stroke:#000000;stroke-width:1.0;"/><text fill="#000000" font-family="sans-serif" font-size="13" lengthAdjust="spacing" textLength="46" x="1262.24" y="31.6083">teaches</text><text fill="#000000" font-family="sans-serif" font-size="13" lengthAdjust="spacing" textLength="5" x="1361.5767" y="200.2206">*</text><text fill="#000000" font-family="sans-serif" font-size="13" lengthAdjust="spacing" textLength="5" x="981.3142" y="209.4421">*</text></g><!--link Course to CourseStatus--><g id="link_Course_CourseStatus"><path codeLine="78" d="M1368.78,307.05 C1367.87,329.02 1366.76,355.68 1365.74,380.12 " fill="none" id="Course-to-CourseStatus" style="stroke:#181818;stroke-width:1.0;"/><polygon fill="#181818" points="1365.52,385.29,1369.8765,376.4571,1365.7198,380.294,1361.8829,376.1373,1365.52,385.29" style="stroke:#181818;stroke-width:1.0;"/><text fill="#000000" font-family="sans-serif" font-size="13" lengthAdjust="spacing" textLength="7" x="1358.4458" y="374.4625">1</text></g><!--link Course to CourseCode--><g id="link_Course_CourseCode"><path codeLine="79" d="M1395.17,306.89 C1404.98,323.29 1417.18,341.19 1430.74,355.58 C1446.47,372.27 1454.9,371.16 1472.74,385.58 C1485.56,395.94 1499.05,407.89 1510.89,418.79 " fill="none" id="Course-to-CourseCode" style="stroke:#181818;stroke-width:1.0;"/><polygon fill="#181818" points="1514.84,422.44,1510.9355,413.3982,1511.1643,419.0504,1505.5121,419.2792,1514.84,422.44" style="stroke:#181818;stroke-width:1.0;"/><text fill="#000000" font-family="sans-serif" font-size="13" lengthAdjust="spacing" textLength="7" x="1500.745" y="411.4688">1</text></g><!--link Course to Grade--><g id="link_Course_Grade"><path codeLine="81" d="M1308.65,304.03 C1307.34,304.89 1306.03,305.74 1304.74,306.58 C1239.55,348.81 1162.18,393.97 1112.08,422.58 " fill="none" id="Course-Grade" style="stroke:#181818;stroke-width:1.0;"/><polygon fill="#000000" points="1261.0216,343.6433,1251.7583,345.7979,1254.7939,350.8312,1261.0216,343.6433" style="stroke:#000000;stroke-width:1.0;"/><text fill="#000000" font-family="sans-serif" font-size="13" lengthAdjust="spacing" textLength="47" x="1265.74" y="351.6083">refers to</text><text fill="#000000" font-family="sans-serif" font-size="13" lengthAdjust="spacing" textLength="7" x="1293.6562" y="305.5084">1</text><text fill="#000000" font-family="sans-serif" font-size="13" lengthAdjust="spacing" textLength="7" x="1115.7637" y="411.1546">1</text></g><!--link Course to Exam--><g id="link_Course_Exam"><path codeLine="82" d="M1432.75,282.7 C1485.55,303.94 1561.57,339.35 1617.74,385.58 C1632.68,397.87 1646.04,415.17 1655.47,429.04 " fill="none" id="Course-Exam" style="stroke:#181818;stroke-width:1.0;"/><polygon fill="#000000" points="1575.5613,343.4799,1581.5068,350.903,1584.7345,345.9906,1575.5613,343.4799" style="stroke:#000000;stroke-width:1.0;"/><text fill="#000000" font-family="sans-serif" font-size="13" lengthAdjust="spacing" textLength="54" x="1588.74" y="351.6083">related to</text><text fill="#000000" font-family="sans-serif" font-size="13" lengthAdjust="spacing" textLength="7" x="1440.734" y="281.5788">1</text><text fill="#000000" font-family="sans-serif" font-size="13" lengthAdjust="spacing" textLength="20" x="1629.2508" y="417.7672">0..*</text></g><!--link Course to Class--><g id="link_Course_Class"><path codeLine="84" d="M1308.66,259.08 C1284.82,259.08 1258.51,259.08 1238.33,259.08 " fill="none" id="Course-Class" style="stroke:#181818;stroke-width:1.0;"/><polygon fill="#000000" points="1255.49,246.7255,1264.5351,249.6644,1264.5351,243.7866,1255.49,246.7255" style="stroke:#000000;stroke-width:1.0;"/><text fill="#000000" font-family="sans-serif" font-size="13" lengthAdjust="spacing" textLength="21" x="1269.49" y="252.1083">has</text><text fill="#000000" font-family="sans-serif" font-size="13" lengthAdjust="spacing" textLength="7" x="1293.6674" y="255.0801">1</text><text fill="#000000" font-family="sans-serif" font-size="13" lengthAdjust="spacing" textLength="5" x="1246.2247" y="254.2808">*</text></g><!--SRC=[ZPDHRvim4CVV-HGdNYPbIjMzHYXIchXJfOHKq4pgq-J25TZ0pcopBPhstNU6a413tF60nFt_TpxkVjxpv3lF47ostEwYcCNFyHFRx68M-H04YonJc763ypdyyJoW9ocvrX0VjC5gfr6HIqbfo104J9Z271el79y9XBp2tgVD4LteRxycBcMjDBvR-ZAJLRme5scAYZw2u0ilQmJvyWqJIkuR8rdYjJvZemgHmNXljftOS5FR-YZgQf3y4LYuk5kpNc3r49yYWqgFzFebLKfrVbxjSv4eAGwLqnC-t3lrkqAPV4MxSxescEHSo4pnVLuaOLszD7CV9b20rqPMt1G9Byi3P2XGKUbqMEopukdOSJI0VSTPYvc5Ym_WUjTmFgRbf4y7ZYtKRfAqMXG_QkmQFUx2hl1OnxNMxICBttn-PM6qNQytB7pgASlrDcOhbtP9GdlyKewDZ8oUzo72aaOkXSwBlQP0xsfCftFmF_a3zCVq3hSnpTu6pxkyTfr-3ZbCJP7hyldYE4n7t1qEWjsXdb1tUCP0TzXRb6UWJPqINP1p3HpcO-EozkaK_8dVaJc3YWk2MVz_GeIPFQRGK0YWJXLT1VbgyptlQEfQwsCxhbccJcdTQRsVKlXAl82H4BnrtTxSK5liDwyQNsalUMiSEDlc6undpMpc9tdIoPS_FWE3FCbfBe7t3m00]--></g></svg>