<?xml version="1.0" encoding="us-ascii" standalone="no"?><svg xmlns="http://www.w3.org/2000/svg" xmlns:xlink="http://www.w3.org/1999/xlink" contentStyleType="text/css" height="1961px" preserveAspectRatio="none" style="width:1604px;height:1961px;background:#FFFFFF;" version="1.1" viewBox="0 0 1604 1961" width="1604px" zoomAndPan="magnify"><defs/><g><rect fill="#FFFFFF" height="1731.4238" style="stroke:#181818;stroke-width:1.0;" width="10" x="113" y="121.5332"/><rect fill="#FFFFFF" height="31.291" style="stroke:#181818;stroke-width:1.0;" width="10" x="603" y="121.5332"/><rect fill="#FFFFFF" height="281.6191" style="stroke:#181818;stroke-width:1.0;" width="10" x="603" y="221.4063"/><rect fill="#FFFFFF" height="232.0371" style="stroke:#181818;stroke-width:1.0;" width="10" x="603" y="534.3164"/><rect fill="#FFFFFF" height="200.7461" style="stroke:#181818;stroke-width:1.0;" width="10" x="603" y="797.6445"/><rect fill="#FFFFFF" height="281.6191" style="stroke:#181818;stroke-width:1.0;" width="10" x="603" y="1066.9727"/><rect fill="#FFFFFF" height="232.0371" style="stroke:#181818;stroke-width:1.0;" width="10" x="603" y="1379.8828"/><rect fill="#FFFFFF" height="200.7461" style="stroke:#181818;stroke-width:1.0;" width="10" x="603" y="1643.2109"/><rect fill="#FFFFFF" height="219.0371" style="stroke:#181818;stroke-width:1.0;" width="10" x="823" y="252.6973"/><rect fill="#FFFFFF" height="169.4551" style="stroke:#181818;stroke-width:1.0;" width="10" x="823" y="565.6074"/><rect fill="#FFFFFF" height="138.1641" style="stroke:#181818;stroke-width:1.0;" width="10" x="823" y="828.9355"/><rect fill="#FFFFFF" height="219.0371" style="stroke:#181818;stroke-width:1.0;" width="10" x="823" y="1098.2637"/><rect fill="#FFFFFF" height="169.4551" style="stroke:#181818;stroke-width:1.0;" width="10" x="823" y="1411.1738"/><rect fill="#FFFFFF" height="138.1641" style="stroke:#181818;stroke-width:1.0;" width="10" x="823" y="1674.502"/><rect fill="#FFFFFF" height="31.291" style="stroke:#181818;stroke-width:1.0;" width="10" x="1110" y="346.5703"/><rect fill="#FFFFFF" height="31.291" style="stroke:#181818;stroke-width:1.0;" width="10" x="1110" y="409.1523"/><rect fill="#FFFFFF" height="106.873" style="stroke:#181818;stroke-width:1.0;" width="10" x="1110" y="596.8984"/><rect fill="#FFFFFF" height="31.291" style="stroke:#181818;stroke-width:1.0;" width="10" x="1110" y="1192.1367"/><rect fill="#FFFFFF" height="31.291" style="stroke:#181818;stroke-width:1.0;" width="10" x="1110" y="1254.7188"/><rect fill="#FFFFFF" height="106.873" style="stroke:#181818;stroke-width:1.0;" width="10" x="1110" y="1442.4648"/><rect fill="#FFFFFF" height="37.291" style="stroke:#181818;stroke-width:1.0;" width="10" x="1301" y="628.1895"/><rect fill="#FFFFFF" height="37.291" style="stroke:#181818;stroke-width:1.0;" width="10" x="1301" y="1473.7559"/><rect fill="#FFFFFF" height="31.291" style="stroke:#181818;stroke-width:1.0;" width="10" x="1487" y="283.9883"/><rect fill="#FFFFFF" height="75.582" style="stroke:#181818;stroke-width:1.0;" width="10" x="1487" y="860.2266"/><rect fill="#FFFFFF" height="31.291" style="stroke:#181818;stroke-width:1.0;" width="10" x="1487" y="1129.5547"/><rect fill="#FFFFFF" height="75.582" style="stroke:#181818;stroke-width:1.0;" width="10" x="1487" y="1705.793"/><line style="stroke:#181818;stroke-width:0.5;stroke-dasharray:5.0,5.0;" x1="118" x2="118" y1="88.2422" y2="1861.957"/><line style="stroke:#181818;stroke-width:0.5;stroke-dasharray:5.0,5.0;" x1="608" x2="608" y1="88.2422" y2="1861.957"/><line style="stroke:#181818;stroke-width:0.5;stroke-dasharray:5.0,5.0;" x1="828" x2="828" y1="88.2422" y2="1861.957"/><line style="stroke:#181818;stroke-width:0.5;stroke-dasharray:5.0,5.0;" x1="1115" x2="1115" y1="88.2422" y2="1861.957"/><line style="stroke:#181818;stroke-width:0.5;stroke-dasharray:5.0,5.0;" x1="1305.5" x2="1305.5" y1="88.2422" y2="1861.957"/><line style="stroke:#181818;stroke-width:0.5;stroke-dasharray:5.0,5.0;" x1="1492" x2="1492" y1="88.2422" y2="1861.957"/><text fill="#000000" font-family="sans-serif" font-size="14" lengthAdjust="spacing" textLength="56" x="87" y="84.7285">Manager</text><ellipse cx="118" cy="18.1211" fill="#E2E2F0" rx="8" ry="8" style="stroke:#181818;stroke-width:0.5;"/><path d="M118,26.1211 L118,53.1211 M105,34.1211 L131,34.1211 M118,53.1211 L105,68.1211 M118,53.1211 L131,68.1211 " fill="none" style="stroke:#181818;stroke-width:0.5;"/><text fill="#000000" font-family="sans-serif" font-size="14" lengthAdjust="spacing" textLength="56" x="87" y="1876.0645">Manager</text><ellipse cx="118" cy="1888.0781" fill="#E2E2F0" rx="8" ry="8" style="stroke:#181818;stroke-width:0.5;"/><path d="M118,1896.0781 L118,1923.0781 M105,1904.0781 L131,1904.0781 M118,1923.0781 L105,1938.0781 M118,1923.0781 L131,1938.0781 " fill="none" style="stroke:#181818;stroke-width:0.5;"/><rect fill="#E2E2F0" height="32.6211" rx="2.5" ry="2.5" style="stroke:#181818;stroke-width:0.5;" width="168" x="524" y="54.6211"/><text fill="#000000" font-family="sans-serif" font-size="14" lengthAdjust="spacing" textLength="154" x="531" y="76.7285">:OpenCloseEnrollmentUI</text><rect fill="#E2E2F0" height="32.6211" rx="2.5" ry="2.5" style="stroke:#181818;stroke-width:0.5;" width="168" x="524" y="1860.957"/><text fill="#000000" font-family="sans-serif" font-size="14" lengthAdjust="spacing" textLength="154" x="531" y="1883.0645">:OpenCloseEnrollmentUI</text><rect fill="#E2E2F0" height="32.6211" rx="2.5" ry="2.5" style="stroke:#181818;stroke-width:0.5;" width="218" x="719" y="54.6211"/><text fill="#000000" font-family="sans-serif" font-size="14" lengthAdjust="spacing" textLength="204" x="726" y="76.7285">:OpenCloseEnrollmentController</text><rect fill="#E2E2F0" height="32.6211" rx="2.5" ry="2.5" style="stroke:#181818;stroke-width:0.5;" width="218" x="719" y="1860.957"/><text fill="#000000" font-family="sans-serif" font-size="14" lengthAdjust="spacing" textLength="204" x="726" y="1883.0645">:OpenCloseEnrollmentController</text><text fill="#000000" font-family="sans-serif" font-size="14" font-style="italic" lengthAdjust="spacing" textLength="79" x="1072.5" y="66.1074">&#171;repository&#187;</text><text fill="#000000" font-family="sans-serif" font-size="14" lengthAdjust="spacing" textLength="106" x="1059" y="84.7285">CourseRepsitory</text><path d="M1097,15 C1097,5 1115,5 1115,5 C1115,5 1133,5 1133,15 L1133,41 C1133,51 1115,51 1115,51 C1115,51 1097,51 1097,41 L1097,15 " fill="#E2E2F0" style="stroke:#181818;stroke-width:1.5;"/><path d="M1097,15 C1097,25 1115,25 1115,25 C1115,25 1133,25 1133,15 " fill="none" style="stroke:#181818;stroke-width:1.5;"/><text fill="#000000" font-family="sans-serif" font-size="14" font-style="italic" lengthAdjust="spacing" textLength="79" x="1072.5" y="1876.0645">&#171;repository&#187;</text><text fill="#000000" font-family="sans-serif" font-size="14" lengthAdjust="spacing" textLength="106" x="1059" y="1894.6855">CourseRepsitory</text><path d="M1097,1908.1992 C1097,1898.1992 1115,1898.1992 1115,1898.1992 C1115,1898.1992 1133,1898.1992 1133,1908.1992 L1133,1934.1992 C1133,1944.1992 1115,1944.1992 1115,1944.1992 C1115,1944.1992 1097,1944.1992 1097,1934.1992 L1097,1908.1992 " fill="#E2E2F0" style="stroke:#181818;stroke-width:1.5;"/><path d="M1097,1908.1992 C1097,1918.1992 1115,1918.1992 1115,1918.1992 C1115,1918.1992 1133,1918.1992 1133,1908.1992 " fill="none" style="stroke:#181818;stroke-width:1.5;"/><rect fill="#E2E2F0" height="32.6211" rx="2.5" ry="2.5" style="stroke:#181818;stroke-width:0.5;" width="87" x="1262.5" y="54.6211"/><text fill="#000000" font-family="sans-serif" font-size="14" lengthAdjust="spacing" textLength="73" x="1269.5" y="76.7285">CS: Course</text><rect fill="#E2E2F0" height="32.6211" rx="2.5" ry="2.5" style="stroke:#181818;stroke-width:0.5;" width="87" x="1262.5" y="1860.957"/><text fill="#000000" font-family="sans-serif" font-size="14" lengthAdjust="spacing" textLength="73" x="1269.5" y="1883.0645">CS: Course</text><text fill="#000000" font-family="sans-serif" font-size="14" font-style="italic" lengthAdjust="spacing" textLength="79" x="1449.5" y="66.1074">&#171;repository&#187;</text><text fill="#000000" font-family="sans-serif" font-size="14" lengthAdjust="spacing" textLength="116" x="1431" y="84.7285">RepositoryFactory</text><path d="M1474,15 C1474,5 1492,5 1492,5 C1492,5 1510,5 1510,15 L1510,41 C1510,51 1492,51 1492,51 C1492,51 1474,51 1474,41 L1474,15 " fill="#E2E2F0" style="stroke:#181818;stroke-width:1.5;"/><path d="M1474,15 C1474,25 1492,25 1492,25 C1492,25 1510,25 1510,15 " fill="none" style="stroke:#181818;stroke-width:1.5;"/><text fill="#000000" font-family="sans-serif" font-size="14" font-style="italic" lengthAdjust="spacing" textLength="79" x="1449.5" y="1876.0645">&#171;repository&#187;</text><text fill="#000000" font-family="sans-serif" font-size="14" lengthAdjust="spacing" textLength="116" x="1431" y="1894.6855">RepositoryFactory</text><path d="M1474,1908.1992 C1474,1898.1992 1492,1898.1992 1492,1898.1992 C1492,1898.1992 1510,1898.1992 1510,1908.1992 L1510,1934.1992 C1510,1944.1992 1492,1944.1992 1492,1944.1992 C1492,1944.1992 1474,1944.1992 1474,1934.1992 L1474,1908.1992 " fill="#E2E2F0" style="stroke:#181818;stroke-width:1.5;"/><path d="M1474,1908.1992 C1474,1918.1992 1492,1918.1992 1492,1918.1992 C1492,1918.1992 1510,1918.1992 1510,1908.1992 " fill="none" style="stroke:#181818;stroke-width:1.5;"/><rect fill="#FFFFFF" height="1731.4238" style="stroke:#181818;stroke-width:1.0;" width="10" x="113" y="121.5332"/><rect fill="#FFFFFF" height="31.291" style="stroke:#181818;stroke-width:1.0;" width="10" x="603" y="121.5332"/><rect fill="#FFFFFF" height="281.6191" style="stroke:#181818;stroke-width:1.0;" width="10" x="603" y="221.4063"/><rect fill="#FFFFFF" height="232.0371" style="stroke:#181818;stroke-width:1.0;" width="10" x="603" y="534.3164"/><rect fill="#FFFFFF" height="200.7461" style="stroke:#181818;stroke-width:1.0;" width="10" x="603" y="797.6445"/><rect fill="#FFFFFF" height="281.6191" style="stroke:#181818;stroke-width:1.0;" width="10" x="603" y="1066.9727"/><rect fill="#FFFFFF" height="232.0371" style="stroke:#181818;stroke-width:1.0;" width="10" x="603" y="1379.8828"/><rect fill="#FFFFFF" height="200.7461" style="stroke:#181818;stroke-width:1.0;" width="10" x="603" y="1643.2109"/><rect fill="#FFFFFF" height="219.0371" style="stroke:#181818;stroke-width:1.0;" width="10" x="823" y="252.6973"/><rect fill="#FFFFFF" height="169.4551" style="stroke:#181818;stroke-width:1.0;" width="10" x="823" y="565.6074"/><rect fill="#FFFFFF" height="138.1641" style="stroke:#181818;stroke-width:1.0;" width="10" x="823" y="828.9355"/><rect fill="#FFFFFF" height="219.0371" style="stroke:#181818;stroke-width:1.0;" width="10" x="823" y="1098.2637"/><rect fill="#FFFFFF" height="169.4551" style="stroke:#181818;stroke-width:1.0;" width="10" x="823" y="1411.1738"/><rect fill="#FFFFFF" height="138.1641" style="stroke:#181818;stroke-width:1.0;" width="10" x="823" y="1674.502"/><rect fill="#FFFFFF" height="31.291" style="stroke:#181818;stroke-width:1.0;" width="10" x="1110" y="346.5703"/><rect fill="#FFFFFF" height="31.291" style="stroke:#181818;stroke-width:1.0;" width="10" x="1110" y="409.1523"/><rect fill="#FFFFFF" height="106.873" style="stroke:#181818;stroke-width:1.0;" width="10" x="1110" y="596.8984"/><rect fill="#FFFFFF" height="31.291" style="stroke:#181818;stroke-width:1.0;" width="10" x="1110" y="1192.1367"/><rect fill="#FFFFFF" height="31.291" style="stroke:#181818;stroke-width:1.0;" width="10" x="1110" y="1254.7188"/><rect fill="#FFFFFF" height="106.873" style="stroke:#181818;stroke-width:1.0;" width="10" x="1110" y="1442.4648"/><rect fill="#FFFFFF" height="37.291" style="stroke:#181818;stroke-width:1.0;" width="10" x="1301" y="628.1895"/><rect fill="#FFFFFF" height="37.291" style="stroke:#181818;stroke-width:1.0;" width="10" x="1301" y="1473.7559"/><rect fill="#FFFFFF" height="31.291" style="stroke:#181818;stroke-width:1.0;" width="10" x="1487" y="283.9883"/><rect fill="#FFFFFF" height="75.582" style="stroke:#181818;stroke-width:1.0;" width="10" x="1487" y="860.2266"/><rect fill="#FFFFFF" height="31.291" style="stroke:#181818;stroke-width:1.0;" width="10" x="1487" y="1129.5547"/><rect fill="#FFFFFF" height="75.582" style="stroke:#181818;stroke-width:1.0;" width="10" x="1487" y="1705.793"/><polygon fill="#181818" points="591,117.5332,601,121.5332,591,125.5332,595,121.5332" style="stroke:#181818;stroke-width:1.0;"/><line style="stroke:#181818;stroke-width:1.0;" x1="123" x2="597" y1="121.5332" y2="121.5332"/><text fill="#000000" font-family="sans-serif" font-size="13" font-weight="bold" lengthAdjust="spacing" textLength="7" x="130" y="116.2705">1</text><text fill="#000000" font-family="sans-serif" font-size="13" lengthAdjust="spacing" textLength="204" x="141" y="116.2705">Starts opening/closing a enrollment</text><polygon fill="#181818" points="134,148.8242,124,152.8242,134,156.8242,130,152.8242" style="stroke:#181818;stroke-width:1.0;"/><line style="stroke:#181818;stroke-width:1.0;" x1="128" x2="607" y1="152.8242" y2="152.8242"/><text fill="#000000" font-family="sans-serif" font-size="13" font-weight="bold" lengthAdjust="spacing" textLength="7" x="140" y="147.5615">2</text><text fill="#000000" font-family="sans-serif" font-size="13" lengthAdjust="spacing" textLength="125" x="151" y="147.5615">requests course code</text><path d="M37,165.8242 L37,192.8242 L199,192.8242 L199,175.8242 L189,165.8242 L37,165.8242 " fill="#FEFFDD" style="stroke:#181818;stroke-width:0.5;"/><path d="M189,165.8242 L189,175.8242 L199,175.8242 L189,165.8242 " fill="#FEFFDD" style="stroke:#181818;stroke-width:0.5;"/><text fill="#000000" font-family="sans-serif" font-size="13" lengthAdjust="spacing" textLength="141" x="43" y="184.8525">if Course status is open:</text><polygon fill="#181818" points="591,217.4063,601,221.4063,591,225.4063,595,221.4063" style="stroke:#181818;stroke-width:1.0;"/><line style="stroke:#181818;stroke-width:1.0;" x1="123" x2="597" y1="221.4063" y2="221.4063"/><text fill="#000000" font-family="sans-serif" font-size="13" font-weight="bold" lengthAdjust="spacing" textLength="7" x="130" y="216.1436">3</text><text fill="#000000" font-family="sans-serif" font-size="13" lengthAdjust="spacing" textLength="122" x="141" y="216.1436">types requested data</text><polygon fill="#181818" points="811,248.6973,821,252.6973,811,256.6973,815,252.6973" style="stroke:#181818;stroke-width:1.0;"/><line style="stroke:#181818;stroke-width:1.0;" x1="613" x2="817" y1="252.6973" y2="252.6973"/><text fill="#000000" font-family="sans-serif" font-size="13" font-weight="bold" lengthAdjust="spacing" textLength="7" x="620" y="247.4346">4</text><text fill="#000000" font-family="sans-serif" font-size="13" lengthAdjust="spacing" textLength="143" x="631" y="247.4346">verifyCourseExists(code)</text><polygon fill="#181818" points="1475,279.9883,1485,283.9883,1475,287.9883,1479,283.9883" style="stroke:#181818;stroke-width:1.0;"/><line style="stroke:#181818;stroke-width:1.0;" x1="833" x2="1481" y1="283.9883" y2="283.9883"/><text fill="#000000" font-family="sans-serif" font-size="13" font-weight="bold" lengthAdjust="spacing" textLength="7" x="840" y="278.7256">5</text><text fill="#000000" font-family="sans-serif" font-size="13" lengthAdjust="spacing" textLength="129" x="851" y="278.7256">getCourseRepository()</text><polygon fill="#181818" points="844,311.2793,834,315.2793,844,319.2793,840,315.2793" style="stroke:#181818;stroke-width:1.0;"/><line style="stroke:#181818;stroke-width:1.0;stroke-dasharray:2.0,2.0;" x1="838" x2="1491" y1="315.2793" y2="315.2793"/><text fill="#000000" font-family="sans-serif" font-size="13" font-weight="bold" lengthAdjust="spacing" textLength="7" x="850" y="310.0166">6</text><text fill="#000000" font-family="sans-serif" font-size="13" lengthAdjust="spacing" textLength="111" x="861" y="310.0166">CourseRepository()</text><polygon fill="#181818" points="1098,342.5703,1108,346.5703,1098,350.5703,1102,346.5703" style="stroke:#181818;stroke-width:1.0;"/><line style="stroke:#181818;stroke-width:1.0;" x1="833" x2="1104" y1="346.5703" y2="346.5703"/><text fill="#000000" font-family="sans-serif" font-size="13" font-weight="bold" lengthAdjust="spacing" textLength="7" x="840" y="341.3076">7</text><text fill="#000000" font-family="sans-serif" font-size="13" lengthAdjust="spacing" textLength="143" x="851" y="341.3076">verifyCourseExists(code)</text><polygon fill="#181818" points="844,373.8613,834,377.8613,844,381.8613,840,377.8613" style="stroke:#181818;stroke-width:1.0;"/><line style="stroke:#181818;stroke-width:1.0;stroke-dasharray:2.0,2.0;" x1="838" x2="1114" y1="377.8613" y2="377.8613"/><text fill="#000000" font-family="sans-serif" font-size="13" font-weight="bold" lengthAdjust="spacing" textLength="7" x="850" y="372.5986">8</text><text fill="#000000" font-family="sans-serif" font-size="13" lengthAdjust="spacing" textLength="61" x="861" y="372.5986">CourseDto</text><polygon fill="#181818" points="1098,405.1523,1108,409.1523,1098,413.1523,1102,409.1523" style="stroke:#181818;stroke-width:1.0;"/><line style="stroke:#181818;stroke-width:1.0;" x1="833" x2="1104" y1="409.1523" y2="409.1523"/><text fill="#000000" font-family="sans-serif" font-size="13" font-weight="bold" lengthAdjust="spacing" textLength="7" x="840" y="403.8896">9</text><text fill="#000000" font-family="sans-serif" font-size="13" lengthAdjust="spacing" textLength="155" x="851" y="403.8896">VerifyCourseIsActive(code)</text><polygon fill="#181818" points="844,436.4434,834,440.4434,844,444.4434,840,440.4434" style="stroke:#181818;stroke-width:1.0;"/><line style="stroke:#181818;stroke-width:1.0;stroke-dasharray:2.0,2.0;" x1="838" x2="1114" y1="440.4434" y2="440.4434"/><text fill="#000000" font-family="sans-serif" font-size="13" font-weight="bold" lengthAdjust="spacing" textLength="14" x="850" y="435.1807">10</text><text fill="#000000" font-family="sans-serif" font-size="13" lengthAdjust="spacing" textLength="61" x="868" y="435.1807">CourseDto</text><polygon fill="#181818" points="624,467.7344,614,471.7344,624,475.7344,620,471.7344" style="stroke:#181818;stroke-width:1.0;"/><line style="stroke:#181818;stroke-width:1.0;stroke-dasharray:2.0,2.0;" x1="618" x2="827" y1="471.7344" y2="471.7344"/><text fill="#000000" font-family="sans-serif" font-size="13" font-weight="bold" lengthAdjust="spacing" textLength="14" x="630" y="466.4717">11</text><text fill="#000000" font-family="sans-serif" font-size="13" lengthAdjust="spacing" textLength="61" x="648" y="466.4717">CourseDto</text><polygon fill="#181818" points="134,499.0254,124,503.0254,134,507.0254,130,503.0254" style="stroke:#181818;stroke-width:1.0;"/><line style="stroke:#181818;stroke-width:1.0;stroke-dasharray:2.0,2.0;" x1="128" x2="607" y1="503.0254" y2="503.0254"/><text fill="#000000" font-family="sans-serif" font-size="13" font-weight="bold" lengthAdjust="spacing" textLength="14" x="140" y="497.7627">12</text><text fill="#000000" font-family="sans-serif" font-size="13" lengthAdjust="spacing" textLength="342" x="158" y="497.7627">Course exists and is active and asks to accept enrollments</text><polygon fill="#181818" points="591,530.3164,601,534.3164,591,538.3164,595,534.3164" style="stroke:#181818;stroke-width:1.0;"/><line style="stroke:#181818;stroke-width:1.0;" x1="123" x2="597" y1="534.3164" y2="534.3164"/><text fill="#000000" font-family="sans-serif" font-size="13" font-weight="bold" lengthAdjust="spacing" textLength="14" x="130" y="529.0537">13</text><text fill="#000000" font-family="sans-serif" font-size="13" lengthAdjust="spacing" textLength="49" x="148" y="529.0537">confirms</text><polygon fill="#181818" points="811,561.6074,821,565.6074,811,569.6074,815,565.6074" style="stroke:#181818;stroke-width:1.0;"/><line style="stroke:#181818;stroke-width:1.0;" x1="613" x2="817" y1="565.6074" y2="565.6074"/><text fill="#000000" font-family="sans-serif" font-size="13" font-weight="bold" lengthAdjust="spacing" textLength="14" x="620" y="560.3447">14</text><text fill="#000000" font-family="sans-serif" font-size="13" lengthAdjust="spacing" textLength="141" x="638" y="560.3447">enableenrollments(code)</text><polygon fill="#181818" points="1098,592.8984,1108,596.8984,1098,600.8984,1102,596.8984" style="stroke:#181818;stroke-width:1.0;"/><line style="stroke:#181818;stroke-width:1.0;" x1="833" x2="1104" y1="596.8984" y2="596.8984"/><text fill="#000000" font-family="sans-serif" font-size="13" font-weight="bold" lengthAdjust="spacing" textLength="14" x="840" y="591.6357">15</text><text fill="#000000" font-family="sans-serif" font-size="13" lengthAdjust="spacing" textLength="141" x="858" y="591.6357">enableenrollments(code)</text><polygon fill="#181818" points="1289,624.1895,1299,628.1895,1289,632.1895,1293,628.1895" style="stroke:#181818;stroke-width:1.0;"/><line style="stroke:#181818;stroke-width:1.0;" x1="1120" x2="1295" y1="628.1895" y2="628.1895"/><text fill="#000000" font-family="sans-serif" font-size="13" font-weight="bold" lengthAdjust="spacing" textLength="14" x="1127" y="622.9268">16</text><text fill="#000000" font-family="sans-serif" font-size="13" lengthAdjust="spacing" textLength="141" x="1145" y="622.9268">enableenrollments(code)</text><line style="stroke:#181818;stroke-width:1.0;" x1="1311" x2="1353" y1="664.4805" y2="664.4805"/><line style="stroke:#181818;stroke-width:1.0;" x1="1353" x2="1353" y1="664.4805" y2="677.4805"/><line style="stroke:#181818;stroke-width:1.0;" x1="1306" x2="1353" y1="677.4805" y2="677.4805"/><polygon fill="#181818" points="1316,673.4805,1306,677.4805,1316,681.4805,1312,677.4805" style="stroke:#181818;stroke-width:1.0;"/><text fill="#000000" font-family="sans-serif" font-size="13" font-weight="bold" lengthAdjust="spacing" textLength="14" x="1318" y="659.2178">17</text><text fill="#000000" font-family="sans-serif" font-size="13" lengthAdjust="spacing" textLength="141" x="1336" y="659.2178">enableenrollments(code)</text><polygon fill="#181818" points="844,699.7715,834,703.7715,844,707.7715,840,703.7715" style="stroke:#181818;stroke-width:1.0;"/><line style="stroke:#181818;stroke-width:1.0;stroke-dasharray:2.0,2.0;" x1="838" x2="1114" y1="703.7715" y2="703.7715"/><text fill="#000000" font-family="sans-serif" font-size="13" font-weight="bold" lengthAdjust="spacing" textLength="14" x="850" y="698.5088">18</text><text fill="#000000" font-family="sans-serif" font-size="13" lengthAdjust="spacing" textLength="22" x="868" y="698.5088">true</text><polygon fill="#181818" points="624,731.0625,614,735.0625,624,739.0625,620,735.0625" style="stroke:#181818;stroke-width:1.0;"/><line style="stroke:#181818;stroke-width:1.0;stroke-dasharray:2.0,2.0;" x1="618" x2="827" y1="735.0625" y2="735.0625"/><text fill="#000000" font-family="sans-serif" font-size="13" font-weight="bold" lengthAdjust="spacing" textLength="14" x="630" y="729.7998">19</text><text fill="#000000" font-family="sans-serif" font-size="13" lengthAdjust="spacing" textLength="22" x="648" y="729.7998">true</text><polygon fill="#181818" points="134,762.3535,124,766.3535,134,770.3535,130,766.3535" style="stroke:#181818;stroke-width:1.0;"/><line style="stroke:#181818;stroke-width:1.0;stroke-dasharray:2.0,2.0;" x1="128" x2="607" y1="766.3535" y2="766.3535"/><text fill="#000000" font-family="sans-serif" font-size="13" font-weight="bold" lengthAdjust="spacing" textLength="14" x="140" y="761.0908">20</text><text fill="#000000" font-family="sans-serif" font-size="13" lengthAdjust="spacing" textLength="332" x="158" y="761.0908">shows new status of the course and asks for confirmation</text><polygon fill="#181818" points="591,793.6445,601,797.6445,591,801.6445,595,797.6445" style="stroke:#181818;stroke-width:1.0;"/><line style="stroke:#181818;stroke-width:1.0;" x1="123" x2="597" y1="797.6445" y2="797.6445"/><text fill="#000000" font-family="sans-serif" font-size="13" font-weight="bold" lengthAdjust="spacing" textLength="14" x="130" y="792.3818">21</text><text fill="#000000" font-family="sans-serif" font-size="13" lengthAdjust="spacing" textLength="49" x="148" y="792.3818">confirms</text><polygon fill="#181818" points="811,824.9355,821,828.9355,811,832.9355,815,828.9355" style="stroke:#181818;stroke-width:1.0;"/><line style="stroke:#181818;stroke-width:1.0;" x1="613" x2="817" y1="828.9355" y2="828.9355"/><text fill="#000000" font-family="sans-serif" font-size="13" font-weight="bold" lengthAdjust="spacing" textLength="14" x="620" y="823.6729">22</text><text fill="#000000" font-family="sans-serif" font-size="13" lengthAdjust="spacing" textLength="173" x="638" y="823.6729">saveSatusChange(CourseDto)</text><polygon fill="#181818" points="1475,856.2266,1485,860.2266,1475,864.2266,1479,860.2266" style="stroke:#181818;stroke-width:1.0;"/><line style="stroke:#181818;stroke-width:1.0;" x1="833" x2="1481" y1="860.2266" y2="860.2266"/><text fill="#000000" font-family="sans-serif" font-size="13" font-weight="bold" lengthAdjust="spacing" textLength="14" x="840" y="854.9639">23</text><text fill="#000000" font-family="sans-serif" font-size="13" lengthAdjust="spacing" textLength="70" x="858" y="854.9639">add(Course)</text><line style="stroke:#181818;stroke-width:1.0;" x1="1497" x2="1539" y1="891.5176" y2="891.5176"/><line style="stroke:#181818;stroke-width:1.0;" x1="1539" x2="1539" y1="891.5176" y2="904.5176"/><line style="stroke:#181818;stroke-width:1.0;" x1="1498" x2="1539" y1="904.5176" y2="904.5176"/><polygon fill="#181818" points="1508,900.5176,1498,904.5176,1508,908.5176,1504,904.5176" style="stroke:#181818;stroke-width:1.0;"/><text fill="#000000" font-family="sans-serif" font-size="13" font-weight="bold" lengthAdjust="spacing" textLength="14" x="1504" y="886.2549">24</text><text fill="#000000" font-family="sans-serif" font-size="13" lengthAdjust="spacing" textLength="75" x="1522" y="886.2549">save(Course)</text><polygon fill="#181818" points="844,931.8086,834,935.8086,844,939.8086,840,935.8086" style="stroke:#181818;stroke-width:1.0;"/><line style="stroke:#181818;stroke-width:1.0;stroke-dasharray:2.0,2.0;" x1="838" x2="1491" y1="935.8086" y2="935.8086"/><text fill="#000000" font-family="sans-serif" font-size="13" font-weight="bold" lengthAdjust="spacing" textLength="14" x="850" y="930.5459">25</text><text fill="#000000" font-family="sans-serif" font-size="13" lengthAdjust="spacing" textLength="163" x="868" y="930.5459">Status change successfully!</text><polygon fill="#181818" points="624,963.0996,614,967.0996,624,971.0996,620,967.0996" style="stroke:#181818;stroke-width:1.0;"/><line style="stroke:#181818;stroke-width:1.0;stroke-dasharray:2.0,2.0;" x1="618" x2="827" y1="967.0996" y2="967.0996"/><text fill="#000000" font-family="sans-serif" font-size="13" font-weight="bold" lengthAdjust="spacing" textLength="14" x="630" y="961.8369">26</text><text fill="#000000" font-family="sans-serif" font-size="13" lengthAdjust="spacing" textLength="163" x="648" y="961.8369">Status change successfully!</text><polygon fill="#181818" points="134,994.3906,124,998.3906,134,1002.3906,130,998.3906" style="stroke:#181818;stroke-width:1.0;"/><line style="stroke:#181818;stroke-width:1.0;stroke-dasharray:2.0,2.0;" x1="128" x2="607" y1="998.3906" y2="998.3906"/><text fill="#000000" font-family="sans-serif" font-size="13" font-weight="bold" lengthAdjust="spacing" textLength="14" x="140" y="993.1279">27</text><text fill="#000000" font-family="sans-serif" font-size="13" lengthAdjust="spacing" textLength="163" x="158" y="993.1279">Status change successfully!</text><path d="M5,1011.3906 L5,1038.3906 L231,1038.3906 L231,1021.3906 L221,1011.3906 L5,1011.3906 " fill="#FEFFDD" style="stroke:#181818;stroke-width:0.5;"/><path d="M221,1011.3906 L221,1021.3906 L231,1021.3906 L221,1011.3906 " fill="#FEFFDD" style="stroke:#181818;stroke-width:0.5;"/><text fill="#000000" font-family="sans-serif" font-size="13" lengthAdjust="spacing" textLength="205" x="11" y="1030.4189">if Course status is enrollment open:</text><polygon fill="#181818" points="591,1062.9727,601,1066.9727,591,1070.9727,595,1066.9727" style="stroke:#181818;stroke-width:1.0;"/><line style="stroke:#181818;stroke-width:1.0;" x1="123" x2="597" y1="1066.9727" y2="1066.9727"/><text fill="#000000" font-family="sans-serif" font-size="13" font-weight="bold" lengthAdjust="spacing" textLength="14" x="130" y="1061.71">28</text><text fill="#000000" font-family="sans-serif" font-size="13" lengthAdjust="spacing" textLength="122" x="148" y="1061.71">types requested data</text><polygon fill="#181818" points="811,1094.2637,821,1098.2637,811,1102.2637,815,1098.2637" style="stroke:#181818;stroke-width:1.0;"/><line style="stroke:#181818;stroke-width:1.0;" x1="613" x2="817" y1="1098.2637" y2="1098.2637"/><text fill="#000000" font-family="sans-serif" font-size="13" font-weight="bold" lengthAdjust="spacing" textLength="14" x="620" y="1093.001">29</text><text fill="#000000" font-family="sans-serif" font-size="13" lengthAdjust="spacing" textLength="143" x="638" y="1093.001">verifyCourseExists(code)</text><polygon fill="#181818" points="1475,1125.5547,1485,1129.5547,1475,1133.5547,1479,1129.5547" style="stroke:#181818;stroke-width:1.0;"/><line style="stroke:#181818;stroke-width:1.0;" x1="833" x2="1481" y1="1129.5547" y2="1129.5547"/><text fill="#000000" font-family="sans-serif" font-size="13" font-weight="bold" lengthAdjust="spacing" textLength="14" x="840" y="1124.292">30</text><text fill="#000000" font-family="sans-serif" font-size="13" lengthAdjust="spacing" textLength="129" x="858" y="1124.292">getCourseRepository()</text><polygon fill="#181818" points="844,1156.8457,834,1160.8457,844,1164.8457,840,1160.8457" style="stroke:#181818;stroke-width:1.0;"/><line style="stroke:#181818;stroke-width:1.0;stroke-dasharray:2.0,2.0;" x1="838" x2="1491" y1="1160.8457" y2="1160.8457"/><text fill="#000000" font-family="sans-serif" font-size="13" font-weight="bold" lengthAdjust="spacing" textLength="14" x="850" y="1155.583">31</text><text fill="#000000" font-family="sans-serif" font-size="13" lengthAdjust="spacing" textLength="111" x="868" y="1155.583">CourseRepository()</text><polygon fill="#181818" points="1098,1188.1367,1108,1192.1367,1098,1196.1367,1102,1192.1367" style="stroke:#181818;stroke-width:1.0;"/><line style="stroke:#181818;stroke-width:1.0;" x1="833" x2="1104" y1="1192.1367" y2="1192.1367"/><text fill="#000000" font-family="sans-serif" font-size="13" font-weight="bold" lengthAdjust="spacing" textLength="14" x="840" y="1186.874">32</text><text fill="#000000" font-family="sans-serif" font-size="13" lengthAdjust="spacing" textLength="143" x="858" y="1186.874">verifyCourseExists(code)</text><polygon fill="#181818" points="844,1219.4277,834,1223.4277,844,1227.4277,840,1223.4277" style="stroke:#181818;stroke-width:1.0;"/><line style="stroke:#181818;stroke-width:1.0;stroke-dasharray:2.0,2.0;" x1="838" x2="1114" y1="1223.4277" y2="1223.4277"/><text fill="#000000" font-family="sans-serif" font-size="13" font-weight="bold" lengthAdjust="spacing" textLength="14" x="850" y="1218.165">33</text><text fill="#000000" font-family="sans-serif" font-size="13" lengthAdjust="spacing" textLength="61" x="868" y="1218.165">CourseDto</text><polygon fill="#181818" points="1098,1250.7188,1108,1254.7188,1098,1258.7188,1102,1254.7188" style="stroke:#181818;stroke-width:1.0;"/><line style="stroke:#181818;stroke-width:1.0;" x1="833" x2="1104" y1="1254.7188" y2="1254.7188"/><text fill="#000000" font-family="sans-serif" font-size="13" font-weight="bold" lengthAdjust="spacing" textLength="14" x="840" y="1249.4561">34</text><text fill="#000000" font-family="sans-serif" font-size="13" lengthAdjust="spacing" textLength="240" x="858" y="1249.4561">VerifyCourseIsActiveAndEnrollment(code)</text><polygon fill="#181818" points="844,1282.0098,834,1286.0098,844,1290.0098,840,1286.0098" style="stroke:#181818;stroke-width:1.0;"/><line style="stroke:#181818;stroke-width:1.0;stroke-dasharray:2.0,2.0;" x1="838" x2="1114" y1="1286.0098" y2="1286.0098"/><text fill="#000000" font-family="sans-serif" font-size="13" font-weight="bold" lengthAdjust="spacing" textLength="14" x="850" y="1280.7471">35</text><text fill="#000000" font-family="sans-serif" font-size="13" lengthAdjust="spacing" textLength="61" x="868" y="1280.7471">CourseDto</text><polygon fill="#181818" points="624,1313.3008,614,1317.3008,624,1321.3008,620,1317.3008" style="stroke:#181818;stroke-width:1.0;"/><line style="stroke:#181818;stroke-width:1.0;stroke-dasharray:2.0,2.0;" x1="618" x2="827" y1="1317.3008" y2="1317.3008"/><text fill="#000000" font-family="sans-serif" font-size="13" font-weight="bold" lengthAdjust="spacing" textLength="14" x="630" y="1312.0381">36</text><text fill="#000000" font-family="sans-serif" font-size="13" lengthAdjust="spacing" textLength="61" x="648" y="1312.0381">CourseDto</text><polygon fill="#181818" points="134,1344.5918,124,1348.5918,134,1352.5918,130,1348.5918" style="stroke:#181818;stroke-width:1.0;"/><line style="stroke:#181818;stroke-width:1.0;stroke-dasharray:2.0,2.0;" x1="128" x2="607" y1="1348.5918" y2="1348.5918"/><text fill="#000000" font-family="sans-serif" font-size="13" font-weight="bold" lengthAdjust="spacing" textLength="14" x="140" y="1343.3291">37</text><text fill="#000000" font-family="sans-serif" font-size="13" lengthAdjust="spacing" textLength="438" x="158" y="1343.3291">Course exists and is accpeting enrollments and asks to disable enrollments</text><polygon fill="#181818" points="591,1375.8828,601,1379.8828,591,1383.8828,595,1379.8828" style="stroke:#181818;stroke-width:1.0;"/><line style="stroke:#181818;stroke-width:1.0;" x1="123" x2="597" y1="1379.8828" y2="1379.8828"/><text fill="#000000" font-family="sans-serif" font-size="13" font-weight="bold" lengthAdjust="spacing" textLength="14" x="130" y="1374.6201">38</text><text fill="#000000" font-family="sans-serif" font-size="13" lengthAdjust="spacing" textLength="49" x="148" y="1374.6201">confirms</text><polygon fill="#181818" points="811,1407.1738,821,1411.1738,811,1415.1738,815,1411.1738" style="stroke:#181818;stroke-width:1.0;"/><line style="stroke:#181818;stroke-width:1.0;" x1="613" x2="817" y1="1411.1738" y2="1411.1738"/><text fill="#000000" font-family="sans-serif" font-size="13" font-weight="bold" lengthAdjust="spacing" textLength="14" x="620" y="1405.9111">39</text><text fill="#000000" font-family="sans-serif" font-size="13" lengthAdjust="spacing" textLength="144" x="638" y="1405.9111">disableenrollments(code)</text><polygon fill="#181818" points="1098,1438.4648,1108,1442.4648,1098,1446.4648,1102,1442.4648" style="stroke:#181818;stroke-width:1.0;"/><line style="stroke:#181818;stroke-width:1.0;" x1="833" x2="1104" y1="1442.4648" y2="1442.4648"/><text fill="#000000" font-family="sans-serif" font-size="13" font-weight="bold" lengthAdjust="spacing" textLength="14" x="840" y="1437.2021">40</text><text fill="#000000" font-family="sans-serif" font-size="13" lengthAdjust="spacing" textLength="144" x="858" y="1437.2021">disableenrollments(code)</text><polygon fill="#181818" points="1289,1469.7559,1299,1473.7559,1289,1477.7559,1293,1473.7559" style="stroke:#181818;stroke-width:1.0;"/><line style="stroke:#181818;stroke-width:1.0;" x1="1120" x2="1295" y1="1473.7559" y2="1473.7559"/><text fill="#000000" font-family="sans-serif" font-size="13" font-weight="bold" lengthAdjust="spacing" textLength="14" x="1127" y="1468.4932">41</text><text fill="#000000" font-family="sans-serif" font-size="13" lengthAdjust="spacing" textLength="144" x="1145" y="1468.4932">disableenrollments(code)</text><line style="stroke:#181818;stroke-width:1.0;" x1="1311" x2="1353" y1="1510.0469" y2="1510.0469"/><line style="stroke:#181818;stroke-width:1.0;" x1="1353" x2="1353" y1="1510.0469" y2="1523.0469"/><line style="stroke:#181818;stroke-width:1.0;" x1="1306" x2="1353" y1="1523.0469" y2="1523.0469"/><polygon fill="#181818" points="1316,1519.0469,1306,1523.0469,1316,1527.0469,1312,1523.0469" style="stroke:#181818;stroke-width:1.0;"/><text fill="#000000" font-family="sans-serif" font-size="13" font-weight="bold" lengthAdjust="spacing" textLength="14" x="1318" y="1504.7842">42</text><text fill="#000000" font-family="sans-serif" font-size="13" lengthAdjust="spacing" textLength="144" x="1336" y="1504.7842">disableenrollments(code)</text><polygon fill="#181818" points="844,1545.3379,834,1549.3379,844,1553.3379,840,1549.3379" style="stroke:#181818;stroke-width:1.0;"/><line style="stroke:#181818;stroke-width:1.0;stroke-dasharray:2.0,2.0;" x1="838" x2="1114" y1="1549.3379" y2="1549.3379"/><text fill="#000000" font-family="sans-serif" font-size="13" font-weight="bold" lengthAdjust="spacing" textLength="14" x="850" y="1544.0752">43</text><text fill="#000000" font-family="sans-serif" font-size="13" lengthAdjust="spacing" textLength="22" x="868" y="1544.0752">true</text><polygon fill="#181818" points="624,1576.6289,614,1580.6289,624,1584.6289,620,1580.6289" style="stroke:#181818;stroke-width:1.0;"/><line style="stroke:#181818;stroke-width:1.0;stroke-dasharray:2.0,2.0;" x1="618" x2="827" y1="1580.6289" y2="1580.6289"/><text fill="#000000" font-family="sans-serif" font-size="13" font-weight="bold" lengthAdjust="spacing" textLength="14" x="630" y="1575.3662">44</text><text fill="#000000" font-family="sans-serif" font-size="13" lengthAdjust="spacing" textLength="22" x="648" y="1575.3662">true</text><polygon fill="#181818" points="134,1607.9199,124,1611.9199,134,1615.9199,130,1611.9199" style="stroke:#181818;stroke-width:1.0;"/><line style="stroke:#181818;stroke-width:1.0;stroke-dasharray:2.0,2.0;" x1="128" x2="607" y1="1611.9199" y2="1611.9199"/><text fill="#000000" font-family="sans-serif" font-size="13" font-weight="bold" lengthAdjust="spacing" textLength="14" x="140" y="1606.6572">45</text><text fill="#000000" font-family="sans-serif" font-size="13" lengthAdjust="spacing" textLength="332" x="158" y="1606.6572">shows new status of the course and asks for confirmation</text><polygon fill="#181818" points="591,1639.2109,601,1643.2109,591,1647.2109,595,1643.2109" style="stroke:#181818;stroke-width:1.0;"/><line style="stroke:#181818;stroke-width:1.0;" x1="123" x2="597" y1="1643.2109" y2="1643.2109"/><text fill="#000000" font-family="sans-serif" font-size="13" font-weight="bold" lengthAdjust="spacing" textLength="14" x="130" y="1637.9482">46</text><text fill="#000000" font-family="sans-serif" font-size="13" lengthAdjust="spacing" textLength="49" x="148" y="1637.9482">confirms</text><polygon fill="#181818" points="811,1670.502,821,1674.502,811,1678.502,815,1674.502" style="stroke:#181818;stroke-width:1.0;"/><line style="stroke:#181818;stroke-width:1.0;" x1="613" x2="817" y1="1674.502" y2="1674.502"/><text fill="#000000" font-family="sans-serif" font-size="13" font-weight="bold" lengthAdjust="spacing" textLength="14" x="620" y="1669.2393">47</text><text fill="#000000" font-family="sans-serif" font-size="13" lengthAdjust="spacing" textLength="173" x="638" y="1669.2393">saveSatusChange(CourseDto)</text><polygon fill="#181818" points="1475,1701.793,1485,1705.793,1475,1709.793,1479,1705.793" style="stroke:#181818;stroke-width:1.0;"/><line style="stroke:#181818;stroke-width:1.0;" x1="833" x2="1481" y1="1705.793" y2="1705.793"/><text fill="#000000" font-family="sans-serif" font-size="13" font-weight="bold" lengthAdjust="spacing" textLength="14" x="840" y="1700.5303">48</text><text fill="#000000" font-family="sans-serif" font-size="13" lengthAdjust="spacing" textLength="70" x="858" y="1700.5303">add(Course)</text><line style="stroke:#181818;stroke-width:1.0;" x1="1497" x2="1539" y1="1737.084" y2="1737.084"/><line style="stroke:#181818;stroke-width:1.0;" x1="1539" x2="1539" y1="1737.084" y2="1750.084"/><line style="stroke:#181818;stroke-width:1.0;" x1="1498" x2="1539" y1="1750.084" y2="1750.084"/><polygon fill="#181818" points="1508,1746.084,1498,1750.084,1508,1754.084,1504,1750.084" style="stroke:#181818;stroke-width:1.0;"/><text fill="#000000" font-family="sans-serif" font-size="13" font-weight="bold" lengthAdjust="spacing" textLength="14" x="1504" y="1731.8213">49</text><text fill="#000000" font-family="sans-serif" font-size="13" lengthAdjust="spacing" textLength="75" x="1522" y="1731.8213">save(Course)</text><polygon fill="#181818" points="844,1777.375,834,1781.375,844,1785.375,840,1781.375" style="stroke:#181818;stroke-width:1.0;"/><line style="stroke:#181818;stroke-width:1.0;stroke-dasharray:2.0,2.0;" x1="838" x2="1491" y1="1781.375" y2="1781.375"/><text fill="#000000" font-family="sans-serif" font-size="13" font-weight="bold" lengthAdjust="spacing" textLength="14" x="850" y="1776.1123">50</text><text fill="#000000" font-family="sans-serif" font-size="13" lengthAdjust="spacing" textLength="163" x="868" y="1776.1123">Status change successfully!</text><polygon fill="#181818" points="624,1808.666,614,1812.666,624,1816.666,620,1812.666" style="stroke:#181818;stroke-width:1.0;"/><line style="stroke:#181818;stroke-width:1.0;stroke-dasharray:2.0,2.0;" x1="618" x2="827" y1="1812.666" y2="1812.666"/><text fill="#000000" font-family="sans-serif" font-size="13" font-weight="bold" lengthAdjust="spacing" textLength="14" x="630" y="1807.4033">51</text><text fill="#000000" font-family="sans-serif" font-size="13" lengthAdjust="spacing" textLength="163" x="648" y="1807.4033">Status change successfully!</text><polygon fill="#181818" points="134,1839.957,124,1843.957,134,1847.957,130,1843.957" style="stroke:#181818;stroke-width:1.0;"/><line style="stroke:#181818;stroke-width:1.0;stroke-dasharray:2.0,2.0;" x1="128" x2="607" y1="1843.957" y2="1843.957"/><text fill="#000000" font-family="sans-serif" font-size="13" font-weight="bold" lengthAdjust="spacing" textLength="14" x="140" y="1838.6943">52</text><text fill="#000000" font-family="sans-serif" font-size="13" lengthAdjust="spacing" textLength="163" x="158" y="1838.6943">Status change successfully!</text><!--SRC=[xLLDRzim3BthLt2zB3rakHj5WC9hW1o60JQoksBJYJ1RyamvNVxzAFcxQH0N7J1Wg0-nvJm-aO_Yy-UZjIK5grMPIsth8l-Ic695-Aj6dU0oLV9GoK88MLkZwsAFbH2FYJKLV9DQ7h02IUvHY59MLYMgP1gu2xwNgCFS43xfokHvWThkjdSElDlUXeP6M_UCbG_XfKYbbNj9o8kw8eom9CLfd3rb5CF3GuMbQTwjrzCjmZXemngwU62B-g2DJ3g-QFEIZYyk4fPhJXy2Y2tJ4nZENEd3Ak7i-GuIi2z1C9qwIOjUdNx1rOlTbdaSNG2L4vgOAl7fyIr5aU84hWq_c1DwoGNmfRAs720hRKsWcbm2WJe5Xv-cQyybKhSNfk2glqo9LMOixwEoSqF_z5jnRWkNrFs0TzqG_BDSiqu17D3sBMa5MupGqKQ8QBFiw5-1ZifrOC_iEZed5yPnyb7Sy7VqNwsPYEX08zeV8zejFJeOle-OcRTNC5ujxiAoxtdRElG5WUIESViy7lrAqay2Q_XLWgKT7IbwUJB6FKwCpbHLqBIleyQYbliSHspN-zh8T3EWqyZb4CwA29rUj_5Z-QPji5NDP_jw2_p_b-eFujFHF1DeVEv6nsHWZzZDNwz_nWxNIYgjSlvp8RtRyQhmW-uaJnYxhSAZr0TSzAVaoaW58DEqHTsBoI3n7At18Hpd0Ed6o_kIgodnEm7LV8A8iZhFpvzU6xD6ivb15rBEZ9jlOSD1-72pzxdPeqw7Z-c_jxQaHEk-ZwD9dpXTgiWPmL-pkfRl3LvtE-B2x6PiCdMxgm4VTlTVsTqV]--></g></svg>