<?xml version="1.0" encoding="us-ascii" standalone="no"?><svg xmlns="http://www.w3.org/2000/svg" xmlns:xlink="http://www.w3.org/1999/xlink" contentStyleType="text/css" height="146px" preserveAspectRatio="none" style="width:352px;height:146px;background:#FFFFFF;" version="1.1" viewBox="0 0 352 146" width="352px" zoomAndPan="magnify"><defs/><g><!--entity Manager--><g id="elem_Manager"><ellipse cx="34" cy="43" fill="#F1F1F1" rx="8" ry="8" style="stroke:#181818;stroke-width:0.5;"/><path d="M34,51 L34,78 M21,59 L47,59 M34,78 L21,93 M34,78 L47,93 " fill="none" style="stroke:#181818;stroke-width:0.5;"/><text fill="#000000" font-family="sans-serif" font-size="14" lengthAdjust="spacing" textLength="56" x="6" y="109.6074">Manager</text></g><g id="elem_OpenEnrollments"><ellipse cx="234.4468" cy="30.7894" fill="#F1F1F1" rx="111.9468" ry="24.7894" style="stroke:#181818;stroke-width:0.5;"/><text fill="#000000" font-family="sans-serif" font-size="14" lengthAdjust="spacing" textLength="185" x="141.9468" y="34.5862">Open Enrollments in Courses</text></g><g id="elem_CloseEnrollments"><ellipse cx="234.3991" cy="115.8798" fill="#F1F1F1" rx="112.3991" ry="24.8798" style="stroke:#181818;stroke-width:0.5;"/><text fill="#000000" font-family="sans-serif" font-size="14" lengthAdjust="spacing" textLength="186" x="141.3991" y="119.6767">Close Enrollments in Courses</text></g><!--link Manager to OpenEnrollments--><g id="link_Manager_OpenEnrollments"><path d="M62.18,68.11 C84.56,63.26 117.54,56.12 148.6,49.39 " fill="none" id="Manager-to-OpenEnrollments" style="stroke:#181818;stroke-width:1.0;"/><polygon fill="#181818" points="153.56,48.32,143.9176,46.3138,148.6731,49.3774,145.6095,54.1329,153.56,48.32" style="stroke:#181818;stroke-width:1.0;"/></g><!--link Manager to CloseEnrollments--><g id="link_Manager_CloseEnrollments"><path d="M62.18,79.75 C84.26,84.42 116.65,91.28 147.34,97.77 " fill="none" id="Manager-to-CloseEnrollments" style="stroke:#181818;stroke-width:1.0;"/><polygon fill="#181818" points="152.25,98.81,144.2833,93.0194,147.3602,97.7663,142.6133,100.8431,152.25,98.81" style="stroke:#181818;stroke-width:1.0;"/></g><!--SRC=[VSqn3i8m30NGFQUmkZ2Lx0mi5IFY35PgsaYENJdE_Mah92gGMEpX_sUVPlUbNc9S6CLRuNFI4bkbFk4wneoJOGc1wUdW2fQdsM7CHicpIi3aQd17mOaih6vZq3qM4hY9ANCXyGfPOD1cbMe7M67B3_473gph-YFtmf6-VqFVNt_E7hDl-080]--></g></svg>