<?xml version="1.0" encoding="us-ascii" standalone="no"?><svg xmlns="http://www.w3.org/2000/svg" xmlns:xlink="http://www.w3.org/1999/xlink" contentStyleType="text/css" height="1002px" preserveAspectRatio="none" style="width:1292px;height:1002px;background:#FFFFFF;" version="1.1" viewBox="0 0 1292 1002" width="1292px" zoomAndPan="magnify"><defs/><g><rect fill="#FFFFFF" height="294.6191" style="stroke:#181818;stroke-width:1.0;" width="10" x="272.5" y="121.5332"/><rect fill="#FFFFFF" height="437.4922" style="stroke:#181818;stroke-width:1.0;" width="10" x="272.5" y="447.4434"/><rect fill="#FFFFFF" height="156.4551" style="stroke:#181818;stroke-width:1.0;" width="10" x="485.5" y="184.1152"/><rect fill="#FFFFFF" height="374.9102" style="stroke:#181818;stroke-width:1.0;" width="10" x="485.5" y="478.7344"/><rect fill="#FFFFFF" height="31.291" style="stroke:#181818;stroke-width:1.0;" width="10" x="656" y="215.4063"/><rect fill="#FFFFFF" height="312.3281" style="stroke:#181818;stroke-width:1.0;" width="10" x="819" y="510.0254"/><rect fill="#FFFFFF" height="31.291" style="stroke:#181818;stroke-width:1.0;" width="10" x="938.5" y="541.3164"/><rect fill="#FFFFFF" height="31.291" style="stroke:#181818;stroke-width:1.0;" width="10" x="1042.5" y="277.9883"/><rect fill="#FFFFFF" height="30" style="stroke:#181818;stroke-width:1.0;" width="10" x="1042.5" y="666.4805"/><rect fill="#FFFFFF" height="31.291" style="stroke:#181818;stroke-width:1.0;" width="10" x="1193" y="603.8984"/><rect fill="#FFFFFF" height="30" style="stroke:#181818;stroke-width:1.0;" width="10" x="1193" y="754.0625"/><rect fill="none" height="80.582" style="stroke:#000000;stroke-width:1.5;" width="550" x="736.5" y="711.4805"/><line style="stroke:#181818;stroke-width:0.5;stroke-dasharray:5.0,5.0;" x1="72" x2="72" y1="88.2422" y2="902.9355"/><line style="stroke:#181818;stroke-width:0.5;stroke-dasharray:5.0,5.0;" x1="277.5" x2="277.5" y1="88.2422" y2="902.9355"/><line style="stroke:#181818;stroke-width:0.5;stroke-dasharray:5.0,5.0;" x1="490.5" x2="490.5" y1="88.2422" y2="902.9355"/><line style="stroke:#181818;stroke-width:0.5;stroke-dasharray:5.0,5.0;" x1="660.5" x2="660.5" y1="88.2422" y2="902.9355"/><line style="stroke:#181818;stroke-width:0.5;stroke-dasharray:5.0,5.0;" x1="823.5" x2="823.5" y1="88.2422" y2="902.9355"/><line style="stroke:#181818;stroke-width:0.5;stroke-dasharray:5.0,5.0;" x1="943.5" x2="943.5" y1="88.2422" y2="902.9355"/><line style="stroke:#181818;stroke-width:0.5;stroke-dasharray:5.0,5.0;" x1="1047.5" x2="1047.5" y1="88.2422" y2="902.9355"/><line style="stroke:#181818;stroke-width:0.5;stroke-dasharray:5.0,5.0;" x1="1197.5" x2="1197.5" y1="88.2422" y2="902.9355"/><text fill="#000000" font-family="sans-serif" font-size="14" lengthAdjust="spacing" textLength="129" x="5" y="84.7285">eCourseSystemUser</text><ellipse cx="72.5" cy="18.1211" fill="#E3E3E3" rx="8" ry="8" style="stroke:#181818;stroke-width:0.5;"/><path d="M72.5,26.1211 L72.5,53.1211 M59.5,34.1211 L85.5,34.1211 M72.5,53.1211 L59.5,68.1211 M72.5,53.1211 L85.5,68.1211 " fill="none" style="stroke:#181818;stroke-width:0.5;"/><text fill="#000000" font-family="sans-serif" font-size="14" lengthAdjust="spacing" textLength="129" x="5" y="917.043">eCourseSystemUser</text><ellipse cx="72.5" cy="929.0566" fill="#E3E3E3" rx="8" ry="8" style="stroke:#181818;stroke-width:0.5;"/><path d="M72.5,937.0566 L72.5,964.0566 M59.5,945.0566 L85.5,945.0566 M72.5,964.0566 L59.5,979.0566 M72.5,964.0566 L85.5,979.0566 " fill="none" style="stroke:#181818;stroke-width:0.5;"/><rect fill="#E3E3E3" height="51.2422" rx="2.5" ry="2.5" style="stroke:#181818;stroke-width:0.5;" width="120" x="217.5" y="36"/><text fill="#000000" font-family="sans-serif" font-size="14" font-style="italic" lengthAdjust="spacing" textLength="95" x="230" y="58.1074">&#171;presentation&#187;</text><text fill="#000000" font-family="sans-serif" font-size="14" lengthAdjust="spacing" textLength="106" x="224.5" y="76.7285">CancelMeetingUI</text><rect fill="#E3E3E3" height="51.2422" rx="2.5" ry="2.5" style="stroke:#181818;stroke-width:0.5;" width="120" x="217.5" y="901.9355"/><text fill="#000000" font-family="sans-serif" font-size="14" font-style="italic" lengthAdjust="spacing" textLength="95" x="230" y="924.043">&#171;presentation&#187;</text><text fill="#000000" font-family="sans-serif" font-size="14" lengthAdjust="spacing" textLength="106" x="224.5" y="942.6641">CancelMeetingUI</text><rect fill="#E3E3E3" height="51.2422" rx="2.5" ry="2.5" style="stroke:#181818;stroke-width:0.5;" width="170" x="405.5" y="36"/><text fill="#000000" font-family="sans-serif" font-size="14" font-style="italic" lengthAdjust="spacing" textLength="84" x="448.5" y="58.1074">&#171;application&#187;</text><text fill="#000000" font-family="sans-serif" font-size="14" lengthAdjust="spacing" textLength="156" x="412.5" y="76.7285">CancelMeetingController</text><rect fill="#E3E3E3" height="51.2422" rx="2.5" ry="2.5" style="stroke:#181818;stroke-width:0.5;" width="170" x="405.5" y="901.9355"/><text fill="#000000" font-family="sans-serif" font-size="14" font-style="italic" lengthAdjust="spacing" textLength="84" x="448.5" y="924.043">&#171;application&#187;</text><text fill="#000000" font-family="sans-serif" font-size="14" lengthAdjust="spacing" textLength="156" x="412.5" y="942.6641">CancelMeetingController</text><rect fill="#E3E3E3" height="51.2422" rx="2.5" ry="2.5" style="stroke:#181818;stroke-width:0.5;" width="151" x="585.5" y="36"/><text fill="#000000" font-family="sans-serif" font-size="14" font-style="italic" lengthAdjust="spacing" textLength="60" x="631" y="58.1074">&#171;service&#187;</text><text fill="#000000" font-family="sans-serif" font-size="14" lengthAdjust="spacing" textLength="137" x="592.5" y="76.7285">AuthenticationService</text><rect fill="#E3E3E3" height="51.2422" rx="2.5" ry="2.5" style="stroke:#181818;stroke-width:0.5;" width="151" x="585.5" y="901.9355"/><text fill="#000000" font-family="sans-serif" font-size="14" font-style="italic" lengthAdjust="spacing" textLength="60" x="631" y="924.043">&#171;service&#187;</text><text fill="#000000" font-family="sans-serif" font-size="14" lengthAdjust="spacing" textLength="137" x="592.5" y="942.6641">AuthenticationService</text><rect fill="#E3E3E3" height="51.2422" rx="2.5" ry="2.5" style="stroke:#181818;stroke-width:0.5;" width="155" x="746.5" y="36"/><text fill="#000000" font-family="sans-serif" font-size="14" font-style="italic" lengthAdjust="spacing" textLength="60" x="794" y="58.1074">&#171;service&#187;</text><text fill="#000000" font-family="sans-serif" font-size="14" lengthAdjust="spacing" textLength="141" x="753.5" y="76.7285">CancelMeetingService</text><rect fill="#E3E3E3" height="51.2422" rx="2.5" ry="2.5" style="stroke:#181818;stroke-width:0.5;" width="155" x="746.5" y="901.9355"/><text fill="#000000" font-family="sans-serif" font-size="14" font-style="italic" lengthAdjust="spacing" textLength="60" x="794" y="924.043">&#171;service&#187;</text><text fill="#000000" font-family="sans-serif" font-size="14" lengthAdjust="spacing" textLength="141" x="753.5" y="942.6641">CancelMeetingService</text><rect fill="#E3E3E3" height="32.6211" rx="2.5" ry="2.5" style="stroke:#181818;stroke-width:0.5;" width="64" x="911.5" y="54.6211"/><text fill="#000000" font-family="sans-serif" font-size="14" lengthAdjust="spacing" textLength="50" x="918.5" y="76.7285">Meeting</text><rect fill="#E3E3E3" height="32.6211" rx="2.5" ry="2.5" style="stroke:#181818;stroke-width:0.5;" width="64" x="911.5" y="901.9355"/><text fill="#000000" font-family="sans-serif" font-size="14" lengthAdjust="spacing" textLength="50" x="918.5" y="924.043">Meeting</text><text fill="#000000" font-family="sans-serif" font-size="14" font-style="italic" lengthAdjust="spacing" textLength="79" x="1005" y="66.1074">&#171;repository&#187;</text><text fill="#000000" font-family="sans-serif" font-size="14" lengthAdjust="spacing" textLength="118" x="985.5" y="84.7285">MeetingRepository</text><path d="M1029.5,15 C1029.5,5 1047.5,5 1047.5,5 C1047.5,5 1065.5,5 1065.5,15 L1065.5,41 C1065.5,51 1047.5,51 1047.5,51 C1047.5,51 1029.5,51 1029.5,41 L1029.5,15 " fill="#E3E3E3" style="stroke:#181818;stroke-width:1.5;"/><path d="M1029.5,15 C1029.5,25 1047.5,25 1047.5,25 C1047.5,25 1065.5,25 1065.5,15 " fill="none" style="stroke:#181818;stroke-width:1.5;"/><text fill="#000000" font-family="sans-serif" font-size="14" font-style="italic" lengthAdjust="spacing" textLength="79" x="1005" y="917.043">&#171;repository&#187;</text><text fill="#000000" font-family="sans-serif" font-size="14" lengthAdjust="spacing" textLength="118" x="985.5" y="935.6641">MeetingRepository</text><path d="M1029.5,949.1777 C1029.5,939.1777 1047.5,939.1777 1047.5,939.1777 C1047.5,939.1777 1065.5,939.1777 1065.5,949.1777 L1065.5,975.1777 C1065.5,985.1777 1047.5,985.1777 1047.5,985.1777 C1047.5,985.1777 1029.5,985.1777 1029.5,975.1777 L1029.5,949.1777 " fill="#E3E3E3" style="stroke:#181818;stroke-width:1.5;"/><path d="M1029.5,949.1777 C1029.5,959.1777 1047.5,959.1777 1047.5,959.1777 C1047.5,959.1777 1065.5,959.1777 1065.5,949.1777 " fill="none" style="stroke:#181818;stroke-width:1.5;"/><text fill="#000000" font-family="sans-serif" font-size="14" font-style="italic" lengthAdjust="spacing" textLength="79" x="1155.5" y="66.1074">&#171;repository&#187;</text><text fill="#000000" font-family="sans-serif" font-size="14" lengthAdjust="spacing" textLength="151" x="1119.5" y="84.7285">MeetingInviteRepository</text><path d="M1180,15 C1180,5 1198,5 1198,5 C1198,5 1216,5 1216,15 L1216,41 C1216,51 1198,51 1198,51 C1198,51 1180,51 1180,41 L1180,15 " fill="#E3E3E3" style="stroke:#181818;stroke-width:1.5;"/><path d="M1180,15 C1180,25 1198,25 1198,25 C1198,25 1216,25 1216,15 " fill="none" style="stroke:#181818;stroke-width:1.5;"/><text fill="#000000" font-family="sans-serif" font-size="14" font-style="italic" lengthAdjust="spacing" textLength="79" x="1155.5" y="917.043">&#171;repository&#187;</text><text fill="#000000" font-family="sans-serif" font-size="14" lengthAdjust="spacing" textLength="151" x="1119.5" y="935.6641">MeetingInviteRepository</text><path d="M1180,949.1777 C1180,939.1777 1198,939.1777 1198,939.1777 C1198,939.1777 1216,939.1777 1216,949.1777 L1216,975.1777 C1216,985.1777 1198,985.1777 1198,985.1777 C1198,985.1777 1180,985.1777 1180,975.1777 L1180,949.1777 " fill="#E3E3E3" style="stroke:#181818;stroke-width:1.5;"/><path d="M1180,949.1777 C1180,959.1777 1198,959.1777 1198,959.1777 C1198,959.1777 1216,959.1777 1216,949.1777 " fill="none" style="stroke:#181818;stroke-width:1.5;"/><rect fill="#FFFFFF" height="294.6191" style="stroke:#181818;stroke-width:1.0;" width="10" x="272.5" y="121.5332"/><rect fill="#FFFFFF" height="437.4922" style="stroke:#181818;stroke-width:1.0;" width="10" x="272.5" y="447.4434"/><rect fill="#FFFFFF" height="156.4551" style="stroke:#181818;stroke-width:1.0;" width="10" x="485.5" y="184.1152"/><rect fill="#FFFFFF" height="374.9102" style="stroke:#181818;stroke-width:1.0;" width="10" x="485.5" y="478.7344"/><rect fill="#FFFFFF" height="31.291" style="stroke:#181818;stroke-width:1.0;" width="10" x="656" y="215.4063"/><rect fill="#FFFFFF" height="312.3281" style="stroke:#181818;stroke-width:1.0;" width="10" x="819" y="510.0254"/><rect fill="#FFFFFF" height="31.291" style="stroke:#181818;stroke-width:1.0;" width="10" x="938.5" y="541.3164"/><rect fill="#FFFFFF" height="31.291" style="stroke:#181818;stroke-width:1.0;" width="10" x="1042.5" y="277.9883"/><rect fill="#FFFFFF" height="30" style="stroke:#181818;stroke-width:1.0;" width="10" x="1042.5" y="666.4805"/><rect fill="#FFFFFF" height="31.291" style="stroke:#181818;stroke-width:1.0;" width="10" x="1193" y="603.8984"/><rect fill="#FFFFFF" height="30" style="stroke:#181818;stroke-width:1.0;" width="10" x="1193" y="754.0625"/><polygon fill="#181818" points="260.5,117.5332,270.5,121.5332,260.5,125.5332,264.5,121.5332" style="stroke:#181818;stroke-width:1.0;"/><line style="stroke:#181818;stroke-width:1.0;stroke-dasharray:2.0,2.0;" x1="72.5" x2="266.5" y1="121.5332" y2="121.5332"/><text fill="#000000" font-family="sans-serif" font-size="13" lengthAdjust="spacing" textLength="127" x="79.5" y="116.2705">cancel meeting option</text><polygon fill="#181818" points="478.5,148.8242,488.5,152.8242,478.5,156.8242,482.5,152.8242" style="stroke:#181818;stroke-width:1.0;"/><line style="stroke:#181818;stroke-width:1.0;" x1="282.5" x2="484.5" y1="152.8242" y2="152.8242"/><text fill="#000000" font-family="sans-serif" font-size="13" lengthAdjust="spacing" textLength="36" x="289.5" y="147.5615">create</text><polygon fill="#181818" points="473.5,180.1152,483.5,184.1152,473.5,188.1152,477.5,184.1152" style="stroke:#181818;stroke-width:1.0;"/><line style="stroke:#181818;stroke-width:1.0;" x1="282.5" x2="479.5" y1="184.1152" y2="184.1152"/><text fill="#000000" font-family="sans-serif" font-size="13" lengthAdjust="spacing" textLength="121" x="289.5" y="178.8525">getAllUserMeetings()</text><polygon fill="#181818" points="644,211.4063,654,215.4063,644,219.4063,648,215.4063" style="stroke:#181818;stroke-width:1.0;"/><line style="stroke:#181818;stroke-width:1.0;" x1="495.5" x2="650" y1="215.4063" y2="215.4063"/><text fill="#000000" font-family="sans-serif" font-size="13" lengthAdjust="spacing" textLength="53" x="502.5" y="210.1436">session()</text><polygon fill="#181818" points="506.5,242.6973,496.5,246.6973,506.5,250.6973,502.5,246.6973" style="stroke:#181818;stroke-width:1.0;"/><line style="stroke:#181818;stroke-width:1.0;stroke-dasharray:2.0,2.0;" x1="500.5" x2="660" y1="246.6973" y2="246.6973"/><text fill="#000000" font-family="sans-serif" font-size="13" lengthAdjust="spacing" textLength="31" x="512.5" y="241.4346">email</text><polygon fill="#181818" points="1030.5,273.9883,1040.5,277.9883,1030.5,281.9883,1034.5,277.9883" style="stroke:#181818;stroke-width:1.0;"/><line style="stroke:#181818;stroke-width:1.0;" x1="495.5" x2="1036.5" y1="277.9883" y2="277.9883"/><text fill="#000000" font-family="sans-serif" font-size="13" lengthAdjust="spacing" textLength="197" x="502.5" y="272.7256">getAllMeetingsWithOwner( email )</text><polygon fill="#181818" points="506.5,305.2793,496.5,309.2793,506.5,313.2793,502.5,309.2793" style="stroke:#181818;stroke-width:1.0;"/><line style="stroke:#181818;stroke-width:1.0;stroke-dasharray:2.0,2.0;" x1="500.5" x2="1046.5" y1="309.2793" y2="309.2793"/><text fill="#000000" font-family="sans-serif" font-size="13" lengthAdjust="spacing" textLength="83" x="512.5" y="304.0166">List&lt;Meeting&gt;</text><polygon fill="#181818" points="293.5,336.5703,283.5,340.5703,293.5,344.5703,289.5,340.5703" style="stroke:#181818;stroke-width:1.0;"/><line style="stroke:#181818;stroke-width:1.0;stroke-dasharray:2.0,2.0;" x1="287.5" x2="489.5" y1="340.5703" y2="340.5703"/><text fill="#000000" font-family="sans-serif" font-size="13" lengthAdjust="spacing" textLength="83" x="299.5" y="335.3076">List&lt;Meeting&gt;</text><line style="stroke:#181818;stroke-width:1.0;stroke-dasharray:2.0,2.0;" x1="282.5" x2="324.5" y1="371.8613" y2="371.8613"/><line style="stroke:#181818;stroke-width:1.0;stroke-dasharray:2.0,2.0;" x1="324.5" x2="324.5" y1="371.8613" y2="384.8613"/><line style="stroke:#181818;stroke-width:1.0;stroke-dasharray:2.0,2.0;" x1="283.5" x2="324.5" y1="384.8613" y2="384.8613"/><polygon fill="#181818" points="293.5,380.8613,283.5,384.8613,293.5,388.8613,289.5,384.8613" style="stroke:#181818;stroke-width:1.0;"/><text fill="#000000" font-family="sans-serif" font-size="13" lengthAdjust="spacing" textLength="189" x="289.5" y="366.5986">displayMeetings( List&lt;Meeting&gt;)</text><polygon fill="#181818" points="83.5,412.1523,73.5,416.1523,83.5,420.1523,79.5,416.1523" style="stroke:#181818;stroke-width:1.0;"/><line style="stroke:#181818;stroke-width:1.0;stroke-dasharray:2.0,2.0;" x1="77.5" x2="276.5" y1="416.1523" y2="416.1523"/><text fill="#000000" font-family="sans-serif" font-size="13" lengthAdjust="spacing" textLength="129" x="89.5" y="410.8896">shows list of meetings</text><polygon fill="#181818" points="260.5,443.4434,270.5,447.4434,260.5,451.4434,264.5,447.4434" style="stroke:#181818;stroke-width:1.0;"/><line style="stroke:#181818;stroke-width:1.0;stroke-dasharray:2.0,2.0;" x1="72.5" x2="266.5" y1="447.4434" y2="447.4434"/><text fill="#000000" font-family="sans-serif" font-size="13" lengthAdjust="spacing" textLength="181" x="79.5" y="442.1807">selects meeting to be canceled</text><polygon fill="#181818" points="473.5,474.7344,483.5,478.7344,473.5,482.7344,477.5,478.7344" style="stroke:#181818;stroke-width:1.0;"/><line style="stroke:#181818;stroke-width:1.0;" x1="282.5" x2="479.5" y1="478.7344" y2="478.7344"/><text fill="#000000" font-family="sans-serif" font-size="13" lengthAdjust="spacing" textLength="146" x="289.5" y="473.4717">cancelMeeting( meeting )</text><polygon fill="#181818" points="807,506.0254,817,510.0254,807,514.0254,811,510.0254" style="stroke:#181818;stroke-width:1.0;"/><line style="stroke:#181818;stroke-width:1.0;" x1="495.5" x2="813" y1="510.0254" y2="510.0254"/><text fill="#000000" font-family="sans-serif" font-size="13" lengthAdjust="spacing" textLength="146" x="502.5" y="504.7627">cancelMeeting( meeting )</text><polygon fill="#181818" points="926.5,537.3164,936.5,541.3164,926.5,545.3164,930.5,541.3164" style="stroke:#181818;stroke-width:1.0;"/><line style="stroke:#181818;stroke-width:1.0;" x1="829" x2="932.5" y1="541.3164" y2="541.3164"/><text fill="#000000" font-family="sans-serif" font-size="13" lengthAdjust="spacing" textLength="50" x="836" y="536.0537">identity()</text><polygon fill="#181818" points="840,568.6074,830,572.6074,840,576.6074,836,572.6074" style="stroke:#181818;stroke-width:1.0;"/><line style="stroke:#181818;stroke-width:1.0;stroke-dasharray:2.0,2.0;" x1="834" x2="942.5" y1="572.6074" y2="572.6074"/><text fill="#000000" font-family="sans-serif" font-size="13" lengthAdjust="spacing" textLength="58" x="846" y="567.3447">meetingID</text><polygon fill="#181818" points="1181,599.8984,1191,603.8984,1181,607.8984,1185,603.8984" style="stroke:#181818;stroke-width:1.0;"/><line style="stroke:#181818;stroke-width:1.0;" x1="829" x2="1187" y1="603.8984" y2="603.8984"/><text fill="#000000" font-family="sans-serif" font-size="13" lengthAdjust="spacing" textLength="187" x="836" y="598.6357">searchByMeetingID( meetingID )</text><polygon fill="#181818" points="840,631.1895,830,635.1895,840,639.1895,836,635.1895" style="stroke:#181818;stroke-width:1.0;"/><line style="stroke:#181818;stroke-width:1.0;stroke-dasharray:2.0,2.0;" x1="834" x2="1197" y1="635.1895" y2="635.1895"/><text fill="#000000" font-family="sans-serif" font-size="13" lengthAdjust="spacing" textLength="112" x="846" y="629.9268">List&lt;MeetingInvite&gt;</text><polygon fill="#181818" points="1030.5,662.4805,1040.5,666.4805,1030.5,670.4805,1034.5,666.4805" style="stroke:#181818;stroke-width:1.0;"/><line style="stroke:#181818;stroke-width:1.0;" x1="829" x2="1036.5" y1="666.4805" y2="666.4805"/><text fill="#000000" font-family="sans-serif" font-size="13" lengthAdjust="spacing" textLength="103" x="836" y="661.2178">remove( meeting )</text><path d="M736.5,711.4805 L912.5,711.4805 L912.5,720.7715 L902.5,730.7715 L736.5,730.7715 L736.5,711.4805 " fill="#EEEEEE" style="stroke:#000000;stroke-width:1.5;"/><rect fill="none" height="80.582" style="stroke:#000000;stroke-width:1.5;" width="550" x="736.5" y="711.4805"/><text fill="#000000" font-family="sans-serif" font-size="13" font-weight="bold" lengthAdjust="spacing" textLength="131" x="751.5" y="726.5088">loop : for each invite</text><polygon fill="#181818" points="1181,750.0625,1191,754.0625,1181,758.0625,1185,754.0625" style="stroke:#181818;stroke-width:1.0;"/><line style="stroke:#181818;stroke-width:1.0;" x1="829" x2="1187" y1="754.0625" y2="754.0625"/><text fill="#000000" font-family="sans-serif" font-size="13" lengthAdjust="spacing" textLength="86" x="836" y="748.7998">remove( invite )</text><polygon fill="#181818" points="506.5,818.3535,496.5,822.3535,506.5,826.3535,502.5,822.3535" style="stroke:#181818;stroke-width:1.0;"/><line style="stroke:#181818;stroke-width:1.0;stroke-dasharray:2.0,2.0;" x1="500.5" x2="823" y1="822.3535" y2="822.3535"/><text fill="#000000" font-family="sans-serif" font-size="13" lengthAdjust="spacing" textLength="29" x="512.5" y="817.0908">state</text><polygon fill="#181818" points="293.5,849.6445,283.5,853.6445,293.5,857.6445,289.5,853.6445" style="stroke:#181818;stroke-width:1.0;"/><line style="stroke:#181818;stroke-width:1.0;stroke-dasharray:2.0,2.0;" x1="287.5" x2="489.5" y1="853.6445" y2="853.6445"/><text fill="#000000" font-family="sans-serif" font-size="13" lengthAdjust="spacing" textLength="29" x="299.5" y="848.3818">state</text><polygon fill="#181818" points="83.5,880.9355,73.5,884.9355,83.5,888.9355,79.5,884.9355" style="stroke:#181818;stroke-width:1.0;"/><line style="stroke:#181818;stroke-width:1.0;stroke-dasharray:2.0,2.0;" x1="77.5" x2="276.5" y1="884.9355" y2="884.9355"/><text fill="#000000" font-family="sans-serif" font-size="13" lengthAdjust="spacing" textLength="138" x="89.5" y="879.6729">Shows succes or failure</text><!--SRC=[bLN1Rk8m4BtdAtnRUg18omqX99Qkj4XRhLJAxjbr1cBLYIrxGiNVxpXnWfq6K7D0iltUc_7CFFEjG3IBsSmeNc5TgaUXovbxbvNXbfUF1POgwvUir9KMXTKbCBGrH2U6YtT-X1sU5J0B0ZFwk41j6MnqRHtipWwXt3kmZ3kszaSPSL4AQIWss_1AW7e6G5aTzriFej_bqbXmK257gQlLwZfbeokqMgbMFrejbzmO9SMOmhh6WiJ3uGxiIGfeyjk__YAcQtTknOr8kvU_2ISX1RZ7FVzypNAE_8qxwFPVm6WdgIXdZxYilfEYxLSaEYHkgvD4k4QV3-dqDRLdq-cA2hnWehaCAqDwslXA-DR94qSWI4Pj8EobeiInG6SZ1qV0jLA-oI4xDtd867sztWNTx4Tz8YbVzGLpu1pb49W9smFwtQP7qq46K7AfUaWEAVLppAZINVfTwlya5dy-Ah2JLfMD91JH-yEuUSFqVak7on1WDPRcK31EDdJiiqR47zJNjwYXiGNBfIERd_lEf48FMS0suq5TAFI7OueWJ1-wyN1P58f68nqb1ugSx_fPGitU80mOvEs3S6kgObjDUfMl310vy8vEeaNmVjERbnJ8crGgcVjN0S_H32P4x-3umBEcNVmGSFkKGAB2nUmGDdQiBoItelZHjMhxDBc8iZIbqVGYjQlWE698dQMprRuigwiAerCxpwvVZHnceTGd66lANLlTC4fs2NgqkZPCQMteDWV_zyD5mMHpbTj5xr9hiRVDFi_k5A4xXYfFemvctY6Fyeh4kj5C_T-uhAUCsvwSHSZWubtZObSB0OvHDGxqZjKMKXl_1m00]--></g></svg>