<?xml version="1.0" encoding="us-ascii" standalone="no"?><svg xmlns="http://www.w3.org/2000/svg" xmlns:xlink="http://www.w3.org/1999/xlink" contentStyleType="text/css" height="728px" preserveAspectRatio="none" style="width:744px;height:728px;background:#FFFFFF;" version="1.1" viewBox="0 0 744 728" width="744px" zoomAndPan="magnify"><defs/><g><!--class SystemUser--><g id="elem_SystemUser"><rect codeLine="3" fill="#F1F1F1" height="113.7852" id="SystemUser" rx="2.5" ry="2.5" style="stroke:#181818;stroke-width:0.5;" width="107" x="422.5" y="7"/><ellipse cx="437.5" cy="37.2715" fill="#ADD1B2" rx="11" ry="11" style="stroke:#181818;stroke-width:1.0;"/><path d="M440.2656,33.1465 Q440.4219,32.9277 440.6094,32.8184 Q440.7969,32.709 441.0156,32.709 Q441.3906,32.709 441.625,32.9746 Q441.8594,33.2246 441.8594,33.834 L441.8594,35.2871 Q441.8594,35.8965 441.625,36.1621 Q441.3906,36.4277 441.0156,36.4277 Q440.6719,36.4277 440.4688,36.2246 Q440.2656,36.0371 440.1563,35.5215 Q440.1094,35.1621 439.9219,34.9746 Q439.5938,34.5996 438.9844,34.3809 Q438.375,34.1621 437.75,34.1621 Q436.9844,34.1621 436.3438,34.4902 Q435.7188,34.8184 435.2188,35.5684 Q434.7344,36.3184 434.7344,37.3496 L434.7344,38.4434 Q434.7344,39.6777 435.625,40.5059 Q436.5156,41.3184 438.1094,41.3184 Q439.0469,41.3184 439.7031,41.0684 Q440.0938,40.9121 440.5156,40.4746 Q440.7813,40.209 440.9219,40.1309 Q441.0781,40.0527 441.2813,40.0527 Q441.6094,40.0527 441.8594,40.3184 Q442.125,40.5684 442.125,40.9121 Q442.125,41.2559 441.7813,41.6621 Q441.2813,42.2402 440.4844,42.5684 Q439.4063,43.0215 438.1094,43.0215 Q436.5938,43.0215 435.3906,42.3965 Q434.4063,41.8965 433.7188,40.834 Q433.0313,39.7559 433.0313,38.4746 L433.0313,37.3184 Q433.0313,35.9902 433.6406,34.8496 Q434.2656,33.6934 435.3594,33.084 Q436.4531,32.459 437.6875,32.459 Q438.4219,32.459 439.0625,32.6309 Q439.7188,32.7871 440.2656,33.1465 Z " fill="#000000"/><text fill="#000000" font-family="sans-serif" font-size="12" font-style="italic" lengthAdjust="spacing" textLength="35" x="471.5" y="24.9492">&#171;root&#187;</text><text fill="#000000" font-family="sans-serif" font-size="12" font-style="italic" lengthAdjust="spacing" textLength="44" x="467" y="40.9102">&#171;Entity&#187;</text><text fill="#000000" font-family="sans-serif" font-size="14" lengthAdjust="spacing" textLength="75" x="451.5" y="59.0293">SystemUser</text><line style="stroke:#181818;stroke-width:0.5;" x1="423.5" x2="528.5" y1="67.543" y2="67.543"/><ellipse cx="433.5" cy="82.3535" fill="#000000" rx="3" ry="3" style="stroke:#000000;stroke-width:1.0;"/><text fill="#000000" font-family="sans-serif" font-size="14" lengthAdjust="spacing" textLength="59" x="442.5" y="86.6504">FullName</text><ellipse cx="433.5" cy="100.9746" fill="#000000" rx="3" ry="3" style="stroke:#000000;stroke-width:1.0;"/><text fill="#000000" font-family="sans-serif" font-size="14" lengthAdjust="spacing" textLength="70" x="442.5" y="105.2715">ShortName</text><line style="stroke:#181818;stroke-width:0.5;" x1="423.5" x2="528.5" y1="112.7852" y2="112.7852"/></g><!--class Email--><g id="elem_Email"><rect codeLine="7" fill="#F1F1F1" height="60.582" id="Email" rx="2.5" ry="2.5" style="stroke:#181818;stroke-width:0.5;" width="111" x="564.5" y="33.5"/><ellipse cx="579.5" cy="55.791" fill="#ADD1B2" rx="11" ry="11" style="stroke:#181818;stroke-width:1.0;"/><path d="M582.2656,51.666 Q582.4219,51.4473 582.6094,51.3379 Q582.7969,51.2285 583.0156,51.2285 Q583.3906,51.2285 583.625,51.4941 Q583.8594,51.7441 583.8594,52.3535 L583.8594,53.8066 Q583.8594,54.416 583.625,54.6816 Q583.3906,54.9473 583.0156,54.9473 Q582.6719,54.9473 582.4688,54.7441 Q582.2656,54.5566 582.1563,54.041 Q582.1094,53.6816 581.9219,53.4941 Q581.5938,53.1191 580.9844,52.9004 Q580.375,52.6816 579.75,52.6816 Q578.9844,52.6816 578.3438,53.0098 Q577.7188,53.3379 577.2188,54.0879 Q576.7344,54.8379 576.7344,55.8691 L576.7344,56.9629 Q576.7344,58.1973 577.625,59.0254 Q578.5156,59.8379 580.1094,59.8379 Q581.0469,59.8379 581.7031,59.5879 Q582.0938,59.4316 582.5156,58.9941 Q582.7813,58.7285 582.9219,58.6504 Q583.0781,58.5723 583.2813,58.5723 Q583.6094,58.5723 583.8594,58.8379 Q584.125,59.0879 584.125,59.4316 Q584.125,59.7754 583.7813,60.1816 Q583.2813,60.7598 582.4844,61.0879 Q581.4063,61.541 580.1094,61.541 Q578.5938,61.541 577.3906,60.916 Q576.4063,60.416 575.7188,59.3535 Q575.0313,58.2754 575.0313,56.9941 L575.0313,55.8379 Q575.0313,54.5098 575.6406,53.3691 Q576.2656,52.2129 577.3594,51.6035 Q578.4531,50.9785 579.6875,50.9785 Q580.4219,50.9785 581.0625,51.1504 Q581.7188,51.3066 582.2656,51.666 Z " fill="#000000"/><text fill="#000000" font-family="sans-serif" font-size="12" font-style="italic" lengthAdjust="spacing" textLength="83" x="591.5" y="51.4492">&#171;Value object&#187;</text><text fill="#000000" font-family="sans-serif" font-size="14" lengthAdjust="spacing" textLength="34" x="616" y="69.5684">Email</text><line style="stroke:#181818;stroke-width:0.5;" x1="565.5" x2="674.5" y1="78.082" y2="78.082"/><line style="stroke:#181818;stroke-width:0.5;" x1="565.5" x2="674.5" y1="86.082" y2="86.082"/></g><!--class CancelMeetingUI--><g id="elem_CancelMeetingUI"><rect codeLine="9" fill="#F1F1F1" height="66.6211" id="CancelMeetingUI" rx="2.5" ry="2.5" style="stroke:#181818;stroke-width:0.5;" width="229" x="277.5" y="181"/><ellipse cx="334.75" cy="197" fill="#ADD1B2" rx="11" ry="11" style="stroke:#181818;stroke-width:1.0;"/><path d="M337.5156,192.875 Q337.6719,192.6563 337.8594,192.5469 Q338.0469,192.4375 338.2656,192.4375 Q338.6406,192.4375 338.875,192.7031 Q339.1094,192.9531 339.1094,193.5625 L339.1094,195.0156 Q339.1094,195.625 338.875,195.8906 Q338.6406,196.1563 338.2656,196.1563 Q337.9219,196.1563 337.7188,195.9531 Q337.5156,195.7656 337.4063,195.25 Q337.3594,194.8906 337.1719,194.7031 Q336.8438,194.3281 336.2344,194.1094 Q335.625,193.8906 335,193.8906 Q334.2344,193.8906 333.5938,194.2188 Q332.9688,194.5469 332.4688,195.2969 Q331.9844,196.0469 331.9844,197.0781 L331.9844,198.1719 Q331.9844,199.4063 332.875,200.2344 Q333.7656,201.0469 335.3594,201.0469 Q336.2969,201.0469 336.9531,200.7969 Q337.3438,200.6406 337.7656,200.2031 Q338.0313,199.9375 338.1719,199.8594 Q338.3281,199.7813 338.5313,199.7813 Q338.8594,199.7813 339.1094,200.0469 Q339.375,200.2969 339.375,200.6406 Q339.375,200.9844 339.0313,201.3906 Q338.5313,201.9688 337.7344,202.2969 Q336.6563,202.75 335.3594,202.75 Q333.8438,202.75 332.6406,202.125 Q331.6563,201.625 330.9688,200.5625 Q330.2813,199.4844 330.2813,198.2031 L330.2813,197.0469 Q330.2813,195.7188 330.8906,194.5781 Q331.5156,193.4219 332.6094,192.8125 Q333.7031,192.1875 334.9375,192.1875 Q335.6719,192.1875 336.3125,192.3594 Q336.9688,192.5156 337.5156,192.875 Z " fill="#000000"/><text fill="#000000" font-family="sans-serif" font-size="14" lengthAdjust="spacing" textLength="106" x="355.25" y="202.7969">CancelMeetingUI</text><line style="stroke:#181818;stroke-width:0.5;" x1="278.5" x2="505.5" y1="213" y2="213"/><line style="stroke:#181818;stroke-width:0.5;" x1="278.5" x2="505.5" y1="221" y2="221"/><ellipse cx="288.5" cy="235.8105" fill="#84BE84" rx="3" ry="3" style="stroke:#038048;stroke-width:1.0;"/><text fill="#000000" font-family="sans-serif" font-size="14" lengthAdjust="spacing" textLength="203" x="297.5" y="240.1074">displayMeetings( List&lt;Meeting&gt;)</text></g><!--class CancelMeetingController--><g id="elem_CancelMeetingController"><rect codeLine="12" fill="#F1F1F1" height="85.2422" id="CancelMeetingController" rx="2.5" ry="2.5" style="stroke:#181818;stroke-width:0.5;" width="188" x="236" y="308"/><ellipse cx="251" cy="324" fill="#ADD1B2" rx="11" ry="11" style="stroke:#181818;stroke-width:1.0;"/><path d="M253.7656,319.875 Q253.9219,319.6563 254.1094,319.5469 Q254.2969,319.4375 254.5156,319.4375 Q254.8906,319.4375 255.125,319.7031 Q255.3594,319.9531 255.3594,320.5625 L255.3594,322.0156 Q255.3594,322.625 255.125,322.8906 Q254.8906,323.1563 254.5156,323.1563 Q254.1719,323.1563 253.9688,322.9531 Q253.7656,322.7656 253.6563,322.25 Q253.6094,321.8906 253.4219,321.7031 Q253.0938,321.3281 252.4844,321.1094 Q251.875,320.8906 251.25,320.8906 Q250.4844,320.8906 249.8438,321.2188 Q249.2188,321.5469 248.7188,322.2969 Q248.2344,323.0469 248.2344,324.0781 L248.2344,325.1719 Q248.2344,326.4063 249.125,327.2344 Q250.0156,328.0469 251.6094,328.0469 Q252.5469,328.0469 253.2031,327.7969 Q253.5938,327.6406 254.0156,327.2031 Q254.2813,326.9375 254.4219,326.8594 Q254.5781,326.7813 254.7813,326.7813 Q255.1094,326.7813 255.3594,327.0469 Q255.625,327.2969 255.625,327.6406 Q255.625,327.9844 255.2813,328.3906 Q254.7813,328.9688 253.9844,329.2969 Q252.9063,329.75 251.6094,329.75 Q250.0938,329.75 248.8906,329.125 Q247.9063,328.625 247.2188,327.5625 Q246.5313,326.4844 246.5313,325.2031 L246.5313,324.0469 Q246.5313,322.7188 247.1406,321.5781 Q247.7656,320.4219 248.8594,319.8125 Q249.9531,319.1875 251.1875,319.1875 Q251.9219,319.1875 252.5625,319.3594 Q253.2188,319.5156 253.7656,319.875 Z " fill="#000000"/><text fill="#000000" font-family="sans-serif" font-size="14" lengthAdjust="spacing" textLength="156" x="265" y="329.7969">CancelMeetingController</text><line style="stroke:#181818;stroke-width:0.5;" x1="237" x2="423" y1="340" y2="340"/><line style="stroke:#181818;stroke-width:0.5;" x1="237" x2="423" y1="348" y2="348"/><ellipse cx="247" cy="362.8105" fill="#84BE84" rx="3" ry="3" style="stroke:#038048;stroke-width:1.0;"/><text fill="#000000" font-family="sans-serif" font-size="14" lengthAdjust="spacing" textLength="131" x="256" y="367.1074">getAllUserMeetings()</text><ellipse cx="247" cy="381.4316" fill="#84BE84" rx="3" ry="3" style="stroke:#038048;stroke-width:1.0;"/><text fill="#000000" font-family="sans-serif" font-size="14" lengthAdjust="spacing" textLength="159" x="256" y="385.7285">cancelMeeting( meeting )</text></g><!--class CancelMeetingService--><g id="elem_CancelMeetingService"><rect codeLine="16" fill="#F1F1F1" height="66.6211" id="CancelMeetingService" rx="2.5" ry="2.5" style="stroke:#181818;stroke-width:0.5;" width="185" x="302.5" y="453"/><ellipse cx="322.9" cy="469" fill="#ADD1B2" rx="11" ry="11" style="stroke:#181818;stroke-width:1.0;"/><path d="M325.6656,464.875 Q325.8219,464.6563 326.0094,464.5469 Q326.1969,464.4375 326.4156,464.4375 Q326.7906,464.4375 327.025,464.7031 Q327.2594,464.9531 327.2594,465.5625 L327.2594,467.0156 Q327.2594,467.625 327.025,467.8906 Q326.7906,468.1563 326.4156,468.1563 Q326.0719,468.1563 325.8688,467.9531 Q325.6656,467.7656 325.5563,467.25 Q325.5094,466.8906 325.3219,466.7031 Q324.9938,466.3281 324.3844,466.1094 Q323.775,465.8906 323.15,465.8906 Q322.3844,465.8906 321.7438,466.2188 Q321.1188,466.5469 320.6188,467.2969 Q320.1344,468.0469 320.1344,469.0781 L320.1344,470.1719 Q320.1344,471.4063 321.025,472.2344 Q321.9156,473.0469 323.5094,473.0469 Q324.4469,473.0469 325.1031,472.7969 Q325.4938,472.6406 325.9156,472.2031 Q326.1813,471.9375 326.3219,471.8594 Q326.4781,471.7813 326.6813,471.7813 Q327.0094,471.7813 327.2594,472.0469 Q327.525,472.2969 327.525,472.6406 Q327.525,472.9844 327.1813,473.3906 Q326.6813,473.9688 325.8844,474.2969 Q324.8063,474.75 323.5094,474.75 Q321.9938,474.75 320.7906,474.125 Q319.8063,473.625 319.1188,472.5625 Q318.4313,471.4844 318.4313,470.2031 L318.4313,469.0469 Q318.4313,467.7188 319.0406,466.5781 Q319.6656,465.4219 320.7594,464.8125 Q321.8531,464.1875 323.0875,464.1875 Q323.8219,464.1875 324.4625,464.3594 Q325.1188,464.5156 325.6656,464.875 Z " fill="#000000"/><text fill="#000000" font-family="sans-serif" font-size="14" lengthAdjust="spacing" textLength="141" x="338.1" y="474.7969">CancelMeetingService</text><line style="stroke:#181818;stroke-width:0.5;" x1="303.5" x2="486.5" y1="485" y2="485"/><line style="stroke:#181818;stroke-width:0.5;" x1="303.5" x2="486.5" y1="493" y2="493"/><ellipse cx="313.5" cy="507.8105" fill="#84BE84" rx="3" ry="3" style="stroke:#038048;stroke-width:1.0;"/><text fill="#000000" font-family="sans-serif" font-size="14" lengthAdjust="spacing" textLength="159" x="322.5" y="512.1074">cancelMeeting( meeting )</text></g><!--class AuthenticationService--><g id="elem_AuthenticationService"><rect codeLine="19" fill="#F1F1F1" height="66.6211" id="AuthenticationService" rx="2.5" ry="2.5" style="stroke:#181818;stroke-width:0.5;" width="169" x="26.5" y="453"/><ellipse cx="41.5" cy="469" fill="#ADD1B2" rx="11" ry="11" style="stroke:#181818;stroke-width:1.0;"/><path d="M44.2656,464.875 Q44.4219,464.6563 44.6094,464.5469 Q44.7969,464.4375 45.0156,464.4375 Q45.3906,464.4375 45.625,464.7031 Q45.8594,464.9531 45.8594,465.5625 L45.8594,467.0156 Q45.8594,467.625 45.625,467.8906 Q45.3906,468.1563 45.0156,468.1563 Q44.6719,468.1563 44.4688,467.9531 Q44.2656,467.7656 44.1563,467.25 Q44.1094,466.8906 43.9219,466.7031 Q43.5938,466.3281 42.9844,466.1094 Q42.375,465.8906 41.75,465.8906 Q40.9844,465.8906 40.3438,466.2188 Q39.7188,466.5469 39.2188,467.2969 Q38.7344,468.0469 38.7344,469.0781 L38.7344,470.1719 Q38.7344,471.4063 39.625,472.2344 Q40.5156,473.0469 42.1094,473.0469 Q43.0469,473.0469 43.7031,472.7969 Q44.0938,472.6406 44.5156,472.2031 Q44.7813,471.9375 44.9219,471.8594 Q45.0781,471.7813 45.2813,471.7813 Q45.6094,471.7813 45.8594,472.0469 Q46.125,472.2969 46.125,472.6406 Q46.125,472.9844 45.7813,473.3906 Q45.2813,473.9688 44.4844,474.2969 Q43.4063,474.75 42.1094,474.75 Q40.5938,474.75 39.3906,474.125 Q38.4063,473.625 37.7188,472.5625 Q37.0313,471.4844 37.0313,470.2031 L37.0313,469.0469 Q37.0313,467.7188 37.6406,466.5781 Q38.2656,465.4219 39.3594,464.8125 Q40.4531,464.1875 41.6875,464.1875 Q42.4219,464.1875 43.0625,464.3594 Q43.7188,464.5156 44.2656,464.875 Z " fill="#000000"/><text fill="#000000" font-family="sans-serif" font-size="14" lengthAdjust="spacing" textLength="137" x="55.5" y="474.7969">AuthenticationService</text><line style="stroke:#181818;stroke-width:0.5;" x1="27.5" x2="194.5" y1="485" y2="485"/><line style="stroke:#181818;stroke-width:0.5;" x1="27.5" x2="194.5" y1="493" y2="493"/><ellipse cx="37.5" cy="507.8105" fill="#84BE84" rx="3" ry="3" style="stroke:#038048;stroke-width:1.0;"/><text fill="#000000" font-family="sans-serif" font-size="14" lengthAdjust="spacing" textLength="58" x="46.5" y="512.1074">session()</text></g><!--class Meeting--><g id="elem_Meeting"><rect codeLine="22" fill="#F1F1F1" height="141.1055" id="Meeting" rx="2.5" ry="2.5" style="stroke:#181818;stroke-width:0.5;" width="193" x="544.5" y="580"/><ellipse cx="611.75" cy="596" fill="#ADD1B2" rx="11" ry="11" style="stroke:#181818;stroke-width:1.0;"/><path d="M614.5156,591.875 Q614.6719,591.6563 614.8594,591.5469 Q615.0469,591.4375 615.2656,591.4375 Q615.6406,591.4375 615.875,591.7031 Q616.1094,591.9531 616.1094,592.5625 L616.1094,594.0156 Q616.1094,594.625 615.875,594.8906 Q615.6406,595.1563 615.2656,595.1563 Q614.9219,595.1563 614.7188,594.9531 Q614.5156,594.7656 614.4063,594.25 Q614.3594,593.8906 614.1719,593.7031 Q613.8438,593.3281 613.2344,593.1094 Q612.625,592.8906 612,592.8906 Q611.2344,592.8906 610.5938,593.2188 Q609.9688,593.5469 609.4688,594.2969 Q608.9844,595.0469 608.9844,596.0781 L608.9844,597.1719 Q608.9844,598.4063 609.875,599.2344 Q610.7656,600.0469 612.3594,600.0469 Q613.2969,600.0469 613.9531,599.7969 Q614.3438,599.6406 614.7656,599.2031 Q615.0313,598.9375 615.1719,598.8594 Q615.3281,598.7813 615.5313,598.7813 Q615.8594,598.7813 616.1094,599.0469 Q616.375,599.2969 616.375,599.6406 Q616.375,599.9844 616.0313,600.3906 Q615.5313,600.9688 614.7344,601.2969 Q613.6563,601.75 612.3594,601.75 Q610.8438,601.75 609.6406,601.125 Q608.6563,600.625 607.9688,599.5625 Q607.2813,598.4844 607.2813,597.2031 L607.2813,596.0469 Q607.2813,594.7188 607.8906,593.5781 Q608.5156,592.4219 609.6094,591.8125 Q610.7031,591.1875 611.9375,591.1875 Q612.6719,591.1875 613.3125,591.3594 Q613.9688,591.5156 614.5156,591.875 Z " fill="#000000"/><text fill="#000000" font-family="sans-serif" font-size="14" lengthAdjust="spacing" textLength="50" x="632.25" y="601.7969">Meeting</text><line style="stroke:#181818;stroke-width:0.5;" x1="545.5" x2="736.5" y1="612" y2="612"/><ellipse cx="555.5" cy="626.8105" fill="#000000" rx="3" ry="3" style="stroke:#000000;stroke-width:1.0;"/><text fill="#000000" font-family="sans-serif" font-size="14" lengthAdjust="spacing" textLength="26" x="564.5" y="631.1074">time</text><ellipse cx="555.5" cy="645.4316" fill="#000000" rx="3" ry="3" style="stroke:#000000;stroke-width:1.0;"/><text fill="#000000" font-family="sans-serif" font-size="14" lengthAdjust="spacing" textLength="52" x="564.5" y="649.7285">duration</text><ellipse cx="555.5" cy="664.0527" fill="#000000" rx="3" ry="3" style="stroke:#000000;stroke-width:1.0;"/><text fill="#000000" font-family="sans-serif" font-size="14" lengthAdjust="spacing" textLength="167" x="564.5" y="668.3496">List&lt;eCourseSystemUser&gt;</text><ellipse cx="555.5" cy="682.6738" fill="#000000" rx="3" ry="3" style="stroke:#000000;stroke-width:1.0;"/><text fill="#000000" font-family="sans-serif" font-size="14" lengthAdjust="spacing" textLength="38" x="564.5" y="686.9707">owner</text><line style="stroke:#181818;stroke-width:0.5;" x1="545.5" x2="736.5" y1="694.4844" y2="694.4844"/><ellipse cx="555.5" cy="709.2949" fill="#84BE84" rx="3" ry="3" style="stroke:#038048;stroke-width:1.0;"/><text fill="#000000" font-family="sans-serif" font-size="14" lengthAdjust="spacing" textLength="55" x="564.5" y="713.5918">identity()</text></g><!--class MeetingRepository--><g id="elem_MeetingRepository"><rect codeLine="30" fill="#F1F1F1" height="103.8633" id="MeetingRepository" rx="2.5" ry="2.5" style="stroke:#181818;stroke-width:0.5;" width="238" x="7" y="598.5"/><ellipse cx="62.25" cy="614.5" fill="#B4A7E5" rx="11" ry="11" style="stroke:#181818;stroke-width:1.0;"/><path d="M63.2031,611.1406 L63.2031,617.7969 L64.9219,617.7969 Q65.5313,617.7969 65.7969,618.0313 Q66.0625,618.2656 66.0625,618.6563 Q66.0625,619.0313 65.7969,619.2656 Q65.5313,619.5 64.9219,619.5 L59.7813,619.5 Q59.1719,619.5 58.9063,619.2656 Q58.6406,619.0313 58.6406,618.6406 Q58.6406,618.2656 58.9063,618.0313 Q59.1719,617.7969 59.7813,617.7969 L61.5,617.7969 L61.5,611.1406 L59.7813,611.1406 Q59.1719,611.1406 58.9063,610.9063 Q58.6406,610.6719 58.6406,610.2813 Q58.6406,609.9063 58.9063,609.6719 Q59.1719,609.4375 59.7813,609.4375 L64.9219,609.4375 Q65.5313,609.4375 65.7969,609.6719 Q66.0625,609.9063 66.0625,610.2813 Q66.0625,610.6719 65.7969,610.9063 Q65.5313,611.1406 64.9219,611.1406 L63.2031,611.1406 Z " fill="#000000"/><text fill="#000000" font-family="sans-serif" font-size="14" font-style="italic" lengthAdjust="spacing" textLength="119" x="82.75" y="620.2969">MeetingRepository</text><line style="stroke:#181818;stroke-width:0.5;" x1="8" x2="244" y1="630.5" y2="630.5"/><line style="stroke:#181818;stroke-width:0.5;" x1="8" x2="244" y1="638.5" y2="638.5"/><ellipse cx="18" cy="653.3105" fill="#84BE84" rx="3" ry="3" style="stroke:#038048;stroke-width:1.0;"/><text fill="#000000" font-family="sans-serif" font-size="14" lengthAdjust="spacing" textLength="98" x="27" y="657.6074">save( meeting )</text><ellipse cx="18" cy="671.9316" fill="#84BE84" rx="3" ry="3" style="stroke:#038048;stroke-width:1.0;"/><text fill="#000000" font-family="sans-serif" font-size="14" lengthAdjust="spacing" textLength="115" x="27" y="676.2285">remove( meeting )</text><ellipse cx="18" cy="690.5527" fill="#84BE84" rx="3" ry="3" style="stroke:#038048;stroke-width:1.0;"/><text fill="#000000" font-family="sans-serif" font-size="14" lengthAdjust="spacing" textLength="212" x="27" y="694.8496">getAllMeetingsWithOwner( email )</text></g><!--class MeetingInviteRepository--><g id="elem_MeetingInviteRepository"><rect codeLine="35" fill="#F1F1F1" height="85.2422" id="MeetingInviteRepository" rx="2.5" ry="2.5" style="stroke:#181818;stroke-width:0.5;" width="229" x="280.5" y="608"/><ellipse cx="315.75" cy="624" fill="#B4A7E5" rx="11" ry="11" style="stroke:#181818;stroke-width:1.0;"/><path d="M316.7031,620.6406 L316.7031,627.2969 L318.4219,627.2969 Q319.0313,627.2969 319.2969,627.5313 Q319.5625,627.7656 319.5625,628.1563 Q319.5625,628.5313 319.2969,628.7656 Q319.0313,629 318.4219,629 L313.2813,629 Q312.6719,629 312.4063,628.7656 Q312.1406,628.5313 312.1406,628.1406 Q312.1406,627.7656 312.4063,627.5313 Q312.6719,627.2969 313.2813,627.2969 L315,627.2969 L315,620.6406 L313.2813,620.6406 Q312.6719,620.6406 312.4063,620.4063 Q312.1406,620.1719 312.1406,619.7813 Q312.1406,619.4063 312.4063,619.1719 Q312.6719,618.9375 313.2813,618.9375 L318.4219,618.9375 Q319.0313,618.9375 319.2969,619.1719 Q319.5625,619.4063 319.5625,619.7813 Q319.5625,620.1719 319.2969,620.4063 Q319.0313,620.6406 318.4219,620.6406 L316.7031,620.6406 Z " fill="#000000"/><text fill="#000000" font-family="sans-serif" font-size="14" font-style="italic" lengthAdjust="spacing" textLength="152" x="334.25" y="629.7969">MeetingInviteRepository</text><line style="stroke:#181818;stroke-width:0.5;" x1="281.5" x2="508.5" y1="640" y2="640"/><line style="stroke:#181818;stroke-width:0.5;" x1="281.5" x2="508.5" y1="648" y2="648"/><ellipse cx="291.5" cy="662.8105" fill="#84BE84" rx="3" ry="3" style="stroke:#038048;stroke-width:1.0;"/><text fill="#000000" font-family="sans-serif" font-size="14" lengthAdjust="spacing" textLength="203" x="300.5" y="667.1074">searchByMeetingID( meetingID )</text><ellipse cx="291.5" cy="681.4316" fill="#84BE84" rx="3" ry="3" style="stroke:#038048;stroke-width:1.0;"/><text fill="#000000" font-family="sans-serif" font-size="14" lengthAdjust="spacing" textLength="98" x="300.5" y="685.7285">remove( invite )</text></g><!--link SystemUser to Email--><g id="link_SystemUser_Email"><path codeLine="42" d="M529.72,64 C541.24,64 552.76,64 564.28,64 " fill="none" id="SystemUser-Email" style="stroke:#181818;stroke-width:1.0;"/></g><!--link SystemUser to Meeting--><g id="link_SystemUser_Meeting"><path codeLine="43" d="M501.13,121.01 C509.06,139.85 517.45,161.13 524,181 C569.88,320.13 607.64,487.62 626.99,579.92 " fill="none" id="SystemUser-Meeting" style="stroke:#181818;stroke-width:1.0;"/></g><!--link SystemUser to CancelMeetingUI--><g id="link_SystemUser_CancelMeetingUI"><path codeLine="44" d="M444.24,121.14 C432.81,141.35 420.31,163.46 410.4,180.98 " fill="none" id="SystemUser-CancelMeetingUI" style="stroke:#181818;stroke-width:1.0;stroke-dasharray:7.0,7.0;"/></g><!--link CancelMeetingUI to CancelMeetingController--><g id="link_CancelMeetingUI_CancelMeetingController"><path codeLine="45" d="M376.83,248.28 C368.52,266.26 358.12,288.72 349.24,307.92 " fill="none" id="CancelMeetingUI-CancelMeetingController" style="stroke:#181818;stroke-width:1.0;stroke-dasharray:7.0,7.0;"/></g><!--link CancelMeetingController to CancelMeetingService--><g id="link_CancelMeetingController_CancelMeetingService"><path codeLine="46" d="M350.21,393.16 C359.53,412.37 370.42,434.84 379.14,452.8 " fill="none" id="CancelMeetingController-CancelMeetingService" style="stroke:#181818;stroke-width:1.0;stroke-dasharray:7.0,7.0;"/></g><!--link CancelMeetingController to AuthenticationService--><g id="link_CancelMeetingController_AuthenticationService"><path codeLine="47" d="M261.91,393.16 C230.52,412.37 193.8,434.84 164.45,452.8 " fill="none" id="CancelMeetingController-AuthenticationService" style="stroke:#181818;stroke-width:1.0;stroke-dasharray:7.0,7.0;"/></g><!--link CancelMeetingController to MeetingRepository--><g id="link_CancelMeetingController_MeetingRepository"><path codeLine="48" d="M301.42,393.25 C264.63,446.99 200.73,540.33 161.05,598.3 " fill="none" id="CancelMeetingController-MeetingRepository" style="stroke:#181818;stroke-width:1.0;stroke-dasharray:7.0,7.0;"/></g><!--link CancelMeetingService to MeetingRepository--><g id="link_CancelMeetingService_MeetingRepository"><path codeLine="49" d="M340.89,520.09 C303.61,542.54 253.31,572.83 210.75,598.46 " fill="none" id="CancelMeetingService-MeetingRepository" style="stroke:#181818;stroke-width:1.0;stroke-dasharray:7.0,7.0;"/></g><!--link CancelMeetingService to MeetingInviteRepository--><g id="link_CancelMeetingService_MeetingInviteRepository"><path codeLine="50" d="M395,520.28 C395,545.52 395,580.58 395,607.82 " fill="none" id="CancelMeetingService-MeetingInviteRepository" style="stroke:#181818;stroke-width:1.0;stroke-dasharray:7.0,7.0;"/></g><!--link CancelMeetingService to Meeting--><g id="link_CancelMeetingService_Meeting"><path codeLine="51" d="M444.49,520.09 C473.11,538.94 510.12,563.31 544.29,585.81 " fill="none" id="CancelMeetingService-Meeting" style="stroke:#181818;stroke-width:1.0;stroke-dasharray:7.0,7.0;"/></g><!--SRC=[dLBBRi8m4BpdAtnhQ0NSAnI90fKYzI4LqPvTPqjS-O7i3LM4-kyrZXD20hIgJzxnxinwPwzon8sz7OytWYeif1WnBSTCK6k76QThGsKK-P0iIuiWLnOCcKoCrfWaxh9GoB5qrrr4tBaczuKGJrH229UvDkZZxy2pa9GBL_bAHG54lty2SrIroemg1k8H0BbQhzAAzOPatBeEou3Rc3nmYvCG9eE6_AXyfXKQBGIOccODE1LY_uU6QH2UMBio9hAwa3FKIp1Rpc3tr-9fWJcuKJ6ANAjEjGLh7HeVqWDJFLFapJopmdYA4Fenm4mNniB1e2IywYy59eZm3BnLNYNY2i5yK0Qrr0jijEMeJTbqHRVG_ag56f3w55vDjfxg6yVyUIyU4_1sxqLxcgdQSeGJoa0Do-zgjzDv8vVEUurmJ-85t6ajwR3Qj2DeM4ktqT6ektLH9-wb73OhEeFtIeBdb_9FBicbWfvtqId9VsLslVajF_e1]--></g></svg>