<?xml version="1.0" encoding="us-ascii" standalone="no"?><svg xmlns="http://www.w3.org/2000/svg" xmlns:xlink="http://www.w3.org/1999/xlink" contentStyleType="text/css" height="1156px" preserveAspectRatio="none" style="width:344px;height:1156px;background:#FFFFFF;" version="1.1" viewBox="0 0 344 1156" width="344px" zoomAndPan="magnify"><defs/><g><!--class Teacher--><g id="elem_Teacher"><rect codeLine="2" fill="#F1F1F1" height="95.1641" id="Teacher" rx="2.5" ry="2.5" style="stroke:#181818;stroke-width:0.5;" width="85" x="57" y="16.5"/><ellipse cx="72" cy="46.7715" fill="#ADD1B2" rx="11" ry="11" style="stroke:#181818;stroke-width:1.0;"/><path d="M74.7656,42.6465 Q74.9219,42.4277 75.1094,42.3184 Q75.2969,42.209 75.5156,42.209 Q75.8906,42.209 76.125,42.4746 Q76.3594,42.7246 76.3594,43.334 L76.3594,44.7871 Q76.3594,45.3965 76.125,45.6621 Q75.8906,45.9277 75.5156,45.9277 Q75.1719,45.9277 74.9688,45.7246 Q74.7656,45.5371 74.6563,45.0215 Q74.6094,44.6621 74.4219,44.4746 Q74.0938,44.0996 73.4844,43.8809 Q72.875,43.6621 72.25,43.6621 Q71.4844,43.6621 70.8438,43.9902 Q70.2188,44.3184 69.7188,45.0684 Q69.2344,45.8184 69.2344,46.8496 L69.2344,47.9434 Q69.2344,49.1777 70.125,50.0059 Q71.0156,50.8184 72.6094,50.8184 Q73.5469,50.8184 74.2031,50.5684 Q74.5938,50.4121 75.0156,49.9746 Q75.2813,49.709 75.4219,49.6309 Q75.5781,49.5527 75.7813,49.5527 Q76.1094,49.5527 76.3594,49.8184 Q76.625,50.0684 76.625,50.4121 Q76.625,50.7559 76.2813,51.1621 Q75.7813,51.7402 74.9844,52.0684 Q73.9063,52.5215 72.6094,52.5215 Q71.0938,52.5215 69.8906,51.8965 Q68.9063,51.3965 68.2188,50.334 Q67.5313,49.2559 67.5313,47.9746 L67.5313,46.8184 Q67.5313,45.4902 68.1406,44.3496 Q68.7656,43.1934 69.8594,42.584 Q70.9531,41.959 72.1875,41.959 Q72.9219,41.959 73.5625,42.1309 Q74.2188,42.2871 74.7656,42.6465 Z " fill="#000000"/><text fill="#000000" font-family="sans-serif" font-size="12" font-style="italic" lengthAdjust="spacing" textLength="35" x="95" y="34.4492">&#171;root&#187;</text><text fill="#000000" font-family="sans-serif" font-size="12" font-style="italic" lengthAdjust="spacing" textLength="43" x="91" y="50.4102">&#171;entity&#187;</text><text fill="#000000" font-family="sans-serif" font-size="14" lengthAdjust="spacing" textLength="53" x="86" y="68.5293">Teacher</text><line style="stroke:#181818;stroke-width:0.5;" x1="58" x2="141" y1="77.043" y2="77.043"/><ellipse cx="68" cy="91.8535" fill="#000000" rx="3" ry="3" style="stroke:#000000;stroke-width:1.0;"/><text fill="#000000" font-family="sans-serif" font-size="14" lengthAdjust="spacing" textLength="35" x="77" y="96.1504">name</text><line style="stroke:#181818;stroke-width:0.5;" x1="58" x2="141" y1="103.6641" y2="103.6641"/></g><!--class SystemUser--><g id="elem_SystemUser"><rect codeLine="6" fill="#F1F1F1" height="113.7852" id="SystemUser" rx="2.5" ry="2.5" style="stroke:#181818;stroke-width:0.5;" width="107" x="213" y="7"/><ellipse cx="228" cy="37.2715" fill="#ADD1B2" rx="11" ry="11" style="stroke:#181818;stroke-width:1.0;"/><path d="M230.7656,33.1465 Q230.9219,32.9277 231.1094,32.8184 Q231.2969,32.709 231.5156,32.709 Q231.8906,32.709 232.125,32.9746 Q232.3594,33.2246 232.3594,33.834 L232.3594,35.2871 Q232.3594,35.8965 232.125,36.1621 Q231.8906,36.4277 231.5156,36.4277 Q231.1719,36.4277 230.9688,36.2246 Q230.7656,36.0371 230.6563,35.5215 Q230.6094,35.1621 230.4219,34.9746 Q230.0938,34.5996 229.4844,34.3809 Q228.875,34.1621 228.25,34.1621 Q227.4844,34.1621 226.8438,34.4902 Q226.2188,34.8184 225.7188,35.5684 Q225.2344,36.3184 225.2344,37.3496 L225.2344,38.4434 Q225.2344,39.6777 226.125,40.5059 Q227.0156,41.3184 228.6094,41.3184 Q229.5469,41.3184 230.2031,41.0684 Q230.5938,40.9121 231.0156,40.4746 Q231.2813,40.209 231.4219,40.1309 Q231.5781,40.0527 231.7813,40.0527 Q232.1094,40.0527 232.3594,40.3184 Q232.625,40.5684 232.625,40.9121 Q232.625,41.2559 232.2813,41.6621 Q231.7813,42.2402 230.9844,42.5684 Q229.9063,43.0215 228.6094,43.0215 Q227.0938,43.0215 225.8906,42.3965 Q224.9063,41.8965 224.2188,40.834 Q223.5313,39.7559 223.5313,38.4746 L223.5313,37.3184 Q223.5313,35.9902 224.1406,34.8496 Q224.7656,33.6934 225.8594,33.084 Q226.9531,32.459 228.1875,32.459 Q228.9219,32.459 229.5625,32.6309 Q230.2188,32.7871 230.7656,33.1465 Z " fill="#000000"/><text fill="#000000" font-family="sans-serif" font-size="12" font-style="italic" lengthAdjust="spacing" textLength="35" x="262" y="24.9492">&#171;root&#187;</text><text fill="#000000" font-family="sans-serif" font-size="12" font-style="italic" lengthAdjust="spacing" textLength="44" x="257.5" y="40.9102">&#171;Entity&#187;</text><text fill="#000000" font-family="sans-serif" font-size="14" lengthAdjust="spacing" textLength="75" x="242" y="59.0293">SystemUser</text><line style="stroke:#181818;stroke-width:0.5;" x1="214" x2="319" y1="67.543" y2="67.543"/><ellipse cx="224" cy="82.3535" fill="#000000" rx="3" ry="3" style="stroke:#000000;stroke-width:1.0;"/><text fill="#000000" font-family="sans-serif" font-size="14" lengthAdjust="spacing" textLength="59" x="233" y="86.6504">FullName</text><ellipse cx="224" cy="100.9746" fill="#000000" rx="3" ry="3" style="stroke:#000000;stroke-width:1.0;"/><text fill="#000000" font-family="sans-serif" font-size="14" lengthAdjust="spacing" textLength="70" x="233" y="105.2715">ShortName</text><line style="stroke:#181818;stroke-width:0.5;" x1="214" x2="319" y1="112.7852" y2="112.7852"/></g><!--class UpdateClassUI--><g id="elem_UpdateClassUI"><rect codeLine="11" fill="#F1F1F1" height="103.8633" id="UpdateClassUI" rx="2.5" ry="2.5" style="stroke:#181818;stroke-width:0.5;" width="201" x="12" y="200"/><ellipse cx="62.25" cy="216" fill="#ADD1B2" rx="11" ry="11" style="stroke:#181818;stroke-width:1.0;"/><path d="M65.0156,211.875 Q65.1719,211.6563 65.3594,211.5469 Q65.5469,211.4375 65.7656,211.4375 Q66.1406,211.4375 66.375,211.7031 Q66.6094,211.9531 66.6094,212.5625 L66.6094,214.0156 Q66.6094,214.625 66.375,214.8906 Q66.1406,215.1563 65.7656,215.1563 Q65.4219,215.1563 65.2188,214.9531 Q65.0156,214.7656 64.9063,214.25 Q64.8594,213.8906 64.6719,213.7031 Q64.3438,213.3281 63.7344,213.1094 Q63.125,212.8906 62.5,212.8906 Q61.7344,212.8906 61.0938,213.2188 Q60.4688,213.5469 59.9688,214.2969 Q59.4844,215.0469 59.4844,216.0781 L59.4844,217.1719 Q59.4844,218.4063 60.375,219.2344 Q61.2656,220.0469 62.8594,220.0469 Q63.7969,220.0469 64.4531,219.7969 Q64.8438,219.6406 65.2656,219.2031 Q65.5313,218.9375 65.6719,218.8594 Q65.8281,218.7813 66.0313,218.7813 Q66.3594,218.7813 66.6094,219.0469 Q66.875,219.2969 66.875,219.6406 Q66.875,219.9844 66.5313,220.3906 Q66.0313,220.9688 65.2344,221.2969 Q64.1563,221.75 62.8594,221.75 Q61.3438,221.75 60.1406,221.125 Q59.1563,220.625 58.4688,219.5625 Q57.7813,218.4844 57.7813,217.2031 L57.7813,216.0469 Q57.7813,214.7188 58.3906,213.5781 Q59.0156,212.4219 60.1094,211.8125 Q61.2031,211.1875 62.4375,211.1875 Q63.1719,211.1875 63.8125,211.3594 Q64.4688,211.5156 65.0156,211.875 Z " fill="#000000"/><text fill="#000000" font-family="sans-serif" font-size="14" lengthAdjust="spacing" textLength="92" x="82.75" y="221.7969">UpdateClassUI</text><line style="stroke:#181818;stroke-width:0.5;" x1="13" x2="212" y1="232" y2="232"/><line style="stroke:#181818;stroke-width:0.5;" x1="13" x2="212" y1="240" y2="240"/><ellipse cx="23" cy="254.8105" fill="#84BE84" rx="3" ry="3" style="stroke:#038048;stroke-width:1.0;"/><text fill="#000000" font-family="sans-serif" font-size="14" lengthAdjust="spacing" textLength="175" x="32" y="259.1074">getScheduledClassByTitle()</text><ellipse cx="23" cy="273.4316" fill="#84BE84" rx="3" ry="3" style="stroke:#038048;stroke-width:1.0;"/><text fill="#000000" font-family="sans-serif" font-size="14" lengthAdjust="spacing" textLength="137" x="32" y="277.7285">updateExistingClass()</text><ellipse cx="23" cy="292.0527" fill="#84BE84" rx="3" ry="3" style="stroke:#038048;stroke-width:1.0;"/><text fill="#000000" font-family="sans-serif" font-size="14" lengthAdjust="spacing" textLength="54" x="32" y="296.3496">display()</text></g><!--class UpdateClassController--><g id="elem_UpdateClassController"><rect codeLine="17" fill="#F1F1F1" height="85.2422" id="UpdateClassController" rx="2.5" ry="2.5" style="stroke:#181818;stroke-width:0.5;" width="201" x="12" y="365"/><ellipse cx="39.15" cy="381" fill="#ADD1B2" rx="11" ry="11" style="stroke:#181818;stroke-width:1.0;"/><path d="M41.9156,376.875 Q42.0719,376.6563 42.2594,376.5469 Q42.4469,376.4375 42.6656,376.4375 Q43.0406,376.4375 43.275,376.7031 Q43.5094,376.9531 43.5094,377.5625 L43.5094,379.0156 Q43.5094,379.625 43.275,379.8906 Q43.0406,380.1563 42.6656,380.1563 Q42.3219,380.1563 42.1188,379.9531 Q41.9156,379.7656 41.8063,379.25 Q41.7594,378.8906 41.5719,378.7031 Q41.2438,378.3281 40.6344,378.1094 Q40.025,377.8906 39.4,377.8906 Q38.6344,377.8906 37.9938,378.2188 Q37.3688,378.5469 36.8688,379.2969 Q36.3844,380.0469 36.3844,381.0781 L36.3844,382.1719 Q36.3844,383.4063 37.275,384.2344 Q38.1656,385.0469 39.7594,385.0469 Q40.6969,385.0469 41.3531,384.7969 Q41.7438,384.6406 42.1656,384.2031 Q42.4313,383.9375 42.5719,383.8594 Q42.7281,383.7813 42.9313,383.7813 Q43.2594,383.7813 43.5094,384.0469 Q43.775,384.2969 43.775,384.6406 Q43.775,384.9844 43.4313,385.3906 Q42.9313,385.9688 42.1344,386.2969 Q41.0563,386.75 39.7594,386.75 Q38.2438,386.75 37.0406,386.125 Q36.0563,385.625 35.3688,384.5625 Q34.6813,383.4844 34.6813,382.2031 L34.6813,381.0469 Q34.6813,379.7188 35.2906,378.5781 Q35.9156,377.4219 37.0094,376.8125 Q38.1031,376.1875 39.3375,376.1875 Q40.0719,376.1875 40.7125,376.3594 Q41.3688,376.5156 41.9156,376.875 Z " fill="#000000"/><text fill="#000000" font-family="sans-serif" font-size="14" lengthAdjust="spacing" textLength="142" x="55.85" y="386.7969">UpdateClassController</text><line style="stroke:#181818;stroke-width:0.5;" x1="13" x2="212" y1="397" y2="397"/><line style="stroke:#181818;stroke-width:0.5;" x1="13" x2="212" y1="405" y2="405"/><ellipse cx="23" cy="419.8105" fill="#84BE84" rx="3" ry="3" style="stroke:#038048;stroke-width:1.0;"/><text fill="#000000" font-family="sans-serif" font-size="14" lengthAdjust="spacing" textLength="137" x="32" y="424.1074">updateExistingClass()</text><ellipse cx="23" cy="438.4316" fill="#84BE84" rx="3" ry="3" style="stroke:#038048;stroke-width:1.0;"/><text fill="#000000" font-family="sans-serif" font-size="14" lengthAdjust="spacing" textLength="175" x="32" y="442.7285">getScheduledClassByTitle()</text></g><!--class UpdateClassService--><g id="elem_UpdateClassService"><rect codeLine="22" fill="#F1F1F1" height="141.1055" id="UpdateClassService" rx="2.5" ry="2.5" style="stroke:#181818;stroke-width:0.5;" width="277" x="7" y="511"/><ellipse cx="77.75" cy="527" fill="#ADD1B2" rx="11" ry="11" style="stroke:#181818;stroke-width:1.0;"/><path d="M80.5156,522.875 Q80.6719,522.6563 80.8594,522.5469 Q81.0469,522.4375 81.2656,522.4375 Q81.6406,522.4375 81.875,522.7031 Q82.1094,522.9531 82.1094,523.5625 L82.1094,525.0156 Q82.1094,525.625 81.875,525.8906 Q81.6406,526.1563 81.2656,526.1563 Q80.9219,526.1563 80.7188,525.9531 Q80.5156,525.7656 80.4063,525.25 Q80.3594,524.8906 80.1719,524.7031 Q79.8438,524.3281 79.2344,524.1094 Q78.625,523.8906 78,523.8906 Q77.2344,523.8906 76.5938,524.2188 Q75.9688,524.5469 75.4688,525.2969 Q74.9844,526.0469 74.9844,527.0781 L74.9844,528.1719 Q74.9844,529.4063 75.875,530.2344 Q76.7656,531.0469 78.3594,531.0469 Q79.2969,531.0469 79.9531,530.7969 Q80.3438,530.6406 80.7656,530.2031 Q81.0313,529.9375 81.1719,529.8594 Q81.3281,529.7813 81.5313,529.7813 Q81.8594,529.7813 82.1094,530.0469 Q82.375,530.2969 82.375,530.6406 Q82.375,530.9844 82.0313,531.3906 Q81.5313,531.9688 80.7344,532.2969 Q79.6563,532.75 78.3594,532.75 Q76.8438,532.75 75.6406,532.125 Q74.6563,531.625 73.9688,530.5625 Q73.2813,529.4844 73.2813,528.2031 L73.2813,527.0469 Q73.2813,525.7188 73.8906,524.5781 Q74.5156,523.4219 75.6094,522.8125 Q76.7031,522.1875 77.9375,522.1875 Q78.6719,522.1875 79.3125,522.3594 Q79.9688,522.5156 80.5156,522.875 Z " fill="#000000"/><text fill="#000000" font-family="sans-serif" font-size="14" lengthAdjust="spacing" textLength="127" x="98.25" y="532.7969">UpdateClassService</text><line style="stroke:#181818;stroke-width:0.5;" x1="8" x2="283" y1="543" y2="543"/><line style="stroke:#181818;stroke-width:0.5;" x1="8" x2="283" y1="551" y2="551"/><ellipse cx="18" cy="565.8105" fill="#84BE84" rx="3" ry="3" style="stroke:#038048;stroke-width:1.0;"/><text fill="#000000" font-family="sans-serif" font-size="14" lengthAdjust="spacing" textLength="251" x="27" y="570.1074">checkCoincidentialClasses(List&lt;Class&gt;)</text><ellipse cx="18" cy="584.4316" fill="#84BE84" rx="3" ry="3" style="stroke:#038048;stroke-width:1.0;"/><text fill="#000000" font-family="sans-serif" font-size="14" lengthAdjust="spacing" textLength="247" x="27" y="588.7285">checkOverlappingClasses(List&lt;Class&gt;)</text><ellipse cx="18" cy="603.0527" fill="#84BE84" rx="3" ry="3" style="stroke:#038048;stroke-width:1.0;"/><text fill="#000000" font-family="sans-serif" font-size="14" lengthAdjust="spacing" textLength="219" x="27" y="607.3496">checkTeacherAvailability(Teacher)</text><ellipse cx="18" cy="621.6738" fill="#84BE84" rx="3" ry="3" style="stroke:#038048;stroke-width:1.0;"/><text fill="#000000" font-family="sans-serif" font-size="14" lengthAdjust="spacing" textLength="137" x="27" y="625.9707">updateExistingClass()</text><ellipse cx="18" cy="640.2949" fill="#84BE84" rx="3" ry="3" style="stroke:#038048;stroke-width:1.0;"/><text fill="#000000" font-family="sans-serif" font-size="14" lengthAdjust="spacing" textLength="175" x="27" y="644.5918">getScheduledClassByTitle()</text></g><!--class ClassRepository--><g id="elem_ClassRepository"><rect codeLine="30" fill="#F1F1F1" height="103.8633" id="ClassRepository" rx="2.5" ry="2.5" style="stroke:#181818;stroke-width:0.5;" width="188" x="85.5" y="713"/><ellipse cx="124.35" cy="729" fill="#B4A7E5" rx="11" ry="11" style="stroke:#181818;stroke-width:1.0;"/><path d="M125.3031,725.6406 L125.3031,732.2969 L127.0219,732.2969 Q127.6313,732.2969 127.8969,732.5313 Q128.1625,732.7656 128.1625,733.1563 Q128.1625,733.5313 127.8969,733.7656 Q127.6313,734 127.0219,734 L121.8813,734 Q121.2719,734 121.0063,733.7656 Q120.7406,733.5313 120.7406,733.1406 Q120.7406,732.7656 121.0063,732.5313 Q121.2719,732.2969 121.8813,732.2969 L123.6,732.2969 L123.6,725.6406 L121.8813,725.6406 Q121.2719,725.6406 121.0063,725.4063 Q120.7406,725.1719 120.7406,724.7813 Q120.7406,724.4063 121.0063,724.1719 Q121.2719,723.9375 121.8813,723.9375 L127.0219,723.9375 Q127.6313,723.9375 127.8969,724.1719 Q128.1625,724.4063 128.1625,724.7813 Q128.1625,725.1719 127.8969,725.4063 Q127.6313,725.6406 127.0219,725.6406 L125.3031,725.6406 Z " fill="#000000"/><text fill="#000000" font-family="sans-serif" font-size="14" font-style="italic" lengthAdjust="spacing" textLength="103" x="143.65" y="734.7969">ClassRepository</text><line style="stroke:#181818;stroke-width:0.5;" x1="86.5" x2="272.5" y1="745" y2="745"/><line style="stroke:#181818;stroke-width:0.5;" x1="86.5" x2="272.5" y1="753" y2="753"/><ellipse cx="96.5" cy="767.8105" fill="#84BE84" rx="3" ry="3" style="stroke:#038048;stroke-width:1.0;"/><text fill="#000000" font-family="sans-serif" font-size="14" lengthAdjust="spacing" textLength="75" x="105.5" y="772.1074">save(Class)</text><ellipse cx="96.5" cy="786.4316" fill="#84BE84" rx="3" ry="3" style="stroke:#038048;stroke-width:1.0;"/><text fill="#000000" font-family="sans-serif" font-size="14" lengthAdjust="spacing" textLength="162" x="105.5" y="790.7285">getAllScheduledClasses()</text><ellipse cx="96.5" cy="805.0527" fill="#84BE84" rx="3" ry="3" style="stroke:#038048;stroke-width:1.0;"/><text fill="#000000" font-family="sans-serif" font-size="14" lengthAdjust="spacing" textLength="108" x="105.5" y="809.3496">getClassByTitle()</text></g><!--class Class--><g id="elem_Class"><rect codeLine="36" fill="#F1F1F1" height="113.7852" id="Class" rx="2.5" ry="2.5" style="stroke:#181818;stroke-width:0.5;" width="111" x="209" y="896"/><ellipse cx="242" cy="926.2715" fill="#ADD1B2" rx="11" ry="11" style="stroke:#181818;stroke-width:1.0;"/><path d="M244.7656,922.1465 Q244.9219,921.9277 245.1094,921.8184 Q245.2969,921.709 245.5156,921.709 Q245.8906,921.709 246.125,921.9746 Q246.3594,922.2246 246.3594,922.834 L246.3594,924.2871 Q246.3594,924.8965 246.125,925.1621 Q245.8906,925.4277 245.5156,925.4277 Q245.1719,925.4277 244.9688,925.2246 Q244.7656,925.0371 244.6563,924.5215 Q244.6094,924.1621 244.4219,923.9746 Q244.0938,923.5996 243.4844,923.3809 Q242.875,923.1621 242.25,923.1621 Q241.4844,923.1621 240.8438,923.4902 Q240.2188,923.8184 239.7188,924.5684 Q239.2344,925.3184 239.2344,926.3496 L239.2344,927.4434 Q239.2344,928.6777 240.125,929.5059 Q241.0156,930.3184 242.6094,930.3184 Q243.5469,930.3184 244.2031,930.0684 Q244.5938,929.9121 245.0156,929.4746 Q245.2813,929.209 245.4219,929.1309 Q245.5781,929.0527 245.7813,929.0527 Q246.1094,929.0527 246.3594,929.3184 Q246.625,929.5684 246.625,929.9121 Q246.625,930.2559 246.2813,930.6621 Q245.7813,931.2402 244.9844,931.5684 Q243.9063,932.0215 242.6094,932.0215 Q241.0938,932.0215 239.8906,931.3965 Q238.9063,930.8965 238.2188,929.834 Q237.5313,928.7559 237.5313,927.4746 L237.5313,926.3184 Q237.5313,924.9902 238.1406,923.8496 Q238.7656,922.6934 239.8594,922.084 Q240.9531,921.459 242.1875,921.459 Q242.9219,921.459 243.5625,921.6309 Q244.2188,921.7871 244.7656,922.1465 Z " fill="#000000"/><text fill="#000000" font-family="sans-serif" font-size="12" font-style="italic" lengthAdjust="spacing" textLength="35" x="262" y="913.9492">&#171;root&#187;</text><text fill="#000000" font-family="sans-serif" font-size="12" font-style="italic" lengthAdjust="spacing" textLength="43" x="258" y="929.9102">&#171;entity&#187;</text><text fill="#000000" font-family="sans-serif" font-size="14" lengthAdjust="spacing" textLength="35" x="262" y="948.0293">Class</text><line style="stroke:#181818;stroke-width:0.5;" x1="210" x2="319" y1="956.543" y2="956.543"/><ellipse cx="220" cy="971.3535" fill="#000000" rx="3" ry="3" style="stroke:#000000;stroke-width:1.0;"/><text fill="#000000" font-family="sans-serif" font-size="14" lengthAdjust="spacing" textLength="85" x="229" y="975.6504">title &#171;unique&#187;</text><ellipse cx="220" cy="989.9746" fill="#000000" rx="3" ry="3" style="stroke:#000000;stroke-width:1.0;"/><text fill="#000000" font-family="sans-serif" font-size="14" lengthAdjust="spacing" textLength="28" x="229" y="994.2715">date</text><line style="stroke:#181818;stroke-width:0.5;" x1="210" x2="319" y1="1001.7852" y2="1001.7852"/></g><!--class Duration--><g id="elem_Duration"><rect codeLine="41" fill="#F1F1F1" height="60.582" id="Duration" rx="2.5" ry="2.5" style="stroke:#181818;stroke-width:0.5;" width="109" x="210" y="1089"/><ellipse cx="225" cy="1111.291" fill="#ADD1B2" rx="11" ry="11" style="stroke:#181818;stroke-width:1.0;"/><path d="M227.7656,1107.166 Q227.9219,1106.9473 228.1094,1106.8379 Q228.2969,1106.7285 228.5156,1106.7285 Q228.8906,1106.7285 229.125,1106.9941 Q229.3594,1107.2441 229.3594,1107.8535 L229.3594,1109.3066 Q229.3594,1109.916 229.125,1110.1816 Q228.8906,1110.4473 228.5156,1110.4473 Q228.1719,1110.4473 227.9688,1110.2441 Q227.7656,1110.0566 227.6563,1109.541 Q227.6094,1109.1816 227.4219,1108.9941 Q227.0938,1108.6191 226.4844,1108.4004 Q225.875,1108.1816 225.25,1108.1816 Q224.4844,1108.1816 223.8438,1108.5098 Q223.2188,1108.8379 222.7188,1109.5879 Q222.2344,1110.3379 222.2344,1111.3691 L222.2344,1112.4629 Q222.2344,1113.6973 223.125,1114.5254 Q224.0156,1115.3379 225.6094,1115.3379 Q226.5469,1115.3379 227.2031,1115.0879 Q227.5938,1114.9316 228.0156,1114.4941 Q228.2813,1114.2285 228.4219,1114.1504 Q228.5781,1114.0723 228.7813,1114.0723 Q229.1094,1114.0723 229.3594,1114.3379 Q229.625,1114.5879 229.625,1114.9316 Q229.625,1115.2754 229.2813,1115.6816 Q228.7813,1116.2598 227.9844,1116.5879 Q226.9063,1117.041 225.6094,1117.041 Q224.0938,1117.041 222.8906,1116.416 Q221.9063,1115.916 221.2188,1114.8535 Q220.5313,1113.7754 220.5313,1112.4941 L220.5313,1111.3379 Q220.5313,1110.0098 221.1406,1108.8691 Q221.7656,1107.7129 222.8594,1107.1035 Q223.9531,1106.4785 225.1875,1106.4785 Q225.9219,1106.4785 226.5625,1106.6504 Q227.2188,1106.8066 227.7656,1107.166 Z " fill="#000000"/><text fill="#000000" font-family="sans-serif" font-size="12" font-style="italic" lengthAdjust="spacing" textLength="81" x="237" y="1106.9492">&#171;value object&#187;</text><text fill="#000000" font-family="sans-serif" font-size="14" lengthAdjust="spacing" textLength="54" x="250.5" y="1125.0684">Duration</text><line style="stroke:#181818;stroke-width:0.5;" x1="211" x2="318" y1="1133.582" y2="1133.582"/><line style="stroke:#181818;stroke-width:0.5;" x1="211" x2="318" y1="1141.582" y2="1141.582"/></g><!--link Teacher to SystemUser--><g id="link_Teacher_SystemUser"><path codeLine="44" d="M142.07,64 C163.62,64 190.01,64 212.92,64 " fill="none" id="Teacher-SystemUser" style="stroke:#181818;stroke-width:1.0;"/><polygon fill="#000000" points="169.5,51.6455,160.4549,48.7066,160.4549,54.5844,169.5,51.6455" style="stroke:#000000;stroke-width:1.0;"/><text fill="#000000" font-family="sans-serif" font-size="13" lengthAdjust="spacing" textLength="21" x="173.5" y="57.0283">is a</text><text fill="#000000" font-family="sans-serif" font-size="13" lengthAdjust="spacing" textLength="5" x="150.0981" y="59.5256">*</text><text fill="#000000" font-family="sans-serif" font-size="13" lengthAdjust="spacing" textLength="7" x="197.8931" y="59.8686">1</text></g><!--link SystemUser to UpdateClassService--><g id="link_SystemUser_UpdateClassService"><path codeLine="45" d="M269.53,121.28 C271.82,197.9 269.43,338.27 230.5,450 C223.16,471.06 211.72,492.11 199.59,510.95 " fill="none" id="SystemUser-UpdateClassService" style="stroke:#181818;stroke-width:1.0;"/><text fill="#000000" font-family="sans-serif" font-size="13" lengthAdjust="spacing" textLength="7" x="262.4757" y="142.9434">1</text><text fill="#000000" font-family="sans-serif" font-size="13" lengthAdjust="spacing" textLength="7" x="197.8071" y="499.8359">1</text></g><!--link SystemUser to Class--><g id="link_SystemUser_Class"><path codeLine="46" d="M300.13,121.12 C318.48,156.99 337.5,205.2 337.5,251 C337.5,251 337.5,251 337.5,766 C337.5,811.96 317.94,860.17 299.08,895.99 " fill="none" id="SystemUser-Class" style="stroke:#181818;stroke-width:1.0;"/></g><!--link SystemUser to UpdateClassUI--><g id="link_SystemUser_UpdateClassUI"><path codeLine="48" d="M214.18,121.28 C205.46,131.06 196.62,141.23 188.5,151 C175.54,166.6 161.97,184.06 149.94,199.97 " fill="none" id="SystemUser-UpdateClassUI" style="stroke:#181818;stroke-width:1.0;stroke-dasharray:7.0,7.0;"/><text fill="#000000" font-family="sans-serif" font-size="13" lengthAdjust="spacing" textLength="50" x="189.5" y="166.0283">interacts</text></g><!--link UpdateClassUI to UpdateClassController--><g id="link_UpdateClassUI_UpdateClassController"><path codeLine="49" d="M112.5,304.11 C112.5,323.82 112.5,346.08 112.5,364.8 " fill="none" id="UpdateClassUI-UpdateClassController" style="stroke:#181818;stroke-width:1.0;"/></g><!--link UpdateClassController to UpdateClassService--><g id="link_UpdateClassController_UpdateClassService"><path codeLine="50" d="M120.49,450.14 C123.98,468.33 128.17,490.17 132.11,510.73 " fill="none" id="UpdateClassController-UpdateClassService" style="stroke:#181818;stroke-width:1.0;"/></g><!--link UpdateClassService to ClassRepository--><g id="link_UpdateClassService_ClassRepository"><path codeLine="51" d="M158.55,652.15 C162.33,672.35 166.39,694.02 169.92,712.85 " fill="none" id="UpdateClassService-ClassRepository" style="stroke:#181818;stroke-width:1.0;"/></g><!--link ClassRepository to Class--><g id="link_ClassRepository_Class"><path codeLine="52" d="M202.95,817.32 C214.11,841.73 227.47,870.97 238.89,895.95 " fill="none" id="ClassRepository-Class" style="stroke:#181818;stroke-width:1.0;"/><text fill="#000000" font-family="sans-serif" font-size="13" lengthAdjust="spacing" textLength="25" x="226.5" y="862.0283">repo</text></g><!--link Class to Duration--><g id="link_Class_Duration"><path codeLine="53" d="M264.5,1010.15 C264.5,1036.58 264.5,1067.03 264.5,1088.9 " fill="none" id="Class-Duration" style="stroke:#181818;stroke-width:1.0;"/><text fill="#000000" font-family="sans-serif" font-size="13" lengthAdjust="spacing" textLength="21" x="265.5" y="1055.0283">has</text></g><!--SRC=[fLBDRi8m3BxdAQAU2XD8kwAg4cDCcZGnQOK72Ac1R27fahHQXVRkIzBI7oZRORqqzlTZnp7bH6ky1a8Fe70KAIbD7Di32CDCQOydDCQ2705z8qGzEocrWUD6zmNBLe3jDyPFEUSh9wp2v22LMVMCDbbA32pSUVDSoUxsO1BRIvfpI3toKAwPuH2EAZptckKNquQ9lMUSePJfZ9FIXaCL5b8O9Ja7TVhJwPScXgmJK0MZKFjYgwGV2ya4PQaR8-6U1JfyiRKY7yIZBlcr0CL9bftx-8LQFzMy88oJBUDsvc6T6_tpNamOK3j20Nli3JAfcP6gh2-cIG6XXrgxEUTzH-WMkpKxdx-nRTMs62UnG2xOPmvnNAVTpLgRnrmHmwIml8Bm7B3SlWErZWYXpf86zm6USDYP2Gx6GRFiCymq9ZYweaxyx_fzkqHByb2lq7JQNsbNmisKKADH7x7wmTr4WzaB-hcVwrJJL_juw29kABOxPRCLxhBDE6VuG3Jw0G00]--></g></svg>