<?xml version="1.0" encoding="us-ascii" standalone="no"?><svg xmlns="http://www.w3.org/2000/svg" xmlns:xlink="http://www.w3.org/1999/xlink" contentStyleType="text/css" height="2054px" preserveAspectRatio="none" style="width:1448px;height:2054px;background:#FFFFFF;" version="1.1" viewBox="0 0 1448 2054" width="1448px" zoomAndPan="magnify"><defs/><g><rect fill="#FFFFFF" height="1848.0547" style="stroke:#181818;stroke-width:1.0;" width="10" x="64.5" y="98.2422"/><rect fill="#FFFFFF" height="573.6563" style="stroke:#181818;stroke-width:1.0;" width="10" x="495.5" y="121.5332"/><rect fill="#FFFFFF" height="373.2012" style="stroke:#181818;stroke-width:1.0;" width="10" x="495.5" y="726.4805"/><rect fill="#FFFFFF" height="309.6191" style="stroke:#181818;stroke-width:1.0;" width="10" x="495.5" y="1130.9727"/><rect fill="#FFFFFF" height="439.123" style="stroke:#181818;stroke-width:1.0;" width="10" x="495.5" y="1498.1738"/><rect fill="#FFFFFF" height="30" style="stroke:#181818;stroke-width:1.0;" width="10" x="684.5" y="215.4063"/><rect fill="#FFFFFF" height="342.9102" style="stroke:#181818;stroke-width:1.0;" width="10" x="684.5" y="276.6973"/><rect fill="#FFFFFF" height="235.0371" style="stroke:#181818;stroke-width:1.0;" width="10" x="684.5" y="757.7715"/><rect fill="#FFFFFF" height="171.4551" style="stroke:#181818;stroke-width:1.0;" width="10" x="684.5" y="1162.2637"/><rect fill="#FFFFFF" height="332.25" style="stroke:#181818;stroke-width:1.0;" width="10" x="684.5" y="1529.4648"/><rect fill="#FFFFFF" height="31.291" style="stroke:#181818;stroke-width:1.0;" width="10" x="844" y="307.9883"/><rect fill="#FFFFFF" height="31.291" style="stroke:#181818;stroke-width:1.0;" width="10" x="972" y="370.5703"/><rect fill="#FFFFFF" height="30" style="stroke:#181818;stroke-width:1.0;" width="10" x="1099" y="433.1523"/><rect fill="#FFFFFF" height="93.873" style="stroke:#181818;stroke-width:1.0;" width="10" x="1099" y="494.4434"/><rect fill="#FFFFFF" height="172.4551" style="stroke:#181818;stroke-width:1.0;" width="10" x="1099" y="789.0625"/><rect fill="#FFFFFF" height="108.873" style="stroke:#181818;stroke-width:1.0;" width="10" x="1099" y="1193.5547"/><rect fill="#FFFFFF" height="269.668" style="stroke:#181818;stroke-width:1.0;" width="10" x="1099" y="1560.7559"/><rect fill="#FFFFFF" height="31.291" style="stroke:#181818;stroke-width:1.0;" width="10" x="1357" y="525.7344"/><rect fill="#FFFFFF" height="75.582" style="stroke:#181818;stroke-width:1.0;" width="10" x="1357" y="1723.5508"/><rect fill="none" height="889.1973" style="stroke:#000000;stroke-width:1.5;" width="1352" x="10" y="804.0625"/><rect fill="none" height="282.6191" style="stroke:#000000;stroke-width:1.5;" width="1154.5" x="30" y="918.9355"/><rect fill="none" height="426.4141" style="stroke:#000000;stroke-width:1.5;" width="1174.5" x="20" y="1259.8457"/><rect fill="none" height="223.668" style="stroke:#000000;stroke-width:1.5;" width="1154.5" x="30" y="1455.5918"/><line style="stroke:#181818;stroke-width:0.5;stroke-dasharray:5.0,5.0;" x1="69" x2="69" y1="88.2422" y2="1955.2969"/><line style="stroke:#181818;stroke-width:0.5;stroke-dasharray:5.0,5.0;" x1="500" x2="500" y1="88.2422" y2="1955.2969"/><line style="stroke:#181818;stroke-width:0.5;stroke-dasharray:5.0,5.0;" x1="689.5" x2="689.5" y1="88.2422" y2="1955.2969"/><line style="stroke:#181818;stroke-width:0.5;stroke-dasharray:5.0,5.0;" x1="848.5" x2="848.5" y1="88.2422" y2="1955.2969"/><line style="stroke:#181818;stroke-width:0.5;stroke-dasharray:5.0,5.0;" x1="976.5" x2="976.5" y1="88.2422" y2="1955.2969"/><line style="stroke:#181818;stroke-width:0.5;stroke-dasharray:5.0,5.0;" x1="1103.5" x2="1103.5" y1="88.2422" y2="1955.2969"/><line style="stroke:#181818;stroke-width:0.5;stroke-dasharray:5.0,5.0;" x1="1361.5" x2="1361.5" y1="88.2422" y2="1955.2969"/><text fill="#000000" font-family="sans-serif" font-size="14" lengthAdjust="spacing" textLength="53" x="40" y="84.7285">Teacher</text><ellipse cx="69.5" cy="18.1211" fill="#E3E3E3" rx="8" ry="8" style="stroke:#181818;stroke-width:0.5;"/><path d="M69.5,26.1211 L69.5,53.1211 M56.5,34.1211 L82.5,34.1211 M69.5,53.1211 L56.5,68.1211 M69.5,53.1211 L82.5,68.1211 " fill="none" style="stroke:#181818;stroke-width:0.5;"/><text fill="#000000" font-family="sans-serif" font-size="14" lengthAdjust="spacing" textLength="53" x="40" y="1969.4043">Teacher</text><ellipse cx="69.5" cy="1981.418" fill="#E3E3E3" rx="8" ry="8" style="stroke:#181818;stroke-width:0.5;"/><path d="M69.5,1989.418 L69.5,2016.418 M56.5,1997.418 L82.5,1997.418 M69.5,2016.418 L56.5,2031.418 M69.5,2016.418 L82.5,2031.418 " fill="none" style="stroke:#181818;stroke-width:0.5;"/><rect fill="#E3E3E3" height="51.2422" rx="2.5" ry="2.5" style="stroke:#181818;stroke-width:0.5;" width="109" x="446" y="36"/><text fill="#000000" font-family="sans-serif" font-size="14" font-style="italic" lengthAdjust="spacing" textLength="95" x="453" y="58.1074">&#171;presentation&#187;</text><text fill="#000000" font-family="sans-serif" font-size="14" lengthAdjust="spacing" textLength="92" x="454.5" y="76.7285">UpdateClassUI</text><rect fill="#E3E3E3" height="51.2422" rx="2.5" ry="2.5" style="stroke:#181818;stroke-width:0.5;" width="109" x="446" y="1954.2969"/><text fill="#000000" font-family="sans-serif" font-size="14" font-style="italic" lengthAdjust="spacing" textLength="95" x="453" y="1976.4043">&#171;presentation&#187;</text><text fill="#000000" font-family="sans-serif" font-size="14" lengthAdjust="spacing" textLength="92" x="454.5" y="1995.0254">UpdateClassUI</text><rect fill="#E3E3E3" height="51.2422" rx="2.5" ry="2.5" style="stroke:#181818;stroke-width:0.5;" width="156" x="611.5" y="36"/><text fill="#000000" font-family="sans-serif" font-size="14" font-style="italic" lengthAdjust="spacing" textLength="84" x="647.5" y="58.1074">&#171;application&#187;</text><text fill="#000000" font-family="sans-serif" font-size="14" lengthAdjust="spacing" textLength="142" x="618.5" y="76.7285">UpdateClassController</text><rect fill="#E3E3E3" height="51.2422" rx="2.5" ry="2.5" style="stroke:#181818;stroke-width:0.5;" width="156" x="611.5" y="1954.2969"/><text fill="#000000" font-family="sans-serif" font-size="14" font-style="italic" lengthAdjust="spacing" textLength="84" x="647.5" y="1976.4043">&#171;application&#187;</text><text fill="#000000" font-family="sans-serif" font-size="14" lengthAdjust="spacing" textLength="142" x="618.5" y="1995.0254">UpdateClassController</text><rect fill="#E3E3E3" height="32.6211" rx="2.5" ry="2.5" style="stroke:#181818;stroke-width:0.5;" width="143" x="777.5" y="54.6211"/><text fill="#000000" font-family="sans-serif" font-size="14" lengthAdjust="spacing" textLength="129" x="784.5" y="76.7285">AuthorizationService</text><rect fill="#E3E3E3" height="32.6211" rx="2.5" ry="2.5" style="stroke:#181818;stroke-width:0.5;" width="143" x="777.5" y="1954.2969"/><text fill="#000000" font-family="sans-serif" font-size="14" lengthAdjust="spacing" textLength="129" x="784.5" y="1976.4043">AuthorizationService</text><rect fill="#E3E3E3" height="32.6211" rx="2.5" ry="2.5" style="stroke:#181818;stroke-width:0.5;" width="93" x="930.5" y="54.6211"/><text fill="#000000" font-family="sans-serif" font-size="14" lengthAdjust="spacing" textLength="79" x="937.5" y="76.7285">UserSession</text><rect fill="#E3E3E3" height="32.6211" rx="2.5" ry="2.5" style="stroke:#181818;stroke-width:0.5;" width="93" x="930.5" y="1954.2969"/><text fill="#000000" font-family="sans-serif" font-size="14" lengthAdjust="spacing" textLength="79" x="937.5" y="1976.4043">UserSession</text><rect fill="#E3E3E3" height="51.2422" rx="2.5" ry="2.5" style="stroke:#181818;stroke-width:0.5;" width="141" x="1033.5" y="36"/><text fill="#000000" font-family="sans-serif" font-size="14" font-style="italic" lengthAdjust="spacing" textLength="60" x="1074" y="58.1074">&#171;service&#187;</text><text fill="#000000" font-family="sans-serif" font-size="14" lengthAdjust="spacing" textLength="127" x="1040.5" y="76.7285">UpdateClassService</text><rect fill="#E3E3E3" height="51.2422" rx="2.5" ry="2.5" style="stroke:#181818;stroke-width:0.5;" width="141" x="1033.5" y="1954.2969"/><text fill="#000000" font-family="sans-serif" font-size="14" font-style="italic" lengthAdjust="spacing" textLength="60" x="1074" y="1976.4043">&#171;service&#187;</text><text fill="#000000" font-family="sans-serif" font-size="14" lengthAdjust="spacing" textLength="127" x="1040.5" y="1995.0254">UpdateClassService</text><text fill="#000000" font-family="sans-serif" font-size="14" font-style="italic" lengthAdjust="spacing" textLength="79" x="1319.5" y="66.1074">&#171;repository&#187;</text><text fill="#000000" font-family="sans-serif" font-size="14" lengthAdjust="spacing" textLength="103" x="1307.5" y="84.7285">ClassRepository</text><path d="M1344,15 C1344,5 1362,5 1362,5 C1362,5 1380,5 1380,15 L1380,41 C1380,51 1362,51 1362,51 C1362,51 1344,51 1344,41 L1344,15 " fill="#E3E3E3" style="stroke:#181818;stroke-width:1.5;"/><path d="M1344,15 C1344,25 1362,25 1362,25 C1362,25 1380,25 1380,15 " fill="none" style="stroke:#181818;stroke-width:1.5;"/><text fill="#000000" font-family="sans-serif" font-size="14" font-style="italic" lengthAdjust="spacing" textLength="79" x="1319.5" y="1969.4043">&#171;repository&#187;</text><text fill="#000000" font-family="sans-serif" font-size="14" lengthAdjust="spacing" textLength="103" x="1307.5" y="1988.0254">ClassRepository</text><path d="M1344,2001.5391 C1344,1991.5391 1362,1991.5391 1362,1991.5391 C1362,1991.5391 1380,1991.5391 1380,2001.5391 L1380,2027.5391 C1380,2037.5391 1362,2037.5391 1362,2037.5391 C1362,2037.5391 1344,2037.5391 1344,2027.5391 L1344,2001.5391 " fill="#E3E3E3" style="stroke:#181818;stroke-width:1.5;"/><path d="M1344,2001.5391 C1344,2011.5391 1362,2011.5391 1362,2011.5391 C1362,2011.5391 1380,2011.5391 1380,2001.5391 " fill="none" style="stroke:#181818;stroke-width:1.5;"/><rect fill="#FFFFFF" height="1848.0547" style="stroke:#181818;stroke-width:1.0;" width="10" x="64.5" y="98.2422"/><rect fill="#FFFFFF" height="573.6563" style="stroke:#181818;stroke-width:1.0;" width="10" x="495.5" y="121.5332"/><rect fill="#FFFFFF" height="373.2012" style="stroke:#181818;stroke-width:1.0;" width="10" x="495.5" y="726.4805"/><rect fill="#FFFFFF" height="309.6191" style="stroke:#181818;stroke-width:1.0;" width="10" x="495.5" y="1130.9727"/><rect fill="#FFFFFF" height="439.123" style="stroke:#181818;stroke-width:1.0;" width="10" x="495.5" y="1498.1738"/><rect fill="#FFFFFF" height="30" style="stroke:#181818;stroke-width:1.0;" width="10" x="684.5" y="215.4063"/><rect fill="#FFFFFF" height="342.9102" style="stroke:#181818;stroke-width:1.0;" width="10" x="684.5" y="276.6973"/><rect fill="#FFFFFF" height="235.0371" style="stroke:#181818;stroke-width:1.0;" width="10" x="684.5" y="757.7715"/><rect fill="#FFFFFF" height="171.4551" style="stroke:#181818;stroke-width:1.0;" width="10" x="684.5" y="1162.2637"/><rect fill="#FFFFFF" height="332.25" style="stroke:#181818;stroke-width:1.0;" width="10" x="684.5" y="1529.4648"/><rect fill="#FFFFFF" height="31.291" style="stroke:#181818;stroke-width:1.0;" width="10" x="844" y="307.9883"/><rect fill="#FFFFFF" height="31.291" style="stroke:#181818;stroke-width:1.0;" width="10" x="972" y="370.5703"/><rect fill="#FFFFFF" height="30" style="stroke:#181818;stroke-width:1.0;" width="10" x="1099" y="433.1523"/><rect fill="#FFFFFF" height="93.873" style="stroke:#181818;stroke-width:1.0;" width="10" x="1099" y="494.4434"/><rect fill="#FFFFFF" height="172.4551" style="stroke:#181818;stroke-width:1.0;" width="10" x="1099" y="789.0625"/><rect fill="#FFFFFF" height="108.873" style="stroke:#181818;stroke-width:1.0;" width="10" x="1099" y="1193.5547"/><rect fill="#FFFFFF" height="269.668" style="stroke:#181818;stroke-width:1.0;" width="10" x="1099" y="1560.7559"/><rect fill="#FFFFFF" height="31.291" style="stroke:#181818;stroke-width:1.0;" width="10" x="1357" y="525.7344"/><rect fill="#FFFFFF" height="75.582" style="stroke:#181818;stroke-width:1.0;" width="10" x="1357" y="1723.5508"/><polygon fill="#181818" points="483.5,117.5332,493.5,121.5332,483.5,125.5332,487.5,121.5332" style="stroke:#181818;stroke-width:1.0;"/><line style="stroke:#181818;stroke-width:1.0;stroke-dasharray:2.0,2.0;" x1="74.5" x2="489.5" y1="121.5332" y2="121.5332"/><text fill="#000000" font-family="sans-serif" font-size="13" lengthAdjust="spacing" textLength="219" x="81.5" y="116.2705">Starts class schedule update process</text><polygon fill="#181818" points="85.5,148.8242,75.5,152.8242,85.5,156.8242,81.5,152.8242" style="stroke:#181818;stroke-width:1.0;"/><line style="stroke:#181818;stroke-width:1.0;stroke-dasharray:2.0,2.0;" x1="79.5" x2="494.5" y1="152.8242" y2="152.8242"/><text fill="#000000" font-family="sans-serif" font-size="13" lengthAdjust="spacing" textLength="135" x="91.5" y="147.5615">Requests for Class title</text><polygon fill="#181818" points="483.5,180.1152,493.5,184.1152,483.5,188.1152,487.5,184.1152" style="stroke:#181818;stroke-width:1.0;"/><line style="stroke:#181818;stroke-width:1.0;stroke-dasharray:2.0,2.0;" x1="74.5" x2="489.5" y1="184.1152" y2="184.1152"/><text fill="#000000" font-family="sans-serif" font-size="13" lengthAdjust="spacing" textLength="111" x="81.5" y="178.8525">Provides Class title</text><polygon fill="#181818" points="672.5,211.4063,682.5,215.4063,672.5,219.4063,676.5,215.4063" style="stroke:#181818;stroke-width:1.0;"/><line style="stroke:#181818;stroke-width:1.0;" x1="505.5" x2="678.5" y1="215.4063" y2="215.4063"/><text fill="#000000" font-family="sans-serif" font-size="13" lengthAdjust="spacing" textLength="36" x="512.5" y="210.1436">create</text><polygon fill="#181818" points="672.5,272.6973,682.5,276.6973,672.5,280.6973,676.5,276.6973" style="stroke:#181818;stroke-width:1.0;"/><line style="stroke:#181818;stroke-width:1.0;" x1="505.5" x2="678.5" y1="276.6973" y2="276.6973"/><text fill="#000000" font-family="sans-serif" font-size="13" lengthAdjust="spacing" textLength="160" x="512.5" y="271.4346">getScheduledClassByTitle()</text><polygon fill="#181818" points="832,303.9883,842,307.9883,832,311.9883,836,307.9883" style="stroke:#181818;stroke-width:1.0;"/><line style="stroke:#181818;stroke-width:1.0;" x1="694.5" x2="838" y1="307.9883" y2="307.9883"/><text fill="#000000" font-family="sans-serif" font-size="13" lengthAdjust="spacing" textLength="53" x="701.5" y="302.7256">session()</text><polygon fill="#181818" points="705.5,335.2793,695.5,339.2793,705.5,343.2793,701.5,339.2793" style="stroke:#181818;stroke-width:1.0;"/><line style="stroke:#181818;stroke-width:1.0;stroke-dasharray:2.0,2.0;" x1="699.5" x2="848" y1="339.2793" y2="339.2793"/><text fill="#000000" font-family="sans-serif" font-size="13" lengthAdjust="spacing" textLength="45" x="711.5" y="334.0166">session</text><polygon fill="#181818" points="960,366.5703,970,370.5703,960,374.5703,964,370.5703" style="stroke:#181818;stroke-width:1.0;"/><line style="stroke:#181818;stroke-width:1.0;" x1="694.5" x2="966" y1="370.5703" y2="370.5703"/><text fill="#000000" font-family="sans-serif" font-size="13" lengthAdjust="spacing" textLength="113" x="701.5" y="365.3076">authenticatedUser()</text><polygon fill="#181818" points="705.5,397.8613,695.5,401.8613,705.5,405.8613,701.5,401.8613" style="stroke:#181818;stroke-width:1.0;"/><line style="stroke:#181818;stroke-width:1.0;stroke-dasharray:2.0,2.0;" x1="699.5" x2="976" y1="401.8613" y2="401.8613"/><text fill="#000000" font-family="sans-serif" font-size="13" lengthAdjust="spacing" textLength="25" x="711.5" y="396.5986">user</text><polygon fill="#181818" points="1087,429.1523,1097,433.1523,1087,437.1523,1091,433.1523" style="stroke:#181818;stroke-width:1.0;"/><line style="stroke:#181818;stroke-width:1.0;" x1="694.5" x2="1093" y1="433.1523" y2="433.1523"/><text fill="#000000" font-family="sans-serif" font-size="13" lengthAdjust="spacing" textLength="36" x="701.5" y="427.8896">create</text><polygon fill="#181818" points="1087,490.4434,1097,494.4434,1087,498.4434,1091,494.4434" style="stroke:#181818;stroke-width:1.0;"/><line style="stroke:#181818;stroke-width:1.0;" x1="694.5" x2="1093" y1="494.4434" y2="494.4434"/><text fill="#000000" font-family="sans-serif" font-size="13" lengthAdjust="spacing" textLength="156" x="701.5" y="489.1807">getScheduledClassByTitle(</text><polygon fill="#181818" points="1345,521.7344,1355,525.7344,1345,529.7344,1349,525.7344" style="stroke:#181818;stroke-width:1.0;"/><line style="stroke:#181818;stroke-width:1.0;" x1="1109" x2="1351" y1="525.7344" y2="525.7344"/><text fill="#000000" font-family="sans-serif" font-size="13" lengthAdjust="spacing" textLength="160" x="1116" y="520.4717">getScheduledClassByTitle()</text><polygon fill="#181818" points="1120,553.0254,1110,557.0254,1120,561.0254,1116,557.0254" style="stroke:#181818;stroke-width:1.0;"/><line style="stroke:#181818;stroke-width:1.0;stroke-dasharray:2.0,2.0;" x1="1114" x2="1361" y1="557.0254" y2="557.0254"/><text fill="#000000" font-family="sans-serif" font-size="13" lengthAdjust="spacing" textLength="33" x="1126" y="551.7627">Class</text><polygon fill="#181818" points="705.5,584.3164,695.5,588.3164,705.5,592.3164,701.5,588.3164" style="stroke:#181818;stroke-width:1.0;"/><line style="stroke:#181818;stroke-width:1.0;stroke-dasharray:2.0,2.0;" x1="699.5" x2="1103" y1="588.3164" y2="588.3164"/><text fill="#000000" font-family="sans-serif" font-size="13" lengthAdjust="spacing" textLength="33" x="711.5" y="583.0537">Class</text><polygon fill="#181818" points="516.5,615.6074,506.5,619.6074,516.5,623.6074,512.5,619.6074" style="stroke:#181818;stroke-width:1.0;"/><line style="stroke:#181818;stroke-width:1.0;" x1="510.5" x2="688.5" y1="619.6074" y2="619.6074"/><text fill="#000000" font-family="sans-serif" font-size="13" lengthAdjust="spacing" textLength="33" x="522.5" y="614.3447">Class</text><line style="stroke:#181818;stroke-width:1.0;" x1="505.5" x2="547.5" y1="650.8984" y2="650.8984"/><line style="stroke:#181818;stroke-width:1.0;" x1="547.5" x2="547.5" y1="650.8984" y2="663.8984"/><line style="stroke:#181818;stroke-width:1.0;" x1="506.5" x2="547.5" y1="663.8984" y2="663.8984"/><polygon fill="#181818" points="516.5,659.8984,506.5,663.8984,516.5,667.8984,512.5,663.8984" style="stroke:#181818;stroke-width:1.0;"/><text fill="#000000" font-family="sans-serif" font-size="13" lengthAdjust="spacing" textLength="49" x="512.5" y="645.6357">display()</text><polygon fill="#181818" points="85.5,691.1895,75.5,695.1895,85.5,699.1895,81.5,695.1895" style="stroke:#181818;stroke-width:1.0;"/><line style="stroke:#181818;stroke-width:1.0;stroke-dasharray:2.0,2.0;" x1="79.5" x2="499.5" y1="695.1895" y2="695.1895"/><text fill="#000000" font-family="sans-serif" font-size="13" lengthAdjust="spacing" textLength="277" x="91.5" y="689.9268">Shows Class and requests changes to be made</text><polygon fill="#181818" points="483.5,722.4805,493.5,726.4805,483.5,730.4805,487.5,726.4805" style="stroke:#181818;stroke-width:1.0;"/><line style="stroke:#181818;stroke-width:1.0;" x1="74.5" x2="489.5" y1="726.4805" y2="726.4805"/><text fill="#000000" font-family="sans-serif" font-size="13" lengthAdjust="spacing" textLength="183" x="81.5" y="721.2178">Inserts changes (date, duration)</text><polygon fill="#181818" points="672.5,753.7715,682.5,757.7715,672.5,761.7715,676.5,757.7715" style="stroke:#181818;stroke-width:1.0;"/><line style="stroke:#181818;stroke-width:1.0;" x1="505.5" x2="678.5" y1="757.7715" y2="757.7715"/><text fill="#000000" font-family="sans-serif" font-size="13" lengthAdjust="spacing" textLength="127" x="512.5" y="752.5088">updateExistingClass()</text><polygon fill="#181818" points="1087,785.0625,1097,789.0625,1087,793.0625,1091,789.0625" style="stroke:#181818;stroke-width:1.0;"/><line style="stroke:#181818;stroke-width:1.0;" x1="694.5" x2="1093" y1="789.0625" y2="789.0625"/><text fill="#000000" font-family="sans-serif" font-size="13" lengthAdjust="spacing" textLength="127" x="701.5" y="783.7998">updateExistingClass()</text><path d="M10,804.0625 L83,804.0625 L83,813.3535 L73,823.3535 L10,823.3535 L10,804.0625 " fill="#EEEEEE" style="stroke:#000000;stroke-width:1.5;"/><rect fill="none" height="889.1973" style="stroke:#000000;stroke-width:1.5;" width="1352" x="10" y="804.0625"/><text fill="#000000" font-family="sans-serif" font-size="13" font-weight="bold" lengthAdjust="spacing" textLength="28" x="25" y="819.0908">loop</text><text fill="#000000" font-family="sans-serif" font-size="11" font-weight="bold" lengthAdjust="spacing" textLength="350" x="98" y="817.9326">[loop through the verification process for each class data input]</text><line style="stroke:#181818;stroke-width:1.0;" x1="1109" x2="1151" y1="846.6445" y2="846.6445"/><line style="stroke:#181818;stroke-width:1.0;" x1="1151" x2="1151" y1="846.6445" y2="859.6445"/><line style="stroke:#181818;stroke-width:1.0;" x1="1110" x2="1151" y1="859.6445" y2="859.6445"/><polygon fill="#181818" points="1120,855.6445,1110,859.6445,1120,863.6445,1116,859.6445" style="stroke:#181818;stroke-width:1.0;"/><text fill="#000000" font-family="sans-serif" font-size="13" lengthAdjust="spacing" textLength="234" x="1116" y="841.3818">checkCoincidentialClasses(List&lt;Class&gt;)</text><line style="stroke:#181818;stroke-width:1.0;" x1="1109" x2="1151" y1="890.9355" y2="890.9355"/><line style="stroke:#181818;stroke-width:1.0;" x1="1151" x2="1151" y1="890.9355" y2="903.9355"/><line style="stroke:#181818;stroke-width:1.0;" x1="1110" x2="1151" y1="903.9355" y2="903.9355"/><polygon fill="#181818" points="1120,899.9355,1110,903.9355,1120,907.9355,1116,903.9355" style="stroke:#181818;stroke-width:1.0;"/><text fill="#000000" font-family="sans-serif" font-size="13" lengthAdjust="spacing" textLength="196" x="1116" y="885.6729">checkTeacherAvailability(Teacher)</text><path d="M30,918.9355 L91,918.9355 L91,928.2266 L81,938.2266 L30,938.2266 L30,918.9355 " fill="#EEEEEE" style="stroke:#000000;stroke-width:1.5;"/><rect fill="none" height="282.6191" style="stroke:#000000;stroke-width:1.5;" width="1154.5" x="30" y="918.9355"/><text fill="#000000" font-family="sans-serif" font-size="13" font-weight="bold" lengthAdjust="spacing" textLength="16" x="45" y="933.9639">alt</text><text fill="#000000" font-family="sans-serif" font-size="11" font-weight="bold" lengthAdjust="spacing" textLength="133" x="106" y="932.8057">[if coincidential classes]</text><polygon fill="#181818" points="705.5,957.5176,695.5,961.5176,705.5,965.5176,701.5,961.5176" style="stroke:#181818;stroke-width:1.0;"/><line style="stroke:#181818;stroke-width:1.0;stroke-dasharray:2.0,2.0;" x1="699.5" x2="1103" y1="961.5176" y2="961.5176"/><text fill="#000000" font-family="sans-serif" font-size="13" lengthAdjust="spacing" textLength="141" x="711.5" y="956.2549">errorCoincidentialClass()</text><polygon fill="#181818" points="516.5,988.8086,506.5,992.8086,516.5,996.8086,512.5,992.8086" style="stroke:#181818;stroke-width:1.0;"/><line style="stroke:#181818;stroke-width:1.0;stroke-dasharray:2.0,2.0;" x1="510.5" x2="688.5" y1="992.8086" y2="992.8086"/><text fill="#000000" font-family="sans-serif" font-size="13" lengthAdjust="spacing" textLength="141" x="522.5" y="987.5459">errorCoincidentialClass()</text><line style="stroke:#181818;stroke-width:1.0;" x1="505.5" x2="547.5" y1="1024.0996" y2="1024.0996"/><line style="stroke:#181818;stroke-width:1.0;" x1="547.5" x2="547.5" y1="1024.0996" y2="1037.0996"/><line style="stroke:#181818;stroke-width:1.0;" x1="506.5" x2="547.5" y1="1037.0996" y2="1037.0996"/><polygon fill="#181818" points="516.5,1033.0996,506.5,1037.0996,516.5,1041.0996,512.5,1037.0996" style="stroke:#181818;stroke-width:1.0;"/><text fill="#000000" font-family="sans-serif" font-size="13" lengthAdjust="spacing" textLength="49" x="512.5" y="1018.8369">display()</text><polygon fill="#181818" points="85.5,1064.3906,75.5,1068.3906,85.5,1072.3906,81.5,1068.3906" style="stroke:#181818;stroke-width:1.0;"/><line style="stroke:#181818;stroke-width:1.0;stroke-dasharray:2.0,2.0;" x1="79.5" x2="494.5" y1="1068.3906" y2="1068.3906"/><text fill="#000000" font-family="sans-serif" font-size="13" lengthAdjust="spacing" textLength="252" x="91.5" y="1063.1279">Show error message (coincidential classes)</text><polygon fill="#181818" points="85.5,1095.6816,75.5,1099.6816,85.5,1103.6816,81.5,1099.6816" style="stroke:#181818;stroke-width:1.0;"/><line style="stroke:#181818;stroke-width:1.0;stroke-dasharray:2.0,2.0;" x1="79.5" x2="499.5" y1="1099.6816" y2="1099.6816"/><text fill="#000000" font-family="sans-serif" font-size="13" lengthAdjust="spacing" textLength="230" x="91.5" y="1094.4189">Request new class data (date, duration)</text><polygon fill="#181818" points="483.5,1126.9727,493.5,1130.9727,483.5,1134.9727,487.5,1130.9727" style="stroke:#181818;stroke-width:1.0;"/><line style="stroke:#181818;stroke-width:1.0;stroke-dasharray:2.0,2.0;" x1="74.5" x2="489.5" y1="1130.9727" y2="1130.9727"/><text fill="#000000" font-family="sans-serif" font-size="13" lengthAdjust="spacing" textLength="115" x="81.5" y="1125.71">Provides Class data</text><polygon fill="#181818" points="672.5,1158.2637,682.5,1162.2637,672.5,1166.2637,676.5,1162.2637" style="stroke:#181818;stroke-width:1.0;"/><line style="stroke:#181818;stroke-width:1.0;" x1="505.5" x2="678.5" y1="1162.2637" y2="1162.2637"/><text fill="#000000" font-family="sans-serif" font-size="13" lengthAdjust="spacing" textLength="127" x="512.5" y="1157.001">updateExistingClass()</text><polygon fill="#181818" points="1087,1189.5547,1097,1193.5547,1087,1197.5547,1091,1193.5547" style="stroke:#181818;stroke-width:1.0;"/><line style="stroke:#181818;stroke-width:1.0;" x1="694.5" x2="1093" y1="1193.5547" y2="1193.5547"/><text fill="#000000" font-family="sans-serif" font-size="13" lengthAdjust="spacing" textLength="127" x="701.5" y="1188.292">updateExistingClass()</text><line style="stroke:#181818;stroke-width:1.0;" x1="1109" x2="1151" y1="1231.8457" y2="1231.8457"/><line style="stroke:#181818;stroke-width:1.0;" x1="1151" x2="1151" y1="1231.8457" y2="1244.8457"/><line style="stroke:#181818;stroke-width:1.0;" x1="1110" x2="1151" y1="1244.8457" y2="1244.8457"/><polygon fill="#181818" points="1120,1240.8457,1110,1244.8457,1120,1248.8457,1116,1244.8457" style="stroke:#181818;stroke-width:1.0;"/><text fill="#000000" font-family="sans-serif" font-size="13" lengthAdjust="spacing" textLength="227" x="1116" y="1226.583">checkOverlappingClasses(List&lt;Class&gt;)</text><path d="M20,1259.8457 L81,1259.8457 L81,1269.1367 L71,1279.1367 L20,1279.1367 L20,1259.8457 " fill="#EEEEEE" style="stroke:#000000;stroke-width:1.5;"/><rect fill="none" height="426.4141" style="stroke:#000000;stroke-width:1.5;" width="1174.5" x="20" y="1259.8457"/><text fill="#000000" font-family="sans-serif" font-size="13" font-weight="bold" lengthAdjust="spacing" textLength="16" x="35" y="1274.874">alt</text><text fill="#000000" font-family="sans-serif" font-size="11" font-weight="bold" lengthAdjust="spacing" textLength="213" x="96" y="1273.7158">[if participant has overlapping classes]</text><polygon fill="#181818" points="705.5,1298.4277,695.5,1302.4277,705.5,1306.4277,701.5,1302.4277" style="stroke:#181818;stroke-width:1.0;"/><line style="stroke:#181818;stroke-width:1.0;stroke-dasharray:2.0,2.0;" x1="699.5" x2="1103" y1="1302.4277" y2="1302.4277"/><text fill="#000000" font-family="sans-serif" font-size="13" lengthAdjust="spacing" textLength="135" x="711.5" y="1297.165">warnOverlappingClass()</text><polygon fill="#181818" points="516.5,1329.7188,506.5,1333.7188,516.5,1337.7188,512.5,1333.7188" style="stroke:#181818;stroke-width:1.0;"/><line style="stroke:#181818;stroke-width:1.0;stroke-dasharray:2.0,2.0;" x1="510.5" x2="688.5" y1="1333.7188" y2="1333.7188"/><text fill="#000000" font-family="sans-serif" font-size="13" lengthAdjust="spacing" textLength="135" x="522.5" y="1328.4561">warnOverlappingClass()</text><line style="stroke:#181818;stroke-width:1.0;" x1="505.5" x2="547.5" y1="1365.0098" y2="1365.0098"/><line style="stroke:#181818;stroke-width:1.0;" x1="547.5" x2="547.5" y1="1365.0098" y2="1378.0098"/><line style="stroke:#181818;stroke-width:1.0;" x1="506.5" x2="547.5" y1="1378.0098" y2="1378.0098"/><polygon fill="#181818" points="516.5,1374.0098,506.5,1378.0098,516.5,1382.0098,512.5,1378.0098" style="stroke:#181818;stroke-width:1.0;"/><text fill="#000000" font-family="sans-serif" font-size="13" lengthAdjust="spacing" textLength="49" x="512.5" y="1359.7471">display()</text><polygon fill="#181818" points="85.5,1405.3008,75.5,1409.3008,85.5,1413.3008,81.5,1409.3008" style="stroke:#181818;stroke-width:1.0;"/><line style="stroke:#181818;stroke-width:1.0;stroke-dasharray:2.0,2.0;" x1="79.5" x2="494.5" y1="1409.3008" y2="1409.3008"/><text fill="#000000" font-family="sans-serif" font-size="13" lengthAdjust="spacing" textLength="262" x="91.5" y="1404.0381">Show warning message (overlapping classes)</text><polygon fill="#181818" points="85.5,1436.5918,75.5,1440.5918,85.5,1444.5918,81.5,1440.5918" style="stroke:#181818;stroke-width:1.0;"/><line style="stroke:#181818;stroke-width:1.0;stroke-dasharray:2.0,2.0;" x1="79.5" x2="499.5" y1="1440.5918" y2="1440.5918"/><text fill="#000000" font-family="sans-serif" font-size="13" lengthAdjust="spacing" textLength="397" x="91.5" y="1435.3291">Ask for confirmation to schedule class or input new class information</text><path d="M30,1455.5918 L91,1455.5918 L91,1464.8828 L81,1474.8828 L30,1474.8828 L30,1455.5918 " fill="#EEEEEE" style="stroke:#000000;stroke-width:1.5;"/><rect fill="none" height="223.668" style="stroke:#000000;stroke-width:1.5;" width="1154.5" x="30" y="1455.5918"/><text fill="#000000" font-family="sans-serif" font-size="13" font-weight="bold" lengthAdjust="spacing" textLength="16" x="45" y="1470.6201">alt</text><text fill="#000000" font-family="sans-serif" font-size="11" font-weight="bold" lengthAdjust="spacing" textLength="154" x="106" y="1469.4619">[if teacher ignores warning]</text><polygon fill="#181818" points="483.5,1494.1738,493.5,1498.1738,483.5,1502.1738,487.5,1498.1738" style="stroke:#181818;stroke-width:1.0;"/><line style="stroke:#181818;stroke-width:1.0;stroke-dasharray:2.0,2.0;" x1="74.5" x2="489.5" y1="1498.1738" y2="1498.1738"/><text fill="#000000" font-family="sans-serif" font-size="13" lengthAdjust="spacing" textLength="90" x="81.5" y="1492.9111">Ignores warning</text><polygon fill="#181818" points="672.5,1525.4648,682.5,1529.4648,672.5,1533.4648,676.5,1529.4648" style="stroke:#181818;stroke-width:1.0;"/><line style="stroke:#181818;stroke-width:1.0;" x1="505.5" x2="678.5" y1="1529.4648" y2="1529.4648"/><text fill="#000000" font-family="sans-serif" font-size="13" lengthAdjust="spacing" textLength="127" x="512.5" y="1524.2021">updateExistingClass()</text><polygon fill="#181818" points="1087,1556.7559,1097,1560.7559,1087,1564.7559,1091,1560.7559" style="stroke:#181818;stroke-width:1.0;"/><line style="stroke:#181818;stroke-width:1.0;" x1="694.5" x2="1093" y1="1560.7559" y2="1560.7559"/><text fill="#000000" font-family="sans-serif" font-size="13" lengthAdjust="spacing" textLength="127" x="701.5" y="1555.4932">updateExistingClass()</text><line style="stroke:#000000;stroke-width:1.0;stroke-dasharray:2.0,2.0;" x1="30" x2="1184.5" y1="1569.7559" y2="1569.7559"/><text fill="#000000" font-family="sans-serif" font-size="11" font-weight="bold" lengthAdjust="spacing" textLength="224" x="35" y="1581.626">[if teacher inputs new class information]</text><polygon fill="#181818" points="483.5,1604.6777,493.5,1608.6777,483.5,1612.6777,487.5,1608.6777" style="stroke:#181818;stroke-width:1.0;"/><line style="stroke:#181818;stroke-width:1.0;stroke-dasharray:2.0,2.0;" x1="74.5" x2="489.5" y1="1608.6777" y2="1608.6777"/><text fill="#000000" font-family="sans-serif" font-size="13" lengthAdjust="spacing" textLength="164" x="81.5" y="1603.415">Inputs new class information</text><polygon fill="#181818" points="672.5,1635.9688,682.5,1639.9688,672.5,1643.9688,676.5,1639.9688" style="stroke:#181818;stroke-width:1.0;"/><line style="stroke:#181818;stroke-width:1.0;" x1="505.5" x2="678.5" y1="1639.9688" y2="1639.9688"/><text fill="#000000" font-family="sans-serif" font-size="13" lengthAdjust="spacing" textLength="127" x="512.5" y="1634.7061">updateExistingClass()</text><polygon fill="#181818" points="1087,1667.2598,1097,1671.2598,1087,1675.2598,1091,1671.2598" style="stroke:#181818;stroke-width:1.0;"/><line style="stroke:#181818;stroke-width:1.0;" x1="694.5" x2="1093" y1="1671.2598" y2="1671.2598"/><text fill="#000000" font-family="sans-serif" font-size="13" lengthAdjust="spacing" textLength="127" x="701.5" y="1665.9971">updateExistingClass()</text><polygon fill="#181818" points="1345,1719.5508,1355,1723.5508,1345,1727.5508,1349,1723.5508" style="stroke:#181818;stroke-width:1.0;"/><line style="stroke:#181818;stroke-width:1.0;" x1="1109" x2="1351" y1="1723.5508" y2="1723.5508"/><text fill="#000000" font-family="sans-serif" font-size="13" lengthAdjust="spacing" textLength="33" x="1116" y="1718.2881">Class</text><line style="stroke:#181818;stroke-width:1.0;" x1="1367" x2="1409" y1="1754.8418" y2="1754.8418"/><line style="stroke:#181818;stroke-width:1.0;" x1="1409" x2="1409" y1="1754.8418" y2="1767.8418"/><line style="stroke:#181818;stroke-width:1.0;" x1="1368" x2="1409" y1="1767.8418" y2="1767.8418"/><polygon fill="#181818" points="1378,1763.8418,1368,1767.8418,1378,1771.8418,1374,1767.8418" style="stroke:#181818;stroke-width:1.0;"/><text fill="#000000" font-family="sans-serif" font-size="13" lengthAdjust="spacing" textLength="67" x="1374" y="1749.5791">save(Class)</text><polygon fill="#181818" points="1120,1795.1328,1110,1799.1328,1120,1803.1328,1116,1799.1328" style="stroke:#181818;stroke-width:1.0;"/><line style="stroke:#181818;stroke-width:1.0;stroke-dasharray:2.0,2.0;" x1="1114" x2="1361" y1="1799.1328" y2="1799.1328"/><text fill="#000000" font-family="sans-serif" font-size="13" lengthAdjust="spacing" textLength="29" x="1126" y="1793.8701">state</text><polygon fill="#181818" points="705.5,1826.4238,695.5,1830.4238,705.5,1834.4238,701.5,1830.4238" style="stroke:#181818;stroke-width:1.0;"/><line style="stroke:#181818;stroke-width:1.0;stroke-dasharray:2.0,2.0;" x1="699.5" x2="1103" y1="1830.4238" y2="1830.4238"/><text fill="#000000" font-family="sans-serif" font-size="13" lengthAdjust="spacing" textLength="29" x="711.5" y="1825.1611">state</text><polygon fill="#181818" points="516.5,1857.7148,506.5,1861.7148,516.5,1865.7148,512.5,1861.7148" style="stroke:#181818;stroke-width:1.0;"/><line style="stroke:#181818;stroke-width:1.0;stroke-dasharray:2.0,2.0;" x1="510.5" x2="688.5" y1="1861.7148" y2="1861.7148"/><text fill="#000000" font-family="sans-serif" font-size="13" lengthAdjust="spacing" textLength="29" x="522.5" y="1856.4521">state</text><line style="stroke:#181818;stroke-width:1.0;" x1="505.5" x2="547.5" y1="1893.0059" y2="1893.0059"/><line style="stroke:#181818;stroke-width:1.0;" x1="547.5" x2="547.5" y1="1893.0059" y2="1906.0059"/><line style="stroke:#181818;stroke-width:1.0;" x1="506.5" x2="547.5" y1="1906.0059" y2="1906.0059"/><polygon fill="#181818" points="516.5,1902.0059,506.5,1906.0059,516.5,1910.0059,512.5,1906.0059" style="stroke:#181818;stroke-width:1.0;"/><text fill="#000000" font-family="sans-serif" font-size="13" lengthAdjust="spacing" textLength="49" x="512.5" y="1887.7432">display()</text><polygon fill="#181818" points="85.5,1933.2969,75.5,1937.2969,85.5,1941.2969,81.5,1937.2969" style="stroke:#181818;stroke-width:1.0;"/><line style="stroke:#181818;stroke-width:1.0;stroke-dasharray:2.0,2.0;" x1="79.5" x2="499.5" y1="1937.2969" y2="1937.2969"/><text fill="#000000" font-family="sans-serif" font-size="13" lengthAdjust="spacing" textLength="267" x="91.5" y="1932.0342">Shows state of execution (Success or Failure)</text><!--SRC=[pLRVRzem47xtNs7rfI2DzHrLI0nr6jAcJKtPmzvSvo0MmSviXvRzzJixXZY_2dGlgmGboNtVdU- -kyjjPcrXfdTtHSwaBNVvHwvsTmP-bo0vJ5B1DfhjYDaAMJ3yHNTAAfvfjGDgTGdHauBnBTj0OWyvK0tS4a8OjqhJ9s0y0qsPeNDtWn14MC55WJxfpQf8cOL5penPBM-SrMf9x-yB3GQaPLOeEPiDGXPAMgto7BI7rfT8mOeY5xoNOLxQJ6dnnpzCGEy51qymNprz-TNoPa0dO0nQLk4boM0uCLNoyFXpkNZ0G4nr5uEuRG2_COafgo8Flmb1BlRC3D0Rp_W8XJ82qtRmPlKbykhJ1LAxR8iz1XAoxB_fP39p-PpInA9dGxdZf0OBafPOgDA7JWkjE9wmfbWj2K6OGtkUAJf6KHXaM2EhZunQONDe-9dI7rhjHGgcOUAfPb5nffHhG3-rm_ePIQ7lRW_71cmI3f9wTvyEJyxVQDpBIo9nk7EvIa-fgIeROoeD-6z_hjXdC8-3hCnRx2YIAMMeCjImqo2aJaQn5oSZ_7GybAQP0sVN8W_AwcOnF8ZXnri338Cvx9AIew0HNylmiZBKzYHIy2IEn4FZo2FCoNChLntCATPMDPOzjf4qAcqvgrGOd8K7ZBqf_oHJBqTHCvdYX0ljm3CcDwXtg-Wpq1rBeL4yxAFG81N_Kc9v8zZ8zTy7cfRQZw9nemMxag_wzU5L62laneSpeFQ1UfyXEEMFv4eLr7zPdFVb9iF_GFUWnJhCrEFKy1F1pVWmNDm0exWMIXihfjPi1doxK49od1FO72ptKO0PVSMWxlt5R3mC3UjalcSYPyyY5_Om2lVm8BcbOarvJ5-51OOCoWYqLheR4YRcJ2E5ebw4lrfk5ItTOOfnCz1Hxw76_MEQIdY9oz6HMHtOsmFSePr5SosyLvJ_g4gGAHaMndSKPuux_yZGLbJGHho1CzoegeQTb38ab1UcPTlDnIev3xvU8exJ1NuIISzfsi2vsVgMvKgkXTvLlOpZw_HIKEa6BNmJHr8I4d4Le3taGd9jUDSJ6wdm1UuONqjZo-xJ_s7cGOvlNV4XtF7DmFbR9thBzD8ZNHM-wuNZn_yDRETgxPrRn4sCONiOUU1uS5qRwsR7TUkwW-bTro6b7UDtx6lFGTMQmYlmqWjzb9JSRositcTS8QM6SKlCVm40]--></g></svg>