<?xml version="1.0" encoding="us-ascii" standalone="no"?><svg xmlns="http://www.w3.org/2000/svg" xmlns:xlink="http://www.w3.org/1999/xlink" contentStyleType="text/css" height="1473px" preserveAspectRatio="none" style="width:1828px;height:1473px;background:#FFFFFF;" version="1.1" viewBox="0 0 1828 1473" width="1828px" zoomAndPan="magnify"><defs/><g><text fill="#000000" font-family="sans-serif" font-size="14" font-weight="bold" lengthAdjust="spacing" textLength="185" x="823.25" y="30.1074">SD - List courses available</text><rect fill="#FFFFFF" height="859.8965" style="stroke:#181818;stroke-width:1.0;" width="10" x="294.5" y="161.1543"/><rect fill="#FFFFFF" height="304.0762" style="stroke:#181818;stroke-width:1.0;" width="10" x="294.5" y="1052.3418"/><rect fill="#FFFFFF" height="419.8223" style="stroke:#181818;stroke-width:1.0;" width="10" x="623.5" y="569.9375"/><rect fill="#FFFFFF" height="258.7852" style="stroke:#181818;stroke-width:1.0;" width="10" x="623.5" y="1083.6328"/><rect fill="#FFFFFF" height="31.291" style="stroke:#181818;stroke-width:1.0;" width="10" x="801.5" y="601.2285"/><rect fill="#FFFFFF" height="125.873" style="stroke:#181818;stroke-width:1.0;" width="10" x="1085.5" y="726.3926"/><rect fill="#FFFFFF" height="74.9121" style="stroke:#181818;stroke-width:1.0;" width="10" x="1085.5" y="883.5566"/><rect fill="#FFFFFF" height="213.4941" style="stroke:#181818;stroke-width:1.0;" width="10" x="1085.5" y="1114.9238"/><rect fill="#FFFFFF" height="31.291" style="stroke:#181818;stroke-width:1.0;" width="10" x="1333" y="663.8105"/><rect fill="#FFFFFF" height="30" style="stroke:#181818;stroke-width:1.0;" width="10" x="1333" y="783.9746"/><rect fill="#FFFFFF" height="30" style="stroke:#181818;stroke-width:1.0;" width="10" x="1483.5" y="1146.2148"/><rect fill="#FFFFFF" height="30" style="stroke:#181818;stroke-width:1.0;" width="10" x="1753" y="1277.418"/><rect fill="none" height="81.873" style="stroke:#000000;stroke-width:1.5;" width="367" x="10" y="363.9004"/><rect fill="none" height="80.582" style="stroke:#000000;stroke-width:1.5;" width="431" x="995.5" y="741.3926"/><rect fill="none" height="124.2031" style="stroke:#000000;stroke-width:1.5;" width="827" x="995.5" y="1191.2148"/><line style="stroke:#181818;stroke-width:0.5;stroke-dasharray:5.0,5.0;" x1="87" x2="87" y1="127.8633" y2="1374.418"/><line style="stroke:#181818;stroke-width:0.5;stroke-dasharray:5.0,5.0;" x1="299" x2="299" y1="127.8633" y2="1374.418"/><line style="stroke:#181818;stroke-width:0.5;stroke-dasharray:5.0,5.0;" x1="628" x2="628" y1="127.8633" y2="1374.418"/><line style="stroke:#181818;stroke-width:0.5;stroke-dasharray:5.0,5.0;" x1="806" x2="806" y1="127.8633" y2="1374.418"/><line style="stroke:#181818;stroke-width:0.5;stroke-dasharray:5.0,5.0;" x1="1090.5" x2="1090.5" y1="127.8633" y2="1374.418"/><line style="stroke:#181818;stroke-width:0.5;stroke-dasharray:5.0,5.0;" x1="1217.5" x2="1217.5" y1="923.3672" y2="1374.418"/><line style="stroke:#181818;stroke-width:0.5;stroke-dasharray:5.0,5.0;" x1="1337.5" x2="1337.5" y1="127.8633" y2="1374.418"/><line style="stroke:#181818;stroke-width:0.5;stroke-dasharray:5.0,5.0;" x1="1488.5" x2="1488.5" y1="127.8633" y2="1374.418"/><line style="stroke:#181818;stroke-width:0.5;stroke-dasharray:5.0,5.0;" x1="1626.5" x2="1626.5" y1="1242.3164" y2="1374.418"/><line style="stroke:#181818;stroke-width:0.5;stroke-dasharray:5.0,5.0;" x1="1757.5" x2="1757.5" y1="127.8633" y2="1374.418"/><text fill="#000000" font-family="sans-serif" font-size="14" lengthAdjust="spacing" textLength="129" x="20" y="124.3496">eCourseSystemUser</text><ellipse cx="87.5" cy="57.7422" fill="#E3E3E3" rx="8" ry="8" style="stroke:#181818;stroke-width:0.5;"/><path d="M87.5,65.7422 L87.5,92.7422 M74.5,73.7422 L100.5,73.7422 M87.5,92.7422 L74.5,107.7422 M87.5,92.7422 L100.5,107.7422 " fill="none" style="stroke:#181818;stroke-width:0.5;"/><text fill="#000000" font-family="sans-serif" font-size="14" lengthAdjust="spacing" textLength="129" x="20" y="1388.5254">eCourseSystemUser</text><ellipse cx="87.5" cy="1400.5391" fill="#E3E3E3" rx="8" ry="8" style="stroke:#181818;stroke-width:0.5;"/><path d="M87.5,1408.5391 L87.5,1435.5391 M74.5,1416.5391 L100.5,1416.5391 M87.5,1435.5391 L74.5,1450.5391 M87.5,1435.5391 L100.5,1450.5391 " fill="none" style="stroke:#181818;stroke-width:0.5;"/><rect fill="#E3E3E3" height="51.2422" rx="2.5" ry="2.5" style="stroke:#181818;stroke-width:0.5;" width="135" x="232" y="75.6211"/><text fill="#000000" font-family="sans-serif" font-size="14" font-style="italic" lengthAdjust="spacing" textLength="95" x="252" y="97.7285">&#171;presentation&#187;</text><text fill="#000000" font-family="sans-serif" font-size="14" lengthAdjust="spacing" textLength="121" x="239" y="116.3496">ScheduleMeetingUI</text><rect fill="#E3E3E3" height="51.2422" rx="2.5" ry="2.5" style="stroke:#181818;stroke-width:0.5;" width="135" x="232" y="1373.418"/><text fill="#000000" font-family="sans-serif" font-size="14" font-style="italic" lengthAdjust="spacing" textLength="95" x="252" y="1395.5254">&#171;presentation&#187;</text><text fill="#000000" font-family="sans-serif" font-size="14" lengthAdjust="spacing" textLength="121" x="239" y="1414.1465">ScheduleMeetingUI</text><rect fill="#E3E3E3" height="51.2422" rx="2.5" ry="2.5" style="stroke:#181818;stroke-width:0.5;" width="185" x="536" y="75.6211"/><text fill="#000000" font-family="sans-serif" font-size="14" font-style="italic" lengthAdjust="spacing" textLength="84" x="586.5" y="97.7285">&#171;application&#187;</text><text fill="#000000" font-family="sans-serif" font-size="14" lengthAdjust="spacing" textLength="171" x="543" y="116.3496">ScheduleMeetingController</text><rect fill="#E3E3E3" height="51.2422" rx="2.5" ry="2.5" style="stroke:#181818;stroke-width:0.5;" width="185" x="536" y="1373.418"/><text fill="#000000" font-family="sans-serif" font-size="14" font-style="italic" lengthAdjust="spacing" textLength="84" x="586.5" y="1395.5254">&#171;application&#187;</text><text fill="#000000" font-family="sans-serif" font-size="14" lengthAdjust="spacing" textLength="171" x="543" y="1414.1465">ScheduleMeetingController</text><rect fill="#E3E3E3" height="51.2422" rx="2.5" ry="2.5" style="stroke:#181818;stroke-width:0.5;" width="151" x="731" y="75.6211"/><text fill="#000000" font-family="sans-serif" font-size="14" font-style="italic" lengthAdjust="spacing" textLength="60" x="776.5" y="97.7285">&#171;service&#187;</text><text fill="#000000" font-family="sans-serif" font-size="14" lengthAdjust="spacing" textLength="137" x="738" y="116.3496">AuthenticationService</text><rect fill="#E3E3E3" height="51.2422" rx="2.5" ry="2.5" style="stroke:#181818;stroke-width:0.5;" width="151" x="731" y="1373.418"/><text fill="#000000" font-family="sans-serif" font-size="14" font-style="italic" lengthAdjust="spacing" textLength="60" x="776.5" y="1395.5254">&#171;service&#187;</text><text fill="#000000" font-family="sans-serif" font-size="14" lengthAdjust="spacing" textLength="137" x="738" y="1414.1465">AuthenticationService</text><rect fill="#E3E3E3" height="51.2422" rx="2.5" ry="2.5" style="stroke:#181818;stroke-width:0.5;" width="170" x="1005.5" y="75.6211"/><text fill="#000000" font-family="sans-serif" font-size="14" font-style="italic" lengthAdjust="spacing" textLength="60" x="1060.5" y="97.7285">&#171;service&#187;</text><text fill="#000000" font-family="sans-serif" font-size="14" lengthAdjust="spacing" textLength="156" x="1012.5" y="116.3496">ScheduleMeetingService</text><rect fill="#E3E3E3" height="51.2422" rx="2.5" ry="2.5" style="stroke:#181818;stroke-width:0.5;" width="170" x="1005.5" y="1373.418"/><text fill="#000000" font-family="sans-serif" font-size="14" font-style="italic" lengthAdjust="spacing" textLength="60" x="1060.5" y="1395.5254">&#171;service&#187;</text><text fill="#000000" font-family="sans-serif" font-size="14" lengthAdjust="spacing" textLength="156" x="1012.5" y="1414.1465">ScheduleMeetingService</text><rect fill="#E3E3E3" height="32.6211" rx="2.5" ry="2.5" style="stroke:#181818;stroke-width:0.5;" width="64" x="1185.5" y="1373.418"/><text fill="#000000" font-family="sans-serif" font-size="14" lengthAdjust="spacing" textLength="50" x="1192.5" y="1395.5254">Meeting</text><text fill="#000000" font-family="sans-serif" font-size="14" font-style="italic" lengthAdjust="spacing" textLength="79" x="1295.5" y="105.7285">&#171;repository&#187;</text><text fill="#000000" font-family="sans-serif" font-size="14" lengthAdjust="spacing" textLength="151" x="1259.5" y="124.3496">eCourseUserRepository</text><path d="M1320,54.6211 C1320,44.6211 1338,44.6211 1338,44.6211 C1338,44.6211 1356,44.6211 1356,54.6211 L1356,80.6211 C1356,90.6211 1338,90.6211 1338,90.6211 C1338,90.6211 1320,90.6211 1320,80.6211 L1320,54.6211 " fill="#E3E3E3" style="stroke:#181818;stroke-width:1.5;"/><path d="M1320,54.6211 C1320,64.6211 1338,64.6211 1338,64.6211 C1338,64.6211 1356,64.6211 1356,54.6211 " fill="none" style="stroke:#181818;stroke-width:1.5;"/><text fill="#000000" font-family="sans-serif" font-size="14" font-style="italic" lengthAdjust="spacing" textLength="79" x="1295.5" y="1388.5254">&#171;repository&#187;</text><text fill="#000000" font-family="sans-serif" font-size="14" lengthAdjust="spacing" textLength="151" x="1259.5" y="1407.1465">eCourseUserRepository</text><path d="M1320,1420.6602 C1320,1410.6602 1338,1410.6602 1338,1410.6602 C1338,1410.6602 1356,1410.6602 1356,1420.6602 L1356,1446.6602 C1356,1456.6602 1338,1456.6602 1338,1456.6602 C1338,1456.6602 1320,1456.6602 1320,1446.6602 L1320,1420.6602 " fill="#E3E3E3" style="stroke:#181818;stroke-width:1.5;"/><path d="M1320,1420.6602 C1320,1430.6602 1338,1430.6602 1338,1430.6602 C1338,1430.6602 1356,1430.6602 1356,1420.6602 " fill="none" style="stroke:#181818;stroke-width:1.5;"/><text fill="#000000" font-family="sans-serif" font-size="14" font-style="italic" lengthAdjust="spacing" textLength="79" x="1446" y="105.7285">&#171;repository&#187;</text><text fill="#000000" font-family="sans-serif" font-size="14" lengthAdjust="spacing" textLength="118" x="1426.5" y="124.3496">MeetingRepository</text><path d="M1470.5,54.6211 C1470.5,44.6211 1488.5,44.6211 1488.5,44.6211 C1488.5,44.6211 1506.5,44.6211 1506.5,54.6211 L1506.5,80.6211 C1506.5,90.6211 1488.5,90.6211 1488.5,90.6211 C1488.5,90.6211 1470.5,90.6211 1470.5,80.6211 L1470.5,54.6211 " fill="#E3E3E3" style="stroke:#181818;stroke-width:1.5;"/><path d="M1470.5,54.6211 C1470.5,64.6211 1488.5,64.6211 1488.5,64.6211 C1488.5,64.6211 1506.5,64.6211 1506.5,54.6211 " fill="none" style="stroke:#181818;stroke-width:1.5;"/><text fill="#000000" font-family="sans-serif" font-size="14" font-style="italic" lengthAdjust="spacing" textLength="79" x="1446" y="1388.5254">&#171;repository&#187;</text><text fill="#000000" font-family="sans-serif" font-size="14" lengthAdjust="spacing" textLength="118" x="1426.5" y="1407.1465">MeetingRepository</text><path d="M1470.5,1420.6602 C1470.5,1410.6602 1488.5,1410.6602 1488.5,1410.6602 C1488.5,1410.6602 1506.5,1410.6602 1506.5,1420.6602 L1506.5,1446.6602 C1506.5,1456.6602 1488.5,1456.6602 1488.5,1456.6602 C1488.5,1456.6602 1470.5,1456.6602 1470.5,1446.6602 L1470.5,1420.6602 " fill="#E3E3E3" style="stroke:#181818;stroke-width:1.5;"/><path d="M1470.5,1420.6602 C1470.5,1430.6602 1488.5,1430.6602 1488.5,1430.6602 C1488.5,1430.6602 1506.5,1430.6602 1506.5,1420.6602 " fill="none" style="stroke:#181818;stroke-width:1.5;"/><rect fill="#E3E3E3" height="32.6211" rx="2.5" ry="2.5" style="stroke:#181818;stroke-width:0.5;" width="133" x="1560.5" y="1373.418"/><text fill="#000000" font-family="sans-serif" font-size="14" lengthAdjust="spacing" textLength="119" x="1567.5" y="1395.5254">InviteMeetingEvent</text><rect fill="#E3E3E3" height="32.6211" rx="2.5" ry="2.5" style="stroke:#181818;stroke-width:0.5;" width="109" x="1703.5" y="94.2422"/><text fill="#000000" font-family="sans-serif" font-size="14" lengthAdjust="spacing" textLength="95" x="1710.5" y="116.3496">EventPublisher</text><rect fill="#E3E3E3" height="32.6211" rx="2.5" ry="2.5" style="stroke:#181818;stroke-width:0.5;" width="109" x="1703.5" y="1373.418"/><text fill="#000000" font-family="sans-serif" font-size="14" lengthAdjust="spacing" textLength="95" x="1710.5" y="1395.5254">EventPublisher</text><rect fill="#FFFFFF" height="859.8965" style="stroke:#181818;stroke-width:1.0;" width="10" x="294.5" y="161.1543"/><rect fill="#FFFFFF" height="304.0762" style="stroke:#181818;stroke-width:1.0;" width="10" x="294.5" y="1052.3418"/><rect fill="#FFFFFF" height="419.8223" style="stroke:#181818;stroke-width:1.0;" width="10" x="623.5" y="569.9375"/><rect fill="#FFFFFF" height="258.7852" style="stroke:#181818;stroke-width:1.0;" width="10" x="623.5" y="1083.6328"/><rect fill="#FFFFFF" height="31.291" style="stroke:#181818;stroke-width:1.0;" width="10" x="801.5" y="601.2285"/><rect fill="#FFFFFF" height="125.873" style="stroke:#181818;stroke-width:1.0;" width="10" x="1085.5" y="726.3926"/><rect fill="#FFFFFF" height="74.9121" style="stroke:#181818;stroke-width:1.0;" width="10" x="1085.5" y="883.5566"/><rect fill="#FFFFFF" height="213.4941" style="stroke:#181818;stroke-width:1.0;" width="10" x="1085.5" y="1114.9238"/><rect fill="#FFFFFF" height="31.291" style="stroke:#181818;stroke-width:1.0;" width="10" x="1333" y="663.8105"/><rect fill="#FFFFFF" height="30" style="stroke:#181818;stroke-width:1.0;" width="10" x="1333" y="783.9746"/><rect fill="#FFFFFF" height="30" style="stroke:#181818;stroke-width:1.0;" width="10" x="1483.5" y="1146.2148"/><rect fill="#FFFFFF" height="30" style="stroke:#181818;stroke-width:1.0;" width="10" x="1753" y="1277.418"/><polygon fill="#181818" points="282.5,157.1543,292.5,161.1543,282.5,165.1543,286.5,161.1543" style="stroke:#181818;stroke-width:1.0;"/><line style="stroke:#181818;stroke-width:1.0;stroke-dasharray:2.0,2.0;" x1="87.5" x2="288.5" y1="161.1543" y2="161.1543"/><text fill="#000000" font-family="sans-serif" font-size="13" lengthAdjust="spacing" textLength="141" x="94.5" y="155.8916">schedule meeting option</text><polygon fill="#181818" points="98.5,188.4453,88.5,192.4453,98.5,196.4453,94.5,192.4453" style="stroke:#181818;stroke-width:1.0;"/><line style="stroke:#181818;stroke-width:1.0;stroke-dasharray:2.0,2.0;" x1="92.5" x2="293.5" y1="192.4453" y2="192.4453"/><text fill="#000000" font-family="sans-serif" font-size="13" lengthAdjust="spacing" textLength="86" x="104.5" y="187.1826">asks for a date</text><polygon fill="#181818" points="282.5,219.7363,292.5,223.7363,282.5,227.7363,286.5,223.7363" style="stroke:#181818;stroke-width:1.0;"/><line style="stroke:#181818;stroke-width:1.0;stroke-dasharray:2.0,2.0;" x1="87.5" x2="288.5" y1="223.7363" y2="223.7363"/><text fill="#000000" font-family="sans-serif" font-size="13" lengthAdjust="spacing" textLength="25" x="94.5" y="218.4736">date</text><polygon fill="#181818" points="98.5,251.0273,88.5,255.0273,98.5,259.0273,94.5,255.0273" style="stroke:#181818;stroke-width:1.0;"/><line style="stroke:#181818;stroke-width:1.0;stroke-dasharray:2.0,2.0;" x1="92.5" x2="293.5" y1="255.0273" y2="255.0273"/><text fill="#000000" font-family="sans-serif" font-size="13" lengthAdjust="spacing" textLength="86" x="104.5" y="249.7646">asks for a time</text><polygon fill="#181818" points="282.5,282.3184,292.5,286.3184,282.5,290.3184,286.5,286.3184" style="stroke:#181818;stroke-width:1.0;"/><line style="stroke:#181818;stroke-width:1.0;stroke-dasharray:2.0,2.0;" x1="87.5" x2="288.5" y1="286.3184" y2="286.3184"/><text fill="#000000" font-family="sans-serif" font-size="13" lengthAdjust="spacing" textLength="25" x="94.5" y="281.0557">time</text><polygon fill="#181818" points="98.5,313.6094,88.5,317.6094,98.5,321.6094,94.5,317.6094" style="stroke:#181818;stroke-width:1.0;"/><line style="stroke:#181818;stroke-width:1.0;stroke-dasharray:2.0,2.0;" x1="92.5" x2="293.5" y1="317.6094" y2="317.6094"/><text fill="#000000" font-family="sans-serif" font-size="13" lengthAdjust="spacing" textLength="78" x="104.5" y="312.3467">asks duration</text><polygon fill="#181818" points="282.5,344.9004,292.5,348.9004,282.5,352.9004,286.5,348.9004" style="stroke:#181818;stroke-width:1.0;"/><line style="stroke:#181818;stroke-width:1.0;stroke-dasharray:2.0,2.0;" x1="87.5" x2="288.5" y1="348.9004" y2="348.9004"/><text fill="#000000" font-family="sans-serif" font-size="13" lengthAdjust="spacing" textLength="46" x="94.5" y="343.6377">duration</text><path d="M10,363.9004 L83,363.9004 L83,373.1914 L73,383.1914 L10,383.1914 L10,363.9004 " fill="#EEEEEE" style="stroke:#000000;stroke-width:1.5;"/><rect fill="none" height="81.873" style="stroke:#000000;stroke-width:1.5;" width="367" x="10" y="363.9004"/><text fill="#000000" font-family="sans-serif" font-size="13" font-weight="bold" lengthAdjust="spacing" textLength="28" x="25" y="378.9287">loop</text><polygon fill="#181818" points="98.5,402.4824,88.5,406.4824,98.5,410.4824,94.5,406.4824" style="stroke:#181818;stroke-width:1.0;"/><line style="stroke:#181818;stroke-width:1.0;stroke-dasharray:2.0,2.0;" x1="92.5" x2="293.5" y1="406.4824" y2="406.4824"/><text fill="#000000" font-family="sans-serif" font-size="13" lengthAdjust="spacing" textLength="159" x="104.5" y="401.2197">asks for participants emails</text><polygon fill="#181818" points="282.5,433.7734,292.5,437.7734,282.5,441.7734,286.5,437.7734" style="stroke:#181818;stroke-width:1.0;"/><line style="stroke:#181818;stroke-width:1.0;stroke-dasharray:2.0,2.0;" x1="87.5" x2="288.5" y1="437.7734" y2="437.7734"/><text fill="#000000" font-family="sans-serif" font-size="13" lengthAdjust="spacing" textLength="31" x="94.5" y="432.5107">email</text><polygon fill="#181818" points="98.5,472.0645,88.5,476.0645,98.5,480.0645,94.5,476.0645" style="stroke:#181818;stroke-width:1.0;"/><line style="stroke:#181818;stroke-width:1.0;stroke-dasharray:2.0,2.0;" x1="92.5" x2="293.5" y1="476.0645" y2="476.0645"/><text fill="#000000" font-family="sans-serif" font-size="13" lengthAdjust="spacing" textLength="183" x="104.5" y="470.8018">presents final list of participants</text><polygon fill="#181818" points="282.5,503.3555,292.5,507.3555,282.5,511.3555,286.5,507.3555" style="stroke:#181818;stroke-width:1.0;"/><line style="stroke:#181818;stroke-width:1.0;stroke-dasharray:2.0,2.0;" x1="87.5" x2="288.5" y1="507.3555" y2="507.3555"/><text fill="#000000" font-family="sans-serif" font-size="13" lengthAdjust="spacing" textLength="49" x="94.5" y="502.0928">confirms</text><polygon fill="#181818" points="616.5,534.6465,626.5,538.6465,616.5,542.6465,620.5,538.6465" style="stroke:#181818;stroke-width:1.0;"/><line style="stroke:#181818;stroke-width:1.0;" x1="304.5" x2="622.5" y1="538.6465" y2="538.6465"/><text fill="#000000" font-family="sans-serif" font-size="13" lengthAdjust="spacing" textLength="36" x="311.5" y="533.3838">create</text><polygon fill="#181818" points="611.5,565.9375,621.5,569.9375,611.5,573.9375,615.5,569.9375" style="stroke:#181818;stroke-width:1.0;"/><line style="stroke:#181818;stroke-width:1.0;" x1="304.5" x2="617.5" y1="569.9375" y2="569.9375"/><text fill="#000000" font-family="sans-serif" font-size="13" lengthAdjust="spacing" textLength="300" x="311.5" y="564.6748">scheduleMeeting( date,time, duration, List&lt;Email&gt; )</text><polygon fill="#181818" points="789.5,597.2285,799.5,601.2285,789.5,605.2285,793.5,601.2285" style="stroke:#181818;stroke-width:1.0;"/><line style="stroke:#181818;stroke-width:1.0;" x1="633.5" x2="795.5" y1="601.2285" y2="601.2285"/><text fill="#000000" font-family="sans-serif" font-size="13" lengthAdjust="spacing" textLength="53" x="640.5" y="595.9658">session()</text><polygon fill="#181818" points="644.5,628.5195,634.5,632.5195,644.5,636.5195,640.5,632.5195" style="stroke:#181818;stroke-width:1.0;"/><line style="stroke:#181818;stroke-width:1.0;stroke-dasharray:2.0,2.0;" x1="638.5" x2="805.5" y1="632.5195" y2="632.5195"/><text fill="#000000" font-family="sans-serif" font-size="13" lengthAdjust="spacing" textLength="31" x="650.5" y="627.2568">email</text><polygon fill="#181818" points="1321,659.8105,1331,663.8105,1321,667.8105,1325,663.8105" style="stroke:#181818;stroke-width:1.0;"/><line style="stroke:#181818;stroke-width:1.0;" x1="633.5" x2="1327" y1="663.8105" y2="663.8105"/><text fill="#000000" font-family="sans-serif" font-size="13" lengthAdjust="spacing" textLength="113" x="640.5" y="658.5479">searchUser( email )</text><polygon fill="#181818" points="644.5,691.1016,634.5,695.1016,644.5,699.1016,640.5,695.1016" style="stroke:#181818;stroke-width:1.0;"/><line style="stroke:#181818;stroke-width:1.0;stroke-dasharray:2.0,2.0;" x1="638.5" x2="1337" y1="695.1016" y2="695.1016"/><text fill="#000000" font-family="sans-serif" font-size="13" lengthAdjust="spacing" textLength="34" x="650.5" y="689.8389">owner</text><polygon fill="#181818" points="1073.5,722.3926,1083.5,726.3926,1073.5,730.3926,1077.5,726.3926" style="stroke:#181818;stroke-width:1.0;"/><line style="stroke:#181818;stroke-width:1.0;" x1="633.5" x2="1079.5" y1="726.3926" y2="726.3926"/><text fill="#000000" font-family="sans-serif" font-size="13" lengthAdjust="spacing" textLength="198" x="640.5" y="721.1299">validateParticipants( List&lt;Email&gt; )</text><path d="M995.5,741.3926 L1068.5,741.3926 L1068.5,750.6836 L1058.5,760.6836 L995.5,760.6836 L995.5,741.3926 " fill="#EEEEEE" style="stroke:#000000;stroke-width:1.5;"/><rect fill="none" height="80.582" style="stroke:#000000;stroke-width:1.5;" width="431" x="995.5" y="741.3926"/><text fill="#000000" font-family="sans-serif" font-size="13" font-weight="bold" lengthAdjust="spacing" textLength="28" x="1010.5" y="756.4209">loop</text><polygon fill="#181818" points="1321,779.9746,1331,783.9746,1321,787.9746,1325,783.9746" style="stroke:#181818;stroke-width:1.0;"/><line style="stroke:#181818;stroke-width:1.0;" x1="1095.5" x2="1327" y1="783.9746" y2="783.9746"/><text fill="#000000" font-family="sans-serif" font-size="13" lengthAdjust="spacing" textLength="125" x="1102.5" y="778.7119">containsUser( Email )</text><polygon fill="#181818" points="644.5,848.2656,634.5,852.2656,644.5,856.2656,640.5,852.2656" style="stroke:#181818;stroke-width:1.0;"/><line style="stroke:#181818;stroke-width:1.0;stroke-dasharray:2.0,2.0;" x1="638.5" x2="1089.5" y1="852.2656" y2="852.2656"/><text fill="#000000" font-family="sans-serif" font-size="13" lengthAdjust="spacing" textLength="157" x="650.5" y="847.0029">List&lt;eCourseSystemUser&gt;</text><polygon fill="#181818" points="1073.5,879.5566,1083.5,883.5566,1073.5,887.5566,1077.5,883.5566" style="stroke:#181818;stroke-width:1.0;"/><line style="stroke:#181818;stroke-width:1.0;" x1="633.5" x2="1079.5" y1="883.5566" y2="883.5566"/><text fill="#000000" font-family="sans-serif" font-size="13" lengthAdjust="spacing" textLength="433" x="640.5" y="878.2939">scheduleMeeting( date, time, duration, List&lt;eCourseSystemUser&gt;, owner )</text><polygon fill="#181818" points="1173.5,910.8477,1183.5,914.8477,1173.5,918.8477,1177.5,914.8477" style="stroke:#181818;stroke-width:1.0;"/><line style="stroke:#181818;stroke-width:1.0;" x1="1095.5" x2="1179.5" y1="914.8477" y2="914.8477"/><text fill="#000000" font-family="sans-serif" font-size="13" lengthAdjust="spacing" textLength="36" x="1102.5" y="909.585">create</text><rect fill="#E3E3E3" height="32.6211" rx="2.5" ry="2.5" style="stroke:#181818;stroke-width:0.5;" width="64" x="1185.5" y="891.5566"/><text fill="#000000" font-family="sans-serif" font-size="14" lengthAdjust="spacing" textLength="50" x="1192.5" y="913.6641">Meeting</text><polygon fill="#181818" points="644.5,954.4688,634.5,958.4688,644.5,962.4688,640.5,958.4688" style="stroke:#181818;stroke-width:1.0;"/><line style="stroke:#181818;stroke-width:1.0;stroke-dasharray:2.0,2.0;" x1="638.5" x2="1089.5" y1="958.4688" y2="958.4688"/><text fill="#000000" font-family="sans-serif" font-size="13" lengthAdjust="spacing" textLength="46" x="650.5" y="953.2061">meeting</text><polygon fill="#181818" points="315.5,985.7598,305.5,989.7598,315.5,993.7598,311.5,989.7598" style="stroke:#181818;stroke-width:1.0;"/><line style="stroke:#181818;stroke-width:1.0;stroke-dasharray:2.0,2.0;" x1="309.5" x2="627.5" y1="989.7598" y2="989.7598"/><text fill="#000000" font-family="sans-serif" font-size="13" lengthAdjust="spacing" textLength="46" x="321.5" y="984.4971">meeting</text><polygon fill="#181818" points="98.5,1017.0508,88.5,1021.0508,98.5,1025.0508,94.5,1021.0508" style="stroke:#181818;stroke-width:1.0;"/><line style="stroke:#181818;stroke-width:1.0;stroke-dasharray:2.0,2.0;" x1="92.5" x2="298.5" y1="1021.0508" y2="1021.0508"/><text fill="#000000" font-family="sans-serif" font-size="13" lengthAdjust="spacing" textLength="46" x="104.5" y="1015.7881">meeting</text><polygon fill="#181818" points="282.5,1048.3418,292.5,1052.3418,282.5,1056.3418,286.5,1052.3418" style="stroke:#181818;stroke-width:1.0;"/><line style="stroke:#181818;stroke-width:1.0;stroke-dasharray:2.0,2.0;" x1="87.5" x2="288.5" y1="1052.3418" y2="1052.3418"/><text fill="#000000" font-family="sans-serif" font-size="13" lengthAdjust="spacing" textLength="76" x="94.5" y="1047.0791">save meeting</text><polygon fill="#181818" points="611.5,1079.6328,621.5,1083.6328,611.5,1087.6328,615.5,1083.6328" style="stroke:#181818;stroke-width:1.0;"/><line style="stroke:#181818;stroke-width:1.0;" x1="304.5" x2="617.5" y1="1083.6328" y2="1083.6328"/><text fill="#000000" font-family="sans-serif" font-size="13" lengthAdjust="spacing" textLength="134" x="311.5" y="1078.3701">saveMeeting( meeting )</text><polygon fill="#181818" points="1073.5,1110.9238,1083.5,1114.9238,1073.5,1118.9238,1077.5,1114.9238" style="stroke:#181818;stroke-width:1.0;"/><line style="stroke:#181818;stroke-width:1.0;" x1="633.5" x2="1079.5" y1="1114.9238" y2="1114.9238"/><text fill="#000000" font-family="sans-serif" font-size="13" lengthAdjust="spacing" textLength="134" x="640.5" y="1109.6611">saveMeeting( meeting )</text><polygon fill="#181818" points="1471.5,1142.2148,1481.5,1146.2148,1471.5,1150.2148,1475.5,1146.2148" style="stroke:#181818;stroke-width:1.0;"/><line style="stroke:#181818;stroke-width:1.0;" x1="1095.5" x2="1477.5" y1="1146.2148" y2="1146.2148"/><text fill="#000000" font-family="sans-serif" font-size="13" lengthAdjust="spacing" textLength="26" x="1102.5" y="1140.9521">save</text><path d="M995.5,1191.2148 L1362.5,1191.2148 L1362.5,1200.5059 L1352.5,1210.5059 L995.5,1210.5059 L995.5,1191.2148 " fill="#EEEEEE" style="stroke:#000000;stroke-width:1.5;"/><rect fill="none" height="124.2031" style="stroke:#000000;stroke-width:1.5;" width="827" x="995.5" y="1191.2148"/><text fill="#000000" font-family="sans-serif" font-size="13" font-weight="bold" lengthAdjust="spacing" textLength="322" x="1010.5" y="1206.2432">loop : for each participant in meeting.participants()</text><polygon fill="#181818" points="1548.5,1229.7969,1558.5,1233.7969,1548.5,1237.7969,1552.5,1233.7969" style="stroke:#181818;stroke-width:1.0;"/><line style="stroke:#181818;stroke-width:1.0;" x1="1095.5" x2="1554.5" y1="1233.7969" y2="1233.7969"/><text fill="#000000" font-family="sans-serif" font-size="13" lengthAdjust="spacing" textLength="235" x="1102.5" y="1228.5342">create( time, duration, recipient, sender )</text><rect fill="#E3E3E3" height="32.6211" rx="2.5" ry="2.5" style="stroke:#181818;stroke-width:0.5;" width="133" x="1560.5" y="1210.5059"/><text fill="#000000" font-family="sans-serif" font-size="14" lengthAdjust="spacing" textLength="119" x="1567.5" y="1232.6133">InviteMeetingEvent</text><polygon fill="#181818" points="1741,1273.418,1751,1277.418,1741,1281.418,1745,1277.418" style="stroke:#181818;stroke-width:1.0;"/><line style="stroke:#181818;stroke-width:1.0;" x1="1095.5" x2="1747" y1="1277.418" y2="1277.418"/><text fill="#000000" font-family="sans-serif" font-size="13" lengthAdjust="spacing" textLength="87" x="1102.5" y="1272.1553">publish( event )</text><polygon fill="#181818" points="644.5,1324.418,634.5,1328.418,644.5,1332.418,640.5,1328.418" style="stroke:#181818;stroke-width:1.0;"/><line style="stroke:#181818;stroke-width:1.0;stroke-dasharray:2.0,2.0;" x1="638.5" x2="1089.5" y1="1328.418" y2="1328.418"/><polygon fill="#181818" points="315.5,1338.418,305.5,1342.418,315.5,1346.418,311.5,1342.418" style="stroke:#181818;stroke-width:1.0;"/><line style="stroke:#181818;stroke-width:1.0;stroke-dasharray:2.0,2.0;" x1="309.5" x2="627.5" y1="1342.418" y2="1342.418"/><polygon fill="#181818" points="98.5,1352.418,88.5,1356.418,98.5,1360.418,94.5,1356.418" style="stroke:#181818;stroke-width:1.0;"/><line style="stroke:#181818;stroke-width:1.0;stroke-dasharray:2.0,2.0;" x1="92.5" x2="298.5" y1="1356.418" y2="1356.418"/><!--SRC=[bLPDR-8m4BtxL_YsR0LKueWYf6uNQIjjLrKflRjXIgmwjcKxMVNVxzZvm742T3aWOizxddb-C-5RuPnUtzvgmQIhIh7CLNbhFxZKpB1oMRXIaFwHbaggl32g1EfC1T6EPla7EyBEVGgW1d97YECEV-z-qWNzpQsZkQgC1KjPpRXWRm88ORbJXi9zsDbzMWVbteAXpD8xlqMGtF6SQqoExl823fM0Hm37vN7_uCFmEykq0GlICSULt6mkWUwLT4O9qPmHFMKPqrhmV8hZhd85qhUREp0rpo7ak7_vXKZRh5m-EOBjdby7g06i3VTnZziNSc2ElJ4BdKXUdcVGodAKvzD7HKzPPle7vEsnBUSvt2e5nlayo9gxheXjZJfuyCEVrq5Ks7YgtWItHQFjq_u7mK-uHhfORF2crjIscj2ohL9fBwdt0Q-P0mmYUAC-F03NoFHXwJjIC8hbGC8Nbiu272zJG5YQ01mg4outvU-MZqPLcWgbzBdZ8ZKiXH8jRXEoi4X07XAArhr8moKJLFXUKUy3meGfL_ATczAImBI9V8nx1hme4pjsQCXPK6_k5PdtXSv3gsPRd-g6VYSKF_tbdCZ2UjGzlXZi1Jm3h4MQMOCSe7r0lnewPv4as0ZKXHnW31qUUNAmFvYPlF3TCMjuw4GA9q2_5_L4cexwAzjAatGYceciiBlNj6Q2UtcVeakSJMWxI0-H_M9ak6x9ZurXrUW3nxYqJTdRfEnhfP-lgjlrNXsSdYWKwXbDxmsP4gqhRYGMFUTCEcdDyN7pvgQkAThAXqFrvgPlaqlLjJFggyMqlHcZ8aJKEyFkx-AZM1o2oTXaTJyoHxCoQN8CxMNifkp_z76mxmMMaRxal45N3TCrHwwkMt8rqHXe73zuCRo8XoNbiajv6S_GQ2QrYU9Bx6I5sSXk-2-6QuwJUOxJHHu63ciPy2M7MUZclOU39xmU9tJoByE9-kBboxtsTHEYNovu3ns3CSr_gu7Z_W40]--></g></svg>