<?xml version="1.0" encoding="us-ascii" standalone="no"?><svg xmlns="http://www.w3.org/2000/svg" xmlns:xlink="http://www.w3.org/1999/xlink" contentStyleType="text/css" height="1589px" preserveAspectRatio="none" style="width:986px;height:1589px;background:#FFFFFF;" version="1.1" viewBox="0 0 986 1589" width="986px" zoomAndPan="magnify"><defs/><g><!--class SystemUser--><g id="elem_SystemUser"><rect codeLine="3" fill="#F1F1F1" height="113.7852" id="SystemUser" rx="2.5" ry="2.5" style="stroke:#181818;stroke-width:0.5;" width="107" x="228.5" y="7"/><ellipse cx="243.5" cy="37.2715" fill="#ADD1B2" rx="11" ry="11" style="stroke:#181818;stroke-width:1.0;"/><path d="M246.2656,33.1465 Q246.4219,32.9277 246.6094,32.8184 Q246.7969,32.709 247.0156,32.709 Q247.3906,32.709 247.625,32.9746 Q247.8594,33.2246 247.8594,33.834 L247.8594,35.2871 Q247.8594,35.8965 247.625,36.1621 Q247.3906,36.4277 247.0156,36.4277 Q246.6719,36.4277 246.4688,36.2246 Q246.2656,36.0371 246.1563,35.5215 Q246.1094,35.1621 245.9219,34.9746 Q245.5938,34.5996 244.9844,34.3809 Q244.375,34.1621 243.75,34.1621 Q242.9844,34.1621 242.3438,34.4902 Q241.7188,34.8184 241.2188,35.5684 Q240.7344,36.3184 240.7344,37.3496 L240.7344,38.4434 Q240.7344,39.6777 241.625,40.5059 Q242.5156,41.3184 244.1094,41.3184 Q245.0469,41.3184 245.7031,41.0684 Q246.0938,40.9121 246.5156,40.4746 Q246.7813,40.209 246.9219,40.1309 Q247.0781,40.0527 247.2813,40.0527 Q247.6094,40.0527 247.8594,40.3184 Q248.125,40.5684 248.125,40.9121 Q248.125,41.2559 247.7813,41.6621 Q247.2813,42.2402 246.4844,42.5684 Q245.4063,43.0215 244.1094,43.0215 Q242.5938,43.0215 241.3906,42.3965 Q240.4063,41.8965 239.7188,40.834 Q239.0313,39.7559 239.0313,38.4746 L239.0313,37.3184 Q239.0313,35.9902 239.6406,34.8496 Q240.2656,33.6934 241.3594,33.084 Q242.4531,32.459 243.6875,32.459 Q244.4219,32.459 245.0625,32.6309 Q245.7188,32.7871 246.2656,33.1465 Z " fill="#000000"/><text fill="#000000" font-family="sans-serif" font-size="12" font-style="italic" lengthAdjust="spacing" textLength="35" x="277.5" y="24.9492">&#171;root&#187;</text><text fill="#000000" font-family="sans-serif" font-size="12" font-style="italic" lengthAdjust="spacing" textLength="44" x="273" y="40.9102">&#171;Entity&#187;</text><text fill="#000000" font-family="sans-serif" font-size="14" lengthAdjust="spacing" textLength="75" x="257.5" y="59.0293">SystemUser</text><line style="stroke:#181818;stroke-width:0.5;" x1="229.5" x2="334.5" y1="67.543" y2="67.543"/><ellipse cx="239.5" cy="82.3535" fill="#000000" rx="3" ry="3" style="stroke:#000000;stroke-width:1.0;"/><text fill="#000000" font-family="sans-serif" font-size="14" lengthAdjust="spacing" textLength="59" x="248.5" y="86.6504">FullName</text><ellipse cx="239.5" cy="100.9746" fill="#000000" rx="3" ry="3" style="stroke:#000000;stroke-width:1.0;"/><text fill="#000000" font-family="sans-serif" font-size="14" lengthAdjust="spacing" textLength="70" x="248.5" y="105.2715">ShortName</text><line style="stroke:#181818;stroke-width:0.5;" x1="229.5" x2="334.5" y1="112.7852" y2="112.7852"/></g><!--class Email--><g id="elem_Email"><rect codeLine="7" fill="#F1F1F1" height="60.582" id="Email" rx="2.5" ry="2.5" style="stroke:#181818;stroke-width:0.5;" width="111" x="370.5" y="33.5"/><ellipse cx="385.5" cy="55.791" fill="#ADD1B2" rx="11" ry="11" style="stroke:#181818;stroke-width:1.0;"/><path d="M388.2656,51.666 Q388.4219,51.4473 388.6094,51.3379 Q388.7969,51.2285 389.0156,51.2285 Q389.3906,51.2285 389.625,51.4941 Q389.8594,51.7441 389.8594,52.3535 L389.8594,53.8066 Q389.8594,54.416 389.625,54.6816 Q389.3906,54.9473 389.0156,54.9473 Q388.6719,54.9473 388.4688,54.7441 Q388.2656,54.5566 388.1563,54.041 Q388.1094,53.6816 387.9219,53.4941 Q387.5938,53.1191 386.9844,52.9004 Q386.375,52.6816 385.75,52.6816 Q384.9844,52.6816 384.3438,53.0098 Q383.7188,53.3379 383.2188,54.0879 Q382.7344,54.8379 382.7344,55.8691 L382.7344,56.9629 Q382.7344,58.1973 383.625,59.0254 Q384.5156,59.8379 386.1094,59.8379 Q387.0469,59.8379 387.7031,59.5879 Q388.0938,59.4316 388.5156,58.9941 Q388.7813,58.7285 388.9219,58.6504 Q389.0781,58.5723 389.2813,58.5723 Q389.6094,58.5723 389.8594,58.8379 Q390.125,59.0879 390.125,59.4316 Q390.125,59.7754 389.7813,60.1816 Q389.2813,60.7598 388.4844,61.0879 Q387.4063,61.541 386.1094,61.541 Q384.5938,61.541 383.3906,60.916 Q382.4063,60.416 381.7188,59.3535 Q381.0313,58.2754 381.0313,56.9941 L381.0313,55.8379 Q381.0313,54.5098 381.6406,53.3691 Q382.2656,52.2129 383.3594,51.6035 Q384.4531,50.9785 385.6875,50.9785 Q386.4219,50.9785 387.0625,51.1504 Q387.7188,51.3066 388.2656,51.666 Z " fill="#000000"/><text fill="#000000" font-family="sans-serif" font-size="12" font-style="italic" lengthAdjust="spacing" textLength="83" x="397.5" y="51.4492">&#171;Value object&#187;</text><text fill="#000000" font-family="sans-serif" font-size="14" lengthAdjust="spacing" textLength="34" x="422" y="69.5684">Email</text><line style="stroke:#181818;stroke-width:0.5;" x1="371.5" x2="480.5" y1="78.082" y2="78.082"/><line style="stroke:#181818;stroke-width:0.5;" x1="371.5" x2="480.5" y1="86.082" y2="86.082"/></g><!--class ScheduleMeetingUI--><g id="elem_ScheduleMeetingUI"><rect codeLine="9" fill="#F1F1F1" height="48" id="ScheduleMeetingUI" rx="2.5" ry="2.5" style="stroke:#181818;stroke-width:0.5;" width="153" x="205.5" y="182"/><ellipse cx="220.5" cy="198" fill="#ADD1B2" rx="11" ry="11" style="stroke:#181818;stroke-width:1.0;"/><path d="M223.2656,193.875 Q223.4219,193.6563 223.6094,193.5469 Q223.7969,193.4375 224.0156,193.4375 Q224.3906,193.4375 224.625,193.7031 Q224.8594,193.9531 224.8594,194.5625 L224.8594,196.0156 Q224.8594,196.625 224.625,196.8906 Q224.3906,197.1563 224.0156,197.1563 Q223.6719,197.1563 223.4688,196.9531 Q223.2656,196.7656 223.1563,196.25 Q223.1094,195.8906 222.9219,195.7031 Q222.5938,195.3281 221.9844,195.1094 Q221.375,194.8906 220.75,194.8906 Q219.9844,194.8906 219.3438,195.2188 Q218.7188,195.5469 218.2188,196.2969 Q217.7344,197.0469 217.7344,198.0781 L217.7344,199.1719 Q217.7344,200.4063 218.625,201.2344 Q219.5156,202.0469 221.1094,202.0469 Q222.0469,202.0469 222.7031,201.7969 Q223.0938,201.6406 223.5156,201.2031 Q223.7813,200.9375 223.9219,200.8594 Q224.0781,200.7813 224.2813,200.7813 Q224.6094,200.7813 224.8594,201.0469 Q225.125,201.2969 225.125,201.6406 Q225.125,201.9844 224.7813,202.3906 Q224.2813,202.9688 223.4844,203.2969 Q222.4063,203.75 221.1094,203.75 Q219.5938,203.75 218.3906,203.125 Q217.4063,202.625 216.7188,201.5625 Q216.0313,200.4844 216.0313,199.2031 L216.0313,198.0469 Q216.0313,196.7188 216.6406,195.5781 Q217.2656,194.4219 218.3594,193.8125 Q219.4531,193.1875 220.6875,193.1875 Q221.4219,193.1875 222.0625,193.3594 Q222.7188,193.5156 223.2656,193.875 Z " fill="#000000"/><text fill="#000000" font-family="sans-serif" font-size="14" lengthAdjust="spacing" textLength="121" x="234.5" y="203.7969">ScheduleMeetingUI</text><line style="stroke:#181818;stroke-width:0.5;" x1="206.5" x2="357.5" y1="214" y2="214"/><line style="stroke:#181818;stroke-width:0.5;" x1="206.5" x2="357.5" y1="222" y2="222"/></g><!--class ScheduleMeetingController--><g id="elem_ScheduleMeetingController"><rect codeLine="11" fill="#F1F1F1" height="85.2422" id="ScheduleMeetingController" rx="2.5" ry="2.5" style="stroke:#181818;stroke-width:0.5;" width="317" x="123.5" y="291"/><ellipse cx="192.25" cy="307" fill="#ADD1B2" rx="11" ry="11" style="stroke:#181818;stroke-width:1.0;"/><path d="M195.0156,302.875 Q195.1719,302.6563 195.3594,302.5469 Q195.5469,302.4375 195.7656,302.4375 Q196.1406,302.4375 196.375,302.7031 Q196.6094,302.9531 196.6094,303.5625 L196.6094,305.0156 Q196.6094,305.625 196.375,305.8906 Q196.1406,306.1563 195.7656,306.1563 Q195.4219,306.1563 195.2188,305.9531 Q195.0156,305.7656 194.9063,305.25 Q194.8594,304.8906 194.6719,304.7031 Q194.3438,304.3281 193.7344,304.1094 Q193.125,303.8906 192.5,303.8906 Q191.7344,303.8906 191.0938,304.2188 Q190.4688,304.5469 189.9688,305.2969 Q189.4844,306.0469 189.4844,307.0781 L189.4844,308.1719 Q189.4844,309.4063 190.375,310.2344 Q191.2656,311.0469 192.8594,311.0469 Q193.7969,311.0469 194.4531,310.7969 Q194.8438,310.6406 195.2656,310.2031 Q195.5313,309.9375 195.6719,309.8594 Q195.8281,309.7813 196.0313,309.7813 Q196.3594,309.7813 196.6094,310.0469 Q196.875,310.2969 196.875,310.6406 Q196.875,310.9844 196.5313,311.3906 Q196.0313,311.9688 195.2344,312.2969 Q194.1563,312.75 192.8594,312.75 Q191.3438,312.75 190.1406,312.125 Q189.1563,311.625 188.4688,310.5625 Q187.7813,309.4844 187.7813,308.2031 L187.7813,307.0469 Q187.7813,305.7188 188.3906,304.5781 Q189.0156,303.4219 190.1094,302.8125 Q191.2031,302.1875 192.4375,302.1875 Q193.1719,302.1875 193.8125,302.3594 Q194.4688,302.5156 195.0156,302.875 Z " fill="#000000"/><text fill="#000000" font-family="sans-serif" font-size="14" lengthAdjust="spacing" textLength="171" x="212.75" y="312.7969">ScheduleMeetingController</text><line style="stroke:#181818;stroke-width:0.5;" x1="124.5" x2="439.5" y1="323" y2="323"/><line style="stroke:#181818;stroke-width:0.5;" x1="124.5" x2="439.5" y1="331" y2="331"/><ellipse cx="134.5" cy="345.8105" fill="#84BE84" rx="3" ry="3" style="stroke:#038048;stroke-width:1.0;"/><text fill="#000000" font-family="sans-serif" font-size="14" lengthAdjust="spacing" textLength="291" x="143.5" y="350.1074">scheduleMeeting( time, duration, List&lt;Email&gt; )</text><ellipse cx="134.5" cy="364.4316" fill="#84BE84" rx="3" ry="3" style="stroke:#038048;stroke-width:1.0;"/><text fill="#000000" font-family="sans-serif" font-size="14" lengthAdjust="spacing" textLength="148" x="143.5" y="368.7285">saveMeeting( meeting )</text></g><!--class AuthenticationService--><g id="elem_AuthenticationService"><rect codeLine="15" fill="#F1F1F1" height="66.6211" id="AuthenticationService" rx="2.5" ry="2.5" style="stroke:#181818;stroke-width:0.5;" width="169" x="59.5" y="455.5"/><ellipse cx="74.5" cy="471.5" fill="#ADD1B2" rx="11" ry="11" style="stroke:#181818;stroke-width:1.0;"/><path d="M77.2656,467.375 Q77.4219,467.1563 77.6094,467.0469 Q77.7969,466.9375 78.0156,466.9375 Q78.3906,466.9375 78.625,467.2031 Q78.8594,467.4531 78.8594,468.0625 L78.8594,469.5156 Q78.8594,470.125 78.625,470.3906 Q78.3906,470.6563 78.0156,470.6563 Q77.6719,470.6563 77.4688,470.4531 Q77.2656,470.2656 77.1563,469.75 Q77.1094,469.3906 76.9219,469.2031 Q76.5938,468.8281 75.9844,468.6094 Q75.375,468.3906 74.75,468.3906 Q73.9844,468.3906 73.3438,468.7188 Q72.7188,469.0469 72.2188,469.7969 Q71.7344,470.5469 71.7344,471.5781 L71.7344,472.6719 Q71.7344,473.9063 72.625,474.7344 Q73.5156,475.5469 75.1094,475.5469 Q76.0469,475.5469 76.7031,475.2969 Q77.0938,475.1406 77.5156,474.7031 Q77.7813,474.4375 77.9219,474.3594 Q78.0781,474.2813 78.2813,474.2813 Q78.6094,474.2813 78.8594,474.5469 Q79.125,474.7969 79.125,475.1406 Q79.125,475.4844 78.7813,475.8906 Q78.2813,476.4688 77.4844,476.7969 Q76.4063,477.25 75.1094,477.25 Q73.5938,477.25 72.3906,476.625 Q71.4063,476.125 70.7188,475.0625 Q70.0313,473.9844 70.0313,472.7031 L70.0313,471.5469 Q70.0313,470.2188 70.6406,469.0781 Q71.2656,467.9219 72.3594,467.3125 Q73.4531,466.6875 74.6875,466.6875 Q75.4219,466.6875 76.0625,466.8594 Q76.7188,467.0156 77.2656,467.375 Z " fill="#000000"/><text fill="#000000" font-family="sans-serif" font-size="14" lengthAdjust="spacing" textLength="137" x="88.5" y="477.2969">AuthenticationService</text><line style="stroke:#181818;stroke-width:0.5;" x1="60.5" x2="227.5" y1="487.5" y2="487.5"/><line style="stroke:#181818;stroke-width:0.5;" x1="60.5" x2="227.5" y1="495.5" y2="495.5"/><ellipse cx="70.5" cy="510.3105" fill="#84BE84" rx="3" ry="3" style="stroke:#038048;stroke-width:1.0;"/><text fill="#000000" font-family="sans-serif" font-size="14" lengthAdjust="spacing" textLength="58" x="79.5" y="514.6074">session()</text></g><!--class ScheduleMeetingService--><g id="elem_ScheduleMeetingService"><rect codeLine="18" fill="#F1F1F1" height="103.8633" id="ScheduleMeetingService" rx="2.5" ry="2.5" style="stroke:#181818;stroke-width:0.5;" width="359" x="335.5" y="437"/><ellipse cx="432.75" cy="453" fill="#ADD1B2" rx="11" ry="11" style="stroke:#181818;stroke-width:1.0;"/><path d="M435.5156,448.875 Q435.6719,448.6563 435.8594,448.5469 Q436.0469,448.4375 436.2656,448.4375 Q436.6406,448.4375 436.875,448.7031 Q437.1094,448.9531 437.1094,449.5625 L437.1094,451.0156 Q437.1094,451.625 436.875,451.8906 Q436.6406,452.1563 436.2656,452.1563 Q435.9219,452.1563 435.7188,451.9531 Q435.5156,451.7656 435.4063,451.25 Q435.3594,450.8906 435.1719,450.7031 Q434.8438,450.3281 434.2344,450.1094 Q433.625,449.8906 433,449.8906 Q432.2344,449.8906 431.5938,450.2188 Q430.9688,450.5469 430.4688,451.2969 Q429.9844,452.0469 429.9844,453.0781 L429.9844,454.1719 Q429.9844,455.4063 430.875,456.2344 Q431.7656,457.0469 433.3594,457.0469 Q434.2969,457.0469 434.9531,456.7969 Q435.3438,456.6406 435.7656,456.2031 Q436.0313,455.9375 436.1719,455.8594 Q436.3281,455.7813 436.5313,455.7813 Q436.8594,455.7813 437.1094,456.0469 Q437.375,456.2969 437.375,456.6406 Q437.375,456.9844 437.0313,457.3906 Q436.5313,457.9688 435.7344,458.2969 Q434.6563,458.75 433.3594,458.75 Q431.8438,458.75 430.6406,458.125 Q429.6563,457.625 428.9688,456.5625 Q428.2813,455.4844 428.2813,454.2031 L428.2813,453.0469 Q428.2813,451.7188 428.8906,450.5781 Q429.5156,449.4219 430.6094,448.8125 Q431.7031,448.1875 432.9375,448.1875 Q433.6719,448.1875 434.3125,448.3594 Q434.9688,448.5156 435.5156,448.875 Z " fill="#000000"/><text fill="#000000" font-family="sans-serif" font-size="14" lengthAdjust="spacing" textLength="156" x="453.25" y="458.7969">ScheduleMeetingService</text><line style="stroke:#181818;stroke-width:0.5;" x1="336.5" x2="693.5" y1="469" y2="469"/><line style="stroke:#181818;stroke-width:0.5;" x1="336.5" x2="693.5" y1="477" y2="477"/><ellipse cx="346.5" cy="491.8105" fill="#84BE84" rx="3" ry="3" style="stroke:#038048;stroke-width:1.0;"/><text fill="#000000" font-family="sans-serif" font-size="14" lengthAdjust="spacing" textLength="213" x="355.5" y="496.1074">validateParticipants( List&lt;Email&gt; )</text><ellipse cx="346.5" cy="510.4316" fill="#84BE84" rx="3" ry="3" style="stroke:#038048;stroke-width:1.0;"/><text fill="#000000" font-family="sans-serif" font-size="14" lengthAdjust="spacing" textLength="333" x="355.5" y="514.7285">scheduleMeeting( time,duration, List&lt;Email&gt;, owner )</text><ellipse cx="346.5" cy="529.0527" fill="#84BE84" rx="3" ry="3" style="stroke:#038048;stroke-width:1.0;"/><text fill="#000000" font-family="sans-serif" font-size="14" lengthAdjust="spacing" textLength="148" x="355.5" y="533.3496">saveMeeting( meeting )</text></g><!--class Meeting--><g id="elem_Meeting"><rect codeLine="23" fill="#F1F1F1" height="122.4844" id="Meeting" rx="2.5" ry="2.5" style="stroke:#181818;stroke-width:0.5;" width="193" x="651.5" y="602"/><ellipse cx="718.75" cy="618" fill="#ADD1B2" rx="11" ry="11" style="stroke:#181818;stroke-width:1.0;"/><path d="M721.5156,613.875 Q721.6719,613.6563 721.8594,613.5469 Q722.0469,613.4375 722.2656,613.4375 Q722.6406,613.4375 722.875,613.7031 Q723.1094,613.9531 723.1094,614.5625 L723.1094,616.0156 Q723.1094,616.625 722.875,616.8906 Q722.6406,617.1563 722.2656,617.1563 Q721.9219,617.1563 721.7188,616.9531 Q721.5156,616.7656 721.4063,616.25 Q721.3594,615.8906 721.1719,615.7031 Q720.8438,615.3281 720.2344,615.1094 Q719.625,614.8906 719,614.8906 Q718.2344,614.8906 717.5938,615.2188 Q716.9688,615.5469 716.4688,616.2969 Q715.9844,617.0469 715.9844,618.0781 L715.9844,619.1719 Q715.9844,620.4063 716.875,621.2344 Q717.7656,622.0469 719.3594,622.0469 Q720.2969,622.0469 720.9531,621.7969 Q721.3438,621.6406 721.7656,621.2031 Q722.0313,620.9375 722.1719,620.8594 Q722.3281,620.7813 722.5313,620.7813 Q722.8594,620.7813 723.1094,621.0469 Q723.375,621.2969 723.375,621.6406 Q723.375,621.9844 723.0313,622.3906 Q722.5313,622.9688 721.7344,623.2969 Q720.6563,623.75 719.3594,623.75 Q717.8438,623.75 716.6406,623.125 Q715.6563,622.625 714.9688,621.5625 Q714.2813,620.4844 714.2813,619.2031 L714.2813,618.0469 Q714.2813,616.7188 714.8906,615.5781 Q715.5156,614.4219 716.6094,613.8125 Q717.7031,613.1875 718.9375,613.1875 Q719.6719,613.1875 720.3125,613.3594 Q720.9688,613.5156 721.5156,613.875 Z " fill="#000000"/><text fill="#000000" font-family="sans-serif" font-size="14" lengthAdjust="spacing" textLength="50" x="739.25" y="623.7969">Meeting</text><line style="stroke:#181818;stroke-width:0.5;" x1="652.5" x2="843.5" y1="634" y2="634"/><ellipse cx="662.5" cy="648.8105" fill="#000000" rx="3" ry="3" style="stroke:#000000;stroke-width:1.0;"/><text fill="#000000" font-family="sans-serif" font-size="14" lengthAdjust="spacing" textLength="26" x="671.5" y="653.1074">time</text><ellipse cx="662.5" cy="667.4316" fill="#000000" rx="3" ry="3" style="stroke:#000000;stroke-width:1.0;"/><text fill="#000000" font-family="sans-serif" font-size="14" lengthAdjust="spacing" textLength="52" x="671.5" y="671.7285">duration</text><ellipse cx="662.5" cy="686.0527" fill="#000000" rx="3" ry="3" style="stroke:#000000;stroke-width:1.0;"/><text fill="#000000" font-family="sans-serif" font-size="14" lengthAdjust="spacing" textLength="167" x="671.5" y="690.3496">List&lt;eCourseSystemUser&gt;</text><ellipse cx="662.5" cy="704.6738" fill="#000000" rx="3" ry="3" style="stroke:#000000;stroke-width:1.0;"/><text fill="#000000" font-family="sans-serif" font-size="14" lengthAdjust="spacing" textLength="38" x="671.5" y="708.9707">owner</text><line style="stroke:#181818;stroke-width:0.5;" x1="652.5" x2="843.5" y1="716.4844" y2="716.4844"/></g><!--class eCourseUserRepository--><g id="elem_eCourseUserRepository"><rect codeLine="29" fill="#F1F1F1" height="66.6211" id="eCourseUserRepository" rx="2.5" ry="2.5" style="stroke:#181818;stroke-width:0.5;" width="184" x="115" y="629.5"/><ellipse cx="130" cy="645.5" fill="#B4A7E5" rx="11" ry="11" style="stroke:#181818;stroke-width:1.0;"/><path d="M130.9531,642.1406 L130.9531,648.7969 L132.6719,648.7969 Q133.2813,648.7969 133.5469,649.0313 Q133.8125,649.2656 133.8125,649.6563 Q133.8125,650.0313 133.5469,650.2656 Q133.2813,650.5 132.6719,650.5 L127.5313,650.5 Q126.9219,650.5 126.6563,650.2656 Q126.3906,650.0313 126.3906,649.6406 Q126.3906,649.2656 126.6563,649.0313 Q126.9219,648.7969 127.5313,648.7969 L129.25,648.7969 L129.25,642.1406 L127.5313,642.1406 Q126.9219,642.1406 126.6563,641.9063 Q126.3906,641.6719 126.3906,641.2813 Q126.3906,640.9063 126.6563,640.6719 Q126.9219,640.4375 127.5313,640.4375 L132.6719,640.4375 Q133.2813,640.4375 133.5469,640.6719 Q133.8125,640.9063 133.8125,641.2813 Q133.8125,641.6719 133.5469,641.9063 Q133.2813,642.1406 132.6719,642.1406 L130.9531,642.1406 Z " fill="#000000"/><text fill="#000000" font-family="sans-serif" font-size="14" font-style="italic" lengthAdjust="spacing" textLength="152" x="144" y="651.2969">eCourseUserRepository</text><line style="stroke:#181818;stroke-width:0.5;" x1="116" x2="298" y1="661.5" y2="661.5"/><line style="stroke:#181818;stroke-width:0.5;" x1="116" x2="298" y1="669.5" y2="669.5"/><ellipse cx="126" cy="684.3105" fill="#84BE84" rx="3" ry="3" style="stroke:#038048;stroke-width:1.0;"/><text fill="#000000" font-family="sans-serif" font-size="14" lengthAdjust="spacing" textLength="133" x="135" y="688.6074">containsUser( email )</text></g><!--class MeetingRepository--><g id="elem_MeetingRepository"><rect codeLine="32" fill="#F1F1F1" height="66.6211" id="MeetingRepository" rx="2.5" ry="2.5" style="stroke:#181818;stroke-width:0.5;" width="151" x="715.5" y="830.5"/><ellipse cx="730.5" cy="846.5" fill="#B4A7E5" rx="11" ry="11" style="stroke:#181818;stroke-width:1.0;"/><path d="M731.4531,843.1406 L731.4531,849.7969 L733.1719,849.7969 Q733.7813,849.7969 734.0469,850.0313 Q734.3125,850.2656 734.3125,850.6563 Q734.3125,851.0313 734.0469,851.2656 Q733.7813,851.5 733.1719,851.5 L728.0313,851.5 Q727.4219,851.5 727.1563,851.2656 Q726.8906,851.0313 726.8906,850.6406 Q726.8906,850.2656 727.1563,850.0313 Q727.4219,849.7969 728.0313,849.7969 L729.75,849.7969 L729.75,843.1406 L728.0313,843.1406 Q727.4219,843.1406 727.1563,842.9063 Q726.8906,842.6719 726.8906,842.2813 Q726.8906,841.9063 727.1563,841.6719 Q727.4219,841.4375 728.0313,841.4375 L733.1719,841.4375 Q733.7813,841.4375 734.0469,841.6719 Q734.3125,841.9063 734.3125,842.2813 Q734.3125,842.6719 734.0469,842.9063 Q733.7813,843.1406 733.1719,843.1406 L731.4531,843.1406 Z " fill="#000000"/><text fill="#000000" font-family="sans-serif" font-size="14" font-style="italic" lengthAdjust="spacing" textLength="119" x="744.5" y="852.2969">MeetingRepository</text><line style="stroke:#181818;stroke-width:0.5;" x1="716.5" x2="865.5" y1="862.5" y2="862.5"/><line style="stroke:#181818;stroke-width:0.5;" x1="716.5" x2="865.5" y1="870.5" y2="870.5"/><ellipse cx="726.5" cy="885.3105" fill="#84BE84" rx="3" ry="3" style="stroke:#038048;stroke-width:1.0;"/><text fill="#000000" font-family="sans-serif" font-size="14" lengthAdjust="spacing" textLength="98" x="735.5" y="889.6074">save( meeting )</text></g><!--class InviteMeetingEvent--><g id="elem_InviteMeetingEvent"><rect codeLine="35" fill="#F1F1F1" height="122.4844" id="InviteMeetingEvent" rx="2.5" ry="2.5" style="stroke:#181818;stroke-width:0.5;" width="151" x="252.5" y="803"/><ellipse cx="267.5" cy="819" fill="#ADD1B2" rx="11" ry="11" style="stroke:#181818;stroke-width:1.0;"/><path d="M270.2656,814.875 Q270.4219,814.6563 270.6094,814.5469 Q270.7969,814.4375 271.0156,814.4375 Q271.3906,814.4375 271.625,814.7031 Q271.8594,814.9531 271.8594,815.5625 L271.8594,817.0156 Q271.8594,817.625 271.625,817.8906 Q271.3906,818.1563 271.0156,818.1563 Q270.6719,818.1563 270.4688,817.9531 Q270.2656,817.7656 270.1563,817.25 Q270.1094,816.8906 269.9219,816.7031 Q269.5938,816.3281 268.9844,816.1094 Q268.375,815.8906 267.75,815.8906 Q266.9844,815.8906 266.3438,816.2188 Q265.7188,816.5469 265.2188,817.2969 Q264.7344,818.0469 264.7344,819.0781 L264.7344,820.1719 Q264.7344,821.4063 265.625,822.2344 Q266.5156,823.0469 268.1094,823.0469 Q269.0469,823.0469 269.7031,822.7969 Q270.0938,822.6406 270.5156,822.2031 Q270.7813,821.9375 270.9219,821.8594 Q271.0781,821.7813 271.2813,821.7813 Q271.6094,821.7813 271.8594,822.0469 Q272.125,822.2969 272.125,822.6406 Q272.125,822.9844 271.7813,823.3906 Q271.2813,823.9688 270.4844,824.2969 Q269.4063,824.75 268.1094,824.75 Q266.5938,824.75 265.3906,824.125 Q264.4063,823.625 263.7188,822.5625 Q263.0313,821.4844 263.0313,820.2031 L263.0313,819.0469 Q263.0313,817.7188 263.6406,816.5781 Q264.2656,815.4219 265.3594,814.8125 Q266.4531,814.1875 267.6875,814.1875 Q268.4219,814.1875 269.0625,814.3594 Q269.7188,814.5156 270.2656,814.875 Z " fill="#000000"/><text fill="#000000" font-family="sans-serif" font-size="14" lengthAdjust="spacing" textLength="119" x="281.5" y="824.7969">InviteMeetingEvent</text><line style="stroke:#181818;stroke-width:0.5;" x1="253.5" x2="402.5" y1="835" y2="835"/><ellipse cx="263.5" cy="849.8105" fill="#000000" rx="3" ry="3" style="stroke:#000000;stroke-width:1.0;"/><text fill="#000000" font-family="sans-serif" font-size="14" lengthAdjust="spacing" textLength="26" x="272.5" y="854.1074">time</text><ellipse cx="263.5" cy="868.4316" fill="#000000" rx="3" ry="3" style="stroke:#000000;stroke-width:1.0;"/><text fill="#000000" font-family="sans-serif" font-size="14" lengthAdjust="spacing" textLength="52" x="272.5" y="872.7285">duration</text><ellipse cx="263.5" cy="887.0527" fill="#000000" rx="3" ry="3" style="stroke:#000000;stroke-width:1.0;"/><text fill="#000000" font-family="sans-serif" font-size="14" lengthAdjust="spacing" textLength="91" x="272.5" y="891.3496">usrDestination</text><ellipse cx="263.5" cy="905.6738" fill="#000000" rx="3" ry="3" style="stroke:#000000;stroke-width:1.0;"/><text fill="#000000" font-family="sans-serif" font-size="14" lengthAdjust="spacing" textLength="38" x="272.5" y="909.9707">owner</text><line style="stroke:#181818;stroke-width:0.5;" x1="253.5" x2="402.5" y1="917.4844" y2="917.4844"/></g><!--class EventPublisher--><g id="elem_EventPublisher"><rect codeLine="41" fill="#F1F1F1" height="66.6211" id="EventPublisher" rx="2.5" ry="2.5" style="stroke:#181818;stroke-width:0.5;" width="127" x="334.5" y="629.5"/><ellipse cx="349.5" cy="645.5" fill="#ADD1B2" rx="11" ry="11" style="stroke:#181818;stroke-width:1.0;"/><path d="M352.2656,641.375 Q352.4219,641.1563 352.6094,641.0469 Q352.7969,640.9375 353.0156,640.9375 Q353.3906,640.9375 353.625,641.2031 Q353.8594,641.4531 353.8594,642.0625 L353.8594,643.5156 Q353.8594,644.125 353.625,644.3906 Q353.3906,644.6563 353.0156,644.6563 Q352.6719,644.6563 352.4688,644.4531 Q352.2656,644.2656 352.1563,643.75 Q352.1094,643.3906 351.9219,643.2031 Q351.5938,642.8281 350.9844,642.6094 Q350.375,642.3906 349.75,642.3906 Q348.9844,642.3906 348.3438,642.7188 Q347.7188,643.0469 347.2188,643.7969 Q346.7344,644.5469 346.7344,645.5781 L346.7344,646.6719 Q346.7344,647.9063 347.625,648.7344 Q348.5156,649.5469 350.1094,649.5469 Q351.0469,649.5469 351.7031,649.2969 Q352.0938,649.1406 352.5156,648.7031 Q352.7813,648.4375 352.9219,648.3594 Q353.0781,648.2813 353.2813,648.2813 Q353.6094,648.2813 353.8594,648.5469 Q354.125,648.7969 354.125,649.1406 Q354.125,649.4844 353.7813,649.8906 Q353.2813,650.4688 352.4844,650.7969 Q351.4063,651.25 350.1094,651.25 Q348.5938,651.25 347.3906,650.625 Q346.4063,650.125 345.7188,649.0625 Q345.0313,647.9844 345.0313,646.7031 L345.0313,645.5469 Q345.0313,644.2188 345.6406,643.0781 Q346.2656,641.9219 347.3594,641.3125 Q348.4531,640.6875 349.6875,640.6875 Q350.4219,640.6875 351.0625,640.8594 Q351.7188,641.0156 352.2656,641.375 Z " fill="#000000"/><text fill="#000000" font-family="sans-serif" font-size="14" lengthAdjust="spacing" textLength="95" x="363.5" y="651.2969">EventPublisher</text><line style="stroke:#181818;stroke-width:0.5;" x1="335.5" x2="460.5" y1="661.5" y2="661.5"/><line style="stroke:#181818;stroke-width:0.5;" x1="335.5" x2="460.5" y1="669.5" y2="669.5"/><ellipse cx="345.5" cy="684.3105" fill="#84BE84" rx="3" ry="3" style="stroke:#038048;stroke-width:1.0;"/><text fill="#000000" font-family="sans-serif" font-size="14" lengthAdjust="spacing" textLength="98" x="354.5" y="688.6074">publish( event )</text></g><!--class InviteMeetingWatchDog--><g id="elem_InviteMeetingWatchDog"><rect codeLine="44" fill="#F1F1F1" height="66.6211" id="InviteMeetingWatchDog" rx="2.5" ry="2.5" style="stroke:#181818;stroke-width:0.5;" width="181" x="499.5" y="830.5"/><ellipse cx="514.5" cy="846.5" fill="#ADD1B2" rx="11" ry="11" style="stroke:#181818;stroke-width:1.0;"/><path d="M517.2656,842.375 Q517.4219,842.1563 517.6094,842.0469 Q517.7969,841.9375 518.0156,841.9375 Q518.3906,841.9375 518.625,842.2031 Q518.8594,842.4531 518.8594,843.0625 L518.8594,844.5156 Q518.8594,845.125 518.625,845.3906 Q518.3906,845.6563 518.0156,845.6563 Q517.6719,845.6563 517.4688,845.4531 Q517.2656,845.2656 517.1563,844.75 Q517.1094,844.3906 516.9219,844.2031 Q516.5938,843.8281 515.9844,843.6094 Q515.375,843.3906 514.75,843.3906 Q513.9844,843.3906 513.3438,843.7188 Q512.7188,844.0469 512.2188,844.7969 Q511.7344,845.5469 511.7344,846.5781 L511.7344,847.6719 Q511.7344,848.9063 512.625,849.7344 Q513.5156,850.5469 515.1094,850.5469 Q516.0469,850.5469 516.7031,850.2969 Q517.0938,850.1406 517.5156,849.7031 Q517.7813,849.4375 517.9219,849.3594 Q518.0781,849.2813 518.2813,849.2813 Q518.6094,849.2813 518.8594,849.5469 Q519.125,849.7969 519.125,850.1406 Q519.125,850.4844 518.7813,850.8906 Q518.2813,851.4688 517.4844,851.7969 Q516.4063,852.25 515.1094,852.25 Q513.5938,852.25 512.3906,851.625 Q511.4063,851.125 510.7188,850.0625 Q510.0313,848.9844 510.0313,847.7031 L510.0313,846.5469 Q510.0313,845.2188 510.6406,844.0781 Q511.2656,842.9219 512.3594,842.3125 Q513.4531,841.6875 514.6875,841.6875 Q515.4219,841.6875 516.0625,841.8594 Q516.7188,842.0156 517.2656,842.375 Z " fill="#000000"/><text fill="#000000" font-family="sans-serif" font-size="14" lengthAdjust="spacing" textLength="149" x="528.5" y="852.2969">InviteMeetingWatchDog</text><line style="stroke:#181818;stroke-width:0.5;" x1="500.5" x2="679.5" y1="862.5" y2="862.5"/><line style="stroke:#181818;stroke-width:0.5;" x1="500.5" x2="679.5" y1="870.5" y2="870.5"/><ellipse cx="510.5" cy="885.3105" fill="#84BE84" rx="3" ry="3" style="stroke:#038048;stroke-width:1.0;"/><text fill="#000000" font-family="sans-serif" font-size="14" lengthAdjust="spacing" textLength="105" x="519.5" y="889.6074">onEvent( event )</text></g><!--class InvitationToMeetingController--><g id="elem_InvitationToMeetingController"><rect codeLine="47" fill="#F1F1F1" height="66.6211" id="InvitationToMeetingController" rx="2.5" ry="2.5" style="stroke:#181818;stroke-width:0.5;" width="217" x="481.5" y="986"/><ellipse cx="496.5" cy="1002" fill="#ADD1B2" rx="11" ry="11" style="stroke:#181818;stroke-width:1.0;"/><path d="M499.2656,997.875 Q499.4219,997.6563 499.6094,997.5469 Q499.7969,997.4375 500.0156,997.4375 Q500.3906,997.4375 500.625,997.7031 Q500.8594,997.9531 500.8594,998.5625 L500.8594,1000.0156 Q500.8594,1000.625 500.625,1000.8906 Q500.3906,1001.1563 500.0156,1001.1563 Q499.6719,1001.1563 499.4688,1000.9531 Q499.2656,1000.7656 499.1563,1000.25 Q499.1094,999.8906 498.9219,999.7031 Q498.5938,999.3281 497.9844,999.1094 Q497.375,998.8906 496.75,998.8906 Q495.9844,998.8906 495.3438,999.2188 Q494.7188,999.5469 494.2188,1000.2969 Q493.7344,1001.0469 493.7344,1002.0781 L493.7344,1003.1719 Q493.7344,1004.4063 494.625,1005.2344 Q495.5156,1006.0469 497.1094,1006.0469 Q498.0469,1006.0469 498.7031,1005.7969 Q499.0938,1005.6406 499.5156,1005.2031 Q499.7813,1004.9375 499.9219,1004.8594 Q500.0781,1004.7813 500.2813,1004.7813 Q500.6094,1004.7813 500.8594,1005.0469 Q501.125,1005.2969 501.125,1005.6406 Q501.125,1005.9844 500.7813,1006.3906 Q500.2813,1006.9688 499.4844,1007.2969 Q498.4063,1007.75 497.1094,1007.75 Q495.5938,1007.75 494.3906,1007.125 Q493.4063,1006.625 492.7188,1005.5625 Q492.0313,1004.4844 492.0313,1003.2031 L492.0313,1002.0469 Q492.0313,1000.7188 492.6406,999.5781 Q493.2656,998.4219 494.3594,997.8125 Q495.4531,997.1875 496.6875,997.1875 Q497.4219,997.1875 498.0625,997.3594 Q498.7188,997.5156 499.2656,997.875 Z " fill="#000000"/><text fill="#000000" font-family="sans-serif" font-size="14" lengthAdjust="spacing" textLength="185" x="510.5" y="1007.7969">InvitationToMeetingController</text><line style="stroke:#181818;stroke-width:0.5;" x1="482.5" x2="697.5" y1="1018" y2="1018"/><line style="stroke:#181818;stroke-width:0.5;" x1="482.5" x2="697.5" y1="1026" y2="1026"/><ellipse cx="492.5" cy="1040.8105" fill="#84BE84" rx="3" ry="3" style="stroke:#038048;stroke-width:1.0;"/><text fill="#000000" font-family="sans-serif" font-size="14" lengthAdjust="spacing" textLength="115" x="501.5" y="1045.1074">inviteUser( event )</text></g><!--class InvitationToMeetingService--><g id="elem_InvitationToMeetingService"><rect codeLine="50" fill="#F1F1F1" height="85.2422" id="InvitationToMeetingService" rx="2.5" ry="2.5" style="stroke:#181818;stroke-width:0.5;" width="259" x="460.5" y="1114"/><ellipse cx="501.15" cy="1130" fill="#ADD1B2" rx="11" ry="11" style="stroke:#181818;stroke-width:1.0;"/><path d="M503.9156,1125.875 Q504.0719,1125.6563 504.2594,1125.5469 Q504.4469,1125.4375 504.6656,1125.4375 Q505.0406,1125.4375 505.275,1125.7031 Q505.5094,1125.9531 505.5094,1126.5625 L505.5094,1128.0156 Q505.5094,1128.625 505.275,1128.8906 Q505.0406,1129.1563 504.6656,1129.1563 Q504.3219,1129.1563 504.1188,1128.9531 Q503.9156,1128.7656 503.8063,1128.25 Q503.7594,1127.8906 503.5719,1127.7031 Q503.2438,1127.3281 502.6344,1127.1094 Q502.025,1126.8906 501.4,1126.8906 Q500.6344,1126.8906 499.9938,1127.2188 Q499.3688,1127.5469 498.8688,1128.2969 Q498.3844,1129.0469 498.3844,1130.0781 L498.3844,1131.1719 Q498.3844,1132.4063 499.275,1133.2344 Q500.1656,1134.0469 501.7594,1134.0469 Q502.6969,1134.0469 503.3531,1133.7969 Q503.7438,1133.6406 504.1656,1133.2031 Q504.4313,1132.9375 504.5719,1132.8594 Q504.7281,1132.7813 504.9313,1132.7813 Q505.2594,1132.7813 505.5094,1133.0469 Q505.775,1133.2969 505.775,1133.6406 Q505.775,1133.9844 505.4313,1134.3906 Q504.9313,1134.9688 504.1344,1135.2969 Q503.0563,1135.75 501.7594,1135.75 Q500.2438,1135.75 499.0406,1135.125 Q498.0563,1134.625 497.3688,1133.5625 Q496.6813,1132.4844 496.6813,1131.2031 L496.6813,1130.0469 Q496.6813,1128.7188 497.2906,1127.5781 Q497.9156,1126.4219 499.0094,1125.8125 Q500.1031,1125.1875 501.3375,1125.1875 Q502.0719,1125.1875 502.7125,1125.3594 Q503.3688,1125.5156 503.9156,1125.875 Z " fill="#000000"/><text fill="#000000" font-family="sans-serif" font-size="14" lengthAdjust="spacing" textLength="170" x="520.85" y="1135.7969">InvitationToMeetingService</text><line style="stroke:#181818;stroke-width:0.5;" x1="461.5" x2="718.5" y1="1146" y2="1146"/><line style="stroke:#181818;stroke-width:0.5;" x1="461.5" x2="718.5" y1="1154" y2="1154"/><ellipse cx="471.5" cy="1168.8105" fill="#84BE84" rx="3" ry="3" style="stroke:#038048;stroke-width:1.0;"/><text fill="#000000" font-family="sans-serif" font-size="14" lengthAdjust="spacing" textLength="233" x="480.5" y="1173.1074">saveInvitation( event , sessionEmail )</text><ellipse cx="471.5" cy="1187.4316" fill="#84BE84" rx="3" ry="3" style="stroke:#038048;stroke-width:1.0;"/><text fill="#000000" font-family="sans-serif" font-size="14" lengthAdjust="spacing" textLength="233" x="480.5" y="1191.7285">notifyUser( sessionEmail, userEmail )</text></g><!--class MeetingInviteRepository--><g id="elem_MeetingInviteRepository"><rect codeLine="54" fill="#F1F1F1" height="66.6211" id="MeetingInviteRepository" rx="2.5" ry="2.5" style="stroke:#181818;stroke-width:0.5;" width="184" x="449" y="1497.5"/><ellipse cx="464" cy="1513.5" fill="#B4A7E5" rx="11" ry="11" style="stroke:#181818;stroke-width:1.0;"/><path d="M464.9531,1510.1406 L464.9531,1516.7969 L466.6719,1516.7969 Q467.2813,1516.7969 467.5469,1517.0313 Q467.8125,1517.2656 467.8125,1517.6563 Q467.8125,1518.0313 467.5469,1518.2656 Q467.2813,1518.5 466.6719,1518.5 L461.5313,1518.5 Q460.9219,1518.5 460.6563,1518.2656 Q460.3906,1518.0313 460.3906,1517.6406 Q460.3906,1517.2656 460.6563,1517.0313 Q460.9219,1516.7969 461.5313,1516.7969 L463.25,1516.7969 L463.25,1510.1406 L461.5313,1510.1406 Q460.9219,1510.1406 460.6563,1509.9063 Q460.3906,1509.6719 460.3906,1509.2813 Q460.3906,1508.9063 460.6563,1508.6719 Q460.9219,1508.4375 461.5313,1508.4375 L466.6719,1508.4375 Q467.2813,1508.4375 467.5469,1508.6719 Q467.8125,1508.9063 467.8125,1509.2813 Q467.8125,1509.6719 467.5469,1509.9063 Q467.2813,1510.1406 466.6719,1510.1406 L464.9531,1510.1406 Z " fill="#000000"/><text fill="#000000" font-family="sans-serif" font-size="14" font-style="italic" lengthAdjust="spacing" textLength="152" x="478" y="1519.2969">MeetingInviteRepository</text><line style="stroke:#181818;stroke-width:0.5;" x1="450" x2="632" y1="1529.5" y2="1529.5"/><line style="stroke:#181818;stroke-width:0.5;" x1="450" x2="632" y1="1537.5" y2="1537.5"/><ellipse cx="460" cy="1552.3105" fill="#84BE84" rx="3" ry="3" style="stroke:#038048;stroke-width:1.0;"/><text fill="#000000" font-family="sans-serif" font-size="14" lengthAdjust="spacing" textLength="131" x="469" y="1556.6074">save( meetingInvite )</text></g><!--class MeetingInvite--><g id="elem_MeetingInvite"><rect codeLine="57" fill="#F1F1F1" height="122.4844" id="MeetingInvite" rx="2.5" ry="2.5" style="stroke:#181818;stroke-width:0.5;" width="115" x="654.5" y="1278"/><ellipse cx="669.5" cy="1294" fill="#ADD1B2" rx="11" ry="11" style="stroke:#181818;stroke-width:1.0;"/><path d="M672.2656,1289.875 Q672.4219,1289.6563 672.6094,1289.5469 Q672.7969,1289.4375 673.0156,1289.4375 Q673.3906,1289.4375 673.625,1289.7031 Q673.8594,1289.9531 673.8594,1290.5625 L673.8594,1292.0156 Q673.8594,1292.625 673.625,1292.8906 Q673.3906,1293.1563 673.0156,1293.1563 Q672.6719,1293.1563 672.4688,1292.9531 Q672.2656,1292.7656 672.1563,1292.25 Q672.1094,1291.8906 671.9219,1291.7031 Q671.5938,1291.3281 670.9844,1291.1094 Q670.375,1290.8906 669.75,1290.8906 Q668.9844,1290.8906 668.3438,1291.2188 Q667.7188,1291.5469 667.2188,1292.2969 Q666.7344,1293.0469 666.7344,1294.0781 L666.7344,1295.1719 Q666.7344,1296.4063 667.625,1297.2344 Q668.5156,1298.0469 670.1094,1298.0469 Q671.0469,1298.0469 671.7031,1297.7969 Q672.0938,1297.6406 672.5156,1297.2031 Q672.7813,1296.9375 672.9219,1296.8594 Q673.0781,1296.7813 673.2813,1296.7813 Q673.6094,1296.7813 673.8594,1297.0469 Q674.125,1297.2969 674.125,1297.6406 Q674.125,1297.9844 673.7813,1298.3906 Q673.2813,1298.9688 672.4844,1299.2969 Q671.4063,1299.75 670.1094,1299.75 Q668.5938,1299.75 667.3906,1299.125 Q666.4063,1298.625 665.7188,1297.5625 Q665.0313,1296.4844 665.0313,1295.2031 L665.0313,1294.0469 Q665.0313,1292.7188 665.6406,1291.5781 Q666.2656,1290.4219 667.3594,1289.8125 Q668.4531,1289.1875 669.6875,1289.1875 Q670.4219,1289.1875 671.0625,1289.3594 Q671.7188,1289.5156 672.2656,1289.875 Z " fill="#000000"/><text fill="#000000" font-family="sans-serif" font-size="14" lengthAdjust="spacing" textLength="83" x="683.5" y="1299.7969">MeetingInvite</text><line style="stroke:#181818;stroke-width:0.5;" x1="655.5" x2="768.5" y1="1310" y2="1310"/><ellipse cx="665.5" cy="1324.8105" fill="#000000" rx="3" ry="3" style="stroke:#000000;stroke-width:1.0;"/><text fill="#000000" font-family="sans-serif" font-size="14" lengthAdjust="spacing" textLength="28" x="674.5" y="1329.1074">date</text><ellipse cx="665.5" cy="1343.4316" fill="#000000" rx="3" ry="3" style="stroke:#000000;stroke-width:1.0;"/><text fill="#000000" font-family="sans-serif" font-size="14" lengthAdjust="spacing" textLength="26" x="674.5" y="1347.7285">time</text><ellipse cx="665.5" cy="1362.0527" fill="#000000" rx="3" ry="3" style="stroke:#000000;stroke-width:1.0;"/><text fill="#000000" font-family="sans-serif" font-size="14" lengthAdjust="spacing" textLength="52" x="674.5" y="1366.3496">duration</text><ellipse cx="665.5" cy="1380.6738" fill="#000000" rx="3" ry="3" style="stroke:#000000;stroke-width:1.0;"/><text fill="#000000" font-family="sans-serif" font-size="14" lengthAdjust="spacing" textLength="63" x="674.5" y="1384.9707">meetingID</text><line style="stroke:#181818;stroke-width:0.5;" x1="655.5" x2="768.5" y1="1392.4844" y2="1392.4844"/></g><!--class EmailContainer--><g id="elem_EmailContainer"><rect codeLine="63" fill="#F1F1F1" height="85.2422" id="EmailContainer" rx="2.5" ry="2.5" style="stroke:#181818;stroke-width:0.5;" width="128" x="668" y="1488.5"/><ellipse cx="683" cy="1504.5" fill="#ADD1B2" rx="11" ry="11" style="stroke:#181818;stroke-width:1.0;"/><path d="M685.7656,1500.375 Q685.9219,1500.1563 686.1094,1500.0469 Q686.2969,1499.9375 686.5156,1499.9375 Q686.8906,1499.9375 687.125,1500.2031 Q687.3594,1500.4531 687.3594,1501.0625 L687.3594,1502.5156 Q687.3594,1503.125 687.125,1503.3906 Q686.8906,1503.6563 686.5156,1503.6563 Q686.1719,1503.6563 685.9688,1503.4531 Q685.7656,1503.2656 685.6563,1502.75 Q685.6094,1502.3906 685.4219,1502.2031 Q685.0938,1501.8281 684.4844,1501.6094 Q683.875,1501.3906 683.25,1501.3906 Q682.4844,1501.3906 681.8438,1501.7188 Q681.2188,1502.0469 680.7188,1502.7969 Q680.2344,1503.5469 680.2344,1504.5781 L680.2344,1505.6719 Q680.2344,1506.9063 681.125,1507.7344 Q682.0156,1508.5469 683.6094,1508.5469 Q684.5469,1508.5469 685.2031,1508.2969 Q685.5938,1508.1406 686.0156,1507.7031 Q686.2813,1507.4375 686.4219,1507.3594 Q686.5781,1507.2813 686.7813,1507.2813 Q687.1094,1507.2813 687.3594,1507.5469 Q687.625,1507.7969 687.625,1508.1406 Q687.625,1508.4844 687.2813,1508.8906 Q686.7813,1509.4688 685.9844,1509.7969 Q684.9063,1510.25 683.6094,1510.25 Q682.0938,1510.25 680.8906,1509.625 Q679.9063,1509.125 679.2188,1508.0625 Q678.5313,1506.9844 678.5313,1505.7031 L678.5313,1504.5469 Q678.5313,1503.2188 679.1406,1502.0781 Q679.7656,1500.9219 680.8594,1500.3125 Q681.9531,1499.6875 683.1875,1499.6875 Q683.9219,1499.6875 684.5625,1499.8594 Q685.2188,1500.0156 685.7656,1500.375 Z " fill="#000000"/><text fill="#000000" font-family="sans-serif" font-size="14" lengthAdjust="spacing" textLength="96" x="697" y="1510.2969">EmailContainer</text><line style="stroke:#181818;stroke-width:0.5;" x1="669" x2="795" y1="1520.5" y2="1520.5"/><ellipse cx="679" cy="1535.3105" fill="#000000" rx="3" ry="3" style="stroke:#000000;stroke-width:1.0;"/><text fill="#000000" font-family="sans-serif" font-size="14" lengthAdjust="spacing" textLength="88" x="688" y="1539.6074">recipientEmail</text><ellipse cx="679" cy="1553.9316" fill="#000000" rx="3" ry="3" style="stroke:#000000;stroke-width:1.0;"/><text fill="#000000" font-family="sans-serif" font-size="14" lengthAdjust="spacing" textLength="78" x="688" y="1558.2285">senderEmail</text><line style="stroke:#181818;stroke-width:0.5;" x1="669" x2="795" y1="1565.7422" y2="1565.7422"/></g><!--class MeetingInviteState--><g id="elem_MeetingInviteState"><rect codeLine="67" fill="#F1F1F1" height="103.8633" id="MeetingInviteState" rx="2.5" ry="2.5" style="stroke:#181818;stroke-width:0.5;" width="148" x="831" y="1479"/><ellipse cx="846" cy="1495" fill="#EB937F" rx="11" ry="11" style="stroke:#181818;stroke-width:1.0;"/><path d="M844.8594,1495.7969 L844.8594,1498.2969 L849.1875,1498.2969 L849.1875,1497.375 Q849.1875,1496.7656 849.4219,1496.5 Q849.6719,1496.2344 850.0469,1496.2344 Q850.4219,1496.2344 850.6563,1496.5 Q850.8906,1496.7656 850.8906,1497.375 L850.8906,1500 L842.8906,1500 Q842.2656,1500 842,1499.7656 Q841.75,1499.5313 841.75,1499.1406 Q841.75,1498.7656 842.0156,1498.5313 Q842.2813,1498.2969 842.8906,1498.2969 L843.1563,1498.2969 L843.1563,1491.6406 L842.8906,1491.6406 Q842.2656,1491.6406 842,1491.4063 Q841.75,1491.1719 841.75,1490.7813 Q841.75,1490.4063 842,1490.1719 Q842.2656,1489.9375 842.8906,1489.9375 L850.5156,1489.9375 L850.5156,1492.5313 Q850.5156,1493.1406 850.2813,1493.4063 Q850.0625,1493.6563 849.6719,1493.6563 Q849.2969,1493.6563 849.0625,1493.4063 Q848.8281,1493.1406 848.8281,1492.5313 L848.8281,1491.6406 L844.8594,1491.6406 L844.8594,1494.0938 L846.3438,1494.0938 Q846.3438,1493.4375 846.4688,1493.25 Q846.7344,1492.8438 847.2031,1492.8438 Q847.5781,1492.8438 847.8125,1493.1094 Q848.0469,1493.3594 848.0469,1493.9688 L848.0469,1495.9375 Q848.0469,1496.4844 847.9219,1496.6719 Q847.6563,1497.0625 847.2031,1497.0625 Q846.7344,1497.0625 846.4688,1496.6563 Q846.3438,1496.4688 846.3438,1495.7969 L844.8594,1495.7969 Z " fill="#000000"/><text fill="#000000" font-family="sans-serif" font-size="14" lengthAdjust="spacing" textLength="116" x="860" y="1500.7969">MeetingInviteState</text><line style="stroke:#181818;stroke-width:0.5;" x1="832" x2="978" y1="1511" y2="1511"/><text fill="#000000" font-family="sans-serif" font-size="14" lengthAdjust="spacing" textLength="60" x="837" y="1530.1074">PENDING</text><text fill="#000000" font-family="sans-serif" font-size="14" lengthAdjust="spacing" textLength="75" x="837" y="1548.7285">ACCEPTED</text><text fill="#000000" font-family="sans-serif" font-size="14" lengthAdjust="spacing" textLength="72" x="837" y="1567.3496">REJECTED</text><line style="stroke:#181818;stroke-width:0.5;" x1="832" x2="978" y1="1574.8633" y2="1574.8633"/></g><!--link SystemUser to Email--><g id="link_SystemUser_Email"><path codeLine="74" d="M335.72,64 C347.24,64 358.76,64 370.28,64 " fill="none" id="SystemUser-Email" style="stroke:#181818;stroke-width:1.0;"/></g><!--link SystemUser to Meeting--><g id="link_SystemUser_Meeting"><path codeLine="75" d="M335.79,111.37 C341.39,114.97 347.17,118.27 353,121 C434.24,159.12 748,115.26 748,205 C748,205 748,205 748,490 C748,527.18 748,568.87 748,601.9 " fill="none" id="SystemUser-Meeting" style="stroke:#181818;stroke-width:1.0;"/></g><!--link SystemUser to ScheduleMeetingUI--><g id="link_SystemUser_ScheduleMeetingUI"><path codeLine="76" d="M282,121.14 C282,142.28 282,165.19 282,181.71 " fill="none" id="SystemUser-ScheduleMeetingUI" style="stroke:#181818;stroke-width:1.0;stroke-dasharray:7.0,7.0;"/></g><!--link ScheduleMeetingUI to ScheduleMeetingController--><g id="link_ScheduleMeetingUI_ScheduleMeetingController"><path codeLine="77" d="M282,230.02 C282,247 282,270.58 282,290.84 " fill="none" id="ScheduleMeetingUI-ScheduleMeetingController" style="stroke:#181818;stroke-width:1.0;stroke-dasharray:7.0,7.0;"/></g><!--link ScheduleMeetingController to ScheduleMeetingService--><g id="link_ScheduleMeetingController_ScheduleMeetingService"><path codeLine="78" d="M345.05,376.04 C373.49,394.77 407.35,417.08 437.34,436.84 " fill="none" id="ScheduleMeetingController-ScheduleMeetingService" style="stroke:#181818;stroke-width:1.0;stroke-dasharray:7.0,7.0;"/></g><!--link ScheduleMeetingService to eCourseUserRepository--><g id="link_ScheduleMeetingService_eCourseUserRepository"><path codeLine="79" d="M423.42,541.14 C372.18,569.76 309.83,604.58 265.24,629.48 " fill="none" id="ScheduleMeetingService-eCourseUserRepository" style="stroke:#181818;stroke-width:1.0;stroke-dasharray:7.0,7.0;"/></g><!--link ScheduleMeetingService to MeetingRepository--><g id="link_ScheduleMeetingService_MeetingRepository"><path codeLine="80" d="M534.4,541.11 C554.72,590.77 589.81,666.86 634,724 C666.07,765.47 711.74,804.27 745.56,830.28 " fill="none" id="ScheduleMeetingService-MeetingRepository" style="stroke:#181818;stroke-width:1.0;stroke-dasharray:7.0,7.0;"/></g><!--link ScheduleMeetingService to Meeting--><g id="link_ScheduleMeetingService_Meeting"><path codeLine="81" d="M584.28,541.14 C610.17,560.25 639.8,582.13 666.68,601.97 " fill="none" id="ScheduleMeetingService-Meeting" style="stroke:#181818;stroke-width:1.0;stroke-dasharray:7.0,7.0;"/></g><!--link SystemUser to eCourseUserRepository--><g id="link_SystemUser_eCourseUserRepository"><path codeLine="82" d="M228.46,68.57 C148.19,77.15 6,106.27 6,205 C6,205 6,205 6,490 C6,555.68 68.72,601.65 124.09,629.44 " fill="none" id="SystemUser-eCourseUserRepository" style="stroke:#181818;stroke-width:1.0;stroke-dasharray:7.0,7.0;"/><text fill="#000000" font-family="sans-serif" font-size="13" lengthAdjust="spacing" textLength="25" x="7" y="339.0283">repo</text></g><!--link Meeting to MeetingRepository--><g id="link_Meeting_MeetingRepository"><path codeLine="83" d="M761.02,724.25 C768.56,759.14 777.75,801.7 783.96,830.41 " fill="none" id="Meeting-MeetingRepository" style="stroke:#181818;stroke-width:1.0;stroke-dasharray:7.0,7.0;"/><text fill="#000000" font-family="sans-serif" font-size="13" lengthAdjust="spacing" textLength="25" x="771" y="769.0283">repo</text></g><!--link ScheduleMeetingService to InviteMeetingEvent--><g id="link_ScheduleMeetingService_InviteMeetingEvent"><path codeLine="84" d="M516.64,541.42 C516.1,590.99 509.55,666.69 479,724 C461.07,757.64 431.75,787.45 403.69,810.74 " fill="none" id="ScheduleMeetingService-InviteMeetingEvent" style="stroke:#181818;stroke-width:1.0;stroke-dasharray:7.0,7.0;"/></g><!--link ScheduleMeetingService to EventPublisher--><g id="link_ScheduleMeetingService_EventPublisher"><path codeLine="85" d="M480.21,541.14 C460.75,569.76 437.06,604.58 420.12,629.48 " fill="none" id="ScheduleMeetingService-EventPublisher" style="stroke:#181818;stroke-width:1.0;stroke-dasharray:7.0,7.0;"/></g><!--link EventPublisher to InviteMeetingEvent--><g id="link_EventPublisher_InviteMeetingEvent"><path codeLine="86" d="M386.44,696.86 C376.34,725.56 361.43,767.96 349.2,802.74 " fill="none" id="EventPublisher-InviteMeetingEvent" style="stroke:#181818;stroke-width:1.0;stroke-dasharray:7.0,7.0;"/></g><!--link ScheduleMeetingController to AuthenticationService--><g id="link_ScheduleMeetingController_AuthenticationService"><path codeLine="88" d="M244.66,376.04 C222.3,400.9 194.3,432.05 173.5,455.18 " fill="none" id="ScheduleMeetingController-AuthenticationService" style="stroke:#181818;stroke-width:1.0;stroke-dasharray:7.0,7.0;"/></g><!--link ScheduleMeetingController to eCourseUserRepository--><g id="link_ScheduleMeetingController_eCourseUserRepository"><path codeLine="89" d="M276.44,376.38 C270.47,418.36 259.92,484.65 246,541 C238.48,571.43 227.31,605.33 218.84,629.49 " fill="none" id="ScheduleMeetingController-eCourseUserRepository" style="stroke:#181818;stroke-width:1.0;stroke-dasharray:7.0,7.0;"/></g><!--link InviteMeetingEvent to InviteMeetingWatchDog--><g id="link_InviteMeetingEvent_InviteMeetingWatchDog"><path codeLine="92" d="M403.78,864 C433.55,864 467.98,864 499.08,864 " fill="none" id="InviteMeetingEvent-InviteMeetingWatchDog" style="stroke:#181818;stroke-width:1.0;stroke-dasharray:7.0,7.0;"/><polygon fill="#000000" points="421,851.6455,430.0451,854.5844,430.0451,848.7066,421,851.6455" style="stroke:#000000;stroke-width:1.0;"/><text fill="#000000" font-family="sans-serif" font-size="13" lengthAdjust="spacing" textLength="46" x="435" y="857.0283">catches</text></g><!--link InviteMeetingWatchDog to InvitationToMeetingController--><g id="link_InviteMeetingWatchDog_InvitationToMeetingController"><path codeLine="93" d="M590,897.55 C590,923.6 590,959.96 590,985.99 " fill="none" id="InviteMeetingWatchDog-InvitationToMeetingController" style="stroke:#181818;stroke-width:1.0;stroke-dasharray:7.0,7.0;"/></g><!--link InvitationToMeetingController to InvitationToMeetingService--><g id="link_InvitationToMeetingController_InvitationToMeetingService"><path codeLine="94" d="M590,1053.18 C590,1071.44 590,1094.38 590,1113.91 " fill="none" id="InvitationToMeetingController-InvitationToMeetingService" style="stroke:#181818;stroke-width:1.0;stroke-dasharray:7.0,7.0;"/></g><!--link InvitationToMeetingService to MeetingInvite--><g id="link_InvitationToMeetingService_MeetingInvite"><path codeLine="95" d="M618.3,1199.36 C634.06,1222.69 653.97,1252.14 671.38,1277.9 " fill="none" id="InvitationToMeetingService-MeetingInvite" style="stroke:#181818;stroke-width:1.0;stroke-dasharray:7.0,7.0;"/><polygon fill="#000000" points="658.7997,1242.7881,656.1699,1233.6484,651.3,1236.9397,658.7997,1242.7881" style="stroke:#000000;stroke-width:1.0;"/><text fill="#000000" font-family="sans-serif" font-size="13" lengthAdjust="spacing" textLength="43" x="665" y="1244.0283">creates</text></g><!--link MeetingInvite to MeetingInviteRepository--><g id="link_MeetingInvite_MeetingInviteRepository"><path codeLine="96" d="M657.89,1400.12 C628.93,1432.3 594.39,1470.68 570.4,1497.34 " fill="none" id="MeetingInvite-MeetingInviteRepository" style="stroke:#181818;stroke-width:1.0;stroke-dasharray:7.0,7.0;"/><text fill="#000000" font-family="sans-serif" font-size="13" lengthAdjust="spacing" textLength="25" x="627" y="1445.0283">repo</text></g><!--link InvitationToMeetingService to MeetingInviteRepository--><g id="link_InvitationToMeetingService_MeetingInviteRepository"><path codeLine="97" d="M584.52,1199.15 C574.68,1273.95 554.21,1429.55 545.3,1497.3 " fill="none" id="InvitationToMeetingService-MeetingInviteRepository" style="stroke:#181818;stroke-width:1.0;stroke-dasharray:7.0,7.0;"/></g><!--link MeetingInvite to MeetingInviteState--><g id="link_MeetingInvite_MeetingInviteState"><path codeLine="99" d="M769.64,1396.75 C796.08,1422.77 827.19,1453.4 852.91,1478.72 " fill="none" id="MeetingInvite-MeetingInviteState" style="stroke:#181818;stroke-width:1.0;stroke-dasharray:7.0,7.0;"/></g><!--link MeetingInvite to EmailContainer--><g id="link_MeetingInvite_EmailContainer"><path codeLine="100" d="M718.33,1400.12 C721.35,1428.82 724.89,1462.45 727.61,1488.3 " fill="none" id="MeetingInvite-EmailContainer" style="stroke:#181818;stroke-width:1.0;stroke-dasharray:7.0,7.0;"/></g><!--SRC=[bLLBZzem4BxxL_XMsFAu8uIq2cb5rIAqxBPdRvWbhX8RsGuLMkr_xyIn8Gydj3dPCzyylfdnv5Dgp4alvlDJneGfycoMo7oUP4phwO6pes8v8VPAznTj87_HeEXogQGqgnKUOc6ukU3ndL3y7kYN8iksB0TttQTI6Nl_S7xYdF4CBN-oh00gNtz3WgwkKP8K3aK6Fm0C5yUNpVlLiAMAf31APXceAlHdgfk04JKyXmaz58ePBiM4VkVQB6ty5Hrx8tQ-6UJL0PK-w6DXKa2EYNMn1tNc2Lm3WjOe7OtxScpXpopZ1sPWnnHwv2SikHw5imfI2JAPKFb7O5F-aP1J-NQLVjtHUtTN6m8YMIWDjzwldDR6HATS651lB07ge2Ne2KvISoFLnJDFi5cC2rrgHnJi28mRvYwlhcd99qHa8yxSUARn6Pj4wNrMXLPhq6XI5teoRa1BNxlYDUCwnRfIdyYf4c7wDbXF9h-OITArF7ehAQo_7YkRnRFi7MbkNRkgtNVGdayitGtbFKpytCQk3HLOICFVBbMeEc22DGCLzxUied-dSHMeEuULtFUjV1ntM-Wzhfih9Qf6pDVkWIh09yQHiLKxeGPnS6pG74IHDpFPOwrSEhjukzvilzhpOnJ5k-TuRIzFyRSuAYyVX93QMfnMYJH4K- - -BftDkdkET2G1s6r0IAycOER6WeJ5fK7myGxWEw_rFhPLW614ki2kdIHn9i587jCViBiP1i3DrqvQZp_iRRZumL_6i4cu_8G4TjnCyMDgPk6biw19UG9DboG8k1BgMpnaKDjZxZdsgsgTT9i0KrM0RqtJ5Mbgsj1kw_yZJhsSms7io-zYchk5_0K0]--></g></svg>