<?xml version="1.0" encoding="us-ascii" standalone="no"?><svg xmlns="http://www.w3.org/2000/svg" xmlns:xlink="http://www.w3.org/1999/xlink" contentStyleType="text/css" height="532px" preserveAspectRatio="none" style="width:381px;height:532px;background:#FFFFFF;" version="1.1" viewBox="0 0 381 532" width="381px" zoomAndPan="magnify"><defs/><g><rect fill="#FFFFFF" height="338.2012" style="stroke:#181818;stroke-width:1.0;" width="10" x="32.5" y="93.6211"/><rect fill="#FFFFFF" height="31.291" style="stroke:#181818;stroke-width:1.0;" width="10" x="328.5" y="116.9121"/><rect fill="#FFFFFF" height="57.582" style="stroke:#181818;stroke-width:1.0;" width="10" x="328.5" y="179.4941"/><rect fill="#FFFFFF" height="38.291" style="stroke:#181818;stroke-width:1.0;" width="10" x="328.5" y="268.3672"/><rect fill="#FFFFFF" height="31.291" style="stroke:#181818;stroke-width:1.0;" width="10" x="328.5" y="337.9492"/><rect fill="#FFFFFF" height="31.291" style="stroke:#181818;stroke-width:1.0;" width="10" x="328.5" y="400.5313"/><rect fill="none" height="81.873" style="stroke:#000000;stroke-width:1.5;" width="365.5" x="10" y="194.4941"/><line style="stroke:#181818;stroke-width:0.5;stroke-dasharray:5.0,5.0;" x1="37" x2="37" y1="83.6211" y2="449.8223"/><line style="stroke:#181818;stroke-width:0.5;stroke-dasharray:5.0,5.0;" x1="333.5" x2="333.5" y1="83.6211" y2="449.8223"/><text fill="#000000" font-family="sans-serif" font-size="14" lengthAdjust="spacing" textLength="29" x="20" y="80.1074">User</text><ellipse cx="37.5" cy="13.5" fill="#E2E2F0" rx="8" ry="8" style="stroke:#181818;stroke-width:0.5;"/><path d="M37.5,21.5 L37.5,48.5 M24.5,29.5 L50.5,29.5 M37.5,48.5 L24.5,63.5 M37.5,48.5 L50.5,63.5 " fill="none" style="stroke:#181818;stroke-width:0.5;"/><text fill="#000000" font-family="sans-serif" font-size="14" lengthAdjust="spacing" textLength="29" x="20" y="463.9297">User</text><ellipse cx="37.5" cy="475.9434" fill="#E2E2F0" rx="8" ry="8" style="stroke:#181818;stroke-width:0.5;"/><path d="M37.5,483.9434 L37.5,510.9434 M24.5,491.9434 L50.5,491.9434 M37.5,510.9434 L24.5,525.9434 M37.5,510.9434 L50.5,525.9434 " fill="none" style="stroke:#181818;stroke-width:0.5;"/><rect fill="#E2E2F0" height="32.6211" rx="2.5" ry="2.5" style="stroke:#181818;stroke-width:0.5;" width="64" x="301.5" y="50"/><text fill="#000000" font-family="sans-serif" font-size="14" lengthAdjust="spacing" textLength="50" x="308.5" y="72.1074">:System</text><rect fill="#E2E2F0" height="32.6211" rx="2.5" ry="2.5" style="stroke:#181818;stroke-width:0.5;" width="64" x="301.5" y="448.8223"/><text fill="#000000" font-family="sans-serif" font-size="14" lengthAdjust="spacing" textLength="50" x="308.5" y="470.9297">:System</text><rect fill="#FFFFFF" height="338.2012" style="stroke:#181818;stroke-width:1.0;" width="10" x="32.5" y="93.6211"/><rect fill="#FFFFFF" height="31.291" style="stroke:#181818;stroke-width:1.0;" width="10" x="328.5" y="116.9121"/><rect fill="#FFFFFF" height="57.582" style="stroke:#181818;stroke-width:1.0;" width="10" x="328.5" y="179.4941"/><rect fill="#FFFFFF" height="38.291" style="stroke:#181818;stroke-width:1.0;" width="10" x="328.5" y="268.3672"/><rect fill="#FFFFFF" height="31.291" style="stroke:#181818;stroke-width:1.0;" width="10" x="328.5" y="337.9492"/><rect fill="#FFFFFF" height="31.291" style="stroke:#181818;stroke-width:1.0;" width="10" x="328.5" y="400.5313"/><polygon fill="#181818" points="316.5,112.9121,326.5,116.9121,316.5,120.9121,320.5,116.9121" style="stroke:#181818;stroke-width:1.0;"/><line style="stroke:#181818;stroke-width:1.0;stroke-dasharray:2.0,2.0;" x1="42.5" x2="322.5" y1="116.9121" y2="116.9121"/><text fill="#000000" font-family="sans-serif" font-size="13" font-weight="bold" lengthAdjust="spacing" textLength="7" x="49.5" y="111.6494">1</text><text fill="#000000" font-family="sans-serif" font-size="13" lengthAdjust="spacing" textLength="141" x="60.5" y="111.6494">schedule meeting option</text><polygon fill="#181818" points="53.5,144.2031,43.5,148.2031,53.5,152.2031,49.5,148.2031" style="stroke:#181818;stroke-width:1.0;"/><line style="stroke:#181818;stroke-width:1.0;stroke-dasharray:2.0,2.0;" x1="47.5" x2="332.5" y1="148.2031" y2="148.2031"/><text fill="#000000" font-family="sans-serif" font-size="13" font-weight="bold" lengthAdjust="spacing" textLength="7" x="59.5" y="142.9404">2</text><text fill="#000000" font-family="sans-serif" font-size="13" lengthAdjust="spacing" textLength="233" x="70.5" y="142.9404">asks for meeting date, time and duration</text><polygon fill="#181818" points="316.5,175.4941,326.5,179.4941,316.5,183.4941,320.5,179.4941" style="stroke:#181818;stroke-width:1.0;"/><line style="stroke:#181818;stroke-width:1.0;stroke-dasharray:2.0,2.0;" x1="42.5" x2="322.5" y1="179.4941" y2="179.4941"/><text fill="#000000" font-family="sans-serif" font-size="13" font-weight="bold" lengthAdjust="spacing" textLength="7" x="49.5" y="174.2314">3</text><text fill="#000000" font-family="sans-serif" font-size="13" lengthAdjust="spacing" textLength="166" x="60.5" y="174.2314">gives date, time and duration</text><path d="M10,194.4941 L83,194.4941 L83,203.7852 L73,213.7852 L10,213.7852 L10,194.4941 " fill="#EEEEEE" style="stroke:#000000;stroke-width:1.5;"/><rect fill="none" height="81.873" style="stroke:#000000;stroke-width:1.5;" width="365.5" x="10" y="194.4941"/><text fill="#000000" font-family="sans-serif" font-size="13" font-weight="bold" lengthAdjust="spacing" textLength="28" x="25" y="209.5225">loop</text><polygon fill="#181818" points="53.5,233.0762,43.5,237.0762,53.5,241.0762,49.5,237.0762" style="stroke:#181818;stroke-width:1.0;"/><line style="stroke:#181818;stroke-width:1.0;stroke-dasharray:2.0,2.0;" x1="47.5" x2="332.5" y1="237.0762" y2="237.0762"/><text fill="#000000" font-family="sans-serif" font-size="13" font-weight="bold" lengthAdjust="spacing" textLength="7" x="59.5" y="231.8135">4</text><text fill="#000000" font-family="sans-serif" font-size="13" lengthAdjust="spacing" textLength="167" x="70.5" y="231.8135">asks for meeting participants</text><polygon fill="#181818" points="316.5,264.3672,326.5,268.3672,316.5,272.3672,320.5,268.3672" style="stroke:#181818;stroke-width:1.0;"/><line style="stroke:#181818;stroke-width:1.0;stroke-dasharray:2.0,2.0;" x1="42.5" x2="322.5" y1="268.3672" y2="268.3672"/><text fill="#000000" font-family="sans-serif" font-size="13" font-weight="bold" lengthAdjust="spacing" textLength="7" x="49.5" y="263.1045">5</text><text fill="#000000" font-family="sans-serif" font-size="13" lengthAdjust="spacing" textLength="113" x="60.5" y="263.1045">selects participants</text><polygon fill="#181818" points="53.5,302.6582,43.5,306.6582,53.5,310.6582,49.5,306.6582" style="stroke:#181818;stroke-width:1.0;"/><line style="stroke:#181818;stroke-width:1.0;stroke-dasharray:2.0,2.0;" x1="47.5" x2="332.5" y1="306.6582" y2="306.6582"/><text fill="#000000" font-family="sans-serif" font-size="13" font-weight="bold" lengthAdjust="spacing" textLength="7" x="59.5" y="301.3955">6</text><text fill="#000000" font-family="sans-serif" font-size="13" lengthAdjust="spacing" textLength="98" x="70.5" y="301.3955">presents final list</text><polygon fill="#181818" points="316.5,333.9492,326.5,337.9492,316.5,341.9492,320.5,337.9492" style="stroke:#181818;stroke-width:1.0;"/><line style="stroke:#181818;stroke-width:1.0;stroke-dasharray:2.0,2.0;" x1="42.5" x2="322.5" y1="337.9492" y2="337.9492"/><text fill="#000000" font-family="sans-serif" font-size="13" font-weight="bold" lengthAdjust="spacing" textLength="7" x="49.5" y="332.6865">7</text><text fill="#000000" font-family="sans-serif" font-size="13" lengthAdjust="spacing" textLength="70" x="60.5" y="332.6865">confirms list</text><polygon fill="#181818" points="53.5,365.2402,43.5,369.2402,53.5,373.2402,49.5,369.2402" style="stroke:#181818;stroke-width:1.0;"/><line style="stroke:#181818;stroke-width:1.0;stroke-dasharray:2.0,2.0;" x1="47.5" x2="332.5" y1="369.2402" y2="369.2402"/><text fill="#000000" font-family="sans-serif" font-size="13" font-weight="bold" lengthAdjust="spacing" textLength="7" x="59.5" y="363.9775">8</text><text fill="#000000" font-family="sans-serif" font-size="13" lengthAdjust="spacing" textLength="142" x="70.5" y="363.9775">presents Meeting details</text><polygon fill="#181818" points="316.5,396.5313,326.5,400.5313,316.5,404.5313,320.5,400.5313" style="stroke:#181818;stroke-width:1.0;"/><line style="stroke:#181818;stroke-width:1.0;stroke-dasharray:2.0,2.0;" x1="42.5" x2="322.5" y1="400.5313" y2="400.5313"/><text fill="#000000" font-family="sans-serif" font-size="13" font-weight="bold" lengthAdjust="spacing" textLength="7" x="49.5" y="395.2686">9</text><text fill="#000000" font-family="sans-serif" font-size="13" lengthAdjust="spacing" textLength="99" x="60.5" y="395.2686">confirms Meeting</text><polygon fill="#181818" points="48.5,427.8223,38.5,431.8223,48.5,435.8223,44.5,431.8223" style="stroke:#181818;stroke-width:1.0;"/><line style="stroke:#181818;stroke-width:1.0;stroke-dasharray:2.0,2.0;" x1="42.5" x2="332.5" y1="431.8223" y2="431.8223"/><text fill="#000000" font-family="sans-serif" font-size="13" font-weight="bold" lengthAdjust="spacing" textLength="14" x="54.5" y="426.5596">10</text><text fill="#000000" font-family="sans-serif" font-size="13" lengthAdjust="spacing" textLength="244" x="72.5" y="426.5596">informs Meeting saved and invitations sent</text><!--SRC=[bP5DJiCm48NtESMe6pQKxBFW1gmG1nZiIJh2VtZ6aNfxtD2c81me2qksvVVUvtbt1zKaGzydXq6BTmyc-bxelL0mjBUCKqRVOT4OYd-bt7LeD6Pu4Sg00aK-htX6fULKrtx_2BlX-IXAVWS3Y3cGBOx04oc72M9IZg7xeboVT-lkv5BDgXxbJM2igHUzhP9xKFO462pOad4njDGmR15DF9DishHCfXnB0XTZkXB2BuW9ixBXLCSgsrpmOrJaoAXybxU0ADZMg58ceQg1aGCwS2pQjUDRwIQ6aRENi-wsTjR8fqixfCXkwzV_Xpdxtih3eVPmbO7WJ7OfcCFCkbGiS4B-cx0wVW00]--></g></svg>