<?xml version="1.0" encoding="us-ascii" standalone="no"?><svg xmlns="http://www.w3.org/2000/svg" xmlns:xlink="http://www.w3.org/1999/xlink" contentStyleType="text/css" height="1066px" preserveAspectRatio="none" style="width:3125px;height:1066px;background:#FFFFFF;" version="1.1" viewBox="0 0 3125 1066" width="3125px" zoomAndPan="magnify"><defs/><g><!--class TakeFormativeExamUI--><g id="elem_TakeFormativeExamUI"><rect codeLine="4" fill="#F1F1F1" height="122.4844" id="TakeFormativeExamUI" rx="2.5" ry="2.5" style="stroke:#181818;stroke-width:0.5;" width="420" x="1484" y="246"/><ellipse cx="1619.25" cy="262" fill="#ADD1B2" rx="11" ry="11" style="stroke:#181818;stroke-width:1.0;"/><path d="M1622.0156,257.875 Q1622.1719,257.6563 1622.3594,257.5469 Q1622.5469,257.4375 1622.7656,257.4375 Q1623.1406,257.4375 1623.375,257.7031 Q1623.6094,257.9531 1623.6094,258.5625 L1623.6094,260.0156 Q1623.6094,260.625 1623.375,260.8906 Q1623.1406,261.1563 1622.7656,261.1563 Q1622.4219,261.1563 1622.2188,260.9531 Q1622.0156,260.7656 1621.9063,260.25 Q1621.8594,259.8906 1621.6719,259.7031 Q1621.3438,259.3281 1620.7344,259.1094 Q1620.125,258.8906 1619.5,258.8906 Q1618.7344,258.8906 1618.0938,259.2188 Q1617.4688,259.5469 1616.9688,260.2969 Q1616.4844,261.0469 1616.4844,262.0781 L1616.4844,263.1719 Q1616.4844,264.4063 1617.375,265.2344 Q1618.2656,266.0469 1619.8594,266.0469 Q1620.7969,266.0469 1621.4531,265.7969 Q1621.8438,265.6406 1622.2656,265.2031 Q1622.5313,264.9375 1622.6719,264.8594 Q1622.8281,264.7813 1623.0313,264.7813 Q1623.3594,264.7813 1623.6094,265.0469 Q1623.875,265.2969 1623.875,265.6406 Q1623.875,265.9844 1623.5313,266.3906 Q1623.0313,266.9688 1622.2344,267.2969 Q1621.1563,267.75 1619.8594,267.75 Q1618.3438,267.75 1617.1406,267.125 Q1616.1563,266.625 1615.4688,265.5625 Q1614.7813,264.4844 1614.7813,263.2031 L1614.7813,262.0469 Q1614.7813,260.7188 1615.3906,259.5781 Q1616.0156,258.4219 1617.1094,257.8125 Q1618.2031,257.1875 1619.4375,257.1875 Q1620.1719,257.1875 1620.8125,257.3594 Q1621.4688,257.5156 1622.0156,257.875 Z " fill="#000000"/><text fill="#000000" font-family="sans-serif" font-size="14" lengthAdjust="spacing" textLength="141" x="1639.75" y="267.7969">TakeFormativeExamUI</text><line style="stroke:#181818;stroke-width:0.5;" x1="1485" x2="1903" y1="278" y2="278"/><line style="stroke:#181818;stroke-width:0.5;" x1="1485" x2="1903" y1="286" y2="286"/><ellipse cx="1495" cy="300.8105" fill="#84BE84" rx="3" ry="3" style="stroke:#038048;stroke-width:1.0;"/><text fill="#000000" font-family="sans-serif" font-size="14" lengthAdjust="spacing" textLength="60" x="1504" y="305.1074">doShow()</text><ellipse cx="1495" cy="319.4316" fill="#84BE84" rx="3" ry="3" style="stroke:#038048;stroke-width:1.0;"/><text fill="#000000" font-family="sans-serif" font-size="14" lengthAdjust="spacing" textLength="314" x="1504" y="323.7285">showExams(final List&lt;FormativeExamDto&gt; exams)</text><ellipse cx="1495" cy="338.0527" fill="#84BE84" rx="3" ry="3" style="stroke:#038048;stroke-width:1.0;"/><text fill="#000000" font-family="sans-serif" font-size="14" lengthAdjust="spacing" textLength="394" x="1504" y="342.3496">buildExamsMenu(final List&lt;FormativeExamDto&gt; exams) : Menu</text><ellipse cx="1495" cy="356.6738" fill="#84BE84" rx="3" ry="3" style="stroke:#038048;stroke-width:1.0;"/><text fill="#000000" font-family="sans-serif" font-size="14" lengthAdjust="spacing" textLength="113" x="1504" y="360.9707">headline() : String</text></g><!--class TakeFormativeExamController--><g id="elem_TakeFormativeExamController"><rect codeLine="11" fill="#F1F1F1" height="178.3477" id="TakeFormativeExamController" rx="2.5" ry="2.5" style="stroke:#181818;stroke-width:0.5;" width="325" x="1268.5" y="447"/><ellipse cx="1331.25" cy="463" fill="#ADD1B2" rx="11" ry="11" style="stroke:#181818;stroke-width:1.0;"/><path d="M1334.0156,458.875 Q1334.1719,458.6563 1334.3594,458.5469 Q1334.5469,458.4375 1334.7656,458.4375 Q1335.1406,458.4375 1335.375,458.7031 Q1335.6094,458.9531 1335.6094,459.5625 L1335.6094,461.0156 Q1335.6094,461.625 1335.375,461.8906 Q1335.1406,462.1563 1334.7656,462.1563 Q1334.4219,462.1563 1334.2188,461.9531 Q1334.0156,461.7656 1333.9063,461.25 Q1333.8594,460.8906 1333.6719,460.7031 Q1333.3438,460.3281 1332.7344,460.1094 Q1332.125,459.8906 1331.5,459.8906 Q1330.7344,459.8906 1330.0938,460.2188 Q1329.4688,460.5469 1328.9688,461.2969 Q1328.4844,462.0469 1328.4844,463.0781 L1328.4844,464.1719 Q1328.4844,465.4063 1329.375,466.2344 Q1330.2656,467.0469 1331.8594,467.0469 Q1332.7969,467.0469 1333.4531,466.7969 Q1333.8438,466.6406 1334.2656,466.2031 Q1334.5313,465.9375 1334.6719,465.8594 Q1334.8281,465.7813 1335.0313,465.7813 Q1335.3594,465.7813 1335.6094,466.0469 Q1335.875,466.2969 1335.875,466.6406 Q1335.875,466.9844 1335.5313,467.3906 Q1335.0313,467.9688 1334.2344,468.2969 Q1333.1563,468.75 1331.8594,468.75 Q1330.3438,468.75 1329.1406,468.125 Q1328.1563,467.625 1327.4688,466.5625 Q1326.7813,465.4844 1326.7813,464.2031 L1326.7813,463.0469 Q1326.7813,461.7188 1327.3906,460.5781 Q1328.0156,459.4219 1329.1094,458.8125 Q1330.2031,458.1875 1331.4375,458.1875 Q1332.1719,458.1875 1332.8125,458.3594 Q1333.4688,458.5156 1334.0156,458.875 Z " fill="#000000"/><text fill="#000000" font-family="sans-serif" font-size="14" lengthAdjust="spacing" textLength="191" x="1351.75" y="468.7969">TakeFormativeExamController</text><line style="stroke:#181818;stroke-width:0.5;" x1="1269.5" x2="1592.5" y1="479" y2="479"/><ellipse cx="1279.5" cy="493.8105" fill="#000000" rx="3" ry="3" style="stroke:#000000;stroke-width:1.0;"/><text fill="#000000" font-family="sans-serif" font-size="14" lengthAdjust="spacing" textLength="167" x="1288.5" y="498.1074">AuthorizationService authz</text><ellipse cx="1279.5" cy="512.4316" fill="#000000" rx="3" ry="3" style="stroke:#000000;stroke-width:1.0;"/><text fill="#000000" font-family="sans-serif" font-size="14" lengthAdjust="spacing" textLength="184" x="1288.5" y="516.7285">eCourseUserRepository repo</text><ellipse cx="1279.5" cy="531.0527" fill="#000000" rx="3" ry="3" style="stroke:#000000;stroke-width:1.0;"/><text fill="#000000" font-family="sans-serif" font-size="14" lengthAdjust="spacing" textLength="144" x="1288.5" y="535.3496">ExamRepository repoE</text><ellipse cx="1279.5" cy="549.6738" fill="#000000" rx="3" ry="3" style="stroke:#000000;stroke-width:1.0;"/><text fill="#000000" font-family="sans-serif" font-size="14" lengthAdjust="spacing" textLength="162" x="1288.5" y="553.9707">TakeExamService service</text><line style="stroke:#181818;stroke-width:0.5;" x1="1269.5" x2="1592.5" y1="561.4844" y2="561.4844"/><ellipse cx="1279.5" cy="576.2949" fill="#84BE84" rx="3" ry="3" style="stroke:#038048;stroke-width:1.0;"/><text fill="#000000" font-family="sans-serif" font-size="14" lengthAdjust="spacing" textLength="299" x="1288.5" y="580.5918">getTakeableExams() : List&lt;FormativeExamDto&gt;</text><ellipse cx="1279.5" cy="594.916" fill="#84BE84" rx="3" ry="3" style="stroke:#038048;stroke-width:1.0;"/><text fill="#000000" font-family="sans-serif" font-size="14" lengthAdjust="spacing" textLength="146" x="1288.5" y="599.2129">getUser() : SystemUser</text><ellipse cx="1279.5" cy="613.5371" fill="#84BE84" rx="3" ry="3" style="stroke:#038048;stroke-width:1.0;"/><text fill="#000000" font-family="sans-serif" font-size="14" lengthAdjust="spacing" textLength="179" x="1288.5" y="617.834">takeExam(String examCode)</text></g><!--class SystemUser--><g id="elem_SystemUser"><rect codeLine="21" fill="#F1F1F1" height="113.7852" id="SystemUser" rx="2.5" ry="2.5" style="stroke:#181818;stroke-width:0.5;" width="107" x="2081.5" y="250"/><ellipse cx="2096.5" cy="280.2715" fill="#ADD1B2" rx="11" ry="11" style="stroke:#181818;stroke-width:1.0;"/><path d="M2099.2656,276.1465 Q2099.4219,275.9277 2099.6094,275.8184 Q2099.7969,275.709 2100.0156,275.709 Q2100.3906,275.709 2100.625,275.9746 Q2100.8594,276.2246 2100.8594,276.834 L2100.8594,278.2871 Q2100.8594,278.8965 2100.625,279.1621 Q2100.3906,279.4277 2100.0156,279.4277 Q2099.6719,279.4277 2099.4688,279.2246 Q2099.2656,279.0371 2099.1563,278.5215 Q2099.1094,278.1621 2098.9219,277.9746 Q2098.5938,277.5996 2097.9844,277.3809 Q2097.375,277.1621 2096.75,277.1621 Q2095.9844,277.1621 2095.3438,277.4902 Q2094.7188,277.8184 2094.2188,278.5684 Q2093.7344,279.3184 2093.7344,280.3496 L2093.7344,281.4434 Q2093.7344,282.6777 2094.625,283.5059 Q2095.5156,284.3184 2097.1094,284.3184 Q2098.0469,284.3184 2098.7031,284.0684 Q2099.0938,283.9121 2099.5156,283.4746 Q2099.7813,283.209 2099.9219,283.1309 Q2100.0781,283.0527 2100.2813,283.0527 Q2100.6094,283.0527 2100.8594,283.3184 Q2101.125,283.5684 2101.125,283.9121 Q2101.125,284.2559 2100.7813,284.6621 Q2100.2813,285.2402 2099.4844,285.5684 Q2098.4063,286.0215 2097.1094,286.0215 Q2095.5938,286.0215 2094.3906,285.3965 Q2093.4063,284.8965 2092.7188,283.834 Q2092.0313,282.7559 2092.0313,281.4746 L2092.0313,280.3184 Q2092.0313,278.9902 2092.6406,277.8496 Q2093.2656,276.6934 2094.3594,276.084 Q2095.4531,275.459 2096.6875,275.459 Q2097.4219,275.459 2098.0625,275.6309 Q2098.7188,275.7871 2099.2656,276.1465 Z " fill="#000000"/><text fill="#000000" font-family="sans-serif" font-size="12" font-style="italic" lengthAdjust="spacing" textLength="35" x="2130.5" y="267.9492">&#171;root&#187;</text><text fill="#000000" font-family="sans-serif" font-size="12" font-style="italic" lengthAdjust="spacing" textLength="44" x="2126" y="283.9102">&#171;Entity&#187;</text><text fill="#000000" font-family="sans-serif" font-size="14" lengthAdjust="spacing" textLength="75" x="2110.5" y="302.0293">SystemUser</text><line style="stroke:#181818;stroke-width:0.5;" x1="2082.5" x2="2187.5" y1="310.543" y2="310.543"/><ellipse cx="2092.5" cy="325.3535" fill="#000000" rx="3" ry="3" style="stroke:#000000;stroke-width:1.0;"/><text fill="#000000" font-family="sans-serif" font-size="14" lengthAdjust="spacing" textLength="36" x="2101.5" y="329.6504">Name</text><ellipse cx="2092.5" cy="343.9746" fill="#000000" rx="3" ry="3" style="stroke:#000000;stroke-width:1.0;"/><text fill="#000000" font-family="sans-serif" font-size="14" lengthAdjust="spacing" textLength="64" x="2101.5" y="348.2715">Username</text><line style="stroke:#181818;stroke-width:0.5;" x1="2082.5" x2="2187.5" y1="355.7852" y2="355.7852"/></g><!--class eCourseSystemUser--><g id="elem_eCourseSystemUser"><rect codeLine="26" fill="#F1F1F1" height="76.543" id="eCourseSystemUser" rx="2.5" ry="2.5" style="stroke:#181818;stroke-width:0.5;" width="161" x="1947.5" y="48.5"/><ellipse cx="1962.5" cy="78.7715" fill="#ADD1B2" rx="11" ry="11" style="stroke:#181818;stroke-width:1.0;"/><path d="M1965.2656,74.6465 Q1965.4219,74.4277 1965.6094,74.3184 Q1965.7969,74.209 1966.0156,74.209 Q1966.3906,74.209 1966.625,74.4746 Q1966.8594,74.7246 1966.8594,75.334 L1966.8594,76.7871 Q1966.8594,77.3965 1966.625,77.6621 Q1966.3906,77.9277 1966.0156,77.9277 Q1965.6719,77.9277 1965.4688,77.7246 Q1965.2656,77.5371 1965.1563,77.0215 Q1965.1094,76.6621 1964.9219,76.4746 Q1964.5938,76.0996 1963.9844,75.8809 Q1963.375,75.6621 1962.75,75.6621 Q1961.9844,75.6621 1961.3438,75.9902 Q1960.7188,76.3184 1960.2188,77.0684 Q1959.7344,77.8184 1959.7344,78.8496 L1959.7344,79.9434 Q1959.7344,81.1777 1960.625,82.0059 Q1961.5156,82.8184 1963.1094,82.8184 Q1964.0469,82.8184 1964.7031,82.5684 Q1965.0938,82.4121 1965.5156,81.9746 Q1965.7813,81.709 1965.9219,81.6309 Q1966.0781,81.5527 1966.2813,81.5527 Q1966.6094,81.5527 1966.8594,81.8184 Q1967.125,82.0684 1967.125,82.4121 Q1967.125,82.7559 1966.7813,83.1621 Q1966.2813,83.7402 1965.4844,84.0684 Q1964.4063,84.5215 1963.1094,84.5215 Q1961.5938,84.5215 1960.3906,83.8965 Q1959.4063,83.3965 1958.7188,82.334 Q1958.0313,81.2559 1958.0313,79.9746 L1958.0313,78.8184 Q1958.0313,77.4902 1958.6406,76.3496 Q1959.2656,75.1934 1960.3594,74.584 Q1961.4531,73.959 1962.6875,73.959 Q1963.4219,73.959 1964.0625,74.1309 Q1964.7188,74.2871 1965.2656,74.6465 Z " fill="#000000"/><text fill="#000000" font-family="sans-serif" font-size="12" font-style="italic" lengthAdjust="spacing" textLength="35" x="2023.5" y="66.4492">&#171;root&#187;</text><text fill="#000000" font-family="sans-serif" font-size="12" font-style="italic" lengthAdjust="spacing" textLength="44" x="2019" y="82.4102">&#171;Entity&#187;</text><text fill="#000000" font-family="sans-serif" font-size="14" lengthAdjust="spacing" textLength="129" x="1976.5" y="100.5293">eCourseSystemUser</text><line style="stroke:#181818;stroke-width:0.5;" x1="1948.5" x2="2107.5" y1="109.043" y2="109.043"/><line style="stroke:#181818;stroke-width:0.5;" x1="1948.5" x2="2107.5" y1="117.043" y2="117.043"/></g><!--class EmailAdderss--><g id="elem_EmailAdderss"><rect codeLine="30" fill="#F1F1F1" height="60.582" id="EmailAdderss" rx="2.5" ry="2.5" style="stroke:#181818;stroke-width:0.5;" width="118" x="2165" y="505.5"/><ellipse cx="2180" cy="527.791" fill="#ADD1B2" rx="11" ry="11" style="stroke:#181818;stroke-width:1.0;"/><path d="M2182.7656,523.666 Q2182.9219,523.4473 2183.1094,523.3379 Q2183.2969,523.2285 2183.5156,523.2285 Q2183.8906,523.2285 2184.125,523.4941 Q2184.3594,523.7441 2184.3594,524.3535 L2184.3594,525.8066 Q2184.3594,526.416 2184.125,526.6816 Q2183.8906,526.9473 2183.5156,526.9473 Q2183.1719,526.9473 2182.9688,526.7441 Q2182.7656,526.5566 2182.6563,526.041 Q2182.6094,525.6816 2182.4219,525.4941 Q2182.0938,525.1191 2181.4844,524.9004 Q2180.875,524.6816 2180.25,524.6816 Q2179.4844,524.6816 2178.8438,525.0098 Q2178.2188,525.3379 2177.7188,526.0879 Q2177.2344,526.8379 2177.2344,527.8691 L2177.2344,528.9629 Q2177.2344,530.1973 2178.125,531.0254 Q2179.0156,531.8379 2180.6094,531.8379 Q2181.5469,531.8379 2182.2031,531.5879 Q2182.5938,531.4316 2183.0156,530.9941 Q2183.2813,530.7285 2183.4219,530.6504 Q2183.5781,530.5723 2183.7813,530.5723 Q2184.1094,530.5723 2184.3594,530.8379 Q2184.625,531.0879 2184.625,531.4316 Q2184.625,531.7754 2184.2813,532.1816 Q2183.7813,532.7598 2182.9844,533.0879 Q2181.9063,533.541 2180.6094,533.541 Q2179.0938,533.541 2177.8906,532.916 Q2176.9063,532.416 2176.2188,531.3535 Q2175.5313,530.2754 2175.5313,528.9941 L2175.5313,527.8379 Q2175.5313,526.5098 2176.1406,525.3691 Q2176.7656,524.2129 2177.8594,523.6035 Q2178.9531,522.9785 2180.1875,522.9785 Q2180.9219,522.9785 2181.5625,523.1504 Q2182.2188,523.3066 2182.7656,523.666 Z " fill="#000000"/><text fill="#000000" font-family="sans-serif" font-size="12" font-style="italic" lengthAdjust="spacing" textLength="83" x="2195.5" y="523.4492">&#171;Value object&#187;</text><text fill="#000000" font-family="sans-serif" font-size="14" lengthAdjust="spacing" textLength="86" x="2194" y="541.5684">EmailAdderss</text><line style="stroke:#181818;stroke-width:0.5;" x1="2166" x2="2282" y1="550.082" y2="550.082"/><line style="stroke:#181818;stroke-width:0.5;" x1="2166" x2="2282" y1="558.082" y2="558.082"/></g><!--class Role--><g id="elem_Role"><rect codeLine="32" fill="#F1F1F1" height="79.2031" id="Role" rx="2.5" ry="2.5" style="stroke:#181818;stroke-width:0.5;" width="102" x="2028" y="496.5"/><ellipse cx="2056.5" cy="518.791" fill="#ADD1B2" rx="11" ry="11" style="stroke:#181818;stroke-width:1.0;"/><path d="M2059.2656,514.666 Q2059.4219,514.4473 2059.6094,514.3379 Q2059.7969,514.2285 2060.0156,514.2285 Q2060.3906,514.2285 2060.625,514.4941 Q2060.8594,514.7441 2060.8594,515.3535 L2060.8594,516.8066 Q2060.8594,517.416 2060.625,517.6816 Q2060.3906,517.9473 2060.0156,517.9473 Q2059.6719,517.9473 2059.4688,517.7441 Q2059.2656,517.5566 2059.1563,517.041 Q2059.1094,516.6816 2058.9219,516.4941 Q2058.5938,516.1191 2057.9844,515.9004 Q2057.375,515.6816 2056.75,515.6816 Q2055.9844,515.6816 2055.3438,516.0098 Q2054.7188,516.3379 2054.2188,517.0879 Q2053.7344,517.8379 2053.7344,518.8691 L2053.7344,519.9629 Q2053.7344,521.1973 2054.625,522.0254 Q2055.5156,522.8379 2057.1094,522.8379 Q2058.0469,522.8379 2058.7031,522.5879 Q2059.0938,522.4316 2059.5156,521.9941 Q2059.7813,521.7285 2059.9219,521.6504 Q2060.0781,521.5723 2060.2813,521.5723 Q2060.6094,521.5723 2060.8594,521.8379 Q2061.125,522.0879 2061.125,522.4316 Q2061.125,522.7754 2060.7813,523.1816 Q2060.2813,523.7598 2059.4844,524.0879 Q2058.4063,524.541 2057.1094,524.541 Q2055.5938,524.541 2054.3906,523.916 Q2053.4063,523.416 2052.7188,522.3535 Q2052.0313,521.2754 2052.0313,519.9941 L2052.0313,518.8379 Q2052.0313,517.5098 2052.6406,516.3691 Q2053.2656,515.2129 2054.3594,514.6035 Q2055.4531,513.9785 2056.6875,513.9785 Q2057.4219,513.9785 2058.0625,514.1504 Q2058.7188,514.3066 2059.2656,514.666 Z " fill="#000000"/><text fill="#000000" font-family="sans-serif" font-size="12" font-style="italic" lengthAdjust="spacing" textLength="44" x="2071.5" y="514.4492">&#171;Entity&#187;</text><text fill="#000000" font-family="sans-serif" font-size="14" lengthAdjust="spacing" textLength="29" x="2079" y="532.5684">Role</text><line style="stroke:#181818;stroke-width:0.5;" x1="2029" x2="2129" y1="541.082" y2="541.082"/><ellipse cx="2039" cy="555.8926" fill="#000000" rx="3" ry="3" style="stroke:#000000;stroke-width:1.0;"/><text fill="#000000" font-family="sans-serif" font-size="14" lengthAdjust="spacing" textLength="76" x="2048" y="560.1895">String name</text><line style="stroke:#181818;stroke-width:0.5;" x1="2029" x2="2129" y1="567.7031" y2="567.7031"/></g><!--class UserStatus--><g id="elem_UserStatus"><rect codeLine="36" fill="#F1F1F1" height="97.8242" id="UserStatus" rx="2.5" ry="2.5" style="stroke:#181818;stroke-width:0.5;" width="101" x="2223.5" y="258"/><ellipse cx="2238.5" cy="280.291" fill="#ADD1B2" rx="11" ry="11" style="stroke:#181818;stroke-width:1.0;"/><path d="M2241.2656,276.166 Q2241.4219,275.9473 2241.6094,275.8379 Q2241.7969,275.7285 2242.0156,275.7285 Q2242.3906,275.7285 2242.625,275.9941 Q2242.8594,276.2441 2242.8594,276.8535 L2242.8594,278.3066 Q2242.8594,278.916 2242.625,279.1816 Q2242.3906,279.4473 2242.0156,279.4473 Q2241.6719,279.4473 2241.4688,279.2441 Q2241.2656,279.0566 2241.1563,278.541 Q2241.1094,278.1816 2240.9219,277.9941 Q2240.5938,277.6191 2239.9844,277.4004 Q2239.375,277.1816 2238.75,277.1816 Q2237.9844,277.1816 2237.3438,277.5098 Q2236.7188,277.8379 2236.2188,278.5879 Q2235.7344,279.3379 2235.7344,280.3691 L2235.7344,281.4629 Q2235.7344,282.6973 2236.625,283.5254 Q2237.5156,284.3379 2239.1094,284.3379 Q2240.0469,284.3379 2240.7031,284.0879 Q2241.0938,283.9316 2241.5156,283.4941 Q2241.7813,283.2285 2241.9219,283.1504 Q2242.0781,283.0723 2242.2813,283.0723 Q2242.6094,283.0723 2242.8594,283.3379 Q2243.125,283.5879 2243.125,283.9316 Q2243.125,284.2754 2242.7813,284.6816 Q2242.2813,285.2598 2241.4844,285.5879 Q2240.4063,286.041 2239.1094,286.041 Q2237.5938,286.041 2236.3906,285.416 Q2235.4063,284.916 2234.7188,283.8535 Q2234.0313,282.7754 2234.0313,281.4941 L2234.0313,280.3379 Q2234.0313,279.0098 2234.6406,277.8691 Q2235.2656,276.7129 2236.3594,276.1035 Q2237.4531,275.4785 2238.6875,275.4785 Q2239.4219,275.4785 2240.0625,275.6504 Q2240.7188,275.8066 2241.2656,276.166 Z " fill="#000000"/><text fill="#000000" font-family="sans-serif" font-size="12" font-style="italic" lengthAdjust="spacing" textLength="46" x="2264" y="275.9492">&#171;enum&#187;</text><text fill="#000000" font-family="sans-serif" font-size="14" lengthAdjust="spacing" textLength="69" x="2252.5" y="294.0684">UserStatus</text><line style="stroke:#181818;stroke-width:0.5;" x1="2224.5" x2="2323.5" y1="302.582" y2="302.582"/><ellipse cx="2234.5" cy="317.3926" fill="none" rx="3" ry="3" style="stroke:#038048;stroke-width:1.0;"/><text fill="#000000" font-family="sans-serif" font-size="14" lengthAdjust="spacing" textLength="53" x="2243.5" y="321.6895">ENABLE</text><ellipse cx="2234.5" cy="336.0137" fill="none" rx="3" ry="3" style="stroke:#038048;stroke-width:1.0;"/><text fill="#000000" font-family="sans-serif" font-size="14" lengthAdjust="spacing" textLength="57" x="2243.5" y="340.3105">DISABLE</text><line style="stroke:#181818;stroke-width:0.5;" x1="2224.5" x2="2323.5" y1="347.8242" y2="347.8242"/></g><!--class Password--><g id="elem_Password"><rect codeLine="41" fill="#F1F1F1" height="60.582" id="Password" rx="2.5" ry="2.5" style="stroke:#181818;stroke-width:0.5;" width="109" x="2318.5" y="505.5"/><ellipse cx="2333.5" cy="527.791" fill="#ADD1B2" rx="11" ry="11" style="stroke:#181818;stroke-width:1.0;"/><path d="M2336.2656,523.666 Q2336.4219,523.4473 2336.6094,523.3379 Q2336.7969,523.2285 2337.0156,523.2285 Q2337.3906,523.2285 2337.625,523.4941 Q2337.8594,523.7441 2337.8594,524.3535 L2337.8594,525.8066 Q2337.8594,526.416 2337.625,526.6816 Q2337.3906,526.9473 2337.0156,526.9473 Q2336.6719,526.9473 2336.4688,526.7441 Q2336.2656,526.5566 2336.1563,526.041 Q2336.1094,525.6816 2335.9219,525.4941 Q2335.5938,525.1191 2334.9844,524.9004 Q2334.375,524.6816 2333.75,524.6816 Q2332.9844,524.6816 2332.3438,525.0098 Q2331.7188,525.3379 2331.2188,526.0879 Q2330.7344,526.8379 2330.7344,527.8691 L2330.7344,528.9629 Q2330.7344,530.1973 2331.625,531.0254 Q2332.5156,531.8379 2334.1094,531.8379 Q2335.0469,531.8379 2335.7031,531.5879 Q2336.0938,531.4316 2336.5156,530.9941 Q2336.7813,530.7285 2336.9219,530.6504 Q2337.0781,530.5723 2337.2813,530.5723 Q2337.6094,530.5723 2337.8594,530.8379 Q2338.125,531.0879 2338.125,531.4316 Q2338.125,531.7754 2337.7813,532.1816 Q2337.2813,532.7598 2336.4844,533.0879 Q2335.4063,533.541 2334.1094,533.541 Q2332.5938,533.541 2331.3906,532.916 Q2330.4063,532.416 2329.7188,531.3535 Q2329.0313,530.2754 2329.0313,528.9941 L2329.0313,527.8379 Q2329.0313,526.5098 2329.6406,525.3691 Q2330.2656,524.2129 2331.3594,523.6035 Q2332.4531,522.9785 2333.6875,522.9785 Q2334.4219,522.9785 2335.0625,523.1504 Q2335.7188,523.3066 2336.2656,523.666 Z " fill="#000000"/><text fill="#000000" font-family="sans-serif" font-size="12" font-style="italic" lengthAdjust="spacing" textLength="81" x="2345.5" y="523.4492">&#171;value object&#187;</text><text fill="#000000" font-family="sans-serif" font-size="14" lengthAdjust="spacing" textLength="61" x="2355.5" y="541.5684">Password</text><line style="stroke:#181818;stroke-width:0.5;" x1="2319.5" x2="2426.5" y1="550.082" y2="550.082"/><line style="stroke:#181818;stroke-width:0.5;" x1="2319.5" x2="2426.5" y1="558.082" y2="558.082"/></g><!--class Acronym--><g id="elem_Acronym"><rect codeLine="43" fill="#F1F1F1" height="60.582" id="Acronym" rx="2.5" ry="2.5" style="stroke:#181818;stroke-width:0.5;" width="109" x="2359.5" y="276.5"/><ellipse cx="2374.5" cy="298.791" fill="#ADD1B2" rx="11" ry="11" style="stroke:#181818;stroke-width:1.0;"/><path d="M2377.2656,294.666 Q2377.4219,294.4473 2377.6094,294.3379 Q2377.7969,294.2285 2378.0156,294.2285 Q2378.3906,294.2285 2378.625,294.4941 Q2378.8594,294.7441 2378.8594,295.3535 L2378.8594,296.8066 Q2378.8594,297.416 2378.625,297.6816 Q2378.3906,297.9473 2378.0156,297.9473 Q2377.6719,297.9473 2377.4688,297.7441 Q2377.2656,297.5566 2377.1563,297.041 Q2377.1094,296.6816 2376.9219,296.4941 Q2376.5938,296.1191 2375.9844,295.9004 Q2375.375,295.6816 2374.75,295.6816 Q2373.9844,295.6816 2373.3438,296.0098 Q2372.7188,296.3379 2372.2188,297.0879 Q2371.7344,297.8379 2371.7344,298.8691 L2371.7344,299.9629 Q2371.7344,301.1973 2372.625,302.0254 Q2373.5156,302.8379 2375.1094,302.8379 Q2376.0469,302.8379 2376.7031,302.5879 Q2377.0938,302.4316 2377.5156,301.9941 Q2377.7813,301.7285 2377.9219,301.6504 Q2378.0781,301.5723 2378.2813,301.5723 Q2378.6094,301.5723 2378.8594,301.8379 Q2379.125,302.0879 2379.125,302.4316 Q2379.125,302.7754 2378.7813,303.1816 Q2378.2813,303.7598 2377.4844,304.0879 Q2376.4063,304.541 2375.1094,304.541 Q2373.5938,304.541 2372.3906,303.916 Q2371.4063,303.416 2370.7188,302.3535 Q2370.0313,301.2754 2370.0313,299.9941 L2370.0313,298.8379 Q2370.0313,297.5098 2370.6406,296.3691 Q2371.2656,295.2129 2372.3594,294.6035 Q2373.4531,293.9785 2374.6875,293.9785 Q2375.4219,293.9785 2376.0625,294.1504 Q2376.7188,294.3066 2377.2656,294.666 Z " fill="#000000"/><text fill="#000000" font-family="sans-serif" font-size="12" font-style="italic" lengthAdjust="spacing" textLength="81" x="2386.5" y="294.4492">&#171;value object&#187;</text><text fill="#000000" font-family="sans-serif" font-size="14" lengthAdjust="spacing" textLength="55" x="2399.5" y="312.5684">Acronym</text><line style="stroke:#181818;stroke-width:0.5;" x1="2360.5" x2="2467.5" y1="321.082" y2="321.082"/><line style="stroke:#181818;stroke-width:0.5;" x1="2360.5" x2="2467.5" y1="329.082" y2="329.082"/></g><!--class NIF--><g id="elem_NIF"><rect codeLine="45" fill="#F1F1F1" height="60.582" id="NIF" rx="2.5" ry="2.5" style="stroke:#181818;stroke-width:0.5;" width="109" x="2503.5" y="276.5"/><ellipse cx="2518.5" cy="298.791" fill="#ADD1B2" rx="11" ry="11" style="stroke:#181818;stroke-width:1.0;"/><path d="M2521.2656,294.666 Q2521.4219,294.4473 2521.6094,294.3379 Q2521.7969,294.2285 2522.0156,294.2285 Q2522.3906,294.2285 2522.625,294.4941 Q2522.8594,294.7441 2522.8594,295.3535 L2522.8594,296.8066 Q2522.8594,297.416 2522.625,297.6816 Q2522.3906,297.9473 2522.0156,297.9473 Q2521.6719,297.9473 2521.4688,297.7441 Q2521.2656,297.5566 2521.1563,297.041 Q2521.1094,296.6816 2520.9219,296.4941 Q2520.5938,296.1191 2519.9844,295.9004 Q2519.375,295.6816 2518.75,295.6816 Q2517.9844,295.6816 2517.3438,296.0098 Q2516.7188,296.3379 2516.2188,297.0879 Q2515.7344,297.8379 2515.7344,298.8691 L2515.7344,299.9629 Q2515.7344,301.1973 2516.625,302.0254 Q2517.5156,302.8379 2519.1094,302.8379 Q2520.0469,302.8379 2520.7031,302.5879 Q2521.0938,302.4316 2521.5156,301.9941 Q2521.7813,301.7285 2521.9219,301.6504 Q2522.0781,301.5723 2522.2813,301.5723 Q2522.6094,301.5723 2522.8594,301.8379 Q2523.125,302.0879 2523.125,302.4316 Q2523.125,302.7754 2522.7813,303.1816 Q2522.2813,303.7598 2521.4844,304.0879 Q2520.4063,304.541 2519.1094,304.541 Q2517.5938,304.541 2516.3906,303.916 Q2515.4063,303.416 2514.7188,302.3535 Q2514.0313,301.2754 2514.0313,299.9941 L2514.0313,298.8379 Q2514.0313,297.5098 2514.6406,296.3691 Q2515.2656,295.2129 2516.3594,294.6035 Q2517.4531,293.9785 2518.6875,293.9785 Q2519.4219,293.9785 2520.0625,294.1504 Q2520.7188,294.3066 2521.2656,294.666 Z " fill="#000000"/><text fill="#000000" font-family="sans-serif" font-size="12" font-style="italic" lengthAdjust="spacing" textLength="81" x="2530.5" y="294.4492">&#171;value object&#187;</text><text fill="#000000" font-family="sans-serif" font-size="14" lengthAdjust="spacing" textLength="21" x="2560.5" y="312.5684">NIF</text><line style="stroke:#181818;stroke-width:0.5;" x1="2504.5" x2="2611.5" y1="321.082" y2="321.082"/><line style="stroke:#181818;stroke-width:0.5;" x1="2504.5" x2="2611.5" y1="329.082" y2="329.082"/></g><!--class BirthDate--><g id="elem_BirthDate"><rect codeLine="47" fill="#F1F1F1" height="60.582" id="BirthDate" rx="2.5" ry="2.5" style="stroke:#181818;stroke-width:0.5;" width="109" x="3009.5" y="276.5"/><ellipse cx="3024.5" cy="298.791" fill="#ADD1B2" rx="11" ry="11" style="stroke:#181818;stroke-width:1.0;"/><path d="M3027.2656,294.666 Q3027.4219,294.4473 3027.6094,294.3379 Q3027.7969,294.2285 3028.0156,294.2285 Q3028.3906,294.2285 3028.625,294.4941 Q3028.8594,294.7441 3028.8594,295.3535 L3028.8594,296.8066 Q3028.8594,297.416 3028.625,297.6816 Q3028.3906,297.9473 3028.0156,297.9473 Q3027.6719,297.9473 3027.4688,297.7441 Q3027.2656,297.5566 3027.1563,297.041 Q3027.1094,296.6816 3026.9219,296.4941 Q3026.5938,296.1191 3025.9844,295.9004 Q3025.375,295.6816 3024.75,295.6816 Q3023.9844,295.6816 3023.3438,296.0098 Q3022.7188,296.3379 3022.2188,297.0879 Q3021.7344,297.8379 3021.7344,298.8691 L3021.7344,299.9629 Q3021.7344,301.1973 3022.625,302.0254 Q3023.5156,302.8379 3025.1094,302.8379 Q3026.0469,302.8379 3026.7031,302.5879 Q3027.0938,302.4316 3027.5156,301.9941 Q3027.7813,301.7285 3027.9219,301.6504 Q3028.0781,301.5723 3028.2813,301.5723 Q3028.6094,301.5723 3028.8594,301.8379 Q3029.125,302.0879 3029.125,302.4316 Q3029.125,302.7754 3028.7813,303.1816 Q3028.2813,303.7598 3027.4844,304.0879 Q3026.4063,304.541 3025.1094,304.541 Q3023.5938,304.541 3022.3906,303.916 Q3021.4063,303.416 3020.7188,302.3535 Q3020.0313,301.2754 3020.0313,299.9941 L3020.0313,298.8379 Q3020.0313,297.5098 3020.6406,296.3691 Q3021.2656,295.2129 3022.3594,294.6035 Q3023.4531,293.9785 3024.6875,293.9785 Q3025.4219,293.9785 3026.0625,294.1504 Q3026.7188,294.3066 3027.2656,294.666 Z " fill="#000000"/><text fill="#000000" font-family="sans-serif" font-size="12" font-style="italic" lengthAdjust="spacing" textLength="81" x="3036.5" y="294.4492">&#171;value object&#187;</text><text fill="#000000" font-family="sans-serif" font-size="14" lengthAdjust="spacing" textLength="59" x="3047.5" y="312.5684">BirthDate</text><line style="stroke:#181818;stroke-width:0.5;" x1="3010.5" x2="3117.5" y1="321.082" y2="321.082"/><line style="stroke:#181818;stroke-width:0.5;" x1="3010.5" x2="3117.5" y1="329.082" y2="329.082"/></g><!--class MechanographicNumber--><g id="elem_MechanographicNumber"><rect codeLine="49" fill="#F1F1F1" height="76.543" id="MechanographicNumber" rx="2.5" ry="2.5" style="stroke:#181818;stroke-width:0.5;" width="186" x="1192" y="268.5"/><ellipse cx="1207" cy="298.7715" fill="#ADD1B2" rx="11" ry="11" style="stroke:#181818;stroke-width:1.0;"/><path d="M1209.7656,294.6465 Q1209.9219,294.4277 1210.1094,294.3184 Q1210.2969,294.209 1210.5156,294.209 Q1210.8906,294.209 1211.125,294.4746 Q1211.3594,294.7246 1211.3594,295.334 L1211.3594,296.7871 Q1211.3594,297.3965 1211.125,297.6621 Q1210.8906,297.9277 1210.5156,297.9277 Q1210.1719,297.9277 1209.9688,297.7246 Q1209.7656,297.5371 1209.6563,297.0215 Q1209.6094,296.6621 1209.4219,296.4746 Q1209.0938,296.0996 1208.4844,295.8809 Q1207.875,295.6621 1207.25,295.6621 Q1206.4844,295.6621 1205.8438,295.9902 Q1205.2188,296.3184 1204.7188,297.0684 Q1204.2344,297.8184 1204.2344,298.8496 L1204.2344,299.9434 Q1204.2344,301.1777 1205.125,302.0059 Q1206.0156,302.8184 1207.6094,302.8184 Q1208.5469,302.8184 1209.2031,302.5684 Q1209.5938,302.4121 1210.0156,301.9746 Q1210.2813,301.709 1210.4219,301.6309 Q1210.5781,301.5527 1210.7813,301.5527 Q1211.1094,301.5527 1211.3594,301.8184 Q1211.625,302.0684 1211.625,302.4121 Q1211.625,302.7559 1211.2813,303.1621 Q1210.7813,303.7402 1209.9844,304.0684 Q1208.9063,304.5215 1207.6094,304.5215 Q1206.0938,304.5215 1204.8906,303.8965 Q1203.9063,303.3965 1203.2188,302.334 Q1202.5313,301.2559 1202.5313,299.9746 L1202.5313,298.8184 Q1202.5313,297.4902 1203.1406,296.3496 Q1203.7656,295.1934 1204.8594,294.584 Q1205.9531,293.959 1207.1875,293.959 Q1207.9219,293.959 1208.5625,294.1309 Q1209.2188,294.2871 1209.7656,294.6465 Z " fill="#000000"/><text fill="#000000" font-family="sans-serif" font-size="12" font-style="italic" lengthAdjust="spacing" textLength="81" x="1257.5" y="286.4492">&#171;value object&#187;</text><text fill="#000000" font-family="sans-serif" font-size="12" font-style="italic" lengthAdjust="spacing" textLength="146" x="1225" y="302.4102">&#171;automatically generated&#187;</text><text fill="#000000" font-family="sans-serif" font-size="14" lengthAdjust="spacing" textLength="154" x="1221" y="320.5293">MechanographicNumber</text><line style="stroke:#181818;stroke-width:0.5;" x1="1193" x2="1377" y1="329.043" y2="329.043"/><line style="stroke:#181818;stroke-width:0.5;" x1="1193" x2="1377" y1="337.043" y2="337.043"/></g><!--class Grade--><g id="elem_Grade"><rect codeLine="51" fill="#F1F1F1" height="60.582" id="Grade" rx="2.5" ry="2.5" style="stroke:#181818;stroke-width:0.5;" width="109" x="794.5" y="276.5"/><ellipse cx="809.5" cy="298.791" fill="#ADD1B2" rx="11" ry="11" style="stroke:#181818;stroke-width:1.0;"/><path d="M812.2656,294.666 Q812.4219,294.4473 812.6094,294.3379 Q812.7969,294.2285 813.0156,294.2285 Q813.3906,294.2285 813.625,294.4941 Q813.8594,294.7441 813.8594,295.3535 L813.8594,296.8066 Q813.8594,297.416 813.625,297.6816 Q813.3906,297.9473 813.0156,297.9473 Q812.6719,297.9473 812.4688,297.7441 Q812.2656,297.5566 812.1563,297.041 Q812.1094,296.6816 811.9219,296.4941 Q811.5938,296.1191 810.9844,295.9004 Q810.375,295.6816 809.75,295.6816 Q808.9844,295.6816 808.3438,296.0098 Q807.7188,296.3379 807.2188,297.0879 Q806.7344,297.8379 806.7344,298.8691 L806.7344,299.9629 Q806.7344,301.1973 807.625,302.0254 Q808.5156,302.8379 810.1094,302.8379 Q811.0469,302.8379 811.7031,302.5879 Q812.0938,302.4316 812.5156,301.9941 Q812.7813,301.7285 812.9219,301.6504 Q813.0781,301.5723 813.2813,301.5723 Q813.6094,301.5723 813.8594,301.8379 Q814.125,302.0879 814.125,302.4316 Q814.125,302.7754 813.7813,303.1816 Q813.2813,303.7598 812.4844,304.0879 Q811.4063,304.541 810.1094,304.541 Q808.5938,304.541 807.3906,303.916 Q806.4063,303.416 805.7188,302.3535 Q805.0313,301.2754 805.0313,299.9941 L805.0313,298.8379 Q805.0313,297.5098 805.6406,296.3691 Q806.2656,295.2129 807.3594,294.6035 Q808.4531,293.9785 809.6875,293.9785 Q810.4219,293.9785 811.0625,294.1504 Q811.7188,294.3066 812.2656,294.666 Z " fill="#000000"/><text fill="#000000" font-family="sans-serif" font-size="12" font-style="italic" lengthAdjust="spacing" textLength="81" x="821.5" y="294.4492">&#171;value object&#187;</text><text fill="#000000" font-family="sans-serif" font-size="14" lengthAdjust="spacing" textLength="40" x="842" y="312.5684">Grade</text><line style="stroke:#181818;stroke-width:0.5;" x1="795.5" x2="902.5" y1="321.082" y2="321.082"/><line style="stroke:#181818;stroke-width:0.5;" x1="795.5" x2="902.5" y1="329.082" y2="329.082"/></g><!--class Course--><g id="elem_Course"><rect codeLine="53" fill="#F1F1F1" height="159.7266" id="Course" rx="2.5" ry="2.5" style="stroke:#181818;stroke-width:0.5;" width="515" x="457.5" y="7"/><ellipse cx="687.75" cy="23" fill="#ADD1B2" rx="11" ry="11" style="stroke:#181818;stroke-width:1.0;"/><path d="M690.5156,18.875 Q690.6719,18.6563 690.8594,18.5469 Q691.0469,18.4375 691.2656,18.4375 Q691.6406,18.4375 691.875,18.7031 Q692.1094,18.9531 692.1094,19.5625 L692.1094,21.0156 Q692.1094,21.625 691.875,21.8906 Q691.6406,22.1563 691.2656,22.1563 Q690.9219,22.1563 690.7188,21.9531 Q690.5156,21.7656 690.4063,21.25 Q690.3594,20.8906 690.1719,20.7031 Q689.8438,20.3281 689.2344,20.1094 Q688.625,19.8906 688,19.8906 Q687.2344,19.8906 686.5938,20.2188 Q685.9688,20.5469 685.4688,21.2969 Q684.9844,22.0469 684.9844,23.0781 L684.9844,24.1719 Q684.9844,25.4063 685.875,26.2344 Q686.7656,27.0469 688.3594,27.0469 Q689.2969,27.0469 689.9531,26.7969 Q690.3438,26.6406 690.7656,26.2031 Q691.0313,25.9375 691.1719,25.8594 Q691.3281,25.7813 691.5313,25.7813 Q691.8594,25.7813 692.1094,26.0469 Q692.375,26.2969 692.375,26.6406 Q692.375,26.9844 692.0313,27.3906 Q691.5313,27.9688 690.7344,28.2969 Q689.6563,28.75 688.3594,28.75 Q686.8438,28.75 685.6406,28.125 Q684.6563,27.625 683.9688,26.5625 Q683.2813,25.4844 683.2813,24.2031 L683.2813,23.0469 Q683.2813,21.7188 683.8906,20.5781 Q684.5156,19.4219 685.6094,18.8125 Q686.7031,18.1875 687.9375,18.1875 Q688.6719,18.1875 689.3125,18.3594 Q689.9688,18.5156 690.5156,18.875 Z " fill="#000000"/><text fill="#000000" font-family="sans-serif" font-size="14" lengthAdjust="spacing" textLength="46" x="708.25" y="28.7969">Course</text><line style="stroke:#181818;stroke-width:0.5;" x1="458.5" x2="971.5" y1="39" y2="39"/><ellipse cx="468.5" cy="53.8105" fill="#000000" rx="3" ry="3" style="stroke:#000000;stroke-width:1.0;"/><text fill="#000000" font-family="sans-serif" font-size="14" lengthAdjust="spacing" textLength="30" x="477.5" y="58.1074">int id</text><ellipse cx="468.5" cy="72.4316" fill="#000000" rx="3" ry="3" style="stroke:#000000;stroke-width:1.0;"/><text fill="#000000" font-family="sans-serif" font-size="14" lengthAdjust="spacing" textLength="35" x="477.5" y="76.7285">name</text><ellipse cx="468.5" cy="91.0527" fill="#000000" rx="3" ry="3" style="stroke:#000000;stroke-width:1.0;"/><text fill="#000000" font-family="sans-serif" font-size="14" lengthAdjust="spacing" textLength="128" x="477.5" y="95.3496">CourseStatus status</text><ellipse cx="468.5" cy="109.6738" fill="#000000" rx="3" ry="3" style="stroke:#000000;stroke-width:1.0;"/><text fill="#000000" font-family="sans-serif" font-size="14" lengthAdjust="spacing" textLength="69" x="477.5" y="113.9707">Code code</text><ellipse cx="468.5" cy="128.2949" fill="#000000" rx="3" ry="3" style="stroke:#000000;stroke-width:1.0;"/><text fill="#000000" font-family="sans-serif" font-size="14" lengthAdjust="spacing" textLength="98" x="477.5" y="132.5918">Teacher regent</text><line style="stroke:#181818;stroke-width:0.5;" x1="458.5" x2="971.5" y1="140.1055" y2="140.1055"/><ellipse cx="468.5" cy="154.916" fill="#84BE84" rx="3" ry="3" style="stroke:#038048;stroke-width:1.0;"/><text fill="#000000" font-family="sans-serif" font-size="14" lengthAdjust="spacing" textLength="489" x="477.5" y="159.2129">Course(int id, String name, CourseStatus status, Code code, Teacher regent)</text></g><!--class FormativeExam--><g id="elem_FormativeExam"><rect codeLine="62" fill="#F1F1F1" height="113.7852" id="FormativeExam" rx="2.5" ry="2.5" style="stroke:#181818;stroke-width:0.5;" width="129" x="86.5" y="727.5"/><ellipse cx="101.5" cy="757.7715" fill="#ADD1B2" rx="11" ry="11" style="stroke:#181818;stroke-width:1.0;"/><path d="M104.2656,753.6465 Q104.4219,753.4277 104.6094,753.3184 Q104.7969,753.209 105.0156,753.209 Q105.3906,753.209 105.625,753.4746 Q105.8594,753.7246 105.8594,754.334 L105.8594,755.7871 Q105.8594,756.3965 105.625,756.6621 Q105.3906,756.9277 105.0156,756.9277 Q104.6719,756.9277 104.4688,756.7246 Q104.2656,756.5371 104.1563,756.0215 Q104.1094,755.6621 103.9219,755.4746 Q103.5938,755.0996 102.9844,754.8809 Q102.375,754.6621 101.75,754.6621 Q100.9844,754.6621 100.3438,754.9902 Q99.7188,755.3184 99.2188,756.0684 Q98.7344,756.8184 98.7344,757.8496 L98.7344,758.9434 Q98.7344,760.1777 99.625,761.0059 Q100.5156,761.8184 102.1094,761.8184 Q103.0469,761.8184 103.7031,761.5684 Q104.0938,761.4121 104.5156,760.9746 Q104.7813,760.709 104.9219,760.6309 Q105.0781,760.5527 105.2813,760.5527 Q105.6094,760.5527 105.8594,760.8184 Q106.125,761.0684 106.125,761.4121 Q106.125,761.7559 105.7813,762.1621 Q105.2813,762.7402 104.4844,763.0684 Q103.4063,763.5215 102.1094,763.5215 Q100.5938,763.5215 99.3906,762.8965 Q98.4063,762.3965 97.7188,761.334 Q97.0313,760.2559 97.0313,758.9746 L97.0313,757.8184 Q97.0313,756.4902 97.6406,755.3496 Q98.2656,754.1934 99.3594,753.584 Q100.4531,752.959 101.6875,752.959 Q102.4219,752.959 103.0625,753.1309 Q103.7188,753.2871 104.2656,753.6465 Z " fill="#000000"/><text fill="#000000" font-family="sans-serif" font-size="12" font-style="italic" lengthAdjust="spacing" textLength="35" x="146.5" y="745.4492">&#171;root&#187;</text><text fill="#000000" font-family="sans-serif" font-size="12" font-style="italic" lengthAdjust="spacing" textLength="44" x="142" y="761.4102">&#171;event&#187;</text><text fill="#000000" font-family="sans-serif" font-size="14" lengthAdjust="spacing" textLength="97" x="115.5" y="779.5293">FormativeExam</text><line style="stroke:#181818;stroke-width:0.5;" x1="87.5" x2="214.5" y1="788.043" y2="788.043"/><ellipse cx="97.5" cy="802.8535" fill="#000000" rx="3" ry="3" style="stroke:#000000;stroke-width:1.0;"/><text fill="#000000" font-family="sans-serif" font-size="14" lengthAdjust="spacing" textLength="85" x="106.5" y="807.1504">title &#171;unique&#187;</text><ellipse cx="97.5" cy="821.4746" fill="#000000" rx="3" ry="3" style="stroke:#000000;stroke-width:1.0;"/><text fill="#000000" font-family="sans-serif" font-size="14" lengthAdjust="spacing" textLength="77" x="106.5" y="825.7715">courseCode</text><line style="stroke:#181818;stroke-width:0.5;" x1="87.5" x2="214.5" y1="833.2852" y2="833.2852"/></g><!--class ExamGrade--><g id="elem_ExamGrade"><rect codeLine="67" fill="#F1F1F1" height="97.8242" id="ExamGrade" rx="2.5" ry="2.5" style="stroke:#181818;stroke-width:0.5;" width="206" x="1092" y="962"/><ellipse cx="1152.25" cy="984.291" fill="#ADD1B2" rx="11" ry="11" style="stroke:#181818;stroke-width:1.0;"/><path d="M1155.0156,980.166 Q1155.1719,979.9473 1155.3594,979.8379 Q1155.5469,979.7285 1155.7656,979.7285 Q1156.1406,979.7285 1156.375,979.9941 Q1156.6094,980.2441 1156.6094,980.8535 L1156.6094,982.3066 Q1156.6094,982.916 1156.375,983.1816 Q1156.1406,983.4473 1155.7656,983.4473 Q1155.4219,983.4473 1155.2188,983.2441 Q1155.0156,983.0566 1154.9063,982.541 Q1154.8594,982.1816 1154.6719,981.9941 Q1154.3438,981.6191 1153.7344,981.4004 Q1153.125,981.1816 1152.5,981.1816 Q1151.7344,981.1816 1151.0938,981.5098 Q1150.4688,981.8379 1149.9688,982.5879 Q1149.4844,983.3379 1149.4844,984.3691 L1149.4844,985.4629 Q1149.4844,986.6973 1150.375,987.5254 Q1151.2656,988.3379 1152.8594,988.3379 Q1153.7969,988.3379 1154.4531,988.0879 Q1154.8438,987.9316 1155.2656,987.4941 Q1155.5313,987.2285 1155.6719,987.1504 Q1155.8281,987.0723 1156.0313,987.0723 Q1156.3594,987.0723 1156.6094,987.3379 Q1156.875,987.5879 1156.875,987.9316 Q1156.875,988.2754 1156.5313,988.6816 Q1156.0313,989.2598 1155.2344,989.5879 Q1154.1563,990.041 1152.8594,990.041 Q1151.3438,990.041 1150.1406,989.416 Q1149.1563,988.916 1148.4688,987.8535 Q1147.7813,986.7754 1147.7813,985.4941 L1147.7813,984.3379 Q1147.7813,983.0098 1148.3906,981.8691 Q1149.0156,980.7129 1150.1094,980.1035 Q1151.2031,979.4785 1152.4375,979.4785 Q1153.1719,979.4785 1153.8125,979.6504 Q1154.4688,979.8066 1155.0156,980.166 Z " fill="#000000"/><text fill="#000000" font-family="sans-serif" font-size="12" font-style="italic" lengthAdjust="spacing" textLength="81" x="1170.75" y="979.9492">&#171;value object&#187;</text><text fill="#000000" font-family="sans-serif" font-size="14" lengthAdjust="spacing" textLength="74" x="1174.25" y="998.0684">ExamGrade</text><line style="stroke:#181818;stroke-width:0.5;" x1="1093" x2="1297" y1="1006.582" y2="1006.582"/><ellipse cx="1103" cy="1021.3926" fill="#000000" rx="3" ry="3" style="stroke:#000000;stroke-width:1.0;"/><text fill="#000000" font-family="sans-serif" font-size="14" lengthAdjust="spacing" textLength="56" x="1112" y="1025.6895">int grade</text><ellipse cx="1103" cy="1040.0137" fill="#000000" rx="3" ry="3" style="stroke:#000000;stroke-width:1.0;"/><text fill="#000000" font-family="sans-serif" font-size="14" lengthAdjust="spacing" textLength="180" x="1112" y="1044.3105">eCourseSystemUser student</text><line style="stroke:#181818;stroke-width:0.5;" x1="1093" x2="1297" y1="1051.8242" y2="1051.8242"/></g><!--class RepositoryFactory--><g id="elem_RepositoryFactory"><rect codeLine="72" fill="#F1F1F1" height="48" id="RepositoryFactory" rx="2.5" ry="2.5" style="stroke:#181818;stroke-width:0.5;" width="148" x="1393" y="760.5"/><ellipse cx="1408" cy="776.5" fill="#ADD1B2" rx="11" ry="11" style="stroke:#181818;stroke-width:1.0;"/><path d="M1410.7656,772.375 Q1410.9219,772.1563 1411.1094,772.0469 Q1411.2969,771.9375 1411.5156,771.9375 Q1411.8906,771.9375 1412.125,772.2031 Q1412.3594,772.4531 1412.3594,773.0625 L1412.3594,774.5156 Q1412.3594,775.125 1412.125,775.3906 Q1411.8906,775.6563 1411.5156,775.6563 Q1411.1719,775.6563 1410.9688,775.4531 Q1410.7656,775.2656 1410.6563,774.75 Q1410.6094,774.3906 1410.4219,774.2031 Q1410.0938,773.8281 1409.4844,773.6094 Q1408.875,773.3906 1408.25,773.3906 Q1407.4844,773.3906 1406.8438,773.7188 Q1406.2188,774.0469 1405.7188,774.7969 Q1405.2344,775.5469 1405.2344,776.5781 L1405.2344,777.6719 Q1405.2344,778.9063 1406.125,779.7344 Q1407.0156,780.5469 1408.6094,780.5469 Q1409.5469,780.5469 1410.2031,780.2969 Q1410.5938,780.1406 1411.0156,779.7031 Q1411.2813,779.4375 1411.4219,779.3594 Q1411.5781,779.2813 1411.7813,779.2813 Q1412.1094,779.2813 1412.3594,779.5469 Q1412.625,779.7969 1412.625,780.1406 Q1412.625,780.4844 1412.2813,780.8906 Q1411.7813,781.4688 1410.9844,781.7969 Q1409.9063,782.25 1408.6094,782.25 Q1407.0938,782.25 1405.8906,781.625 Q1404.9063,781.125 1404.2188,780.0625 Q1403.5313,778.9844 1403.5313,777.7031 L1403.5313,776.5469 Q1403.5313,775.2188 1404.1406,774.0781 Q1404.7656,772.9219 1405.8594,772.3125 Q1406.9531,771.6875 1408.1875,771.6875 Q1408.9219,771.6875 1409.5625,771.8594 Q1410.2188,772.0156 1410.7656,772.375 Z " fill="#000000"/><text fill="#000000" font-family="sans-serif" font-size="14" lengthAdjust="spacing" textLength="116" x="1422" y="782.2969">RepositoryFactory</text><line style="stroke:#181818;stroke-width:0.5;" x1="1394" x2="1540" y1="792.5" y2="792.5"/><line style="stroke:#181818;stroke-width:0.5;" x1="1394" x2="1540" y1="800.5" y2="800.5"/></g><!--class UserRepository--><g id="elem_UserRepository"><rect codeLine="76" fill="#F1F1F1" height="196.9688" id="UserRepository" rx="2.5" ry="2.5" style="stroke:#181818;stroke-width:0.5;" width="328" x="1576" y="686"/><ellipse cx="1687.25" cy="702" fill="#ADD1B2" rx="11" ry="11" style="stroke:#181818;stroke-width:1.0;"/><path d="M1690.0156,697.875 Q1690.1719,697.6563 1690.3594,697.5469 Q1690.5469,697.4375 1690.7656,697.4375 Q1691.1406,697.4375 1691.375,697.7031 Q1691.6094,697.9531 1691.6094,698.5625 L1691.6094,700.0156 Q1691.6094,700.625 1691.375,700.8906 Q1691.1406,701.1563 1690.7656,701.1563 Q1690.4219,701.1563 1690.2188,700.9531 Q1690.0156,700.7656 1689.9063,700.25 Q1689.8594,699.8906 1689.6719,699.7031 Q1689.3438,699.3281 1688.7344,699.1094 Q1688.125,698.8906 1687.5,698.8906 Q1686.7344,698.8906 1686.0938,699.2188 Q1685.4688,699.5469 1684.9688,700.2969 Q1684.4844,701.0469 1684.4844,702.0781 L1684.4844,703.1719 Q1684.4844,704.4063 1685.375,705.2344 Q1686.2656,706.0469 1687.8594,706.0469 Q1688.7969,706.0469 1689.4531,705.7969 Q1689.8438,705.6406 1690.2656,705.2031 Q1690.5313,704.9375 1690.6719,704.8594 Q1690.8281,704.7813 1691.0313,704.7813 Q1691.3594,704.7813 1691.6094,705.0469 Q1691.875,705.2969 1691.875,705.6406 Q1691.875,705.9844 1691.5313,706.3906 Q1691.0313,706.9688 1690.2344,707.2969 Q1689.1563,707.75 1687.8594,707.75 Q1686.3438,707.75 1685.1406,707.125 Q1684.1563,706.625 1683.4688,705.5625 Q1682.7813,704.4844 1682.7813,703.2031 L1682.7813,702.0469 Q1682.7813,700.7188 1683.3906,699.5781 Q1684.0156,698.4219 1685.1094,697.8125 Q1686.2031,697.1875 1687.4375,697.1875 Q1688.1719,697.1875 1688.8125,697.3594 Q1689.4688,697.5156 1690.0156,697.875 Z " fill="#000000"/><text fill="#000000" font-family="sans-serif" font-size="14" lengthAdjust="spacing" textLength="97" x="1707.75" y="707.7969">UserRepository</text><line style="stroke:#181818;stroke-width:0.5;" x1="1577" x2="1903" y1="718" y2="718"/><line style="stroke:#181818;stroke-width:0.5;" x1="1577" x2="1903" y1="726" y2="726"/><ellipse cx="1587" cy="740.8105" fill="#84BE84" rx="3" ry="3" style="stroke:#038048;stroke-width:1.0;"/><text fill="#000000" font-family="sans-serif" font-size="14" lengthAdjust="spacing" textLength="127" x="1596" y="745.1074">addUser(user: user)</text><ellipse cx="1587" cy="759.4316" fill="#84BE84" rx="3" ry="3" style="stroke:#038048;stroke-width:1.0;"/><text fill="#000000" font-family="sans-serif" font-size="14" lengthAdjust="spacing" textLength="150" x="1596" y="763.7285">removeUser(user: user)</text><ellipse cx="1587" cy="787.3633" fill="#84BE84" rx="3" ry="3" style="stroke:#038048;stroke-width:1.0;"/><text fill="#000000" font-family="sans-serif" font-size="14" lengthAdjust="spacing" textLength="298" x="1596" y="782.3496">CreateUser(String: fullName, String: fhortName,</text><text fill="#000000" font-family="sans-serif" font-size="14" lengthAdjust="spacing" textLength="286" x="1604" y="800.9707">Role: role, Email: email, Password, password)</text><ellipse cx="1587" cy="815.2949" fill="#84BE84" rx="3" ry="3" style="stroke:#038048;stroke-width:1.0;"/><text fill="#000000" font-family="sans-serif" font-size="14" lengthAdjust="spacing" textLength="183" x="1596" y="819.5918">searchUser(user: user): User</text><ellipse cx="1587" cy="833.916" fill="#84BE84" rx="3" ry="3" style="stroke:#038048;stroke-width:1.0;"/><text fill="#000000" font-family="sans-serif" font-size="14" lengthAdjust="spacing" textLength="172" x="1596" y="838.2129">alterUserStatus(User: user)</text><ellipse cx="1587" cy="852.5371" fill="#84BE84" rx="3" ry="3" style="stroke:#038048;stroke-width:1.0;"/><text fill="#000000" font-family="sans-serif" font-size="14" lengthAdjust="spacing" textLength="160" x="1596" y="856.834">totalNumberOfUsers(): int</text><ellipse cx="1587" cy="871.1582" fill="#84BE84" rx="3" ry="3" style="stroke:#038048;stroke-width:1.0;"/><text fill="#000000" font-family="sans-serif" font-size="14" lengthAdjust="spacing" textLength="184" x="1596" y="875.4551">listSystemUsers(): List&lt;User&gt;</text></g><!--class FormativeExamRepository--><g id="elem_FormativeExamRepository"><rect codeLine="86" fill="#F1F1F1" height="122.4844" id="FormativeExamRepository" rx="2.5" ry="2.5" style="stroke:#181818;stroke-width:0.5;" width="294" x="251" y="723.5"/><ellipse cx="311.25" cy="739.5" fill="#ADD1B2" rx="11" ry="11" style="stroke:#181818;stroke-width:1.0;"/><path d="M314.0156,735.375 Q314.1719,735.1563 314.3594,735.0469 Q314.5469,734.9375 314.7656,734.9375 Q315.1406,734.9375 315.375,735.2031 Q315.6094,735.4531 315.6094,736.0625 L315.6094,737.5156 Q315.6094,738.125 315.375,738.3906 Q315.1406,738.6563 314.7656,738.6563 Q314.4219,738.6563 314.2188,738.4531 Q314.0156,738.2656 313.9063,737.75 Q313.8594,737.3906 313.6719,737.2031 Q313.3438,736.8281 312.7344,736.6094 Q312.125,736.3906 311.5,736.3906 Q310.7344,736.3906 310.0938,736.7188 Q309.4688,737.0469 308.9688,737.7969 Q308.4844,738.5469 308.4844,739.5781 L308.4844,740.6719 Q308.4844,741.9063 309.375,742.7344 Q310.2656,743.5469 311.8594,743.5469 Q312.7969,743.5469 313.4531,743.2969 Q313.8438,743.1406 314.2656,742.7031 Q314.5313,742.4375 314.6719,742.3594 Q314.8281,742.2813 315.0313,742.2813 Q315.3594,742.2813 315.6094,742.5469 Q315.875,742.7969 315.875,743.1406 Q315.875,743.4844 315.5313,743.8906 Q315.0313,744.4688 314.2344,744.7969 Q313.1563,745.25 311.8594,745.25 Q310.3438,745.25 309.1406,744.625 Q308.1563,744.125 307.4688,743.0625 Q306.7813,741.9844 306.7813,740.7031 L306.7813,739.5469 Q306.7813,738.2188 307.3906,737.0781 Q308.0156,735.9219 309.1094,735.3125 Q310.2031,734.6875 311.4375,734.6875 Q312.1719,734.6875 312.8125,734.8594 Q313.4688,735.0156 314.0156,735.375 Z " fill="#000000"/><text fill="#000000" font-family="sans-serif" font-size="14" lengthAdjust="spacing" textLength="165" x="331.75" y="745.2969">FormativeExamRepository</text><line style="stroke:#181818;stroke-width:0.5;" x1="252" x2="544" y1="755.5" y2="755.5"/><line style="stroke:#181818;stroke-width:0.5;" x1="252" x2="544" y1="763.5" y2="763.5"/><ellipse cx="262" cy="778.3105" fill="#84BE84" rx="3" ry="3" style="stroke:#038048;stroke-width:1.0;"/><text fill="#000000" font-family="sans-serif" font-size="14" lengthAdjust="spacing" textLength="207" x="271" y="782.6074">addExam(FormativeExam: Exam)</text><ellipse cx="262" cy="796.9316" fill="#84BE84" rx="3" ry="3" style="stroke:#038048;stroke-width:1.0;"/><text fill="#000000" font-family="sans-serif" font-size="14" lengthAdjust="spacing" textLength="230" x="271" y="801.2285">removeExam(FormativeExam: Exam)</text><ellipse cx="262" cy="815.5527" fill="#84BE84" rx="3" ry="3" style="stroke:#038048;stroke-width:1.0;"/><text fill="#000000" font-family="sans-serif" font-size="14" lengthAdjust="spacing" textLength="268" x="271" y="819.8496">searchExam(FormativeExam: Exam): Exam</text><ellipse cx="262" cy="834.1738" fill="#84BE84" rx="3" ry="3" style="stroke:#038048;stroke-width:1.0;"/><text fill="#000000" font-family="sans-serif" font-size="14" lengthAdjust="spacing" textLength="165" x="271" y="838.4707">totalNumberOfExams(): int</text></g><!--class FormativeExamDto--><g id="elem_FormativeExamDto"><rect codeLine="93" fill="#F1F1F1" height="141.1055" id="FormativeExamDto" rx="2.5" ry="2.5" style="stroke:#181818;stroke-width:0.5;" width="778" x="580" y="714"/><ellipse cx="905.25" cy="730" fill="#ADD1B2" rx="11" ry="11" style="stroke:#181818;stroke-width:1.0;"/><path d="M908.0156,725.875 Q908.1719,725.6563 908.3594,725.5469 Q908.5469,725.4375 908.7656,725.4375 Q909.1406,725.4375 909.375,725.7031 Q909.6094,725.9531 909.6094,726.5625 L909.6094,728.0156 Q909.6094,728.625 909.375,728.8906 Q909.1406,729.1563 908.7656,729.1563 Q908.4219,729.1563 908.2188,728.9531 Q908.0156,728.7656 907.9063,728.25 Q907.8594,727.8906 907.6719,727.7031 Q907.3438,727.3281 906.7344,727.1094 Q906.125,726.8906 905.5,726.8906 Q904.7344,726.8906 904.0938,727.2188 Q903.4688,727.5469 902.9688,728.2969 Q902.4844,729.0469 902.4844,730.0781 L902.4844,731.1719 Q902.4844,732.4063 903.375,733.2344 Q904.2656,734.0469 905.8594,734.0469 Q906.7969,734.0469 907.4531,733.7969 Q907.8438,733.6406 908.2656,733.2031 Q908.5313,732.9375 908.6719,732.8594 Q908.8281,732.7813 909.0313,732.7813 Q909.3594,732.7813 909.6094,733.0469 Q909.875,733.2969 909.875,733.6406 Q909.875,733.9844 909.5313,734.3906 Q909.0313,734.9688 908.2344,735.2969 Q907.1563,735.75 905.8594,735.75 Q904.3438,735.75 903.1406,735.125 Q902.1563,734.625 901.4688,733.5625 Q900.7813,732.4844 900.7813,731.2031 L900.7813,730.0469 Q900.7813,728.7188 901.3906,727.5781 Q902.0156,726.4219 903.1094,725.8125 Q904.2031,725.1875 905.4375,725.1875 Q906.1719,725.1875 906.8125,725.3594 Q907.4688,725.5156 908.0156,725.875 Z " fill="#000000"/><text fill="#000000" font-family="sans-serif" font-size="14" lengthAdjust="spacing" textLength="119" x="925.75" y="735.7969">FormativeExamDto</text><line style="stroke:#181818;stroke-width:0.5;" x1="581" x2="1357" y1="746" y2="746"/><ellipse cx="591" cy="760.8105" fill="#000000" rx="3" ry="3" style="stroke:#000000;stroke-width:1.0;"/><text fill="#000000" font-family="sans-serif" font-size="14" lengthAdjust="spacing" textLength="31" x="600" y="765.1074">code</text><ellipse cx="591" cy="779.4316" fill="#000000" rx="3" ry="3" style="stroke:#000000;stroke-width:1.0;"/><text fill="#000000" font-family="sans-serif" font-size="14" lengthAdjust="spacing" textLength="80" x="600" y="783.7285">CourseCode</text><line style="stroke:#181818;stroke-width:0.5;" x1="581" x2="1357" y1="791.2422" y2="791.2422"/><ellipse cx="591" cy="806.0527" fill="#84BE84" rx="3" ry="3" style="stroke:#038048;stroke-width:1.0;"/><text fill="#000000" font-family="sans-serif" font-size="14" lengthAdjust="spacing" textLength="752" x="600" y="810.3496">FormativeExamDto(String code, String name, String description, String courseCode, String openDate, String closeDate)</text><ellipse cx="591" cy="824.6738" fill="#84BE84" rx="3" ry="3" style="stroke:#038048;stroke-width:1.0;"/><text fill="#000000" font-family="sans-serif" font-size="14" lengthAdjust="spacing" textLength="200" x="600" y="828.9707">FormativeExamDto toDto(exam)</text><ellipse cx="591" cy="843.2949" fill="#84BE84" rx="3" ry="3" style="stroke:#038048;stroke-width:1.0;"/><text fill="#000000" font-family="sans-serif" font-size="14" lengthAdjust="spacing" textLength="59" x="600" y="847.5918">toString()</text></g><!--class TakeFormativeExamService--><g id="elem_TakeFormativeExamService"><rect codeLine="101" fill="#F1F1F1" height="172.3086" id="TakeFormativeExamService" rx="2.5" ry="2.5" style="stroke:#181818;stroke-width:0.5;" width="821" x="2081.5" y="698.5"/><ellipse cx="2399.75" cy="720.791" fill="#ADD1B2" rx="11" ry="11" style="stroke:#181818;stroke-width:1.0;"/><path d="M2402.5156,716.666 Q2402.6719,716.4473 2402.8594,716.3379 Q2403.0469,716.2285 2403.2656,716.2285 Q2403.6406,716.2285 2403.875,716.4941 Q2404.1094,716.7441 2404.1094,717.3535 L2404.1094,718.8066 Q2404.1094,719.416 2403.875,719.6816 Q2403.6406,719.9473 2403.2656,719.9473 Q2402.9219,719.9473 2402.7188,719.7441 Q2402.5156,719.5566 2402.4063,719.041 Q2402.3594,718.6816 2402.1719,718.4941 Q2401.8438,718.1191 2401.2344,717.9004 Q2400.625,717.6816 2400,717.6816 Q2399.2344,717.6816 2398.5938,718.0098 Q2397.9688,718.3379 2397.4688,719.0879 Q2396.9844,719.8379 2396.9844,720.8691 L2396.9844,721.9629 Q2396.9844,723.1973 2397.875,724.0254 Q2398.7656,724.8379 2400.3594,724.8379 Q2401.2969,724.8379 2401.9531,724.5879 Q2402.3438,724.4316 2402.7656,723.9941 Q2403.0313,723.7285 2403.1719,723.6504 Q2403.3281,723.5723 2403.5313,723.5723 Q2403.8594,723.5723 2404.1094,723.8379 Q2404.375,724.0879 2404.375,724.4316 Q2404.375,724.7754 2404.0313,725.1816 Q2403.5313,725.7598 2402.7344,726.0879 Q2401.6563,726.541 2400.3594,726.541 Q2398.8438,726.541 2397.6406,725.916 Q2396.6563,725.416 2395.9688,724.3535 Q2395.2813,723.2754 2395.2813,721.9941 L2395.2813,720.8379 Q2395.2813,719.5098 2395.8906,718.3691 Q2396.5156,717.2129 2397.6094,716.6035 Q2398.7031,715.9785 2399.9375,715.9785 Q2400.6719,715.9785 2401.3125,716.1504 Q2401.9688,716.3066 2402.5156,716.666 Z " fill="#000000"/><text fill="#000000" font-family="sans-serif" font-size="12" font-style="italic" lengthAdjust="spacing" textLength="53" x="2481.75" y="716.4492">&#171;service&#187;</text><text fill="#000000" font-family="sans-serif" font-size="14" lengthAdjust="spacing" textLength="176" x="2420.25" y="734.5684">TakeFormativeExamService</text><line style="stroke:#181818;stroke-width:0.5;" x1="2082.5" x2="2901.5" y1="743.082" y2="743.082"/><ellipse cx="2092.5" cy="757.8926" fill="#000000" rx="3" ry="3" style="stroke:#000000;stroke-width:1.0;"/><text fill="#000000" font-family="sans-serif" font-size="14" lengthAdjust="spacing" textLength="311" x="2101.5" y="762.1895">ListExamCoursesService listExamCoursesService</text><ellipse cx="2092.5" cy="776.5137" fill="#000000" rx="3" ry="3" style="stroke:#000000;stroke-width:1.0;"/><text fill="#000000" font-family="sans-serif" font-size="14" lengthAdjust="spacing" textLength="165" x="2101.5" y="780.8105">eCourseSystemUser fuser</text><line style="stroke:#181818;stroke-width:0.5;" x1="2082.5" x2="2901.5" y1="788.3242" y2="788.3242"/><ellipse cx="2092.5" cy="803.1348" fill="#84BE84" rx="3" ry="3" style="stroke:#038048;stroke-width:1.0;"/><text fill="#000000" font-family="sans-serif" font-size="14" lengthAdjust="spacing" textLength="795" x="2101.5" y="807.4316">getFormativeExams(SystemUser user, FormativeExamRepository repoE, eCourseUserRepository repo) : List&lt;FormativeExam&gt;</text><ellipse cx="2092.5" cy="821.7559" fill="#84BE84" rx="3" ry="3" style="stroke:#038048;stroke-width:1.0;"/><text fill="#000000" font-family="sans-serif" font-size="14" lengthAdjust="spacing" textLength="506" x="2101.5" y="826.0527">findUser(SystemUser user, eCourseUserRepository repo ) : eCourseSystemUser</text><ellipse cx="2092.5" cy="840.377" fill="#84BE84" rx="3" ry="3" style="stroke:#038048;stroke-width:1.0;"/><text fill="#000000" font-family="sans-serif" font-size="14" lengthAdjust="spacing" textLength="389" x="2101.5" y="844.6738">getStudentCourses(eCourseSystemUser user) : List&lt;Course&gt;</text><ellipse cx="2092.5" cy="858.998" fill="#84BE84" rx="3" ry="3" style="stroke:#038048;stroke-width:1.0;"/><text fill="#000000" font-family="sans-serif" font-size="14" lengthAdjust="spacing" textLength="104" x="2101.5" y="863.2949">takeExam(exam)</text></g><!--class ListFormativeExamCoursesService--><g id="elem_ListFormativeExamCoursesService"><rect codeLine="111" fill="#F1F1F1" height="85.2422" id="ListFormativeExamCoursesService" rx="2.5" ry="2.5" style="stroke:#181818;stroke-width:0.5;" width="656" x="2454" y="968.5"/><ellipse cx="2668.25" cy="984.5" fill="#ADD1B2" rx="11" ry="11" style="stroke:#181818;stroke-width:1.0;"/><path d="M2671.0156,980.375 Q2671.1719,980.1563 2671.3594,980.0469 Q2671.5469,979.9375 2671.7656,979.9375 Q2672.1406,979.9375 2672.375,980.2031 Q2672.6094,980.4531 2672.6094,981.0625 L2672.6094,982.5156 Q2672.6094,983.125 2672.375,983.3906 Q2672.1406,983.6563 2671.7656,983.6563 Q2671.4219,983.6563 2671.2188,983.4531 Q2671.0156,983.2656 2670.9063,982.75 Q2670.8594,982.3906 2670.6719,982.2031 Q2670.3438,981.8281 2669.7344,981.6094 Q2669.125,981.3906 2668.5,981.3906 Q2667.7344,981.3906 2667.0938,981.7188 Q2666.4688,982.0469 2665.9688,982.7969 Q2665.4844,983.5469 2665.4844,984.5781 L2665.4844,985.6719 Q2665.4844,986.9063 2666.375,987.7344 Q2667.2656,988.5469 2668.8594,988.5469 Q2669.7969,988.5469 2670.4531,988.2969 Q2670.8438,988.1406 2671.2656,987.7031 Q2671.5313,987.4375 2671.6719,987.3594 Q2671.8281,987.2813 2672.0313,987.2813 Q2672.3594,987.2813 2672.6094,987.5469 Q2672.875,987.7969 2672.875,988.1406 Q2672.875,988.4844 2672.5313,988.8906 Q2672.0313,989.4688 2671.2344,989.7969 Q2670.1563,990.25 2668.8594,990.25 Q2667.3438,990.25 2666.1406,989.625 Q2665.1563,989.125 2664.4688,988.0625 Q2663.7813,986.9844 2663.7813,985.7031 L2663.7813,984.5469 Q2663.7813,983.2188 2664.3906,982.0781 Q2665.0156,980.9219 2666.1094,980.3125 Q2667.2031,979.6875 2668.4375,979.6875 Q2669.1719,979.6875 2669.8125,979.8594 Q2670.4688,980.0156 2671.0156,980.375 Z " fill="#000000"/><text fill="#000000" font-family="sans-serif" font-size="14" lengthAdjust="spacing" textLength="219" x="2688.75" y="990.2969">ListFormativeExamCoursesService</text><line style="stroke:#181818;stroke-width:0.5;" x1="2455" x2="3109" y1="1000.5" y2="1000.5"/><line style="stroke:#181818;stroke-width:0.5;" x1="2455" x2="3109" y1="1008.5" y2="1008.5"/><ellipse cx="2465" cy="1023.3105" fill="#84BE84" rx="3" ry="3" style="stroke:#038048;stroke-width:1.0;"/><text fill="#000000" font-family="sans-serif" font-size="14" lengthAdjust="spacing" textLength="600" x="2474" y="1027.6074">getFutureFormativeExams(List&lt;Course&gt; courses,FormativeExamRepository repo) : List&lt;Exam&gt;</text><ellipse cx="2465" cy="1041.9316" fill="#84BE84" rx="3" ry="3" style="stroke:#038048;stroke-width:1.0;"/><text fill="#000000" font-family="sans-serif" font-size="14" lengthAdjust="spacing" textLength="630" x="2474" y="1046.2285">getTakeableFormativeExams(List&lt;Course&gt; courses, FormativeExamRepository repoE) : List&lt;Exam&gt;</text></g><!--class FormativeEValListener--><g id="elem_FormativeEValListener"><rect codeLine="116" fill="#F1F1F1" height="48" id="FormativeEValListener" rx="2.5" ry="2.5" style="stroke:#181818;stroke-width:0.5;" width="175" x="2091.5" y="987"/><ellipse cx="2106.5" cy="1003" fill="#ADD1B2" rx="11" ry="11" style="stroke:#181818;stroke-width:1.0;"/><path d="M2109.2656,998.875 Q2109.4219,998.6563 2109.6094,998.5469 Q2109.7969,998.4375 2110.0156,998.4375 Q2110.3906,998.4375 2110.625,998.7031 Q2110.8594,998.9531 2110.8594,999.5625 L2110.8594,1001.0156 Q2110.8594,1001.625 2110.625,1001.8906 Q2110.3906,1002.1563 2110.0156,1002.1563 Q2109.6719,1002.1563 2109.4688,1001.9531 Q2109.2656,1001.7656 2109.1563,1001.25 Q2109.1094,1000.8906 2108.9219,1000.7031 Q2108.5938,1000.3281 2107.9844,1000.1094 Q2107.375,999.8906 2106.75,999.8906 Q2105.9844,999.8906 2105.3438,1000.2188 Q2104.7188,1000.5469 2104.2188,1001.2969 Q2103.7344,1002.0469 2103.7344,1003.0781 L2103.7344,1004.1719 Q2103.7344,1005.4063 2104.625,1006.2344 Q2105.5156,1007.0469 2107.1094,1007.0469 Q2108.0469,1007.0469 2108.7031,1006.7969 Q2109.0938,1006.6406 2109.5156,1006.2031 Q2109.7813,1005.9375 2109.9219,1005.8594 Q2110.0781,1005.7813 2110.2813,1005.7813 Q2110.6094,1005.7813 2110.8594,1006.0469 Q2111.125,1006.2969 2111.125,1006.6406 Q2111.125,1006.9844 2110.7813,1007.3906 Q2110.2813,1007.9688 2109.4844,1008.2969 Q2108.4063,1008.75 2107.1094,1008.75 Q2105.5938,1008.75 2104.3906,1008.125 Q2103.4063,1007.625 2102.7188,1006.5625 Q2102.0313,1005.4844 2102.0313,1004.2031 L2102.0313,1003.0469 Q2102.0313,1001.7188 2102.6406,1000.5781 Q2103.2656,999.4219 2104.3594,998.8125 Q2105.4531,998.1875 2106.6875,998.1875 Q2107.4219,998.1875 2108.0625,998.3594 Q2108.7188,998.5156 2109.2656,998.875 Z " fill="#000000"/><text fill="#000000" font-family="sans-serif" font-size="14" lengthAdjust="spacing" textLength="143" x="2120.5" y="1008.7969">FormativeEValListener</text><line style="stroke:#181818;stroke-width:0.5;" x1="2092.5" x2="2265.5" y1="1019" y2="1019"/><line style="stroke:#181818;stroke-width:0.5;" x1="2092.5" x2="2265.5" y1="1027" y2="1027"/></g><!--class CourseStatus--><g id="elem_CourseStatus"><rect fill="#F1F1F1" height="48" id="CourseStatus" rx="2.5" ry="2.5" style="stroke:#181818;stroke-width:0.5;" width="118" x="544" y="283"/><ellipse cx="559" cy="299" fill="#ADD1B2" rx="11" ry="11" style="stroke:#181818;stroke-width:1.0;"/><path d="M561.7656,294.875 Q561.9219,294.6563 562.1094,294.5469 Q562.2969,294.4375 562.5156,294.4375 Q562.8906,294.4375 563.125,294.7031 Q563.3594,294.9531 563.3594,295.5625 L563.3594,297.0156 Q563.3594,297.625 563.125,297.8906 Q562.8906,298.1563 562.5156,298.1563 Q562.1719,298.1563 561.9688,297.9531 Q561.7656,297.7656 561.6563,297.25 Q561.6094,296.8906 561.4219,296.7031 Q561.0938,296.3281 560.4844,296.1094 Q559.875,295.8906 559.25,295.8906 Q558.4844,295.8906 557.8438,296.2188 Q557.2188,296.5469 556.7188,297.2969 Q556.2344,298.0469 556.2344,299.0781 L556.2344,300.1719 Q556.2344,301.4063 557.125,302.2344 Q558.0156,303.0469 559.6094,303.0469 Q560.5469,303.0469 561.2031,302.7969 Q561.5938,302.6406 562.0156,302.2031 Q562.2813,301.9375 562.4219,301.8594 Q562.5781,301.7813 562.7813,301.7813 Q563.1094,301.7813 563.3594,302.0469 Q563.625,302.2969 563.625,302.6406 Q563.625,302.9844 563.2813,303.3906 Q562.7813,303.9688 561.9844,304.2969 Q560.9063,304.75 559.6094,304.75 Q558.0938,304.75 556.8906,304.125 Q555.9063,303.625 555.2188,302.5625 Q554.5313,301.4844 554.5313,300.2031 L554.5313,299.0469 Q554.5313,297.7188 555.1406,296.5781 Q555.7656,295.4219 556.8594,294.8125 Q557.9531,294.1875 559.1875,294.1875 Q559.9219,294.1875 560.5625,294.3594 Q561.2188,294.5156 561.7656,294.875 Z " fill="#000000"/><text fill="#000000" font-family="sans-serif" font-size="14" lengthAdjust="spacing" textLength="86" x="573" y="304.7969">CourseStatus</text><line style="stroke:#181818;stroke-width:0.5;" x1="545" x2="661" y1="315" y2="315"/><line style="stroke:#181818;stroke-width:0.5;" x1="545" x2="661" y1="323" y2="323"/></g><!--class CourseCode--><g id="elem_CourseCode"><rect fill="#F1F1F1" height="48" id="CourseCode" rx="2.5" ry="2.5" style="stroke:#181818;stroke-width:0.5;" width="112" x="7" y="987"/><ellipse cx="22" cy="1003" fill="#ADD1B2" rx="11" ry="11" style="stroke:#181818;stroke-width:1.0;"/><path d="M24.7656,998.875 Q24.9219,998.6563 25.1094,998.5469 Q25.2969,998.4375 25.5156,998.4375 Q25.8906,998.4375 26.125,998.7031 Q26.3594,998.9531 26.3594,999.5625 L26.3594,1001.0156 Q26.3594,1001.625 26.125,1001.8906 Q25.8906,1002.1563 25.5156,1002.1563 Q25.1719,1002.1563 24.9688,1001.9531 Q24.7656,1001.7656 24.6563,1001.25 Q24.6094,1000.8906 24.4219,1000.7031 Q24.0938,1000.3281 23.4844,1000.1094 Q22.875,999.8906 22.25,999.8906 Q21.4844,999.8906 20.8438,1000.2188 Q20.2188,1000.5469 19.7188,1001.2969 Q19.2344,1002.0469 19.2344,1003.0781 L19.2344,1004.1719 Q19.2344,1005.4063 20.125,1006.2344 Q21.0156,1007.0469 22.6094,1007.0469 Q23.5469,1007.0469 24.2031,1006.7969 Q24.5938,1006.6406 25.0156,1006.2031 Q25.2813,1005.9375 25.4219,1005.8594 Q25.5781,1005.7813 25.7813,1005.7813 Q26.1094,1005.7813 26.3594,1006.0469 Q26.625,1006.2969 26.625,1006.6406 Q26.625,1006.9844 26.2813,1007.3906 Q25.7813,1007.9688 24.9844,1008.2969 Q23.9063,1008.75 22.6094,1008.75 Q21.0938,1008.75 19.8906,1008.125 Q18.9063,1007.625 18.2188,1006.5625 Q17.5313,1005.4844 17.5313,1004.2031 L17.5313,1003.0469 Q17.5313,1001.7188 18.1406,1000.5781 Q18.7656,999.4219 19.8594,998.8125 Q20.9531,998.1875 22.1875,998.1875 Q22.9219,998.1875 23.5625,998.3594 Q24.2188,998.5156 24.7656,998.875 Z " fill="#000000"/><text fill="#000000" font-family="sans-serif" font-size="14" lengthAdjust="spacing" textLength="80" x="36" y="1008.7969">CourseCode</text><line style="stroke:#181818;stroke-width:0.5;" x1="8" x2="118" y1="1019" y2="1019"/><line style="stroke:#181818;stroke-width:0.5;" x1="8" x2="118" y1="1027" y2="1027"/></g><!--link SystemUser to EmailAdderss--><g id="link_SystemUser_EmailAdderss"><path codeLine="123" d="M2157,364.11 C2173.75,406.83 2196.27,464.27 2210.46,500.47 " fill="none" id="SystemUser-to-EmailAdderss" style="stroke:#181818;stroke-width:1.0;"/><polygon fill="#181818" points="2212.32,505.21,2212.754,495.3707,2210.4926,500.5559,2205.3074,498.2945,2212.32,505.21" style="stroke:#181818;stroke-width:1.0;"/><text fill="#000000" font-family="sans-serif" font-size="13" lengthAdjust="spacing" textLength="7" x="2202.1891" y="494.2079">1</text></g><!--link SystemUser to Password--><g id="link_SystemUser_Password"><path codeLine="124" d="M2188.85,353.58 C2194.63,358.46 2200.43,363.33 2206,368 C2248.08,403.28 2262.33,408.02 2301,447 C2317.66,463.79 2334.5,484.15 2347.7,501.05 " fill="none" id="SystemUser-to-Password" style="stroke:#181818;stroke-width:1.0;"/><polygon fill="#181818" points="2350.98,505.27,2348.6264,495.7065,2347.9162,501.3186,2342.3041,500.6085,2350.98,505.27" style="stroke:#181818;stroke-width:1.0;"/><text fill="#000000" font-family="sans-serif" font-size="13" lengthAdjust="spacing" textLength="7" x="2338.7165" y="494.2802">1</text></g><!--link SystemUser to Role--><g id="link_SystemUser_Role"><path codeLine="125" d="M2121.16,364.11 C2111.49,403.28 2098.78,454.82 2089.85,491.02 " fill="none" id="SystemUser-to-Role" style="stroke:#181818;stroke-width:1.0;"/><polygon fill="#181818" points="2088.56,496.25,2094.6019,488.4721,2089.7592,491.3959,2086.8354,486.5533,2088.56,496.25" style="stroke:#181818;stroke-width:1.0;"/><text fill="#000000" font-family="sans-serif" font-size="13" lengthAdjust="spacing" textLength="7" x="2082.5637" y="485.2942">1</text></g><!--link eCourseSystemUser to SystemUser--><g id="link_eCourseSystemUser_SystemUser"><path codeLine="127" d="M2046.64,125.97 C2062.75,158.8 2086.33,206.84 2105.08,245.04 " fill="none" id="eCourseSystemUser-to-SystemUser" style="stroke:#181818;stroke-width:1.0;"/><polygon fill="#181818" points="2107.34,249.65,2106.9683,239.8082,2105.1383,245.1608,2099.7856,243.3309,2107.34,249.65" style="stroke:#181818;stroke-width:1.0;"/><text fill="#000000" font-family="sans-serif" font-size="13" lengthAdjust="spacing" textLength="7" x="2096.5424" y="238.6837">1</text></g><!--link eCourseSystemUser to Role--><g id="link_eCourseSystemUser_Role"><path codeLine="128" d="M2032.3,125.73 C2041.7,208.07 2064,403.52 2074,491.16 " fill="none" id="eCourseSystemUser-to-Role" style="stroke:#181818;stroke-width:1.0;"/><polygon fill="#181818" points="2074.58,496.26,2077.5261,486.8621,2074.009,491.2927,2069.5784,487.7756,2074.58,496.26" style="stroke:#181818;stroke-width:1.0;"/><text fill="#000000" font-family="sans-serif" font-size="13" lengthAdjust="spacing" textLength="7" x="2066.2683" y="485.3058">1</text></g><!--link eCourseSystemUser to UserStatus--><g id="link_eCourseSystemUser_UserStatus"><path codeLine="129" d="M2070.57,125.72 C2111.9,162.35 2174.81,218.1 2219.72,257.89 " fill="none" id="eCourseSystemUser-to-UserStatus" style="stroke:#181818;stroke-width:1.0;"/><polygon fill="#181818" points="2223.46,261.21,2219.3738,252.2488,2219.7167,257.8953,2214.0702,258.2382,2223.46,261.21" style="stroke:#181818;stroke-width:1.0;"/><text fill="#000000" font-family="sans-serif" font-size="13" lengthAdjust="spacing" textLength="7" x="2208.5229" y="250.2988">1</text></g><!--link eCourseSystemUser to Acronym--><g id="link_eCourseSystemUser_Acronym"><path codeLine="130" d="M2108.51,122.34 C2173.64,151.55 2266.6,196.55 2342,246 C2354.12,253.95 2366.52,263.63 2377.54,272.87 " fill="none" id="eCourseSystemUser-to-Acronym" style="stroke:#181818;stroke-width:1.0;"/><polygon fill="#181818" points="2381.53,276.25,2377.2448,267.3823,2377.7136,273.0196,2372.0762,273.4885,2381.53,276.25" style="stroke:#181818;stroke-width:1.0;"/><text fill="#000000" font-family="sans-serif" font-size="13" lengthAdjust="spacing" textLength="7" x="2367.1112" y="265.2561">1</text></g><!--link eCourseSystemUser to NIF--><g id="link_eCourseSystemUser_NIF"><path codeLine="131" d="M2108.67,106.36 C2203.19,129.96 2362.55,176.38 2486,246 C2499.24,253.47 2512.41,263.48 2523.79,273.18 " fill="none" id="eCourseSystemUser-to-NIF" style="stroke:#181818;stroke-width:1.0;"/><polygon fill="#181818" points="2527.58,276.45,2523.3664,267.548,2523.7898,273.189,2518.1488,273.6123,2527.58,276.45" style="stroke:#181818;stroke-width:1.0;"/><text fill="#000000" font-family="sans-serif" font-size="13" lengthAdjust="spacing" textLength="7" x="2513.16" y="265.0137">1</text></g><!--link eCourseSystemUser to BirthDate--><g id="link_eCourseSystemUser_BirthDate"><path codeLine="132" d="M2108.84,89.15 C2311.16,93.29 2833.7,112.13 2982,197 C3011.7,214 3034,246.54 3047.79,271.66 " fill="none" id="eCourseSystemUser-to-BirthDate" style="stroke:#181818;stroke-width:1.0;"/><polygon fill="#181818" points="3050.26,276.25,3049.5112,266.4296,3047.8878,271.8486,3042.4689,270.2252,3050.26,276.25" style="stroke:#181818;stroke-width:1.0;"/><text fill="#000000" font-family="sans-serif" font-size="13" lengthAdjust="spacing" textLength="7" x="3039.7043" y="265.2561">1</text></g><!--link eCourseSystemUser to MechanographicNumber--><g id="link_eCourseSystemUser_MechanographicNumber"><path codeLine="133" d="M1947.43,88.02 C1824.3,91.05 1584.73,109 1405,197 C1372.01,213.15 1341.47,241.17 1319.45,264.75 " fill="none" id="eCourseSystemUser-to-MechanographicNumber" style="stroke:#181818;stroke-width:1.0;"/><polygon fill="#181818" points="1315.99,268.5,1325.04,264.6145,1319.3873,264.8315,1319.1704,259.1788,1315.99,268.5" style="stroke:#181818;stroke-width:1.0;"/><text fill="#000000" font-family="sans-serif" font-size="13" lengthAdjust="spacing" textLength="7" x="1313.8867" y="257.2231">1</text></g><!--link eCourseSystemUser to Grade--><g id="link_eCourseSystemUser_Grade"><path codeLine="134" d="M1947.22,93 C1691.18,109.17 912.19,161.15 872,197 C851.52,215.27 846.68,246.78 846.43,271.23 " fill="none" id="eCourseSystemUser-to-Grade" style="stroke:#181818;stroke-width:1.0;"/><polygon fill="#181818" points="846.44,276.34,850.4143,267.3286,846.4257,271.34,842.4143,267.3515,846.44,276.34" style="stroke:#181818;stroke-width:1.0;"/><polygon fill="#000000" points="872.0643,207.4447,881.4628,208.9001,880.5234,203.0978,872.0643,207.4447" style="stroke:#000000;stroke-width:1.0;"/><text fill="#000000" font-family="sans-serif" font-size="13" lengthAdjust="spacing" textLength="79" x="886" y="212.0283">student has a</text><text fill="#000000" font-family="sans-serif" font-size="13" lengthAdjust="spacing" textLength="7" x="838.1901" y="265.3647">1</text></g><!--link eCourseSystemUser to TakeFormativeExamService--><g id="link_eCourseSystemUser_TakeFormativeExamService"><path codeLine="136" d="M2108.73,97.11 C2257.69,115.75 2566.44,163.6 2630,246 C2732.25,378.55 2632.11,578.8 2557.22,693.78 " fill="none" id="eCourseSystemUser-to-TakeFormativeExamService" style="stroke:#181818;stroke-width:1.0;"/><polygon fill="#181818" points="2554.35,698.17,2562.6157,692.8149,2557.0805,693.9814,2555.9139,688.4461,2554.35,698.17" style="stroke:#181818;stroke-width:1.0;"/><polygon fill="#000000" points="2681.0042,411.6423,2677.9188,402.6462,2673.2203,406.1779,2681.0042,411.6423" style="stroke:#000000;stroke-width:1.0;"/><text fill="#000000" font-family="sans-serif" font-size="13" lengthAdjust="spacing" textLength="21" x="2687" y="413.0283">use</text></g><!--link eCourseSystemUser to ListFormativeExamCoursesService--><g id="link_eCourseSystemUser_ListFormativeExamCoursesService"><path codeLine="137" d="M2108.73,89.81 C2334.51,97.03 2956,132.64 2956,306 C2956,306 2956,306 2956,785.5 C2956,859.84 2895.65,924.48 2846.04,965.07 " fill="none" id="eCourseSystemUser-to-ListFormativeExamCoursesService" style="stroke:#181818;stroke-width:1.0;"/><polygon fill="#181818" points="2841.88,968.43,2851.3931,965.8802,2845.7676,965.2857,2846.3621,959.6601,2841.88,968.43" style="stroke:#181818;stroke-width:1.0;"/><polygon fill="#000000" points="2964.2213,539.9695,2960.6416,531.1584,2956.1462,534.9453,2964.2213,539.9695" style="stroke:#000000;stroke-width:1.0;"/><text fill="#000000" font-family="sans-serif" font-size="13" lengthAdjust="spacing" textLength="21" x="2970" y="541.5283">use</text></g><!--link eCourseSystemUser to FormativeExam--><g id="link_eCourseSystemUser_FormativeExam"><path codeLine="139" d="M1947.33,98.95 C1822.23,116.45 1574.17,153.25 1366,197 C1280.24,215.03 1257.34,215.99 1175,246 C1057.33,288.88 1034.29,314.62 921,368 C616.28,511.59 500.71,481.53 233,686 C217.71,697.68 203.34,712.68 191.03,727.4 " fill="none" id="eCourseSystemUser-FormativeExam" style="stroke:#181818;stroke-width:1.0;"/><polygon fill="#000000" points="854.2923,409.33,863.7987,409.0498,861.8185,403.5156,854.2923,409.33" style="stroke:#000000;stroke-width:1.0;"/><text fill="#000000" font-family="sans-serif" font-size="13" lengthAdjust="spacing" textLength="36" x="868" y="413.0283">take a</text><text fill="#000000" font-family="sans-serif" font-size="13" lengthAdjust="spacing" textLength="5" x="1934.4029" y="114.9631">*</text><text fill="#000000" font-family="sans-serif" font-size="13" lengthAdjust="spacing" textLength="5" x="190.8385" y="716.0557">*</text></g><!--link Course to CourseStatus--><g id="link_Course_CourseStatus"><path codeLine="142" d="M674.41,167.01 C654.52,205.71 631.83,249.89 617.46,277.85 " fill="none" id="Course-to-CourseStatus" style="stroke:#181818;stroke-width:1.0;"/><polygon fill="#181818" points="615.06,282.53,622.7261,276.3469,617.3416,278.0809,615.6076,272.6964,615.06,282.53" style="stroke:#181818;stroke-width:1.0;"/><text fill="#000000" font-family="sans-serif" font-size="13" lengthAdjust="spacing" textLength="7" x="610.1465" y="271.5574">1</text></g><!--link Course to CourseCode--><g id="link_Course_CourseCode"><path codeLine="143" d="M457.17,121.88 C264.03,154.74 33,213.39 33,306 C33,306 33,306 33,785.5 C33,856.73 48.02,939.55 56.8,981.91 " fill="none" id="Course-to-CourseCode" style="stroke:#181818;stroke-width:1.0;"/><polygon fill="#181818" points="57.84,986.87,59.9058,977.2402,56.8128,981.9766,52.0764,978.8837,57.84,986.87" style="stroke:#181818;stroke-width:1.0;"/><text fill="#000000" font-family="sans-serif" font-size="13" lengthAdjust="spacing" textLength="7" x="48.6209" y="975.5742">1</text></g><!--link Course to Grade--><g id="link_Course_Grade"><path codeLine="145" d="M744.38,167.15 C751.82,183.79 760.45,200.87 770,216 C783.76,237.8 802.73,259.6 818.63,276.28 " fill="none" id="Course-Grade" style="stroke:#181818;stroke-width:1.0;"/><polygon fill="#000000" points="772.1874,202.5116,774.8456,211.6431,779.7053,208.3367,772.1874,202.5116" style="stroke:#000000;stroke-width:1.0;"/><text fill="#000000" font-family="sans-serif" font-size="13" lengthAdjust="spacing" textLength="47" x="784" y="212.0283">refers to</text><text fill="#000000" font-family="sans-serif" font-size="13" lengthAdjust="spacing" textLength="7" x="739.6041" y="188.8209">1</text><text fill="#000000" font-family="sans-serif" font-size="13" lengthAdjust="spacing" textLength="7" x="804.6443" y="265.2923">1</text></g><!--link Course to eCourseSystemUser--><g id="link_Course_eCourseSystemUser"><path codeLine="147" d="M972.84,87 C1274.56,87 1757.09,87 1947.23,87 " fill="none" id="Course-eCourseSystemUser" style="stroke:#181818;stroke-width:1.0;"/><polygon fill="#000000" points="1435,74.6455,1444.0451,77.5844,1444.0451,71.7066,1435,74.6455" style="stroke:#000000;stroke-width:1.0;"/><text fill="#000000" font-family="sans-serif" font-size="13" lengthAdjust="spacing" textLength="35" x="1449" y="80.0283">is in a</text><text fill="#000000" font-family="sans-serif" font-size="13" lengthAdjust="spacing" textLength="5" x="980.5688" y="83.7844">*</text><text fill="#000000" font-family="sans-serif" font-size="13" lengthAdjust="spacing" textLength="5" x="1934.5535" y="83.2792">*</text></g><!--link FormativeExam to ExamGrade--><g id="link_FormativeExam_ExamGrade"><path codeLine="149" d="M186.46,841.72 C199.21,857.54 214.96,873.11 233,883 C379.25,963.16 874.74,995.3 1091.76,1005.74 " fill="none" id="FormativeExam-ExamGrade" style="stroke:#181818;stroke-width:1.0;"/><polygon fill="#000000" points="393.9199,923.5369,385.5437,919.0325,384.4958,924.8162,393.9199,923.5369" style="stroke:#000000;stroke-width:1.0;"/><text fill="#000000" font-family="sans-serif" font-size="13" lengthAdjust="spacing" textLength="21" x="398" y="928.0283">has</text><text fill="#000000" font-family="sans-serif" font-size="13" lengthAdjust="spacing" textLength="7" x="183.1554" y="863.3764">1</text><text fill="#000000" font-family="sans-serif" font-size="13" lengthAdjust="spacing" textLength="7" x="1076.9213" y="1001.775">1</text></g><!--link FormativeExam to CourseCode--><g id="link_FormativeExam_CourseCode"><path codeLine="150" d="M129.02,841.57 C110.64,888.46 85.36,952.96 72.04,986.93 " fill="none" id="FormativeExam-CourseCode" style="stroke:#181818;stroke-width:1.0;"/><polygon fill="#000000" points="103.1752,927.3006,109.2125,919.952,103.7401,917.8069,103.1752,927.3006" style="stroke:#000000;stroke-width:1.0;"/><text fill="#000000" font-family="sans-serif" font-size="13" lengthAdjust="spacing" textLength="21" x="114" y="928.0283">has</text><text fill="#000000" font-family="sans-serif" font-size="13" lengthAdjust="spacing" textLength="5" x="121.1895" y="863.2091">*</text><text fill="#000000" font-family="sans-serif" font-size="13" lengthAdjust="spacing" textLength="7" x="66.4596" y="975.6495">1</text></g><!--link ExamGrade to eCourseSystemUser--><g id="link_ExamGrade_eCourseSystemUser"><path codeLine="151" d="M1298.23,1004.54 C1475.85,993.16 1829.17,961.11 1922,883 C1957.23,853.36 1957,831.54 1957,785.5 C1957,306 1957,306 1957,306 C1957,240.12 1986.67,168.31 2007.65,125.77 " fill="none" id="ExamGrade-eCourseSystemUser" style="stroke:#181818;stroke-width:1.0;"/><polygon fill="#000000" points="1965.1407,532.255,1957.1723,537.4469,1961.7459,541.139,1965.1407,532.255" style="stroke:#000000;stroke-width:1.0;"/><text fill="#000000" font-family="sans-serif" font-size="13" lengthAdjust="spacing" textLength="21" x="1971" y="541.5283">has</text><text fill="#000000" font-family="sans-serif" font-size="13" lengthAdjust="spacing" textLength="7" x="1306.068" y="1000.4868">1</text><text fill="#000000" font-family="sans-serif" font-size="13" lengthAdjust="spacing" textLength="7" x="1996.998" y="147.0938">1</text></g><!--link eCourseSystemUser to TakeFormativeExamUI--><g id="link_eCourseSystemUser_TakeFormativeExamUI"><path codeLine="153" d="M1970.2,125.72 C1919.51,158.81 1844.92,207.5 1786.02,245.94 " fill="none" id="eCourseSystemUser-TakeFormativeExamUI" style="stroke:#181818;stroke-width:1.0;stroke-dasharray:7.0,7.0;"/></g><!--link TakeFormativeExamUI to TakeFormativeExamController--><g id="link_TakeFormativeExamUI_TakeFormativeExamController"><path codeLine="154" d="M1624.21,368.24 C1596.36,392.27 1563.74,420.43 1533.31,446.69 " fill="none" id="TakeFormativeExamUI-TakeFormativeExamController" style="stroke:#181818;stroke-width:1.0;stroke-dasharray:7.0,7.0;"/></g><!--link TakeFormativeExamController to RepositoryFactory--><g id="link_TakeFormativeExamController_RepositoryFactory"><path codeLine="155" d="M1443.9,625.3 C1450.94,673.51 1459.11,729.5 1463.61,760.27 " fill="none" id="TakeFormativeExamController-RepositoryFactory" style="stroke:#181818;stroke-width:1.0;stroke-dasharray:7.0,7.0;"/></g><!--link TakeFormativeExamController to FormativeExamRepository--><g id="link_TakeFormativeExamController_FormativeExamRepository"><path codeLine="156" d="M1268.1,597.7 C1201.95,619.82 1124.23,642.66 1052,656 C837.45,695.64 770.52,621.78 562,686 C534.3,694.53 506.38,708.62 481.62,723.47 " fill="none" id="TakeFormativeExamController-FormativeExamRepository" style="stroke:#181818;stroke-width:1.0;stroke-dasharray:7.0,7.0;"/></g><!--link TakeFormativeExamController to UserRepository--><g id="link_TakeFormativeExamController_UserRepository"><path codeLine="157" d="M1541.68,625.3 C1566.36,644.98 1592.66,665.96 1617.78,686 " fill="none" id="TakeFormativeExamController-UserRepository" style="stroke:#181818;stroke-width:1.0;stroke-dasharray:7.0,7.0;"/></g><!--link TakeFormativeExamController to TakeFormativeExamService--><g id="link_TakeFormativeExamController_TakeFormativeExamService"><path codeLine="158" d="M1593.59,574.77 C1734.84,607.59 1944.67,656.34 2126.02,698.47 " fill="none" id="TakeFormativeExamController-TakeFormativeExamService" style="stroke:#181818;stroke-width:1.0;stroke-dasharray:7.0,7.0;"/></g><!--link TakeFormativeExamController to FormativeExam--><g id="link_TakeFormativeExamController_FormativeExam"><path codeLine="159" d="M1268.46,592.8 C1191.39,616.72 1097.45,642.29 1011,656 C925.56,669.55 310.71,647.98 233,686 C214.13,695.23 197.97,711.04 185.11,727.27 " fill="none" id="TakeFormativeExamController-FormativeExam" style="stroke:#181818;stroke-width:1.0;stroke-dasharray:7.0,7.0;"/></g><!--link TakeFormativeExamController to eCourseSystemUser--><g id="link_TakeFormativeExamController_eCourseSystemUser"><path codeLine="160" d="M1418.23,446.83 C1414.22,383.7 1420.11,300.54 1467,246 C1529.58,173.2 1807.6,121.52 1947.31,99.64 " fill="none" id="TakeFormativeExamController-eCourseSystemUser" style="stroke:#181818;stroke-width:1.0;stroke-dasharray:7.0,7.0;"/></g><!--link TakeFormativeExamController to Course--><g id="link_TakeFormativeExamController_Course"><path codeLine="161" d="M1268.13,513.55 C1096.96,487.63 843.44,438.53 777,368 C726.56,314.46 713.69,229.45 711.82,167.13 " fill="none" id="TakeFormativeExamController-Course" style="stroke:#181818;stroke-width:1.0;stroke-dasharray:7.0,7.0;"/></g><!--link TakeFormativeExamController to FormativeExamDto--><g id="link_TakeFormativeExamController_FormativeExamDto"><path codeLine="162" d="M1268.44,623.73 C1213.08,653.27 1151.96,685.88 1099.45,713.9 " fill="none" id="TakeFormativeExamController-FormativeExamDto" style="stroke:#181818;stroke-width:1.0;stroke-dasharray:7.0,7.0;"/></g><!--link TakeFormativeExamService to ListFormativeExamCoursesService--><g id="link_TakeFormativeExamService_ListFormativeExamCoursesService"><path codeLine="163" d="M2602.05,870.69 C2645.15,904.06 2692.64,940.82 2728,968.2 " fill="none" id="TakeFormativeExamService-ListFormativeExamCoursesService" style="stroke:#181818;stroke-width:1.0;stroke-dasharray:7.0,7.0;"/></g><!--link TakeFormativeExamService to FormativeEValListener--><g id="link_TakeFormativeExamService_FormativeEValListener"><path codeLine="164" d="M2373.22,870.69 C2314.94,912.5 2249.24,959.62 2211.13,986.95 " fill="none" id="TakeFormativeExamService-FormativeEValListener" style="stroke:#181818;stroke-width:1.0;stroke-dasharray:7.0,7.0;"/></g><!--link FormativeEValListener to TakeFormativeExamUI--><g id="link_FormativeEValListener_TakeFormativeExamUI"><path codeLine="165" d="M2155.73,986.68 C2131.57,961.95 2093.31,921.25 2064,883 C1927.18,704.44 1790.18,475.16 1728.23,368.1 " fill="none" id="FormativeEValListener-TakeFormativeExamUI" style="stroke:#181818;stroke-width:1.0;stroke-dasharray:7.0,7.0;"/></g><!--SRC=[bLTVRzis47_Nfo3oCYTn2-nLC0IaZbC4QBqXNlQq5rewHrnbqICfTswnxxuxaX8bcv9RFyWYxtV7k-Fzav47PYJRIcFadXL2GMw4h9CahxZMx0_-1PwasdCZZh3wb-zVdzdtXE7ldXLoKyglirk_rBWWX9xjHCqhzabeinZmFXgPCI18oxDjH5LOfizGDp_2o596KCzV0YygKSECzZT6YVej-MzKzwMiZP9L1ShRSCSU6bDA9RvnCde3wYXoO1mtlta0B6MZDBngK2zma5eOgKvCuQi7aE0poigJI04YjtAr-_Uwlu4X0DzMuDn6DiHj3noaXpFsf0tiQUc9nXysSswmxbhA0cw3Gm8FMooKb2RBy6LL6s5E-DhwPCttu5y9MzEoa-7zSLLKu5ZjkQWUYW8KBXQBFtdL09FRlp7Gigm5lSWAOhfuOuOwqB4Rmqr3yZ0OzXt3FLkj7pvyMld5u_F6hZhEt_7nLQe2-OvHFHvo9UlJVfI-VduQfNqGofIFtC0euZFa9Q_bc-A7KkJhPh-r_Xk2SGC3K584vBogJdZjDIWKMmH17nKlneznLzJvKDI6YS8lwd2v_YQT8xNzwoWeFST76yZ0yn9LLO2w6EzSnpvpqkVzcvh7HC-3rFcPm5w83aA_7rfmH60lC31ERCGqjVYdWIppsxazc4xg1I2AYZjiuA8tWWoplXVbsZG5sTv93Jd_n7ER-lsWFwiNRNJoeh0PtE0ZPVHiAw62lJp2276f0E_V4fsRKxPhgcfjVTtjO24pRkklcjcCIXcMErpR54mPqD-yIu8vE_YtheG3LtbvhaJAUcM6LmPKIC3PwuMoHXfUkTZ-RKTah6mfUTZJAonnmR6MQAiUhRAHI8YxqfQx0IwrbptqwJMKCteKvVvYjlcgxMoBwut5sojiOzF7LvTxosxd_eAlhUCkOGRPvHS5w5o90tMkRY_4VxSb3r1JLGgOIcgWdTkniz5EqW0wBrdJ7VliTgB3jfrkiV2zhfTZTCck2vEAkeLMqUtHFDmr8HQn7mvErxCUa73pqIYoRNe-qTtZpRZjn3Yek4I-E71S8YEH5mO5KpQkmdW_p2vDjqdMgkMesNdpTrSMReYmPpFGmFlVUwviJAFWpA7zitnmwVcKKpi5- -xgZJe_8d_wrivEY2GUZXW4eBQ91Y8WINvvWShEUBeK1vqaFRU-UvUncrzl1dDAZDwMpHYDYcsIN5vPI-_TzpZ82XadXw8x0VBpomG29vW9QZV3J61YKym4tBNUjEsWhEIQSPQDkMkqfjWkWtnnjck1td97s6_kRb24_HkE7wdDAwTiueUgrgh-X1EdsUBUacYRpkZvGy4EGuq-lXO1HghOvwMQs6SqjXfK1_53HNlImx2JMazdvz2x3XhKxB21koSofeg3Hvpv_dticp69VKV6eE4JBPdwV4FMY_dh6iD8KRd6Dgparz1ZqVjJobq3NpQHAmmE_rCwOFzFHbCHmLVoRP8tMgcJUFqUYIVy_Gy0]--></g></svg>