<?xml version="1.0" encoding="us-ascii" standalone="no"?><svg xmlns="http://www.w3.org/2000/svg" xmlns:xlink="http://www.w3.org/1999/xlink" contentStyleType="text/css" height="1543px" preserveAspectRatio="none" style="width:872px;height:1543px;background:#FFFFFF;" version="1.1" viewBox="0 0 872 1543" width="872px" zoomAndPan="magnify"><defs/><g><!--cluster ECOURSESYSTEMUSER--><g id="cluster_ECOURSESYSTEMUSER"><path d="M90.62,507.0137 L255.62,507.0137 A3.75,3.75 0 0 1 258.12,509.5137 L265.12,531.6348 L862.62,531.6348 A2.5,2.5 0 0 1 865.12,534.1348 L865.12,1357.5137 A2.5,2.5 0 0 1 862.62,1360.0137 L90.62,1360.0137 A2.5,2.5 0 0 1 88.12,1357.5137 L88.12,509.5137 A2.5,2.5 0 0 1 90.62,507.0137 " fill="none" style="stroke:#000000;stroke-width:1.5;"/><line style="stroke:#000000;stroke-width:1.5;" x1="88.12" x2="265.12" y1="531.6348" y2="531.6348"/><text fill="#000000" font-family="sans-serif" font-size="14" font-weight="bold" lengthAdjust="spacing" textLength="164" x="92.12" y="524.1211">ECOURSESYSTEMUSER</text><text fill="#000000" font-family="sans-serif" font-size="14" font-style="italic" lengthAdjust="spacing" textLength="82" x="439.62" y="548.7422">&#171;Aggregate&#187;</text></g><!--cluster COURSE--><g id="cluster_COURSE"><path d="M109.12,6.0137 L169.12,6.0137 A3.75,3.75 0 0 1 171.62,8.5137 L178.62,30.6348 L617.12,30.6348 A2.5,2.5 0 0 1 619.62,33.1348 L619.62,270.5137 A2.5,2.5 0 0 1 617.12,273.0137 L109.12,273.0137 A2.5,2.5 0 0 1 106.62,270.5137 L106.62,8.5137 A2.5,2.5 0 0 1 109.12,6.0137 " fill="none" style="stroke:#000000;stroke-width:1.5;"/><line style="stroke:#000000;stroke-width:1.5;" x1="106.62" x2="178.62" y1="30.6348" y2="30.6348"/><text fill="#000000" font-family="sans-serif" font-size="14" font-weight="bold" lengthAdjust="spacing" textLength="59" x="110.62" y="23.1211">COURSE</text><text fill="#000000" font-family="sans-serif" font-size="14" font-style="italic" lengthAdjust="spacing" textLength="81" x="326.62" y="47.7422">&#171;aggregate&#187;</text></g><!--cluster EXAM--><g id="cluster_EXAM"><path d="M106.62,297.0137 L147.62,297.0137 A3.75,3.75 0 0 1 150.12,299.5137 L157.12,321.6348 L612.62,321.6348 A2.5,2.5 0 0 1 615.12,324.1348 L615.12,480.5137 A2.5,2.5 0 0 1 612.62,483.0137 L106.62,483.0137 A2.5,2.5 0 0 1 104.12,480.5137 L104.12,299.5137 A2.5,2.5 0 0 1 106.62,297.0137 " fill="none" style="stroke:#000000;stroke-width:1.5;"/><line style="stroke:#000000;stroke-width:1.5;" x1="104.12" x2="157.12" y1="321.6348" y2="321.6348"/><text fill="#000000" font-family="sans-serif" font-size="14" font-weight="bold" lengthAdjust="spacing" textLength="40" x="108.12" y="314.1211">EXAM</text><text fill="#000000" font-family="sans-serif" font-size="14" font-style="italic" lengthAdjust="spacing" textLength="81" x="323.12" y="338.7422">&#171;aggregate&#187;</text></g><!--class SystemUser--><g id="elem_SystemUser"><rect codeLine="7" fill="#F1F1F1" height="113.7852" id="SystemUser" rx="2.5" ry="2.5" style="stroke:#181818;stroke-width:0.5;" width="107" x="491.12" y="1193.0137"/><ellipse cx="506.12" cy="1223.2852" fill="#ADD1B2" rx="11" ry="11" style="stroke:#181818;stroke-width:1.0;"/><path d="M508.8856,1219.1602 Q509.0419,1218.9414 509.2294,1218.832 Q509.4169,1218.7227 509.6356,1218.7227 Q510.0106,1218.7227 510.245,1218.9883 Q510.4794,1219.2383 510.4794,1219.8477 L510.4794,1221.3008 Q510.4794,1221.9102 510.245,1222.1758 Q510.0106,1222.4414 509.6356,1222.4414 Q509.2919,1222.4414 509.0888,1222.2383 Q508.8856,1222.0508 508.7763,1221.5352 Q508.7294,1221.1758 508.5419,1220.9883 Q508.2138,1220.6133 507.6044,1220.3945 Q506.995,1220.1758 506.37,1220.1758 Q505.6044,1220.1758 504.9638,1220.5039 Q504.3388,1220.832 503.8388,1221.582 Q503.3544,1222.332 503.3544,1223.3633 L503.3544,1224.457 Q503.3544,1225.6914 504.245,1226.5195 Q505.1356,1227.332 506.7294,1227.332 Q507.6669,1227.332 508.3231,1227.082 Q508.7138,1226.9258 509.1356,1226.4883 Q509.4013,1226.2227 509.5419,1226.1445 Q509.6981,1226.0664 509.9013,1226.0664 Q510.2294,1226.0664 510.4794,1226.332 Q510.745,1226.582 510.745,1226.9258 Q510.745,1227.2695 510.4013,1227.6758 Q509.9013,1228.2539 509.1044,1228.582 Q508.0263,1229.0352 506.7294,1229.0352 Q505.2138,1229.0352 504.0106,1228.4102 Q503.0263,1227.9102 502.3388,1226.8477 Q501.6513,1225.7695 501.6513,1224.4883 L501.6513,1223.332 Q501.6513,1222.0039 502.2606,1220.8633 Q502.8856,1219.707 503.9794,1219.0977 Q505.0731,1218.4727 506.3075,1218.4727 Q507.0419,1218.4727 507.6825,1218.6445 Q508.3388,1218.8008 508.8856,1219.1602 Z " fill="#000000"/><text fill="#000000" font-family="sans-serif" font-size="12" font-style="italic" lengthAdjust="spacing" textLength="35" x="540.12" y="1210.9629">&#171;root&#187;</text><text fill="#000000" font-family="sans-serif" font-size="12" font-style="italic" lengthAdjust="spacing" textLength="44" x="535.62" y="1226.9238">&#171;Entity&#187;</text><text fill="#000000" font-family="sans-serif" font-size="14" lengthAdjust="spacing" textLength="75" x="520.12" y="1245.043">SystemUser</text><line style="stroke:#181818;stroke-width:0.5;" x1="492.12" x2="597.12" y1="1253.5566" y2="1253.5566"/><ellipse cx="502.12" cy="1268.3672" fill="#000000" rx="3" ry="3" style="stroke:#000000;stroke-width:1.0;"/><text fill="#000000" font-family="sans-serif" font-size="14" lengthAdjust="spacing" textLength="36" x="511.12" y="1272.6641">Name</text><ellipse cx="502.12" cy="1286.9883" fill="#000000" rx="3" ry="3" style="stroke:#000000;stroke-width:1.0;"/><text fill="#000000" font-family="sans-serif" font-size="14" lengthAdjust="spacing" textLength="64" x="511.12" y="1291.2852">Username</text><line style="stroke:#181818;stroke-width:0.5;" x1="492.12" x2="597.12" y1="1298.7988" y2="1298.7988"/></g><!--class eCourseSystemUser--><g id="elem_eCourseSystemUser"><rect codeLine="12" fill="#F1F1F1" height="76.543" id="eCourseSystemUser" rx="2.5" ry="2.5" style="stroke:#181818;stroke-width:0.5;" width="161" x="104.12" y="822.5137"/><ellipse cx="119.12" cy="852.7852" fill="#ADD1B2" rx="11" ry="11" style="stroke:#181818;stroke-width:1.0;"/><path d="M121.8856,848.6602 Q122.0419,848.4414 122.2294,848.332 Q122.4169,848.2227 122.6356,848.2227 Q123.0106,848.2227 123.245,848.4883 Q123.4794,848.7383 123.4794,849.3477 L123.4794,850.8008 Q123.4794,851.4102 123.245,851.6758 Q123.0106,851.9414 122.6356,851.9414 Q122.2919,851.9414 122.0888,851.7383 Q121.8856,851.5508 121.7763,851.0352 Q121.7294,850.6758 121.5419,850.4883 Q121.2138,850.1133 120.6044,849.8945 Q119.995,849.6758 119.37,849.6758 Q118.6044,849.6758 117.9638,850.0039 Q117.3388,850.332 116.8388,851.082 Q116.3544,851.832 116.3544,852.8633 L116.3544,853.957 Q116.3544,855.1914 117.245,856.0195 Q118.1356,856.832 119.7294,856.832 Q120.6669,856.832 121.3231,856.582 Q121.7138,856.4258 122.1356,855.9883 Q122.4013,855.7227 122.5419,855.6445 Q122.6981,855.5664 122.9013,855.5664 Q123.2294,855.5664 123.4794,855.832 Q123.745,856.082 123.745,856.4258 Q123.745,856.7695 123.4013,857.1758 Q122.9013,857.7539 122.1044,858.082 Q121.0263,858.5352 119.7294,858.5352 Q118.2138,858.5352 117.0106,857.9102 Q116.0263,857.4102 115.3388,856.3477 Q114.6513,855.2695 114.6513,853.9883 L114.6513,852.832 Q114.6513,851.5039 115.2606,850.3633 Q115.8856,849.207 116.9794,848.5977 Q118.0731,847.9727 119.3075,847.9727 Q120.0419,847.9727 120.6825,848.1445 Q121.3388,848.3008 121.8856,848.6602 Z " fill="#000000"/><text fill="#000000" font-family="sans-serif" font-size="12" font-style="italic" lengthAdjust="spacing" textLength="35" x="180.12" y="840.4629">&#171;root&#187;</text><text fill="#000000" font-family="sans-serif" font-size="12" font-style="italic" lengthAdjust="spacing" textLength="44" x="175.62" y="856.4238">&#171;Entity&#187;</text><text fill="#000000" font-family="sans-serif" font-size="14" lengthAdjust="spacing" textLength="129" x="133.12" y="874.543">eCourseSystemUser</text><line style="stroke:#181818;stroke-width:0.5;" x1="105.12" x2="264.12" y1="883.0566" y2="883.0566"/><line style="stroke:#181818;stroke-width:0.5;" x1="105.12" x2="264.12" y1="891.0566" y2="891.0566"/></g><!--class EmailAdderss--><g id="elem_EmailAdderss"><rect codeLine="16" fill="#F1F1F1" height="60.582" id="EmailAdderss" rx="2.5" ry="2.5" style="stroke:#181818;stroke-width:0.5;" width="118" x="731.12" y="1168.5137"/><ellipse cx="746.12" cy="1190.8047" fill="#ADD1B2" rx="11" ry="11" style="stroke:#181818;stroke-width:1.0;"/><path d="M748.8856,1186.6797 Q749.0419,1186.4609 749.2294,1186.3516 Q749.4169,1186.2422 749.6356,1186.2422 Q750.0106,1186.2422 750.245,1186.5078 Q750.4794,1186.7578 750.4794,1187.3672 L750.4794,1188.8203 Q750.4794,1189.4297 750.245,1189.6953 Q750.0106,1189.9609 749.6356,1189.9609 Q749.2919,1189.9609 749.0888,1189.7578 Q748.8856,1189.5703 748.7763,1189.0547 Q748.7294,1188.6953 748.5419,1188.5078 Q748.2138,1188.1328 747.6044,1187.9141 Q746.995,1187.6953 746.37,1187.6953 Q745.6044,1187.6953 744.9638,1188.0234 Q744.3388,1188.3516 743.8388,1189.1016 Q743.3544,1189.8516 743.3544,1190.8828 L743.3544,1191.9766 Q743.3544,1193.2109 744.245,1194.0391 Q745.1356,1194.8516 746.7294,1194.8516 Q747.6669,1194.8516 748.3231,1194.6016 Q748.7138,1194.4453 749.1356,1194.0078 Q749.4013,1193.7422 749.5419,1193.6641 Q749.6981,1193.5859 749.9013,1193.5859 Q750.2294,1193.5859 750.4794,1193.8516 Q750.745,1194.1016 750.745,1194.4453 Q750.745,1194.7891 750.4013,1195.1953 Q749.9013,1195.7734 749.1044,1196.1016 Q748.0263,1196.5547 746.7294,1196.5547 Q745.2138,1196.5547 744.0106,1195.9297 Q743.0263,1195.4297 742.3388,1194.3672 Q741.6513,1193.2891 741.6513,1192.0078 L741.6513,1190.8516 Q741.6513,1189.5234 742.2606,1188.3828 Q742.8856,1187.2266 743.9794,1186.6172 Q745.0731,1185.9922 746.3075,1185.9922 Q747.0419,1185.9922 747.6825,1186.1641 Q748.3388,1186.3203 748.8856,1186.6797 Z " fill="#000000"/><text fill="#000000" font-family="sans-serif" font-size="12" font-style="italic" lengthAdjust="spacing" textLength="83" x="761.62" y="1186.4629">&#171;Value object&#187;</text><text fill="#000000" font-family="sans-serif" font-size="14" lengthAdjust="spacing" textLength="86" x="760.12" y="1204.582">EmailAdderss</text><line style="stroke:#181818;stroke-width:0.5;" x1="732.12" x2="848.12" y1="1213.0957" y2="1213.0957"/><line style="stroke:#181818;stroke-width:0.5;" x1="732.12" x2="848.12" y1="1221.0957" y2="1221.0957"/></g><!--class Role--><g id="elem_Role"><rect codeLine="18" fill="#F1F1F1" height="79.2031" id="Role" rx="2.5" ry="2.5" style="stroke:#181818;stroke-width:0.5;" width="102" x="739.12" y="1264.5137"/><ellipse cx="767.62" cy="1286.8047" fill="#ADD1B2" rx="11" ry="11" style="stroke:#181818;stroke-width:1.0;"/><path d="M770.3856,1282.6797 Q770.5419,1282.4609 770.7294,1282.3516 Q770.9169,1282.2422 771.1356,1282.2422 Q771.5106,1282.2422 771.745,1282.5078 Q771.9794,1282.7578 771.9794,1283.3672 L771.9794,1284.8203 Q771.9794,1285.4297 771.745,1285.6953 Q771.5106,1285.9609 771.1356,1285.9609 Q770.7919,1285.9609 770.5888,1285.7578 Q770.3856,1285.5703 770.2763,1285.0547 Q770.2294,1284.6953 770.0419,1284.5078 Q769.7138,1284.1328 769.1044,1283.9141 Q768.495,1283.6953 767.87,1283.6953 Q767.1044,1283.6953 766.4638,1284.0234 Q765.8388,1284.3516 765.3388,1285.1016 Q764.8544,1285.8516 764.8544,1286.8828 L764.8544,1287.9766 Q764.8544,1289.2109 765.745,1290.0391 Q766.6356,1290.8516 768.2294,1290.8516 Q769.1669,1290.8516 769.8231,1290.6016 Q770.2138,1290.4453 770.6356,1290.0078 Q770.9013,1289.7422 771.0419,1289.6641 Q771.1981,1289.5859 771.4013,1289.5859 Q771.7294,1289.5859 771.9794,1289.8516 Q772.245,1290.1016 772.245,1290.4453 Q772.245,1290.7891 771.9013,1291.1953 Q771.4013,1291.7734 770.6044,1292.1016 Q769.5263,1292.5547 768.2294,1292.5547 Q766.7138,1292.5547 765.5106,1291.9297 Q764.5263,1291.4297 763.8388,1290.3672 Q763.1513,1289.2891 763.1513,1288.0078 L763.1513,1286.8516 Q763.1513,1285.5234 763.7606,1284.3828 Q764.3856,1283.2266 765.4794,1282.6172 Q766.5731,1281.9922 767.8075,1281.9922 Q768.5419,1281.9922 769.1825,1282.1641 Q769.8388,1282.3203 770.3856,1282.6797 Z " fill="#000000"/><text fill="#000000" font-family="sans-serif" font-size="12" font-style="italic" lengthAdjust="spacing" textLength="44" x="782.62" y="1282.4629">&#171;Entity&#187;</text><text fill="#000000" font-family="sans-serif" font-size="14" lengthAdjust="spacing" textLength="29" x="790.12" y="1300.582">Role</text><line style="stroke:#181818;stroke-width:0.5;" x1="740.12" x2="840.12" y1="1309.0957" y2="1309.0957"/><ellipse cx="750.12" cy="1323.9063" fill="#000000" rx="3" ry="3" style="stroke:#000000;stroke-width:1.0;"/><text fill="#000000" font-family="sans-serif" font-size="14" lengthAdjust="spacing" textLength="76" x="759.12" y="1328.2031">String name</text><line style="stroke:#181818;stroke-width:0.5;" x1="740.12" x2="840.12" y1="1335.7168" y2="1335.7168"/></g><!--class UserStatus--><g id="elem_UserStatus"><rect codeLine="22" fill="#F1F1F1" height="97.8242" id="UserStatus" rx="2.5" ry="2.5" style="stroke:#181818;stroke-width:0.5;" width="101" x="494.12" y="1060.0137"/><ellipse cx="509.12" cy="1082.3047" fill="#ADD1B2" rx="11" ry="11" style="stroke:#181818;stroke-width:1.0;"/><path d="M511.8856,1078.1797 Q512.0419,1077.9609 512.2294,1077.8516 Q512.4169,1077.7422 512.6356,1077.7422 Q513.0106,1077.7422 513.245,1078.0078 Q513.4794,1078.2578 513.4794,1078.8672 L513.4794,1080.3203 Q513.4794,1080.9297 513.245,1081.1953 Q513.0106,1081.4609 512.6356,1081.4609 Q512.2919,1081.4609 512.0888,1081.2578 Q511.8856,1081.0703 511.7763,1080.5547 Q511.7294,1080.1953 511.5419,1080.0078 Q511.2138,1079.6328 510.6044,1079.4141 Q509.995,1079.1953 509.37,1079.1953 Q508.6044,1079.1953 507.9638,1079.5234 Q507.3388,1079.8516 506.8388,1080.6016 Q506.3544,1081.3516 506.3544,1082.3828 L506.3544,1083.4766 Q506.3544,1084.7109 507.245,1085.5391 Q508.1356,1086.3516 509.7294,1086.3516 Q510.6669,1086.3516 511.3231,1086.1016 Q511.7138,1085.9453 512.1356,1085.5078 Q512.4013,1085.2422 512.5419,1085.1641 Q512.6981,1085.0859 512.9013,1085.0859 Q513.2294,1085.0859 513.4794,1085.3516 Q513.745,1085.6016 513.745,1085.9453 Q513.745,1086.2891 513.4013,1086.6953 Q512.9013,1087.2734 512.1044,1087.6016 Q511.0263,1088.0547 509.7294,1088.0547 Q508.2138,1088.0547 507.0106,1087.4297 Q506.0263,1086.9297 505.3388,1085.8672 Q504.6513,1084.7891 504.6513,1083.5078 L504.6513,1082.3516 Q504.6513,1081.0234 505.2606,1079.8828 Q505.8856,1078.7266 506.9794,1078.1172 Q508.0731,1077.4922 509.3075,1077.4922 Q510.0419,1077.4922 510.6825,1077.6641 Q511.3388,1077.8203 511.8856,1078.1797 Z " fill="#000000"/><text fill="#000000" font-family="sans-serif" font-size="12" font-style="italic" lengthAdjust="spacing" textLength="46" x="534.62" y="1077.9629">&#171;enum&#187;</text><text fill="#000000" font-family="sans-serif" font-size="14" lengthAdjust="spacing" textLength="69" x="523.12" y="1096.082">UserStatus</text><line style="stroke:#181818;stroke-width:0.5;" x1="495.12" x2="594.12" y1="1104.5957" y2="1104.5957"/><ellipse cx="505.12" cy="1119.4063" fill="none" rx="3" ry="3" style="stroke:#038048;stroke-width:1.0;"/><text fill="#000000" font-family="sans-serif" font-size="14" lengthAdjust="spacing" textLength="53" x="514.12" y="1123.7031">ENABLE</text><ellipse cx="505.12" cy="1138.0273" fill="none" rx="3" ry="3" style="stroke:#038048;stroke-width:1.0;"/><text fill="#000000" font-family="sans-serif" font-size="14" lengthAdjust="spacing" textLength="57" x="514.12" y="1142.3242">DISABLE</text><line style="stroke:#181818;stroke-width:0.5;" x1="495.12" x2="594.12" y1="1149.8379" y2="1149.8379"/></g><!--class Password--><g id="elem_Password"><rect codeLine="27" fill="#F1F1F1" height="60.582" id="Password" rx="2.5" ry="2.5" style="stroke:#181818;stroke-width:0.5;" width="109" x="735.62" y="1072.5137"/><ellipse cx="750.62" cy="1094.8047" fill="#ADD1B2" rx="11" ry="11" style="stroke:#181818;stroke-width:1.0;"/><path d="M753.3856,1090.6797 Q753.5419,1090.4609 753.7294,1090.3516 Q753.9169,1090.2422 754.1356,1090.2422 Q754.5106,1090.2422 754.745,1090.5078 Q754.9794,1090.7578 754.9794,1091.3672 L754.9794,1092.8203 Q754.9794,1093.4297 754.745,1093.6953 Q754.5106,1093.9609 754.1356,1093.9609 Q753.7919,1093.9609 753.5888,1093.7578 Q753.3856,1093.5703 753.2763,1093.0547 Q753.2294,1092.6953 753.0419,1092.5078 Q752.7138,1092.1328 752.1044,1091.9141 Q751.495,1091.6953 750.87,1091.6953 Q750.1044,1091.6953 749.4638,1092.0234 Q748.8388,1092.3516 748.3388,1093.1016 Q747.8544,1093.8516 747.8544,1094.8828 L747.8544,1095.9766 Q747.8544,1097.2109 748.745,1098.0391 Q749.6356,1098.8516 751.2294,1098.8516 Q752.1669,1098.8516 752.8231,1098.6016 Q753.2138,1098.4453 753.6356,1098.0078 Q753.9013,1097.7422 754.0419,1097.6641 Q754.1981,1097.5859 754.4013,1097.5859 Q754.7294,1097.5859 754.9794,1097.8516 Q755.245,1098.1016 755.245,1098.4453 Q755.245,1098.7891 754.9013,1099.1953 Q754.4013,1099.7734 753.6044,1100.1016 Q752.5263,1100.5547 751.2294,1100.5547 Q749.7138,1100.5547 748.5106,1099.9297 Q747.5263,1099.4297 746.8388,1098.3672 Q746.1513,1097.2891 746.1513,1096.0078 L746.1513,1094.8516 Q746.1513,1093.5234 746.7606,1092.3828 Q747.3856,1091.2266 748.4794,1090.6172 Q749.5731,1089.9922 750.8075,1089.9922 Q751.5419,1089.9922 752.1825,1090.1641 Q752.8388,1090.3203 753.3856,1090.6797 Z " fill="#000000"/><text fill="#000000" font-family="sans-serif" font-size="12" font-style="italic" lengthAdjust="spacing" textLength="81" x="762.62" y="1090.4629">&#171;value object&#187;</text><text fill="#000000" font-family="sans-serif" font-size="14" lengthAdjust="spacing" textLength="61" x="772.62" y="1108.582">Password</text><line style="stroke:#181818;stroke-width:0.5;" x1="736.62" x2="843.62" y1="1117.0957" y2="1117.0957"/><line style="stroke:#181818;stroke-width:0.5;" x1="736.62" x2="843.62" y1="1125.0957" y2="1125.0957"/></g><!--class Acronym--><g id="elem_Acronym"><rect codeLine="29" fill="#F1F1F1" height="60.582" id="Acronym" rx="2.5" ry="2.5" style="stroke:#181818;stroke-width:0.5;" width="109" x="490.12" y="963.5137"/><ellipse cx="505.12" cy="985.8047" fill="#ADD1B2" rx="11" ry="11" style="stroke:#181818;stroke-width:1.0;"/><path d="M507.8856,981.6797 Q508.0419,981.4609 508.2294,981.3516 Q508.4169,981.2422 508.6356,981.2422 Q509.0106,981.2422 509.245,981.5078 Q509.4794,981.7578 509.4794,982.3672 L509.4794,983.8203 Q509.4794,984.4297 509.245,984.6953 Q509.0106,984.9609 508.6356,984.9609 Q508.2919,984.9609 508.0888,984.7578 Q507.8856,984.5703 507.7763,984.0547 Q507.7294,983.6953 507.5419,983.5078 Q507.2138,983.1328 506.6044,982.9141 Q505.995,982.6953 505.37,982.6953 Q504.6044,982.6953 503.9638,983.0234 Q503.3388,983.3516 502.8388,984.1016 Q502.3544,984.8516 502.3544,985.8828 L502.3544,986.9766 Q502.3544,988.2109 503.245,989.0391 Q504.1356,989.8516 505.7294,989.8516 Q506.6669,989.8516 507.3231,989.6016 Q507.7138,989.4453 508.1356,989.0078 Q508.4013,988.7422 508.5419,988.6641 Q508.6981,988.5859 508.9013,988.5859 Q509.2294,988.5859 509.4794,988.8516 Q509.745,989.1016 509.745,989.4453 Q509.745,989.7891 509.4013,990.1953 Q508.9013,990.7734 508.1044,991.1016 Q507.0263,991.5547 505.7294,991.5547 Q504.2138,991.5547 503.0106,990.9297 Q502.0263,990.4297 501.3388,989.3672 Q500.6513,988.2891 500.6513,987.0078 L500.6513,985.8516 Q500.6513,984.5234 501.2606,983.3828 Q501.8856,982.2266 502.9794,981.6172 Q504.0731,980.9922 505.3075,980.9922 Q506.0419,980.9922 506.6825,981.1641 Q507.3388,981.3203 507.8856,981.6797 Z " fill="#000000"/><text fill="#000000" font-family="sans-serif" font-size="12" font-style="italic" lengthAdjust="spacing" textLength="81" x="517.12" y="981.4629">&#171;value object&#187;</text><text fill="#000000" font-family="sans-serif" font-size="14" lengthAdjust="spacing" textLength="55" x="530.12" y="999.582">Acronym</text><line style="stroke:#181818;stroke-width:0.5;" x1="491.12" x2="598.12" y1="1008.0957" y2="1008.0957"/><line style="stroke:#181818;stroke-width:0.5;" x1="491.12" x2="598.12" y1="1016.0957" y2="1016.0957"/></g><!--class NIF--><g id="elem_NIF"><rect codeLine="31" fill="#F1F1F1" height="60.582" id="NIF" rx="2.5" ry="2.5" style="stroke:#181818;stroke-width:0.5;" width="109" x="490.12" y="867.5137"/><ellipse cx="505.12" cy="889.8047" fill="#ADD1B2" rx="11" ry="11" style="stroke:#181818;stroke-width:1.0;"/><path d="M507.8856,885.6797 Q508.0419,885.4609 508.2294,885.3516 Q508.4169,885.2422 508.6356,885.2422 Q509.0106,885.2422 509.245,885.5078 Q509.4794,885.7578 509.4794,886.3672 L509.4794,887.8203 Q509.4794,888.4297 509.245,888.6953 Q509.0106,888.9609 508.6356,888.9609 Q508.2919,888.9609 508.0888,888.7578 Q507.8856,888.5703 507.7763,888.0547 Q507.7294,887.6953 507.5419,887.5078 Q507.2138,887.1328 506.6044,886.9141 Q505.995,886.6953 505.37,886.6953 Q504.6044,886.6953 503.9638,887.0234 Q503.3388,887.3516 502.8388,888.1016 Q502.3544,888.8516 502.3544,889.8828 L502.3544,890.9766 Q502.3544,892.2109 503.245,893.0391 Q504.1356,893.8516 505.7294,893.8516 Q506.6669,893.8516 507.3231,893.6016 Q507.7138,893.4453 508.1356,893.0078 Q508.4013,892.7422 508.5419,892.6641 Q508.6981,892.5859 508.9013,892.5859 Q509.2294,892.5859 509.4794,892.8516 Q509.745,893.1016 509.745,893.4453 Q509.745,893.7891 509.4013,894.1953 Q508.9013,894.7734 508.1044,895.1016 Q507.0263,895.5547 505.7294,895.5547 Q504.2138,895.5547 503.0106,894.9297 Q502.0263,894.4297 501.3388,893.3672 Q500.6513,892.2891 500.6513,891.0078 L500.6513,889.8516 Q500.6513,888.5234 501.2606,887.3828 Q501.8856,886.2266 502.9794,885.6172 Q504.0731,884.9922 505.3075,884.9922 Q506.0419,884.9922 506.6825,885.1641 Q507.3388,885.3203 507.8856,885.6797 Z " fill="#000000"/><text fill="#000000" font-family="sans-serif" font-size="12" font-style="italic" lengthAdjust="spacing" textLength="81" x="517.12" y="885.4629">&#171;value object&#187;</text><text fill="#000000" font-family="sans-serif" font-size="14" lengthAdjust="spacing" textLength="21" x="547.12" y="903.582">NIF</text><line style="stroke:#181818;stroke-width:0.5;" x1="491.12" x2="598.12" y1="912.0957" y2="912.0957"/><line style="stroke:#181818;stroke-width:0.5;" x1="491.12" x2="598.12" y1="920.0957" y2="920.0957"/></g><!--class BirthDate--><g id="elem_BirthDate"><rect codeLine="33" fill="#F1F1F1" height="60.582" id="BirthDate" rx="2.5" ry="2.5" style="stroke:#181818;stroke-width:0.5;" width="109" x="490.12" y="771.5137"/><ellipse cx="505.12" cy="793.8047" fill="#ADD1B2" rx="11" ry="11" style="stroke:#181818;stroke-width:1.0;"/><path d="M507.8856,789.6797 Q508.0419,789.4609 508.2294,789.3516 Q508.4169,789.2422 508.6356,789.2422 Q509.0106,789.2422 509.245,789.5078 Q509.4794,789.7578 509.4794,790.3672 L509.4794,791.8203 Q509.4794,792.4297 509.245,792.6953 Q509.0106,792.9609 508.6356,792.9609 Q508.2919,792.9609 508.0888,792.7578 Q507.8856,792.5703 507.7763,792.0547 Q507.7294,791.6953 507.5419,791.5078 Q507.2138,791.1328 506.6044,790.9141 Q505.995,790.6953 505.37,790.6953 Q504.6044,790.6953 503.9638,791.0234 Q503.3388,791.3516 502.8388,792.1016 Q502.3544,792.8516 502.3544,793.8828 L502.3544,794.9766 Q502.3544,796.2109 503.245,797.0391 Q504.1356,797.8516 505.7294,797.8516 Q506.6669,797.8516 507.3231,797.6016 Q507.7138,797.4453 508.1356,797.0078 Q508.4013,796.7422 508.5419,796.6641 Q508.6981,796.5859 508.9013,796.5859 Q509.2294,796.5859 509.4794,796.8516 Q509.745,797.1016 509.745,797.4453 Q509.745,797.7891 509.4013,798.1953 Q508.9013,798.7734 508.1044,799.1016 Q507.0263,799.5547 505.7294,799.5547 Q504.2138,799.5547 503.0106,798.9297 Q502.0263,798.4297 501.3388,797.3672 Q500.6513,796.2891 500.6513,795.0078 L500.6513,793.8516 Q500.6513,792.5234 501.2606,791.3828 Q501.8856,790.2266 502.9794,789.6172 Q504.0731,788.9922 505.3075,788.9922 Q506.0419,788.9922 506.6825,789.1641 Q507.3388,789.3203 507.8856,789.6797 Z " fill="#000000"/><text fill="#000000" font-family="sans-serif" font-size="12" font-style="italic" lengthAdjust="spacing" textLength="81" x="517.12" y="789.4629">&#171;value object&#187;</text><text fill="#000000" font-family="sans-serif" font-size="14" lengthAdjust="spacing" textLength="59" x="528.12" y="807.582">BirthDate</text><line style="stroke:#181818;stroke-width:0.5;" x1="491.12" x2="598.12" y1="816.0957" y2="816.0957"/><line style="stroke:#181818;stroke-width:0.5;" x1="491.12" x2="598.12" y1="824.0957" y2="824.0957"/></g><!--class MechanographicNumber--><g id="elem_MechanographicNumber"><rect codeLine="35" fill="#F1F1F1" height="76.543" id="MechanographicNumber" rx="2.5" ry="2.5" style="stroke:#181818;stroke-width:0.5;" width="186" x="451.62" y="659.5137"/><ellipse cx="466.62" cy="689.7852" fill="#ADD1B2" rx="11" ry="11" style="stroke:#181818;stroke-width:1.0;"/><path d="M469.3856,685.6602 Q469.5419,685.4414 469.7294,685.332 Q469.9169,685.2227 470.1356,685.2227 Q470.5106,685.2227 470.745,685.4883 Q470.9794,685.7383 470.9794,686.3477 L470.9794,687.8008 Q470.9794,688.4102 470.745,688.6758 Q470.5106,688.9414 470.1356,688.9414 Q469.7919,688.9414 469.5888,688.7383 Q469.3856,688.5508 469.2763,688.0352 Q469.2294,687.6758 469.0419,687.4883 Q468.7138,687.1133 468.1044,686.8945 Q467.495,686.6758 466.87,686.6758 Q466.1044,686.6758 465.4638,687.0039 Q464.8388,687.332 464.3388,688.082 Q463.8544,688.832 463.8544,689.8633 L463.8544,690.957 Q463.8544,692.1914 464.745,693.0195 Q465.6356,693.832 467.2294,693.832 Q468.1669,693.832 468.8231,693.582 Q469.2138,693.4258 469.6356,692.9883 Q469.9013,692.7227 470.0419,692.6445 Q470.1981,692.5664 470.4013,692.5664 Q470.7294,692.5664 470.9794,692.832 Q471.245,693.082 471.245,693.4258 Q471.245,693.7695 470.9013,694.1758 Q470.4013,694.7539 469.6044,695.082 Q468.5263,695.5352 467.2294,695.5352 Q465.7138,695.5352 464.5106,694.9102 Q463.5263,694.4102 462.8388,693.3477 Q462.1513,692.2695 462.1513,690.9883 L462.1513,689.832 Q462.1513,688.5039 462.7606,687.3633 Q463.3856,686.207 464.4794,685.5977 Q465.5731,684.9727 466.8075,684.9727 Q467.5419,684.9727 468.1825,685.1445 Q468.8388,685.3008 469.3856,685.6602 Z " fill="#000000"/><text fill="#000000" font-family="sans-serif" font-size="12" font-style="italic" lengthAdjust="spacing" textLength="81" x="517.12" y="677.4629">&#171;value object&#187;</text><text fill="#000000" font-family="sans-serif" font-size="12" font-style="italic" lengthAdjust="spacing" textLength="146" x="484.62" y="693.4238">&#171;automatically generated&#187;</text><text fill="#000000" font-family="sans-serif" font-size="14" lengthAdjust="spacing" textLength="154" x="480.62" y="711.543">MechanographicNumber</text><line style="stroke:#181818;stroke-width:0.5;" x1="452.62" x2="636.62" y1="720.0566" y2="720.0566"/><line style="stroke:#181818;stroke-width:0.5;" x1="452.62" x2="636.62" y1="728.0566" y2="728.0566"/></g><!--class Grade--><g id="elem_Grade"><rect codeLine="37" fill="#F1F1F1" height="60.582" id="Grade" rx="2.5" ry="2.5" style="stroke:#181818;stroke-width:0.5;" width="109" x="490.12" y="563.5137"/><ellipse cx="505.12" cy="585.8047" fill="#ADD1B2" rx="11" ry="11" style="stroke:#181818;stroke-width:1.0;"/><path d="M507.8856,581.6797 Q508.0419,581.4609 508.2294,581.3516 Q508.4169,581.2422 508.6356,581.2422 Q509.0106,581.2422 509.245,581.5078 Q509.4794,581.7578 509.4794,582.3672 L509.4794,583.8203 Q509.4794,584.4297 509.245,584.6953 Q509.0106,584.9609 508.6356,584.9609 Q508.2919,584.9609 508.0888,584.7578 Q507.8856,584.5703 507.7763,584.0547 Q507.7294,583.6953 507.5419,583.5078 Q507.2138,583.1328 506.6044,582.9141 Q505.995,582.6953 505.37,582.6953 Q504.6044,582.6953 503.9638,583.0234 Q503.3388,583.3516 502.8388,584.1016 Q502.3544,584.8516 502.3544,585.8828 L502.3544,586.9766 Q502.3544,588.2109 503.245,589.0391 Q504.1356,589.8516 505.7294,589.8516 Q506.6669,589.8516 507.3231,589.6016 Q507.7138,589.4453 508.1356,589.0078 Q508.4013,588.7422 508.5419,588.6641 Q508.6981,588.5859 508.9013,588.5859 Q509.2294,588.5859 509.4794,588.8516 Q509.745,589.1016 509.745,589.4453 Q509.745,589.7891 509.4013,590.1953 Q508.9013,590.7734 508.1044,591.1016 Q507.0263,591.5547 505.7294,591.5547 Q504.2138,591.5547 503.0106,590.9297 Q502.0263,590.4297 501.3388,589.3672 Q500.6513,588.2891 500.6513,587.0078 L500.6513,585.8516 Q500.6513,584.5234 501.2606,583.3828 Q501.8856,582.2266 502.9794,581.6172 Q504.0731,580.9922 505.3075,580.9922 Q506.0419,580.9922 506.6825,581.1641 Q507.3388,581.3203 507.8856,581.6797 Z " fill="#000000"/><text fill="#000000" font-family="sans-serif" font-size="12" font-style="italic" lengthAdjust="spacing" textLength="81" x="517.12" y="581.4629">&#171;value object&#187;</text><text fill="#000000" font-family="sans-serif" font-size="14" lengthAdjust="spacing" textLength="40" x="537.62" y="599.582">Grade</text><line style="stroke:#181818;stroke-width:0.5;" x1="491.12" x2="598.12" y1="608.0957" y2="608.0957"/><line style="stroke:#181818;stroke-width:0.5;" x1="491.12" x2="598.12" y1="616.0957" y2="616.0957"/></g><!--class Course--><g id="elem_Course"><rect codeLine="42" fill="#F1F1F1" height="95.1641" id="Course" rx="2.5" ry="2.5" style="stroke:#181818;stroke-width:0.5;" width="124" x="122.62" y="161.5137"/><ellipse cx="158.32" cy="191.7852" fill="#ADD1B2" rx="11" ry="11" style="stroke:#181818;stroke-width:1.0;"/><path d="M161.0856,187.6602 Q161.2419,187.4414 161.4294,187.332 Q161.6169,187.2227 161.8356,187.2227 Q162.2106,187.2227 162.445,187.4883 Q162.6794,187.7383 162.6794,188.3477 L162.6794,189.8008 Q162.6794,190.4102 162.445,190.6758 Q162.2106,190.9414 161.8356,190.9414 Q161.4919,190.9414 161.2888,190.7383 Q161.0856,190.5508 160.9763,190.0352 Q160.9294,189.6758 160.7419,189.4883 Q160.4138,189.1133 159.8044,188.8945 Q159.195,188.6758 158.57,188.6758 Q157.8044,188.6758 157.1638,189.0039 Q156.5388,189.332 156.0388,190.082 Q155.5544,190.832 155.5544,191.8633 L155.5544,192.957 Q155.5544,194.1914 156.445,195.0195 Q157.3356,195.832 158.9294,195.832 Q159.8669,195.832 160.5231,195.582 Q160.9138,195.4258 161.3356,194.9883 Q161.6013,194.7227 161.7419,194.6445 Q161.8981,194.5664 162.1013,194.5664 Q162.4294,194.5664 162.6794,194.832 Q162.945,195.082 162.945,195.4258 Q162.945,195.7695 162.6013,196.1758 Q162.1013,196.7539 161.3044,197.082 Q160.2263,197.5352 158.9294,197.5352 Q157.4138,197.5352 156.2106,196.9102 Q155.2263,196.4102 154.5388,195.3477 Q153.8513,194.2695 153.8513,192.9883 L153.8513,191.832 Q153.8513,190.5039 154.4606,189.3633 Q155.0856,188.207 156.1794,187.5977 Q157.2731,186.9727 158.5075,186.9727 Q159.2419,186.9727 159.8825,187.1445 Q160.5388,187.3008 161.0856,187.6602 Z " fill="#000000"/><text fill="#000000" font-family="sans-serif" font-size="12" font-style="italic" lengthAdjust="spacing" textLength="35" x="182.42" y="179.4629">&#171;root&#187;</text><text fill="#000000" font-family="sans-serif" font-size="12" font-style="italic" lengthAdjust="spacing" textLength="43" x="178.42" y="195.4238">&#171;entity&#187;</text><text fill="#000000" font-family="sans-serif" font-size="14" lengthAdjust="spacing" textLength="46" x="176.92" y="213.543">Course</text><line style="stroke:#181818;stroke-width:0.5;" x1="123.62" x2="245.62" y1="222.0566" y2="222.0566"/><ellipse cx="133.62" cy="236.8672" fill="#000000" rx="3" ry="3" style="stroke:#000000;stroke-width:1.0;"/><text fill="#000000" font-family="sans-serif" font-size="14" lengthAdjust="spacing" textLength="98" x="142.62" y="241.1641">name &#171;unique&#187;</text><line style="stroke:#181818;stroke-width:0.5;" x1="123.62" x2="245.62" y1="248.6777" y2="248.6777"/></g><!--class CourseStatus--><g id="elem_CourseStatus"><rect codeLine="47" fill="#F1F1F1" height="97.8242" id="CourseStatus" rx="2.5" ry="2.5" style="stroke:#181818;stroke-width:0.5;" width="118" x="485.62" y="62.0137"/><ellipse cx="500.62" cy="84.3047" fill="#EB937F" rx="11" ry="11" style="stroke:#181818;stroke-width:1.0;"/><path d="M499.4794,85.1016 L499.4794,87.6016 L503.8075,87.6016 L503.8075,86.6797 Q503.8075,86.0703 504.0419,85.8047 Q504.2919,85.5391 504.6669,85.5391 Q505.0419,85.5391 505.2763,85.8047 Q505.5106,86.0703 505.5106,86.6797 L505.5106,89.3047 L497.5106,89.3047 Q496.8856,89.3047 496.62,89.0703 Q496.37,88.8359 496.37,88.4453 Q496.37,88.0703 496.6356,87.8359 Q496.9013,87.6016 497.5106,87.6016 L497.7763,87.6016 L497.7763,80.9453 L497.5106,80.9453 Q496.8856,80.9453 496.62,80.7109 Q496.37,80.4766 496.37,80.0859 Q496.37,79.7109 496.62,79.4766 Q496.8856,79.2422 497.5106,79.2422 L505.1356,79.2422 L505.1356,81.8359 Q505.1356,82.4453 504.9013,82.7109 Q504.6825,82.9609 504.2919,82.9609 Q503.9169,82.9609 503.6825,82.7109 Q503.4481,82.4453 503.4481,81.8359 L503.4481,80.9453 L499.4794,80.9453 L499.4794,83.3984 L500.9638,83.3984 Q500.9638,82.7422 501.0888,82.5547 Q501.3544,82.1484 501.8231,82.1484 Q502.1981,82.1484 502.4325,82.4141 Q502.6669,82.6641 502.6669,83.2734 L502.6669,85.2422 Q502.6669,85.7891 502.5419,85.9766 Q502.2763,86.3672 501.8231,86.3672 Q501.3544,86.3672 501.0888,85.9609 Q500.9638,85.7734 500.9638,85.1016 L499.4794,85.1016 Z " fill="#000000"/><text fill="#000000" font-family="sans-serif" font-size="12" font-style="italic" lengthAdjust="spacing" textLength="46" x="534.62" y="79.9629">&#171;enum&#187;</text><text fill="#000000" font-family="sans-serif" font-size="14" lengthAdjust="spacing" textLength="86" x="514.62" y="98.082">CourseStatus</text><line style="stroke:#181818;stroke-width:0.5;" x1="486.62" x2="602.62" y1="106.5957" y2="106.5957"/><ellipse cx="496.62" cy="121.4063" fill="none" rx="3" ry="3" style="stroke:#038048;stroke-width:1.0;"/><text fill="#000000" font-family="sans-serif" font-size="14" lengthAdjust="spacing" textLength="38" x="505.62" y="125.7031">OPEN</text><ellipse cx="496.62" cy="140.0273" fill="none" rx="3" ry="3" style="stroke:#038048;stroke-width:1.0;"/><text fill="#000000" font-family="sans-serif" font-size="14" lengthAdjust="spacing" textLength="57" x="505.62" y="144.3242">CLOSED</text><line style="stroke:#181818;stroke-width:0.5;" x1="486.62" x2="602.62" y1="151.8379" y2="151.8379"/></g><!--class CourseCode--><g id="elem_CourseCode"><rect codeLine="52" fill="#F1F1F1" height="60.582" id="CourseCode" rx="2.5" ry="2.5" style="stroke:#181818;stroke-width:0.5;" width="112" x="488.62" y="195.5137"/><ellipse cx="503.62" cy="217.8047" fill="#ADD1B2" rx="11" ry="11" style="stroke:#181818;stroke-width:1.0;"/><path d="M506.3856,213.6797 Q506.5419,213.4609 506.7294,213.3516 Q506.9169,213.2422 507.1356,213.2422 Q507.5106,213.2422 507.745,213.5078 Q507.9794,213.7578 507.9794,214.3672 L507.9794,215.8203 Q507.9794,216.4297 507.745,216.6953 Q507.5106,216.9609 507.1356,216.9609 Q506.7919,216.9609 506.5888,216.7578 Q506.3856,216.5703 506.2763,216.0547 Q506.2294,215.6953 506.0419,215.5078 Q505.7138,215.1328 505.1044,214.9141 Q504.495,214.6953 503.87,214.6953 Q503.1044,214.6953 502.4638,215.0234 Q501.8388,215.3516 501.3388,216.1016 Q500.8544,216.8516 500.8544,217.8828 L500.8544,218.9766 Q500.8544,220.2109 501.745,221.0391 Q502.6356,221.8516 504.2294,221.8516 Q505.1669,221.8516 505.8231,221.6016 Q506.2138,221.4453 506.6356,221.0078 Q506.9013,220.7422 507.0419,220.6641 Q507.1981,220.5859 507.4013,220.5859 Q507.7294,220.5859 507.9794,220.8516 Q508.245,221.1016 508.245,221.4453 Q508.245,221.7891 507.9013,222.1953 Q507.4013,222.7734 506.6044,223.1016 Q505.5263,223.5547 504.2294,223.5547 Q502.7138,223.5547 501.5106,222.9297 Q500.5263,222.4297 499.8388,221.3672 Q499.1513,220.2891 499.1513,219.0078 L499.1513,217.8516 Q499.1513,216.5234 499.7606,215.3828 Q500.3856,214.2266 501.4794,213.6172 Q502.5731,212.9922 503.8075,212.9922 Q504.5419,212.9922 505.1825,213.1641 Q505.8388,213.3203 506.3856,213.6797 Z " fill="#000000"/><text fill="#000000" font-family="sans-serif" font-size="12" font-style="italic" lengthAdjust="spacing" textLength="81" x="517.12" y="213.4629">&#171;value object&#187;</text><text fill="#000000" font-family="sans-serif" font-size="14" lengthAdjust="spacing" textLength="80" x="517.62" y="231.582">CourseCode</text><line style="stroke:#181818;stroke-width:0.5;" x1="489.62" x2="599.62" y1="240.0957" y2="240.0957"/><line style="stroke:#181818;stroke-width:0.5;" x1="489.62" x2="599.62" y1="248.0957" y2="248.0957"/></g><!--class FormativeExam--><g id="elem_FormativeExam"><rect codeLine="56" fill="#F1F1F1" height="113.7852" id="FormativeExam" rx="2.5" ry="2.5" style="stroke:#181818;stroke-width:0.5;" width="129" x="120.12" y="353.0137"/><ellipse cx="135.12" cy="383.2852" fill="#ADD1B2" rx="11" ry="11" style="stroke:#181818;stroke-width:1.0;"/><path d="M137.8856,379.1602 Q138.0419,378.9414 138.2294,378.832 Q138.4169,378.7227 138.6356,378.7227 Q139.0106,378.7227 139.245,378.9883 Q139.4794,379.2383 139.4794,379.8477 L139.4794,381.3008 Q139.4794,381.9102 139.245,382.1758 Q139.0106,382.4414 138.6356,382.4414 Q138.2919,382.4414 138.0888,382.2383 Q137.8856,382.0508 137.7763,381.5352 Q137.7294,381.1758 137.5419,380.9883 Q137.2138,380.6133 136.6044,380.3945 Q135.995,380.1758 135.37,380.1758 Q134.6044,380.1758 133.9638,380.5039 Q133.3388,380.832 132.8388,381.582 Q132.3544,382.332 132.3544,383.3633 L132.3544,384.457 Q132.3544,385.6914 133.245,386.5195 Q134.1356,387.332 135.7294,387.332 Q136.6669,387.332 137.3231,387.082 Q137.7138,386.9258 138.1356,386.4883 Q138.4013,386.2227 138.5419,386.1445 Q138.6981,386.0664 138.9013,386.0664 Q139.2294,386.0664 139.4794,386.332 Q139.745,386.582 139.745,386.9258 Q139.745,387.2695 139.4013,387.6758 Q138.9013,388.2539 138.1044,388.582 Q137.0263,389.0352 135.7294,389.0352 Q134.2138,389.0352 133.0106,388.4102 Q132.0263,387.9102 131.3388,386.8477 Q130.6513,385.7695 130.6513,384.4883 L130.6513,383.332 Q130.6513,382.0039 131.2606,380.8633 Q131.8856,379.707 132.9794,379.0977 Q134.0731,378.4727 135.3075,378.4727 Q136.0419,378.4727 136.6825,378.6445 Q137.3388,378.8008 137.8856,379.1602 Z " fill="#000000"/><text fill="#000000" font-family="sans-serif" font-size="12" font-style="italic" lengthAdjust="spacing" textLength="35" x="180.12" y="370.9629">&#171;root&#187;</text><text fill="#000000" font-family="sans-serif" font-size="12" font-style="italic" lengthAdjust="spacing" textLength="44" x="175.62" y="386.9238">&#171;event&#187;</text><text fill="#000000" font-family="sans-serif" font-size="14" lengthAdjust="spacing" textLength="97" x="149.12" y="405.043">FormativeExam</text><line style="stroke:#181818;stroke-width:0.5;" x1="121.12" x2="248.12" y1="413.5566" y2="413.5566"/><ellipse cx="131.12" cy="428.3672" fill="#000000" rx="3" ry="3" style="stroke:#000000;stroke-width:1.0;"/><text fill="#000000" font-family="sans-serif" font-size="14" lengthAdjust="spacing" textLength="94" x="140.12" y="432.6641">code &#171;unique&#187;</text><ellipse cx="131.12" cy="446.9883" fill="#000000" rx="3" ry="3" style="stroke:#000000;stroke-width:1.0;"/><text fill="#000000" font-family="sans-serif" font-size="14" lengthAdjust="spacing" textLength="80" x="140.12" y="451.2852">CourseCode</text><line style="stroke:#181818;stroke-width:0.5;" x1="121.12" x2="248.12" y1="458.7988" y2="458.7988"/></g><!--class ExamGrade--><g id="elem_ExamGrade"><rect codeLine="61" fill="#F1F1F1" height="60.582" id="ExamGrade" rx="2.5" ry="2.5" style="stroke:#181818;stroke-width:0.5;" width="109" x="490.12" y="398.5137"/><ellipse cx="505.12" cy="420.8047" fill="#ADD1B2" rx="11" ry="11" style="stroke:#181818;stroke-width:1.0;"/><path d="M507.8856,416.6797 Q508.0419,416.4609 508.2294,416.3516 Q508.4169,416.2422 508.6356,416.2422 Q509.0106,416.2422 509.245,416.5078 Q509.4794,416.7578 509.4794,417.3672 L509.4794,418.8203 Q509.4794,419.4297 509.245,419.6953 Q509.0106,419.9609 508.6356,419.9609 Q508.2919,419.9609 508.0888,419.7578 Q507.8856,419.5703 507.7763,419.0547 Q507.7294,418.6953 507.5419,418.5078 Q507.2138,418.1328 506.6044,417.9141 Q505.995,417.6953 505.37,417.6953 Q504.6044,417.6953 503.9638,418.0234 Q503.3388,418.3516 502.8388,419.1016 Q502.3544,419.8516 502.3544,420.8828 L502.3544,421.9766 Q502.3544,423.2109 503.245,424.0391 Q504.1356,424.8516 505.7294,424.8516 Q506.6669,424.8516 507.3231,424.6016 Q507.7138,424.4453 508.1356,424.0078 Q508.4013,423.7422 508.5419,423.6641 Q508.6981,423.5859 508.9013,423.5859 Q509.2294,423.5859 509.4794,423.8516 Q509.745,424.1016 509.745,424.4453 Q509.745,424.7891 509.4013,425.1953 Q508.9013,425.7734 508.1044,426.1016 Q507.0263,426.5547 505.7294,426.5547 Q504.2138,426.5547 503.0106,425.9297 Q502.0263,425.4297 501.3388,424.3672 Q500.6513,423.2891 500.6513,422.0078 L500.6513,420.8516 Q500.6513,419.5234 501.2606,418.3828 Q501.8856,417.2266 502.9794,416.6172 Q504.0731,415.9922 505.3075,415.9922 Q506.0419,415.9922 506.6825,416.1641 Q507.3388,416.3203 507.8856,416.6797 Z " fill="#000000"/><text fill="#000000" font-family="sans-serif" font-size="12" font-style="italic" lengthAdjust="spacing" textLength="81" x="517.12" y="416.4629">&#171;value object&#187;</text><text fill="#000000" font-family="sans-serif" font-size="14" lengthAdjust="spacing" textLength="74" x="520.62" y="434.582">ExamGrade</text><line style="stroke:#181818;stroke-width:0.5;" x1="491.12" x2="598.12" y1="443.0957" y2="443.0957"/><line style="stroke:#181818;stroke-width:0.5;" x1="491.12" x2="598.12" y1="451.0957" y2="451.0957"/></g><!--class TakeFormativeExamService--><g id="elem_TakeFormativeExamService"><rect codeLine="65" fill="#F1F1F1" height="60.582" id="TakeFormativeExamService" rx="2.5" ry="2.5" style="stroke:#181818;stroke-width:0.5;" width="208" x="440.62" y="1379.5137"/><ellipse cx="455.62" cy="1401.8047" fill="#ADD1B2" rx="11" ry="11" style="stroke:#181818;stroke-width:1.0;"/><path d="M458.3856,1397.6797 Q458.5419,1397.4609 458.7294,1397.3516 Q458.9169,1397.2422 459.1356,1397.2422 Q459.5106,1397.2422 459.745,1397.5078 Q459.9794,1397.7578 459.9794,1398.3672 L459.9794,1399.8203 Q459.9794,1400.4297 459.745,1400.6953 Q459.5106,1400.9609 459.1356,1400.9609 Q458.7919,1400.9609 458.5888,1400.7578 Q458.3856,1400.5703 458.2763,1400.0547 Q458.2294,1399.6953 458.0419,1399.5078 Q457.7138,1399.1328 457.1044,1398.9141 Q456.495,1398.6953 455.87,1398.6953 Q455.1044,1398.6953 454.4638,1399.0234 Q453.8388,1399.3516 453.3388,1400.1016 Q452.8544,1400.8516 452.8544,1401.8828 L452.8544,1402.9766 Q452.8544,1404.2109 453.745,1405.0391 Q454.6356,1405.8516 456.2294,1405.8516 Q457.1669,1405.8516 457.8231,1405.6016 Q458.2138,1405.4453 458.6356,1405.0078 Q458.9013,1404.7422 459.0419,1404.6641 Q459.1981,1404.5859 459.4013,1404.5859 Q459.7294,1404.5859 459.9794,1404.8516 Q460.245,1405.1016 460.245,1405.4453 Q460.245,1405.7891 459.9013,1406.1953 Q459.4013,1406.7734 458.6044,1407.1016 Q457.5263,1407.5547 456.2294,1407.5547 Q454.7138,1407.5547 453.5106,1406.9297 Q452.5263,1406.4297 451.8388,1405.3672 Q451.1513,1404.2891 451.1513,1403.0078 L451.1513,1401.8516 Q451.1513,1400.5234 451.7606,1399.3828 Q452.3856,1398.2266 453.4794,1397.6172 Q454.5731,1396.9922 455.8075,1396.9922 Q456.5419,1396.9922 457.1825,1397.1641 Q457.8388,1397.3203 458.3856,1397.6797 Z " fill="#000000"/><text fill="#000000" font-family="sans-serif" font-size="12" font-style="italic" lengthAdjust="spacing" textLength="53" x="531.12" y="1397.4629">&#171;service&#187;</text><text fill="#000000" font-family="sans-serif" font-size="14" lengthAdjust="spacing" textLength="176" x="469.62" y="1415.582">TakeFormativeExamService</text><line style="stroke:#181818;stroke-width:0.5;" x1="441.62" x2="647.62" y1="1424.0957" y2="1424.0957"/><line style="stroke:#181818;stroke-width:0.5;" x1="441.62" x2="647.62" y1="1432.0957" y2="1432.0957"/></g><!--class ListFormativeExamCoursesService--><g id="elem_ListFormativeExamCoursesService"><rect codeLine="69" fill="#F1F1F1" height="60.582" id="ListFormativeExamCoursesService" rx="2.5" ry="2.5" style="stroke:#181818;stroke-width:0.5;" width="251" x="419.12" y="1475.5137"/><ellipse cx="434.12" cy="1497.8047" fill="#ADD1B2" rx="11" ry="11" style="stroke:#181818;stroke-width:1.0;"/><path d="M436.8856,1493.6797 Q437.0419,1493.4609 437.2294,1493.3516 Q437.4169,1493.2422 437.6356,1493.2422 Q438.0106,1493.2422 438.245,1493.5078 Q438.4794,1493.7578 438.4794,1494.3672 L438.4794,1495.8203 Q438.4794,1496.4297 438.245,1496.6953 Q438.0106,1496.9609 437.6356,1496.9609 Q437.2919,1496.9609 437.0888,1496.7578 Q436.8856,1496.5703 436.7763,1496.0547 Q436.7294,1495.6953 436.5419,1495.5078 Q436.2138,1495.1328 435.6044,1494.9141 Q434.995,1494.6953 434.37,1494.6953 Q433.6044,1494.6953 432.9638,1495.0234 Q432.3388,1495.3516 431.8388,1496.1016 Q431.3544,1496.8516 431.3544,1497.8828 L431.3544,1498.9766 Q431.3544,1500.2109 432.245,1501.0391 Q433.1356,1501.8516 434.7294,1501.8516 Q435.6669,1501.8516 436.3231,1501.6016 Q436.7138,1501.4453 437.1356,1501.0078 Q437.4013,1500.7422 437.5419,1500.6641 Q437.6981,1500.5859 437.9013,1500.5859 Q438.2294,1500.5859 438.4794,1500.8516 Q438.745,1501.1016 438.745,1501.4453 Q438.745,1501.7891 438.4013,1502.1953 Q437.9013,1502.7734 437.1044,1503.1016 Q436.0263,1503.5547 434.7294,1503.5547 Q433.2138,1503.5547 432.0106,1502.9297 Q431.0263,1502.4297 430.3388,1501.3672 Q429.6513,1500.2891 429.6513,1499.0078 L429.6513,1497.8516 Q429.6513,1496.5234 430.2606,1495.3828 Q430.8856,1494.2266 431.9794,1493.6172 Q433.0731,1492.9922 434.3075,1492.9922 Q435.0419,1492.9922 435.6825,1493.1641 Q436.3388,1493.3203 436.8856,1493.6797 Z " fill="#000000"/><text fill="#000000" font-family="sans-serif" font-size="12" font-style="italic" lengthAdjust="spacing" textLength="53" x="531.12" y="1493.4629">&#171;service&#187;</text><text fill="#000000" font-family="sans-serif" font-size="14" lengthAdjust="spacing" textLength="219" x="448.12" y="1511.582">ListFormativeExamCoursesService</text><line style="stroke:#181818;stroke-width:0.5;" x1="420.12" x2="669.12" y1="1520.0957" y2="1520.0957"/><line style="stroke:#181818;stroke-width:0.5;" x1="420.12" x2="669.12" y1="1528.0957" y2="1528.0957"/></g><!--link SystemUser to EmailAdderss--><g id="link_SystemUser_EmailAdderss"><path codeLine="76" d="M598.16,1239.0137 C635.49,1231.1937 685.82,1220.6537 725.44,1212.3537 " fill="none" id="SystemUser-to-EmailAdderss" style="stroke:#181818;stroke-width:1.0;"/><polygon fill="#181818" points="730.71,1211.2437,721.079,1209.1836,725.8173,1212.2737,722.7271,1217.012,730.71,1211.2437" style="stroke:#181818;stroke-width:1.0;"/><text fill="#000000" font-family="sans-serif" font-size="13" lengthAdjust="spacing" textLength="7" x="716.0428" y="1227.8417">1</text></g><!--link SystemUser to Password--><g id="link_SystemUser_Password"><path codeLine="77" d="M598.34,1218.2837 C620.51,1204.9337 646.57,1189.2337 670.12,1175.0137 C691.07,1162.3637 714.08,1148.4537 734.24,1136.2537 " fill="none" id="SystemUser-to-Password" style="stroke:#181818;stroke-width:1.0;"/><polygon fill="#181818" points="738.76,1133.5137,728.9906,1134.7619,734.4852,1136.1071,733.14,1141.6017,738.76,1133.5137" style="stroke:#181818;stroke-width:1.0;"/><text fill="#000000" font-family="sans-serif" font-size="13" lengthAdjust="spacing" textLength="7" x="721.3023" y="1155.0439">1</text></g><!--link SystemUser to Role--><g id="link_SystemUser_Role"><path codeLine="78" d="M598.16,1261.6637 C638.19,1270.5437 693.18,1282.7337 733.87,1291.7637 " fill="none" id="SystemUser-to-Role" style="stroke:#181818;stroke-width:1.0;"/><polygon fill="#181818" points="738.76,1292.8437,730.842,1286.9865,733.8791,1291.759,729.1066,1294.796,738.76,1292.8437" style="stroke:#181818;stroke-width:1.0;"/><text fill="#000000" font-family="sans-serif" font-size="13" lengthAdjust="spacing" textLength="7" x="724.0453" y="1306.5027">1</text></g><!--link eCourseSystemUser to SystemUser--><g id="link_eCourseSystemUser_SystemUser"><path codeLine="80" d="M206.59,899.6937 C242.85,963.7237 322.72,1092.8037 419.12,1175.0137 C439.55,1192.4337 464.51,1208.3337 486.7,1220.9637 " fill="none" id="eCourseSystemUser-to-SystemUser" style="stroke:#181818;stroke-width:1.0;"/><polygon fill="#181818" points="491.09,1223.4437,485.2155,1215.5386,486.7348,1220.9876,481.2858,1222.5069,491.09,1223.4437" style="stroke:#181818;stroke-width:1.0;"/><text fill="#000000" font-family="sans-serif" font-size="13" lengthAdjust="spacing" textLength="7" x="476.0702" y="1234.9665">1</text></g><!--link eCourseSystemUser to Role--><g id="link_eCourseSystemUser_Role"><path codeLine="81" d="M190.23,899.5837 C204.04,995.0837 254.89,1240.8137 419.12,1324.0137 C520.62,1375.4337 658.48,1346.2537 734.01,1323.3037 " fill="none" id="eCourseSystemUser-to-Role" style="stroke:#181818;stroke-width:1.0;"/><polygon fill="#181818" points="738.89,1321.8037,729.1109,1320.6335,734.112,1323.2771,731.4684,1328.2782,738.89,1321.8037" style="stroke:#181818;stroke-width:1.0;"/><text fill="#000000" font-family="sans-serif" font-size="13" lengthAdjust="spacing" textLength="7" x="724.1936" y="1339.5352">1</text></g><!--link eCourseSystemUser to UserStatus--><g id="link_eCourseSystemUser_UserStatus"><path codeLine="82" d="M230.91,899.7737 C276.77,938.1337 350.54,997.4137 419.12,1042.0137 C441.41,1056.5037 467.12,1070.7237 489.37,1082.3137 " fill="none" id="eCourseSystemUser-to-UserStatus" style="stroke:#181818;stroke-width:1.0;"/><polygon fill="#181818" points="494.06,1084.7437,487.9165,1077.0457,489.6227,1082.4392,484.2293,1084.1454,494.06,1084.7437" style="stroke:#181818;stroke-width:1.0;"/><text fill="#000000" font-family="sans-serif" font-size="13" lengthAdjust="spacing" textLength="7" x="479.1199" y="1096.4901">1</text></g><!--link eCourseSystemUser to Acronym--><g id="link_eCourseSystemUser_Acronym"><path codeLine="83" d="M265.52,890.6937 C332.06,915.4137 425.29,950.0537 485.08,972.2637 " fill="none" id="eCourseSystemUser-to-Acronym" style="stroke:#181818;stroke-width:1.0;"/><polygon fill="#181818" points="490.04,974.1037,482.9991,967.2171,485.3537,972.3606,480.2101,974.7152,490.04,974.1037" style="stroke:#181818;stroke-width:1.0;"/><text fill="#000000" font-family="sans-serif" font-size="13" lengthAdjust="spacing" textLength="7" x="475.2355" y="986.6464">1</text></g><!--link eCourseSystemUser to NIF--><g id="link_eCourseSystemUser_NIF"><path codeLine="84" d="M265.52,869.2737 C331.93,876.1337 424.92,885.7437 484.72,891.9237 " fill="none" id="eCourseSystemUser-to-NIF" style="stroke:#181818;stroke-width:1.0;"/><polygon fill="#181818" points="490.04,892.4737,481.4994,887.5688,485.0665,891.9592,480.6762,895.5263,490.04,892.4737" style="stroke:#181818;stroke-width:1.0;"/><text fill="#000000" font-family="sans-serif" font-size="13" lengthAdjust="spacing" textLength="7" x="475.2355" y="906.9474">1</text></g><!--link eCourseSystemUser to BirthDate--><g id="link_eCourseSystemUser_BirthDate"><path codeLine="85" d="M265.52,847.8437 C332.06,836.8837 425.29,821.5137 485.08,811.6637 " fill="none" id="eCourseSystemUser-to-BirthDate" style="stroke:#181818;stroke-width:1.0;"/><polygon fill="#181818" points="490.04,810.8437,480.5083,808.3642,485.1069,811.6587,481.8124,816.2572,490.04,810.8437" style="stroke:#181818;stroke-width:1.0;"/><text fill="#000000" font-family="sans-serif" font-size="13" lengthAdjust="spacing" textLength="7" x="475.2355" y="827.2483">1</text></g><!--link eCourseSystemUser to MechanographicNumber--><g id="link_eCourseSystemUser_MechanographicNumber"><path codeLine="86" d="M265.26,824.3537 C310.37,803.6337 367.86,777.2837 419.12,754.0137 C429.98,749.0837 441.38,743.9337 452.68,738.8237 " fill="none" id="eCourseSystemUser-to-MechanographicNumber" style="stroke:#181818;stroke-width:1.0;"/><polygon fill="#181818" points="457.52,736.6437,447.6712,736.6751,452.9575,738.689,450.9436,743.9752,457.52,736.6437" style="stroke:#181818;stroke-width:1.0;"/><text fill="#000000" font-family="sans-serif" font-size="13" lengthAdjust="spacing" textLength="7" x="436.6469" y="757.946">1</text></g><!--link eCourseSystemUser to Grade--><g id="link_eCourseSystemUser_Grade"><path codeLine="87" d="M239.06,822.4537 C282.42,789.6237 343.61,739.6937 389.12,688.0137 C405.25,669.6937 400.15,657.3737 419.12,642.0137 C438.12,626.6337 462.61,615.7837 484.83,608.3337 " fill="none" id="eCourseSystemUser-to-Grade" style="stroke:#181818;stroke-width:1.0;"/><polygon fill="#181818" points="489.83,606.6937,480.035,605.6653,485.0739,608.2362,482.503,613.2751,489.83,606.6937" style="stroke:#181818;stroke-width:1.0;"/><polygon fill="#000000" points="303.8899,675.3747,295.1395,679.1004,299.0006,683.5323,303.8899,675.3747" style="stroke:#000000;stroke-width:1.0;"/><text fill="#000000" font-family="sans-serif" font-size="13" lengthAdjust="spacing" textLength="79" x="309.12" y="684.042">student has a</text><text fill="#000000" font-family="sans-serif" font-size="13" lengthAdjust="spacing" textLength="7" x="474.9973" y="623.6157">1</text></g><!--link eCourseSystemUser to TakeFormativeExamService--><g id="link_eCourseSystemUser_TakeFormativeExamService"><path codeLine="89" d="M188.38,899.6937 C196.89,1007.2137 226.36,1305.9937 295.12,1371.0137 C332.08,1405.9737 386.87,1417.1837 435.6,1419.0337 " fill="none" id="eCourseSystemUser-to-TakeFormativeExamService" style="stroke:#181818;stroke-width:1.0;"/><polygon fill="#181818" points="440.6,1419.1937,431.7301,1414.9129,435.6025,1419.0366,431.4788,1422.909,440.6,1419.1937" style="stroke:#181818;stroke-width:1.0;"/><polygon fill="#000000" points="331.2691,1366.1738,330.035,1356.7436,324.7278,1359.27,331.2691,1366.1738" style="stroke:#000000;stroke-width:1.0;"/><text fill="#000000" font-family="sans-serif" font-size="13" lengthAdjust="spacing" textLength="21" x="338.12" y="1367.042">use</text></g><!--link eCourseSystemUser to ListFormativeExamCoursesService--><g id="link_eCourseSystemUser_ListFormativeExamCoursesService"><path codeLine="90" d="M187.69,899.8237 C194.71,1016.4537 221.36,1360.6937 295.12,1440.0137 C325.71,1472.9037 370.64,1490.1437 413.92,1498.9437 " fill="none" id="eCourseSystemUser-to-ListFormativeExamCoursesService" style="stroke:#181818;stroke-width:1.0;"/><polygon fill="#181818" points="418.91,1499.9237,410.8438,1494.2725,414.0027,1498.9651,409.3101,1502.1241,418.91,1499.9237" style="stroke:#181818;stroke-width:1.0;"/><polygon fill="#000000" points="330.8863,1435.3368,330.4405,1425.8367,324.9416,1427.9131,330.8863,1435.3368" style="stroke:#000000;stroke-width:1.0;"/><text fill="#000000" font-family="sans-serif" font-size="13" lengthAdjust="spacing" textLength="21" x="338.12" y="1436.042">use</text></g><!--link eCourseSystemUser to FormativeExam--><g id="link_eCourseSystemUser_FormativeExam"><path codeLine="92" d="M184.62,822.1737 C184.62,742.4737 184.62,560.1537 184.62,467.0337 " fill="none" id="eCourseSystemUser-FormativeExam" style="stroke:#181818;stroke-width:1.0;"/><polygon fill="#000000" points="151.62,639.9092,148.6811,648.9543,154.5589,648.9543,151.62,639.9092" style="stroke:#000000;stroke-width:1.0;"/><text fill="#000000" font-family="sans-serif" font-size="13" lengthAdjust="spacing" textLength="36" x="160.62" y="650.292">take a</text><text fill="#000000" font-family="sans-serif" font-size="13" lengthAdjust="spacing" textLength="5" x="179.1903" y="811.1297">*</text><text fill="#000000" font-family="sans-serif" font-size="13" lengthAdjust="spacing" textLength="5" x="179.3309" y="488.667">*</text></g><!--link Course to CourseStatus--><g id="link_Course_CourseStatus"><path codeLine="95" d="M246.76,192.2737 C311.86,174.4537 414.41,146.3837 480.33,128.3337 " fill="none" id="Course-to-CourseStatus" style="stroke:#181818;stroke-width:1.0;"/><polygon fill="#181818" points="485.41,126.9537,475.6702,125.492,480.5902,128.2838,477.7984,133.2037,485.41,126.9537" style="stroke:#181818;stroke-width:1.0;"/><text fill="#000000" font-family="sans-serif" font-size="13" lengthAdjust="spacing" textLength="7" x="470.7672" y="143.9891">1</text></g><!--link Course to CourseCode--><g id="link_Course_CourseCode"><path codeLine="96" d="M246.76,211.9137 C312.93,215.0637 417.8,220.0437 483.55,223.1637 " fill="none" id="Course-to-CourseCode" style="stroke:#181818;stroke-width:1.0;"/><polygon fill="#181818" points="488.61,223.4037,479.8147,218.9718,483.6159,223.1611,479.4265,226.9623,488.61,223.4037" style="stroke:#181818;stroke-width:1.0;"/><text fill="#000000" font-family="sans-serif" font-size="13" lengthAdjust="spacing" textLength="7" x="473.6133" y="238.2711">1</text></g><!--link Course to Grade--><g id="link_Course_Grade"><path codeLine="98" d="M221.15,256.5837 C236.86,279.7637 254.21,308.6937 265.12,337.0137 C291.92,406.5637 247.21,444.9137 295.12,502.0137 C343.83,560.0737 432.77,581.5137 489.98,589.4137 " fill="none" id="Course-Grade" style="stroke:#181818;stroke-width:1.0;"/><polygon fill="#000000" points="312.9783,488.7695,316.3754,497.6527,320.948,493.9593,312.9783,488.7695" style="stroke:#000000;stroke-width:1.0;"/><text fill="#000000" font-family="sans-serif" font-size="13" lengthAdjust="spacing" textLength="47" x="325.12" y="498.042">refers to</text><text fill="#000000" font-family="sans-serif" font-size="13" lengthAdjust="spacing" textLength="7" x="219.0013" y="278.8566">1</text><text fill="#000000" font-family="sans-serif" font-size="13" lengthAdjust="spacing" textLength="7" x="475.1674" y="604.0137">1</text></g><!--link Course to eCourseSystemUser--><g id="link_Course_eCourseSystemUser"><path codeLine="100" d="M135.16,256.7237 C114.85,279.1637 93.1,307.4637 80.12,337.0137 C6,505.8037 40,543.0537 48.12,578.5137 C69.45,671.6937 125.69,769.8837 158.95,822.4237 " fill="none" id="Course-eCourseSystemUser" style="stroke:#181818;stroke-width:1.0;"/><polygon fill="#000000" points="26.9099,564.1636,24.3536,573.3242,30.2263,573.0772,26.9099,564.1636" style="stroke:#000000;stroke-width:1.0;"/><text fill="#000000" font-family="sans-serif" font-size="13" lengthAdjust="spacing" textLength="35" x="36.12" y="574.542">is in a</text><text fill="#000000" font-family="sans-serif" font-size="13" lengthAdjust="spacing" textLength="5" x="122.8531" y="278.6654">*</text><text fill="#000000" font-family="sans-serif" font-size="13" lengthAdjust="spacing" textLength="5" x="148.9322" y="811.1307">*</text></g><!--link FormativeExam to ExamGrade--><g id="link_FormativeExam_ExamGrade"><path codeLine="102" d="M249.21,413.3837 C317.73,417.0237 425.57,422.7437 489.96,426.1637 " fill="none" id="FormativeExam-ExamGrade" style="stroke:#181818;stroke-width:1.0;"/><polygon fill="#000000" points="334.113,407.9242,325.2364,404.51,324.9248,410.3795,334.113,407.9242" style="stroke:#000000;stroke-width:1.0;"/><text fill="#000000" font-family="sans-serif" font-size="13" lengthAdjust="spacing" textLength="21" x="338.12" y="413.042">has</text><text fill="#000000" font-family="sans-serif" font-size="13" lengthAdjust="spacing" textLength="7" x="257.0829" y="428.8137">1</text><text fill="#000000" font-family="sans-serif" font-size="13" lengthAdjust="spacing" textLength="7" x="475.1448" y="440.9988">1</text></g><!--link FormativeExam to CourseCode--><g id="link_FormativeExam_CourseCode"><path codeLine="103" d="M249.21,377.3337 C317.22,342.3737 423.99,287.5037 488.54,254.3237 " fill="none" id="FormativeExam-CourseCode" style="stroke:#181818;stroke-width:1.0;"/><polygon fill="#000000" points="333.567,295.3735,324.1788,296.8944,326.8658,302.1222,333.567,295.3735" style="stroke:#000000;stroke-width:1.0;"/><text fill="#000000" font-family="sans-serif" font-size="13" lengthAdjust="spacing" textLength="21" x="338.12" y="303.042">has</text><text fill="#000000" font-family="sans-serif" font-size="13" lengthAdjust="spacing" textLength="5" x="256.9673" y="388.5954">*</text><text fill="#000000" font-family="sans-serif" font-size="13" lengthAdjust="spacing" textLength="7" x="473.5339" y="273.346">1</text></g><!--link ExamGrade to eCourseSystemUser--><g id="link_ExamGrade_eCourseSystemUser"><path codeLine="104" d="M507.2,459.6137 C481.19,482.3637 446.17,514.9037 419.12,547.0137 C403.63,565.3937 405.49,574.4137 389.12,592.0137 C353.09,630.7437 329.6,624.8937 295.12,665.0137 C253.33,713.6437 220.03,780.7037 201.57,822.4337 " fill="none" id="ExamGrade-eCourseSystemUser" style="stroke:#181818;stroke-width:1.0;"/><polygon fill="#000000" points="325.8987,586.4832,333.9738,581.4589,329.4783,577.672,325.8987,586.4832" style="stroke:#000000;stroke-width:1.0;"/><text fill="#000000" font-family="sans-serif" font-size="13" lengthAdjust="spacing" textLength="21" x="338.12" y="588.042">has</text><text fill="#000000" font-family="sans-serif" font-size="13" lengthAdjust="spacing" textLength="7" x="492.3996" y="481.163">1</text><text fill="#000000" font-family="sans-serif" font-size="13" lengthAdjust="spacing" textLength="7" x="196.9658" y="811.1425">1</text></g><!--SRC=[XLLTRvim57tthx3oKYbJ5kqL8QGqeLEbV5IXdRf75sx1AzYPRR95K__xR0Z1DCRbWGJVSm_d-jvZRWgb3ZAOpmybOQgkogyfh-OIVjV0KfXbbEI2L0YLyAgmubZGl50uem9IHJb3w43IDv83diJBtTC-YPEVoMEyUKhY_GI7uIBF1UH4GHJXVmXXVQKbaH8d9wcWUf8WD4fmhZGW36Ecg3erM7o-fdXBAh0UJGxhbjvjJbZoMaZubFewCwu8BHTP1a8_XE4FKjQ0-SilNMGKsS0zBs5CPw84PJbsQpDo4aLKRVY1rTKW-GkEjulRTMmjhEwJoyg0wK7V_d2HQPxZgCv5AZWxLLxCzlxE6x-bGXKhtJilQWDfGHZNKt8eQBgjgvTctuS9Ue7KYbT4qPIKvGddm41ewcn8zbsGpFMwTslEsZ4pmqK6mzMpj6DWDnzS_JADqh6QKJtidOxpLfiEdNbyNTizn5lhSRdU9V7gkcKjqPAxQhDBYvyN6rzXTroOBJn2_9TKW_gEki8FvQNjwoxbzP5UZiC9cjdJXHRqIDvWe2K1SQIfoP7jlzPdbuGrbMgGq4gGxZoTXj3D7afYZXXPq8D4o7BrR1RXoRV9mBMkUESKLymO6Q7h4wEBzqiUK4Co7kuzxm6TdUf1Q9zweXUNUZ0kZthWRVy3B5MTwRd21P6Ou6XikqQd8S2rjc4qalRPJ7JPZlJ9TA8fcf-X9GAij9XMB3eV0rrLjflTiSOHNSWictTO-o7WLO-Q-Gg6FSn8QUxNCWDC9QPCoz7ueL2BlNTSqEnqz14wlK2jSwJ3zjaMfKjA2_yF]--></g></svg>