<?xml version="1.0" encoding="us-ascii" standalone="no"?><svg xmlns="http://www.w3.org/2000/svg" xmlns:xlink="http://www.w3.org/1999/xlink" contentStyleType="text/css" height="1802px" preserveAspectRatio="none" style="width:2924px;height:1802px;background:#FFFFFF;" version="1.1" viewBox="0 0 2924 1802" width="2924px" zoomAndPan="magnify"><defs/><g><rect fill="#FFFFFF" height="1563.4648" style="stroke:#181818;stroke-width:1.0;" width="10" x="42.5" y="121.5332"/><rect fill="#FFFFFF" height="784.6934" style="stroke:#181818;stroke-width:1.0;" width="10" x="300.5" y="121.5332"/><rect fill="#FFFFFF" height="747.4805" style="stroke:#181818;stroke-width:1.0;" width="10" x="300.5" y="937.5176"/><rect fill="#FFFFFF" height="722.1113" style="stroke:#181818;stroke-width:1.0;" width="10" x="577.5" y="152.8242"/><rect fill="#FFFFFF" height="677.8984" style="stroke:#181818;stroke-width:1.0;" width="10" x="577.5" y="968.8086"/><rect fill="#FFFFFF" height="31.291" style="stroke:#181818;stroke-width:1.0;" width="10" x="937" y="303.9883"/><rect fill="#FFFFFF" height="31.291" style="stroke:#181818;stroke-width:1.0;" width="10" x="1065" y="366.5703"/><rect fill="#FFFFFF" height="414.4922" style="stroke:#181818;stroke-width:1.0;" width="10" x="1216.5" y="429.1523"/><rect fill="#FFFFFF" height="471.1523" style="stroke:#181818;stroke-width:1.0;" width="10" x="1216.5" y="1106.9727"/><rect fill="#FFFFFF" height="75.582" style="stroke:#181818;stroke-width:1.0;" width="10" x="1733.5" y="460.4434"/><rect fill="#FFFFFF" height="75.582" style="stroke:#181818;stroke-width:1.0;" width="10" x="1880.5" y="567.3164"/><rect fill="#FFFFFF" height="138.1641" style="stroke:#181818;stroke-width:1.0;" width="10" x="2098.5" y="674.1895"/><rect fill="#FFFFFF" height="75.582" style="stroke:#181818;stroke-width:1.0;" width="10" x="2330.5" y="705.4805"/><rect fill="#FFFFFF" height="75.582" style="stroke:#181818;stroke-width:1.0;" width="10" x="2330.5" y="1000.0996"/><rect fill="#FFFFFF" height="37.291" style="stroke:#181818;stroke-width:1.0;" width="10" x="2330.5" y="1609.416"/><rect fill="#FFFFFF" height="234.4063" style="stroke:#181818;stroke-width:1.0;" width="10" x="2544.5" y="1343.7188"/><rect fill="#FFFFFF" height="164.1641" style="stroke:#181818;stroke-width:1.0;" width="10" x="2700.5" y="1138.2637"/><rect fill="#FFFFFF" height="30" style="stroke:#181818;stroke-width:1.0;" width="10" x="2869.5" y="1548.125"/><rect fill="none" height="81.873" style="stroke:#000000;stroke-width:1.5;" width="2640" x="10" y="1361.0488"/><line style="stroke:#181818;stroke-width:0.5;stroke-dasharray:5.0,5.0;" x1="47" x2="47" y1="88.2422" y2="1702.998"/><line style="stroke:#181818;stroke-width:0.5;stroke-dasharray:5.0,5.0;" x1="305.5" x2="305.5" y1="88.2422" y2="1702.998"/><line style="stroke:#181818;stroke-width:0.5;stroke-dasharray:5.0,5.0;" x1="582.5" x2="582.5" y1="88.2422" y2="1702.998"/><line style="stroke:#181818;stroke-width:0.5;stroke-dasharray:5.0,5.0;" x1="799.5" x2="799.5" y1="88.2422" y2="1702.998"/><line style="stroke:#181818;stroke-width:0.5;stroke-dasharray:5.0,5.0;" x1="941.5" x2="941.5" y1="88.2422" y2="1702.998"/><line style="stroke:#181818;stroke-width:0.5;stroke-dasharray:5.0,5.0;" x1="1069.5" x2="1069.5" y1="88.2422" y2="1702.998"/><line style="stroke:#181818;stroke-width:0.5;stroke-dasharray:5.0,5.0;" x1="1221.5" x2="1221.5" y1="88.2422" y2="1702.998"/><line style="stroke:#181818;stroke-width:0.5;stroke-dasharray:5.0,5.0;" x1="1738" x2="1738" y1="88.2422" y2="1702.998"/><line style="stroke:#181818;stroke-width:0.5;stroke-dasharray:5.0,5.0;" x1="1885" x2="1885" y1="88.2422" y2="1702.998"/><line style="stroke:#181818;stroke-width:0.5;stroke-dasharray:5.0,5.0;" x1="2103" x2="2103" y1="88.2422" y2="1702.998"/><line style="stroke:#181818;stroke-width:0.5;stroke-dasharray:5.0,5.0;" x1="2335" x2="2335" y1="88.2422" y2="1702.998"/><line style="stroke:#181818;stroke-width:0.5;stroke-dasharray:5.0,5.0;" x1="2549" x2="2549" y1="1342.2383" y2="1702.998"/><line style="stroke:#181818;stroke-width:0.5;stroke-dasharray:5.0,5.0;" x1="2705" x2="2705" y1="88.2422" y2="1702.998"/><line style="stroke:#181818;stroke-width:0.5;stroke-dasharray:5.0,5.0;" x1="2874.5" x2="2874.5" y1="1513.0234" y2="1702.998"/><text fill="#000000" font-family="sans-serif" font-size="14" lengthAdjust="spacing" textLength="49" x="20" y="84.7285">Student</text><ellipse cx="47.5" cy="18.1211" fill="#E2E2F0" rx="8" ry="8" style="stroke:#181818;stroke-width:0.5;"/><path d="M47.5,26.1211 L47.5,53.1211 M34.5,34.1211 L60.5,34.1211 M47.5,53.1211 L34.5,68.1211 M47.5,53.1211 L60.5,68.1211 " fill="none" style="stroke:#181818;stroke-width:0.5;"/><text fill="#000000" font-family="sans-serif" font-size="14" lengthAdjust="spacing" textLength="49" x="20" y="1717.1055">Student</text><ellipse cx="47.5" cy="1729.1191" fill="#E2E2F0" rx="8" ry="8" style="stroke:#181818;stroke-width:0.5;"/><path d="M47.5,1737.1191 L47.5,1764.1191 M34.5,1745.1191 L60.5,1745.1191 M47.5,1764.1191 L34.5,1779.1191 M47.5,1764.1191 L60.5,1779.1191 " fill="none" style="stroke:#181818;stroke-width:0.5;"/><rect fill="#E2E2F0" height="32.6211" rx="2.5" ry="2.5" style="stroke:#181818;stroke-width:0.5;" width="242" x="184.5" y="54.6211"/><text fill="#000000" font-family="sans-serif" font-size="14" lengthAdjust="spacing" textLength="228" x="191.5" y="76.7285">:ListFormativeExamGradesCourseUI</text><rect fill="#E2E2F0" height="32.6211" rx="2.5" ry="2.5" style="stroke:#181818;stroke-width:0.5;" width="242" x="184.5" y="1701.998"/><text fill="#000000" font-family="sans-serif" font-size="14" lengthAdjust="spacing" textLength="228" x="191.5" y="1724.1055">:ListFormativeExamGradesCourseUI</text><rect fill="#E2E2F0" height="32.6211" rx="2.5" ry="2.5" style="stroke:#181818;stroke-width:0.5;" width="292" x="436.5" y="54.6211"/><text fill="#000000" font-family="sans-serif" font-size="14" lengthAdjust="spacing" textLength="278" x="443.5" y="76.7285">:ListFormativeExamGradesCourseController</text><rect fill="#E2E2F0" height="32.6211" rx="2.5" ry="2.5" style="stroke:#181818;stroke-width:0.5;" width="292" x="436.5" y="1701.998"/><text fill="#000000" font-family="sans-serif" font-size="14" lengthAdjust="spacing" textLength="278" x="443.5" y="1724.1055">:ListFormativeExamGradesCourseController</text><text fill="#000000" font-family="sans-serif" font-size="14" font-style="italic" lengthAdjust="spacing" textLength="79" x="757" y="66.1074">&#171;repository&#187;</text><text fill="#000000" font-family="sans-serif" font-size="14" lengthAdjust="spacing" textLength="116" x="738.5" y="84.7285">RepositoryFactory</text><path d="M781.5,15 C781.5,5 799.5,5 799.5,5 C799.5,5 817.5,5 817.5,15 L817.5,41 C817.5,51 799.5,51 799.5,51 C799.5,51 781.5,51 781.5,41 L781.5,15 " fill="#E2E2F0" style="stroke:#181818;stroke-width:1.5;"/><path d="M781.5,15 C781.5,25 799.5,25 799.5,25 C799.5,25 817.5,25 817.5,15 " fill="none" style="stroke:#181818;stroke-width:1.5;"/><text fill="#000000" font-family="sans-serif" font-size="14" font-style="italic" lengthAdjust="spacing" textLength="79" x="757" y="1717.1055">&#171;repository&#187;</text><text fill="#000000" font-family="sans-serif" font-size="14" lengthAdjust="spacing" textLength="116" x="738.5" y="1735.7266">RepositoryFactory</text><path d="M781.5,1749.2402 C781.5,1739.2402 799.5,1739.2402 799.5,1739.2402 C799.5,1739.2402 817.5,1739.2402 817.5,1749.2402 L817.5,1775.2402 C817.5,1785.2402 799.5,1785.2402 799.5,1785.2402 C799.5,1785.2402 781.5,1785.2402 781.5,1775.2402 L781.5,1749.2402 " fill="#E2E2F0" style="stroke:#181818;stroke-width:1.5;"/><path d="M781.5,1749.2402 C781.5,1759.2402 799.5,1759.2402 799.5,1759.2402 C799.5,1759.2402 817.5,1759.2402 817.5,1749.2402 " fill="none" style="stroke:#181818;stroke-width:1.5;"/><rect fill="#E2E2F0" height="32.6211" rx="2.5" ry="2.5" style="stroke:#181818;stroke-width:0.5;" width="143" x="870.5" y="54.6211"/><text fill="#000000" font-family="sans-serif" font-size="14" lengthAdjust="spacing" textLength="129" x="877.5" y="76.7285">AuthorizationService</text><rect fill="#E2E2F0" height="32.6211" rx="2.5" ry="2.5" style="stroke:#181818;stroke-width:0.5;" width="143" x="870.5" y="1701.998"/><text fill="#000000" font-family="sans-serif" font-size="14" lengthAdjust="spacing" textLength="129" x="877.5" y="1724.1055">AuthorizationService</text><rect fill="#E2E2F0" height="32.6211" rx="2.5" ry="2.5" style="stroke:#181818;stroke-width:0.5;" width="93" x="1023.5" y="54.6211"/><text fill="#000000" font-family="sans-serif" font-size="14" lengthAdjust="spacing" textLength="79" x="1030.5" y="76.7285">UserSession</text><rect fill="#E2E2F0" height="32.6211" rx="2.5" ry="2.5" style="stroke:#181818;stroke-width:0.5;" width="93" x="1023.5" y="1701.998"/><text fill="#000000" font-family="sans-serif" font-size="14" lengthAdjust="spacing" textLength="79" x="1030.5" y="1724.1055">UserSession</text><rect fill="#E2E2F0" height="51.2422" rx="2.5" ry="2.5" style="stroke:#181818;stroke-width:0.5;" width="190" x="1126.5" y="36"/><text fill="#000000" font-family="sans-serif" font-size="14" font-style="italic" lengthAdjust="spacing" textLength="60" x="1191.5" y="58.1074">&#171;service&#187;</text><text fill="#000000" font-family="sans-serif" font-size="14" lengthAdjust="spacing" textLength="176" x="1133.5" y="76.7285">TakeFormativeExamService</text><rect fill="#E2E2F0" height="51.2422" rx="2.5" ry="2.5" style="stroke:#181818;stroke-width:0.5;" width="190" x="1126.5" y="1701.998"/><text fill="#000000" font-family="sans-serif" font-size="14" font-style="italic" lengthAdjust="spacing" textLength="60" x="1191.5" y="1724.1055">&#171;service&#187;</text><text fill="#000000" font-family="sans-serif" font-size="14" lengthAdjust="spacing" textLength="176" x="1133.5" y="1742.7266">TakeFormativeExamService</text><text fill="#000000" font-family="sans-serif" font-size="14" font-style="italic" lengthAdjust="spacing" textLength="79" x="1696" y="66.1074">&#171;repository&#187;</text><text fill="#000000" font-family="sans-serif" font-size="14" lengthAdjust="spacing" textLength="97" x="1687" y="84.7285">UserRepository</text><path d="M1720.5,15 C1720.5,5 1738.5,5 1738.5,5 C1738.5,5 1756.5,5 1756.5,15 L1756.5,41 C1756.5,51 1738.5,51 1738.5,51 C1738.5,51 1720.5,51 1720.5,41 L1720.5,15 " fill="#E2E2F0" style="stroke:#181818;stroke-width:1.5;"/><path d="M1720.5,15 C1720.5,25 1738.5,25 1738.5,25 C1738.5,25 1756.5,25 1756.5,15 " fill="none" style="stroke:#181818;stroke-width:1.5;"/><text fill="#000000" font-family="sans-serif" font-size="14" font-style="italic" lengthAdjust="spacing" textLength="79" x="1696" y="1717.1055">&#171;repository&#187;</text><text fill="#000000" font-family="sans-serif" font-size="14" lengthAdjust="spacing" textLength="97" x="1687" y="1735.7266">UserRepository</text><path d="M1720.5,1749.2402 C1720.5,1739.2402 1738.5,1739.2402 1738.5,1739.2402 C1738.5,1739.2402 1756.5,1739.2402 1756.5,1749.2402 L1756.5,1775.2402 C1756.5,1785.2402 1738.5,1785.2402 1738.5,1785.2402 C1738.5,1785.2402 1720.5,1785.2402 1720.5,1775.2402 L1720.5,1749.2402 " fill="#E2E2F0" style="stroke:#181818;stroke-width:1.5;"/><path d="M1720.5,1749.2402 C1720.5,1759.2402 1738.5,1759.2402 1738.5,1759.2402 C1738.5,1759.2402 1756.5,1759.2402 1756.5,1749.2402 " fill="none" style="stroke:#181818;stroke-width:1.5;"/><rect fill="#E2E2F0" height="51.2422" rx="2.5" ry="2.5" style="stroke:#181818;stroke-width:0.5;" width="143" x="1814" y="36"/><text fill="#000000" font-family="sans-serif" font-size="14" font-style="italic" lengthAdjust="spacing" textLength="50" x="1860.5" y="58.1074">&#171;entity&#187;</text><text fill="#000000" font-family="sans-serif" font-size="14" lengthAdjust="spacing" textLength="129" x="1821" y="76.7285">eCourseSystemUser</text><rect fill="#E2E2F0" height="51.2422" rx="2.5" ry="2.5" style="stroke:#181818;stroke-width:0.5;" width="143" x="1814" y="1701.998"/><text fill="#000000" font-family="sans-serif" font-size="14" font-style="italic" lengthAdjust="spacing" textLength="50" x="1860.5" y="1724.1055">&#171;entity&#187;</text><text fill="#000000" font-family="sans-serif" font-size="14" lengthAdjust="spacing" textLength="129" x="1821" y="1742.7266">eCourseSystemUser</text><rect fill="#E2E2F0" height="51.2422" rx="2.5" ry="2.5" style="stroke:#181818;stroke-width:0.5;" width="273" x="1967" y="36"/><text fill="#000000" font-family="sans-serif" font-size="14" font-style="italic" lengthAdjust="spacing" textLength="60" x="2073.5" y="58.1074">&#171;service&#187;</text><text fill="#000000" font-family="sans-serif" font-size="14" lengthAdjust="spacing" textLength="259" x="1974" y="76.7285">ListFormativeExamGradesCourseService</text><rect fill="#E2E2F0" height="51.2422" rx="2.5" ry="2.5" style="stroke:#181818;stroke-width:0.5;" width="273" x="1967" y="1701.998"/><text fill="#000000" font-family="sans-serif" font-size="14" font-style="italic" lengthAdjust="spacing" textLength="60" x="2073.5" y="1724.1055">&#171;service&#187;</text><text fill="#000000" font-family="sans-serif" font-size="14" lengthAdjust="spacing" textLength="259" x="1974" y="1742.7266">ListFormativeExamGradesCourseService</text><text fill="#000000" font-family="sans-serif" font-size="14" font-style="italic" lengthAdjust="spacing" textLength="79" x="2293" y="66.1074">&#171;repository&#187;</text><text fill="#000000" font-family="sans-serif" font-size="14" lengthAdjust="spacing" textLength="165" x="2250" y="84.7285">FormativeExamRepository</text><path d="M2317.5,15 C2317.5,5 2335.5,5 2335.5,5 C2335.5,5 2353.5,5 2353.5,15 L2353.5,41 C2353.5,51 2335.5,51 2335.5,51 C2335.5,51 2317.5,51 2317.5,41 L2317.5,15 " fill="#E2E2F0" style="stroke:#181818;stroke-width:1.5;"/><path d="M2317.5,15 C2317.5,25 2335.5,25 2335.5,25 C2335.5,25 2353.5,25 2353.5,15 " fill="none" style="stroke:#181818;stroke-width:1.5;"/><text fill="#000000" font-family="sans-serif" font-size="14" font-style="italic" lengthAdjust="spacing" textLength="79" x="2293" y="1717.1055">&#171;repository&#187;</text><text fill="#000000" font-family="sans-serif" font-size="14" lengthAdjust="spacing" textLength="165" x="2250" y="1735.7266">FormativeExamRepository</text><path d="M2317.5,1749.2402 C2317.5,1739.2402 2335.5,1739.2402 2335.5,1739.2402 C2335.5,1739.2402 2353.5,1739.2402 2353.5,1749.2402 L2353.5,1775.2402 C2353.5,1785.2402 2335.5,1785.2402 2335.5,1785.2402 C2335.5,1785.2402 2317.5,1785.2402 2317.5,1775.2402 L2317.5,1749.2402 " fill="#E2E2F0" style="stroke:#181818;stroke-width:1.5;"/><path d="M2317.5,1749.2402 C2317.5,1759.2402 2335.5,1759.2402 2335.5,1759.2402 C2335.5,1759.2402 2353.5,1759.2402 2353.5,1749.2402 " fill="none" style="stroke:#181818;stroke-width:1.5;"/><rect fill="#E2E2F0" height="32.6211" rx="2.5" ry="2.5" style="stroke:#181818;stroke-width:0.5;" width="181" x="2459" y="1701.998"/><text fill="#000000" font-family="sans-serif" font-size="14" lengthAdjust="spacing" textLength="167" x="2466" y="1724.1055">FormativeExamEvalListner</text><rect fill="#E2E2F0" height="51.2422" rx="2.5" ry="2.5" style="stroke:#181818;stroke-width:0.5;" width="111" x="2650" y="36"/><text fill="#000000" font-family="sans-serif" font-size="14" font-style="italic" lengthAdjust="spacing" textLength="50" x="2680.5" y="58.1074">&#171;entity&#187;</text><text fill="#000000" font-family="sans-serif" font-size="14" lengthAdjust="spacing" textLength="97" x="2657" y="76.7285">FormativeExam</text><rect fill="#E2E2F0" height="51.2422" rx="2.5" ry="2.5" style="stroke:#181818;stroke-width:0.5;" width="111" x="2650" y="1701.998"/><text fill="#000000" font-family="sans-serif" font-size="14" font-style="italic" lengthAdjust="spacing" textLength="50" x="2680.5" y="1724.1055">&#171;entity&#187;</text><text fill="#000000" font-family="sans-serif" font-size="14" lengthAdjust="spacing" textLength="97" x="2657" y="1742.7266">FormativeExam</text><rect fill="#E2E2F0" height="32.6211" rx="2.5" ry="2.5" style="stroke:#181818;stroke-width:0.5;" width="88" x="2830.5" y="1701.998"/><text fill="#000000" font-family="sans-serif" font-size="14" lengthAdjust="spacing" textLength="74" x="2837.5" y="1724.1055">ExamGrade</text><rect fill="#FFFFFF" height="1563.4648" style="stroke:#181818;stroke-width:1.0;" width="10" x="42.5" y="121.5332"/><rect fill="#FFFFFF" height="784.6934" style="stroke:#181818;stroke-width:1.0;" width="10" x="300.5" y="121.5332"/><rect fill="#FFFFFF" height="747.4805" style="stroke:#181818;stroke-width:1.0;" width="10" x="300.5" y="937.5176"/><rect fill="#FFFFFF" height="722.1113" style="stroke:#181818;stroke-width:1.0;" width="10" x="577.5" y="152.8242"/><rect fill="#FFFFFF" height="677.8984" style="stroke:#181818;stroke-width:1.0;" width="10" x="577.5" y="968.8086"/><rect fill="#FFFFFF" height="31.291" style="stroke:#181818;stroke-width:1.0;" width="10" x="937" y="303.9883"/><rect fill="#FFFFFF" height="31.291" style="stroke:#181818;stroke-width:1.0;" width="10" x="1065" y="366.5703"/><rect fill="#FFFFFF" height="414.4922" style="stroke:#181818;stroke-width:1.0;" width="10" x="1216.5" y="429.1523"/><rect fill="#FFFFFF" height="471.1523" style="stroke:#181818;stroke-width:1.0;" width="10" x="1216.5" y="1106.9727"/><rect fill="#FFFFFF" height="75.582" style="stroke:#181818;stroke-width:1.0;" width="10" x="1733.5" y="460.4434"/><rect fill="#FFFFFF" height="75.582" style="stroke:#181818;stroke-width:1.0;" width="10" x="1880.5" y="567.3164"/><rect fill="#FFFFFF" height="138.1641" style="stroke:#181818;stroke-width:1.0;" width="10" x="2098.5" y="674.1895"/><rect fill="#FFFFFF" height="75.582" style="stroke:#181818;stroke-width:1.0;" width="10" x="2330.5" y="705.4805"/><rect fill="#FFFFFF" height="75.582" style="stroke:#181818;stroke-width:1.0;" width="10" x="2330.5" y="1000.0996"/><rect fill="#FFFFFF" height="37.291" style="stroke:#181818;stroke-width:1.0;" width="10" x="2330.5" y="1609.416"/><rect fill="#FFFFFF" height="234.4063" style="stroke:#181818;stroke-width:1.0;" width="10" x="2544.5" y="1343.7188"/><rect fill="#FFFFFF" height="164.1641" style="stroke:#181818;stroke-width:1.0;" width="10" x="2700.5" y="1138.2637"/><rect fill="#FFFFFF" height="30" style="stroke:#181818;stroke-width:1.0;" width="10" x="2869.5" y="1548.125"/><polygon fill="#181818" points="288.5,117.5332,298.5,121.5332,288.5,125.5332,292.5,121.5332" style="stroke:#181818;stroke-width:1.0;"/><line style="stroke:#181818;stroke-width:1.0;" x1="52.5" x2="294.5" y1="121.5332" y2="121.5332"/><text fill="#000000" font-family="sans-serif" font-size="13" font-weight="bold" lengthAdjust="spacing" textLength="7" x="59.5" y="116.2705">1</text><text fill="#000000" font-family="sans-serif" font-size="13" lengthAdjust="spacing" textLength="223" x="70.5" y="116.2705">Starts asking to take a formative exam</text><polygon fill="#181818" points="565.5,148.8242,575.5,152.8242,565.5,156.8242,569.5,152.8242" style="stroke:#181818;stroke-width:1.0;"/><line style="stroke:#181818;stroke-width:1.0;" x1="310.5" x2="571.5" y1="152.8242" y2="152.8242"/><text fill="#000000" font-family="sans-serif" font-size="13" font-weight="bold" lengthAdjust="spacing" textLength="7" x="317.5" y="147.5615">2</text><text fill="#000000" font-family="sans-serif" font-size="13" lengthAdjust="spacing" textLength="175" x="328.5" y="147.5615">getTakeableFormativeExams()</text><polygon fill="#181818" points="787.5,180.1152,797.5,184.1152,787.5,188.1152,791.5,184.1152" style="stroke:#181818;stroke-width:1.0;"/><line style="stroke:#181818;stroke-width:1.0;" x1="587.5" x2="793.5" y1="184.1152" y2="184.1152"/><text fill="#000000" font-family="sans-serif" font-size="13" font-weight="bold" lengthAdjust="spacing" textLength="7" x="594.5" y="178.8525">3</text><text fill="#000000" font-family="sans-serif" font-size="13" lengthAdjust="spacing" textLength="4" x="605.5" y="178.8525">&#160;</text><line style="stroke:#181818;stroke-width:1.0;" x1="587.5" x2="629.5" y1="215.4063" y2="215.4063"/><line style="stroke:#181818;stroke-width:1.0;" x1="629.5" x2="629.5" y1="215.4063" y2="228.4063"/><line style="stroke:#181818;stroke-width:1.0;" x1="588.5" x2="629.5" y1="228.4063" y2="228.4063"/><polygon fill="#181818" points="598.5,224.4063,588.5,228.4063,598.5,232.4063,594.5,228.4063" style="stroke:#181818;stroke-width:1.0;"/><text fill="#000000" font-family="sans-serif" font-size="13" font-weight="bold" lengthAdjust="spacing" textLength="7" x="594.5" y="210.1436">4</text><text fill="#000000" font-family="sans-serif" font-size="13" lengthAdjust="spacing" textLength="175" x="605.5" y="210.1436">getTakeableFormativeExams()</text><line style="stroke:#181818;stroke-width:1.0;" x1="587.5" x2="629.5" y1="259.6973" y2="259.6973"/><line style="stroke:#181818;stroke-width:1.0;" x1="629.5" x2="629.5" y1="259.6973" y2="272.6973"/><line style="stroke:#181818;stroke-width:1.0;" x1="588.5" x2="629.5" y1="272.6973" y2="272.6973"/><polygon fill="#181818" points="598.5,268.6973,588.5,272.6973,598.5,276.6973,594.5,272.6973" style="stroke:#181818;stroke-width:1.0;"/><text fill="#000000" font-family="sans-serif" font-size="13" font-weight="bold" lengthAdjust="spacing" textLength="7" x="594.5" y="254.4346">5</text><text fill="#000000" font-family="sans-serif" font-size="13" lengthAdjust="spacing" textLength="53" x="605.5" y="254.4346">getUser()</text><polygon fill="#181818" points="925,299.9883,935,303.9883,925,307.9883,929,303.9883" style="stroke:#181818;stroke-width:1.0;"/><line style="stroke:#181818;stroke-width:1.0;" x1="587.5" x2="931" y1="303.9883" y2="303.9883"/><text fill="#000000" font-family="sans-serif" font-size="13" font-weight="bold" lengthAdjust="spacing" textLength="7" x="594.5" y="298.7256">6</text><text fill="#000000" font-family="sans-serif" font-size="13" lengthAdjust="spacing" textLength="53" x="605.5" y="298.7256">session()</text><polygon fill="#181818" points="598.5,331.2793,588.5,335.2793,598.5,339.2793,594.5,335.2793" style="stroke:#181818;stroke-width:1.0;"/><line style="stroke:#181818;stroke-width:1.0;stroke-dasharray:2.0,2.0;" x1="592.5" x2="941" y1="335.2793" y2="335.2793"/><text fill="#000000" font-family="sans-serif" font-size="13" font-weight="bold" lengthAdjust="spacing" textLength="7" x="604.5" y="330.0166">7</text><text fill="#000000" font-family="sans-serif" font-size="13" lengthAdjust="spacing" textLength="45" x="615.5" y="330.0166">session</text><polygon fill="#181818" points="1053,362.5703,1063,366.5703,1053,370.5703,1057,366.5703" style="stroke:#181818;stroke-width:1.0;"/><line style="stroke:#181818;stroke-width:1.0;" x1="587.5" x2="1059" y1="366.5703" y2="366.5703"/><text fill="#000000" font-family="sans-serif" font-size="13" font-weight="bold" lengthAdjust="spacing" textLength="7" x="594.5" y="361.3076">8</text><text fill="#000000" font-family="sans-serif" font-size="13" lengthAdjust="spacing" textLength="113" x="605.5" y="361.3076">authenticatedUser()</text><polygon fill="#181818" points="598.5,393.8613,588.5,397.8613,598.5,401.8613,594.5,397.8613" style="stroke:#181818;stroke-width:1.0;"/><line style="stroke:#181818;stroke-width:1.0;stroke-dasharray:2.0,2.0;" x1="592.5" x2="1069" y1="397.8613" y2="397.8613"/><text fill="#000000" font-family="sans-serif" font-size="13" font-weight="bold" lengthAdjust="spacing" textLength="7" x="604.5" y="392.5986">9</text><text fill="#000000" font-family="sans-serif" font-size="13" lengthAdjust="spacing" textLength="25" x="615.5" y="392.5986">user</text><polygon fill="#181818" points="1204.5,425.1523,1214.5,429.1523,1204.5,433.1523,1208.5,429.1523" style="stroke:#181818;stroke-width:1.0;"/><line style="stroke:#181818;stroke-width:1.0;" x1="587.5" x2="1210.5" y1="429.1523" y2="429.1523"/><text fill="#000000" font-family="sans-serif" font-size="13" font-weight="bold" lengthAdjust="spacing" textLength="14" x="594.5" y="423.8896">10</text><text fill="#000000" font-family="sans-serif" font-size="13" lengthAdjust="spacing" textLength="215" x="612.5" y="423.8896">getFormativeExams(user,repoE,repo)</text><polygon fill="#181818" points="1721.5,456.4434,1731.5,460.4434,1721.5,464.4434,1725.5,460.4434" style="stroke:#181818;stroke-width:1.0;"/><line style="stroke:#181818;stroke-width:1.0;" x1="1226.5" x2="1727.5" y1="460.4434" y2="460.4434"/><text fill="#000000" font-family="sans-serif" font-size="13" font-weight="bold" lengthAdjust="spacing" textLength="14" x="1233.5" y="455.1807">11</text><text fill="#000000" font-family="sans-serif" font-size="13" lengthAdjust="spacing" textLength="470" x="1251.5" y="455.1807">eCourseSystemUser = findUser(SystemUser user, eCourseUserRepository repo )</text><line style="stroke:#181818;stroke-width:1.0;" x1="1743.5" x2="1785.5" y1="491.7344" y2="491.7344"/><line style="stroke:#181818;stroke-width:1.0;" x1="1785.5" x2="1785.5" y1="491.7344" y2="504.7344"/><line style="stroke:#181818;stroke-width:1.0;" x1="1744.5" x2="1785.5" y1="504.7344" y2="504.7344"/><polygon fill="#181818" points="1754.5,500.7344,1744.5,504.7344,1754.5,508.7344,1750.5,504.7344" style="stroke:#181818;stroke-width:1.0;"/><text fill="#000000" font-family="sans-serif" font-size="13" font-weight="bold" lengthAdjust="spacing" textLength="14" x="1750.5" y="486.4717">12</text><text fill="#000000" font-family="sans-serif" font-size="13" lengthAdjust="spacing" textLength="105" x="1768.5" y="486.4717">searchUser(email)</text><polygon fill="#181818" points="1237.5,532.0254,1227.5,536.0254,1237.5,540.0254,1233.5,536.0254" style="stroke:#181818;stroke-width:1.0;"/><line style="stroke:#181818;stroke-width:1.0;stroke-dasharray:2.0,2.0;" x1="1231.5" x2="1737.5" y1="536.0254" y2="536.0254"/><text fill="#000000" font-family="sans-serif" font-size="13" font-weight="bold" lengthAdjust="spacing" textLength="14" x="1243.5" y="530.7627">13</text><text fill="#000000" font-family="sans-serif" font-size="13" lengthAdjust="spacing" textLength="43" x="1261.5" y="530.7627">student</text><polygon fill="#181818" points="1868.5,563.3164,1878.5,567.3164,1868.5,571.3164,1872.5,567.3164" style="stroke:#181818;stroke-width:1.0;"/><line style="stroke:#181818;stroke-width:1.0;" x1="1226.5" x2="1874.5" y1="567.3164" y2="567.3164"/><text fill="#000000" font-family="sans-serif" font-size="13" font-weight="bold" lengthAdjust="spacing" textLength="14" x="1233.5" y="562.0537">14</text><text fill="#000000" font-family="sans-serif" font-size="13" lengthAdjust="spacing" textLength="268" x="1251.5" y="562.0537">getStudentCourses(eCourseSystemUser user)</text><line style="stroke:#181818;stroke-width:1.0;" x1="1890.5" x2="1932.5" y1="598.6074" y2="598.6074"/><line style="stroke:#181818;stroke-width:1.0;" x1="1932.5" x2="1932.5" y1="598.6074" y2="611.6074"/><line style="stroke:#181818;stroke-width:1.0;" x1="1891.5" x2="1932.5" y1="611.6074" y2="611.6074"/><polygon fill="#181818" points="1901.5,607.6074,1891.5,611.6074,1901.5,615.6074,1897.5,611.6074" style="stroke:#181818;stroke-width:1.0;"/><text fill="#000000" font-family="sans-serif" font-size="13" font-weight="bold" lengthAdjust="spacing" textLength="14" x="1897.5" y="593.3447">15</text><text fill="#000000" font-family="sans-serif" font-size="13" lengthAdjust="spacing" textLength="103" x="1915.5" y="593.3447">coursesLearning()</text><polygon fill="#181818" points="1237.5,638.8984,1227.5,642.8984,1237.5,646.8984,1233.5,642.8984" style="stroke:#181818;stroke-width:1.0;"/><line style="stroke:#181818;stroke-width:1.0;stroke-dasharray:2.0,2.0;" x1="1231.5" x2="1884.5" y1="642.8984" y2="642.8984"/><text fill="#000000" font-family="sans-serif" font-size="13" font-weight="bold" lengthAdjust="spacing" textLength="14" x="1243.5" y="637.6357">16</text><text fill="#000000" font-family="sans-serif" font-size="13" lengthAdjust="spacing" textLength="78" x="1261.5" y="637.6357">List&lt;Course&gt;</text><polygon fill="#181818" points="2086.5,670.1895,2096.5,674.1895,2086.5,678.1895,2090.5,674.1895" style="stroke:#181818;stroke-width:1.0;"/><line style="stroke:#181818;stroke-width:1.0;" x1="1226.5" x2="2092.5" y1="674.1895" y2="674.1895"/><text fill="#000000" font-family="sans-serif" font-size="13" font-weight="bold" lengthAdjust="spacing" textLength="14" x="1233.5" y="668.9268">17</text><text fill="#000000" font-family="sans-serif" font-size="13" lengthAdjust="spacing" textLength="259" x="1251.5" y="668.9268">getTakeableFormativeExams(courses,repoE)</text><polygon fill="#181818" points="2318.5,701.4805,2328.5,705.4805,2318.5,709.4805,2322.5,705.4805" style="stroke:#181818;stroke-width:1.0;"/><line style="stroke:#181818;stroke-width:1.0;" x1="2108.5" x2="2324.5" y1="705.4805" y2="705.4805"/><text fill="#000000" font-family="sans-serif" font-size="13" font-weight="bold" lengthAdjust="spacing" textLength="14" x="2115.5" y="700.2178">18</text><text fill="#000000" font-family="sans-serif" font-size="13" lengthAdjust="spacing" textLength="172" x="2133.5" y="700.2178">findAllOfCourse(course.code()</text><line style="stroke:#181818;stroke-width:1.0;" x1="2340.5" x2="2382.5" y1="736.7715" y2="736.7715"/><line style="stroke:#181818;stroke-width:1.0;" x1="2382.5" x2="2382.5" y1="736.7715" y2="749.7715"/><line style="stroke:#181818;stroke-width:1.0;" x1="2341.5" x2="2382.5" y1="749.7715" y2="749.7715"/><polygon fill="#181818" points="2351.5,745.7715,2341.5,749.7715,2351.5,753.7715,2347.5,749.7715" style="stroke:#181818;stroke-width:1.0;"/><text fill="#000000" font-family="sans-serif" font-size="13" font-weight="bold" lengthAdjust="spacing" textLength="14" x="2347.5" y="731.5088">19</text><text fill="#000000" font-family="sans-serif" font-size="13" lengthAdjust="spacing" textLength="172" x="2365.5" y="731.5088">findAllOfCourse(course.code()</text><polygon fill="#181818" points="2119.5,777.0625,2109.5,781.0625,2119.5,785.0625,2115.5,781.0625" style="stroke:#181818;stroke-width:1.0;"/><line style="stroke:#181818;stroke-width:1.0;stroke-dasharray:2.0,2.0;" x1="2113.5" x2="2334.5" y1="781.0625" y2="781.0625"/><text fill="#000000" font-family="sans-serif" font-size="13" font-weight="bold" lengthAdjust="spacing" textLength="14" x="2125.5" y="775.7998">20</text><text fill="#000000" font-family="sans-serif" font-size="13" lengthAdjust="spacing" textLength="127" x="2143.5" y="775.7998">List&lt;FormativeExam&gt;</text><polygon fill="#181818" points="1237.5,808.3535,1227.5,812.3535,1237.5,816.3535,1233.5,812.3535" style="stroke:#181818;stroke-width:1.0;"/><line style="stroke:#181818;stroke-width:1.0;stroke-dasharray:2.0,2.0;" x1="1231.5" x2="2102.5" y1="812.3535" y2="812.3535"/><text fill="#000000" font-family="sans-serif" font-size="13" font-weight="bold" lengthAdjust="spacing" textLength="14" x="1243.5" y="807.0908">21</text><text fill="#000000" font-family="sans-serif" font-size="13" lengthAdjust="spacing" textLength="127" x="1261.5" y="807.0908">List&lt;FormativeExam&gt;</text><polygon fill="#181818" points="598.5,839.6445,588.5,843.6445,598.5,847.6445,594.5,843.6445" style="stroke:#181818;stroke-width:1.0;"/><line style="stroke:#181818;stroke-width:1.0;stroke-dasharray:2.0,2.0;" x1="592.5" x2="1220.5" y1="843.6445" y2="843.6445"/><text fill="#000000" font-family="sans-serif" font-size="13" font-weight="bold" lengthAdjust="spacing" textLength="14" x="604.5" y="838.3818">22</text><text fill="#000000" font-family="sans-serif" font-size="13" lengthAdjust="spacing" textLength="127" x="622.5" y="838.3818">List&lt;FormativeExam&gt;</text><polygon fill="#181818" points="321.5,870.9355,311.5,874.9355,321.5,878.9355,317.5,874.9355" style="stroke:#181818;stroke-width:1.0;"/><line style="stroke:#181818;stroke-width:1.0;stroke-dasharray:2.0,2.0;" x1="315.5" x2="581.5" y1="874.9355" y2="874.9355"/><text fill="#000000" font-family="sans-serif" font-size="13" font-weight="bold" lengthAdjust="spacing" textLength="14" x="327.5" y="869.6729">23</text><text fill="#000000" font-family="sans-serif" font-size="13" lengthAdjust="spacing" textLength="147" x="345.5" y="869.6729">List&lt;FormativeExamDto&gt;</text><polygon fill="#181818" points="63.5,902.2266,53.5,906.2266,63.5,910.2266,59.5,906.2266" style="stroke:#181818;stroke-width:1.0;"/><line style="stroke:#181818;stroke-width:1.0;stroke-dasharray:2.0,2.0;" x1="57.5" x2="304.5" y1="906.2266" y2="906.2266"/><text fill="#000000" font-family="sans-serif" font-size="13" font-weight="bold" lengthAdjust="spacing" textLength="14" x="69.5" y="900.9639">24</text><text fill="#000000" font-family="sans-serif" font-size="13" lengthAdjust="spacing" textLength="173" x="87.5" y="900.9639">asks to select e exam to take</text><polygon fill="#181818" points="288.5,933.5176,298.5,937.5176,288.5,941.5176,292.5,937.5176" style="stroke:#181818;stroke-width:1.0;"/><line style="stroke:#181818;stroke-width:1.0;" x1="52.5" x2="294.5" y1="937.5176" y2="937.5176"/><text fill="#000000" font-family="sans-serif" font-size="13" font-weight="bold" lengthAdjust="spacing" textLength="14" x="59.5" y="932.2549">25</text><text fill="#000000" font-family="sans-serif" font-size="13" lengthAdjust="spacing" textLength="137" x="77.5" y="932.2549">select a formative exam</text><polygon fill="#181818" points="565.5,964.8086,575.5,968.8086,565.5,972.8086,569.5,968.8086" style="stroke:#181818;stroke-width:1.0;"/><line style="stroke:#181818;stroke-width:1.0;" x1="310.5" x2="571.5" y1="968.8086" y2="968.8086"/><text fill="#000000" font-family="sans-serif" font-size="13" font-weight="bold" lengthAdjust="spacing" textLength="14" x="317.5" y="963.5459">26</text><text fill="#000000" font-family="sans-serif" font-size="13" lengthAdjust="spacing" textLength="185" x="335.5" y="963.5459">takeFormativeExam(examCode)</text><polygon fill="#181818" points="2318.5,996.0996,2328.5,1000.0996,2318.5,1004.0996,2322.5,1000.0996" style="stroke:#181818;stroke-width:1.0;"/><line style="stroke:#181818;stroke-width:1.0;" x1="587.5" x2="2324.5" y1="1000.0996" y2="1000.0996"/><text fill="#000000" font-family="sans-serif" font-size="13" font-weight="bold" lengthAdjust="spacing" textLength="14" x="594.5" y="994.8369">27</text><text fill="#000000" font-family="sans-serif" font-size="13" lengthAdjust="spacing" textLength="136" x="612.5" y="994.8369">findByCode(examCode)</text><line style="stroke:#181818;stroke-width:1.0;" x1="2340.5" x2="2382.5" y1="1031.3906" y2="1031.3906"/><line style="stroke:#181818;stroke-width:1.0;" x1="2382.5" x2="2382.5" y1="1031.3906" y2="1044.3906"/><line style="stroke:#181818;stroke-width:1.0;" x1="2341.5" x2="2382.5" y1="1044.3906" y2="1044.3906"/><polygon fill="#181818" points="2351.5,1040.3906,2341.5,1044.3906,2351.5,1048.3906,2347.5,1044.3906" style="stroke:#181818;stroke-width:1.0;"/><text fill="#000000" font-family="sans-serif" font-size="13" font-weight="bold" lengthAdjust="spacing" textLength="14" x="2347.5" y="1026.1279">28</text><text fill="#000000" font-family="sans-serif" font-size="13" lengthAdjust="spacing" textLength="136" x="2365.5" y="1026.1279">findByCode(examCode)</text><polygon fill="#181818" points="598.5,1071.6816,588.5,1075.6816,598.5,1079.6816,594.5,1075.6816" style="stroke:#181818;stroke-width:1.0;"/><line style="stroke:#181818;stroke-width:1.0;stroke-dasharray:2.0,2.0;" x1="592.5" x2="2334.5" y1="1075.6816" y2="1075.6816"/><text fill="#000000" font-family="sans-serif" font-size="13" font-weight="bold" lengthAdjust="spacing" textLength="14" x="604.5" y="1070.4189">29</text><text fill="#000000" font-family="sans-serif" font-size="13" lengthAdjust="spacing" textLength="32" x="622.5" y="1070.4189">exam</text><polygon fill="#181818" points="1204.5,1102.9727,1214.5,1106.9727,1204.5,1110.9727,1208.5,1106.9727" style="stroke:#181818;stroke-width:1.0;"/><line style="stroke:#181818;stroke-width:1.0;" x1="587.5" x2="1210.5" y1="1106.9727" y2="1106.9727"/><text fill="#000000" font-family="sans-serif" font-size="13" font-weight="bold" lengthAdjust="spacing" textLength="14" x="594.5" y="1101.71">30</text><text fill="#000000" font-family="sans-serif" font-size="13" lengthAdjust="spacing" textLength="155" x="612.5" y="1101.71">takeFormativeExam(exam)</text><polygon fill="#181818" points="2688.5,1134.2637,2698.5,1138.2637,2688.5,1142.2637,2692.5,1138.2637" style="stroke:#181818;stroke-width:1.0;"/><line style="stroke:#181818;stroke-width:1.0;" x1="1226.5" x2="2694.5" y1="1138.2637" y2="1138.2637"/><text fill="#000000" font-family="sans-serif" font-size="13" font-weight="bold" lengthAdjust="spacing" textLength="14" x="1233.5" y="1133.001">31</text><text fill="#000000" font-family="sans-serif" font-size="13" lengthAdjust="spacing" textLength="130" x="1251.5" y="1133.001">content = getContent()</text><line style="stroke:#181818;stroke-width:1.0;" x1="2710.5" x2="2752.5" y1="1169.5547" y2="1169.5547"/><line style="stroke:#181818;stroke-width:1.0;" x1="2752.5" x2="2752.5" y1="1169.5547" y2="1182.5547"/><line style="stroke:#181818;stroke-width:1.0;" x1="2711.5" x2="2752.5" y1="1182.5547" y2="1182.5547"/><polygon fill="#181818" points="2721.5,1178.5547,2711.5,1182.5547,2721.5,1186.5547,2717.5,1182.5547" style="stroke:#181818;stroke-width:1.0;"/><text fill="#000000" font-family="sans-serif" font-size="13" font-weight="bold" lengthAdjust="spacing" textLength="14" x="2717.5" y="1164.292">32</text><text fill="#000000" font-family="sans-serif" font-size="13" lengthAdjust="spacing" textLength="4" x="2735.5" y="1164.292">&#160;</text><line style="stroke:#181818;stroke-width:1.0;" x1="1226.5" x2="1268.5" y1="1213.8457" y2="1213.8457"/><line style="stroke:#181818;stroke-width:1.0;" x1="1268.5" x2="1268.5" y1="1213.8457" y2="1226.8457"/><line style="stroke:#181818;stroke-width:1.0;" x1="1227.5" x2="1268.5" y1="1226.8457" y2="1226.8457"/><polygon fill="#181818" points="1237.5,1222.8457,1227.5,1226.8457,1237.5,1230.8457,1233.5,1226.8457" style="stroke:#181818;stroke-width:1.0;"/><text fill="#000000" font-family="sans-serif" font-size="13" font-weight="bold" lengthAdjust="spacing" textLength="14" x="1233.5" y="1208.583">33</text><text fill="#000000" font-family="sans-serif" font-size="13" lengthAdjust="spacing" textLength="176" x="1251.5" y="1208.583">Paths.get("exam.txt"), content</text><line style="stroke:#181818;stroke-width:1.0;" x1="2710.5" x2="2752.5" y1="1258.1367" y2="1258.1367"/><line style="stroke:#181818;stroke-width:1.0;" x1="2752.5" x2="2752.5" y1="1258.1367" y2="1271.1367"/><line style="stroke:#181818;stroke-width:1.0;" x1="2711.5" x2="2752.5" y1="1271.1367" y2="1271.1367"/><polygon fill="#181818" points="2721.5,1267.1367,2711.5,1271.1367,2721.5,1275.1367,2717.5,1271.1367" style="stroke:#181818;stroke-width:1.0;"/><text fill="#000000" font-family="sans-serif" font-size="13" font-weight="bold" lengthAdjust="spacing" textLength="14" x="2717.5" y="1252.874">34</text><text fill="#000000" font-family="sans-serif" font-size="13" lengthAdjust="spacing" textLength="127" x="2735.5" y="1252.874">grades = getGrades();</text><polygon fill="#181818" points="1237.5,1298.4277,1227.5,1302.4277,1237.5,1306.4277,1233.5,1302.4277" style="stroke:#181818;stroke-width:1.0;"/><line style="stroke:#181818;stroke-width:1.0;stroke-dasharray:2.0,2.0;" x1="1231.5" x2="2704.5" y1="1302.4277" y2="1302.4277"/><text fill="#000000" font-family="sans-serif" font-size="13" font-weight="bold" lengthAdjust="spacing" textLength="14" x="1243.5" y="1297.165">35</text><text fill="#000000" font-family="sans-serif" font-size="13" lengthAdjust="spacing" textLength="39" x="1261.5" y="1297.165">grades</text><polygon fill="#181818" points="2447,1329.7188,2457,1333.7188,2447,1337.7188,2451,1333.7188" style="stroke:#181818;stroke-width:1.0;"/><line style="stroke:#181818;stroke-width:1.0;" x1="1226.5" x2="2453" y1="1333.7188" y2="1333.7188"/><text fill="#000000" font-family="sans-serif" font-size="13" font-weight="bold" lengthAdjust="spacing" textLength="14" x="1233.5" y="1328.4561">36</text><text fill="#000000" font-family="sans-serif" font-size="13" lengthAdjust="spacing" textLength="4" x="1251.5" y="1328.4561">&#160;</text><rect fill="#E2E2F0" height="32.6211" rx="2.5" ry="2.5" style="stroke:#181818;stroke-width:0.5;" width="181" x="2459" y="1310.4277"/><text fill="#000000" font-family="sans-serif" font-size="14" lengthAdjust="spacing" textLength="167" x="2466" y="1332.5352">FormativeExamEvalListner</text><path d="M10,1361.0488 L83,1361.0488 L83,1370.3398 L73,1380.3398 L10,1380.3398 L10,1361.0488 " fill="#EEEEEE" style="stroke:#000000;stroke-width:1.5;"/><rect fill="none" height="81.873" style="stroke:#000000;stroke-width:1.5;" width="2640" x="10" y="1361.0488"/><text fill="#000000" font-family="sans-serif" font-size="13" font-weight="bold" lengthAdjust="spacing" textLength="28" x="25" y="1376.0771">loop</text><polygon fill="#181818" points="63.5,1399.6309,53.5,1403.6309,63.5,1407.6309,59.5,1403.6309" style="stroke:#181818;stroke-width:1.0;"/><line style="stroke:#181818;stroke-width:1.0;stroke-dasharray:2.0,2.0;" x1="57.5" x2="2543.5" y1="1403.6309" y2="1403.6309"/><text fill="#000000" font-family="sans-serif" font-size="13" font-weight="bold" lengthAdjust="spacing" textLength="14" x="69.5" y="1398.3682">37</text><text fill="#000000" font-family="sans-serif" font-size="13" lengthAdjust="spacing" textLength="198" x="87.5" y="1398.3682">print question and asks for answer</text><polygon fill="#181818" points="2532.5,1430.9219,2542.5,1434.9219,2532.5,1438.9219,2536.5,1434.9219" style="stroke:#181818;stroke-width:1.0;"/><line style="stroke:#181818;stroke-width:1.0;" x1="52.5" x2="2538.5" y1="1434.9219" y2="1434.9219"/><text fill="#000000" font-family="sans-serif" font-size="13" font-weight="bold" lengthAdjust="spacing" textLength="14" x="59.5" y="1429.6592">38</text><text fill="#000000" font-family="sans-serif" font-size="13" lengthAdjust="spacing" textLength="123" x="77.5" y="1429.6592">answers the question</text><polygon fill="#181818" points="63.5,1469.2129,53.5,1473.2129,63.5,1477.2129,59.5,1473.2129" style="stroke:#181818;stroke-width:1.0;"/><line style="stroke:#181818;stroke-width:1.0;stroke-dasharray:2.0,2.0;" x1="57.5" x2="2543.5" y1="1473.2129" y2="1473.2129"/><text fill="#000000" font-family="sans-serif" font-size="13" font-weight="bold" lengthAdjust="spacing" textLength="14" x="69.5" y="1467.9502">39</text><text fill="#000000" font-family="sans-serif" font-size="13" lengthAdjust="spacing" textLength="180" x="87.5" y="1467.9502">print exam grade of the student</text><polygon fill="#181818" points="2818.5,1500.5039,2828.5,1504.5039,2818.5,1508.5039,2822.5,1504.5039" style="stroke:#181818;stroke-width:1.0;"/><line style="stroke:#181818;stroke-width:1.0;" x1="2554.5" x2="2824.5" y1="1504.5039" y2="1504.5039"/><text fill="#000000" font-family="sans-serif" font-size="13" font-weight="bold" lengthAdjust="spacing" textLength="14" x="2561.5" y="1499.2412">40</text><text fill="#000000" font-family="sans-serif" font-size="13" lengthAdjust="spacing" textLength="4" x="2579.5" y="1499.2412">&#160;</text><rect fill="#E2E2F0" height="32.6211" rx="2.5" ry="2.5" style="stroke:#181818;stroke-width:0.5;" width="88" x="2830.5" y="1481.2129"/><text fill="#000000" font-family="sans-serif" font-size="14" lengthAdjust="spacing" textLength="74" x="2837.5" y="1503.3203">ExamGrade</text><polygon fill="#181818" points="2857.5,1544.125,2867.5,1548.125,2857.5,1552.125,2861.5,1548.125" style="stroke:#181818;stroke-width:1.0;"/><line style="stroke:#181818;stroke-width:1.0;" x1="2554.5" x2="2863.5" y1="1548.125" y2="1548.125"/><text fill="#000000" font-family="sans-serif" font-size="13" font-weight="bold" lengthAdjust="spacing" textLength="14" x="2561.5" y="1542.8623">41</text><text fill="#000000" font-family="sans-serif" font-size="13" lengthAdjust="spacing" textLength="104" x="2579.5" y="1542.8623">grades.add(grade)</text><polygon fill="#181818" points="2318.5,1605.416,2328.5,1609.416,2318.5,1613.416,2322.5,1609.416" style="stroke:#181818;stroke-width:1.0;"/><line style="stroke:#181818;stroke-width:1.0;" x1="587.5" x2="2324.5" y1="1609.416" y2="1609.416"/><text fill="#000000" font-family="sans-serif" font-size="13" font-weight="bold" lengthAdjust="spacing" textLength="14" x="594.5" y="1604.1533">42</text><text fill="#000000" font-family="sans-serif" font-size="13" lengthAdjust="spacing" textLength="66" x="612.5" y="1604.1533">save(exam)</text><line style="stroke:#181818;stroke-width:1.0;" x1="2340.5" x2="2382.5" y1="1645.707" y2="1645.707"/><line style="stroke:#181818;stroke-width:1.0;" x1="2382.5" x2="2382.5" y1="1645.707" y2="1658.707"/><line style="stroke:#181818;stroke-width:1.0;" x1="2335.5" x2="2382.5" y1="1658.707" y2="1658.707"/><polygon fill="#181818" points="2345.5,1654.707,2335.5,1658.707,2345.5,1662.707,2341.5,1658.707" style="stroke:#181818;stroke-width:1.0;"/><text fill="#000000" font-family="sans-serif" font-size="13" font-weight="bold" lengthAdjust="spacing" textLength="14" x="2347.5" y="1640.4443">43</text><text fill="#000000" font-family="sans-serif" font-size="13" lengthAdjust="spacing" textLength="66" x="2365.5" y="1640.4443">save(exam)</text><polygon fill="#181818" points="58.5,1680.998,48.5,1684.998,58.5,1688.998,54.5,1684.998" style="stroke:#181818;stroke-width:1.0;"/><line style="stroke:#181818;stroke-width:1.0;stroke-dasharray:2.0,2.0;" x1="52.5" x2="304.5" y1="1684.998" y2="1684.998"/><text fill="#000000" font-family="sans-serif" font-size="13" font-weight="bold" lengthAdjust="spacing" textLength="14" x="64.5" y="1679.7354">44</text><text fill="#000000" font-family="sans-serif" font-size="13" lengthAdjust="spacing" textLength="66" x="82.5" y="1679.7354">finish exam</text><!--SRC=[bLPTRzem57tthx1u6LI5lcSj4cCfGqBQ14MQzkOcfaGD2OiT1llrEzTsFao0RPLAw-ISUy_rFRxcmrRhlGeU7lQfo7IvIqTHldjGycSfiqWEuqIy5MB7c2XrdfMxLramDebqNl2LBcEPQIuKLxfaR2yAdKJ97c5uBrWaIZ_dnKxev233ezZD2X5BDStBGidrl4UqzVn_IDCyqqMUfh8mP2nPBBHu5KhofTpdAe6gqxCWSIT2F4-M_F6ng5-DntwwIQctUP7yHhOyMydYa4JIX9wiNxxyyB5h9OkLL0f8AtsryW4lubrwqji15o64AFi0AchP5BMHRkFUrYpjNgnEIiiTqNk0emk9FeVUt4idpcgRNjJcSNsHuVVR8ZrgU10fQSbSty9mSGDj8SThHVNgGYnmnXYynuTZU8a7i2Im2c_Ua-oDwvnhT8KBlgbIS0a-WqMIWz3I-BPUm8riFKSeE0kntgIcdehNrE-hwWyQ3fcG4Huqs8tL2_ov7QB1sLpKI_juE3R-msDb3TTEQArf0SCgZyEnM9xXgYnmQy1nWhUqgH7UnovTKppyZDycPWb0Eo01gd2miz5yLXHHxiaLeVaSi2Ry8cGW6ILBS3ikvazyasHMLUkfYLYXpmuBfU3j70YD4fR3CJu29KKHRKqykHD9EZ2lXkD5653NQN3vrQ5tLc5NcwdLJJlxKlMxADBQbjD1i2xdIhh89bcWXWn6HfykKAi-qDbwjA_7xPAw-Ls1EF0txUsosqxwJPmo8YC6JO30j6oIfbytDfLZuWA9PRzD19eHun-91beBDVLv4hqoARPLvMt8TG9LONQYFdr_9JZZLrEcY_-iSuzYnWAmHA7v5D18KZIGb4nbfBaTHDM4yfmuzqUQ8tHcc3UtA5LLZJw_YFg4ds9hsoqXXUuqDotvT2BOHVp55dRmLUUi4gFpl5Nj4N9Pwi0R6ywquP6EHQRf2ySJcNTg5-qP5XuPRWuBhhqUy6z2RzK8b7wFme_qKVS6zrMqca9dmjoGDhwzBVk3ZmPG3ptpr2lgYA5VYGmNTtSyQ6yRBhiqp_UCumUBoX41tnS9Ii6tB4NVFhZ8OkiHj1aBzGldbJZE2g06xZ5ij9KraKaGJGPs8RmncT7CyutXLRFFmH5vTdSND8kgn968uxxvjxt1CwzoNBxj9KgzT6egmoXnaAw_DspLGfqvv_hnCcPCrDOT3FymjLPqs_y1]--></g></svg>