<?xml version="1.0" encoding="us-ascii" standalone="no"?><svg xmlns="http://www.w3.org/2000/svg" xmlns:xlink="http://www.w3.org/1999/xlink" contentStyleType="text/css" height="442px" preserveAspectRatio="none" style="width:437px;height:442px;background:#FFFFFF;" version="1.1" viewBox="0 0 437 442" width="437px" zoomAndPan="magnify"><defs/><g><rect fill="#FFFFFF" height="247.6191" style="stroke:#181818;stroke-width:1.0;" width="10" x="42.5" y="93.6211"/><rect fill="#FFFFFF" height="48.582" style="stroke:#181818;stroke-width:1.0;" width="10" x="384.5" y="116.9121"/><rect fill="#FFFFFF" height="57.582" style="stroke:#181818;stroke-width:1.0;" width="10" x="384.5" y="196.7852"/><rect fill="none" height="81.873" style="stroke:#000000;stroke-width:1.5;" width="421.5" x="10" y="211.7852"/><line style="stroke:#181818;stroke-width:0.5;stroke-dasharray:5.0,5.0;" x1="47" x2="47" y1="83.6211" y2="359.2402"/><line style="stroke:#181818;stroke-width:0.5;stroke-dasharray:5.0,5.0;" x1="389.5" x2="389.5" y1="83.6211" y2="359.2402"/><text fill="#000000" font-family="sans-serif" font-size="14" lengthAdjust="spacing" textLength="49" x="20" y="80.1074">Student</text><ellipse cx="47.5" cy="13.5" fill="#E2E2F0" rx="8" ry="8" style="stroke:#181818;stroke-width:0.5;"/><path d="M47.5,21.5 L47.5,48.5 M34.5,29.5 L60.5,29.5 M47.5,48.5 L34.5,63.5 M47.5,48.5 L60.5,63.5 " fill="none" style="stroke:#181818;stroke-width:0.5;"/><text fill="#000000" font-family="sans-serif" font-size="14" lengthAdjust="spacing" textLength="49" x="20" y="373.3477">Student</text><ellipse cx="47.5" cy="385.3613" fill="#E2E2F0" rx="8" ry="8" style="stroke:#181818;stroke-width:0.5;"/><path d="M47.5,393.3613 L47.5,420.3613 M34.5,401.3613 L60.5,401.3613 M47.5,420.3613 L34.5,435.3613 M47.5,420.3613 L60.5,435.3613 " fill="none" style="stroke:#181818;stroke-width:0.5;"/><rect fill="#E2E2F0" height="32.6211" rx="2.5" ry="2.5" style="stroke:#181818;stroke-width:0.5;" width="64" x="357.5" y="50"/><text fill="#000000" font-family="sans-serif" font-size="14" lengthAdjust="spacing" textLength="50" x="364.5" y="72.1074">:System</text><rect fill="#E2E2F0" height="32.6211" rx="2.5" ry="2.5" style="stroke:#181818;stroke-width:0.5;" width="64" x="357.5" y="358.2402"/><text fill="#000000" font-family="sans-serif" font-size="14" lengthAdjust="spacing" textLength="50" x="364.5" y="380.3477">:System</text><rect fill="#FFFFFF" height="247.6191" style="stroke:#181818;stroke-width:1.0;" width="10" x="42.5" y="93.6211"/><rect fill="#FFFFFF" height="48.582" style="stroke:#181818;stroke-width:1.0;" width="10" x="384.5" y="116.9121"/><rect fill="#FFFFFF" height="57.582" style="stroke:#181818;stroke-width:1.0;" width="10" x="384.5" y="196.7852"/><polygon fill="#181818" points="372.5,112.9121,382.5,116.9121,372.5,120.9121,376.5,116.9121" style="stroke:#181818;stroke-width:1.0;"/><line style="stroke:#181818;stroke-width:1.0;" x1="52.5" x2="378.5" y1="116.9121" y2="116.9121"/><text fill="#000000" font-family="sans-serif" font-size="13" font-weight="bold" lengthAdjust="spacing" textLength="7" x="59.5" y="111.6494">1</text><text fill="#000000" font-family="sans-serif" font-size="13" lengthAdjust="spacing" textLength="174" x="70.5" y="111.6494">asks to take a formative exam</text><polygon fill="#181818" points="63.5,161.4941,53.5,165.4941,63.5,169.4941,59.5,165.4941" style="stroke:#181818;stroke-width:1.0;"/><line style="stroke:#181818;stroke-width:1.0;stroke-dasharray:2.0,2.0;" x1="57.5" x2="388.5" y1="165.4941" y2="165.4941"/><text fill="#000000" font-family="sans-serif" font-size="13" font-weight="bold" lengthAdjust="spacing" textLength="7" x="69.5" y="151.5859">2</text><text fill="#000000" font-family="sans-serif" font-size="13" lengthAdjust="spacing" textLength="293" x="80.5" y="142.9404">shows a list of formative exams of the courses that</text><text fill="#000000" font-family="sans-serif" font-size="13" lengthAdjust="spacing" textLength="119" x="84.5" y="160.2314">are avalable to make</text><polygon fill="#181818" points="372.5,192.7852,382.5,196.7852,372.5,200.7852,376.5,196.7852" style="stroke:#181818;stroke-width:1.0;"/><line style="stroke:#181818;stroke-width:1.0;" x1="52.5" x2="378.5" y1="196.7852" y2="196.7852"/><text fill="#000000" font-family="sans-serif" font-size="13" font-weight="bold" lengthAdjust="spacing" textLength="7" x="59.5" y="191.5225">3</text><text fill="#000000" font-family="sans-serif" font-size="13" lengthAdjust="spacing" textLength="126" x="70.5" y="191.5225">select formative exam</text><path d="M10,211.7852 L83,211.7852 L83,221.0762 L73,231.0762 L10,231.0762 L10,211.7852 " fill="#EEEEEE" style="stroke:#000000;stroke-width:1.5;"/><rect fill="none" height="81.873" style="stroke:#000000;stroke-width:1.5;" width="421.5" x="10" y="211.7852"/><text fill="#000000" font-family="sans-serif" font-size="13" font-weight="bold" lengthAdjust="spacing" textLength="28" x="25" y="226.8135">loop</text><polygon fill="#181818" points="63.5,250.3672,53.5,254.3672,63.5,258.3672,59.5,254.3672" style="stroke:#181818;stroke-width:1.0;"/><line style="stroke:#181818;stroke-width:1.0;stroke-dasharray:2.0,2.0;" x1="57.5" x2="388.5" y1="254.3672" y2="254.3672"/><text fill="#000000" font-family="sans-serif" font-size="13" font-weight="bold" lengthAdjust="spacing" textLength="7" x="69.5" y="249.1045">4</text><text fill="#000000" font-family="sans-serif" font-size="13" lengthAdjust="spacing" textLength="203" x="80.5" y="249.1045">shows the formative exam question</text><polygon fill="#181818" points="377.5,281.6582,387.5,285.6582,377.5,289.6582,381.5,285.6582" style="stroke:#181818;stroke-width:1.0;"/><line style="stroke:#181818;stroke-width:1.0;" x1="52.5" x2="383.5" y1="285.6582" y2="285.6582"/><text fill="#000000" font-family="sans-serif" font-size="13" font-weight="bold" lengthAdjust="spacing" textLength="7" x="59.5" y="280.3955">5</text><text fill="#000000" font-family="sans-serif" font-size="13" lengthAdjust="spacing" textLength="136" x="70.5" y="280.3955">respond to the question</text><polygon fill="#181818" points="58.5,337.2402,48.5,341.2402,58.5,345.2402,54.5,341.2402" style="stroke:#181818;stroke-width:1.0;"/><line style="stroke:#181818;stroke-width:1.0;stroke-dasharray:2.0,2.0;" x1="52.5" x2="388.5" y1="341.2402" y2="341.2402"/><text fill="#000000" font-family="sans-serif" font-size="13" font-weight="bold" lengthAdjust="spacing" textLength="7" x="64.5" y="327.332">6</text><text fill="#000000" font-family="sans-serif" font-size="13" lengthAdjust="spacing" textLength="233" x="75.5" y="318.6865">shows the grade that the student take in</text><text fill="#000000" font-family="sans-serif" font-size="13" lengthAdjust="spacing" textLength="246" x="79.5" y="335.9775">the formative exam and tells exam is finish</text><!--SRC=[bLAxSiCm3Dlz5RmidTpi7leJMRimDbth8eckI2NjtvTI7FVbzAwQIEW8W90U9jLPklr-zXWr1__OSzWBlMQAFRM3mvU4eMamAySSZfIixfKJ73GF5BMsxenAdyXIGFi4k-xmBafXrm7AIK0P54y422EdW3P9G6zLuKQpZZHh1QrHBQmToCGNCGRlH8777qnI89q8Uiv9o2GdL7YEWCbap-ZnwAdu2EQZ6MX3zyu2Gfvw_MNSCyyDsDbWAl2VMnIZtmd1eXTr7Elmjhzoi-qnaSmSXvgpKQzSP5Wr-k-S2utzWO6kGPPM5kdwaYwMS3Vsm6A3l9ThwmH65vrCTpB_Wju-qWS0]--></g></svg>