<?xml version="1.0" encoding="us-ascii" standalone="no"?><svg xmlns="http://www.w3.org/2000/svg" xmlns:xlink="http://www.w3.org/1999/xlink" contentStyleType="text/css" height="1081px" preserveAspectRatio="none" style="width:358px;height:1081px;background:#FFFFFF;" version="1.1" viewBox="0 0 358 1081" width="358px" zoomAndPan="magnify"><defs/><g><!--class Teacher--><g id="elem_Teacher"><rect codeLine="2" fill="#F1F1F1" height="95.1641" id="Teacher" rx="2.5" ry="2.5" style="stroke:#181818;stroke-width:0.5;" width="85" x="70.5" y="16.5"/><ellipse cx="85.5" cy="46.7715" fill="#ADD1B2" rx="11" ry="11" style="stroke:#181818;stroke-width:1.0;"/><path d="M88.2656,42.6465 Q88.4219,42.4277 88.6094,42.3184 Q88.7969,42.209 89.0156,42.209 Q89.3906,42.209 89.625,42.4746 Q89.8594,42.7246 89.8594,43.334 L89.8594,44.7871 Q89.8594,45.3965 89.625,45.6621 Q89.3906,45.9277 89.0156,45.9277 Q88.6719,45.9277 88.4688,45.7246 Q88.2656,45.5371 88.1563,45.0215 Q88.1094,44.6621 87.9219,44.4746 Q87.5938,44.0996 86.9844,43.8809 Q86.375,43.6621 85.75,43.6621 Q84.9844,43.6621 84.3438,43.9902 Q83.7188,44.3184 83.2188,45.0684 Q82.7344,45.8184 82.7344,46.8496 L82.7344,47.9434 Q82.7344,49.1777 83.625,50.0059 Q84.5156,50.8184 86.1094,50.8184 Q87.0469,50.8184 87.7031,50.5684 Q88.0938,50.4121 88.5156,49.9746 Q88.7813,49.709 88.9219,49.6309 Q89.0781,49.5527 89.2813,49.5527 Q89.6094,49.5527 89.8594,49.8184 Q90.125,50.0684 90.125,50.4121 Q90.125,50.7559 89.7813,51.1621 Q89.2813,51.7402 88.4844,52.0684 Q87.4063,52.5215 86.1094,52.5215 Q84.5938,52.5215 83.3906,51.8965 Q82.4063,51.3965 81.7188,50.334 Q81.0313,49.2559 81.0313,47.9746 L81.0313,46.8184 Q81.0313,45.4902 81.6406,44.3496 Q82.2656,43.1934 83.3594,42.584 Q84.4531,41.959 85.6875,41.959 Q86.4219,41.959 87.0625,42.1309 Q87.7188,42.2871 88.2656,42.6465 Z " fill="#000000"/><text fill="#000000" font-family="sans-serif" font-size="12" font-style="italic" lengthAdjust="spacing" textLength="35" x="108.5" y="34.4492">&#171;root&#187;</text><text fill="#000000" font-family="sans-serif" font-size="12" font-style="italic" lengthAdjust="spacing" textLength="43" x="104.5" y="50.4102">&#171;entity&#187;</text><text fill="#000000" font-family="sans-serif" font-size="14" lengthAdjust="spacing" textLength="53" x="99.5" y="68.5293">Teacher</text><line style="stroke:#181818;stroke-width:0.5;" x1="71.5" x2="154.5" y1="77.043" y2="77.043"/><ellipse cx="81.5" cy="91.8535" fill="#000000" rx="3" ry="3" style="stroke:#000000;stroke-width:1.0;"/><text fill="#000000" font-family="sans-serif" font-size="14" lengthAdjust="spacing" textLength="35" x="90.5" y="96.1504">name</text><line style="stroke:#181818;stroke-width:0.5;" x1="71.5" x2="154.5" y1="103.6641" y2="103.6641"/></g><!--class SystemUser--><g id="elem_SystemUser"><rect codeLine="6" fill="#F1F1F1" height="113.7852" id="SystemUser" rx="2.5" ry="2.5" style="stroke:#181818;stroke-width:0.5;" width="107" x="226.5" y="7"/><ellipse cx="241.5" cy="37.2715" fill="#ADD1B2" rx="11" ry="11" style="stroke:#181818;stroke-width:1.0;"/><path d="M244.2656,33.1465 Q244.4219,32.9277 244.6094,32.8184 Q244.7969,32.709 245.0156,32.709 Q245.3906,32.709 245.625,32.9746 Q245.8594,33.2246 245.8594,33.834 L245.8594,35.2871 Q245.8594,35.8965 245.625,36.1621 Q245.3906,36.4277 245.0156,36.4277 Q244.6719,36.4277 244.4688,36.2246 Q244.2656,36.0371 244.1563,35.5215 Q244.1094,35.1621 243.9219,34.9746 Q243.5938,34.5996 242.9844,34.3809 Q242.375,34.1621 241.75,34.1621 Q240.9844,34.1621 240.3438,34.4902 Q239.7188,34.8184 239.2188,35.5684 Q238.7344,36.3184 238.7344,37.3496 L238.7344,38.4434 Q238.7344,39.6777 239.625,40.5059 Q240.5156,41.3184 242.1094,41.3184 Q243.0469,41.3184 243.7031,41.0684 Q244.0938,40.9121 244.5156,40.4746 Q244.7813,40.209 244.9219,40.1309 Q245.0781,40.0527 245.2813,40.0527 Q245.6094,40.0527 245.8594,40.3184 Q246.125,40.5684 246.125,40.9121 Q246.125,41.2559 245.7813,41.6621 Q245.2813,42.2402 244.4844,42.5684 Q243.4063,43.0215 242.1094,43.0215 Q240.5938,43.0215 239.3906,42.3965 Q238.4063,41.8965 237.7188,40.834 Q237.0313,39.7559 237.0313,38.4746 L237.0313,37.3184 Q237.0313,35.9902 237.6406,34.8496 Q238.2656,33.6934 239.3594,33.084 Q240.4531,32.459 241.6875,32.459 Q242.4219,32.459 243.0625,32.6309 Q243.7188,32.7871 244.2656,33.1465 Z " fill="#000000"/><text fill="#000000" font-family="sans-serif" font-size="12" font-style="italic" lengthAdjust="spacing" textLength="35" x="275.5" y="24.9492">&#171;root&#187;</text><text fill="#000000" font-family="sans-serif" font-size="12" font-style="italic" lengthAdjust="spacing" textLength="44" x="271" y="40.9102">&#171;Entity&#187;</text><text fill="#000000" font-family="sans-serif" font-size="14" lengthAdjust="spacing" textLength="75" x="255.5" y="59.0293">SystemUser</text><line style="stroke:#181818;stroke-width:0.5;" x1="227.5" x2="332.5" y1="67.543" y2="67.543"/><ellipse cx="237.5" cy="82.3535" fill="#000000" rx="3" ry="3" style="stroke:#000000;stroke-width:1.0;"/><text fill="#000000" font-family="sans-serif" font-size="14" lengthAdjust="spacing" textLength="59" x="246.5" y="86.6504">FullName</text><ellipse cx="237.5" cy="100.9746" fill="#000000" rx="3" ry="3" style="stroke:#000000;stroke-width:1.0;"/><text fill="#000000" font-family="sans-serif" font-size="14" lengthAdjust="spacing" textLength="70" x="246.5" y="105.2715">ShortName</text><line style="stroke:#181818;stroke-width:0.5;" x1="227.5" x2="332.5" y1="112.7852" y2="112.7852"/></g><!--class ScheduleExtraClassUI--><g id="elem_ScheduleExtraClassUI"><rect codeLine="11" fill="#F1F1F1" height="85.2422" id="ScheduleExtraClassUI" rx="2.5" ry="2.5" style="stroke:#181818;stroke-width:0.5;" width="170" x="51" y="200"/><ellipse cx="66" cy="216" fill="#ADD1B2" rx="11" ry="11" style="stroke:#181818;stroke-width:1.0;"/><path d="M68.7656,211.875 Q68.9219,211.6563 69.1094,211.5469 Q69.2969,211.4375 69.5156,211.4375 Q69.8906,211.4375 70.125,211.7031 Q70.3594,211.9531 70.3594,212.5625 L70.3594,214.0156 Q70.3594,214.625 70.125,214.8906 Q69.8906,215.1563 69.5156,215.1563 Q69.1719,215.1563 68.9688,214.9531 Q68.7656,214.7656 68.6563,214.25 Q68.6094,213.8906 68.4219,213.7031 Q68.0938,213.3281 67.4844,213.1094 Q66.875,212.8906 66.25,212.8906 Q65.4844,212.8906 64.8438,213.2188 Q64.2188,213.5469 63.7188,214.2969 Q63.2344,215.0469 63.2344,216.0781 L63.2344,217.1719 Q63.2344,218.4063 64.125,219.2344 Q65.0156,220.0469 66.6094,220.0469 Q67.5469,220.0469 68.2031,219.7969 Q68.5938,219.6406 69.0156,219.2031 Q69.2813,218.9375 69.4219,218.8594 Q69.5781,218.7813 69.7813,218.7813 Q70.1094,218.7813 70.3594,219.0469 Q70.625,219.2969 70.625,219.6406 Q70.625,219.9844 70.2813,220.3906 Q69.7813,220.9688 68.9844,221.2969 Q67.9063,221.75 66.6094,221.75 Q65.0938,221.75 63.8906,221.125 Q62.9063,220.625 62.2188,219.5625 Q61.5313,218.4844 61.5313,217.2031 L61.5313,216.0469 Q61.5313,214.7188 62.1406,213.5781 Q62.7656,212.4219 63.8594,211.8125 Q64.9531,211.1875 66.1875,211.1875 Q66.9219,211.1875 67.5625,211.3594 Q68.2188,211.5156 68.7656,211.875 Z " fill="#000000"/><text fill="#000000" font-family="sans-serif" font-size="14" lengthAdjust="spacing" textLength="138" x="80" y="221.7969">ScheduleExtraClassUI</text><line style="stroke:#181818;stroke-width:0.5;" x1="52" x2="220" y1="232" y2="232"/><line style="stroke:#181818;stroke-width:0.5;" x1="52" x2="220" y1="240" y2="240"/><ellipse cx="62" cy="254.8105" fill="#84BE84" rx="3" ry="3" style="stroke:#038048;stroke-width:1.0;"/><text fill="#000000" font-family="sans-serif" font-size="14" lengthAdjust="spacing" textLength="144" x="71" y="259.1074">createClassSchedule()</text><ellipse cx="62" cy="273.4316" fill="#84BE84" rx="3" ry="3" style="stroke:#038048;stroke-width:1.0;"/><text fill="#000000" font-family="sans-serif" font-size="14" lengthAdjust="spacing" textLength="54" x="71" y="277.7285">display()</text></g><!--class ScheduleExtraClassController--><g id="elem_ScheduleExtraClassController"><rect codeLine="16" fill="#F1F1F1" height="66.6211" id="ScheduleExtraClassController" rx="2.5" ry="2.5" style="stroke:#181818;stroke-width:0.5;" width="220" x="7" y="346"/><ellipse cx="22" cy="362" fill="#ADD1B2" rx="11" ry="11" style="stroke:#181818;stroke-width:1.0;"/><path d="M24.7656,357.875 Q24.9219,357.6563 25.1094,357.5469 Q25.2969,357.4375 25.5156,357.4375 Q25.8906,357.4375 26.125,357.7031 Q26.3594,357.9531 26.3594,358.5625 L26.3594,360.0156 Q26.3594,360.625 26.125,360.8906 Q25.8906,361.1563 25.5156,361.1563 Q25.1719,361.1563 24.9688,360.9531 Q24.7656,360.7656 24.6563,360.25 Q24.6094,359.8906 24.4219,359.7031 Q24.0938,359.3281 23.4844,359.1094 Q22.875,358.8906 22.25,358.8906 Q21.4844,358.8906 20.8438,359.2188 Q20.2188,359.5469 19.7188,360.2969 Q19.2344,361.0469 19.2344,362.0781 L19.2344,363.1719 Q19.2344,364.4063 20.125,365.2344 Q21.0156,366.0469 22.6094,366.0469 Q23.5469,366.0469 24.2031,365.7969 Q24.5938,365.6406 25.0156,365.2031 Q25.2813,364.9375 25.4219,364.8594 Q25.5781,364.7813 25.7813,364.7813 Q26.1094,364.7813 26.3594,365.0469 Q26.625,365.2969 26.625,365.6406 Q26.625,365.9844 26.2813,366.3906 Q25.7813,366.9688 24.9844,367.2969 Q23.9063,367.75 22.6094,367.75 Q21.0938,367.75 19.8906,367.125 Q18.9063,366.625 18.2188,365.5625 Q17.5313,364.4844 17.5313,363.2031 L17.5313,362.0469 Q17.5313,360.7188 18.1406,359.5781 Q18.7656,358.4219 19.8594,357.8125 Q20.9531,357.1875 22.1875,357.1875 Q22.9219,357.1875 23.5625,357.3594 Q24.2188,357.5156 24.7656,357.875 Z " fill="#000000"/><text fill="#000000" font-family="sans-serif" font-size="14" lengthAdjust="spacing" textLength="188" x="36" y="367.7969">ScheduleExtraClassController</text><line style="stroke:#181818;stroke-width:0.5;" x1="8" x2="226" y1="378" y2="378"/><line style="stroke:#181818;stroke-width:0.5;" x1="8" x2="226" y1="386" y2="386"/><ellipse cx="18" cy="400.8105" fill="#84BE84" rx="3" ry="3" style="stroke:#038048;stroke-width:1.0;"/><text fill="#000000" font-family="sans-serif" font-size="14" lengthAdjust="spacing" textLength="176" x="27" y="405.1074">createExtraClassSchedule()</text></g><!--class ScheduleExtraClassService--><g id="elem_ScheduleExtraClassService"><rect codeLine="21" fill="#F1F1F1" height="103.8633" id="ScheduleExtraClassService" rx="2.5" ry="2.5" style="stroke:#181818;stroke-width:0.5;" width="277" x="20.5" y="474"/><ellipse cx="68.25" cy="490" fill="#ADD1B2" rx="11" ry="11" style="stroke:#181818;stroke-width:1.0;"/><path d="M71.0156,485.875 Q71.1719,485.6563 71.3594,485.5469 Q71.5469,485.4375 71.7656,485.4375 Q72.1406,485.4375 72.375,485.7031 Q72.6094,485.9531 72.6094,486.5625 L72.6094,488.0156 Q72.6094,488.625 72.375,488.8906 Q72.1406,489.1563 71.7656,489.1563 Q71.4219,489.1563 71.2188,488.9531 Q71.0156,488.7656 70.9063,488.25 Q70.8594,487.8906 70.6719,487.7031 Q70.3438,487.3281 69.7344,487.1094 Q69.125,486.8906 68.5,486.8906 Q67.7344,486.8906 67.0938,487.2188 Q66.4688,487.5469 65.9688,488.2969 Q65.4844,489.0469 65.4844,490.0781 L65.4844,491.1719 Q65.4844,492.4063 66.375,493.2344 Q67.2656,494.0469 68.8594,494.0469 Q69.7969,494.0469 70.4531,493.7969 Q70.8438,493.6406 71.2656,493.2031 Q71.5313,492.9375 71.6719,492.8594 Q71.8281,492.7813 72.0313,492.7813 Q72.3594,492.7813 72.6094,493.0469 Q72.875,493.2969 72.875,493.6406 Q72.875,493.9844 72.5313,494.3906 Q72.0313,494.9688 71.2344,495.2969 Q70.1563,495.75 68.8594,495.75 Q67.3438,495.75 66.1406,495.125 Q65.1563,494.625 64.4688,493.5625 Q63.7813,492.4844 63.7813,491.2031 L63.7813,490.0469 Q63.7813,488.7188 64.3906,487.5781 Q65.0156,486.4219 66.1094,485.8125 Q67.2031,485.1875 68.4375,485.1875 Q69.1719,485.1875 69.8125,485.3594 Q70.4688,485.5156 71.0156,485.875 Z " fill="#000000"/><text fill="#000000" font-family="sans-serif" font-size="14" lengthAdjust="spacing" textLength="173" x="88.75" y="495.7969">ScheduleExtraClassService</text><line style="stroke:#181818;stroke-width:0.5;" x1="21.5" x2="296.5" y1="506" y2="506"/><line style="stroke:#181818;stroke-width:0.5;" x1="21.5" x2="296.5" y1="514" y2="514"/><ellipse cx="31.5" cy="528.8105" fill="#84BE84" rx="3" ry="3" style="stroke:#038048;stroke-width:1.0;"/><text fill="#000000" font-family="sans-serif" font-size="14" lengthAdjust="spacing" textLength="251" x="40.5" y="533.1074">checkCoincidentialClasses(List&lt;Class&gt;)</text><ellipse cx="31.5" cy="547.4316" fill="#84BE84" rx="3" ry="3" style="stroke:#038048;stroke-width:1.0;"/><text fill="#000000" font-family="sans-serif" font-size="14" lengthAdjust="spacing" textLength="247" x="40.5" y="551.7285">checkOverlappingClasses(List&lt;Class&gt;)</text><ellipse cx="31.5" cy="566.0527" fill="#84BE84" rx="3" ry="3" style="stroke:#038048;stroke-width:1.0;"/><text fill="#000000" font-family="sans-serif" font-size="14" lengthAdjust="spacing" textLength="219" x="40.5" y="570.3496">checkTeacherAvailability(Teacher)</text></g><!--class ExtraClassRepository--><g id="elem_ExtraClassRepository"><rect codeLine="27" fill="#F1F1F1" height="85.2422" id="ExtraClassRepository" rx="2.5" ry="2.5" style="stroke:#181818;stroke-width:0.5;" width="188" x="99" y="639"/><ellipse cx="123.45" cy="655" fill="#B4A7E5" rx="11" ry="11" style="stroke:#181818;stroke-width:1.0;"/><path d="M124.4031,651.6406 L124.4031,658.2969 L126.1219,658.2969 Q126.7313,658.2969 126.9969,658.5313 Q127.2625,658.7656 127.2625,659.1563 Q127.2625,659.5313 126.9969,659.7656 Q126.7313,660 126.1219,660 L120.9813,660 Q120.3719,660 120.1063,659.7656 Q119.8406,659.5313 119.8406,659.1406 Q119.8406,658.7656 120.1063,658.5313 Q120.3719,658.2969 120.9813,658.2969 L122.7,658.2969 L122.7,651.6406 L120.9813,651.6406 Q120.3719,651.6406 120.1063,651.4063 Q119.8406,651.1719 119.8406,650.7813 Q119.8406,650.4063 120.1063,650.1719 Q120.3719,649.9375 120.9813,649.9375 L126.1219,649.9375 Q126.7313,649.9375 126.9969,650.1719 Q127.2625,650.4063 127.2625,650.7813 Q127.2625,651.1719 126.9969,651.4063 Q126.7313,651.6406 126.1219,651.6406 L124.4031,651.6406 Z " fill="#000000"/><text fill="#000000" font-family="sans-serif" font-size="14" font-style="italic" lengthAdjust="spacing" textLength="135" x="139.55" y="660.7969">ExtraClassRepository</text><line style="stroke:#181818;stroke-width:0.5;" x1="100" x2="286" y1="671" y2="671"/><line style="stroke:#181818;stroke-width:0.5;" x1="100" x2="286" y1="679" y2="679"/><ellipse cx="110" cy="693.8105" fill="#84BE84" rx="3" ry="3" style="stroke:#038048;stroke-width:1.0;"/><text fill="#000000" font-family="sans-serif" font-size="14" lengthAdjust="spacing" textLength="75" x="119" y="698.1074">save(Class)</text><ellipse cx="110" cy="712.4316" fill="#84BE84" rx="3" ry="3" style="stroke:#038048;stroke-width:1.0;"/><text fill="#000000" font-family="sans-serif" font-size="14" lengthAdjust="spacing" textLength="162" x="119" y="716.7285">getAllScheduledClasses()</text></g><!--class ExtraClass--><g id="elem_ExtraClass"><rect codeLine="32" fill="#F1F1F1" height="132.4063" id="ExtraClass" rx="2.5" ry="2.5" style="stroke:#181818;stroke-width:0.5;" width="113" x="221.5" y="803"/><ellipse cx="242.8" cy="833.2715" fill="#ADD1B2" rx="11" ry="11" style="stroke:#181818;stroke-width:1.0;"/><path d="M245.5656,829.1465 Q245.7219,828.9277 245.9094,828.8184 Q246.0969,828.709 246.3156,828.709 Q246.6906,828.709 246.925,828.9746 Q247.1594,829.2246 247.1594,829.834 L247.1594,831.2871 Q247.1594,831.8965 246.925,832.1621 Q246.6906,832.4277 246.3156,832.4277 Q245.9719,832.4277 245.7688,832.2246 Q245.5656,832.0371 245.4563,831.5215 Q245.4094,831.1621 245.2219,830.9746 Q244.8938,830.5996 244.2844,830.3809 Q243.675,830.1621 243.05,830.1621 Q242.2844,830.1621 241.6438,830.4902 Q241.0188,830.8184 240.5188,831.5684 Q240.0344,832.3184 240.0344,833.3496 L240.0344,834.4434 Q240.0344,835.6777 240.925,836.5059 Q241.8156,837.3184 243.4094,837.3184 Q244.3469,837.3184 245.0031,837.0684 Q245.3938,836.9121 245.8156,836.4746 Q246.0813,836.209 246.2219,836.1309 Q246.3781,836.0527 246.5813,836.0527 Q246.9094,836.0527 247.1594,836.3184 Q247.425,836.5684 247.425,836.9121 Q247.425,837.2559 247.0813,837.6621 Q246.5813,838.2402 245.7844,838.5684 Q244.7063,839.0215 243.4094,839.0215 Q241.8938,839.0215 240.6906,838.3965 Q239.7063,837.8965 239.0188,836.834 Q238.3313,835.7559 238.3313,834.4746 L238.3313,833.3184 Q238.3313,831.9902 238.9406,830.8496 Q239.5656,829.6934 240.6594,829.084 Q241.7531,828.459 242.9875,828.459 Q243.7219,828.459 244.3625,828.6309 Q245.0188,828.7871 245.5656,829.1465 Z " fill="#000000"/><text fill="#000000" font-family="sans-serif" font-size="12" font-style="italic" lengthAdjust="spacing" textLength="35" x="274.2" y="820.9492">&#171;root&#187;</text><text fill="#000000" font-family="sans-serif" font-size="12" font-style="italic" lengthAdjust="spacing" textLength="43" x="270.2" y="836.9102">&#171;entity&#187;</text><text fill="#000000" font-family="sans-serif" font-size="14" lengthAdjust="spacing" textLength="67" x="258.2" y="855.0293">ExtraClass</text><line style="stroke:#181818;stroke-width:0.5;" x1="222.5" x2="333.5" y1="863.543" y2="863.543"/><ellipse cx="232.5" cy="878.3535" fill="#000000" rx="3" ry="3" style="stroke:#000000;stroke-width:1.0;"/><text fill="#000000" font-family="sans-serif" font-size="14" lengthAdjust="spacing" textLength="85" x="241.5" y="882.6504">title &#171;unique&#187;</text><ellipse cx="232.5" cy="896.9746" fill="#000000" rx="3" ry="3" style="stroke:#000000;stroke-width:1.0;"/><text fill="#000000" font-family="sans-serif" font-size="14" lengthAdjust="spacing" textLength="28" x="241.5" y="901.2715">date</text><ellipse cx="232.5" cy="915.5957" fill="#000000" rx="3" ry="3" style="stroke:#000000;stroke-width:1.0;"/><text fill="#000000" font-family="sans-serif" font-size="14" lengthAdjust="spacing" textLength="87" x="241.5" y="919.8926">List&lt;Student&gt;</text><line style="stroke:#181818;stroke-width:0.5;" x1="222.5" x2="333.5" y1="927.4063" y2="927.4063"/></g><!--class Duration--><g id="elem_Duration"><rect codeLine="38" fill="#F1F1F1" height="60.582" id="Duration" rx="2.5" ry="2.5" style="stroke:#181818;stroke-width:0.5;" width="109" x="223.5" y="1014"/><ellipse cx="238.5" cy="1036.291" fill="#ADD1B2" rx="11" ry="11" style="stroke:#181818;stroke-width:1.0;"/><path d="M241.2656,1032.166 Q241.4219,1031.9473 241.6094,1031.8379 Q241.7969,1031.7285 242.0156,1031.7285 Q242.3906,1031.7285 242.625,1031.9941 Q242.8594,1032.2441 242.8594,1032.8535 L242.8594,1034.3066 Q242.8594,1034.916 242.625,1035.1816 Q242.3906,1035.4473 242.0156,1035.4473 Q241.6719,1035.4473 241.4688,1035.2441 Q241.2656,1035.0566 241.1563,1034.541 Q241.1094,1034.1816 240.9219,1033.9941 Q240.5938,1033.6191 239.9844,1033.4004 Q239.375,1033.1816 238.75,1033.1816 Q237.9844,1033.1816 237.3438,1033.5098 Q236.7188,1033.8379 236.2188,1034.5879 Q235.7344,1035.3379 235.7344,1036.3691 L235.7344,1037.4629 Q235.7344,1038.6973 236.625,1039.5254 Q237.5156,1040.3379 239.1094,1040.3379 Q240.0469,1040.3379 240.7031,1040.0879 Q241.0938,1039.9316 241.5156,1039.4941 Q241.7813,1039.2285 241.9219,1039.1504 Q242.0781,1039.0723 242.2813,1039.0723 Q242.6094,1039.0723 242.8594,1039.3379 Q243.125,1039.5879 243.125,1039.9316 Q243.125,1040.2754 242.7813,1040.6816 Q242.2813,1041.2598 241.4844,1041.5879 Q240.4063,1042.041 239.1094,1042.041 Q237.5938,1042.041 236.3906,1041.416 Q235.4063,1040.916 234.7188,1039.8535 Q234.0313,1038.7754 234.0313,1037.4941 L234.0313,1036.3379 Q234.0313,1035.0098 234.6406,1033.8691 Q235.2656,1032.7129 236.3594,1032.1035 Q237.4531,1031.4785 238.6875,1031.4785 Q239.4219,1031.4785 240.0625,1031.6504 Q240.7188,1031.8066 241.2656,1032.166 Z " fill="#000000"/><text fill="#000000" font-family="sans-serif" font-size="12" font-style="italic" lengthAdjust="spacing" textLength="81" x="250.5" y="1031.9492">&#171;value object&#187;</text><text fill="#000000" font-family="sans-serif" font-size="14" lengthAdjust="spacing" textLength="54" x="264" y="1050.0684">Duration</text><line style="stroke:#181818;stroke-width:0.5;" x1="224.5" x2="331.5" y1="1058.582" y2="1058.582"/><line style="stroke:#181818;stroke-width:0.5;" x1="224.5" x2="331.5" y1="1066.582" y2="1066.582"/></g><!--link Teacher to SystemUser--><g id="link_Teacher_SystemUser"><path codeLine="41" d="M155.57,64 C177.12,64 203.51,64 226.42,64 " fill="none" id="Teacher-SystemUser" style="stroke:#181818;stroke-width:1.0;"/><polygon fill="#000000" points="183,51.6455,173.9549,48.7066,173.9549,54.5844,183,51.6455" style="stroke:#000000;stroke-width:1.0;"/><text fill="#000000" font-family="sans-serif" font-size="13" lengthAdjust="spacing" textLength="21" x="187" y="57.0283">is a</text><text fill="#000000" font-family="sans-serif" font-size="13" lengthAdjust="spacing" textLength="5" x="163.5981" y="59.5256">*</text><text fill="#000000" font-family="sans-serif" font-size="13" lengthAdjust="spacing" textLength="7" x="211.3931" y="59.8686">1</text></g><!--link SystemUser to ScheduleExtraClassService--><g id="link_SystemUser_ScheduleExtraClassService"><path codeLine="42" d="M283.3,121.12 C285.44,191.78 282.43,315.69 244,413 C235.39,434.8 221.29,455.99 207.02,473.98 " fill="none" id="SystemUser-ScheduleExtraClassService" style="stroke:#181818;stroke-width:1.0;"/><text fill="#000000" font-family="sans-serif" font-size="13" lengthAdjust="spacing" textLength="7" x="276.2769" y="142.7649">1</text><text fill="#000000" font-family="sans-serif" font-size="13" lengthAdjust="spacing" textLength="7" x="206.0024" y="462.9047">1</text></g><!--link SystemUser to ExtraClass--><g id="link_SystemUser_ExtraClass"><path codeLine="43" d="M315.29,121.15 C333.11,154.75 351,199.06 351,241.5 C351,241.5 351,241.5 351,682.5 C351,724.38 334.69,768.11 317.49,802.59 " fill="none" id="SystemUser-ExtraClass" style="stroke:#181818;stroke-width:1.0;"/></g><!--link SystemUser to ScheduleExtraClassUI--><g id="link_SystemUser_ScheduleExtraClassUI"><path codeLine="45" d="M227.52,121.15 C218.81,130.94 210.02,141.15 202,151 C189.35,166.53 176.2,184.22 164.99,199.81 " fill="none" id="SystemUser-ScheduleExtraClassUI" style="stroke:#181818;stroke-width:1.0;stroke-dasharray:7.0,7.0;"/><text fill="#000000" font-family="sans-serif" font-size="13" lengthAdjust="spacing" textLength="50" x="203" y="166.0283">interacts</text></g><!--link ScheduleExtraClassUI to ScheduleExtraClassController--><g id="link_ScheduleExtraClassUI_ScheduleExtraClassController"><path codeLine="46" d="M130.14,285.11 C127.4,304.63 124.17,327.56 121.6,345.81 " fill="none" id="ScheduleExtraClassUI-ScheduleExtraClassController" style="stroke:#181818;stroke-width:1.0;"/></g><!--link ScheduleExtraClassController to ScheduleExtraClassService--><g id="link_ScheduleExtraClassController_ScheduleExtraClassService"><path codeLine="47" d="M126.53,413.29 C131.73,431.19 138.29,453.76 144.15,473.91 " fill="none" id="ScheduleExtraClassController-ScheduleExtraClassService" style="stroke:#181818;stroke-width:1.0;"/></g><!--link ScheduleExtraClassService to ExtraClassRepository--><g id="link_ScheduleExtraClassService_ExtraClassRepository"><path codeLine="48" d="M170.32,578.11 C174.69,597.82 179.62,620.08 183.76,638.8 " fill="none" id="ScheduleExtraClassService-ExtraClassRepository" style="stroke:#181818;stroke-width:1.0;"/></g><!--link ExtraClassRepository to ExtraClass--><g id="link_ExtraClassRepository_ExtraClass"><path codeLine="49" d="M212.08,724.13 C222.7,747.31 236.16,776.68 248.14,802.84 " fill="none" id="ExtraClassRepository-ExtraClass" style="stroke:#181818;stroke-width:1.0;"/><text fill="#000000" font-family="sans-serif" font-size="13" lengthAdjust="spacing" textLength="25" x="234" y="769.0283">repo</text></g><!--link ExtraClass to Duration--><g id="link_ExtraClass_Duration"><path codeLine="50" d="M278,935.1 C278,962.21 278,992.35 278,1013.94 " fill="none" id="ExtraClass-Duration" style="stroke:#181818;stroke-width:1.0;"/><text fill="#000000" font-family="sans-serif" font-size="13" lengthAdjust="spacing" textLength="21" x="279" y="980.0283">has</text></g><!--SRC=[XLBRQeD047tVhrXyCYa9z3M84D8K2YM5flc0oJf9jjsuTdULIkc_TrnDL6giB-xCENFcAXHOozyGn0aDZoAZjOjZUc3gf2lf-SscF8KpiX_6X6TlI-lmlBFzW7KRmEcRyiTSgKqLM9lRapPkqnUYf4ckSFtb3Amgr-wfZhuJ1i6XzrrOuQI64cap1IMP8q8hdJgZbKBJ4sm97TKndIsQGWfiH3ZXucEbPIfaKaq8b6UX3P-bTP4tuacN_5AWKP1bCZt-Hsssi2n0AjXBHUCC6v_lLQOEpG44yhQ-LyoqbKwRiYdHGe6XXnhj8xgbKfVEaaiHdUcrQZSEe5uWcGe9o5FvcMCSD-w4njeyVMDRbrUZYLlzXzo0apgbs09KZbpltr5G5iPOvvQ2-u3F51xSZ0VJu7gJ2ouj1nxzeSxyx-RAkdpYjdWlwNm-U8LLrchQ89nbWmII7BiwDWOE1r_hleNqssWtpuQSVJBrOmZgC2lykfW5Fu5blm00]--></g></svg>