<?xml version="1.0" encoding="us-ascii" standalone="no"?><svg xmlns="http://www.w3.org/2000/svg" xmlns:xlink="http://www.w3.org/1999/xlink" contentStyleType="text/css" height="1457.6px" preserveAspectRatio="none" style="width:1250px;height:1457px;background:#FFFFFF;" version="1.1" viewBox="0 0 1250 1457" width="1250.4px" zoomAndPan="magnify"><defs/><g><rect fill="#FFFFFF" height="1292.8141" style="stroke:#181818;stroke-width:0.8000000000000002;" width="8" x="51.6" y="78.5938"/><rect fill="#FFFFFF" height="596.8891" style="stroke:#181818;stroke-width:0.8000000000000002;" width="8" x="396.4" y="97.2266"/><rect fill="#FFFFFF" height="247.6953" style="stroke:#181818;stroke-width:0.8000000000000002;" width="8" x="396.4" y="719.1484"/><rect fill="#FFFFFF" height="351.2984" style="stroke:#181818;stroke-width:0.8000000000000002;" width="8" x="396.4" y="1012.9094"/><rect fill="#FFFFFF" height="24" style="stroke:#181818;stroke-width:0.8000000000000002;" width="8" x="553.2" y="172.325"/><rect fill="#FFFFFF" height="387.2594" style="stroke:#181818;stroke-width:0.8000000000000002;" width="8" x="553.2" y="221.3578"/><rect fill="#FFFFFF" height="137.1641" style="stroke:#181818;stroke-width:0.8000000000000002;" width="8" x="553.2" y="744.1813"/><rect fill="#FFFFFF" height="265.8" style="stroke:#181818;stroke-width:0.8000000000000002;" width="8" x="553.2" y="1037.9422"/><rect fill="#FFFFFF" height="25.0328" style="stroke:#181818;stroke-width:0.8000000000000002;" width="8" x="699.2" y="246.3906"/><rect fill="#FFFFFF" height="25.0328" style="stroke:#181818;stroke-width:0.8000000000000002;" width="8" x="801.6" y="296.4563"/><rect fill="#FFFFFF" height="24" style="stroke:#181818;stroke-width:0.8000000000000002;" width="8" x="921.6" y="346.5219"/><rect fill="#FFFFFF" height="188.0297" style="stroke:#181818;stroke-width:0.8000000000000002;" width="8" x="921.6" y="395.5547"/><rect fill="#FFFFFF" height="87.0984" style="stroke:#181818;stroke-width:0.8000000000000002;" width="8" x="921.6" y="769.2141"/><rect fill="#FFFFFF" height="215.7344" style="stroke:#181818;stroke-width:0.8000000000000002;" width="8" x="921.6" y="1062.975"/><rect fill="#FFFFFF" height="25.0328" style="stroke:#181818;stroke-width:0.8000000000000002;" width="8" x="1152.8" y="420.5875"/><rect fill="#FFFFFF" height="60.4656" style="stroke:#181818;stroke-width:0.8000000000000002;" width="8" x="1152.8" y="1193.2109"/><rect fill="none" height="711.3578" style="stroke:#000000;stroke-width:1.2000000000000002;" width="1148.8" x="8" y="457.6203"/><rect fill="none" height="226.0953" style="stroke:#000000;stroke-width:1.2000000000000002;" width="984.4" x="24" y="549.5188"/><rect fill="none" height="341.1313" style="stroke:#000000;stroke-width:1.2000000000000002;" width="1000.4" x="16" y="822.2469"/><rect fill="none" height="178.9344" style="stroke:#000000;stroke-width:1.2000000000000002;" width="984.4" x="24" y="978.8438"/><line style="stroke:#181818;stroke-width:0.4000000000000001;stroke-dasharray:5.0,5.0;" x1="55.2" x2="55.2" y1="70.5938" y2="1378.6078"/><line style="stroke:#181818;stroke-width:0.4000000000000001;stroke-dasharray:5.0,5.0;" x1="400.4" x2="400.4" y1="70.5938" y2="1378.6078"/><line style="stroke:#181818;stroke-width:0.4000000000000001;stroke-dasharray:5.0,5.0;" x1="557.2" x2="557.2" y1="70.5938" y2="1378.6078"/><line style="stroke:#181818;stroke-width:0.4000000000000001;stroke-dasharray:5.0,5.0;" x1="702.8" x2="702.8" y1="70.5938" y2="1378.6078"/><line style="stroke:#181818;stroke-width:0.4000000000000001;stroke-dasharray:5.0,5.0;" x1="805.2" x2="805.2" y1="70.5938" y2="1378.6078"/><line style="stroke:#181818;stroke-width:0.4000000000000001;stroke-dasharray:5.0,5.0;" x1="925.2" x2="925.2" y1="70.5938" y2="1378.6078"/><line style="stroke:#181818;stroke-width:0.4000000000000001;stroke-dasharray:5.0,5.0;" x1="1156.4" x2="1156.4" y1="70.5938" y2="1378.6078"/><text fill="#000000" font-family="sans-serif" font-size="11.2" lengthAdjust="spacing" textLength="42.4" x="32" y="67.7828">Teacher</text><ellipse cx="55.6" cy="14.4969" fill="#E3E3E3" rx="6.4" ry="6.4" style="stroke:#181818;stroke-width:0.4000000000000001;"/><path d="M55.6,20.8969 L55.6,42.4969 M45.2,27.2969 L66,27.2969 M55.6,42.4969 L45.2,54.4969 M55.6,42.4969 L66,54.4969 " fill="none" style="stroke:#181818;stroke-width:0.4000000000000001;"/><text fill="#000000" font-family="sans-serif" font-size="11.2" lengthAdjust="spacing" textLength="42.4" x="32" y="1389.8938">Teacher</text><ellipse cx="55.6" cy="1399.5047" fill="#E3E3E3" rx="6.4" ry="6.4" style="stroke:#181818;stroke-width:0.4000000000000001;"/><path d="M55.6,1405.9047 L55.6,1427.5047 M45.2,1412.3047 L66,1412.3047 M55.6,1427.5047 L45.2,1439.5047 M55.6,1427.5047 L66,1439.5047 " fill="none" style="stroke:#181818;stroke-width:0.4000000000000001;"/><rect fill="#E3E3E3" height="40.9938" rx="2" ry="2" style="stroke:#181818;stroke-width:0.4000000000000001;" width="121.6" x="339.6" y="28.8"/><text fill="#000000" font-family="sans-serif" font-size="11.2" font-style="italic" lengthAdjust="spacing" textLength="76" x="362.4" y="46.4859">&#171;presentation&#187;</text><text fill="#000000" font-family="sans-serif" font-size="11.2" lengthAdjust="spacing" textLength="110.4" x="345.2" y="61.3828">ScheduleExtraClassUI</text><rect fill="#E3E3E3" height="40.9938" rx="2" ry="2" style="stroke:#181818;stroke-width:0.4000000000000001;" width="121.6" x="339.6" y="1377.8078"/><text fill="#000000" font-family="sans-serif" font-size="11.2" font-style="italic" lengthAdjust="spacing" textLength="76" x="362.4" y="1395.4938">&#171;presentation&#187;</text><text fill="#000000" font-family="sans-serif" font-size="11.2" lengthAdjust="spacing" textLength="110.4" x="345.2" y="1410.3906">ScheduleExtraClassUI</text><rect fill="#E3E3E3" height="40.9938" rx="2" ry="2" style="stroke:#181818;stroke-width:0.4000000000000001;" width="161.6" x="476.4" y="28.8"/><text fill="#000000" font-family="sans-serif" font-size="11.2" font-style="italic" lengthAdjust="spacing" textLength="67.2" x="523.6" y="46.4859">&#171;application&#187;</text><text fill="#000000" font-family="sans-serif" font-size="11.2" lengthAdjust="spacing" textLength="150.4" x="482" y="61.3828">ScheduleExtraClassController</text><rect fill="#E3E3E3" height="40.9938" rx="2" ry="2" style="stroke:#181818;stroke-width:0.4000000000000001;" width="161.6" x="476.4" y="1377.8078"/><text fill="#000000" font-family="sans-serif" font-size="11.2" font-style="italic" lengthAdjust="spacing" textLength="67.2" x="523.6" y="1395.4938">&#171;application&#187;</text><text fill="#000000" font-family="sans-serif" font-size="11.2" lengthAdjust="spacing" textLength="150.4" x="482" y="1410.3906">ScheduleExtraClassController</text><rect fill="#E3E3E3" height="26.0969" rx="2" ry="2" style="stroke:#181818;stroke-width:0.4000000000000001;" width="114.4" x="646" y="43.6969"/><text fill="#000000" font-family="sans-serif" font-size="11.2" lengthAdjust="spacing" textLength="103.2" x="651.6" y="61.3828">AuthorizationService</text><rect fill="#E3E3E3" height="26.0969" rx="2" ry="2" style="stroke:#181818;stroke-width:0.4000000000000001;" width="114.4" x="646" y="1377.8078"/><text fill="#000000" font-family="sans-serif" font-size="11.2" lengthAdjust="spacing" textLength="103.2" x="651.6" y="1395.4938">AuthorizationService</text><rect fill="#E3E3E3" height="26.0969" rx="2" ry="2" style="stroke:#181818;stroke-width:0.4000000000000001;" width="74.4" x="768.4" y="43.6969"/><text fill="#000000" font-family="sans-serif" font-size="11.2" lengthAdjust="spacing" textLength="63.2" x="774" y="61.3828">UserSession</text><rect fill="#E3E3E3" height="26.0969" rx="2" ry="2" style="stroke:#181818;stroke-width:0.4000000000000001;" width="74.4" x="768.4" y="1377.8078"/><text fill="#000000" font-family="sans-serif" font-size="11.2" lengthAdjust="spacing" textLength="63.2" x="774" y="1395.4938">UserSession</text><rect fill="#E3E3E3" height="40.9938" rx="2" ry="2" style="stroke:#181818;stroke-width:0.4000000000000001;" width="149.6" x="850.8" y="28.8"/><text fill="#000000" font-family="sans-serif" font-size="11.2" font-style="italic" lengthAdjust="spacing" textLength="48" x="901.6" y="46.4859">&#171;service&#187;</text><text fill="#000000" font-family="sans-serif" font-size="11.2" lengthAdjust="spacing" textLength="138.4" x="856.4" y="61.3828">ScheduleExtraClassService</text><rect fill="#E3E3E3" height="40.9938" rx="2" ry="2" style="stroke:#181818;stroke-width:0.4000000000000001;" width="149.6" x="850.8" y="1377.8078"/><text fill="#000000" font-family="sans-serif" font-size="11.2" font-style="italic" lengthAdjust="spacing" textLength="48" x="901.6" y="1395.4938">&#171;service&#187;</text><text fill="#000000" font-family="sans-serif" font-size="11.2" lengthAdjust="spacing" textLength="138.4" x="856.4" y="1410.3906">ScheduleExtraClassService</text><text fill="#000000" font-family="sans-serif" font-size="11.2" font-style="italic" lengthAdjust="spacing" textLength="63.2" x="1122.8" y="52.8859">&#171;repository&#187;</text><text fill="#000000" font-family="sans-serif" font-size="11.2" lengthAdjust="spacing" textLength="108" x="1100.4" y="67.7828">ExtraClassRepository</text><path d="M1142.4,12 C1142.4,4 1156.8,4 1156.8,4 C1156.8,4 1171.2,4 1171.2,12 L1171.2,32.8 C1171.2,40.8 1156.8,40.8 1156.8,40.8 C1156.8,40.8 1142.4,40.8 1142.4,32.8 L1142.4,12 " fill="#E3E3E3" style="stroke:#181818;stroke-width:1.2000000000000002;"/><path d="M1142.4,12 C1142.4,20 1156.8,20 1156.8,20 C1156.8,20 1171.2,20 1171.2,12 " fill="none" style="stroke:#181818;stroke-width:1.2000000000000002;"/><text fill="#000000" font-family="sans-serif" font-size="11.2" font-style="italic" lengthAdjust="spacing" textLength="63.2" x="1122.8" y="1389.8938">&#171;repository&#187;</text><text fill="#000000" font-family="sans-serif" font-size="11.2" lengthAdjust="spacing" textLength="108" x="1100.4" y="1404.7906">ExtraClassRepository</text><path d="M1142.4,1415.6016 C1142.4,1407.6016 1156.8,1407.6016 1156.8,1407.6016 C1156.8,1407.6016 1171.2,1407.6016 1171.2,1415.6016 L1171.2,1436.4016 C1171.2,1444.4016 1156.8,1444.4016 1156.8,1444.4016 C1156.8,1444.4016 1142.4,1444.4016 1142.4,1436.4016 L1142.4,1415.6016 " fill="#E3E3E3" style="stroke:#181818;stroke-width:1.2000000000000002;"/><path d="M1142.4,1415.6016 C1142.4,1423.6016 1156.8,1423.6016 1156.8,1423.6016 C1156.8,1423.6016 1171.2,1423.6016 1171.2,1415.6016 " fill="none" style="stroke:#181818;stroke-width:1.2000000000000002;"/><rect fill="#FFFFFF" height="1292.8141" style="stroke:#181818;stroke-width:0.8000000000000002;" width="8" x="51.6" y="78.5938"/><rect fill="#FFFFFF" height="596.8891" style="stroke:#181818;stroke-width:0.8000000000000002;" width="8" x="396.4" y="97.2266"/><rect fill="#FFFFFF" height="247.6953" style="stroke:#181818;stroke-width:0.8000000000000002;" width="8" x="396.4" y="719.1484"/><rect fill="#FFFFFF" height="351.2984" style="stroke:#181818;stroke-width:0.8000000000000002;" width="8" x="396.4" y="1012.9094"/><rect fill="#FFFFFF" height="24" style="stroke:#181818;stroke-width:0.8000000000000002;" width="8" x="553.2" y="172.325"/><rect fill="#FFFFFF" height="387.2594" style="stroke:#181818;stroke-width:0.8000000000000002;" width="8" x="553.2" y="221.3578"/><rect fill="#FFFFFF" height="137.1641" style="stroke:#181818;stroke-width:0.8000000000000002;" width="8" x="553.2" y="744.1813"/><rect fill="#FFFFFF" height="265.8" style="stroke:#181818;stroke-width:0.8000000000000002;" width="8" x="553.2" y="1037.9422"/><rect fill="#FFFFFF" height="25.0328" style="stroke:#181818;stroke-width:0.8000000000000002;" width="8" x="699.2" y="246.3906"/><rect fill="#FFFFFF" height="25.0328" style="stroke:#181818;stroke-width:0.8000000000000002;" width="8" x="801.6" y="296.4563"/><rect fill="#FFFFFF" height="24" style="stroke:#181818;stroke-width:0.8000000000000002;" width="8" x="921.6" y="346.5219"/><rect fill="#FFFFFF" height="188.0297" style="stroke:#181818;stroke-width:0.8000000000000002;" width="8" x="921.6" y="395.5547"/><rect fill="#FFFFFF" height="87.0984" style="stroke:#181818;stroke-width:0.8000000000000002;" width="8" x="921.6" y="769.2141"/><rect fill="#FFFFFF" height="215.7344" style="stroke:#181818;stroke-width:0.8000000000000002;" width="8" x="921.6" y="1062.975"/><rect fill="#FFFFFF" height="25.0328" style="stroke:#181818;stroke-width:0.8000000000000002;" width="8" x="1152.8" y="420.5875"/><rect fill="#FFFFFF" height="60.4656" style="stroke:#181818;stroke-width:0.8000000000000002;" width="8" x="1152.8" y="1193.2109"/><polygon fill="#181818" points="386.8,94.0266,394.8,97.2266,386.8,100.4266,390,97.2266" style="stroke:#181818;stroke-width:0.8000000000000002;"/><line style="stroke:#181818;stroke-width:0.8000000000000002;stroke-dasharray:2.0,2.0;" x1="59.6" x2="391.6" y1="97.2266" y2="97.2266"/><text fill="#000000" font-family="sans-serif" font-size="10.4" lengthAdjust="spacing" textLength="184" x="65.2" y="93.0164">Starts extra calss scheduling procedure</text><polygon fill="#181818" points="68.4,119.0594,60.4,122.2594,68.4,125.4594,65.2,122.2594" style="stroke:#181818;stroke-width:0.8000000000000002;"/><line style="stroke:#181818;stroke-width:0.8000000000000002;stroke-dasharray:2.0,2.0;" x1="63.6" x2="395.6" y1="122.2594" y2="122.2594"/><text fill="#000000" font-family="sans-serif" font-size="10.4" lengthAdjust="spacing" textLength="304" x="73.2" y="118.0492">Requests for extra class data (title, date, duration, List&lt;Student&gt;)</text><polygon fill="#181818" points="386.8,144.0922,394.8,147.2922,386.8,150.4922,390,147.2922" style="stroke:#181818;stroke-width:0.8000000000000002;"/><line style="stroke:#181818;stroke-width:0.8000000000000002;stroke-dasharray:2.0,2.0;" x1="59.6" x2="391.6" y1="147.2922" y2="147.2922"/><text fill="#000000" font-family="sans-serif" font-size="10.4" lengthAdjust="spacing" textLength="92" x="65.2" y="143.082">Provides Class data</text><polygon fill="#181818" points="543.6,169.125,551.6,172.325,543.6,175.525,546.8,172.325" style="stroke:#181818;stroke-width:0.8000000000000002;"/><line style="stroke:#181818;stroke-width:0.8000000000000002;" x1="404.4" x2="548.4" y1="172.325" y2="172.325"/><text fill="#000000" font-family="sans-serif" font-size="10.4" lengthAdjust="spacing" textLength="28.8" x="410" y="168.1148">create</text><polygon fill="#181818" points="543.6,218.1578,551.6,221.3578,543.6,224.5578,546.8,221.3578" style="stroke:#181818;stroke-width:0.8000000000000002;"/><line style="stroke:#181818;stroke-width:0.8000000000000002;" x1="404.4" x2="548.4" y1="221.3578" y2="221.3578"/><text fill="#000000" font-family="sans-serif" font-size="10.4" lengthAdjust="spacing" textLength="129.6" x="410" y="217.1477">createExtraClassSchedule()</text><polygon fill="#181818" points="689.6,243.1906,697.6,246.3906,689.6,249.5906,692.8,246.3906" style="stroke:#181818;stroke-width:0.8000000000000002;"/><line style="stroke:#181818;stroke-width:0.8000000000000002;" x1="561.2" x2="694.4" y1="246.3906" y2="246.3906"/><text fill="#000000" font-family="sans-serif" font-size="10.4" lengthAdjust="spacing" textLength="42.4" x="566.8" y="242.1805">session()</text><polygon fill="#181818" points="570,268.2234,562,271.4234,570,274.6234,566.8,271.4234" style="stroke:#181818;stroke-width:0.8000000000000002;"/><line style="stroke:#181818;stroke-width:0.8000000000000002;stroke-dasharray:2.0,2.0;" x1="565.2" x2="702.4" y1="271.4234" y2="271.4234"/><text fill="#000000" font-family="sans-serif" font-size="10.4" lengthAdjust="spacing" textLength="36" x="574.8" y="267.2133">session</text><polygon fill="#181818" points="792,293.2563,800,296.4563,792,299.6563,795.2,296.4563" style="stroke:#181818;stroke-width:0.8000000000000002;"/><line style="stroke:#181818;stroke-width:0.8000000000000002;" x1="561.2" x2="796.8" y1="296.4563" y2="296.4563"/><text fill="#000000" font-family="sans-serif" font-size="10.4" lengthAdjust="spacing" textLength="90.4" x="566.8" y="292.2461">authenticatedUser()</text><polygon fill="#181818" points="570,318.2891,562,321.4891,570,324.6891,566.8,321.4891" style="stroke:#181818;stroke-width:0.8000000000000002;"/><line style="stroke:#181818;stroke-width:0.8000000000000002;stroke-dasharray:2.0,2.0;" x1="565.2" x2="804.8" y1="321.4891" y2="321.4891"/><text fill="#000000" font-family="sans-serif" font-size="10.4" lengthAdjust="spacing" textLength="20" x="574.8" y="317.2789">user</text><polygon fill="#181818" points="912,343.3219,920,346.5219,912,349.7219,915.2,346.5219" style="stroke:#181818;stroke-width:0.8000000000000002;"/><line style="stroke:#181818;stroke-width:0.8000000000000002;" x1="561.2" x2="916.8" y1="346.5219" y2="346.5219"/><text fill="#000000" font-family="sans-serif" font-size="10.4" lengthAdjust="spacing" textLength="28.8" x="566.8" y="342.3117">create</text><polygon fill="#181818" points="912,392.3547,920,395.5547,912,398.7547,915.2,395.5547" style="stroke:#181818;stroke-width:0.8000000000000002;"/><line style="stroke:#181818;stroke-width:0.8000000000000002;" x1="561.2" x2="916.8" y1="395.5547" y2="395.5547"/><text fill="#000000" font-family="sans-serif" font-size="10.4" lengthAdjust="spacing" textLength="129.6" x="566.8" y="391.3445">createExtraClassSchedule()</text><polygon fill="#181818" points="1143.2,417.3875,1151.2,420.5875,1143.2,423.7875,1146.4,420.5875" style="stroke:#181818;stroke-width:0.8000000000000002;"/><line style="stroke:#181818;stroke-width:0.8000000000000002;" x1="929.6" x2="1148" y1="420.5875" y2="420.5875"/><text fill="#000000" font-family="sans-serif" font-size="10.4" lengthAdjust="spacing" textLength="119.2" x="935.2" y="416.3773">getAllScheduledClasses()</text><polygon fill="#181818" points="938.4,442.4203,930.4,445.6203,938.4,448.8203,935.2,445.6203" style="stroke:#181818;stroke-width:0.8000000000000002;"/><line style="stroke:#181818;stroke-width:0.8000000000000002;stroke-dasharray:2.0,2.0;" x1="933.6" x2="1156" y1="445.6203" y2="445.6203"/><text fill="#000000" font-family="sans-serif" font-size="10.4" lengthAdjust="spacing" textLength="80.8" x="943.2" y="441.4102">List&lt;ExtraClass&gt;</text><path d="M8,457.6203 L66.4,457.6203 L66.4,465.0531 L58.4,473.0531 L8,473.0531 L8,457.6203 " fill="#EEEEEE" style="stroke:#000000;stroke-width:1.2000000000000002;"/><rect fill="none" height="711.3578" style="stroke:#000000;stroke-width:1.2000000000000002;" width="1148.8" x="8" y="457.6203"/><text fill="#000000" font-family="sans-serif" font-size="10.4" font-weight="bold" lengthAdjust="spacing" textLength="22.4" x="20" y="469.643">loop</text><text fill="#000000" font-family="sans-serif" font-size="8.8" font-weight="bold" lengthAdjust="spacing" textLength="280" x="78.4" y="468.7164">[loop through the verification process for each class data input]</text><line style="stroke:#181818;stroke-width:0.8000000000000002;" x1="929.6" x2="963.2" y1="491.6859" y2="491.6859"/><line style="stroke:#181818;stroke-width:0.8000000000000002;" x1="963.2" x2="963.2" y1="491.6859" y2="502.0859"/><line style="stroke:#181818;stroke-width:0.8000000000000002;" x1="930.4" x2="963.2" y1="502.0859" y2="502.0859"/><polygon fill="#181818" points="938.4,498.8859,930.4,502.0859,938.4,505.2859,935.2,502.0859" style="stroke:#181818;stroke-width:0.8000000000000002;"/><text fill="#000000" font-family="sans-serif" font-size="10.4" lengthAdjust="spacing" textLength="212" x="935.2" y="487.4758">checkCoincidentialClasses(List&lt;ExtraClass&gt;)</text><line style="stroke:#181818;stroke-width:0.8000000000000002;" x1="929.6" x2="963.2" y1="527.1188" y2="527.1188"/><line style="stroke:#181818;stroke-width:0.8000000000000002;" x1="963.2" x2="963.2" y1="527.1188" y2="537.5188"/><line style="stroke:#181818;stroke-width:0.8000000000000002;" x1="930.4" x2="963.2" y1="537.5188" y2="537.5188"/><polygon fill="#181818" points="938.4,534.3188,930.4,537.5188,938.4,540.7188,935.2,537.5188" style="stroke:#181818;stroke-width:0.8000000000000002;"/><text fill="#000000" font-family="sans-serif" font-size="10.4" lengthAdjust="spacing" textLength="156.8" x="935.2" y="522.9086">checkTeacherAvailability(Teacher)</text><path d="M24,549.5188 L72.8,549.5188 L72.8,556.9516 L64.8,564.9516 L24,564.9516 L24,549.5188 " fill="#EEEEEE" style="stroke:#000000;stroke-width:1.2000000000000002;"/><rect fill="none" height="226.0953" style="stroke:#000000;stroke-width:1.2000000000000002;" width="984.4" x="24" y="549.5188"/><text fill="#000000" font-family="sans-serif" font-size="10.4" font-weight="bold" lengthAdjust="spacing" textLength="12.8" x="36" y="561.5414">alt</text><text fill="#000000" font-family="sans-serif" font-size="8.8" font-weight="bold" lengthAdjust="spacing" textLength="106.4" x="84.8" y="560.6148">[if coincidential classes]</text><polygon fill="#181818" points="570,580.3844,562,583.5844,570,586.7844,566.8,583.5844" style="stroke:#181818;stroke-width:0.8000000000000002;"/><line style="stroke:#181818;stroke-width:0.8000000000000002;stroke-dasharray:2.0,2.0;" x1="565.2" x2="924.8" y1="583.5844" y2="583.5844"/><text fill="#000000" font-family="sans-serif" font-size="10.4" lengthAdjust="spacing" textLength="112.8" x="574.8" y="579.3742">errorCoincidentialClass()</text><polygon fill="#181818" points="413.2,605.4172,405.2,608.6172,413.2,611.8172,410,608.6172" style="stroke:#181818;stroke-width:0.8000000000000002;"/><line style="stroke:#181818;stroke-width:0.8000000000000002;stroke-dasharray:2.0,2.0;" x1="408.4" x2="556.4" y1="608.6172" y2="608.6172"/><text fill="#000000" font-family="sans-serif" font-size="10.4" lengthAdjust="spacing" textLength="112.8" x="418" y="604.407">errorCoincidentialClass()</text><line style="stroke:#181818;stroke-width:0.8000000000000002;" x1="404.4" x2="438" y1="633.65" y2="633.65"/><line style="stroke:#181818;stroke-width:0.8000000000000002;" x1="438" x2="438" y1="633.65" y2="644.05"/><line style="stroke:#181818;stroke-width:0.8000000000000002;" x1="405.2" x2="438" y1="644.05" y2="644.05"/><polygon fill="#181818" points="413.2,640.85,405.2,644.05,413.2,647.25,410,644.05" style="stroke:#181818;stroke-width:0.8000000000000002;"/><text fill="#000000" font-family="sans-serif" font-size="10.4" lengthAdjust="spacing" textLength="39.2" x="410" y="629.4398">display()</text><polygon fill="#181818" points="68.4,665.8828,60.4,669.0828,68.4,672.2828,65.2,669.0828" style="stroke:#181818;stroke-width:0.8000000000000002;"/><line style="stroke:#181818;stroke-width:0.8000000000000002;stroke-dasharray:2.0,2.0;" x1="63.6" x2="395.6" y1="669.0828" y2="669.0828"/><text fill="#000000" font-family="sans-serif" font-size="10.4" lengthAdjust="spacing" textLength="201.6" x="73.2" y="664.8727">Show error message (coincidential classes)</text><polygon fill="#181818" points="68.4,690.9156,60.4,694.1156,68.4,697.3156,65.2,694.1156" style="stroke:#181818;stroke-width:0.8000000000000002;"/><line style="stroke:#181818;stroke-width:0.8000000000000002;stroke-dasharray:2.0,2.0;" x1="63.6" x2="399.6" y1="694.1156" y2="694.1156"/><text fill="#000000" font-family="sans-serif" font-size="10.4" lengthAdjust="spacing" textLength="279.2" x="73.2" y="689.9055">Request new class data (title, date, duration, List&lt;Student&gt;)</text><polygon fill="#181818" points="386.8,715.9484,394.8,719.1484,386.8,722.3484,390,719.1484" style="stroke:#181818;stroke-width:0.8000000000000002;"/><line style="stroke:#181818;stroke-width:0.8000000000000002;stroke-dasharray:2.0,2.0;" x1="59.6" x2="391.6" y1="719.1484" y2="719.1484"/><text fill="#000000" font-family="sans-serif" font-size="10.4" lengthAdjust="spacing" textLength="92" x="65.2" y="714.9383">Provides Class data</text><polygon fill="#181818" points="543.6,740.9813,551.6,744.1813,543.6,747.3813,546.8,744.1813" style="stroke:#181818;stroke-width:0.8000000000000002;"/><line style="stroke:#181818;stroke-width:0.8000000000000002;" x1="404.4" x2="548.4" y1="744.1813" y2="744.1813"/><text fill="#000000" font-family="sans-serif" font-size="10.4" lengthAdjust="spacing" textLength="129.6" x="410" y="739.9711">createExtraClassSchedule()</text><polygon fill="#181818" points="912,766.0141,920,769.2141,912,772.4141,915.2,769.2141" style="stroke:#181818;stroke-width:0.8000000000000002;"/><line style="stroke:#181818;stroke-width:0.8000000000000002;" x1="561.2" x2="916.8" y1="769.2141" y2="769.2141"/><text fill="#000000" font-family="sans-serif" font-size="10.4" lengthAdjust="spacing" textLength="129.6" x="566.8" y="765.0039">createExtraClassSchedule()</text><line style="stroke:#181818;stroke-width:0.8000000000000002;" x1="929.6" x2="963.2" y1="799.8469" y2="799.8469"/><line style="stroke:#181818;stroke-width:0.8000000000000002;" x1="963.2" x2="963.2" y1="799.8469" y2="810.2469"/><line style="stroke:#181818;stroke-width:0.8000000000000002;" x1="930.4" x2="963.2" y1="810.2469" y2="810.2469"/><polygon fill="#181818" points="938.4,807.0469,930.4,810.2469,938.4,813.4469,935.2,810.2469" style="stroke:#181818;stroke-width:0.8000000000000002;"/><text fill="#000000" font-family="sans-serif" font-size="10.4" lengthAdjust="spacing" textLength="206.4" x="935.2" y="795.6367">checkOverlappingClasses(List&lt;ExtraClass&gt;)</text><path d="M16,822.2469 L64.8,822.2469 L64.8,829.6797 L56.8,837.6797 L16,837.6797 L16,822.2469 " fill="#EEEEEE" style="stroke:#000000;stroke-width:1.2000000000000002;"/><rect fill="none" height="341.1313" style="stroke:#000000;stroke-width:1.2000000000000002;" width="1000.4" x="16" y="822.2469"/><text fill="#000000" font-family="sans-serif" font-size="10.4" font-weight="bold" lengthAdjust="spacing" textLength="12.8" x="28" y="834.2695">alt</text><text fill="#000000" font-family="sans-serif" font-size="8.8" font-weight="bold" lengthAdjust="spacing" textLength="170.4" x="76.8" y="833.343">[if participant has overlapping classes]</text><polygon fill="#181818" points="570,853.1125,562,856.3125,570,859.5125,566.8,856.3125" style="stroke:#181818;stroke-width:0.8000000000000002;"/><line style="stroke:#181818;stroke-width:0.8000000000000002;stroke-dasharray:2.0,2.0;" x1="565.2" x2="924.8" y1="856.3125" y2="856.3125"/><text fill="#000000" font-family="sans-serif" font-size="10.4" lengthAdjust="spacing" textLength="108" x="574.8" y="852.1023">warnOverlappingClass()</text><polygon fill="#181818" points="413.2,878.1453,405.2,881.3453,413.2,884.5453,410,881.3453" style="stroke:#181818;stroke-width:0.8000000000000002;"/><line style="stroke:#181818;stroke-width:0.8000000000000002;stroke-dasharray:2.0,2.0;" x1="408.4" x2="556.4" y1="881.3453" y2="881.3453"/><text fill="#000000" font-family="sans-serif" font-size="10.4" lengthAdjust="spacing" textLength="108" x="418" y="877.1352">warnOverlappingClass()</text><line style="stroke:#181818;stroke-width:0.8000000000000002;" x1="404.4" x2="438" y1="906.3781" y2="906.3781"/><line style="stroke:#181818;stroke-width:0.8000000000000002;" x1="438" x2="438" y1="906.3781" y2="916.7781"/><line style="stroke:#181818;stroke-width:0.8000000000000002;" x1="405.2" x2="438" y1="916.7781" y2="916.7781"/><polygon fill="#181818" points="413.2,913.5781,405.2,916.7781,413.2,919.9781,410,916.7781" style="stroke:#181818;stroke-width:0.8000000000000002;"/><text fill="#000000" font-family="sans-serif" font-size="10.4" lengthAdjust="spacing" textLength="39.2" x="410" y="902.168">display()</text><polygon fill="#181818" points="68.4,938.6109,60.4,941.8109,68.4,945.0109,65.2,941.8109" style="stroke:#181818;stroke-width:0.8000000000000002;"/><line style="stroke:#181818;stroke-width:0.8000000000000002;stroke-dasharray:2.0,2.0;" x1="63.6" x2="395.6" y1="941.8109" y2="941.8109"/><text fill="#000000" font-family="sans-serif" font-size="10.4" lengthAdjust="spacing" textLength="209.6" x="73.2" y="937.6008">Show warning message (overlapping classes)</text><polygon fill="#181818" points="68.4,963.6438,60.4,966.8438,68.4,970.0438,65.2,966.8438" style="stroke:#181818;stroke-width:0.8000000000000002;"/><line style="stroke:#181818;stroke-width:0.8000000000000002;stroke-dasharray:2.0,2.0;" x1="63.6" x2="399.6" y1="966.8438" y2="966.8438"/><text fill="#000000" font-family="sans-serif" font-size="10.4" lengthAdjust="spacing" textLength="317.6" x="73.2" y="962.6336">Ask for confirmation to schedule class or input new class information</text><path d="M24,978.8438 L72.8,978.8438 L72.8,986.2766 L64.8,994.2766 L24,994.2766 L24,978.8438 " fill="#EEEEEE" style="stroke:#000000;stroke-width:1.2000000000000002;"/><rect fill="none" height="178.9344" style="stroke:#000000;stroke-width:1.2000000000000002;" width="984.4" x="24" y="978.8438"/><text fill="#000000" font-family="sans-serif" font-size="10.4" font-weight="bold" lengthAdjust="spacing" textLength="12.8" x="36" y="990.8664">alt</text><text fill="#000000" font-family="sans-serif" font-size="8.8" font-weight="bold" lengthAdjust="spacing" textLength="123.2" x="84.8" y="989.9398">[if teacher ignores warning]</text><polygon fill="#181818" points="386.8,1009.7094,394.8,1012.9094,386.8,1016.1094,390,1012.9094" style="stroke:#181818;stroke-width:0.8000000000000002;"/><line style="stroke:#181818;stroke-width:0.8000000000000002;stroke-dasharray:2.0,2.0;" x1="59.6" x2="391.6" y1="1012.9094" y2="1012.9094"/><text fill="#000000" font-family="sans-serif" font-size="10.4" lengthAdjust="spacing" textLength="72" x="65.2" y="1008.6992">Ignores warning</text><polygon fill="#181818" points="543.6,1034.7422,551.6,1037.9422,543.6,1041.1422,546.8,1037.9422" style="stroke:#181818;stroke-width:0.8000000000000002;"/><line style="stroke:#181818;stroke-width:0.8000000000000002;" x1="404.4" x2="548.4" y1="1037.9422" y2="1037.9422"/><text fill="#000000" font-family="sans-serif" font-size="10.4" lengthAdjust="spacing" textLength="129.6" x="410" y="1033.732">createExtraClassSchedule()</text><polygon fill="#181818" points="912,1059.775,920,1062.975,912,1066.175,915.2,1062.975" style="stroke:#181818;stroke-width:0.8000000000000002;"/><line style="stroke:#181818;stroke-width:0.8000000000000002;" x1="561.2" x2="916.8" y1="1062.975" y2="1062.975"/><text fill="#000000" font-family="sans-serif" font-size="10.4" lengthAdjust="spacing" textLength="129.6" x="566.8" y="1058.7648">createExtraClassSchedule()</text><line style="stroke:#000000;stroke-width:0.8000000000000002;stroke-dasharray:2.0,2.0;" x1="24" x2="1008.4" y1="1070.175" y2="1070.175"/><text fill="#000000" font-family="sans-serif" font-size="8.8" font-weight="bold" lengthAdjust="spacing" textLength="179.2" x="28" y="1079.6711">[if teacher inputs new class information]</text><polygon fill="#181818" points="386.8,1098.1125,394.8,1101.3125,386.8,1104.5125,390,1101.3125" style="stroke:#181818;stroke-width:0.8000000000000002;"/><line style="stroke:#181818;stroke-width:0.8000000000000002;stroke-dasharray:2.0,2.0;" x1="59.6" x2="391.6" y1="1101.3125" y2="1101.3125"/><text fill="#000000" font-family="sans-serif" font-size="10.4" lengthAdjust="spacing" textLength="131.2" x="65.2" y="1097.1023">Inputs new class information</text><polygon fill="#181818" points="543.6,1123.1453,551.6,1126.3453,543.6,1129.5453,546.8,1126.3453" style="stroke:#181818;stroke-width:0.8000000000000002;"/><line style="stroke:#181818;stroke-width:0.8000000000000002;" x1="404.4" x2="548.4" y1="1126.3453" y2="1126.3453"/><text fill="#000000" font-family="sans-serif" font-size="10.4" lengthAdjust="spacing" textLength="129.6" x="410" y="1122.1352">createExtraClassSchedule()</text><polygon fill="#181818" points="912,1148.1781,920,1151.3781,912,1154.5781,915.2,1151.3781" style="stroke:#181818;stroke-width:0.8000000000000002;"/><line style="stroke:#181818;stroke-width:0.8000000000000002;" x1="561.2" x2="916.8" y1="1151.3781" y2="1151.3781"/><text fill="#000000" font-family="sans-serif" font-size="10.4" lengthAdjust="spacing" textLength="129.6" x="566.8" y="1147.168">createExtraClassSchedule()</text><polygon fill="#181818" points="1143.2,1190.0109,1151.2,1193.2109,1143.2,1196.4109,1146.4,1193.2109" style="stroke:#181818;stroke-width:0.8000000000000002;"/><line style="stroke:#181818;stroke-width:0.8000000000000002;" x1="929.6" x2="1148" y1="1193.2109" y2="1193.2109"/><text fill="#000000" font-family="sans-serif" font-size="10.4" lengthAdjust="spacing" textLength="51.2" x="935.2" y="1189.0008">ExtraClass</text><line style="stroke:#181818;stroke-width:0.8000000000000002;" x1="1160.8" x2="1194.4" y1="1218.2438" y2="1218.2438"/><line style="stroke:#181818;stroke-width:0.8000000000000002;" x1="1194.4" x2="1194.4" y1="1218.2438" y2="1228.6438"/><line style="stroke:#181818;stroke-width:0.8000000000000002;" x1="1161.6" x2="1194.4" y1="1228.6438" y2="1228.6438"/><polygon fill="#181818" points="1169.6,1225.4438,1161.6,1228.6438,1169.6,1231.8438,1166.4,1228.6438" style="stroke:#181818;stroke-width:0.8000000000000002;"/><text fill="#000000" font-family="sans-serif" font-size="10.4" lengthAdjust="spacing" textLength="78.4" x="1166.4" y="1214.0336">save(ExtraClass)</text><polygon fill="#181818" points="938.4,1250.4766,930.4,1253.6766,938.4,1256.8766,935.2,1253.6766" style="stroke:#181818;stroke-width:0.8000000000000002;"/><line style="stroke:#181818;stroke-width:0.8000000000000002;stroke-dasharray:2.0,2.0;" x1="933.6" x2="1156" y1="1253.6766" y2="1253.6766"/><text fill="#000000" font-family="sans-serif" font-size="10.4" lengthAdjust="spacing" textLength="23.2" x="943.2" y="1249.4664">state</text><polygon fill="#181818" points="570,1275.5094,562,1278.7094,570,1281.9094,566.8,1278.7094" style="stroke:#181818;stroke-width:0.8000000000000002;"/><line style="stroke:#181818;stroke-width:0.8000000000000002;stroke-dasharray:2.0,2.0;" x1="565.2" x2="924.8" y1="1278.7094" y2="1278.7094"/><text fill="#000000" font-family="sans-serif" font-size="10.4" lengthAdjust="spacing" textLength="23.2" x="574.8" y="1274.4992">state</text><polygon fill="#181818" points="413.2,1300.5422,405.2,1303.7422,413.2,1306.9422,410,1303.7422" style="stroke:#181818;stroke-width:0.8000000000000002;"/><line style="stroke:#181818;stroke-width:0.8000000000000002;stroke-dasharray:2.0,2.0;" x1="408.4" x2="556.4" y1="1303.7422" y2="1303.7422"/><text fill="#000000" font-family="sans-serif" font-size="10.4" lengthAdjust="spacing" textLength="23.2" x="418" y="1299.532">state</text><line style="stroke:#181818;stroke-width:0.8000000000000002;" x1="404.4" x2="438" y1="1328.775" y2="1328.775"/><line style="stroke:#181818;stroke-width:0.8000000000000002;" x1="438" x2="438" y1="1328.775" y2="1339.175"/><line style="stroke:#181818;stroke-width:0.8000000000000002;" x1="405.2" x2="438" y1="1339.175" y2="1339.175"/><polygon fill="#181818" points="413.2,1335.975,405.2,1339.175,413.2,1342.375,410,1339.175" style="stroke:#181818;stroke-width:0.8000000000000002;"/><text fill="#000000" font-family="sans-serif" font-size="10.4" lengthAdjust="spacing" textLength="39.2" x="410" y="1324.5648">display()</text><polygon fill="#181818" points="68.4,1361.0078,60.4,1364.2078,68.4,1367.4078,65.2,1364.2078" style="stroke:#181818;stroke-width:0.8000000000000002;"/><line style="stroke:#181818;stroke-width:0.8000000000000002;stroke-dasharray:2.0,2.0;" x1="63.6" x2="399.6" y1="1364.2078" y2="1364.2078"/><text fill="#000000" font-family="sans-serif" font-size="10.4" lengthAdjust="spacing" textLength="213.6" x="73.2" y="1359.9977">Shows state of execution (Success or Failure)</text><!--SRC=[hLPHRzem47xFhx3wKf3A-XvLI0Wn3MdJfgRiOM-kSn0BOsUsGyT-_SwEGqn8IkdwG4ZY-pxVdR-xosrXRMdI-_jIK6chdVZ4rExUmEyA98D9pkb6qrrYjboM5E_8Jad52grsGAok85efATlI3MJs881eO3P94igiqkG9A2j04sh8pBr84aHOpdY9UvAR31VpIi3YZzLqBgWng-MDCrujoSD3gS60jDHo9QVJIyYvabOh8K1xXlOHcMXP2ivwYMQLBPJcV_rY1dhF6NY2sUhfowzJsvK1dO4nQ5bxcMMNl8ePiyNZp-LyWVwO-YtwSdk2_qObvh4E8DmdIKujVQO6o4rB-mYbCXmJUl2sxIEIw-C3yhjpu7jg8UJVNybaCdKfJabcSNj3m14JHeKnnDGnSBaXfLOCxpMqBAjbaY3I4NYg5FT6nHWaMIDn878k4kSt6Lbk1Tov1tUjjC_p7VdAZNt8R9NZ0K_79swbv8TMUvu37kAHgDvr6XrhIfW6P6rzQzUI7FhU3d94vnLES3JkvKqYMRaKE8sanDIQY36rUlpLXnNl6SnZ9slp3ZlAAoKKzOavSkg5t0amtiK947zdErJcD0VEhaCUn7YUnR0GmvjNhpAydiE68ccA00bQrQPa0tOcH8FCFG-OcA6rJYAvJs97lAXQFwPn315SA5KIVx7OpgfDWVz0zg3vEZI9MlacQ1fRM2nfx7gLZUDe4r40syuLbumxNNCgcZYwdes7yQ5bplQK2_hC1RU7KNY7sH2My3LXyHwrRs2Yt7Ra05ehVUuNPlV28OTwV1C-gfAwp1movmR7om4jJvj6LgYNcfRiCC_OwCYeDwXnVxSX4bxUqMPQTz_GSMRTdlUHdUDTnGCoJuQ5ynqLB73IOUSUbbqGK3nr2XmWgiKUvJIafXUgPNUlDqlfClXw7JbEv_XHIJtHT84pi_N5pPHSSxshgzwgPlf141TQ-7AFzCObuch0IOj5aOJasl3HmpTIuITCurz7SilprIFJVwlj8per2FpcYCDnYJ03cUZ4zfhfLS5T7uWhakOtD6rQuCNvSWeqT0-Z5ZqU74N6kYRJFt-62kiCSpoAda8wCxwwRapDGTGQFzk0LRu4Hbd5_EJ3q_oC4mW__iOTcVy3]--></g></svg>