<?xml version="1.0" encoding="us-ascii" standalone="no"?><svg xmlns="http://www.w3.org/2000/svg" xmlns:xlink="http://www.w3.org/1999/xlink" contentStyleType="text/css" height="652.4px" preserveAspectRatio="none" style="width:1325px;height:652px;background:#FFFFFF;" version="1.1" viewBox="0 0 1325 652" width="1325.8px" zoomAndPan="magnify"><defs/><g><!--class ShareBoardUI--><g id="elem_ShareBoardUI"><rect codeLine="4" fill="#F1F1F1" height="85.7391" id="ShareBoardUI" rx="1.75" ry="1.75" style="stroke:#181818;stroke-width:0.3499999999999999;" width="254.1" x="102.55" y="114.1"/><ellipse cx="195.825" cy="125.3" fill="#ADD1B2" rx="7.7" ry="7.7" style="stroke:#181818;stroke-width:0.6999999999999998;"/><path d="M197.7609,122.4125 Q197.8703,122.2594 198.0016,122.1828 Q198.1328,122.1062 198.2859,122.1062 Q198.5484,122.1062 198.7125,122.2922 Q198.8766,122.4672 198.8766,122.8937 L198.8766,123.9109 Q198.8766,124.3375 198.7125,124.5234 Q198.5484,124.7094 198.2859,124.7094 Q198.0453,124.7094 197.9031,124.5672 Q197.7609,124.4359 197.6844,124.075 Q197.6516,123.8234 197.5203,123.6922 Q197.2906,123.4297 196.8641,123.2766 Q196.4375,123.1234 196,123.1234 Q195.4641,123.1234 195.0156,123.3531 Q194.5781,123.5828 194.2281,124.1078 Q193.8891,124.6328 193.8891,125.3547 L193.8891,126.1203 Q193.8891,126.9844 194.5125,127.5641 Q195.1359,128.1328 196.2516,128.1328 Q196.9078,128.1328 197.3672,127.9578 Q197.6406,127.8484 197.9359,127.5422 Q198.1219,127.3562 198.2203,127.3016 Q198.3297,127.2469 198.4719,127.2469 Q198.7016,127.2469 198.8766,127.4328 Q199.0625,127.6078 199.0625,127.8484 Q199.0625,128.0891 198.8219,128.3734 Q198.4719,128.7781 197.9141,129.0078 Q197.1594,129.325 196.2516,129.325 Q195.1906,129.325 194.3484,128.8875 Q193.6594,128.5375 193.1781,127.7937 Q192.6969,127.0391 192.6969,126.1422 L192.6969,125.3328 Q192.6969,124.4031 193.1234,123.6047 Q193.5609,122.7953 194.3266,122.3687 Q195.0922,121.9312 195.9562,121.9312 Q196.4703,121.9312 196.9187,122.0516 Q197.3781,122.1609 197.7609,122.4125 Z " fill="#000000"/><text fill="#000000" font-family="sans-serif" font-size="9.8" lengthAdjust="spacing" textLength="61.6" x="210.175" y="129.3578">ShareBoardUI</text><line style="stroke:#181818;stroke-width:0.3499999999999999;" x1="103.25" x2="355.95" y1="136.5" y2="136.5"/><line style="stroke:#181818;stroke-width:0.3499999999999999;" x1="103.25" x2="355.95" y1="142.1" y2="142.1"/><ellipse cx="110.25" cy="152.4674" fill="#84BE84" rx="2.1" ry="2.1" style="stroke:#038048;stroke-width:0.6999999999999998;"/><text fill="#000000" font-family="sans-serif" font-size="9.8" lengthAdjust="spacing" textLength="179.9" x="116.55" y="155.4752">buildBoardMenu(List&lt;SharedBoardDto&gt;)</text><ellipse cx="110.25" cy="165.5021" fill="#84BE84" rx="2.1" ry="2.1" style="stroke:#038048;stroke-width:0.6999999999999998;"/><text fill="#000000" font-family="sans-serif" font-size="9.8" lengthAdjust="spacing" textLength="158.2" x="116.55" y="168.51">ShowBoard(List&lt;SharedBoardDto&gt;)</text><ellipse cx="110.25" cy="178.5369" fill="#84BE84" rx="2.1" ry="2.1" style="stroke:#038048;stroke-width:0.6999999999999998;"/><text fill="#000000" font-family="sans-serif" font-size="9.8" lengthAdjust="spacing" textLength="235.9" x="116.55" y="181.5447">showBoardPermissions(List&lt;BoardUserPermissions&gt;)</text><ellipse cx="110.25" cy="191.5717" fill="#84BE84" rx="2.1" ry="2.1" style="stroke:#038048;stroke-width:0.6999999999999998;"/><text fill="#000000" font-family="sans-serif" font-size="9.8" lengthAdjust="spacing" textLength="232.4" x="116.55" y="194.5795">buildPermissionsMenu(List&lt;BoardUserPermissions&gt;)</text></g><!--class ShareBoardController--><g id="elem_ShareBoardController"><rect codeLine="11" fill="#F1F1F1" height="111.8086" id="ShareBoardController" rx="1.75" ry="1.75" style="stroke:#181818;stroke-width:0.3499999999999999;" width="207.9" x="127.05" y="254.8"/><ellipse cx="179.725" cy="266" fill="#ADD1B2" rx="7.7" ry="7.7" style="stroke:#181818;stroke-width:0.6999999999999998;"/><path d="M181.6609,263.1125 Q181.7703,262.9594 181.9016,262.8828 Q182.0328,262.8062 182.1859,262.8062 Q182.4484,262.8062 182.6125,262.9922 Q182.7766,263.1672 182.7766,263.5937 L182.7766,264.6109 Q182.7766,265.0375 182.6125,265.2234 Q182.4484,265.4094 182.1859,265.4094 Q181.9453,265.4094 181.8031,265.2672 Q181.6609,265.1359 181.5844,264.775 Q181.5516,264.5234 181.4203,264.3922 Q181.1906,264.1297 180.7641,263.9766 Q180.3375,263.8234 179.9,263.8234 Q179.3641,263.8234 178.9156,264.0531 Q178.4781,264.2828 178.1281,264.8078 Q177.7891,265.3328 177.7891,266.0547 L177.7891,266.8203 Q177.7891,267.6844 178.4125,268.2641 Q179.0359,268.8328 180.1516,268.8328 Q180.8078,268.8328 181.2672,268.6578 Q181.5406,268.5484 181.8359,268.2422 Q182.0219,268.0562 182.1203,268.0016 Q182.2297,267.9469 182.3719,267.9469 Q182.6016,267.9469 182.7766,268.1328 Q182.9625,268.3078 182.9625,268.5484 Q182.9625,268.7891 182.7219,269.0734 Q182.3719,269.4781 181.8141,269.7078 Q181.0594,270.025 180.1516,270.025 Q179.0906,270.025 178.2484,269.5875 Q177.5594,269.2375 177.0781,268.4937 Q176.5969,267.7391 176.5969,266.8422 L176.5969,266.0328 Q176.5969,265.1031 177.0234,264.3047 Q177.4609,263.4953 178.2266,263.0687 Q178.9922,262.6312 179.8562,262.6312 Q180.3703,262.6312 180.8187,262.7516 Q181.2781,262.8609 181.6609,263.1125 Z " fill="#000000"/><text fill="#000000" font-family="sans-serif" font-size="9.8" lengthAdjust="spacing" textLength="96.6" x="194.075" y="270.0578">ShareBoardController</text><line style="stroke:#181818;stroke-width:0.3499999999999999;" x1="127.75" x2="334.25" y1="277.2" y2="277.2"/><rect fill="none" height="4.2" style="stroke:#C82930;stroke-width:0.6999999999999998;" width="4.2" x="132.65" y="285.4674"/><text fill="#000000" font-family="sans-serif" font-size="9.8" lengthAdjust="spacing" textLength="19.6" x="141.05" y="290.5752">user</text><rect fill="none" height="4.2" style="stroke:#C82930;stroke-width:0.6999999999999998;" width="4.2" x="132.65" y="298.5021"/><text fill="#000000" font-family="sans-serif" font-size="9.8" lengthAdjust="spacing" textLength="67.2" x="141.05" y="303.61">userRepository</text><rect fill="none" height="4.2" style="stroke:#C82930;stroke-width:0.6999999999999998;" width="4.2" x="132.65" y="311.5369"/><text fill="#000000" font-family="sans-serif" font-size="9.8" lengthAdjust="spacing" textLength="74.2" x="141.05" y="316.6447">BoardRepository</text><line style="stroke:#181818;stroke-width:0.3499999999999999;" x1="127.75" x2="334.25" y1="321.9043" y2="321.9043"/><ellipse cx="134.75" cy="332.2717" fill="#84BE84" rx="2.1" ry="2.1" style="stroke:#038048;stroke-width:0.6999999999999998;"/><text fill="#000000" font-family="sans-serif" font-size="9.8" lengthAdjust="spacing" textLength="189.7" x="141.05" y="335.2795">getOwnedBoards(): List&lt;SharedBoardDto&gt;</text><ellipse cx="134.75" cy="345.3064" fill="#84BE84" rx="2.1" ry="2.1" style="stroke:#038048;stroke-width:0.6999999999999998;"/><text fill="#000000" font-family="sans-serif" font-size="9.8" lengthAdjust="spacing" textLength="130.9" x="141.05" y="348.3143">ValidateEmail(email): boolean</text><ellipse cx="134.75" cy="358.3412" fill="#84BE84" rx="2.1" ry="2.1" style="stroke:#038048;stroke-width:0.6999999999999998;"/><text fill="#000000" font-family="sans-serif" font-size="9.8" lengthAdjust="spacing" textLength="126" x="141.05" y="361.349">ShareBoard(id,permissions):</text></g><!--class RepositoryFactory--><g id="elem_RepositoryFactory"><rect codeLine="23" fill="#F1F1F1" height="33.6" id="RepositoryFactory" rx="1.75" ry="1.75" style="stroke:#181818;stroke-width:0.3499999999999999;" width="103.6" x="4.9" y="429.1"/><ellipse cx="15.4" cy="440.3" fill="#ADD1B2" rx="7.7" ry="7.7" style="stroke:#181818;stroke-width:0.6999999999999998;"/><path d="M17.3359,437.4125 Q17.4453,437.2594 17.5766,437.1828 Q17.7078,437.1062 17.8609,437.1062 Q18.1234,437.1062 18.2875,437.2922 Q18.4516,437.4672 18.4516,437.8937 L18.4516,438.9109 Q18.4516,439.3375 18.2875,439.5234 Q18.1234,439.7094 17.8609,439.7094 Q17.6203,439.7094 17.4781,439.5672 Q17.3359,439.4359 17.2594,439.075 Q17.2266,438.8234 17.0953,438.6922 Q16.8656,438.4297 16.4391,438.2766 Q16.0125,438.1234 15.575,438.1234 Q15.0391,438.1234 14.5906,438.3531 Q14.1531,438.5828 13.8031,439.1078 Q13.4641,439.6328 13.4641,440.3547 L13.4641,441.1203 Q13.4641,441.9844 14.0875,442.5641 Q14.7109,443.1328 15.8266,443.1328 Q16.4828,443.1328 16.9422,442.9578 Q17.2156,442.8484 17.5109,442.5422 Q17.6969,442.3562 17.7953,442.3016 Q17.9047,442.2469 18.0469,442.2469 Q18.2766,442.2469 18.4516,442.4328 Q18.6375,442.6078 18.6375,442.8484 Q18.6375,443.0891 18.3969,443.3734 Q18.0469,443.7781 17.4891,444.0078 Q16.7344,444.325 15.8266,444.325 Q14.7656,444.325 13.9234,443.8875 Q13.2344,443.5375 12.7531,442.7937 Q12.2719,442.0391 12.2719,441.1422 L12.2719,440.3328 Q12.2719,439.4031 12.6984,438.6047 Q13.1359,437.7953 13.9016,437.3687 Q14.6672,436.9312 15.5312,436.9312 Q16.0453,436.9312 16.4937,437.0516 Q16.9531,437.1609 17.3359,437.4125 Z " fill="#000000"/><text fill="#000000" font-family="sans-serif" font-size="9.8" lengthAdjust="spacing" textLength="81.2" x="25.2" y="444.3578">RepositoryFactory</text><line style="stroke:#181818;stroke-width:0.3499999999999999;" x1="5.6" x2="107.8" y1="451.5" y2="451.5"/><line style="stroke:#181818;stroke-width:0.3499999999999999;" x1="5.6" x2="107.8" y1="457.1" y2="457.1"/></g><!--class ShareBoardRepsitory--><g id="elem_ShareBoardRepsitory"><rect codeLine="27" fill="#F1F1F1" height="72.7043" id="ShareBoardRepsitory" rx="1.75" ry="1.75" style="stroke:#181818;stroke-width:0.3499999999999999;" width="196" x="133" y="409.5"/><ellipse cx="180.425" cy="420.7" fill="#ADD1B2" rx="7.7" ry="7.7" style="stroke:#181818;stroke-width:0.6999999999999998;"/><path d="M182.3609,417.8125 Q182.4703,417.6594 182.6016,417.5828 Q182.7328,417.5062 182.8859,417.5062 Q183.1484,417.5062 183.3125,417.6922 Q183.4766,417.8672 183.4766,418.2937 L183.4766,419.3109 Q183.4766,419.7375 183.3125,419.9234 Q183.1484,420.1094 182.8859,420.1094 Q182.6453,420.1094 182.5031,419.9672 Q182.3609,419.8359 182.2844,419.475 Q182.2516,419.2234 182.1203,419.0922 Q181.8906,418.8297 181.4641,418.6766 Q181.0375,418.5234 180.6,418.5234 Q180.0641,418.5234 179.6156,418.7531 Q179.1781,418.9828 178.8281,419.5078 Q178.4891,420.0328 178.4891,420.7547 L178.4891,421.5203 Q178.4891,422.3844 179.1125,422.9641 Q179.7359,423.5328 180.8516,423.5328 Q181.5078,423.5328 181.9672,423.3578 Q182.2406,423.2484 182.5359,422.9422 Q182.7219,422.7562 182.8203,422.7016 Q182.9297,422.6469 183.0719,422.6469 Q183.3016,422.6469 183.4766,422.8328 Q183.6625,423.0078 183.6625,423.2484 Q183.6625,423.4891 183.4219,423.7734 Q183.0719,424.1781 182.5141,424.4078 Q181.7594,424.725 180.8516,424.725 Q179.7906,424.725 178.9484,424.2875 Q178.2594,423.9375 177.7781,423.1937 Q177.2969,422.4391 177.2969,421.5422 L177.2969,420.7328 Q177.2969,419.8031 177.7234,419.0047 Q178.1609,418.1953 178.9266,417.7687 Q179.6922,417.3312 180.5562,417.3312 Q181.0703,417.3312 181.5187,417.4516 Q181.9781,417.5609 182.3609,417.8125 Z " fill="#000000"/><text fill="#000000" font-family="sans-serif" font-size="9.8" lengthAdjust="spacing" textLength="95.2" x="194.775" y="424.7578">ShareBoardRepsitory</text><line style="stroke:#181818;stroke-width:0.3499999999999999;" x1="133.7" x2="328.3" y1="431.9" y2="431.9"/><line style="stroke:#181818;stroke-width:0.3499999999999999;" x1="133.7" x2="328.3" y1="437.5" y2="437.5"/><ellipse cx="140.7" cy="447.8674" fill="#84BE84" rx="2.1" ry="2.1" style="stroke:#038048;stroke-width:0.6999999999999998;"/><text fill="#000000" font-family="sans-serif" font-size="9.8" lengthAdjust="spacing" textLength="167.3" x="147" y="450.8752">findBoardsIOwn(): List&lt;SharedBoard&gt;</text><ellipse cx="140.7" cy="460.9021" fill="#84BE84" rx="2.1" ry="2.1" style="stroke:#038048;stroke-width:0.6999999999999998;"/><text fill="#000000" font-family="sans-serif" font-size="9.8" lengthAdjust="spacing" textLength="177.8" x="147" y="463.91">findBoardsShared(): List&lt;SharedBoard&gt;</text><ellipse cx="140.7" cy="473.9369" fill="#84BE84" rx="2.1" ry="2.1" style="stroke:#038048;stroke-width:0.6999999999999998;"/><text fill="#000000" font-family="sans-serif" font-size="9.8" lengthAdjust="spacing" textLength="151.9" x="147" y="476.9447">saveShareBoard(boardId, postItId)</text></g><!--class SystemUser--><g id="elem_SystemUser"><rect codeLine="33" fill="#F1F1F1" height="79.6496" id="SystemUser" rx="1.75" ry="1.75" style="stroke:#181818;stroke-width:0.3499999999999999;" width="74.9" x="542.15" y="116.9"/><ellipse cx="552.65" cy="138.09" fill="#ADD1B2" rx="7.7" ry="7.7" style="stroke:#181818;stroke-width:0.6999999999999998;"/><path d="M554.5859,135.2025 Q554.6953,135.0494 554.8266,134.9729 Q554.9578,134.8963 555.1109,134.8963 Q555.3734,134.8963 555.5375,135.0822 Q555.7016,135.2572 555.7016,135.6838 L555.7016,136.701 Q555.7016,137.1275 555.5375,137.3135 Q555.3734,137.4994 555.1109,137.4994 Q554.8703,137.4994 554.7281,137.3572 Q554.5859,137.226 554.5094,136.865 Q554.4766,136.6135 554.3453,136.4822 Q554.1156,136.2197 553.6891,136.0666 Q553.2625,135.9135 552.825,135.9135 Q552.2891,135.9135 551.8406,136.1432 Q551.4031,136.3729 551.0531,136.8979 Q550.7141,137.4229 550.7141,138.1447 L550.7141,138.9104 Q550.7141,139.7744 551.3375,140.3541 Q551.9609,140.9229 553.0766,140.9229 Q553.7328,140.9229 554.1922,140.7479 Q554.4656,140.6385 554.7609,140.3322 Q554.9469,140.1463 555.0453,140.0916 Q555.1547,140.0369 555.2969,140.0369 Q555.5266,140.0369 555.7016,140.2229 Q555.8875,140.3979 555.8875,140.6385 Q555.8875,140.8791 555.6469,141.1635 Q555.2969,141.5682 554.7391,141.7979 Q553.9844,142.115 553.0766,142.115 Q552.0156,142.115 551.1734,141.6775 Q550.4844,141.3275 550.0031,140.5838 Q549.5219,139.8291 549.5219,138.9322 L549.5219,138.1229 Q549.5219,137.1932 549.9484,136.3947 Q550.3859,135.5854 551.1516,135.1588 Q551.9172,134.7213 552.7812,134.7213 Q553.2953,134.7213 553.7437,134.8416 Q554.2031,134.951 554.5859,135.2025 Z " fill="#000000"/><text fill="#000000" font-family="sans-serif" font-size="8.4" font-style="italic" lengthAdjust="spacing" textLength="24.5" x="576.45" y="129.4645">&#171;root&#187;</text><text fill="#000000" font-family="sans-serif" font-size="8.4" font-style="italic" lengthAdjust="spacing" textLength="30.8" x="573.3" y="140.6371">&#171;Entity&#187;</text><text fill="#000000" font-family="sans-serif" font-size="9.8" lengthAdjust="spacing" textLength="52.5" x="562.45" y="153.3205">SystemUser</text><line style="stroke:#181818;stroke-width:0.3499999999999999;" x1="542.85" x2="616.35" y1="159.2801" y2="159.2801"/><ellipse cx="549.85" cy="169.6475" fill="#000000" rx="2.1" ry="2.1" style="stroke:#000000;stroke-width:0.6999999999999998;"/><text fill="#000000" font-family="sans-serif" font-size="9.8" lengthAdjust="spacing" textLength="25.2" x="556.15" y="172.6553">Name</text><ellipse cx="549.85" cy="182.6822" fill="#000000" rx="2.1" ry="2.1" style="stroke:#000000;stroke-width:0.6999999999999998;"/><text fill="#000000" font-family="sans-serif" font-size="9.8" lengthAdjust="spacing" textLength="44.8" x="556.15" y="185.69">Username</text><line style="stroke:#181818;stroke-width:0.3499999999999999;" x1="542.85" x2="616.35" y1="190.9496" y2="190.9496"/></g><!--class eCourseSystemUser--><g id="elem_eCourseSystemUser"><rect codeLine="38" fill="#F1F1F1" height="53.5801" id="eCourseSystemUser" rx="1.75" ry="1.75" style="stroke:#181818;stroke-width:0.3499999999999999;" width="112.7" x="670.95" y="4.9"/><ellipse cx="681.45" cy="26.09" fill="#ADD1B2" rx="7.7" ry="7.7" style="stroke:#181818;stroke-width:0.6999999999999998;"/><path d="M683.3859,23.2025 Q683.4953,23.0494 683.6266,22.9729 Q683.7578,22.8963 683.9109,22.8963 Q684.1734,22.8963 684.3375,23.0822 Q684.5016,23.2572 684.5016,23.6838 L684.5016,24.701 Q684.5016,25.1275 684.3375,25.3135 Q684.1734,25.4994 683.9109,25.4994 Q683.6703,25.4994 683.5281,25.3572 Q683.3859,25.226 683.3094,24.865 Q683.2766,24.6135 683.1453,24.4822 Q682.9156,24.2197 682.4891,24.0666 Q682.0625,23.9135 681.625,23.9135 Q681.0891,23.9135 680.6406,24.1432 Q680.2031,24.3729 679.8531,24.8979 Q679.5141,25.4229 679.5141,26.1447 L679.5141,26.9104 Q679.5141,27.7744 680.1375,28.3541 Q680.7609,28.9229 681.8766,28.9229 Q682.5328,28.9229 682.9922,28.7479 Q683.2656,28.6385 683.5609,28.3322 Q683.7469,28.1463 683.8453,28.0916 Q683.9547,28.0369 684.0969,28.0369 Q684.3266,28.0369 684.5016,28.2229 Q684.6875,28.3979 684.6875,28.6385 Q684.6875,28.8791 684.4469,29.1635 Q684.0969,29.5682 683.5391,29.7979 Q682.7844,30.115 681.8766,30.115 Q680.8156,30.115 679.9734,29.6775 Q679.2844,29.3275 678.8031,28.5838 Q678.3219,27.8291 678.3219,26.9322 L678.3219,26.1229 Q678.3219,25.1932 678.7484,24.3947 Q679.1859,23.5854 679.9516,23.1588 Q680.7172,22.7213 681.5812,22.7213 Q682.0953,22.7213 682.5437,22.8416 Q683.0031,22.951 683.3859,23.2025 Z " fill="#000000"/><text fill="#000000" font-family="sans-serif" font-size="8.4" font-style="italic" lengthAdjust="spacing" textLength="24.5" x="724.15" y="17.4645">&#171;root&#187;</text><text fill="#000000" font-family="sans-serif" font-size="8.4" font-style="italic" lengthAdjust="spacing" textLength="30.8" x="721" y="28.6371">&#171;Entity&#187;</text><text fill="#000000" font-family="sans-serif" font-size="9.8" lengthAdjust="spacing" textLength="90.3" x="691.25" y="41.3205">eCourseSystemUser</text><line style="stroke:#181818;stroke-width:0.3499999999999999;" x1="671.65" x2="782.95" y1="47.2801" y2="47.2801"/><line style="stroke:#181818;stroke-width:0.3499999999999999;" x1="671.65" x2="782.95" y1="52.8801" y2="52.8801"/></g><!--class EmailAdderss--><g id="elem_EmailAdderss"><rect codeLine="42" fill="#F1F1F1" height="42.4074" id="EmailAdderss" rx="1.75" ry="1.75" style="stroke:#181818;stroke-width:0.3499999999999999;" width="82.6" x="486.5" y="289.45"/><ellipse cx="497" cy="305.0537" fill="#ADD1B2" rx="7.7" ry="7.7" style="stroke:#181818;stroke-width:0.6999999999999998;"/><path d="M498.9359,302.1662 Q499.0453,302.0131 499.1766,301.9365 Q499.3078,301.86 499.4609,301.86 Q499.7234,301.86 499.8875,302.0459 Q500.0516,302.2209 500.0516,302.6475 L500.0516,303.6646 Q500.0516,304.0912 499.8875,304.2771 Q499.7234,304.4631 499.4609,304.4631 Q499.2203,304.4631 499.0781,304.3209 Q498.9359,304.1896 498.8594,303.8287 Q498.8266,303.5771 498.6953,303.4459 Q498.4656,303.1834 498.0391,303.0303 Q497.6125,302.8771 497.175,302.8771 Q496.6391,302.8771 496.1906,303.1068 Q495.7531,303.3365 495.4031,303.8615 Q495.0641,304.3865 495.0641,305.1084 L495.0641,305.874 Q495.0641,306.7381 495.6875,307.3178 Q496.3109,307.8865 497.4266,307.8865 Q498.0828,307.8865 498.5422,307.7115 Q498.8156,307.6021 499.1109,307.2959 Q499.2969,307.11 499.3953,307.0553 Q499.5047,307.0006 499.6469,307.0006 Q499.8766,307.0006 500.0516,307.1865 Q500.2375,307.3615 500.2375,307.6021 Q500.2375,307.8428 499.9969,308.1271 Q499.6469,308.5318 499.0891,308.7615 Q498.3344,309.0787 497.4266,309.0787 Q496.3656,309.0787 495.5234,308.6412 Q494.8344,308.2912 494.3531,307.5475 Q493.8719,306.7928 493.8719,305.8959 L493.8719,305.0865 Q493.8719,304.1568 494.2984,303.3584 Q494.7359,302.549 495.5016,302.1225 Q496.2672,301.685 497.1312,301.685 Q497.6453,301.685 498.0937,301.8053 Q498.5531,301.9146 498.9359,302.1662 Z " fill="#000000"/><text fill="#000000" font-family="sans-serif" font-size="8.4" font-style="italic" lengthAdjust="spacing" textLength="58.1" x="507.85" y="302.0145">&#171;Value object&#187;</text><text fill="#000000" font-family="sans-serif" font-size="9.8" lengthAdjust="spacing" textLength="60.2" x="506.8" y="314.6979">EmailAdderss</text><line style="stroke:#181818;stroke-width:0.3499999999999999;" x1="487.2" x2="568.4" y1="320.6574" y2="320.6574"/><line style="stroke:#181818;stroke-width:0.3499999999999999;" x1="487.2" x2="568.4" y1="326.2574" y2="326.2574"/></g><!--class Role--><g id="elem_Role"><rect codeLine="44" fill="#F1F1F1" height="55.4422" id="Role" rx="1.75" ry="1.75" style="stroke:#181818;stroke-width:0.3499999999999999;" width="71.4" x="695.1" y="283.15"/><ellipse cx="715.05" cy="298.7537" fill="#ADD1B2" rx="7.7" ry="7.7" style="stroke:#181818;stroke-width:0.6999999999999998;"/><path d="M716.9859,295.8662 Q717.0953,295.7131 717.2266,295.6365 Q717.3578,295.56 717.5109,295.56 Q717.7734,295.56 717.9375,295.7459 Q718.1016,295.9209 718.1016,296.3475 L718.1016,297.3646 Q718.1016,297.7912 717.9375,297.9771 Q717.7734,298.1631 717.5109,298.1631 Q717.2703,298.1631 717.1281,298.0209 Q716.9859,297.8896 716.9094,297.5287 Q716.8766,297.2771 716.7453,297.1459 Q716.5156,296.8834 716.0891,296.7303 Q715.6625,296.5771 715.225,296.5771 Q714.6891,296.5771 714.2406,296.8068 Q713.8031,297.0365 713.4531,297.5615 Q713.1141,298.0865 713.1141,298.8084 L713.1141,299.574 Q713.1141,300.4381 713.7375,301.0178 Q714.3609,301.5865 715.4766,301.5865 Q716.1328,301.5865 716.5922,301.4115 Q716.8656,301.3021 717.1609,300.9959 Q717.3469,300.81 717.4453,300.7553 Q717.5547,300.7006 717.6969,300.7006 Q717.9266,300.7006 718.1016,300.8865 Q718.2875,301.0615 718.2875,301.3021 Q718.2875,301.5428 718.0469,301.8271 Q717.6969,302.2318 717.1391,302.4615 Q716.3844,302.7787 715.4766,302.7787 Q714.4156,302.7787 713.5734,302.3412 Q712.8844,301.9912 712.4031,301.2475 Q711.9219,300.4928 711.9219,299.5959 L711.9219,298.7865 Q711.9219,297.8568 712.3484,297.0584 Q712.7859,296.249 713.5516,295.8225 Q714.3172,295.385 715.1812,295.385 Q715.6953,295.385 716.1437,295.5053 Q716.6031,295.6146 716.9859,295.8662 Z " fill="#000000"/><text fill="#000000" font-family="sans-serif" font-size="8.4" font-style="italic" lengthAdjust="spacing" textLength="30.8" x="725.55" y="295.7145">&#171;Entity&#187;</text><text fill="#000000" font-family="sans-serif" font-size="9.8" lengthAdjust="spacing" textLength="20.3" x="730.8" y="308.3979">Role</text><line style="stroke:#181818;stroke-width:0.3499999999999999;" x1="695.8" x2="765.8" y1="314.3574" y2="314.3574"/><ellipse cx="702.8" cy="324.7248" fill="#000000" rx="2.1" ry="2.1" style="stroke:#000000;stroke-width:0.6999999999999998;"/><text fill="#000000" font-family="sans-serif" font-size="9.8" lengthAdjust="spacing" textLength="53.2" x="709.1" y="327.7326">String name</text><line style="stroke:#181818;stroke-width:0.3499999999999999;" x1="695.8" x2="765.8" y1="332.9922" y2="332.9922"/></g><!--class UserStatus--><g id="elem_UserStatus"><rect codeLine="48" fill="#F1F1F1" height="68.477" id="UserStatus" rx="1.75" ry="1.75" style="stroke:#181818;stroke-width:0.3499999999999999;" width="70.7" x="691.95" y="122.5"/><ellipse cx="702.45" cy="138.1037" fill="#ADD1B2" rx="7.7" ry="7.7" style="stroke:#181818;stroke-width:0.6999999999999998;"/><path d="M704.3859,135.2162 Q704.4953,135.0631 704.6266,134.9865 Q704.7578,134.91 704.9109,134.91 Q705.1734,134.91 705.3375,135.0959 Q705.5016,135.2709 705.5016,135.6975 L705.5016,136.7146 Q705.5016,137.1412 705.3375,137.3271 Q705.1734,137.5131 704.9109,137.5131 Q704.6703,137.5131 704.5281,137.3709 Q704.3859,137.2396 704.3094,136.8787 Q704.2766,136.6271 704.1453,136.4959 Q703.9156,136.2334 703.4891,136.0803 Q703.0625,135.9271 702.625,135.9271 Q702.0891,135.9271 701.6406,136.1568 Q701.2031,136.3865 700.8531,136.9115 Q700.5141,137.4365 700.5141,138.1584 L700.5141,138.924 Q700.5141,139.7881 701.1375,140.3678 Q701.7609,140.9365 702.8766,140.9365 Q703.5328,140.9365 703.9922,140.7615 Q704.2656,140.6521 704.5609,140.3459 Q704.7469,140.16 704.8453,140.1053 Q704.9547,140.0506 705.0969,140.0506 Q705.3266,140.0506 705.5016,140.2365 Q705.6875,140.4115 705.6875,140.6521 Q705.6875,140.8928 705.4469,141.1771 Q705.0969,141.5818 704.5391,141.8115 Q703.7844,142.1287 702.8766,142.1287 Q701.8156,142.1287 700.9734,141.6912 Q700.2844,141.3412 699.8031,140.5975 Q699.3219,139.8428 699.3219,138.9459 L699.3219,138.1365 Q699.3219,137.2068 699.7484,136.4084 Q700.1859,135.599 700.9516,135.1725 Q701.7172,134.735 702.5812,134.735 Q703.0953,134.735 703.5437,134.8553 Q704.0031,134.9646 704.3859,135.2162 Z " fill="#000000"/><text fill="#000000" font-family="sans-serif" font-size="8.4" font-style="italic" lengthAdjust="spacing" textLength="32.2" x="720.3" y="135.0645">&#171;enum&#187;</text><text fill="#000000" font-family="sans-serif" font-size="9.8" lengthAdjust="spacing" textLength="48.3" x="712.25" y="147.7479">UserStatus</text><line style="stroke:#181818;stroke-width:0.3499999999999999;" x1="692.65" x2="761.95" y1="153.7074" y2="153.7074"/><ellipse cx="699.65" cy="164.0748" fill="none" rx="2.1" ry="2.1" style="stroke:#038048;stroke-width:0.6999999999999998;"/><text fill="#000000" font-family="sans-serif" font-size="9.8" lengthAdjust="spacing" textLength="37.1" x="705.95" y="167.0826">ENABLE</text><ellipse cx="699.65" cy="177.1096" fill="none" rx="2.1" ry="2.1" style="stroke:#038048;stroke-width:0.6999999999999998;"/><text fill="#000000" font-family="sans-serif" font-size="9.8" lengthAdjust="spacing" textLength="39.9" x="705.95" y="180.1174">DISABLE</text><line style="stroke:#181818;stroke-width:0.3499999999999999;" x1="692.65" x2="761.95" y1="185.377" y2="185.377"/></g><!--class Password--><g id="elem_Password"><rect codeLine="53" fill="#F1F1F1" height="42.4074" id="Password" rx="1.75" ry="1.75" style="stroke:#181818;stroke-width:0.3499999999999999;" width="76.3" x="593.95" y="289.45"/><ellipse cx="604.45" cy="305.0537" fill="#ADD1B2" rx="7.7" ry="7.7" style="stroke:#181818;stroke-width:0.6999999999999998;"/><path d="M606.3859,302.1662 Q606.4953,302.0131 606.6266,301.9365 Q606.7578,301.86 606.9109,301.86 Q607.1734,301.86 607.3375,302.0459 Q607.5016,302.2209 607.5016,302.6475 L607.5016,303.6646 Q607.5016,304.0912 607.3375,304.2771 Q607.1734,304.4631 606.9109,304.4631 Q606.6703,304.4631 606.5281,304.3209 Q606.3859,304.1896 606.3094,303.8287 Q606.2766,303.5771 606.1453,303.4459 Q605.9156,303.1834 605.4891,303.0303 Q605.0625,302.8771 604.625,302.8771 Q604.0891,302.8771 603.6406,303.1068 Q603.2031,303.3365 602.8531,303.8615 Q602.5141,304.3865 602.5141,305.1084 L602.5141,305.874 Q602.5141,306.7381 603.1375,307.3178 Q603.7609,307.8865 604.8766,307.8865 Q605.5328,307.8865 605.9922,307.7115 Q606.2656,307.6021 606.5609,307.2959 Q606.7469,307.11 606.8453,307.0553 Q606.9547,307.0006 607.0969,307.0006 Q607.3266,307.0006 607.5016,307.1865 Q607.6875,307.3615 607.6875,307.6021 Q607.6875,307.8428 607.4469,308.1271 Q607.0969,308.5318 606.5391,308.7615 Q605.7844,309.0787 604.8766,309.0787 Q603.8156,309.0787 602.9734,308.6412 Q602.2844,308.2912 601.8031,307.5475 Q601.3219,306.7928 601.3219,305.8959 L601.3219,305.0865 Q601.3219,304.1568 601.7484,303.3584 Q602.1859,302.549 602.9516,302.1225 Q603.7172,301.685 604.5812,301.685 Q605.0953,301.685 605.5437,301.8053 Q606.0031,301.9146 606.3859,302.1662 Z " fill="#000000"/><text fill="#000000" font-family="sans-serif" font-size="8.4" font-style="italic" lengthAdjust="spacing" textLength="56.7" x="612.85" y="302.0145">&#171;value object&#187;</text><text fill="#000000" font-family="sans-serif" font-size="9.8" lengthAdjust="spacing" textLength="42.7" x="619.85" y="314.6979">Password</text><line style="stroke:#181818;stroke-width:0.3499999999999999;" x1="594.65" x2="669.55" y1="320.6574" y2="320.6574"/><line style="stroke:#181818;stroke-width:0.3499999999999999;" x1="594.65" x2="669.55" y1="326.2574" y2="326.2574"/></g><!--class Acronym--><g id="elem_Acronym"><rect codeLine="55" fill="#F1F1F1" height="42.4074" id="Acronym" rx="1.75" ry="1.75" style="stroke:#181818;stroke-width:0.3499999999999999;" width="76.3" x="787.15" y="135.45"/><ellipse cx="797.65" cy="151.0537" fill="#ADD1B2" rx="7.7" ry="7.7" style="stroke:#181818;stroke-width:0.6999999999999998;"/><path d="M799.5859,148.1662 Q799.6953,148.0131 799.8266,147.9365 Q799.9578,147.86 800.1109,147.86 Q800.3734,147.86 800.5375,148.0459 Q800.7016,148.2209 800.7016,148.6475 L800.7016,149.6646 Q800.7016,150.0912 800.5375,150.2771 Q800.3734,150.4631 800.1109,150.4631 Q799.8703,150.4631 799.7281,150.3209 Q799.5859,150.1896 799.5094,149.8287 Q799.4766,149.5771 799.3453,149.4459 Q799.1156,149.1834 798.6891,149.0303 Q798.2625,148.8771 797.825,148.8771 Q797.2891,148.8771 796.8406,149.1068 Q796.4031,149.3365 796.0531,149.8615 Q795.7141,150.3865 795.7141,151.1084 L795.7141,151.874 Q795.7141,152.7381 796.3375,153.3178 Q796.9609,153.8865 798.0766,153.8865 Q798.7328,153.8865 799.1922,153.7115 Q799.4656,153.6021 799.7609,153.2959 Q799.9469,153.11 800.0453,153.0553 Q800.1547,153.0006 800.2969,153.0006 Q800.5266,153.0006 800.7016,153.1865 Q800.8875,153.3615 800.8875,153.6021 Q800.8875,153.8428 800.6469,154.1271 Q800.2969,154.5318 799.7391,154.7615 Q798.9844,155.0787 798.0766,155.0787 Q797.0156,155.0787 796.1734,154.6412 Q795.4844,154.2912 795.0031,153.5475 Q794.5219,152.7928 794.5219,151.8959 L794.5219,151.0865 Q794.5219,150.1568 794.9484,149.3584 Q795.3859,148.549 796.1516,148.1225 Q796.9172,147.685 797.7812,147.685 Q798.2953,147.685 798.7437,147.8053 Q799.2031,147.9146 799.5859,148.1662 Z " fill="#000000"/><text fill="#000000" font-family="sans-serif" font-size="8.4" font-style="italic" lengthAdjust="spacing" textLength="56.7" x="806.05" y="148.0145">&#171;value object&#187;</text><text fill="#000000" font-family="sans-serif" font-size="9.8" lengthAdjust="spacing" textLength="38.5" x="815.15" y="160.6979">Acronym</text><line style="stroke:#181818;stroke-width:0.3499999999999999;" x1="787.85" x2="862.75" y1="166.6574" y2="166.6574"/><line style="stroke:#181818;stroke-width:0.3499999999999999;" x1="787.85" x2="862.75" y1="172.2574" y2="172.2574"/></g><!--class NIF--><g id="elem_NIF"><rect codeLine="57" fill="#F1F1F1" height="42.4074" id="NIF" rx="1.75" ry="1.75" style="stroke:#181818;stroke-width:0.3499999999999999;" width="76.3" x="887.95" y="135.45"/><ellipse cx="898.45" cy="151.0537" fill="#ADD1B2" rx="7.7" ry="7.7" style="stroke:#181818;stroke-width:0.6999999999999998;"/><path d="M900.3859,148.1662 Q900.4953,148.0131 900.6266,147.9365 Q900.7578,147.86 900.9109,147.86 Q901.1734,147.86 901.3375,148.0459 Q901.5016,148.2209 901.5016,148.6475 L901.5016,149.6646 Q901.5016,150.0912 901.3375,150.2771 Q901.1734,150.4631 900.9109,150.4631 Q900.6703,150.4631 900.5281,150.3209 Q900.3859,150.1896 900.3094,149.8287 Q900.2766,149.5771 900.1453,149.4459 Q899.9156,149.1834 899.4891,149.0303 Q899.0625,148.8771 898.625,148.8771 Q898.0891,148.8771 897.6406,149.1068 Q897.2031,149.3365 896.8531,149.8615 Q896.5141,150.3865 896.5141,151.1084 L896.5141,151.874 Q896.5141,152.7381 897.1375,153.3178 Q897.7609,153.8865 898.8766,153.8865 Q899.5328,153.8865 899.9922,153.7115 Q900.2656,153.6021 900.5609,153.2959 Q900.7469,153.11 900.8453,153.0553 Q900.9547,153.0006 901.0969,153.0006 Q901.3266,153.0006 901.5016,153.1865 Q901.6875,153.3615 901.6875,153.6021 Q901.6875,153.8428 901.4469,154.1271 Q901.0969,154.5318 900.5391,154.7615 Q899.7844,155.0787 898.8766,155.0787 Q897.8156,155.0787 896.9734,154.6412 Q896.2844,154.2912 895.8031,153.5475 Q895.3219,152.7928 895.3219,151.8959 L895.3219,151.0865 Q895.3219,150.1568 895.7484,149.3584 Q896.1859,148.549 896.9516,148.1225 Q897.7172,147.685 898.5812,147.685 Q899.0953,147.685 899.5437,147.8053 Q900.0031,147.9146 900.3859,148.1662 Z " fill="#000000"/><text fill="#000000" font-family="sans-serif" font-size="8.4" font-style="italic" lengthAdjust="spacing" textLength="56.7" x="906.85" y="148.0145">&#171;value object&#187;</text><text fill="#000000" font-family="sans-serif" font-size="9.8" lengthAdjust="spacing" textLength="14.7" x="927.85" y="160.6979">NIF</text><line style="stroke:#181818;stroke-width:0.3499999999999999;" x1="888.65" x2="963.55" y1="166.6574" y2="166.6574"/><line style="stroke:#181818;stroke-width:0.3499999999999999;" x1="888.65" x2="963.55" y1="172.2574" y2="172.2574"/></g><!--class BirthDate--><g id="elem_BirthDate"><rect codeLine="59" fill="#F1F1F1" height="42.4074" id="BirthDate" rx="1.75" ry="1.75" style="stroke:#181818;stroke-width:0.3499999999999999;" width="76.3" x="988.75" y="135.45"/><ellipse cx="999.25" cy="151.0537" fill="#ADD1B2" rx="7.7" ry="7.7" style="stroke:#181818;stroke-width:0.6999999999999998;"/><path d="M1001.1859,148.1662 Q1001.2953,148.0131 1001.4266,147.9365 Q1001.5578,147.86 1001.7109,147.86 Q1001.9734,147.86 1002.1375,148.0459 Q1002.3016,148.2209 1002.3016,148.6475 L1002.3016,149.6646 Q1002.3016,150.0912 1002.1375,150.2771 Q1001.9734,150.4631 1001.7109,150.4631 Q1001.4703,150.4631 1001.3281,150.3209 Q1001.1859,150.1896 1001.1094,149.8287 Q1001.0766,149.5771 1000.9453,149.4459 Q1000.7156,149.1834 1000.2891,149.0303 Q999.8625,148.8771 999.425,148.8771 Q998.8891,148.8771 998.4406,149.1068 Q998.0031,149.3365 997.6531,149.8615 Q997.3141,150.3865 997.3141,151.1084 L997.3141,151.874 Q997.3141,152.7381 997.9375,153.3178 Q998.5609,153.8865 999.6766,153.8865 Q1000.3328,153.8865 1000.7922,153.7115 Q1001.0656,153.6021 1001.3609,153.2959 Q1001.5469,153.11 1001.6453,153.0553 Q1001.7547,153.0006 1001.8969,153.0006 Q1002.1266,153.0006 1002.3016,153.1865 Q1002.4875,153.3615 1002.4875,153.6021 Q1002.4875,153.8428 1002.2469,154.1271 Q1001.8969,154.5318 1001.3391,154.7615 Q1000.5844,155.0787 999.6766,155.0787 Q998.6156,155.0787 997.7734,154.6412 Q997.0844,154.2912 996.6031,153.5475 Q996.1219,152.7928 996.1219,151.8959 L996.1219,151.0865 Q996.1219,150.1568 996.5484,149.3584 Q996.9859,148.549 997.7516,148.1225 Q998.5172,147.685 999.3812,147.685 Q999.8953,147.685 1000.3437,147.8053 Q1000.8031,147.9146 1001.1859,148.1662 Z " fill="#000000"/><text fill="#000000" font-family="sans-serif" font-size="8.4" font-style="italic" lengthAdjust="spacing" textLength="56.7" x="1007.65" y="148.0145">&#171;value object&#187;</text><text fill="#000000" font-family="sans-serif" font-size="9.8" lengthAdjust="spacing" textLength="41.3" x="1015.35" y="160.6979">BirthDate</text><line style="stroke:#181818;stroke-width:0.3499999999999999;" x1="989.45" x2="1064.35" y1="166.6574" y2="166.6574"/><line style="stroke:#181818;stroke-width:0.3499999999999999;" x1="989.45" x2="1064.35" y1="172.2574" y2="172.2574"/></g><!--class MechanographicNumber--><g id="elem_MechanographicNumber"><rect codeLine="61" fill="#F1F1F1" height="53.5801" id="MechanographicNumber" rx="1.75" ry="1.75" style="stroke:#181818;stroke-width:0.3499999999999999;" width="130.2" x="1089.9" y="129.85"/><ellipse cx="1100.4" cy="151.04" fill="#ADD1B2" rx="7.7" ry="7.7" style="stroke:#181818;stroke-width:0.6999999999999998;"/><path d="M1102.3359,148.1525 Q1102.4453,147.9994 1102.5766,147.9229 Q1102.7078,147.8463 1102.8609,147.8463 Q1103.1234,147.8463 1103.2875,148.0322 Q1103.4516,148.2072 1103.4516,148.6338 L1103.4516,149.651 Q1103.4516,150.0775 1103.2875,150.2635 Q1103.1234,150.4494 1102.8609,150.4494 Q1102.6203,150.4494 1102.4781,150.3072 Q1102.3359,150.176 1102.2594,149.815 Q1102.2266,149.5635 1102.0953,149.4322 Q1101.8656,149.1697 1101.4391,149.0166 Q1101.0125,148.8635 1100.575,148.8635 Q1100.0391,148.8635 1099.5906,149.0932 Q1099.1531,149.3229 1098.8031,149.8479 Q1098.4641,150.3729 1098.4641,151.0947 L1098.4641,151.8604 Q1098.4641,152.7244 1099.0875,153.3041 Q1099.7109,153.8729 1100.8266,153.8729 Q1101.4828,153.8729 1101.9422,153.6979 Q1102.2156,153.5885 1102.5109,153.2822 Q1102.6969,153.0963 1102.7953,153.0416 Q1102.9047,152.9869 1103.0469,152.9869 Q1103.2766,152.9869 1103.4516,153.1729 Q1103.6375,153.3479 1103.6375,153.5885 Q1103.6375,153.8291 1103.3969,154.1135 Q1103.0469,154.5182 1102.4891,154.7479 Q1101.7344,155.065 1100.8266,155.065 Q1099.7656,155.065 1098.9234,154.6275 Q1098.2344,154.2775 1097.7531,153.5338 Q1097.2719,152.7791 1097.2719,151.8822 L1097.2719,151.0729 Q1097.2719,150.1432 1097.6984,149.3447 Q1098.1359,148.5354 1098.9016,148.1088 Q1099.6672,147.6713 1100.5312,147.6713 Q1101.0453,147.6713 1101.4937,147.7916 Q1101.9531,147.901 1102.3359,148.1525 Z " fill="#000000"/><text fill="#000000" font-family="sans-serif" font-size="8.4" font-style="italic" lengthAdjust="spacing" textLength="56.7" x="1135.75" y="142.4145">&#171;value object&#187;</text><text fill="#000000" font-family="sans-serif" font-size="8.4" font-style="italic" lengthAdjust="spacing" textLength="102.2" x="1113" y="153.5871">&#171;automatically generated&#187;</text><text fill="#000000" font-family="sans-serif" font-size="9.8" lengthAdjust="spacing" textLength="107.8" x="1110.2" y="166.2705">MechanographicNumber</text><line style="stroke:#181818;stroke-width:0.3499999999999999;" x1="1090.6" x2="1219.4" y1="172.2301" y2="172.2301"/><line style="stroke:#181818;stroke-width:0.3499999999999999;" x1="1090.6" x2="1219.4" y1="177.8301" y2="177.8301"/></g><!--class Grade--><g id="elem_Grade"><rect codeLine="63" fill="#F1F1F1" height="42.4074" id="Grade" rx="1.75" ry="1.75" style="stroke:#181818;stroke-width:0.3499999999999999;" width="76.3" x="1244.95" y="135.45"/><ellipse cx="1255.45" cy="151.0537" fill="#ADD1B2" rx="7.7" ry="7.7" style="stroke:#181818;stroke-width:0.6999999999999998;"/><path d="M1257.3859,148.1662 Q1257.4953,148.0131 1257.6266,147.9365 Q1257.7578,147.86 1257.9109,147.86 Q1258.1734,147.86 1258.3375,148.0459 Q1258.5016,148.2209 1258.5016,148.6475 L1258.5016,149.6646 Q1258.5016,150.0912 1258.3375,150.2771 Q1258.1734,150.4631 1257.9109,150.4631 Q1257.6703,150.4631 1257.5281,150.3209 Q1257.3859,150.1896 1257.3094,149.8287 Q1257.2766,149.5771 1257.1453,149.4459 Q1256.9156,149.1834 1256.4891,149.0303 Q1256.0625,148.8771 1255.625,148.8771 Q1255.0891,148.8771 1254.6406,149.1068 Q1254.2031,149.3365 1253.8531,149.8615 Q1253.5141,150.3865 1253.5141,151.1084 L1253.5141,151.874 Q1253.5141,152.7381 1254.1375,153.3178 Q1254.7609,153.8865 1255.8766,153.8865 Q1256.5328,153.8865 1256.9922,153.7115 Q1257.2656,153.6021 1257.5609,153.2959 Q1257.7469,153.11 1257.8453,153.0553 Q1257.9547,153.0006 1258.0969,153.0006 Q1258.3266,153.0006 1258.5016,153.1865 Q1258.6875,153.3615 1258.6875,153.6021 Q1258.6875,153.8428 1258.4469,154.1271 Q1258.0969,154.5318 1257.5391,154.7615 Q1256.7844,155.0787 1255.8766,155.0787 Q1254.8156,155.0787 1253.9734,154.6412 Q1253.2844,154.2912 1252.8031,153.5475 Q1252.3219,152.7928 1252.3219,151.8959 L1252.3219,151.0865 Q1252.3219,150.1568 1252.7484,149.3584 Q1253.1859,148.549 1253.9516,148.1225 Q1254.7172,147.685 1255.5812,147.685 Q1256.0953,147.685 1256.5437,147.8053 Q1257.0031,147.9146 1257.3859,148.1662 Z " fill="#000000"/><text fill="#000000" font-family="sans-serif" font-size="8.4" font-style="italic" lengthAdjust="spacing" textLength="56.7" x="1263.85" y="148.0145">&#171;value object&#187;</text><text fill="#000000" font-family="sans-serif" font-size="9.8" lengthAdjust="spacing" textLength="28" x="1278.2" y="160.6979">Grade</text><line style="stroke:#181818;stroke-width:0.3499999999999999;" x1="1245.65" x2="1320.55" y1="166.6574" y2="166.6574"/><line style="stroke:#181818;stroke-width:0.3499999999999999;" x1="1245.65" x2="1320.55" y1="172.2574" y2="172.2574"/></g><!--class SharedBoard--><g id="elem_SharedBoard"><rect fill="#F1F1F1" height="33.6" id="SharedBoard" rx="1.75" ry="1.75" style="stroke:#181818;stroke-width:0.3499999999999999;" width="81.2" x="353.5" y="429.1"/><ellipse cx="364" cy="440.3" fill="#ADD1B2" rx="7.7" ry="7.7" style="stroke:#181818;stroke-width:0.6999999999999998;"/><path d="M365.9359,437.4125 Q366.0453,437.2594 366.1766,437.1828 Q366.3078,437.1062 366.4609,437.1062 Q366.7234,437.1062 366.8875,437.2922 Q367.0516,437.4672 367.0516,437.8937 L367.0516,438.9109 Q367.0516,439.3375 366.8875,439.5234 Q366.7234,439.7094 366.4609,439.7094 Q366.2203,439.7094 366.0781,439.5672 Q365.9359,439.4359 365.8594,439.075 Q365.8266,438.8234 365.6953,438.6922 Q365.4656,438.4297 365.0391,438.2766 Q364.6125,438.1234 364.175,438.1234 Q363.6391,438.1234 363.1906,438.3531 Q362.7531,438.5828 362.4031,439.1078 Q362.0641,439.6328 362.0641,440.3547 L362.0641,441.1203 Q362.0641,441.9844 362.6875,442.5641 Q363.3109,443.1328 364.4266,443.1328 Q365.0828,443.1328 365.5422,442.9578 Q365.8156,442.8484 366.1109,442.5422 Q366.2969,442.3562 366.3953,442.3016 Q366.5047,442.2469 366.6469,442.2469 Q366.8766,442.2469 367.0516,442.4328 Q367.2375,442.6078 367.2375,442.8484 Q367.2375,443.0891 366.9969,443.3734 Q366.6469,443.7781 366.0891,444.0078 Q365.3344,444.325 364.4266,444.325 Q363.3656,444.325 362.5234,443.8875 Q361.8344,443.5375 361.3531,442.7937 Q360.8719,442.0391 360.8719,441.1422 L360.8719,440.3328 Q360.8719,439.4031 361.2984,438.6047 Q361.7359,437.7953 362.5016,437.3687 Q363.2672,436.9312 364.1312,436.9312 Q364.6453,436.9312 365.0937,437.0516 Q365.5531,437.1609 365.9359,437.4125 Z " fill="#000000"/><text fill="#000000" font-family="sans-serif" font-size="9.8" lengthAdjust="spacing" textLength="58.8" x="373.8" y="444.3578">SharedBoard</text><line style="stroke:#181818;stroke-width:0.3499999999999999;" x1="354.2" x2="434" y1="451.5" y2="451.5"/><line style="stroke:#181818;stroke-width:0.3499999999999999;" x1="354.2" x2="434" y1="457.1" y2="457.1"/></g><!--class RowCell--><g id="elem_RowCell"><rect fill="#F1F1F1" height="33.6" id="RowCell" rx="1.75" ry="1.75" style="stroke:#181818;stroke-width:0.3499999999999999;" width="58.1" x="274.75" y="537.6"/><ellipse cx="285.25" cy="548.8" fill="#ADD1B2" rx="7.7" ry="7.7" style="stroke:#181818;stroke-width:0.6999999999999998;"/><path d="M287.1859,545.9125 Q287.2953,545.7594 287.4266,545.6828 Q287.5578,545.6062 287.7109,545.6062 Q287.9734,545.6062 288.1375,545.7922 Q288.3016,545.9672 288.3016,546.3937 L288.3016,547.4109 Q288.3016,547.8375 288.1375,548.0234 Q287.9734,548.2094 287.7109,548.2094 Q287.4703,548.2094 287.3281,548.0672 Q287.1859,547.9359 287.1094,547.575 Q287.0766,547.3234 286.9453,547.1922 Q286.7156,546.9297 286.2891,546.7766 Q285.8625,546.6234 285.425,546.6234 Q284.8891,546.6234 284.4406,546.8531 Q284.0031,547.0828 283.6531,547.6078 Q283.3141,548.1328 283.3141,548.8547 L283.3141,549.6203 Q283.3141,550.4844 283.9375,551.0641 Q284.5609,551.6328 285.6766,551.6328 Q286.3328,551.6328 286.7922,551.4578 Q287.0656,551.3484 287.3609,551.0422 Q287.5469,550.8562 287.6453,550.8016 Q287.7547,550.7469 287.8969,550.7469 Q288.1266,550.7469 288.3016,550.9328 Q288.4875,551.1078 288.4875,551.3484 Q288.4875,551.5891 288.2469,551.8734 Q287.8969,552.2781 287.3391,552.5078 Q286.5844,552.825 285.6766,552.825 Q284.6156,552.825 283.7734,552.3875 Q283.0844,552.0375 282.6031,551.2937 Q282.1219,550.5391 282.1219,549.6422 L282.1219,548.8328 Q282.1219,547.9031 282.5484,547.1047 Q282.9859,546.2953 283.7516,545.8687 Q284.5172,545.4312 285.3812,545.4312 Q285.8953,545.4312 286.3437,545.5516 Q286.8031,545.6609 287.1859,545.9125 Z " fill="#000000"/><text fill="#000000" font-family="sans-serif" font-size="9.8" lengthAdjust="spacing" textLength="35.7" x="295.05" y="552.8578">RowCell</text><line style="stroke:#181818;stroke-width:0.3499999999999999;" x1="275.45" x2="332.15" y1="560" y2="560"/><line style="stroke:#181818;stroke-width:0.3499999999999999;" x1="275.45" x2="332.15" y1="565.6" y2="565.6"/></g><!--class ColumnCell--><g id="elem_ColumnCell"><rect fill="#F1F1F1" height="33.6" id="ColumnCell" rx="1.75" ry="1.75" style="stroke:#181818;stroke-width:0.3499999999999999;" width="72.8" x="357.7" y="537.6"/><ellipse cx="368.2" cy="548.8" fill="#ADD1B2" rx="7.7" ry="7.7" style="stroke:#181818;stroke-width:0.6999999999999998;"/><path d="M370.1359,545.9125 Q370.2453,545.7594 370.3766,545.6828 Q370.5078,545.6062 370.6609,545.6062 Q370.9234,545.6062 371.0875,545.7922 Q371.2516,545.9672 371.2516,546.3937 L371.2516,547.4109 Q371.2516,547.8375 371.0875,548.0234 Q370.9234,548.2094 370.6609,548.2094 Q370.4203,548.2094 370.2781,548.0672 Q370.1359,547.9359 370.0594,547.575 Q370.0266,547.3234 369.8953,547.1922 Q369.6656,546.9297 369.2391,546.7766 Q368.8125,546.6234 368.375,546.6234 Q367.8391,546.6234 367.3906,546.8531 Q366.9531,547.0828 366.6031,547.6078 Q366.2641,548.1328 366.2641,548.8547 L366.2641,549.6203 Q366.2641,550.4844 366.8875,551.0641 Q367.5109,551.6328 368.6266,551.6328 Q369.2828,551.6328 369.7422,551.4578 Q370.0156,551.3484 370.3109,551.0422 Q370.4969,550.8562 370.5953,550.8016 Q370.7047,550.7469 370.8469,550.7469 Q371.0766,550.7469 371.2516,550.9328 Q371.4375,551.1078 371.4375,551.3484 Q371.4375,551.5891 371.1969,551.8734 Q370.8469,552.2781 370.2891,552.5078 Q369.5344,552.825 368.6266,552.825 Q367.5656,552.825 366.7234,552.3875 Q366.0344,552.0375 365.5531,551.2937 Q365.0719,550.5391 365.0719,549.6422 L365.0719,548.8328 Q365.0719,547.9031 365.4984,547.1047 Q365.9359,546.2953 366.7016,545.8687 Q367.4672,545.4312 368.3312,545.4312 Q368.8453,545.4312 369.2937,545.5516 Q369.7531,545.6609 370.1359,545.9125 Z " fill="#000000"/><text fill="#000000" font-family="sans-serif" font-size="9.8" lengthAdjust="spacing" textLength="50.4" x="378" y="552.8578">ColumnCell</text><line style="stroke:#181818;stroke-width:0.3499999999999999;" x1="358.4" x2="429.8" y1="560" y2="560"/><line style="stroke:#181818;stroke-width:0.3499999999999999;" x1="358.4" x2="429.8" y1="565.6" y2="565.6"/></g><!--class NormalCell--><g id="elem_NormalCell"><rect fill="#F1F1F1" height="33.6" id="NormalCell" rx="1.75" ry="1.75" style="stroke:#181818;stroke-width:0.3499999999999999;" width="70" x="455" y="537.6"/><ellipse cx="465.5" cy="548.8" fill="#ADD1B2" rx="7.7" ry="7.7" style="stroke:#181818;stroke-width:0.6999999999999998;"/><path d="M467.4359,545.9125 Q467.5453,545.7594 467.6766,545.6828 Q467.8078,545.6062 467.9609,545.6062 Q468.2234,545.6062 468.3875,545.7922 Q468.5516,545.9672 468.5516,546.3937 L468.5516,547.4109 Q468.5516,547.8375 468.3875,548.0234 Q468.2234,548.2094 467.9609,548.2094 Q467.7203,548.2094 467.5781,548.0672 Q467.4359,547.9359 467.3594,547.575 Q467.3266,547.3234 467.1953,547.1922 Q466.9656,546.9297 466.5391,546.7766 Q466.1125,546.6234 465.675,546.6234 Q465.1391,546.6234 464.6906,546.8531 Q464.2531,547.0828 463.9031,547.6078 Q463.5641,548.1328 463.5641,548.8547 L463.5641,549.6203 Q463.5641,550.4844 464.1875,551.0641 Q464.8109,551.6328 465.9266,551.6328 Q466.5828,551.6328 467.0422,551.4578 Q467.3156,551.3484 467.6109,551.0422 Q467.7969,550.8562 467.8953,550.8016 Q468.0047,550.7469 468.1469,550.7469 Q468.3766,550.7469 468.5516,550.9328 Q468.7375,551.1078 468.7375,551.3484 Q468.7375,551.5891 468.4969,551.8734 Q468.1469,552.2781 467.5891,552.5078 Q466.8344,552.825 465.9266,552.825 Q464.8656,552.825 464.0234,552.3875 Q463.3344,552.0375 462.8531,551.2937 Q462.3719,550.5391 462.3719,549.6422 L462.3719,548.8328 Q462.3719,547.9031 462.7984,547.1047 Q463.2359,546.2953 464.0016,545.8687 Q464.7672,545.4312 465.6312,545.4312 Q466.1453,545.4312 466.5937,545.5516 Q467.0531,545.6609 467.4359,545.9125 Z " fill="#000000"/><text fill="#000000" font-family="sans-serif" font-size="9.8" lengthAdjust="spacing" textLength="47.6" x="475.3" y="552.8578">NormalCell</text><line style="stroke:#181818;stroke-width:0.3499999999999999;" x1="455.7" x2="524.3" y1="560" y2="560"/><line style="stroke:#181818;stroke-width:0.3499999999999999;" x1="455.7" x2="524.3" y1="565.6" y2="565.6"/></g><!--class Cell--><g id="elem_Cell"><rect fill="#F1F1F1" height="33.6" id="Cell" rx="1.75" ry="1.75" style="stroke:#181818;stroke-width:0.3499999999999999;" width="39.2" x="374.5" y="613.9"/><ellipse cx="385" cy="625.1" fill="#ADD1B2" rx="7.7" ry="7.7" style="stroke:#181818;stroke-width:0.6999999999999998;"/><path d="M386.9359,622.2125 Q387.0453,622.0594 387.1766,621.9828 Q387.3078,621.9062 387.4609,621.9062 Q387.7234,621.9062 387.8875,622.0922 Q388.0516,622.2672 388.0516,622.6937 L388.0516,623.7109 Q388.0516,624.1375 387.8875,624.3234 Q387.7234,624.5094 387.4609,624.5094 Q387.2203,624.5094 387.0781,624.3672 Q386.9359,624.2359 386.8594,623.875 Q386.8266,623.6234 386.6953,623.4922 Q386.4656,623.2297 386.0391,623.0766 Q385.6125,622.9234 385.175,622.9234 Q384.6391,622.9234 384.1906,623.1531 Q383.7531,623.3828 383.4031,623.9078 Q383.0641,624.4328 383.0641,625.1547 L383.0641,625.9203 Q383.0641,626.7844 383.6875,627.3641 Q384.3109,627.9328 385.4266,627.9328 Q386.0828,627.9328 386.5422,627.7578 Q386.8156,627.6484 387.1109,627.3422 Q387.2969,627.1562 387.3953,627.1016 Q387.5047,627.0469 387.6469,627.0469 Q387.8766,627.0469 388.0516,627.2328 Q388.2375,627.4078 388.2375,627.6484 Q388.2375,627.8891 387.9969,628.1734 Q387.6469,628.5781 387.0891,628.8078 Q386.3344,629.125 385.4266,629.125 Q384.3656,629.125 383.5234,628.6875 Q382.8344,628.3375 382.3531,627.5937 Q381.8719,626.8391 381.8719,625.9422 L381.8719,625.1328 Q381.8719,624.2031 382.2984,623.4047 Q382.7359,622.5953 383.5016,622.1687 Q384.2672,621.7312 385.1312,621.7312 Q385.6453,621.7312 386.0937,621.8516 Q386.5531,621.9609 386.9359,622.2125 Z " fill="#000000"/><text fill="#000000" font-family="sans-serif" font-size="9.8" lengthAdjust="spacing" textLength="16.8" x="394.8" y="629.1578">Cell</text><line style="stroke:#181818;stroke-width:0.3499999999999999;" x1="375.2" x2="413" y1="636.3" y2="636.3"/><line style="stroke:#181818;stroke-width:0.3499999999999999;" x1="375.2" x2="413" y1="641.9" y2="641.9"/></g><!--link SystemUser to EmailAdderss--><g id="link_SystemUser_EmailAdderss"><path codeLine="66" d="M566.258,196.798 C556.689,224.994 544.096,262.087 535.976,286.013 " fill="none" id="SystemUser-to-EmailAdderss" style="stroke:#181818;stroke-width:0.6999999999999998;"/><polygon fill="#181818" points="534.814,289.45,539.4855,284.3798,535.9358,286.1347,534.181,282.5849,534.814,289.45" style="stroke:#181818;stroke-width:0.6999999999999998;"/><text fill="#000000" font-family="sans-serif" font-size="9.1" lengthAdjust="spacing" textLength="4.9" x="530.9124" y="281.4522">1</text></g><!--link SystemUser to Password--><g id="link_SystemUser_Password"><path codeLine="67" d="M593.117,196.798 C602.819,224.994 615.58,262.087 623.812,286.013 " fill="none" id="SystemUser-to-Password" style="stroke:#181818;stroke-width:0.6999999999999998;"/><polygon fill="#181818" points="624.995,289.45,625.5909,282.5816,623.8553,286.1408,620.2961,284.4052,624.995,289.45" style="stroke:#181818;stroke-width:0.6999999999999998;"/><text fill="#000000" font-family="sans-serif" font-size="9.1" lengthAdjust="spacing" textLength="4.9" x="618.0048" y="281.4522">1</text></g><!--link SystemUser to Role--><g id="link_SystemUser_Role"><path codeLine="68" d="M606.214,196.812 C616.175,209.65 628.236,223.293 641.2,233.8 C657.202,246.764 666.253,242.151 682.5,254.8 C691.887,262.108 700.854,271.439 708.449,280.35 " fill="none" id="SystemUser-to-Role" style="stroke:#181818;stroke-width:0.6999999999999998;"/><polygon fill="#181818" points="710.766,283.094,708.8451,276.4728,708.5097,280.4184,704.5641,280.0829,710.766,283.094" style="stroke:#181818;stroke-width:0.6999999999999998;"/><text fill="#000000" font-family="sans-serif" font-size="9.1" lengthAdjust="spacing" textLength="4.9" x="702.0016" y="275.2345">1</text></g><!--link eCourseSystemUser to SystemUser--><g id="link_eCourseSystemUser_SystemUser"><path codeLine="70" d="M670.88,56.77 C658.805,63.301 646.604,71.029 636.3,79.8 C624.946,89.467 614.544,101.815 605.836,113.743 " fill="none" id="eCourseSystemUser-to-SystemUser" style="stroke:#181818;stroke-width:0.6999999999999998;"/><polygon fill="#181818" points="603.659,116.767,609.6085,113.2838,605.7009,113.9244,605.0603,110.0167,603.659,116.767" style="stroke:#181818;stroke-width:0.6999999999999998;"/><text fill="#000000" font-family="sans-serif" font-size="9.1" lengthAdjust="spacing" textLength="4.9" x="601.3926" y="109.1042">1</text></g><!--link eCourseSystemUser to Role--><g id="link_eCourseSystemUser_Role"><path codeLine="71" d="M707.112,58.856 C696.71,74.095 685.09,94.164 679.7,114.1 C669.788,150.738 671.552,162.428 679.7,199.5 C686.021,228.249 700.567,258.419 712.53,279.979 " fill="none" id="eCourseSystemUser-to-Role" style="stroke:#181818;stroke-width:0.6999999999999998;"/><polygon fill="#181818" points="714.28,283.094,713.6414,276.2294,712.5684,280.0411,708.7567,278.9681,714.28,283.094" style="stroke:#181818;stroke-width:0.6999999999999998;"/><text fill="#000000" font-family="sans-serif" font-size="9.1" lengthAdjust="spacing" textLength="4.9" x="711.8617" y="275.2345">1</text></g><!--link eCourseSystemUser to UserStatus--><g id="link_eCourseSystemUser_UserStatus"><path codeLine="72" d="M727.3,59.052 C727.3,76.475 727.3,99.526 727.3,118.79 " fill="none" id="eCourseSystemUser-to-UserStatus" style="stroke:#181818;stroke-width:0.6999999999999998;"/><polygon fill="#181818" points="727.3,122.339,730.1,116.039,727.3,118.839,724.5,116.039,727.3,122.339" style="stroke:#181818;stroke-width:0.6999999999999998;"/><text fill="#000000" font-family="sans-serif" font-size="9.1" lengthAdjust="spacing" textLength="4.9" x="722.0555" y="114.599">1</text></g><!--link eCourseSystemUser to Acronym--><g id="link_eCourseSystemUser_Acronym"><path codeLine="73" d="M748.321,59.052 C765.653,80.906 790.006,111.608 806.652,132.594 " fill="none" id="eCourseSystemUser-to-Acronym" style="stroke:#181818;stroke-width:0.6999999999999998;"/><polygon fill="#181818" points="808.85,135.359,807.1187,128.6857,806.6709,132.6201,802.7365,132.1723,808.85,135.359" style="stroke:#181818;stroke-width:0.6999999999999998;"/><text fill="#000000" font-family="sans-serif" font-size="9.1" lengthAdjust="spacing" textLength="4.9" x="800.0519" y="127.6806">1</text></g><!--link eCourseSystemUser to NIF--><g id="link_eCourseSystemUser_NIF"><path codeLine="74" d="M780.955,58.849 C809.83,73.787 845.586,93.562 875.7,114.1 C883.995,119.756 892.556,126.504 900.214,132.909 " fill="none" id="eCourseSystemUser-to-NIF" style="stroke:#181818;stroke-width:0.6999999999999998;"/><polygon fill="#181818" points="902.993,135.254,899.9819,129.0521,900.3174,132.9977,896.3718,133.3331,902.993,135.254" style="stroke:#181818;stroke-width:0.6999999999999998;"/><text fill="#000000" font-family="sans-serif" font-size="9.1" lengthAdjust="spacing" textLength="4.9" x="892.8219" y="127.554">1</text></g><!--link eCourseSystemUser to BirthDate--><g id="link_eCourseSystemUser_BirthDate"><path codeLine="75" d="M783.727,44.541 C835.926,57.099 914.564,79.821 976.5,114.1 C985.81,119.252 995.043,126.238 1003.002,133.035 " fill="none" id="eCourseSystemUser-to-BirthDate" style="stroke:#181818;stroke-width:0.6999999999999998;"/><polygon fill="#181818" points="1005.655,135.331,1002.719,129.0932,1003.0068,133.0426,999.0575,133.3304,1005.655,135.331" style="stroke:#181818;stroke-width:0.6999999999999998;"/><text fill="#000000" font-family="sans-serif" font-size="9.1" lengthAdjust="spacing" textLength="4.9" x="995.8679" y="127.6468">1</text></g><!--link eCourseSystemUser to MechanographicNumber--><g id="link_eCourseSystemUser_MechanographicNumber"><path codeLine="76" d="M783.874,40.796 C854.28,52.171 977.417,75.733 1077.3,114.1 C1087.394,117.978 1097.824,122.906 1107.638,128.016 " fill="none" id="eCourseSystemUser-to-MechanographicNumber" style="stroke:#181818;stroke-width:0.6999999999999998;"/><polygon fill="#181818" points="1110.942,129.752,1106.6689,124.3417,1107.8441,128.1231,1104.0627,129.2983,1110.942,129.752" style="stroke:#181818;stroke-width:0.6999999999999998;"/><text fill="#000000" font-family="sans-serif" font-size="9.1" lengthAdjust="spacing" textLength="4.9" x="1098.0484" y="122.0453">1</text></g><!--link eCourseSystemUser to Grade--><g id="link_eCourseSystemUser_Grade"><path codeLine="77" d="M783.727,32.102 C880.152,33.376 1080.94,44.982 1232.7,114.1 C1242.759,118.678 1252.433,125.825 1260.567,132.923 " fill="none" id="eCourseSystemUser-to-Grade" style="stroke:#181818;stroke-width:0.6999999999999998;"/><polygon fill="#181818" points="1263.269,135.331,1260.434,129.0467,1260.658,133.0001,1256.7046,133.2242,1263.269,135.331" style="stroke:#181818;stroke-width:0.6999999999999998;"/><polygon fill="#000000" points="1174.5243,87.2759,1168.7553,83.9534,1167.9041,87.9789,1174.5243,87.2759" style="stroke:#000000;stroke-width:0.6999999999999998;"/><text fill="#000000" font-family="sans-serif" font-size="9.1" lengthAdjust="spacing" textLength="55.3" x="1177.4" y="90.3198">student has a</text><text fill="#000000" font-family="sans-serif" font-size="9.1" lengthAdjust="spacing" textLength="4.9" x="1253.7735" y="127.6468">1</text></g><!--link eCourseSystemUser to SharedBoard--><g id="link_eCourseSystemUser_SharedBoard"><path codeLine="78" d="M670.908,43.435 C627.361,54.495 568.26,75.642 529.9,114.1 C506.163,137.893 425.537,358.008 401.149,425.572 " fill="none" id="eCourseSystemUser-to-SharedBoard" style="stroke:#181818;stroke-width:0.6999999999999998;"/><polygon fill="#181818" points="399.889,429.051,404.6601,424.0744,401.0763,425.7585,399.3921,422.1747,399.889,429.051" style="stroke:#181818;stroke-width:0.6999999999999998;"/><polygon fill="#000000" points="480.2815,230.1112,485.6136,226.125,482.2523,223.7522,480.2815,230.1112" style="stroke:#000000;stroke-width:0.6999999999999998;"/><text fill="#000000" font-family="sans-serif" font-size="9.1" lengthAdjust="spacing" textLength="21" x="488.6" y="231.0198">owns</text><text fill="#000000" font-family="sans-serif" font-size="9.1" lengthAdjust="spacing" textLength="3.5" x="397.424" y="421.1547">*</text></g><!--link eCourseSystemUser to SharedBoard--><g id="link_eCourseSystemUser_SharedBoard"><path codeLine="79" d="M670.894,37.688 C616.098,45.493 533.757,65.079 481.6,114.1 C390.565,199.668 390.026,367.85 392.756,425.362 " fill="none" id="eCourseSystemUser-to-SharedBoard-1" style="stroke:#181818;stroke-width:0.6999999999999998;"/><polygon fill="#181818" points="392.938,428.995,395.4098,422.5591,392.7577,425.4996,389.8172,422.8476,392.938,428.995" style="stroke:#181818;stroke-width:0.6999999999999998;"/><polygon fill="#000000" points="422.0403,224.4081,416.6778,228.3533,420.0209,230.7518,422.0403,224.4081" style="stroke:#000000;stroke-width:0.6999999999999998;"/><text fill="#000000" font-family="sans-serif" font-size="9.1" lengthAdjust="spacing" textLength="37.8" x="426.3" y="231.0198">shared to</text><text fill="#000000" font-family="sans-serif" font-size="9.1" lengthAdjust="spacing" textLength="3.5" x="388.6918" y="421.0843">*</text></g><!--link SharedBoard to RowCell--><g id="link_SharedBoard_RowCell"><path codeLine="81" d="M380.387,462.868 C363.412,482.993 334.677,517.083 317.646,537.278 " fill="none" id="SharedBoard-RowCell" style="stroke:#181818;stroke-width:0.6999999999999998;"/><polygon fill="#000000" points="347.7438,512.7276,353.398,509.2132,350.2525,506.561,347.7438,512.7276" style="stroke:#000000;stroke-width:0.6999999999999998;"/><text fill="#000000" font-family="sans-serif" font-size="9.1" lengthAdjust="spacing" textLength="14.7" x="356.3" y="513.8198">has</text><text fill="#000000" font-family="sans-serif" font-size="9.1" lengthAdjust="spacing" textLength="4.9" x="371.7493" y="478.0112">1</text><text fill="#000000" font-family="sans-serif" font-size="9.1" lengthAdjust="spacing" textLength="20.3" x="298.2469" y="529.5989">1..20</text></g><!--link SharedBoard to ColumnCell--><g id="link_SharedBoard_ColumnCell"><path codeLine="82" d="M394.1,462.868 C394.1,482.993 394.1,517.083 394.1,537.278 " fill="none" id="SharedBoard-ColumnCell" style="stroke:#181818;stroke-width:0.6999999999999998;"/><polygon fill="#000000" points="397.6,513.5519,399.6572,507.2203,395.5428,507.2203,397.6,513.5519" style="stroke:#000000;stroke-width:0.6999999999999998;"/><text fill="#000000" font-family="sans-serif" font-size="9.1" lengthAdjust="spacing" textLength="14.7" x="403.9" y="513.8198">has</text><text fill="#000000" font-family="sans-serif" font-size="9.1" lengthAdjust="spacing" textLength="4.9" x="388.6334" y="478.0112">1</text><text fill="#000000" font-family="sans-serif" font-size="9.1" lengthAdjust="spacing" textLength="20.3" x="371.3259" y="529.5989">1..10</text></g><!--link SharedBoard to NormalCell--><g id="link_SharedBoard_NormalCell"><path codeLine="83" d="M408.667,462.868 C426.692,482.993 457.212,517.083 475.3,537.278 " fill="none" id="SharedBoard-NormalCell" style="stroke:#181818;stroke-width:0.6999999999999998;"/><polygon fill="#000000" points="461.5349,512.6592,458.8436,506.57,455.7785,509.3148,461.5349,512.6592" style="stroke:#000000;stroke-width:0.6999999999999998;"/><text fill="#000000" font-family="sans-serif" font-size="9.1" lengthAdjust="spacing" textLength="14.7" x="465.5" y="513.8198">has</text><text fill="#000000" font-family="sans-serif" font-size="9.1" lengthAdjust="spacing" textLength="4.9" x="406.5691" y="478.0112">1</text><text fill="#000000" font-family="sans-serif" font-size="9.1" lengthAdjust="spacing" textLength="14" x="456.0106" y="529.5989">1..*</text></g><!--link NormalCell to Cell--><g id="link_NormalCell_Cell"><path codeLine="85" d="M469.189,571.354 C456.302,581.42 439.509,594.531 425.075,605.808 " fill="none" id="NormalCell-to-Cell" style="stroke:#181818;stroke-width:0.6999999999999998;"/><polygon fill="none" points="427.938,609.791,413.882,614.544,421.904,602.07,427.938,609.791" style="stroke:#181818;stroke-width:0.6999999999999998;"/></g><!--link ColumnCell to Cell--><g id="link_ColumnCell_Cell"><path codeLine="86" d="M394.1,571.354 C394.1,579.6 394.1,589.883 394.1,599.536 " fill="none" id="ColumnCell-to-Cell" style="stroke:#181818;stroke-width:0.6999999999999998;"/><polygon fill="none" points="399,599.781,394.1,613.781,389.2,599.781,399,599.781" style="stroke:#181818;stroke-width:0.6999999999999998;"/></g><!--link RowCell to Cell--><g id="link_RowCell_Cell"><path codeLine="87" d="M323.393,571.354 C335.167,581.119 350.399,593.754 363.706,604.793 " fill="none" id="RowCell-to-Cell" style="stroke:#181818;stroke-width:0.6999999999999998;"/><polygon fill="none" points="366.898,601.069,374.542,613.781,360.64,608.615,366.898,601.069" style="stroke:#181818;stroke-width:0.6999999999999998;"/></g><!--link eCourseSystemUser to ShareBoardUI--><g id="link_eCourseSystemUser_ShareBoardUI"><path codeLine="91" d="M670.915,34.146 C600.397,37.492 476.672,47.831 375.9,79.8 C349.412,88.2 321.993,101.192 298.151,114.086 " fill="none" id="eCourseSystemUser-ShareBoardUI" style="stroke:#181818;stroke-width:0.6999999999999998;stroke-dasharray:7.0,7.0;"/></g><!--link ShareBoardUI to ShareBoardController--><g id="link_ShareBoardUI_ShareBoardController"><path codeLine="92" d="M229.985,199.605 C230.139,216.629 230.328,236.523 230.489,254.695 " fill="none" id="ShareBoardUI-ShareBoardController" style="stroke:#181818;stroke-width:0.6999999999999998;stroke-dasharray:7.0,7.0;"/></g><!--link ShareBoardController to ShareBoardRepsitory--><g id="link_ShareBoardController_ShareBoardRepsitory"><path codeLine="94" d="M231,366.849 C231,381.213 231,396.312 231,409.381 " fill="none" id="ShareBoardController-ShareBoardRepsitory" style="stroke:#181818;stroke-width:0.6999999999999998;stroke-dasharray:7.0,7.0;"/></g><!--link ShareBoardController to RepositoryFactory--><g id="link_ShareBoardController_RepositoryFactory"><path codeLine="95" d="M158.844,366.849 C129.535,389.333 97.888,413.609 77.714,429.079 " fill="none" id="ShareBoardController-RepositoryFactory" style="stroke:#181818;stroke-width:0.6999999999999998;stroke-dasharray:7.0,7.0;"/></g><!--link ShareBoardController to SharedBoard--><g id="link_ShareBoardController_SharedBoard"><path codeLine="96" d="M298.515,366.849 C325.948,389.333 355.558,413.609 374.437,429.079 " fill="none" id="ShareBoardController-SharedBoard" style="stroke:#181818;stroke-width:0.6999999999999998;stroke-dasharray:7.0,7.0;"/></g><!--SRC=[bLLDZziW4BtpAz2UajrrrEqnYYpbQojBk-cgKNl7XiPK628ORnIr_UyT_6t5TjiSCCoy6TxC8m3cJC7Gs02OZ79fHGBIQ48InPoZnvHPiJ7CygyH_Kae_Xved4l52-EhqFdiHJfO5S3Ik0CJpYleCJMNmZY9SZNgJTXCEeS4N1bGRks4xNZgi896nzwI6OdwVLlLrcYmHYbXg-fea6DSP_f5d8sJOEorCXPn7MjLmqd0vukkYdEp-P8ELLo1lp4bEGEnpvXKC-5738YDKOBffdKroPdaZ-UsalcI-5AgMbecpopn7onag5B4bR16nkzILsmZP3x4EBn1biufh6FleaCzzcF47ocoX0WYtfNXwa1aNYUwMbbZ80nnijSWuOhJakSzFR1CL5EFrNxPv11Rarid_fggZIXwlkPSM5oiLYX5BgY9V-313yEcgwZ449SZMAbFjC_1Rti41hdFXuSmQm8UwFwmthpigyKkEXQh9l8DXukn7EFU1tci4slqDHlr7wBdKTz6MaXtUCf64QyYIPas9ylEgKmEUHON_Uk3qS1ol1mOo8GfTSMJheN5jBnDzCaoFhGDwUWI126zUxhhzN_8N_TaoETb8UHMyzhVcYP0HP9nTwlc1AZIPGA1oanu6sqcC4FgJC1B3PRKGSw51feoHnaDnoBkxsZdtujnvgBTVy1TiV9lnmfbxhWybo30psBnyOFlzcKhbC88JoWSWpuXT6jKdkb_GIERWx4PKpqmwTY2u5T8_OnqihR6cbLh8KFdQh7elO2aznpsdEr3GiZWyz93DvVnAFRcMf_EMhR85_47]--></g></svg>