<?xml version="1.0" encoding="us-ascii" standalone="no"?><svg xmlns="http://www.w3.org/2000/svg" xmlns:xlink="http://www.w3.org/1999/xlink" contentStyleType="text/css" height="390.5px" preserveAspectRatio="none" style="width:788px;height:390px;background:#FFFFFF;" version="1.1" viewBox="0 0 788 390" width="788px" zoomAndPan="magnify"><defs/><g><!--cluster ECOURSESYSTEMUSER--><g id="cluster_ECOURSESYSTEMUSER"><path d="M23.4,3.0068 L105.9,3.0068 A1.875,1.875 0 0 1 107.15,4.2568 L110.65,15.3174 L576.4,15.3174 A1.25,1.25 0 0 1 577.65,16.5674 L577.65,302.0068 A1.25,1.25 0 0 1 576.4,303.2568 L23.4,303.2568 A1.25,1.25 0 0 1 22.15,302.0068 L22.15,4.2568 A1.25,1.25 0 0 1 23.4,3.0068 " fill="none" style="stroke:#000000;stroke-width:0.75;"/><line style="stroke:#000000;stroke-width:0.75;" x1="22.15" x2="110.65" y1="15.3174" y2="15.3174"/><text fill="#000000" font-family="sans-serif" font-size="7" font-weight="bold" lengthAdjust="spacing" textLength="82" x="24.15" y="11.5605">ECOURSESYSTEMUSER</text><text fill="#000000" font-family="sans-serif" font-size="7" font-style="italic" lengthAdjust="spacing" textLength="41" x="281.4" y="23.8711">&#171;Aggregate&#187;</text></g><!--cluster SHAREBOARD--><g id="cluster_SHAREBOARD"><path d="M590.9,102.0068 L639.9,102.0068 A1.875,1.875 0 0 1 641.15,103.2568 L644.65,114.3174 L783.4,114.3174 A1.25,1.25 0 0 1 784.65,115.5674 L784.65,385.7568 A1.25,1.25 0 0 1 783.4,387.0068 L590.9,387.0068 A1.25,1.25 0 0 1 589.65,385.7568 L589.65,103.2568 A1.25,1.25 0 0 1 590.9,102.0068 " fill="none" style="stroke:#000000;stroke-width:0.75;"/><line style="stroke:#000000;stroke-width:0.75;" x1="589.65" x2="644.65" y1="114.3174" y2="114.3174"/><text fill="#000000" font-family="sans-serif" font-size="7" font-weight="bold" lengthAdjust="spacing" textLength="48.5" x="591.65" y="110.5605">SHAREBOARD</text><text fill="#000000" font-family="sans-serif" font-size="7" font-style="italic" lengthAdjust="spacing" textLength="40.5" x="668.9" y="122.8711">&#171;aggregate&#187;</text></g><!--class SystemUser--><g id="elem_SystemUser"><rect codeLine="6" fill="#F1F1F1" height="56.8926" id="SystemUser" rx="1.25" ry="1.25" style="stroke:#181818;stroke-width:0.25;" width="53.5" x="48.9" y="139.2568"/><ellipse cx="56.4" cy="154.3926" fill="#ADD1B2" rx="5.5" ry="5.5" style="stroke:#181818;stroke-width:0.5;"/><path d="M57.7828,152.3301 Q57.8609,152.2207 57.9547,152.166 Q58.0484,152.1113 58.1578,152.1113 Q58.3453,152.1113 58.4625,152.2441 Q58.5797,152.3691 58.5797,152.6738 L58.5797,153.4004 Q58.5797,153.7051 58.4625,153.8379 Q58.3453,153.9707 58.1578,153.9707 Q57.9859,153.9707 57.8844,153.8691 Q57.7828,153.7754 57.7281,153.5176 Q57.7047,153.3379 57.6109,153.2441 Q57.4469,153.0566 57.1422,152.9473 Q56.8375,152.8379 56.525,152.8379 Q56.1422,152.8379 55.8219,153.002 Q55.5094,153.166 55.2594,153.541 Q55.0172,153.916 55.0172,154.4316 L55.0172,154.9785 Q55.0172,155.5957 55.4625,156.0098 Q55.9078,156.416 56.7047,156.416 Q57.1734,156.416 57.5016,156.291 Q57.6969,156.2129 57.9078,155.9941 Q58.0406,155.8613 58.1109,155.8223 Q58.1891,155.7832 58.2906,155.7832 Q58.4547,155.7832 58.5797,155.916 Q58.7125,156.041 58.7125,156.2129 Q58.7125,156.3848 58.5406,156.5879 Q58.2906,156.877 57.8922,157.041 Q57.3531,157.2676 56.7047,157.2676 Q55.9469,157.2676 55.3453,156.9551 Q54.8531,156.7051 54.5094,156.1738 Q54.1656,155.6348 54.1656,154.9941 L54.1656,154.416 Q54.1656,153.752 54.4703,153.1816 Q54.7828,152.6035 55.3297,152.2988 Q55.8766,151.9863 56.4938,151.9863 Q56.8609,151.9863 57.1813,152.0723 Q57.5094,152.1504 57.7828,152.3301 Z " fill="#000000"/><text fill="#000000" font-family="sans-serif" font-size="6" font-style="italic" lengthAdjust="spacing" textLength="17.5" x="73.4" y="148.2314">&#171;root&#187;</text><text fill="#000000" font-family="sans-serif" font-size="6" font-style="italic" lengthAdjust="spacing" textLength="22" x="71.15" y="156.2119">&#171;Entity&#187;</text><text fill="#000000" font-family="sans-serif" font-size="7" lengthAdjust="spacing" textLength="37.5" x="63.4" y="165.2715">SystemUser</text><line style="stroke:#181818;stroke-width:0.25;" x1="49.4" x2="101.9" y1="169.5283" y2="169.5283"/><ellipse cx="54.4" cy="176.9336" fill="#000000" rx="1.5" ry="1.5" style="stroke:#000000;stroke-width:0.5;"/><text fill="#000000" font-family="sans-serif" font-size="7" lengthAdjust="spacing" textLength="18" x="58.9" y="179.082">Name</text><ellipse cx="54.4" cy="186.2441" fill="#000000" rx="1.5" ry="1.5" style="stroke:#000000;stroke-width:0.5;"/><text fill="#000000" font-family="sans-serif" font-size="7" lengthAdjust="spacing" textLength="32" x="58.9" y="188.3926">Username</text><line style="stroke:#181818;stroke-width:0.25;" x1="49.4" x2="101.9" y1="192.1494" y2="192.1494"/></g><!--class eCourseSystemUser--><g id="elem_eCourseSystemUser"><rect codeLine="11" fill="#F1F1F1" height="38.2715" id="eCourseSystemUser" rx="1.25" ry="1.25" style="stroke:#181818;stroke-width:0.25;" width="80.5" x="276.9" y="31.0068"/><ellipse cx="284.4" cy="46.1426" fill="#ADD1B2" rx="5.5" ry="5.5" style="stroke:#181818;stroke-width:0.5;"/><path d="M285.7828,44.0801 Q285.8609,43.9707 285.9547,43.916 Q286.0484,43.8613 286.1578,43.8613 Q286.3453,43.8613 286.4625,43.9941 Q286.5797,44.1191 286.5797,44.4238 L286.5797,45.1504 Q286.5797,45.4551 286.4625,45.5879 Q286.3453,45.7207 286.1578,45.7207 Q285.9859,45.7207 285.8844,45.6191 Q285.7828,45.5254 285.7281,45.2676 Q285.7047,45.0879 285.6109,44.9941 Q285.4469,44.8066 285.1422,44.6973 Q284.8375,44.5879 284.525,44.5879 Q284.1422,44.5879 283.8219,44.752 Q283.5094,44.916 283.2594,45.291 Q283.0172,45.666 283.0172,46.1816 L283.0172,46.7285 Q283.0172,47.3457 283.4625,47.7598 Q283.9078,48.166 284.7047,48.166 Q285.1734,48.166 285.5016,48.041 Q285.6969,47.9629 285.9078,47.7441 Q286.0406,47.6113 286.1109,47.5723 Q286.1891,47.5332 286.2906,47.5332 Q286.4547,47.5332 286.5797,47.666 Q286.7125,47.791 286.7125,47.9629 Q286.7125,48.1348 286.5406,48.3379 Q286.2906,48.627 285.8922,48.791 Q285.3531,49.0176 284.7047,49.0176 Q283.9469,49.0176 283.3453,48.7051 Q282.8531,48.4551 282.5094,47.9238 Q282.1656,47.3848 282.1656,46.7441 L282.1656,46.166 Q282.1656,45.502 282.4703,44.9316 Q282.7828,44.3535 283.3297,44.0488 Q283.8766,43.7363 284.4938,43.7363 Q284.8609,43.7363 285.1813,43.8223 Q285.5094,43.9004 285.7828,44.0801 Z " fill="#000000"/><text fill="#000000" font-family="sans-serif" font-size="6" font-style="italic" lengthAdjust="spacing" textLength="17.5" x="314.9" y="39.9814">&#171;root&#187;</text><text fill="#000000" font-family="sans-serif" font-size="6" font-style="italic" lengthAdjust="spacing" textLength="22" x="312.65" y="47.9619">&#171;Entity&#187;</text><text fill="#000000" font-family="sans-serif" font-size="7" lengthAdjust="spacing" textLength="64.5" x="291.4" y="57.0215">eCourseSystemUser</text><line style="stroke:#181818;stroke-width:0.25;" x1="277.4" x2="356.9" y1="61.2783" y2="61.2783"/><line style="stroke:#181818;stroke-width:0.25;" x1="277.4" x2="356.9" y1="65.2783" y2="65.2783"/></g><!--class EmailAdderss--><g id="elem_EmailAdderss"><rect codeLine="15" fill="#F1F1F1" height="30.291" id="EmailAdderss" rx="1.25" ry="1.25" style="stroke:#181818;stroke-width:0.25;" width="59" x="98.65" y="260.2568"/><ellipse cx="106.15" cy="271.4023" fill="#ADD1B2" rx="5.5" ry="5.5" style="stroke:#181818;stroke-width:0.5;"/><path d="M107.5328,269.3398 Q107.6109,269.2305 107.7047,269.1758 Q107.7984,269.1211 107.9078,269.1211 Q108.0953,269.1211 108.2125,269.2539 Q108.3297,269.3789 108.3297,269.6836 L108.3297,270.4102 Q108.3297,270.7148 108.2125,270.8477 Q108.0953,270.9805 107.9078,270.9805 Q107.7359,270.9805 107.6344,270.8789 Q107.5328,270.7852 107.4781,270.5273 Q107.4547,270.3477 107.3609,270.2539 Q107.1969,270.0664 106.8922,269.957 Q106.5875,269.8477 106.275,269.8477 Q105.8922,269.8477 105.5719,270.0117 Q105.2594,270.1758 105.0094,270.5508 Q104.7672,270.9258 104.7672,271.4414 L104.7672,271.9883 Q104.7672,272.6055 105.2125,273.0195 Q105.6578,273.4258 106.4547,273.4258 Q106.9234,273.4258 107.2516,273.3008 Q107.4469,273.2227 107.6578,273.0039 Q107.7906,272.8711 107.8609,272.832 Q107.9391,272.793 108.0406,272.793 Q108.2047,272.793 108.3297,272.9258 Q108.4625,273.0508 108.4625,273.2227 Q108.4625,273.3945 108.2906,273.5977 Q108.0406,273.8867 107.6422,274.0508 Q107.1031,274.2773 106.4547,274.2773 Q105.6969,274.2773 105.0953,273.9648 Q104.6031,273.7148 104.2594,273.1836 Q103.9156,272.6445 103.9156,272.0039 L103.9156,271.4258 Q103.9156,270.7617 104.2203,270.1914 Q104.5328,269.6133 105.0797,269.3086 Q105.6266,268.9961 106.2438,268.9961 Q106.6109,268.9961 106.9313,269.082 Q107.2594,269.1602 107.5328,269.3398 Z " fill="#000000"/><text fill="#000000" font-family="sans-serif" font-size="6" font-style="italic" lengthAdjust="spacing" textLength="41.5" x="113.9" y="269.2314">&#171;Value object&#187;</text><text fill="#000000" font-family="sans-serif" font-size="7" lengthAdjust="spacing" textLength="43" x="113.15" y="278.291">EmailAdderss</text><line style="stroke:#181818;stroke-width:0.25;" x1="99.15" x2="157.15" y1="282.5479" y2="282.5479"/><line style="stroke:#181818;stroke-width:0.25;" x1="99.15" x2="157.15" y1="286.5479" y2="286.5479"/></g><!--class Role--><g id="elem_Role"><rect codeLine="17" fill="#F1F1F1" height="39.6016" id="Role" rx="1.25" ry="1.25" style="stroke:#181818;stroke-width:0.25;" width="51" x="30.15" y="255.7568"/><ellipse cx="44.4" cy="266.9023" fill="#ADD1B2" rx="5.5" ry="5.5" style="stroke:#181818;stroke-width:0.5;"/><path d="M45.7828,264.8398 Q45.8609,264.7305 45.9547,264.6758 Q46.0484,264.6211 46.1578,264.6211 Q46.3453,264.6211 46.4625,264.7539 Q46.5797,264.8789 46.5797,265.1836 L46.5797,265.9102 Q46.5797,266.2148 46.4625,266.3477 Q46.3453,266.4805 46.1578,266.4805 Q45.9859,266.4805 45.8844,266.3789 Q45.7828,266.2852 45.7281,266.0273 Q45.7047,265.8477 45.6109,265.7539 Q45.4469,265.5664 45.1422,265.457 Q44.8375,265.3477 44.525,265.3477 Q44.1422,265.3477 43.8219,265.5117 Q43.5094,265.6758 43.2594,266.0508 Q43.0172,266.4258 43.0172,266.9414 L43.0172,267.4883 Q43.0172,268.1055 43.4625,268.5195 Q43.9078,268.9258 44.7047,268.9258 Q45.1734,268.9258 45.5016,268.8008 Q45.6969,268.7227 45.9078,268.5039 Q46.0406,268.3711 46.1109,268.332 Q46.1891,268.293 46.2906,268.293 Q46.4547,268.293 46.5797,268.4258 Q46.7125,268.5508 46.7125,268.7227 Q46.7125,268.8945 46.5406,269.0977 Q46.2906,269.3867 45.8922,269.5508 Q45.3531,269.7773 44.7047,269.7773 Q43.9469,269.7773 43.3453,269.4648 Q42.8531,269.2148 42.5094,268.6836 Q42.1656,268.1445 42.1656,267.5039 L42.1656,266.9258 Q42.1656,266.2617 42.4703,265.6914 Q42.7828,265.1133 43.3297,264.8086 Q43.8766,264.4961 44.4938,264.4961 Q44.8609,264.4961 45.1813,264.582 Q45.5094,264.6602 45.7828,264.8398 Z " fill="#000000"/><text fill="#000000" font-family="sans-serif" font-size="6" font-style="italic" lengthAdjust="spacing" textLength="22" x="51.9" y="264.7314">&#171;Entity&#187;</text><text fill="#000000" font-family="sans-serif" font-size="7" lengthAdjust="spacing" textLength="14.5" x="55.65" y="273.791">Role</text><line style="stroke:#181818;stroke-width:0.25;" x1="30.65" x2="80.65" y1="278.0479" y2="278.0479"/><ellipse cx="35.65" cy="285.4531" fill="#000000" rx="1.5" ry="1.5" style="stroke:#000000;stroke-width:0.5;"/><text fill="#000000" font-family="sans-serif" font-size="7" lengthAdjust="spacing" textLength="38" x="40.15" y="287.6016">String name</text><line style="stroke:#181818;stroke-width:0.25;" x1="30.65" x2="80.65" y1="291.3584" y2="291.3584"/></g><!--class UserStatus--><g id="elem_UserStatus"><rect codeLine="21" fill="#F1F1F1" height="48.9121" id="UserStatus" rx="1.25" ry="1.25" style="stroke:#181818;stroke-width:0.25;" width="50.5" x="119.9" y="143.2568"/><ellipse cx="127.4" cy="154.4023" fill="#ADD1B2" rx="5.5" ry="5.5" style="stroke:#181818;stroke-width:0.5;"/><path d="M128.7828,152.3398 Q128.8609,152.2305 128.9547,152.1758 Q129.0484,152.1211 129.1578,152.1211 Q129.3453,152.1211 129.4625,152.2539 Q129.5797,152.3789 129.5797,152.6836 L129.5797,153.4102 Q129.5797,153.7148 129.4625,153.8477 Q129.3453,153.9805 129.1578,153.9805 Q128.9859,153.9805 128.8844,153.8789 Q128.7828,153.7852 128.7281,153.5273 Q128.7047,153.3477 128.6109,153.2539 Q128.4469,153.0664 128.1422,152.957 Q127.8375,152.8477 127.525,152.8477 Q127.1422,152.8477 126.8219,153.0117 Q126.5094,153.1758 126.2594,153.5508 Q126.0172,153.9258 126.0172,154.4414 L126.0172,154.9883 Q126.0172,155.6055 126.4625,156.0195 Q126.9078,156.4258 127.7047,156.4258 Q128.1734,156.4258 128.5016,156.3008 Q128.6969,156.2227 128.9078,156.0039 Q129.0406,155.8711 129.1109,155.832 Q129.1891,155.793 129.2906,155.793 Q129.4547,155.793 129.5797,155.9258 Q129.7125,156.0508 129.7125,156.2227 Q129.7125,156.3945 129.5406,156.5977 Q129.2906,156.8867 128.8922,157.0508 Q128.3531,157.2773 127.7047,157.2773 Q126.9469,157.2773 126.3453,156.9648 Q125.8531,156.7148 125.5094,156.1836 Q125.1656,155.6445 125.1656,155.0039 L125.1656,154.4258 Q125.1656,153.7617 125.4703,153.1914 Q125.7828,152.6133 126.3297,152.3086 Q126.8766,151.9961 127.4938,151.9961 Q127.8609,151.9961 128.1813,152.082 Q128.5094,152.1602 128.7828,152.3398 Z " fill="#000000"/><text fill="#000000" font-family="sans-serif" font-size="6" font-style="italic" lengthAdjust="spacing" textLength="23" x="140.15" y="152.2314">&#171;enum&#187;</text><text fill="#000000" font-family="sans-serif" font-size="7" lengthAdjust="spacing" textLength="34.5" x="134.4" y="161.291">UserStatus</text><line style="stroke:#181818;stroke-width:0.25;" x1="120.4" x2="169.9" y1="165.5479" y2="165.5479"/><ellipse cx="125.4" cy="172.9531" fill="none" rx="1.5" ry="1.5" style="stroke:#038048;stroke-width:0.5;"/><text fill="#000000" font-family="sans-serif" font-size="7" lengthAdjust="spacing" textLength="26.5" x="129.9" y="175.1016">ENABLE</text><ellipse cx="125.4" cy="182.2637" fill="none" rx="1.5" ry="1.5" style="stroke:#038048;stroke-width:0.5;"/><text fill="#000000" font-family="sans-serif" font-size="7" lengthAdjust="spacing" textLength="28.5" x="129.9" y="184.4121">DISABLE</text><line style="stroke:#181818;stroke-width:0.25;" x1="120.4" x2="169.9" y1="188.1689" y2="188.1689"/></g><!--class Password--><g id="elem_Password"><rect codeLine="26" fill="#F1F1F1" height="30.291" id="Password" rx="1.25" ry="1.25" style="stroke:#181818;stroke-width:0.25;" width="54.5" x="175.4" y="260.2568"/><ellipse cx="182.9" cy="271.4023" fill="#ADD1B2" rx="5.5" ry="5.5" style="stroke:#181818;stroke-width:0.5;"/><path d="M184.2828,269.3398 Q184.3609,269.2305 184.4547,269.1758 Q184.5484,269.1211 184.6578,269.1211 Q184.8453,269.1211 184.9625,269.2539 Q185.0797,269.3789 185.0797,269.6836 L185.0797,270.4102 Q185.0797,270.7148 184.9625,270.8477 Q184.8453,270.9805 184.6578,270.9805 Q184.4859,270.9805 184.3844,270.8789 Q184.2828,270.7852 184.2281,270.5273 Q184.2047,270.3477 184.1109,270.2539 Q183.9469,270.0664 183.6422,269.957 Q183.3375,269.8477 183.025,269.8477 Q182.6422,269.8477 182.3219,270.0117 Q182.0094,270.1758 181.7594,270.5508 Q181.5172,270.9258 181.5172,271.4414 L181.5172,271.9883 Q181.5172,272.6055 181.9625,273.0195 Q182.4078,273.4258 183.2047,273.4258 Q183.6734,273.4258 184.0016,273.3008 Q184.1969,273.2227 184.4078,273.0039 Q184.5406,272.8711 184.6109,272.832 Q184.6891,272.793 184.7906,272.793 Q184.9547,272.793 185.0797,272.9258 Q185.2125,273.0508 185.2125,273.2227 Q185.2125,273.3945 185.0406,273.5977 Q184.7906,273.8867 184.3922,274.0508 Q183.8531,274.2773 183.2047,274.2773 Q182.4469,274.2773 181.8453,273.9648 Q181.3531,273.7148 181.0094,273.1836 Q180.6656,272.6445 180.6656,272.0039 L180.6656,271.4258 Q180.6656,270.7617 180.9703,270.1914 Q181.2828,269.6133 181.8297,269.3086 Q182.3766,268.9961 182.9938,268.9961 Q183.3609,268.9961 183.6813,269.082 Q184.0094,269.1602 184.2828,269.3398 Z " fill="#000000"/><text fill="#000000" font-family="sans-serif" font-size="6" font-style="italic" lengthAdjust="spacing" textLength="40.5" x="188.9" y="269.2314">&#171;value object&#187;</text><text fill="#000000" font-family="sans-serif" font-size="7" lengthAdjust="spacing" textLength="30.5" x="193.9" y="278.291">Password</text><line style="stroke:#181818;stroke-width:0.25;" x1="175.9" x2="229.4" y1="282.5479" y2="282.5479"/><line style="stroke:#181818;stroke-width:0.25;" x1="175.9" x2="229.4" y1="286.5479" y2="286.5479"/></g><!--class Acronym--><g id="elem_Acronym"><rect codeLine="28" fill="#F1F1F1" height="30.291" id="Acronym" rx="1.25" ry="1.25" style="stroke:#181818;stroke-width:0.25;" width="54.5" x="187.9" y="152.5068"/><ellipse cx="195.4" cy="163.6523" fill="#ADD1B2" rx="5.5" ry="5.5" style="stroke:#181818;stroke-width:0.5;"/><path d="M196.7828,161.5898 Q196.8609,161.4805 196.9547,161.4258 Q197.0484,161.3711 197.1578,161.3711 Q197.3453,161.3711 197.4625,161.5039 Q197.5797,161.6289 197.5797,161.9336 L197.5797,162.6602 Q197.5797,162.9648 197.4625,163.0977 Q197.3453,163.2305 197.1578,163.2305 Q196.9859,163.2305 196.8844,163.1289 Q196.7828,163.0352 196.7281,162.7773 Q196.7047,162.5977 196.6109,162.5039 Q196.4469,162.3164 196.1422,162.207 Q195.8375,162.0977 195.525,162.0977 Q195.1422,162.0977 194.8219,162.2617 Q194.5094,162.4258 194.2594,162.8008 Q194.0172,163.1758 194.0172,163.6914 L194.0172,164.2383 Q194.0172,164.8555 194.4625,165.2695 Q194.9078,165.6758 195.7047,165.6758 Q196.1734,165.6758 196.5016,165.5508 Q196.6969,165.4727 196.9078,165.2539 Q197.0406,165.1211 197.1109,165.082 Q197.1891,165.043 197.2906,165.043 Q197.4547,165.043 197.5797,165.1758 Q197.7125,165.3008 197.7125,165.4727 Q197.7125,165.6445 197.5406,165.8477 Q197.2906,166.1367 196.8922,166.3008 Q196.3531,166.5273 195.7047,166.5273 Q194.9469,166.5273 194.3453,166.2148 Q193.8531,165.9648 193.5094,165.4336 Q193.1656,164.8945 193.1656,164.2539 L193.1656,163.6758 Q193.1656,163.0117 193.4703,162.4414 Q193.7828,161.8633 194.3297,161.5586 Q194.8766,161.2461 195.4938,161.2461 Q195.8609,161.2461 196.1813,161.332 Q196.5094,161.4102 196.7828,161.5898 Z " fill="#000000"/><text fill="#000000" font-family="sans-serif" font-size="6" font-style="italic" lengthAdjust="spacing" textLength="40.5" x="201.4" y="161.4814">&#171;value object&#187;</text><text fill="#000000" font-family="sans-serif" font-size="7" lengthAdjust="spacing" textLength="27.5" x="207.9" y="170.541">Acronym</text><line style="stroke:#181818;stroke-width:0.25;" x1="188.4" x2="241.9" y1="174.7979" y2="174.7979"/><line style="stroke:#181818;stroke-width:0.25;" x1="188.4" x2="241.9" y1="178.7979" y2="178.7979"/></g><!--class NIF--><g id="elem_NIF"><rect codeLine="30" fill="#F1F1F1" height="30.291" id="NIF" rx="1.25" ry="1.25" style="stroke:#181818;stroke-width:0.25;" width="54.5" x="259.9" y="152.5068"/><ellipse cx="267.4" cy="163.6523" fill="#ADD1B2" rx="5.5" ry="5.5" style="stroke:#181818;stroke-width:0.5;"/><path d="M268.7828,161.5898 Q268.8609,161.4805 268.9547,161.4258 Q269.0484,161.3711 269.1578,161.3711 Q269.3453,161.3711 269.4625,161.5039 Q269.5797,161.6289 269.5797,161.9336 L269.5797,162.6602 Q269.5797,162.9648 269.4625,163.0977 Q269.3453,163.2305 269.1578,163.2305 Q268.9859,163.2305 268.8844,163.1289 Q268.7828,163.0352 268.7281,162.7773 Q268.7047,162.5977 268.6109,162.5039 Q268.4469,162.3164 268.1422,162.207 Q267.8375,162.0977 267.525,162.0977 Q267.1422,162.0977 266.8219,162.2617 Q266.5094,162.4258 266.2594,162.8008 Q266.0172,163.1758 266.0172,163.6914 L266.0172,164.2383 Q266.0172,164.8555 266.4625,165.2695 Q266.9078,165.6758 267.7047,165.6758 Q268.1734,165.6758 268.5016,165.5508 Q268.6969,165.4727 268.9078,165.2539 Q269.0406,165.1211 269.1109,165.082 Q269.1891,165.043 269.2906,165.043 Q269.4547,165.043 269.5797,165.1758 Q269.7125,165.3008 269.7125,165.4727 Q269.7125,165.6445 269.5406,165.8477 Q269.2906,166.1367 268.8922,166.3008 Q268.3531,166.5273 267.7047,166.5273 Q266.9469,166.5273 266.3453,166.2148 Q265.8531,165.9648 265.5094,165.4336 Q265.1656,164.8945 265.1656,164.2539 L265.1656,163.6758 Q265.1656,163.0117 265.4703,162.4414 Q265.7828,161.8633 266.3297,161.5586 Q266.8766,161.2461 267.4938,161.2461 Q267.8609,161.2461 268.1813,161.332 Q268.5094,161.4102 268.7828,161.5898 Z " fill="#000000"/><text fill="#000000" font-family="sans-serif" font-size="6" font-style="italic" lengthAdjust="spacing" textLength="40.5" x="273.4" y="161.4814">&#171;value object&#187;</text><text fill="#000000" font-family="sans-serif" font-size="7" lengthAdjust="spacing" textLength="10.5" x="288.4" y="170.541">NIF</text><line style="stroke:#181818;stroke-width:0.25;" x1="260.4" x2="313.9" y1="174.7979" y2="174.7979"/><line style="stroke:#181818;stroke-width:0.25;" x1="260.4" x2="313.9" y1="178.7979" y2="178.7979"/></g><!--class BirthDate--><g id="elem_BirthDate"><rect codeLine="32" fill="#F1F1F1" height="30.291" id="BirthDate" rx="1.25" ry="1.25" style="stroke:#181818;stroke-width:0.25;" width="54.5" x="331.9" y="152.5068"/><ellipse cx="339.4" cy="163.6523" fill="#ADD1B2" rx="5.5" ry="5.5" style="stroke:#181818;stroke-width:0.5;"/><path d="M340.7828,161.5898 Q340.8609,161.4805 340.9547,161.4258 Q341.0484,161.3711 341.1578,161.3711 Q341.3453,161.3711 341.4625,161.5039 Q341.5797,161.6289 341.5797,161.9336 L341.5797,162.6602 Q341.5797,162.9648 341.4625,163.0977 Q341.3453,163.2305 341.1578,163.2305 Q340.9859,163.2305 340.8844,163.1289 Q340.7828,163.0352 340.7281,162.7773 Q340.7047,162.5977 340.6109,162.5039 Q340.4469,162.3164 340.1422,162.207 Q339.8375,162.0977 339.525,162.0977 Q339.1422,162.0977 338.8219,162.2617 Q338.5094,162.4258 338.2594,162.8008 Q338.0172,163.1758 338.0172,163.6914 L338.0172,164.2383 Q338.0172,164.8555 338.4625,165.2695 Q338.9078,165.6758 339.7047,165.6758 Q340.1734,165.6758 340.5016,165.5508 Q340.6969,165.4727 340.9078,165.2539 Q341.0406,165.1211 341.1109,165.082 Q341.1891,165.043 341.2906,165.043 Q341.4547,165.043 341.5797,165.1758 Q341.7125,165.3008 341.7125,165.4727 Q341.7125,165.6445 341.5406,165.8477 Q341.2906,166.1367 340.8922,166.3008 Q340.3531,166.5273 339.7047,166.5273 Q338.9469,166.5273 338.3453,166.2148 Q337.8531,165.9648 337.5094,165.4336 Q337.1656,164.8945 337.1656,164.2539 L337.1656,163.6758 Q337.1656,163.0117 337.4703,162.4414 Q337.7828,161.8633 338.3297,161.5586 Q338.8766,161.2461 339.4938,161.2461 Q339.8609,161.2461 340.1813,161.332 Q340.5094,161.4102 340.7828,161.5898 Z " fill="#000000"/><text fill="#000000" font-family="sans-serif" font-size="6" font-style="italic" lengthAdjust="spacing" textLength="40.5" x="345.4" y="161.4814">&#171;value object&#187;</text><text fill="#000000" font-family="sans-serif" font-size="7" lengthAdjust="spacing" textLength="29.5" x="350.9" y="170.541">BirthDate</text><line style="stroke:#181818;stroke-width:0.25;" x1="332.4" x2="385.9" y1="174.7979" y2="174.7979"/><line style="stroke:#181818;stroke-width:0.25;" x1="332.4" x2="385.9" y1="178.7979" y2="178.7979"/></g><!--class MechanographicNumber--><g id="elem_MechanographicNumber"><rect codeLine="34" fill="#F1F1F1" height="38.2715" id="MechanographicNumber" rx="1.25" ry="1.25" style="stroke:#181818;stroke-width:0.25;" width="93" x="404.15" y="148.5068"/><ellipse cx="411.65" cy="163.6426" fill="#ADD1B2" rx="5.5" ry="5.5" style="stroke:#181818;stroke-width:0.5;"/><path d="M413.0328,161.5801 Q413.1109,161.4707 413.2047,161.416 Q413.2984,161.3613 413.4078,161.3613 Q413.5953,161.3613 413.7125,161.4941 Q413.8297,161.6191 413.8297,161.9238 L413.8297,162.6504 Q413.8297,162.9551 413.7125,163.0879 Q413.5953,163.2207 413.4078,163.2207 Q413.2359,163.2207 413.1344,163.1191 Q413.0328,163.0254 412.9781,162.7676 Q412.9547,162.5879 412.8609,162.4941 Q412.6969,162.3066 412.3922,162.1973 Q412.0875,162.0879 411.775,162.0879 Q411.3922,162.0879 411.0719,162.252 Q410.7594,162.416 410.5094,162.791 Q410.2672,163.166 410.2672,163.6816 L410.2672,164.2285 Q410.2672,164.8457 410.7125,165.2598 Q411.1578,165.666 411.9547,165.666 Q412.4234,165.666 412.7516,165.541 Q412.9469,165.4629 413.1578,165.2441 Q413.2906,165.1113 413.3609,165.0723 Q413.4391,165.0332 413.5406,165.0332 Q413.7047,165.0332 413.8297,165.166 Q413.9625,165.291 413.9625,165.4629 Q413.9625,165.6348 413.7906,165.8379 Q413.5406,166.127 413.1422,166.291 Q412.6031,166.5176 411.9547,166.5176 Q411.1969,166.5176 410.5953,166.2051 Q410.1031,165.9551 409.7594,165.4238 Q409.4156,164.8848 409.4156,164.2441 L409.4156,163.666 Q409.4156,163.002 409.7203,162.4316 Q410.0328,161.8535 410.5797,161.5488 Q411.1266,161.2363 411.7438,161.2363 Q412.1109,161.2363 412.4313,161.3223 Q412.7594,161.4004 413.0328,161.5801 Z " fill="#000000"/><text fill="#000000" font-family="sans-serif" font-size="6" font-style="italic" lengthAdjust="spacing" textLength="40.5" x="436.9" y="157.4814">&#171;value object&#187;</text><text fill="#000000" font-family="sans-serif" font-size="6" font-style="italic" lengthAdjust="spacing" textLength="73" x="420.65" y="165.4619">&#171;automatically generated&#187;</text><text fill="#000000" font-family="sans-serif" font-size="7" lengthAdjust="spacing" textLength="77" x="418.65" y="174.5215">MechanographicNumber</text><line style="stroke:#181818;stroke-width:0.25;" x1="404.65" x2="496.65" y1="178.7783" y2="178.7783"/><line style="stroke:#181818;stroke-width:0.25;" x1="404.65" x2="496.65" y1="182.7783" y2="182.7783"/></g><!--class Grade--><g id="elem_Grade"><rect codeLine="36" fill="#F1F1F1" height="30.291" id="Grade" rx="1.25" ry="1.25" style="stroke:#181818;stroke-width:0.25;" width="54.5" x="514.9" y="152.5068"/><ellipse cx="522.4" cy="163.6523" fill="#ADD1B2" rx="5.5" ry="5.5" style="stroke:#181818;stroke-width:0.5;"/><path d="M523.7828,161.5898 Q523.8609,161.4805 523.9547,161.4258 Q524.0484,161.3711 524.1578,161.3711 Q524.3453,161.3711 524.4625,161.5039 Q524.5797,161.6289 524.5797,161.9336 L524.5797,162.6602 Q524.5797,162.9648 524.4625,163.0977 Q524.3453,163.2305 524.1578,163.2305 Q523.9859,163.2305 523.8844,163.1289 Q523.7828,163.0352 523.7281,162.7773 Q523.7047,162.5977 523.6109,162.5039 Q523.4469,162.3164 523.1422,162.207 Q522.8375,162.0977 522.525,162.0977 Q522.1422,162.0977 521.8219,162.2617 Q521.5094,162.4258 521.2594,162.8008 Q521.0172,163.1758 521.0172,163.6914 L521.0172,164.2383 Q521.0172,164.8555 521.4625,165.2695 Q521.9078,165.6758 522.7047,165.6758 Q523.1734,165.6758 523.5016,165.5508 Q523.6969,165.4727 523.9078,165.2539 Q524.0406,165.1211 524.1109,165.082 Q524.1891,165.043 524.2906,165.043 Q524.4547,165.043 524.5797,165.1758 Q524.7125,165.3008 524.7125,165.4727 Q524.7125,165.6445 524.5406,165.8477 Q524.2906,166.1367 523.8922,166.3008 Q523.3531,166.5273 522.7047,166.5273 Q521.9469,166.5273 521.3453,166.2148 Q520.8531,165.9648 520.5094,165.4336 Q520.1656,164.8945 520.1656,164.2539 L520.1656,163.6758 Q520.1656,163.0117 520.4703,162.4414 Q520.7828,161.8633 521.3297,161.5586 Q521.8766,161.2461 522.4938,161.2461 Q522.8609,161.2461 523.1813,161.332 Q523.5094,161.4102 523.7828,161.5898 Z " fill="#000000"/><text fill="#000000" font-family="sans-serif" font-size="6" font-style="italic" lengthAdjust="spacing" textLength="40.5" x="528.4" y="161.4814">&#171;value object&#187;</text><text fill="#000000" font-family="sans-serif" font-size="7" lengthAdjust="spacing" textLength="20" x="538.65" y="170.541">Grade</text><line style="stroke:#181818;stroke-width:0.25;" x1="515.4" x2="568.9" y1="174.7979" y2="174.7979"/><line style="stroke:#181818;stroke-width:0.25;" x1="515.4" x2="568.9" y1="178.7979" y2="178.7979"/></g><!--class SharedBoard--><g id="elem_SharedBoard"><rect codeLine="42" fill="#F1F1F1" height="75.5137" id="SharedBoard" rx="1.25" ry="1.25" style="stroke:#181818;stroke-width:0.25;" width="135.5" x="597.9" y="130.0068"/><ellipse cx="642.525" cy="145.1426" fill="#ADD1B2" rx="5.5" ry="5.5" style="stroke:#181818;stroke-width:0.5;"/><path d="M643.9078,143.0801 Q643.9859,142.9707 644.0797,142.916 Q644.1734,142.8613 644.2828,142.8613 Q644.4703,142.8613 644.5875,142.9941 Q644.7047,143.1191 644.7047,143.4238 L644.7047,144.1504 Q644.7047,144.4551 644.5875,144.5879 Q644.4703,144.7207 644.2828,144.7207 Q644.1109,144.7207 644.0094,144.6191 Q643.9078,144.5254 643.8531,144.2676 Q643.8297,144.0879 643.7359,143.9941 Q643.5719,143.8066 643.2672,143.6973 Q642.9625,143.5879 642.65,143.5879 Q642.2672,143.5879 641.9469,143.752 Q641.6344,143.916 641.3844,144.291 Q641.1422,144.666 641.1422,145.1816 L641.1422,145.7285 Q641.1422,146.3457 641.5875,146.7598 Q642.0328,147.166 642.8297,147.166 Q643.2984,147.166 643.6266,147.041 Q643.8219,146.9629 644.0328,146.7441 Q644.1656,146.6113 644.2359,146.5723 Q644.3141,146.5332 644.4156,146.5332 Q644.5797,146.5332 644.7047,146.666 Q644.8375,146.791 644.8375,146.9629 Q644.8375,147.1348 644.6656,147.3379 Q644.4156,147.627 644.0172,147.791 Q643.4781,148.0176 642.8297,148.0176 Q642.0719,148.0176 641.4703,147.7051 Q640.9781,147.4551 640.6344,146.9238 Q640.2906,146.3848 640.2906,145.7441 L640.2906,145.166 Q640.2906,144.502 640.5953,143.9316 Q640.9078,143.3535 641.4547,143.0488 Q642.0016,142.7363 642.6188,142.7363 Q642.9859,142.7363 643.3063,142.8223 Q643.6344,142.9004 643.9078,143.0801 Z " fill="#000000"/><text fill="#000000" font-family="sans-serif" font-size="6" font-style="italic" lengthAdjust="spacing" textLength="17.5" x="665.025" y="138.9814">&#171;root&#187;</text><text fill="#000000" font-family="sans-serif" font-size="6" font-style="italic" lengthAdjust="spacing" textLength="21.5" x="663.025" y="146.9619">&#171;entity&#187;</text><text fill="#000000" font-family="sans-serif" font-size="7" lengthAdjust="spacing" textLength="42" x="652.775" y="156.0215">SharedBoard</text><line style="stroke:#181818;stroke-width:0.25;" x1="598.4" x2="732.9" y1="160.2783" y2="160.2783"/><ellipse cx="603.4" cy="167.6836" fill="#000000" rx="1.5" ry="1.5" style="stroke:#000000;stroke-width:0.5;"/><text fill="#000000" font-family="sans-serif" font-size="7" lengthAdjust="spacing" textLength="122.5" x="607.9" y="169.832">id &#171;unique&#187; &#171;automatically generated&#187;</text><ellipse cx="603.4" cy="176.9941" fill="#000000" rx="1.5" ry="1.5" style="stroke:#000000;stroke-width:0.5;"/><text fill="#000000" font-family="sans-serif" font-size="7" lengthAdjust="spacing" textLength="36.5" x="607.9" y="179.1426">boradName</text><ellipse cx="603.4" cy="186.3047" fill="#000000" rx="1.5" ry="1.5" style="stroke:#000000;stroke-width:0.5;"/><text fill="#000000" font-family="sans-serif" font-size="7" lengthAdjust="spacing" textLength="29.5" x="607.9" y="188.4531">maxRows</text><ellipse cx="603.4" cy="195.6152" fill="#000000" rx="1.5" ry="1.5" style="stroke:#000000;stroke-width:0.5;"/><text fill="#000000" font-family="sans-serif" font-size="7" lengthAdjust="spacing" textLength="40" x="607.9" y="197.7637">maxColumns</text><line style="stroke:#181818;stroke-width:0.25;" x1="598.4" x2="732.9" y1="201.5205" y2="201.5205"/></g><!--class Cell--><g id="elem_Cell"><rect codeLine="49" fill="#F1F1F1" height="42.6211" id="Cell" rx="1.25" ry="1.25" style="stroke:#181818;stroke-width:0.25;" width="36.5" x="672.9" y="336.5068"/><ellipse cx="684.225" cy="344.5068" fill="#ADD1B2" rx="5.5" ry="5.5" style="stroke:#181818;stroke-width:0.5;"/><path d="M685.6078,342.4443 Q685.6859,342.335 685.7797,342.2803 Q685.8734,342.2256 685.9828,342.2256 Q686.1703,342.2256 686.2875,342.3584 Q686.4047,342.4834 686.4047,342.7881 L686.4047,343.5146 Q686.4047,343.8193 686.2875,343.9521 Q686.1703,344.085 685.9828,344.085 Q685.8109,344.085 685.7094,343.9834 Q685.6078,343.8896 685.5531,343.6318 Q685.5297,343.4521 685.4359,343.3584 Q685.2719,343.1709 684.9672,343.0615 Q684.6625,342.9521 684.35,342.9521 Q683.9672,342.9521 683.6469,343.1162 Q683.3344,343.2803 683.0844,343.6553 Q682.8422,344.0303 682.8422,344.5459 L682.8422,345.0928 Q682.8422,345.71 683.2875,346.124 Q683.7328,346.5303 684.5297,346.5303 Q684.9984,346.5303 685.3266,346.4053 Q685.5219,346.3271 685.7328,346.1084 Q685.8656,345.9756 685.9359,345.9365 Q686.0141,345.8975 686.1156,345.8975 Q686.2797,345.8975 686.4047,346.0303 Q686.5375,346.1553 686.5375,346.3271 Q686.5375,346.499 686.3656,346.7021 Q686.1156,346.9912 685.7172,347.1553 Q685.1781,347.3818 684.5297,347.3818 Q683.7719,347.3818 683.1703,347.0693 Q682.6781,346.8193 682.3344,346.2881 Q681.9906,345.749 681.9906,345.1084 L681.9906,344.5303 Q681.9906,343.8662 682.2953,343.2959 Q682.6078,342.7178 683.1547,342.4131 Q683.7016,342.1006 684.3188,342.1006 Q684.6859,342.1006 685.0063,342.1865 Q685.3344,342.2646 685.6078,342.4443 Z " fill="#000000"/><text fill="#000000" font-family="sans-serif" font-size="7" lengthAdjust="spacing" textLength="12" x="692.075" y="347.4053">Cell</text><line style="stroke:#181818;stroke-width:0.25;" x1="673.4" x2="708.9" y1="352.5068" y2="352.5068"/><ellipse cx="678.4" cy="359.9121" fill="#000000" rx="1.5" ry="1.5" style="stroke:#000000;stroke-width:0.5;"/><text fill="#000000" font-family="sans-serif" font-size="7" lengthAdjust="spacing" textLength="5.5" x="682.9" y="362.0605">id</text><ellipse cx="678.4" cy="369.2227" fill="#000000" rx="1.5" ry="1.5" style="stroke:#000000;stroke-width:0.5;"/><text fill="#000000" font-family="sans-serif" font-size="7" lengthAdjust="spacing" textLength="23.5" x="682.9" y="371.3711">content</text><line style="stroke:#181818;stroke-width:0.25;" x1="673.4" x2="708.9" y1="375.1279" y2="375.1279"/></g><!--class NormalCell--><g id="elem_NormalCell"><rect codeLine="54" fill="#F1F1F1" height="61.2422" id="NormalCell" rx="1.25" ry="1.25" style="stroke:#181818;stroke-width:0.25;" width="50" x="597.65" y="245.0068"/><ellipse cx="605.15" cy="253.0068" fill="#ADD1B2" rx="5.5" ry="5.5" style="stroke:#181818;stroke-width:0.5;"/><path d="M606.5328,250.9443 Q606.6109,250.835 606.7047,250.7803 Q606.7984,250.7256 606.9078,250.7256 Q607.0953,250.7256 607.2125,250.8584 Q607.3297,250.9834 607.3297,251.2881 L607.3297,252.0146 Q607.3297,252.3193 607.2125,252.4521 Q607.0953,252.585 606.9078,252.585 Q606.7359,252.585 606.6344,252.4834 Q606.5328,252.3896 606.4781,252.1318 Q606.4547,251.9521 606.3609,251.8584 Q606.1969,251.6709 605.8922,251.5615 Q605.5875,251.4521 605.275,251.4521 Q604.8922,251.4521 604.5719,251.6162 Q604.2594,251.7803 604.0094,252.1553 Q603.7672,252.5303 603.7672,253.0459 L603.7672,253.5928 Q603.7672,254.21 604.2125,254.624 Q604.6578,255.0303 605.4547,255.0303 Q605.9234,255.0303 606.2516,254.9053 Q606.4469,254.8271 606.6578,254.6084 Q606.7906,254.4756 606.8609,254.4365 Q606.9391,254.3975 607.0406,254.3975 Q607.2047,254.3975 607.3297,254.5303 Q607.4625,254.6553 607.4625,254.8271 Q607.4625,254.999 607.2906,255.2021 Q607.0406,255.4912 606.6422,255.6553 Q606.1031,255.8818 605.4547,255.8818 Q604.6969,255.8818 604.0953,255.5693 Q603.6031,255.3193 603.2594,254.7881 Q602.9156,254.249 602.9156,253.6084 L602.9156,253.0303 Q602.9156,252.3662 603.2203,251.7959 Q603.5328,251.2178 604.0797,250.9131 Q604.6266,250.6006 605.2438,250.6006 Q605.6109,250.6006 605.9313,250.6865 Q606.2594,250.7646 606.5328,250.9443 Z " fill="#000000"/><text fill="#000000" font-family="sans-serif" font-size="7" lengthAdjust="spacing" textLength="34" x="612.15" y="255.9053">NormalCell</text><line style="stroke:#181818;stroke-width:0.25;" x1="598.15" x2="647.15" y1="261.0068" y2="261.0068"/><ellipse cx="603.15" cy="268.4121" fill="#000000" rx="1.5" ry="1.5" style="stroke:#000000;stroke-width:0.5;"/><text fill="#000000" font-family="sans-serif" font-size="7" lengthAdjust="spacing" textLength="5.5" x="607.65" y="270.5605">id</text><ellipse cx="603.15" cy="277.7227" fill="#000000" rx="1.5" ry="1.5" style="stroke:#000000;stroke-width:0.5;"/><text fill="#000000" font-family="sans-serif" font-size="7" lengthAdjust="spacing" textLength="11" x="607.65" y="279.8711">row</text><ellipse cx="603.15" cy="287.0332" fill="#000000" rx="1.5" ry="1.5" style="stroke:#000000;stroke-width:0.5;"/><text fill="#000000" font-family="sans-serif" font-size="7" lengthAdjust="spacing" textLength="22.5" x="607.65" y="289.1816">column</text><ellipse cx="603.15" cy="296.3438" fill="#000000" rx="1.5" ry="1.5" style="stroke:#000000;stroke-width:0.5;"/><text fill="#000000" font-family="sans-serif" font-size="7" lengthAdjust="spacing" textLength="23.5" x="607.65" y="298.4922">content</text><line style="stroke:#181818;stroke-width:0.25;" x1="598.15" x2="647.15" y1="302.249" y2="302.249"/></g><!--class ColumnCell--><g id="elem_ColumnCell"><rect codeLine="61" fill="#F1F1F1" height="51.9316" id="ColumnCell" rx="1.25" ry="1.25" style="stroke:#181818;stroke-width:0.25;" width="52" x="665.15" y="249.5068"/><ellipse cx="672.65" cy="257.5068" fill="#ADD1B2" rx="5.5" ry="5.5" style="stroke:#181818;stroke-width:0.5;"/><path d="M674.0328,255.4443 Q674.1109,255.335 674.2047,255.2803 Q674.2984,255.2256 674.4078,255.2256 Q674.5953,255.2256 674.7125,255.3584 Q674.8297,255.4834 674.8297,255.7881 L674.8297,256.5146 Q674.8297,256.8193 674.7125,256.9521 Q674.5953,257.085 674.4078,257.085 Q674.2359,257.085 674.1344,256.9834 Q674.0328,256.8896 673.9781,256.6318 Q673.9547,256.4521 673.8609,256.3584 Q673.6969,256.1709 673.3922,256.0615 Q673.0875,255.9521 672.775,255.9521 Q672.3922,255.9521 672.0719,256.1162 Q671.7594,256.2803 671.5094,256.6553 Q671.2672,257.0303 671.2672,257.5459 L671.2672,258.0928 Q671.2672,258.71 671.7125,259.124 Q672.1578,259.5303 672.9547,259.5303 Q673.4234,259.5303 673.7516,259.4053 Q673.9469,259.3271 674.1578,259.1084 Q674.2906,258.9756 674.3609,258.9365 Q674.4391,258.8975 674.5406,258.8975 Q674.7047,258.8975 674.8297,259.0303 Q674.9625,259.1553 674.9625,259.3271 Q674.9625,259.499 674.7906,259.7021 Q674.5406,259.9912 674.1422,260.1553 Q673.6031,260.3818 672.9547,260.3818 Q672.1969,260.3818 671.5953,260.0693 Q671.1031,259.8193 670.7594,259.2881 Q670.4156,258.749 670.4156,258.1084 L670.4156,257.5303 Q670.4156,256.8662 670.7203,256.2959 Q671.0328,255.7178 671.5797,255.4131 Q672.1266,255.1006 672.7438,255.1006 Q673.1109,255.1006 673.4313,255.1865 Q673.7594,255.2646 674.0328,255.4443 Z " fill="#000000"/><text fill="#000000" font-family="sans-serif" font-size="7" lengthAdjust="spacing" textLength="36" x="679.65" y="260.4053">ColumnCell</text><line style="stroke:#181818;stroke-width:0.25;" x1="665.65" x2="716.65" y1="265.5068" y2="265.5068"/><ellipse cx="670.65" cy="272.9121" fill="#000000" rx="1.5" ry="1.5" style="stroke:#000000;stroke-width:0.5;"/><text fill="#000000" font-family="sans-serif" font-size="7" lengthAdjust="spacing" textLength="5.5" x="675.15" y="275.0605">id</text><ellipse cx="670.65" cy="282.2227" fill="#000000" rx="1.5" ry="1.5" style="stroke:#000000;stroke-width:0.5;"/><text fill="#000000" font-family="sans-serif" font-size="7" lengthAdjust="spacing" textLength="38" x="675.15" y="284.3711">columnTittle</text><ellipse cx="670.65" cy="291.5332" fill="#000000" rx="1.5" ry="1.5" style="stroke:#000000;stroke-width:0.5;"/><text fill="#000000" font-family="sans-serif" font-size="7" lengthAdjust="spacing" textLength="22.5" x="675.15" y="293.6816">column</text><line style="stroke:#181818;stroke-width:0.25;" x1="665.65" x2="716.65" y1="297.4385" y2="297.4385"/></g><!--class RowCell--><g id="elem_RowCell"><rect codeLine="67" fill="#F1F1F1" height="51.9316" id="RowCell" rx="1.25" ry="1.25" style="stroke:#181818;stroke-width:0.25;" width="41.5" x="734.9" y="249.5068"/><ellipse cx="742.4" cy="257.5068" fill="#ADD1B2" rx="5.5" ry="5.5" style="stroke:#181818;stroke-width:0.5;"/><path d="M743.7828,255.4443 Q743.8609,255.335 743.9547,255.2803 Q744.0484,255.2256 744.1578,255.2256 Q744.3453,255.2256 744.4625,255.3584 Q744.5797,255.4834 744.5797,255.7881 L744.5797,256.5146 Q744.5797,256.8193 744.4625,256.9521 Q744.3453,257.085 744.1578,257.085 Q743.9859,257.085 743.8844,256.9834 Q743.7828,256.8896 743.7281,256.6318 Q743.7047,256.4521 743.6109,256.3584 Q743.4469,256.1709 743.1422,256.0615 Q742.8375,255.9521 742.525,255.9521 Q742.1422,255.9521 741.8219,256.1162 Q741.5094,256.2803 741.2594,256.6553 Q741.0172,257.0303 741.0172,257.5459 L741.0172,258.0928 Q741.0172,258.71 741.4625,259.124 Q741.9078,259.5303 742.7047,259.5303 Q743.1734,259.5303 743.5016,259.4053 Q743.6969,259.3271 743.9078,259.1084 Q744.0406,258.9756 744.1109,258.9365 Q744.1891,258.8975 744.2906,258.8975 Q744.4547,258.8975 744.5797,259.0303 Q744.7125,259.1553 744.7125,259.3271 Q744.7125,259.499 744.5406,259.7021 Q744.2906,259.9912 743.8922,260.1553 Q743.3531,260.3818 742.7047,260.3818 Q741.9469,260.3818 741.3453,260.0693 Q740.8531,259.8193 740.5094,259.2881 Q740.1656,258.749 740.1656,258.1084 L740.1656,257.5303 Q740.1656,256.8662 740.4703,256.2959 Q740.7828,255.7178 741.3297,255.4131 Q741.8766,255.1006 742.4938,255.1006 Q742.8609,255.1006 743.1813,255.1865 Q743.5094,255.2646 743.7828,255.4443 Z " fill="#000000"/><text fill="#000000" font-family="sans-serif" font-size="7" lengthAdjust="spacing" textLength="25.5" x="749.4" y="260.4053">RowCell</text><line style="stroke:#181818;stroke-width:0.25;" x1="735.4" x2="775.9" y1="265.5068" y2="265.5068"/><ellipse cx="740.4" cy="272.9121" fill="#000000" rx="1.5" ry="1.5" style="stroke:#000000;stroke-width:0.5;"/><text fill="#000000" font-family="sans-serif" font-size="7" lengthAdjust="spacing" textLength="5.5" x="744.9" y="275.0605">id</text><ellipse cx="740.4" cy="282.2227" fill="#000000" rx="1.5" ry="1.5" style="stroke:#000000;stroke-width:0.5;"/><text fill="#000000" font-family="sans-serif" font-size="7" lengthAdjust="spacing" textLength="26.5" x="744.9" y="284.3711">rowTittle</text><ellipse cx="740.4" cy="291.5332" fill="#000000" rx="1.5" ry="1.5" style="stroke:#000000;stroke-width:0.5;"/><text fill="#000000" font-family="sans-serif" font-size="7" lengthAdjust="spacing" textLength="11" x="744.9" y="293.6816">row</text><line style="stroke:#181818;stroke-width:0.25;" x1="735.4" x2="775.9" y1="297.4385" y2="297.4385"/></g><!--link SystemUser to EmailAdderss--><g id="link_SystemUser_EmailAdderss"><path codeLine="77" d="M89.445,196.3018 C99.03,215.7918 111.495,241.1468 119.655,257.7368 " fill="none" id="SystemUser-to-EmailAdderss" style="stroke:#181818;stroke-width:0.5;"/><polygon fill="#181818" points="120.83,260.1218,120.6441,255.2009,119.7292,257.8773,117.0528,256.9623,120.83,260.1218" style="stroke:#181818;stroke-width:0.5;"/><text fill="#000000" font-family="sans-serif" font-size="6.5" lengthAdjust="spacing" textLength="3.5" x="115.4593" y="254.6228">1</text></g><!--link SystemUser to Password--><g id="link_SystemUser_Password"><path codeLine="78" d="M101.27,196.2968 C104.51,199.4968 107.85,202.6318 111.15,205.5068 C133.85,225.2618 142.29,226.6668 166.15,245.0068 C171.71,249.2818 177.63,254.0468 183.045,258.4968 " fill="none" id="SystemUser-to-Password" style="stroke:#181818;stroke-width:0.5;"/><polygon fill="#181818" points="185.015,260.1218,182.8093,255.719,183.0839,258.5341,180.2689,258.8087,185.015,260.1218" style="stroke:#181818;stroke-width:0.5;"/><text fill="#000000" font-family="sans-serif" font-size="6.5" lengthAdjust="spacing" textLength="3.5" x="177.5168" y="254.6228">1</text></g><!--link SystemUser to Role--><g id="link_SystemUser_Role"><path codeLine="79" d="M70.395,196.3018 C67.065,214.0718 62.825,236.7118 59.745,253.1468 " fill="none" id="SystemUser-to-Role" style="stroke:#181818;stroke-width:0.5;"/><polygon fill="#181818" points="59.26,255.7268,62.0586,251.6749,59.7229,253.2701,58.1277,250.9343,59.26,255.7268" style="stroke:#181818;stroke-width:0.5;"/><text fill="#000000" font-family="sans-serif" font-size="6.5" lengthAdjust="spacing" textLength="3.5" x="56.0797" y="250.1146">1</text></g><!--link eCourseSystemUser to SystemUser--><g id="link_eCourseSystemUser_SystemUser"><path codeLine="81" d="M276.835,55.9068 C224.445,63.2818 136.635,78.1768 111.15,98.0068 C98.65,107.7318 90.155,123.0718 84.62,136.8418 " fill="none" id="eCourseSystemUser-to-SystemUser" style="stroke:#181818;stroke-width:0.5;"/><polygon fill="#181818" points="83.685,139.2168,87.1913,135.7591,84.5987,136.8898,83.468,134.2972,83.685,139.2168" style="stroke:#181818;stroke-width:0.5;"/><text fill="#000000" font-family="sans-serif" font-size="6.5" lengthAdjust="spacing" textLength="3.5" x="80.9903" y="133.546">1</text></g><!--link eCourseSystemUser to Role--><g id="link_eCourseSystemUser_Role"><path codeLine="82" d="M276.795,51.4918 C207.345,53.7018 69.82,62.5618 40.15,98.0068 C3,142.3868 28.635,216.7968 44.975,253.3718 " fill="none" id="eCourseSystemUser-to-Role" style="stroke:#181818;stroke-width:0.5;"/><polygon fill="#181818" points="46.035,255.7268,46.0064,250.8025,45.0064,253.4482,42.3607,252.4482,46.035,255.7268" style="stroke:#181818;stroke-width:0.5;"/><text fill="#000000" font-family="sans-serif" font-size="6.5" lengthAdjust="spacing" textLength="3.5" x="40.5816" y="250.1146">1</text></g><!--link eCourseSystemUser to UserStatus--><g id="link_eCourseSystemUser_UserStatus"><path codeLine="83" d="M276.89,56.1018 C246.895,61.9268 206.56,73.8618 179.15,98.0068 C166.42,109.2218 157.96,126.2918 152.665,140.6768 " fill="none" id="eCourseSystemUser-to-UserStatus" style="stroke:#181818;stroke-width:0.5;"/><polygon fill="#181818" points="151.78,143.1468,155.1879,139.5921,152.6281,140.7951,151.4251,138.2352,151.78,143.1468" style="stroke:#181818;stroke-width:0.5;"/><text fill="#000000" font-family="sans-serif" font-size="6.5" lengthAdjust="spacing" textLength="3.5" x="148.9663" y="137.619">1</text></g><!--link eCourseSystemUser to Acronym--><g id="link_eCourseSystemUser_Acronym"><path codeLine="84" d="M284.625,69.5768 C273.08,77.3468 260.615,87.0968 251.15,98.0068 C237.625,113.6018 227.45,135.1618 221.425,150.0618 " fill="none" id="eCourseSystemUser-to-Acronym" style="stroke:#181818;stroke-width:0.5;"/><polygon fill="#181818" points="220.495,152.3968,224.0232,148.9615,221.4235,150.0756,220.3093,147.4759,220.495,152.3968" style="stroke:#181818;stroke-width:0.5;"/><text fill="#000000" font-family="sans-serif" font-size="6.5" lengthAdjust="spacing" textLength="3.5" x="217.7365" y="146.903">1</text></g><!--link eCourseSystemUser to NIF--><g id="link_eCourseSystemUser_NIF"><path codeLine="85" d="M312.295,69.6018 C306.575,91.8218 297.15,128.4318 291.605,149.9518 " fill="none" id="eCourseSystemUser-to-NIF" style="stroke:#181818;stroke-width:0.5;"/><polygon fill="#181818" points="290.95,152.5018,294.0058,148.6402,291.5715,150.0803,290.1314,147.6459,290.95,152.5018" style="stroke:#181818;stroke-width:0.5;"/><text fill="#000000" font-family="sans-serif" font-size="6.5" lengthAdjust="spacing" textLength="3.5" x="287.8984" y="146.788">1</text></g><!--link eCourseSystemUser to BirthDate--><g id="link_eCourseSystemUser_BirthDate"><path codeLine="86" d="M323.945,69.6018 C331.97,91.8668 345.205,128.5818 352.96,150.0868 " fill="none" id="eCourseSystemUser-to-BirthDate" style="stroke:#181818;stroke-width:0.5;"/><polygon fill="#181818" points="353.83,152.5018,354.1801,147.5899,352.9797,150.1509,350.4186,148.9504,353.83,152.5018" style="stroke:#181818;stroke-width:0.5;"/><text fill="#000000" font-family="sans-serif" font-size="6.5" lengthAdjust="spacing" textLength="3.5" x="348.7834" y="146.788">1</text></g><!--link eCourseSystemUser to MechanographicNumber--><g id="link_eCourseSystemUser_MechanographicNumber"><path codeLine="87" d="M354.095,69.5818 C367.72,77.4118 382.83,87.2018 395.15,98.0068 C411.38,112.2418 426.47,131.6368 436.805,146.2818 " fill="none" id="eCourseSystemUser-to-MechanographicNumber" style="stroke:#181818;stroke-width:0.5;"/><polygon fill="#181818" points="438.295,148.4068,437.3438,143.5751,436.8575,146.3614,434.0712,145.8751,438.295,148.4068" style="stroke:#181818;stroke-width:0.5;"/><text fill="#000000" font-family="sans-serif" font-size="6.5" lengthAdjust="spacing" textLength="3.5" x="432.3707" y="142.8969">1</text></g><!--link eCourseSystemUser to Grade--><g id="link_eCourseSystemUser_Grade"><path codeLine="88" d="M357.485,51.4568 C398.88,54.1568 463.14,64.0618 506.15,98.0068 C522.81,111.1568 532.56,134.1368 537.62,149.9968 " fill="none" id="eCourseSystemUser-to-Grade" style="stroke:#181818;stroke-width:0.5;"/><polygon fill="#181818" points="538.39,152.4768,538.9659,147.5862,537.6488,150.0892,535.1457,148.7722,538.39,152.4768" style="stroke:#181818;stroke-width:0.5;"/><polygon fill="#000000" points="502.3433,90.5294,499.0808,87.0698,497.6704,89.6481,502.3433,90.5294" style="stroke:#000000;stroke-width:0.5;"/><text fill="#000000" font-family="sans-serif" font-size="6.5" lengthAdjust="spacing" textLength="39.5" x="504.65" y="92.021">student has a</text><text fill="#000000" font-family="sans-serif" font-size="6.5" lengthAdjust="spacing" textLength="3.5" x="533.6847" y="146.7576">1</text></g><!--link eCourseSystemUser to SharedBoard--><g id="link_eCourseSystemUser_SharedBoard"><path codeLine="89" d="M357.44,53.0718 C404.24,56.5718 483.365,65.0068 548.65,84.5068 C562.27,88.5768 565.54,90.5618 577.65,98.0068 C592.115,106.8968 606.95,117.7818 620.22,128.2618 " fill="none" id="eCourseSystemUser-to-SharedBoard" style="stroke:#181818;stroke-width:0.5;"/><polygon fill="#181818" points="622.335,129.9418,620.049,125.5802,620.3752,128.3897,617.5656,128.7159,622.335,129.9418" style="stroke:#181818;stroke-width:0.5;"/><polygon fill="#000000" points="575.5535,90.0173,571.6097,87.3604,570.8013,90.186,575.5535,90.0173" style="stroke:#000000;stroke-width:0.5;"/><text fill="#000000" font-family="sans-serif" font-size="6.5" lengthAdjust="spacing" textLength="15" x="577.65" y="92.021">owns</text><text fill="#000000" font-family="sans-serif" font-size="6.5" lengthAdjust="spacing" textLength="2.5" x="615.4481" y="124.3217">*</text></g><!--link eCourseSystemUser to SharedBoard--><g id="link_eCourseSystemUser_SharedBoard"><path codeLine="90" d="M357.505,51.9718 C424.86,54.6018 556.78,62.4718 597.15,84.5068 C615.48,94.5118 630.88,111.5968 642.405,127.6518 " fill="none" id="eCourseSystemUser-to-SharedBoard-1" style="stroke:#181818;stroke-width:0.5;"/><polygon fill="#181818" points="643.935,129.8068,642.9613,124.9796,642.488,127.7682,639.6994,127.2949,643.935,129.8068" style="stroke:#181818;stroke-width:0.5;"/><polygon fill="#000000" points="609.2338,88.6878,613.2275,91.2691,613.982,88.4286,609.2338,88.6878" style="stroke:#000000;stroke-width:0.5;"/><text fill="#000000" font-family="sans-serif" font-size="6.5" lengthAdjust="spacing" textLength="27" x="616.15" y="92.021">shared to</text><text fill="#000000" font-family="sans-serif" font-size="6.5" lengthAdjust="spacing" textLength="2.5" x="639.3179" y="124.4368">*</text></g><!--link SharedBoard to RowCell--><g id="link_SharedBoard_RowCell"><path codeLine="91" d="M697.13,205.5918 C709.595,220.3818 723.595,236.9868 734.77,250.2418 " fill="none" id="SharedBoard-RowCell" style="stroke:#181818;stroke-width:0.5;"/><polygon fill="#000000" points="719.7613,227.241,717.9699,222.8361,715.7229,224.7303,719.7613,227.241" style="stroke:#000000;stroke-width:0.5;"/><text fill="#000000" font-family="sans-serif" font-size="6.5" lengthAdjust="spacing" textLength="10.5" x="722.65" y="228.021">has</text><text fill="#000000" font-family="sans-serif" font-size="6.5" lengthAdjust="spacing" textLength="3.5" x="696.3707" y="216.4918">1</text><text fill="#000000" font-family="sans-serif" font-size="6.5" lengthAdjust="spacing" textLength="14.5" x="717.2865" y="243.8343">1..20</text></g><!--link SharedBoard to ColumnCell--><g id="link_SharedBoard_ColumnCell"><path codeLine="92" d="M674.57,205.5918 C678.03,220.0818 681.905,236.3118 685.04,249.4318 " fill="none" id="SharedBoard-ColumnCell" style="stroke:#181818;stroke-width:0.5;"/><polygon fill="#000000" points="682.7307,227.7612,683.1095,223.021,680.2509,223.7037,682.7307,227.7612" style="stroke:#000000;stroke-width:0.5;"/><text fill="#000000" font-family="sans-serif" font-size="6.5" lengthAdjust="spacing" textLength="10.5" x="686.65" y="228.021">has</text><text fill="#000000" font-family="sans-serif" font-size="6.5" lengthAdjust="spacing" textLength="3.5" x="671.731" y="216.4918">1</text><text fill="#000000" font-family="sans-serif" font-size="6.5" lengthAdjust="spacing" textLength="14.5" x="668.7448" y="243.8854">1..10</text></g><!--link SharedBoard to NormalCell--><g id="link_SharedBoard_NormalCell"><path codeLine="93" d="M650.61,205.5918 C645.43,218.4618 639.695,232.6968 634.775,244.9118 " fill="none" id="SharedBoard-NormalCell" style="stroke:#181818;stroke-width:0.5;"/><polygon fill="#000000" points="645.7161,227.6486,648.7686,224.0024,646.0425,222.9045,645.7161,227.6486" style="stroke:#000000;stroke-width:0.5;"/><text fill="#000000" font-family="sans-serif" font-size="6.5" lengthAdjust="spacing" textLength="10.5" x="651.15" y="228.021">has</text><text fill="#000000" font-family="sans-serif" font-size="6.5" lengthAdjust="spacing" textLength="3.5" x="645.5622" y="216.4918">1</text><text fill="#000000" font-family="sans-serif" font-size="6.5" lengthAdjust="spacing" textLength="10" x="625.5988" y="239.3915">1..*</text></g><!--link NormalCell to Cell--><g id="link_NormalCell_Cell"><path codeLine="94" d="M647.77,305.8018 C654.05,313.2518 660.77,321.2268 667.005,328.6168 " fill="none" id="NormalCell-to-Cell" style="stroke:#181818;stroke-width:0.5;"/><polygon fill="none" points="669.76,326.4568,673.53,336.3568,664.41,330.9718,669.76,326.4568" style="stroke:#181818;stroke-width:0.5;"/></g><!--link ColumnCell to Cell--><g id="link_ColumnCell_Cell"><path codeLine="95" d="M691.15,301.7168 C691.15,309.5468 691.15,318.2418 691.15,326.3818 " fill="none" id="ColumnCell-to-Cell" style="stroke:#181818;stroke-width:0.5;"/><polygon fill="none" points="694.65,326.4668,691.15,336.4668,687.65,326.4668,694.65,326.4668" style="stroke:#181818;stroke-width:0.5;"/></g><!--link RowCell to Cell--><g id="link_RowCell_Cell"><path codeLine="96" d="M735.24,301.7168 C728.465,310.2518 720.88,319.8018 713.94,328.5518 " fill="none" id="RowCell-to-Cell" style="stroke:#181818;stroke-width:0.5;"/><polygon fill="none" points="716.615,330.8068,707.655,336.4668,711.13,326.4568,716.615,330.8068" style="stroke:#181818;stroke-width:0.5;"/></g><!--SRC=[bLHDRvj04BtpArPS8gN2Rdgq41AsQHkfSIg8A_KuXX7GxeUx7tMjrl-z2mds4cFSxi7MphnvF37lSLDflLMpwNHBWMl3w2GNRAhmXq6UOr3KK4fWdkTj8VyE9H8_MJokqop9lcPFoSCwIrAVX65SbX9Bq1X5vBVd4Njo2agHRAyqihL2QL5I26q1OPXmNUjzYoKlvvQiWA5pRMPuLpgudBWGHYgyIdq-cJ2eQLmKAEqb3By0DKZ4vXlcTjW5feBY9PsPbZKloR2sHawcGPk67xbXlU4t95d5yq-9KrZUPyTAZ-cp_Ta9MLYUdnTrnhaKVCz6CQlxzwFzUIrrjRIx6qKzO5u15zODswhELuPjslVU7x05C5emq7KEbEv9YHobfIxwP1ya54EFExX6opx6QJ9_ZDDbup3eESmnM0KIYxc0zaqTRO13cwiRYE6rDVSLhQUPZR1QNrcJmQzKx5I_iX3KCAxE5xb0Ib_9S2wvuDgAFHzR2Sc0ZWzBiUjHDGh-XVjPwpLX3UQfrfhYy4CE_SJihcez8-lq7zhDtwH8xJO4LrMzLPxd13m88kBV-Rq03_Mxq0prcanxtld7e-kVIYEWbkHo-nJ_4T1BQ4SGDh8ZtMDWHp13SHs1FmToHfGsXNKCgK0H8D6bYLk_bxiP4Jkk_WEksXlHWeIUssca187zcqpUlVMFdfgrUg9Bq3iBTHnz1Mt5ED7gm4uf2Fv4RMWzX_HKx4ITAlRy1G00]--></g></svg>