<?xml version="1.0" encoding="us-ascii" standalone="no"?><svg xmlns="http://www.w3.org/2000/svg" xmlns:xlink="http://www.w3.org/1999/xlink" contentStyleType="text/css" height="1047px" preserveAspectRatio="none" style="width:1295px;height:1047px;background:#FFFFFF;" version="1.1" viewBox="0 0 1295 1047" width="1295px" zoomAndPan="magnify"><defs/><g><rect fill="#FFFFFF" height="817.2754" style="stroke:#181818;stroke-width:1.0;" width="10" x="17.5" y="121.5332"/><rect fill="#FFFFFF" height="406.7832" style="stroke:#181818;stroke-width:1.0;" width="10" x="225.5" y="121.5332"/><rect fill="#FFFFFF" height="370.2012" style="stroke:#181818;stroke-width:1.0;" width="10" x="225.5" y="559.6074"/><rect fill="#FFFFFF" height="281.6191" style="stroke:#181818;stroke-width:1.0;" width="10" x="398.5" y="215.4063"/><rect fill="#FFFFFF" height="307.6191" style="stroke:#181818;stroke-width:1.0;" width="10" x="398.5" y="590.8984"/><rect fill="#FFFFFF" height="31.291" style="stroke:#181818;stroke-width:1.0;" width="10" x="559" y="152.8242"/><rect fill="#FFFFFF" height="31.291" style="stroke:#181818;stroke-width:1.0;" width="10" x="708.5" y="246.6973"/><rect fill="#FFFFFF" height="31.291" style="stroke:#181818;stroke-width:1.0;" width="10" x="836.5" y="309.2793"/><rect fill="#FFFFFF" height="31.291" style="stroke:#181818;stroke-width:1.0;" width="10" x="964" y="434.4434"/><rect fill="#FFFFFF" height="31.291" style="stroke:#181818;stroke-width:1.0;" width="10" x="964" y="622.1895"/><rect fill="#FFFFFF" height="75.582" style="stroke:#181818;stroke-width:1.0;" width="10" x="964" y="791.6445"/><rect fill="#FFFFFF" height="31.291" style="stroke:#181818;stroke-width:1.0;" width="10" x="1096.5" y="371.8613"/><rect fill="#FFFFFF" height="75.582" style="stroke:#181818;stroke-width:1.0;" width="10" x="1205" y="684.7715"/><line style="stroke:#181818;stroke-width:0.5;stroke-dasharray:5.0,5.0;" x1="22" x2="22" y1="88.2422" y2="947.8086"/><line style="stroke:#181818;stroke-width:0.5;stroke-dasharray:5.0,5.0;" x1="230" x2="230" y1="88.2422" y2="947.8086"/><line style="stroke:#181818;stroke-width:0.5;stroke-dasharray:5.0,5.0;" x1="403" x2="403" y1="88.2422" y2="947.8086"/><line style="stroke:#181818;stroke-width:0.5;stroke-dasharray:5.0,5.0;" x1="564" x2="564" y1="88.2422" y2="947.8086"/><line style="stroke:#181818;stroke-width:0.5;stroke-dasharray:5.0,5.0;" x1="713" x2="713" y1="88.2422" y2="947.8086"/><line style="stroke:#181818;stroke-width:0.5;stroke-dasharray:5.0,5.0;" x1="841" x2="841" y1="88.2422" y2="947.8086"/><line style="stroke:#181818;stroke-width:0.5;stroke-dasharray:5.0,5.0;" x1="969" x2="969" y1="88.2422" y2="947.8086"/><line style="stroke:#181818;stroke-width:0.5;stroke-dasharray:5.0,5.0;" x1="1101" x2="1101" y1="88.2422" y2="947.8086"/><line style="stroke:#181818;stroke-width:0.5;stroke-dasharray:5.0,5.0;" x1="1210" x2="1210" y1="88.2422" y2="947.8086"/><text fill="#000000" font-family="sans-serif" font-size="14" lengthAdjust="spacing" textLength="29" x="5" y="84.7285">User</text><ellipse cx="22.5" cy="18.1211" fill="#E2E2F0" rx="8" ry="8" style="stroke:#181818;stroke-width:0.5;"/><path d="M22.5,26.1211 L22.5,53.1211 M9.5,34.1211 L35.5,34.1211 M22.5,53.1211 L9.5,68.1211 M22.5,53.1211 L35.5,68.1211 " fill="none" style="stroke:#181818;stroke-width:0.5;"/><text fill="#000000" font-family="sans-serif" font-size="14" lengthAdjust="spacing" textLength="29" x="5" y="961.916">User</text><ellipse cx="22.5" cy="973.9297" fill="#E2E2F0" rx="8" ry="8" style="stroke:#181818;stroke-width:0.5;"/><path d="M22.5,981.9297 L22.5,1008.9297 M9.5,989.9297 L35.5,989.9297 M22.5,1008.9297 L9.5,1023.9297 M22.5,1008.9297 L35.5,1023.9297 " fill="none" style="stroke:#181818;stroke-width:0.5;"/><rect fill="#E2E2F0" height="32.6211" rx="2.5" ry="2.5" style="stroke:#181818;stroke-width:0.5;" width="115" x="173" y="54.6211"/><text fill="#000000" font-family="sans-serif" font-size="14" lengthAdjust="spacing" textLength="101" x="180" y="76.7285">:ArchiveBoardUI</text><rect fill="#E2E2F0" height="32.6211" rx="2.5" ry="2.5" style="stroke:#181818;stroke-width:0.5;" width="115" x="173" y="946.8086"/><text fill="#000000" font-family="sans-serif" font-size="14" lengthAdjust="spacing" textLength="101" x="180" y="968.916">:ArchiveBoardUI</text><rect fill="#E2E2F0" height="32.6211" rx="2.5" ry="2.5" style="stroke:#181818;stroke-width:0.5;" width="165" x="321" y="54.6211"/><text fill="#000000" font-family="sans-serif" font-size="14" lengthAdjust="spacing" textLength="151" x="328" y="76.7285">:ArchiveBoardController</text><rect fill="#E2E2F0" height="32.6211" rx="2.5" ry="2.5" style="stroke:#181818;stroke-width:0.5;" width="165" x="321" y="946.8086"/><text fill="#000000" font-family="sans-serif" font-size="14" lengthAdjust="spacing" textLength="151" x="328" y="968.916">:ArchiveBoardController</text><rect fill="#E2E2F0" height="32.6211" rx="2.5" ry="2.5" style="stroke:#181818;stroke-width:0.5;" width="136" x="496" y="54.6211"/><text fill="#000000" font-family="sans-serif" font-size="14" lengthAdjust="spacing" textLength="122" x="503" y="76.7285">:ShareBoardServer</text><rect fill="#E2E2F0" height="32.6211" rx="2.5" ry="2.5" style="stroke:#181818;stroke-width:0.5;" width="136" x="496" y="946.8086"/><text fill="#000000" font-family="sans-serif" font-size="14" lengthAdjust="spacing" textLength="122" x="503" y="968.916">:ShareBoardServer</text><rect fill="#E2E2F0" height="32.6211" rx="2.5" ry="2.5" style="stroke:#181818;stroke-width:0.5;" width="143" x="642" y="54.6211"/><text fill="#000000" font-family="sans-serif" font-size="14" lengthAdjust="spacing" textLength="129" x="649" y="76.7285">AuthorizationService</text><rect fill="#E2E2F0" height="32.6211" rx="2.5" ry="2.5" style="stroke:#181818;stroke-width:0.5;" width="143" x="642" y="946.8086"/><text fill="#000000" font-family="sans-serif" font-size="14" lengthAdjust="spacing" textLength="129" x="649" y="968.916">AuthorizationService</text><rect fill="#E2E2F0" height="32.6211" rx="2.5" ry="2.5" style="stroke:#181818;stroke-width:0.5;" width="93" x="795" y="54.6211"/><text fill="#000000" font-family="sans-serif" font-size="14" lengthAdjust="spacing" textLength="79" x="802" y="76.7285">UserSession</text><rect fill="#E2E2F0" height="32.6211" rx="2.5" ry="2.5" style="stroke:#181818;stroke-width:0.5;" width="93" x="795" y="946.8086"/><text fill="#000000" font-family="sans-serif" font-size="14" lengthAdjust="spacing" textLength="79" x="802" y="968.916">UserSession</text><text fill="#000000" font-family="sans-serif" font-size="14" font-style="italic" lengthAdjust="spacing" textLength="79" x="926.5" y="66.1074">&#171;repository&#187;</text><text fill="#000000" font-family="sans-serif" font-size="14" lengthAdjust="spacing" textLength="136" x="898" y="84.7285">ShareBoardRepsitory</text><path d="M951,15 C951,5 969,5 969,5 C969,5 987,5 987,15 L987,41 C987,51 969,51 969,51 C969,51 951,51 951,41 L951,15 " fill="#E2E2F0" style="stroke:#181818;stroke-width:1.5;"/><path d="M951,15 C951,25 969,25 969,25 C969,25 987,25 987,15 " fill="none" style="stroke:#181818;stroke-width:1.5;"/><text fill="#000000" font-family="sans-serif" font-size="14" font-style="italic" lengthAdjust="spacing" textLength="79" x="926.5" y="961.916">&#171;repository&#187;</text><text fill="#000000" font-family="sans-serif" font-size="14" lengthAdjust="spacing" textLength="136" x="898" y="980.5371">ShareBoardRepsitory</text><path d="M951,994.0508 C951,984.0508 969,984.0508 969,984.0508 C969,984.0508 987,984.0508 987,994.0508 L987,1020.0508 C987,1030.0508 969,1030.0508 969,1030.0508 C969,1030.0508 951,1030.0508 951,1020.0508 L951,994.0508 " fill="#E2E2F0" style="stroke:#181818;stroke-width:1.5;"/><path d="M951,994.0508 C951,1004.0508 969,1004.0508 969,1004.0508 C969,1004.0508 987,1004.0508 987,994.0508 " fill="none" style="stroke:#181818;stroke-width:1.5;"/><text fill="#000000" font-family="sans-serif" font-size="14" font-style="italic" lengthAdjust="spacing" textLength="79" x="1059" y="66.1074">&#171;repository&#187;</text><text fill="#000000" font-family="sans-serif" font-size="14" lengthAdjust="spacing" textLength="97" x="1050" y="84.7285">UserRepository</text><path d="M1083.5,15 C1083.5,5 1101.5,5 1101.5,5 C1101.5,5 1119.5,5 1119.5,15 L1119.5,41 C1119.5,51 1101.5,51 1101.5,51 C1101.5,51 1083.5,51 1083.5,41 L1083.5,15 " fill="#E2E2F0" style="stroke:#181818;stroke-width:1.5;"/><path d="M1083.5,15 C1083.5,25 1101.5,25 1101.5,25 C1101.5,25 1119.5,25 1119.5,15 " fill="none" style="stroke:#181818;stroke-width:1.5;"/><text fill="#000000" font-family="sans-serif" font-size="14" font-style="italic" lengthAdjust="spacing" textLength="79" x="1059" y="961.916">&#171;repository&#187;</text><text fill="#000000" font-family="sans-serif" font-size="14" lengthAdjust="spacing" textLength="97" x="1050" y="980.5371">UserRepository</text><path d="M1083.5,994.0508 C1083.5,984.0508 1101.5,984.0508 1101.5,984.0508 C1101.5,984.0508 1119.5,984.0508 1119.5,994.0508 L1119.5,1020.0508 C1119.5,1030.0508 1101.5,1030.0508 1101.5,1030.0508 C1101.5,1030.0508 1083.5,1030.0508 1083.5,1020.0508 L1083.5,994.0508 " fill="#E2E2F0" style="stroke:#181818;stroke-width:1.5;"/><path d="M1083.5,994.0508 C1083.5,1004.0508 1101.5,1004.0508 1101.5,1004.0508 C1101.5,1004.0508 1119.5,1004.0508 1119.5,994.0508 " fill="none" style="stroke:#181818;stroke-width:1.5;"/><rect fill="#E2E2F0" height="32.6211" rx="2.5" ry="2.5" style="stroke:#181818;stroke-width:0.5;" width="94" x="1163" y="54.6211"/><text fill="#000000" font-family="sans-serif" font-size="14" lengthAdjust="spacing" textLength="80" x="1170" y="76.7285">:ShareBoard</text><rect fill="#E2E2F0" height="32.6211" rx="2.5" ry="2.5" style="stroke:#181818;stroke-width:0.5;" width="94" x="1163" y="946.8086"/><text fill="#000000" font-family="sans-serif" font-size="14" lengthAdjust="spacing" textLength="80" x="1170" y="968.916">:ShareBoard</text><rect fill="#FFFFFF" height="817.2754" style="stroke:#181818;stroke-width:1.0;" width="10" x="17.5" y="121.5332"/><rect fill="#FFFFFF" height="406.7832" style="stroke:#181818;stroke-width:1.0;" width="10" x="225.5" y="121.5332"/><rect fill="#FFFFFF" height="370.2012" style="stroke:#181818;stroke-width:1.0;" width="10" x="225.5" y="559.6074"/><rect fill="#FFFFFF" height="281.6191" style="stroke:#181818;stroke-width:1.0;" width="10" x="398.5" y="215.4063"/><rect fill="#FFFFFF" height="307.6191" style="stroke:#181818;stroke-width:1.0;" width="10" x="398.5" y="590.8984"/><rect fill="#FFFFFF" height="31.291" style="stroke:#181818;stroke-width:1.0;" width="10" x="559" y="152.8242"/><rect fill="#FFFFFF" height="31.291" style="stroke:#181818;stroke-width:1.0;" width="10" x="708.5" y="246.6973"/><rect fill="#FFFFFF" height="31.291" style="stroke:#181818;stroke-width:1.0;" width="10" x="836.5" y="309.2793"/><rect fill="#FFFFFF" height="31.291" style="stroke:#181818;stroke-width:1.0;" width="10" x="964" y="434.4434"/><rect fill="#FFFFFF" height="31.291" style="stroke:#181818;stroke-width:1.0;" width="10" x="964" y="622.1895"/><rect fill="#FFFFFF" height="75.582" style="stroke:#181818;stroke-width:1.0;" width="10" x="964" y="791.6445"/><rect fill="#FFFFFF" height="31.291" style="stroke:#181818;stroke-width:1.0;" width="10" x="1096.5" y="371.8613"/><rect fill="#FFFFFF" height="75.582" style="stroke:#181818;stroke-width:1.0;" width="10" x="1205" y="684.7715"/><polygon fill="#181818" points="213.5,117.5332,223.5,121.5332,213.5,125.5332,217.5,121.5332" style="stroke:#181818;stroke-width:1.0;"/><line style="stroke:#181818;stroke-width:1.0;" x1="27.5" x2="219.5" y1="121.5332" y2="121.5332"/><text fill="#000000" font-family="sans-serif" font-size="13" font-weight="bold" lengthAdjust="spacing" textLength="7" x="34.5" y="116.2705">1</text><text fill="#000000" font-family="sans-serif" font-size="13" lengthAdjust="spacing" textLength="138" x="45.5" y="116.2705">Starts archiving a Board</text><polygon fill="#181818" points="547,148.8242,557,152.8242,547,156.8242,551,152.8242" style="stroke:#181818;stroke-width:1.0;"/><line style="stroke:#181818;stroke-width:1.0;" x1="235.5" x2="553" y1="152.8242" y2="152.8242"/><text fill="#000000" font-family="sans-serif" font-size="13" font-weight="bold" lengthAdjust="spacing" textLength="7" x="242.5" y="147.5615">2</text><text fill="#000000" font-family="sans-serif" font-size="13" lengthAdjust="spacing" textLength="74" x="253.5" y="147.5615">shareBoard()</text><polygon fill="#181818" points="246.5,180.1152,236.5,184.1152,246.5,188.1152,242.5,184.1152" style="stroke:#181818;stroke-width:1.0;"/><line style="stroke:#181818;stroke-width:1.0;stroke-dasharray:2.0,2.0;" x1="240.5" x2="563" y1="184.1152" y2="184.1152"/><text fill="#000000" font-family="sans-serif" font-size="13" font-weight="bold" lengthAdjust="spacing" textLength="7" x="252.5" y="178.8525">3</text><text fill="#000000" font-family="sans-serif" font-size="13" lengthAdjust="spacing" textLength="123" x="263.5" y="178.8525">ShareBoardController</text><polygon fill="#181818" points="386.5,211.4063,396.5,215.4063,386.5,219.4063,390.5,215.4063" style="stroke:#181818;stroke-width:1.0;"/><line style="stroke:#181818;stroke-width:1.0;" x1="235.5" x2="392.5" y1="215.4063" y2="215.4063"/><text fill="#000000" font-family="sans-serif" font-size="13" font-weight="bold" lengthAdjust="spacing" textLength="7" x="242.5" y="210.1436">4</text><text fill="#000000" font-family="sans-serif" font-size="13" lengthAdjust="spacing" textLength="94" x="253.5" y="210.1436">getUserBoards()</text><polygon fill="#181818" points="696.5,242.6973,706.5,246.6973,696.5,250.6973,700.5,246.6973" style="stroke:#181818;stroke-width:1.0;"/><line style="stroke:#181818;stroke-width:1.0;" x1="408.5" x2="702.5" y1="246.6973" y2="246.6973"/><text fill="#000000" font-family="sans-serif" font-size="13" font-weight="bold" lengthAdjust="spacing" textLength="7" x="415.5" y="241.4346">5</text><text fill="#000000" font-family="sans-serif" font-size="13" lengthAdjust="spacing" textLength="53" x="426.5" y="241.4346">session()</text><polygon fill="#181818" points="419.5,273.9883,409.5,277.9883,419.5,281.9883,415.5,277.9883" style="stroke:#181818;stroke-width:1.0;"/><line style="stroke:#181818;stroke-width:1.0;stroke-dasharray:2.0,2.0;" x1="413.5" x2="712.5" y1="277.9883" y2="277.9883"/><text fill="#000000" font-family="sans-serif" font-size="13" font-weight="bold" lengthAdjust="spacing" textLength="7" x="425.5" y="272.7256">6</text><text fill="#000000" font-family="sans-serif" font-size="13" lengthAdjust="spacing" textLength="45" x="436.5" y="272.7256">session</text><polygon fill="#181818" points="824.5,305.2793,834.5,309.2793,824.5,313.2793,828.5,309.2793" style="stroke:#181818;stroke-width:1.0;"/><line style="stroke:#181818;stroke-width:1.0;" x1="408.5" x2="830.5" y1="309.2793" y2="309.2793"/><text fill="#000000" font-family="sans-serif" font-size="13" font-weight="bold" lengthAdjust="spacing" textLength="7" x="415.5" y="304.0166">7</text><text fill="#000000" font-family="sans-serif" font-size="13" lengthAdjust="spacing" textLength="113" x="426.5" y="304.0166">authenticatedUser()</text><polygon fill="#181818" points="419.5,336.5703,409.5,340.5703,419.5,344.5703,415.5,340.5703" style="stroke:#181818;stroke-width:1.0;"/><line style="stroke:#181818;stroke-width:1.0;stroke-dasharray:2.0,2.0;" x1="413.5" x2="840.5" y1="340.5703" y2="340.5703"/><text fill="#000000" font-family="sans-serif" font-size="13" font-weight="bold" lengthAdjust="spacing" textLength="7" x="425.5" y="335.3076">8</text><text fill="#000000" font-family="sans-serif" font-size="13" lengthAdjust="spacing" textLength="25" x="436.5" y="335.3076">user</text><polygon fill="#181818" points="1084.5,367.8613,1094.5,371.8613,1084.5,375.8613,1088.5,371.8613" style="stroke:#181818;stroke-width:1.0;"/><line style="stroke:#181818;stroke-width:1.0;" x1="408.5" x2="1090.5" y1="371.8613" y2="371.8613"/><text fill="#000000" font-family="sans-serif" font-size="13" font-weight="bold" lengthAdjust="spacing" textLength="7" x="415.5" y="366.5986">9</text><text fill="#000000" font-family="sans-serif" font-size="13" lengthAdjust="spacing" textLength="134" x="426.5" y="366.5986">searchUser(user.email)</text><polygon fill="#181818" points="419.5,399.1523,409.5,403.1523,419.5,407.1523,415.5,403.1523" style="stroke:#181818;stroke-width:1.0;"/><line style="stroke:#181818;stroke-width:1.0;stroke-dasharray:2.0,2.0;" x1="413.5" x2="1100.5" y1="403.1523" y2="403.1523"/><text fill="#000000" font-family="sans-serif" font-size="13" font-weight="bold" lengthAdjust="spacing" textLength="14" x="425.5" y="397.8896">10</text><text fill="#000000" font-family="sans-serif" font-size="13" lengthAdjust="spacing" textLength="32" x="443.5" y="397.8896">euser</text><polygon fill="#181818" points="952,430.4434,962,434.4434,952,438.4434,956,434.4434" style="stroke:#181818;stroke-width:1.0;"/><line style="stroke:#181818;stroke-width:1.0;" x1="408.5" x2="958" y1="434.4434" y2="434.4434"/><text fill="#000000" font-family="sans-serif" font-size="13" font-weight="bold" lengthAdjust="spacing" textLength="14" x="415.5" y="429.1807">11</text><text fill="#000000" font-family="sans-serif" font-size="13" lengthAdjust="spacing" textLength="79" x="433.5" y="429.1807">getallOwned()</text><polygon fill="#181818" points="419.5,461.7344,409.5,465.7344,419.5,469.7344,415.5,465.7344" style="stroke:#181818;stroke-width:1.0;"/><line style="stroke:#181818;stroke-width:1.0;stroke-dasharray:2.0,2.0;" x1="413.5" x2="968" y1="465.7344" y2="465.7344"/><text fill="#000000" font-family="sans-serif" font-size="13" font-weight="bold" lengthAdjust="spacing" textLength="14" x="425.5" y="460.4717">12</text><text fill="#000000" font-family="sans-serif" font-size="13" lengthAdjust="spacing" textLength="80" x="443.5" y="460.4717">sharedBoards</text><polygon fill="#181818" points="246.5,493.0254,236.5,497.0254,246.5,501.0254,242.5,497.0254" style="stroke:#181818;stroke-width:1.0;"/><line style="stroke:#181818;stroke-width:1.0;stroke-dasharray:2.0,2.0;" x1="240.5" x2="402.5" y1="497.0254" y2="497.0254"/><text fill="#000000" font-family="sans-serif" font-size="13" font-weight="bold" lengthAdjust="spacing" textLength="14" x="252.5" y="491.7627">13</text><text fill="#000000" font-family="sans-serif" font-size="13" lengthAdjust="spacing" textLength="65" x="270.5" y="491.7627">boardsDTO</text><polygon fill="#181818" points="38.5,524.3164,28.5,528.3164,38.5,532.3164,34.5,528.3164" style="stroke:#181818;stroke-width:1.0;"/><line style="stroke:#181818;stroke-width:1.0;stroke-dasharray:2.0,2.0;" x1="32.5" x2="229.5" y1="528.3164" y2="528.3164"/><text fill="#000000" font-family="sans-serif" font-size="13" font-weight="bold" lengthAdjust="spacing" textLength="14" x="44.5" y="523.0537">14</text><text fill="#000000" font-family="sans-serif" font-size="13" lengthAdjust="spacing" textLength="156" x="62.5" y="523.0537">shows the boards to select</text><polygon fill="#181818" points="213.5,555.6074,223.5,559.6074,213.5,563.6074,217.5,559.6074" style="stroke:#181818;stroke-width:1.0;"/><line style="stroke:#181818;stroke-width:1.0;" x1="27.5" x2="219.5" y1="559.6074" y2="559.6074"/><text fill="#000000" font-family="sans-serif" font-size="13" font-weight="bold" lengthAdjust="spacing" textLength="14" x="34.5" y="554.3447">15</text><text fill="#000000" font-family="sans-serif" font-size="13" lengthAdjust="spacing" textLength="89" x="52.5" y="554.3447">selects a board</text><polygon fill="#181818" points="386.5,586.8984,396.5,590.8984,386.5,594.8984,390.5,590.8984" style="stroke:#181818;stroke-width:1.0;"/><line style="stroke:#181818;stroke-width:1.0;" x1="235.5" x2="392.5" y1="590.8984" y2="590.8984"/><text fill="#000000" font-family="sans-serif" font-size="13" font-weight="bold" lengthAdjust="spacing" textLength="14" x="242.5" y="585.6357">16</text><text fill="#000000" font-family="sans-serif" font-size="13" lengthAdjust="spacing" textLength="126" x="260.5" y="585.6357">ArchiveBoard(boardId)</text><polygon fill="#181818" points="952,618.1895,962,622.1895,952,626.1895,956,622.1895" style="stroke:#181818;stroke-width:1.0;"/><line style="stroke:#181818;stroke-width:1.0;" x1="408.5" x2="958" y1="622.1895" y2="622.1895"/><text fill="#000000" font-family="sans-serif" font-size="13" font-weight="bold" lengthAdjust="spacing" textLength="14" x="415.5" y="616.9268">17</text><text fill="#000000" font-family="sans-serif" font-size="13" lengthAdjust="spacing" textLength="158" x="433.5" y="616.9268">board =findbyCode(boardId)</text><polygon fill="#181818" points="419.5,649.4805,409.5,653.4805,419.5,657.4805,415.5,653.4805" style="stroke:#181818;stroke-width:1.0;"/><line style="stroke:#181818;stroke-width:1.0;" x1="413.5" x2="968" y1="653.4805" y2="653.4805"/><text fill="#000000" font-family="sans-serif" font-size="13" font-weight="bold" lengthAdjust="spacing" textLength="14" x="425.5" y="648.2178">18</text><text fill="#000000" font-family="sans-serif" font-size="13" lengthAdjust="spacing" textLength="32" x="443.5" y="648.2178">board</text><polygon fill="#181818" points="1193,680.7715,1203,684.7715,1193,688.7715,1197,684.7715" style="stroke:#181818;stroke-width:1.0;"/><line style="stroke:#181818;stroke-width:1.0;" x1="408.5" x2="1199" y1="684.7715" y2="684.7715"/><text fill="#000000" font-family="sans-serif" font-size="13" font-weight="bold" lengthAdjust="spacing" textLength="14" x="415.5" y="679.5088">19</text><text fill="#000000" font-family="sans-serif" font-size="13" lengthAdjust="spacing" textLength="48" x="433.5" y="679.5088">archive()</text><line style="stroke:#181818;stroke-width:1.0;" x1="1215" x2="1257" y1="716.0625" y2="716.0625"/><line style="stroke:#181818;stroke-width:1.0;" x1="1257" x2="1257" y1="716.0625" y2="729.0625"/><line style="stroke:#181818;stroke-width:1.0;" x1="1216" x2="1257" y1="729.0625" y2="729.0625"/><polygon fill="#181818" points="1226,725.0625,1216,729.0625,1226,733.0625,1222,729.0625" style="stroke:#181818;stroke-width:1.0;"/><text fill="#000000" font-family="sans-serif" font-size="13" font-weight="bold" lengthAdjust="spacing" textLength="14" x="1222" y="710.7998">20</text><text fill="#000000" font-family="sans-serif" font-size="13" lengthAdjust="spacing" textLength="48" x="1240" y="710.7998">archive()</text><polygon fill="#181818" points="419.5,756.3535,409.5,760.3535,419.5,764.3535,415.5,760.3535" style="stroke:#181818;stroke-width:1.0;"/><line style="stroke:#181818;stroke-width:1.0;stroke-dasharray:2.0,2.0;" x1="413.5" x2="1209" y1="760.3535" y2="760.3535"/><text fill="#000000" font-family="sans-serif" font-size="13" font-weight="bold" lengthAdjust="spacing" textLength="14" x="425.5" y="755.0908">21</text><text fill="#000000" font-family="sans-serif" font-size="13" lengthAdjust="spacing" textLength="70" x="443.5" y="755.0908">confirmation</text><polygon fill="#181818" points="952,787.6445,962,791.6445,952,795.6445,956,791.6445" style="stroke:#181818;stroke-width:1.0;"/><line style="stroke:#181818;stroke-width:1.0;" x1="408.5" x2="958" y1="791.6445" y2="791.6445"/><text fill="#000000" font-family="sans-serif" font-size="13" font-weight="bold" lengthAdjust="spacing" textLength="14" x="415.5" y="786.3818">22</text><text fill="#000000" font-family="sans-serif" font-size="13" lengthAdjust="spacing" textLength="66" x="433.5" y="786.3818">save(board)</text><line style="stroke:#181818;stroke-width:1.0;" x1="974" x2="1016" y1="822.9355" y2="822.9355"/><line style="stroke:#181818;stroke-width:1.0;" x1="1016" x2="1016" y1="822.9355" y2="835.9355"/><line style="stroke:#181818;stroke-width:1.0;" x1="975" x2="1016" y1="835.9355" y2="835.9355"/><polygon fill="#181818" points="985,831.9355,975,835.9355,985,839.9355,981,835.9355" style="stroke:#181818;stroke-width:1.0;"/><text fill="#000000" font-family="sans-serif" font-size="13" font-weight="bold" lengthAdjust="spacing" textLength="14" x="981" y="817.6729">23</text><text fill="#000000" font-family="sans-serif" font-size="13" lengthAdjust="spacing" textLength="66" x="999" y="817.6729">save(board)</text><polygon fill="#181818" points="419.5,863.2266,409.5,867.2266,419.5,871.2266,415.5,867.2266" style="stroke:#181818;stroke-width:1.0;"/><line style="stroke:#181818;stroke-width:1.0;stroke-dasharray:2.0,2.0;" x1="413.5" x2="968" y1="867.2266" y2="867.2266"/><text fill="#000000" font-family="sans-serif" font-size="13" font-weight="bold" lengthAdjust="spacing" textLength="14" x="425.5" y="861.9639">24</text><text fill="#000000" font-family="sans-serif" font-size="13" lengthAdjust="spacing" textLength="70" x="443.5" y="861.9639">confirmation</text><polygon fill="#181818" points="246.5,894.5176,236.5,898.5176,246.5,902.5176,242.5,898.5176" style="stroke:#181818;stroke-width:1.0;"/><line style="stroke:#181818;stroke-width:1.0;stroke-dasharray:2.0,2.0;" x1="240.5" x2="402.5" y1="898.5176" y2="898.5176"/><text fill="#000000" font-family="sans-serif" font-size="13" font-weight="bold" lengthAdjust="spacing" textLength="14" x="252.5" y="893.2549">25</text><text fill="#000000" font-family="sans-serif" font-size="13" lengthAdjust="spacing" textLength="70" x="270.5" y="893.2549">confirmation</text><polygon fill="#181818" points="38.5,925.8086,28.5,929.8086,38.5,933.8086,34.5,929.8086" style="stroke:#181818;stroke-width:1.0;"/><line style="stroke:#181818;stroke-width:1.0;stroke-dasharray:2.0,2.0;" x1="32.5" x2="229.5" y1="929.8086" y2="929.8086"/><text fill="#000000" font-family="sans-serif" font-size="13" font-weight="bold" lengthAdjust="spacing" textLength="14" x="44.5" y="924.5459">26</text><text fill="#000000" font-family="sans-serif" font-size="13" lengthAdjust="spacing" textLength="70" x="62.5" y="924.5459">confirmation</text><!--SRC=[XPH1Svim48Nl-XMQN9eUYEzCoeoT7iefCoY-z2R3ncW649M4C-clx-uAZ6NNxS4mY6-VLkyj_jA6CFfyinaxFOIfxvvgssyy_9fWg25hZ3uwtGkXfs27gJ-04s9R1-lateEJskCTbqRjWgdDY1ho8T-wkZKds5djcdtvm5Jv3-R53i7PhWF7B3vUmQhLBg8At6d6r4wbs7OAhNNcjmx63WIQ6fZSxjz-_4nPwbw1zqZ6_fGIZGxwe3t8TRiAHc_mj9znmqe-FpiORLmhYhM41QlpgwXPtV3tZZKVI0Y1TigiGBzaBbL0t4lDLfdXABLaMkWwc9CEmEQl3wNObrc1lc2jFsi_VbqHyWn_MLR43SxG6e5e8C5PapB9vH427PCB_AKi9IRmaXLiDMqVlKL8dgaOGxp9R16TII4lzesa883DK2gNE84j3EWU0WsraMXJVdHPTIT44b56k4aC9lT0jh8EaK_GQzCbYbKbw8A2h0UtWaY8kKMQ3JP8Tzthnm1NhYD8nDpS4ayJdHIfvOleCWK7Xhw_lLvYx3XdGnZE34dQ3o_HfBb21elcTb27oq8SacJ68e535gj42fPoiVFoUtraj6ok9Y2nWX7vxTqCpU7pnJRmbo8wAzkok19Rk7A38rExF7u6a1gBzLSlSI4cLjlXtRYU_mrIpKKIfq2VviPksxebQF5_sh5V-hxkGkGL1uSvt8N8_Zy0]--></g></svg>