<?xml version="1.0" encoding="us-ascii" standalone="no"?><svg xmlns="http://www.w3.org/2000/svg" xmlns:xlink="http://www.w3.org/1999/xlink" contentStyleType="text/css" height="1760px" preserveAspectRatio="none" style="width:2913px;height:1760px;background:#FFFFFF;" version="1.1" viewBox="0 0 2913 1760" width="2913px" zoomAndPan="magnify"><defs/><g><!--class eCourseSystemUser--><g id="elem_eCourseSystemUser"><rect codeLine="3" fill="#F1F1F1" height="401.8008" id="eCourseSystemUser" rx="2.5" ry="2.5" style="stroke:#181818;stroke-width:0.5;" width="545" x="793" y="134"/><ellipse cx="996.75" cy="150" fill="#ADD1B2" rx="11" ry="11" style="stroke:#181818;stroke-width:1.0;"/><path d="M999.5156,145.875 Q999.6719,145.6563 999.8594,145.5469 Q1000.0469,145.4375 1000.2656,145.4375 Q1000.6406,145.4375 1000.875,145.7031 Q1001.1094,145.9531 1001.1094,146.5625 L1001.1094,148.0156 Q1001.1094,148.625 1000.875,148.8906 Q1000.6406,149.1563 1000.2656,149.1563 Q999.9219,149.1563 999.7188,148.9531 Q999.5156,148.7656 999.4063,148.25 Q999.3594,147.8906 999.1719,147.7031 Q998.8438,147.3281 998.2344,147.1094 Q997.625,146.8906 997,146.8906 Q996.2344,146.8906 995.5938,147.2188 Q994.9688,147.5469 994.4688,148.2969 Q993.9844,149.0469 993.9844,150.0781 L993.9844,151.1719 Q993.9844,152.4063 994.875,153.2344 Q995.7656,154.0469 997.3594,154.0469 Q998.2969,154.0469 998.9531,153.7969 Q999.3438,153.6406 999.7656,153.2031 Q1000.0313,152.9375 1000.1719,152.8594 Q1000.3281,152.7813 1000.5313,152.7813 Q1000.8594,152.7813 1001.1094,153.0469 Q1001.375,153.2969 1001.375,153.6406 Q1001.375,153.9844 1001.0313,154.3906 Q1000.5313,154.9688 999.7344,155.2969 Q998.6563,155.75 997.3594,155.75 Q995.8438,155.75 994.6406,155.125 Q993.6563,154.625 992.9688,153.5625 Q992.2813,152.4844 992.2813,151.2031 L992.2813,150.0469 Q992.2813,148.7188 992.8906,147.5781 Q993.5156,146.4219 994.6094,145.8125 Q995.7031,145.1875 996.9375,145.1875 Q997.6719,145.1875 998.3125,145.3594 Q998.9688,145.5156 999.5156,145.875 Z " fill="#000000"/><text fill="#000000" font-family="sans-serif" font-size="14" lengthAdjust="spacing" textLength="129" x="1017.25" y="155.7969">eCourseSystemUser</text><line style="stroke:#181818;stroke-width:0.5;" x1="794" x2="1337" y1="166" y2="166"/><ellipse cx="804" cy="180.8105" fill="#000000" rx="3" ry="3" style="stroke:#000000;stroke-width:1.0;"/><text fill="#000000" font-family="sans-serif" font-size="14" lengthAdjust="spacing" textLength="131" x="813" y="185.1074">EmailAdderess email</text><ellipse cx="804" cy="199.4316" fill="#000000" rx="3" ry="3" style="stroke:#000000;stroke-width:1.0;"/><text fill="#000000" font-family="sans-serif" font-size="14" lengthAdjust="spacing" textLength="111" x="813" y="203.7285">UserStatus status</text><ellipse cx="804" cy="218.0527" fill="#000000" rx="3" ry="3" style="stroke:#000000;stroke-width:1.0;"/><text fill="#000000" font-family="sans-serif" font-size="14" lengthAdjust="spacing" textLength="197" x="813" y="222.3496">List&lt;Course&gt; coursesTeaching</text><ellipse cx="804" cy="236.6738" fill="#000000" rx="3" ry="3" style="stroke:#000000;stroke-width:1.0;"/><text fill="#000000" font-family="sans-serif" font-size="14" lengthAdjust="spacing" textLength="194" x="813" y="240.9707">List&lt;Course&gt; coursesTeached</text><ellipse cx="804" cy="255.2949" fill="#000000" rx="3" ry="3" style="stroke:#000000;stroke-width:1.0;"/><text fill="#000000" font-family="sans-serif" font-size="14" lengthAdjust="spacing" textLength="113" x="813" y="259.5918">Acronym acronym</text><ellipse cx="804" cy="273.916" fill="#000000" rx="3" ry="3" style="stroke:#000000;stroke-width:1.0;"/><text fill="#000000" font-family="sans-serif" font-size="14" lengthAdjust="spacing" textLength="40" x="813" y="278.2129">NIF nif</text><ellipse cx="804" cy="292.5371" fill="#000000" rx="3" ry="3" style="stroke:#000000;stroke-width:1.0;"/><text fill="#000000" font-family="sans-serif" font-size="14" lengthAdjust="spacing" textLength="121" x="813" y="296.834">BirthDate birthDate</text><ellipse cx="804" cy="311.1582" fill="#000000" rx="3" ry="3" style="stroke:#000000;stroke-width:1.0;"/><text fill="#000000" font-family="sans-serif" font-size="14" lengthAdjust="spacing" textLength="81" x="813" y="315.4551">Grade grade</text><ellipse cx="804" cy="329.7793" fill="#000000" rx="3" ry="3" style="stroke:#000000;stroke-width:1.0;"/><text fill="#000000" font-family="sans-serif" font-size="14" lengthAdjust="spacing" textLength="165" x="813" y="334.0762">int mecanographicNumber</text><ellipse cx="804" cy="348.4004" fill="#000000" rx="3" ry="3" style="stroke:#000000;stroke-width:1.0;"/><text fill="#000000" font-family="sans-serif" font-size="14" lengthAdjust="spacing" textLength="152" x="813" y="352.6973">SystemUser systemUser</text><line style="stroke:#181818;stroke-width:0.5;" x1="794" x2="1337" y1="360.2109" y2="360.2109"/><ellipse cx="804" cy="384.332" fill="#84BE84" rx="3" ry="3" style="stroke:#038048;stroke-width:1.0;"/><text fill="#000000" font-family="sans-serif" font-size="14" lengthAdjust="spacing" textLength="515" x="813" y="379.3184">eCourseSystemUser(String: name, String: fullName, String: shortName, Role: role,</text><text fill="#000000" font-family="sans-serif" font-size="14" lengthAdjust="spacing" textLength="322" x="817" y="397.9395">Email: email, Password, password, boolean: status)</text><ellipse cx="804" cy="430.8848" fill="#84BE84" rx="3" ry="3" style="stroke:#038048;stroke-width:1.0;"/><text fill="#000000" font-family="sans-serif" font-size="14" lengthAdjust="spacing" textLength="433" x="813" y="416.5605">eCourseSystemUser(String: name, boolean: regent, String: acronym,</text><text fill="#000000" font-family="sans-serif" font-size="14" lengthAdjust="spacing" textLength="409" x="821" y="435.1816">NIF: nif, BirthDate: birthDate, String: fullName, String: shortName,</text><text fill="#000000" font-family="sans-serif" font-size="14" lengthAdjust="spacing" textLength="391" x="817" y="453.8027">Role: role, Email: email, Password, password, boolean: status)</text><ellipse cx="804" cy="486.748" fill="#84BE84" rx="3" ry="3" style="stroke:#038048;stroke-width:1.0;"/><text fill="#000000" font-family="sans-serif" font-size="14" lengthAdjust="spacing" textLength="315" x="813" y="472.4238">Student(String: name, int: mecanographicNumber,</text><text fill="#000000" font-family="sans-serif" font-size="14" lengthAdjust="spacing" textLength="409" x="821" y="491.0449">NIF: nif, BirthDate: birthDate, String: fullName, String: shortName,</text><text fill="#000000" font-family="sans-serif" font-size="14" lengthAdjust="spacing" textLength="391" x="821" y="509.666">Role: role, Email: email, Password, password, boolean: status)</text><ellipse cx="804" cy="523.9902" fill="#84BE84" rx="3" ry="3" style="stroke:#038048;stroke-width:1.0;"/><text fill="#000000" font-family="sans-serif" font-size="14" lengthAdjust="spacing" textLength="205" x="813" y="528.2871">AlterUserStatus(boolean: status)</text></g><!--class ListUserService--><g id="elem_ListUserService"><rect codeLine="20" fill="#F1F1F1" height="66.6211" id="ListUserService" rx="2.5" ry="2.5" style="stroke:#181818;stroke-width:0.5;" width="185" x="7" y="1335.5"/><ellipse cx="46.75" cy="1351.5" fill="#ADD1B2" rx="11" ry="11" style="stroke:#181818;stroke-width:1.0;"/><path d="M49.5156,1347.375 Q49.6719,1347.1563 49.8594,1347.0469 Q50.0469,1346.9375 50.2656,1346.9375 Q50.6406,1346.9375 50.875,1347.2031 Q51.1094,1347.4531 51.1094,1348.0625 L51.1094,1349.5156 Q51.1094,1350.125 50.875,1350.3906 Q50.6406,1350.6563 50.2656,1350.6563 Q49.9219,1350.6563 49.7188,1350.4531 Q49.5156,1350.2656 49.4063,1349.75 Q49.3594,1349.3906 49.1719,1349.2031 Q48.8438,1348.8281 48.2344,1348.6094 Q47.625,1348.3906 47,1348.3906 Q46.2344,1348.3906 45.5938,1348.7188 Q44.9688,1349.0469 44.4688,1349.7969 Q43.9844,1350.5469 43.9844,1351.5781 L43.9844,1352.6719 Q43.9844,1353.9063 44.875,1354.7344 Q45.7656,1355.5469 47.3594,1355.5469 Q48.2969,1355.5469 48.9531,1355.2969 Q49.3438,1355.1406 49.7656,1354.7031 Q50.0313,1354.4375 50.1719,1354.3594 Q50.3281,1354.2813 50.5313,1354.2813 Q50.8594,1354.2813 51.1094,1354.5469 Q51.375,1354.7969 51.375,1355.1406 Q51.375,1355.4844 51.0313,1355.8906 Q50.5313,1356.4688 49.7344,1356.7969 Q48.6563,1357.25 47.3594,1357.25 Q45.8438,1357.25 44.6406,1356.625 Q43.6563,1356.125 42.9688,1355.0625 Q42.2813,1353.9844 42.2813,1352.7031 L42.2813,1351.5469 Q42.2813,1350.2188 42.8906,1349.0781 Q43.5156,1347.9219 44.6094,1347.3125 Q45.7031,1346.6875 46.9375,1346.6875 Q47.6719,1346.6875 48.3125,1346.8594 Q48.9688,1347.0156 49.5156,1347.375 Z " fill="#000000"/><text fill="#000000" font-family="sans-serif" font-size="14" lengthAdjust="spacing" textLength="98" x="66.25" y="1357.2969">ListUserService</text><line style="stroke:#181818;stroke-width:0.5;" x1="8" x2="191" y1="1367.5" y2="1367.5"/><line style="stroke:#181818;stroke-width:0.5;" x1="8" x2="191" y1="1375.5" y2="1375.5"/><ellipse cx="18" cy="1390.3105" fill="#84BE84" rx="3" ry="3" style="stroke:#038048;stroke-width:1.0;"/><text fill="#000000" font-family="sans-serif" font-size="14" lengthAdjust="spacing" textLength="159" x="27" y="1394.6074">findAllUsers(): List&lt;User&gt;</text></g><!--class UserRepository--><g id="elem_UserRepository"><rect codeLine="24" fill="#F1F1F1" height="196.9688" id="UserRepository" rx="2.5" ry="2.5" style="stroke:#181818;stroke-width:0.5;" width="328" x="227.5" y="1270.5"/><ellipse cx="338.75" cy="1286.5" fill="#ADD1B2" rx="11" ry="11" style="stroke:#181818;stroke-width:1.0;"/><path d="M341.5156,1282.375 Q341.6719,1282.1563 341.8594,1282.0469 Q342.0469,1281.9375 342.2656,1281.9375 Q342.6406,1281.9375 342.875,1282.2031 Q343.1094,1282.4531 343.1094,1283.0625 L343.1094,1284.5156 Q343.1094,1285.125 342.875,1285.3906 Q342.6406,1285.6563 342.2656,1285.6563 Q341.9219,1285.6563 341.7188,1285.4531 Q341.5156,1285.2656 341.4063,1284.75 Q341.3594,1284.3906 341.1719,1284.2031 Q340.8438,1283.8281 340.2344,1283.6094 Q339.625,1283.3906 339,1283.3906 Q338.2344,1283.3906 337.5938,1283.7188 Q336.9688,1284.0469 336.4688,1284.7969 Q335.9844,1285.5469 335.9844,1286.5781 L335.9844,1287.6719 Q335.9844,1288.9063 336.875,1289.7344 Q337.7656,1290.5469 339.3594,1290.5469 Q340.2969,1290.5469 340.9531,1290.2969 Q341.3438,1290.1406 341.7656,1289.7031 Q342.0313,1289.4375 342.1719,1289.3594 Q342.3281,1289.2813 342.5313,1289.2813 Q342.8594,1289.2813 343.1094,1289.5469 Q343.375,1289.7969 343.375,1290.1406 Q343.375,1290.4844 343.0313,1290.8906 Q342.5313,1291.4688 341.7344,1291.7969 Q340.6563,1292.25 339.3594,1292.25 Q337.8438,1292.25 336.6406,1291.625 Q335.6563,1291.125 334.9688,1290.0625 Q334.2813,1288.9844 334.2813,1287.7031 L334.2813,1286.5469 Q334.2813,1285.2188 334.8906,1284.0781 Q335.5156,1282.9219 336.6094,1282.3125 Q337.7031,1281.6875 338.9375,1281.6875 Q339.6719,1281.6875 340.3125,1281.8594 Q340.9688,1282.0156 341.5156,1282.375 Z " fill="#000000"/><text fill="#000000" font-family="sans-serif" font-size="14" lengthAdjust="spacing" textLength="97" x="359.25" y="1292.2969">UserRepository</text><line style="stroke:#181818;stroke-width:0.5;" x1="228.5" x2="554.5" y1="1302.5" y2="1302.5"/><line style="stroke:#181818;stroke-width:0.5;" x1="228.5" x2="554.5" y1="1310.5" y2="1310.5"/><ellipse cx="238.5" cy="1325.3105" fill="#84BE84" rx="3" ry="3" style="stroke:#038048;stroke-width:1.0;"/><text fill="#000000" font-family="sans-serif" font-size="14" lengthAdjust="spacing" textLength="127" x="247.5" y="1329.6074">addUser(user: user)</text><ellipse cx="238.5" cy="1343.9316" fill="#84BE84" rx="3" ry="3" style="stroke:#038048;stroke-width:1.0;"/><text fill="#000000" font-family="sans-serif" font-size="14" lengthAdjust="spacing" textLength="150" x="247.5" y="1348.2285">removeUser(user: user)</text><ellipse cx="238.5" cy="1371.8633" fill="#84BE84" rx="3" ry="3" style="stroke:#038048;stroke-width:1.0;"/><text fill="#000000" font-family="sans-serif" font-size="14" lengthAdjust="spacing" textLength="298" x="247.5" y="1366.8496">CreateUser(String: fullName, String: fhortName,</text><text fill="#000000" font-family="sans-serif" font-size="14" lengthAdjust="spacing" textLength="286" x="255.5" y="1385.4707">Role: role, Email: email, Password, password)</text><ellipse cx="238.5" cy="1399.7949" fill="#84BE84" rx="3" ry="3" style="stroke:#038048;stroke-width:1.0;"/><text fill="#000000" font-family="sans-serif" font-size="14" lengthAdjust="spacing" textLength="183" x="247.5" y="1404.0918">searchUser(user: user): User</text><ellipse cx="238.5" cy="1418.416" fill="#84BE84" rx="3" ry="3" style="stroke:#038048;stroke-width:1.0;"/><text fill="#000000" font-family="sans-serif" font-size="14" lengthAdjust="spacing" textLength="172" x="247.5" y="1422.7129">alterUserStatus(User: user)</text><ellipse cx="238.5" cy="1437.0371" fill="#84BE84" rx="3" ry="3" style="stroke:#038048;stroke-width:1.0;"/><text fill="#000000" font-family="sans-serif" font-size="14" lengthAdjust="spacing" textLength="160" x="247.5" y="1441.334">totalNumberOfUsers(): int</text><ellipse cx="238.5" cy="1455.6582" fill="#84BE84" rx="3" ry="3" style="stroke:#038048;stroke-width:1.0;"/><text fill="#000000" font-family="sans-serif" font-size="14" lengthAdjust="spacing" textLength="184" x="247.5" y="1459.9551">listSystemUsers(): List&lt;User&gt;</text></g><!--class Role--><g id="elem_Role"><rect codeLine="34" fill="#F1F1F1" height="85.2422" id="Role" rx="2.5" ry="2.5" style="stroke:#181818;stroke-width:0.5;" width="134" x="894.5" y="1326.5"/><ellipse cx="942.75" cy="1342.5" fill="#ADD1B2" rx="11" ry="11" style="stroke:#181818;stroke-width:1.0;"/><path d="M945.5156,1338.375 Q945.6719,1338.1563 945.8594,1338.0469 Q946.0469,1337.9375 946.2656,1337.9375 Q946.6406,1337.9375 946.875,1338.2031 Q947.1094,1338.4531 947.1094,1339.0625 L947.1094,1340.5156 Q947.1094,1341.125 946.875,1341.3906 Q946.6406,1341.6563 946.2656,1341.6563 Q945.9219,1341.6563 945.7188,1341.4531 Q945.5156,1341.2656 945.4063,1340.75 Q945.3594,1340.3906 945.1719,1340.2031 Q944.8438,1339.8281 944.2344,1339.6094 Q943.625,1339.3906 943,1339.3906 Q942.2344,1339.3906 941.5938,1339.7188 Q940.9688,1340.0469 940.4688,1340.7969 Q939.9844,1341.5469 939.9844,1342.5781 L939.9844,1343.6719 Q939.9844,1344.9063 940.875,1345.7344 Q941.7656,1346.5469 943.3594,1346.5469 Q944.2969,1346.5469 944.9531,1346.2969 Q945.3438,1346.1406 945.7656,1345.7031 Q946.0313,1345.4375 946.1719,1345.3594 Q946.3281,1345.2813 946.5313,1345.2813 Q946.8594,1345.2813 947.1094,1345.5469 Q947.375,1345.7969 947.375,1346.1406 Q947.375,1346.4844 947.0313,1346.8906 Q946.5313,1347.4688 945.7344,1347.7969 Q944.6563,1348.25 943.3594,1348.25 Q941.8438,1348.25 940.6406,1347.625 Q939.6563,1347.125 938.9688,1346.0625 Q938.2813,1344.9844 938.2813,1343.7031 L938.2813,1342.5469 Q938.2813,1341.2188 938.8906,1340.0781 Q939.5156,1338.9219 940.6094,1338.3125 Q941.7031,1337.6875 942.9375,1337.6875 Q943.6719,1337.6875 944.3125,1337.8594 Q944.9688,1338.0156 945.5156,1338.375 Z " fill="#000000"/><text fill="#000000" font-family="sans-serif" font-size="14" lengthAdjust="spacing" textLength="29" x="963.25" y="1348.2969">Role</text><line style="stroke:#181818;stroke-width:0.5;" x1="895.5" x2="1027.5" y1="1358.5" y2="1358.5"/><ellipse cx="905.5" cy="1373.3105" fill="#000000" rx="3" ry="3" style="stroke:#000000;stroke-width:1.0;"/><text fill="#000000" font-family="sans-serif" font-size="14" lengthAdjust="spacing" textLength="65" x="914.5" y="1377.6074">String role</text><line style="stroke:#181818;stroke-width:0.5;" x1="895.5" x2="1027.5" y1="1385.1211" y2="1385.1211"/><ellipse cx="905.5" cy="1399.9316" fill="#84BE84" rx="3" ry="3" style="stroke:#038048;stroke-width:1.0;"/><text fill="#000000" font-family="sans-serif" font-size="14" lengthAdjust="spacing" textLength="108" x="914.5" y="1404.2285">Role(String: role)</text></g><!--class Password--><g id="elem_Password"><rect codeLine="39" fill="#F1F1F1" height="85.2422" id="Password" rx="2.5" ry="2.5" style="stroke:#181818;stroke-width:0.5;" width="202" x="761.5" y="1668"/><ellipse cx="827.75" cy="1684" fill="#ADD1B2" rx="11" ry="11" style="stroke:#181818;stroke-width:1.0;"/><path d="M830.5156,1679.875 Q830.6719,1679.6563 830.8594,1679.5469 Q831.0469,1679.4375 831.2656,1679.4375 Q831.6406,1679.4375 831.875,1679.7031 Q832.1094,1679.9531 832.1094,1680.5625 L832.1094,1682.0156 Q832.1094,1682.625 831.875,1682.8906 Q831.6406,1683.1563 831.2656,1683.1563 Q830.9219,1683.1563 830.7188,1682.9531 Q830.5156,1682.7656 830.4063,1682.25 Q830.3594,1681.8906 830.1719,1681.7031 Q829.8438,1681.3281 829.2344,1681.1094 Q828.625,1680.8906 828,1680.8906 Q827.2344,1680.8906 826.5938,1681.2188 Q825.9688,1681.5469 825.4688,1682.2969 Q824.9844,1683.0469 824.9844,1684.0781 L824.9844,1685.1719 Q824.9844,1686.4063 825.875,1687.2344 Q826.7656,1688.0469 828.3594,1688.0469 Q829.2969,1688.0469 829.9531,1687.7969 Q830.3438,1687.6406 830.7656,1687.2031 Q831.0313,1686.9375 831.1719,1686.8594 Q831.3281,1686.7813 831.5313,1686.7813 Q831.8594,1686.7813 832.1094,1687.0469 Q832.375,1687.2969 832.375,1687.6406 Q832.375,1687.9844 832.0313,1688.3906 Q831.5313,1688.9688 830.7344,1689.2969 Q829.6563,1689.75 828.3594,1689.75 Q826.8438,1689.75 825.6406,1689.125 Q824.6563,1688.625 823.9688,1687.5625 Q823.2813,1686.4844 823.2813,1685.2031 L823.2813,1684.0469 Q823.2813,1682.7188 823.8906,1681.5781 Q824.5156,1680.4219 825.6094,1679.8125 Q826.7031,1679.1875 827.9375,1679.1875 Q828.6719,1679.1875 829.3125,1679.3594 Q829.9688,1679.5156 830.5156,1679.875 Z " fill="#000000"/><text fill="#000000" font-family="sans-serif" font-size="14" lengthAdjust="spacing" textLength="61" x="848.25" y="1689.7969">Password</text><line style="stroke:#181818;stroke-width:0.5;" x1="762.5" x2="962.5" y1="1700" y2="1700"/><ellipse cx="772.5" cy="1714.8105" fill="#000000" rx="3" ry="3" style="stroke:#000000;stroke-width:1.0;"/><text fill="#000000" font-family="sans-serif" font-size="14" lengthAdjust="spacing" textLength="101" x="781.5" y="1719.1074">String password</text><line style="stroke:#181818;stroke-width:0.5;" x1="762.5" x2="962.5" y1="1726.6211" y2="1726.6211"/><ellipse cx="772.5" cy="1741.4316" fill="#84BE84" rx="3" ry="3" style="stroke:#038048;stroke-width:1.0;"/><text fill="#000000" font-family="sans-serif" font-size="14" lengthAdjust="spacing" textLength="176" x="781.5" y="1745.7285">Password(String: password)</text></g><!--class EmailAdderess--><g id="elem_EmailAdderess"><rect codeLine="44" fill="#F1F1F1" height="48" id="EmailAdderess" rx="2.5" ry="2.5" style="stroke:#181818;stroke-width:0.5;" width="126" x="733.5" y="1345"/><ellipse cx="748.5" cy="1361" fill="#ADD1B2" rx="11" ry="11" style="stroke:#181818;stroke-width:1.0;"/><path d="M751.2656,1356.875 Q751.4219,1356.6563 751.6094,1356.5469 Q751.7969,1356.4375 752.0156,1356.4375 Q752.3906,1356.4375 752.625,1356.7031 Q752.8594,1356.9531 752.8594,1357.5625 L752.8594,1359.0156 Q752.8594,1359.625 752.625,1359.8906 Q752.3906,1360.1563 752.0156,1360.1563 Q751.6719,1360.1563 751.4688,1359.9531 Q751.2656,1359.7656 751.1563,1359.25 Q751.1094,1358.8906 750.9219,1358.7031 Q750.5938,1358.3281 749.9844,1358.1094 Q749.375,1357.8906 748.75,1357.8906 Q747.9844,1357.8906 747.3438,1358.2188 Q746.7188,1358.5469 746.2188,1359.2969 Q745.7344,1360.0469 745.7344,1361.0781 L745.7344,1362.1719 Q745.7344,1363.4063 746.625,1364.2344 Q747.5156,1365.0469 749.1094,1365.0469 Q750.0469,1365.0469 750.7031,1364.7969 Q751.0938,1364.6406 751.5156,1364.2031 Q751.7813,1363.9375 751.9219,1363.8594 Q752.0781,1363.7813 752.2813,1363.7813 Q752.6094,1363.7813 752.8594,1364.0469 Q753.125,1364.2969 753.125,1364.6406 Q753.125,1364.9844 752.7813,1365.3906 Q752.2813,1365.9688 751.4844,1366.2969 Q750.4063,1366.75 749.1094,1366.75 Q747.5938,1366.75 746.3906,1366.125 Q745.4063,1365.625 744.7188,1364.5625 Q744.0313,1363.4844 744.0313,1362.2031 L744.0313,1361.0469 Q744.0313,1359.7188 744.6406,1358.5781 Q745.2656,1357.4219 746.3594,1356.8125 Q747.4531,1356.1875 748.6875,1356.1875 Q749.4219,1356.1875 750.0625,1356.3594 Q750.7188,1356.5156 751.2656,1356.875 Z " fill="#000000"/><text fill="#000000" font-family="sans-serif" font-size="14" lengthAdjust="spacing" textLength="94" x="762.5" y="1366.7969">EmailAdderess</text><line style="stroke:#181818;stroke-width:0.5;" x1="734.5" x2="858.5" y1="1377" y2="1377"/><line style="stroke:#181818;stroke-width:0.5;" x1="734.5" x2="858.5" y1="1385" y2="1385"/></g><!--class RegisterNewUserUI--><g id="elem_RegisterNewUserUI"><rect codeLine="47" fill="#F1F1F1" height="141.1055" id="RegisterNewUserUI" rx="2.5" ry="2.5" style="stroke:#181818;stroke-width:0.5;" width="397" x="993" y="597"/><ellipse cx="1127.25" cy="613" fill="#ADD1B2" rx="11" ry="11" style="stroke:#181818;stroke-width:1.0;"/><path d="M1130.0156,608.875 Q1130.1719,608.6563 1130.3594,608.5469 Q1130.5469,608.4375 1130.7656,608.4375 Q1131.1406,608.4375 1131.375,608.7031 Q1131.6094,608.9531 1131.6094,609.5625 L1131.6094,611.0156 Q1131.6094,611.625 1131.375,611.8906 Q1131.1406,612.1563 1130.7656,612.1563 Q1130.4219,612.1563 1130.2188,611.9531 Q1130.0156,611.7656 1129.9063,611.25 Q1129.8594,610.8906 1129.6719,610.7031 Q1129.3438,610.3281 1128.7344,610.1094 Q1128.125,609.8906 1127.5,609.8906 Q1126.7344,609.8906 1126.0938,610.2188 Q1125.4688,610.5469 1124.9688,611.2969 Q1124.4844,612.0469 1124.4844,613.0781 L1124.4844,614.1719 Q1124.4844,615.4063 1125.375,616.2344 Q1126.2656,617.0469 1127.8594,617.0469 Q1128.7969,617.0469 1129.4531,616.7969 Q1129.8438,616.6406 1130.2656,616.2031 Q1130.5313,615.9375 1130.6719,615.8594 Q1130.8281,615.7813 1131.0313,615.7813 Q1131.3594,615.7813 1131.6094,616.0469 Q1131.875,616.2969 1131.875,616.6406 Q1131.875,616.9844 1131.5313,617.3906 Q1131.0313,617.9688 1130.2344,618.2969 Q1129.1563,618.75 1127.8594,618.75 Q1126.3438,618.75 1125.1406,618.125 Q1124.1563,617.625 1123.4688,616.5625 Q1122.7813,615.4844 1122.7813,614.2031 L1122.7813,613.0469 Q1122.7813,611.7188 1123.3906,610.5781 Q1124.0156,609.4219 1125.1094,608.8125 Q1126.2031,608.1875 1127.4375,608.1875 Q1128.1719,608.1875 1128.8125,608.3594 Q1129.4688,608.5156 1130.0156,608.875 Z " fill="#000000"/><text fill="#000000" font-family="sans-serif" font-size="14" lengthAdjust="spacing" textLength="120" x="1147.75" y="618.7969">RegisterNewUserUI</text><line style="stroke:#181818;stroke-width:0.5;" x1="994" x2="1389" y1="629" y2="629"/><line style="stroke:#181818;stroke-width:0.5;" x1="994" x2="1389" y1="637" y2="637"/><ellipse cx="1004" cy="651.8105" fill="#84BE84" rx="3" ry="3" style="stroke:#038048;stroke-width:1.0;"/><text fill="#000000" font-family="sans-serif" font-size="14" lengthAdjust="spacing" textLength="141" x="1013" y="656.1074">getRoles(): List&lt;Role&gt;</text><ellipse cx="1004" cy="670.4316" fill="#84BE84" rx="3" ry="3" style="stroke:#038048;stroke-width:1.0;"/><text fill="#000000" font-family="sans-serif" font-size="14" lengthAdjust="spacing" textLength="167" x="1013" y="674.7285">PasswordCreation() : pass</text><ellipse cx="1004" cy="698.3633" fill="#84BE84" rx="3" ry="3" style="stroke:#038048;stroke-width:1.0;"/><text fill="#000000" font-family="sans-serif" font-size="14" lengthAdjust="spacing" textLength="367" x="1013" y="693.3496">createUser(String: fullName, String: shortName, Role: role,</text><text fill="#000000" font-family="sans-serif" font-size="14" lengthAdjust="spacing" textLength="322" x="1017" y="711.9707">Email: email, Password, password, boolean: status)</text><ellipse cx="1004" cy="726.2949" fill="#84BE84" rx="3" ry="3" style="stroke:#038048;stroke-width:1.0;"/><text fill="#000000" font-family="sans-serif" font-size="14" lengthAdjust="spacing" textLength="356" x="1013" y="730.5918">saveUser(SystemUser: user, Role: role, Password: pass)</text></g><!--class RegisterNewUserController--><g id="elem_RegisterNewUserController"><rect codeLine="54" fill="#F1F1F1" height="252.832" id="RegisterNewUserController" rx="2.5" ry="2.5" style="stroke:#181818;stroke-width:0.5;" width="515" x="993" y="817"/><ellipse cx="1161.25" cy="833" fill="#ADD1B2" rx="11" ry="11" style="stroke:#181818;stroke-width:1.0;"/><path d="M1164.0156,828.875 Q1164.1719,828.6563 1164.3594,828.5469 Q1164.5469,828.4375 1164.7656,828.4375 Q1165.1406,828.4375 1165.375,828.7031 Q1165.6094,828.9531 1165.6094,829.5625 L1165.6094,831.0156 Q1165.6094,831.625 1165.375,831.8906 Q1165.1406,832.1563 1164.7656,832.1563 Q1164.4219,832.1563 1164.2188,831.9531 Q1164.0156,831.7656 1163.9063,831.25 Q1163.8594,830.8906 1163.6719,830.7031 Q1163.3438,830.3281 1162.7344,830.1094 Q1162.125,829.8906 1161.5,829.8906 Q1160.7344,829.8906 1160.0938,830.2188 Q1159.4688,830.5469 1158.9688,831.2969 Q1158.4844,832.0469 1158.4844,833.0781 L1158.4844,834.1719 Q1158.4844,835.4063 1159.375,836.2344 Q1160.2656,837.0469 1161.8594,837.0469 Q1162.7969,837.0469 1163.4531,836.7969 Q1163.8438,836.6406 1164.2656,836.2031 Q1164.5313,835.9375 1164.6719,835.8594 Q1164.8281,835.7813 1165.0313,835.7813 Q1165.3594,835.7813 1165.6094,836.0469 Q1165.875,836.2969 1165.875,836.6406 Q1165.875,836.9844 1165.5313,837.3906 Q1165.0313,837.9688 1164.2344,838.2969 Q1163.1563,838.75 1161.8594,838.75 Q1160.3438,838.75 1159.1406,838.125 Q1158.1563,837.625 1157.4688,836.5625 Q1156.7813,835.4844 1156.7813,834.2031 L1156.7813,833.0469 Q1156.7813,831.7188 1157.3906,830.5781 Q1158.0156,829.4219 1159.1094,828.8125 Q1160.2031,828.1875 1161.4375,828.1875 Q1162.1719,828.1875 1162.8125,828.3594 Q1163.4688,828.5156 1164.0156,828.875 Z " fill="#000000"/><text fill="#000000" font-family="sans-serif" font-size="14" lengthAdjust="spacing" textLength="170" x="1181.75" y="838.7969">RegisterNewUserController</text><line style="stroke:#181818;stroke-width:0.5;" x1="994" x2="1507" y1="849" y2="849"/><line style="stroke:#181818;stroke-width:0.5;" x1="994" x2="1507" y1="857" y2="857"/><ellipse cx="1004" cy="871.8105" fill="#84BE84" rx="3" ry="3" style="stroke:#038048;stroke-width:1.0;"/><text fill="#000000" font-family="sans-serif" font-size="14" lengthAdjust="spacing" textLength="156" x="1013" y="876.1074">getAllRoles(): List&lt;Role&gt;</text><ellipse cx="1004" cy="890.4316" fill="#84BE84" rx="3" ry="3" style="stroke:#038048;stroke-width:1.0;"/><text fill="#000000" font-family="sans-serif" font-size="14" lengthAdjust="spacing" textLength="125" x="1013" y="894.7285">PasswordCreation()</text><ellipse cx="1004" cy="927.6738" fill="#84BE84" rx="3" ry="3" style="stroke:#038048;stroke-width:1.0;"/><text fill="#000000" font-family="sans-serif" font-size="14" lengthAdjust="spacing" textLength="451" x="1013" y="913.3496">CreateStudent(String: name, Grade: grade, int: mecanographicNumber,</text><text fill="#000000" font-family="sans-serif" font-size="14" lengthAdjust="spacing" textLength="409" x="1021" y="931.9707">NIF: nif, BirthDate: birthDate, String: fullName, String: shortName,</text><text fill="#000000" font-family="sans-serif" font-size="14" lengthAdjust="spacing" textLength="391" x="1021" y="950.5918">Role: role, Email: email, Password, password, boolean: status)</text><ellipse cx="1004" cy="983.5371" fill="#84BE84" rx="3" ry="3" style="stroke:#038048;stroke-width:1.0;"/><text fill="#000000" font-family="sans-serif" font-size="14" lengthAdjust="spacing" textLength="400" x="1013" y="969.2129">CreateTeacher(String: name, boolean: regent, String: acronym,</text><text fill="#000000" font-family="sans-serif" font-size="14" lengthAdjust="spacing" textLength="409" x="1021" y="987.834">NIF: nif, BirthDate: birthDate, String: fullName, String: shortName,</text><text fill="#000000" font-family="sans-serif" font-size="14" lengthAdjust="spacing" textLength="391" x="1017" y="1006.4551">Role: role, Email: email, Password, password, boolean: status)</text><ellipse cx="1004" cy="1030.0898" fill="#84BE84" rx="3" ry="3" style="stroke:#038048;stroke-width:1.0;"/><text fill="#000000" font-family="sans-serif" font-size="14" lengthAdjust="spacing" textLength="485" x="1013" y="1025.0762">CreateManager(String: name, String: fullName, String: shortName, Role: role,</text><text fill="#000000" font-family="sans-serif" font-size="14" lengthAdjust="spacing" textLength="322" x="1017" y="1043.6973">Email: email, Password, password, boolean: status)</text><ellipse cx="1004" cy="1058.0215" fill="#84BE84" rx="3" ry="3" style="stroke:#038048;stroke-width:1.0;"/><text fill="#000000" font-family="sans-serif" font-size="14" lengthAdjust="spacing" textLength="99" x="1013" y="1062.3184">add(User: user)</text></g><!--class AlterUserStatusUI--><g id="elem_AlterUserStatusUI"><rect codeLine="63" fill="#F1F1F1" height="85.2422" id="AlterUserStatusUI" rx="2.5" ry="2.5" style="stroke:#181818;stroke-width:0.5;" width="198" x="532.5" y="625"/><ellipse cx="572.7" cy="641" fill="#ADD1B2" rx="11" ry="11" style="stroke:#181818;stroke-width:1.0;"/><path d="M575.4656,636.875 Q575.6219,636.6563 575.8094,636.5469 Q575.9969,636.4375 576.2156,636.4375 Q576.5906,636.4375 576.825,636.7031 Q577.0594,636.9531 577.0594,637.5625 L577.0594,639.0156 Q577.0594,639.625 576.825,639.8906 Q576.5906,640.1563 576.2156,640.1563 Q575.8719,640.1563 575.6688,639.9531 Q575.4656,639.7656 575.3563,639.25 Q575.3094,638.8906 575.1219,638.7031 Q574.7938,638.3281 574.1844,638.1094 Q573.575,637.8906 572.95,637.8906 Q572.1844,637.8906 571.5438,638.2188 Q570.9188,638.5469 570.4188,639.2969 Q569.9344,640.0469 569.9344,641.0781 L569.9344,642.1719 Q569.9344,643.4063 570.825,644.2344 Q571.7156,645.0469 573.3094,645.0469 Q574.2469,645.0469 574.9031,644.7969 Q575.2938,644.6406 575.7156,644.2031 Q575.9813,643.9375 576.1219,643.8594 Q576.2781,643.7813 576.4813,643.7813 Q576.8094,643.7813 577.0594,644.0469 Q577.325,644.2969 577.325,644.6406 Q577.325,644.9844 576.9813,645.3906 Q576.4813,645.9688 575.6844,646.2969 Q574.6063,646.75 573.3094,646.75 Q571.7938,646.75 570.5906,646.125 Q569.6063,645.625 568.9188,644.5625 Q568.2313,643.4844 568.2313,642.2031 L568.2313,641.0469 Q568.2313,639.7188 568.8406,638.5781 Q569.4656,637.4219 570.5594,636.8125 Q571.6531,636.1875 572.8875,636.1875 Q573.6219,636.1875 574.2625,636.3594 Q574.9188,636.5156 575.4656,636.875 Z " fill="#000000"/><text fill="#000000" font-family="sans-serif" font-size="14" lengthAdjust="spacing" textLength="110" x="592.3" y="646.7969">AlterUserStatusUI</text><line style="stroke:#181818;stroke-width:0.5;" x1="533.5" x2="729.5" y1="657" y2="657"/><line style="stroke:#181818;stroke-width:0.5;" x1="533.5" x2="729.5" y1="665" y2="665"/><ellipse cx="543.5" cy="679.8105" fill="#84BE84" rx="3" ry="3" style="stroke:#038048;stroke-width:1.0;"/><text fill="#000000" font-family="sans-serif" font-size="14" lengthAdjust="spacing" textLength="119" x="552.5" y="684.1074">searchUser(): User</text><ellipse cx="543.5" cy="698.4316" fill="#84BE84" rx="3" ry="3" style="stroke:#038048;stroke-width:1.0;"/><text fill="#000000" font-family="sans-serif" font-size="14" lengthAdjust="spacing" textLength="172" x="552.5" y="702.7285">alterUserStatus(User: user)</text></g><!--class AlterUserStatusController--><g id="elem_AlterUserStatusController"><rect codeLine="68" fill="#F1F1F1" height="85.2422" id="AlterUserStatusController" rx="2.5" ry="2.5" style="stroke:#181818;stroke-width:0.5;" width="198" x="532.5" y="901"/><ellipse cx="550.2" cy="917" fill="#ADD1B2" rx="11" ry="11" style="stroke:#181818;stroke-width:1.0;"/><path d="M552.9656,912.875 Q553.1219,912.6563 553.3094,912.5469 Q553.4969,912.4375 553.7156,912.4375 Q554.0906,912.4375 554.325,912.7031 Q554.5594,912.9531 554.5594,913.5625 L554.5594,915.0156 Q554.5594,915.625 554.325,915.8906 Q554.0906,916.1563 553.7156,916.1563 Q553.3719,916.1563 553.1688,915.9531 Q552.9656,915.7656 552.8563,915.25 Q552.8094,914.8906 552.6219,914.7031 Q552.2938,914.3281 551.6844,914.1094 Q551.075,913.8906 550.45,913.8906 Q549.6844,913.8906 549.0438,914.2188 Q548.4188,914.5469 547.9188,915.2969 Q547.4344,916.0469 547.4344,917.0781 L547.4344,918.1719 Q547.4344,919.4063 548.325,920.2344 Q549.2156,921.0469 550.8094,921.0469 Q551.7469,921.0469 552.4031,920.7969 Q552.7938,920.6406 553.2156,920.2031 Q553.4813,919.9375 553.6219,919.8594 Q553.7781,919.7813 553.9813,919.7813 Q554.3094,919.7813 554.5594,920.0469 Q554.825,920.2969 554.825,920.6406 Q554.825,920.9844 554.4813,921.3906 Q553.9813,921.9688 553.1844,922.2969 Q552.1063,922.75 550.8094,922.75 Q549.2938,922.75 548.0906,922.125 Q547.1063,921.625 546.4188,920.5625 Q545.7313,919.4844 545.7313,918.2031 L545.7313,917.0469 Q545.7313,915.7188 546.3406,914.5781 Q546.9656,913.4219 548.0594,912.8125 Q549.1531,912.1875 550.3875,912.1875 Q551.1219,912.1875 551.7625,912.3594 Q552.4188,912.5156 552.9656,912.875 Z " fill="#000000"/><text fill="#000000" font-family="sans-serif" font-size="14" lengthAdjust="spacing" textLength="160" x="564.8" y="922.7969">AlterUserStatusController</text><line style="stroke:#181818;stroke-width:0.5;" x1="533.5" x2="729.5" y1="933" y2="933"/><line style="stroke:#181818;stroke-width:0.5;" x1="533.5" x2="729.5" y1="941" y2="941"/><ellipse cx="543.5" cy="955.8105" fill="#84BE84" rx="3" ry="3" style="stroke:#038048;stroke-width:1.0;"/><text fill="#000000" font-family="sans-serif" font-size="14" lengthAdjust="spacing" textLength="119" x="552.5" y="960.1074">searchUser(): User</text><ellipse cx="543.5" cy="974.4316" fill="#84BE84" rx="3" ry="3" style="stroke:#038048;stroke-width:1.0;"/><text fill="#000000" font-family="sans-serif" font-size="14" lengthAdjust="spacing" textLength="172" x="552.5" y="978.7285">alterUserStatus(User: user)</text></g><!--class ListSytemUsersUI--><g id="elem_ListSytemUsersUI"><rect codeLine="73" fill="#F1F1F1" height="85.2422" id="ListSytemUsersUI" rx="2.5" ry="2.5" style="stroke:#181818;stroke-width:0.5;" width="210" x="287.5" y="625"/><ellipse cx="333.75" cy="641" fill="#ADD1B2" rx="11" ry="11" style="stroke:#181818;stroke-width:1.0;"/><path d="M336.5156,636.875 Q336.6719,636.6563 336.8594,636.5469 Q337.0469,636.4375 337.2656,636.4375 Q337.6406,636.4375 337.875,636.7031 Q338.1094,636.9531 338.1094,637.5625 L338.1094,639.0156 Q338.1094,639.625 337.875,639.8906 Q337.6406,640.1563 337.2656,640.1563 Q336.9219,640.1563 336.7188,639.9531 Q336.5156,639.7656 336.4063,639.25 Q336.3594,638.8906 336.1719,638.7031 Q335.8438,638.3281 335.2344,638.1094 Q334.625,637.8906 334,637.8906 Q333.2344,637.8906 332.5938,638.2188 Q331.9688,638.5469 331.4688,639.2969 Q330.9844,640.0469 330.9844,641.0781 L330.9844,642.1719 Q330.9844,643.4063 331.875,644.2344 Q332.7656,645.0469 334.3594,645.0469 Q335.2969,645.0469 335.9531,644.7969 Q336.3438,644.6406 336.7656,644.2031 Q337.0313,643.9375 337.1719,643.8594 Q337.3281,643.7813 337.5313,643.7813 Q337.8594,643.7813 338.1094,644.0469 Q338.375,644.2969 338.375,644.6406 Q338.375,644.9844 338.0313,645.3906 Q337.5313,645.9688 336.7344,646.2969 Q335.6563,646.75 334.3594,646.75 Q332.8438,646.75 331.6406,646.125 Q330.6563,645.625 329.9688,644.5625 Q329.2813,643.4844 329.2813,642.2031 L329.2813,641.0469 Q329.2813,639.7188 329.8906,638.5781 Q330.5156,637.4219 331.6094,636.8125 Q332.7031,636.1875 333.9375,636.1875 Q334.6719,636.1875 335.3125,636.3594 Q335.9688,636.5156 336.5156,636.875 Z " fill="#000000"/><text fill="#000000" font-family="sans-serif" font-size="14" lengthAdjust="spacing" textLength="109" x="354.25" y="646.7969">ListSytemUsersUI</text><line style="stroke:#181818;stroke-width:0.5;" x1="288.5" x2="496.5" y1="657" y2="657"/><line style="stroke:#181818;stroke-width:0.5;" x1="288.5" x2="496.5" y1="665" y2="665"/><ellipse cx="298.5" cy="679.8105" fill="#84BE84" rx="3" ry="3" style="stroke:#038048;stroke-width:1.0;"/><text fill="#000000" font-family="sans-serif" font-size="14" lengthAdjust="spacing" textLength="160" x="307.5" y="684.1074">totalNumberOfUsers(): int</text><ellipse cx="298.5" cy="698.4316" fill="#84BE84" rx="3" ry="3" style="stroke:#038048;stroke-width:1.0;"/><text fill="#000000" font-family="sans-serif" font-size="14" lengthAdjust="spacing" textLength="184" x="307.5" y="702.7285">listSystemUsers(): List&lt;User&gt;</text></g><!--class ListSystemUsersController--><g id="elem_ListSystemUsersController"><rect codeLine="78" fill="#F1F1F1" height="85.2422" id="ListSystemUsersController" rx="2.5" ry="2.5" style="stroke:#181818;stroke-width:0.5;" width="210" x="286.5" y="901"/><ellipse cx="306.9" cy="917" fill="#ADD1B2" rx="11" ry="11" style="stroke:#181818;stroke-width:1.0;"/><path d="M309.6656,912.875 Q309.8219,912.6563 310.0094,912.5469 Q310.1969,912.4375 310.4156,912.4375 Q310.7906,912.4375 311.025,912.7031 Q311.2594,912.9531 311.2594,913.5625 L311.2594,915.0156 Q311.2594,915.625 311.025,915.8906 Q310.7906,916.1563 310.4156,916.1563 Q310.0719,916.1563 309.8688,915.9531 Q309.6656,915.7656 309.5563,915.25 Q309.5094,914.8906 309.3219,914.7031 Q308.9938,914.3281 308.3844,914.1094 Q307.775,913.8906 307.15,913.8906 Q306.3844,913.8906 305.7438,914.2188 Q305.1188,914.5469 304.6188,915.2969 Q304.1344,916.0469 304.1344,917.0781 L304.1344,918.1719 Q304.1344,919.4063 305.025,920.2344 Q305.9156,921.0469 307.5094,921.0469 Q308.4469,921.0469 309.1031,920.7969 Q309.4938,920.6406 309.9156,920.2031 Q310.1813,919.9375 310.3219,919.8594 Q310.4781,919.7813 310.6813,919.7813 Q311.0094,919.7813 311.2594,920.0469 Q311.525,920.2969 311.525,920.6406 Q311.525,920.9844 311.1813,921.3906 Q310.6813,921.9688 309.8844,922.2969 Q308.8063,922.75 307.5094,922.75 Q305.9938,922.75 304.7906,922.125 Q303.8063,921.625 303.1188,920.5625 Q302.4313,919.4844 302.4313,918.2031 L302.4313,917.0469 Q302.4313,915.7188 303.0406,914.5781 Q303.6656,913.4219 304.7594,912.8125 Q305.8531,912.1875 307.0875,912.1875 Q307.8219,912.1875 308.4625,912.3594 Q309.1188,912.5156 309.6656,912.875 Z " fill="#000000"/><text fill="#000000" font-family="sans-serif" font-size="14" lengthAdjust="spacing" textLength="166" x="322.1" y="922.7969">ListSystemUsersController</text><line style="stroke:#181818;stroke-width:0.5;" x1="287.5" x2="495.5" y1="933" y2="933"/><line style="stroke:#181818;stroke-width:0.5;" x1="287.5" x2="495.5" y1="941" y2="941"/><ellipse cx="297.5" cy="955.8105" fill="#84BE84" rx="3" ry="3" style="stroke:#038048;stroke-width:1.0;"/><text fill="#000000" font-family="sans-serif" font-size="14" lengthAdjust="spacing" textLength="160" x="306.5" y="960.1074">totalNumberOfUsers(): int</text><ellipse cx="297.5" cy="974.4316" fill="#84BE84" rx="3" ry="3" style="stroke:#038048;stroke-width:1.0;"/><text fill="#000000" font-family="sans-serif" font-size="14" lengthAdjust="spacing" textLength="184" x="306.5" y="978.7285">listSystemUsers(): List&lt;User&gt;</text></g><!--class StudentBuilder--><g id="elem_StudentBuilder"><rect codeLine="83" fill="#F1F1F1" height="476.2852" id="StudentBuilder" rx="2.5" ry="2.5" style="stroke:#181818;stroke-width:0.5;" width="615" x="1375" y="1131"/><ellipse cx="1631.75" cy="1147" fill="#ADD1B2" rx="11" ry="11" style="stroke:#181818;stroke-width:1.0;"/><path d="M1634.5156,1142.875 Q1634.6719,1142.6563 1634.8594,1142.5469 Q1635.0469,1142.4375 1635.2656,1142.4375 Q1635.6406,1142.4375 1635.875,1142.7031 Q1636.1094,1142.9531 1636.1094,1143.5625 L1636.1094,1145.0156 Q1636.1094,1145.625 1635.875,1145.8906 Q1635.6406,1146.1563 1635.2656,1146.1563 Q1634.9219,1146.1563 1634.7188,1145.9531 Q1634.5156,1145.7656 1634.4063,1145.25 Q1634.3594,1144.8906 1634.1719,1144.7031 Q1633.8438,1144.3281 1633.2344,1144.1094 Q1632.625,1143.8906 1632,1143.8906 Q1631.2344,1143.8906 1630.5938,1144.2188 Q1629.9688,1144.5469 1629.4688,1145.2969 Q1628.9844,1146.0469 1628.9844,1147.0781 L1628.9844,1148.1719 Q1628.9844,1149.4063 1629.875,1150.2344 Q1630.7656,1151.0469 1632.3594,1151.0469 Q1633.2969,1151.0469 1633.9531,1150.7969 Q1634.3438,1150.6406 1634.7656,1150.2031 Q1635.0313,1149.9375 1635.1719,1149.8594 Q1635.3281,1149.7813 1635.5313,1149.7813 Q1635.8594,1149.7813 1636.1094,1150.0469 Q1636.375,1150.2969 1636.375,1150.6406 Q1636.375,1150.9844 1636.0313,1151.3906 Q1635.5313,1151.9688 1634.7344,1152.2969 Q1633.6563,1152.75 1632.3594,1152.75 Q1630.8438,1152.75 1629.6406,1152.125 Q1628.6563,1151.625 1627.9688,1150.5625 Q1627.2813,1149.4844 1627.2813,1148.2031 L1627.2813,1147.0469 Q1627.2813,1145.7188 1627.8906,1144.5781 Q1628.5156,1143.4219 1629.6094,1142.8125 Q1630.7031,1142.1875 1631.9375,1142.1875 Q1632.6719,1142.1875 1633.3125,1142.3594 Q1633.9688,1142.5156 1634.5156,1142.875 Z " fill="#000000"/><text fill="#000000" font-family="sans-serif" font-size="14" lengthAdjust="spacing" textLength="93" x="1652.25" y="1152.7969">StudentBuilder</text><line style="stroke:#181818;stroke-width:0.5;" x1="1376" x2="1989" y1="1163" y2="1163"/><rect fill="none" height="6" style="stroke:#C82930;stroke-width:1.0;" width="6" x="1383" y="1174.8105"/><text fill="#000000" font-family="sans-serif" font-size="14" lengthAdjust="spacing" textLength="99" x="1395" y="1182.1074">fullName: String</text><rect fill="none" height="6" style="stroke:#C82930;stroke-width:1.0;" width="6" x="1383" y="1193.4316"/><text fill="#000000" font-family="sans-serif" font-size="14" lengthAdjust="spacing" textLength="113" x="1395" y="1200.7285">shortName: String</text><rect fill="none" height="6" style="stroke:#C82930;stroke-width:1.0;" width="6" x="1383" y="1212.0527"/><text fill="#000000" font-family="sans-serif" font-size="14" lengthAdjust="spacing" textLength="61" x="1395" y="1219.3496">role: Role</text><rect fill="none" height="6" style="stroke:#C82930;stroke-width:1.0;" width="6" x="1383" y="1230.6738"/><text fill="#000000" font-family="sans-serif" font-size="14" lengthAdjust="spacing" textLength="75" x="1395" y="1237.9707">email: Email</text><rect fill="none" height="6" style="stroke:#C82930;stroke-width:1.0;" width="6" x="1383" y="1249.2949"/><text fill="#000000" font-family="sans-serif" font-size="14" lengthAdjust="spacing" textLength="129" x="1395" y="1256.5918">password: Password</text><rect fill="none" height="6" style="stroke:#C82930;stroke-width:1.0;" width="6" x="1383" y="1267.916"/><text fill="#000000" font-family="sans-serif" font-size="14" lengthAdjust="spacing" textLength="115" x="1395" y="1275.2129">status: UserStatus</text><rect fill="none" height="6" style="stroke:#C82930;stroke-width:1.0;" width="6" x="1383" y="1286.5371"/><text fill="#000000" font-family="sans-serif" font-size="14" lengthAdjust="spacing" textLength="80" x="1395" y="1293.834">name: String</text><rect fill="none" height="6" style="stroke:#C82930;stroke-width:1.0;" width="6" x="1383" y="1305.1582"/><text fill="#000000" font-family="sans-serif" font-size="14" lengthAdjust="spacing" textLength="85" x="1395" y="1312.4551">grade: Grade</text><rect fill="none" height="6" style="stroke:#C82930;stroke-width:1.0;" width="6" x="1383" y="1323.7793"/><text fill="#000000" font-family="sans-serif" font-size="14" lengthAdjust="spacing" textLength="300" x="1395" y="1331.0762">mecanographicNumber: MecanographicNumber</text><rect fill="none" height="6" style="stroke:#C82930;stroke-width:1.0;" width="6" x="1383" y="1342.4004"/><text fill="#000000" font-family="sans-serif" font-size="14" lengthAdjust="spacing" textLength="44" x="1395" y="1349.6973">nif: NIF</text><rect fill="none" height="6" style="stroke:#C82930;stroke-width:1.0;" width="6" x="1383" y="1361.0215"/><text fill="#000000" font-family="sans-serif" font-size="14" lengthAdjust="spacing" textLength="125" x="1395" y="1368.3184">birthDate: BirthDate</text><line style="stroke:#181818;stroke-width:0.5;" x1="1376" x2="1989" y1="1375.832" y2="1375.832"/><ellipse cx="1386" cy="1390.6426" fill="#84BE84" rx="3" ry="3" style="stroke:#038048;stroke-width:1.0;"/><text fill="#000000" font-family="sans-serif" font-size="14" lengthAdjust="spacing" textLength="40" x="1395" y="1394.9395">build()</text><ellipse cx="1386" cy="1409.2637" fill="#84BE84" rx="3" ry="3" style="stroke:#038048;stroke-width:1.0;"/><text fill="#000000" font-family="sans-serif" font-size="14" lengthAdjust="spacing" textLength="301" x="1395" y="1413.5605">withFullName( fullName: String ): StudentBuilder</text><ellipse cx="1386" cy="1427.8848" fill="#84BE84" rx="3" ry="3" style="stroke:#038048;stroke-width:1.0;"/><text fill="#000000" font-family="sans-serif" font-size="14" lengthAdjust="spacing" textLength="326" x="1395" y="1432.1816">withShortName( shortName: String ): StudentBuilder</text><ellipse cx="1386" cy="1446.5059" fill="#84BE84" rx="3" ry="3" style="stroke:#038048;stroke-width:1.0;"/><text fill="#000000" font-family="sans-serif" font-size="14" lengthAdjust="spacing" textLength="233" x="1395" y="1450.8027">withRole( role: Role ): StudentBuilder</text><ellipse cx="1386" cy="1465.127" fill="#84BE84" rx="3" ry="3" style="stroke:#038048;stroke-width:1.0;"/><text fill="#000000" font-family="sans-serif" font-size="14" lengthAdjust="spacing" textLength="252" x="1395" y="1469.4238">withEmail( email: Email ): StudentBuilder</text><ellipse cx="1386" cy="1483.748" fill="#84BE84" rx="3" ry="3" style="stroke:#038048;stroke-width:1.0;"/><text fill="#000000" font-family="sans-serif" font-size="14" lengthAdjust="spacing" textLength="333" x="1395" y="1488.0449">withPassword( password: Password ): StudentBuilder</text><ellipse cx="1386" cy="1502.3691" fill="#84BE84" rx="3" ry="3" style="stroke:#038048;stroke-width:1.0;"/><text fill="#000000" font-family="sans-serif" font-size="14" lengthAdjust="spacing" textLength="298" x="1395" y="1506.666">withStatus( status: UserStatus ): StudentBuilder</text><ellipse cx="1386" cy="1520.9902" fill="#84BE84" rx="3" ry="3" style="stroke:#038048;stroke-width:1.0;"/><text fill="#000000" font-family="sans-serif" font-size="14" lengthAdjust="spacing" textLength="259" x="1395" y="1525.2871">withName( name: String ): StudentBuilder</text><ellipse cx="1386" cy="1539.6113" fill="#84BE84" rx="3" ry="3" style="stroke:#038048;stroke-width:1.0;"/><text fill="#000000" font-family="sans-serif" font-size="14" lengthAdjust="spacing" textLength="268" x="1395" y="1543.9082">withGrade( grade: Grade ): StudentBuilder</text><ellipse cx="1386" cy="1558.2324" fill="#84BE84" rx="3" ry="3" style="stroke:#038048;stroke-width:1.0;"/><text fill="#000000" font-family="sans-serif" font-size="14" lengthAdjust="spacing" textLength="589" x="1395" y="1562.5293">withMecanographicNumber( mecanographicNumber: MecanographicNumber ): StudentBuilder</text><ellipse cx="1386" cy="1576.8535" fill="#84BE84" rx="3" ry="3" style="stroke:#038048;stroke-width:1.0;"/><text fill="#000000" font-family="sans-serif" font-size="14" lengthAdjust="spacing" textLength="208" x="1395" y="1581.1504">withNIF( nif: NIF ): StudentBuilder</text><ellipse cx="1386" cy="1595.4746" fill="#84BE84" rx="3" ry="3" style="stroke:#038048;stroke-width:1.0;"/><text fill="#000000" font-family="sans-serif" font-size="14" lengthAdjust="spacing" textLength="327" x="1395" y="1599.7715">withBirthDate( birthDate: BirthDate ): StudentBuilder</text></g><!--class TeacherBuilder--><g id="elem_TeacherBuilder"><rect codeLine="109" fill="#F1F1F1" height="476.2852" id="TeacherBuilder" rx="2.5" ry="2.5" style="stroke:#181818;stroke-width:0.5;" width="480" x="2025.5" y="1131"/><ellipse cx="2212.75" cy="1147" fill="#ADD1B2" rx="11" ry="11" style="stroke:#181818;stroke-width:1.0;"/><path d="M2215.5156,1142.875 Q2215.6719,1142.6563 2215.8594,1142.5469 Q2216.0469,1142.4375 2216.2656,1142.4375 Q2216.6406,1142.4375 2216.875,1142.7031 Q2217.1094,1142.9531 2217.1094,1143.5625 L2217.1094,1145.0156 Q2217.1094,1145.625 2216.875,1145.8906 Q2216.6406,1146.1563 2216.2656,1146.1563 Q2215.9219,1146.1563 2215.7188,1145.9531 Q2215.5156,1145.7656 2215.4063,1145.25 Q2215.3594,1144.8906 2215.1719,1144.7031 Q2214.8438,1144.3281 2214.2344,1144.1094 Q2213.625,1143.8906 2213,1143.8906 Q2212.2344,1143.8906 2211.5938,1144.2188 Q2210.9688,1144.5469 2210.4688,1145.2969 Q2209.9844,1146.0469 2209.9844,1147.0781 L2209.9844,1148.1719 Q2209.9844,1149.4063 2210.875,1150.2344 Q2211.7656,1151.0469 2213.3594,1151.0469 Q2214.2969,1151.0469 2214.9531,1150.7969 Q2215.3438,1150.6406 2215.7656,1150.2031 Q2216.0313,1149.9375 2216.1719,1149.8594 Q2216.3281,1149.7813 2216.5313,1149.7813 Q2216.8594,1149.7813 2217.1094,1150.0469 Q2217.375,1150.2969 2217.375,1150.6406 Q2217.375,1150.9844 2217.0313,1151.3906 Q2216.5313,1151.9688 2215.7344,1152.2969 Q2214.6563,1152.75 2213.3594,1152.75 Q2211.8438,1152.75 2210.6406,1152.125 Q2209.6563,1151.625 2208.9688,1150.5625 Q2208.2813,1149.4844 2208.2813,1148.2031 L2208.2813,1147.0469 Q2208.2813,1145.7188 2208.8906,1144.5781 Q2209.5156,1143.4219 2210.6094,1142.8125 Q2211.7031,1142.1875 2212.9375,1142.1875 Q2213.6719,1142.1875 2214.3125,1142.3594 Q2214.9688,1142.5156 2215.5156,1142.875 Z " fill="#000000"/><text fill="#000000" font-family="sans-serif" font-size="14" lengthAdjust="spacing" textLength="97" x="2233.25" y="1152.7969">TeacherBuilder</text><line style="stroke:#181818;stroke-width:0.5;" x1="2026.5" x2="2504.5" y1="1163" y2="1163"/><rect fill="none" height="6" style="stroke:#C82930;stroke-width:1.0;" width="6" x="2033.5" y="1174.8105"/><text fill="#000000" font-family="sans-serif" font-size="14" lengthAdjust="spacing" textLength="99" x="2045.5" y="1182.1074">fullName: String</text><rect fill="none" height="6" style="stroke:#C82930;stroke-width:1.0;" width="6" x="2033.5" y="1193.4316"/><text fill="#000000" font-family="sans-serif" font-size="14" lengthAdjust="spacing" textLength="113" x="2045.5" y="1200.7285">shortName: String</text><rect fill="none" height="6" style="stroke:#C82930;stroke-width:1.0;" width="6" x="2033.5" y="1212.0527"/><text fill="#000000" font-family="sans-serif" font-size="14" lengthAdjust="spacing" textLength="61" x="2045.5" y="1219.3496">role: Role</text><rect fill="none" height="6" style="stroke:#C82930;stroke-width:1.0;" width="6" x="2033.5" y="1230.6738"/><text fill="#000000" font-family="sans-serif" font-size="14" lengthAdjust="spacing" textLength="75" x="2045.5" y="1237.9707">email: Email</text><rect fill="none" height="6" style="stroke:#C82930;stroke-width:1.0;" width="6" x="2033.5" y="1249.2949"/><text fill="#000000" font-family="sans-serif" font-size="14" lengthAdjust="spacing" textLength="129" x="2045.5" y="1256.5918">password: Password</text><rect fill="none" height="6" style="stroke:#C82930;stroke-width:1.0;" width="6" x="2033.5" y="1267.916"/><text fill="#000000" font-family="sans-serif" font-size="14" lengthAdjust="spacing" textLength="115" x="2045.5" y="1275.2129">status: UserStatus</text><rect fill="none" height="6" style="stroke:#C82930;stroke-width:1.0;" width="6" x="2033.5" y="1286.5371"/><text fill="#000000" font-family="sans-serif" font-size="14" lengthAdjust="spacing" textLength="80" x="2045.5" y="1293.834">name: String</text><rect fill="none" height="6" style="stroke:#C82930;stroke-width:1.0;" width="6" x="2033.5" y="1305.1582"/><text fill="#000000" font-family="sans-serif" font-size="14" lengthAdjust="spacing" textLength="198" x="2045.5" y="1312.4551">coursesTeached: List&lt;Course&gt;</text><rect fill="none" height="6" style="stroke:#C82930;stroke-width:1.0;" width="6" x="2033.5" y="1323.7793"/><text fill="#000000" font-family="sans-serif" font-size="14" lengthAdjust="spacing" textLength="117" x="2045.5" y="1331.0762">acronym: Acronym</text><rect fill="none" height="6" style="stroke:#C82930;stroke-width:1.0;" width="6" x="2033.5" y="1342.4004"/><text fill="#000000" font-family="sans-serif" font-size="14" lengthAdjust="spacing" textLength="44" x="2045.5" y="1349.6973">nif: NIF</text><rect fill="none" height="6" style="stroke:#C82930;stroke-width:1.0;" width="6" x="2033.5" y="1361.0215"/><text fill="#000000" font-family="sans-serif" font-size="14" lengthAdjust="spacing" textLength="125" x="2045.5" y="1368.3184">birthDate: BirthDate</text><line style="stroke:#181818;stroke-width:0.5;" x1="2026.5" x2="2504.5" y1="1375.832" y2="1375.832"/><ellipse cx="2036.5" cy="1390.6426" fill="#84BE84" rx="3" ry="3" style="stroke:#038048;stroke-width:1.0;"/><text fill="#000000" font-family="sans-serif" font-size="14" lengthAdjust="spacing" textLength="40" x="2045.5" y="1394.9395">build()</text><ellipse cx="2036.5" cy="1409.2637" fill="#84BE84" rx="3" ry="3" style="stroke:#038048;stroke-width:1.0;"/><text fill="#000000" font-family="sans-serif" font-size="14" lengthAdjust="spacing" textLength="305" x="2045.5" y="1413.5605">withFullName( fullName: String ): TeacherBuilder</text><ellipse cx="2036.5" cy="1427.8848" fill="#84BE84" rx="3" ry="3" style="stroke:#038048;stroke-width:1.0;"/><text fill="#000000" font-family="sans-serif" font-size="14" lengthAdjust="spacing" textLength="330" x="2045.5" y="1432.1816">withShortName( shortName: String ): TeacherBuilder</text><ellipse cx="2036.5" cy="1446.5059" fill="#84BE84" rx="3" ry="3" style="stroke:#038048;stroke-width:1.0;"/><text fill="#000000" font-family="sans-serif" font-size="14" lengthAdjust="spacing" textLength="237" x="2045.5" y="1450.8027">withRole( role: Role ): TeacherBuilder</text><ellipse cx="2036.5" cy="1465.127" fill="#84BE84" rx="3" ry="3" style="stroke:#038048;stroke-width:1.0;"/><text fill="#000000" font-family="sans-serif" font-size="14" lengthAdjust="spacing" textLength="256" x="2045.5" y="1469.4238">withEmail( email: Email ): TeacherBuilder</text><ellipse cx="2036.5" cy="1483.748" fill="#84BE84" rx="3" ry="3" style="stroke:#038048;stroke-width:1.0;"/><text fill="#000000" font-family="sans-serif" font-size="14" lengthAdjust="spacing" textLength="337" x="2045.5" y="1488.0449">withPassword( password: Password ): TeacherBuilder</text><ellipse cx="2036.5" cy="1502.3691" fill="#84BE84" rx="3" ry="3" style="stroke:#038048;stroke-width:1.0;"/><text fill="#000000" font-family="sans-serif" font-size="14" lengthAdjust="spacing" textLength="302" x="2045.5" y="1506.666">withStatus( status: UserStatus ): TeacherBuilder</text><ellipse cx="2036.5" cy="1520.9902" fill="#84BE84" rx="3" ry="3" style="stroke:#038048;stroke-width:1.0;"/><text fill="#000000" font-family="sans-serif" font-size="14" lengthAdjust="spacing" textLength="263" x="2045.5" y="1525.2871">withName( name: String ): TeacherBuilder</text><ellipse cx="2036.5" cy="1539.6113" fill="#84BE84" rx="3" ry="3" style="stroke:#038048;stroke-width:1.0;"/><text fill="#000000" font-family="sans-serif" font-size="14" lengthAdjust="spacing" textLength="454" x="2045.5" y="1543.9082">withCoursesTeached( coursesTeached: List&lt;Course&gt; ): TeacherBuilder</text><ellipse cx="2036.5" cy="1558.2324" fill="#84BE84" rx="3" ry="3" style="stroke:#038048;stroke-width:1.0;"/><text fill="#000000" font-family="sans-serif" font-size="14" lengthAdjust="spacing" textLength="319" x="2045.5" y="1562.5293">withAcronym( acronym: Acronym ): TeacherBuilder</text><ellipse cx="2036.5" cy="1576.8535" fill="#84BE84" rx="3" ry="3" style="stroke:#038048;stroke-width:1.0;"/><text fill="#000000" font-family="sans-serif" font-size="14" lengthAdjust="spacing" textLength="212" x="2045.5" y="1581.1504">withNIF( nif: NIF ): TeacherBuilder</text><ellipse cx="2036.5" cy="1595.4746" fill="#84BE84" rx="3" ry="3" style="stroke:#038048;stroke-width:1.0;"/><text fill="#000000" font-family="sans-serif" font-size="14" lengthAdjust="spacing" textLength="331" x="2045.5" y="1599.7715">withBirthDate( birthDate: BirthDate ): TeacherBuilder</text></g><!--class ManagerBuilder--><g id="elem_ManagerBuilder"><rect codeLine="135" fill="#F1F1F1" height="327.3164" id="ManagerBuilder" rx="2.5" ry="2.5" style="stroke:#181818;stroke-width:0.5;" width="366" x="2540.5" y="1205.5"/><ellipse cx="2669.25" cy="1221.5" fill="#ADD1B2" rx="11" ry="11" style="stroke:#181818;stroke-width:1.0;"/><path d="M2672.0156,1217.375 Q2672.1719,1217.1563 2672.3594,1217.0469 Q2672.5469,1216.9375 2672.7656,1216.9375 Q2673.1406,1216.9375 2673.375,1217.2031 Q2673.6094,1217.4531 2673.6094,1218.0625 L2673.6094,1219.5156 Q2673.6094,1220.125 2673.375,1220.3906 Q2673.1406,1220.6563 2672.7656,1220.6563 Q2672.4219,1220.6563 2672.2188,1220.4531 Q2672.0156,1220.2656 2671.9063,1219.75 Q2671.8594,1219.3906 2671.6719,1219.2031 Q2671.3438,1218.8281 2670.7344,1218.6094 Q2670.125,1218.3906 2669.5,1218.3906 Q2668.7344,1218.3906 2668.0938,1218.7188 Q2667.4688,1219.0469 2666.9688,1219.7969 Q2666.4844,1220.5469 2666.4844,1221.5781 L2666.4844,1222.6719 Q2666.4844,1223.9063 2667.375,1224.7344 Q2668.2656,1225.5469 2669.8594,1225.5469 Q2670.7969,1225.5469 2671.4531,1225.2969 Q2671.8438,1225.1406 2672.2656,1224.7031 Q2672.5313,1224.4375 2672.6719,1224.3594 Q2672.8281,1224.2813 2673.0313,1224.2813 Q2673.3594,1224.2813 2673.6094,1224.5469 Q2673.875,1224.7969 2673.875,1225.1406 Q2673.875,1225.4844 2673.5313,1225.8906 Q2673.0313,1226.4688 2672.2344,1226.7969 Q2671.1563,1227.25 2669.8594,1227.25 Q2668.3438,1227.25 2667.1406,1226.625 Q2666.1563,1226.125 2665.4688,1225.0625 Q2664.7813,1223.9844 2664.7813,1222.7031 L2664.7813,1221.5469 Q2664.7813,1220.2188 2665.3906,1219.0781 Q2666.0156,1217.9219 2667.1094,1217.3125 Q2668.2031,1216.6875 2669.4375,1216.6875 Q2670.1719,1216.6875 2670.8125,1216.8594 Q2671.4688,1217.0156 2672.0156,1217.375 Z " fill="#000000"/><text fill="#000000" font-family="sans-serif" font-size="14" lengthAdjust="spacing" textLength="100" x="2689.75" y="1227.2969">ManagerBuilder</text><line style="stroke:#181818;stroke-width:0.5;" x1="2541.5" x2="2905.5" y1="1237.5" y2="1237.5"/><rect fill="none" height="6" style="stroke:#C82930;stroke-width:1.0;" width="6" x="2548.5" y="1249.3105"/><text fill="#000000" font-family="sans-serif" font-size="14" lengthAdjust="spacing" textLength="99" x="2560.5" y="1256.6074">fullName: String</text><rect fill="none" height="6" style="stroke:#C82930;stroke-width:1.0;" width="6" x="2548.5" y="1267.9316"/><text fill="#000000" font-family="sans-serif" font-size="14" lengthAdjust="spacing" textLength="113" x="2560.5" y="1275.2285">shortName: String</text><rect fill="none" height="6" style="stroke:#C82930;stroke-width:1.0;" width="6" x="2548.5" y="1286.5527"/><text fill="#000000" font-family="sans-serif" font-size="14" lengthAdjust="spacing" textLength="61" x="2560.5" y="1293.8496">role: Role</text><rect fill="none" height="6" style="stroke:#C82930;stroke-width:1.0;" width="6" x="2548.5" y="1305.1738"/><text fill="#000000" font-family="sans-serif" font-size="14" lengthAdjust="spacing" textLength="75" x="2560.5" y="1312.4707">email: Email</text><rect fill="none" height="6" style="stroke:#C82930;stroke-width:1.0;" width="6" x="2548.5" y="1323.7949"/><text fill="#000000" font-family="sans-serif" font-size="14" lengthAdjust="spacing" textLength="129" x="2560.5" y="1331.0918">password: Password</text><rect fill="none" height="6" style="stroke:#C82930;stroke-width:1.0;" width="6" x="2548.5" y="1342.416"/><text fill="#000000" font-family="sans-serif" font-size="14" lengthAdjust="spacing" textLength="115" x="2560.5" y="1349.7129">status: UserStatus</text><rect fill="none" height="6" style="stroke:#C82930;stroke-width:1.0;" width="6" x="2548.5" y="1361.0371"/><text fill="#000000" font-family="sans-serif" font-size="14" lengthAdjust="spacing" textLength="80" x="2560.5" y="1368.334">name: String</text><line style="stroke:#181818;stroke-width:0.5;" x1="2541.5" x2="2905.5" y1="1375.8477" y2="1375.8477"/><ellipse cx="2551.5" cy="1390.6582" fill="#84BE84" rx="3" ry="3" style="stroke:#038048;stroke-width:1.0;"/><text fill="#000000" font-family="sans-serif" font-size="14" lengthAdjust="spacing" textLength="40" x="2560.5" y="1394.9551">build()</text><ellipse cx="2551.5" cy="1409.2793" fill="#84BE84" rx="3" ry="3" style="stroke:#038048;stroke-width:1.0;"/><text fill="#000000" font-family="sans-serif" font-size="14" lengthAdjust="spacing" textLength="308" x="2560.5" y="1413.5762">withFullName( fullName: String ): ManagerBuilder</text><ellipse cx="2551.5" cy="1427.9004" fill="#84BE84" rx="3" ry="3" style="stroke:#038048;stroke-width:1.0;"/><text fill="#000000" font-family="sans-serif" font-size="14" lengthAdjust="spacing" textLength="333" x="2560.5" y="1432.1973">withShortName( shortName: String ): ManagerBuilder</text><ellipse cx="2551.5" cy="1446.5215" fill="#84BE84" rx="3" ry="3" style="stroke:#038048;stroke-width:1.0;"/><text fill="#000000" font-family="sans-serif" font-size="14" lengthAdjust="spacing" textLength="240" x="2560.5" y="1450.8184">withRole( role: Role ): ManagerBuilder</text><ellipse cx="2551.5" cy="1465.1426" fill="#84BE84" rx="3" ry="3" style="stroke:#038048;stroke-width:1.0;"/><text fill="#000000" font-family="sans-serif" font-size="14" lengthAdjust="spacing" textLength="259" x="2560.5" y="1469.4395">withEmail( email: Email ): ManagerBuilder</text><ellipse cx="2551.5" cy="1483.7637" fill="#84BE84" rx="3" ry="3" style="stroke:#038048;stroke-width:1.0;"/><text fill="#000000" font-family="sans-serif" font-size="14" lengthAdjust="spacing" textLength="340" x="2560.5" y="1488.0605">withPassword( password: Password ): ManagerBuilder</text><ellipse cx="2551.5" cy="1502.3848" fill="#84BE84" rx="3" ry="3" style="stroke:#038048;stroke-width:1.0;"/><text fill="#000000" font-family="sans-serif" font-size="14" lengthAdjust="spacing" textLength="305" x="2560.5" y="1506.6816">withStatus( status: UserStatus ): ManagerBuilder</text><ellipse cx="2551.5" cy="1521.0059" fill="#84BE84" rx="3" ry="3" style="stroke:#038048;stroke-width:1.0;"/><text fill="#000000" font-family="sans-serif" font-size="14" lengthAdjust="spacing" textLength="266" x="2560.5" y="1525.3027">withName( name: String ): ManagerBuilder</text></g><!--class UserStatus--><g id="elem_UserStatus"><rect codeLine="153" fill="#F1F1F1" height="97.8242" id="UserStatus" rx="2.5" ry="2.5" style="stroke:#181818;stroke-width:0.5;" width="101" x="1425" y="618.5"/><ellipse cx="1440" cy="640.791" fill="#ADD1B2" rx="11" ry="11" style="stroke:#181818;stroke-width:1.0;"/><path d="M1442.7656,636.666 Q1442.9219,636.4473 1443.1094,636.3379 Q1443.2969,636.2285 1443.5156,636.2285 Q1443.8906,636.2285 1444.125,636.4941 Q1444.3594,636.7441 1444.3594,637.3535 L1444.3594,638.8066 Q1444.3594,639.416 1444.125,639.6816 Q1443.8906,639.9473 1443.5156,639.9473 Q1443.1719,639.9473 1442.9688,639.7441 Q1442.7656,639.5566 1442.6563,639.041 Q1442.6094,638.6816 1442.4219,638.4941 Q1442.0938,638.1191 1441.4844,637.9004 Q1440.875,637.6816 1440.25,637.6816 Q1439.4844,637.6816 1438.8438,638.0098 Q1438.2188,638.3379 1437.7188,639.0879 Q1437.2344,639.8379 1437.2344,640.8691 L1437.2344,641.9629 Q1437.2344,643.1973 1438.125,644.0254 Q1439.0156,644.8379 1440.6094,644.8379 Q1441.5469,644.8379 1442.2031,644.5879 Q1442.5938,644.4316 1443.0156,643.9941 Q1443.2813,643.7285 1443.4219,643.6504 Q1443.5781,643.5723 1443.7813,643.5723 Q1444.1094,643.5723 1444.3594,643.8379 Q1444.625,644.0879 1444.625,644.4316 Q1444.625,644.7754 1444.2813,645.1816 Q1443.7813,645.7598 1442.9844,646.0879 Q1441.9063,646.541 1440.6094,646.541 Q1439.0938,646.541 1437.8906,645.916 Q1436.9063,645.416 1436.2188,644.3535 Q1435.5313,643.2754 1435.5313,641.9941 L1435.5313,640.8379 Q1435.5313,639.5098 1436.1406,638.3691 Q1436.7656,637.2129 1437.8594,636.6035 Q1438.9531,635.9785 1440.1875,635.9785 Q1440.9219,635.9785 1441.5625,636.1504 Q1442.2188,636.3066 1442.7656,636.666 Z " fill="#000000"/><text fill="#000000" font-family="sans-serif" font-size="12" font-style="italic" lengthAdjust="spacing" textLength="46" x="1465.5" y="636.4492">&#171;enum&#187;</text><text fill="#000000" font-family="sans-serif" font-size="14" lengthAdjust="spacing" textLength="69" x="1454" y="654.5684">UserStatus</text><line style="stroke:#181818;stroke-width:0.5;" x1="1426" x2="1525" y1="663.082" y2="663.082"/><ellipse cx="1436" cy="677.8926" fill="none" rx="3" ry="3" style="stroke:#038048;stroke-width:1.0;"/><text fill="#000000" font-family="sans-serif" font-size="14" lengthAdjust="spacing" textLength="53" x="1445" y="682.1895">ENABLE</text><ellipse cx="1436" cy="696.5137" fill="none" rx="3" ry="3" style="stroke:#038048;stroke-width:1.0;"/><text fill="#000000" font-family="sans-serif" font-size="14" lengthAdjust="spacing" textLength="57" x="1445" y="700.8105">DISABLE</text><line style="stroke:#181818;stroke-width:0.5;" x1="1426" x2="1525" y1="708.3242" y2="708.3242"/></g><!--class SystemUser--><g id="elem_SystemUser"><rect fill="#F1F1F1" height="48" id="SystemUser" rx="2.5" ry="2.5" style="stroke:#181818;stroke-width:0.5;" width="107" x="591" y="1345"/><ellipse cx="606" cy="1361" fill="#ADD1B2" rx="11" ry="11" style="stroke:#181818;stroke-width:1.0;"/><path d="M608.7656,1356.875 Q608.9219,1356.6563 609.1094,1356.5469 Q609.2969,1356.4375 609.5156,1356.4375 Q609.8906,1356.4375 610.125,1356.7031 Q610.3594,1356.9531 610.3594,1357.5625 L610.3594,1359.0156 Q610.3594,1359.625 610.125,1359.8906 Q609.8906,1360.1563 609.5156,1360.1563 Q609.1719,1360.1563 608.9688,1359.9531 Q608.7656,1359.7656 608.6563,1359.25 Q608.6094,1358.8906 608.4219,1358.7031 Q608.0938,1358.3281 607.4844,1358.1094 Q606.875,1357.8906 606.25,1357.8906 Q605.4844,1357.8906 604.8438,1358.2188 Q604.2188,1358.5469 603.7188,1359.2969 Q603.2344,1360.0469 603.2344,1361.0781 L603.2344,1362.1719 Q603.2344,1363.4063 604.125,1364.2344 Q605.0156,1365.0469 606.6094,1365.0469 Q607.5469,1365.0469 608.2031,1364.7969 Q608.5938,1364.6406 609.0156,1364.2031 Q609.2813,1363.9375 609.4219,1363.8594 Q609.5781,1363.7813 609.7813,1363.7813 Q610.1094,1363.7813 610.3594,1364.0469 Q610.625,1364.2969 610.625,1364.6406 Q610.625,1364.9844 610.2813,1365.3906 Q609.7813,1365.9688 608.9844,1366.2969 Q607.9063,1366.75 606.6094,1366.75 Q605.0938,1366.75 603.8906,1366.125 Q602.9063,1365.625 602.2188,1364.5625 Q601.5313,1363.4844 601.5313,1362.2031 L601.5313,1361.0469 Q601.5313,1359.7188 602.1406,1358.5781 Q602.7656,1357.4219 603.8594,1356.8125 Q604.9531,1356.1875 606.1875,1356.1875 Q606.9219,1356.1875 607.5625,1356.3594 Q608.2188,1356.5156 608.7656,1356.875 Z " fill="#000000"/><text fill="#000000" font-family="sans-serif" font-size="14" lengthAdjust="spacing" textLength="75" x="620" y="1366.7969">SystemUser</text><line style="stroke:#181818;stroke-width:0.5;" x1="592" x2="697" y1="1377" y2="1377"/><line style="stroke:#181818;stroke-width:0.5;" x1="592" x2="697" y1="1385" y2="1385"/></g><!--class Student--><g id="elem_Student"><rect fill="#F1F1F1" height="48" id="Student" rx="2.5" ry="2.5" style="stroke:#181818;stroke-width:0.5;" width="81" x="1135" y="1345"/><ellipse cx="1150" cy="1361" fill="#ADD1B2" rx="11" ry="11" style="stroke:#181818;stroke-width:1.0;"/><path d="M1152.7656,1356.875 Q1152.9219,1356.6563 1153.1094,1356.5469 Q1153.2969,1356.4375 1153.5156,1356.4375 Q1153.8906,1356.4375 1154.125,1356.7031 Q1154.3594,1356.9531 1154.3594,1357.5625 L1154.3594,1359.0156 Q1154.3594,1359.625 1154.125,1359.8906 Q1153.8906,1360.1563 1153.5156,1360.1563 Q1153.1719,1360.1563 1152.9688,1359.9531 Q1152.7656,1359.7656 1152.6563,1359.25 Q1152.6094,1358.8906 1152.4219,1358.7031 Q1152.0938,1358.3281 1151.4844,1358.1094 Q1150.875,1357.8906 1150.25,1357.8906 Q1149.4844,1357.8906 1148.8438,1358.2188 Q1148.2188,1358.5469 1147.7188,1359.2969 Q1147.2344,1360.0469 1147.2344,1361.0781 L1147.2344,1362.1719 Q1147.2344,1363.4063 1148.125,1364.2344 Q1149.0156,1365.0469 1150.6094,1365.0469 Q1151.5469,1365.0469 1152.2031,1364.7969 Q1152.5938,1364.6406 1153.0156,1364.2031 Q1153.2813,1363.9375 1153.4219,1363.8594 Q1153.5781,1363.7813 1153.7813,1363.7813 Q1154.1094,1363.7813 1154.3594,1364.0469 Q1154.625,1364.2969 1154.625,1364.6406 Q1154.625,1364.9844 1154.2813,1365.3906 Q1153.7813,1365.9688 1152.9844,1366.2969 Q1151.9063,1366.75 1150.6094,1366.75 Q1149.0938,1366.75 1147.8906,1366.125 Q1146.9063,1365.625 1146.2188,1364.5625 Q1145.5313,1363.4844 1145.5313,1362.2031 L1145.5313,1361.0469 Q1145.5313,1359.7188 1146.1406,1358.5781 Q1146.7656,1357.4219 1147.8594,1356.8125 Q1148.9531,1356.1875 1150.1875,1356.1875 Q1150.9219,1356.1875 1151.5625,1356.3594 Q1152.2188,1356.5156 1152.7656,1356.875 Z " fill="#000000"/><text fill="#000000" font-family="sans-serif" font-size="14" lengthAdjust="spacing" textLength="49" x="1164" y="1366.7969">Student</text><line style="stroke:#181818;stroke-width:0.5;" x1="1136" x2="1215" y1="1377" y2="1377"/><line style="stroke:#181818;stroke-width:0.5;" x1="1136" x2="1215" y1="1385" y2="1385"/></g><!--class Teacher--><g id="elem_Teacher"><rect fill="#F1F1F1" height="48" id="Teacher" rx="2.5" ry="2.5" style="stroke:#181818;stroke-width:0.5;" width="85" x="1543" y="919.5"/><ellipse cx="1558" cy="935.5" fill="#ADD1B2" rx="11" ry="11" style="stroke:#181818;stroke-width:1.0;"/><path d="M1560.7656,931.375 Q1560.9219,931.1563 1561.1094,931.0469 Q1561.2969,930.9375 1561.5156,930.9375 Q1561.8906,930.9375 1562.125,931.2031 Q1562.3594,931.4531 1562.3594,932.0625 L1562.3594,933.5156 Q1562.3594,934.125 1562.125,934.3906 Q1561.8906,934.6563 1561.5156,934.6563 Q1561.1719,934.6563 1560.9688,934.4531 Q1560.7656,934.2656 1560.6563,933.75 Q1560.6094,933.3906 1560.4219,933.2031 Q1560.0938,932.8281 1559.4844,932.6094 Q1558.875,932.3906 1558.25,932.3906 Q1557.4844,932.3906 1556.8438,932.7188 Q1556.2188,933.0469 1555.7188,933.7969 Q1555.2344,934.5469 1555.2344,935.5781 L1555.2344,936.6719 Q1555.2344,937.9063 1556.125,938.7344 Q1557.0156,939.5469 1558.6094,939.5469 Q1559.5469,939.5469 1560.2031,939.2969 Q1560.5938,939.1406 1561.0156,938.7031 Q1561.2813,938.4375 1561.4219,938.3594 Q1561.5781,938.2813 1561.7813,938.2813 Q1562.1094,938.2813 1562.3594,938.5469 Q1562.625,938.7969 1562.625,939.1406 Q1562.625,939.4844 1562.2813,939.8906 Q1561.7813,940.4688 1560.9844,940.7969 Q1559.9063,941.25 1558.6094,941.25 Q1557.0938,941.25 1555.8906,940.625 Q1554.9063,940.125 1554.2188,939.0625 Q1553.5313,937.9844 1553.5313,936.7031 L1553.5313,935.5469 Q1553.5313,934.2188 1554.1406,933.0781 Q1554.7656,931.9219 1555.8594,931.3125 Q1556.9531,930.6875 1558.1875,930.6875 Q1558.9219,930.6875 1559.5625,930.8594 Q1560.2188,931.0156 1560.7656,931.375 Z " fill="#000000"/><text fill="#000000" font-family="sans-serif" font-size="14" lengthAdjust="spacing" textLength="53" x="1572" y="941.2969">Teacher</text><line style="stroke:#181818;stroke-width:0.5;" x1="1544" x2="1627" y1="951.5" y2="951.5"/><line style="stroke:#181818;stroke-width:0.5;" x1="1544" x2="1627" y1="959.5" y2="959.5"/></g><!--class Manager--><g id="elem_Manager"><rect fill="#F1F1F1" height="48" id="Manager" rx="2.5" ry="2.5" style="stroke:#181818;stroke-width:0.5;" width="88" x="1251.5" y="1345"/><ellipse cx="1266.5" cy="1361" fill="#ADD1B2" rx="11" ry="11" style="stroke:#181818;stroke-width:1.0;"/><path d="M1269.2656,1356.875 Q1269.4219,1356.6563 1269.6094,1356.5469 Q1269.7969,1356.4375 1270.0156,1356.4375 Q1270.3906,1356.4375 1270.625,1356.7031 Q1270.8594,1356.9531 1270.8594,1357.5625 L1270.8594,1359.0156 Q1270.8594,1359.625 1270.625,1359.8906 Q1270.3906,1360.1563 1270.0156,1360.1563 Q1269.6719,1360.1563 1269.4688,1359.9531 Q1269.2656,1359.7656 1269.1563,1359.25 Q1269.1094,1358.8906 1268.9219,1358.7031 Q1268.5938,1358.3281 1267.9844,1358.1094 Q1267.375,1357.8906 1266.75,1357.8906 Q1265.9844,1357.8906 1265.3438,1358.2188 Q1264.7188,1358.5469 1264.2188,1359.2969 Q1263.7344,1360.0469 1263.7344,1361.0781 L1263.7344,1362.1719 Q1263.7344,1363.4063 1264.625,1364.2344 Q1265.5156,1365.0469 1267.1094,1365.0469 Q1268.0469,1365.0469 1268.7031,1364.7969 Q1269.0938,1364.6406 1269.5156,1364.2031 Q1269.7813,1363.9375 1269.9219,1363.8594 Q1270.0781,1363.7813 1270.2813,1363.7813 Q1270.6094,1363.7813 1270.8594,1364.0469 Q1271.125,1364.2969 1271.125,1364.6406 Q1271.125,1364.9844 1270.7813,1365.3906 Q1270.2813,1365.9688 1269.4844,1366.2969 Q1268.4063,1366.75 1267.1094,1366.75 Q1265.5938,1366.75 1264.3906,1366.125 Q1263.4063,1365.625 1262.7188,1364.5625 Q1262.0313,1363.4844 1262.0313,1362.2031 L1262.0313,1361.0469 Q1262.0313,1359.7188 1262.6406,1358.5781 Q1263.2656,1357.4219 1264.3594,1356.8125 Q1265.4531,1356.1875 1266.6875,1356.1875 Q1267.4219,1356.1875 1268.0625,1356.3594 Q1268.7188,1356.5156 1269.2656,1356.875 Z " fill="#000000"/><text fill="#000000" font-family="sans-serif" font-size="14" lengthAdjust="spacing" textLength="56" x="1280.5" y="1366.7969">Manager</text><line style="stroke:#181818;stroke-width:0.5;" x1="1252.5" x2="1338.5" y1="1377" y2="1377"/><line style="stroke:#181818;stroke-width:0.5;" x1="1252.5" x2="1338.5" y1="1385" y2="1385"/></g><!--class SystemUserbuilder--><g id="elem_SystemUserbuilder"><rect fill="#F1F1F1" height="48" id="SystemUserbuilder" rx="2.5" ry="2.5" style="stroke:#181818;stroke-width:0.5;" width="150" x="990.5" y="7"/><ellipse cx="1005.5" cy="23" fill="#ADD1B2" rx="11" ry="11" style="stroke:#181818;stroke-width:1.0;"/><path d="M1008.2656,18.875 Q1008.4219,18.6563 1008.6094,18.5469 Q1008.7969,18.4375 1009.0156,18.4375 Q1009.3906,18.4375 1009.625,18.7031 Q1009.8594,18.9531 1009.8594,19.5625 L1009.8594,21.0156 Q1009.8594,21.625 1009.625,21.8906 Q1009.3906,22.1563 1009.0156,22.1563 Q1008.6719,22.1563 1008.4688,21.9531 Q1008.2656,21.7656 1008.1563,21.25 Q1008.1094,20.8906 1007.9219,20.7031 Q1007.5938,20.3281 1006.9844,20.1094 Q1006.375,19.8906 1005.75,19.8906 Q1004.9844,19.8906 1004.3438,20.2188 Q1003.7188,20.5469 1003.2188,21.2969 Q1002.7344,22.0469 1002.7344,23.0781 L1002.7344,24.1719 Q1002.7344,25.4063 1003.625,26.2344 Q1004.5156,27.0469 1006.1094,27.0469 Q1007.0469,27.0469 1007.7031,26.7969 Q1008.0938,26.6406 1008.5156,26.2031 Q1008.7813,25.9375 1008.9219,25.8594 Q1009.0781,25.7813 1009.2813,25.7813 Q1009.6094,25.7813 1009.8594,26.0469 Q1010.125,26.2969 1010.125,26.6406 Q1010.125,26.9844 1009.7813,27.3906 Q1009.2813,27.9688 1008.4844,28.2969 Q1007.4063,28.75 1006.1094,28.75 Q1004.5938,28.75 1003.3906,28.125 Q1002.4063,27.625 1001.7188,26.5625 Q1001.0313,25.4844 1001.0313,24.2031 L1001.0313,23.0469 Q1001.0313,21.7188 1001.6406,20.5781 Q1002.2656,19.4219 1003.3594,18.8125 Q1004.4531,18.1875 1005.6875,18.1875 Q1006.4219,18.1875 1007.0625,18.3594 Q1007.7188,18.5156 1008.2656,18.875 Z " fill="#000000"/><text fill="#000000" font-family="sans-serif" font-size="14" lengthAdjust="spacing" textLength="118" x="1019.5" y="28.7969">SystemUserbuilder</text><line style="stroke:#181818;stroke-width:0.5;" x1="991.5" x2="1139.5" y1="39" y2="39"/><line style="stroke:#181818;stroke-width:0.5;" x1="991.5" x2="1139.5" y1="47" y2="47"/></g><!--link SystemUser to Password--><g id="link_SystemUser_Password"><path codeLine="163" d="M646.38,1393.09 C651.06,1438.2 666.64,1539.5 715.5,1607 C733.01,1631.2 758.06,1651.66 782.53,1667.79 " fill="none" id="SystemUser-Password" style="stroke:#181818;stroke-width:1.0;"/></g><!--link SystemUser to EmailAdderess--><g id="link_SystemUser_EmailAdderess"><path codeLine="164" d="M698.23,1369 C709.88,1369 721.52,1369 733.16,1369 " fill="none" id="SystemUser-EmailAdderess" style="stroke:#181818;stroke-width:1.0;"/></g><!--link SystemUser to Role--><g id="link_SystemUser_Role"><path codeLine="165" d="M643.2,1344.83 C641.7,1288.64 647.21,1150.19 733,1100.5 C781.46,1072.43 810.54,1072.43 859,1100.5 C937.69,1146.07 956.29,1262.84 960.47,1326.33 " fill="none" id="SystemUser-Role" style="stroke:#181818;stroke-width:1.0;"/></g><!--link eCourseSystemUser to SystemUser--><g id="link_eCourseSystemUser_SystemUser"><path codeLine="167" d="M932.87,536.28 C921.59,556.44 910.92,576.89 901.5,597 C807.76,797.22 833.38,866.28 747.5,1070 C735.61,1098.21 727.06,1102.65 715.5,1131 C684.45,1207.17 660.12,1302 649.84,1344.95 " fill="none" id="eCourseSystemUser-SystemUser" style="stroke:#181818;stroke-width:1.0;"/></g><!--link eCourseSystemUser to EmailAdderess--><g id="link_eCourseSystemUser_EmailAdderess"><path codeLine="168" d="M971.18,536.25 C963.23,556.54 955.83,577.03 949.5,597 C858.34,884.48 810.55,1250.2 799.19,1344.83 " fill="none" id="eCourseSystemUser-EmailAdderess" style="stroke:#181818;stroke-width:1.0;"/></g><!--link eCourseSystemUser to Role--><g id="link_eCourseSystemUser_Role"><path codeLine="169" d="M989.42,536.31 C983.84,556.59 979.03,577.06 975.5,597 C926.93,871.53 948.12,1209.62 957.71,1326.19 " fill="none" id="eCourseSystemUser-Role" style="stroke:#181818;stroke-width:1.0;"/></g><!--link eCourseSystemUser to UserStatus--><g id="link_eCourseSystemUser_UserStatus"><path codeLine="170" d="M1335.45,536.13 C1360.2,556.23 1384.56,576.71 1407.5,597 C1415.09,603.71 1422.85,611.09 1430.3,618.46 " fill="none" id="eCourseSystemUser-UserStatus" style="stroke:#181818;stroke-width:1.0;"/></g><!--link UserRepository to SystemUser--><g id="link_UserRepository_SystemUser"><path codeLine="172" d="M555.55,1369 C567.37,1369 579.18,1369 590.99,1369 " fill="none" id="UserRepository-SystemUser" style="stroke:#181818;stroke-width:1.0;"/></g><!--link eCourseSystemUser to RegisterNewUserUI--><g id="link_eCourseSystemUser_RegisterNewUserUI"><path codeLine="173" d="M1141.88,536.35 C1150.1,557.91 1158,578.62 1164.98,596.95 " fill="none" id="eCourseSystemUser-RegisterNewUserUI" style="stroke:#181818;stroke-width:1.0;stroke-dasharray:7.0,7.0;"/></g><!--link RegisterNewUserUI to RegisterNewUserController--><g id="link_RegisterNewUserUI_RegisterNewUserController"><path codeLine="174" d="M1206.54,738.35 C1211.7,762.29 1217.63,789.87 1223.44,816.85 " fill="none" id="RegisterNewUserUI-RegisterNewUserController" style="stroke:#181818;stroke-width:1.0;stroke-dasharray:7.0,7.0;"/></g><!--link RegisterNewUserController to Role--><g id="link_RegisterNewUserController_Role"><path codeLine="175" d="M1079.59,1070.32 C1070.9,1079.85 1062.77,1089.76 1055.5,1100 C1005.4,1170.55 979.81,1270.33 968.68,1326.1 " fill="none" id="RegisterNewUserController-Role" style="stroke:#181818;stroke-width:1.0;stroke-dasharray:7.0,7.0;"/></g><!--link RegisterNewUserController to UserRepository--><g id="link_RegisterNewUserController_UserRepository"><path codeLine="176" d="M992.83,1007.09 C817.03,1051.23 609.69,1106.64 573.5,1131 C520.99,1166.34 477.2,1221.82 445.73,1270.22 " fill="none" id="RegisterNewUserController-UserRepository" style="stroke:#181818;stroke-width:1.0;stroke-dasharray:7.0,7.0;"/></g><!--link RegisterNewUserController to Password--><g id="link_RegisterNewUserController_Password"><path codeLine="177" d="M1149.28,1070.07 C1137.03,1089.64 1125.9,1110.27 1117.5,1131 C1037.18,1329.32 1167.22,1431.04 1045.5,1607 C1025.51,1635.9 994.59,1657.58 963.81,1673.37 " fill="none" id="RegisterNewUserController-Password" style="stroke:#181818;stroke-width:1.0;stroke-dasharray:7.0,7.0;"/></g><!--link RegisterNewUserController to Student--><g id="link_RegisterNewUserController_Student"><path codeLine="178" d="M1228.25,1070.13 C1211.06,1167.19 1188.72,1293.34 1179.62,1344.71 " fill="none" id="RegisterNewUserController-Student" style="stroke:#181818;stroke-width:1.0;stroke-dasharray:7.0,7.0;"/></g><!--link RegisterNewUserController to Teacher--><g id="link_RegisterNewUserController_Teacher"><path codeLine="179" d="M1508.29,943.5 C1519.85,943.5 1531.41,943.5 1542.98,943.5 " fill="none" id="RegisterNewUserController-Teacher" style="stroke:#181818;stroke-width:1.0;stroke-dasharray:7.0,7.0;"/></g><!--link RegisterNewUserController to Manager--><g id="link_RegisterNewUserController_Manager"><path codeLine="180" d="M1263.85,1070.13 C1274.16,1167.19 1287.57,1293.34 1293.03,1344.71 " fill="none" id="RegisterNewUserController-Manager" style="stroke:#181818;stroke-width:1.0;stroke-dasharray:7.0,7.0;"/></g><!--link RegisterNewUserController to StudentBuilder--><g id="link_RegisterNewUserController_StudentBuilder"><path codeLine="181" d="M1378.65,1070.13 C1397.19,1088.31 1416.77,1107.5 1436.7,1127.04 " fill="none" id="RegisterNewUserController-to-StudentBuilder" style="stroke:#181818;stroke-width:1.0;"/><polygon fill="#181818" points="1440.69,1130.95,1437.0618,1121.7938,1437.1189,1127.4504,1431.4624,1127.5075,1440.69,1130.95" style="stroke:#181818;stroke-width:1.0;"/></g><!--link RegisterNewUserController to TeacherBuilder--><g id="link_RegisterNewUserController_TeacherBuilder"><path codeLine="182" d="M1508.38,1064.87 C1514.11,1066.67 1519.82,1068.39 1525.5,1070 C1577.42,1084.76 1958.53,1108.28 2007.5,1131 C2011.86,1133.02 2016.19,1135.14 2020.49,1137.36 " fill="none" id="RegisterNewUserController-to-TeacherBuilder" style="stroke:#181818;stroke-width:1.0;"/><polygon fill="#181818" points="2025.16,1139.8,2019.0556,1132.071,2020.7345,1137.473,2015.3325,1139.1519,2025.16,1139.8" style="stroke:#181818;stroke-width:1.0;"/></g><!--link RegisterNewUserController to ManagerBuilder--><g id="link_RegisterNewUserController_ManagerBuilder"><path codeLine="183" d="M1508.25,1065.37 C1514.02,1067.02 1519.77,1068.57 1525.5,1070 C1741.08,1123.81 2324.95,1031.27 2523.5,1131 C2557.34,1148 2587.69,1173.55 2613.9,1201.67 " fill="none" id="RegisterNewUserController-to-ManagerBuilder" style="stroke:#181818;stroke-width:1.0;"/><polygon fill="#181818" points="2617.41,1205.47,2614.2492,1196.1421,2614.0204,1201.7943,2608.3682,1201.5655,2617.41,1205.47" style="stroke:#181818;stroke-width:1.0;"/></g><!--link StudentBuilder to eCourseSystemUser--><g id="link_StudentBuilder_eCourseSystemUser"><path codeLine="184" d="M1702.88,1130.7 C1703.99,960.95 1675.86,738.35 1543.5,597 C1487.53,537.23 1414.73,488.04 1342.89,449.1 " fill="none" id="StudentBuilder-to-eCourseSystemUser" style="stroke:#181818;stroke-width:1.0;"/><polygon fill="#181818" points="1338.16,446.54,1344.1848,454.3311,1342.5614,448.9122,1347.9804,447.2888,1338.16,446.54" style="stroke:#181818;stroke-width:1.0;"/><text fill="#000000" font-family="sans-serif" font-size="13" lengthAdjust="spacing" textLength="34" x="1653.5" y="783.0283">builds</text></g><!--link TeacherBuilder to eCourseSystemUser--><g id="link_TeacherBuilder_eCourseSystemUser"><path codeLine="185" d="M2106.9,1131 C1986.81,965.21 1809.62,747.4 1614.5,597 C1533.12,534.27 1434.24,481.51 1342.94,440.2 " fill="none" id="TeacherBuilder-to-eCourseSystemUser" style="stroke:#181818;stroke-width:1.0;"/><polygon fill="#181818" points="1338.32,438.12,1344.8772,445.4687,1342.8772,440.1772,1348.1687,438.1771,1338.32,438.12" style="stroke:#181818;stroke-width:1.0;"/><text fill="#000000" font-family="sans-serif" font-size="13" lengthAdjust="spacing" textLength="34" x="1822.5" y="783.0283">builds</text></g><!--link ManagerBuilder to eCourseSystemUser--><g id="link_ManagerBuilder_eCourseSystemUser"><path codeLine="186" d="M2597.05,1205.48 C2573.79,1179.39 2548.82,1153.57 2523.5,1131 C2203.29,845.55 2099.4,796.23 1719.5,597 C1599.9,534.28 1461.74,477.09 1343.31,432.33 " fill="none" id="ManagerBuilder-to-eCourseSystemUser" style="stroke:#181818;stroke-width:1.0;"/><polygon fill="#181818" points="1338.39,430.48,1345.387,437.4112,1343.0652,432.2528,1348.2235,429.931,1338.39,430.48" style="stroke:#181818;stroke-width:1.0;"/><text fill="#000000" font-family="sans-serif" font-size="13" lengthAdjust="spacing" textLength="34" x="2070.5" y="783.0283">builds</text></g><!--link SystemUserbuilder to eCourseSystemUser--><g id="link_SystemUserbuilder_eCourseSystemUser"><path codeLine="187" d="M1065.5,55.2 C1065.5,72.89 1065.5,99.18 1065.5,128.65 " fill="none" id="SystemUserbuilder-to-eCourseSystemUser" style="stroke:#181818;stroke-width:1.0;"/><polygon fill="#181818" points="1065.5,133.8,1069.5,124.8,1065.5,128.8,1061.5,124.8,1065.5,133.8" style="stroke:#181818;stroke-width:1.0;"/><text fill="#000000" font-family="sans-serif" font-size="13" lengthAdjust="spacing" textLength="34" x="1066.5" y="100.0283">builds</text></g><!--link eCourseSystemUser to AlterUserStatusUI--><g id="link_eCourseSystemUser_AlterUserStatusUI"><path codeLine="189" d="M796.35,536.2 C783.19,546.24 770.18,556.21 757.5,566 C732.8,585.06 705.72,606.59 683.01,624.81 " fill="none" id="eCourseSystemUser-AlterUserStatusUI" style="stroke:#181818;stroke-width:1.0;stroke-dasharray:7.0,7.0;"/></g><!--link AlterUserStatusUI to AlterUserStatusController--><g id="link_AlterUserStatusUI_AlterUserStatusController"><path codeLine="190" d="M631.5,710.11 C631.5,761.76 631.5,849.32 631.5,900.94 " fill="none" id="AlterUserStatusUI-AlterUserStatusController" style="stroke:#181818;stroke-width:1.0;stroke-dasharray:7.0,7.0;"/></g><!--link AlterUserStatusController to UserRepository--><g id="link_AlterUserStatusController_UserRepository"><path codeLine="191" d="M607.83,986.27 C570.7,1051.79 497.75,1180.52 446.88,1270.29 " fill="none" id="AlterUserStatusController-UserRepository" style="stroke:#181818;stroke-width:1.0;stroke-dasharray:7.0,7.0;"/></g><!--link eCourseSystemUser to ListSytemUsersUI--><g id="link_eCourseSystemUser_ListSytemUsersUI"><path codeLine="193" d="M792.7,460.24 C703.34,502.26 604.04,550.37 514.5,597 C497.74,605.73 479.95,615.54 463.29,624.98 " fill="none" id="eCourseSystemUser-ListSytemUsersUI" style="stroke:#181818;stroke-width:1.0;stroke-dasharray:7.0,7.0;"/></g><!--link ListSytemUsersUI to ListSystemUsersController--><g id="link_ListSytemUsersUI_ListSystemUsersController"><path codeLine="194" d="M392.35,710.11 C392.16,761.76 391.84,849.32 391.65,900.94 " fill="none" id="ListSytemUsersUI-ListSystemUsersController" style="stroke:#181818;stroke-width:1.0;stroke-dasharray:7.0,7.0;"/></g><!--link ListSystemUsersController to UserRepository--><g id="link_ListSystemUsersController_UserRepository"><path codeLine="195" d="M391.5,986.27 C391.5,1051.79 391.5,1180.52 391.5,1270.29 " fill="none" id="ListSystemUsersController-UserRepository" style="stroke:#181818;stroke-width:1.0;stroke-dasharray:7.0,7.0;"/></g><!--link ListSystemUsersController to ListUserService--><g id="link_ListSystemUsersController_ListUserService"><path codeLine="196" d="M342.36,986.29 C302.78,1021.8 247.65,1075.7 209.5,1131 C163.26,1198.02 127.79,1287.58 110.71,1335.11 " fill="none" id="ListSystemUsersController-ListUserService" style="stroke:#181818;stroke-width:1.0;stroke-dasharray:7.0,7.0;"/></g><!--SRC=[tLXRR-8u57xFh_3RXYtX1rWL4ksq8wGECohRjtq9YO58mK6scQeQxNzVt-B4L-Y8qQZ30s3xEoVdzXtRgTgIKe3kknEXQFr66JgyK4J0Zmpmpz_WuL0sxQAk4K429qPwHS3Mh6Gd2gZyqVDF3MMtIjySLFAN_eFAQj_WtJa8gZLYKP4Elnr0gNxrx6hv272prQExXh3zfv8XiEd_wPNFfAmHs8blFTDW1WweAd77Pu_xfbgT3Xj4zEh8Rsh-ohKRFpJvcX7k2WIuFA0fw4VRKzkkh1cwxmXJKyzTYo0W_7iA_iKgg515Smg-yGoyTgIUWgFvj-aujiHGXtPoeJ56ZA0TmcomHSTHFbs44OeuJeSGmY665xh45Osz-ccNrknKSrCTHtY-O2XXrtNWEXuiMeR8m8RSW_sNPPMacQXx2KJaUrCXJR8Ri6rmlMXRiKJp2LJy4AFv82k6p-ZOqOPrvCs8bdKjw-34lo0GtxrP11swxoYoU4yGZvHLGNwmjZyVhFuv59Mashj6G30YMEc4xyKpbdMiR5N-lsvDa7Y9wFMMXskWH3I2mdxJrvIFqXkjHIoRO8ZvKU9w1rtntbsjeeSPDKCuZ2gxeVuOcOTst6X4LkXL6Fwox5EyGqpODlWbHdFdaJAXJOVp2L2FrUlL9Od-1PsAbhhsXiIefDgFw3KgcoVHQDntc7695f5HL3XbtXCOg_J3RKTk753j71-h2Iclr2Rw1-mAofql9IvtltV7vVtLwaYcG9sk_x8qBNdKyoxlT36zG-5VIV-JR9PzhnoPVQKk-sJ30lPVwK6QmNUdfgsDzi9K1THLeQTDQJZpHDR9SxyD5Af4e2eOFNKqJUhRkDyNkbJWw2Yi5x3_e9rgBP_DeRG8jHO8laHEgONW9XGirSFDmD8xw_nx0pOY9gRXlJPi_wYZadln0HFeX78ajkwZbli1J0hApNGKt2HOnZgt8f_4csqsa9cqEueNWRmbnLG0yAM-onJdLiAJ-436yujh8stuyZ4tPPD4cWhAWtKLa3Kyr7lEH-6XVTs4rbrKG_Is2FjRw2_ddnt2T_0lAXZYNnGSuLyKVuv_SNUI_8kAXVaNXTzR6SwJ6KygqkdFlO98M-kIBegyW7IEh26TFXbz3DAzdn2sU-yWH5GmH8WeE4A8AFuS8UBk90aH5GiJme5RRmwqqjjRX4-7-ToSnHvMYxkd1ptuj5pB4PVadx-UKIjlJdJV76cMZLwI5SLG3EDfqkpshB2lk260hBZCV-d8zGwZyBgjEmYHseCherArp6hHbXNE6vQ0XjdClwHdtam0DXo2i-WAcDNTAvufwnEecMjd4clIb4JfhJq5afcRzVqehKuNOW9K57FtF946Etqm3NQ8u5mK1CBFBLGzYcRESUOCskd3Pz33tEOoWN0HUbVFpB-C-h1H4SRlc7vvXKrmRv6PTwqqeC1LC8jV4dq3abZdZMgM_Gy0]--></g></svg>