<?xml version="1.0" encoding="us-ascii" standalone="no"?><svg xmlns="http://www.w3.org/2000/svg" xmlns:xlink="http://www.w3.org/1999/xlink" contentStyleType="text/css" height="495px" preserveAspectRatio="none" style="width:1275px;height:495px;background:#FFFFFF;" version="1.1" viewBox="0 0 1275 495" width="1275px" zoomAndPan="magnify"><defs/><g><!--cluster ECOURSESYSTEMUSER--><g id="cluster_ECOURSESYSTEMUSER"><path d="M10.52,6.0137 L175.52,6.0137 A3.75,3.75 0 0 1 178.02,8.5137 L185.02,30.6348 L1116.52,30.6348 A2.5,2.5 0 0 1 1119.02,33.1348 L1119.02,485.5137 A2.5,2.5 0 0 1 1116.52,488.0137 L10.52,488.0137 A2.5,2.5 0 0 1 8.02,485.5137 L8.02,8.5137 A2.5,2.5 0 0 1 10.52,6.0137 " fill="none" style="stroke:#000000;stroke-width:1.5;"/><line style="stroke:#000000;stroke-width:1.5;" x1="8.02" x2="185.02" y1="30.6348" y2="30.6348"/><text fill="#000000" font-family="sans-serif" font-size="14" font-weight="bold" lengthAdjust="spacing" textLength="164" x="12.02" y="23.1211">ECOURSESYSTEMUSER</text><text fill="#000000" font-family="sans-serif" font-size="14" font-style="italic" lengthAdjust="spacing" textLength="82" x="526.52" y="47.7422">&#171;Aggregate&#187;</text></g><!--class SystemUser--><g id="elem_SystemUser"><rect codeLine="5" fill="#F1F1F1" height="113.7852" id="SystemUser" rx="2.5" ry="2.5" style="stroke:#181818;stroke-width:0.5;" width="107" x="61.52" y="218.0137"/><ellipse cx="76.52" cy="248.2852" fill="#ADD1B2" rx="11" ry="11" style="stroke:#181818;stroke-width:1.0;"/><path d="M79.2856,244.1602 Q79.4419,243.9414 79.6294,243.832 Q79.8169,243.7227 80.0356,243.7227 Q80.4106,243.7227 80.645,243.9883 Q80.8794,244.2383 80.8794,244.8477 L80.8794,246.3008 Q80.8794,246.9102 80.645,247.1758 Q80.4106,247.4414 80.0356,247.4414 Q79.6919,247.4414 79.4888,247.2383 Q79.2856,247.0508 79.1763,246.5352 Q79.1294,246.1758 78.9419,245.9883 Q78.6138,245.6133 78.0044,245.3945 Q77.395,245.1758 76.77,245.1758 Q76.0044,245.1758 75.3638,245.5039 Q74.7388,245.832 74.2388,246.582 Q73.7544,247.332 73.7544,248.3633 L73.7544,249.457 Q73.7544,250.6914 74.645,251.5195 Q75.5356,252.332 77.1294,252.332 Q78.0669,252.332 78.7231,252.082 Q79.1138,251.9258 79.5356,251.4883 Q79.8013,251.2227 79.9419,251.1445 Q80.0981,251.0664 80.3013,251.0664 Q80.6294,251.0664 80.8794,251.332 Q81.145,251.582 81.145,251.9258 Q81.145,252.2695 80.8013,252.6758 Q80.3013,253.2539 79.5044,253.582 Q78.4263,254.0352 77.1294,254.0352 Q75.6138,254.0352 74.4106,253.4102 Q73.4263,252.9102 72.7388,251.8477 Q72.0513,250.7695 72.0513,249.4883 L72.0513,248.332 Q72.0513,247.0039 72.6606,245.8633 Q73.2856,244.707 74.3794,244.0977 Q75.4731,243.4727 76.7075,243.4727 Q77.4419,243.4727 78.0825,243.6445 Q78.7388,243.8008 79.2856,244.1602 Z " fill="#000000"/><text fill="#000000" font-family="sans-serif" font-size="12" font-style="italic" lengthAdjust="spacing" textLength="35" x="110.52" y="235.9629">&#171;root&#187;</text><text fill="#000000" font-family="sans-serif" font-size="12" font-style="italic" lengthAdjust="spacing" textLength="44" x="106.02" y="251.9238">&#171;Entity&#187;</text><text fill="#000000" font-family="sans-serif" font-size="14" lengthAdjust="spacing" textLength="75" x="90.52" y="270.043">SystemUser</text><line style="stroke:#181818;stroke-width:0.5;" x1="62.52" x2="167.52" y1="278.5566" y2="278.5566"/><ellipse cx="72.52" cy="293.3672" fill="#000000" rx="3" ry="3" style="stroke:#000000;stroke-width:1.0;"/><text fill="#000000" font-family="sans-serif" font-size="14" lengthAdjust="spacing" textLength="36" x="81.52" y="297.6641">Name</text><ellipse cx="72.52" cy="311.9883" fill="#000000" rx="3" ry="3" style="stroke:#000000;stroke-width:1.0;"/><text fill="#000000" font-family="sans-serif" font-size="14" lengthAdjust="spacing" textLength="64" x="81.52" y="316.2852">Username</text><line style="stroke:#181818;stroke-width:0.5;" x1="62.52" x2="167.52" y1="323.7988" y2="323.7988"/></g><!--class eCourseSystemUser--><g id="elem_eCourseSystemUser"><rect codeLine="10" fill="#F1F1F1" height="76.543" id="eCourseSystemUser" rx="2.5" ry="2.5" style="stroke:#181818;stroke-width:0.5;" width="161" x="457.52" y="62.0137"/><ellipse cx="472.52" cy="92.2852" fill="#ADD1B2" rx="11" ry="11" style="stroke:#181818;stroke-width:1.0;"/><path d="M475.2856,88.1602 Q475.4419,87.9414 475.6294,87.832 Q475.8169,87.7227 476.0356,87.7227 Q476.4106,87.7227 476.645,87.9883 Q476.8794,88.2383 476.8794,88.8477 L476.8794,90.3008 Q476.8794,90.9102 476.645,91.1758 Q476.4106,91.4414 476.0356,91.4414 Q475.6919,91.4414 475.4888,91.2383 Q475.2856,91.0508 475.1763,90.5352 Q475.1294,90.1758 474.9419,89.9883 Q474.6138,89.6133 474.0044,89.3945 Q473.395,89.1758 472.77,89.1758 Q472.0044,89.1758 471.3638,89.5039 Q470.7388,89.832 470.2388,90.582 Q469.7544,91.332 469.7544,92.3633 L469.7544,93.457 Q469.7544,94.6914 470.645,95.5195 Q471.5356,96.332 473.1294,96.332 Q474.0669,96.332 474.7231,96.082 Q475.1138,95.9258 475.5356,95.4883 Q475.8013,95.2227 475.9419,95.1445 Q476.0981,95.0664 476.3013,95.0664 Q476.6294,95.0664 476.8794,95.332 Q477.145,95.582 477.145,95.9258 Q477.145,96.2695 476.8013,96.6758 Q476.3013,97.2539 475.5044,97.582 Q474.4263,98.0352 473.1294,98.0352 Q471.6138,98.0352 470.4106,97.4102 Q469.4263,96.9102 468.7388,95.8477 Q468.0513,94.7695 468.0513,93.4883 L468.0513,92.332 Q468.0513,91.0039 468.6606,89.8633 Q469.2856,88.707 470.3794,88.0977 Q471.4731,87.4727 472.7075,87.4727 Q473.4419,87.4727 474.0825,87.6445 Q474.7388,87.8008 475.2856,88.1602 Z " fill="#000000"/><text fill="#000000" font-family="sans-serif" font-size="12" font-style="italic" lengthAdjust="spacing" textLength="35" x="533.52" y="79.9629">&#171;root&#187;</text><text fill="#000000" font-family="sans-serif" font-size="12" font-style="italic" lengthAdjust="spacing" textLength="44" x="529.02" y="95.9238">&#171;Entity&#187;</text><text fill="#000000" font-family="sans-serif" font-size="14" lengthAdjust="spacing" textLength="129" x="486.52" y="114.043">eCourseSystemUser</text><line style="stroke:#181818;stroke-width:0.5;" x1="458.52" x2="617.52" y1="122.5566" y2="122.5566"/><line style="stroke:#181818;stroke-width:0.5;" x1="458.52" x2="617.52" y1="130.5566" y2="130.5566"/></g><!--class EmailAdderss--><g id="elem_EmailAdderss"><rect codeLine="14" fill="#F1F1F1" height="60.582" id="EmailAdderss" rx="2.5" ry="2.5" style="stroke:#181818;stroke-width:0.5;" width="118" x="161.02" y="402.0137"/><ellipse cx="176.02" cy="424.3047" fill="#ADD1B2" rx="11" ry="11" style="stroke:#181818;stroke-width:1.0;"/><path d="M178.7856,420.1797 Q178.9419,419.9609 179.1294,419.8516 Q179.3169,419.7422 179.5356,419.7422 Q179.9106,419.7422 180.145,420.0078 Q180.3794,420.2578 180.3794,420.8672 L180.3794,422.3203 Q180.3794,422.9297 180.145,423.1953 Q179.9106,423.4609 179.5356,423.4609 Q179.1919,423.4609 178.9888,423.2578 Q178.7856,423.0703 178.6763,422.5547 Q178.6294,422.1953 178.4419,422.0078 Q178.1138,421.6328 177.5044,421.4141 Q176.895,421.1953 176.27,421.1953 Q175.5044,421.1953 174.8638,421.5234 Q174.2388,421.8516 173.7388,422.6016 Q173.2544,423.3516 173.2544,424.3828 L173.2544,425.4766 Q173.2544,426.7109 174.145,427.5391 Q175.0356,428.3516 176.6294,428.3516 Q177.5669,428.3516 178.2231,428.1016 Q178.6138,427.9453 179.0356,427.5078 Q179.3013,427.2422 179.4419,427.1641 Q179.5981,427.0859 179.8013,427.0859 Q180.1294,427.0859 180.3794,427.3516 Q180.645,427.6016 180.645,427.9453 Q180.645,428.2891 180.3013,428.6953 Q179.8013,429.2734 179.0044,429.6016 Q177.9263,430.0547 176.6294,430.0547 Q175.1138,430.0547 173.9106,429.4297 Q172.9263,428.9297 172.2388,427.8672 Q171.5513,426.7891 171.5513,425.5078 L171.5513,424.3516 Q171.5513,423.0234 172.1606,421.8828 Q172.7856,420.7266 173.8794,420.1172 Q174.9731,419.4922 176.2075,419.4922 Q176.9419,419.4922 177.5825,419.6641 Q178.2388,419.8203 178.7856,420.1797 Z " fill="#000000"/><text fill="#000000" font-family="sans-serif" font-size="12" font-style="italic" lengthAdjust="spacing" textLength="83" x="191.52" y="419.9629">&#171;Value object&#187;</text><text fill="#000000" font-family="sans-serif" font-size="14" lengthAdjust="spacing" textLength="86" x="190.02" y="438.082">EmailAdderss</text><line style="stroke:#181818;stroke-width:0.5;" x1="162.02" x2="278.02" y1="446.5957" y2="446.5957"/><line style="stroke:#181818;stroke-width:0.5;" x1="162.02" x2="278.02" y1="454.5957" y2="454.5957"/></g><!--class Role--><g id="elem_Role"><rect codeLine="16" fill="#F1F1F1" height="79.2031" id="Role" rx="2.5" ry="2.5" style="stroke:#181818;stroke-width:0.5;" width="102" x="24.02" y="393.0137"/><ellipse cx="52.52" cy="415.3047" fill="#ADD1B2" rx="11" ry="11" style="stroke:#181818;stroke-width:1.0;"/><path d="M55.2856,411.1797 Q55.4419,410.9609 55.6294,410.8516 Q55.8169,410.7422 56.0356,410.7422 Q56.4106,410.7422 56.645,411.0078 Q56.8794,411.2578 56.8794,411.8672 L56.8794,413.3203 Q56.8794,413.9297 56.645,414.1953 Q56.4106,414.4609 56.0356,414.4609 Q55.6919,414.4609 55.4887,414.2578 Q55.2856,414.0703 55.1762,413.5547 Q55.1294,413.1953 54.9419,413.0078 Q54.6137,412.6328 54.0044,412.4141 Q53.395,412.1953 52.77,412.1953 Q52.0044,412.1953 51.3637,412.5234 Q50.7387,412.8516 50.2387,413.6016 Q49.7544,414.3516 49.7544,415.3828 L49.7544,416.4766 Q49.7544,417.7109 50.645,418.5391 Q51.5356,419.3516 53.1294,419.3516 Q54.0669,419.3516 54.7231,419.1016 Q55.1137,418.9453 55.5356,418.5078 Q55.8012,418.2422 55.9419,418.1641 Q56.0981,418.0859 56.3012,418.0859 Q56.6294,418.0859 56.8794,418.3516 Q57.145,418.6016 57.145,418.9453 Q57.145,419.2891 56.8012,419.6953 Q56.3012,420.2734 55.5044,420.6016 Q54.4262,421.0547 53.1294,421.0547 Q51.6137,421.0547 50.4106,420.4297 Q49.4262,419.9297 48.7387,418.8672 Q48.0512,417.7891 48.0512,416.5078 L48.0512,415.3516 Q48.0512,414.0234 48.6606,412.8828 Q49.2856,411.7266 50.3794,411.1172 Q51.4731,410.4922 52.7075,410.4922 Q53.4419,410.4922 54.0825,410.6641 Q54.7387,410.8203 55.2856,411.1797 Z " fill="#000000"/><text fill="#000000" font-family="sans-serif" font-size="12" font-style="italic" lengthAdjust="spacing" textLength="44" x="67.52" y="410.9629">&#171;Entity&#187;</text><text fill="#000000" font-family="sans-serif" font-size="14" lengthAdjust="spacing" textLength="29" x="75.02" y="429.082">Role</text><line style="stroke:#181818;stroke-width:0.5;" x1="25.02" x2="125.02" y1="437.5957" y2="437.5957"/><ellipse cx="35.02" cy="452.4063" fill="#000000" rx="3" ry="3" style="stroke:#000000;stroke-width:1.0;"/><text fill="#000000" font-family="sans-serif" font-size="14" lengthAdjust="spacing" textLength="76" x="44.02" y="456.7031">String name</text><line style="stroke:#181818;stroke-width:0.5;" x1="25.02" x2="125.02" y1="464.2168" y2="464.2168"/></g><!--class UserStatus--><g id="elem_UserStatus"><rect codeLine="20" fill="#F1F1F1" height="97.8242" id="UserStatus" rx="2.5" ry="2.5" style="stroke:#181818;stroke-width:0.5;" width="101" x="203.52" y="226.0137"/><ellipse cx="218.52" cy="248.3047" fill="#ADD1B2" rx="11" ry="11" style="stroke:#181818;stroke-width:1.0;"/><path d="M221.2856,244.1797 Q221.4419,243.9609 221.6294,243.8516 Q221.8169,243.7422 222.0356,243.7422 Q222.4106,243.7422 222.645,244.0078 Q222.8794,244.2578 222.8794,244.8672 L222.8794,246.3203 Q222.8794,246.9297 222.645,247.1953 Q222.4106,247.4609 222.0356,247.4609 Q221.6919,247.4609 221.4888,247.2578 Q221.2856,247.0703 221.1763,246.5547 Q221.1294,246.1953 220.9419,246.0078 Q220.6138,245.6328 220.0044,245.4141 Q219.395,245.1953 218.77,245.1953 Q218.0044,245.1953 217.3638,245.5234 Q216.7388,245.8516 216.2388,246.6016 Q215.7544,247.3516 215.7544,248.3828 L215.7544,249.4766 Q215.7544,250.7109 216.645,251.5391 Q217.5356,252.3516 219.1294,252.3516 Q220.0669,252.3516 220.7231,252.1016 Q221.1138,251.9453 221.5356,251.5078 Q221.8013,251.2422 221.9419,251.1641 Q222.0981,251.0859 222.3013,251.0859 Q222.6294,251.0859 222.8794,251.3516 Q223.145,251.6016 223.145,251.9453 Q223.145,252.2891 222.8013,252.6953 Q222.3013,253.2734 221.5044,253.6016 Q220.4263,254.0547 219.1294,254.0547 Q217.6138,254.0547 216.4106,253.4297 Q215.4263,252.9297 214.7388,251.8672 Q214.0513,250.7891 214.0513,249.5078 L214.0513,248.3516 Q214.0513,247.0234 214.6606,245.8828 Q215.2856,244.7266 216.3794,244.1172 Q217.4731,243.4922 218.7075,243.4922 Q219.4419,243.4922 220.0825,243.6641 Q220.7388,243.8203 221.2856,244.1797 Z " fill="#000000"/><text fill="#000000" font-family="sans-serif" font-size="12" font-style="italic" lengthAdjust="spacing" textLength="46" x="244.02" y="243.9629">&#171;enum&#187;</text><text fill="#000000" font-family="sans-serif" font-size="14" lengthAdjust="spacing" textLength="69" x="232.52" y="262.082">UserStatus</text><line style="stroke:#181818;stroke-width:0.5;" x1="204.52" x2="303.52" y1="270.5957" y2="270.5957"/><ellipse cx="214.52" cy="285.4063" fill="none" rx="3" ry="3" style="stroke:#038048;stroke-width:1.0;"/><text fill="#000000" font-family="sans-serif" font-size="14" lengthAdjust="spacing" textLength="53" x="223.52" y="289.7031">ENABLE</text><ellipse cx="214.52" cy="304.0273" fill="none" rx="3" ry="3" style="stroke:#038048;stroke-width:1.0;"/><text fill="#000000" font-family="sans-serif" font-size="14" lengthAdjust="spacing" textLength="57" x="223.52" y="308.3242">DISABLE</text><line style="stroke:#181818;stroke-width:0.5;" x1="204.52" x2="303.52" y1="315.8379" y2="315.8379"/></g><!--class Password--><g id="elem_Password"><rect codeLine="25" fill="#F1F1F1" height="60.582" id="Password" rx="2.5" ry="2.5" style="stroke:#181818;stroke-width:0.5;" width="109" x="314.52" y="402.0137"/><ellipse cx="329.52" cy="424.3047" fill="#ADD1B2" rx="11" ry="11" style="stroke:#181818;stroke-width:1.0;"/><path d="M332.2856,420.1797 Q332.4419,419.9609 332.6294,419.8516 Q332.8169,419.7422 333.0356,419.7422 Q333.4106,419.7422 333.645,420.0078 Q333.8794,420.2578 333.8794,420.8672 L333.8794,422.3203 Q333.8794,422.9297 333.645,423.1953 Q333.4106,423.4609 333.0356,423.4609 Q332.6919,423.4609 332.4888,423.2578 Q332.2856,423.0703 332.1763,422.5547 Q332.1294,422.1953 331.9419,422.0078 Q331.6138,421.6328 331.0044,421.4141 Q330.395,421.1953 329.77,421.1953 Q329.0044,421.1953 328.3638,421.5234 Q327.7388,421.8516 327.2388,422.6016 Q326.7544,423.3516 326.7544,424.3828 L326.7544,425.4766 Q326.7544,426.7109 327.645,427.5391 Q328.5356,428.3516 330.1294,428.3516 Q331.0669,428.3516 331.7231,428.1016 Q332.1138,427.9453 332.5356,427.5078 Q332.8013,427.2422 332.9419,427.1641 Q333.0981,427.0859 333.3013,427.0859 Q333.6294,427.0859 333.8794,427.3516 Q334.145,427.6016 334.145,427.9453 Q334.145,428.2891 333.8013,428.6953 Q333.3013,429.2734 332.5044,429.6016 Q331.4263,430.0547 330.1294,430.0547 Q328.6138,430.0547 327.4106,429.4297 Q326.4263,428.9297 325.7388,427.8672 Q325.0513,426.7891 325.0513,425.5078 L325.0513,424.3516 Q325.0513,423.0234 325.6606,421.8828 Q326.2856,420.7266 327.3794,420.1172 Q328.4731,419.4922 329.7075,419.4922 Q330.4419,419.4922 331.0825,419.6641 Q331.7388,419.8203 332.2856,420.1797 Z " fill="#000000"/><text fill="#000000" font-family="sans-serif" font-size="12" font-style="italic" lengthAdjust="spacing" textLength="81" x="341.52" y="419.9629">&#171;value object&#187;</text><text fill="#000000" font-family="sans-serif" font-size="14" lengthAdjust="spacing" textLength="61" x="351.52" y="438.082">Password</text><line style="stroke:#181818;stroke-width:0.5;" x1="315.52" x2="422.52" y1="446.5957" y2="446.5957"/><line style="stroke:#181818;stroke-width:0.5;" x1="315.52" x2="422.52" y1="454.5957" y2="454.5957"/></g><!--class Acronym--><g id="elem_Acronym"><rect codeLine="27" fill="#F1F1F1" height="60.582" id="Acronym" rx="2.5" ry="2.5" style="stroke:#181818;stroke-width:0.5;" width="109" x="339.52" y="244.5137"/><ellipse cx="354.52" cy="266.8047" fill="#ADD1B2" rx="11" ry="11" style="stroke:#181818;stroke-width:1.0;"/><path d="M357.2856,262.6797 Q357.4419,262.4609 357.6294,262.3516 Q357.8169,262.2422 358.0356,262.2422 Q358.4106,262.2422 358.645,262.5078 Q358.8794,262.7578 358.8794,263.3672 L358.8794,264.8203 Q358.8794,265.4297 358.645,265.6953 Q358.4106,265.9609 358.0356,265.9609 Q357.6919,265.9609 357.4888,265.7578 Q357.2856,265.5703 357.1763,265.0547 Q357.1294,264.6953 356.9419,264.5078 Q356.6138,264.1328 356.0044,263.9141 Q355.395,263.6953 354.77,263.6953 Q354.0044,263.6953 353.3638,264.0234 Q352.7388,264.3516 352.2388,265.1016 Q351.7544,265.8516 351.7544,266.8828 L351.7544,267.9766 Q351.7544,269.2109 352.645,270.0391 Q353.5356,270.8516 355.1294,270.8516 Q356.0669,270.8516 356.7231,270.6016 Q357.1138,270.4453 357.5356,270.0078 Q357.8013,269.7422 357.9419,269.6641 Q358.0981,269.5859 358.3013,269.5859 Q358.6294,269.5859 358.8794,269.8516 Q359.145,270.1016 359.145,270.4453 Q359.145,270.7891 358.8013,271.1953 Q358.3013,271.7734 357.5044,272.1016 Q356.4263,272.5547 355.1294,272.5547 Q353.6138,272.5547 352.4106,271.9297 Q351.4263,271.4297 350.7388,270.3672 Q350.0513,269.2891 350.0513,268.0078 L350.0513,266.8516 Q350.0513,265.5234 350.6606,264.3828 Q351.2856,263.2266 352.3794,262.6172 Q353.4731,261.9922 354.7075,261.9922 Q355.4419,261.9922 356.0825,262.1641 Q356.7388,262.3203 357.2856,262.6797 Z " fill="#000000"/><text fill="#000000" font-family="sans-serif" font-size="12" font-style="italic" lengthAdjust="spacing" textLength="81" x="366.52" y="262.4629">&#171;value object&#187;</text><text fill="#000000" font-family="sans-serif" font-size="14" lengthAdjust="spacing" textLength="55" x="379.52" y="280.582">Acronym</text><line style="stroke:#181818;stroke-width:0.5;" x1="340.52" x2="447.52" y1="289.0957" y2="289.0957"/><line style="stroke:#181818;stroke-width:0.5;" x1="340.52" x2="447.52" y1="297.0957" y2="297.0957"/></g><!--class NIF--><g id="elem_NIF"><rect codeLine="29" fill="#F1F1F1" height="60.582" id="NIF" rx="2.5" ry="2.5" style="stroke:#181818;stroke-width:0.5;" width="109" x="483.52" y="244.5137"/><ellipse cx="498.52" cy="266.8047" fill="#ADD1B2" rx="11" ry="11" style="stroke:#181818;stroke-width:1.0;"/><path d="M501.2856,262.6797 Q501.4419,262.4609 501.6294,262.3516 Q501.8169,262.2422 502.0356,262.2422 Q502.4106,262.2422 502.645,262.5078 Q502.8794,262.7578 502.8794,263.3672 L502.8794,264.8203 Q502.8794,265.4297 502.645,265.6953 Q502.4106,265.9609 502.0356,265.9609 Q501.6919,265.9609 501.4888,265.7578 Q501.2856,265.5703 501.1763,265.0547 Q501.1294,264.6953 500.9419,264.5078 Q500.6138,264.1328 500.0044,263.9141 Q499.395,263.6953 498.77,263.6953 Q498.0044,263.6953 497.3638,264.0234 Q496.7388,264.3516 496.2388,265.1016 Q495.7544,265.8516 495.7544,266.8828 L495.7544,267.9766 Q495.7544,269.2109 496.645,270.0391 Q497.5356,270.8516 499.1294,270.8516 Q500.0669,270.8516 500.7231,270.6016 Q501.1138,270.4453 501.5356,270.0078 Q501.8013,269.7422 501.9419,269.6641 Q502.0981,269.5859 502.3013,269.5859 Q502.6294,269.5859 502.8794,269.8516 Q503.145,270.1016 503.145,270.4453 Q503.145,270.7891 502.8013,271.1953 Q502.3013,271.7734 501.5044,272.1016 Q500.4263,272.5547 499.1294,272.5547 Q497.6138,272.5547 496.4106,271.9297 Q495.4263,271.4297 494.7388,270.3672 Q494.0513,269.2891 494.0513,268.0078 L494.0513,266.8516 Q494.0513,265.5234 494.6606,264.3828 Q495.2856,263.2266 496.3794,262.6172 Q497.4731,261.9922 498.7075,261.9922 Q499.4419,261.9922 500.0825,262.1641 Q500.7388,262.3203 501.2856,262.6797 Z " fill="#000000"/><text fill="#000000" font-family="sans-serif" font-size="12" font-style="italic" lengthAdjust="spacing" textLength="81" x="510.52" y="262.4629">&#171;value object&#187;</text><text fill="#000000" font-family="sans-serif" font-size="14" lengthAdjust="spacing" textLength="21" x="540.52" y="280.582">NIF</text><line style="stroke:#181818;stroke-width:0.5;" x1="484.52" x2="591.52" y1="289.0957" y2="289.0957"/><line style="stroke:#181818;stroke-width:0.5;" x1="484.52" x2="591.52" y1="297.0957" y2="297.0957"/></g><!--class BirthDate--><g id="elem_BirthDate"><rect codeLine="31" fill="#F1F1F1" height="60.582" id="BirthDate" rx="2.5" ry="2.5" style="stroke:#181818;stroke-width:0.5;" width="109" x="627.52" y="244.5137"/><ellipse cx="642.52" cy="266.8047" fill="#ADD1B2" rx="11" ry="11" style="stroke:#181818;stroke-width:1.0;"/><path d="M645.2856,262.6797 Q645.4419,262.4609 645.6294,262.3516 Q645.8169,262.2422 646.0356,262.2422 Q646.4106,262.2422 646.645,262.5078 Q646.8794,262.7578 646.8794,263.3672 L646.8794,264.8203 Q646.8794,265.4297 646.645,265.6953 Q646.4106,265.9609 646.0356,265.9609 Q645.6919,265.9609 645.4888,265.7578 Q645.2856,265.5703 645.1763,265.0547 Q645.1294,264.6953 644.9419,264.5078 Q644.6138,264.1328 644.0044,263.9141 Q643.395,263.6953 642.77,263.6953 Q642.0044,263.6953 641.3638,264.0234 Q640.7388,264.3516 640.2388,265.1016 Q639.7544,265.8516 639.7544,266.8828 L639.7544,267.9766 Q639.7544,269.2109 640.645,270.0391 Q641.5356,270.8516 643.1294,270.8516 Q644.0669,270.8516 644.7231,270.6016 Q645.1138,270.4453 645.5356,270.0078 Q645.8013,269.7422 645.9419,269.6641 Q646.0981,269.5859 646.3013,269.5859 Q646.6294,269.5859 646.8794,269.8516 Q647.145,270.1016 647.145,270.4453 Q647.145,270.7891 646.8013,271.1953 Q646.3013,271.7734 645.5044,272.1016 Q644.4263,272.5547 643.1294,272.5547 Q641.6138,272.5547 640.4106,271.9297 Q639.4263,271.4297 638.7388,270.3672 Q638.0513,269.2891 638.0513,268.0078 L638.0513,266.8516 Q638.0513,265.5234 638.6606,264.3828 Q639.2856,263.2266 640.3794,262.6172 Q641.4731,261.9922 642.7075,261.9922 Q643.4419,261.9922 644.0825,262.1641 Q644.7388,262.3203 645.2856,262.6797 Z " fill="#000000"/><text fill="#000000" font-family="sans-serif" font-size="12" font-style="italic" lengthAdjust="spacing" textLength="81" x="654.52" y="262.4629">&#171;value object&#187;</text><text fill="#000000" font-family="sans-serif" font-size="14" lengthAdjust="spacing" textLength="59" x="665.52" y="280.582">BirthDate</text><line style="stroke:#181818;stroke-width:0.5;" x1="628.52" x2="735.52" y1="289.0957" y2="289.0957"/><line style="stroke:#181818;stroke-width:0.5;" x1="628.52" x2="735.52" y1="297.0957" y2="297.0957"/></g><!--class MechanographicNumber--><g id="elem_MechanographicNumber"><rect codeLine="33" fill="#F1F1F1" height="76.543" id="MechanographicNumber" rx="2.5" ry="2.5" style="stroke:#181818;stroke-width:0.5;" width="186" x="772.02" y="236.5137"/><ellipse cx="787.02" cy="266.7852" fill="#ADD1B2" rx="11" ry="11" style="stroke:#181818;stroke-width:1.0;"/><path d="M789.7856,262.6602 Q789.9419,262.4414 790.1294,262.332 Q790.3169,262.2227 790.5356,262.2227 Q790.9106,262.2227 791.145,262.4883 Q791.3794,262.7383 791.3794,263.3477 L791.3794,264.8008 Q791.3794,265.4102 791.145,265.6758 Q790.9106,265.9414 790.5356,265.9414 Q790.1919,265.9414 789.9888,265.7383 Q789.7856,265.5508 789.6763,265.0352 Q789.6294,264.6758 789.4419,264.4883 Q789.1138,264.1133 788.5044,263.8945 Q787.895,263.6758 787.27,263.6758 Q786.5044,263.6758 785.8638,264.0039 Q785.2388,264.332 784.7388,265.082 Q784.2544,265.832 784.2544,266.8633 L784.2544,267.957 Q784.2544,269.1914 785.145,270.0195 Q786.0356,270.832 787.6294,270.832 Q788.5669,270.832 789.2231,270.582 Q789.6138,270.4258 790.0356,269.9883 Q790.3013,269.7227 790.4419,269.6445 Q790.5981,269.5664 790.8013,269.5664 Q791.1294,269.5664 791.3794,269.832 Q791.645,270.082 791.645,270.4258 Q791.645,270.7695 791.3013,271.1758 Q790.8013,271.7539 790.0044,272.082 Q788.9263,272.5352 787.6294,272.5352 Q786.1138,272.5352 784.9106,271.9102 Q783.9263,271.4102 783.2388,270.3477 Q782.5513,269.2695 782.5513,267.9883 L782.5513,266.832 Q782.5513,265.5039 783.1606,264.3633 Q783.7856,263.207 784.8794,262.5977 Q785.9731,261.9727 787.2075,261.9727 Q787.9419,261.9727 788.5825,262.1445 Q789.2388,262.3008 789.7856,262.6602 Z " fill="#000000"/><text fill="#000000" font-family="sans-serif" font-size="12" font-style="italic" lengthAdjust="spacing" textLength="81" x="837.52" y="254.4629">&#171;value object&#187;</text><text fill="#000000" font-family="sans-serif" font-size="12" font-style="italic" lengthAdjust="spacing" textLength="146" x="805.02" y="270.4238">&#171;automatically generated&#187;</text><text fill="#000000" font-family="sans-serif" font-size="14" lengthAdjust="spacing" textLength="154" x="801.02" y="288.543">MechanographicNumber</text><line style="stroke:#181818;stroke-width:0.5;" x1="773.02" x2="957.02" y1="297.0566" y2="297.0566"/><line style="stroke:#181818;stroke-width:0.5;" x1="773.02" x2="957.02" y1="305.0566" y2="305.0566"/></g><!--class Grade--><g id="elem_Grade"><rect codeLine="35" fill="#F1F1F1" height="60.582" id="Grade" rx="2.5" ry="2.5" style="stroke:#181818;stroke-width:0.5;" width="109" x="993.52" y="244.5137"/><ellipse cx="1008.52" cy="266.8047" fill="#ADD1B2" rx="11" ry="11" style="stroke:#181818;stroke-width:1.0;"/><path d="M1011.2856,262.6797 Q1011.4419,262.4609 1011.6294,262.3516 Q1011.8169,262.2422 1012.0356,262.2422 Q1012.4106,262.2422 1012.645,262.5078 Q1012.8794,262.7578 1012.8794,263.3672 L1012.8794,264.8203 Q1012.8794,265.4297 1012.645,265.6953 Q1012.4106,265.9609 1012.0356,265.9609 Q1011.6919,265.9609 1011.4888,265.7578 Q1011.2856,265.5703 1011.1763,265.0547 Q1011.1294,264.6953 1010.9419,264.5078 Q1010.6138,264.1328 1010.0044,263.9141 Q1009.395,263.6953 1008.77,263.6953 Q1008.0044,263.6953 1007.3638,264.0234 Q1006.7388,264.3516 1006.2388,265.1016 Q1005.7544,265.8516 1005.7544,266.8828 L1005.7544,267.9766 Q1005.7544,269.2109 1006.645,270.0391 Q1007.5356,270.8516 1009.1294,270.8516 Q1010.0669,270.8516 1010.7231,270.6016 Q1011.1138,270.4453 1011.5356,270.0078 Q1011.8013,269.7422 1011.9419,269.6641 Q1012.0981,269.5859 1012.3013,269.5859 Q1012.6294,269.5859 1012.8794,269.8516 Q1013.145,270.1016 1013.145,270.4453 Q1013.145,270.7891 1012.8013,271.1953 Q1012.3013,271.7734 1011.5044,272.1016 Q1010.4263,272.5547 1009.1294,272.5547 Q1007.6138,272.5547 1006.4106,271.9297 Q1005.4263,271.4297 1004.7388,270.3672 Q1004.0513,269.2891 1004.0513,268.0078 L1004.0513,266.8516 Q1004.0513,265.5234 1004.6606,264.3828 Q1005.2856,263.2266 1006.3794,262.6172 Q1007.4731,261.9922 1008.7075,261.9922 Q1009.4419,261.9922 1010.0825,262.1641 Q1010.7388,262.3203 1011.2856,262.6797 Z " fill="#000000"/><text fill="#000000" font-family="sans-serif" font-size="12" font-style="italic" lengthAdjust="spacing" textLength="81" x="1020.52" y="262.4629">&#171;value object&#187;</text><text fill="#000000" font-family="sans-serif" font-size="14" lengthAdjust="spacing" textLength="40" x="1041.02" y="280.582">Grade</text><line style="stroke:#181818;stroke-width:0.5;" x1="994.52" x2="1101.52" y1="289.0957" y2="289.0957"/><line style="stroke:#181818;stroke-width:0.5;" x1="994.52" x2="1101.52" y1="297.0957" y2="297.0957"/></g><!--class ListUserService--><g id="elem_ListUserService"><rect fill="#F1F1F1" height="48" id="ListUserService" rx="2.5" ry="2.5" style="stroke:#181818;stroke-width:0.5;" width="130" x="1138.02" y="251.0137"/><ellipse cx="1153.02" cy="267.0137" fill="#ADD1B2" rx="11" ry="11" style="stroke:#181818;stroke-width:1.0;"/><path d="M1155.7856,262.8887 Q1155.9419,262.6699 1156.1294,262.5605 Q1156.3169,262.4512 1156.5356,262.4512 Q1156.9106,262.4512 1157.145,262.7168 Q1157.3794,262.9668 1157.3794,263.5762 L1157.3794,265.0293 Q1157.3794,265.6387 1157.145,265.9043 Q1156.9106,266.1699 1156.5356,266.1699 Q1156.1919,266.1699 1155.9888,265.9668 Q1155.7856,265.7793 1155.6763,265.2637 Q1155.6294,264.9043 1155.4419,264.7168 Q1155.1138,264.3418 1154.5044,264.123 Q1153.895,263.9043 1153.27,263.9043 Q1152.5044,263.9043 1151.8638,264.2324 Q1151.2388,264.5605 1150.7388,265.3105 Q1150.2544,266.0605 1150.2544,267.0918 L1150.2544,268.1855 Q1150.2544,269.4199 1151.145,270.248 Q1152.0356,271.0605 1153.6294,271.0605 Q1154.5669,271.0605 1155.2231,270.8105 Q1155.6138,270.6543 1156.0356,270.2168 Q1156.3013,269.9512 1156.4419,269.873 Q1156.5981,269.7949 1156.8013,269.7949 Q1157.1294,269.7949 1157.3794,270.0605 Q1157.645,270.3105 1157.645,270.6543 Q1157.645,270.998 1157.3013,271.4043 Q1156.8013,271.9824 1156.0044,272.3105 Q1154.9263,272.7637 1153.6294,272.7637 Q1152.1138,272.7637 1150.9106,272.1387 Q1149.9263,271.6387 1149.2388,270.5762 Q1148.5513,269.498 1148.5513,268.2168 L1148.5513,267.0605 Q1148.5513,265.7324 1149.1606,264.5918 Q1149.7856,263.4355 1150.8794,262.8262 Q1151.9731,262.2012 1153.2075,262.2012 Q1153.9419,262.2012 1154.5825,262.373 Q1155.2388,262.5293 1155.7856,262.8887 Z " fill="#000000"/><text fill="#000000" font-family="sans-serif" font-size="14" lengthAdjust="spacing" textLength="98" x="1167.02" y="272.8105">ListUserService</text><line style="stroke:#181818;stroke-width:0.5;" x1="1139.02" x2="1267.02" y1="283.0137" y2="283.0137"/><line style="stroke:#181818;stroke-width:0.5;" x1="1139.02" x2="1267.02" y1="291.0137" y2="291.0137"/></g><!--link SystemUser to EmailAdderss--><g id="link_SystemUser_EmailAdderss"><path codeLine="43" d="M152.93,332.1537 C167.67,353.9937 184.09,378.2937 196.99,397.4037 " fill="none" id="SystemUser-to-EmailAdderss" style="stroke:#181818;stroke-width:1.0;"/><polygon fill="#181818" points="199.85,401.6437,198.1244,391.9472,197.0502,397.5011,191.4963,396.4269,199.85,401.6437" style="stroke:#181818;stroke-width:1.0;"/><text fill="#000000" font-family="sans-serif" font-size="13" lengthAdjust="spacing" textLength="7" x="187.9681" y="390.625">1</text></g><!--link SystemUser to Password--><g id="link_SystemUser_Password"><path codeLine="44" d="M168.58,319.7937 C174.37,324.0637 180.25,328.2137 186.02,332.0137 C191.9,335.8937 258.4,371.9037 309.56,399.4937 " fill="none" id="SystemUser-to-Password" style="stroke:#181818;stroke-width:1.0;"/><polygon fill="#181818" points="314.15,401.9737,308.1252,394.1826,309.7486,399.6015,304.3296,401.2249,314.15,401.9737" style="stroke:#181818;stroke-width:1.0;"/><text fill="#000000" font-family="sans-serif" font-size="13" lengthAdjust="spacing" textLength="7" x="299.6713" y="394.0454">1</text></g><!--link SystemUser to Role--><g id="link_SystemUser_Role"><path codeLine="45" d="M100.58,332.1537 C95.87,350.4437 90.72,370.4637 86.29,387.7137 " fill="none" id="SystemUser-to-Role" style="stroke:#181818;stroke-width:1.0;"/><polygon fill="#181818" points="84.93,392.9737,91.063,385.2674,86.1863,388.1341,83.3197,383.2574,84.93,392.9737" style="stroke:#181818;stroke-width:1.0;"/><text fill="#000000" font-family="sans-serif" font-size="13" lengthAdjust="spacing" textLength="7" x="79.0317" y="381.7527">1</text></g><!--link eCourseSystemUser to SystemUser--><g id="link_eCourseSystemUser_SystemUser"><path codeLine="47" d="M457.2,119.7037 C383.67,138.2037 273.6,170.8837 186.02,218.0137 C181.67,220.3537 177.31,222.9737 173.01,225.7537 " fill="none" id="eCourseSystemUser-to-SystemUser" style="stroke:#181818;stroke-width:1.0;"/><polygon fill="#181818" points="168.74,228.5937,178.4499,226.9449,172.9046,225.8268,174.0228,220.2815,168.74,228.5937" style="stroke:#181818;stroke-width:1.0;"/><text fill="#000000" font-family="sans-serif" font-size="13" lengthAdjust="spacing" textLength="7" x="176.4289" y="218.2761">1</text></g><!--link eCourseSystemUser to Role--><g id="link_eCourseSystemUser_Role"><path codeLine="48" d="M457.46,108.5337 C330.8,121.4237 94.32,153.6637 44.02,218.0137 C6,266.6537 29.79,341.1737 51.56,388.0837 " fill="none" id="eCourseSystemUser-to-Role" style="stroke:#181818;stroke-width:1.0;"/><polygon fill="#181818" points="53.79,392.8137,53.5696,382.9673,51.6576,388.2912,46.3336,386.3792,53.79,392.8137" style="stroke:#181818;stroke-width:1.0;"/><text fill="#000000" font-family="sans-serif" font-size="13" lengthAdjust="spacing" textLength="7" x="42.6941" y="381.8661">1</text></g><!--link eCourseSystemUser to UserStatus--><g id="link_eCourseSystemUser_UserStatus"><path codeLine="49" d="M459.68,139.1137 C417.71,160.4037 365.78,188.6037 322.02,218.0137 C317.65,220.9537 313.22,224.1137 308.83,227.3837 " fill="none" id="eCourseSystemUser-to-UserStatus" style="stroke:#181818;stroke-width:1.0;"/><polygon fill="#181818" points="304.81,230.4237,314.4011,228.1853,308.798,227.4077,309.5755,221.8045,304.81,230.4237" style="stroke:#181818;stroke-width:1.0;"/><text fill="#000000" font-family="sans-serif" font-size="13" lengthAdjust="spacing" textLength="7" x="312.4445" y="220.019">1</text></g><!--link eCourseSystemUser to Acronym--><g id="link_eCourseSystemUser_Acronym"><path codeLine="50" d="M506.42,139.3737 C481.33,169.4337 446.55,211.0837 422.35,240.0737 " fill="none" id="eCourseSystemUser-to-Acronym" style="stroke:#181818;stroke-width:1.0;"/><polygon fill="#181818" points="418.86,244.2537,427.693,239.8972,422.0595,240.4114,421.5453,234.778,418.86,244.2537" style="stroke:#181818;stroke-width:1.0;"/><text fill="#000000" font-family="sans-serif" font-size="13" lengthAdjust="spacing" textLength="7" x="416.2614" y="233.2577">1</text></g><!--link eCourseSystemUser to NIF--><g id="link_eCourseSystemUser_NIF"><path codeLine="51" d="M538.02,139.3737 C538.02,169.0637 538.02,210.0637 538.02,238.9937 " fill="none" id="eCourseSystemUser-to-NIF" style="stroke:#181818;stroke-width:1.0;"/><polygon fill="#181818" points="538.02,244.2537,542.02,235.2537,538.02,239.2537,534.02,235.2537,538.02,244.2537" style="stroke:#181818;stroke-width:1.0;"/><text fill="#000000" font-family="sans-serif" font-size="13" lengthAdjust="spacing" textLength="7" x="530.2981" y="233.2577">1</text></g><!--link eCourseSystemUser to BirthDate--><g id="link_eCourseSystemUser_BirthDate"><path codeLine="52" d="M569.62,139.3737 C594.71,169.4337 629.49,211.0837 653.69,240.0737 " fill="none" id="eCourseSystemUser-to-BirthDate" style="stroke:#181818;stroke-width:1.0;"/><polygon fill="#181818" points="657.18,244.2537,654.4947,234.778,653.9805,240.4114,648.347,239.8972,657.18,244.2537" style="stroke:#181818;stroke-width:1.0;"/><text fill="#000000" font-family="sans-serif" font-size="13" lengthAdjust="spacing" textLength="7" x="644.3349" y="233.2577">1</text></g><!--link eCourseSystemUser to MechanographicNumber--><g id="link_eCourseSystemUser_MechanographicNumber"><path codeLine="53" d="M609.38,139.1537 C662.57,167.2137 735.08,205.4637 789.29,234.0637 " fill="none" id="eCourseSystemUser-to-MechanographicNumber" style="stroke:#181818;stroke-width:1.0;"/><polygon fill="#181818" points="793.81,236.4537,787.7159,228.7166,789.3876,234.1208,783.9834,235.7925,793.81,236.4537" style="stroke:#181818;stroke-width:1.0;"/><text fill="#000000" font-family="sans-serif" font-size="13" lengthAdjust="spacing" textLength="7" x="773.5023" y="225.1661">1</text></g><!--link eCourseSystemUser to Grade--><g id="link_eCourseSystemUser_Grade"><path codeLine="54" d="M618.57,112.9937 C709.13,128.1237 858.83,159.8837 976.02,218.0137 C988.4,224.1537 1000.71,232.6237 1011.56,241.1037 " fill="none" id="eCourseSystemUser-to-Grade" style="stroke:#181818;stroke-width:1.0;"/><polygon fill="#181818" points="1015.48,244.2337,1010.9431,235.492,1011.5729,241.1137,1005.9512,241.7434,1015.48,244.2337" style="stroke:#181818;stroke-width:1.0;"/><polygon fill="#000000" points="905.7738,180.2089,898.085,174.6113,896.2632,180.1997,905.7738,180.2089" style="stroke:#000000;stroke-width:1.0;"/><text fill="#000000" font-family="sans-serif" font-size="13" lengthAdjust="spacing" textLength="79" x="910.02" y="184.042">student has a</text><text fill="#000000" font-family="sans-serif" font-size="13" lengthAdjust="spacing" textLength="7" x="1001.0468" y="233.2336">1</text></g><!--link eCourseSystemUser to eCourseSystemUser--><g id="link_eCourseSystemUser_eCourseSystemUser"><path codeLine="56" d="M618.71,86.1037 C638.65,87.1437 653.52,91.9437 653.52,100.5137 C653.52,109.0837 638.65,113.8837 618.71,114.9237 " fill="none" id="eCourseSystemUser-eCourseSystemUser" style="stroke:#181818;stroke-width:1.0;"/><polygon fill="#000000" points="658.7804,105.6524,661.2442,96.4665,655.3744,96.7727,658.7804,105.6524" style="stroke:#000000;stroke-width:1.0;"/><text fill="#000000" font-family="sans-serif" font-size="13" lengthAdjust="spacing" textLength="53" x="672.52" y="106.042">manages</text><text fill="#000000" font-family="sans-serif" font-size="13" lengthAdjust="spacing" textLength="7" x="626.4713" y="81.0545">1</text><text fill="#000000" font-family="sans-serif" font-size="13" lengthAdjust="spacing" textLength="5" x="626.639" y="131.1713">*</text></g><!--link eCourseSystemUser to ListUserService--><g id="link_eCourseSystemUser_ListUserService"><path codeLine="58" d="M618.57,107.4637 C711.35,115.6637 867.74,133.6237 998.02,169.0137 C1054.01,184.2237 1067.73,190.8937 1119.02,218.0137 C1137.15,227.6037 1156.25,240.1237 1171.65,250.8937 " fill="none" id="eCourseSystemUser-ListUserService" style="stroke:#181818;stroke-width:1.0;"/><polygon fill="#000000" points="1065.8599,179.9143,1057.8422,174.7989,1056.3667,180.4886,1065.8599,179.9143" style="stroke:#000000;stroke-width:1.0;"/><text fill="#000000" font-family="sans-serif" font-size="13" lengthAdjust="spacing" textLength="21" x="1070.02" y="184.042">use</text><text fill="#000000" font-family="sans-serif" font-size="13" lengthAdjust="spacing" textLength="7" x="626.581" y="104.3799">1</text><text fill="#000000" font-family="sans-serif" font-size="13" lengthAdjust="spacing" textLength="5" x="1157.9708" y="239.6004">*</text></g><!--SRC=[XLHRI-Gm57xFhpZqHL2wWwz36HYrYg2ZJ9s5VJocXpQQIyr56PRzxwQpZhROYNa8v7oN7CwNzgZrldFpsQoJg7rGyXStQkRe9P3cbDS26ukAiGxvCpO4MNb-jrbNPVMdUYXlDrMvpg0ebarZgK5FYmNyPGpYuXATWshhFAcD8njPrXWV2KLHQY_yTiU5ZtKCArGqEFOQlI_z6thIkGdMqO_MtvMbGY6NTKqs7ehYDyf0O1wVY4VnaBWsaWxrMNahT0FJlVNjL1vzwFr91pKIdq2vMfxTb8F2nNNrMHavtSVjpTWw-hmUx7F9hT5RbUIihY-J-9cmlhs8sILPjyHRr2O-XguLV1NKusxkOq4iOF16eHSSfTn2GvfijAx7PbSMwwdhuW0OErgJZ0P6krPqZh51pdc-WEmq6-KuXUzdDuNrqJBs_GtjyQzIWhGpEGn_lO84wIEx12Ccbq0_Sqjmfb9BqF_dCWVdGqtQGuiE41PJu-hfUGxPSJRnFSv1eOv_2_UZzaOulviMsLV1-xk3erx5tW40]--></g></svg>