<?xml version="1.0" encoding="us-ascii" standalone="no"?><svg xmlns="http://www.w3.org/2000/svg" xmlns:xlink="http://www.w3.org/1999/xlink" contentStyleType="text/css" height="1387px" preserveAspectRatio="none" style="width:2290px;height:1387px;background:#FFFFFF;" version="1.1" viewBox="0 0 2290 1387" width="2290px" zoomAndPan="magnify"><defs/><g><rect fill="#FFFFFF" height="1157.3887" style="stroke:#181818;stroke-width:1.0;" width="10" x="31" y="121.5332"/><rect fill="#FFFFFF" height="187.7461" style="stroke:#181818;stroke-width:1.0;" width="10" x="447" y="121.5332"/><rect fill="#FFFFFF" height="31.291" style="stroke:#181818;stroke-width:1.0;" width="10" x="447" y="340.5703"/><rect fill="#FFFFFF" height="634.7324" style="stroke:#181818;stroke-width:1.0;" width="10" x="447" y="403.1523"/><rect fill="#FFFFFF" height="200.7461" style="stroke:#181818;stroke-width:1.0;" width="10" x="447" y="1069.1758"/><rect fill="#FFFFFF" height="125.1641" style="stroke:#181818;stroke-width:1.0;" width="10" x="861" y="152.8242"/><rect fill="#FFFFFF" height="74.9121" style="stroke:#181818;stroke-width:1.0;" width="10" x="861" y="465.7344"/><rect fill="#FFFFFF" height="434.6563" style="stroke:#181818;stroke-width:1.0;" width="10" x="861" y="571.9375"/><rect fill="#FFFFFF" height="138.1641" style="stroke:#181818;stroke-width:1.0;" width="10" x="861" y="1100.4668"/><rect fill="#FFFFFF" height="31.291" style="stroke:#181818;stroke-width:1.0;" width="10" x="1091" y="215.4063"/><rect fill="#FFFFFF" height="75.582" style="stroke:#181818;stroke-width:1.0;" width="10" x="1286" y="1131.7578"/><rect fill="#FFFFFF" height="38.582" style="stroke:#181818;stroke-width:1.0;" width="10" x="1569" y="667.8105"/><rect fill="#FFFFFF" height="38.582" style="stroke:#181818;stroke-width:1.0;" width="10" x="1714" y="802.2656"/><rect fill="#FFFFFF" height="38.582" style="stroke:#181818;stroke-width:1.0;" width="10" x="1863.5" y="936.7207"/><line style="stroke:#181818;stroke-width:0.5;stroke-dasharray:5.0,5.0;" x1="36" x2="36" y1="88.2422" y2="1287.9219"/><line style="stroke:#181818;stroke-width:0.5;stroke-dasharray:5.0,5.0;" x1="452" x2="452" y1="88.2422" y2="1287.9219"/><line style="stroke:#181818;stroke-width:0.5;stroke-dasharray:5.0,5.0;" x1="866" x2="866" y1="88.2422" y2="1287.9219"/><line style="stroke:#181818;stroke-width:0.5;stroke-dasharray:5.0,5.0;" x1="1095.5" x2="1095.5" y1="88.2422" y2="1287.9219"/><line style="stroke:#181818;stroke-width:0.5;stroke-dasharray:5.0,5.0;" x1="1166.5" x2="1166.5" y1="505.5449" y2="1287.9219"/><line style="stroke:#181818;stroke-width:0.5;stroke-dasharray:5.0,5.0;" x1="1290.5" x2="1290.5" y1="88.2422" y2="1287.9219"/><line style="stroke:#181818;stroke-width:0.5;stroke-dasharray:5.0,5.0;" x1="1436.5" x2="1436.5" y1="88.2422" y2="1287.9219"/><line style="stroke:#181818;stroke-width:0.5;stroke-dasharray:5.0,5.0;" x1="1573.5" x2="1573.5" y1="651.5195" y2="1287.9219"/><line style="stroke:#181818;stroke-width:0.5;stroke-dasharray:5.0,5.0;" x1="1718.5" x2="1718.5" y1="785.9746" y2="1287.9219"/><line style="stroke:#181818;stroke-width:0.5;stroke-dasharray:5.0,5.0;" x1="1868.5" x2="1868.5" y1="920.4297" y2="1287.9219"/><line style="stroke:#181818;stroke-width:0.5;stroke-dasharray:5.0,5.0;" x1="2000" x2="2000" y1="700.1016" y2="1287.9219"/><line style="stroke:#181818;stroke-width:0.5;stroke-dasharray:5.0,5.0;" x1="2119" x2="2119" y1="834.5566" y2="1287.9219"/><line style="stroke:#181818;stroke-width:0.5;stroke-dasharray:5.0,5.0;" x1="2231" x2="2231" y1="969.0117" y2="1287.9219"/><text fill="#000000" font-family="sans-serif" font-size="14" lengthAdjust="spacing" textLength="56" x="5" y="84.7285">Manager</text><ellipse cx="36" cy="18.1211" fill="#E2E2F0" rx="8" ry="8" style="stroke:#181818;stroke-width:0.5;"/><path d="M36,26.1211 L36,53.1211 M23,34.1211 L49,34.1211 M36,53.1211 L23,68.1211 M36,53.1211 L49,68.1211 " fill="none" style="stroke:#181818;stroke-width:0.5;"/><text fill="#000000" font-family="sans-serif" font-size="14" lengthAdjust="spacing" textLength="56" x="5" y="1302.0293">Manager</text><ellipse cx="36" cy="1314.043" fill="#E2E2F0" rx="8" ry="8" style="stroke:#181818;stroke-width:0.5;"/><path d="M36,1322.043 L36,1349.043 M23,1330.043 L49,1330.043 M36,1349.043 L23,1364.043 M36,1349.043 L49,1364.043 " fill="none" style="stroke:#181818;stroke-width:0.5;"/><rect fill="#E2E2F0" height="32.6211" rx="2.5" ry="2.5" style="stroke:#181818;stroke-width:0.5;" width="138" x="383" y="54.6211"/><text fill="#000000" font-family="sans-serif" font-size="14" lengthAdjust="spacing" textLength="124" x="390" y="76.7285">:RegisterNewUserUI</text><rect fill="#E2E2F0" height="32.6211" rx="2.5" ry="2.5" style="stroke:#181818;stroke-width:0.5;" width="138" x="383" y="1286.9219"/><text fill="#000000" font-family="sans-serif" font-size="14" lengthAdjust="spacing" textLength="124" x="390" y="1309.0293">:RegisterNewUserUI</text><rect fill="#E2E2F0" height="32.6211" rx="2.5" ry="2.5" style="stroke:#181818;stroke-width:0.5;" width="188" x="772" y="54.6211"/><text fill="#000000" font-family="sans-serif" font-size="14" lengthAdjust="spacing" textLength="174" x="779" y="76.7285">:RegisterNewUserController</text><rect fill="#E2E2F0" height="32.6211" rx="2.5" ry="2.5" style="stroke:#181818;stroke-width:0.5;" width="188" x="772" y="1286.9219"/><text fill="#000000" font-family="sans-serif" font-size="14" lengthAdjust="spacing" textLength="174" x="779" y="1309.0293">:RegisterNewUserController</text><rect fill="#E2E2F0" height="32.6211" rx="2.5" ry="2.5" style="stroke:#181818;stroke-width:0.5;" width="43" x="1074.5" y="54.6211"/><text fill="#000000" font-family="sans-serif" font-size="14" lengthAdjust="spacing" textLength="29" x="1081.5" y="76.7285">Role</text><rect fill="#E2E2F0" height="32.6211" rx="2.5" ry="2.5" style="stroke:#181818;stroke-width:0.5;" width="43" x="1074.5" y="1286.9219"/><text fill="#000000" font-family="sans-serif" font-size="14" lengthAdjust="spacing" textLength="29" x="1081.5" y="1309.0293">Role</text><rect fill="#E2E2F0" height="32.6211" rx="2.5" ry="2.5" style="stroke:#181818;stroke-width:0.5;" width="79" x="1127.5" y="1286.9219"/><text fill="#000000" font-family="sans-serif" font-size="14" lengthAdjust="spacing" textLength="65" x="1134.5" y="1309.0293">:Password</text><text fill="#000000" font-family="sans-serif" font-size="14" font-style="italic" lengthAdjust="spacing" textLength="79" x="1248.5" y="66.1074">&#171;repository&#187;</text><text fill="#000000" font-family="sans-serif" font-size="14" lengthAdjust="spacing" textLength="143" x="1216.5" y="84.7285">eCourseUserRepsitory</text><path d="M1273,15 C1273,5 1291,5 1291,5 C1291,5 1309,5 1309,15 L1309,41 C1309,51 1291,51 1291,51 C1291,51 1273,51 1273,41 L1273,15 " fill="#E2E2F0" style="stroke:#181818;stroke-width:1.5;"/><path d="M1273,15 C1273,25 1291,25 1291,25 C1291,25 1309,25 1309,15 " fill="none" style="stroke:#181818;stroke-width:1.5;"/><text fill="#000000" font-family="sans-serif" font-size="14" font-style="italic" lengthAdjust="spacing" textLength="79" x="1248.5" y="1302.0293">&#171;repository&#187;</text><text fill="#000000" font-family="sans-serif" font-size="14" lengthAdjust="spacing" textLength="143" x="1216.5" y="1320.6504">eCourseUserRepsitory</text><path d="M1273,1334.1641 C1273,1324.1641 1291,1324.1641 1291,1324.1641 C1291,1324.1641 1309,1324.1641 1309,1334.1641 L1309,1360.1641 C1309,1370.1641 1291,1370.1641 1291,1370.1641 C1291,1370.1641 1273,1370.1641 1273,1360.1641 L1273,1334.1641 " fill="#E2E2F0" style="stroke:#181818;stroke-width:1.5;"/><path d="M1273,1334.1641 C1273,1344.1641 1291,1344.1641 1291,1344.1641 C1291,1344.1641 1309,1344.1641 1309,1334.1641 " fill="none" style="stroke:#181818;stroke-width:1.5;"/><text fill="#000000" font-family="sans-serif" font-size="14" font-style="italic" lengthAdjust="spacing" textLength="79" x="1394" y="66.1074">&#171;repository&#187;</text><text fill="#000000" font-family="sans-serif" font-size="14" lengthAdjust="spacing" textLength="116" x="1375.5" y="84.7285">RepositoryFactory</text><path d="M1418.5,15 C1418.5,5 1436.5,5 1436.5,5 C1436.5,5 1454.5,5 1454.5,15 L1454.5,41 C1454.5,51 1436.5,51 1436.5,51 C1436.5,51 1418.5,51 1418.5,41 L1418.5,15 " fill="#E2E2F0" style="stroke:#181818;stroke-width:1.5;"/><path d="M1418.5,15 C1418.5,25 1436.5,25 1436.5,25 C1436.5,25 1454.5,25 1454.5,15 " fill="none" style="stroke:#181818;stroke-width:1.5;"/><text fill="#000000" font-family="sans-serif" font-size="14" font-style="italic" lengthAdjust="spacing" textLength="79" x="1394" y="1302.0293">&#171;repository&#187;</text><text fill="#000000" font-family="sans-serif" font-size="14" lengthAdjust="spacing" textLength="116" x="1375.5" y="1320.6504">RepositoryFactory</text><path d="M1418.5,1334.1641 C1418.5,1324.1641 1436.5,1324.1641 1436.5,1324.1641 C1436.5,1324.1641 1454.5,1324.1641 1454.5,1334.1641 L1454.5,1360.1641 C1454.5,1370.1641 1436.5,1370.1641 1436.5,1370.1641 C1436.5,1370.1641 1418.5,1370.1641 1418.5,1360.1641 L1418.5,1334.1641 " fill="#E2E2F0" style="stroke:#181818;stroke-width:1.5;"/><path d="M1418.5,1334.1641 C1418.5,1344.1641 1436.5,1344.1641 1436.5,1344.1641 C1436.5,1344.1641 1454.5,1344.1641 1454.5,1334.1641 " fill="none" style="stroke:#181818;stroke-width:1.5;"/><rect fill="#E2E2F0" height="32.6211" rx="2.5" ry="2.5" style="stroke:#181818;stroke-width:0.5;" width="133" x="1507.5" y="1286.9219"/><text fill="#000000" font-family="sans-serif" font-size="14" lengthAdjust="spacing" textLength="119" x="1514.5" y="1309.0293">SB: StudentBuilder</text><rect fill="#E2E2F0" height="32.6211" rx="2.5" ry="2.5" style="stroke:#181818;stroke-width:0.5;" width="137" x="1650.5" y="1286.9219"/><text fill="#000000" font-family="sans-serif" font-size="14" lengthAdjust="spacing" textLength="123" x="1657.5" y="1309.0293">TB: TeacherBuilder</text><rect fill="#E2E2F0" height="32.6211" rx="2.5" ry="2.5" style="stroke:#181818;stroke-width:0.5;" width="142" x="1797.5" y="1286.9219"/><text fill="#000000" font-family="sans-serif" font-size="14" lengthAdjust="spacing" textLength="128" x="1804.5" y="1309.0293">MB: ManagerBuilder</text><rect fill="#E2E2F0" height="32.6211" rx="2.5" ry="2.5" style="stroke:#181818;stroke-width:0.5;" width="92" x="1954" y="1286.9219"/><text fill="#000000" font-family="sans-serif" font-size="14" lengthAdjust="spacing" textLength="78" x="1961" y="1309.0293">Stu: Student</text><rect fill="#E2E2F0" height="32.6211" rx="2.5" ry="2.5" style="stroke:#181818;stroke-width:0.5;" width="99" x="2070" y="1286.9219"/><text fill="#000000" font-family="sans-serif" font-size="14" lengthAdjust="spacing" textLength="85" x="2077" y="1309.0293">Tch: Teacher</text><rect fill="#E2E2F0" height="32.6211" rx="2.5" ry="2.5" style="stroke:#181818;stroke-width:0.5;" width="105" x="2179" y="1286.9219"/><text fill="#000000" font-family="sans-serif" font-size="14" lengthAdjust="spacing" textLength="91" x="2186" y="1309.0293">Mng: Manager</text><rect fill="#FFFFFF" height="1157.3887" style="stroke:#181818;stroke-width:1.0;" width="10" x="31" y="121.5332"/><rect fill="#FFFFFF" height="187.7461" style="stroke:#181818;stroke-width:1.0;" width="10" x="447" y="121.5332"/><rect fill="#FFFFFF" height="31.291" style="stroke:#181818;stroke-width:1.0;" width="10" x="447" y="340.5703"/><rect fill="#FFFFFF" height="634.7324" style="stroke:#181818;stroke-width:1.0;" width="10" x="447" y="403.1523"/><rect fill="#FFFFFF" height="200.7461" style="stroke:#181818;stroke-width:1.0;" width="10" x="447" y="1069.1758"/><rect fill="#FFFFFF" height="125.1641" style="stroke:#181818;stroke-width:1.0;" width="10" x="861" y="152.8242"/><rect fill="#FFFFFF" height="74.9121" style="stroke:#181818;stroke-width:1.0;" width="10" x="861" y="465.7344"/><rect fill="#FFFFFF" height="434.6563" style="stroke:#181818;stroke-width:1.0;" width="10" x="861" y="571.9375"/><rect fill="#FFFFFF" height="138.1641" style="stroke:#181818;stroke-width:1.0;" width="10" x="861" y="1100.4668"/><rect fill="#FFFFFF" height="31.291" style="stroke:#181818;stroke-width:1.0;" width="10" x="1091" y="215.4063"/><rect fill="#FFFFFF" height="75.582" style="stroke:#181818;stroke-width:1.0;" width="10" x="1286" y="1131.7578"/><rect fill="#FFFFFF" height="38.582" style="stroke:#181818;stroke-width:1.0;" width="10" x="1569" y="667.8105"/><rect fill="#FFFFFF" height="38.582" style="stroke:#181818;stroke-width:1.0;" width="10" x="1714" y="802.2656"/><rect fill="#FFFFFF" height="38.582" style="stroke:#181818;stroke-width:1.0;" width="10" x="1863.5" y="936.7207"/><polygon fill="#181818" points="435,117.5332,445,121.5332,435,125.5332,439,121.5332" style="stroke:#181818;stroke-width:1.0;"/><line style="stroke:#181818;stroke-width:1.0;" x1="41" x2="441" y1="121.5332" y2="121.5332"/><text fill="#000000" font-family="sans-serif" font-size="13" font-weight="bold" lengthAdjust="spacing" textLength="7" x="48" y="116.2705">1</text><text fill="#000000" font-family="sans-serif" font-size="13" lengthAdjust="spacing" textLength="168" x="59" y="116.2705">Starts registering a new User</text><polygon fill="#181818" points="849,148.8242,859,152.8242,849,156.8242,853,152.8242" style="stroke:#181818;stroke-width:1.0;"/><line style="stroke:#181818;stroke-width:1.0;" x1="457" x2="855" y1="152.8242" y2="152.8242"/><text fill="#000000" font-family="sans-serif" font-size="13" font-weight="bold" lengthAdjust="spacing" textLength="7" x="464" y="147.5615">2</text><text fill="#000000" font-family="sans-serif" font-size="13" lengthAdjust="spacing" textLength="59" x="475" y="147.5615">getRoles()</text><polygon fill="#181818" points="1424.5,180.1152,1434.5,184.1152,1424.5,188.1152,1428.5,184.1152" style="stroke:#181818;stroke-width:1.0;"/><line style="stroke:#181818;stroke-width:1.0;" x1="871" x2="1430.5" y1="184.1152" y2="184.1152"/><text fill="#000000" font-family="sans-serif" font-size="13" font-weight="bold" lengthAdjust="spacing" textLength="7" x="878" y="178.8525">3</text><text fill="#000000" font-family="sans-serif" font-size="13" lengthAdjust="spacing" textLength="4" x="889" y="178.8525">&#160;</text><polygon fill="#181818" points="1079,211.4063,1089,215.4063,1079,219.4063,1083,215.4063" style="stroke:#181818;stroke-width:1.0;"/><line style="stroke:#181818;stroke-width:1.0;" x1="871" x2="1085" y1="215.4063" y2="215.4063"/><text fill="#000000" font-family="sans-serif" font-size="13" font-weight="bold" lengthAdjust="spacing" textLength="7" x="878" y="210.1436">4</text><text fill="#000000" font-family="sans-serif" font-size="13" lengthAdjust="spacing" textLength="190" x="889" y="210.1436">List&lt;Role&gt; Roles = getAllRoles()</text><polygon fill="#181818" points="882,242.6973,872,246.6973,882,250.6973,878,246.6973" style="stroke:#181818;stroke-width:1.0;"/><line style="stroke:#181818;stroke-width:1.0;stroke-dasharray:2.0,2.0;" x1="876" x2="1095" y1="246.6973" y2="246.6973"/><text fill="#000000" font-family="sans-serif" font-size="13" font-weight="bold" lengthAdjust="spacing" textLength="7" x="888" y="241.4346">5</text><text fill="#000000" font-family="sans-serif" font-size="13" lengthAdjust="spacing" textLength="33" x="899" y="241.4346">Roles</text><polygon fill="#181818" points="468,273.9883,458,277.9883,468,281.9883,464,277.9883" style="stroke:#181818;stroke-width:1.0;"/><line style="stroke:#181818;stroke-width:1.0;stroke-dasharray:2.0,2.0;" x1="462" x2="865" y1="277.9883" y2="277.9883"/><text fill="#000000" font-family="sans-serif" font-size="13" font-weight="bold" lengthAdjust="spacing" textLength="7" x="474" y="272.7256">6</text><text fill="#000000" font-family="sans-serif" font-size="13" lengthAdjust="spacing" textLength="46" x="485" y="272.7256">RoleDto</text><polygon fill="#181818" points="52,305.2793,42,309.2793,52,313.2793,48,309.2793" style="stroke:#181818;stroke-width:1.0;"/><line style="stroke:#181818;stroke-width:1.0;stroke-dasharray:2.0,2.0;" x1="46" x2="451" y1="309.2793" y2="309.2793"/><text fill="#000000" font-family="sans-serif" font-size="13" font-weight="bold" lengthAdjust="spacing" textLength="7" x="58" y="304.0166">7</text><text fill="#000000" font-family="sans-serif" font-size="13" lengthAdjust="spacing" textLength="278" x="69" y="304.0166">Shows User roles and asks to select a user role</text><polygon fill="#181818" points="435,336.5703,445,340.5703,435,344.5703,439,340.5703" style="stroke:#181818;stroke-width:1.0;"/><line style="stroke:#181818;stroke-width:1.0;" x1="41" x2="441" y1="340.5703" y2="340.5703"/><text fill="#000000" font-family="sans-serif" font-size="13" font-weight="bold" lengthAdjust="spacing" textLength="7" x="48" y="335.3076">8</text><text fill="#000000" font-family="sans-serif" font-size="13" lengthAdjust="spacing" textLength="142" x="59" y="335.3076">selects the intended role</text><polygon fill="#181818" points="52,367.8613,42,371.8613,52,375.8613,48,371.8613" style="stroke:#181818;stroke-width:1.0;"/><line style="stroke:#181818;stroke-width:1.0;stroke-dasharray:2.0,2.0;" x1="46" x2="451" y1="371.8613" y2="371.8613"/><text fill="#000000" font-family="sans-serif" font-size="13" font-weight="bold" lengthAdjust="spacing" textLength="7" x="58" y="366.5986">9</text><text fill="#000000" font-family="sans-serif" font-size="13" lengthAdjust="spacing" textLength="371" x="69" y="366.5986">requests user's data (name, address, contact, citizenNumber,id)</text><polygon fill="#181818" points="435,399.1523,445,403.1523,435,407.1523,439,403.1523" style="stroke:#181818;stroke-width:1.0;"/><line style="stroke:#181818;stroke-width:1.0;" x1="41" x2="441" y1="403.1523" y2="403.1523"/><text fill="#000000" font-family="sans-serif" font-size="13" font-weight="bold" lengthAdjust="spacing" textLength="14" x="48" y="397.8896">10</text><text fill="#000000" font-family="sans-serif" font-size="13" lengthAdjust="spacing" textLength="122" x="66" y="397.8896">types requested data</text><polygon fill="#181818" points="52,430.4434,42,434.4434,52,438.4434,48,434.4434" style="stroke:#181818;stroke-width:1.0;"/><line style="stroke:#181818;stroke-width:1.0;stroke-dasharray:2.0,2.0;" x1="46" x2="446" y1="434.4434" y2="434.4434"/><text fill="#000000" font-family="sans-serif" font-size="13" font-weight="bold" lengthAdjust="spacing" textLength="14" x="58" y="429.1807">11</text><text fill="#000000" font-family="sans-serif" font-size="13" lengthAdjust="spacing" textLength="111" x="76" y="429.1807">asks the Password</text><polygon fill="#181818" points="849,461.7344,859,465.7344,849,469.7344,853,465.7344" style="stroke:#181818;stroke-width:1.0;"/><line style="stroke:#181818;stroke-width:1.0;" x1="457" x2="855" y1="465.7344" y2="465.7344"/><text fill="#000000" font-family="sans-serif" font-size="13" font-weight="bold" lengthAdjust="spacing" textLength="14" x="464" y="460.4717">12</text><text fill="#000000" font-family="sans-serif" font-size="13" lengthAdjust="spacing" textLength="157" x="482" y="460.4717">pass = PasswordCreation()</text><polygon fill="#181818" points="1115.5,493.0254,1125.5,497.0254,1115.5,501.0254,1119.5,497.0254" style="stroke:#181818;stroke-width:1.0;"/><line style="stroke:#181818;stroke-width:1.0;" x1="871" x2="1121.5" y1="497.0254" y2="497.0254"/><text fill="#000000" font-family="sans-serif" font-size="13" font-weight="bold" lengthAdjust="spacing" textLength="14" x="878" y="491.7627">13</text><text fill="#000000" font-family="sans-serif" font-size="13" lengthAdjust="spacing" textLength="113" x="896" y="491.7627">PasswordCreation()</text><rect fill="#E2E2F0" height="32.6211" rx="2.5" ry="2.5" style="stroke:#181818;stroke-width:0.5;" width="79" x="1127.5" y="473.7344"/><text fill="#000000" font-family="sans-serif" font-size="14" lengthAdjust="spacing" textLength="65" x="1134.5" y="495.8418">:Password</text><polygon fill="#181818" points="468,536.6465,458,540.6465,468,544.6465,464,540.6465" style="stroke:#181818;stroke-width:1.0;"/><line style="stroke:#181818;stroke-width:1.0;stroke-dasharray:2.0,2.0;" x1="462" x2="865" y1="540.6465" y2="540.6465"/><text fill="#000000" font-family="sans-serif" font-size="13" font-weight="bold" lengthAdjust="spacing" textLength="14" x="474" y="535.3838">14</text><text fill="#000000" font-family="sans-serif" font-size="13" lengthAdjust="spacing" textLength="28" x="492" y="535.3838">pass</text><polygon fill="#181818" points="849,567.9375,859,571.9375,849,575.9375,853,571.9375" style="stroke:#181818;stroke-width:1.0;"/><line style="stroke:#181818;stroke-width:1.0;" x1="457" x2="855" y1="571.9375" y2="571.9375"/><text fill="#000000" font-family="sans-serif" font-size="13" font-weight="bold" lengthAdjust="spacing" textLength="14" x="464" y="566.6748">15</text><text fill="#000000" font-family="sans-serif" font-size="13" lengthAdjust="spacing" textLength="367" x="482" y="566.6748">createUser(fullName, shortName, role, email, password, status)</text><path d="M810,584.9375 L810,611.9375 L921,611.9375 L921,594.9375 L911,584.9375 L810,584.9375 " fill="#FEFFDD" style="stroke:#181818;stroke-width:0.5;"/><path d="M911,584.9375 L911,594.9375 L921,594.9375 L911,584.9375 " fill="#FEFFDD" style="stroke:#181818;stroke-width:0.5;"/><text fill="#000000" font-family="sans-serif" font-size="13" lengthAdjust="spacing" textLength="90" x="816" y="603.9658">if it&#180;s a student:</text><polygon fill="#181818" points="1495.5,653.8105,1505.5,657.8105,1495.5,661.8105,1499.5,657.8105" style="stroke:#181818;stroke-width:1.0;"/><line style="stroke:#181818;stroke-width:1.0;" x1="871" x2="1501.5" y1="657.8105" y2="657.8105"/><text fill="#000000" font-family="sans-serif" font-size="13" font-weight="bold" lengthAdjust="spacing" textLength="14" x="878" y="643.9023">16</text><text fill="#000000" font-family="sans-serif" font-size="13" lengthAdjust="spacing" textLength="383" x="896" y="635.2568">createStudent(name, grade, mecanographicNumber, nif, birthDate,</text><text fill="#000000" font-family="sans-serif" font-size="13" lengthAdjust="spacing" textLength="300" x="900" y="652.5479">fullName, shortName, role, email, password, status)</text><rect fill="#E2E2F0" height="32.6211" rx="2.5" ry="2.5" style="stroke:#181818;stroke-width:0.5;" width="133" x="1507.5" y="622.1895"/><text fill="#000000" font-family="sans-serif" font-size="14" lengthAdjust="spacing" textLength="119" x="1514.5" y="644.2969">SB: StudentBuilder</text><polygon fill="#181818" points="1942,702.3926,1952,706.3926,1942,710.3926,1946,706.3926" style="stroke:#181818;stroke-width:1.0;"/><line style="stroke:#181818;stroke-width:1.0;" x1="1574" x2="1948" y1="706.3926" y2="706.3926"/><text fill="#000000" font-family="sans-serif" font-size="13" font-weight="bold" lengthAdjust="spacing" textLength="14" x="1581" y="692.4844">17</text><text fill="#000000" font-family="sans-serif" font-size="13" lengthAdjust="spacing" textLength="329" x="1599" y="683.8389">build(name, grade, mecanographicNumber, nif, birthDate,</text><text fill="#000000" font-family="sans-serif" font-size="13" lengthAdjust="spacing" textLength="300" x="1603" y="701.1299">fullName, shortName, role, email, password, status)</text><rect fill="#E2E2F0" height="32.6211" rx="2.5" ry="2.5" style="stroke:#181818;stroke-width:0.5;" width="92" x="1954" y="670.7715"/><text fill="#000000" font-family="sans-serif" font-size="14" lengthAdjust="spacing" textLength="78" x="1961" y="692.8789">Stu: Student</text><path d="M810,719.3926 L810,746.3926 L921,746.3926 L921,729.3926 L911,719.3926 L810,719.3926 " fill="#FEFFDD" style="stroke:#181818;stroke-width:0.5;"/><path d="M911,719.3926 L911,729.3926 L921,729.3926 L911,719.3926 " fill="#FEFFDD" style="stroke:#181818;stroke-width:0.5;"/><text fill="#000000" font-family="sans-serif" font-size="13" lengthAdjust="spacing" textLength="90" x="816" y="738.4209">if it&#180;s a teacher:</text><polygon fill="#181818" points="1638.5,788.2656,1648.5,792.2656,1638.5,796.2656,1642.5,792.2656" style="stroke:#181818;stroke-width:1.0;"/><line style="stroke:#181818;stroke-width:1.0;" x1="871" x2="1644.5" y1="792.2656" y2="792.2656"/><text fill="#000000" font-family="sans-serif" font-size="13" font-weight="bold" lengthAdjust="spacing" textLength="14" x="878" y="778.3574">18</text><text fill="#000000" font-family="sans-serif" font-size="13" lengthAdjust="spacing" textLength="261" x="896" y="769.7119">createTeacher(name, acronym, nif, birthDate,</text><text fill="#000000" font-family="sans-serif" font-size="13" lengthAdjust="spacing" textLength="300" x="900" y="787.0029">fullName, shortName, role, email, password, status)</text><rect fill="#E2E2F0" height="32.6211" rx="2.5" ry="2.5" style="stroke:#181818;stroke-width:0.5;" width="137" x="1650.5" y="756.6445"/><text fill="#000000" font-family="sans-serif" font-size="14" lengthAdjust="spacing" textLength="123" x="1657.5" y="778.752">TB: TeacherBuilder</text><polygon fill="#181818" points="2058,836.8477,2068,840.8477,2058,844.8477,2062,840.8477" style="stroke:#181818;stroke-width:1.0;"/><line style="stroke:#181818;stroke-width:1.0;" x1="1719" x2="2064" y1="840.8477" y2="840.8477"/><text fill="#000000" font-family="sans-serif" font-size="13" font-weight="bold" lengthAdjust="spacing" textLength="14" x="1726" y="826.9395">19</text><text fill="#000000" font-family="sans-serif" font-size="13" lengthAdjust="spacing" textLength="206" x="1744" y="818.2939">build(name, acronym, nif, birthDate,</text><text fill="#000000" font-family="sans-serif" font-size="13" lengthAdjust="spacing" textLength="300" x="1748" y="835.585">fullName, shortName, role, email, password, status)</text><rect fill="#E2E2F0" height="32.6211" rx="2.5" ry="2.5" style="stroke:#181818;stroke-width:0.5;" width="99" x="2070" y="805.2266"/><text fill="#000000" font-family="sans-serif" font-size="14" lengthAdjust="spacing" textLength="85" x="2077" y="827.334">Tch: Teacher</text><path d="M807,853.8477 L807,880.8477 L925,880.8477 L925,863.8477 L915,853.8477 L807,853.8477 " fill="#FEFFDD" style="stroke:#181818;stroke-width:0.5;"/><path d="M915,853.8477 L915,863.8477 L925,863.8477 L915,853.8477 " fill="#FEFFDD" style="stroke:#181818;stroke-width:0.5;"/><text fill="#000000" font-family="sans-serif" font-size="13" lengthAdjust="spacing" textLength="97" x="813" y="872.876">if it&#180;s a manager:</text><polygon fill="#181818" points="1785.5,922.7207,1795.5,926.7207,1785.5,930.7207,1789.5,926.7207" style="stroke:#181818;stroke-width:1.0;"/><line style="stroke:#181818;stroke-width:1.0;" x1="871" x2="1791.5" y1="926.7207" y2="926.7207"/><text fill="#000000" font-family="sans-serif" font-size="13" font-weight="bold" lengthAdjust="spacing" textLength="14" x="878" y="912.8125">20</text><text fill="#000000" font-family="sans-serif" font-size="13" lengthAdjust="spacing" textLength="255" x="896" y="904.167">createManager(name, fullName, shortName,</text><text fill="#000000" font-family="sans-serif" font-size="13" lengthAdjust="spacing" textLength="171" x="900" y="921.458">role, email, password, status)</text><rect fill="#E2E2F0" height="32.6211" rx="2.5" ry="2.5" style="stroke:#181818;stroke-width:0.5;" width="142" x="1797.5" y="891.0996"/><text fill="#000000" font-family="sans-serif" font-size="14" lengthAdjust="spacing" textLength="128" x="1804.5" y="913.207">MB: ManagerBuilder</text><polygon fill="#181818" points="2167,971.3027,2177,975.3027,2167,979.3027,2171,975.3027" style="stroke:#181818;stroke-width:1.0;"/><line style="stroke:#181818;stroke-width:1.0;" x1="1868.5" x2="2173" y1="975.3027" y2="975.3027"/><text fill="#000000" font-family="sans-serif" font-size="13" font-weight="bold" lengthAdjust="spacing" textLength="14" x="1875.5" y="961.3945">21</text><text fill="#000000" font-family="sans-serif" font-size="13" lengthAdjust="spacing" textLength="196" x="1893.5" y="952.749">build(name, fullName, shortName,</text><text fill="#000000" font-family="sans-serif" font-size="13" lengthAdjust="spacing" textLength="171" x="1897.5" y="970.04">role, email, password, status)</text><rect fill="#E2E2F0" height="32.6211" rx="2.5" ry="2.5" style="stroke:#181818;stroke-width:0.5;" width="105" x="2179" y="939.6816"/><text fill="#000000" font-family="sans-serif" font-size="14" lengthAdjust="spacing" textLength="91" x="2186" y="961.7891">Mng: Manager</text><polygon fill="#181818" points="468,1002.5938,458,1006.5938,468,1010.5938,464,1006.5938" style="stroke:#181818;stroke-width:1.0;"/><line style="stroke:#181818;stroke-width:1.0;stroke-dasharray:2.0,2.0;" x1="462" x2="865" y1="1006.5938" y2="1006.5938"/><text fill="#000000" font-family="sans-serif" font-size="13" font-weight="bold" lengthAdjust="spacing" textLength="14" x="474" y="1001.3311">22</text><text fill="#000000" font-family="sans-serif" font-size="13" lengthAdjust="spacing" textLength="27" x="492" y="1001.3311">User</text><polygon fill="#181818" points="52,1033.8848,42,1037.8848,52,1041.8848,48,1037.8848" style="stroke:#181818;stroke-width:1.0;"/><line style="stroke:#181818;stroke-width:1.0;stroke-dasharray:2.0,2.0;" x1="46" x2="451" y1="1037.8848" y2="1037.8848"/><text fill="#000000" font-family="sans-serif" font-size="13" font-weight="bold" lengthAdjust="spacing" textLength="14" x="58" y="1032.6221">23</text><text fill="#000000" font-family="sans-serif" font-size="13" lengthAdjust="spacing" textLength="219" x="76" y="1032.6221">shows data and requests confirmation</text><polygon fill="#181818" points="435,1065.1758,445,1069.1758,435,1073.1758,439,1069.1758" style="stroke:#181818;stroke-width:1.0;"/><line style="stroke:#181818;stroke-width:1.0;" x1="41" x2="441" y1="1069.1758" y2="1069.1758"/><text fill="#000000" font-family="sans-serif" font-size="13" font-weight="bold" lengthAdjust="spacing" textLength="14" x="48" y="1063.9131">24</text><text fill="#000000" font-family="sans-serif" font-size="13" lengthAdjust="spacing" textLength="78" x="66" y="1063.9131">confirms data</text><polygon fill="#181818" points="849,1096.4668,859,1100.4668,849,1104.4668,853,1100.4668" style="stroke:#181818;stroke-width:1.0;"/><line style="stroke:#181818;stroke-width:1.0;" x1="457" x2="855" y1="1100.4668" y2="1100.4668"/><text fill="#000000" font-family="sans-serif" font-size="13" font-weight="bold" lengthAdjust="spacing" textLength="14" x="464" y="1095.2041">25</text><text fill="#000000" font-family="sans-serif" font-size="13" lengthAdjust="spacing" textLength="153" x="482" y="1095.2041">saveUser(User, role, pass)</text><polygon fill="#181818" points="1274,1127.7578,1284,1131.7578,1274,1135.7578,1278,1131.7578" style="stroke:#181818;stroke-width:1.0;"/><line style="stroke:#181818;stroke-width:1.0;" x1="871" x2="1280" y1="1131.7578" y2="1131.7578"/><text fill="#000000" font-family="sans-serif" font-size="13" font-weight="bold" lengthAdjust="spacing" textLength="14" x="878" y="1126.4951">26</text><text fill="#000000" font-family="sans-serif" font-size="13" lengthAdjust="spacing" textLength="56" x="896" y="1126.4951">add(User)</text><line style="stroke:#181818;stroke-width:1.0;" x1="1296" x2="1338" y1="1163.0488" y2="1163.0488"/><line style="stroke:#181818;stroke-width:1.0;" x1="1338" x2="1338" y1="1163.0488" y2="1176.0488"/><line style="stroke:#181818;stroke-width:1.0;" x1="1297" x2="1338" y1="1176.0488" y2="1176.0488"/><polygon fill="#181818" points="1307,1172.0488,1297,1176.0488,1307,1180.0488,1303,1176.0488" style="stroke:#181818;stroke-width:1.0;"/><text fill="#000000" font-family="sans-serif" font-size="13" font-weight="bold" lengthAdjust="spacing" textLength="14" x="1303" y="1157.7861">27</text><text fill="#000000" font-family="sans-serif" font-size="13" lengthAdjust="spacing" textLength="83" x="1321" y="1157.7861">addUser(User)</text><polygon fill="#181818" points="882,1203.3398,872,1207.3398,882,1211.3398,878,1207.3398" style="stroke:#181818;stroke-width:1.0;"/><line style="stroke:#181818;stroke-width:1.0;stroke-dasharray:2.0,2.0;" x1="876" x2="1290" y1="1207.3398" y2="1207.3398"/><text fill="#000000" font-family="sans-serif" font-size="13" font-weight="bold" lengthAdjust="spacing" textLength="14" x="888" y="1202.0771">28</text><text fill="#000000" font-family="sans-serif" font-size="13" lengthAdjust="spacing" textLength="145" x="906" y="1202.0771">User added successfully!</text><polygon fill="#181818" points="468,1234.6309,458,1238.6309,468,1242.6309,464,1238.6309" style="stroke:#181818;stroke-width:1.0;"/><line style="stroke:#181818;stroke-width:1.0;stroke-dasharray:2.0,2.0;" x1="462" x2="865" y1="1238.6309" y2="1238.6309"/><text fill="#000000" font-family="sans-serif" font-size="13" font-weight="bold" lengthAdjust="spacing" textLength="14" x="474" y="1233.3682">29</text><text fill="#000000" font-family="sans-serif" font-size="13" lengthAdjust="spacing" textLength="145" x="492" y="1233.3682">User added successfully!</text><polygon fill="#181818" points="52,1265.9219,42,1269.9219,52,1273.9219,48,1269.9219" style="stroke:#181818;stroke-width:1.0;"/><line style="stroke:#181818;stroke-width:1.0;stroke-dasharray:2.0,2.0;" x1="46" x2="451" y1="1269.9219" y2="1269.9219"/><text fill="#000000" font-family="sans-serif" font-size="13" font-weight="bold" lengthAdjust="spacing" textLength="14" x="58" y="1264.6592">30</text><text fill="#000000" font-family="sans-serif" font-size="13" lengthAdjust="spacing" textLength="145" x="76" y="1264.6592">User added successfully!</text><!--SRC=[lLNBRjim4BppAxQv90tivYwa1k840GpKGU77hHTQsbX49L8bgHZkT_KB-cNT9ILPLWqtQ8Fw88lYx6j675tctbSkkRcf2gbzNHOVKbFUEFnMeqvnd2cvjR8KGjRUwBhSe1NYBlN6mbngkKKBql6j49MqNgMgeZHmaInmgvn7-uIxjKExdbqmS3qx3xitsbjJ56W3d9P7-8KfCAHPB0TvFaldTiPc8OmM8fDURgH3m7jJMuUSVO6LKzJwFkHmS7jhiJBnqMHo25bqJnzbsk8VxnR3WACMbjC4bhxEKFjfhOgi6M4vFOQj2BP2cUPe-x3L03OdM4Dm7pOVmAXWLpMMy_MWNfft1MEbD1-KqjkkLYoYjqBG0nXFI33W0eHtO1kjbDw218qxO585KQHUfCVm5dGBKbgiPvI1DAGKM_GidhjwVu2mke8kumbnszoHiWbyeZAt39y4nHryvFYxelWj1Ry8WYxZyIJM2GYHuJ62KrFkMTn_yAQF26rGgzGh3qtZvcRdmcnWGtcfC-BbgmDlm661gQVvwtR_gDeiCDSI5y4KboCexL5dcCMO8KzTSSidpr4Cvxzqm2ybN6bPuWXabbbqRWGf7HFAG3VAg- -edyB17Adi_Pbc_Bv2r-QdFZZpYJvY6t5SQhizM0Sr4wZe6MdIRjrRb5uPJS8SYniK9TJrTN8IV925CvxIf54rvQ1mXA-Uww9u2cout5WVRvdI4M0fLJ4AkRWI8RpqjHk-SThGdNaXzNW9z5FFeFpF7oGqXOIpb0ZI2XWf-1S6MKvvZjXAS-GQNSWXC_ehCPNQqABALTf80bezZs2ZhCyVA6u4NpJyqmZa9s8vfMvypUris1p-NnizYRYHirJwQ3f7L0OYLpqY6sTgN_3K6hqltvuribUn8jR8_8QilNND7aMhFr5KHjVjKnGO8fy_KDHOSzFkoPQerTSoGLyGCIScoEI7JFnbwjx0dBnlG2xC0-FMWiBtufprkc2zmVFOT3ip9CDxLhOCpd72uhelLODpfysjSHCdNwANyANLa-SQEaNxJN89Ms-0ask9_dnhnwKZeCl98De8zUBGl4sMw-eq9GDdelVlJZ3LkE5h8WxKqVolB3Bx1G00]--></g></svg>