<?xml version="1.0" encoding="us-ascii" standalone="no"?><svg xmlns="http://www.w3.org/2000/svg" xmlns:xlink="http://www.w3.org/1999/xlink" contentStyleType="text/css" height="814px" preserveAspectRatio="none" style="width:1063px;height:814px;background:#FFFFFF;" version="1.1" viewBox="0 0 1063 814" width="1063px" zoomAndPan="magnify"><defs/><g><rect fill="#FFFFFF" height="584.2383" style="stroke:#181818;stroke-width:1.0;" width="10" x="31" y="121.5332"/><rect fill="#FFFFFF" height="31.291" style="stroke:#181818;stroke-width:1.0;" width="10" x="302" y="121.5332"/><rect fill="#FFFFFF" height="232.0371" style="stroke:#181818;stroke-width:1.0;" width="10" x="302" y="184.1152"/><rect fill="#FFFFFF" height="249.3281" style="stroke:#181818;stroke-width:1.0;" width="10" x="302" y="447.4434"/><rect fill="#FFFFFF" height="169.4551" style="stroke:#181818;stroke-width:1.0;" width="10" x="472" y="215.4063"/><rect fill="#FFFFFF" height="169.4551" style="stroke:#181818;stroke-width:1.0;" width="10" x="472" y="478.7344"/><rect fill="#FFFFFF" height="75.582" style="stroke:#181818;stroke-width:1.0;" width="10" x="645.5" y="277.9883"/><rect fill="#FFFFFF" height="106.873" style="stroke:#181818;stroke-width:1.0;" width="10" x="645.5" y="510.0254"/><rect fill="#FFFFFF" height="37.291" style="stroke:#181818;stroke-width:1.0;" width="10" x="898" y="541.3164"/><line style="stroke:#181818;stroke-width:0.5;stroke-dasharray:5.0,5.0;" x1="36" x2="36" y1="88.2422" y2="714.7715"/><line style="stroke:#181818;stroke-width:0.5;stroke-dasharray:5.0,5.0;" x1="307" x2="307" y1="88.2422" y2="714.7715"/><line style="stroke:#181818;stroke-width:0.5;stroke-dasharray:5.0,5.0;" x1="477" x2="477" y1="88.2422" y2="714.7715"/><line style="stroke:#181818;stroke-width:0.5;stroke-dasharray:5.0,5.0;" x1="650" x2="650" y1="88.2422" y2="714.7715"/><line style="stroke:#181818;stroke-width:0.5;stroke-dasharray:5.0,5.0;" x1="796" x2="796" y1="88.2422" y2="714.7715"/><line style="stroke:#181818;stroke-width:0.5;stroke-dasharray:5.0,5.0;" x1="903" x2="903" y1="88.2422" y2="714.7715"/><text fill="#000000" font-family="sans-serif" font-size="14" lengthAdjust="spacing" textLength="56" x="5" y="84.7285">Manager</text><ellipse cx="36" cy="18.1211" fill="#E2E2F0" rx="8" ry="8" style="stroke:#181818;stroke-width:0.5;"/><path d="M36,26.1211 L36,53.1211 M23,34.1211 L49,34.1211 M36,53.1211 L23,68.1211 M36,53.1211 L49,68.1211 " fill="none" style="stroke:#181818;stroke-width:0.5;"/><text fill="#000000" font-family="sans-serif" font-size="14" lengthAdjust="spacing" textLength="56" x="5" y="728.8789">Manager</text><ellipse cx="36" cy="740.8926" fill="#E2E2F0" rx="8" ry="8" style="stroke:#181818;stroke-width:0.5;"/><path d="M36,748.8926 L36,775.8926 M23,756.8926 L49,756.8926 M36,775.8926 L23,790.8926 M36,775.8926 L49,790.8926 " fill="none" style="stroke:#181818;stroke-width:0.5;"/><rect fill="#E2E2F0" height="32.6211" rx="2.5" ry="2.5" style="stroke:#181818;stroke-width:0.5;" width="128" x="243" y="54.6211"/><text fill="#000000" font-family="sans-serif" font-size="14" lengthAdjust="spacing" textLength="114" x="250" y="76.7285">:AlterUserStatusUI</text><rect fill="#E2E2F0" height="32.6211" rx="2.5" ry="2.5" style="stroke:#181818;stroke-width:0.5;" width="128" x="243" y="713.7715"/><text fill="#000000" font-family="sans-serif" font-size="14" lengthAdjust="spacing" textLength="114" x="250" y="735.8789">:AlterUserStatusUI</text><rect fill="#E2E2F0" height="32.6211" rx="2.5" ry="2.5" style="stroke:#181818;stroke-width:0.5;" width="178" x="388" y="54.6211"/><text fill="#000000" font-family="sans-serif" font-size="14" lengthAdjust="spacing" textLength="164" x="395" y="76.7285">:AlterUserStatusController</text><rect fill="#E2E2F0" height="32.6211" rx="2.5" ry="2.5" style="stroke:#181818;stroke-width:0.5;" width="178" x="388" y="713.7715"/><text fill="#000000" font-family="sans-serif" font-size="14" lengthAdjust="spacing" textLength="164" x="395" y="735.8789">:AlterUserStatusController</text><text fill="#000000" font-family="sans-serif" font-size="14" font-style="italic" lengthAdjust="spacing" textLength="79" x="608" y="66.1074">&#171;repository&#187;</text><text fill="#000000" font-family="sans-serif" font-size="14" lengthAdjust="spacing" textLength="143" x="576" y="84.7285">eCourseUserRepsitory</text><path d="M632.5,15 C632.5,5 650.5,5 650.5,5 C650.5,5 668.5,5 668.5,15 L668.5,41 C668.5,51 650.5,51 650.5,51 C650.5,51 632.5,51 632.5,41 L632.5,15 " fill="#E2E2F0" style="stroke:#181818;stroke-width:1.5;"/><path d="M632.5,15 C632.5,25 650.5,25 650.5,25 C650.5,25 668.5,25 668.5,15 " fill="none" style="stroke:#181818;stroke-width:1.5;"/><text fill="#000000" font-family="sans-serif" font-size="14" font-style="italic" lengthAdjust="spacing" textLength="79" x="608" y="728.8789">&#171;repository&#187;</text><text fill="#000000" font-family="sans-serif" font-size="14" lengthAdjust="spacing" textLength="143" x="576" y="747.5">eCourseUserRepsitory</text><path d="M632.5,761.0137 C632.5,751.0137 650.5,751.0137 650.5,751.0137 C650.5,751.0137 668.5,751.0137 668.5,761.0137 L668.5,787.0137 C668.5,797.0137 650.5,797.0137 650.5,797.0137 C650.5,797.0137 632.5,797.0137 632.5,787.0137 L632.5,761.0137 " fill="#E2E2F0" style="stroke:#181818;stroke-width:1.5;"/><path d="M632.5,761.0137 C632.5,771.0137 650.5,771.0137 650.5,771.0137 C650.5,771.0137 668.5,771.0137 668.5,761.0137 " fill="none" style="stroke:#181818;stroke-width:1.5;"/><text fill="#000000" font-family="sans-serif" font-size="14" font-style="italic" lengthAdjust="spacing" textLength="79" x="753.5" y="66.1074">&#171;repository&#187;</text><text fill="#000000" font-family="sans-serif" font-size="14" lengthAdjust="spacing" textLength="116" x="735" y="84.7285">RepositoryFactory</text><path d="M778,15 C778,5 796,5 796,5 C796,5 814,5 814,15 L814,41 C814,51 796,51 796,51 C796,51 778,51 778,41 L778,15 " fill="#E2E2F0" style="stroke:#181818;stroke-width:1.5;"/><path d="M778,15 C778,25 796,25 796,25 C796,25 814,25 814,15 " fill="none" style="stroke:#181818;stroke-width:1.5;"/><text fill="#000000" font-family="sans-serif" font-size="14" font-style="italic" lengthAdjust="spacing" textLength="79" x="753.5" y="728.8789">&#171;repository&#187;</text><text fill="#000000" font-family="sans-serif" font-size="14" lengthAdjust="spacing" textLength="116" x="735" y="747.5">RepositoryFactory</text><path d="M778,761.0137 C778,751.0137 796,751.0137 796,751.0137 C796,751.0137 814,751.0137 814,761.0137 L814,787.0137 C814,797.0137 796,797.0137 796,797.0137 C796,797.0137 778,797.0137 778,787.0137 L778,761.0137 " fill="#E2E2F0" style="stroke:#181818;stroke-width:1.5;"/><path d="M778,761.0137 C778,771.0137 796,771.0137 796,771.0137 C796,771.0137 814,771.0137 814,761.0137 " fill="none" style="stroke:#181818;stroke-width:1.5;"/><rect fill="#E2E2F0" height="32.6211" rx="2.5" ry="2.5" style="stroke:#181818;stroke-width:0.5;" width="72" x="867" y="54.6211"/><text fill="#000000" font-family="sans-serif" font-size="14" lengthAdjust="spacing" textLength="58" x="874" y="76.7285">Usr: User</text><rect fill="#E2E2F0" height="32.6211" rx="2.5" ry="2.5" style="stroke:#181818;stroke-width:0.5;" width="72" x="867" y="713.7715"/><text fill="#000000" font-family="sans-serif" font-size="14" lengthAdjust="spacing" textLength="58" x="874" y="735.8789">Usr: User</text><rect fill="#FFFFFF" height="584.2383" style="stroke:#181818;stroke-width:1.0;" width="10" x="31" y="121.5332"/><rect fill="#FFFFFF" height="31.291" style="stroke:#181818;stroke-width:1.0;" width="10" x="302" y="121.5332"/><rect fill="#FFFFFF" height="232.0371" style="stroke:#181818;stroke-width:1.0;" width="10" x="302" y="184.1152"/><rect fill="#FFFFFF" height="249.3281" style="stroke:#181818;stroke-width:1.0;" width="10" x="302" y="447.4434"/><rect fill="#FFFFFF" height="169.4551" style="stroke:#181818;stroke-width:1.0;" width="10" x="472" y="215.4063"/><rect fill="#FFFFFF" height="169.4551" style="stroke:#181818;stroke-width:1.0;" width="10" x="472" y="478.7344"/><rect fill="#FFFFFF" height="75.582" style="stroke:#181818;stroke-width:1.0;" width="10" x="645.5" y="277.9883"/><rect fill="#FFFFFF" height="106.873" style="stroke:#181818;stroke-width:1.0;" width="10" x="645.5" y="510.0254"/><rect fill="#FFFFFF" height="37.291" style="stroke:#181818;stroke-width:1.0;" width="10" x="898" y="541.3164"/><polygon fill="#181818" points="290,117.5332,300,121.5332,290,125.5332,294,121.5332" style="stroke:#181818;stroke-width:1.0;"/><line style="stroke:#181818;stroke-width:1.0;" x1="41" x2="296" y1="121.5332" y2="121.5332"/><text fill="#000000" font-family="sans-serif" font-size="13" font-weight="bold" lengthAdjust="spacing" textLength="7" x="48" y="116.2705">1</text><text fill="#000000" font-family="sans-serif" font-size="13" lengthAdjust="spacing" textLength="236" x="59" y="116.2705">Starts registering to Disable/Enable User</text><polygon fill="#181818" points="52,148.8242,42,152.8242,52,156.8242,48,152.8242" style="stroke:#181818;stroke-width:1.0;"/><line style="stroke:#181818;stroke-width:1.0;stroke-dasharray:2.0,2.0;" x1="46" x2="306" y1="152.8242" y2="152.8242"/><text fill="#000000" font-family="sans-serif" font-size="13" font-weight="bold" lengthAdjust="spacing" textLength="7" x="58" y="147.5615">2</text><text fill="#000000" font-family="sans-serif" font-size="13" lengthAdjust="spacing" textLength="146" x="69" y="147.5615">Asks to insert the user id</text><polygon fill="#181818" points="290,180.1152,300,184.1152,290,188.1152,294,184.1152" style="stroke:#181818;stroke-width:1.0;"/><line style="stroke:#181818;stroke-width:1.0;" x1="41" x2="296" y1="184.1152" y2="184.1152"/><text fill="#000000" font-family="sans-serif" font-size="13" font-weight="bold" lengthAdjust="spacing" textLength="7" x="48" y="178.8525">3</text><text fill="#000000" font-family="sans-serif" font-size="13" lengthAdjust="spacing" textLength="122" x="59" y="178.8525">types requested data</text><polygon fill="#181818" points="460,211.4063,470,215.4063,460,219.4063,464,215.4063" style="stroke:#181818;stroke-width:1.0;"/><line style="stroke:#181818;stroke-width:1.0;" x1="312" x2="466" y1="215.4063" y2="215.4063"/><text fill="#000000" font-family="sans-serif" font-size="13" font-weight="bold" lengthAdjust="spacing" textLength="7" x="319" y="210.1436">4</text><text fill="#000000" font-family="sans-serif" font-size="13" lengthAdjust="spacing" textLength="115" x="330" y="210.1436">user = searchUser()</text><polygon fill="#181818" points="784,242.6973,794,246.6973,784,250.6973,788,246.6973" style="stroke:#181818;stroke-width:1.0;"/><line style="stroke:#181818;stroke-width:1.0;" x1="482" x2="790" y1="246.6973" y2="246.6973"/><text fill="#000000" font-family="sans-serif" font-size="13" font-weight="bold" lengthAdjust="spacing" textLength="7" x="489" y="241.4346">5</text><text fill="#000000" font-family="sans-serif" font-size="13" lengthAdjust="spacing" textLength="4" x="500" y="241.4346">&#160;</text><polygon fill="#181818" points="633.5,273.9883,643.5,277.9883,633.5,281.9883,637.5,277.9883" style="stroke:#181818;stroke-width:1.0;"/><line style="stroke:#181818;stroke-width:1.0;" x1="482" x2="639.5" y1="277.9883" y2="277.9883"/><text fill="#000000" font-family="sans-serif" font-size="13" font-weight="bold" lengthAdjust="spacing" textLength="7" x="489" y="272.7256">6</text><text fill="#000000" font-family="sans-serif" font-size="13" lengthAdjust="spacing" textLength="74" x="500" y="272.7256">searchUser()</text><line style="stroke:#181818;stroke-width:1.0;" x1="655.5" x2="697.5" y1="309.2793" y2="309.2793"/><line style="stroke:#181818;stroke-width:1.0;" x1="697.5" x2="697.5" y1="309.2793" y2="322.2793"/><line style="stroke:#181818;stroke-width:1.0;" x1="656.5" x2="697.5" y1="322.2793" y2="322.2793"/><polygon fill="#181818" points="666.5,318.2793,656.5,322.2793,666.5,326.2793,662.5,322.2793" style="stroke:#181818;stroke-width:1.0;"/><text fill="#000000" font-family="sans-serif" font-size="13" font-weight="bold" lengthAdjust="spacing" textLength="7" x="662.5" y="304.0166">7</text><text fill="#000000" font-family="sans-serif" font-size="13" lengthAdjust="spacing" textLength="99" x="673.5" y="304.0166">searchUser(user)</text><polygon fill="#181818" points="493,349.5703,483,353.5703,493,357.5703,489,353.5703" style="stroke:#181818;stroke-width:1.0;"/><line style="stroke:#181818;stroke-width:1.0;stroke-dasharray:2.0,2.0;" x1="487" x2="649.5" y1="353.5703" y2="353.5703"/><text fill="#000000" font-family="sans-serif" font-size="13" font-weight="bold" lengthAdjust="spacing" textLength="7" x="499" y="348.3076">8</text><text fill="#000000" font-family="sans-serif" font-size="13" lengthAdjust="spacing" textLength="45" x="510" y="348.3076">userDto</text><polygon fill="#181818" points="323,380.8613,313,384.8613,323,388.8613,319,384.8613" style="stroke:#181818;stroke-width:1.0;"/><line style="stroke:#181818;stroke-width:1.0;stroke-dasharray:2.0,2.0;" x1="317" x2="476" y1="384.8613" y2="384.8613"/><text fill="#000000" font-family="sans-serif" font-size="13" font-weight="bold" lengthAdjust="spacing" textLength="7" x="329" y="379.5986">9</text><text fill="#000000" font-family="sans-serif" font-size="13" lengthAdjust="spacing" textLength="45" x="340" y="379.5986">userDto</text><polygon fill="#181818" points="52,412.1523,42,416.1523,52,420.1523,48,416.1523" style="stroke:#181818;stroke-width:1.0;"/><line style="stroke:#181818;stroke-width:1.0;stroke-dasharray:2.0,2.0;" x1="46" x2="306" y1="416.1523" y2="416.1523"/><text fill="#000000" font-family="sans-serif" font-size="13" font-weight="bold" lengthAdjust="spacing" textLength="14" x="58" y="410.8896">10</text><text fill="#000000" font-family="sans-serif" font-size="13" lengthAdjust="spacing" textLength="66" x="76" y="410.8896">shows user</text><polygon fill="#181818" points="290,443.4434,300,447.4434,290,451.4434,294,447.4434" style="stroke:#181818;stroke-width:1.0;"/><line style="stroke:#181818;stroke-width:1.0;" x1="41" x2="296" y1="447.4434" y2="447.4434"/><text fill="#000000" font-family="sans-serif" font-size="13" font-weight="bold" lengthAdjust="spacing" textLength="14" x="48" y="442.1807">11</text><text fill="#000000" font-family="sans-serif" font-size="13" lengthAdjust="spacing" textLength="175" x="66" y="442.1807">confirms user alteration status</text><polygon fill="#181818" points="460,474.7344,470,478.7344,460,482.7344,464,478.7344" style="stroke:#181818;stroke-width:1.0;"/><line style="stroke:#181818;stroke-width:1.0;" x1="312" x2="466" y1="478.7344" y2="478.7344"/><text fill="#000000" font-family="sans-serif" font-size="13" font-weight="bold" lengthAdjust="spacing" textLength="14" x="319" y="473.4717">12</text><text fill="#000000" font-family="sans-serif" font-size="13" lengthAdjust="spacing" textLength="123" x="337" y="473.4717">alterUserStatus(user)</text><polygon fill="#181818" points="633.5,506.0254,643.5,510.0254,633.5,514.0254,637.5,510.0254" style="stroke:#181818;stroke-width:1.0;"/><line style="stroke:#181818;stroke-width:1.0;" x1="482" x2="639.5" y1="510.0254" y2="510.0254"/><text fill="#000000" font-family="sans-serif" font-size="13" font-weight="bold" lengthAdjust="spacing" textLength="14" x="489" y="504.7627">13</text><text fill="#000000" font-family="sans-serif" font-size="13" lengthAdjust="spacing" textLength="123" x="507" y="504.7627">alterUserStatus(user)</text><polygon fill="#181818" points="886,537.3164,896,541.3164,886,545.3164,890,541.3164" style="stroke:#181818;stroke-width:1.0;"/><line style="stroke:#181818;stroke-width:1.0;" x1="655.5" x2="892" y1="541.3164" y2="541.3164"/><text fill="#000000" font-family="sans-serif" font-size="13" font-weight="bold" lengthAdjust="spacing" textLength="14" x="662.5" y="536.0537">14</text><text fill="#000000" font-family="sans-serif" font-size="13" lengthAdjust="spacing" textLength="123" x="680.5" y="536.0537">alterUserStatus(user)</text><line style="stroke:#181818;stroke-width:1.0;" x1="908" x2="950" y1="577.6074" y2="577.6074"/><line style="stroke:#181818;stroke-width:1.0;" x1="950" x2="950" y1="577.6074" y2="590.6074"/><line style="stroke:#181818;stroke-width:1.0;" x1="903" x2="950" y1="590.6074" y2="590.6074"/><polygon fill="#181818" points="913,586.6074,903,590.6074,913,594.6074,909,590.6074" style="stroke:#181818;stroke-width:1.0;"/><text fill="#000000" font-family="sans-serif" font-size="13" font-weight="bold" lengthAdjust="spacing" textLength="14" x="915" y="572.3447">15</text><text fill="#000000" font-family="sans-serif" font-size="13" lengthAdjust="spacing" textLength="123" x="933" y="572.3447">alterUserStatus(user)</text><polygon fill="#181818" points="493,612.8984,483,616.8984,493,620.8984,489,616.8984" style="stroke:#181818;stroke-width:1.0;"/><line style="stroke:#181818;stroke-width:1.0;stroke-dasharray:2.0,2.0;" x1="487" x2="649.5" y1="616.8984" y2="616.8984"/><text fill="#000000" font-family="sans-serif" font-size="13" font-weight="bold" lengthAdjust="spacing" textLength="14" x="499" y="611.6357">16</text><text fill="#000000" font-family="sans-serif" font-size="13" lengthAdjust="spacing" textLength="45" x="517" y="611.6357">userDto</text><polygon fill="#181818" points="323,644.1895,313,648.1895,323,652.1895,319,648.1895" style="stroke:#181818;stroke-width:1.0;"/><line style="stroke:#181818;stroke-width:1.0;stroke-dasharray:2.0,2.0;" x1="317" x2="476" y1="648.1895" y2="648.1895"/><text fill="#000000" font-family="sans-serif" font-size="13" font-weight="bold" lengthAdjust="spacing" textLength="14" x="329" y="642.9268">17</text><text fill="#000000" font-family="sans-serif" font-size="13" lengthAdjust="spacing" textLength="85" x="347" y="642.9268">UserDtoStatus</text><polygon fill="#181818" points="52,692.7715,42,696.7715,52,700.7715,48,696.7715" style="stroke:#181818;stroke-width:1.0;"/><line style="stroke:#181818;stroke-width:1.0;stroke-dasharray:2.0,2.0;" x1="46" x2="306" y1="696.7715" y2="696.7715"/><text fill="#000000" font-family="sans-serif" font-size="13" font-weight="bold" lengthAdjust="spacing" textLength="14" x="58" y="682.8633">18</text><text fill="#000000" font-family="sans-serif" font-size="13" lengthAdjust="spacing" textLength="204" x="76" y="674.2178">shows new user status and informs</text><text fill="#000000" font-family="sans-serif" font-size="13" lengthAdjust="spacing" textLength="184" x="80" y="691.5088">user status altered successfully</text><!--SRC=[ZP8_R-Cm3CLtVGgYIw-3czte6GZw1yXmImxUkZ0samYr9PUKhyYtBscr2PmKlGv1PElnyV5dNkzJ6gHSB8OEGnhxxhQ9_KBeTQJGKD5wt37spk6OOXZx3R5pooP5XZyOS4SCA7PqRa1Ell63si1LkUmISIt4VnEcKUhLbGdhrVUo-nWInwuZdkJww5fCk44XeFiuif29rpI8rmo7oLFWxevfYFbLLPrAriUtJzXywf-Mw_E2MQPQk0JhaXEB3gppGL5fUYX1Wt8IODfvqUm-x215UF22cuuMZy7-fdAdBVq_J3JXEJue0bUl2hKprt8fBs86FcX9WhGd6FK4ldKjpOfcAT9X80kXdqbJj60ZN_Ie362P_Nw347ApjsI_Rjn9QuprLrJA9HzgAUVYaw-ehrmehC7DT5DKnuuFASucq59pr-BLbmBBaS7ed6g_ZsyowSuvwBMPA8GcXgtdFii0RPKm-HX0fcMwvA4zj0pdE_SHVnva0c6hzL_vYGd_GCicvc_LCsZyCwnGV2v6dJNPyMk-UV4-20Two_WoCy3GwYvkes5z3lChYwkx9cFJaCXsxBh3sSTv1m00]--></g></svg>