<?xml version="1.0" encoding="us-ascii" standalone="no"?><svg xmlns="http://www.w3.org/2000/svg" xmlns:xlink="http://www.w3.org/1999/xlink" contentStyleType="text/css" height="694px" preserveAspectRatio="none" style="width:1114px;height:694px;background:#FFFFFF;" version="1.1" viewBox="0 0 1114 694" width="1114px" zoomAndPan="magnify"><defs/><g><rect fill="#FFFFFF" height="464.3652" style="stroke:#181818;stroke-width:1.0;" width="10" x="31" y="121.5332"/><rect fill="#FFFFFF" height="205.0371" style="stroke:#181818;stroke-width:1.0;" width="10" x="420" y="121.5332"/><rect fill="#FFFFFF" height="219.0371" style="stroke:#181818;stroke-width:1.0;" width="10" x="420" y="357.8613"/><rect fill="#FFFFFF" height="125.1641" style="stroke:#181818;stroke-width:1.0;" width="10" x="585" y="152.8242"/><rect fill="#FFFFFF" height="156.4551" style="stroke:#181818;stroke-width:1.0;" width="10" x="585" y="389.1523"/><rect fill="#FFFFFF" height="93.873" style="stroke:#181818;stroke-width:1.0;" width="10" x="758" y="420.4434"/><rect fill="#FFFFFF" height="31.291" style="stroke:#181818;stroke-width:1.0;" width="10" x="1034" y="215.4063"/><rect fill="#FFFFFF" height="31.291" style="stroke:#181818;stroke-width:1.0;" width="10" x="1034" y="451.7344"/><line style="stroke:#181818;stroke-width:0.5;stroke-dasharray:5.0,5.0;" x1="36" x2="36" y1="88.2422" y2="594.8984"/><line style="stroke:#181818;stroke-width:0.5;stroke-dasharray:5.0,5.0;" x1="424.5" x2="424.5" y1="88.2422" y2="594.8984"/><line style="stroke:#181818;stroke-width:0.5;stroke-dasharray:5.0,5.0;" x1="589.5" x2="589.5" y1="88.2422" y2="594.8984"/><line style="stroke:#181818;stroke-width:0.5;stroke-dasharray:5.0,5.0;" x1="762.5" x2="762.5" y1="88.2422" y2="594.8984"/><line style="stroke:#181818;stroke-width:0.5;stroke-dasharray:5.0,5.0;" x1="893.5" x2="893.5" y1="88.2422" y2="594.8984"/><line style="stroke:#181818;stroke-width:0.5;stroke-dasharray:5.0,5.0;" x1="1038.5" x2="1038.5" y1="88.2422" y2="594.8984"/><text fill="#000000" font-family="sans-serif" font-size="14" lengthAdjust="spacing" textLength="56" x="5" y="84.7285">Manager</text><ellipse cx="36" cy="18.1211" fill="#E2E2F0" rx="8" ry="8" style="stroke:#181818;stroke-width:0.5;"/><path d="M36,26.1211 L36,53.1211 M23,34.1211 L49,34.1211 M36,53.1211 L23,68.1211 M36,53.1211 L49,68.1211 " fill="none" style="stroke:#181818;stroke-width:0.5;"/><text fill="#000000" font-family="sans-serif" font-size="14" lengthAdjust="spacing" textLength="56" x="5" y="609.0059">Manager</text><ellipse cx="36" cy="621.0195" fill="#E2E2F0" rx="8" ry="8" style="stroke:#181818;stroke-width:0.5;"/><path d="M36,629.0195 L36,656.0195 M23,637.0195 L49,637.0195 M36,656.0195 L23,671.0195 M36,656.0195 L49,671.0195 " fill="none" style="stroke:#181818;stroke-width:0.5;"/><rect fill="#E2E2F0" height="32.6211" rx="2.5" ry="2.5" style="stroke:#181818;stroke-width:0.5;" width="127" x="361.5" y="54.6211"/><text fill="#000000" font-family="sans-serif" font-size="14" lengthAdjust="spacing" textLength="113" x="368.5" y="76.7285">:ListSytemUsersUI</text><rect fill="#E2E2F0" height="32.6211" rx="2.5" ry="2.5" style="stroke:#181818;stroke-width:0.5;" width="127" x="361.5" y="593.8984"/><text fill="#000000" font-family="sans-serif" font-size="14" lengthAdjust="spacing" textLength="113" x="368.5" y="616.0059">:ListSytemUsersUI</text><rect fill="#E2E2F0" height="32.6211" rx="2.5" ry="2.5" style="stroke:#181818;stroke-width:0.5;" width="177" x="501.5" y="54.6211"/><text fill="#000000" font-family="sans-serif" font-size="14" lengthAdjust="spacing" textLength="163" x="508.5" y="76.7285">:ListSytemUsersController</text><rect fill="#E2E2F0" height="32.6211" rx="2.5" ry="2.5" style="stroke:#181818;stroke-width:0.5;" width="177" x="501.5" y="593.8984"/><text fill="#000000" font-family="sans-serif" font-size="14" lengthAdjust="spacing" textLength="163" x="508.5" y="616.0059">:ListSytemUsersController</text><rect fill="#E2E2F0" height="51.2422" rx="2.5" ry="2.5" style="stroke:#181818;stroke-width:0.5;" width="119" x="703.5" y="36"/><text fill="#000000" font-family="sans-serif" font-size="14" font-style="italic" lengthAdjust="spacing" textLength="60" x="733" y="58.1074">&#171;service&#187;</text><text fill="#000000" font-family="sans-serif" font-size="14" lengthAdjust="spacing" textLength="105" x="710.5" y="76.7285">ListUsersService</text><rect fill="#E2E2F0" height="51.2422" rx="2.5" ry="2.5" style="stroke:#181818;stroke-width:0.5;" width="119" x="703.5" y="593.8984"/><text fill="#000000" font-family="sans-serif" font-size="14" font-style="italic" lengthAdjust="spacing" textLength="60" x="733" y="616.0059">&#171;service&#187;</text><text fill="#000000" font-family="sans-serif" font-size="14" lengthAdjust="spacing" textLength="105" x="710.5" y="634.627">ListUsersService</text><text fill="#000000" font-family="sans-serif" font-size="14" font-style="italic" lengthAdjust="spacing" textLength="79" x="851" y="66.1074">&#171;repository&#187;</text><text fill="#000000" font-family="sans-serif" font-size="14" lengthAdjust="spacing" textLength="116" x="832.5" y="84.7285">RepositoryFactory</text><path d="M875.5,15 C875.5,5 893.5,5 893.5,5 C893.5,5 911.5,5 911.5,15 L911.5,41 C911.5,51 893.5,51 893.5,51 C893.5,51 875.5,51 875.5,41 L875.5,15 " fill="#E2E2F0" style="stroke:#181818;stroke-width:1.5;"/><path d="M875.5,15 C875.5,25 893.5,25 893.5,25 C893.5,25 911.5,25 911.5,15 " fill="none" style="stroke:#181818;stroke-width:1.5;"/><text fill="#000000" font-family="sans-serif" font-size="14" font-style="italic" lengthAdjust="spacing" textLength="79" x="851" y="609.0059">&#171;repository&#187;</text><text fill="#000000" font-family="sans-serif" font-size="14" lengthAdjust="spacing" textLength="116" x="832.5" y="627.627">RepositoryFactory</text><path d="M875.5,641.1406 C875.5,631.1406 893.5,631.1406 893.5,631.1406 C893.5,631.1406 911.5,631.1406 911.5,641.1406 L911.5,667.1406 C911.5,677.1406 893.5,677.1406 893.5,677.1406 C893.5,677.1406 875.5,677.1406 875.5,667.1406 L875.5,641.1406 " fill="#E2E2F0" style="stroke:#181818;stroke-width:1.5;"/><path d="M875.5,641.1406 C875.5,651.1406 893.5,651.1406 893.5,651.1406 C893.5,651.1406 911.5,651.1406 911.5,641.1406 " fill="none" style="stroke:#181818;stroke-width:1.5;"/><text fill="#000000" font-family="sans-serif" font-size="14" font-style="italic" lengthAdjust="spacing" textLength="79" x="996.5" y="66.1074">&#171;repository&#187;</text><text fill="#000000" font-family="sans-serif" font-size="14" lengthAdjust="spacing" textLength="143" x="964.5" y="84.7285">eCourseUserRepsitory</text><path d="M1021,15 C1021,5 1039,5 1039,5 C1039,5 1057,5 1057,15 L1057,41 C1057,51 1039,51 1039,51 C1039,51 1021,51 1021,41 L1021,15 " fill="#E2E2F0" style="stroke:#181818;stroke-width:1.5;"/><path d="M1021,15 C1021,25 1039,25 1039,25 C1039,25 1057,25 1057,15 " fill="none" style="stroke:#181818;stroke-width:1.5;"/><text fill="#000000" font-family="sans-serif" font-size="14" font-style="italic" lengthAdjust="spacing" textLength="79" x="996.5" y="609.0059">&#171;repository&#187;</text><text fill="#000000" font-family="sans-serif" font-size="14" lengthAdjust="spacing" textLength="143" x="964.5" y="627.627">eCourseUserRepsitory</text><path d="M1021,641.1406 C1021,631.1406 1039,631.1406 1039,631.1406 C1039,631.1406 1057,631.1406 1057,641.1406 L1057,667.1406 C1057,677.1406 1039,677.1406 1039,677.1406 C1039,677.1406 1021,677.1406 1021,667.1406 L1021,641.1406 " fill="#E2E2F0" style="stroke:#181818;stroke-width:1.5;"/><path d="M1021,641.1406 C1021,651.1406 1039,651.1406 1039,651.1406 C1039,651.1406 1057,651.1406 1057,641.1406 " fill="none" style="stroke:#181818;stroke-width:1.5;"/><rect fill="#FFFFFF" height="464.3652" style="stroke:#181818;stroke-width:1.0;" width="10" x="31" y="121.5332"/><rect fill="#FFFFFF" height="205.0371" style="stroke:#181818;stroke-width:1.0;" width="10" x="420" y="121.5332"/><rect fill="#FFFFFF" height="219.0371" style="stroke:#181818;stroke-width:1.0;" width="10" x="420" y="357.8613"/><rect fill="#FFFFFF" height="125.1641" style="stroke:#181818;stroke-width:1.0;" width="10" x="585" y="152.8242"/><rect fill="#FFFFFF" height="156.4551" style="stroke:#181818;stroke-width:1.0;" width="10" x="585" y="389.1523"/><rect fill="#FFFFFF" height="93.873" style="stroke:#181818;stroke-width:1.0;" width="10" x="758" y="420.4434"/><rect fill="#FFFFFF" height="31.291" style="stroke:#181818;stroke-width:1.0;" width="10" x="1034" y="215.4063"/><rect fill="#FFFFFF" height="31.291" style="stroke:#181818;stroke-width:1.0;" width="10" x="1034" y="451.7344"/><polygon fill="#181818" points="408,117.5332,418,121.5332,408,125.5332,412,121.5332" style="stroke:#181818;stroke-width:1.0;"/><line style="stroke:#181818;stroke-width:1.0;" x1="41" x2="414" y1="121.5332" y2="121.5332"/><text fill="#000000" font-family="sans-serif" font-size="13" font-weight="bold" lengthAdjust="spacing" textLength="7" x="48" y="116.2705">1</text><text fill="#000000" font-family="sans-serif" font-size="13" lengthAdjust="spacing" textLength="149" x="59" y="116.2705">Starts asking to list users</text><polygon fill="#181818" points="573,148.8242,583,152.8242,573,156.8242,577,152.8242" style="stroke:#181818;stroke-width:1.0;"/><line style="stroke:#181818;stroke-width:1.0;" x1="430" x2="579" y1="152.8242" y2="152.8242"/><text fill="#000000" font-family="sans-serif" font-size="13" font-weight="bold" lengthAdjust="spacing" textLength="7" x="437" y="147.5615">2</text><text fill="#000000" font-family="sans-serif" font-size="13" lengthAdjust="spacing" textLength="125" x="448" y="147.5615">totalNumberOfUsers()</text><polygon fill="#181818" points="881.5,180.1152,891.5,184.1152,881.5,188.1152,885.5,184.1152" style="stroke:#181818;stroke-width:1.0;"/><line style="stroke:#181818;stroke-width:1.0;" x1="595" x2="887.5" y1="184.1152" y2="184.1152"/><text fill="#000000" font-family="sans-serif" font-size="13" font-weight="bold" lengthAdjust="spacing" textLength="7" x="602" y="178.8525">3</text><text fill="#000000" font-family="sans-serif" font-size="13" lengthAdjust="spacing" textLength="4" x="613" y="178.8525">&#160;</text><polygon fill="#181818" points="1022,211.4063,1032,215.4063,1022,219.4063,1026,215.4063" style="stroke:#181818;stroke-width:1.0;"/><line style="stroke:#181818;stroke-width:1.0;" x1="595" x2="1028" y1="215.4063" y2="215.4063"/><text fill="#000000" font-family="sans-serif" font-size="13" font-weight="bold" lengthAdjust="spacing" textLength="7" x="602" y="210.1436">4</text><text fill="#000000" font-family="sans-serif" font-size="13" lengthAdjust="spacing" textLength="117" x="613" y="210.1436">totalNumberOfUsers</text><polygon fill="#181818" points="606,242.6973,596,246.6973,606,250.6973,602,246.6973" style="stroke:#181818;stroke-width:1.0;"/><line style="stroke:#181818;stroke-width:1.0;stroke-dasharray:2.0,2.0;" x1="600" x2="1038" y1="246.6973" y2="246.6973"/><text fill="#000000" font-family="sans-serif" font-size="13" font-weight="bold" lengthAdjust="spacing" textLength="7" x="612" y="241.4346">5</text><text fill="#000000" font-family="sans-serif" font-size="13" lengthAdjust="spacing" textLength="90" x="623" y="241.4346">numberOfUsers</text><polygon fill="#181818" points="441,273.9883,431,277.9883,441,281.9883,437,277.9883" style="stroke:#181818;stroke-width:1.0;"/><line style="stroke:#181818;stroke-width:1.0;stroke-dasharray:2.0,2.0;" x1="435" x2="589" y1="277.9883" y2="277.9883"/><text fill="#000000" font-family="sans-serif" font-size="13" font-weight="bold" lengthAdjust="spacing" textLength="7" x="447" y="272.7256">6</text><text fill="#000000" font-family="sans-serif" font-size="13" lengthAdjust="spacing" textLength="90" x="458" y="272.7256">numberOfUsers</text><polygon fill="#181818" points="52,322.5703,42,326.5703,52,330.5703,48,326.5703" style="stroke:#181818;stroke-width:1.0;"/><line style="stroke:#181818;stroke-width:1.0;stroke-dasharray:2.0,2.0;" x1="46" x2="424" y1="326.5703" y2="326.5703"/><text fill="#000000" font-family="sans-serif" font-size="13" font-weight="bold" lengthAdjust="spacing" textLength="7" x="58" y="312.6621">7</text><text fill="#000000" font-family="sans-serif" font-size="13" lengthAdjust="spacing" textLength="201" x="69" y="304.0166">Shows total number of users in the</text><text fill="#000000" font-family="sans-serif" font-size="13" lengthAdjust="spacing" textLength="203" x="73" y="321.3076">system and asks for a confirmation</text><polygon fill="#181818" points="408,353.8613,418,357.8613,408,361.8613,412,357.8613" style="stroke:#181818;stroke-width:1.0;"/><line style="stroke:#181818;stroke-width:1.0;" x1="41" x2="414" y1="357.8613" y2="357.8613"/><text fill="#000000" font-family="sans-serif" font-size="13" font-weight="bold" lengthAdjust="spacing" textLength="7" x="48" y="352.5986">8</text><text fill="#000000" font-family="sans-serif" font-size="13" lengthAdjust="spacing" textLength="125" x="59" y="352.5986">confirms user's listing</text><polygon fill="#181818" points="573,385.1523,583,389.1523,573,393.1523,577,389.1523" style="stroke:#181818;stroke-width:1.0;"/><line style="stroke:#181818;stroke-width:1.0;" x1="430" x2="579" y1="389.1523" y2="389.1523"/><text fill="#000000" font-family="sans-serif" font-size="13" font-weight="bold" lengthAdjust="spacing" textLength="7" x="437" y="383.8896">9</text><text fill="#000000" font-family="sans-serif" font-size="13" lengthAdjust="spacing" textLength="104" x="448" y="383.8896">listSystemUsers()</text><polygon fill="#181818" points="746,416.4434,756,420.4434,746,424.4434,750,420.4434" style="stroke:#181818;stroke-width:1.0;"/><line style="stroke:#181818;stroke-width:1.0;" x1="595" x2="752" y1="420.4434" y2="420.4434"/><text fill="#000000" font-family="sans-serif" font-size="13" font-weight="bold" lengthAdjust="spacing" textLength="14" x="602" y="415.1807">10</text><text fill="#000000" font-family="sans-serif" font-size="13" lengthAdjust="spacing" textLength="104" x="620" y="415.1807">listSystemUsers()</text><polygon fill="#181818" points="1022,447.7344,1032,451.7344,1022,455.7344,1026,451.7344" style="stroke:#181818;stroke-width:1.0;"/><line style="stroke:#181818;stroke-width:1.0;" x1="768" x2="1028" y1="451.7344" y2="451.7344"/><text fill="#000000" font-family="sans-serif" font-size="13" font-weight="bold" lengthAdjust="spacing" textLength="14" x="775" y="446.4717">11</text><text fill="#000000" font-family="sans-serif" font-size="13" lengthAdjust="spacing" textLength="77" x="793" y="446.4717">findAllUsers()</text><polygon fill="#181818" points="779,479.0254,769,483.0254,779,487.0254,775,483.0254" style="stroke:#181818;stroke-width:1.0;"/><line style="stroke:#181818;stroke-width:1.0;stroke-dasharray:2.0,2.0;" x1="773" x2="1038" y1="483.0254" y2="483.0254"/><text fill="#000000" font-family="sans-serif" font-size="13" font-weight="bold" lengthAdjust="spacing" textLength="14" x="785" y="477.7627">12</text><text fill="#000000" font-family="sans-serif" font-size="13" lengthAdjust="spacing" textLength="121" x="803" y="477.7627">List&lt;User&gt; usersList</text><polygon fill="#181818" points="606,510.3164,596,514.3164,606,518.3164,602,514.3164" style="stroke:#181818;stroke-width:1.0;"/><line style="stroke:#181818;stroke-width:1.0;stroke-dasharray:2.0,2.0;" x1="600" x2="762" y1="514.3164" y2="514.3164"/><text fill="#000000" font-family="sans-serif" font-size="13" font-weight="bold" lengthAdjust="spacing" textLength="14" x="612" y="509.0537">13</text><text fill="#000000" font-family="sans-serif" font-size="13" lengthAdjust="spacing" textLength="121" x="630" y="509.0537">List&lt;User&gt; usersList</text><polygon fill="#181818" points="441,541.6074,431,545.6074,441,549.6074,437,545.6074" style="stroke:#181818;stroke-width:1.0;"/><line style="stroke:#181818;stroke-width:1.0;stroke-dasharray:2.0,2.0;" x1="435" x2="589" y1="545.6074" y2="545.6074"/><text fill="#000000" font-family="sans-serif" font-size="13" font-weight="bold" lengthAdjust="spacing" textLength="14" x="447" y="540.3447">14</text><text fill="#000000" font-family="sans-serif" font-size="13" lengthAdjust="spacing" textLength="53" x="465" y="540.3447">usersList</text><polygon fill="#181818" points="52,572.8984,42,576.8984,52,580.8984,48,576.8984" style="stroke:#181818;stroke-width:1.0;"/><line style="stroke:#181818;stroke-width:1.0;stroke-dasharray:2.0,2.0;" x1="46" x2="424" y1="576.8984" y2="576.8984"/><text fill="#000000" font-family="sans-serif" font-size="13" font-weight="bold" lengthAdjust="spacing" textLength="14" x="58" y="571.6357">15</text><text fill="#000000" font-family="sans-serif" font-size="13" lengthAdjust="spacing" textLength="337" x="76" y="571.6357">Shows user's list and informs the operation was sucsseful!</text><!--SRC=[XP91Q-Cm48Nl-XMplNJtuCqz14Ce50pkBZJerejgZnDHMV9gv9Ry-ux6ZHDtGtinalNcwSqtkZsaDD1wjHgSyMditUycz2l2VoFw1elMcdqqlL9cJC6F_JD6fRPD2X4UZ3TxZ60eBvKQJ4osiGFRmCswjfHsnuIz9eoagvkiqzMNghlWKmpEOHGrRvVoh1RX3kEhRL1KjORDXgOVPQbQayop8OH7709P3dgyDpdlCOllju-iZlFHPG7UXJ4IvWkuTZgNqFIvH76_K9JS3gnXbpWYiV35-Zsa08vJmfXZAhxOlfg40cZUC0MbAwxd1jaWXMJS7q7xjvFsVluwYpC4nP-YvEpJGjEreWj_OdygYdBozmjLYmjTDcJ7wWkP9E2y73ZtpHqVmXjD2Jwg87HJns0zf0F2amSw4iyLZ6yp6uAEduo19lZEnjuaowwNMIgXUeBw8IDnlILXodYN36U8QpdVoOKdW4k2mgtMruIphjPArNh2srdVRftxJpEZpLxvEMwof9oQp_lFVDbGvl2zEbz_diPLoNaIZEeqXmj20jjw9itayXZ2W55Gmni_P1eR8kn6zsD9_Xq0]--></g></svg>