<?xml version="1.0" encoding="us-ascii" standalone="no"?><svg xmlns="http://www.w3.org/2000/svg" xmlns:xlink="http://www.w3.org/1999/xlink" contentStyleType="text/css" height="409px" preserveAspectRatio="none" style="width:385px;height:409px;background:#FFFFFF;" version="1.1" viewBox="0 0 385 409" width="385px" zoomAndPan="magnify"><defs/><g><rect fill="#FFFFFF" height="214.3281" style="stroke:#181818;stroke-width:1.0;" width="10" x="31" y="93.6211"/><rect fill="#FFFFFF" height="31.291" style="stroke:#181818;stroke-width:1.0;" width="10" x="342" y="116.9121"/><rect fill="#FFFFFF" height="48.582" style="stroke:#181818;stroke-width:1.0;" width="10" x="342" y="179.4941"/><rect fill="#FFFFFF" height="48.582" style="stroke:#181818;stroke-width:1.0;" width="10" x="342" y="259.3672"/><line style="stroke:#181818;stroke-width:0.5;stroke-dasharray:5.0,5.0;" x1="36" x2="36" y1="83.6211" y2="325.9492"/><line style="stroke:#181818;stroke-width:0.5;stroke-dasharray:5.0,5.0;" x1="347" x2="347" y1="83.6211" y2="325.9492"/><text fill="#000000" font-family="sans-serif" font-size="14" lengthAdjust="spacing" textLength="56" x="5" y="80.1074">Manager</text><ellipse cx="36" cy="13.5" fill="#E2E2F0" rx="8" ry="8" style="stroke:#181818;stroke-width:0.5;"/><path d="M36,21.5 L36,48.5 M23,29.5 L49,29.5 M36,48.5 L23,63.5 M36,48.5 L49,63.5 " fill="none" style="stroke:#181818;stroke-width:0.5;"/><text fill="#000000" font-family="sans-serif" font-size="14" lengthAdjust="spacing" textLength="56" x="5" y="340.0566">Manager</text><ellipse cx="36" cy="352.0703" fill="#E2E2F0" rx="8" ry="8" style="stroke:#181818;stroke-width:0.5;"/><path d="M36,360.0703 L36,387.0703 M23,368.0703 L49,368.0703 M36,387.0703 L23,402.0703 M36,387.0703 L49,402.0703 " fill="none" style="stroke:#181818;stroke-width:0.5;"/><rect fill="#E2E2F0" height="32.6211" rx="2.5" ry="2.5" style="stroke:#181818;stroke-width:0.5;" width="64" x="315" y="50"/><text fill="#000000" font-family="sans-serif" font-size="14" lengthAdjust="spacing" textLength="50" x="322" y="72.1074">:System</text><rect fill="#E2E2F0" height="32.6211" rx="2.5" ry="2.5" style="stroke:#181818;stroke-width:0.5;" width="64" x="315" y="324.9492"/><text fill="#000000" font-family="sans-serif" font-size="14" lengthAdjust="spacing" textLength="50" x="322" y="347.0566">:System</text><rect fill="#FFFFFF" height="214.3281" style="stroke:#181818;stroke-width:1.0;" width="10" x="31" y="93.6211"/><rect fill="#FFFFFF" height="31.291" style="stroke:#181818;stroke-width:1.0;" width="10" x="342" y="116.9121"/><rect fill="#FFFFFF" height="48.582" style="stroke:#181818;stroke-width:1.0;" width="10" x="342" y="179.4941"/><rect fill="#FFFFFF" height="48.582" style="stroke:#181818;stroke-width:1.0;" width="10" x="342" y="259.3672"/><polygon fill="#181818" points="330,112.9121,340,116.9121,330,120.9121,334,116.9121" style="stroke:#181818;stroke-width:1.0;"/><line style="stroke:#181818;stroke-width:1.0;stroke-dasharray:2.0,2.0;" x1="41" x2="336" y1="116.9121" y2="116.9121"/><text fill="#000000" font-family="sans-serif" font-size="13" font-weight="bold" lengthAdjust="spacing" textLength="7" x="48" y="111.6494">1</text><text fill="#000000" font-family="sans-serif" font-size="13" lengthAdjust="spacing" textLength="217" x="59" y="111.6494">asks to Disable/Enable User Request</text><polygon fill="#181818" points="52,144.2031,42,148.2031,52,152.2031,48,148.2031" style="stroke:#181818;stroke-width:1.0;"/><line style="stroke:#181818;stroke-width:1.0;stroke-dasharray:2.0,2.0;" x1="46" x2="346" y1="148.2031" y2="148.2031"/><text fill="#000000" font-family="sans-serif" font-size="13" font-weight="bold" lengthAdjust="spacing" textLength="7" x="58" y="142.9404">2</text><text fill="#000000" font-family="sans-serif" font-size="13" lengthAdjust="spacing" textLength="98" x="69" y="142.9404">asks for user's id</text><polygon fill="#181818" points="330,175.4941,340,179.4941,330,183.4941,334,179.4941" style="stroke:#181818;stroke-width:1.0;"/><line style="stroke:#181818;stroke-width:1.0;stroke-dasharray:2.0,2.0;" x1="41" x2="336" y1="179.4941" y2="179.4941"/><text fill="#000000" font-family="sans-serif" font-size="13" font-weight="bold" lengthAdjust="spacing" textLength="7" x="48" y="174.2314">3</text><text fill="#000000" font-family="sans-serif" font-size="13" lengthAdjust="spacing" textLength="133" x="59" y="174.2314">types the required data</text><polygon fill="#181818" points="52,224.0762,42,228.0762,52,232.0762,48,228.0762" style="stroke:#181818;stroke-width:1.0;"/><line style="stroke:#181818;stroke-width:1.0;stroke-dasharray:2.0,2.0;" x1="46" x2="346" y1="228.0762" y2="228.0762"/><text fill="#000000" font-family="sans-serif" font-size="13" font-weight="bold" lengthAdjust="spacing" textLength="7" x="58" y="214.168">4</text><text fill="#000000" font-family="sans-serif" font-size="13" lengthAdjust="spacing" textLength="219" x="69" y="205.5225">shows all data that was present in the</text><text fill="#000000" font-family="sans-serif" font-size="13" lengthAdjust="spacing" textLength="203" x="73" y="222.8135">database of the corresponding user</text><polygon fill="#181818" points="330,255.3672,340,259.3672,330,263.3672,334,259.3672" style="stroke:#181818;stroke-width:1.0;"/><line style="stroke:#181818;stroke-width:1.0;stroke-dasharray:2.0,2.0;" x1="41" x2="336" y1="259.3672" y2="259.3672"/><text fill="#000000" font-family="sans-serif" font-size="13" font-weight="bold" lengthAdjust="spacing" textLength="7" x="48" y="254.1045">5</text><text fill="#000000" font-family="sans-serif" font-size="13" lengthAdjust="spacing" textLength="235" x="59" y="254.1045">confirms the user's status to be changed</text><polygon fill="#181818" points="47,303.9492,37,307.9492,47,311.9492,43,307.9492" style="stroke:#181818;stroke-width:1.0;"/><line style="stroke:#181818;stroke-width:1.0;stroke-dasharray:2.0,2.0;" x1="41" x2="346" y1="307.9492" y2="307.9492"/><text fill="#000000" font-family="sans-serif" font-size="13" font-weight="bold" lengthAdjust="spacing" textLength="7" x="53" y="294.041">6</text><text fill="#000000" font-family="sans-serif" font-size="13" lengthAdjust="spacing" textLength="262" x="64" y="285.3955">shows the new status of the user and informs</text><text fill="#000000" font-family="sans-serif" font-size="13" lengthAdjust="spacing" textLength="260" x="68" y="302.6865">user's status has been changed successfully</text><!--SRC=[XP0_KyCm3CNtV0fTbqubUmSc65dWs5WKMqbyE7AmP7hzzYZk7mhNNWUVRTdwlVUq7bLdsRRj796rJF71fQaL-Yh4ZZO-u91nQh1euZ9rb9i6dQOCByWuK0QKvLYhuHkLwitMPlC8g-tRNfIc5MpjtwU09dWAWbsazfcN3Tx56A-BdEW5vDpPd4yBqBWdL6yUYZMl1O9lF5rflMP3zpEPZv4WcsZ8vC6ZOdDN-o0jOze9O8oropYeiBCHp9c4M25mPNzmVUzG259VIovb-pCdze67wlosQVZlsYNkGvuEne-fHL5B7Mbdz15v87yd1lpEy11amJ7jJgoZrKK0aBsbiIcRgiNvApfQv8w8JxeWnJaIwKkC-nkvBilcuGS0]--></g></svg>