<?xml version="1.0" encoding="us-ascii" standalone="no"?><svg xmlns="http://www.w3.org/2000/svg" xmlns:xlink="http://www.w3.org/1999/xlink" contentStyleType="text/css" height="330px" preserveAspectRatio="none" style="width:546px;height:330px;background:#FFFFFF;" version="1.1" viewBox="0 0 546 330" width="546px" zoomAndPan="magnify"><defs/><g><!--entity Manager--><g id="elem_Manager"><ellipse cx="34" cy="114.7627" fill="#F1F1F1" rx="8" ry="8" style="stroke:#181818;stroke-width:0.5;"/><path d="M34,122.7627 L34,149.7627 M21,130.7627 L47,130.7627 M34,149.7627 L21,164.7627 M34,149.7627 L47,164.7627 " fill="none" style="stroke:#181818;stroke-width:0.5;"/><text fill="#000000" font-family="sans-serif" font-size="14" lengthAdjust="spacing" textLength="56" x="6" y="181.3701">Manager</text></g><!--entity Teacher--><g id="elem_Teacher"><ellipse cx="512.5" cy="205.7627" fill="#F1F1F1" rx="8" ry="8" style="stroke:#181818;stroke-width:0.5;"/><path d="M512.5,213.7627 L512.5,240.7627 M499.5,221.7627 L525.5,221.7627 M512.5,240.7627 L499.5,255.7627 M512.5,240.7627 L525.5,255.7627 " fill="none" style="stroke:#181818;stroke-width:0.5;"/><text fill="#000000" font-family="sans-serif" font-size="14" lengthAdjust="spacing" textLength="53" x="486" y="272.3701">Teacher</text></g><!--entity Student--><g id="elem_Student"><ellipse cx="512.5" cy="87.7627" fill="#F1F1F1" rx="8" ry="8" style="stroke:#181818;stroke-width:0.5;"/><path d="M512.5,95.7627 L512.5,122.7627 M499.5,103.7627 L525.5,103.7627 M512.5,122.7627 L499.5,137.7627 M512.5,122.7627 L525.5,137.7627 " fill="none" style="stroke:#181818;stroke-width:0.5;"/><text fill="#000000" font-family="sans-serif" font-size="14" lengthAdjust="spacing" textLength="49" x="488" y="154.3701">Student</text></g><g id="elem_Register users"><ellipse cx="274.1492" cy="153.9925" fill="#F1F1F1" rx="74.1492" ry="17.2298" style="stroke:#181818;stroke-width:0.5;"/><text fill="#000000" font-family="sans-serif" font-size="14" lengthAdjust="spacing" textLength="92" x="225.1492" y="158.7962">Register users</text></g><g id="elem_Disable/Enable users"><ellipse cx="273.9552" cy="45.6537" fill="#F1F1F1" rx="89.9552" ry="20.391" style="stroke:#181818;stroke-width:0.5;"/><text fill="#000000" font-family="sans-serif" font-size="14" lengthAdjust="spacing" textLength="134" x="203.9552" y="50.4574">Disable/Enable users</text></g><g id="elem_List users"><ellipse cx="274.0187" cy="251.6594" fill="#F1F1F1" rx="55.5187" ry="16.3967" style="stroke:#181818;stroke-width:0.5;"/><text fill="#000000" font-family="sans-serif" font-size="14" lengthAdjust="spacing" textLength="61" x="240.5187" y="256.4631">List users</text></g><!--link Manager to Register users--><g id="link_Manager_Register users"><path d="M62.42,145.6027 C86.55,145.5527 122.61,145.7027 154,146.7627 C169.82,147.2927 186.82,148.1327 202.87,149.0427 " fill="none" id="Manager-Register users" style="stroke:#181818;stroke-width:1.0;"/></g><!--link Register users to Manager--><g id="link_Register users_Manager"><path d="M227.87,167.0927 C190.95,176.0127 137.58,184.3527 92,173.7627 C83.55,171.7927 74.91,168.3927 67,164.6227 " fill="none" id="Register users-to-Manager" style="stroke:#181818;stroke-width:1.0;stroke-dasharray:7.0,7.0;"/><polygon fill="#181818" points="62.17,162.2427,68.4601,169.8212,66.6507,164.4616,72.0103,162.6521,62.17,162.2427" style="stroke:#181818;stroke-width:1.0;"/><text fill="#000000" font-family="sans-serif" font-size="13" lengthAdjust="spacing" textLength="60" x="93" y="169.791">&#171;extends&#187;</text></g><!--link Manager to Disable/Enable users--><g id="link_Manager_Disable/Enable users"><path d="M46.94,106.0927 C55.7,84.4727 69.97,59.5727 92,46.7627 C127.17,26.2927 173.08,26.2827 209.86,31.2627 " fill="none" id="Manager-Disable/Enable users" style="stroke:#181818;stroke-width:1.0;"/></g><!--link Disable/Enable users to Manager--><g id="link_Disable/Enable users_Manager"><path d="M228.16,63.5127 C191.41,78.2027 138.12,99.8227 92,119.7627 C83.9,123.2627 75.2,127.1627 67.11,130.8427 " fill="none" id="Disable/Enable users-to-Manager" style="stroke:#181818;stroke-width:1.0;stroke-dasharray:7.0,7.0;"/><polygon fill="#181818" points="62.16,133.1027,72.0085,133.0199,66.7118,131.0337,68.6981,125.737,62.16,133.1027" style="stroke:#181818;stroke-width:1.0;"/><text fill="#000000" font-family="sans-serif" font-size="13" lengthAdjust="spacing" textLength="60" x="93" y="90.791">&#171;extends&#187;</text></g><!--link Manager to List users--><g id="link_Manager_List users"><path d="M62.19,167.0227 C71.34,173.5727 81.82,180.4527 92,185.7627 C138.26,209.8927 195.36,229.1227 232.9,240.4627 " fill="none" id="Manager-List users" style="stroke:#181818;stroke-width:1.0;"/></g><!--link List users to Manager--><g id="link_List users_Manager"><path d="M225.2,259.6627 C186.48,263.5527 131.97,263.0627 92,238.7627 C73.8,227.6927 60.59,208.4027 51.5,190.2427 " fill="none" id="List users-to-Manager" style="stroke:#181818;stroke-width:1.0;stroke-dasharray:7.0,7.0;"/><polygon fill="#181818" points="49.28,185.6627,49.6141,195.5059,51.4645,190.1602,56.8102,192.0107,49.28,185.6627" style="stroke:#181818;stroke-width:1.0;"/><text fill="#000000" font-family="sans-serif" font-size="13" lengthAdjust="spacing" textLength="60" x="93" y="234.791">&#171;extends&#187;</text></g><!--link Register users to Teacher--><g id="link_Register users_Teacher"><path d="M297.72,170.0127 C315.73,182.9127 341.52,201.4327 364,217.7627 C377.38,227.4727 378.29,234.6127 394,239.7627 C422.24,249.0027 456.38,246.7627 480.57,243.1027 " fill="none" id="Register users-to-Teacher" style="stroke:#181818;stroke-width:1.0;stroke-dasharray:7.0,7.0;"/><polygon fill="#181818" points="485.57,242.3127,476.0525,239.7795,480.6324,243.0999,477.312,247.6797,485.57,242.3127" style="stroke:#181818;stroke-width:1.0;"/><text fill="#000000" font-family="sans-serif" font-size="13" lengthAdjust="spacing" textLength="60" x="395" y="235.791">&#171;extends&#187;</text></g><!--link Register users to Student--><g id="link_Register users_Student"><path d="M336.52,144.6527 C383.61,137.6827 446.43,128.3927 482.58,123.0427 " fill="none" id="Register users-to-Student" style="stroke:#181818;stroke-width:1.0;stroke-dasharray:7.0,7.0;"/><polygon fill="#181818" points="487.71,122.2827,478.2229,119.6379,482.7634,123.0118,479.3895,127.5523,487.71,122.2827" style="stroke:#181818;stroke-width:1.0;"/><text fill="#000000" font-family="sans-serif" font-size="13" lengthAdjust="spacing" textLength="60" x="395" y="122.791">&#171;extends&#187;</text></g><!--link Disable/Enable users to Teacher--><g id="link_Disable/Enable users_Teacher"><path d="M341.92,59.3027 C386.16,69.4427 439.03,84.1827 456,99.7627 C482.76,124.3127 472.33,142.1227 486,175.7627 C488.19,181.1627 490.52,186.8227 492.84,192.4227 " fill="none" id="Disable/Enable users-to-Teacher" style="stroke:#181818;stroke-width:1.0;stroke-dasharray:7.0,7.0;"/><polygon fill="#181818" points="494.79,197.1027,495.0467,187.2572,492.8791,192.4823,487.654,190.3147,494.79,197.1027" style="stroke:#181818;stroke-width:1.0;"/><text fill="#000000" font-family="sans-serif" font-size="13" lengthAdjust="spacing" textLength="60" x="395" y="70.791">&#171;extends&#187;</text></g><!--link Disable/Enable users to Student--><g id="link_Disable/Enable users_Student"><path d="M332.02,30.0427 C369.34,22.9727 418.06,20.0427 456,39.7627 C470.57,47.3327 482.11,60.6627 490.81,74.2527 " fill="none" id="Disable/Enable users-to-Student" style="stroke:#181818;stroke-width:1.0;stroke-dasharray:7.0,7.0;"/><polygon fill="#181818" points="493.65,78.8627,492.3489,69.1002,491.0335,74.602,485.5317,73.2866,493.65,78.8627" style="stroke:#181818;stroke-width:1.0;"/><text fill="#000000" font-family="sans-serif" font-size="13" lengthAdjust="spacing" textLength="60" x="395" y="21.791">&#171;extends&#187;</text></g><!--link List users to Teacher--><g id="link_List users_Teacher"><path d="M297.24,266.7827 C332.2,288.3827 401.61,323.0727 456,298.7627 C465.86,294.3527 474.7,287.2327 482.26,279.3527 " fill="none" id="List users-to-Teacher" style="stroke:#181818;stroke-width:1.0;stroke-dasharray:7.0,7.0;"/><polygon fill="#181818" points="485.87,275.4427,476.8282,279.3472,482.4804,279.1184,482.7092,284.7706,485.87,275.4427" style="stroke:#181818;stroke-width:1.0;"/><text fill="#000000" font-family="sans-serif" font-size="13" lengthAdjust="spacing" textLength="60" x="395" y="294.791">&#171;extends&#187;</text></g><!--link List users to Student--><g id="link_List users_Student"><path d="M306.75,238.2727 C343.71,222.0627 406.06,193.0927 456,161.7627 C465.41,155.8627 475.14,148.7127 483.79,141.9527 " fill="none" id="List users-to-Student" style="stroke:#181818;stroke-width:1.0;stroke-dasharray:7.0,7.0;"/><polygon fill="#181818" points="487.94,138.6727,478.3969,141.1077,484.0149,141.77,483.3526,147.3879,487.94,138.6727" style="stroke:#181818;stroke-width:1.0;"/><text fill="#000000" font-family="sans-serif" font-size="13" lengthAdjust="spacing" textLength="60" x="395" y="157.791">&#171;extends&#187;</text></g><!--SRC=[ZP2n3i8W48Ptdk8ssw5bRvfEkkcYli19pvQ4qWQkYOzlJT2e5U82-U7xkIziUkR9Lr9E1YtFWodLECZPKw5mMLgDdSD124DN1Xx1wQvdQBKZnNgq0XMF3WveiICNqfbGzQzquhaboq8428e2iYDrslCIbadEvnztM-tnOaZkx6FxHUoNxlDSVBy5PTb05XnogA2kwSPaMzyq4JWe_WS7aHNyKpijawZ4b1ALcDZRRwLrLc1COWL6Hjy1]--></g></svg>