<?xml version="1.0" encoding="us-ascii" standalone="no"?><svg xmlns="http://www.w3.org/2000/svg" xmlns:xlink="http://www.w3.org/1999/xlink" contentStyleType="text/css" height="1161px" preserveAspectRatio="none" style="width:1102px;height:1161px;background:#FFFFFF;" version="1.1" viewBox="0 0 1102 1161" width="1102px" zoomAndPan="magnify"><defs/><g><!--class ChangePostItController--><g id="elem_ChangePostItController"><rect codeLine="7" fill="#F1F1F1" height="122.4844" id="ChangePostItController" rx="2.5" ry="2.5" style="stroke:#181818;stroke-width:0.5;" width="260" x="357.5" y="254"/><ellipse cx="409.75" cy="270" fill="#ADD1B2" rx="11" ry="11" style="stroke:#181818;stroke-width:1.0;"/><path d="M412.5156,265.875 Q412.6719,265.6563 412.8594,265.5469 Q413.0469,265.4375 413.2656,265.4375 Q413.6406,265.4375 413.875,265.7031 Q414.1094,265.9531 414.1094,266.5625 L414.1094,268.0156 Q414.1094,268.625 413.875,268.8906 Q413.6406,269.1563 413.2656,269.1563 Q412.9219,269.1563 412.7188,268.9531 Q412.5156,268.7656 412.4063,268.25 Q412.3594,267.8906 412.1719,267.7031 Q411.8438,267.3281 411.2344,267.1094 Q410.625,266.8906 410,266.8906 Q409.2344,266.8906 408.5938,267.2188 Q407.9688,267.5469 407.4688,268.2969 Q406.9844,269.0469 406.9844,270.0781 L406.9844,271.1719 Q406.9844,272.4063 407.875,273.2344 Q408.7656,274.0469 410.3594,274.0469 Q411.2969,274.0469 411.9531,273.7969 Q412.3438,273.6406 412.7656,273.2031 Q413.0313,272.9375 413.1719,272.8594 Q413.3281,272.7813 413.5313,272.7813 Q413.8594,272.7813 414.1094,273.0469 Q414.375,273.2969 414.375,273.6406 Q414.375,273.9844 414.0313,274.3906 Q413.5313,274.9688 412.7344,275.2969 Q411.6563,275.75 410.3594,275.75 Q408.8438,275.75 407.6406,275.125 Q406.6563,274.625 405.9688,273.5625 Q405.2813,272.4844 405.2813,271.2031 L405.2813,270.0469 Q405.2813,268.7188 405.8906,267.5781 Q406.5156,266.4219 407.6094,265.8125 Q408.7031,265.1875 409.9375,265.1875 Q410.6719,265.1875 411.3125,265.3594 Q411.9688,265.5156 412.5156,265.875 Z " fill="#000000"/><text fill="#000000" font-family="sans-serif" font-size="14" lengthAdjust="spacing" textLength="147" x="430.25" y="275.7969">ChangePostItController</text><line style="stroke:#181818;stroke-width:0.5;" x1="358.5" x2="616.5" y1="286" y2="286"/><line style="stroke:#181818;stroke-width:0.5;" x1="358.5" x2="616.5" y1="294" y2="294"/><ellipse cx="368.5" cy="308.8105" fill="#84BE84" rx="3" ry="3" style="stroke:#038048;stroke-width:1.0;"/><text fill="#000000" font-family="sans-serif" font-size="14" lengthAdjust="spacing" textLength="234" x="377.5" y="313.1074">getUserBoards(): List&lt;SharedBoard&gt;</text><ellipse cx="368.5" cy="327.4316" fill="#84BE84" rx="3" ry="3" style="stroke:#038048;stroke-width:1.0;"/><text fill="#000000" font-family="sans-serif" font-size="14" lengthAdjust="spacing" textLength="208" x="377.5" y="331.7285">getBoard(boardId): SharedBoard</text><ellipse cx="368.5" cy="346.0527" fill="#84BE84" rx="3" ry="3" style="stroke:#038048;stroke-width:1.0;"/><text fill="#000000" font-family="sans-serif" font-size="14" lengthAdjust="spacing" textLength="134" x="377.5" y="350.3496">changePostIt(): postIt</text><ellipse cx="368.5" cy="364.6738" fill="#84BE84" rx="3" ry="3" style="stroke:#038048;stroke-width:1.0;"/><text fill="#000000" font-family="sans-serif" font-size="14" lengthAdjust="spacing" textLength="217" x="377.5" y="368.9707">saveShareBoard(boardId, postItId)</text></g><!--class BoardRepository--><g id="elem_BoardRepository"><rect codeLine="14" fill="#F1F1F1" height="66.6211" id="BoardRepository" rx="2.5" ry="2.5" style="stroke:#181818;stroke-width:0.5;" width="165" x="554" y="905"/><ellipse cx="581.15" cy="921" fill="#B4A7E5" rx="11" ry="11" style="stroke:#181818;stroke-width:1.0;"/><path d="M582.1031,917.6406 L582.1031,924.2969 L583.8219,924.2969 Q584.4313,924.2969 584.6969,924.5313 Q584.9625,924.7656 584.9625,925.1563 Q584.9625,925.5313 584.6969,925.7656 Q584.4313,926 583.8219,926 L578.6813,926 Q578.0719,926 577.8063,925.7656 Q577.5406,925.5313 577.5406,925.1406 Q577.5406,924.7656 577.8063,924.5313 Q578.0719,924.2969 578.6813,924.2969 L580.4,924.2969 L580.4,917.6406 L578.6813,917.6406 Q578.0719,917.6406 577.8063,917.4063 Q577.5406,917.1719 577.5406,916.7813 Q577.5406,916.4063 577.8063,916.1719 Q578.0719,915.9375 578.6813,915.9375 L583.8219,915.9375 Q584.4313,915.9375 584.6969,916.1719 Q584.9625,916.4063 584.9625,916.7813 Q584.9625,917.1719 584.6969,917.4063 Q584.4313,917.6406 583.8219,917.6406 L582.1031,917.6406 Z " fill="#000000"/><text fill="#000000" font-family="sans-serif" font-size="14" font-style="italic" lengthAdjust="spacing" textLength="106" x="597.85" y="926.7969">BoardRepository</text><line style="stroke:#181818;stroke-width:0.5;" x1="555" x2="718" y1="937" y2="937"/><line style="stroke:#181818;stroke-width:0.5;" x1="555" x2="718" y1="945" y2="945"/><ellipse cx="565" cy="959.8105" fill="#84BE84" rx="3" ry="3" style="stroke:#038048;stroke-width:1.0;"/><text fill="#000000" font-family="sans-serif" font-size="14" lengthAdjust="spacing" textLength="139" x="574" y="964.1074">findByCode( boardid )</text></g><!--class BoardChangesRepository--><g id="elem_BoardChangesRepository"><rect codeLine="17" fill="#F1F1F1" height="66.6211" id="BoardChangesRepository" rx="2.5" ry="2.5" style="stroke:#181818;stroke-width:0.5;" width="245" x="164" y="1088"/><ellipse cx="201.5" cy="1104" fill="#B4A7E5" rx="11" ry="11" style="stroke:#181818;stroke-width:1.0;"/><path d="M202.4531,1100.6406 L202.4531,1107.2969 L204.1719,1107.2969 Q204.7813,1107.2969 205.0469,1107.5313 Q205.3125,1107.7656 205.3125,1108.1563 Q205.3125,1108.5313 205.0469,1108.7656 Q204.7813,1109 204.1719,1109 L199.0313,1109 Q198.4219,1109 198.1563,1108.7656 Q197.8906,1108.5313 197.8906,1108.1406 Q197.8906,1107.7656 198.1563,1107.5313 Q198.4219,1107.2969 199.0313,1107.2969 L200.75,1107.2969 L200.75,1100.6406 L199.0313,1100.6406 Q198.4219,1100.6406 198.1563,1100.4063 Q197.8906,1100.1719 197.8906,1099.7813 Q197.8906,1099.4063 198.1563,1099.1719 Q198.4219,1098.9375 199.0313,1098.9375 L204.1719,1098.9375 Q204.7813,1098.9375 205.0469,1099.1719 Q205.3125,1099.4063 205.3125,1099.7813 Q205.3125,1100.1719 205.0469,1100.4063 Q204.7813,1100.6406 204.1719,1100.6406 L202.4531,1100.6406 Z " fill="#000000"/><text fill="#000000" font-family="sans-serif" font-size="14" font-style="italic" lengthAdjust="spacing" textLength="163" x="220.5" y="1109.7969">BoardChangesRepository</text><line style="stroke:#181818;stroke-width:0.5;" x1="165" x2="408" y1="1120" y2="1120"/><line style="stroke:#181818;stroke-width:0.5;" x1="165" x2="408" y1="1128" y2="1128"/><ellipse cx="175" cy="1142.8105" fill="#84BE84" rx="3" ry="3" style="stroke:#038048;stroke-width:1.0;"/><text fill="#000000" font-family="sans-serif" font-size="14" lengthAdjust="spacing" textLength="219" x="184" y="1147.1074">getBoardPreviousContent( Board )</text></g><!--class EventPublisher--><g id="elem_EventPublisher"><rect codeLine="20" fill="#F1F1F1" height="66.6211" id="EventPublisher" rx="2.5" ry="2.5" style="stroke:#181818;stroke-width:0.5;" width="126" x="73.5" y="670.5"/><ellipse cx="88.5" cy="686.5" fill="#B4A7E5" rx="11" ry="11" style="stroke:#181818;stroke-width:1.0;"/><path d="M89.4531,683.1406 L89.4531,689.7969 L91.1719,689.7969 Q91.7813,689.7969 92.0469,690.0313 Q92.3125,690.2656 92.3125,690.6563 Q92.3125,691.0313 92.0469,691.2656 Q91.7813,691.5 91.1719,691.5 L86.0313,691.5 Q85.4219,691.5 85.1563,691.2656 Q84.8906,691.0313 84.8906,690.6406 Q84.8906,690.2656 85.1563,690.0313 Q85.4219,689.7969 86.0313,689.7969 L87.75,689.7969 L87.75,683.1406 L86.0313,683.1406 Q85.4219,683.1406 85.1563,682.9063 Q84.8906,682.6719 84.8906,682.2813 Q84.8906,681.9063 85.1563,681.6719 Q85.4219,681.4375 86.0313,681.4375 L91.1719,681.4375 Q91.7813,681.4375 92.0469,681.6719 Q92.3125,681.9063 92.3125,682.2813 Q92.3125,682.6719 92.0469,682.9063 Q91.7813,683.1406 91.1719,683.1406 L89.4531,683.1406 Z " fill="#000000"/><text fill="#000000" font-family="sans-serif" font-size="14" font-style="italic" lengthAdjust="spacing" textLength="94" x="102.5" y="692.2969">EventPublisher</text><line style="stroke:#181818;stroke-width:0.5;" x1="74.5" x2="198.5" y1="702.5" y2="702.5"/><line style="stroke:#181818;stroke-width:0.5;" x1="74.5" x2="198.5" y1="710.5" y2="710.5"/><ellipse cx="84.5" cy="725.3105" fill="#84BE84" rx="3" ry="3" style="stroke:#038048;stroke-width:1.0;"/><text fill="#000000" font-family="sans-serif" font-size="14" lengthAdjust="spacing" textLength="98" x="93.5" y="729.6074">publish( event )</text></g><!--class BoardChangedEvent--><g id="elem_BoardChangedEvent"><rect codeLine="23" fill="#F1F1F1" height="48" id="BoardChangedEvent" rx="2.5" ry="2.5" style="stroke:#181818;stroke-width:0.5;" width="164" x="305.5" y="680"/><ellipse cx="320.5" cy="696" fill="#ADD1B2" rx="11" ry="11" style="stroke:#181818;stroke-width:1.0;"/><path d="M323.2656,691.875 Q323.4219,691.6563 323.6094,691.5469 Q323.7969,691.4375 324.0156,691.4375 Q324.3906,691.4375 324.625,691.7031 Q324.8594,691.9531 324.8594,692.5625 L324.8594,694.0156 Q324.8594,694.625 324.625,694.8906 Q324.3906,695.1563 324.0156,695.1563 Q323.6719,695.1563 323.4688,694.9531 Q323.2656,694.7656 323.1563,694.25 Q323.1094,693.8906 322.9219,693.7031 Q322.5938,693.3281 321.9844,693.1094 Q321.375,692.8906 320.75,692.8906 Q319.9844,692.8906 319.3438,693.2188 Q318.7188,693.5469 318.2188,694.2969 Q317.7344,695.0469 317.7344,696.0781 L317.7344,697.1719 Q317.7344,698.4063 318.625,699.2344 Q319.5156,700.0469 321.1094,700.0469 Q322.0469,700.0469 322.7031,699.7969 Q323.0938,699.6406 323.5156,699.2031 Q323.7813,698.9375 323.9219,698.8594 Q324.0781,698.7813 324.2813,698.7813 Q324.6094,698.7813 324.8594,699.0469 Q325.125,699.2969 325.125,699.6406 Q325.125,699.9844 324.7813,700.3906 Q324.2813,700.9688 323.4844,701.2969 Q322.4063,701.75 321.1094,701.75 Q319.5938,701.75 318.3906,701.125 Q317.4063,700.625 316.7188,699.5625 Q316.0313,698.4844 316.0313,697.2031 L316.0313,696.0469 Q316.0313,694.7188 316.6406,693.5781 Q317.2656,692.4219 318.3594,691.8125 Q319.4531,691.1875 320.6875,691.1875 Q321.4219,691.1875 322.0625,691.3594 Q322.7188,691.5156 323.2656,691.875 Z " fill="#000000"/><text fill="#000000" font-family="sans-serif" font-size="14" lengthAdjust="spacing" textLength="132" x="334.5" y="701.7969">BoardChangedEvent</text><line style="stroke:#181818;stroke-width:0.5;" x1="306.5" x2="468.5" y1="712" y2="712"/><line style="stroke:#181818;stroke-width:0.5;" x1="306.5" x2="468.5" y1="720" y2="720"/></g><!--class BoardChanges--><g id="elem_BoardChanges"><rect codeLine="26" fill="#F1F1F1" height="122.4844" id="BoardChanges" rx="2.5" ry="2.5" style="stroke:#181818;stroke-width:0.5;" width="127" x="324" y="877.5"/><ellipse cx="339" cy="893.5" fill="#ADD1B2" rx="11" ry="11" style="stroke:#181818;stroke-width:1.0;"/><path d="M341.7656,889.375 Q341.9219,889.1563 342.1094,889.0469 Q342.2969,888.9375 342.5156,888.9375 Q342.8906,888.9375 343.125,889.2031 Q343.3594,889.4531 343.3594,890.0625 L343.3594,891.5156 Q343.3594,892.125 343.125,892.3906 Q342.8906,892.6563 342.5156,892.6563 Q342.1719,892.6563 341.9688,892.4531 Q341.7656,892.2656 341.6563,891.75 Q341.6094,891.3906 341.4219,891.2031 Q341.0938,890.8281 340.4844,890.6094 Q339.875,890.3906 339.25,890.3906 Q338.4844,890.3906 337.8438,890.7188 Q337.2188,891.0469 336.7188,891.7969 Q336.2344,892.5469 336.2344,893.5781 L336.2344,894.6719 Q336.2344,895.9063 337.125,896.7344 Q338.0156,897.5469 339.6094,897.5469 Q340.5469,897.5469 341.2031,897.2969 Q341.5938,897.1406 342.0156,896.7031 Q342.2813,896.4375 342.4219,896.3594 Q342.5781,896.2813 342.7813,896.2813 Q343.1094,896.2813 343.3594,896.5469 Q343.625,896.7969 343.625,897.1406 Q343.625,897.4844 343.2813,897.8906 Q342.7813,898.4688 341.9844,898.7969 Q340.9063,899.25 339.6094,899.25 Q338.0938,899.25 336.8906,898.625 Q335.9063,898.125 335.2188,897.0625 Q334.5313,895.9844 334.5313,894.7031 L334.5313,893.5469 Q334.5313,892.2188 335.1406,891.0781 Q335.7656,889.9219 336.8594,889.3125 Q337.9531,888.6875 339.1875,888.6875 Q339.9219,888.6875 340.5625,888.8594 Q341.2188,889.0156 341.7656,889.375 Z " fill="#000000"/><text fill="#000000" font-family="sans-serif" font-size="14" lengthAdjust="spacing" textLength="95" x="353" y="899.2969">BoardChanges</text><line style="stroke:#181818;stroke-width:0.5;" x1="325" x2="450" y1="909.5" y2="909.5"/><ellipse cx="335" cy="924.3105" fill="#000000" rx="3" ry="3" style="stroke:#000000;stroke-width:1.0;"/><text fill="#000000" font-family="sans-serif" font-size="14" lengthAdjust="spacing" textLength="11" x="344" y="928.6074">id</text><ellipse cx="335" cy="942.9316" fill="#000000" rx="3" ry="3" style="stroke:#000000;stroke-width:1.0;"/><text fill="#000000" font-family="sans-serif" font-size="14" lengthAdjust="spacing" textLength="28" x="344" y="947.2285">date</text><ellipse cx="335" cy="961.5527" fill="#000000" rx="3" ry="3" style="stroke:#000000;stroke-width:1.0;"/><text fill="#000000" font-family="sans-serif" font-size="14" lengthAdjust="spacing" textLength="95" x="344" y="965.8496">BoardChanges</text><ellipse cx="335" cy="980.1738" fill="#000000" rx="3" ry="3" style="stroke:#000000;stroke-width:1.0;"/><text fill="#000000" font-family="sans-serif" font-size="14" lengthAdjust="spacing" textLength="47" x="344" y="984.4707">content</text><line style="stroke:#181818;stroke-width:0.5;" x1="325" x2="450" y1="991.9844" y2="991.9844"/></g><!--class Board--><g id="elem_Board"><rect codeLine="32" fill="#F1F1F1" height="169.6484" id="Board" rx="2.5" ry="2.5" style="stroke:#181818;stroke-width:0.5;" width="271" x="576" y="619"/><ellipse cx="687.75" cy="649.2715" fill="#ADD1B2" rx="11" ry="11" style="stroke:#181818;stroke-width:1.0;"/><path d="M690.5156,645.1465 Q690.6719,644.9277 690.8594,644.8184 Q691.0469,644.709 691.2656,644.709 Q691.6406,644.709 691.875,644.9746 Q692.1094,645.2246 692.1094,645.834 L692.1094,647.2871 Q692.1094,647.8965 691.875,648.1621 Q691.6406,648.4277 691.2656,648.4277 Q690.9219,648.4277 690.7188,648.2246 Q690.5156,648.0371 690.4063,647.5215 Q690.3594,647.1621 690.1719,646.9746 Q689.8438,646.5996 689.2344,646.3809 Q688.625,646.1621 688,646.1621 Q687.2344,646.1621 686.5938,646.4902 Q685.9688,646.8184 685.4688,647.5684 Q684.9844,648.3184 684.9844,649.3496 L684.9844,650.4434 Q684.9844,651.6777 685.875,652.5059 Q686.7656,653.3184 688.3594,653.3184 Q689.2969,653.3184 689.9531,653.0684 Q690.3438,652.9121 690.7656,652.4746 Q691.0313,652.209 691.1719,652.1309 Q691.3281,652.0527 691.5313,652.0527 Q691.8594,652.0527 692.1094,652.3184 Q692.375,652.5684 692.375,652.9121 Q692.375,653.2559 692.0313,653.6621 Q691.5313,654.2402 690.7344,654.5684 Q689.6563,655.0215 688.3594,655.0215 Q686.8438,655.0215 685.6406,654.3965 Q684.6563,653.8965 683.9688,652.834 Q683.2813,651.7559 683.2813,650.4746 L683.2813,649.3184 Q683.2813,647.9902 683.8906,646.8496 Q684.5156,645.6934 685.6094,645.084 Q686.7031,644.459 687.9375,644.459 Q688.6719,644.459 689.3125,644.6309 Q689.9688,644.7871 690.5156,645.1465 Z " fill="#000000"/><text fill="#000000" font-family="sans-serif" font-size="12" font-style="italic" lengthAdjust="spacing" textLength="35" x="710.25" y="636.9492">&#171;root&#187;</text><text fill="#000000" font-family="sans-serif" font-size="12" font-style="italic" lengthAdjust="spacing" textLength="43" x="706.25" y="652.9102">&#171;entity&#187;</text><text fill="#000000" font-family="sans-serif" font-size="14" lengthAdjust="spacing" textLength="38" x="708.75" y="671.0293">Board</text><line style="stroke:#181818;stroke-width:0.5;" x1="577" x2="846" y1="679.543" y2="679.543"/><ellipse cx="587" cy="694.3535" fill="#000000" rx="3" ry="3" style="stroke:#000000;stroke-width:1.0;"/><text fill="#000000" font-family="sans-serif" font-size="14" lengthAdjust="spacing" textLength="245" x="596" y="698.6504">id &#171;unique&#187; &#171;automatically generated&#187;</text><ellipse cx="587" cy="712.9746" fill="#000000" rx="3" ry="3" style="stroke:#000000;stroke-width:1.0;"/><text fill="#000000" font-family="sans-serif" font-size="14" lengthAdjust="spacing" textLength="73" x="596" y="717.2715">boardName</text><ellipse cx="587" cy="731.5957" fill="#000000" rx="3" ry="3" style="stroke:#000000;stroke-width:1.0;"/><text fill="#000000" font-family="sans-serif" font-size="14" lengthAdjust="spacing" textLength="59" x="596" y="735.8926">maxRows</text><ellipse cx="587" cy="750.2168" fill="#000000" rx="3" ry="3" style="stroke:#000000;stroke-width:1.0;"/><text fill="#000000" font-family="sans-serif" font-size="14" lengthAdjust="spacing" textLength="80" x="596" y="754.5137">maxColumns</text><line style="stroke:#181818;stroke-width:0.5;" x1="577" x2="846" y1="762.0273" y2="762.0273"/><ellipse cx="587" cy="776.8379" fill="#84BE84" rx="3" ry="3" style="stroke:#038048;stroke-width:1.0;"/><text fill="#000000" font-family="sans-serif" font-size="14" lengthAdjust="spacing" textLength="208" x="596" y="781.1348">updateCell(content, row, column)</text></g><!--class PostIt--><g id="elem_PostIt"><rect codeLine="40" fill="#F1F1F1" height="141.1055" id="PostIt" rx="2.5" ry="2.5" style="stroke:#181818;stroke-width:0.5;" width="75" x="887" y="868"/><ellipse cx="905.6" cy="884" fill="#ADD1B2" rx="11" ry="11" style="stroke:#181818;stroke-width:1.0;"/><path d="M908.3656,879.875 Q908.5219,879.6563 908.7094,879.5469 Q908.8969,879.4375 909.1156,879.4375 Q909.4906,879.4375 909.725,879.7031 Q909.9594,879.9531 909.9594,880.5625 L909.9594,882.0156 Q909.9594,882.625 909.725,882.8906 Q909.4906,883.1563 909.1156,883.1563 Q908.7719,883.1563 908.5688,882.9531 Q908.3656,882.7656 908.2563,882.25 Q908.2094,881.8906 908.0219,881.7031 Q907.6938,881.3281 907.0844,881.1094 Q906.475,880.8906 905.85,880.8906 Q905.0844,880.8906 904.4438,881.2188 Q903.8188,881.5469 903.3188,882.2969 Q902.8344,883.0469 902.8344,884.0781 L902.8344,885.1719 Q902.8344,886.4063 903.725,887.2344 Q904.6156,888.0469 906.2094,888.0469 Q907.1469,888.0469 907.8031,887.7969 Q908.1938,887.6406 908.6156,887.2031 Q908.8813,886.9375 909.0219,886.8594 Q909.1781,886.7813 909.3813,886.7813 Q909.7094,886.7813 909.9594,887.0469 Q910.225,887.2969 910.225,887.6406 Q910.225,887.9844 909.8813,888.3906 Q909.3813,888.9688 908.5844,889.2969 Q907.5063,889.75 906.2094,889.75 Q904.6938,889.75 903.4906,889.125 Q902.5063,888.625 901.8188,887.5625 Q901.1313,886.4844 901.1313,885.2031 L901.1313,884.0469 Q901.1313,882.7188 901.7406,881.5781 Q902.3656,880.4219 903.4594,879.8125 Q904.5531,879.1875 905.7875,879.1875 Q906.5219,879.1875 907.1625,879.3594 Q907.8188,879.5156 908.3656,879.875 Z " fill="#000000"/><text fill="#000000" font-family="sans-serif" font-size="14" lengthAdjust="spacing" textLength="35" x="920.4" y="889.7969">PostIt</text><line style="stroke:#181818;stroke-width:0.5;" x1="888" x2="961" y1="900" y2="900"/><ellipse cx="898" cy="914.8105" fill="#000000" rx="3" ry="3" style="stroke:#000000;stroke-width:1.0;"/><text fill="#000000" font-family="sans-serif" font-size="14" lengthAdjust="spacing" textLength="11" x="907" y="919.1074">id</text><ellipse cx="898" cy="933.4316" fill="#000000" rx="3" ry="3" style="stroke:#000000;stroke-width:1.0;"/><text fill="#000000" font-family="sans-serif" font-size="14" lengthAdjust="spacing" textLength="22" x="907" y="937.7285">title</text><ellipse cx="898" cy="952.0527" fill="#000000" rx="3" ry="3" style="stroke:#000000;stroke-width:1.0;"/><text fill="#000000" font-family="sans-serif" font-size="14" lengthAdjust="spacing" textLength="47" x="907" y="956.3496">content</text><ellipse cx="898" cy="970.6738" fill="#000000" rx="3" ry="3" style="stroke:#000000;stroke-width:1.0;"/><text fill="#000000" font-family="sans-serif" font-size="14" lengthAdjust="spacing" textLength="31" x="907" y="974.9707">color</text><ellipse cx="898" cy="989.2949" fill="#000000" rx="3" ry="3" style="stroke:#000000;stroke-width:1.0;"/><text fill="#000000" font-family="sans-serif" font-size="14" lengthAdjust="spacing" textLength="49" x="907" y="993.5918">position</text><line style="stroke:#181818;stroke-width:0.5;" x1="888" x2="961" y1="1001.1055" y2="1001.1055"/></g><!--class Content--><g id="elem_Content"><rect codeLine="48" fill="#F1F1F1" height="66.6211" id="Content" rx="2.5" ry="2.5" style="stroke:#181818;stroke-width:0.5;" width="220" x="875.5" y="1088"/><ellipse cx="956.25" cy="1104" fill="#ADD1B2" rx="11" ry="11" style="stroke:#181818;stroke-width:1.0;"/><path d="M959.0156,1099.875 Q959.1719,1099.6563 959.3594,1099.5469 Q959.5469,1099.4375 959.7656,1099.4375 Q960.1406,1099.4375 960.375,1099.7031 Q960.6094,1099.9531 960.6094,1100.5625 L960.6094,1102.0156 Q960.6094,1102.625 960.375,1102.8906 Q960.1406,1103.1563 959.7656,1103.1563 Q959.4219,1103.1563 959.2188,1102.9531 Q959.0156,1102.7656 958.9063,1102.25 Q958.8594,1101.8906 958.6719,1101.7031 Q958.3438,1101.3281 957.7344,1101.1094 Q957.125,1100.8906 956.5,1100.8906 Q955.7344,1100.8906 955.0938,1101.2188 Q954.4688,1101.5469 953.9688,1102.2969 Q953.4844,1103.0469 953.4844,1104.0781 L953.4844,1105.1719 Q953.4844,1106.4063 954.375,1107.2344 Q955.2656,1108.0469 956.8594,1108.0469 Q957.7969,1108.0469 958.4531,1107.7969 Q958.8438,1107.6406 959.2656,1107.2031 Q959.5313,1106.9375 959.6719,1106.8594 Q959.8281,1106.7813 960.0313,1106.7813 Q960.3594,1106.7813 960.6094,1107.0469 Q960.875,1107.2969 960.875,1107.6406 Q960.875,1107.9844 960.5313,1108.3906 Q960.0313,1108.9688 959.2344,1109.2969 Q958.1563,1109.75 956.8594,1109.75 Q955.3438,1109.75 954.1406,1109.125 Q953.1563,1108.625 952.4688,1107.5625 Q951.7813,1106.4844 951.7813,1105.2031 L951.7813,1104.0469 Q951.7813,1102.7188 952.3906,1101.5781 Q953.0156,1100.4219 954.1094,1099.8125 Q955.2031,1099.1875 956.4375,1099.1875 Q957.1719,1099.1875 957.8125,1099.3594 Q958.4688,1099.5156 959.0156,1099.875 Z " fill="#000000"/><text fill="#000000" font-family="sans-serif" font-size="14" lengthAdjust="spacing" textLength="50" x="976.75" y="1109.7969">Content</text><line style="stroke:#181818;stroke-width:0.5;" x1="876.5" x2="1094.5" y1="1120" y2="1120"/><line style="stroke:#181818;stroke-width:0.5;" x1="876.5" x2="1094.5" y1="1128" y2="1128"/><ellipse cx="886.5" cy="1142.8105" fill="#84BE84" rx="3" ry="3" style="stroke:#038048;stroke-width:1.0;"/><text fill="#000000" font-family="sans-serif" font-size="14" lengthAdjust="spacing" textLength="194" x="895.5" y="1147.1074">updatePostItContent( content )</text></g><!--class eCourseSystemUser--><g id="elem_eCourseSystemUser"><rect codeLine="54" fill="#F1F1F1" height="76.543" id="eCourseSystemUser" rx="2.5" ry="2.5" style="stroke:#181818;stroke-width:0.5;" width="161" x="722" y="7"/><ellipse cx="737" cy="37.2715" fill="#ADD1B2" rx="11" ry="11" style="stroke:#181818;stroke-width:1.0;"/><path d="M739.7656,33.1465 Q739.9219,32.9277 740.1094,32.8184 Q740.2969,32.709 740.5156,32.709 Q740.8906,32.709 741.125,32.9746 Q741.3594,33.2246 741.3594,33.834 L741.3594,35.2871 Q741.3594,35.8965 741.125,36.1621 Q740.8906,36.4277 740.5156,36.4277 Q740.1719,36.4277 739.9688,36.2246 Q739.7656,36.0371 739.6563,35.5215 Q739.6094,35.1621 739.4219,34.9746 Q739.0938,34.5996 738.4844,34.3809 Q737.875,34.1621 737.25,34.1621 Q736.4844,34.1621 735.8438,34.4902 Q735.2188,34.8184 734.7188,35.5684 Q734.2344,36.3184 734.2344,37.3496 L734.2344,38.4434 Q734.2344,39.6777 735.125,40.5059 Q736.0156,41.3184 737.6094,41.3184 Q738.5469,41.3184 739.2031,41.0684 Q739.5938,40.9121 740.0156,40.4746 Q740.2813,40.209 740.4219,40.1309 Q740.5781,40.0527 740.7813,40.0527 Q741.1094,40.0527 741.3594,40.3184 Q741.625,40.5684 741.625,40.9121 Q741.625,41.2559 741.2813,41.6621 Q740.7813,42.2402 739.9844,42.5684 Q738.9063,43.0215 737.6094,43.0215 Q736.0938,43.0215 734.8906,42.3965 Q733.9063,41.8965 733.2188,40.834 Q732.5313,39.7559 732.5313,38.4746 L732.5313,37.3184 Q732.5313,35.9902 733.1406,34.8496 Q733.7656,33.6934 734.8594,33.084 Q735.9531,32.459 737.1875,32.459 Q737.9219,32.459 738.5625,32.6309 Q739.2188,32.7871 739.7656,33.1465 Z " fill="#000000"/><text fill="#000000" font-family="sans-serif" font-size="12" font-style="italic" lengthAdjust="spacing" textLength="35" x="798" y="24.9492">&#171;root&#187;</text><text fill="#000000" font-family="sans-serif" font-size="12" font-style="italic" lengthAdjust="spacing" textLength="44" x="793.5" y="40.9102">&#171;Entity&#187;</text><text fill="#000000" font-family="sans-serif" font-size="14" lengthAdjust="spacing" textLength="129" x="751" y="59.0293">eCourseSystemUser</text><line style="stroke:#181818;stroke-width:0.5;" x1="723" x2="882" y1="67.543" y2="67.543"/><line style="stroke:#181818;stroke-width:0.5;" x1="723" x2="882" y1="75.543" y2="75.543"/></g><!--class UndoLastChangePostItController--><g id="elem_UndoLastChangePostItController"><rect codeLine="56" fill="#F1F1F1" height="66.6211" id="UndoLastChangePostItController" rx="2.5" ry="2.5" style="stroke:#181818;stroke-width:0.5;" width="315" x="7" y="281.5"/><ellipse cx="56.75" cy="297.5" fill="#ADD1B2" rx="11" ry="11" style="stroke:#181818;stroke-width:1.0;"/><path d="M59.5156,293.375 Q59.6719,293.1563 59.8594,293.0469 Q60.0469,292.9375 60.2656,292.9375 Q60.6406,292.9375 60.875,293.2031 Q61.1094,293.4531 61.1094,294.0625 L61.1094,295.5156 Q61.1094,296.125 60.875,296.3906 Q60.6406,296.6563 60.2656,296.6563 Q59.9219,296.6563 59.7188,296.4531 Q59.5156,296.2656 59.4063,295.75 Q59.3594,295.3906 59.1719,295.2031 Q58.8438,294.8281 58.2344,294.6094 Q57.625,294.3906 57,294.3906 Q56.2344,294.3906 55.5938,294.7188 Q54.9688,295.0469 54.4688,295.7969 Q53.9844,296.5469 53.9844,297.5781 L53.9844,298.6719 Q53.9844,299.9063 54.875,300.7344 Q55.7656,301.5469 57.3594,301.5469 Q58.2969,301.5469 58.9531,301.2969 Q59.3438,301.1406 59.7656,300.7031 Q60.0313,300.4375 60.1719,300.3594 Q60.3281,300.2813 60.5313,300.2813 Q60.8594,300.2813 61.1094,300.5469 Q61.375,300.7969 61.375,301.1406 Q61.375,301.4844 61.0313,301.8906 Q60.5313,302.4688 59.7344,302.7969 Q58.6563,303.25 57.3594,303.25 Q55.8438,303.25 54.6406,302.625 Q53.6563,302.125 52.9688,301.0625 Q52.2813,299.9844 52.2813,298.7031 L52.2813,297.5469 Q52.2813,296.2188 52.8906,295.0781 Q53.5156,293.9219 54.6094,293.3125 Q55.7031,292.6875 56.9375,292.6875 Q57.6719,292.6875 58.3125,292.8594 Q58.9688,293.0156 59.5156,293.375 Z " fill="#000000"/><text fill="#000000" font-family="sans-serif" font-size="14" lengthAdjust="spacing" textLength="207" x="77.25" y="303.2969">UndoLastChangePostItController</text><line style="stroke:#181818;stroke-width:0.5;" x1="8" x2="321" y1="313.5" y2="313.5"/><line style="stroke:#181818;stroke-width:0.5;" x1="8" x2="321" y1="321.5" y2="321.5"/><ellipse cx="18" cy="336.3105" fill="#84BE84" rx="3" ry="3" style="stroke:#038048;stroke-width:1.0;"/><text fill="#000000" font-family="sans-serif" font-size="14" lengthAdjust="spacing" textLength="289" x="27" y="340.6074">undoLastChangePostIt( boardId, row, column)</text></g><!--class UndoLastChangePostItService--><g id="elem_UndoLastChangePostItService"><rect codeLine="59" fill="#F1F1F1" height="85.2422" id="UndoLastChangePostItService" rx="2.5" ry="2.5" style="stroke:#181818;stroke-width:0.5;" width="405" x="98" y="455"/><ellipse cx="200.25" cy="471" fill="#ADD1B2" rx="11" ry="11" style="stroke:#181818;stroke-width:1.0;"/><path d="M203.0156,466.875 Q203.1719,466.6563 203.3594,466.5469 Q203.5469,466.4375 203.7656,466.4375 Q204.1406,466.4375 204.375,466.7031 Q204.6094,466.9531 204.6094,467.5625 L204.6094,469.0156 Q204.6094,469.625 204.375,469.8906 Q204.1406,470.1563 203.7656,470.1563 Q203.4219,470.1563 203.2188,469.9531 Q203.0156,469.7656 202.9063,469.25 Q202.8594,468.8906 202.6719,468.7031 Q202.3438,468.3281 201.7344,468.1094 Q201.125,467.8906 200.5,467.8906 Q199.7344,467.8906 199.0938,468.2188 Q198.4688,468.5469 197.9688,469.2969 Q197.4844,470.0469 197.4844,471.0781 L197.4844,472.1719 Q197.4844,473.4063 198.375,474.2344 Q199.2656,475.0469 200.8594,475.0469 Q201.7969,475.0469 202.4531,474.7969 Q202.8438,474.6406 203.2656,474.2031 Q203.5313,473.9375 203.6719,473.8594 Q203.8281,473.7813 204.0313,473.7813 Q204.3594,473.7813 204.6094,474.0469 Q204.875,474.2969 204.875,474.6406 Q204.875,474.9844 204.5313,475.3906 Q204.0313,475.9688 203.2344,476.2969 Q202.1563,476.75 200.8594,476.75 Q199.3438,476.75 198.1406,476.125 Q197.1563,475.625 196.4688,474.5625 Q195.7813,473.4844 195.7813,472.2031 L195.7813,471.0469 Q195.7813,469.7188 196.3906,468.5781 Q197.0156,467.4219 198.1094,466.8125 Q199.2031,466.1875 200.4375,466.1875 Q201.1719,466.1875 201.8125,466.3594 Q202.4688,466.5156 203.0156,466.875 Z " fill="#000000"/><text fill="#000000" font-family="sans-serif" font-size="14" lengthAdjust="spacing" textLength="192" x="220.75" y="476.7969">UndoLastChangePostItService</text><line style="stroke:#181818;stroke-width:0.5;" x1="99" x2="502" y1="487" y2="487"/><line style="stroke:#181818;stroke-width:0.5;" x1="99" x2="502" y1="495" y2="495"/><ellipse cx="109" cy="509.8105" fill="#84BE84" rx="3" ry="3" style="stroke:#038048;stroke-width:1.0;"/><text fill="#000000" font-family="sans-serif" font-size="14" lengthAdjust="spacing" textLength="379" x="118" y="514.1074">undoLastChangePostIt( boardId, row, column, sessionEmail)</text><ellipse cx="109" cy="528.4316" fill="#84BE84" rx="3" ry="3" style="stroke:#038048;stroke-width:1.0;"/><text fill="#000000" font-family="sans-serif" font-size="14" lengthAdjust="spacing" textLength="320" x="118" y="532.7285">undoLastChangePostItSync( boardId, row, column)</text></g><!--class UndoLastChangePostItUI--><g id="elem_UndoLastChangePostItUI"><rect fill="#F1F1F1" height="48" id="UndoLastChangePostItUI" rx="2.5" ry="2.5" style="stroke:#181818;stroke-width:0.5;" width="189" x="393" y="145"/><ellipse cx="408" cy="161" fill="#ADD1B2" rx="11" ry="11" style="stroke:#181818;stroke-width:1.0;"/><path d="M410.7656,156.875 Q410.9219,156.6563 411.1094,156.5469 Q411.2969,156.4375 411.5156,156.4375 Q411.8906,156.4375 412.125,156.7031 Q412.3594,156.9531 412.3594,157.5625 L412.3594,159.0156 Q412.3594,159.625 412.125,159.8906 Q411.8906,160.1563 411.5156,160.1563 Q411.1719,160.1563 410.9688,159.9531 Q410.7656,159.7656 410.6563,159.25 Q410.6094,158.8906 410.4219,158.7031 Q410.0938,158.3281 409.4844,158.1094 Q408.875,157.8906 408.25,157.8906 Q407.4844,157.8906 406.8438,158.2188 Q406.2188,158.5469 405.7188,159.2969 Q405.2344,160.0469 405.2344,161.0781 L405.2344,162.1719 Q405.2344,163.4063 406.125,164.2344 Q407.0156,165.0469 408.6094,165.0469 Q409.5469,165.0469 410.2031,164.7969 Q410.5938,164.6406 411.0156,164.2031 Q411.2813,163.9375 411.4219,163.8594 Q411.5781,163.7813 411.7813,163.7813 Q412.1094,163.7813 412.3594,164.0469 Q412.625,164.2969 412.625,164.6406 Q412.625,164.9844 412.2813,165.3906 Q411.7813,165.9688 410.9844,166.2969 Q409.9063,166.75 408.6094,166.75 Q407.0938,166.75 405.8906,166.125 Q404.9063,165.625 404.2188,164.5625 Q403.5313,163.4844 403.5313,162.2031 L403.5313,161.0469 Q403.5313,159.7188 404.1406,158.5781 Q404.7656,157.4219 405.8594,156.8125 Q406.9531,156.1875 408.1875,156.1875 Q408.9219,156.1875 409.5625,156.3594 Q410.2188,156.5156 410.7656,156.875 Z " fill="#000000"/><text fill="#000000" font-family="sans-serif" font-size="14" lengthAdjust="spacing" textLength="157" x="422" y="166.7969">UndoLastChangePostItUI</text><line style="stroke:#181818;stroke-width:0.5;" x1="394" x2="581" y1="177" y2="177"/><line style="stroke:#181818;stroke-width:0.5;" x1="394" x2="581" y1="185" y2="185"/></g><!--link eCourseSystemUser to Board--><g id="link_eCourseSystemUser_Board"><path codeLine="66" d="M738.61,84.21 C712.14,104.99 687.5,133.58 687.5,168 C687.5,168 687.5,168 687.5,498.5 C687.5,536.32 691.6,577.81 696.41,613.47 " fill="none" id="eCourseSystemUser-to-Board" style="stroke:#181818;stroke-width:1.0;"/><polygon fill="#181818" points="697.12,618.69,699.8758,609.2346,696.4489,613.7352,691.9482,610.3083,697.12,618.69" style="stroke:#181818;stroke-width:1.0;"/><polygon fill="#000000" points="692.1026,320.1297,695.7511,311.3468,689.8919,310.8796,692.1026,320.1297" style="stroke:#000000;stroke-width:1.0;"/><text fill="#000000" font-family="sans-serif" font-size="13" lengthAdjust="spacing" textLength="30" x="701.5" y="320.5283">owns</text><text fill="#000000" font-family="sans-serif" font-size="13" lengthAdjust="spacing" textLength="5" x="690.6694" y="607.6841">*</text></g><!--link eCourseSystemUser to Board--><g id="link_eCourseSystemUser_Board"><path codeLine="67" d="M802.5,84.26 C802.5,108.25 802.5,139.95 802.5,168 C802.5,168 802.5,168 802.5,498.5 C802.5,538.48 787.8,579.35 770.22,613.95 " fill="none" id="eCourseSystemUser-to-Board-1" style="stroke:#181818;stroke-width:1.0;"/><polygon fill="#181818" points="767.84,618.57,775.5218,612.4064,770.1329,614.1267,768.4125,608.7378,767.84,618.57" style="stroke:#181818;stroke-width:1.0;"/><polygon fill="#000000" points="807.8041,310.1548,804.3205,319.0043,810.1874,319.3619,807.8041,310.1548" style="stroke:#000000;stroke-width:1.0;"/><text fill="#000000" font-family="sans-serif" font-size="13" lengthAdjust="spacing" textLength="54" x="816.5" y="320.5283">shared to</text><text fill="#000000" font-family="sans-serif" font-size="13" lengthAdjust="spacing" textLength="5" x="767.2986" y="607.8463">*</text></g><!--link Board to PostIt--><g id="link_Board_PostIt"><path codeLine="68" d="M788.7,789.27 C820.72,824.22 856.56,863.35 883.39,892.62 " fill="none" id="Board-to-PostIt" style="stroke:#181818;stroke-width:1.0;"/><polygon fill="#181818" points="886.94,896.51,883.8169,887.1694,883.5653,892.8207,877.914,892.569,886.94,896.51" style="stroke:#181818;stroke-width:1.0;"/><polygon fill="#000000" points="838.8777,832.3321,834.9343,823.6776,830.6004,827.6483,838.8777,832.3321" style="stroke:#000000;stroke-width:1.0;"/><text fill="#000000" font-family="sans-serif" font-size="13" lengthAdjust="spacing" textLength="21" x="844.5" y="834.0283">has</text><text fill="#000000" font-family="sans-serif" font-size="13" lengthAdjust="spacing" textLength="5" x="874.0532" y="883.6164">*</text></g><!--link eCourseSystemUser to PostIt--><g id="link_eCourseSystemUser_PostIt"><path codeLine="70" d="M871.34,84.13 C899.02,104.64 924.5,133.03 924.5,168 C924.5,168 924.5,168 924.5,705 C924.5,757.66 924.5,817.04 924.5,862.6 " fill="none" id="eCourseSystemUser-to-PostIt" style="stroke:#181818;stroke-width:1.0;"/><polygon fill="#181818" points="924.5,867.81,928.5,858.81,924.5,862.81,920.5,858.81,924.5,867.81" style="stroke:#181818;stroke-width:1.0;"/><polygon fill="#000000" points="929.8406,420.6339,932.1565,411.4096,926.2923,411.81,929.8406,420.6339" style="stroke:#000000;stroke-width:1.0;"/><text fill="#000000" font-family="sans-serif" font-size="13" lengthAdjust="spacing" textLength="57" x="938.5" y="421.0283">updates a</text><text fill="#000000" font-family="sans-serif" font-size="13" lengthAdjust="spacing" textLength="5" x="919.2422" y="856.6814">*</text></g><!--link eCourseSystemUser to Content--><g id="link_eCourseSystemUser_Content"><path codeLine="72" d="M883.3,58.43 C945,72.65 1019.5,103.23 1019.5,168 C1019.5,168 1019.5,168 1019.5,939.5 C1019.5,989.63 1006.75,1046.25 996.86,1082.6 " fill="none" id="eCourseSystemUser-to-Content" style="stroke:#181818;stroke-width:1.0;"/><polygon fill="#181818" points="995.43,1087.82,1001.6801,1080.2084,996.7601,1083.0002,993.9683,1078.0802,995.43,1087.82" style="stroke:#181818;stroke-width:1.0;"/><polygon fill="#000000" points="1025.051,502.6151,1026.9752,493.3012,1021.1332,493.9489,1025.051,502.6151" style="stroke:#000000;stroke-width:1.0;"/><text fill="#000000" font-family="sans-serif" font-size="13" lengthAdjust="spacing" textLength="57" x="1033.5" y="503.0283">updates a</text><text fill="#000000" font-family="sans-serif" font-size="13" lengthAdjust="spacing" textLength="5" x="991.8928" y="1076.6101">*</text></g><!--link eCourseSystemUser to UndoLastChangePostItUI--><g id="link_eCourseSystemUser_UndoLastChangePostItUI"><path codeLine="74" d="M721.79,77.63 C667.47,98.58 597.01,125.76 547.61,144.82 " fill="none" id="eCourseSystemUser-UndoLastChangePostItUI" style="stroke:#181818;stroke-width:1.0;stroke-dasharray:7.0,7.0;"/></g><!--link UndoLastChangePostItUI to ChangePostItController--><g id="link_UndoLastChangePostItUI_ChangePostItController"><path codeLine="75" d="M487.5,193.14 C487.5,209.59 487.5,232.5 487.5,253.95 " fill="none" id="UndoLastChangePostItUI-ChangePostItController" style="stroke:#181818;stroke-width:1.0;stroke-dasharray:7.0,7.0;"/></g><!--link UndoLastChangePostItUI to UndoLastChangePostItController--><g id="link_UndoLastChangePostItUI_UndoLastChangePostItController"><path codeLine="76" d="M435.6,193.14 C382.02,217.03 297.94,254.51 237.63,281.4 " fill="none" id="UndoLastChangePostItUI-UndoLastChangePostItController" style="stroke:#181818;stroke-width:1.0;stroke-dasharray:7.0,7.0;"/></g><!--link UndoLastChangePostItController to UndoLastChangePostItService--><g id="link_UndoLastChangePostItController_UndoLastChangePostItService"><path codeLine="81" d="M189.13,348.69 C211.56,378.45 244.79,422.56 269.11,454.84 " fill="none" id="UndoLastChangePostItController-UndoLastChangePostItService" style="stroke:#181818;stroke-width:1.0;stroke-dasharray:7.0,7.0;"/></g><!--link UndoLastChangePostItService to BoardRepository--><g id="link_UndoLastChangePostItService_BoardRepository"><path codeLine="82" d="M387.93,540.14 C422.56,560.08 460.48,586.72 487.5,619 C540.06,681.78 523.65,714.91 558.5,789 C577.59,829.58 601.94,875.08 618.31,904.89 " fill="none" id="UndoLastChangePostItService-BoardRepository" style="stroke:#181818;stroke-width:1.0;stroke-dasharray:7.0,7.0;"/></g><!--link UndoLastChangePostItService to BoardChangesRepository--><g id="link_UndoLastChangePostItService_BoardChangesRepository"><path codeLine="83" d="M294.9,540.24 C292.07,563.39 288.94,592.74 287.5,619 C277.82,795.7 282.88,1007.94 285.38,1087.9 " fill="none" id="UndoLastChangePostItService-BoardChangesRepository" style="stroke:#181818;stroke-width:1.0;stroke-dasharray:7.0,7.0;"/></g><!--link UndoLastChangePostItService to Board--><g id="link_UndoLastChangePostItService_Board"><path codeLine="84" d="M477.72,540.03 C502.12,548.47 526.37,558.41 548.5,570 C573.74,583.22 598.73,600.73 621.28,618.69 " fill="none" id="UndoLastChangePostItService-Board" style="stroke:#181818;stroke-width:1.0;stroke-dasharray:7.0,7.0;"/></g><!--link PostIt to Content--><g id="link_PostIt_Content"><path codeLine="85" d="M948,1009.22 C957.13,1036.31 967.14,1066.02 974.52,1087.93 " fill="none" id="PostIt-Content" style="stroke:#181818;stroke-width:1.0;stroke-dasharray:7.0,7.0;"/><text fill="#000000" font-family="sans-serif" font-size="13" lengthAdjust="spacing" textLength="7" x="942.9688" y="1031.0557">1</text><text fill="#000000" font-family="sans-serif" font-size="13" lengthAdjust="spacing" textLength="7" x="964.6693" y="1076.7417">1</text></g><!--link Board to BoardChanges--><g id="link_Board_BoardChanges"><path codeLine="86" d="M594.07,789.27 C545.9,823.83 492.02,862.49 451.37,891.66 " fill="none" id="Board-BoardChanges" style="stroke:#181818;stroke-width:1.0;stroke-dasharray:7.0,7.0;"/><text fill="#000000" font-family="sans-serif" font-size="13" lengthAdjust="spacing" textLength="7" x="577.4334" y="810.7962">1</text><text fill="#000000" font-family="sans-serif" font-size="13" lengthAdjust="spacing" textLength="5" x="459.044" y="882.2785">*</text></g><!--link BoardChanges to BoardChangesRepository--><g id="link_BoardChanges_BoardChangesRepository"><path codeLine="88" d="M354.01,999.52 C337.59,1028.95 318.45,1063.25 304.75,1087.8 " fill="none" id="BoardChanges-BoardChangesRepository" style="stroke:#181818;stroke-width:1.0;stroke-dasharray:7.0,7.0;"/><text fill="#000000" font-family="sans-serif" font-size="13" lengthAdjust="spacing" textLength="25" x="332.5" y="1054.0283">repo</text></g><!--link Board to BoardRepository--><g id="link_Board_BoardRepository"><path codeLine="89" d="M684.32,789.27 C671.41,829.29 656.72,874.8 647.07,904.72 " fill="none" id="Board-BoardRepository" style="stroke:#181818;stroke-width:1.0;stroke-dasharray:7.0,7.0;"/><text fill="#000000" font-family="sans-serif" font-size="13" lengthAdjust="spacing" textLength="25" x="674.5" y="834.0283">repo</text></g><!--link BoardChangedEvent to BoardChanges--><g id="link_BoardChangedEvent_BoardChanges"><path codeLine="90" d="M387.5,728.14 C387.5,762.6 387.5,828.56 387.5,877.27 " fill="none" id="BoardChangedEvent-BoardChanges" style="stroke:#181818;stroke-width:1.0;stroke-dasharray:7.0,7.0;"/><text fill="#000000" font-family="sans-serif" font-size="13" lengthAdjust="spacing" textLength="7" x="379.6469" y="750.1598">1</text><text fill="#000000" font-family="sans-serif" font-size="13" lengthAdjust="spacing" textLength="7" x="380.0953" y="866.2246">1</text></g><!--link EventPublisher to BoardChangedEvent--><g id="link_EventPublisher_BoardChangedEvent"><path codeLine="91" d="M199.51,704 C231.61,704 271.02,704 305.45,704 " fill="none" id="EventPublisher-BoardChangedEvent" style="stroke:#181818;stroke-width:1.0;stroke-dasharray:7.0,7.0;"/><text fill="#000000" font-family="sans-serif" font-size="13" lengthAdjust="spacing" textLength="55" x="225" y="697.0283">publishes</text></g><!--link UndoLastChangePostItService to BoardChangedEvent--><g id="link_UndoLastChangePostItService_BoardChangedEvent"><path codeLine="92" d="M318.32,540.38 C336.26,582.56 363.3,646.1 377.68,679.92 " fill="none" id="UndoLastChangePostItService-BoardChangedEvent" style="stroke:#181818;stroke-width:1.0;stroke-dasharray:7.0,7.0;"/><text fill="#000000" font-family="sans-serif" font-size="13" lengthAdjust="spacing" textLength="43" x="340.5" y="585.0283">creates</text></g><!--link UndoLastChangePostItService to EventPublisher--><g id="link_UndoLastChangePostItService_EventPublisher"><path codeLine="93" d="M254.37,540.18 C244.77,549.63 235,559.88 226.5,570 C199.42,602.23 172.97,642.71 155.83,670.5 " fill="none" id="UndoLastChangePostItService-EventPublisher" style="stroke:#181818;stroke-width:1.0;stroke-dasharray:7.0,7.0;"/></g><!--SRC=[bLJDZjem4BxxAImk3Lj-r6k4SjY80zAgGeju06yy2vOSExKTQ8JwxhKTXmGIigmFCFPyyyrlviVHc4B7osN1YJ1bpXUPp9SP9rhFAIC7HNA4Z2omaVX36YDpJ9c2p30fa3qUYTCZ4GVOIcqs9fN2ACavA7n1s9wV-01chq6zIgAeZgOnVcFQh7P7ee3wnwG5-dlquNutr48xg03AEiuSMU6beDJa1DxaXcSMG9OH_KE82GFgasI0FUeTh9OPgQfhn9zCqDSgbHGYx3aOnSxqphBEMmyGD9bi5PoOBBMh2WWJrNPtNEkJLMtB3yxqiLEsedw9C3YzjwdBtV5DlUt5PTNJwPhe1JCQ14eC1B6B2qzP7UEj6xnQAIbDabZ1AfcfhDWIszTIi3ybU00fxO0GmpB2UMLh841PZpH90jwNyZV9co1oylTTddLxIoKlSw530Sh21Pm2vr68ROQLFCzif0usRREkfw6NhmsNmrrspOrB5MJVF3VFLxhGhSjD7Eru-qO6Fj-MwuS0gIoLXbsb3UHkvhlbMxVbQqgy5rI-4Ms6Fw2h_m5Kc4itstSbUSoy0tLY6NoVTeOrQ6rBjCu9uzCH-rqbiiUXsTElq7oUuCdB98nRZELPQ9my0TH-DRZDj4BrMuEeOx6G8t5K8rnNPDrZZSauFhJ_QuF5Oh05-mqQVdO6mrCmOZ0-FgxSQ1poY2HC2XhHETExzVaKlBSpdx92eL6JNnFtvlv2AqBh6qKp7yrgGztRuo1YhAmSkFgPTTNTnTkDvyRjtKfVz7TstEntYtw-Ri5jZ3C5Rlo-ChsD0w7_]--></g></svg>