<?xml version="1.0" encoding="us-ascii" standalone="no"?><svg xmlns="http://www.w3.org/2000/svg" xmlns:xlink="http://www.w3.org/1999/xlink" contentStyleType="text/css" height="1671px" preserveAspectRatio="none" style="width:2692px;height:1671px;background:#FFFFFF;" version="1.1" viewBox="0 0 2692 1671" width="2692px" zoomAndPan="magnify"><defs/><g><rect fill="#FFFFFF" height="1441.3008" style="stroke:#181818;stroke-width:1.0;" width="10" x="17.5" y="121.5332"/><rect fill="#FFFFFF" height="383.2012" style="stroke:#181818;stroke-width:1.0;" width="10" x="333.5" y="121.5332"/><rect fill="#FFFFFF" height="245.0371" style="stroke:#181818;stroke-width:1.0;" width="10" x="333.5" y="536.0254"/><rect fill="#FFFFFF" height="741.4805" style="stroke:#181818;stroke-width:1.0;" width="10" x="333.5" y="812.3535"/><rect fill="#FFFFFF" height="276.3281" style="stroke:#181818;stroke-width:1.0;" width="10" x="532.5" y="152.8242"/><rect fill="#FFFFFF" height="138.1641" style="stroke:#181818;stroke-width:1.0;" width="10" x="532.5" y="567.3164"/><rect fill="#FFFFFF" height="678.8984" style="stroke:#181818;stroke-width:1.0;" width="10" x="737.5" y="843.6445"/><rect fill="#FFFFFF" height="31.291" style="stroke:#181818;stroke-width:1.0;" width="10" x="933.5" y="874.9355"/><rect fill="#FFFFFF" height="213.7461" style="stroke:#181818;stroke-width:1.0;" width="10" x="1109" y="184.1152"/><rect fill="#FFFFFF" height="553.7344" style="stroke:#181818;stroke-width:1.0;" width="10" x="1316" y="937.5176"/><rect fill="#FFFFFF" height="290.0371" style="stroke:#181818;stroke-width:1.0;" width="10" x="1321" y="976.8086"/><rect fill="#FFFFFF" height="30" style="stroke:#181818;stroke-width:1.0;" width="10" x="1645" y="1138.2637"/><rect fill="#FFFFFF" height="151.1641" style="stroke:#181818;stroke-width:1.0;" width="10" x="1976" y="215.4063"/><rect fill="#FFFFFF" height="75.582" style="stroke:#181818;stroke-width:1.0;" width="10" x="1976" y="598.6074"/><rect fill="#FFFFFF" height="31.291" style="stroke:#181818;stroke-width:1.0;" width="10" x="1976" y="1013.0996"/><rect fill="#FFFFFF" height="30" style="stroke:#181818;stroke-width:1.0;" width="10" x="1976" y="1199.5547"/><rect fill="#FFFFFF" height="31.291" style="stroke:#181818;stroke-width:1.0;" width="10" x="2164" y="1075.6816"/><rect fill="#FFFFFF" height="30" style="stroke:#181818;stroke-width:1.0;" width="10" x="2514" y="1367.3789"/><rect fill="#FFFFFF" height="31.291" style="stroke:#181818;stroke-width:1.0;" width="10" x="2631" y="1428.6699"/><line style="stroke:#181818;stroke-width:0.5;stroke-dasharray:5.0,5.0;" x1="22" x2="22" y1="88.2422" y2="1571.834"/><line style="stroke:#181818;stroke-width:0.5;stroke-dasharray:5.0,5.0;" x1="338" x2="338" y1="88.2422" y2="1571.834"/><line style="stroke:#181818;stroke-width:0.5;stroke-dasharray:5.0,5.0;" x1="537" x2="537" y1="88.2422" y2="1571.834"/><line style="stroke:#181818;stroke-width:0.5;stroke-dasharray:5.0,5.0;" x1="742" x2="742" y1="88.2422" y2="1571.834"/><line style="stroke:#181818;stroke-width:0.5;stroke-dasharray:5.0,5.0;" x1="938" x2="938" y1="88.2422" y2="1571.834"/><line style="stroke:#181818;stroke-width:0.5;stroke-dasharray:5.0,5.0;" x1="1114" x2="1114" y1="88.2422" y2="1571.834"/><line style="stroke:#181818;stroke-width:0.5;stroke-dasharray:5.0,5.0;" x1="1321" x2="1321" y1="88.2422" y2="1571.834"/><line style="stroke:#181818;stroke-width:0.5;stroke-dasharray:5.0,5.0;" x1="1649.5" x2="1649.5" y1="88.2422" y2="1571.834"/><line style="stroke:#181818;stroke-width:0.5;stroke-dasharray:5.0,5.0;" x1="1753.5" x2="1753.5" y1="88.2422" y2="1571.834"/><line style="stroke:#181818;stroke-width:0.5;stroke-dasharray:5.0,5.0;" x1="1843.5" x2="1843.5" y1="88.2422" y2="1571.834"/><line style="stroke:#181818;stroke-width:0.5;stroke-dasharray:5.0,5.0;" x1="1980.5" x2="1980.5" y1="88.2422" y2="1571.834"/><line style="stroke:#181818;stroke-width:0.5;stroke-dasharray:5.0,5.0;" x1="2168.5" x2="2168.5" y1="88.2422" y2="1571.834"/><line style="stroke:#181818;stroke-width:0.5;stroke-dasharray:5.0,5.0;" x1="2357.5" x2="2357.5" y1="1322.9668" y2="1571.834"/><line style="stroke:#181818;stroke-width:0.5;stroke-dasharray:5.0,5.0;" x1="2518.5" x2="2518.5" y1="88.2422" y2="1571.834"/><line style="stroke:#181818;stroke-width:0.5;stroke-dasharray:5.0,5.0;" x1="2635.5" x2="2635.5" y1="88.2422" y2="1571.834"/><text fill="#000000" font-family="sans-serif" font-size="14" lengthAdjust="spacing" textLength="29" x="5" y="84.7285">User</text><ellipse cx="22.5" cy="18.1211" fill="#E2E2F0" rx="8" ry="8" style="stroke:#181818;stroke-width:0.5;"/><path d="M22.5,26.1211 L22.5,53.1211 M9.5,34.1211 L35.5,34.1211 M22.5,53.1211 L9.5,68.1211 M22.5,53.1211 L35.5,68.1211 " fill="none" style="stroke:#181818;stroke-width:0.5;"/><text fill="#000000" font-family="sans-serif" font-size="14" lengthAdjust="spacing" textLength="29" x="5" y="1585.9414">User</text><ellipse cx="22.5" cy="1597.9551" fill="#E2E2F0" rx="8" ry="8" style="stroke:#181818;stroke-width:0.5;"/><path d="M22.5,1605.9551 L22.5,1632.9551 M9.5,1613.9551 L35.5,1613.9551 M22.5,1632.9551 L9.5,1647.9551 M22.5,1632.9551 L35.5,1647.9551 " fill="none" style="stroke:#181818;stroke-width:0.5;"/><rect fill="#E2E2F0" height="32.6211" rx="2.5" ry="2.5" style="stroke:#181818;stroke-width:0.5;" width="175" x="251" y="54.6211"/><text fill="#000000" font-family="sans-serif" font-size="14" lengthAdjust="spacing" textLength="161" x="258" y="76.7285">:UndoLastChangePostItUI</text><rect fill="#E2E2F0" height="32.6211" rx="2.5" ry="2.5" style="stroke:#181818;stroke-width:0.5;" width="175" x="251" y="1570.834"/><text fill="#000000" font-family="sans-serif" font-size="14" lengthAdjust="spacing" textLength="161" x="258" y="1592.9414">:UndoLastChangePostItUI</text><rect fill="#E2E2F0" height="32.6211" rx="2.5" ry="2.5" style="stroke:#181818;stroke-width:0.5;" width="165" x="455" y="54.6211"/><text fill="#000000" font-family="sans-serif" font-size="14" lengthAdjust="spacing" textLength="151" x="462" y="76.7285">:ChangePostItController</text><rect fill="#E2E2F0" height="32.6211" rx="2.5" ry="2.5" style="stroke:#181818;stroke-width:0.5;" width="165" x="455" y="1570.834"/><text fill="#000000" font-family="sans-serif" font-size="14" lengthAdjust="spacing" textLength="151" x="462" y="1592.9414">:ChangePostItController</text><rect fill="#E2E2F0" height="32.6211" rx="2.5" ry="2.5" style="stroke:#181818;stroke-width:0.5;" width="225" x="630" y="54.6211"/><text fill="#000000" font-family="sans-serif" font-size="14" lengthAdjust="spacing" textLength="211" x="637" y="76.7285">:UndoLastChangePostItController</text><rect fill="#E2E2F0" height="32.6211" rx="2.5" ry="2.5" style="stroke:#181818;stroke-width:0.5;" width="225" x="630" y="1570.834"/><text fill="#000000" font-family="sans-serif" font-size="14" lengthAdjust="spacing" textLength="211" x="637" y="1592.9414">:UndoLastChangePostItController</text><rect fill="#E2E2F0" height="51.2422" rx="2.5" ry="2.5" style="stroke:#181818;stroke-width:0.5;" width="147" x="865" y="36"/><text fill="#000000" font-family="sans-serif" font-size="14" font-style="italic" lengthAdjust="spacing" textLength="60" x="908.5" y="58.1074">&#171;service&#187;</text><text fill="#000000" font-family="sans-serif" font-size="14" lengthAdjust="spacing" textLength="133" x="872" y="76.7285">:AuthorizationService</text><rect fill="#E2E2F0" height="51.2422" rx="2.5" ry="2.5" style="stroke:#181818;stroke-width:0.5;" width="147" x="865" y="1570.834"/><text fill="#000000" font-family="sans-serif" font-size="14" font-style="italic" lengthAdjust="spacing" textLength="60" x="908.5" y="1592.9414">&#171;service&#187;</text><text fill="#000000" font-family="sans-serif" font-size="14" lengthAdjust="spacing" textLength="133" x="872" y="1611.5625">:AuthorizationService</text><rect fill="#E2E2F0" height="51.2422" rx="2.5" ry="2.5" style="stroke:#181818;stroke-width:0.5;" width="184" x="1022" y="36"/><text fill="#000000" font-family="sans-serif" font-size="14" font-style="italic" lengthAdjust="spacing" textLength="60" x="1084" y="58.1074">&#171;service&#187;</text><text fill="#000000" font-family="sans-serif" font-size="14" lengthAdjust="spacing" textLength="170" x="1029" y="76.7285">:UserAccessBoardsService</text><rect fill="#E2E2F0" height="51.2422" rx="2.5" ry="2.5" style="stroke:#181818;stroke-width:0.5;" width="184" x="1022" y="1570.834"/><text fill="#000000" font-family="sans-serif" font-size="14" font-style="italic" lengthAdjust="spacing" textLength="60" x="1084" y="1592.9414">&#171;service&#187;</text><text fill="#000000" font-family="sans-serif" font-size="14" lengthAdjust="spacing" textLength="170" x="1029" y="1611.5625">:UserAccessBoardsService</text><rect fill="#E2E2F0" height="51.2422" rx="2.5" ry="2.5" style="stroke:#181818;stroke-width:0.5;" width="210" x="1216" y="36"/><text fill="#000000" font-family="sans-serif" font-size="14" font-style="italic" lengthAdjust="spacing" textLength="60" x="1291" y="58.1074">&#171;service&#187;</text><text fill="#000000" font-family="sans-serif" font-size="14" lengthAdjust="spacing" textLength="196" x="1223" y="76.7285">:UndoLastChangePostItService</text><rect fill="#E2E2F0" height="51.2422" rx="2.5" ry="2.5" style="stroke:#181818;stroke-width:0.5;" width="210" x="1216" y="1570.834"/><text fill="#000000" font-family="sans-serif" font-size="14" font-style="italic" lengthAdjust="spacing" textLength="60" x="1291" y="1592.9414">&#171;service&#187;</text><text fill="#000000" font-family="sans-serif" font-size="14" lengthAdjust="spacing" textLength="196" x="1223" y="1611.5625">:UndoLastChangePostItService</text><rect fill="#E2E2F0" height="32.6211" rx="2.5" ry="2.5" style="stroke:#181818;stroke-width:0.5;" width="97" x="1601.5" y="54.6211"/><text fill="#000000" font-family="sans-serif" font-size="14" lengthAdjust="spacing" textLength="83" x="1608.5" y="76.7285">board: Board</text><rect fill="#E2E2F0" height="32.6211" rx="2.5" ry="2.5" style="stroke:#181818;stroke-width:0.5;" width="97" x="1601.5" y="1570.834"/><text fill="#000000" font-family="sans-serif" font-size="14" lengthAdjust="spacing" textLength="83" x="1608.5" y="1592.9414">board: Board</text><rect fill="#E2E2F0" height="32.6211" rx="2.5" ry="2.5" style="stroke:#181818;stroke-width:0.5;" width="91" x="1708.5" y="54.6211"/><text fill="#000000" font-family="sans-serif" font-size="14" lengthAdjust="spacing" textLength="77" x="1715.5" y="76.7285">postIt: PostIt</text><rect fill="#E2E2F0" height="32.6211" rx="2.5" ry="2.5" style="stroke:#181818;stroke-width:0.5;" width="91" x="1708.5" y="1570.834"/><text fill="#000000" font-family="sans-serif" font-size="14" lengthAdjust="spacing" textLength="77" x="1715.5" y="1592.9414">postIt: PostIt</text><rect fill="#E2E2F0" height="32.6211" rx="2.5" ry="2.5" style="stroke:#181818;stroke-width:0.5;" width="68" x="1809.5" y="54.6211"/><text fill="#000000" font-family="sans-serif" font-size="14" lengthAdjust="spacing" textLength="54" x="1816.5" y="76.7285">:Content</text><rect fill="#E2E2F0" height="32.6211" rx="2.5" ry="2.5" style="stroke:#181818;stroke-width:0.5;" width="68" x="1809.5" y="1570.834"/><text fill="#000000" font-family="sans-serif" font-size="14" lengthAdjust="spacing" textLength="54" x="1816.5" y="1592.9414">:Content</text><text fill="#000000" font-family="sans-serif" font-size="14" font-style="italic" lengthAdjust="spacing" textLength="79" x="1938.5" y="66.1074">&#171;repository&#187;</text><text fill="#000000" font-family="sans-serif" font-size="14" lengthAdjust="spacing" textLength="181" x="1887.5" y="84.7285">repoBoard :BoardRepository</text><path d="M1963,15 C1963,5 1981,5 1981,5 C1981,5 1999,5 1999,15 L1999,41 C1999,51 1981,51 1981,51 C1981,51 1963,51 1963,41 L1963,15 " fill="#E2E2F0" style="stroke:#181818;stroke-width:1.5;"/><path d="M1963,15 C1963,25 1981,25 1981,25 C1981,25 1999,25 1999,15 " fill="none" style="stroke:#181818;stroke-width:1.5;"/><text fill="#000000" font-family="sans-serif" font-size="14" font-style="italic" lengthAdjust="spacing" textLength="79" x="1938.5" y="1585.9414">&#171;repository&#187;</text><text fill="#000000" font-family="sans-serif" font-size="14" lengthAdjust="spacing" textLength="181" x="1887.5" y="1604.5625">repoBoard :BoardRepository</text><path d="M1963,1618.0762 C1963,1608.0762 1981,1608.0762 1981,1608.0762 C1981,1608.0762 1999,1608.0762 1999,1618.0762 L1999,1644.0762 C1999,1654.0762 1981,1654.0762 1981,1654.0762 C1981,1654.0762 1963,1654.0762 1963,1644.0762 L1963,1618.0762 " fill="#E2E2F0" style="stroke:#181818;stroke-width:1.5;"/><path d="M1963,1618.0762 C1963,1628.0762 1981,1628.0762 1981,1628.0762 C1981,1628.0762 1999,1628.0762 1999,1618.0762 " fill="none" style="stroke:#181818;stroke-width:1.5;"/><text fill="#000000" font-family="sans-serif" font-size="14" font-style="italic" lengthAdjust="spacing" textLength="79" x="2126.5" y="66.1074">&#171;repository&#187;</text><text fill="#000000" font-family="sans-serif" font-size="14" lengthAdjust="spacing" textLength="163" x="2084.5" y="84.7285">BoardChangesRepository</text><path d="M2151,15 C2151,5 2169,5 2169,5 C2169,5 2187,5 2187,15 L2187,41 C2187,51 2169,51 2169,51 C2169,51 2151,51 2151,41 L2151,15 " fill="#E2E2F0" style="stroke:#181818;stroke-width:1.5;"/><path d="M2151,15 C2151,25 2169,25 2169,25 C2169,25 2187,25 2187,15 " fill="none" style="stroke:#181818;stroke-width:1.5;"/><text fill="#000000" font-family="sans-serif" font-size="14" font-style="italic" lengthAdjust="spacing" textLength="79" x="2126.5" y="1585.9414">&#171;repository&#187;</text><text fill="#000000" font-family="sans-serif" font-size="14" lengthAdjust="spacing" textLength="163" x="2084.5" y="1604.5625">BoardChangesRepository</text><path d="M2151,1618.0762 C2151,1608.0762 2169,1608.0762 2169,1608.0762 C2169,1608.0762 2187,1608.0762 2187,1618.0762 L2187,1644.0762 C2187,1654.0762 2169,1654.0762 2169,1654.0762 C2169,1654.0762 2151,1654.0762 2151,1644.0762 L2151,1618.0762 " fill="#E2E2F0" style="stroke:#181818;stroke-width:1.5;"/><path d="M2151,1618.0762 C2151,1628.0762 2169,1628.0762 2169,1628.0762 C2169,1628.0762 2187,1628.0762 2187,1618.0762 " fill="none" style="stroke:#181818;stroke-width:1.5;"/><rect fill="#E2E2F0" height="51.2422" rx="2.5" ry="2.5" style="stroke:#181818;stroke-width:0.5;" width="189" x="2263.5" y="1570.834"/><text fill="#000000" font-family="sans-serif" font-size="14" font-style="italic" lengthAdjust="spacing" textLength="50" x="2333" y="1592.9414">&#171;event&#187;</text><text fill="#000000" font-family="sans-serif" font-size="14" lengthAdjust="spacing" textLength="175" x="2270.5" y="1611.5625">event :BoardChangedEvent</text><rect fill="#E2E2F0" height="51.2422" rx="2.5" ry="2.5" style="stroke:#181818;stroke-width:0.5;" width="113" x="2462.5" y="36"/><text fill="#000000" font-family="sans-serif" font-size="14" font-style="italic" lengthAdjust="spacing" textLength="74" x="2482" y="58.1074">&#171;publisher&#187;</text><text fill="#000000" font-family="sans-serif" font-size="14" lengthAdjust="spacing" textLength="99" x="2469.5" y="76.7285">:EventPublisher</text><rect fill="#E2E2F0" height="51.2422" rx="2.5" ry="2.5" style="stroke:#181818;stroke-width:0.5;" width="113" x="2462.5" y="1570.834"/><text fill="#000000" font-family="sans-serif" font-size="14" font-style="italic" lengthAdjust="spacing" textLength="74" x="2482" y="1592.9414">&#171;publisher&#187;</text><text fill="#000000" font-family="sans-serif" font-size="14" lengthAdjust="spacing" textLength="99" x="2469.5" y="1611.5625">:EventPublisher</text><rect fill="#E2E2F0" height="51.2422" rx="2.5" ry="2.5" style="stroke:#181818;stroke-width:0.5;" width="101" x="2585.5" y="36"/><text fill="#000000" font-family="sans-serif" font-size="14" font-style="italic" lengthAdjust="spacing" textLength="64" x="2604" y="58.1074">&#171;mapper&#187;</text><text fill="#000000" font-family="sans-serif" font-size="14" lengthAdjust="spacing" textLength="87" x="2592.5" y="76.7285">:PostItMapper</text><rect fill="#E2E2F0" height="51.2422" rx="2.5" ry="2.5" style="stroke:#181818;stroke-width:0.5;" width="101" x="2585.5" y="1570.834"/><text fill="#000000" font-family="sans-serif" font-size="14" font-style="italic" lengthAdjust="spacing" textLength="64" x="2604" y="1592.9414">&#171;mapper&#187;</text><text fill="#000000" font-family="sans-serif" font-size="14" lengthAdjust="spacing" textLength="87" x="2592.5" y="1611.5625">:PostItMapper</text><rect fill="#FFFFFF" height="1441.3008" style="stroke:#181818;stroke-width:1.0;" width="10" x="17.5" y="121.5332"/><rect fill="#FFFFFF" height="383.2012" style="stroke:#181818;stroke-width:1.0;" width="10" x="333.5" y="121.5332"/><rect fill="#FFFFFF" height="245.0371" style="stroke:#181818;stroke-width:1.0;" width="10" x="333.5" y="536.0254"/><rect fill="#FFFFFF" height="741.4805" style="stroke:#181818;stroke-width:1.0;" width="10" x="333.5" y="812.3535"/><rect fill="#FFFFFF" height="276.3281" style="stroke:#181818;stroke-width:1.0;" width="10" x="532.5" y="152.8242"/><rect fill="#FFFFFF" height="138.1641" style="stroke:#181818;stroke-width:1.0;" width="10" x="532.5" y="567.3164"/><rect fill="#FFFFFF" height="678.8984" style="stroke:#181818;stroke-width:1.0;" width="10" x="737.5" y="843.6445"/><rect fill="#FFFFFF" height="31.291" style="stroke:#181818;stroke-width:1.0;" width="10" x="933.5" y="874.9355"/><rect fill="#FFFFFF" height="213.7461" style="stroke:#181818;stroke-width:1.0;" width="10" x="1109" y="184.1152"/><rect fill="#FFFFFF" height="553.7344" style="stroke:#181818;stroke-width:1.0;" width="10" x="1316" y="937.5176"/><rect fill="#FFFFFF" height="290.0371" style="stroke:#181818;stroke-width:1.0;" width="10" x="1321" y="976.8086"/><rect fill="#FFFFFF" height="30" style="stroke:#181818;stroke-width:1.0;" width="10" x="1645" y="1138.2637"/><rect fill="#FFFFFF" height="151.1641" style="stroke:#181818;stroke-width:1.0;" width="10" x="1976" y="215.4063"/><rect fill="#FFFFFF" height="75.582" style="stroke:#181818;stroke-width:1.0;" width="10" x="1976" y="598.6074"/><rect fill="#FFFFFF" height="31.291" style="stroke:#181818;stroke-width:1.0;" width="10" x="1976" y="1013.0996"/><rect fill="#FFFFFF" height="30" style="stroke:#181818;stroke-width:1.0;" width="10" x="1976" y="1199.5547"/><rect fill="#FFFFFF" height="31.291" style="stroke:#181818;stroke-width:1.0;" width="10" x="2164" y="1075.6816"/><rect fill="#FFFFFF" height="30" style="stroke:#181818;stroke-width:1.0;" width="10" x="2514" y="1367.3789"/><rect fill="#FFFFFF" height="31.291" style="stroke:#181818;stroke-width:1.0;" width="10" x="2631" y="1428.6699"/><polygon fill="#181818" points="321.5,117.5332,331.5,121.5332,321.5,125.5332,325.5,121.5332" style="stroke:#181818;stroke-width:1.0;"/><line style="stroke:#181818;stroke-width:1.0;" x1="27.5" x2="327.5" y1="121.5332" y2="121.5332"/><text fill="#000000" font-family="sans-serif" font-size="13" font-weight="bold" lengthAdjust="spacing" textLength="7" x="34.5" y="116.2705">1</text><text fill="#000000" font-family="sans-serif" font-size="13" lengthAdjust="spacing" textLength="207" x="45.5" y="116.2705">option to undo last change in post-it</text><polygon fill="#181818" points="520.5,148.8242,530.5,152.8242,520.5,156.8242,524.5,152.8242" style="stroke:#181818;stroke-width:1.0;"/><line style="stroke:#181818;stroke-width:1.0;" x1="343.5" x2="526.5" y1="152.8242" y2="152.8242"/><text fill="#000000" font-family="sans-serif" font-size="13" font-weight="bold" lengthAdjust="spacing" textLength="7" x="350.5" y="147.5615">2</text><text fill="#000000" font-family="sans-serif" font-size="13" lengthAdjust="spacing" textLength="94" x="361.5" y="147.5615">getUserBoards()</text><polygon fill="#181818" points="1097,180.1152,1107,184.1152,1097,188.1152,1101,184.1152" style="stroke:#181818;stroke-width:1.0;"/><line style="stroke:#181818;stroke-width:1.0;" x1="542.5" x2="1103" y1="184.1152" y2="184.1152"/><text fill="#000000" font-family="sans-serif" font-size="13" font-weight="bold" lengthAdjust="spacing" textLength="7" x="549.5" y="178.8525">3</text><text fill="#000000" font-family="sans-serif" font-size="13" lengthAdjust="spacing" textLength="94" x="560.5" y="178.8525">getUserBoards()</text><polygon fill="#181818" points="1964,211.4063,1974,215.4063,1964,219.4063,1968,215.4063" style="stroke:#181818;stroke-width:1.0;"/><line style="stroke:#181818;stroke-width:1.0;" x1="1119" x2="1970" y1="215.4063" y2="215.4063"/><text fill="#000000" font-family="sans-serif" font-size="13" font-weight="bold" lengthAdjust="spacing" textLength="7" x="1126" y="210.1436">4</text><text fill="#000000" font-family="sans-serif" font-size="13" lengthAdjust="spacing" textLength="390" x="1137" y="210.1436">findBoardsOfUser(sessionEmail, theRepository, theUserRepository)</text><line style="stroke:#181818;stroke-width:1.0;" x1="1986" x2="2028" y1="246.6973" y2="246.6973"/><line style="stroke:#181818;stroke-width:1.0;" x1="2028" x2="2028" y1="246.6973" y2="259.6973"/><line style="stroke:#181818;stroke-width:1.0;" x1="1987" x2="2028" y1="259.6973" y2="259.6973"/><polygon fill="#181818" points="1997,255.6973,1987,259.6973,1997,263.6973,1993,259.6973" style="stroke:#181818;stroke-width:1.0;"/><text fill="#000000" font-family="sans-serif" font-size="13" font-weight="bold" lengthAdjust="spacing" textLength="7" x="1993" y="241.4346">5</text><text fill="#000000" font-family="sans-serif" font-size="13" lengthAdjust="spacing" textLength="114" x="2004" y="241.4346">findBoeardsHiOwn()</text><polygon fill="#181818" points="1130,286.9883,1120,290.9883,1130,294.9883,1126,290.9883" style="stroke:#181818;stroke-width:1.0;"/><line style="stroke:#181818;stroke-width:1.0;stroke-dasharray:2.0,2.0;" x1="1124" x2="1975" y1="290.9883" y2="290.9883"/><text fill="#000000" font-family="sans-serif" font-size="13" font-weight="bold" lengthAdjust="spacing" textLength="7" x="1136" y="285.7256">6</text><text fill="#000000" font-family="sans-serif" font-size="13" lengthAdjust="spacing" textLength="85" x="1147" y="285.7256">onwendBoards</text><line style="stroke:#181818;stroke-width:1.0;" x1="1986" x2="2028" y1="322.2793" y2="322.2793"/><line style="stroke:#181818;stroke-width:1.0;" x1="2028" x2="2028" y1="322.2793" y2="335.2793"/><line style="stroke:#181818;stroke-width:1.0;" x1="1987" x2="2028" y1="335.2793" y2="335.2793"/><polygon fill="#181818" points="1997,331.2793,1987,335.2793,1997,339.2793,1993,335.2793" style="stroke:#181818;stroke-width:1.0;"/><text fill="#000000" font-family="sans-serif" font-size="13" font-weight="bold" lengthAdjust="spacing" textLength="7" x="1993" y="317.0166">7</text><text fill="#000000" font-family="sans-serif" font-size="13" lengthAdjust="spacing" textLength="129" x="2004" y="317.0166">findBoeardsHiShared()</text><polygon fill="#181818" points="1130,362.5703,1120,366.5703,1130,370.5703,1126,366.5703" style="stroke:#181818;stroke-width:1.0;"/><line style="stroke:#181818;stroke-width:1.0;stroke-dasharray:2.0,2.0;" x1="1124" x2="1980" y1="366.5703" y2="366.5703"/><text fill="#000000" font-family="sans-serif" font-size="13" font-weight="bold" lengthAdjust="spacing" textLength="7" x="1136" y="361.3076">8</text><text fill="#000000" font-family="sans-serif" font-size="13" lengthAdjust="spacing" textLength="80" x="1147" y="361.3076">sharedBoards</text><polygon fill="#181818" points="553.5,393.8613,543.5,397.8613,553.5,401.8613,549.5,397.8613" style="stroke:#181818;stroke-width:1.0;"/><line style="stroke:#181818;stroke-width:1.0;stroke-dasharray:2.0,2.0;" x1="547.5" x2="1113" y1="397.8613" y2="397.8613"/><text fill="#000000" font-family="sans-serif" font-size="13" font-weight="bold" lengthAdjust="spacing" textLength="7" x="559.5" y="392.5986">9</text><text fill="#000000" font-family="sans-serif" font-size="13" lengthAdjust="spacing" textLength="59" x="570.5" y="392.5986">boardsDto</text><polygon fill="#181818" points="354.5,425.1523,344.5,429.1523,354.5,433.1523,350.5,429.1523" style="stroke:#181818;stroke-width:1.0;"/><line style="stroke:#181818;stroke-width:1.0;stroke-dasharray:2.0,2.0;" x1="348.5" x2="536.5" y1="429.1523" y2="429.1523"/><text fill="#000000" font-family="sans-serif" font-size="13" font-weight="bold" lengthAdjust="spacing" textLength="14" x="360.5" y="423.8896">10</text><text fill="#000000" font-family="sans-serif" font-size="13" lengthAdjust="spacing" textLength="59" x="378.5" y="423.8896">boardsDto</text><line style="stroke:#181818;stroke-width:1.0;" x1="343.5" x2="385.5" y1="460.4434" y2="460.4434"/><line style="stroke:#181818;stroke-width:1.0;" x1="385.5" x2="385.5" y1="460.4434" y2="473.4434"/><line style="stroke:#181818;stroke-width:1.0;" x1="344.5" x2="385.5" y1="473.4434" y2="473.4434"/><polygon fill="#181818" points="354.5,469.4434,344.5,473.4434,354.5,477.4434,350.5,473.4434" style="stroke:#181818;stroke-width:1.0;"/><text fill="#000000" font-family="sans-serif" font-size="13" font-weight="bold" lengthAdjust="spacing" textLength="14" x="350.5" y="455.1807">11</text><text fill="#000000" font-family="sans-serif" font-size="13" lengthAdjust="spacing" textLength="157" x="368.5" y="455.1807">displayBoards( boardsDto )</text><polygon fill="#181818" points="38.5,500.7344,28.5,504.7344,38.5,508.7344,34.5,504.7344" style="stroke:#181818;stroke-width:1.0;"/><line style="stroke:#181818;stroke-width:1.0;stroke-dasharray:2.0,2.0;" x1="32.5" x2="337.5" y1="504.7344" y2="504.7344"/><text fill="#000000" font-family="sans-serif" font-size="13" font-weight="bold" lengthAdjust="spacing" textLength="14" x="44.5" y="499.4717">12</text><text fill="#000000" font-family="sans-serif" font-size="13" lengthAdjust="spacing" textLength="118" x="62.5" y="499.4717">asks to select board</text><polygon fill="#181818" points="321.5,532.0254,331.5,536.0254,321.5,540.0254,325.5,536.0254" style="stroke:#181818;stroke-width:1.0;"/><line style="stroke:#181818;stroke-width:1.0;" x1="27.5" x2="327.5" y1="536.0254" y2="536.0254"/><text fill="#000000" font-family="sans-serif" font-size="13" font-weight="bold" lengthAdjust="spacing" textLength="14" x="34.5" y="530.7627">13</text><text fill="#000000" font-family="sans-serif" font-size="13" lengthAdjust="spacing" textLength="89" x="52.5" y="530.7627">selects a board</text><polygon fill="#181818" points="520.5,563.3164,530.5,567.3164,520.5,571.3164,524.5,567.3164" style="stroke:#181818;stroke-width:1.0;"/><line style="stroke:#181818;stroke-width:1.0;" x1="343.5" x2="526.5" y1="567.3164" y2="567.3164"/><text fill="#000000" font-family="sans-serif" font-size="13" font-weight="bold" lengthAdjust="spacing" textLength="14" x="350.5" y="562.0537">14</text><text fill="#000000" font-family="sans-serif" font-size="13" lengthAdjust="spacing" textLength="102" x="368.5" y="562.0537">getBoard(boardId)</text><polygon fill="#181818" points="1964,594.6074,1974,598.6074,1964,602.6074,1968,598.6074" style="stroke:#181818;stroke-width:1.0;"/><line style="stroke:#181818;stroke-width:1.0;" x1="542.5" x2="1970" y1="598.6074" y2="598.6074"/><text fill="#000000" font-family="sans-serif" font-size="13" font-weight="bold" lengthAdjust="spacing" textLength="14" x="549.5" y="593.3447">15</text><text fill="#000000" font-family="sans-serif" font-size="13" lengthAdjust="spacing" textLength="150" x="567.5" y="593.3447">board = getBoard(boardId)</text><line style="stroke:#181818;stroke-width:1.0;" x1="1986" x2="2028" y1="629.8984" y2="629.8984"/><line style="stroke:#181818;stroke-width:1.0;" x1="2028" x2="2028" y1="629.8984" y2="642.8984"/><line style="stroke:#181818;stroke-width:1.0;" x1="1987" x2="2028" y1="642.8984" y2="642.8984"/><polygon fill="#181818" points="1997,638.8984,1987,642.8984,1997,646.8984,1993,642.8984" style="stroke:#181818;stroke-width:1.0;"/><text fill="#000000" font-family="sans-serif" font-size="13" font-weight="bold" lengthAdjust="spacing" textLength="14" x="1993" y="624.6357">16</text><text fill="#000000" font-family="sans-serif" font-size="13" lengthAdjust="spacing" textLength="130" x="2011" y="624.6357">findBoardById(boardId)</text><polygon fill="#181818" points="553.5,670.1895,543.5,674.1895,553.5,678.1895,549.5,674.1895" style="stroke:#181818;stroke-width:1.0;"/><line style="stroke:#181818;stroke-width:1.0;stroke-dasharray:2.0,2.0;" x1="547.5" x2="1980" y1="674.1895" y2="674.1895"/><text fill="#000000" font-family="sans-serif" font-size="13" font-weight="bold" lengthAdjust="spacing" textLength="14" x="559.5" y="668.9268">17</text><text fill="#000000" font-family="sans-serif" font-size="13" lengthAdjust="spacing" textLength="32" x="577.5" y="668.9268">board</text><polygon fill="#181818" points="354.5,701.4805,344.5,705.4805,354.5,709.4805,350.5,705.4805" style="stroke:#181818;stroke-width:1.0;"/><line style="stroke:#181818;stroke-width:1.0;stroke-dasharray:2.0,2.0;" x1="348.5" x2="536.5" y1="705.4805" y2="705.4805"/><text fill="#000000" font-family="sans-serif" font-size="13" font-weight="bold" lengthAdjust="spacing" textLength="14" x="360.5" y="700.2178">18</text><text fill="#000000" font-family="sans-serif" font-size="13" lengthAdjust="spacing" textLength="32" x="378.5" y="700.2178">board</text><line style="stroke:#181818;stroke-width:1.0;" x1="343.5" x2="385.5" y1="736.7715" y2="736.7715"/><line style="stroke:#181818;stroke-width:1.0;" x1="385.5" x2="385.5" y1="736.7715" y2="749.7715"/><line style="stroke:#181818;stroke-width:1.0;" x1="344.5" x2="385.5" y1="749.7715" y2="749.7715"/><polygon fill="#181818" points="354.5,745.7715,344.5,749.7715,354.5,753.7715,350.5,749.7715" style="stroke:#181818;stroke-width:1.0;"/><text fill="#000000" font-family="sans-serif" font-size="13" font-weight="bold" lengthAdjust="spacing" textLength="14" x="350.5" y="731.5088">19</text><text fill="#000000" font-family="sans-serif" font-size="13" lengthAdjust="spacing" textLength="130" x="368.5" y="731.5088">displayPostIts( board )</text><polygon fill="#181818" points="38.5,777.0625,28.5,781.0625,38.5,785.0625,34.5,781.0625" style="stroke:#181818;stroke-width:1.0;"/><line style="stroke:#181818;stroke-width:1.0;stroke-dasharray:2.0,2.0;" x1="32.5" x2="337.5" y1="781.0625" y2="781.0625"/><text fill="#000000" font-family="sans-serif" font-size="13" font-weight="bold" lengthAdjust="spacing" textLength="14" x="44.5" y="775.7998">20</text><text fill="#000000" font-family="sans-serif" font-size="13" lengthAdjust="spacing" textLength="264" x="62.5" y="775.7998">asks for the post-it information (Row, Column)</text><polygon fill="#181818" points="321.5,808.3535,331.5,812.3535,321.5,816.3535,325.5,812.3535" style="stroke:#181818;stroke-width:1.0;"/><line style="stroke:#181818;stroke-width:1.0;" x1="27.5" x2="327.5" y1="812.3535" y2="812.3535"/><text fill="#000000" font-family="sans-serif" font-size="13" font-weight="bold" lengthAdjust="spacing" textLength="14" x="34.5" y="807.0908">21</text><text fill="#000000" font-family="sans-serif" font-size="13" lengthAdjust="spacing" textLength="254" x="52.5" y="807.0908">enters the post-it information (Row, Column)</text><polygon fill="#181818" points="725.5,839.6445,735.5,843.6445,725.5,847.6445,729.5,843.6445" style="stroke:#181818;stroke-width:1.0;"/><line style="stroke:#181818;stroke-width:1.0;" x1="343.5" x2="731.5" y1="843.6445" y2="843.6445"/><text fill="#000000" font-family="sans-serif" font-size="13" font-weight="bold" lengthAdjust="spacing" textLength="14" x="350.5" y="838.3818">22</text><text fill="#000000" font-family="sans-serif" font-size="13" lengthAdjust="spacing" textLength="257" x="368.5" y="838.3818">undoLastChangePostIt( board, row, column )</text><polygon fill="#181818" points="921.5,870.9355,931.5,874.9355,921.5,878.9355,925.5,874.9355" style="stroke:#181818;stroke-width:1.0;"/><line style="stroke:#181818;stroke-width:1.0;" x1="747.5" x2="927.5" y1="874.9355" y2="874.9355"/><text fill="#000000" font-family="sans-serif" font-size="13" font-weight="bold" lengthAdjust="spacing" textLength="14" x="754.5" y="869.6729">23</text><text fill="#000000" font-family="sans-serif" font-size="13" lengthAdjust="spacing" textLength="57" x="772.5" y="869.6729">session( )</text><polygon fill="#181818" points="758.5,902.2266,748.5,906.2266,758.5,910.2266,754.5,906.2266" style="stroke:#181818;stroke-width:1.0;"/><line style="stroke:#181818;stroke-width:1.0;stroke-dasharray:2.0,2.0;" x1="752.5" x2="937.5" y1="906.2266" y2="906.2266"/><text fill="#000000" font-family="sans-serif" font-size="13" font-weight="bold" lengthAdjust="spacing" textLength="14" x="764.5" y="900.9639">24</text><text fill="#000000" font-family="sans-serif" font-size="13" lengthAdjust="spacing" textLength="78" x="782.5" y="900.9639">sessionEmail</text><polygon fill="#181818" points="1304,933.5176,1314,937.5176,1304,941.5176,1308,937.5176" style="stroke:#181818;stroke-width:1.0;"/><line style="stroke:#181818;stroke-width:1.0;" x1="747.5" x2="1310" y1="937.5176" y2="937.5176"/><text fill="#000000" font-family="sans-serif" font-size="13" font-weight="bold" lengthAdjust="spacing" textLength="14" x="754.5" y="932.2549">25</text><text fill="#000000" font-family="sans-serif" font-size="13" lengthAdjust="spacing" textLength="343" x="772.5" y="932.2549">undoLastChangePostIt( board, row, column, sessionEmail )</text><line style="stroke:#181818;stroke-width:1.0;" x1="1326" x2="1373" y1="963.8086" y2="963.8086"/><line style="stroke:#181818;stroke-width:1.0;" x1="1373" x2="1373" y1="963.8086" y2="976.8086"/><line style="stroke:#181818;stroke-width:1.0;" x1="1332" x2="1373" y1="976.8086" y2="976.8086"/><polygon fill="#181818" points="1342,972.8086,1332,976.8086,1342,980.8086,1338,976.8086" style="stroke:#181818;stroke-width:1.0;"/><text fill="#000000" font-family="sans-serif" font-size="13" font-weight="bold" lengthAdjust="spacing" textLength="14" x="1338" y="958.5459">26</text><text fill="#000000" font-family="sans-serif" font-size="13" lengthAdjust="spacing" textLength="287" x="1356" y="958.5459">undoLastChangePostItSync( board, row, column )</text><polygon fill="#181818" points="1964,1009.0996,1974,1013.0996,1964,1017.0996,1968,1013.0996" style="stroke:#181818;stroke-width:1.0;"/><line style="stroke:#181818;stroke-width:1.0;" x1="1331" x2="1970" y1="1013.0996" y2="1013.0996"/><text fill="#000000" font-family="sans-serif" font-size="13" font-weight="bold" lengthAdjust="spacing" textLength="14" x="1338" y="1007.8369">27</text><text fill="#000000" font-family="sans-serif" font-size="13" lengthAdjust="spacing" textLength="124" x="1356" y="1007.8369">findByCode( boardId )</text><polygon fill="#181818" points="1342,1040.3906,1332,1044.3906,1342,1048.3906,1338,1044.3906" style="stroke:#181818;stroke-width:1.0;"/><line style="stroke:#181818;stroke-width:1.0;stroke-dasharray:2.0,2.0;" x1="1336" x2="1980" y1="1044.3906" y2="1044.3906"/><text fill="#000000" font-family="sans-serif" font-size="13" font-weight="bold" lengthAdjust="spacing" textLength="14" x="1348" y="1039.1279">28</text><text fill="#000000" font-family="sans-serif" font-size="13" lengthAdjust="spacing" textLength="32" x="1366" y="1039.1279">board</text><polygon fill="#181818" points="2152,1071.6816,2162,1075.6816,2152,1079.6816,2156,1075.6816" style="stroke:#181818;stroke-width:1.0;"/><line style="stroke:#181818;stroke-width:1.0;" x1="1331" x2="2158" y1="1075.6816" y2="1075.6816"/><text fill="#000000" font-family="sans-serif" font-size="13" font-weight="bold" lengthAdjust="spacing" textLength="14" x="1338" y="1070.4189">29</text><text fill="#000000" font-family="sans-serif" font-size="13" lengthAdjust="spacing" textLength="194" x="1356" y="1070.4189">getBoardPreviousContent( board )</text><polygon fill="#181818" points="1342,1102.9727,1332,1106.9727,1342,1110.9727,1338,1106.9727" style="stroke:#181818;stroke-width:1.0;"/><line style="stroke:#181818;stroke-width:1.0;stroke-dasharray:2.0,2.0;" x1="1336" x2="2168" y1="1106.9727" y2="1106.9727"/><text fill="#000000" font-family="sans-serif" font-size="13" font-weight="bold" lengthAdjust="spacing" textLength="14" x="1348" y="1101.71">30</text><text fill="#000000" font-family="sans-serif" font-size="13" lengthAdjust="spacing" textLength="43" x="1366" y="1101.71">content</text><polygon fill="#181818" points="1633,1134.2637,1643,1138.2637,1633,1142.2637,1637,1138.2637" style="stroke:#181818;stroke-width:1.0;"/><line style="stroke:#181818;stroke-width:1.0;" x1="1331" x2="1639" y1="1138.2637" y2="1138.2637"/><text fill="#000000" font-family="sans-serif" font-size="13" font-weight="bold" lengthAdjust="spacing" textLength="14" x="1338" y="1133.001">31</text><text fill="#000000" font-family="sans-serif" font-size="13" lengthAdjust="spacing" textLength="265" x="1356" y="1133.001">updateCell( content, row, column, repoBoard )</text><polygon fill="#181818" points="1964,1195.5547,1974,1199.5547,1964,1203.5547,1968,1199.5547" style="stroke:#181818;stroke-width:1.0;"/><line style="stroke:#181818;stroke-width:1.0;" x1="1331" x2="1970" y1="1199.5547" y2="1199.5547"/><text fill="#000000" font-family="sans-serif" font-size="13" font-weight="bold" lengthAdjust="spacing" textLength="14" x="1338" y="1194.292">32</text><text fill="#000000" font-family="sans-serif" font-size="13" lengthAdjust="spacing" textLength="74" x="1356" y="1194.292">save( board )</text><line style="stroke:#181818;stroke-width:1.0;stroke-dasharray:2.0,2.0;" x1="1331" x2="1373" y1="1265.8457" y2="1265.8457"/><line style="stroke:#181818;stroke-width:1.0;stroke-dasharray:2.0,2.0;" x1="1373" x2="1373" y1="1265.8457" y2="1278.8457"/><line style="stroke:#181818;stroke-width:1.0;stroke-dasharray:2.0,2.0;" x1="1326" x2="1373" y1="1278.8457" y2="1278.8457"/><polygon fill="#181818" points="1336,1274.8457,1326,1278.8457,1336,1282.8457,1332,1278.8457" style="stroke:#181818;stroke-width:1.0;"/><text fill="#000000" font-family="sans-serif" font-size="13" font-weight="bold" lengthAdjust="spacing" textLength="14" x="1338" y="1260.583">33</text><text fill="#000000" font-family="sans-serif" font-size="13" lengthAdjust="spacing" textLength="32" x="1356" y="1260.583">board</text><polygon fill="#181818" points="2251.5,1301.1367,2261.5,1305.1367,2251.5,1309.1367,2255.5,1305.1367" style="stroke:#181818;stroke-width:1.0;"/><line style="stroke:#181818;stroke-width:1.0;" x1="1326" x2="2257.5" y1="1305.1367" y2="1305.1367"/><text fill="#000000" font-family="sans-serif" font-size="13" font-weight="bold" lengthAdjust="spacing" textLength="14" x="1333" y="1299.874">34</text><text fill="#000000" font-family="sans-serif" font-size="13" lengthAdjust="spacing" textLength="256" x="1351" y="1299.874">create( board, time , boardChange, content )</text><rect fill="#E2E2F0" height="51.2422" rx="2.5" ry="2.5" style="stroke:#181818;stroke-width:0.5;" width="189" x="2263.5" y="1281.8457"/><text fill="#000000" font-family="sans-serif" font-size="14" font-style="italic" lengthAdjust="spacing" textLength="50" x="2333" y="1303.9531">&#171;event&#187;</text><text fill="#000000" font-family="sans-serif" font-size="14" lengthAdjust="spacing" textLength="175" x="2270.5" y="1322.5742">event :BoardChangedEvent</text><polygon fill="#181818" points="2502,1363.3789,2512,1367.3789,2502,1371.3789,2506,1367.3789" style="stroke:#181818;stroke-width:1.0;"/><line style="stroke:#181818;stroke-width:1.0;" x1="1326" x2="2508" y1="1367.3789" y2="1367.3789"/><text fill="#000000" font-family="sans-serif" font-size="13" font-weight="bold" lengthAdjust="spacing" textLength="14" x="1333" y="1362.1162">35</text><text fill="#000000" font-family="sans-serif" font-size="13" lengthAdjust="spacing" textLength="87" x="1351" y="1362.1162">publish( event )</text><polygon fill="#181818" points="2619,1424.6699,2629,1428.6699,2619,1432.6699,2623,1428.6699" style="stroke:#181818;stroke-width:1.0;"/><line style="stroke:#181818;stroke-width:1.0;" x1="1326" x2="2625" y1="1428.6699" y2="1428.6699"/><text fill="#000000" font-family="sans-serif" font-size="13" font-weight="bold" lengthAdjust="spacing" textLength="14" x="1333" y="1423.4072">36</text><text fill="#000000" font-family="sans-serif" font-size="13" lengthAdjust="spacing" textLength="222" x="1351" y="1423.4072">toDTO( board.GetPostIt(row, column) )</text><polygon fill="#181818" points="1337,1455.9609,1327,1459.9609,1337,1463.9609,1333,1459.9609" style="stroke:#181818;stroke-width:1.0;"/><line style="stroke:#181818;stroke-width:1.0;" x1="1331" x2="2635" y1="1459.9609" y2="1459.9609"/><text fill="#000000" font-family="sans-serif" font-size="13" font-weight="bold" lengthAdjust="spacing" textLength="14" x="1343" y="1454.6982">37</text><text fill="#000000" font-family="sans-serif" font-size="13" lengthAdjust="spacing" textLength="52" x="1361" y="1454.6982">postitDto</text><polygon fill="#181818" points="758.5,1487.252,748.5,1491.252,758.5,1495.252,754.5,1491.252" style="stroke:#181818;stroke-width:1.0;"/><line style="stroke:#181818;stroke-width:1.0;stroke-dasharray:2.0,2.0;" x1="752.5" x2="1320" y1="1491.252" y2="1491.252"/><text fill="#000000" font-family="sans-serif" font-size="13" font-weight="bold" lengthAdjust="spacing" textLength="14" x="764.5" y="1485.9893">38</text><text fill="#000000" font-family="sans-serif" font-size="13" lengthAdjust="spacing" textLength="52" x="782.5" y="1485.9893">postitDto</text><polygon fill="#181818" points="354.5,1518.543,344.5,1522.543,354.5,1526.543,350.5,1522.543" style="stroke:#181818;stroke-width:1.0;"/><line style="stroke:#181818;stroke-width:1.0;stroke-dasharray:2.0,2.0;" x1="348.5" x2="741.5" y1="1522.543" y2="1522.543"/><text fill="#000000" font-family="sans-serif" font-size="13" font-weight="bold" lengthAdjust="spacing" textLength="14" x="360.5" y="1517.2803">39</text><text fill="#000000" font-family="sans-serif" font-size="13" lengthAdjust="spacing" textLength="52" x="378.5" y="1517.2803">postitDto</text><polygon fill="#181818" points="38.5,1549.834,28.5,1553.834,38.5,1557.834,34.5,1553.834" style="stroke:#181818;stroke-width:1.0;"/><line style="stroke:#181818;stroke-width:1.0;stroke-dasharray:2.0,2.0;" x1="32.5" x2="337.5" y1="1553.834" y2="1553.834"/><text fill="#000000" font-family="sans-serif" font-size="13" font-weight="bold" lengthAdjust="spacing" textLength="14" x="44.5" y="1548.5713">40</text><text fill="#000000" font-family="sans-serif" font-size="13" lengthAdjust="spacing" textLength="144" x="62.5" y="1548.5713">shows post-it information</text><!--SRC=[ZLN1JkCm4BtdAqPSjbqLa7gCMAIsL4ka1IfAEUpD98PQcyHPsodgVlsEnqxZf07QIsNdlJVZDpFsjwqnbOulBwkSbQOkyejK5fUQ_wrvcVBpJB0tnOeeOhMHPLsyS1L5izH81HlD5J2D_xXLCML4AYhKWBDuKsRo5zDciMNb6rz9RHApISu8dVIm8MOXIwDaddD5M5nEJr0-PlL8izfifHB_c16oN7Er4oadw6ppTFiRhgwqsxk-FZe8VfcbATTwBfdAT4ZUpERh3lVhJ4Fw-l7vayWlDbmC5DN1vrr0HO8nE662h8wiHMDuwJukxf-YZ1dsmZI7CyKhITeGqzyZhhN0gku9R3zZSkgmY_aTo4Hmfz8jhw5D-xnEIdo7-VYOJY9RxfeKby_B-oUa4-Z8JyAjwfTSwAslz7A5wAhPEc8uQ-vOLNdytSmI2jgmZkCFcnVEhx4h8GPPsVu08w76sa6EnOEKaWHHWZNyN9Y8fKRicE7Kz-qYGQq4bMpFnl36ZMqTrpIZSOkZbeuY-qTnRGyTmmDT14I4GZIL9OPNKMOE-l1gQIED_OcPBmicyWcOBM_BGaiBQhU2RAnWHAfzTMxbRyN3UudfE4IRhYpVUPC27kOpWVMMAPuDQ6Zwu3Kotas9JenWPoRDWhunCiIHCTx7fe23GEyu0Zmi4nhlkhqtkoN1s5RGWh0dOkoNFzhsWkOvJus3TH98kjtZS1gOX_PQ0yBUeDWZmYLPlpkQtl1s4Wf-3D1EgID2v_ia81tgG67YutEHre2lnvwsbeBtr4rSOoeP2Zr7N_7bm9PinWad2tSAkfbXz2ZV9oYUrqKv_j3h6F0Yu4gVA1EA7CeGquZthsUVzmIK5KX90BhbiSvO3VTosAhJw8r267sB7C8xtI9fICEpENIZYw_2wRbDEg9X2YWJHVQ5SP8mhBdUb-bNPxPANYXihFr2Pjnpamo6xvH3yE4c2sIdqCx5Il6TaBNshrVRJ1tsD7AyDaZgyFqmqzQ8kVMXmeUCBtYUZnf6pzFsRGnjc8UwkEfwejcEVv3eqB4_SIQi73s8tx_RiocE7m-rCgBWC74hLz19SnWCtx1NIFIlumZSonlajbo5ON7LyEmh6UFDT_Fqu0DU_EJ6Ts7Wr3XKGr9aYOU3sS4KfdSNMnH5QQPm46Kje77mupu8ihFOtYxsFP7lUkWwwDyZqNy0]--></g></svg>