<?xml version="1.0" encoding="UTF-8" standalone="no"?><svg xmlns="http://www.w3.org/2000/svg" xmlns:xlink="http://www.w3.org/1999/xlink" contentStyleType="text/css" height="753px" preserveAspectRatio="none" style="width:401px;height:753px;background:#FFFFFF;" version="1.1" viewBox="0 0 401 753" width="401px" zoomAndPan="magnify"><defs/><g><!--MD5=[20e583d4e0df3a755fa236795f6d14ab]
class eCourseSystemUser--><g id="elem_eCourseSystemUser"><rect codeLine="3" fill="#F1F1F1" height="126.625" id="eCourseSystemUser" rx="2.5" ry="2.5" style="stroke:#181818;stroke-width:0.5;" width="172" x="186" y="7"/><ellipse cx="205.95" cy="35.8984" fill="#ADD1B2" rx="11" ry="11" style="stroke:#181818;stroke-width:1.0;"/><path d="M207.95,32.3984 Q208.1531,31.8984 208.3875,31.6484 Q208.6219,31.3984 208.8875,31.3984 Q209.3563,31.3984 209.6531,31.6797 Q209.95,31.9609 209.95,32.6172 L209.95,34.1797 Q209.95,34.8359 209.6688,35.1172 Q209.3875,35.3984 208.95,35.3984 Q208.5594,35.3984 208.3094,35.2266 Q208.0594,35.0547 207.95,34.6016 Q207.9031,34.2891 207.7313,34.1172 Q207.4188,33.7891 206.8563,33.6016 Q206.2938,33.3984 205.7313,33.3984 Q205.0281,33.3984 204.4344,33.6797 Q203.8563,33.9609 203.4031,34.5859 Q202.95,35.2109 202.95,36.0703 L202.95,36.9922 Q202.95,38.0234 203.7938,38.7109 Q204.6375,39.3984 206.1375,39.3984 Q207.0281,39.3984 207.6531,39.1953 Q208.0125,39.0859 208.4188,38.7266 Q208.6844,38.5234 208.825,38.4609 Q208.9656,38.3984 209.1375,38.3984 Q209.4656,38.3984 209.7,38.6641 Q209.95,38.9141 209.95,39.2734 Q209.95,39.6172 209.6063,40.0234 Q209.1063,40.6172 208.3094,40.9453 Q207.2625,41.3984 205.9813,41.3984 Q204.4813,41.3984 203.2781,40.8047 Q202.3094,40.3359 201.6219,39.3203 Q200.95,38.3047 200.95,37.1016 L200.95,36.0078 Q200.95,34.7578 201.5438,33.6641 Q202.1531,32.5703 203.2,31.9922 Q204.2625,31.3984 205.45,31.3984 Q206.1688,31.3984 206.7938,31.6484 Q207.4188,31.8984 207.95,32.3984 Z " fill="#000000"/><text fill="#000000" font-family="sans-serif" font-size="12" font-style="italic" lengthAdjust="spacing" textLength="35" x="268.05" y="24.457">«root»</text><text fill="#000000" font-family="sans-serif" font-size="12" font-style="italic" lengthAdjust="spacing" textLength="44" x="263.55" y="39.5508">«Entity»</text><text fill="#000000" font-family="sans-serif" font-size="14" lengthAdjust="spacing" textLength="129" x="221.05" y="56.7207">eCourseSystemUser</text><line style="stroke:#181818;stroke-width:0.5;" x1="187" x2="357" y1="64.7969" y2="64.7969"/><ellipse cx="197" cy="79.1016" fill="#000000" rx="3" ry="3" style="stroke:#000000;stroke-width:1.0;"/><text fill="#000000" font-family="sans-serif" font-size="14" lengthAdjust="spacing" textLength="59" x="206" y="83.3301">FullName</text><ellipse cx="197" cy="96.7109" fill="#000000" rx="3" ry="3" style="stroke:#000000;stroke-width:1.0;"/><text fill="#000000" font-family="sans-serif" font-size="14" lengthAdjust="spacing" textLength="146" x="206" y="100.9395">MecanographicNumber</text><ellipse cx="197" cy="114.3203" fill="#000000" rx="3" ry="3" style="stroke:#000000;stroke-width:1.0;"/><text fill="#000000" font-family="sans-serif" font-size="14" lengthAdjust="spacing" textLength="70" x="206" y="118.5488">ShortName</text><line style="stroke:#181818;stroke-width:0.5;" x1="187" x2="357" y1="125.625" y2="125.625"/></g><!--MD5=[1df05c488f3418f9e6a068b11a24744c]
class CreateBoardUI--><g id="elem_CreateBoardUI"><rect codeLine="8" fill="#F1F1F1" height="65.6094" id="CreateBoardUI" rx="2.5" ry="2.5" style="stroke:#181818;stroke-width:0.5;" width="125" x="209.5" y="212"/><ellipse cx="224.5" cy="228" fill="#ADD1B2" rx="11" ry="11" style="stroke:#181818;stroke-width:1.0;"/><path d="M226.5,224.5 Q226.7031,224 226.9375,223.75 Q227.1719,223.5 227.4375,223.5 Q227.9063,223.5 228.2031,223.7813 Q228.5,224.0625 228.5,224.7188 L228.5,226.2813 Q228.5,226.9375 228.2188,227.2188 Q227.9375,227.5 227.5,227.5 Q227.1094,227.5 226.8594,227.3281 Q226.6094,227.1563 226.5,226.7031 Q226.4531,226.3906 226.2813,226.2188 Q225.9688,225.8906 225.4063,225.7031 Q224.8438,225.5 224.2813,225.5 Q223.5781,225.5 222.9844,225.7813 Q222.4063,226.0625 221.9531,226.6875 Q221.5,227.3125 221.5,228.1719 L221.5,229.0938 Q221.5,230.125 222.3438,230.8125 Q223.1875,231.5 224.6875,231.5 Q225.5781,231.5 226.2031,231.2969 Q226.5625,231.1875 226.9688,230.8281 Q227.2344,230.625 227.375,230.5625 Q227.5156,230.5 227.6875,230.5 Q228.0156,230.5 228.25,230.7656 Q228.5,231.0156 228.5,231.375 Q228.5,231.7188 228.1563,232.125 Q227.6563,232.7188 226.8594,233.0469 Q225.8125,233.5 224.5313,233.5 Q223.0313,233.5 221.8281,232.9063 Q220.8594,232.4375 220.1719,231.4219 Q219.5,230.4063 219.5,229.2031 L219.5,228.1094 Q219.5,226.8594 220.0938,225.7656 Q220.7031,224.6719 221.75,224.0938 Q222.8125,223.5 224,223.5 Q224.7188,223.5 225.3438,223.75 Q225.9688,224 226.5,224.5 Z " fill="#000000"/><text fill="#000000" font-family="sans-serif" font-size="14" lengthAdjust="spacing" textLength="93" x="238.5" y="233.7285">CreateBoardUI</text><line style="stroke:#181818;stroke-width:0.5;" x1="210.5" x2="333.5" y1="244" y2="244"/><line style="stroke:#181818;stroke-width:0.5;" x1="210.5" x2="333.5" y1="252" y2="252"/><ellipse cx="220.5" cy="266.3047" fill="#84BE84" rx="3" ry="3" style="stroke:#038048;stroke-width:1.0;"/><text fill="#000000" font-family="sans-serif" font-size="14" lengthAdjust="spacing" textLength="54" x="229.5" y="270.5332">display()</text></g><!--MD5=[7333c6ac125e4f3f0243e9815b0f2b40]
class CreateBoardController--><g id="elem_CreateBoardController"><rect codeLine="12" fill="#F1F1F1" height="65.6094" id="CreateBoardController" rx="2.5" ry="2.5" style="stroke:#181818;stroke-width:0.5;" width="175" x="184.5" y="339"/><ellipse cx="199.5" cy="355" fill="#ADD1B2" rx="11" ry="11" style="stroke:#181818;stroke-width:1.0;"/><path d="M201.5,351.5 Q201.7031,351 201.9375,350.75 Q202.1719,350.5 202.4375,350.5 Q202.9063,350.5 203.2031,350.7813 Q203.5,351.0625 203.5,351.7188 L203.5,353.2813 Q203.5,353.9375 203.2188,354.2188 Q202.9375,354.5 202.5,354.5 Q202.1094,354.5 201.8594,354.3281 Q201.6094,354.1563 201.5,353.7031 Q201.4531,353.3906 201.2813,353.2188 Q200.9688,352.8906 200.4063,352.7031 Q199.8438,352.5 199.2813,352.5 Q198.5781,352.5 197.9844,352.7813 Q197.4063,353.0625 196.9531,353.6875 Q196.5,354.3125 196.5,355.1719 L196.5,356.0938 Q196.5,357.125 197.3438,357.8125 Q198.1875,358.5 199.6875,358.5 Q200.5781,358.5 201.2031,358.2969 Q201.5625,358.1875 201.9688,357.8281 Q202.2344,357.625 202.375,357.5625 Q202.5156,357.5 202.6875,357.5 Q203.0156,357.5 203.25,357.7656 Q203.5,358.0156 203.5,358.375 Q203.5,358.7188 203.1563,359.125 Q202.6563,359.7188 201.8594,360.0469 Q200.8125,360.5 199.5313,360.5 Q198.0313,360.5 196.8281,359.9063 Q195.8594,359.4375 195.1719,358.4219 Q194.5,357.4063 194.5,356.2031 L194.5,355.1094 Q194.5,353.8594 195.0938,352.7656 Q195.7031,351.6719 196.75,351.0938 Q197.8125,350.5 199,350.5 Q199.7188,350.5 200.3438,350.75 Q200.9688,351 201.5,351.5 Z " fill="#000000"/><text fill="#000000" font-family="sans-serif" font-size="14" lengthAdjust="spacing" textLength="143" x="213.5" y="360.7285">CreateBoardController</text><line style="stroke:#181818;stroke-width:0.5;" x1="185.5" x2="358.5" y1="371" y2="371"/><line style="stroke:#181818;stroke-width:0.5;" x1="185.5" x2="358.5" y1="379" y2="379"/><ellipse cx="195.5" cy="393.3047" fill="#84BE84" rx="3" ry="3" style="stroke:#038048;stroke-width:1.0;"/><text fill="#000000" font-family="sans-serif" font-size="14" lengthAdjust="spacing" textLength="88" x="204.5" y="397.5332">createBoard()</text></g><!--MD5=[343839bb48731e46d0fda742d45fdd31]
class BoardRepository--><g id="elem_BoardRepository"><rect codeLine="16" fill="#F1F1F1" height="65.6094" id="BoardRepository" rx="2.5" ry="2.5" style="stroke:#181818;stroke-width:0.5;" width="138" x="7" y="466"/><ellipse cx="22" cy="482" fill="#B4A7E5" rx="11" ry="11" style="stroke:#181818;stroke-width:1.0;"/><path d="M23,479 L23,485 L25,485 L25.4844,485 L26,485.625 L26,486 L26,486.375 L25.4844,487 L25,487 L19,487 L18.5156,487 L18,486.375 L18,486 L18,485.625 L18.5156,485 L19,485 L21,485 L21,479 L19,479 L18.5156,479 L18,478.375 L18,478 L18,477.625 L18.5156,477 L19,477 L25,477 L25.4844,477 L26,477.625 L26,478 L26,478.375 L25.4844,479 L25,479 L23,479 Z " fill="#000000"/><text fill="#000000" font-family="sans-serif" font-size="14" font-style="italic" lengthAdjust="spacing" textLength="106" x="36" y="487.7285">BoardRepository</text><line style="stroke:#181818;stroke-width:0.5;" x1="8" x2="144" y1="498" y2="498"/><line style="stroke:#181818;stroke-width:0.5;" x1="8" x2="144" y1="506" y2="506"/><ellipse cx="18" cy="520.3047" fill="#84BE84" rx="3" ry="3" style="stroke:#038048;stroke-width:1.0;"/><text fill="#000000" font-family="sans-serif" font-size="14" lengthAdjust="spacing" textLength="40" x="27" y="524.5332">save()</text></g><!--MD5=[2a66b06a3e1b1fa10753a3ca6832f925]
class eCourseUserRepository--><g id="elem_eCourseUserRepository"><rect codeLine="20" fill="#F1F1F1" height="65.6094" id="eCourseUserRepository" rx="2.5" ry="2.5" style="stroke:#181818;stroke-width:0.5;" width="184" x="180" y="466"/><ellipse cx="195" cy="482" fill="#B4A7E5" rx="11" ry="11" style="stroke:#181818;stroke-width:1.0;"/><path d="M196,479 L196,485 L198,485 L198.4844,485 L199,485.625 L199,486 L199,486.375 L198.4844,487 L198,487 L192,487 L191.5156,487 L191,486.375 L191,486 L191,485.625 L191.5156,485 L192,485 L194,485 L194,479 L192,479 L191.5156,479 L191,478.375 L191,478 L191,477.625 L191.5156,477 L192,477 L198,477 L198.4844,477 L199,477.625 L199,478 L199,478.375 L198.4844,479 L198,479 L196,479 Z " fill="#000000"/><text fill="#000000" font-family="sans-serif" font-size="14" font-style="italic" lengthAdjust="spacing" textLength="152" x="209" y="487.7285">eCourseUserRepository</text><line style="stroke:#181818;stroke-width:0.5;" x1="181" x2="363" y1="498" y2="498"/><line style="stroke:#181818;stroke-width:0.5;" x1="181" x2="363" y1="506" y2="506"/><ellipse cx="191" cy="520.3047" fill="#84BE84" rx="3" ry="3" style="stroke:#038048;stroke-width:1.0;"/><text fill="#000000" font-family="sans-serif" font-size="14" lengthAdjust="spacing" textLength="82" x="200" y="524.5332">searchUser()</text></g><!--MD5=[9563755d011c5cec7ec66dc53565a59e]
class Board--><g id="elem_Board"><rect codeLine="24" fill="#F1F1F1" height="153.6563" id="Board" rx="2.5" ry="2.5" style="stroke:#181818;stroke-width:0.5;" width="106" x="193" y="593"/><ellipse cx="224.2" cy="609" fill="#ADD1B2" rx="11" ry="11" style="stroke:#181818;stroke-width:1.0;"/><path d="M226.2,605.5 Q226.4031,605 226.6375,604.75 Q226.8719,604.5 227.1375,604.5 Q227.6063,604.5 227.9031,604.7813 Q228.2,605.0625 228.2,605.7188 L228.2,607.2813 Q228.2,607.9375 227.9188,608.2188 Q227.6375,608.5 227.2,608.5 Q226.8094,608.5 226.5594,608.3281 Q226.3094,608.1563 226.2,607.7031 Q226.1531,607.3906 225.9813,607.2188 Q225.6688,606.8906 225.1063,606.7031 Q224.5438,606.5 223.9813,606.5 Q223.2781,606.5 222.6844,606.7813 Q222.1063,607.0625 221.6531,607.6875 Q221.2,608.3125 221.2,609.1719 L221.2,610.0938 Q221.2,611.125 222.0438,611.8125 Q222.8875,612.5 224.3875,612.5 Q225.2781,612.5 225.9031,612.2969 Q226.2625,612.1875 226.6688,611.8281 Q226.9344,611.625 227.075,611.5625 Q227.2156,611.5 227.3875,611.5 Q227.7156,611.5 227.95,611.7656 Q228.2,612.0156 228.2,612.375 Q228.2,612.7188 227.8563,613.125 Q227.3563,613.7188 226.5594,614.0469 Q225.5125,614.5 224.2313,614.5 Q222.7313,614.5 221.5281,613.9063 Q220.5594,613.4375 219.8719,612.4219 Q219.2,611.4063 219.2,610.2031 L219.2,609.1094 Q219.2,607.8594 219.7938,606.7656 Q220.4031,605.6719 221.45,605.0938 Q222.5125,604.5 223.7,604.5 Q224.4188,604.5 225.0438,604.75 Q225.6688,605 226.2,605.5 Z " fill="#000000"/><text fill="#000000" font-family="sans-serif" font-size="14" lengthAdjust="spacing" textLength="38" x="241.8" y="614.7285">Board</text><line style="stroke:#181818;stroke-width:0.5;" x1="194" x2="298" y1="625" y2="625"/><ellipse cx="204" cy="639.3047" fill="#000000" rx="3" ry="3" style="stroke:#000000;stroke-width:1.0;"/><text fill="#000000" font-family="sans-serif" font-size="14" lengthAdjust="spacing" textLength="73" x="213" y="643.5332">boardName</text><ellipse cx="204" cy="656.9141" fill="#000000" rx="3" ry="3" style="stroke:#000000;stroke-width:1.0;"/><text fill="#000000" font-family="sans-serif" font-size="14" lengthAdjust="spacing" textLength="43" x="213" y="661.1426">cellList</text><ellipse cx="204" cy="674.5234" fill="#000000" rx="3" ry="3" style="stroke:#000000;stroke-width:1.0;"/><text fill="#000000" font-family="sans-serif" font-size="14" lengthAdjust="spacing" textLength="52" x="213" y="678.752">maxRow</text><ellipse cx="204" cy="692.1328" fill="#000000" rx="3" ry="3" style="stroke:#000000;stroke-width:1.0;"/><text fill="#000000" font-family="sans-serif" font-size="14" lengthAdjust="spacing" textLength="73" x="213" y="696.3613">maxColumn</text><ellipse cx="204" cy="709.7422" fill="#000000" rx="3" ry="3" style="stroke:#000000;stroke-width:1.0;"/><text fill="#000000" font-family="sans-serif" font-size="14" lengthAdjust="spacing" textLength="38" x="213" y="713.9707">owner</text><ellipse cx="204" cy="727.3516" fill="#000000" rx="3" ry="3" style="stroke:#000000;stroke-width:1.0;"/><text fill="#000000" font-family="sans-serif" font-size="14" lengthAdjust="spacing" textLength="80" x="213" y="731.5801">sharedUsers</text><line style="stroke:#181818;stroke-width:0.5;" x1="194" x2="298" y1="738.6563" y2="738.6563"/></g><!--MD5=[e59cf999063292dce8d6ea34dd10a338]
class user--><g id="elem_user"><rect fill="#F1F1F1" height="48" id="user" rx="2.5" ry="2.5" style="stroke:#181818;stroke-width:0.5;" width="60" x="55" y="46.5"/><ellipse cx="70" cy="62.5" fill="#ADD1B2" rx="11" ry="11" style="stroke:#181818;stroke-width:1.0;"/><path d="M72,59 Q72.2031,58.5 72.4375,58.25 Q72.6719,58 72.9375,58 Q73.4063,58 73.7031,58.2813 Q74,58.5625 74,59.2188 L74,60.7813 Q74,61.4375 73.7188,61.7188 Q73.4375,62 73,62 Q72.6094,62 72.3594,61.8281 Q72.1094,61.6563 72,61.2031 Q71.9531,60.8906 71.7813,60.7188 Q71.4688,60.3906 70.9063,60.2031 Q70.3438,60 69.7813,60 Q69.0781,60 68.4844,60.2813 Q67.9063,60.5625 67.4531,61.1875 Q67,61.8125 67,62.6719 L67,63.5938 Q67,64.625 67.8438,65.3125 Q68.6875,66 70.1875,66 Q71.0781,66 71.7031,65.7969 Q72.0625,65.6875 72.4688,65.3281 Q72.7344,65.125 72.875,65.0625 Q73.0156,65 73.1875,65 Q73.5156,65 73.75,65.2656 Q74,65.5156 74,65.875 Q74,66.2188 73.6563,66.625 Q73.1563,67.2188 72.3594,67.5469 Q71.3125,68 70.0313,68 Q68.5313,68 67.3281,67.4063 Q66.3594,66.9375 65.6719,65.9219 Q65,64.9063 65,63.7031 L65,62.6094 Q65,61.3594 65.5938,60.2656 Q66.2031,59.1719 67.25,58.5938 Q68.3125,58 69.5,58 Q70.2188,58 70.8438,58.25 Q71.4688,58.5 72,59 Z " fill="#000000"/><text fill="#000000" font-family="sans-serif" font-size="14" lengthAdjust="spacing" textLength="28" x="84" y="68.2285">user</text><line style="stroke:#181818;stroke-width:0.5;" x1="56" x2="114" y1="78.5" y2="78.5"/><line style="stroke:#181818;stroke-width:0.5;" x1="56" x2="114" y1="86.5" y2="86.5"/></g><!--MD5=[253b7fb6c890facc3331989464c4d851]
link user to eCourseSystemUser--><g id="link_user_eCourseSystemUser"><path codeLine="35" d="M115.04,70.5 C134.35,70.5 160.49,70.5 185.9,70.5 " fill="none" id="user-eCourseSystemUser" style="stroke:#181818;stroke-width:1.0;"/><polygon fill="#000000" points="142.5,58.6758,133.4549,55.7369,133.4549,61.6147,142.5,58.6758" style="stroke:#000000;stroke-width:1.0;"/><text fill="#000000" font-family="sans-serif" font-size="13" lengthAdjust="spacing" textLength="21" x="146.5" y="63.9951">is a</text><text fill="#000000" font-family="sans-serif" font-size="13" lengthAdjust="spacing" textLength="5" x="122.9716" y="66.088">*</text><text fill="#000000" font-family="sans-serif" font-size="13" lengthAdjust="spacing" textLength="7" x="170.92" y="67.315">1</text></g><!--MD5=[8f81ae1e84721e0a98bd3287184d2f46]
link eCourseSystemUser to CreateBoardUI--><g id="link_eCourseSystemUser_CreateBoardUI"><path codeLine="37" d="M272,134.26 C272,160.47 272,189.8 272,211.54 " fill="none" id="eCourseSystemUser-CreateBoardUI" style="stroke:#181818;stroke-width:1.0;stroke-dasharray:7.0,7.0;"/><text fill="#000000" font-family="sans-serif" font-size="13" lengthAdjust="spacing" textLength="50" x="273" y="178.4951">interacts</text></g><!--MD5=[a8e21c2675da13e94501003d210f0f63]
link CreateBoardUI to CreateBoardController--><g id="link_CreateBoardUI_CreateBoardController"><path codeLine="38" d="M272,278.19 C272,296.85 272,320.27 272,338.92 " fill="none" id="CreateBoardUI-CreateBoardController" style="stroke:#181818;stroke-width:1.0;"/></g><!--MD5=[300396f1ac5f0a8bae1da88f89bd07d5]
link CreateBoardController to BoardRepository--><g id="link_CreateBoardController_BoardRepository"><path codeLine="39" d="M221.78,405.03 C192.52,423.69 155.73,447.15 126.43,465.84 " fill="none" id="CreateBoardController-BoardRepository" style="stroke:#181818;stroke-width:1.0;"/></g><!--MD5=[090e7761d4152be43337f30377661190]
link CreateBoardController to eCourseUserRepository--><g id="link_CreateBoardController_eCourseUserRepository"><path codeLine="40" d="M272,405.19 C272,423.85 272,447.27 272,465.92 " fill="none" id="CreateBoardController-eCourseUserRepository" style="stroke:#181818;stroke-width:1.0;"/></g><!--MD5=[e81d769a763d4c4167d6fc7a40ba1268]
link CreateBoardController to Board--><g id="link_CreateBoardController_Board"><path codeLine="41" d="M327.52,405.11 C348.68,420.56 370.47,441.16 382,466 C394.35,492.61 393.18,504.88 382,532 C365.21,572.75 329.78,607.78 299.3,632.22 " fill="none" id="CreateBoardController-Board" style="stroke:#181818;stroke-width:1.0;"/></g><!--MD5=[c2b2d28b8f8fd1e85bbeebc0fff5bd46]
link BoardRepository to Board--><g id="link_BoardRepository_Board"><path codeLine="42" d="M108.38,532.19 C132.17,555.84 165.04,588.51 192.68,616 " fill="none" id="BoardRepository-Board" style="stroke:#181818;stroke-width:1.0;"/></g><!--MD5=[d0a927599813a2cd0512b9a967be0c95]
@startuml


class eCourseSystemUser <<root>> <<Entity>> {
    * FullName
    * MecanographicNumber
    * ShortName
}
class CreateBoardUI  {
    +display()
}

class CreateBoardController{
    +createBoard()
}

interface BoardRepository{
    +save()
}

interface eCourseUserRepository{
    +searchUser()
}

class Board{
    *boardName
    *cellList
    *maxRow
    *maxColumn
    *owner
    *sharedUsers

}


eCourseSystemUser "1" -left- "*" user : is a <

eCourseSystemUser ..CreateBoardUI : interacts
CreateBoardUI - - CreateBoardController
CreateBoardController - - BoardRepository
CreateBoardController - - eCourseUserRepository
CreateBoardController - - Board
BoardRepository - - Board

@enduml

PlantUML version 1.2022.12(Sun Oct 23 19:12:26 BST 2022)
(GPL source distribution)
Java Runtime: OpenJDK Runtime Environment
JVM: OpenJDK 64-Bit Server VM
Default Encoding: Cp1252
Language: pt
Country: PT
--></g></svg>