<?xml version="1.0" encoding="UTF-8" standalone="no"?><svg xmlns="http://www.w3.org/2000/svg" xmlns:xlink="http://www.w3.org/1999/xlink" contentStyleType="text/css" height="769px" preserveAspectRatio="none" style="width:1132px;height:769px;background:#FFFFFF;" version="1.1" viewBox="0 0 1132 769" width="1132px" zoomAndPan="magnify"><defs/><g><rect fill="none" height="27.6094" id="_title" style="stroke:none;stroke-width:1.0;" width="144" x="493" y="10"/><text fill="#000000" font-family="sans-serif" font-size="14" font-weight="bold" lengthAdjust="spacing" textLength="134" x="498" y="29.5332">SSD - Create Board</text><rect fill="#FFFFFF" height="30.3516" style="stroke:#181818;stroke-width:1.0;" width="10" x="200.5" y="153.5703"/><rect fill="#FFFFFF" height="30.3516" style="stroke:#181818;stroke-width:1.0;" width="10" x="200.5" y="214.2734"/><rect fill="#FFFFFF" height="30.3516" style="stroke:#181818;stroke-width:1.0;" width="10" x="200.5" y="274.9766"/><rect fill="#FFFFFF" height="333.8672" style="stroke:#181818;stroke-width:1.0;" width="10" x="200.5" y="335.6797"/><rect fill="#FFFFFF" height="273.1641" style="stroke:#181818;stroke-width:1.0;" width="10" x="522.5" y="366.0313"/><rect fill="#FFFFFF" height="30.3516" style="stroke:#181818;stroke-width:1.0;" width="10" x="671" y="578.4922"/><rect fill="#FFFFFF" height="30.3516" style="stroke:#181818;stroke-width:1.0;" width="10" x="823.5" y="457.0859"/><rect fill="#FFFFFF" height="30.3516" style="stroke:#181818;stroke-width:1.0;" width="10" x="987.5" y="396.3828"/><rect fill="#FFFFFF" height="30.3516" style="stroke:#181818;stroke-width:1.0;" width="10" x="1095" y="517.7891"/><line style="stroke:#181818;stroke-width:0.5;stroke-dasharray:5.0,5.0;" x1="22" x2="22" y1="121.2188" y2="687.5469"/><line style="stroke:#181818;stroke-width:0.5;stroke-dasharray:5.0,5.0;" x1="205" x2="205" y1="121.2188" y2="687.5469"/><line style="stroke:#181818;stroke-width:0.5;stroke-dasharray:5.0,5.0;" x1="527" x2="527" y1="121.2188" y2="687.5469"/><line style="stroke:#181818;stroke-width:0.5;stroke-dasharray:5.0,5.0;" x1="676" x2="676" y1="121.2188" y2="687.5469"/><line style="stroke:#181818;stroke-width:0.5;stroke-dasharray:5.0,5.0;" x1="828" x2="828" y1="121.2188" y2="687.5469"/><line style="stroke:#181818;stroke-width:0.5;stroke-dasharray:5.0,5.0;" x1="992" x2="992" y1="121.2188" y2="687.5469"/><line style="stroke:#181818;stroke-width:0.5;stroke-dasharray:5.0,5.0;" x1="1100" x2="1100" y1="121.2188" y2="687.5469"/><text fill="#000000" font-family="sans-serif" font-size="14" lengthAdjust="spacing" textLength="29" x="5" y="118.1426">User</text><ellipse cx="22.5" cy="52.1094" fill="#E3E3E3" rx="8" ry="8" style="stroke:#181818;stroke-width:0.5;"/><path d="M22.5,60.1094 L22.5,87.1094 M9.5,68.1094 L35.5,68.1094 M22.5,87.1094 L9.5,102.1094 M22.5,87.1094 L35.5,102.1094 " fill="none" style="stroke:#181818;stroke-width:0.5;"/><text fill="#000000" font-family="sans-serif" font-size="14" lengthAdjust="spacing" textLength="29" x="5" y="701.0801">User</text><ellipse cx="22.5" cy="712.6563" fill="#E3E3E3" rx="8" ry="8" style="stroke:#181818;stroke-width:0.5;"/><path d="M22.5,720.6563 L22.5,747.6563 M9.5,728.6563 L35.5,728.6563 M22.5,747.6563 L9.5,762.6563 M22.5,747.6563 L35.5,762.6563 " fill="none" style="stroke:#181818;stroke-width:0.5;"/><rect fill="#E3E3E3" height="49.2188" rx="2.5" ry="2.5" style="stroke:#181818;stroke-width:0.5;" width="109" x="151" y="71"/><text fill="#000000" font-family="sans-serif" font-size="14" font-style="italic" lengthAdjust="spacing" textLength="95" x="158" y="92.5332">«presentation»</text><text fill="#000000" font-family="sans-serif" font-size="14" lengthAdjust="spacing" textLength="93" x="159" y="110.1426">CreateBoardUI</text><rect fill="#E3E3E3" height="49.2188" rx="2.5" ry="2.5" style="stroke:#181818;stroke-width:0.5;" width="109" x="151" y="686.5469"/><text fill="#000000" font-family="sans-serif" font-size="14" font-style="italic" lengthAdjust="spacing" textLength="95" x="158" y="708.0801">«presentation»</text><text fill="#000000" font-family="sans-serif" font-size="14" lengthAdjust="spacing" textLength="93" x="159" y="725.6895">CreateBoardUI</text><rect fill="#E3E3E3" height="49.2188" rx="2.5" ry="2.5" style="stroke:#181818;stroke-width:0.5;" width="157" x="449" y="71"/><text fill="#000000" font-family="sans-serif" font-size="14" font-style="italic" lengthAdjust="spacing" textLength="84" x="485.5" y="92.5332">«application»</text><text fill="#000000" font-family="sans-serif" font-size="14" lengthAdjust="spacing" textLength="143" x="456" y="110.1426">CreateBoardController</text><rect fill="#E3E3E3" height="49.2188" rx="2.5" ry="2.5" style="stroke:#181818;stroke-width:0.5;" width="157" x="449" y="686.5469"/><text fill="#000000" font-family="sans-serif" font-size="14" font-style="italic" lengthAdjust="spacing" textLength="84" x="485.5" y="708.0801">«application»</text><text fill="#000000" font-family="sans-serif" font-size="14" lengthAdjust="spacing" textLength="143" x="456" y="725.6895">CreateBoardController</text><rect fill="#E3E3E3" height="49.2188" rx="2.5" ry="2.5" style="stroke:#181818;stroke-width:0.5;" width="120" x="616" y="71"/><text fill="#000000" font-family="sans-serif" font-size="14" font-style="italic" lengthAdjust="spacing" textLength="79" x="636.5" y="92.5332">«repository»</text><text fill="#000000" font-family="sans-serif" font-size="14" lengthAdjust="spacing" textLength="106" x="623" y="110.1426">BoardRepository</text><rect fill="#E3E3E3" height="49.2188" rx="2.5" ry="2.5" style="stroke:#181818;stroke-width:0.5;" width="120" x="616" y="686.5469"/><text fill="#000000" font-family="sans-serif" font-size="14" font-style="italic" lengthAdjust="spacing" textLength="79" x="636.5" y="708.0801">«repository»</text><text fill="#000000" font-family="sans-serif" font-size="14" lengthAdjust="spacing" textLength="106" x="623" y="725.6895">BoardRepository</text><rect fill="#E3E3E3" height="49.2188" rx="2.5" ry="2.5" style="stroke:#181818;stroke-width:0.5;" width="165" x="746" y="71"/><text fill="#000000" font-family="sans-serif" font-size="14" font-style="italic" lengthAdjust="spacing" textLength="79" x="789" y="92.5332">«repository»</text><text fill="#000000" font-family="sans-serif" font-size="14" lengthAdjust="spacing" textLength="151" x="753" y="110.1426">eCourseUserRepository</text><rect fill="#E3E3E3" height="49.2188" rx="2.5" ry="2.5" style="stroke:#181818;stroke-width:0.5;" width="165" x="746" y="686.5469"/><text fill="#000000" font-family="sans-serif" font-size="14" font-style="italic" lengthAdjust="spacing" textLength="79" x="789" y="708.0801">«repository»</text><text fill="#000000" font-family="sans-serif" font-size="14" lengthAdjust="spacing" textLength="151" x="753" y="725.6895">eCourseUserRepository</text><rect fill="#E3E3E3" height="49.2188" rx="2.5" ry="2.5" style="stroke:#181818;stroke-width:0.5;" width="143" x="921" y="71"/><text fill="#000000" font-family="sans-serif" font-size="14" font-style="italic" lengthAdjust="spacing" textLength="84" x="950.5" y="92.5332">«application»</text><text fill="#000000" font-family="sans-serif" font-size="14" lengthAdjust="spacing" textLength="129" x="928" y="110.1426">AuthorizationService</text><rect fill="#E3E3E3" height="49.2188" rx="2.5" ry="2.5" style="stroke:#181818;stroke-width:0.5;" width="143" x="921" y="686.5469"/><text fill="#000000" font-family="sans-serif" font-size="14" font-style="italic" lengthAdjust="spacing" textLength="84" x="950.5" y="708.0801">«application»</text><text fill="#000000" font-family="sans-serif" font-size="14" lengthAdjust="spacing" textLength="129" x="928" y="725.6895">AuthorizationService</text><rect fill="#E3E3E3" height="31.6094" rx="2.5" ry="2.5" style="stroke:#181818;stroke-width:0.5;" width="52" x="1074" y="88.6094"/><text fill="#000000" font-family="sans-serif" font-size="14" lengthAdjust="spacing" textLength="38" x="1081" y="110.1426">Board</text><rect fill="#E3E3E3" height="31.6094" rx="2.5" ry="2.5" style="stroke:#181818;stroke-width:0.5;" width="52" x="1074" y="686.5469"/><text fill="#000000" font-family="sans-serif" font-size="14" lengthAdjust="spacing" textLength="38" x="1081" y="708.0801">Board</text><rect fill="#FFFFFF" height="30.3516" style="stroke:#181818;stroke-width:1.0;" width="10" x="200.5" y="153.5703"/><rect fill="#FFFFFF" height="30.3516" style="stroke:#181818;stroke-width:1.0;" width="10" x="200.5" y="214.2734"/><rect fill="#FFFFFF" height="30.3516" style="stroke:#181818;stroke-width:1.0;" width="10" x="200.5" y="274.9766"/><rect fill="#FFFFFF" height="333.8672" style="stroke:#181818;stroke-width:1.0;" width="10" x="200.5" y="335.6797"/><rect fill="#FFFFFF" height="273.1641" style="stroke:#181818;stroke-width:1.0;" width="10" x="522.5" y="366.0313"/><rect fill="#FFFFFF" height="30.3516" style="stroke:#181818;stroke-width:1.0;" width="10" x="671" y="578.4922"/><rect fill="#FFFFFF" height="30.3516" style="stroke:#181818;stroke-width:1.0;" width="10" x="823.5" y="457.0859"/><rect fill="#FFFFFF" height="30.3516" style="stroke:#181818;stroke-width:1.0;" width="10" x="987.5" y="396.3828"/><rect fill="#FFFFFF" height="30.3516" style="stroke:#181818;stroke-width:1.0;" width="10" x="1095" y="517.7891"/><polygon fill="#181818" points="188.5,149.5703,198.5,153.5703,188.5,157.5703,192.5,153.5703" style="stroke:#181818;stroke-width:1.0;"/><line style="stroke:#181818;stroke-width:1.0;" x1="22.5" x2="194.5" y1="153.5703" y2="153.5703"/><text fill="#000000" font-family="sans-serif" font-size="13" lengthAdjust="spacing" textLength="159" x="29.5" y="148.7139">Requests to create a Board</text><polygon fill="#181818" points="33.5,179.9219,23.5,183.9219,33.5,187.9219,29.5,183.9219" style="stroke:#181818;stroke-width:1.0;"/><line style="stroke:#181818;stroke-width:1.0;" x1="27.5" x2="204.5" y1="183.9219" y2="183.9219"/><text fill="#000000" font-family="sans-serif" font-size="13" lengthAdjust="spacing" textLength="118" x="39.5" y="179.0654">asks for board name</text><polygon fill="#181818" points="188.5,210.2734,198.5,214.2734,188.5,218.2734,192.5,214.2734" style="stroke:#181818;stroke-width:1.0;"/><line style="stroke:#181818;stroke-width:1.0;" x1="22.5" x2="194.5" y1="214.2734" y2="214.2734"/><text fill="#000000" font-family="sans-serif" font-size="13" lengthAdjust="spacing" textLength="121" x="29.5" y="209.417">Provides board name</text><polygon fill="#181818" points="33.5,240.625,23.5,244.625,33.5,248.625,29.5,244.625" style="stroke:#181818;stroke-width:1.0;"/><line style="stroke:#181818;stroke-width:1.0;stroke-dasharray:2.0,2.0;" x1="27.5" x2="204.5" y1="244.625" y2="244.625"/><text fill="#000000" font-family="sans-serif" font-size="13" lengthAdjust="spacing" textLength="106" x="39.5" y="239.7686">Ask for max Rows</text><polygon fill="#181818" points="188.5,270.9766,198.5,274.9766,188.5,278.9766,192.5,274.9766" style="stroke:#181818;stroke-width:1.0;"/><line style="stroke:#181818;stroke-width:1.0;" x1="22.5" x2="194.5" y1="274.9766" y2="274.9766"/><text fill="#000000" font-family="sans-serif" font-size="13" lengthAdjust="spacing" textLength="114" x="29.5" y="270.1201">Provides max Rows</text><polygon fill="#181818" points="33.5,301.3281,23.5,305.3281,33.5,309.3281,29.5,305.3281" style="stroke:#181818;stroke-width:1.0;"/><line style="stroke:#181818;stroke-width:1.0;stroke-dasharray:2.0,2.0;" x1="27.5" x2="204.5" y1="305.3281" y2="305.3281"/><text fill="#000000" font-family="sans-serif" font-size="13" lengthAdjust="spacing" textLength="125" x="39.5" y="300.4717">Ask for max Columns</text><polygon fill="#181818" points="188.5,331.6797,198.5,335.6797,188.5,339.6797,192.5,335.6797" style="stroke:#181818;stroke-width:1.0;"/><line style="stroke:#181818;stroke-width:1.0;" x1="22.5" x2="194.5" y1="335.6797" y2="335.6797"/><text fill="#000000" font-family="sans-serif" font-size="13" lengthAdjust="spacing" textLength="133" x="29.5" y="330.8232">Provides max Columns</text><polygon fill="#181818" points="510.5,362.0313,520.5,366.0313,510.5,370.0313,514.5,366.0313" style="stroke:#181818;stroke-width:1.0;"/><line style="stroke:#181818;stroke-width:1.0;" x1="210.5" x2="516.5" y1="366.0313" y2="366.0313"/><text fill="#000000" font-family="sans-serif" font-size="13" lengthAdjust="spacing" textLength="293" x="217.5" y="361.1748">createBoard(boardName, maxRows, maxColumns)</text><polygon fill="#181818" points="975.5,392.3828,985.5,396.3828,975.5,400.3828,979.5,396.3828" style="stroke:#181818;stroke-width:1.0;"/><line style="stroke:#181818;stroke-width:1.0;" x1="532.5" x2="981.5" y1="396.3828" y2="396.3828"/><text fill="#000000" font-family="sans-serif" font-size="13" lengthAdjust="spacing" textLength="53" x="539.5" y="391.5264">session()</text><polygon fill="#181818" points="543.5,422.7344,533.5,426.7344,543.5,430.7344,539.5,426.7344" style="stroke:#181818;stroke-width:1.0;"/><line style="stroke:#181818;stroke-width:1.0;stroke-dasharray:2.0,2.0;" x1="537.5" x2="991.5" y1="426.7344" y2="426.7344"/><text fill="#000000" font-family="sans-serif" font-size="13" lengthAdjust="spacing" textLength="47" x="549.5" y="421.8779">Session</text><polygon fill="#181818" points="811.5,453.0859,821.5,457.0859,811.5,461.0859,815.5,457.0859" style="stroke:#181818;stroke-width:1.0;"/><line style="stroke:#181818;stroke-width:1.0;" x1="532.5" x2="817.5" y1="457.0859" y2="457.0859"/><text fill="#000000" font-family="sans-serif" font-size="13" lengthAdjust="spacing" textLength="105" x="539.5" y="452.2295">searchUser(email)</text><polygon fill="#181818" points="543.5,483.4375,533.5,487.4375,543.5,491.4375,539.5,487.4375" style="stroke:#181818;stroke-width:1.0;"/><line style="stroke:#181818;stroke-width:1.0;stroke-dasharray:2.0,2.0;" x1="537.5" x2="827.5" y1="487.4375" y2="487.4375"/><text fill="#000000" font-family="sans-serif" font-size="13" lengthAdjust="spacing" textLength="27" x="549.5" y="482.5811">User</text><polygon fill="#181818" points="1083,513.7891,1093,517.7891,1083,521.7891,1087,517.7891" style="stroke:#181818;stroke-width:1.0;"/><line style="stroke:#181818;stroke-width:1.0;" x1="532.5" x2="1089" y1="517.7891" y2="517.7891"/><text fill="#000000" font-family="sans-serif" font-size="13" lengthAdjust="spacing" textLength="323" x="539.5" y="512.9326">board=new (boardName, maxRows, maxColumns, user)</text><polygon fill="#181818" points="543.5,544.1406,533.5,548.1406,543.5,552.1406,539.5,548.1406" style="stroke:#181818;stroke-width:1.0;"/><line style="stroke:#181818;stroke-width:1.0;stroke-dasharray:2.0,2.0;" x1="537.5" x2="1099" y1="548.1406" y2="548.1406"/><text fill="#000000" font-family="sans-serif" font-size="13" lengthAdjust="spacing" textLength="32" x="549.5" y="543.2842">board</text><polygon fill="#181818" points="659,574.4922,669,578.4922,659,582.4922,663,578.4922" style="stroke:#181818;stroke-width:1.0;"/><line style="stroke:#181818;stroke-width:1.0;" x1="532.5" x2="665" y1="578.4922" y2="578.4922"/><text fill="#000000" font-family="sans-serif" font-size="13" lengthAdjust="spacing" textLength="66" x="539.5" y="573.6357">save(board)</text><polygon fill="#181818" points="543.5,604.8438,533.5,608.8438,543.5,612.8438,539.5,608.8438" style="stroke:#181818;stroke-width:1.0;"/><line style="stroke:#181818;stroke-width:1.0;stroke-dasharray:2.0,2.0;" x1="537.5" x2="675" y1="608.8438" y2="608.8438"/><text fill="#000000" font-family="sans-serif" font-size="13" lengthAdjust="spacing" textLength="29" x="549.5" y="603.9873">state</text><polygon fill="#181818" points="221.5,635.1953,211.5,639.1953,221.5,643.1953,217.5,639.1953" style="stroke:#181818;stroke-width:1.0;"/><line style="stroke:#181818;stroke-width:1.0;stroke-dasharray:2.0,2.0;" x1="215.5" x2="526.5" y1="639.1953" y2="639.1953"/><text fill="#000000" font-family="sans-serif" font-size="13" lengthAdjust="spacing" textLength="29" x="227.5" y="634.3389">state</text><polygon fill="#181818" points="33.5,665.5469,23.5,669.5469,33.5,673.5469,29.5,669.5469" style="stroke:#181818;stroke-width:1.0;"/><line style="stroke:#181818;stroke-width:1.0;stroke-dasharray:2.0,2.0;" x1="27.5" x2="204.5" y1="669.5469" y2="669.5469"/><text fill="#000000" font-family="sans-serif" font-size="13" lengthAdjust="spacing" textLength="29" x="39.5" y="664.6904">state</text><!--MD5=[67e862f312ba8fc00e64ed7cb7d35819]
@startuml
'https://plantuml.com/skinparam
skinparam monochrome true
skinparam packageStyle rect

title SSD - Create Board

actor User as Actor
participant CreateBoardUI as UI <<presentation>>
participant CreateBoardController as Controller <<application>>
participant BoardRepository as BoardRepo <<repository>>
participant eCourseUserRepository as UserRepo <<repository>>
participant AuthorizationService as Authz <<application>>

Actor -> UI: Requests to create a Board
activate UI
UI->Actor: asks for board name
deactivate UI
Actor -> UI: Provides board name
activate UI
UI - ->Actor: Ask for max Rows
deactivate UI
Actor -> UI: Provides max Rows
activate UI
UI - ->Actor: Ask for max Columns
deactivate UI
Actor -> UI: Provides max Columns
activate UI

    UI -> Controller: createBoard(boardName, maxRows, maxColumns)
    activate Controller
    Controller -> Authz: session()
    activate Authz
    Authz - -> Controller: Session
    deactivate Authz
    Controller -> UserRepo: searchUser(email)
    activate UserRepo
    UserRepo - -> Controller: User
    deactivate UserRepo
    Controller -> Board: board=new (boardName, maxRows, maxColumns, user)
    activate Board
    Board - -> Controller: board
    deactivate Board
    Controller->BoardRepo: save(board)
    activate BoardRepo
    BoardRepo- ->Controller: state
    deactivate BoardRepo
    deactivate Board
    Controller - -> UI: state
    deactivate Controller
    UI - -> Actor: state
    deactivate UI


@enduml

@startuml
skinparam monochrome true
skinparam packageStyle rect

title SSD - Create Board

actor User as Actor
participant CreateBoardUI as UI <<presentation>>
participant CreateBoardController as Controller <<application>>
participant BoardRepository as BoardRepo <<repository>>
participant eCourseUserRepository as UserRepo <<repository>>
participant AuthorizationService as Authz <<application>>

Actor -> UI: Requests to create a Board
activate UI
UI->Actor: asks for board name
deactivate UI
Actor -> UI: Provides board name
activate UI
UI - ->Actor: Ask for max Rows
deactivate UI
Actor -> UI: Provides max Rows
activate UI
UI - ->Actor: Ask for max Columns
deactivate UI
Actor -> UI: Provides max Columns
activate UI

    UI -> Controller: createBoard(boardName, maxRows, maxColumns)
    activate Controller
    Controller -> Authz: session()
    activate Authz
    Authz - -> Controller: Session
    deactivate Authz
    Controller -> UserRepo: searchUser(email)
    activate UserRepo
    UserRepo - -> Controller: User
    deactivate UserRepo
    Controller -> Board: board=new (boardName, maxRows, maxColumns, user)
    activate Board
    Board - -> Controller: board
    deactivate Board
    Controller->BoardRepo: save(board)
    activate BoardRepo
    BoardRepo- ->Controller: state
    deactivate BoardRepo
    deactivate Board
    Controller - -> UI: state
    deactivate Controller
    UI - -> Actor: state
    deactivate UI


@enduml

PlantUML version 1.2022.12(Sun Oct 23 19:12:26 BST 2022)
(GPL source distribution)
Java Runtime: OpenJDK Runtime Environment
JVM: OpenJDK 64-Bit Server VM
Default Encoding: Cp1252
Language: pt
Country: PT
--></g></svg>