<?xml version="1.0" encoding="us-ascii" standalone="no"?><svg xmlns="http://www.w3.org/2000/svg" xmlns:xlink="http://www.w3.org/1999/xlink" contentStyleType="text/css" height="825px" preserveAspectRatio="none" style="width:2181px;height:825px;background:#FFFFFF;" version="1.1" viewBox="0 0 2181 825" width="2181px" zoomAndPan="magnify"><defs/><g><!--class ViewBoardChangesUI--><g id="elem_ViewBoardChangesUI"><rect codeLine="4" fill="#F1F1F1" height="85.2422" id="ViewBoardChangesUI" rx="2.5" ry="2.5" style="stroke:#181818;stroke-width:0.5;" width="283" x="398.5" y="222.5"/><ellipse cx="467.75" cy="238.5" fill="#ADD1B2" rx="11" ry="11" style="stroke:#181818;stroke-width:1.0;"/><path d="M470.5156,234.375 Q470.6719,234.1563 470.8594,234.0469 Q471.0469,233.9375 471.2656,233.9375 Q471.6406,233.9375 471.875,234.2031 Q472.1094,234.4531 472.1094,235.0625 L472.1094,236.5156 Q472.1094,237.125 471.875,237.3906 Q471.6406,237.6563 471.2656,237.6563 Q470.9219,237.6563 470.7188,237.4531 Q470.5156,237.2656 470.4063,236.75 Q470.3594,236.3906 470.1719,236.2031 Q469.8438,235.8281 469.2344,235.6094 Q468.625,235.3906 468,235.3906 Q467.2344,235.3906 466.5938,235.7188 Q465.9688,236.0469 465.4688,236.7969 Q464.9844,237.5469 464.9844,238.5781 L464.9844,239.6719 Q464.9844,240.9063 465.875,241.7344 Q466.7656,242.5469 468.3594,242.5469 Q469.2969,242.5469 469.9531,242.2969 Q470.3438,242.1406 470.7656,241.7031 Q471.0313,241.4375 471.1719,241.3594 Q471.3281,241.2813 471.5313,241.2813 Q471.8594,241.2813 472.1094,241.5469 Q472.375,241.7969 472.375,242.1406 Q472.375,242.4844 472.0313,242.8906 Q471.5313,243.4688 470.7344,243.7969 Q469.6563,244.25 468.3594,244.25 Q466.8438,244.25 465.6406,243.625 Q464.6563,243.125 463.9688,242.0625 Q463.2813,240.9844 463.2813,239.7031 L463.2813,238.5469 Q463.2813,237.2188 463.8906,236.0781 Q464.5156,234.9219 465.6094,234.3125 Q466.7031,233.6875 467.9375,233.6875 Q468.6719,233.6875 469.3125,233.8594 Q469.9688,234.0156 470.5156,234.375 Z " fill="#000000"/><text fill="#000000" font-family="sans-serif" font-size="14" lengthAdjust="spacing" textLength="136" x="488.25" y="244.2969">ViewBoardChangesUI</text><line style="stroke:#181818;stroke-width:0.5;" x1="399.5" x2="680.5" y1="254.5" y2="254.5"/><line style="stroke:#181818;stroke-width:0.5;" x1="399.5" x2="680.5" y1="262.5" y2="262.5"/><ellipse cx="409.5" cy="277.3105" fill="#84BE84" rx="3" ry="3" style="stroke:#038048;stroke-width:1.0;"/><text fill="#000000" font-family="sans-serif" font-size="14" lengthAdjust="spacing" textLength="257" x="418.5" y="281.6074">buildBoardMenu(List&lt;SharedBoardDto&gt;)</text><ellipse cx="409.5" cy="295.9316" fill="#84BE84" rx="3" ry="3" style="stroke:#038048;stroke-width:1.0;"/><text fill="#000000" font-family="sans-serif" font-size="14" lengthAdjust="spacing" textLength="226" x="418.5" y="300.2285">ShowBoard(List&lt;SharedBoardDto&gt;)</text></g><!--class ViewBoardChangesController--><g id="elem_ViewBoardChangesController"><rect codeLine="10" fill="#F1F1F1" height="196.9688" id="ViewBoardChangesController" rx="2.5" ry="2.5" style="stroke:#181818;stroke-width:0.5;" width="543" x="58.5" y="401"/><ellipse cx="232.75" cy="417" fill="#ADD1B2" rx="11" ry="11" style="stroke:#181818;stroke-width:1.0;"/><path d="M235.5156,412.875 Q235.6719,412.6563 235.8594,412.5469 Q236.0469,412.4375 236.2656,412.4375 Q236.6406,412.4375 236.875,412.7031 Q237.1094,412.9531 237.1094,413.5625 L237.1094,415.0156 Q237.1094,415.625 236.875,415.8906 Q236.6406,416.1563 236.2656,416.1563 Q235.9219,416.1563 235.7188,415.9531 Q235.5156,415.7656 235.4063,415.25 Q235.3594,414.8906 235.1719,414.7031 Q234.8438,414.3281 234.2344,414.1094 Q233.625,413.8906 233,413.8906 Q232.2344,413.8906 231.5938,414.2188 Q230.9688,414.5469 230.4688,415.2969 Q229.9844,416.0469 229.9844,417.0781 L229.9844,418.1719 Q229.9844,419.4063 230.875,420.2344 Q231.7656,421.0469 233.3594,421.0469 Q234.2969,421.0469 234.9531,420.7969 Q235.3438,420.6406 235.7656,420.2031 Q236.0313,419.9375 236.1719,419.8594 Q236.3281,419.7813 236.5313,419.7813 Q236.8594,419.7813 237.1094,420.0469 Q237.375,420.2969 237.375,420.6406 Q237.375,420.9844 237.0313,421.3906 Q236.5313,421.9688 235.7344,422.2969 Q234.6563,422.75 233.3594,422.75 Q231.8438,422.75 230.6406,422.125 Q229.6563,421.625 228.9688,420.5625 Q228.2813,419.4844 228.2813,418.2031 L228.2813,417.0469 Q228.2813,415.7188 228.8906,414.5781 Q229.5156,413.4219 230.6094,412.8125 Q231.7031,412.1875 232.9375,412.1875 Q233.6719,412.1875 234.3125,412.3594 Q234.9688,412.5156 235.5156,412.875 Z " fill="#000000"/><text fill="#000000" font-family="sans-serif" font-size="14" lengthAdjust="spacing" textLength="186" x="253.25" y="422.7969">ViewBoardChangesController</text><line style="stroke:#181818;stroke-width:0.5;" x1="59.5" x2="600.5" y1="433" y2="433"/><rect fill="none" height="6" style="stroke:#C82930;stroke-width:1.0;" width="6" x="66.5" y="444.8105"/><text fill="#000000" font-family="sans-serif" font-size="14" lengthAdjust="spacing" textLength="37" x="78.5" y="452.1074">board</text><rect fill="none" height="6" style="stroke:#C82930;stroke-width:1.0;" width="6" x="66.5" y="463.4316"/><text fill="#000000" font-family="sans-serif" font-size="14" lengthAdjust="spacing" textLength="96" x="78.5" y="470.7285">userRepository</text><rect fill="none" height="6" style="stroke:#C82930;stroke-width:1.0;" width="6" x="66.5" y="482.0527"/><text fill="#000000" font-family="sans-serif" font-size="14" lengthAdjust="spacing" textLength="163" x="78.5" y="489.3496">BoardChangesRepository</text><rect fill="none" height="6" style="stroke:#C82930;stroke-width:1.0;" width="6" x="66.5" y="500.6738"/><text fill="#000000" font-family="sans-serif" font-size="14" lengthAdjust="spacing" textLength="106" x="78.5" y="507.9707">BoardRepository</text><line style="stroke:#181818;stroke-width:0.5;" x1="59.5" x2="600.5" y1="515.4844" y2="515.4844"/><ellipse cx="69.5" cy="530.2949" fill="#84BE84" rx="3" ry="3" style="stroke:#038048;stroke-width:1.0;"/><text fill="#000000" font-family="sans-serif" font-size="14" lengthAdjust="spacing" textLength="227" x="78.5" y="534.5918">getBoards(): List&lt;SharedBoardDto&gt;</text><ellipse cx="69.5" cy="548.916" fill="#84BE84" rx="3" ry="3" style="stroke:#038048;stroke-width:1.0;"/><text fill="#000000" font-family="sans-serif" font-size="14" lengthAdjust="spacing" textLength="234" x="78.5" y="553.2129">getBoard( boardId): SharedBoardDto</text><ellipse cx="69.5" cy="567.5371" fill="#84BE84" rx="3" ry="3" style="stroke:#038048;stroke-width:1.0;"/><text fill="#000000" font-family="sans-serif" font-size="14" lengthAdjust="spacing" textLength="288" x="78.5" y="571.834">getBoardChanges(): List&lt;BoardChangesDto&gt;</text><ellipse cx="69.5" cy="586.1582" fill="#84BE84" rx="3" ry="3" style="stroke:#038048;stroke-width:1.0;"/><text fill="#000000" font-family="sans-serif" font-size="14" lengthAdjust="spacing" textLength="517" x="78.5" y="590.4551">findBoardsOfUser(email,userRepository,BoardRepository): List&lt;SharedBoardDto&gt;</text></g><!--class RepositoryFactory--><g id="elem_RepositoryFactory"><rect codeLine="24" fill="#F1F1F1" height="48" id="RepositoryFactory" rx="2.5" ry="2.5" style="stroke:#181818;stroke-width:0.5;" width="148" x="7" y="715"/><ellipse cx="22" cy="731" fill="#ADD1B2" rx="11" ry="11" style="stroke:#181818;stroke-width:1.0;"/><path d="M24.7656,726.875 Q24.9219,726.6563 25.1094,726.5469 Q25.2969,726.4375 25.5156,726.4375 Q25.8906,726.4375 26.125,726.7031 Q26.3594,726.9531 26.3594,727.5625 L26.3594,729.0156 Q26.3594,729.625 26.125,729.8906 Q25.8906,730.1563 25.5156,730.1563 Q25.1719,730.1563 24.9688,729.9531 Q24.7656,729.7656 24.6563,729.25 Q24.6094,728.8906 24.4219,728.7031 Q24.0938,728.3281 23.4844,728.1094 Q22.875,727.8906 22.25,727.8906 Q21.4844,727.8906 20.8438,728.2188 Q20.2188,728.5469 19.7188,729.2969 Q19.2344,730.0469 19.2344,731.0781 L19.2344,732.1719 Q19.2344,733.4063 20.125,734.2344 Q21.0156,735.0469 22.6094,735.0469 Q23.5469,735.0469 24.2031,734.7969 Q24.5938,734.6406 25.0156,734.2031 Q25.2813,733.9375 25.4219,733.8594 Q25.5781,733.7813 25.7813,733.7813 Q26.1094,733.7813 26.3594,734.0469 Q26.625,734.2969 26.625,734.6406 Q26.625,734.9844 26.2813,735.3906 Q25.7813,735.9688 24.9844,736.2969 Q23.9063,736.75 22.6094,736.75 Q21.0938,736.75 19.8906,736.125 Q18.9063,735.625 18.2188,734.5625 Q17.5313,733.4844 17.5313,732.2031 L17.5313,731.0469 Q17.5313,729.7188 18.1406,728.5781 Q18.7656,727.4219 19.8594,726.8125 Q20.9531,726.1875 22.1875,726.1875 Q22.9219,726.1875 23.5625,726.3594 Q24.2188,726.5156 24.7656,726.875 Z " fill="#000000"/><text fill="#000000" font-family="sans-serif" font-size="14" lengthAdjust="spacing" textLength="116" x="36" y="736.7969">RepositoryFactory</text><line style="stroke:#181818;stroke-width:0.5;" x1="8" x2="154" y1="747" y2="747"/><line style="stroke:#181818;stroke-width:0.5;" x1="8" x2="154" y1="755" y2="755"/></g><!--class ShareBoardRepsitory--><g id="elem_ShareBoardRepsitory"><rect codeLine="37" fill="#F1F1F1" height="159.7266" id="ShareBoardRepsitory" rx="2.5" ry="2.5" style="stroke:#181818;stroke-width:0.5;" width="280" x="190" y="659"/><ellipse cx="257.75" cy="675" fill="#ADD1B2" rx="11" ry="11" style="stroke:#181818;stroke-width:1.0;"/><path d="M260.5156,670.875 Q260.6719,670.6563 260.8594,670.5469 Q261.0469,670.4375 261.2656,670.4375 Q261.6406,670.4375 261.875,670.7031 Q262.1094,670.9531 262.1094,671.5625 L262.1094,673.0156 Q262.1094,673.625 261.875,673.8906 Q261.6406,674.1563 261.2656,674.1563 Q260.9219,674.1563 260.7188,673.9531 Q260.5156,673.7656 260.4063,673.25 Q260.3594,672.8906 260.1719,672.7031 Q259.8438,672.3281 259.2344,672.1094 Q258.625,671.8906 258,671.8906 Q257.2344,671.8906 256.5938,672.2188 Q255.9688,672.5469 255.4688,673.2969 Q254.9844,674.0469 254.9844,675.0781 L254.9844,676.1719 Q254.9844,677.4063 255.875,678.2344 Q256.7656,679.0469 258.3594,679.0469 Q259.2969,679.0469 259.9531,678.7969 Q260.3438,678.6406 260.7656,678.2031 Q261.0313,677.9375 261.1719,677.8594 Q261.3281,677.7813 261.5313,677.7813 Q261.8594,677.7813 262.1094,678.0469 Q262.375,678.2969 262.375,678.6406 Q262.375,678.9844 262.0313,679.3906 Q261.5313,679.9688 260.7344,680.2969 Q259.6563,680.75 258.3594,680.75 Q256.8438,680.75 255.6406,680.125 Q254.6563,679.625 253.9688,678.5625 Q253.2813,677.4844 253.2813,676.2031 L253.2813,675.0469 Q253.2813,673.7188 253.8906,672.5781 Q254.5156,671.4219 255.6094,670.8125 Q256.7031,670.1875 257.9375,670.1875 Q258.6719,670.1875 259.3125,670.3594 Q259.9688,670.5156 260.5156,670.875 Z " fill="#000000"/><text fill="#000000" font-family="sans-serif" font-size="14" lengthAdjust="spacing" textLength="136" x="278.25" y="680.7969">ShareBoardRepsitory</text><line style="stroke:#181818;stroke-width:0.5;" x1="191" x2="469" y1="691" y2="691"/><line style="stroke:#181818;stroke-width:0.5;" x1="191" x2="469" y1="699" y2="699"/><ellipse cx="201" cy="713.8105" fill="#84BE84" rx="3" ry="3" style="stroke:#038048;stroke-width:1.0;"/><text fill="#000000" font-family="sans-serif" font-size="14" lengthAdjust="spacing" textLength="239" x="210" y="718.1074">findBoardsIOwn(): List&lt;SharedBoard&gt;</text><ellipse cx="201" cy="732.4316" fill="#84BE84" rx="3" ry="3" style="stroke:#038048;stroke-width:1.0;"/><text fill="#000000" font-family="sans-serif" font-size="14" lengthAdjust="spacing" textLength="254" x="210" y="736.7285">findBoardsShared(): List&lt;SharedBoard&gt;</text><ellipse cx="201" cy="751.0527" fill="#84BE84" rx="3" ry="3" style="stroke:#038048;stroke-width:1.0;"/><text fill="#000000" font-family="sans-serif" font-size="14" lengthAdjust="spacing" textLength="217" x="210" y="755.3496">saveShareBoard(boardId, postItId)</text><ellipse cx="201" cy="769.6738" fill="#84BE84" rx="3" ry="3" style="stroke:#038048;stroke-width:1.0;"/><text fill="#000000" font-family="sans-serif" font-size="14" lengthAdjust="spacing" textLength="239" x="210" y="773.9707">findBoardsIOwn(): List&lt;SharedBoard&gt;</text><ellipse cx="201" cy="788.2949" fill="#84BE84" rx="3" ry="3" style="stroke:#038048;stroke-width:1.0;"/><text fill="#000000" font-family="sans-serif" font-size="14" lengthAdjust="spacing" textLength="254" x="210" y="792.5918">findBoardsShared(): List&lt;SharedBoard&gt;</text><ellipse cx="201" cy="806.916" fill="#84BE84" rx="3" ry="3" style="stroke:#038048;stroke-width:1.0;"/><text fill="#000000" font-family="sans-serif" font-size="14" lengthAdjust="spacing" textLength="217" x="210" y="811.2129">saveShareBoard(boardId, postItId)</text></g><!--class BoardChangesRepsitory--><g id="elem_BoardChangesRepsitory"><rect codeLine="33" fill="#F1F1F1" height="85.2422" id="BoardChangesRepsitory" rx="2.5" ry="2.5" style="stroke:#181818;stroke-width:0.5;" width="284" x="505" y="696.5"/><ellipse cx="565.25" cy="712.5" fill="#ADD1B2" rx="11" ry="11" style="stroke:#181818;stroke-width:1.0;"/><path d="M568.0156,708.375 Q568.1719,708.1563 568.3594,708.0469 Q568.5469,707.9375 568.7656,707.9375 Q569.1406,707.9375 569.375,708.2031 Q569.6094,708.4531 569.6094,709.0625 L569.6094,710.5156 Q569.6094,711.125 569.375,711.3906 Q569.1406,711.6563 568.7656,711.6563 Q568.4219,711.6563 568.2188,711.4531 Q568.0156,711.2656 567.9063,710.75 Q567.8594,710.3906 567.6719,710.2031 Q567.3438,709.8281 566.7344,709.6094 Q566.125,709.3906 565.5,709.3906 Q564.7344,709.3906 564.0938,709.7188 Q563.4688,710.0469 562.9688,710.7969 Q562.4844,711.5469 562.4844,712.5781 L562.4844,713.6719 Q562.4844,714.9063 563.375,715.7344 Q564.2656,716.5469 565.8594,716.5469 Q566.7969,716.5469 567.4531,716.2969 Q567.8438,716.1406 568.2656,715.7031 Q568.5313,715.4375 568.6719,715.3594 Q568.8281,715.2813 569.0313,715.2813 Q569.3594,715.2813 569.6094,715.5469 Q569.875,715.7969 569.875,716.1406 Q569.875,716.4844 569.5313,716.8906 Q569.0313,717.4688 568.2344,717.7969 Q567.1563,718.25 565.8594,718.25 Q564.3438,718.25 563.1406,717.625 Q562.1563,717.125 561.4688,716.0625 Q560.7813,714.9844 560.7813,713.7031 L560.7813,712.5469 Q560.7813,711.2188 561.3906,710.0781 Q562.0156,708.9219 563.1094,708.3125 Q564.2031,707.6875 565.4375,707.6875 Q566.1719,707.6875 566.8125,707.8594 Q567.4688,708.0156 568.0156,708.375 Z " fill="#000000"/><text fill="#000000" font-family="sans-serif" font-size="14" lengthAdjust="spacing" textLength="155" x="585.75" y="718.2969">BoardChangesRepsitory</text><line style="stroke:#181818;stroke-width:0.5;" x1="506" x2="788" y1="728.5" y2="728.5"/><line style="stroke:#181818;stroke-width:0.5;" x1="506" x2="788" y1="736.5" y2="736.5"/><ellipse cx="516" cy="751.3105" fill="#84BE84" rx="3" ry="3" style="stroke:#038048;stroke-width:1.0;"/><text fill="#000000" font-family="sans-serif" font-size="14" lengthAdjust="spacing" textLength="258" x="525" y="755.6074">findByBoard( board): List&lt;SharedBoard&gt;</text><ellipse cx="516" cy="769.9316" fill="#84BE84" rx="3" ry="3" style="stroke:#038048;stroke-width:1.0;"/><text fill="#000000" font-family="sans-serif" font-size="14" lengthAdjust="spacing" textLength="241" x="525" y="774.2285">findByDate( date): List&lt;SharedBoard&gt;</text></g><!--class SystemUser--><g id="elem_SystemUser"><rect codeLine="44" fill="#F1F1F1" height="113.7852" id="SystemUser" rx="2.5" ry="2.5" style="stroke:#181818;stroke-width:0.5;" width="107" x="786.5" y="208"/><ellipse cx="801.5" cy="238.2715" fill="#ADD1B2" rx="11" ry="11" style="stroke:#181818;stroke-width:1.0;"/><path d="M804.2656,234.1465 Q804.4219,233.9277 804.6094,233.8184 Q804.7969,233.709 805.0156,233.709 Q805.3906,233.709 805.625,233.9746 Q805.8594,234.2246 805.8594,234.834 L805.8594,236.2871 Q805.8594,236.8965 805.625,237.1621 Q805.3906,237.4277 805.0156,237.4277 Q804.6719,237.4277 804.4688,237.2246 Q804.2656,237.0371 804.1563,236.5215 Q804.1094,236.1621 803.9219,235.9746 Q803.5938,235.5996 802.9844,235.3809 Q802.375,235.1621 801.75,235.1621 Q800.9844,235.1621 800.3438,235.4902 Q799.7188,235.8184 799.2188,236.5684 Q798.7344,237.3184 798.7344,238.3496 L798.7344,239.4434 Q798.7344,240.6777 799.625,241.5059 Q800.5156,242.3184 802.1094,242.3184 Q803.0469,242.3184 803.7031,242.0684 Q804.0938,241.9121 804.5156,241.4746 Q804.7813,241.209 804.9219,241.1309 Q805.0781,241.0527 805.2813,241.0527 Q805.6094,241.0527 805.8594,241.3184 Q806.125,241.5684 806.125,241.9121 Q806.125,242.2559 805.7813,242.6621 Q805.2813,243.2402 804.4844,243.5684 Q803.4063,244.0215 802.1094,244.0215 Q800.5938,244.0215 799.3906,243.3965 Q798.4063,242.8965 797.7188,241.834 Q797.0313,240.7559 797.0313,239.4746 L797.0313,238.3184 Q797.0313,236.9902 797.6406,235.8496 Q798.2656,234.6934 799.3594,234.084 Q800.4531,233.459 801.6875,233.459 Q802.4219,233.459 803.0625,233.6309 Q803.7188,233.7871 804.2656,234.1465 Z " fill="#000000"/><text fill="#000000" font-family="sans-serif" font-size="12" font-style="italic" lengthAdjust="spacing" textLength="35" x="835.5" y="225.9492">&#171;root&#187;</text><text fill="#000000" font-family="sans-serif" font-size="12" font-style="italic" lengthAdjust="spacing" textLength="44" x="831" y="241.9102">&#171;Entity&#187;</text><text fill="#000000" font-family="sans-serif" font-size="14" lengthAdjust="spacing" textLength="75" x="815.5" y="260.0293">SystemUser</text><line style="stroke:#181818;stroke-width:0.5;" x1="787.5" x2="892.5" y1="268.543" y2="268.543"/><ellipse cx="797.5" cy="283.3535" fill="#000000" rx="3" ry="3" style="stroke:#000000;stroke-width:1.0;"/><text fill="#000000" font-family="sans-serif" font-size="14" lengthAdjust="spacing" textLength="36" x="806.5" y="287.6504">Name</text><ellipse cx="797.5" cy="301.9746" fill="#000000" rx="3" ry="3" style="stroke:#000000;stroke-width:1.0;"/><text fill="#000000" font-family="sans-serif" font-size="14" lengthAdjust="spacing" textLength="64" x="806.5" y="306.2715">Username</text><line style="stroke:#181818;stroke-width:0.5;" x1="787.5" x2="892.5" y1="313.7852" y2="313.7852"/></g><!--class eCourseSystemUser--><g id="elem_eCourseSystemUser"><rect codeLine="49" fill="#F1F1F1" height="76.543" id="eCourseSystemUser" rx="2.5" ry="2.5" style="stroke:#181818;stroke-width:0.5;" width="161" x="1254.5" y="29.5"/><ellipse cx="1269.5" cy="59.7715" fill="#ADD1B2" rx="11" ry="11" style="stroke:#181818;stroke-width:1.0;"/><path d="M1272.2656,55.6465 Q1272.4219,55.4277 1272.6094,55.3184 Q1272.7969,55.209 1273.0156,55.209 Q1273.3906,55.209 1273.625,55.4746 Q1273.8594,55.7246 1273.8594,56.334 L1273.8594,57.7871 Q1273.8594,58.3965 1273.625,58.6621 Q1273.3906,58.9277 1273.0156,58.9277 Q1272.6719,58.9277 1272.4688,58.7246 Q1272.2656,58.5371 1272.1563,58.0215 Q1272.1094,57.6621 1271.9219,57.4746 Q1271.5938,57.0996 1270.9844,56.8809 Q1270.375,56.6621 1269.75,56.6621 Q1268.9844,56.6621 1268.3438,56.9902 Q1267.7188,57.3184 1267.2188,58.0684 Q1266.7344,58.8184 1266.7344,59.8496 L1266.7344,60.9434 Q1266.7344,62.1777 1267.625,63.0059 Q1268.5156,63.8184 1270.1094,63.8184 Q1271.0469,63.8184 1271.7031,63.5684 Q1272.0938,63.4121 1272.5156,62.9746 Q1272.7813,62.709 1272.9219,62.6309 Q1273.0781,62.5527 1273.2813,62.5527 Q1273.6094,62.5527 1273.8594,62.8184 Q1274.125,63.0684 1274.125,63.4121 Q1274.125,63.7559 1273.7813,64.1621 Q1273.2813,64.7402 1272.4844,65.0684 Q1271.4063,65.5215 1270.1094,65.5215 Q1268.5938,65.5215 1267.3906,64.8965 Q1266.4063,64.3965 1265.7188,63.334 Q1265.0313,62.2559 1265.0313,60.9746 L1265.0313,59.8184 Q1265.0313,58.4902 1265.6406,57.3496 Q1266.2656,56.1934 1267.3594,55.584 Q1268.4531,54.959 1269.6875,54.959 Q1270.4219,54.959 1271.0625,55.1309 Q1271.7188,55.2871 1272.2656,55.6465 Z " fill="#000000"/><text fill="#000000" font-family="sans-serif" font-size="12" font-style="italic" lengthAdjust="spacing" textLength="35" x="1330.5" y="47.4492">&#171;root&#187;</text><text fill="#000000" font-family="sans-serif" font-size="12" font-style="italic" lengthAdjust="spacing" textLength="44" x="1326" y="63.4102">&#171;Entity&#187;</text><text fill="#000000" font-family="sans-serif" font-size="14" lengthAdjust="spacing" textLength="129" x="1283.5" y="81.5293">eCourseSystemUser</text><line style="stroke:#181818;stroke-width:0.5;" x1="1255.5" x2="1414.5" y1="90.043" y2="90.043"/><line style="stroke:#181818;stroke-width:0.5;" x1="1255.5" x2="1414.5" y1="98.043" y2="98.043"/></g><!--class EmailAdderss--><g id="elem_EmailAdderss"><rect codeLine="53" fill="#F1F1F1" height="60.582" id="EmailAdderss" rx="2.5" ry="2.5" style="stroke:#181818;stroke-width:0.5;" width="118" x="781" y="469"/><ellipse cx="796" cy="491.291" fill="#ADD1B2" rx="11" ry="11" style="stroke:#181818;stroke-width:1.0;"/><path d="M798.7656,487.166 Q798.9219,486.9473 799.1094,486.8379 Q799.2969,486.7285 799.5156,486.7285 Q799.8906,486.7285 800.125,486.9941 Q800.3594,487.2441 800.3594,487.8535 L800.3594,489.3066 Q800.3594,489.916 800.125,490.1816 Q799.8906,490.4473 799.5156,490.4473 Q799.1719,490.4473 798.9688,490.2441 Q798.7656,490.0566 798.6563,489.541 Q798.6094,489.1816 798.4219,488.9941 Q798.0938,488.6191 797.4844,488.4004 Q796.875,488.1816 796.25,488.1816 Q795.4844,488.1816 794.8438,488.5098 Q794.2188,488.8379 793.7188,489.5879 Q793.2344,490.3379 793.2344,491.3691 L793.2344,492.4629 Q793.2344,493.6973 794.125,494.5254 Q795.0156,495.3379 796.6094,495.3379 Q797.5469,495.3379 798.2031,495.0879 Q798.5938,494.9316 799.0156,494.4941 Q799.2813,494.2285 799.4219,494.1504 Q799.5781,494.0723 799.7813,494.0723 Q800.1094,494.0723 800.3594,494.3379 Q800.625,494.5879 800.625,494.9316 Q800.625,495.2754 800.2813,495.6816 Q799.7813,496.2598 798.9844,496.5879 Q797.9063,497.041 796.6094,497.041 Q795.0938,497.041 793.8906,496.416 Q792.9063,495.916 792.2188,494.8535 Q791.5313,493.7754 791.5313,492.4941 L791.5313,491.3379 Q791.5313,490.0098 792.1406,488.8691 Q792.7656,487.7129 793.8594,487.1035 Q794.9531,486.4785 796.1875,486.4785 Q796.9219,486.4785 797.5625,486.6504 Q798.2188,486.8066 798.7656,487.166 Z " fill="#000000"/><text fill="#000000" font-family="sans-serif" font-size="12" font-style="italic" lengthAdjust="spacing" textLength="83" x="811.5" y="486.9492">&#171;Value object&#187;</text><text fill="#000000" font-family="sans-serif" font-size="14" lengthAdjust="spacing" textLength="86" x="810" y="505.0684">EmailAdderss</text><line style="stroke:#181818;stroke-width:0.5;" x1="782" x2="898" y1="513.582" y2="513.582"/><line style="stroke:#181818;stroke-width:0.5;" x1="782" x2="898" y1="521.582" y2="521.582"/></g><!--class Role--><g id="elem_Role"><rect codeLine="55" fill="#F1F1F1" height="79.2031" id="Role" rx="2.5" ry="2.5" style="stroke:#181818;stroke-width:0.5;" width="102" x="934" y="460"/><ellipse cx="962.5" cy="482.291" fill="#ADD1B2" rx="11" ry="11" style="stroke:#181818;stroke-width:1.0;"/><path d="M965.2656,478.166 Q965.4219,477.9473 965.6094,477.8379 Q965.7969,477.7285 966.0156,477.7285 Q966.3906,477.7285 966.625,477.9941 Q966.8594,478.2441 966.8594,478.8535 L966.8594,480.3066 Q966.8594,480.916 966.625,481.1816 Q966.3906,481.4473 966.0156,481.4473 Q965.6719,481.4473 965.4688,481.2441 Q965.2656,481.0566 965.1563,480.541 Q965.1094,480.1816 964.9219,479.9941 Q964.5938,479.6191 963.9844,479.4004 Q963.375,479.1816 962.75,479.1816 Q961.9844,479.1816 961.3438,479.5098 Q960.7188,479.8379 960.2188,480.5879 Q959.7344,481.3379 959.7344,482.3691 L959.7344,483.4629 Q959.7344,484.6973 960.625,485.5254 Q961.5156,486.3379 963.1094,486.3379 Q964.0469,486.3379 964.7031,486.0879 Q965.0938,485.9316 965.5156,485.4941 Q965.7813,485.2285 965.9219,485.1504 Q966.0781,485.0723 966.2813,485.0723 Q966.6094,485.0723 966.8594,485.3379 Q967.125,485.5879 967.125,485.9316 Q967.125,486.2754 966.7813,486.6816 Q966.2813,487.2598 965.4844,487.5879 Q964.4063,488.041 963.1094,488.041 Q961.5938,488.041 960.3906,487.416 Q959.4063,486.916 958.7188,485.8535 Q958.0313,484.7754 958.0313,483.4941 L958.0313,482.3379 Q958.0313,481.0098 958.6406,479.8691 Q959.2656,478.7129 960.3594,478.1035 Q961.4531,477.4785 962.6875,477.4785 Q963.4219,477.4785 964.0625,477.6504 Q964.7188,477.8066 965.2656,478.166 Z " fill="#000000"/><text fill="#000000" font-family="sans-serif" font-size="12" font-style="italic" lengthAdjust="spacing" textLength="44" x="977.5" y="477.9492">&#171;Entity&#187;</text><text fill="#000000" font-family="sans-serif" font-size="14" lengthAdjust="spacing" textLength="29" x="985" y="496.0684">Role</text><line style="stroke:#181818;stroke-width:0.5;" x1="935" x2="1035" y1="504.582" y2="504.582"/><ellipse cx="945" cy="519.3926" fill="#000000" rx="3" ry="3" style="stroke:#000000;stroke-width:1.0;"/><text fill="#000000" font-family="sans-serif" font-size="14" lengthAdjust="spacing" textLength="76" x="954" y="523.6895">String name</text><line style="stroke:#181818;stroke-width:0.5;" x1="935" x2="1035" y1="531.2031" y2="531.2031"/></g><!--class UserStatus--><g id="elem_UserStatus"><rect codeLine="59" fill="#F1F1F1" height="97.8242" id="UserStatus" rx="2.5" ry="2.5" style="stroke:#181818;stroke-width:0.5;" width="101" x="1000.5" y="216"/><ellipse cx="1015.5" cy="238.291" fill="#ADD1B2" rx="11" ry="11" style="stroke:#181818;stroke-width:1.0;"/><path d="M1018.2656,234.166 Q1018.4219,233.9473 1018.6094,233.8379 Q1018.7969,233.7285 1019.0156,233.7285 Q1019.3906,233.7285 1019.625,233.9941 Q1019.8594,234.2441 1019.8594,234.8535 L1019.8594,236.3066 Q1019.8594,236.916 1019.625,237.1816 Q1019.3906,237.4473 1019.0156,237.4473 Q1018.6719,237.4473 1018.4688,237.2441 Q1018.2656,237.0566 1018.1563,236.541 Q1018.1094,236.1816 1017.9219,235.9941 Q1017.5938,235.6191 1016.9844,235.4004 Q1016.375,235.1816 1015.75,235.1816 Q1014.9844,235.1816 1014.3438,235.5098 Q1013.7188,235.8379 1013.2188,236.5879 Q1012.7344,237.3379 1012.7344,238.3691 L1012.7344,239.4629 Q1012.7344,240.6973 1013.625,241.5254 Q1014.5156,242.3379 1016.1094,242.3379 Q1017.0469,242.3379 1017.7031,242.0879 Q1018.0938,241.9316 1018.5156,241.4941 Q1018.7813,241.2285 1018.9219,241.1504 Q1019.0781,241.0723 1019.2813,241.0723 Q1019.6094,241.0723 1019.8594,241.3379 Q1020.125,241.5879 1020.125,241.9316 Q1020.125,242.2754 1019.7813,242.6816 Q1019.2813,243.2598 1018.4844,243.5879 Q1017.4063,244.041 1016.1094,244.041 Q1014.5938,244.041 1013.3906,243.416 Q1012.4063,242.916 1011.7188,241.8535 Q1011.0313,240.7754 1011.0313,239.4941 L1011.0313,238.3379 Q1011.0313,237.0098 1011.6406,235.8691 Q1012.2656,234.7129 1013.3594,234.1035 Q1014.4531,233.4785 1015.6875,233.4785 Q1016.4219,233.4785 1017.0625,233.6504 Q1017.7188,233.8066 1018.2656,234.166 Z " fill="#000000"/><text fill="#000000" font-family="sans-serif" font-size="12" font-style="italic" lengthAdjust="spacing" textLength="46" x="1041" y="233.9492">&#171;enum&#187;</text><text fill="#000000" font-family="sans-serif" font-size="14" lengthAdjust="spacing" textLength="69" x="1029.5" y="252.0684">UserStatus</text><line style="stroke:#181818;stroke-width:0.5;" x1="1001.5" x2="1100.5" y1="260.582" y2="260.582"/><ellipse cx="1011.5" cy="275.3926" fill="none" rx="3" ry="3" style="stroke:#038048;stroke-width:1.0;"/><text fill="#000000" font-family="sans-serif" font-size="14" lengthAdjust="spacing" textLength="53" x="1020.5" y="279.6895">ENABLE</text><ellipse cx="1011.5" cy="294.0137" fill="none" rx="3" ry="3" style="stroke:#038048;stroke-width:1.0;"/><text fill="#000000" font-family="sans-serif" font-size="14" lengthAdjust="spacing" textLength="57" x="1020.5" y="298.3105">DISABLE</text><line style="stroke:#181818;stroke-width:0.5;" x1="1001.5" x2="1100.5" y1="305.8242" y2="305.8242"/></g><!--class Password--><g id="elem_Password"><rect codeLine="64" fill="#F1F1F1" height="60.582" id="Password" rx="2.5" ry="2.5" style="stroke:#181818;stroke-width:0.5;" width="109" x="636.5" y="469"/><ellipse cx="651.5" cy="491.291" fill="#ADD1B2" rx="11" ry="11" style="stroke:#181818;stroke-width:1.0;"/><path d="M654.2656,487.166 Q654.4219,486.9473 654.6094,486.8379 Q654.7969,486.7285 655.0156,486.7285 Q655.3906,486.7285 655.625,486.9941 Q655.8594,487.2441 655.8594,487.8535 L655.8594,489.3066 Q655.8594,489.916 655.625,490.1816 Q655.3906,490.4473 655.0156,490.4473 Q654.6719,490.4473 654.4688,490.2441 Q654.2656,490.0566 654.1563,489.541 Q654.1094,489.1816 653.9219,488.9941 Q653.5938,488.6191 652.9844,488.4004 Q652.375,488.1816 651.75,488.1816 Q650.9844,488.1816 650.3438,488.5098 Q649.7188,488.8379 649.2188,489.5879 Q648.7344,490.3379 648.7344,491.3691 L648.7344,492.4629 Q648.7344,493.6973 649.625,494.5254 Q650.5156,495.3379 652.1094,495.3379 Q653.0469,495.3379 653.7031,495.0879 Q654.0938,494.9316 654.5156,494.4941 Q654.7813,494.2285 654.9219,494.1504 Q655.0781,494.0723 655.2813,494.0723 Q655.6094,494.0723 655.8594,494.3379 Q656.125,494.5879 656.125,494.9316 Q656.125,495.2754 655.7813,495.6816 Q655.2813,496.2598 654.4844,496.5879 Q653.4063,497.041 652.1094,497.041 Q650.5938,497.041 649.3906,496.416 Q648.4063,495.916 647.7188,494.8535 Q647.0313,493.7754 647.0313,492.4941 L647.0313,491.3379 Q647.0313,490.0098 647.6406,488.8691 Q648.2656,487.7129 649.3594,487.1035 Q650.4531,486.4785 651.6875,486.4785 Q652.4219,486.4785 653.0625,486.6504 Q653.7188,486.8066 654.2656,487.166 Z " fill="#000000"/><text fill="#000000" font-family="sans-serif" font-size="12" font-style="italic" lengthAdjust="spacing" textLength="81" x="663.5" y="486.9492">&#171;value object&#187;</text><text fill="#000000" font-family="sans-serif" font-size="14" lengthAdjust="spacing" textLength="61" x="673.5" y="505.0684">Password</text><line style="stroke:#181818;stroke-width:0.5;" x1="637.5" x2="744.5" y1="513.582" y2="513.582"/><line style="stroke:#181818;stroke-width:0.5;" x1="637.5" x2="744.5" y1="521.582" y2="521.582"/></g><!--class Acronym--><g id="elem_Acronym"><rect codeLine="66" fill="#F1F1F1" height="60.582" id="Acronym" rx="2.5" ry="2.5" style="stroke:#181818;stroke-width:0.5;" width="109" x="1136.5" y="234.5"/><ellipse cx="1151.5" cy="256.791" fill="#ADD1B2" rx="11" ry="11" style="stroke:#181818;stroke-width:1.0;"/><path d="M1154.2656,252.666 Q1154.4219,252.4473 1154.6094,252.3379 Q1154.7969,252.2285 1155.0156,252.2285 Q1155.3906,252.2285 1155.625,252.4941 Q1155.8594,252.7441 1155.8594,253.3535 L1155.8594,254.8066 Q1155.8594,255.416 1155.625,255.6816 Q1155.3906,255.9473 1155.0156,255.9473 Q1154.6719,255.9473 1154.4688,255.7441 Q1154.2656,255.5566 1154.1563,255.041 Q1154.1094,254.6816 1153.9219,254.4941 Q1153.5938,254.1191 1152.9844,253.9004 Q1152.375,253.6816 1151.75,253.6816 Q1150.9844,253.6816 1150.3438,254.0098 Q1149.7188,254.3379 1149.2188,255.0879 Q1148.7344,255.8379 1148.7344,256.8691 L1148.7344,257.9629 Q1148.7344,259.1973 1149.625,260.0254 Q1150.5156,260.8379 1152.1094,260.8379 Q1153.0469,260.8379 1153.7031,260.5879 Q1154.0938,260.4316 1154.5156,259.9941 Q1154.7813,259.7285 1154.9219,259.6504 Q1155.0781,259.5723 1155.2813,259.5723 Q1155.6094,259.5723 1155.8594,259.8379 Q1156.125,260.0879 1156.125,260.4316 Q1156.125,260.7754 1155.7813,261.1816 Q1155.2813,261.7598 1154.4844,262.0879 Q1153.4063,262.541 1152.1094,262.541 Q1150.5938,262.541 1149.3906,261.916 Q1148.4063,261.416 1147.7188,260.3535 Q1147.0313,259.2754 1147.0313,257.9941 L1147.0313,256.8379 Q1147.0313,255.5098 1147.6406,254.3691 Q1148.2656,253.2129 1149.3594,252.6035 Q1150.4531,251.9785 1151.6875,251.9785 Q1152.4219,251.9785 1153.0625,252.1504 Q1153.7188,252.3066 1154.2656,252.666 Z " fill="#000000"/><text fill="#000000" font-family="sans-serif" font-size="12" font-style="italic" lengthAdjust="spacing" textLength="81" x="1163.5" y="252.4492">&#171;value object&#187;</text><text fill="#000000" font-family="sans-serif" font-size="14" lengthAdjust="spacing" textLength="55" x="1176.5" y="270.5684">Acronym</text><line style="stroke:#181818;stroke-width:0.5;" x1="1137.5" x2="1244.5" y1="279.082" y2="279.082"/><line style="stroke:#181818;stroke-width:0.5;" x1="1137.5" x2="1244.5" y1="287.082" y2="287.082"/></g><!--class NIF--><g id="elem_NIF"><rect codeLine="68" fill="#F1F1F1" height="60.582" id="NIF" rx="2.5" ry="2.5" style="stroke:#181818;stroke-width:0.5;" width="109" x="1280.5" y="234.5"/><ellipse cx="1295.5" cy="256.791" fill="#ADD1B2" rx="11" ry="11" style="stroke:#181818;stroke-width:1.0;"/><path d="M1298.2656,252.666 Q1298.4219,252.4473 1298.6094,252.3379 Q1298.7969,252.2285 1299.0156,252.2285 Q1299.3906,252.2285 1299.625,252.4941 Q1299.8594,252.7441 1299.8594,253.3535 L1299.8594,254.8066 Q1299.8594,255.416 1299.625,255.6816 Q1299.3906,255.9473 1299.0156,255.9473 Q1298.6719,255.9473 1298.4688,255.7441 Q1298.2656,255.5566 1298.1563,255.041 Q1298.1094,254.6816 1297.9219,254.4941 Q1297.5938,254.1191 1296.9844,253.9004 Q1296.375,253.6816 1295.75,253.6816 Q1294.9844,253.6816 1294.3438,254.0098 Q1293.7188,254.3379 1293.2188,255.0879 Q1292.7344,255.8379 1292.7344,256.8691 L1292.7344,257.9629 Q1292.7344,259.1973 1293.625,260.0254 Q1294.5156,260.8379 1296.1094,260.8379 Q1297.0469,260.8379 1297.7031,260.5879 Q1298.0938,260.4316 1298.5156,259.9941 Q1298.7813,259.7285 1298.9219,259.6504 Q1299.0781,259.5723 1299.2813,259.5723 Q1299.6094,259.5723 1299.8594,259.8379 Q1300.125,260.0879 1300.125,260.4316 Q1300.125,260.7754 1299.7813,261.1816 Q1299.2813,261.7598 1298.4844,262.0879 Q1297.4063,262.541 1296.1094,262.541 Q1294.5938,262.541 1293.3906,261.916 Q1292.4063,261.416 1291.7188,260.3535 Q1291.0313,259.2754 1291.0313,257.9941 L1291.0313,256.8379 Q1291.0313,255.5098 1291.6406,254.3691 Q1292.2656,253.2129 1293.3594,252.6035 Q1294.4531,251.9785 1295.6875,251.9785 Q1296.4219,251.9785 1297.0625,252.1504 Q1297.7188,252.3066 1298.2656,252.666 Z " fill="#000000"/><text fill="#000000" font-family="sans-serif" font-size="12" font-style="italic" lengthAdjust="spacing" textLength="81" x="1307.5" y="252.4492">&#171;value object&#187;</text><text fill="#000000" font-family="sans-serif" font-size="14" lengthAdjust="spacing" textLength="21" x="1337.5" y="270.5684">NIF</text><line style="stroke:#181818;stroke-width:0.5;" x1="1281.5" x2="1388.5" y1="279.082" y2="279.082"/><line style="stroke:#181818;stroke-width:0.5;" x1="1281.5" x2="1388.5" y1="287.082" y2="287.082"/></g><!--class BirthDate--><g id="elem_BirthDate"><rect codeLine="70" fill="#F1F1F1" height="60.582" id="BirthDate" rx="2.5" ry="2.5" style="stroke:#181818;stroke-width:0.5;" width="109" x="1424.5" y="234.5"/><ellipse cx="1439.5" cy="256.791" fill="#ADD1B2" rx="11" ry="11" style="stroke:#181818;stroke-width:1.0;"/><path d="M1442.2656,252.666 Q1442.4219,252.4473 1442.6094,252.3379 Q1442.7969,252.2285 1443.0156,252.2285 Q1443.3906,252.2285 1443.625,252.4941 Q1443.8594,252.7441 1443.8594,253.3535 L1443.8594,254.8066 Q1443.8594,255.416 1443.625,255.6816 Q1443.3906,255.9473 1443.0156,255.9473 Q1442.6719,255.9473 1442.4688,255.7441 Q1442.2656,255.5566 1442.1563,255.041 Q1442.1094,254.6816 1441.9219,254.4941 Q1441.5938,254.1191 1440.9844,253.9004 Q1440.375,253.6816 1439.75,253.6816 Q1438.9844,253.6816 1438.3438,254.0098 Q1437.7188,254.3379 1437.2188,255.0879 Q1436.7344,255.8379 1436.7344,256.8691 L1436.7344,257.9629 Q1436.7344,259.1973 1437.625,260.0254 Q1438.5156,260.8379 1440.1094,260.8379 Q1441.0469,260.8379 1441.7031,260.5879 Q1442.0938,260.4316 1442.5156,259.9941 Q1442.7813,259.7285 1442.9219,259.6504 Q1443.0781,259.5723 1443.2813,259.5723 Q1443.6094,259.5723 1443.8594,259.8379 Q1444.125,260.0879 1444.125,260.4316 Q1444.125,260.7754 1443.7813,261.1816 Q1443.2813,261.7598 1442.4844,262.0879 Q1441.4063,262.541 1440.1094,262.541 Q1438.5938,262.541 1437.3906,261.916 Q1436.4063,261.416 1435.7188,260.3535 Q1435.0313,259.2754 1435.0313,257.9941 L1435.0313,256.8379 Q1435.0313,255.5098 1435.6406,254.3691 Q1436.2656,253.2129 1437.3594,252.6035 Q1438.4531,251.9785 1439.6875,251.9785 Q1440.4219,251.9785 1441.0625,252.1504 Q1441.7188,252.3066 1442.2656,252.666 Z " fill="#000000"/><text fill="#000000" font-family="sans-serif" font-size="12" font-style="italic" lengthAdjust="spacing" textLength="81" x="1451.5" y="252.4492">&#171;value object&#187;</text><text fill="#000000" font-family="sans-serif" font-size="14" lengthAdjust="spacing" textLength="59" x="1462.5" y="270.5684">BirthDate</text><line style="stroke:#181818;stroke-width:0.5;" x1="1425.5" x2="1532.5" y1="279.082" y2="279.082"/><line style="stroke:#181818;stroke-width:0.5;" x1="1425.5" x2="1532.5" y1="287.082" y2="287.082"/></g><!--class MechanographicNumber--><g id="elem_MechanographicNumber"><rect codeLine="72" fill="#F1F1F1" height="76.543" id="MechanographicNumber" rx="2.5" ry="2.5" style="stroke:#181818;stroke-width:0.5;" width="186" x="1569" y="226.5"/><ellipse cx="1584" cy="256.7715" fill="#ADD1B2" rx="11" ry="11" style="stroke:#181818;stroke-width:1.0;"/><path d="M1586.7656,252.6465 Q1586.9219,252.4277 1587.1094,252.3184 Q1587.2969,252.209 1587.5156,252.209 Q1587.8906,252.209 1588.125,252.4746 Q1588.3594,252.7246 1588.3594,253.334 L1588.3594,254.7871 Q1588.3594,255.3965 1588.125,255.6621 Q1587.8906,255.9277 1587.5156,255.9277 Q1587.1719,255.9277 1586.9688,255.7246 Q1586.7656,255.5371 1586.6563,255.0215 Q1586.6094,254.6621 1586.4219,254.4746 Q1586.0938,254.0996 1585.4844,253.8809 Q1584.875,253.6621 1584.25,253.6621 Q1583.4844,253.6621 1582.8438,253.9902 Q1582.2188,254.3184 1581.7188,255.0684 Q1581.2344,255.8184 1581.2344,256.8496 L1581.2344,257.9434 Q1581.2344,259.1777 1582.125,260.0059 Q1583.0156,260.8184 1584.6094,260.8184 Q1585.5469,260.8184 1586.2031,260.5684 Q1586.5938,260.4121 1587.0156,259.9746 Q1587.2813,259.709 1587.4219,259.6309 Q1587.5781,259.5527 1587.7813,259.5527 Q1588.1094,259.5527 1588.3594,259.8184 Q1588.625,260.0684 1588.625,260.4121 Q1588.625,260.7559 1588.2813,261.1621 Q1587.7813,261.7402 1586.9844,262.0684 Q1585.9063,262.5215 1584.6094,262.5215 Q1583.0938,262.5215 1581.8906,261.8965 Q1580.9063,261.3965 1580.2188,260.334 Q1579.5313,259.2559 1579.5313,257.9746 L1579.5313,256.8184 Q1579.5313,255.4902 1580.1406,254.3496 Q1580.7656,253.1934 1581.8594,252.584 Q1582.9531,251.959 1584.1875,251.959 Q1584.9219,251.959 1585.5625,252.1309 Q1586.2188,252.2871 1586.7656,252.6465 Z " fill="#000000"/><text fill="#000000" font-family="sans-serif" font-size="12" font-style="italic" lengthAdjust="spacing" textLength="81" x="1634.5" y="244.4492">&#171;value object&#187;</text><text fill="#000000" font-family="sans-serif" font-size="12" font-style="italic" lengthAdjust="spacing" textLength="146" x="1602" y="260.4102">&#171;automatically generated&#187;</text><text fill="#000000" font-family="sans-serif" font-size="14" lengthAdjust="spacing" textLength="154" x="1598" y="278.5293">MechanographicNumber</text><line style="stroke:#181818;stroke-width:0.5;" x1="1570" x2="1754" y1="287.043" y2="287.043"/><line style="stroke:#181818;stroke-width:0.5;" x1="1570" x2="1754" y1="295.043" y2="295.043"/></g><!--class Grade--><g id="elem_Grade"><rect codeLine="74" fill="#F1F1F1" height="60.582" id="Grade" rx="2.5" ry="2.5" style="stroke:#181818;stroke-width:0.5;" width="109" x="1790.5" y="234.5"/><ellipse cx="1805.5" cy="256.791" fill="#ADD1B2" rx="11" ry="11" style="stroke:#181818;stroke-width:1.0;"/><path d="M1808.2656,252.666 Q1808.4219,252.4473 1808.6094,252.3379 Q1808.7969,252.2285 1809.0156,252.2285 Q1809.3906,252.2285 1809.625,252.4941 Q1809.8594,252.7441 1809.8594,253.3535 L1809.8594,254.8066 Q1809.8594,255.416 1809.625,255.6816 Q1809.3906,255.9473 1809.0156,255.9473 Q1808.6719,255.9473 1808.4688,255.7441 Q1808.2656,255.5566 1808.1563,255.041 Q1808.1094,254.6816 1807.9219,254.4941 Q1807.5938,254.1191 1806.9844,253.9004 Q1806.375,253.6816 1805.75,253.6816 Q1804.9844,253.6816 1804.3438,254.0098 Q1803.7188,254.3379 1803.2188,255.0879 Q1802.7344,255.8379 1802.7344,256.8691 L1802.7344,257.9629 Q1802.7344,259.1973 1803.625,260.0254 Q1804.5156,260.8379 1806.1094,260.8379 Q1807.0469,260.8379 1807.7031,260.5879 Q1808.0938,260.4316 1808.5156,259.9941 Q1808.7813,259.7285 1808.9219,259.6504 Q1809.0781,259.5723 1809.2813,259.5723 Q1809.6094,259.5723 1809.8594,259.8379 Q1810.125,260.0879 1810.125,260.4316 Q1810.125,260.7754 1809.7813,261.1816 Q1809.2813,261.7598 1808.4844,262.0879 Q1807.4063,262.541 1806.1094,262.541 Q1804.5938,262.541 1803.3906,261.916 Q1802.4063,261.416 1801.7188,260.3535 Q1801.0313,259.2754 1801.0313,257.9941 L1801.0313,256.8379 Q1801.0313,255.5098 1801.6406,254.3691 Q1802.2656,253.2129 1803.3594,252.6035 Q1804.4531,251.9785 1805.6875,251.9785 Q1806.4219,251.9785 1807.0625,252.1504 Q1807.7188,252.3066 1808.2656,252.666 Z " fill="#000000"/><text fill="#000000" font-family="sans-serif" font-size="12" font-style="italic" lengthAdjust="spacing" textLength="81" x="1817.5" y="252.4492">&#171;value object&#187;</text><text fill="#000000" font-family="sans-serif" font-size="14" lengthAdjust="spacing" textLength="40" x="1838" y="270.5684">Grade</text><line style="stroke:#181818;stroke-width:0.5;" x1="1791.5" x2="1898.5" y1="279.082" y2="279.082"/><line style="stroke:#181818;stroke-width:0.5;" x1="1791.5" x2="1898.5" y1="287.082" y2="287.082"/></g><!--class BoardChanges--><g id="elem_BoardChanges"><rect codeLine="76" fill="#F1F1F1" height="122.4844" id="BoardChanges" rx="2.5" ry="2.5" style="stroke:#181818;stroke-width:0.5;" width="127" x="1450.5" y="7"/><ellipse cx="1465.5" cy="23" fill="#ADD1B2" rx="11" ry="11" style="stroke:#181818;stroke-width:1.0;"/><path d="M1468.2656,18.875 Q1468.4219,18.6563 1468.6094,18.5469 Q1468.7969,18.4375 1469.0156,18.4375 Q1469.3906,18.4375 1469.625,18.7031 Q1469.8594,18.9531 1469.8594,19.5625 L1469.8594,21.0156 Q1469.8594,21.625 1469.625,21.8906 Q1469.3906,22.1563 1469.0156,22.1563 Q1468.6719,22.1563 1468.4688,21.9531 Q1468.2656,21.7656 1468.1563,21.25 Q1468.1094,20.8906 1467.9219,20.7031 Q1467.5938,20.3281 1466.9844,20.1094 Q1466.375,19.8906 1465.75,19.8906 Q1464.9844,19.8906 1464.3438,20.2188 Q1463.7188,20.5469 1463.2188,21.2969 Q1462.7344,22.0469 1462.7344,23.0781 L1462.7344,24.1719 Q1462.7344,25.4063 1463.625,26.2344 Q1464.5156,27.0469 1466.1094,27.0469 Q1467.0469,27.0469 1467.7031,26.7969 Q1468.0938,26.6406 1468.5156,26.2031 Q1468.7813,25.9375 1468.9219,25.8594 Q1469.0781,25.7813 1469.2813,25.7813 Q1469.6094,25.7813 1469.8594,26.0469 Q1470.125,26.2969 1470.125,26.6406 Q1470.125,26.9844 1469.7813,27.3906 Q1469.2813,27.9688 1468.4844,28.2969 Q1467.4063,28.75 1466.1094,28.75 Q1464.5938,28.75 1463.3906,28.125 Q1462.4063,27.625 1461.7188,26.5625 Q1461.0313,25.4844 1461.0313,24.2031 L1461.0313,23.0469 Q1461.0313,21.7188 1461.6406,20.5781 Q1462.2656,19.4219 1463.3594,18.8125 Q1464.4531,18.1875 1465.6875,18.1875 Q1466.4219,18.1875 1467.0625,18.3594 Q1467.7188,18.5156 1468.2656,18.875 Z " fill="#000000"/><text fill="#000000" font-family="sans-serif" font-size="14" lengthAdjust="spacing" textLength="95" x="1479.5" y="28.7969">BoardChanges</text><line style="stroke:#181818;stroke-width:0.5;" x1="1451.5" x2="1576.5" y1="39" y2="39"/><ellipse cx="1461.5" cy="53.8105" fill="#000000" rx="3" ry="3" style="stroke:#000000;stroke-width:1.0;"/><text fill="#000000" font-family="sans-serif" font-size="14" lengthAdjust="spacing" textLength="15" x="1470.5" y="58.1074">id;</text><ellipse cx="1461.5" cy="72.4316" fill="#000000" rx="3" ry="3" style="stroke:#000000;stroke-width:1.0;"/><text fill="#000000" font-family="sans-serif" font-size="14" lengthAdjust="spacing" textLength="99" x="1470.5" y="76.7285">boardChanged;</text><ellipse cx="1461.5" cy="91.0527" fill="#000000" rx="3" ry="3" style="stroke:#000000;stroke-width:1.0;"/><text fill="#000000" font-family="sans-serif" font-size="14" lengthAdjust="spacing" textLength="32" x="1470.5" y="95.3496">date;</text><ellipse cx="1461.5" cy="109.6738" fill="#000000" rx="3" ry="3" style="stroke:#000000;stroke-width:1.0;"/><text fill="#000000" font-family="sans-serif" font-size="14" lengthAdjust="spacing" textLength="99" x="1470.5" y="113.9707">BoardChanges;</text><line style="stroke:#181818;stroke-width:0.5;" x1="1451.5" x2="1576.5" y1="121.4844" y2="121.4844"/></g><!--class SharedBoard--><g id="elem_SharedBoard"><rect fill="#F1F1F1" height="48" id="SharedBoard" rx="2.5" ry="2.5" style="stroke:#181818;stroke-width:0.5;" width="116" x="1935" y="241"/><ellipse cx="1950" cy="257" fill="#ADD1B2" rx="11" ry="11" style="stroke:#181818;stroke-width:1.0;"/><path d="M1952.7656,252.875 Q1952.9219,252.6563 1953.1094,252.5469 Q1953.2969,252.4375 1953.5156,252.4375 Q1953.8906,252.4375 1954.125,252.7031 Q1954.3594,252.9531 1954.3594,253.5625 L1954.3594,255.0156 Q1954.3594,255.625 1954.125,255.8906 Q1953.8906,256.1563 1953.5156,256.1563 Q1953.1719,256.1563 1952.9688,255.9531 Q1952.7656,255.7656 1952.6563,255.25 Q1952.6094,254.8906 1952.4219,254.7031 Q1952.0938,254.3281 1951.4844,254.1094 Q1950.875,253.8906 1950.25,253.8906 Q1949.4844,253.8906 1948.8438,254.2188 Q1948.2188,254.5469 1947.7188,255.2969 Q1947.2344,256.0469 1947.2344,257.0781 L1947.2344,258.1719 Q1947.2344,259.4063 1948.125,260.2344 Q1949.0156,261.0469 1950.6094,261.0469 Q1951.5469,261.0469 1952.2031,260.7969 Q1952.5938,260.6406 1953.0156,260.2031 Q1953.2813,259.9375 1953.4219,259.8594 Q1953.5781,259.7813 1953.7813,259.7813 Q1954.1094,259.7813 1954.3594,260.0469 Q1954.625,260.2969 1954.625,260.6406 Q1954.625,260.9844 1954.2813,261.3906 Q1953.7813,261.9688 1952.9844,262.2969 Q1951.9063,262.75 1950.6094,262.75 Q1949.0938,262.75 1947.8906,262.125 Q1946.9063,261.625 1946.2188,260.5625 Q1945.5313,259.4844 1945.5313,258.2031 L1945.5313,257.0469 Q1945.5313,255.7188 1946.1406,254.5781 Q1946.7656,253.4219 1947.8594,252.8125 Q1948.9531,252.1875 1950.1875,252.1875 Q1950.9219,252.1875 1951.5625,252.3594 Q1952.2188,252.5156 1952.7656,252.875 Z " fill="#000000"/><text fill="#000000" font-family="sans-serif" font-size="14" lengthAdjust="spacing" textLength="84" x="1964" y="262.7969">SharedBoard</text><line style="stroke:#181818;stroke-width:0.5;" x1="1936" x2="2050" y1="273" y2="273"/><line style="stroke:#181818;stroke-width:0.5;" x1="1936" x2="2050" y1="281" y2="281"/></g><!--class RowCell--><g id="elem_RowCell"><rect fill="#F1F1F1" height="48" id="RowCell" rx="2.5" ry="2.5" style="stroke:#181818;stroke-width:0.5;" width="83" x="1951.5" y="475.5"/><ellipse cx="1966.5" cy="491.5" fill="#ADD1B2" rx="11" ry="11" style="stroke:#181818;stroke-width:1.0;"/><path d="M1969.2656,487.375 Q1969.4219,487.1563 1969.6094,487.0469 Q1969.7969,486.9375 1970.0156,486.9375 Q1970.3906,486.9375 1970.625,487.2031 Q1970.8594,487.4531 1970.8594,488.0625 L1970.8594,489.5156 Q1970.8594,490.125 1970.625,490.3906 Q1970.3906,490.6563 1970.0156,490.6563 Q1969.6719,490.6563 1969.4688,490.4531 Q1969.2656,490.2656 1969.1563,489.75 Q1969.1094,489.3906 1968.9219,489.2031 Q1968.5938,488.8281 1967.9844,488.6094 Q1967.375,488.3906 1966.75,488.3906 Q1965.9844,488.3906 1965.3438,488.7188 Q1964.7188,489.0469 1964.2188,489.7969 Q1963.7344,490.5469 1963.7344,491.5781 L1963.7344,492.6719 Q1963.7344,493.9063 1964.625,494.7344 Q1965.5156,495.5469 1967.1094,495.5469 Q1968.0469,495.5469 1968.7031,495.2969 Q1969.0938,495.1406 1969.5156,494.7031 Q1969.7813,494.4375 1969.9219,494.3594 Q1970.0781,494.2813 1970.2813,494.2813 Q1970.6094,494.2813 1970.8594,494.5469 Q1971.125,494.7969 1971.125,495.1406 Q1971.125,495.4844 1970.7813,495.8906 Q1970.2813,496.4688 1969.4844,496.7969 Q1968.4063,497.25 1967.1094,497.25 Q1965.5938,497.25 1964.3906,496.625 Q1963.4063,496.125 1962.7188,495.0625 Q1962.0313,493.9844 1962.0313,492.7031 L1962.0313,491.5469 Q1962.0313,490.2188 1962.6406,489.0781 Q1963.2656,487.9219 1964.3594,487.3125 Q1965.4531,486.6875 1966.6875,486.6875 Q1967.4219,486.6875 1968.0625,486.8594 Q1968.7188,487.0156 1969.2656,487.375 Z " fill="#000000"/><text fill="#000000" font-family="sans-serif" font-size="14" lengthAdjust="spacing" textLength="51" x="1980.5" y="497.2969">RowCell</text><line style="stroke:#181818;stroke-width:0.5;" x1="1952.5" x2="2033.5" y1="507.5" y2="507.5"/><line style="stroke:#181818;stroke-width:0.5;" x1="1952.5" x2="2033.5" y1="515.5" y2="515.5"/></g><!--class ColumnCell--><g id="elem_ColumnCell"><rect fill="#F1F1F1" height="48" id="ColumnCell" rx="2.5" ry="2.5" style="stroke:#181818;stroke-width:0.5;" width="104" x="2070" y="475.5"/><ellipse cx="2085" cy="491.5" fill="#ADD1B2" rx="11" ry="11" style="stroke:#181818;stroke-width:1.0;"/><path d="M2087.7656,487.375 Q2087.9219,487.1563 2088.1094,487.0469 Q2088.2969,486.9375 2088.5156,486.9375 Q2088.8906,486.9375 2089.125,487.2031 Q2089.3594,487.4531 2089.3594,488.0625 L2089.3594,489.5156 Q2089.3594,490.125 2089.125,490.3906 Q2088.8906,490.6563 2088.5156,490.6563 Q2088.1719,490.6563 2087.9688,490.4531 Q2087.7656,490.2656 2087.6563,489.75 Q2087.6094,489.3906 2087.4219,489.2031 Q2087.0938,488.8281 2086.4844,488.6094 Q2085.875,488.3906 2085.25,488.3906 Q2084.4844,488.3906 2083.8438,488.7188 Q2083.2188,489.0469 2082.7188,489.7969 Q2082.2344,490.5469 2082.2344,491.5781 L2082.2344,492.6719 Q2082.2344,493.9063 2083.125,494.7344 Q2084.0156,495.5469 2085.6094,495.5469 Q2086.5469,495.5469 2087.2031,495.2969 Q2087.5938,495.1406 2088.0156,494.7031 Q2088.2813,494.4375 2088.4219,494.3594 Q2088.5781,494.2813 2088.7813,494.2813 Q2089.1094,494.2813 2089.3594,494.5469 Q2089.625,494.7969 2089.625,495.1406 Q2089.625,495.4844 2089.2813,495.8906 Q2088.7813,496.4688 2087.9844,496.7969 Q2086.9063,497.25 2085.6094,497.25 Q2084.0938,497.25 2082.8906,496.625 Q2081.9063,496.125 2081.2188,495.0625 Q2080.5313,493.9844 2080.5313,492.7031 L2080.5313,491.5469 Q2080.5313,490.2188 2081.1406,489.0781 Q2081.7656,487.9219 2082.8594,487.3125 Q2083.9531,486.6875 2085.1875,486.6875 Q2085.9219,486.6875 2086.5625,486.8594 Q2087.2188,487.0156 2087.7656,487.375 Z " fill="#000000"/><text fill="#000000" font-family="sans-serif" font-size="14" lengthAdjust="spacing" textLength="72" x="2099" y="497.2969">ColumnCell</text><line style="stroke:#181818;stroke-width:0.5;" x1="2071" x2="2173" y1="507.5" y2="507.5"/><line style="stroke:#181818;stroke-width:0.5;" x1="2071" x2="2173" y1="515.5" y2="515.5"/></g><!--class NormalCell--><g id="elem_NormalCell"><rect fill="#F1F1F1" height="48" id="NormalCell" rx="2.5" ry="2.5" style="stroke:#181818;stroke-width:0.5;" width="100" x="1816" y="475.5"/><ellipse cx="1831" cy="491.5" fill="#ADD1B2" rx="11" ry="11" style="stroke:#181818;stroke-width:1.0;"/><path d="M1833.7656,487.375 Q1833.9219,487.1563 1834.1094,487.0469 Q1834.2969,486.9375 1834.5156,486.9375 Q1834.8906,486.9375 1835.125,487.2031 Q1835.3594,487.4531 1835.3594,488.0625 L1835.3594,489.5156 Q1835.3594,490.125 1835.125,490.3906 Q1834.8906,490.6563 1834.5156,490.6563 Q1834.1719,490.6563 1833.9688,490.4531 Q1833.7656,490.2656 1833.6563,489.75 Q1833.6094,489.3906 1833.4219,489.2031 Q1833.0938,488.8281 1832.4844,488.6094 Q1831.875,488.3906 1831.25,488.3906 Q1830.4844,488.3906 1829.8438,488.7188 Q1829.2188,489.0469 1828.7188,489.7969 Q1828.2344,490.5469 1828.2344,491.5781 L1828.2344,492.6719 Q1828.2344,493.9063 1829.125,494.7344 Q1830.0156,495.5469 1831.6094,495.5469 Q1832.5469,495.5469 1833.2031,495.2969 Q1833.5938,495.1406 1834.0156,494.7031 Q1834.2813,494.4375 1834.4219,494.3594 Q1834.5781,494.2813 1834.7813,494.2813 Q1835.1094,494.2813 1835.3594,494.5469 Q1835.625,494.7969 1835.625,495.1406 Q1835.625,495.4844 1835.2813,495.8906 Q1834.7813,496.4688 1833.9844,496.7969 Q1832.9063,497.25 1831.6094,497.25 Q1830.0938,497.25 1828.8906,496.625 Q1827.9063,496.125 1827.2188,495.0625 Q1826.5313,493.9844 1826.5313,492.7031 L1826.5313,491.5469 Q1826.5313,490.2188 1827.1406,489.0781 Q1827.7656,487.9219 1828.8594,487.3125 Q1829.9531,486.6875 1831.1875,486.6875 Q1831.9219,486.6875 1832.5625,486.8594 Q1833.2188,487.0156 1833.7656,487.375 Z " fill="#000000"/><text fill="#000000" font-family="sans-serif" font-size="14" lengthAdjust="spacing" textLength="68" x="1845" y="497.2969">NormalCell</text><line style="stroke:#181818;stroke-width:0.5;" x1="1817" x2="1915" y1="507.5" y2="507.5"/><line style="stroke:#181818;stroke-width:0.5;" x1="1817" x2="1915" y1="515.5" y2="515.5"/></g><!--class Cell--><g id="elem_Cell"><rect fill="#F1F1F1" height="48" id="Cell" rx="2.5" ry="2.5" style="stroke:#181818;stroke-width:0.5;" width="56" x="1965" y="715"/><ellipse cx="1980" cy="731" fill="#ADD1B2" rx="11" ry="11" style="stroke:#181818;stroke-width:1.0;"/><path d="M1982.7656,726.875 Q1982.9219,726.6563 1983.1094,726.5469 Q1983.2969,726.4375 1983.5156,726.4375 Q1983.8906,726.4375 1984.125,726.7031 Q1984.3594,726.9531 1984.3594,727.5625 L1984.3594,729.0156 Q1984.3594,729.625 1984.125,729.8906 Q1983.8906,730.1563 1983.5156,730.1563 Q1983.1719,730.1563 1982.9688,729.9531 Q1982.7656,729.7656 1982.6563,729.25 Q1982.6094,728.8906 1982.4219,728.7031 Q1982.0938,728.3281 1981.4844,728.1094 Q1980.875,727.8906 1980.25,727.8906 Q1979.4844,727.8906 1978.8438,728.2188 Q1978.2188,728.5469 1977.7188,729.2969 Q1977.2344,730.0469 1977.2344,731.0781 L1977.2344,732.1719 Q1977.2344,733.4063 1978.125,734.2344 Q1979.0156,735.0469 1980.6094,735.0469 Q1981.5469,735.0469 1982.2031,734.7969 Q1982.5938,734.6406 1983.0156,734.2031 Q1983.2813,733.9375 1983.4219,733.8594 Q1983.5781,733.7813 1983.7813,733.7813 Q1984.1094,733.7813 1984.3594,734.0469 Q1984.625,734.2969 1984.625,734.6406 Q1984.625,734.9844 1984.2813,735.3906 Q1983.7813,735.9688 1982.9844,736.2969 Q1981.9063,736.75 1980.6094,736.75 Q1979.0938,736.75 1977.8906,736.125 Q1976.9063,735.625 1976.2188,734.5625 Q1975.5313,733.4844 1975.5313,732.2031 L1975.5313,731.0469 Q1975.5313,729.7188 1976.1406,728.5781 Q1976.7656,727.4219 1977.8594,726.8125 Q1978.9531,726.1875 1980.1875,726.1875 Q1980.9219,726.1875 1981.5625,726.3594 Q1982.2188,726.5156 1982.7656,726.875 Z " fill="#000000"/><text fill="#000000" font-family="sans-serif" font-size="14" lengthAdjust="spacing" textLength="24" x="1994" y="736.7969">Cell</text><line style="stroke:#181818;stroke-width:0.5;" x1="1966" x2="2020" y1="747" y2="747"/><line style="stroke:#181818;stroke-width:0.5;" x1="1966" x2="2020" y1="755" y2="755"/></g><!--link SystemUser to EmailAdderss--><g id="link_SystemUser_EmailAdderss"><path codeLine="84" d="M840,322.28 C840,366.35 840,426.24 840,463.62 " fill="none" id="SystemUser-to-EmailAdderss" style="stroke:#181818;stroke-width:1.0;"/><polygon fill="#181818" points="840,468.97,844,459.97,840,463.97,836,459.97,840,468.97" style="stroke:#181818;stroke-width:1.0;"/><text fill="#000000" font-family="sans-serif" font-size="13" lengthAdjust="spacing" textLength="7" x="832.2344" y="457.5381">1</text></g><!--link SystemUser to Password--><g id="link_SystemUser_Password"><path codeLine="85" d="M803.93,322.28 C775.46,366.71 736.68,427.22 712.77,464.53 " fill="none" id="SystemUser-to-Password" style="stroke:#181818;stroke-width:1.0;"/><polygon fill="#181818" points="709.93,468.97,718.1532,463.5497,712.6273,464.7599,711.4171,459.2341,709.93,468.97" style="stroke:#181818;stroke-width:1.0;"/><text fill="#000000" font-family="sans-serif" font-size="13" lengthAdjust="spacing" textLength="7" x="706.3053" y="457.5381">1</text></g><!--link SystemUser to Role--><g id="link_SystemUser_Role"><path codeLine="86" d="M875.1,322.28 C900.63,363.22 934.68,417.82 958.08,455.34 " fill="none" id="SystemUser-to-Role" style="stroke:#181818;stroke-width:1.0;"/><polygon fill="#181818" points="960.88,459.83,959.5168,450.0759,958.2364,455.586,952.7264,454.3057,960.88,459.83" style="stroke:#181818;stroke-width:1.0;"/><text fill="#000000" font-family="sans-serif" font-size="13" lengthAdjust="spacing" textLength="7" x="949.3054" y="448.8874">1</text></g><!--link eCourseSystemUser to SystemUser--><g id="link_eCourseSystemUser_SystemUser"><path codeLine="88" d="M1254.14,70.44 C1165.91,75.5 1023.57,94.13 921,159 C903.15,170.29 887.69,186.97 875.21,203.72 " fill="none" id="eCourseSystemUser-to-SystemUser" style="stroke:#181818;stroke-width:1.0;"/><polygon fill="#181818" points="872.1,207.98,880.6419,203.0773,875.0519,203.9444,874.1848,198.3543,872.1,207.98" style="stroke:#181818;stroke-width:1.0;"/><text fill="#000000" font-family="sans-serif" font-size="13" lengthAdjust="spacing" textLength="7" x="868.7644" y="196.646">1</text></g><!--link eCourseSystemUser to Role--><g id="link_eCourseSystemUser_Role"><path codeLine="89" d="M1254.39,75.49 C1170.63,87.02 1043.51,119.04 983,208 C932.51,282.23 953.2,393.67 970.49,454.7 " fill="none" id="eCourseSystemUser-to-Role" style="stroke:#181818;stroke-width:1.0;"/><polygon fill="#181818" points="971.94,459.72,973.2945,449.9647,970.557,454.9151,965.6066,452.1776,971.94,459.72" style="stroke:#181818;stroke-width:1.0;"/><text fill="#000000" font-family="sans-serif" font-size="13" lengthAdjust="spacing" textLength="7" x="962.1973" y="448.7592">1</text></g><!--link eCourseSystemUser to UserStatus--><g id="link_eCourseSystemUser_UserStatus"><path codeLine="90" d="M1272.26,106.67 C1228.45,133.62 1169.07,171.46 1119,208 C1114.65,211.17 1110.21,214.54 1105.78,217.97 " fill="none" id="eCourseSystemUser-to-UserStatus" style="stroke:#181818;stroke-width:1.0;"/><polygon fill="#181818" points="1101.73,221.15,1111.2785,218.7364,1105.6621,218.0615,1106.337,212.4451,1101.73,221.15" style="stroke:#181818;stroke-width:1.0;"/><text fill="#000000" font-family="sans-serif" font-size="13" lengthAdjust="spacing" textLength="7" x="1109.3561" y="210.8494">1</text></g><!--link eCourseSystemUser to Acronym--><g id="link_eCourseSystemUser_Acronym"><path codeLine="91" d="M1307.24,106.6 C1280.77,142.44 1241.28,195.91 1215.83,230.37 " fill="none" id="eCourseSystemUser-to-Acronym" style="stroke:#181818;stroke-width:1.0;"/><polygon fill="#181818" points="1212.8,234.48,1221.3614,229.6114,1215.7679,230.4562,1214.9232,224.8627,1212.8,234.48" style="stroke:#181818;stroke-width:1.0;"/><text fill="#000000" font-family="sans-serif" font-size="13" lengthAdjust="spacing" textLength="7" x="1209.8031" y="223.0502">1</text></g><!--link eCourseSystemUser to NIF--><g id="link_eCourseSystemUser_NIF"><path codeLine="92" d="M1335,106.6 C1335,142 1335,194.61 1335,229.1 " fill="none" id="eCourseSystemUser-to-NIF" style="stroke:#181818;stroke-width:1.0;"/><polygon fill="#181818" points="1335,234.48,1339,225.48,1335,229.48,1331,225.48,1335,234.48" style="stroke:#181818;stroke-width:1.0;"/><text fill="#000000" font-family="sans-serif" font-size="13" lengthAdjust="spacing" textLength="7" x="1327.2344" y="223.0502">1</text></g><!--link eCourseSystemUser to BirthDate--><g id="link_eCourseSystemUser_BirthDate"><path codeLine="93" d="M1362.76,106.6 C1389.23,142.44 1428.72,195.91 1454.17,230.37 " fill="none" id="eCourseSystemUser-to-BirthDate" style="stroke:#181818;stroke-width:1.0;"/><polygon fill="#181818" points="1457.2,234.48,1455.0768,224.8627,1454.2321,230.4562,1448.6386,229.6114,1457.2,234.48" style="stroke:#181818;stroke-width:1.0;"/><text fill="#000000" font-family="sans-serif" font-size="13" lengthAdjust="spacing" textLength="7" x="1444.6656" y="223.0502">1</text></g><!--link eCourseSystemUser to MechanographicNumber--><g id="link_eCourseSystemUser_MechanographicNumber"><path codeLine="94" d="M1396.07,106.61 C1408.28,114.06 1421.03,121.81 1433,129 C1486.65,161.24 1547.73,197.21 1593.31,223.91 " fill="none" id="eCourseSystemUser-to-MechanographicNumber" style="stroke:#181818;stroke-width:1.0;"/><polygon fill="#181818" points="1597.67,226.46,1591.9279,218.4582,1593.3563,223.9318,1587.8827,225.3601,1597.67,226.46" style="stroke:#181818;stroke-width:1.0;"/><text fill="#000000" font-family="sans-serif" font-size="13" lengthAdjust="spacing" textLength="7" x="1578.5878" y="215.1759">1</text></g><!--link eCourseSystemUser to Grade--><g id="link_eCourseSystemUser_Grade"><path codeLine="95" d="M1389.33,106.5 C1403.12,114.82 1418.23,122.95 1433,129 C1576.56,187.81 1632.95,141.27 1773,208 C1785.6,214.01 1798.07,222.52 1808.99,231.1 " fill="none" id="eCourseSystemUser-to-Grade" style="stroke:#181818;stroke-width:1.0;"/><polygon fill="#181818" points="1812.94,234.26,1808.4031,225.5183,1809.0329,231.14,1803.4112,231.7697,1812.94,234.26" style="stroke:#181818;stroke-width:1.0;"/><polygon fill="#000000" points="1693.7932,170.0686,1685.9587,164.6768,1684.2857,170.3115,1693.7932,170.0686" style="stroke:#000000;stroke-width:1.0;"/><text fill="#000000" font-family="sans-serif" font-size="13" lengthAdjust="spacing" textLength="79" x="1698" y="174.0283">student has a</text><text fill="#000000" font-family="sans-serif" font-size="13" lengthAdjust="spacing" textLength="7" x="1798.6058" y="223.2682">1</text></g><!--link eCourseSystemUser to SharedBoard--><g id="link_eCourseSystemUser_SharedBoard"><path codeLine="96" d="M1386.45,106.63 C1400.86,115.42 1416.98,123.74 1433,129 C1582.61,178.09 1632.39,124.43 1786,159 C1846.65,172.65 1862.34,178.39 1917,208 C1932.41,216.35 1948.21,227.49 1961.38,237.64 " fill="none" id="eCourseSystemUser-to-SharedBoard" style="stroke:#181818;stroke-width:1.0;"/><polygon fill="#181818" points="1965.38,240.76,1960.7229,232.0818,1961.4302,237.6942,1955.8177,238.4015,1965.38,240.76" style="stroke:#181818;stroke-width:1.0;"/><polygon fill="#000000" points="1862.875,169.7564,1854.709,164.8813,1853.4031,170.6123,1862.875,169.7564" style="stroke:#000000;stroke-width:1.0;"/><text fill="#000000" font-family="sans-serif" font-size="13" lengthAdjust="spacing" textLength="30" x="1867" y="174.0283">owns</text><text fill="#000000" font-family="sans-serif" font-size="13" lengthAdjust="spacing" textLength="5" x="1953.0383" y="229.8434">*</text></g><!--link eCourseSystemUser to SharedBoard--><g id="link_eCourseSystemUser_SharedBoard"><path codeLine="97" d="M1385.87,106.55 C1400.41,115.46 1416.74,123.86 1433,129 C1533.42,160.76 1812.15,111.2 1906,159 C1938.97,175.79 1964.1,211.21 1978.69,236.26 " fill="none" id="eCourseSystemUser-to-SharedBoard-1" style="stroke:#181818;stroke-width:1.0;"/><polygon fill="#181818" points="1981.29,240.81,1980.3012,231.0109,1978.8108,236.4679,1973.3538,234.9775,1981.29,240.81" style="stroke:#181818;stroke-width:1.0;"/><polygon fill="#000000" points="1933.1156,167.5768,1941.3234,172.3811,1942.5798,166.6391,1933.1156,167.5768" style="stroke:#000000;stroke-width:1.0;"/><text fill="#000000" font-family="sans-serif" font-size="13" lengthAdjust="spacing" textLength="54" x="1947" y="174.0283">shared to</text><text fill="#000000" font-family="sans-serif" font-size="13" lengthAdjust="spacing" textLength="5" x="1972.8263" y="229.9056">*</text></g><!--link SharedBoard to RowCell--><g id="link_SharedBoard_RowCell"><path codeLine="99" d="M1993,289.14 C1993,333.71 1993,430.96 1993,475.45 " fill="none" id="SharedBoard-RowCell" style="stroke:#181818;stroke-width:1.0;"/><polygon fill="#000000" points="1998,366.6455,2000.9389,357.6004,1995.0611,357.6004,1998,366.6455" style="stroke:#000000;stroke-width:1.0;"/><text fill="#000000" font-family="sans-serif" font-size="13" lengthAdjust="spacing" textLength="21" x="2007" y="367.0283">has</text><text fill="#000000" font-family="sans-serif" font-size="13" lengthAdjust="spacing" textLength="7" x="1985.1469" y="311.1598">1</text><text fill="#000000" font-family="sans-serif" font-size="13" lengthAdjust="spacing" textLength="29" x="1960.2844" y="464.1747">1..20</text></g><!--link SharedBoard to ColumnCell--><g id="link_SharedBoard_ColumnCell"><path codeLine="100" d="M2005.84,289.14 C2030.57,333.71 2084.53,430.96 2109.21,475.45 " fill="none" id="SharedBoard-ColumnCell" style="stroke:#181818;stroke-width:1.0;"/><polygon fill="#000000" points="2056.4258,366.0176,2054.6074,356.6825,2049.4676,359.5342,2056.4258,366.0176" style="stroke:#000000;stroke-width:1.0;"/><text fill="#000000" font-family="sans-serif" font-size="13" lengthAdjust="spacing" textLength="21" x="2063" y="367.0283">has</text><text fill="#000000" font-family="sans-serif" font-size="13" lengthAdjust="spacing" textLength="7" x="2001.1166" y="311.1598">1</text><text fill="#000000" font-family="sans-serif" font-size="13" lengthAdjust="spacing" textLength="29" x="2073.2169" y="464.1747">1..10</text></g><!--link SharedBoard to NormalCell--><g id="link_SharedBoard_NormalCell"><path codeLine="101" d="M1980.36,289.14 C1956.02,333.71 1902.89,430.96 1878.59,475.45 " fill="none" id="SharedBoard-NormalCell" style="stroke:#181818;stroke-width:1.0;"/><polygon fill="#000000" points="1946.6031,366.0335,1953.5184,359.5044,1948.3599,356.6866,1946.6031,366.0335" style="stroke:#000000;stroke-width:1.0;"/><text fill="#000000" font-family="sans-serif" font-size="13" lengthAdjust="spacing" textLength="21" x="1958" y="367.0283">has</text><text fill="#000000" font-family="sans-serif" font-size="13" lengthAdjust="spacing" textLength="7" x="1969.4259" y="311.1598">1</text><text fill="#000000" font-family="sans-serif" font-size="13" lengthAdjust="spacing" textLength="20" x="1859.2537" y="464.1747">1..*</text></g><!--link NormalCell to Cell--><g id="link_NormalCell_Cell"><path codeLine="103" d="M1878.41,523.7 C1899.89,563.88 1944.27,646.87 1971.06,696.97 " fill="none" id="NormalCell-to-Cell" style="stroke:#181818;stroke-width:1.0;"/><polygon fill="none" points="1977.28,693.76,1980.54,714.7,1964.94,700.36,1977.28,693.76" style="stroke:#181818;stroke-width:1.0;"/></g><!--link ColumnCell to Cell--><g id="link_ColumnCell_Cell"><path codeLine="104" d="M2109.4,523.7 C2087.58,563.88 2042.5,646.87 2015.29,696.97 " fill="none" id="ColumnCell-to-Cell" style="stroke:#181818;stroke-width:1.0;"/><polygon fill="none" points="2021.35,700.47,2005.66,714.7,2009.05,693.78,2021.35,700.47" style="stroke:#181818;stroke-width:1.0;"/></g><!--link RowCell to Cell--><g id="link_RowCell_Cell"><path codeLine="105" d="M1993,523.7 C1993,563.26 1993,644.32 1993,694.62 " fill="none" id="RowCell-to-Cell" style="stroke:#181818;stroke-width:1.0;"/><polygon fill="none" points="2000,694.7,1993,714.7,1986,694.7,2000,694.7" style="stroke:#181818;stroke-width:1.0;"/></g><!--link eCourseSystemUser to ViewBoardChangesUI--><g id="link_eCourseSystemUser_ViewBoardChangesUI"><path codeLine="109" d="M1254.3,83.08 C1164.95,99.2 1016.89,127.48 891,159 C816.8,177.58 734.87,201.87 668.83,222.41 " fill="none" id="eCourseSystemUser-ViewBoardChangesUI" style="stroke:#181818;stroke-width:1.0;stroke-dasharray:7.0,7.0;"/></g><!--link ViewBoardChangesUI to ViewBoardChangesController--><g id="link_ViewBoardChangesUI_ViewBoardChangesController"><path codeLine="110" d="M502.46,307.57 C478.98,333.56 447.7,368.19 418.23,400.82 " fill="none" id="ViewBoardChangesUI-ViewBoardChangesController" style="stroke:#181818;stroke-width:1.0;stroke-dasharray:7.0,7.0;"/></g><!--link ViewBoardChangesController to ShareBoardRepsitory--><g id="link_ViewBoardChangesController_ShareBoardRepsitory"><path codeLine="112" d="M330,598.13 C330,618.34 330,639.4 330,658.86 " fill="none" id="ViewBoardChangesController-ShareBoardRepsitory" style="stroke:#181818;stroke-width:1.0;stroke-dasharray:7.0,7.0;"/></g><!--link ViewBoardChangesController to RepositoryFactory--><g id="link_ViewBoardChangesController_RepositoryFactory"><path codeLine="113" d="M227.64,598.13 C182.71,640.99 133.8,687.64 105.35,714.78 " fill="none" id="ViewBoardChangesController-RepositoryFactory" style="stroke:#181818;stroke-width:1.0;stroke-dasharray:7.0,7.0;"/></g><!--link ViewBoardChangesController to BoardChangesRepsitory--><g id="link_ViewBoardChangesController_BoardChangesRepsitory"><path codeLine="114" d="M460.31,598.13 C506.07,632.42 555.08,669.13 591.39,696.34 " fill="none" id="ViewBoardChangesController-BoardChangesRepsitory" style="stroke:#181818;stroke-width:1.0;stroke-dasharray:7.0,7.0;"/></g><!--SRC=[pLPDRwCm4BtpAwoUQ1kYxHvRX9Ilhf3QTBLHUtV03LuPEx9D8xJR_xvZ81WIGtPlom7icJVZnxoHRItsI0kq5LgB7ALKaaHJmJqlOLWfz4R9OIwmJ1SPvZkYNcFqoqFmtA9jGLbQ-Pu9B_mdgdIuoR0ajN6fHNJTG3UPgBCCeBpFeVKMWcif62EoMHS5M-DkneKYyWVP2qMra6LZxCQxdHrhmt17TELH_lKzSf4ymVceeX6d0EyZJu0DZpPjrsZplbDU9r0lxw_mJpx9CMMJ_kzDJhWFCJNLRCffmOyuCH-eeYrs5NXCMiDQTIsZ-EN0NLM9pf2rSmohy0Ung_fD3IS8MEfOGpM1NCtjHCGJTlMYPLUAImpB9TR4HocydT3F_xeehMIbqYGtBOB2K0gXemW6AwwfBc5O4xr1QvoJPcYmt4nRsSb255AHYwbinCfquonDYOH96BvXLX0ajZzXhuYYjjS48ouk6oqftw4-1xFiHcDTc7omVUHjm2rQhMVpfrKpMSQRQjP6VeVNGSWKuZwSF6Q95BpC1_th-77GDwTIPwPH1X7F986c53k9znbDraM-hUhN1uC15x2VOaqJp5W9km4d4jAcDj4tYTFXPRhjZuvR7nIJfW_jU6in7QjfS3lhvdce-gWZUn14wEhkgYUlotyikSjdLFUyyvOw-grf15Gb6NRRPXa1DRAF843u4Myh_GZ69Vu8l9Ru7YbTf8Hhb665C8g68cwkkaS9n8a3L_y0LzNCdEOXoDnn6Iv109_fzEiNK-t3WZ064OPGD0Iz0-X2i2BdVuC6DciXSynwOAzZ2uBV4J8ZhvFL6e-ihCLpzTLqwhYJU8vhYWDeBnEUDtBHW4Z78J0I0G5d1-s51Pp7c_dZFm00]--></g></svg>