<?xml version="1.0" encoding="us-ascii" standalone="no"?><svg xmlns="http://www.w3.org/2000/svg" xmlns:xlink="http://www.w3.org/1999/xlink" contentStyleType="text/css" height="781px" preserveAspectRatio="none" style="width:1538px;height:781px;background:#FFFFFF;" version="1.1" viewBox="0 0 1538 781" width="1538px" zoomAndPan="magnify"><defs/><g><!--cluster ECOURSESYSTEMUSER--><g id="cluster_ECOURSESYSTEMUSER"><path d="M422.5,6.0137 L587.5,6.0137 A3.75,3.75 0 0 1 590,8.5137 L597,30.6348 L1528.5,30.6348 A2.5,2.5 0 0 1 1531,33.1348 L1531,604.0137 A2.5,2.5 0 0 1 1528.5,606.5137 L422.5,606.5137 A2.5,2.5 0 0 1 420,604.0137 L420,8.5137 A2.5,2.5 0 0 1 422.5,6.0137 " fill="none" style="stroke:#000000;stroke-width:1.5;"/><line style="stroke:#000000;stroke-width:1.5;" x1="420" x2="597" y1="30.6348" y2="30.6348"/><text fill="#000000" font-family="sans-serif" font-size="14" font-weight="bold" lengthAdjust="spacing" textLength="164" x="424" y="23.1211">ECOURSESYSTEMUSER</text><text fill="#000000" font-family="sans-serif" font-size="14" font-style="italic" lengthAdjust="spacing" textLength="82" x="938.5" y="47.7422">&#171;Aggregate&#187;</text></g><!--cluster SHAREBOARD--><g id="cluster_SHAREBOARD"><path d="M8.5,204.0137 L106.5,204.0137 A3.75,3.75 0 0 1 109,206.5137 L116,228.6348 L393.5,228.6348 A2.5,2.5 0 0 1 396,231.1348 L396,771.5137 A2.5,2.5 0 0 1 393.5,774.0137 L8.5,774.0137 A2.5,2.5 0 0 1 6,771.5137 L6,206.5137 A2.5,2.5 0 0 1 8.5,204.0137 " fill="none" style="stroke:#000000;stroke-width:1.5;"/><line style="stroke:#000000;stroke-width:1.5;" x1="6" x2="116" y1="228.6348" y2="228.6348"/><text fill="#000000" font-family="sans-serif" font-size="14" font-weight="bold" lengthAdjust="spacing" textLength="97" x="10" y="221.1211">SHAREBOARD</text><text fill="#000000" font-family="sans-serif" font-size="14" font-style="italic" lengthAdjust="spacing" textLength="81" x="164.5" y="245.7422">&#171;aggregate&#187;</text></g><!--class SystemUser--><g id="elem_SystemUser"><rect codeLine="6" fill="#F1F1F1" height="113.7852" id="SystemUser" rx="2.5" ry="2.5" style="stroke:#181818;stroke-width:0.5;" width="107" x="473.5" y="278.5137"/><ellipse cx="488.5" cy="308.7852" fill="#ADD1B2" rx="11" ry="11" style="stroke:#181818;stroke-width:1.0;"/><path d="M491.2656,304.6602 Q491.4219,304.4414 491.6094,304.332 Q491.7969,304.2227 492.0156,304.2227 Q492.3906,304.2227 492.625,304.4883 Q492.8594,304.7383 492.8594,305.3477 L492.8594,306.8008 Q492.8594,307.4102 492.625,307.6758 Q492.3906,307.9414 492.0156,307.9414 Q491.6719,307.9414 491.4688,307.7383 Q491.2656,307.5508 491.1563,307.0352 Q491.1094,306.6758 490.9219,306.4883 Q490.5938,306.1133 489.9844,305.8945 Q489.375,305.6758 488.75,305.6758 Q487.9844,305.6758 487.3438,306.0039 Q486.7188,306.332 486.2188,307.082 Q485.7344,307.832 485.7344,308.8633 L485.7344,309.957 Q485.7344,311.1914 486.625,312.0195 Q487.5156,312.832 489.1094,312.832 Q490.0469,312.832 490.7031,312.582 Q491.0938,312.4258 491.5156,311.9883 Q491.7813,311.7227 491.9219,311.6445 Q492.0781,311.5664 492.2813,311.5664 Q492.6094,311.5664 492.8594,311.832 Q493.125,312.082 493.125,312.4258 Q493.125,312.7695 492.7813,313.1758 Q492.2813,313.7539 491.4844,314.082 Q490.4063,314.5352 489.1094,314.5352 Q487.5938,314.5352 486.3906,313.9102 Q485.4063,313.4102 484.7188,312.3477 Q484.0313,311.2695 484.0313,309.9883 L484.0313,308.832 Q484.0313,307.5039 484.6406,306.3633 Q485.2656,305.207 486.3594,304.5977 Q487.4531,303.9727 488.6875,303.9727 Q489.4219,303.9727 490.0625,304.1445 Q490.7188,304.3008 491.2656,304.6602 Z " fill="#000000"/><text fill="#000000" font-family="sans-serif" font-size="12" font-style="italic" lengthAdjust="spacing" textLength="35" x="522.5" y="296.4629">&#171;root&#187;</text><text fill="#000000" font-family="sans-serif" font-size="12" font-style="italic" lengthAdjust="spacing" textLength="44" x="518" y="312.4238">&#171;Entity&#187;</text><text fill="#000000" font-family="sans-serif" font-size="14" lengthAdjust="spacing" textLength="75" x="502.5" y="330.543">SystemUser</text><line style="stroke:#181818;stroke-width:0.5;" x1="474.5" x2="579.5" y1="339.0566" y2="339.0566"/><ellipse cx="484.5" cy="353.8672" fill="#000000" rx="3" ry="3" style="stroke:#000000;stroke-width:1.0;"/><text fill="#000000" font-family="sans-serif" font-size="14" lengthAdjust="spacing" textLength="36" x="493.5" y="358.1641">Name</text><ellipse cx="484.5" cy="372.4883" fill="#000000" rx="3" ry="3" style="stroke:#000000;stroke-width:1.0;"/><text fill="#000000" font-family="sans-serif" font-size="14" lengthAdjust="spacing" textLength="64" x="493.5" y="376.7852">Username</text><line style="stroke:#181818;stroke-width:0.5;" x1="474.5" x2="579.5" y1="384.2988" y2="384.2988"/></g><!--class eCourseSystemUser--><g id="elem_eCourseSystemUser"><rect codeLine="11" fill="#F1F1F1" height="76.543" id="eCourseSystemUser" rx="2.5" ry="2.5" style="stroke:#181818;stroke-width:0.5;" width="161" x="655.5" y="62.0137"/><ellipse cx="670.5" cy="92.2852" fill="#ADD1B2" rx="11" ry="11" style="stroke:#181818;stroke-width:1.0;"/><path d="M673.2656,88.1602 Q673.4219,87.9414 673.6094,87.832 Q673.7969,87.7227 674.0156,87.7227 Q674.3906,87.7227 674.625,87.9883 Q674.8594,88.2383 674.8594,88.8477 L674.8594,90.3008 Q674.8594,90.9102 674.625,91.1758 Q674.3906,91.4414 674.0156,91.4414 Q673.6719,91.4414 673.4688,91.2383 Q673.2656,91.0508 673.1563,90.5352 Q673.1094,90.1758 672.9219,89.9883 Q672.5938,89.6133 671.9844,89.3945 Q671.375,89.1758 670.75,89.1758 Q669.9844,89.1758 669.3438,89.5039 Q668.7188,89.832 668.2188,90.582 Q667.7344,91.332 667.7344,92.3633 L667.7344,93.457 Q667.7344,94.6914 668.625,95.5195 Q669.5156,96.332 671.1094,96.332 Q672.0469,96.332 672.7031,96.082 Q673.0938,95.9258 673.5156,95.4883 Q673.7813,95.2227 673.9219,95.1445 Q674.0781,95.0664 674.2813,95.0664 Q674.6094,95.0664 674.8594,95.332 Q675.125,95.582 675.125,95.9258 Q675.125,96.2695 674.7813,96.6758 Q674.2813,97.2539 673.4844,97.582 Q672.4063,98.0352 671.1094,98.0352 Q669.5938,98.0352 668.3906,97.4102 Q667.4063,96.9102 666.7188,95.8477 Q666.0313,94.7695 666.0313,93.4883 L666.0313,92.332 Q666.0313,91.0039 666.6406,89.8633 Q667.2656,88.707 668.3594,88.0977 Q669.4531,87.4727 670.6875,87.4727 Q671.4219,87.4727 672.0625,87.6445 Q672.7188,87.8008 673.2656,88.1602 Z " fill="#000000"/><text fill="#000000" font-family="sans-serif" font-size="12" font-style="italic" lengthAdjust="spacing" textLength="35" x="731.5" y="79.9629">&#171;root&#187;</text><text fill="#000000" font-family="sans-serif" font-size="12" font-style="italic" lengthAdjust="spacing" textLength="44" x="727" y="95.9238">&#171;Entity&#187;</text><text fill="#000000" font-family="sans-serif" font-size="14" lengthAdjust="spacing" textLength="129" x="684.5" y="114.043">eCourseSystemUser</text><line style="stroke:#181818;stroke-width:0.5;" x1="656.5" x2="815.5" y1="122.5566" y2="122.5566"/><line style="stroke:#181818;stroke-width:0.5;" x1="656.5" x2="815.5" y1="130.5566" y2="130.5566"/></g><!--class EmailAdderss--><g id="elem_EmailAdderss"><rect codeLine="15" fill="#F1F1F1" height="60.582" id="EmailAdderss" rx="2.5" ry="2.5" style="stroke:#181818;stroke-width:0.5;" width="118" x="573" y="520.5137"/><ellipse cx="588" cy="542.8047" fill="#ADD1B2" rx="11" ry="11" style="stroke:#181818;stroke-width:1.0;"/><path d="M590.7656,538.6797 Q590.9219,538.4609 591.1094,538.3516 Q591.2969,538.2422 591.5156,538.2422 Q591.8906,538.2422 592.125,538.5078 Q592.3594,538.7578 592.3594,539.3672 L592.3594,540.8203 Q592.3594,541.4297 592.125,541.6953 Q591.8906,541.9609 591.5156,541.9609 Q591.1719,541.9609 590.9688,541.7578 Q590.7656,541.5703 590.6563,541.0547 Q590.6094,540.6953 590.4219,540.5078 Q590.0938,540.1328 589.4844,539.9141 Q588.875,539.6953 588.25,539.6953 Q587.4844,539.6953 586.8438,540.0234 Q586.2188,540.3516 585.7188,541.1016 Q585.2344,541.8516 585.2344,542.8828 L585.2344,543.9766 Q585.2344,545.2109 586.125,546.0391 Q587.0156,546.8516 588.6094,546.8516 Q589.5469,546.8516 590.2031,546.6016 Q590.5938,546.4453 591.0156,546.0078 Q591.2813,545.7422 591.4219,545.6641 Q591.5781,545.5859 591.7813,545.5859 Q592.1094,545.5859 592.3594,545.8516 Q592.625,546.1016 592.625,546.4453 Q592.625,546.7891 592.2813,547.1953 Q591.7813,547.7734 590.9844,548.1016 Q589.9063,548.5547 588.6094,548.5547 Q587.0938,548.5547 585.8906,547.9297 Q584.9063,547.4297 584.2188,546.3672 Q583.5313,545.2891 583.5313,544.0078 L583.5313,542.8516 Q583.5313,541.5234 584.1406,540.3828 Q584.7656,539.2266 585.8594,538.6172 Q586.9531,537.9922 588.1875,537.9922 Q588.9219,537.9922 589.5625,538.1641 Q590.2188,538.3203 590.7656,538.6797 Z " fill="#000000"/><text fill="#000000" font-family="sans-serif" font-size="12" font-style="italic" lengthAdjust="spacing" textLength="83" x="603.5" y="538.4629">&#171;Value object&#187;</text><text fill="#000000" font-family="sans-serif" font-size="14" lengthAdjust="spacing" textLength="86" x="602" y="556.582">EmailAdderss</text><line style="stroke:#181818;stroke-width:0.5;" x1="574" x2="690" y1="565.0957" y2="565.0957"/><line style="stroke:#181818;stroke-width:0.5;" x1="574" x2="690" y1="573.0957" y2="573.0957"/></g><!--class Role--><g id="elem_Role"><rect codeLine="17" fill="#F1F1F1" height="79.2031" id="Role" rx="2.5" ry="2.5" style="stroke:#181818;stroke-width:0.5;" width="102" x="436" y="511.5137"/><ellipse cx="464.5" cy="533.8047" fill="#ADD1B2" rx="11" ry="11" style="stroke:#181818;stroke-width:1.0;"/><path d="M467.2656,529.6797 Q467.4219,529.4609 467.6094,529.3516 Q467.7969,529.2422 468.0156,529.2422 Q468.3906,529.2422 468.625,529.5078 Q468.8594,529.7578 468.8594,530.3672 L468.8594,531.8203 Q468.8594,532.4297 468.625,532.6953 Q468.3906,532.9609 468.0156,532.9609 Q467.6719,532.9609 467.4688,532.7578 Q467.2656,532.5703 467.1563,532.0547 Q467.1094,531.6953 466.9219,531.5078 Q466.5938,531.1328 465.9844,530.9141 Q465.375,530.6953 464.75,530.6953 Q463.9844,530.6953 463.3438,531.0234 Q462.7188,531.3516 462.2188,532.1016 Q461.7344,532.8516 461.7344,533.8828 L461.7344,534.9766 Q461.7344,536.2109 462.625,537.0391 Q463.5156,537.8516 465.1094,537.8516 Q466.0469,537.8516 466.7031,537.6016 Q467.0938,537.4453 467.5156,537.0078 Q467.7813,536.7422 467.9219,536.6641 Q468.0781,536.5859 468.2813,536.5859 Q468.6094,536.5859 468.8594,536.8516 Q469.125,537.1016 469.125,537.4453 Q469.125,537.7891 468.7813,538.1953 Q468.2813,538.7734 467.4844,539.1016 Q466.4063,539.5547 465.1094,539.5547 Q463.5938,539.5547 462.3906,538.9297 Q461.4063,538.4297 460.7188,537.3672 Q460.0313,536.2891 460.0313,535.0078 L460.0313,533.8516 Q460.0313,532.5234 460.6406,531.3828 Q461.2656,530.2266 462.3594,529.6172 Q463.4531,528.9922 464.6875,528.9922 Q465.4219,528.9922 466.0625,529.1641 Q466.7188,529.3203 467.2656,529.6797 Z " fill="#000000"/><text fill="#000000" font-family="sans-serif" font-size="12" font-style="italic" lengthAdjust="spacing" textLength="44" x="479.5" y="529.4629">&#171;Entity&#187;</text><text fill="#000000" font-family="sans-serif" font-size="14" lengthAdjust="spacing" textLength="29" x="487" y="547.582">Role</text><line style="stroke:#181818;stroke-width:0.5;" x1="437" x2="537" y1="556.0957" y2="556.0957"/><ellipse cx="447" cy="570.9063" fill="#000000" rx="3" ry="3" style="stroke:#000000;stroke-width:1.0;"/><text fill="#000000" font-family="sans-serif" font-size="14" lengthAdjust="spacing" textLength="76" x="456" y="575.2031">String name</text><line style="stroke:#181818;stroke-width:0.5;" x1="437" x2="537" y1="582.7168" y2="582.7168"/></g><!--class UserStatus--><g id="elem_UserStatus"><rect codeLine="21" fill="#F1F1F1" height="97.8242" id="UserStatus" rx="2.5" ry="2.5" style="stroke:#181818;stroke-width:0.5;" width="101" x="615.5" y="286.5137"/><ellipse cx="630.5" cy="308.8047" fill="#ADD1B2" rx="11" ry="11" style="stroke:#181818;stroke-width:1.0;"/><path d="M633.2656,304.6797 Q633.4219,304.4609 633.6094,304.3516 Q633.7969,304.2422 634.0156,304.2422 Q634.3906,304.2422 634.625,304.5078 Q634.8594,304.7578 634.8594,305.3672 L634.8594,306.8203 Q634.8594,307.4297 634.625,307.6953 Q634.3906,307.9609 634.0156,307.9609 Q633.6719,307.9609 633.4688,307.7578 Q633.2656,307.5703 633.1563,307.0547 Q633.1094,306.6953 632.9219,306.5078 Q632.5938,306.1328 631.9844,305.9141 Q631.375,305.6953 630.75,305.6953 Q629.9844,305.6953 629.3438,306.0234 Q628.7188,306.3516 628.2188,307.1016 Q627.7344,307.8516 627.7344,308.8828 L627.7344,309.9766 Q627.7344,311.2109 628.625,312.0391 Q629.5156,312.8516 631.1094,312.8516 Q632.0469,312.8516 632.7031,312.6016 Q633.0938,312.4453 633.5156,312.0078 Q633.7813,311.7422 633.9219,311.6641 Q634.0781,311.5859 634.2813,311.5859 Q634.6094,311.5859 634.8594,311.8516 Q635.125,312.1016 635.125,312.4453 Q635.125,312.7891 634.7813,313.1953 Q634.2813,313.7734 633.4844,314.1016 Q632.4063,314.5547 631.1094,314.5547 Q629.5938,314.5547 628.3906,313.9297 Q627.4063,313.4297 626.7188,312.3672 Q626.0313,311.2891 626.0313,310.0078 L626.0313,308.8516 Q626.0313,307.5234 626.6406,306.3828 Q627.2656,305.2266 628.3594,304.6172 Q629.4531,303.9922 630.6875,303.9922 Q631.4219,303.9922 632.0625,304.1641 Q632.7188,304.3203 633.2656,304.6797 Z " fill="#000000"/><text fill="#000000" font-family="sans-serif" font-size="12" font-style="italic" lengthAdjust="spacing" textLength="46" x="656" y="304.4629">&#171;enum&#187;</text><text fill="#000000" font-family="sans-serif" font-size="14" lengthAdjust="spacing" textLength="69" x="644.5" y="322.582">UserStatus</text><line style="stroke:#181818;stroke-width:0.5;" x1="616.5" x2="715.5" y1="331.0957" y2="331.0957"/><ellipse cx="626.5" cy="345.9063" fill="none" rx="3" ry="3" style="stroke:#038048;stroke-width:1.0;"/><text fill="#000000" font-family="sans-serif" font-size="14" lengthAdjust="spacing" textLength="53" x="635.5" y="350.2031">ENABLE</text><ellipse cx="626.5" cy="364.5273" fill="none" rx="3" ry="3" style="stroke:#038048;stroke-width:1.0;"/><text fill="#000000" font-family="sans-serif" font-size="14" lengthAdjust="spacing" textLength="57" x="635.5" y="368.8242">DISABLE</text><line style="stroke:#181818;stroke-width:0.5;" x1="616.5" x2="715.5" y1="376.3379" y2="376.3379"/></g><!--class Password--><g id="elem_Password"><rect codeLine="26" fill="#F1F1F1" height="60.582" id="Password" rx="2.5" ry="2.5" style="stroke:#181818;stroke-width:0.5;" width="109" x="726.5" y="520.5137"/><ellipse cx="741.5" cy="542.8047" fill="#ADD1B2" rx="11" ry="11" style="stroke:#181818;stroke-width:1.0;"/><path d="M744.2656,538.6797 Q744.4219,538.4609 744.6094,538.3516 Q744.7969,538.2422 745.0156,538.2422 Q745.3906,538.2422 745.625,538.5078 Q745.8594,538.7578 745.8594,539.3672 L745.8594,540.8203 Q745.8594,541.4297 745.625,541.6953 Q745.3906,541.9609 745.0156,541.9609 Q744.6719,541.9609 744.4688,541.7578 Q744.2656,541.5703 744.1563,541.0547 Q744.1094,540.6953 743.9219,540.5078 Q743.5938,540.1328 742.9844,539.9141 Q742.375,539.6953 741.75,539.6953 Q740.9844,539.6953 740.3438,540.0234 Q739.7188,540.3516 739.2188,541.1016 Q738.7344,541.8516 738.7344,542.8828 L738.7344,543.9766 Q738.7344,545.2109 739.625,546.0391 Q740.5156,546.8516 742.1094,546.8516 Q743.0469,546.8516 743.7031,546.6016 Q744.0938,546.4453 744.5156,546.0078 Q744.7813,545.7422 744.9219,545.6641 Q745.0781,545.5859 745.2813,545.5859 Q745.6094,545.5859 745.8594,545.8516 Q746.125,546.1016 746.125,546.4453 Q746.125,546.7891 745.7813,547.1953 Q745.2813,547.7734 744.4844,548.1016 Q743.4063,548.5547 742.1094,548.5547 Q740.5938,548.5547 739.3906,547.9297 Q738.4063,547.4297 737.7188,546.3672 Q737.0313,545.2891 737.0313,544.0078 L737.0313,542.8516 Q737.0313,541.5234 737.6406,540.3828 Q738.2656,539.2266 739.3594,538.6172 Q740.4531,537.9922 741.6875,537.9922 Q742.4219,537.9922 743.0625,538.1641 Q743.7188,538.3203 744.2656,538.6797 Z " fill="#000000"/><text fill="#000000" font-family="sans-serif" font-size="12" font-style="italic" lengthAdjust="spacing" textLength="81" x="753.5" y="538.4629">&#171;value object&#187;</text><text fill="#000000" font-family="sans-serif" font-size="14" lengthAdjust="spacing" textLength="61" x="763.5" y="556.582">Password</text><line style="stroke:#181818;stroke-width:0.5;" x1="727.5" x2="834.5" y1="565.0957" y2="565.0957"/><line style="stroke:#181818;stroke-width:0.5;" x1="727.5" x2="834.5" y1="573.0957" y2="573.0957"/></g><!--class Acronym--><g id="elem_Acronym"><rect codeLine="28" fill="#F1F1F1" height="60.582" id="Acronym" rx="2.5" ry="2.5" style="stroke:#181818;stroke-width:0.5;" width="109" x="751.5" y="305.0137"/><ellipse cx="766.5" cy="327.3047" fill="#ADD1B2" rx="11" ry="11" style="stroke:#181818;stroke-width:1.0;"/><path d="M769.2656,323.1797 Q769.4219,322.9609 769.6094,322.8516 Q769.7969,322.7422 770.0156,322.7422 Q770.3906,322.7422 770.625,323.0078 Q770.8594,323.2578 770.8594,323.8672 L770.8594,325.3203 Q770.8594,325.9297 770.625,326.1953 Q770.3906,326.4609 770.0156,326.4609 Q769.6719,326.4609 769.4688,326.2578 Q769.2656,326.0703 769.1563,325.5547 Q769.1094,325.1953 768.9219,325.0078 Q768.5938,324.6328 767.9844,324.4141 Q767.375,324.1953 766.75,324.1953 Q765.9844,324.1953 765.3438,324.5234 Q764.7188,324.8516 764.2188,325.6016 Q763.7344,326.3516 763.7344,327.3828 L763.7344,328.4766 Q763.7344,329.7109 764.625,330.5391 Q765.5156,331.3516 767.1094,331.3516 Q768.0469,331.3516 768.7031,331.1016 Q769.0938,330.9453 769.5156,330.5078 Q769.7813,330.2422 769.9219,330.1641 Q770.0781,330.0859 770.2813,330.0859 Q770.6094,330.0859 770.8594,330.3516 Q771.125,330.6016 771.125,330.9453 Q771.125,331.2891 770.7813,331.6953 Q770.2813,332.2734 769.4844,332.6016 Q768.4063,333.0547 767.1094,333.0547 Q765.5938,333.0547 764.3906,332.4297 Q763.4063,331.9297 762.7188,330.8672 Q762.0313,329.7891 762.0313,328.5078 L762.0313,327.3516 Q762.0313,326.0234 762.6406,324.8828 Q763.2656,323.7266 764.3594,323.1172 Q765.4531,322.4922 766.6875,322.4922 Q767.4219,322.4922 768.0625,322.6641 Q768.7188,322.8203 769.2656,323.1797 Z " fill="#000000"/><text fill="#000000" font-family="sans-serif" font-size="12" font-style="italic" lengthAdjust="spacing" textLength="81" x="778.5" y="322.9629">&#171;value object&#187;</text><text fill="#000000" font-family="sans-serif" font-size="14" lengthAdjust="spacing" textLength="55" x="791.5" y="341.082">Acronym</text><line style="stroke:#181818;stroke-width:0.5;" x1="752.5" x2="859.5" y1="349.5957" y2="349.5957"/><line style="stroke:#181818;stroke-width:0.5;" x1="752.5" x2="859.5" y1="357.5957" y2="357.5957"/></g><!--class NIF--><g id="elem_NIF"><rect codeLine="30" fill="#F1F1F1" height="60.582" id="NIF" rx="2.5" ry="2.5" style="stroke:#181818;stroke-width:0.5;" width="109" x="895.5" y="305.0137"/><ellipse cx="910.5" cy="327.3047" fill="#ADD1B2" rx="11" ry="11" style="stroke:#181818;stroke-width:1.0;"/><path d="M913.2656,323.1797 Q913.4219,322.9609 913.6094,322.8516 Q913.7969,322.7422 914.0156,322.7422 Q914.3906,322.7422 914.625,323.0078 Q914.8594,323.2578 914.8594,323.8672 L914.8594,325.3203 Q914.8594,325.9297 914.625,326.1953 Q914.3906,326.4609 914.0156,326.4609 Q913.6719,326.4609 913.4688,326.2578 Q913.2656,326.0703 913.1563,325.5547 Q913.1094,325.1953 912.9219,325.0078 Q912.5938,324.6328 911.9844,324.4141 Q911.375,324.1953 910.75,324.1953 Q909.9844,324.1953 909.3438,324.5234 Q908.7188,324.8516 908.2188,325.6016 Q907.7344,326.3516 907.7344,327.3828 L907.7344,328.4766 Q907.7344,329.7109 908.625,330.5391 Q909.5156,331.3516 911.1094,331.3516 Q912.0469,331.3516 912.7031,331.1016 Q913.0938,330.9453 913.5156,330.5078 Q913.7813,330.2422 913.9219,330.1641 Q914.0781,330.0859 914.2813,330.0859 Q914.6094,330.0859 914.8594,330.3516 Q915.125,330.6016 915.125,330.9453 Q915.125,331.2891 914.7813,331.6953 Q914.2813,332.2734 913.4844,332.6016 Q912.4063,333.0547 911.1094,333.0547 Q909.5938,333.0547 908.3906,332.4297 Q907.4063,331.9297 906.7188,330.8672 Q906.0313,329.7891 906.0313,328.5078 L906.0313,327.3516 Q906.0313,326.0234 906.6406,324.8828 Q907.2656,323.7266 908.3594,323.1172 Q909.4531,322.4922 910.6875,322.4922 Q911.4219,322.4922 912.0625,322.6641 Q912.7188,322.8203 913.2656,323.1797 Z " fill="#000000"/><text fill="#000000" font-family="sans-serif" font-size="12" font-style="italic" lengthAdjust="spacing" textLength="81" x="922.5" y="322.9629">&#171;value object&#187;</text><text fill="#000000" font-family="sans-serif" font-size="14" lengthAdjust="spacing" textLength="21" x="952.5" y="341.082">NIF</text><line style="stroke:#181818;stroke-width:0.5;" x1="896.5" x2="1003.5" y1="349.5957" y2="349.5957"/><line style="stroke:#181818;stroke-width:0.5;" x1="896.5" x2="1003.5" y1="357.5957" y2="357.5957"/></g><!--class BirthDate--><g id="elem_BirthDate"><rect codeLine="32" fill="#F1F1F1" height="60.582" id="BirthDate" rx="2.5" ry="2.5" style="stroke:#181818;stroke-width:0.5;" width="109" x="1039.5" y="305.0137"/><ellipse cx="1054.5" cy="327.3047" fill="#ADD1B2" rx="11" ry="11" style="stroke:#181818;stroke-width:1.0;"/><path d="M1057.2656,323.1797 Q1057.4219,322.9609 1057.6094,322.8516 Q1057.7969,322.7422 1058.0156,322.7422 Q1058.3906,322.7422 1058.625,323.0078 Q1058.8594,323.2578 1058.8594,323.8672 L1058.8594,325.3203 Q1058.8594,325.9297 1058.625,326.1953 Q1058.3906,326.4609 1058.0156,326.4609 Q1057.6719,326.4609 1057.4688,326.2578 Q1057.2656,326.0703 1057.1563,325.5547 Q1057.1094,325.1953 1056.9219,325.0078 Q1056.5938,324.6328 1055.9844,324.4141 Q1055.375,324.1953 1054.75,324.1953 Q1053.9844,324.1953 1053.3438,324.5234 Q1052.7188,324.8516 1052.2188,325.6016 Q1051.7344,326.3516 1051.7344,327.3828 L1051.7344,328.4766 Q1051.7344,329.7109 1052.625,330.5391 Q1053.5156,331.3516 1055.1094,331.3516 Q1056.0469,331.3516 1056.7031,331.1016 Q1057.0938,330.9453 1057.5156,330.5078 Q1057.7813,330.2422 1057.9219,330.1641 Q1058.0781,330.0859 1058.2813,330.0859 Q1058.6094,330.0859 1058.8594,330.3516 Q1059.125,330.6016 1059.125,330.9453 Q1059.125,331.2891 1058.7813,331.6953 Q1058.2813,332.2734 1057.4844,332.6016 Q1056.4063,333.0547 1055.1094,333.0547 Q1053.5938,333.0547 1052.3906,332.4297 Q1051.4063,331.9297 1050.7188,330.8672 Q1050.0313,329.7891 1050.0313,328.5078 L1050.0313,327.3516 Q1050.0313,326.0234 1050.6406,324.8828 Q1051.2656,323.7266 1052.3594,323.1172 Q1053.4531,322.4922 1054.6875,322.4922 Q1055.4219,322.4922 1056.0625,322.6641 Q1056.7188,322.8203 1057.2656,323.1797 Z " fill="#000000"/><text fill="#000000" font-family="sans-serif" font-size="12" font-style="italic" lengthAdjust="spacing" textLength="81" x="1066.5" y="322.9629">&#171;value object&#187;</text><text fill="#000000" font-family="sans-serif" font-size="14" lengthAdjust="spacing" textLength="59" x="1077.5" y="341.082">BirthDate</text><line style="stroke:#181818;stroke-width:0.5;" x1="1040.5" x2="1147.5" y1="349.5957" y2="349.5957"/><line style="stroke:#181818;stroke-width:0.5;" x1="1040.5" x2="1147.5" y1="357.5957" y2="357.5957"/></g><!--class MechanographicNumber--><g id="elem_MechanographicNumber"><rect codeLine="34" fill="#F1F1F1" height="76.543" id="MechanographicNumber" rx="2.5" ry="2.5" style="stroke:#181818;stroke-width:0.5;" width="186" x="1184" y="297.0137"/><ellipse cx="1199" cy="327.2852" fill="#ADD1B2" rx="11" ry="11" style="stroke:#181818;stroke-width:1.0;"/><path d="M1201.7656,323.1602 Q1201.9219,322.9414 1202.1094,322.832 Q1202.2969,322.7227 1202.5156,322.7227 Q1202.8906,322.7227 1203.125,322.9883 Q1203.3594,323.2383 1203.3594,323.8477 L1203.3594,325.3008 Q1203.3594,325.9102 1203.125,326.1758 Q1202.8906,326.4414 1202.5156,326.4414 Q1202.1719,326.4414 1201.9688,326.2383 Q1201.7656,326.0508 1201.6563,325.5352 Q1201.6094,325.1758 1201.4219,324.9883 Q1201.0938,324.6133 1200.4844,324.3945 Q1199.875,324.1758 1199.25,324.1758 Q1198.4844,324.1758 1197.8438,324.5039 Q1197.2188,324.832 1196.7188,325.582 Q1196.2344,326.332 1196.2344,327.3633 L1196.2344,328.457 Q1196.2344,329.6914 1197.125,330.5195 Q1198.0156,331.332 1199.6094,331.332 Q1200.5469,331.332 1201.2031,331.082 Q1201.5938,330.9258 1202.0156,330.4883 Q1202.2813,330.2227 1202.4219,330.1445 Q1202.5781,330.0664 1202.7813,330.0664 Q1203.1094,330.0664 1203.3594,330.332 Q1203.625,330.582 1203.625,330.9258 Q1203.625,331.2695 1203.2813,331.6758 Q1202.7813,332.2539 1201.9844,332.582 Q1200.9063,333.0352 1199.6094,333.0352 Q1198.0938,333.0352 1196.8906,332.4102 Q1195.9063,331.9102 1195.2188,330.8477 Q1194.5313,329.7695 1194.5313,328.4883 L1194.5313,327.332 Q1194.5313,326.0039 1195.1406,324.8633 Q1195.7656,323.707 1196.8594,323.0977 Q1197.9531,322.4727 1199.1875,322.4727 Q1199.9219,322.4727 1200.5625,322.6445 Q1201.2188,322.8008 1201.7656,323.1602 Z " fill="#000000"/><text fill="#000000" font-family="sans-serif" font-size="12" font-style="italic" lengthAdjust="spacing" textLength="81" x="1249.5" y="314.9629">&#171;value object&#187;</text><text fill="#000000" font-family="sans-serif" font-size="12" font-style="italic" lengthAdjust="spacing" textLength="146" x="1217" y="330.9238">&#171;automatically generated&#187;</text><text fill="#000000" font-family="sans-serif" font-size="14" lengthAdjust="spacing" textLength="154" x="1213" y="349.043">MechanographicNumber</text><line style="stroke:#181818;stroke-width:0.5;" x1="1185" x2="1369" y1="357.5566" y2="357.5566"/><line style="stroke:#181818;stroke-width:0.5;" x1="1185" x2="1369" y1="365.5566" y2="365.5566"/></g><!--class Grade--><g id="elem_Grade"><rect codeLine="36" fill="#F1F1F1" height="60.582" id="Grade" rx="2.5" ry="2.5" style="stroke:#181818;stroke-width:0.5;" width="109" x="1405.5" y="305.0137"/><ellipse cx="1420.5" cy="327.3047" fill="#ADD1B2" rx="11" ry="11" style="stroke:#181818;stroke-width:1.0;"/><path d="M1423.2656,323.1797 Q1423.4219,322.9609 1423.6094,322.8516 Q1423.7969,322.7422 1424.0156,322.7422 Q1424.3906,322.7422 1424.625,323.0078 Q1424.8594,323.2578 1424.8594,323.8672 L1424.8594,325.3203 Q1424.8594,325.9297 1424.625,326.1953 Q1424.3906,326.4609 1424.0156,326.4609 Q1423.6719,326.4609 1423.4688,326.2578 Q1423.2656,326.0703 1423.1563,325.5547 Q1423.1094,325.1953 1422.9219,325.0078 Q1422.5938,324.6328 1421.9844,324.4141 Q1421.375,324.1953 1420.75,324.1953 Q1419.9844,324.1953 1419.3438,324.5234 Q1418.7188,324.8516 1418.2188,325.6016 Q1417.7344,326.3516 1417.7344,327.3828 L1417.7344,328.4766 Q1417.7344,329.7109 1418.625,330.5391 Q1419.5156,331.3516 1421.1094,331.3516 Q1422.0469,331.3516 1422.7031,331.1016 Q1423.0938,330.9453 1423.5156,330.5078 Q1423.7813,330.2422 1423.9219,330.1641 Q1424.0781,330.0859 1424.2813,330.0859 Q1424.6094,330.0859 1424.8594,330.3516 Q1425.125,330.6016 1425.125,330.9453 Q1425.125,331.2891 1424.7813,331.6953 Q1424.2813,332.2734 1423.4844,332.6016 Q1422.4063,333.0547 1421.1094,333.0547 Q1419.5938,333.0547 1418.3906,332.4297 Q1417.4063,331.9297 1416.7188,330.8672 Q1416.0313,329.7891 1416.0313,328.5078 L1416.0313,327.3516 Q1416.0313,326.0234 1416.6406,324.8828 Q1417.2656,323.7266 1418.3594,323.1172 Q1419.4531,322.4922 1420.6875,322.4922 Q1421.4219,322.4922 1422.0625,322.6641 Q1422.7188,322.8203 1423.2656,323.1797 Z " fill="#000000"/><text fill="#000000" font-family="sans-serif" font-size="12" font-style="italic" lengthAdjust="spacing" textLength="81" x="1432.5" y="322.9629">&#171;value object&#187;</text><text fill="#000000" font-family="sans-serif" font-size="14" lengthAdjust="spacing" textLength="40" x="1453" y="341.082">Grade</text><line style="stroke:#181818;stroke-width:0.5;" x1="1406.5" x2="1513.5" y1="349.5957" y2="349.5957"/><line style="stroke:#181818;stroke-width:0.5;" x1="1406.5" x2="1513.5" y1="357.5957" y2="357.5957"/></g><!--class SharedBoard--><g id="elem_SharedBoard"><rect codeLine="42" fill="#F1F1F1" height="151.0273" id="SharedBoard" rx="2.5" ry="2.5" style="stroke:#181818;stroke-width:0.5;" width="271" x="99.5" y="260.0137"/><ellipse cx="188.75" cy="290.2852" fill="#ADD1B2" rx="11" ry="11" style="stroke:#181818;stroke-width:1.0;"/><path d="M191.5156,286.1602 Q191.6719,285.9414 191.8594,285.832 Q192.0469,285.7227 192.2656,285.7227 Q192.6406,285.7227 192.875,285.9883 Q193.1094,286.2383 193.1094,286.8477 L193.1094,288.3008 Q193.1094,288.9102 192.875,289.1758 Q192.6406,289.4414 192.2656,289.4414 Q191.9219,289.4414 191.7188,289.2383 Q191.5156,289.0508 191.4063,288.5352 Q191.3594,288.1758 191.1719,287.9883 Q190.8438,287.6133 190.2344,287.3945 Q189.625,287.1758 189,287.1758 Q188.2344,287.1758 187.5938,287.5039 Q186.9688,287.832 186.4688,288.582 Q185.9844,289.332 185.9844,290.3633 L185.9844,291.457 Q185.9844,292.6914 186.875,293.5195 Q187.7656,294.332 189.3594,294.332 Q190.2969,294.332 190.9531,294.082 Q191.3438,293.9258 191.7656,293.4883 Q192.0313,293.2227 192.1719,293.1445 Q192.3281,293.0664 192.5313,293.0664 Q192.8594,293.0664 193.1094,293.332 Q193.375,293.582 193.375,293.9258 Q193.375,294.2695 193.0313,294.6758 Q192.5313,295.2539 191.7344,295.582 Q190.6563,296.0352 189.3594,296.0352 Q187.8438,296.0352 186.6406,295.4102 Q185.6563,294.9102 184.9688,293.8477 Q184.2813,292.7695 184.2813,291.4883 L184.2813,290.332 Q184.2813,289.0039 184.8906,287.8633 Q185.5156,286.707 186.6094,286.0977 Q187.7031,285.4727 188.9375,285.4727 Q189.6719,285.4727 190.3125,285.6445 Q190.9688,285.8008 191.5156,286.1602 Z " fill="#000000"/><text fill="#000000" font-family="sans-serif" font-size="12" font-style="italic" lengthAdjust="spacing" textLength="35" x="233.75" y="277.9629">&#171;root&#187;</text><text fill="#000000" font-family="sans-serif" font-size="12" font-style="italic" lengthAdjust="spacing" textLength="43" x="229.75" y="293.9238">&#171;entity&#187;</text><text fill="#000000" font-family="sans-serif" font-size="14" lengthAdjust="spacing" textLength="84" x="209.25" y="312.043">SharedBoard</text><line style="stroke:#181818;stroke-width:0.5;" x1="100.5" x2="369.5" y1="320.5566" y2="320.5566"/><ellipse cx="110.5" cy="335.3672" fill="#000000" rx="3" ry="3" style="stroke:#000000;stroke-width:1.0;"/><text fill="#000000" font-family="sans-serif" font-size="14" lengthAdjust="spacing" textLength="245" x="119.5" y="339.6641">id &#171;unique&#187; &#171;automatically generated&#187;</text><ellipse cx="110.5" cy="353.9883" fill="#000000" rx="3" ry="3" style="stroke:#000000;stroke-width:1.0;"/><text fill="#000000" font-family="sans-serif" font-size="14" lengthAdjust="spacing" textLength="73" x="119.5" y="358.2852">boradName</text><ellipse cx="110.5" cy="372.6094" fill="#000000" rx="3" ry="3" style="stroke:#000000;stroke-width:1.0;"/><text fill="#000000" font-family="sans-serif" font-size="14" lengthAdjust="spacing" textLength="59" x="119.5" y="376.9063">maxRows</text><ellipse cx="110.5" cy="391.2305" fill="#000000" rx="3" ry="3" style="stroke:#000000;stroke-width:1.0;"/><text fill="#000000" font-family="sans-serif" font-size="14" lengthAdjust="spacing" textLength="80" x="119.5" y="395.5273">maxColumns</text><line style="stroke:#181818;stroke-width:0.5;" x1="100.5" x2="369.5" y1="403.041" y2="403.041"/></g><!--class Cell--><g id="elem_Cell"><rect codeLine="49" fill="#F1F1F1" height="85.2422" id="Cell" rx="2.5" ry="2.5" style="stroke:#181818;stroke-width:0.5;" width="73" x="172.5" y="673.0137"/><ellipse cx="195.15" cy="689.0137" fill="#ADD1B2" rx="11" ry="11" style="stroke:#181818;stroke-width:1.0;"/><path d="M197.9156,684.8887 Q198.0719,684.6699 198.2594,684.5605 Q198.4469,684.4512 198.6656,684.4512 Q199.0406,684.4512 199.275,684.7168 Q199.5094,684.9668 199.5094,685.5762 L199.5094,687.0293 Q199.5094,687.6387 199.275,687.9043 Q199.0406,688.1699 198.6656,688.1699 Q198.3219,688.1699 198.1188,687.9668 Q197.9156,687.7793 197.8063,687.2637 Q197.7594,686.9043 197.5719,686.7168 Q197.2438,686.3418 196.6344,686.123 Q196.025,685.9043 195.4,685.9043 Q194.6344,685.9043 193.9938,686.2324 Q193.3688,686.5605 192.8688,687.3105 Q192.3844,688.0605 192.3844,689.0918 L192.3844,690.1855 Q192.3844,691.4199 193.275,692.248 Q194.1656,693.0605 195.7594,693.0605 Q196.6969,693.0605 197.3531,692.8105 Q197.7438,692.6543 198.1656,692.2168 Q198.4313,691.9512 198.5719,691.873 Q198.7281,691.7949 198.9313,691.7949 Q199.2594,691.7949 199.5094,692.0605 Q199.775,692.3105 199.775,692.6543 Q199.775,692.998 199.4313,693.4043 Q198.9313,693.9824 198.1344,694.3105 Q197.0563,694.7637 195.7594,694.7637 Q194.2438,694.7637 193.0406,694.1387 Q192.0563,693.6387 191.3688,692.5762 Q190.6813,691.498 190.6813,690.2168 L190.6813,689.0605 Q190.6813,687.7324 191.2906,686.5918 Q191.9156,685.4355 193.0094,684.8262 Q194.1031,684.2012 195.3375,684.2012 Q196.0719,684.2012 196.7125,684.373 Q197.3688,684.5293 197.9156,684.8887 Z " fill="#000000"/><text fill="#000000" font-family="sans-serif" font-size="14" lengthAdjust="spacing" textLength="24" x="210.85" y="694.8105">Cell</text><line style="stroke:#181818;stroke-width:0.5;" x1="173.5" x2="244.5" y1="705.0137" y2="705.0137"/><ellipse cx="183.5" cy="719.8242" fill="#000000" rx="3" ry="3" style="stroke:#000000;stroke-width:1.0;"/><text fill="#000000" font-family="sans-serif" font-size="14" lengthAdjust="spacing" textLength="11" x="192.5" y="724.1211">id</text><ellipse cx="183.5" cy="738.4453" fill="#000000" rx="3" ry="3" style="stroke:#000000;stroke-width:1.0;"/><text fill="#000000" font-family="sans-serif" font-size="14" lengthAdjust="spacing" textLength="47" x="192.5" y="742.7422">content</text><line style="stroke:#181818;stroke-width:0.5;" x1="173.5" x2="244.5" y1="750.2559" y2="750.2559"/></g><!--class NormalCell--><g id="elem_NormalCell"><rect codeLine="54" fill="#F1F1F1" height="122.4844" id="NormalCell" rx="2.5" ry="2.5" style="stroke:#181818;stroke-width:0.5;" width="100" x="22" y="490.0137"/><ellipse cx="37" cy="506.0137" fill="#ADD1B2" rx="11" ry="11" style="stroke:#181818;stroke-width:1.0;"/><path d="M39.7656,501.8887 Q39.9219,501.6699 40.1094,501.5605 Q40.2969,501.4512 40.5156,501.4512 Q40.8906,501.4512 41.125,501.7168 Q41.3594,501.9668 41.3594,502.5762 L41.3594,504.0293 Q41.3594,504.6387 41.125,504.9043 Q40.8906,505.1699 40.5156,505.1699 Q40.1719,505.1699 39.9688,504.9668 Q39.7656,504.7793 39.6563,504.2637 Q39.6094,503.9043 39.4219,503.7168 Q39.0938,503.3418 38.4844,503.123 Q37.875,502.9043 37.25,502.9043 Q36.4844,502.9043 35.8438,503.2324 Q35.2188,503.5605 34.7188,504.3105 Q34.2344,505.0605 34.2344,506.0918 L34.2344,507.1855 Q34.2344,508.4199 35.125,509.248 Q36.0156,510.0605 37.6094,510.0605 Q38.5469,510.0605 39.2031,509.8105 Q39.5938,509.6543 40.0156,509.2168 Q40.2813,508.9512 40.4219,508.873 Q40.5781,508.7949 40.7813,508.7949 Q41.1094,508.7949 41.3594,509.0605 Q41.625,509.3105 41.625,509.6543 Q41.625,509.998 41.2813,510.4043 Q40.7813,510.9824 39.9844,511.3105 Q38.9063,511.7637 37.6094,511.7637 Q36.0938,511.7637 34.8906,511.1387 Q33.9063,510.6387 33.2188,509.5762 Q32.5313,508.498 32.5313,507.2168 L32.5313,506.0605 Q32.5313,504.7324 33.1406,503.5918 Q33.7656,502.4355 34.8594,501.8262 Q35.9531,501.2012 37.1875,501.2012 Q37.9219,501.2012 38.5625,501.373 Q39.2188,501.5293 39.7656,501.8887 Z " fill="#000000"/><text fill="#000000" font-family="sans-serif" font-size="14" lengthAdjust="spacing" textLength="68" x="51" y="511.8105">NormalCell</text><line style="stroke:#181818;stroke-width:0.5;" x1="23" x2="121" y1="522.0137" y2="522.0137"/><ellipse cx="33" cy="536.8242" fill="#000000" rx="3" ry="3" style="stroke:#000000;stroke-width:1.0;"/><text fill="#000000" font-family="sans-serif" font-size="14" lengthAdjust="spacing" textLength="11" x="42" y="541.1211">id</text><ellipse cx="33" cy="555.4453" fill="#000000" rx="3" ry="3" style="stroke:#000000;stroke-width:1.0;"/><text fill="#000000" font-family="sans-serif" font-size="14" lengthAdjust="spacing" textLength="22" x="42" y="559.7422">row</text><ellipse cx="33" cy="574.0664" fill="#000000" rx="3" ry="3" style="stroke:#000000;stroke-width:1.0;"/><text fill="#000000" font-family="sans-serif" font-size="14" lengthAdjust="spacing" textLength="45" x="42" y="578.3633">column</text><ellipse cx="33" cy="592.6875" fill="#000000" rx="3" ry="3" style="stroke:#000000;stroke-width:1.0;"/><text fill="#000000" font-family="sans-serif" font-size="14" lengthAdjust="spacing" textLength="47" x="42" y="596.9844">content</text><line style="stroke:#181818;stroke-width:0.5;" x1="23" x2="121" y1="604.498" y2="604.498"/></g><!--class ColumnCell--><g id="elem_ColumnCell"><rect codeLine="61" fill="#F1F1F1" height="103.8633" id="ColumnCell" rx="2.5" ry="2.5" style="stroke:#181818;stroke-width:0.5;" width="104" x="157" y="499.0137"/><ellipse cx="172" cy="515.0137" fill="#ADD1B2" rx="11" ry="11" style="stroke:#181818;stroke-width:1.0;"/><path d="M174.7656,510.8887 Q174.9219,510.6699 175.1094,510.5605 Q175.2969,510.4512 175.5156,510.4512 Q175.8906,510.4512 176.125,510.7168 Q176.3594,510.9668 176.3594,511.5762 L176.3594,513.0293 Q176.3594,513.6387 176.125,513.9043 Q175.8906,514.1699 175.5156,514.1699 Q175.1719,514.1699 174.9688,513.9668 Q174.7656,513.7793 174.6563,513.2637 Q174.6094,512.9043 174.4219,512.7168 Q174.0938,512.3418 173.4844,512.123 Q172.875,511.9043 172.25,511.9043 Q171.4844,511.9043 170.8438,512.2324 Q170.2188,512.5605 169.7188,513.3105 Q169.2344,514.0605 169.2344,515.0918 L169.2344,516.1855 Q169.2344,517.4199 170.125,518.248 Q171.0156,519.0605 172.6094,519.0605 Q173.5469,519.0605 174.2031,518.8105 Q174.5938,518.6543 175.0156,518.2168 Q175.2813,517.9512 175.4219,517.873 Q175.5781,517.7949 175.7813,517.7949 Q176.1094,517.7949 176.3594,518.0605 Q176.625,518.3105 176.625,518.6543 Q176.625,518.998 176.2813,519.4043 Q175.7813,519.9824 174.9844,520.3105 Q173.9063,520.7637 172.6094,520.7637 Q171.0938,520.7637 169.8906,520.1387 Q168.9063,519.6387 168.2188,518.5762 Q167.5313,517.498 167.5313,516.2168 L167.5313,515.0605 Q167.5313,513.7324 168.1406,512.5918 Q168.7656,511.4355 169.8594,510.8262 Q170.9531,510.2012 172.1875,510.2012 Q172.9219,510.2012 173.5625,510.373 Q174.2188,510.5293 174.7656,510.8887 Z " fill="#000000"/><text fill="#000000" font-family="sans-serif" font-size="14" lengthAdjust="spacing" textLength="72" x="186" y="520.8105">ColumnCell</text><line style="stroke:#181818;stroke-width:0.5;" x1="158" x2="260" y1="531.0137" y2="531.0137"/><ellipse cx="168" cy="545.8242" fill="#000000" rx="3" ry="3" style="stroke:#000000;stroke-width:1.0;"/><text fill="#000000" font-family="sans-serif" font-size="14" lengthAdjust="spacing" textLength="11" x="177" y="550.1211">id</text><ellipse cx="168" cy="564.4453" fill="#000000" rx="3" ry="3" style="stroke:#000000;stroke-width:1.0;"/><text fill="#000000" font-family="sans-serif" font-size="14" lengthAdjust="spacing" textLength="76" x="177" y="568.7422">columnTittle</text><ellipse cx="168" cy="583.0664" fill="#000000" rx="3" ry="3" style="stroke:#000000;stroke-width:1.0;"/><text fill="#000000" font-family="sans-serif" font-size="14" lengthAdjust="spacing" textLength="45" x="177" y="587.3633">column</text><line style="stroke:#181818;stroke-width:0.5;" x1="158" x2="260" y1="594.877" y2="594.877"/></g><!--class RowCell--><g id="elem_RowCell"><rect codeLine="67" fill="#F1F1F1" height="103.8633" id="RowCell" rx="2.5" ry="2.5" style="stroke:#181818;stroke-width:0.5;" width="83" x="296.5" y="499.0137"/><ellipse cx="311.5" cy="515.0137" fill="#ADD1B2" rx="11" ry="11" style="stroke:#181818;stroke-width:1.0;"/><path d="M314.2656,510.8887 Q314.4219,510.6699 314.6094,510.5605 Q314.7969,510.4512 315.0156,510.4512 Q315.3906,510.4512 315.625,510.7168 Q315.8594,510.9668 315.8594,511.5762 L315.8594,513.0293 Q315.8594,513.6387 315.625,513.9043 Q315.3906,514.1699 315.0156,514.1699 Q314.6719,514.1699 314.4688,513.9668 Q314.2656,513.7793 314.1563,513.2637 Q314.1094,512.9043 313.9219,512.7168 Q313.5938,512.3418 312.9844,512.123 Q312.375,511.9043 311.75,511.9043 Q310.9844,511.9043 310.3438,512.2324 Q309.7188,512.5605 309.2188,513.3105 Q308.7344,514.0605 308.7344,515.0918 L308.7344,516.1855 Q308.7344,517.4199 309.625,518.248 Q310.5156,519.0605 312.1094,519.0605 Q313.0469,519.0605 313.7031,518.8105 Q314.0938,518.6543 314.5156,518.2168 Q314.7813,517.9512 314.9219,517.873 Q315.0781,517.7949 315.2813,517.7949 Q315.6094,517.7949 315.8594,518.0605 Q316.125,518.3105 316.125,518.6543 Q316.125,518.998 315.7813,519.4043 Q315.2813,519.9824 314.4844,520.3105 Q313.4063,520.7637 312.1094,520.7637 Q310.5938,520.7637 309.3906,520.1387 Q308.4063,519.6387 307.7188,518.5762 Q307.0313,517.498 307.0313,516.2168 L307.0313,515.0605 Q307.0313,513.7324 307.6406,512.5918 Q308.2656,511.4355 309.3594,510.8262 Q310.4531,510.2012 311.6875,510.2012 Q312.4219,510.2012 313.0625,510.373 Q313.7188,510.5293 314.2656,510.8887 Z " fill="#000000"/><text fill="#000000" font-family="sans-serif" font-size="14" lengthAdjust="spacing" textLength="51" x="325.5" y="520.8105">RowCell</text><line style="stroke:#181818;stroke-width:0.5;" x1="297.5" x2="378.5" y1="531.0137" y2="531.0137"/><ellipse cx="307.5" cy="545.8242" fill="#000000" rx="3" ry="3" style="stroke:#000000;stroke-width:1.0;"/><text fill="#000000" font-family="sans-serif" font-size="14" lengthAdjust="spacing" textLength="11" x="316.5" y="550.1211">id</text><ellipse cx="307.5" cy="564.4453" fill="#000000" rx="3" ry="3" style="stroke:#000000;stroke-width:1.0;"/><text fill="#000000" font-family="sans-serif" font-size="14" lengthAdjust="spacing" textLength="53" x="316.5" y="568.7422">rowTittle</text><ellipse cx="307.5" cy="583.0664" fill="#000000" rx="3" ry="3" style="stroke:#000000;stroke-width:1.0;"/><text fill="#000000" font-family="sans-serif" font-size="14" lengthAdjust="spacing" textLength="22" x="316.5" y="587.3633">row</text><line style="stroke:#181818;stroke-width:0.5;" x1="297.5" x2="378.5" y1="594.877" y2="594.877"/></g><!--class BoardHistoryService--><g id="elem_BoardHistoryService"><rect codeLine="73" fill="#F1F1F1" height="60.582" id="BoardHistoryService" rx="2.5" ry="2.5" style="stroke:#181818;stroke-width:0.5;" width="160" x="40" y="70.0137"/><ellipse cx="55" cy="92.3047" fill="#ADD1B2" rx="11" ry="11" style="stroke:#181818;stroke-width:1.0;"/><path d="M57.7656,88.1797 Q57.9219,87.9609 58.1094,87.8516 Q58.2969,87.7422 58.5156,87.7422 Q58.8906,87.7422 59.125,88.0078 Q59.3594,88.2578 59.3594,88.8672 L59.3594,90.3203 Q59.3594,90.9297 59.125,91.1953 Q58.8906,91.4609 58.5156,91.4609 Q58.1719,91.4609 57.9688,91.2578 Q57.7656,91.0703 57.6563,90.5547 Q57.6094,90.1953 57.4219,90.0078 Q57.0938,89.6328 56.4844,89.4141 Q55.875,89.1953 55.25,89.1953 Q54.4844,89.1953 53.8438,89.5234 Q53.2188,89.8516 52.7188,90.6016 Q52.2344,91.3516 52.2344,92.3828 L52.2344,93.4766 Q52.2344,94.7109 53.125,95.5391 Q54.0156,96.3516 55.6094,96.3516 Q56.5469,96.3516 57.2031,96.1016 Q57.5938,95.9453 58.0156,95.5078 Q58.2813,95.2422 58.4219,95.1641 Q58.5781,95.0859 58.7813,95.0859 Q59.1094,95.0859 59.3594,95.3516 Q59.625,95.6016 59.625,95.9453 Q59.625,96.2891 59.2813,96.6953 Q58.7813,97.2734 57.9844,97.6016 Q56.9063,98.0547 55.6094,98.0547 Q54.0938,98.0547 52.8906,97.4297 Q51.9063,96.9297 51.2188,95.8672 Q50.5313,94.7891 50.5313,93.5078 L50.5313,92.3516 Q50.5313,91.0234 51.1406,89.8828 Q51.7656,88.7266 52.8594,88.1172 Q53.9531,87.4922 55.1875,87.4922 Q55.9219,87.4922 56.5625,87.6641 Q57.2188,87.8203 57.7656,88.1797 Z " fill="#000000"/><text fill="#000000" font-family="sans-serif" font-size="12" font-style="italic" lengthAdjust="spacing" textLength="53" x="106.5" y="87.9629">&#171;service&#187;</text><text fill="#000000" font-family="sans-serif" font-size="14" lengthAdjust="spacing" textLength="128" x="69" y="106.082">BoardHistoryService</text><line style="stroke:#181818;stroke-width:0.5;" x1="41" x2="199" y1="114.5957" y2="114.5957"/><line style="stroke:#181818;stroke-width:0.5;" x1="41" x2="199" y1="122.5957" y2="122.5957"/></g><!--link SystemUser to EmailAdderss--><g id="link_SystemUser_EmailAdderss"><path codeLine="78" d="M554.59,392.6037 C573.76,431.5837 598.69,482.2937 615.01,515.4737 " fill="none" id="SystemUser-to-EmailAdderss" style="stroke:#181818;stroke-width:1.0;"/><polygon fill="#181818" points="617.36,520.2437,616.9883,510.4018,615.1583,515.7545,609.8056,513.9245,617.36,520.2437" style="stroke:#181818;stroke-width:1.0;"/><text fill="#000000" font-family="sans-serif" font-size="13" lengthAdjust="spacing" textLength="7" x="606.6186" y="509.2457">1</text></g><!--link SystemUser to Password--><g id="link_SystemUser_Password"><path codeLine="79" d="M578.21,392.6237 C584.7,399.0137 591.38,405.2837 598,411.0137 C643.76,450.6637 661.04,453.0537 709,490.0137 C720.13,498.5937 731.95,508.2137 742.73,517.2037 " fill="none" id="SystemUser-to-Password" style="stroke:#181818;stroke-width:1.0;"/><polygon fill="#181818" points="746.64,520.4737,742.2835,511.6407,742.7977,517.2742,737.1643,517.7884,746.64,520.4737" style="stroke:#181818;stroke-width:1.0;"/><text fill="#000000" font-family="sans-serif" font-size="13" lengthAdjust="spacing" textLength="7" x="731.3581" y="509.0395">1</text></g><!--link SystemUser to Role--><g id="link_SystemUser_Role"><path codeLine="80" d="M516.49,392.6037 C509.83,428.1437 501.35,473.4237 495.19,506.2937 " fill="none" id="SystemUser-to-Role" style="stroke:#181818;stroke-width:1.0;"/><polygon fill="#181818" points="494.22,511.4537,499.8172,503.3499,495.1457,506.5401,491.9555,501.8687,494.22,511.4537" style="stroke:#181818;stroke-width:1.0;"/><text fill="#000000" font-family="sans-serif" font-size="13" lengthAdjust="spacing" textLength="7" x="487.8594" y="500.2292">1</text></g><!--link eCourseSystemUser to SystemUser--><g id="link_eCourseSystemUser_SystemUser"><path codeLine="82" d="M667.16,139.0637 C643.21,154.4637 617.48,173.8937 598,196.0137 C578.08,218.6337 562.04,247.8437 550.28,273.5937 " fill="none" id="eCourseSystemUser-to-SystemUser" style="stroke:#181818;stroke-width:1.0;"/><polygon fill="#181818" points="548.13,278.3637,555.4787,271.8064,550.1872,273.8065,548.1871,268.515,548.13,278.3637" style="stroke:#181818;stroke-width:1.0;"/><text fill="#000000" font-family="sans-serif" font-size="13" lengthAdjust="spacing" textLength="7" x="543.2787" y="267.4217">1</text></g><!--link eCourseSystemUser to Role--><g id="link_eCourseSystemUser_Role"><path codeLine="83" d="M655.48,104.4737 C589.89,111.6537 501.03,133.2937 456,196.0137 C388.84,289.5537 436.1,434.8837 466.62,506.7537 " fill="none" id="eCourseSystemUser-to-Role" style="stroke:#181818;stroke-width:1.0;"/><polygon fill="#181818" points="468.61,511.3737,468.7413,501.5257,466.6404,506.7779,461.3881,504.677,468.61,511.3737" style="stroke:#181818;stroke-width:1.0;"/><text fill="#000000" font-family="sans-serif" font-size="13" lengthAdjust="spacing" textLength="7" x="457.8477" y="500.1355">1</text></g><!--link eCourseSystemUser to UserStatus--><g id="link_eCourseSystemUser_UserStatus"><path codeLine="84" d="M724.68,139.2037 C713.09,177.7737 694.98,238.0437 681.95,281.4237 " fill="none" id="eCourseSystemUser-to-UserStatus" style="stroke:#181818;stroke-width:1.0;"/><polygon fill="#181818" points="680.46,286.3637,686.8877,278.9014,681.9033,281.5765,679.2282,276.5921,680.46,286.3637" style="stroke:#181818;stroke-width:1.0;"/><text fill="#000000" font-family="sans-serif" font-size="13" lengthAdjust="spacing" textLength="7" x="675.0013" y="275.3178">1</text></g><!--link eCourseSystemUser to Acronym--><g id="link_eCourseSystemUser_Acronym"><path codeLine="85" d="M747.32,139.2037 C760.7,183.7337 782.76,257.1637 795.68,300.1737 " fill="none" id="eCourseSystemUser-to-Acronym" style="stroke:#181818;stroke-width:1.0;"/><polygon fill="#181818" points="797.13,305.0037,798.3886,295.2356,795.6998,300.2126,790.7228,297.5238,797.13,305.0037" style="stroke:#181818;stroke-width:1.0;"/><text fill="#000000" font-family="sans-serif" font-size="13" lengthAdjust="spacing" textLength="7" x="787.4241" y="293.5761">1</text></g><!--link eCourseSystemUser to NIF--><g id="link_eCourseSystemUser_NIF"><path codeLine="86" d="M807.16,139.0137 C831.7,154.3537 858.02,173.7537 878,196.0137 C905.67,226.8337 925.96,270.2137 937.82,300.1737 " fill="none" id="eCourseSystemUser-to-NIF" style="stroke:#181818;stroke-width:1.0;"/><polygon fill="#181818" points="939.65,304.8637,940.1102,295.0256,937.835,300.2047,932.6559,297.9296,939.65,304.8637" style="stroke:#181818;stroke-width:1.0;"/><text fill="#000000" font-family="sans-serif" font-size="13" lengthAdjust="spacing" textLength="7" x="929.7934" y="293.8904">1</text></g><!--link eCourseSystemUser to BirthDate--><g id="link_eCourseSystemUser_BirthDate"><path codeLine="87" d="M816.52,111.3937 C878.73,122.6637 963.77,146.4337 1022,196.0137 C1054.12,223.3637 1073.8,268.6637 1084.29,299.9737 " fill="none" id="eCourseSystemUser-to-BirthDate" style="stroke:#181818;stroke-width:1.0;"/><polygon fill="#181818" points="1085.9,304.8737,1086.9018,295.0759,1084.3446,300.1218,1079.2987,297.5646,1085.9,304.8737" style="stroke:#181818;stroke-width:1.0;"/><text fill="#000000" font-family="sans-serif" font-size="13" lengthAdjust="spacing" textLength="7" x="1076.5075" y="293.9025">1</text></g><!--link eCourseSystemUser to MechanographicNumber--><g id="link_eCourseSystemUser_MechanographicNumber"><path codeLine="88" d="M816.87,103.4437 C908.07,109.0337 1057.73,128.7737 1166,196.0137 C1203.92,219.5637 1234.47,260.8137 1253.85,292.1937 " fill="none" id="eCourseSystemUser-to-MechanographicNumber" style="stroke:#181818;stroke-width:1.0;"/><polygon fill="#181818" points="1256.63,296.7437,1255.3435,286.9792,1254.0199,292.479,1248.52,291.1554,1256.63,296.7437" style="stroke:#181818;stroke-width:1.0;"/><text fill="#000000" font-family="sans-serif" font-size="13" lengthAdjust="spacing" textLength="7" x="1245.5273" y="285.7117">1</text></g><!--link eCourseSystemUser to Grade--><g id="link_eCourseSystemUser_Grade"><path codeLine="89" d="M816.59,104.1637 C970.18,110.6537 1297.61,131.8037 1388,196.0137 C1422.81,220.7437 1442.05,267.5037 1451.69,299.8037 " fill="none" id="eCourseSystemUser-to-Grade" style="stroke:#181818;stroke-width:1.0;"/><polygon fill="#181818" points="1453.16,304.8537,1454.4878,295.0947,1451.7638,300.0526,1446.806,297.3286,1453.16,304.8537" style="stroke:#181818;stroke-width:1.0;"/><polygon fill="#000000" points="1380.7784,180.1312,1372.9994,174.6596,1371.269,180.277,1380.7784,180.1312" style="stroke:#000000;stroke-width:1.0;"/><text fill="#000000" font-family="sans-serif" font-size="13" lengthAdjust="spacing" textLength="79" x="1385" y="184.042">student has a</text><text fill="#000000" font-family="sans-serif" font-size="13" lengthAdjust="spacing" textLength="7" x="1444.0274" y="293.8784">1</text></g><!--link eCourseSystemUser to SharedBoard--><g id="link_eCourseSystemUser_SharedBoard"><path codeLine="90" d="M655.17,102.7037 C537.78,106.1437 328.21,119.2937 274,169.0137 C250.45,190.6137 239.85,223.5337 235.45,254.3337 " fill="none" id="eCourseSystemUser-to-SharedBoard" style="stroke:#181818;stroke-width:1.0;"/><polygon fill="#181818" points="234.74,259.6637,239.888,251.2674,235.3971,254.707,231.9574,250.2161,234.74,259.6637" style="stroke:#181818;stroke-width:1.0;"/><polygon fill="#000000" points="274.2975,180.358,283.803,180.0489,281.8059,174.5207,274.2975,180.358" style="stroke:#000000;stroke-width:1.0;"/><text fill="#000000" font-family="sans-serif" font-size="13" lengthAdjust="spacing" textLength="30" x="288" y="184.042">owns</text><text fill="#000000" font-family="sans-serif" font-size="13" lengthAdjust="spacing" textLength="5" x="229.4769" y="248.6649">*</text></g><!--link eCourseSystemUser to SharedBoard--><g id="link_eCourseSystemUser_SharedBoard"><path codeLine="91" d="M655.34,108.9837 C559.79,119.0237 407.46,139.1337 359,169.0137 C325.07,189.9337 297.25,223.8337 276.62,255.5137 " fill="none" id="eCourseSystemUser-to-SharedBoard-1" style="stroke:#181818;stroke-width:1.0;"/><polygon fill="#181818" points="273.89,259.7737,282.1215,254.3661,276.5938,255.5678,275.3921,250.04,273.89,259.7737" style="stroke:#181818;stroke-width:1.0;"/><polygon fill="#000000" points="368.6631,176.855,359.167,177.3779,361.2879,182.8597,368.6631,176.855" style="stroke:#000000;stroke-width:1.0;"/><text fill="#000000" font-family="sans-serif" font-size="13" lengthAdjust="spacing" textLength="54" x="373" y="184.042">shared to</text><text fill="#000000" font-family="sans-serif" font-size="13" lengthAdjust="spacing" textLength="5" x="272.3584" y="248.7854">*</text></g><!--link SharedBoard to RowCell--><g id="link_SharedBoard_RowCell"><path codeLine="92" d="M271.02,411.1837 C285.01,440.1637 300.66,472.6237 313.32,498.8637 " fill="none" id="SharedBoard-RowCell" style="stroke:#181818;stroke-width:1.0;"/><polygon fill="#000000" points="299.1726,455.1625,297.8893,445.7389,292.5954,448.2929,299.1726,455.1625" style="stroke:#000000;stroke-width:1.0;"/><text fill="#000000" font-family="sans-serif" font-size="13" lengthAdjust="spacing" textLength="21" x="306" y="456.042">has</text><text fill="#000000" font-family="sans-serif" font-size="13" lengthAdjust="spacing" textLength="7" x="267.0179" y="432.9836">1</text><text fill="#000000" font-family="sans-serif" font-size="13" lengthAdjust="spacing" textLength="29" x="279.0552" y="487.7709">1..20</text></g><!--link SharedBoard to ColumnCell--><g id="link_SharedBoard_ColumnCell"><path codeLine="93" d="M225.91,411.1837 C222.38,440.1637 218.42,472.6237 215.23,498.8637 " fill="none" id="SharedBoard-ColumnCell" style="stroke:#181818;stroke-width:1.0;"/><polygon fill="#000000" points="226.3954,455.6225,230.4065,446.9991,224.5717,446.2884,226.3954,455.6225" style="stroke:#000000;stroke-width:1.0;"/><text fill="#000000" font-family="sans-serif" font-size="13" lengthAdjust="spacing" textLength="21" x="236" y="456.042">has</text><text fill="#000000" font-family="sans-serif" font-size="13" lengthAdjust="spacing" textLength="7" x="217.7494" y="432.9836">1</text><text fill="#000000" font-family="sans-serif" font-size="13" lengthAdjust="spacing" textLength="29" x="185.1187" y="487.7709">1..10</text></g><!--link SharedBoard to NormalCell--><g id="link_SharedBoard_NormalCell"><path codeLine="94" d="M177.99,411.1837 C158.34,436.9237 136.6,465.3937 117.95,489.8237 " fill="none" id="SharedBoard-NormalCell" style="stroke:#181818;stroke-width:1.0;"/><polygon fill="#000000" points="155.9658,454.6333,163.7906,449.2275,159.1188,445.6606,155.9658,454.6333" style="stroke:#000000;stroke-width:1.0;"/><text fill="#000000" font-family="sans-serif" font-size="13" lengthAdjust="spacing" textLength="21" x="168" y="456.042">has</text><text fill="#000000" font-family="sans-serif" font-size="13" lengthAdjust="spacing" textLength="7" x="165.4117" y="432.9836">1</text><text fill="#000000" font-family="sans-serif" font-size="13" lengthAdjust="spacing" textLength="20" x="102.1067" y="478.7829">1..*</text></g><!--link BoardHistoryService to SharedBoard--><g id="link_BoardHistoryService_SharedBoard"><path codeLine="95" d="M113.7,131.1637 C111.35,148.2537 110.6,169.8737 117,188.0137 C125.5,212.1237 139.84,235.1837 155.65,255.5937 " fill="none" id="BoardHistoryService-to-SharedBoard" style="stroke:#181818;stroke-width:1.0;"/><polygon fill="#181818" points="158.83,259.6337,156.4164,250.0851,155.7415,255.7016,150.1251,255.0267,158.83,259.6337" style="stroke:#181818;stroke-width:1.0;"/><text fill="#000000" font-family="sans-serif" font-size="13" lengthAdjust="spacing" textLength="115" x="118" y="184.042">saves changes from</text><text fill="#000000" font-family="sans-serif" font-size="13" lengthAdjust="spacing" textLength="5" x="146.3318" y="248.6321">*</text></g><!--link NormalCell to Cell--><g id="link_NormalCell_Cell"><path codeLine="96" d="M122.24,611.6037 C134.8,626.5037 148.24,642.4537 160.71,657.2337 " fill="none" id="NormalCell-to-Cell" style="stroke:#181818;stroke-width:1.0;"/><polygon fill="none" points="166.22,652.9137,173.76,672.7137,155.52,661.9437,166.22,652.9137" style="stroke:#181818;stroke-width:1.0;"/></g><!--link ColumnCell to Cell--><g id="link_ColumnCell_Cell"><path codeLine="97" d="M209,603.4337 C209,619.0937 209,636.4837 209,652.7637 " fill="none" id="ColumnCell-to-Cell" style="stroke:#181818;stroke-width:1.0;"/><polygon fill="none" points="216,652.9337,209,672.9337,202,652.9337,216,652.9337" style="stroke:#181818;stroke-width:1.0;"/></g><!--link RowCell to Cell--><g id="link_RowCell_Cell"><path codeLine="98" d="M297.18,603.4337 C283.63,620.5037 268.46,639.6037 254.58,657.1037 " fill="none" id="RowCell-to-Cell" style="stroke:#181818;stroke-width:1.0;"/><polygon fill="none" points="259.93,661.6137,242.01,672.9337,248.96,652.9137,259.93,661.6137" style="stroke:#181818;stroke-width:1.0;"/></g><!--SRC=[bLHDZzem4BtxLrXSLjegqEqHHP7uIBihTTagMIhrQ99fujOVr7QMefR_ldOWu2mXj3wGUERDoyFpnZUbCMiz7etMZ0XJSJRC91zf-5M1o238AIaKuGYXDSb-aWBm89uzBPCqJh-bp_7ZCesJ0Gx3IL4eA8Y1AC9_4C9sPOneZTEjDi2N6fH5AIcD1OHXB0mrsngB3-iMBmW7R-jgH1FQ-PmmavNIS9Nwl3BcXB99deEocp3yIbW5MAv-G6QBVM0Y6LpIcHf5HO6xjJavgI6cSlmWAjugVeVZnMJwEVO2yuVq66anVR4_6wboo_DoKUSaKr9iUIzcyV2nDp-bofHpsxjUr2Da9H7Ikc5TqcnHyLLzxkq26o2LaPmOcX76jhW00SfIvssoJuhaNP_R-KPBxoT9F7sQ97FdCD9oc6UmaYZ8fvBK9tMq0NHrZZf89QWrznMjfvgLj5hVM9EJtudSw7Pa9bd5XJvlv0mOUoF3ssHI62lsl6mX5IUilrZ9JOlAAVWNxhtMQy8SvfaQmw3x8xlsn6okQZqZQ_JlRESFPdIDlAVQIBLDGRtGpFb4xz-SHT1D0ipsJ0fTqhL6oBi6WY32Wxj1QyoxyireTUNSv2DqViKq-LEe1rIJN4wVBeaUq66qUn1si7konx7kmNGDTGzyFxPZh4sLMr_XacXCS7IfudRGciunbXkX_mEkwnqs4eV8ppWfGM0Vm-67zuEZyyQrdkWIzCv2FTzVGLintW0su2vtTchNv0KqTeTRsETt9Jdow8BWRrHV2yWJT0esV-WKiUiL]--></g></svg>