<?xml version="1.0" encoding="us-ascii" standalone="no"?><svg xmlns="http://www.w3.org/2000/svg" xmlns:xlink="http://www.w3.org/1999/xlink" contentStyleType="text/css" height="1021px" preserveAspectRatio="none" style="width:1530px;height:1021px;background:#FFFFFF;" version="1.1" viewBox="0 0 1530 1021" width="1530px" zoomAndPan="magnify"><defs/><g><rect fill="#FFFFFF" height="791.2754" style="stroke:#181818;stroke-width:1.0;" width="10" x="17.5" y="121.5332"/><rect fill="#FFFFFF" height="500.6563" style="stroke:#181818;stroke-width:1.0;" width="10" x="225.5" y="121.5332"/><rect fill="#FFFFFF" height="250.3281" style="stroke:#181818;stroke-width:1.0;" width="10" x="225.5" y="653.4805"/><rect fill="#FFFFFF" height="438.0742" style="stroke:#181818;stroke-width:1.0;" width="10" x="410.5" y="152.8242"/><rect fill="#FFFFFF" height="62.582" style="stroke:#181818;stroke-width:1.0;" width="10" x="410.5" y="684.7715"/><rect fill="#FFFFFF" height="93.873" style="stroke:#181818;stroke-width:1.0;" width="10" x="410.5" y="778.6445"/><rect fill="#FFFFFF" height="31.291" style="stroke:#181818;stroke-width:1.0;" width="10" x="592" y="215.4063"/><rect fill="#FFFFFF" height="31.291" style="stroke:#181818;stroke-width:1.0;" width="10" x="720" y="277.9883"/><rect fill="#FFFFFF" height="93.873" style="stroke:#181818;stroke-width:1.0;" width="10" x="964.5" y="465.7344"/><rect fill="#FFFFFF" height="31.291" style="stroke:#181818;stroke-width:1.0;" width="10" x="964.5" y="716.0625"/><rect fill="#FFFFFF" height="31.291" style="stroke:#181818;stroke-width:1.0;" width="10" x="1115" y="809.9355"/><rect fill="#FFFFFF" height="31.291" style="stroke:#181818;stroke-width:1.0;" width="10" x="1288" y="403.1523"/><rect fill="#FFFFFF" height="31.291" style="stroke:#181818;stroke-width:1.0;" width="10" x="1448" y="340.5703"/><line style="stroke:#181818;stroke-width:0.5;stroke-dasharray:5.0,5.0;" x1="22" x2="22" y1="88.2422" y2="921.8086"/><line style="stroke:#181818;stroke-width:0.5;stroke-dasharray:5.0,5.0;" x1="230.5" x2="230.5" y1="88.2422" y2="921.8086"/><line style="stroke:#181818;stroke-width:0.5;stroke-dasharray:5.0,5.0;" x1="415.5" x2="415.5" y1="88.2422" y2="921.8086"/><line style="stroke:#181818;stroke-width:0.5;stroke-dasharray:5.0,5.0;" x1="596.5" x2="596.5" y1="88.2422" y2="921.8086"/><line style="stroke:#181818;stroke-width:0.5;stroke-dasharray:5.0,5.0;" x1="724.5" x2="724.5" y1="88.2422" y2="921.8086"/><line style="stroke:#181818;stroke-width:0.5;stroke-dasharray:5.0,5.0;" x1="842.5" x2="842.5" y1="88.2422" y2="921.8086"/><line style="stroke:#181818;stroke-width:0.5;stroke-dasharray:5.0,5.0;" x1="969.5" x2="969.5" y1="88.2422" y2="921.8086"/><line style="stroke:#181818;stroke-width:0.5;stroke-dasharray:5.0,5.0;" x1="1119.5" x2="1119.5" y1="88.2422" y2="921.8086"/><line style="stroke:#181818;stroke-width:0.5;stroke-dasharray:5.0,5.0;" x1="1292.5" x2="1292.5" y1="88.2422" y2="921.8086"/><line style="stroke:#181818;stroke-width:0.5;stroke-dasharray:5.0,5.0;" x1="1452.5" x2="1452.5" y1="88.2422" y2="921.8086"/><text fill="#000000" font-family="sans-serif" font-size="14" lengthAdjust="spacing" textLength="29" x="5" y="84.7285">User</text><ellipse cx="22.5" cy="18.1211" fill="#E2E2F0" rx="8" ry="8" style="stroke:#181818;stroke-width:0.5;"/><path d="M22.5,26.1211 L22.5,53.1211 M9.5,34.1211 L35.5,34.1211 M22.5,53.1211 L9.5,68.1211 M22.5,53.1211 L35.5,68.1211 " fill="none" style="stroke:#181818;stroke-width:0.5;"/><text fill="#000000" font-family="sans-serif" font-size="14" lengthAdjust="spacing" textLength="29" x="5" y="935.916">User</text><ellipse cx="22.5" cy="947.9297" fill="#E2E2F0" rx="8" ry="8" style="stroke:#181818;stroke-width:0.5;"/><path d="M22.5,955.9297 L22.5,982.9297 M9.5,963.9297 L35.5,963.9297 M22.5,982.9297 L9.5,997.9297 M22.5,982.9297 L35.5,997.9297 " fill="none" style="stroke:#181818;stroke-width:0.5;"/><rect fill="#E2E2F0" height="32.6211" rx="2.5" ry="2.5" style="stroke:#181818;stroke-width:0.5;" width="150" x="155.5" y="54.6211"/><text fill="#000000" font-family="sans-serif" font-size="14" lengthAdjust="spacing" textLength="136" x="162.5" y="76.7285">ViewBoardChangesUI</text><rect fill="#E2E2F0" height="32.6211" rx="2.5" ry="2.5" style="stroke:#181818;stroke-width:0.5;" width="150" x="155.5" y="920.8086"/><text fill="#000000" font-family="sans-serif" font-size="14" lengthAdjust="spacing" textLength="136" x="162.5" y="942.916">ViewBoardChangesUI</text><rect fill="#E2E2F0" height="32.6211" rx="2.5" ry="2.5" style="stroke:#181818;stroke-width:0.5;" width="200" x="315.5" y="54.6211"/><text fill="#000000" font-family="sans-serif" font-size="14" lengthAdjust="spacing" textLength="186" x="322.5" y="76.7285">ViewBoardChangesController</text><rect fill="#E2E2F0" height="32.6211" rx="2.5" ry="2.5" style="stroke:#181818;stroke-width:0.5;" width="200" x="315.5" y="920.8086"/><text fill="#000000" font-family="sans-serif" font-size="14" lengthAdjust="spacing" textLength="186" x="322.5" y="942.916">ViewBoardChangesController</text><rect fill="#E2E2F0" height="32.6211" rx="2.5" ry="2.5" style="stroke:#181818;stroke-width:0.5;" width="143" x="525.5" y="54.6211"/><text fill="#000000" font-family="sans-serif" font-size="14" lengthAdjust="spacing" textLength="129" x="532.5" y="76.7285">AuthorizationService</text><rect fill="#E2E2F0" height="32.6211" rx="2.5" ry="2.5" style="stroke:#181818;stroke-width:0.5;" width="143" x="525.5" y="920.8086"/><text fill="#000000" font-family="sans-serif" font-size="14" lengthAdjust="spacing" textLength="129" x="532.5" y="942.916">AuthorizationService</text><rect fill="#E2E2F0" height="32.6211" rx="2.5" ry="2.5" style="stroke:#181818;stroke-width:0.5;" width="93" x="678.5" y="54.6211"/><text fill="#000000" font-family="sans-serif" font-size="14" lengthAdjust="spacing" textLength="79" x="685.5" y="76.7285">UserSession</text><rect fill="#E2E2F0" height="32.6211" rx="2.5" ry="2.5" style="stroke:#181818;stroke-width:0.5;" width="93" x="678.5" y="920.8086"/><text fill="#000000" font-family="sans-serif" font-size="14" lengthAdjust="spacing" textLength="79" x="685.5" y="942.916">UserSession</text><text fill="#000000" font-family="sans-serif" font-size="14" font-style="italic" lengthAdjust="spacing" textLength="79" x="800" y="66.1074">&#171;repository&#187;</text><text fill="#000000" font-family="sans-serif" font-size="14" lengthAdjust="spacing" textLength="116" x="781.5" y="84.7285">RepositoryFactory</text><path d="M824.5,15 C824.5,5 842.5,5 842.5,5 C842.5,5 860.5,5 860.5,15 L860.5,41 C860.5,51 842.5,51 842.5,51 C842.5,51 824.5,51 824.5,41 L824.5,15 " fill="#E2E2F0" style="stroke:#181818;stroke-width:1.5;"/><path d="M824.5,15 C824.5,25 842.5,25 842.5,25 C842.5,25 860.5,25 860.5,15 " fill="none" style="stroke:#181818;stroke-width:1.5;"/><text fill="#000000" font-family="sans-serif" font-size="14" font-style="italic" lengthAdjust="spacing" textLength="79" x="800" y="935.916">&#171;repository&#187;</text><text fill="#000000" font-family="sans-serif" font-size="14" lengthAdjust="spacing" textLength="116" x="781.5" y="954.5371">RepositoryFactory</text><path d="M824.5,968.0508 C824.5,958.0508 842.5,958.0508 842.5,958.0508 C842.5,958.0508 860.5,958.0508 860.5,968.0508 L860.5,994.0508 C860.5,1004.0508 842.5,1004.0508 842.5,1004.0508 C842.5,1004.0508 824.5,1004.0508 824.5,994.0508 L824.5,968.0508 " fill="#E2E2F0" style="stroke:#181818;stroke-width:1.5;"/><path d="M824.5,968.0508 C824.5,978.0508 842.5,978.0508 842.5,978.0508 C842.5,978.0508 860.5,978.0508 860.5,968.0508 " fill="none" style="stroke:#181818;stroke-width:1.5;"/><text fill="#000000" font-family="sans-serif" font-size="14" font-style="italic" lengthAdjust="spacing" textLength="79" x="927" y="66.1074">&#171;repository&#187;</text><text fill="#000000" font-family="sans-serif" font-size="14" lengthAdjust="spacing" textLength="106" x="913.5" y="84.7285">BoardRepository</text><path d="M951.5,15 C951.5,5 969.5,5 969.5,5 C969.5,5 987.5,5 987.5,15 L987.5,41 C987.5,51 969.5,51 969.5,51 C969.5,51 951.5,51 951.5,41 L951.5,15 " fill="#E2E2F0" style="stroke:#181818;stroke-width:1.5;"/><path d="M951.5,15 C951.5,25 969.5,25 969.5,25 C969.5,25 987.5,25 987.5,15 " fill="none" style="stroke:#181818;stroke-width:1.5;"/><text fill="#000000" font-family="sans-serif" font-size="14" font-style="italic" lengthAdjust="spacing" textLength="79" x="927" y="935.916">&#171;repository&#187;</text><text fill="#000000" font-family="sans-serif" font-size="14" lengthAdjust="spacing" textLength="106" x="913.5" y="954.5371">BoardRepository</text><path d="M951.5,968.0508 C951.5,958.0508 969.5,958.0508 969.5,958.0508 C969.5,958.0508 987.5,958.0508 987.5,968.0508 L987.5,994.0508 C987.5,1004.0508 969.5,1004.0508 969.5,1004.0508 C969.5,1004.0508 951.5,1004.0508 951.5,994.0508 L951.5,968.0508 " fill="#E2E2F0" style="stroke:#181818;stroke-width:1.5;"/><path d="M951.5,968.0508 C951.5,978.0508 969.5,978.0508 969.5,978.0508 C969.5,978.0508 987.5,978.0508 987.5,968.0508 " fill="none" style="stroke:#181818;stroke-width:1.5;"/><text fill="#000000" font-family="sans-serif" font-size="14" font-style="italic" lengthAdjust="spacing" textLength="79" x="1077.5" y="66.1074">&#171;repository&#187;</text><text fill="#000000" font-family="sans-serif" font-size="14" lengthAdjust="spacing" textLength="163" x="1035.5" y="84.7285">BoardChangesRepository</text><path d="M1102,15 C1102,5 1120,5 1120,5 C1120,5 1138,5 1138,15 L1138,41 C1138,51 1120,51 1120,51 C1120,51 1102,51 1102,41 L1102,15 " fill="#E2E2F0" style="stroke:#181818;stroke-width:1.5;"/><path d="M1102,15 C1102,25 1120,25 1120,25 C1120,25 1138,25 1138,15 " fill="none" style="stroke:#181818;stroke-width:1.5;"/><text fill="#000000" font-family="sans-serif" font-size="14" font-style="italic" lengthAdjust="spacing" textLength="79" x="1077.5" y="935.916">&#171;repository&#187;</text><text fill="#000000" font-family="sans-serif" font-size="14" lengthAdjust="spacing" textLength="163" x="1035.5" y="954.5371">BoardChangesRepository</text><path d="M1102,968.0508 C1102,958.0508 1120,958.0508 1120,958.0508 C1120,958.0508 1138,958.0508 1138,968.0508 L1138,994.0508 C1138,1004.0508 1120,1004.0508 1120,1004.0508 C1120,1004.0508 1102,1004.0508 1102,994.0508 L1102,968.0508 " fill="#E2E2F0" style="stroke:#181818;stroke-width:1.5;"/><path d="M1102,968.0508 C1102,978.0508 1120,978.0508 1120,978.0508 C1120,978.0508 1138,978.0508 1138,968.0508 " fill="none" style="stroke:#181818;stroke-width:1.5;"/><text fill="#000000" font-family="sans-serif" font-size="14" font-style="italic" lengthAdjust="spacing" textLength="79" x="1250.5" y="66.1074">&#171;repository&#187;</text><text fill="#000000" font-family="sans-serif" font-size="14" lengthAdjust="spacing" textLength="151" x="1214.5" y="84.7285">eCourseUserRepository</text><path d="M1275,15 C1275,5 1293,5 1293,5 C1293,5 1311,5 1311,15 L1311,41 C1311,51 1293,51 1293,51 C1293,51 1275,51 1275,41 L1275,15 " fill="#E2E2F0" style="stroke:#181818;stroke-width:1.5;"/><path d="M1275,15 C1275,25 1293,25 1293,25 C1293,25 1311,25 1311,15 " fill="none" style="stroke:#181818;stroke-width:1.5;"/><text fill="#000000" font-family="sans-serif" font-size="14" font-style="italic" lengthAdjust="spacing" textLength="79" x="1250.5" y="935.916">&#171;repository&#187;</text><text fill="#000000" font-family="sans-serif" font-size="14" lengthAdjust="spacing" textLength="151" x="1214.5" y="954.5371">eCourseUserRepository</text><path d="M1275,968.0508 C1275,958.0508 1293,958.0508 1293,958.0508 C1293,958.0508 1311,958.0508 1311,968.0508 L1311,994.0508 C1311,1004.0508 1293,1004.0508 1293,1004.0508 C1293,1004.0508 1275,1004.0508 1275,994.0508 L1275,968.0508 " fill="#E2E2F0" style="stroke:#181818;stroke-width:1.5;"/><path d="M1275,968.0508 C1275,978.0508 1293,978.0508 1293,978.0508 C1293,978.0508 1311,978.0508 1311,968.0508 " fill="none" style="stroke:#181818;stroke-width:1.5;"/><rect fill="#E2E2F0" height="32.6211" rx="2.5" ry="2.5" style="stroke:#181818;stroke-width:0.5;" width="143" x="1381.5" y="54.6211"/><text fill="#000000" font-family="sans-serif" font-size="14" lengthAdjust="spacing" textLength="129" x="1388.5" y="76.7285">eCourseSystemUser</text><rect fill="#E2E2F0" height="32.6211" rx="2.5" ry="2.5" style="stroke:#181818;stroke-width:0.5;" width="143" x="1381.5" y="920.8086"/><text fill="#000000" font-family="sans-serif" font-size="14" lengthAdjust="spacing" textLength="129" x="1388.5" y="942.916">eCourseSystemUser</text><rect fill="#FFFFFF" height="791.2754" style="stroke:#181818;stroke-width:1.0;" width="10" x="17.5" y="121.5332"/><rect fill="#FFFFFF" height="500.6563" style="stroke:#181818;stroke-width:1.0;" width="10" x="225.5" y="121.5332"/><rect fill="#FFFFFF" height="250.3281" style="stroke:#181818;stroke-width:1.0;" width="10" x="225.5" y="653.4805"/><rect fill="#FFFFFF" height="438.0742" style="stroke:#181818;stroke-width:1.0;" width="10" x="410.5" y="152.8242"/><rect fill="#FFFFFF" height="62.582" style="stroke:#181818;stroke-width:1.0;" width="10" x="410.5" y="684.7715"/><rect fill="#FFFFFF" height="93.873" style="stroke:#181818;stroke-width:1.0;" width="10" x="410.5" y="778.6445"/><rect fill="#FFFFFF" height="31.291" style="stroke:#181818;stroke-width:1.0;" width="10" x="592" y="215.4063"/><rect fill="#FFFFFF" height="31.291" style="stroke:#181818;stroke-width:1.0;" width="10" x="720" y="277.9883"/><rect fill="#FFFFFF" height="93.873" style="stroke:#181818;stroke-width:1.0;" width="10" x="964.5" y="465.7344"/><rect fill="#FFFFFF" height="31.291" style="stroke:#181818;stroke-width:1.0;" width="10" x="964.5" y="716.0625"/><rect fill="#FFFFFF" height="31.291" style="stroke:#181818;stroke-width:1.0;" width="10" x="1115" y="809.9355"/><rect fill="#FFFFFF" height="31.291" style="stroke:#181818;stroke-width:1.0;" width="10" x="1288" y="403.1523"/><rect fill="#FFFFFF" height="31.291" style="stroke:#181818;stroke-width:1.0;" width="10" x="1448" y="340.5703"/><polygon fill="#181818" points="213.5,117.5332,223.5,121.5332,213.5,125.5332,217.5,121.5332" style="stroke:#181818;stroke-width:1.0;"/><line style="stroke:#181818;stroke-width:1.0;" x1="27.5" x2="219.5" y1="121.5332" y2="121.5332"/><text fill="#000000" font-family="sans-serif" font-size="13" font-weight="bold" lengthAdjust="spacing" textLength="7" x="34.5" y="116.2705">1</text><text fill="#000000" font-family="sans-serif" font-size="13" lengthAdjust="spacing" textLength="173" x="45.5" y="116.2705">Starts viewing Board Changes</text><polygon fill="#181818" points="398.5,148.8242,408.5,152.8242,398.5,156.8242,402.5,152.8242" style="stroke:#181818;stroke-width:1.0;"/><line style="stroke:#181818;stroke-width:1.0;" x1="235.5" x2="404.5" y1="152.8242" y2="152.8242"/><text fill="#000000" font-family="sans-serif" font-size="13" font-weight="bold" lengthAdjust="spacing" textLength="7" x="242.5" y="147.5615">2</text><text fill="#000000" font-family="sans-serif" font-size="13" lengthAdjust="spacing" textLength="67" x="253.5" y="147.5615">getBoards()</text><polygon fill="#181818" points="830.5,180.1152,840.5,184.1152,830.5,188.1152,834.5,184.1152" style="stroke:#181818;stroke-width:1.0;"/><line style="stroke:#181818;stroke-width:1.0;" x1="420.5" x2="836.5" y1="184.1152" y2="184.1152"/><text fill="#000000" font-family="sans-serif" font-size="13" font-weight="bold" lengthAdjust="spacing" textLength="7" x="427.5" y="178.8525">3</text><text fill="#000000" font-family="sans-serif" font-size="13" lengthAdjust="spacing" textLength="4" x="438.5" y="178.8525">&#160;</text><polygon fill="#181818" points="580,211.4063,590,215.4063,580,219.4063,584,215.4063" style="stroke:#181818;stroke-width:1.0;"/><line style="stroke:#181818;stroke-width:1.0;" x1="420.5" x2="586" y1="215.4063" y2="215.4063"/><text fill="#000000" font-family="sans-serif" font-size="13" font-weight="bold" lengthAdjust="spacing" textLength="7" x="427.5" y="210.1436">4</text><text fill="#000000" font-family="sans-serif" font-size="13" lengthAdjust="spacing" textLength="53" x="438.5" y="210.1436">session()</text><polygon fill="#181818" points="431.5,242.6973,421.5,246.6973,431.5,250.6973,427.5,246.6973" style="stroke:#181818;stroke-width:1.0;"/><line style="stroke:#181818;stroke-width:1.0;stroke-dasharray:2.0,2.0;" x1="425.5" x2="596" y1="246.6973" y2="246.6973"/><text fill="#000000" font-family="sans-serif" font-size="13" font-weight="bold" lengthAdjust="spacing" textLength="7" x="437.5" y="241.4346">5</text><text fill="#000000" font-family="sans-serif" font-size="13" lengthAdjust="spacing" textLength="45" x="448.5" y="241.4346">session</text><polygon fill="#181818" points="708,273.9883,718,277.9883,708,281.9883,712,277.9883" style="stroke:#181818;stroke-width:1.0;"/><line style="stroke:#181818;stroke-width:1.0;" x1="420.5" x2="714" y1="277.9883" y2="277.9883"/><text fill="#000000" font-family="sans-serif" font-size="13" font-weight="bold" lengthAdjust="spacing" textLength="7" x="427.5" y="272.7256">6</text><text fill="#000000" font-family="sans-serif" font-size="13" lengthAdjust="spacing" textLength="113" x="438.5" y="272.7256">authenticatedUser()</text><polygon fill="#181818" points="431.5,305.2793,421.5,309.2793,431.5,313.2793,427.5,309.2793" style="stroke:#181818;stroke-width:1.0;"/><line style="stroke:#181818;stroke-width:1.0;stroke-dasharray:2.0,2.0;" x1="425.5" x2="724" y1="309.2793" y2="309.2793"/><text fill="#000000" font-family="sans-serif" font-size="13" font-weight="bold" lengthAdjust="spacing" textLength="7" x="437.5" y="304.0166">7</text><text fill="#000000" font-family="sans-serif" font-size="13" lengthAdjust="spacing" textLength="25" x="448.5" y="304.0166">user</text><polygon fill="#181818" points="1436,336.5703,1446,340.5703,1436,344.5703,1440,340.5703" style="stroke:#181818;stroke-width:1.0;"/><line style="stroke:#181818;stroke-width:1.0;" x1="420.5" x2="1442" y1="340.5703" y2="340.5703"/><text fill="#000000" font-family="sans-serif" font-size="13" font-weight="bold" lengthAdjust="spacing" textLength="7" x="427.5" y="335.3076">8</text><text fill="#000000" font-family="sans-serif" font-size="13" lengthAdjust="spacing" textLength="68" x="438.5" y="335.3076">user.email()</text><polygon fill="#181818" points="431.5,367.8613,421.5,371.8613,431.5,375.8613,427.5,371.8613" style="stroke:#181818;stroke-width:1.0;"/><line style="stroke:#181818;stroke-width:1.0;stroke-dasharray:2.0,2.0;" x1="425.5" x2="1452" y1="371.8613" y2="371.8613"/><text fill="#000000" font-family="sans-serif" font-size="13" font-weight="bold" lengthAdjust="spacing" textLength="7" x="437.5" y="366.5986">9</text><text fill="#000000" font-family="sans-serif" font-size="13" lengthAdjust="spacing" textLength="31" x="448.5" y="366.5986">email</text><polygon fill="#181818" points="1276,399.1523,1286,403.1523,1276,407.1523,1280,403.1523" style="stroke:#181818;stroke-width:1.0;"/><line style="stroke:#181818;stroke-width:1.0;" x1="420.5" x2="1282" y1="403.1523" y2="403.1523"/><text fill="#000000" font-family="sans-serif" font-size="13" font-weight="bold" lengthAdjust="spacing" textLength="14" x="427.5" y="397.8896">10</text><text fill="#000000" font-family="sans-serif" font-size="13" lengthAdjust="spacing" textLength="107" x="445.5" y="397.8896">SearchUser(email)</text><polygon fill="#181818" points="431.5,430.4434,421.5,434.4434,431.5,438.4434,427.5,434.4434" style="stroke:#181818;stroke-width:1.0;"/><line style="stroke:#181818;stroke-width:1.0;stroke-dasharray:2.0,2.0;" x1="425.5" x2="1292" y1="434.4434" y2="434.4434"/><text fill="#000000" font-family="sans-serif" font-size="13" font-weight="bold" lengthAdjust="spacing" textLength="14" x="437.5" y="429.1807">11</text><text fill="#000000" font-family="sans-serif" font-size="13" lengthAdjust="spacing" textLength="32" x="455.5" y="429.1807">euser</text><polygon fill="#181818" points="952.5,461.7344,962.5,465.7344,952.5,469.7344,956.5,465.7344" style="stroke:#181818;stroke-width:1.0;"/><line style="stroke:#181818;stroke-width:1.0;" x1="420.5" x2="958.5" y1="465.7344" y2="465.7344"/><text fill="#000000" font-family="sans-serif" font-size="13" font-weight="bold" lengthAdjust="spacing" textLength="14" x="427.5" y="460.4717">12</text><text fill="#000000" font-family="sans-serif" font-size="13" lengthAdjust="spacing" textLength="111" x="445.5" y="460.4717">getallOwned(euser)</text><polygon fill="#181818" points="431.5,493.0254,421.5,497.0254,431.5,501.0254,427.5,497.0254" style="stroke:#181818;stroke-width:1.0;"/><line style="stroke:#181818;stroke-width:1.0;stroke-dasharray:2.0,2.0;" x1="425.5" x2="963.5" y1="497.0254" y2="497.0254"/><text fill="#000000" font-family="sans-serif" font-size="13" font-weight="bold" lengthAdjust="spacing" textLength="14" x="437.5" y="491.7627">13</text><text fill="#000000" font-family="sans-serif" font-size="13" lengthAdjust="spacing" textLength="79" x="455.5" y="491.7627">boardsOwned</text><polygon fill="#181818" points="952.5,524.3164,962.5,528.3164,952.5,532.3164,956.5,528.3164" style="stroke:#181818;stroke-width:1.0;"/><line style="stroke:#181818;stroke-width:1.0;" x1="420.5" x2="958.5" y1="528.3164" y2="528.3164"/><text fill="#000000" font-family="sans-serif" font-size="13" font-weight="bold" lengthAdjust="spacing" textLength="14" x="427.5" y="523.0537">14</text><text fill="#000000" font-family="sans-serif" font-size="13" lengthAdjust="spacing" textLength="161" x="445.5" y="523.0537">findBoeardsHiShared(euser)</text><polygon fill="#181818" points="431.5,555.6074,421.5,559.6074,431.5,563.6074,427.5,559.6074" style="stroke:#181818;stroke-width:1.0;"/><line style="stroke:#181818;stroke-width:1.0;stroke-dasharray:2.0,2.0;" x1="425.5" x2="968.5" y1="559.6074" y2="559.6074"/><text fill="#000000" font-family="sans-serif" font-size="13" font-weight="bold" lengthAdjust="spacing" textLength="14" x="437.5" y="554.3447">15</text><text fill="#000000" font-family="sans-serif" font-size="13" lengthAdjust="spacing" textLength="80" x="455.5" y="554.3447">boardsShared</text><polygon fill="#181818" points="246.5,586.8984,236.5,590.8984,246.5,594.8984,242.5,590.8984" style="stroke:#181818;stroke-width:1.0;"/><line style="stroke:#181818;stroke-width:1.0;stroke-dasharray:2.0,2.0;" x1="240.5" x2="414.5" y1="590.8984" y2="590.8984"/><text fill="#000000" font-family="sans-serif" font-size="13" font-weight="bold" lengthAdjust="spacing" textLength="14" x="252.5" y="585.6357">16</text><text fill="#000000" font-family="sans-serif" font-size="13" lengthAdjust="spacing" textLength="65" x="270.5" y="585.6357">boardsDTO</text><polygon fill="#181818" points="38.5,618.1895,28.5,622.1895,38.5,626.1895,34.5,622.1895" style="stroke:#181818;stroke-width:1.0;"/><line style="stroke:#181818;stroke-width:1.0;stroke-dasharray:2.0,2.0;" x1="32.5" x2="229.5" y1="622.1895" y2="622.1895"/><text fill="#000000" font-family="sans-serif" font-size="13" font-weight="bold" lengthAdjust="spacing" textLength="14" x="44.5" y="616.9268">17</text><text fill="#000000" font-family="sans-serif" font-size="13" lengthAdjust="spacing" textLength="156" x="62.5" y="616.9268">shows the boards to select</text><polygon fill="#181818" points="213.5,649.4805,223.5,653.4805,213.5,657.4805,217.5,653.4805" style="stroke:#181818;stroke-width:1.0;"/><line style="stroke:#181818;stroke-width:1.0;" x1="27.5" x2="219.5" y1="653.4805" y2="653.4805"/><text fill="#000000" font-family="sans-serif" font-size="13" font-weight="bold" lengthAdjust="spacing" textLength="14" x="34.5" y="648.2178">18</text><text fill="#000000" font-family="sans-serif" font-size="13" lengthAdjust="spacing" textLength="89" x="52.5" y="648.2178">selects a board</text><polygon fill="#181818" points="398.5,680.7715,408.5,684.7715,398.5,688.7715,402.5,684.7715" style="stroke:#181818;stroke-width:1.0;"/><line style="stroke:#181818;stroke-width:1.0;" x1="235.5" x2="404.5" y1="684.7715" y2="684.7715"/><text fill="#000000" font-family="sans-serif" font-size="13" font-weight="bold" lengthAdjust="spacing" textLength="14" x="242.5" y="679.5088">19</text><text fill="#000000" font-family="sans-serif" font-size="13" lengthAdjust="spacing" textLength="102" x="260.5" y="679.5088">getBoard(boardId)</text><polygon fill="#181818" points="952.5,712.0625,962.5,716.0625,952.5,720.0625,956.5,716.0625" style="stroke:#181818;stroke-width:1.0;"/><line style="stroke:#181818;stroke-width:1.0;" x1="420.5" x2="958.5" y1="716.0625" y2="716.0625"/><text fill="#000000" font-family="sans-serif" font-size="13" font-weight="bold" lengthAdjust="spacing" textLength="14" x="427.5" y="710.7998">20</text><text fill="#000000" font-family="sans-serif" font-size="13" lengthAdjust="spacing" textLength="114" x="445.5" y="710.7998">findbyCode(boardId)</text><polygon fill="#181818" points="426.5,743.3535,416.5,747.3535,426.5,751.3535,422.5,747.3535" style="stroke:#181818;stroke-width:1.0;"/><line style="stroke:#181818;stroke-width:1.0;stroke-dasharray:2.0,2.0;" x1="420.5" x2="968.5" y1="747.3535" y2="747.3535"/><text fill="#000000" font-family="sans-serif" font-size="13" font-weight="bold" lengthAdjust="spacing" textLength="14" x="432.5" y="742.0908">21</text><text fill="#000000" font-family="sans-serif" font-size="13" lengthAdjust="spacing" textLength="32" x="450.5" y="742.0908">board</text><polygon fill="#181818" points="398.5,774.6445,408.5,778.6445,398.5,782.6445,402.5,778.6445" style="stroke:#181818;stroke-width:1.0;"/><line style="stroke:#181818;stroke-width:1.0;" x1="235.5" x2="404.5" y1="778.6445" y2="778.6445"/><text fill="#000000" font-family="sans-serif" font-size="13" font-weight="bold" lengthAdjust="spacing" textLength="14" x="242.5" y="773.3818">22</text><text fill="#000000" font-family="sans-serif" font-size="13" lengthAdjust="spacing" textLength="111" x="260.5" y="773.3818">getBoardChanges()</text><polygon fill="#181818" points="1103,805.9355,1113,809.9355,1103,813.9355,1107,809.9355" style="stroke:#181818;stroke-width:1.0;"/><line style="stroke:#181818;stroke-width:1.0;" x1="420.5" x2="1109" y1="809.9355" y2="809.9355"/><text fill="#000000" font-family="sans-serif" font-size="13" font-weight="bold" lengthAdjust="spacing" textLength="14" x="427.5" y="804.6729">23</text><text fill="#000000" font-family="sans-serif" font-size="13" lengthAdjust="spacing" textLength="110" x="445.5" y="804.6729">findByBoard(board)</text><polygon fill="#181818" points="431.5,837.2266,421.5,841.2266,431.5,845.2266,427.5,841.2266" style="stroke:#181818;stroke-width:1.0;"/><line style="stroke:#181818;stroke-width:1.0;stroke-dasharray:2.0,2.0;" x1="425.5" x2="1119" y1="841.2266" y2="841.2266"/><text fill="#000000" font-family="sans-serif" font-size="13" font-weight="bold" lengthAdjust="spacing" textLength="14" x="437.5" y="835.9639">24</text><text fill="#000000" font-family="sans-serif" font-size="13" lengthAdjust="spacing" textLength="83" x="455.5" y="835.9639">boardChanges</text><polygon fill="#181818" points="246.5,868.5176,236.5,872.5176,246.5,876.5176,242.5,872.5176" style="stroke:#181818;stroke-width:1.0;"/><line style="stroke:#181818;stroke-width:1.0;stroke-dasharray:2.0,2.0;" x1="240.5" x2="414.5" y1="872.5176" y2="872.5176"/><text fill="#000000" font-family="sans-serif" font-size="13" font-weight="bold" lengthAdjust="spacing" textLength="14" x="252.5" y="867.2549">25</text><text fill="#000000" font-family="sans-serif" font-size="13" lengthAdjust="spacing" textLength="109" x="270.5" y="867.2549">boardChangesDTO</text><polygon fill="#181818" points="38.5,899.8086,28.5,903.8086,38.5,907.8086,34.5,903.8086" style="stroke:#181818;stroke-width:1.0;"/><line style="stroke:#181818;stroke-width:1.0;stroke-dasharray:2.0,2.0;" x1="32.5" x2="229.5" y1="903.8086" y2="903.8086"/><text fill="#000000" font-family="sans-serif" font-size="13" font-weight="bold" lengthAdjust="spacing" textLength="14" x="44.5" y="898.5459">26</text><text fill="#000000" font-family="sans-serif" font-size="13" lengthAdjust="spacing" textLength="148" x="62.5" y="898.5459">shows the board changes</text><!--SRC=[XPHFZzem4CNl_XGMbz83oprQ8K7QrN9QQRFfeJUJJ8cb9AQs0wAVlZDZX_o1RP580F_UytZUX2-LzoUNhDUdMhM-Q-gdmZHh1xyxQ0jObLeThMg4K9qtRTSSm0gnBRonCdTWfN9unvzEodfTw1DwoCKF3PUTKRPCAzKUmUNx1OFxVsEfQRqrTGsMSVmwvRUThupLVvJNfit0ddK1J6xpZzUVKvQAoy0v9CFUMIPAvTL1EP3lS39EunckBugESYNYPVikdv_jRMcp6GHSvQ2In6Ux__3nL3FPBlrS1gdfh0EgVQmYsVSqlzDD3XorsTLvQCXX4MHPBl256SdL1XEGYSmywfmyO_TrUmorobYim7xei_B0gGvVzcYnHmFC9957y2noowy3Gca9lD0ss4hwkDfmCBYb2qaWBs-245guoLNl7KaXIvYHGaPtZ3AHE8uLj7Xy14ewxiIRqgRBuDiXCZ5bX8la9YK4F46ZT3rnuWRo5Qt8YP694oFiH24b6IXRL5mIiwCUqRgWI-_5LKsiyjWvdAu4-wpg-ktIGhbaT6I5wmBVqUZ0SJ0vo7_fjjmPe9LNdLNA3ZPtqh0yBeKs27dsSnF8RnzlOunZfzaW2eSC4wpCnKbC9mgaDvXg3OKVwtYYHaCP22TLK4r63u4GenncRydOlfnDO1mHUZRv_8ThQafu0CV-zGFI7s_UWVb9RwKCbSGdP_cu4dpSGn3NKTaZ5DS5_INqWteOMOvt9sv8Ou8zI8JA384aipXaSUzDMVm5]--></g></svg>