<?xml version="1.0" encoding="us-ascii" standalone="no"?><svg xmlns="http://www.w3.org/2000/svg" xmlns:xlink="http://www.w3.org/1999/xlink" contentStyleType="text/css" height="1063px" preserveAspectRatio="none" style="width:344px;height:1063px;background:#FFFFFF;" version="1.1" viewBox="0 0 344 1063" width="344px" zoomAndPan="magnify"><defs/><g><!--class Teacher--><g id="elem_Teacher"><rect codeLine="2" fill="#F1F1F1" height="95.1641" id="Teacher" rx="2.5" ry="2.5" style="stroke:#181818;stroke-width:0.5;" width="85" x="57" y="16.5"/><ellipse cx="72" cy="46.7715" fill="#ADD1B2" rx="11" ry="11" style="stroke:#181818;stroke-width:1.0;"/><path d="M74.7656,42.6465 Q74.9219,42.4277 75.1094,42.3184 Q75.2969,42.209 75.5156,42.209 Q75.8906,42.209 76.125,42.4746 Q76.3594,42.7246 76.3594,43.334 L76.3594,44.7871 Q76.3594,45.3965 76.125,45.6621 Q75.8906,45.9277 75.5156,45.9277 Q75.1719,45.9277 74.9688,45.7246 Q74.7656,45.5371 74.6563,45.0215 Q74.6094,44.6621 74.4219,44.4746 Q74.0938,44.0996 73.4844,43.8809 Q72.875,43.6621 72.25,43.6621 Q71.4844,43.6621 70.8438,43.9902 Q70.2188,44.3184 69.7188,45.0684 Q69.2344,45.8184 69.2344,46.8496 L69.2344,47.9434 Q69.2344,49.1777 70.125,50.0059 Q71.0156,50.8184 72.6094,50.8184 Q73.5469,50.8184 74.2031,50.5684 Q74.5938,50.4121 75.0156,49.9746 Q75.2813,49.709 75.4219,49.6309 Q75.5781,49.5527 75.7813,49.5527 Q76.1094,49.5527 76.3594,49.8184 Q76.625,50.0684 76.625,50.4121 Q76.625,50.7559 76.2813,51.1621 Q75.7813,51.7402 74.9844,52.0684 Q73.9063,52.5215 72.6094,52.5215 Q71.0938,52.5215 69.8906,51.8965 Q68.9063,51.3965 68.2188,50.334 Q67.5313,49.2559 67.5313,47.9746 L67.5313,46.8184 Q67.5313,45.4902 68.1406,44.3496 Q68.7656,43.1934 69.8594,42.584 Q70.9531,41.959 72.1875,41.959 Q72.9219,41.959 73.5625,42.1309 Q74.2188,42.2871 74.7656,42.6465 Z " fill="#000000"/><text fill="#000000" font-family="sans-serif" font-size="12" font-style="italic" lengthAdjust="spacing" textLength="35" x="95" y="34.4492">&#171;root&#187;</text><text fill="#000000" font-family="sans-serif" font-size="12" font-style="italic" lengthAdjust="spacing" textLength="43" x="91" y="50.4102">&#171;entity&#187;</text><text fill="#000000" font-family="sans-serif" font-size="14" lengthAdjust="spacing" textLength="53" x="86" y="68.5293">Teacher</text><line style="stroke:#181818;stroke-width:0.5;" x1="58" x2="141" y1="77.043" y2="77.043"/><ellipse cx="68" cy="91.8535" fill="#000000" rx="3" ry="3" style="stroke:#000000;stroke-width:1.0;"/><text fill="#000000" font-family="sans-serif" font-size="14" lengthAdjust="spacing" textLength="35" x="77" y="96.1504">name</text><line style="stroke:#181818;stroke-width:0.5;" x1="58" x2="141" y1="103.6641" y2="103.6641"/></g><!--class SystemUser--><g id="elem_SystemUser"><rect codeLine="6" fill="#F1F1F1" height="113.7852" id="SystemUser" rx="2.5" ry="2.5" style="stroke:#181818;stroke-width:0.5;" width="107" x="213" y="7"/><ellipse cx="228" cy="37.2715" fill="#ADD1B2" rx="11" ry="11" style="stroke:#181818;stroke-width:1.0;"/><path d="M230.7656,33.1465 Q230.9219,32.9277 231.1094,32.8184 Q231.2969,32.709 231.5156,32.709 Q231.8906,32.709 232.125,32.9746 Q232.3594,33.2246 232.3594,33.834 L232.3594,35.2871 Q232.3594,35.8965 232.125,36.1621 Q231.8906,36.4277 231.5156,36.4277 Q231.1719,36.4277 230.9688,36.2246 Q230.7656,36.0371 230.6563,35.5215 Q230.6094,35.1621 230.4219,34.9746 Q230.0938,34.5996 229.4844,34.3809 Q228.875,34.1621 228.25,34.1621 Q227.4844,34.1621 226.8438,34.4902 Q226.2188,34.8184 225.7188,35.5684 Q225.2344,36.3184 225.2344,37.3496 L225.2344,38.4434 Q225.2344,39.6777 226.125,40.5059 Q227.0156,41.3184 228.6094,41.3184 Q229.5469,41.3184 230.2031,41.0684 Q230.5938,40.9121 231.0156,40.4746 Q231.2813,40.209 231.4219,40.1309 Q231.5781,40.0527 231.7813,40.0527 Q232.1094,40.0527 232.3594,40.3184 Q232.625,40.5684 232.625,40.9121 Q232.625,41.2559 232.2813,41.6621 Q231.7813,42.2402 230.9844,42.5684 Q229.9063,43.0215 228.6094,43.0215 Q227.0938,43.0215 225.8906,42.3965 Q224.9063,41.8965 224.2188,40.834 Q223.5313,39.7559 223.5313,38.4746 L223.5313,37.3184 Q223.5313,35.9902 224.1406,34.8496 Q224.7656,33.6934 225.8594,33.084 Q226.9531,32.459 228.1875,32.459 Q228.9219,32.459 229.5625,32.6309 Q230.2188,32.7871 230.7656,33.1465 Z " fill="#000000"/><text fill="#000000" font-family="sans-serif" font-size="12" font-style="italic" lengthAdjust="spacing" textLength="35" x="262" y="24.9492">&#171;root&#187;</text><text fill="#000000" font-family="sans-serif" font-size="12" font-style="italic" lengthAdjust="spacing" textLength="44" x="257.5" y="40.9102">&#171;Entity&#187;</text><text fill="#000000" font-family="sans-serif" font-size="14" lengthAdjust="spacing" textLength="75" x="242" y="59.0293">SystemUser</text><line style="stroke:#181818;stroke-width:0.5;" x1="214" x2="319" y1="67.543" y2="67.543"/><ellipse cx="224" cy="82.3535" fill="#000000" rx="3" ry="3" style="stroke:#000000;stroke-width:1.0;"/><text fill="#000000" font-family="sans-serif" font-size="14" lengthAdjust="spacing" textLength="59" x="233" y="86.6504">FullName</text><ellipse cx="224" cy="100.9746" fill="#000000" rx="3" ry="3" style="stroke:#000000;stroke-width:1.0;"/><text fill="#000000" font-family="sans-serif" font-size="14" lengthAdjust="spacing" textLength="70" x="233" y="105.2715">ShortName</text><line style="stroke:#181818;stroke-width:0.5;" x1="214" x2="319" y1="112.7852" y2="112.7852"/></g><!--class ScheduleClassUI--><g id="elem_ScheduleClassUI"><rect codeLine="11" fill="#F1F1F1" height="85.2422" id="ScheduleClassUI" rx="2.5" ry="2.5" style="stroke:#181818;stroke-width:0.5;" width="170" x="41.5" y="200"/><ellipse cx="70.9" cy="216" fill="#ADD1B2" rx="11" ry="11" style="stroke:#181818;stroke-width:1.0;"/><path d="M73.6656,211.875 Q73.8219,211.6563 74.0094,211.5469 Q74.1969,211.4375 74.4156,211.4375 Q74.7906,211.4375 75.025,211.7031 Q75.2594,211.9531 75.2594,212.5625 L75.2594,214.0156 Q75.2594,214.625 75.025,214.8906 Q74.7906,215.1563 74.4156,215.1563 Q74.0719,215.1563 73.8688,214.9531 Q73.6656,214.7656 73.5563,214.25 Q73.5094,213.8906 73.3219,213.7031 Q72.9938,213.3281 72.3844,213.1094 Q71.775,212.8906 71.15,212.8906 Q70.3844,212.8906 69.7438,213.2188 Q69.1188,213.5469 68.6188,214.2969 Q68.1344,215.0469 68.1344,216.0781 L68.1344,217.1719 Q68.1344,218.4063 69.025,219.2344 Q69.9156,220.0469 71.5094,220.0469 Q72.4469,220.0469 73.1031,219.7969 Q73.4938,219.6406 73.9156,219.2031 Q74.1813,218.9375 74.3219,218.8594 Q74.4781,218.7813 74.6813,218.7813 Q75.0094,218.7813 75.2594,219.0469 Q75.525,219.2969 75.525,219.6406 Q75.525,219.9844 75.1813,220.3906 Q74.6813,220.9688 73.8844,221.2969 Q72.8063,221.75 71.5094,221.75 Q69.9938,221.75 68.7906,221.125 Q67.8063,220.625 67.1188,219.5625 Q66.4313,218.4844 66.4313,217.2031 L66.4313,216.0469 Q66.4313,214.7188 67.0406,213.5781 Q67.6656,212.4219 68.7594,211.8125 Q69.8531,211.1875 71.0875,211.1875 Q71.8219,211.1875 72.4625,211.3594 Q73.1188,211.5156 73.6656,211.875 Z " fill="#000000"/><text fill="#000000" font-family="sans-serif" font-size="14" lengthAdjust="spacing" textLength="106" x="88.1" y="221.7969">ScheduleClassUI</text><line style="stroke:#181818;stroke-width:0.5;" x1="42.5" x2="210.5" y1="232" y2="232"/><line style="stroke:#181818;stroke-width:0.5;" x1="42.5" x2="210.5" y1="240" y2="240"/><ellipse cx="52.5" cy="254.8105" fill="#84BE84" rx="3" ry="3" style="stroke:#038048;stroke-width:1.0;"/><text fill="#000000" font-family="sans-serif" font-size="14" lengthAdjust="spacing" textLength="144" x="61.5" y="259.1074">createClassSchedule()</text><ellipse cx="52.5" cy="273.4316" fill="#84BE84" rx="3" ry="3" style="stroke:#038048;stroke-width:1.0;"/><text fill="#000000" font-family="sans-serif" font-size="14" lengthAdjust="spacing" textLength="54" x="61.5" y="277.7285">display()</text></g><!--class ScheduleClassController--><g id="elem_ScheduleClassController"><rect codeLine="16" fill="#F1F1F1" height="66.6211" id="ScheduleClassController" rx="2.5" ry="2.5" style="stroke:#181818;stroke-width:0.5;" width="188" x="25.5" y="346"/><ellipse cx="40.5" cy="362" fill="#ADD1B2" rx="11" ry="11" style="stroke:#181818;stroke-width:1.0;"/><path d="M43.2656,357.875 Q43.4219,357.6563 43.6094,357.5469 Q43.7969,357.4375 44.0156,357.4375 Q44.3906,357.4375 44.625,357.7031 Q44.8594,357.9531 44.8594,358.5625 L44.8594,360.0156 Q44.8594,360.625 44.625,360.8906 Q44.3906,361.1563 44.0156,361.1563 Q43.6719,361.1563 43.4688,360.9531 Q43.2656,360.7656 43.1563,360.25 Q43.1094,359.8906 42.9219,359.7031 Q42.5938,359.3281 41.9844,359.1094 Q41.375,358.8906 40.75,358.8906 Q39.9844,358.8906 39.3438,359.2188 Q38.7188,359.5469 38.2188,360.2969 Q37.7344,361.0469 37.7344,362.0781 L37.7344,363.1719 Q37.7344,364.4063 38.625,365.2344 Q39.5156,366.0469 41.1094,366.0469 Q42.0469,366.0469 42.7031,365.7969 Q43.0938,365.6406 43.5156,365.2031 Q43.7813,364.9375 43.9219,364.8594 Q44.0781,364.7813 44.2813,364.7813 Q44.6094,364.7813 44.8594,365.0469 Q45.125,365.2969 45.125,365.6406 Q45.125,365.9844 44.7813,366.3906 Q44.2813,366.9688 43.4844,367.2969 Q42.4063,367.75 41.1094,367.75 Q39.5938,367.75 38.3906,367.125 Q37.4063,366.625 36.7188,365.5625 Q36.0313,364.4844 36.0313,363.2031 L36.0313,362.0469 Q36.0313,360.7188 36.6406,359.5781 Q37.2656,358.4219 38.3594,357.8125 Q39.4531,357.1875 40.6875,357.1875 Q41.4219,357.1875 42.0625,357.3594 Q42.7188,357.5156 43.2656,357.875 Z " fill="#000000"/><text fill="#000000" font-family="sans-serif" font-size="14" lengthAdjust="spacing" textLength="156" x="54.5" y="367.7969">ScheduleClassController</text><line style="stroke:#181818;stroke-width:0.5;" x1="26.5" x2="212.5" y1="378" y2="378"/><line style="stroke:#181818;stroke-width:0.5;" x1="26.5" x2="212.5" y1="386" y2="386"/><ellipse cx="36.5" cy="400.8105" fill="#84BE84" rx="3" ry="3" style="stroke:#038048;stroke-width:1.0;"/><text fill="#000000" font-family="sans-serif" font-size="14" lengthAdjust="spacing" textLength="144" x="45.5" y="405.1074">createClassSchedule()</text></g><!--class ScheduleClassService--><g id="elem_ScheduleClassService"><rect codeLine="20" fill="#F1F1F1" height="103.8633" id="ScheduleClassService" rx="2.5" ry="2.5" style="stroke:#181818;stroke-width:0.5;" width="277" x="7" y="474"/><ellipse cx="70.75" cy="490" fill="#ADD1B2" rx="11" ry="11" style="stroke:#181818;stroke-width:1.0;"/><path d="M73.5156,485.875 Q73.6719,485.6563 73.8594,485.5469 Q74.0469,485.4375 74.2656,485.4375 Q74.6406,485.4375 74.875,485.7031 Q75.1094,485.9531 75.1094,486.5625 L75.1094,488.0156 Q75.1094,488.625 74.875,488.8906 Q74.6406,489.1563 74.2656,489.1563 Q73.9219,489.1563 73.7188,488.9531 Q73.5156,488.7656 73.4063,488.25 Q73.3594,487.8906 73.1719,487.7031 Q72.8438,487.3281 72.2344,487.1094 Q71.625,486.8906 71,486.8906 Q70.2344,486.8906 69.5938,487.2188 Q68.9688,487.5469 68.4688,488.2969 Q67.9844,489.0469 67.9844,490.0781 L67.9844,491.1719 Q67.9844,492.4063 68.875,493.2344 Q69.7656,494.0469 71.3594,494.0469 Q72.2969,494.0469 72.9531,493.7969 Q73.3438,493.6406 73.7656,493.2031 Q74.0313,492.9375 74.1719,492.8594 Q74.3281,492.7813 74.5313,492.7813 Q74.8594,492.7813 75.1094,493.0469 Q75.375,493.2969 75.375,493.6406 Q75.375,493.9844 75.0313,494.3906 Q74.5313,494.9688 73.7344,495.2969 Q72.6563,495.75 71.3594,495.75 Q69.8438,495.75 68.6406,495.125 Q67.6563,494.625 66.9688,493.5625 Q66.2813,492.4844 66.2813,491.2031 L66.2813,490.0469 Q66.2813,488.7188 66.8906,487.5781 Q67.5156,486.4219 68.6094,485.8125 Q69.7031,485.1875 70.9375,485.1875 Q71.6719,485.1875 72.3125,485.3594 Q72.9688,485.5156 73.5156,485.875 Z " fill="#000000"/><text fill="#000000" font-family="sans-serif" font-size="14" lengthAdjust="spacing" textLength="141" x="91.25" y="495.7969">ScheduleClassService</text><line style="stroke:#181818;stroke-width:0.5;" x1="8" x2="283" y1="506" y2="506"/><line style="stroke:#181818;stroke-width:0.5;" x1="8" x2="283" y1="514" y2="514"/><ellipse cx="18" cy="528.8105" fill="#84BE84" rx="3" ry="3" style="stroke:#038048;stroke-width:1.0;"/><text fill="#000000" font-family="sans-serif" font-size="14" lengthAdjust="spacing" textLength="251" x="27" y="533.1074">checkCoincidentialClasses(List&lt;Class&gt;)</text><ellipse cx="18" cy="547.4316" fill="#84BE84" rx="3" ry="3" style="stroke:#038048;stroke-width:1.0;"/><text fill="#000000" font-family="sans-serif" font-size="14" lengthAdjust="spacing" textLength="247" x="27" y="551.7285">checkOverlappingClasses(List&lt;Class&gt;)</text><ellipse cx="18" cy="566.0527" fill="#84BE84" rx="3" ry="3" style="stroke:#038048;stroke-width:1.0;"/><text fill="#000000" font-family="sans-serif" font-size="14" lengthAdjust="spacing" textLength="219" x="27" y="570.3496">checkTeacherAvailability(Teacher)</text></g><!--class ClassRepository--><g id="elem_ClassRepository"><rect codeLine="26" fill="#F1F1F1" height="85.2422" id="ClassRepository" rx="2.5" ry="2.5" style="stroke:#181818;stroke-width:0.5;" width="188" x="85.5" y="639"/><ellipse cx="124.35" cy="655" fill="#B4A7E5" rx="11" ry="11" style="stroke:#181818;stroke-width:1.0;"/><path d="M125.3031,651.6406 L125.3031,658.2969 L127.0219,658.2969 Q127.6313,658.2969 127.8969,658.5313 Q128.1625,658.7656 128.1625,659.1563 Q128.1625,659.5313 127.8969,659.7656 Q127.6313,660 127.0219,660 L121.8813,660 Q121.2719,660 121.0063,659.7656 Q120.7406,659.5313 120.7406,659.1406 Q120.7406,658.7656 121.0063,658.5313 Q121.2719,658.2969 121.8813,658.2969 L123.6,658.2969 L123.6,651.6406 L121.8813,651.6406 Q121.2719,651.6406 121.0063,651.4063 Q120.7406,651.1719 120.7406,650.7813 Q120.7406,650.4063 121.0063,650.1719 Q121.2719,649.9375 121.8813,649.9375 L127.0219,649.9375 Q127.6313,649.9375 127.8969,650.1719 Q128.1625,650.4063 128.1625,650.7813 Q128.1625,651.1719 127.8969,651.4063 Q127.6313,651.6406 127.0219,651.6406 L125.3031,651.6406 Z " fill="#000000"/><text fill="#000000" font-family="sans-serif" font-size="14" font-style="italic" lengthAdjust="spacing" textLength="103" x="143.65" y="660.7969">ClassRepository</text><line style="stroke:#181818;stroke-width:0.5;" x1="86.5" x2="272.5" y1="671" y2="671"/><line style="stroke:#181818;stroke-width:0.5;" x1="86.5" x2="272.5" y1="679" y2="679"/><ellipse cx="96.5" cy="693.8105" fill="#84BE84" rx="3" ry="3" style="stroke:#038048;stroke-width:1.0;"/><text fill="#000000" font-family="sans-serif" font-size="14" lengthAdjust="spacing" textLength="75" x="105.5" y="698.1074">save(Class)</text><ellipse cx="96.5" cy="712.4316" fill="#84BE84" rx="3" ry="3" style="stroke:#038048;stroke-width:1.0;"/><text fill="#000000" font-family="sans-serif" font-size="14" lengthAdjust="spacing" textLength="162" x="105.5" y="716.7285">getAllScheduledClasses()</text></g><!--class Class--><g id="elem_Class"><rect codeLine="31" fill="#F1F1F1" height="113.7852" id="Class" rx="2.5" ry="2.5" style="stroke:#181818;stroke-width:0.5;" width="111" x="209" y="803"/><ellipse cx="242" cy="833.2715" fill="#ADD1B2" rx="11" ry="11" style="stroke:#181818;stroke-width:1.0;"/><path d="M244.7656,829.1465 Q244.9219,828.9277 245.1094,828.8184 Q245.2969,828.709 245.5156,828.709 Q245.8906,828.709 246.125,828.9746 Q246.3594,829.2246 246.3594,829.834 L246.3594,831.2871 Q246.3594,831.8965 246.125,832.1621 Q245.8906,832.4277 245.5156,832.4277 Q245.1719,832.4277 244.9688,832.2246 Q244.7656,832.0371 244.6563,831.5215 Q244.6094,831.1621 244.4219,830.9746 Q244.0938,830.5996 243.4844,830.3809 Q242.875,830.1621 242.25,830.1621 Q241.4844,830.1621 240.8438,830.4902 Q240.2188,830.8184 239.7188,831.5684 Q239.2344,832.3184 239.2344,833.3496 L239.2344,834.4434 Q239.2344,835.6777 240.125,836.5059 Q241.0156,837.3184 242.6094,837.3184 Q243.5469,837.3184 244.2031,837.0684 Q244.5938,836.9121 245.0156,836.4746 Q245.2813,836.209 245.4219,836.1309 Q245.5781,836.0527 245.7813,836.0527 Q246.1094,836.0527 246.3594,836.3184 Q246.625,836.5684 246.625,836.9121 Q246.625,837.2559 246.2813,837.6621 Q245.7813,838.2402 244.9844,838.5684 Q243.9063,839.0215 242.6094,839.0215 Q241.0938,839.0215 239.8906,838.3965 Q238.9063,837.8965 238.2188,836.834 Q237.5313,835.7559 237.5313,834.4746 L237.5313,833.3184 Q237.5313,831.9902 238.1406,830.8496 Q238.7656,829.6934 239.8594,829.084 Q240.9531,828.459 242.1875,828.459 Q242.9219,828.459 243.5625,828.6309 Q244.2188,828.7871 244.7656,829.1465 Z " fill="#000000"/><text fill="#000000" font-family="sans-serif" font-size="12" font-style="italic" lengthAdjust="spacing" textLength="35" x="262" y="820.9492">&#171;root&#187;</text><text fill="#000000" font-family="sans-serif" font-size="12" font-style="italic" lengthAdjust="spacing" textLength="43" x="258" y="836.9102">&#171;entity&#187;</text><text fill="#000000" font-family="sans-serif" font-size="14" lengthAdjust="spacing" textLength="35" x="262" y="855.0293">Class</text><line style="stroke:#181818;stroke-width:0.5;" x1="210" x2="319" y1="863.543" y2="863.543"/><ellipse cx="220" cy="878.3535" fill="#000000" rx="3" ry="3" style="stroke:#000000;stroke-width:1.0;"/><text fill="#000000" font-family="sans-serif" font-size="14" lengthAdjust="spacing" textLength="85" x="229" y="882.6504">title &#171;unique&#187;</text><ellipse cx="220" cy="896.9746" fill="#000000" rx="3" ry="3" style="stroke:#000000;stroke-width:1.0;"/><text fill="#000000" font-family="sans-serif" font-size="14" lengthAdjust="spacing" textLength="28" x="229" y="901.2715">date</text><line style="stroke:#181818;stroke-width:0.5;" x1="210" x2="319" y1="908.7852" y2="908.7852"/></g><!--class Duration--><g id="elem_Duration"><rect codeLine="36" fill="#F1F1F1" height="60.582" id="Duration" rx="2.5" ry="2.5" style="stroke:#181818;stroke-width:0.5;" width="109" x="210" y="996"/><ellipse cx="225" cy="1018.291" fill="#ADD1B2" rx="11" ry="11" style="stroke:#181818;stroke-width:1.0;"/><path d="M227.7656,1014.166 Q227.9219,1013.9473 228.1094,1013.8379 Q228.2969,1013.7285 228.5156,1013.7285 Q228.8906,1013.7285 229.125,1013.9941 Q229.3594,1014.2441 229.3594,1014.8535 L229.3594,1016.3066 Q229.3594,1016.916 229.125,1017.1816 Q228.8906,1017.4473 228.5156,1017.4473 Q228.1719,1017.4473 227.9688,1017.2441 Q227.7656,1017.0566 227.6563,1016.541 Q227.6094,1016.1816 227.4219,1015.9941 Q227.0938,1015.6191 226.4844,1015.4004 Q225.875,1015.1816 225.25,1015.1816 Q224.4844,1015.1816 223.8438,1015.5098 Q223.2188,1015.8379 222.7188,1016.5879 Q222.2344,1017.3379 222.2344,1018.3691 L222.2344,1019.4629 Q222.2344,1020.6973 223.125,1021.5254 Q224.0156,1022.3379 225.6094,1022.3379 Q226.5469,1022.3379 227.2031,1022.0879 Q227.5938,1021.9316 228.0156,1021.4941 Q228.2813,1021.2285 228.4219,1021.1504 Q228.5781,1021.0723 228.7813,1021.0723 Q229.1094,1021.0723 229.3594,1021.3379 Q229.625,1021.5879 229.625,1021.9316 Q229.625,1022.2754 229.2813,1022.6816 Q228.7813,1023.2598 227.9844,1023.5879 Q226.9063,1024.041 225.6094,1024.041 Q224.0938,1024.041 222.8906,1023.416 Q221.9063,1022.916 221.2188,1021.8535 Q220.5313,1020.7754 220.5313,1019.4941 L220.5313,1018.3379 Q220.5313,1017.0098 221.1406,1015.8691 Q221.7656,1014.7129 222.8594,1014.1035 Q223.9531,1013.4785 225.1875,1013.4785 Q225.9219,1013.4785 226.5625,1013.6504 Q227.2188,1013.8066 227.7656,1014.166 Z " fill="#000000"/><text fill="#000000" font-family="sans-serif" font-size="12" font-style="italic" lengthAdjust="spacing" textLength="81" x="237" y="1013.9492">&#171;value object&#187;</text><text fill="#000000" font-family="sans-serif" font-size="14" lengthAdjust="spacing" textLength="54" x="250.5" y="1032.0684">Duration</text><line style="stroke:#181818;stroke-width:0.5;" x1="211" x2="318" y1="1040.582" y2="1040.582"/><line style="stroke:#181818;stroke-width:0.5;" x1="211" x2="318" y1="1048.582" y2="1048.582"/></g><!--link Teacher to SystemUser--><g id="link_Teacher_SystemUser"><path codeLine="39" d="M142.07,64 C163.62,64 190.01,64 212.92,64 " fill="none" id="Teacher-SystemUser" style="stroke:#181818;stroke-width:1.0;"/><polygon fill="#000000" points="169.5,51.6455,160.4549,48.7066,160.4549,54.5844,169.5,51.6455" style="stroke:#000000;stroke-width:1.0;"/><text fill="#000000" font-family="sans-serif" font-size="13" lengthAdjust="spacing" textLength="21" x="173.5" y="57.0283">is a</text><text fill="#000000" font-family="sans-serif" font-size="13" lengthAdjust="spacing" textLength="5" x="150.0981" y="59.5256">*</text><text fill="#000000" font-family="sans-serif" font-size="13" lengthAdjust="spacing" textLength="7" x="197.8931" y="59.8686">1</text></g><!--link SystemUser to ScheduleClassService--><g id="link_SystemUser_ScheduleClassService"><path codeLine="40" d="M269.8,121.12 C271.94,191.78 268.93,315.69 230.5,413 C221.89,434.8 207.79,455.99 193.52,473.98 " fill="none" id="SystemUser-ScheduleClassService" style="stroke:#181818;stroke-width:1.0;"/><text fill="#000000" font-family="sans-serif" font-size="13" lengthAdjust="spacing" textLength="7" x="262.7769" y="142.7649">1</text><text fill="#000000" font-family="sans-serif" font-size="13" lengthAdjust="spacing" textLength="7" x="192.5024" y="462.9047">1</text></g><!--link SystemUser to Class--><g id="link_SystemUser_Class"><path codeLine="41" d="M301.79,121.15 C319.61,154.75 337.5,199.06 337.5,241.5 C337.5,241.5 337.5,241.5 337.5,682.5 C337.5,725.11 319.11,769.41 300.79,802.98 " fill="none" id="SystemUser-Class" style="stroke:#181818;stroke-width:1.0;"/></g><!--link SystemUser to ScheduleClassUI--><g id="link_SystemUser_ScheduleClassUI"><path codeLine="43" d="M213.36,121.42 C204.82,131.09 196.25,141.19 188.5,151 C176.34,166.39 163.93,184.05 153.44,199.66 " fill="none" id="SystemUser-ScheduleClassUI" style="stroke:#181818;stroke-width:1.0;stroke-dasharray:7.0,7.0;"/><text fill="#000000" font-family="sans-serif" font-size="13" lengthAdjust="spacing" textLength="50" x="189.5" y="166.0283">interacts</text></g><!--link ScheduleClassUI to ScheduleClassController--><g id="link_ScheduleClassUI_ScheduleClassController"><path codeLine="44" d="M124.34,285.11 C123.33,304.63 122.14,327.56 121.19,345.81 " fill="none" id="ScheduleClassUI-ScheduleClassController" style="stroke:#181818;stroke-width:1.0;"/></g><!--link ScheduleClassController to ScheduleClassService--><g id="link_ScheduleClassController_ScheduleClassService"><path codeLine="45" d="M125.4,413.29 C128.62,431.19 132.68,453.76 136.31,473.91 " fill="none" id="ScheduleClassController-ScheduleClassService" style="stroke:#181818;stroke-width:1.0;"/></g><!--link ScheduleClassService to ClassRepository--><g id="link_ScheduleClassService_ClassRepository"><path codeLine="46" d="M156.82,578.11 C161.19,597.82 166.12,620.08 170.26,638.8 " fill="none" id="ScheduleClassService-ClassRepository" style="stroke:#181818;stroke-width:1.0;"/></g><!--link ClassRepository to Class--><g id="link_ClassRepository_Class"><path codeLine="47" d="M199.64,724.33 C210.94,747.77 225.17,777.33 237.42,802.78 " fill="none" id="ClassRepository-Class" style="stroke:#181818;stroke-width:1.0;"/><text fill="#000000" font-family="sans-serif" font-size="13" lengthAdjust="spacing" textLength="25" x="223.5" y="769.0283">repo</text></g><!--link Class to Duration--><g id="link_Class_Duration"><path codeLine="48" d="M264.5,917.15 C264.5,943.58 264.5,974.03 264.5,995.9 " fill="none" id="Class-Duration" style="stroke:#181818;stroke-width:1.0;"/><text fill="#000000" font-family="sans-serif" font-size="13" lengthAdjust="spacing" textLength="21" x="265.5" y="962.0283">has</text></g><!--SRC=[XLB1Ri8m3BtdAwAU2XD8kwAg4cARD6bYqXWVO583sKBI9McbQjg_pqrBAL2sNXe_l_Vis14AdEFl26AFbYU9DSQdAHrGU-ahEdwpCTTmGFR3c0ZiLUKy7jRkNF1u4d3wnlofK6fP2vjmjJVMBy-Dg6XMA5pKqVgv4Tu9Y-0Rx4Y8HqqgaovNK54uxB4msbkZ5De_lOR5AxIb5DWgEQN4vy98BMHM3mDKOA6BNwJpIGZIKP_yMg9LaETIx_wZjWEVbo0LRAIYoSKj5jgJsgFTWa0Un6-O6oUziLNRdOCIuv1gRNVevqeTxvCTw_Vk6g0R6susHA52IXHQVXMOfYsSqGHFDW-51I-D9bu9ga1kDXyeo94nrdiOqNt49mgtViAZSTGzi1cNZWDFhgYJy1lQHvzAj90wApMTNZwakamzG13UiSiSUTnuC-m6VYNfEXi0knvFEsCNSKUXFYsXJRv6k-7E-1uS-mK0]--></g></svg>