<?xml version="1.0" encoding="us-ascii" standalone="no"?><svg xmlns="http://www.w3.org/2000/svg" xmlns:xlink="http://www.w3.org/1999/xlink" contentStyleType="text/css" height="967.2px" preserveAspectRatio="none" style="width:862px;height:967px;background:#FFFFFF;" version="1.1" viewBox="0 0 862 967" width="862.8px" zoomAndPan="magnify"><defs/><g><rect fill="#FFFFFF" height="843.3375" style="stroke:#181818;stroke-width:0.6;" width="6" x="32.7" y="58.9453"/><rect fill="#FFFFFF" height="823.9629" style="stroke:#181818;stroke-width:0.6;" width="6" x="291.3" y="72.9199"/><rect fill="#FFFFFF" height="18" style="stroke:#181818;stroke-width:0.6;" width="6" x="396.3" y="129.2438"/><rect fill="#FFFFFF" height="712.0898" style="stroke:#181818;stroke-width:0.6;" width="6" x="396.3" y="166.0184"/><rect fill="#FFFFFF" height="18.7746" style="stroke:#181818;stroke-width:0.6;" width="6" x="496.2" y="184.793"/><rect fill="#FFFFFF" height="18.7746" style="stroke:#181818;stroke-width:0.6;" width="6" x="573" y="222.3422"/><rect fill="#FFFFFF" height="18" style="stroke:#181818;stroke-width:0.6;" width="6" x="653.4" y="259.8914"/><rect fill="#FFFFFF" height="562.6676" style="stroke:#181818;stroke-width:0.6;" width="6" x="653.4" y="296.666"/><rect fill="#FFFFFF" height="18.7746" style="stroke:#181818;stroke-width:0.6;" width="6" x="808.2" y="315.4406"/><rect fill="#FFFFFF" height="45.3492" style="stroke:#181818;stroke-width:0.6;" width="6" x="808.2" y="795.2098"/><rect fill="none" height="142.9969" style="stroke:#000000;stroke-width:0.8999999999999999;" width="696.9" x="12" y="369.7898"/><rect fill="none" height="229.2738" style="stroke:#000000;stroke-width:0.8999999999999999;" width="708.9" x="6" y="547.7613"/><rect fill="none" height="134.2008" style="stroke:#000000;stroke-width:0.8999999999999999;" width="696.9" x="12" y="638.6344"/><line style="stroke:#181818;stroke-width:0.3;stroke-dasharray:5.0,5.0;" x1="35.4" x2="35.4" y1="52.9453" y2="907.6828"/><line style="stroke:#181818;stroke-width:0.3;stroke-dasharray:5.0,5.0;" x1="294.3" x2="294.3" y1="52.9453" y2="907.6828"/><line style="stroke:#181818;stroke-width:0.3;stroke-dasharray:5.0,5.0;" x1="399.3" x2="399.3" y1="52.9453" y2="907.6828"/><line style="stroke:#181818;stroke-width:0.3;stroke-dasharray:5.0,5.0;" x1="498.9" x2="498.9" y1="52.9453" y2="907.6828"/><line style="stroke:#181818;stroke-width:0.3;stroke-dasharray:5.0,5.0;" x1="575.7" x2="575.7" y1="52.9453" y2="907.6828"/><line style="stroke:#181818;stroke-width:0.3;stroke-dasharray:5.0,5.0;" x1="656.1" x2="656.1" y1="52.9453" y2="907.6828"/><line style="stroke:#181818;stroke-width:0.3;stroke-dasharray:5.0,5.0;" x1="810.9" x2="810.9" y1="52.9453" y2="907.6828"/><text fill="#000000" font-family="sans-serif" font-size="8.4" lengthAdjust="spacing" textLength="31.8" x="18" y="50.8371">Teacher</text><ellipse cx="35.7" cy="10.8727" fill="#E3E3E3" rx="4.8" ry="4.8" style="stroke:#181818;stroke-width:0.3;"/><path d="M35.7,15.6727 L35.7,31.8727 M27.9,20.4727 L43.5,20.4727 M35.7,31.8727 L27.9,40.8727 M35.7,31.8727 L43.5,40.8727 " fill="none" style="stroke:#181818;stroke-width:0.3;"/><text fill="#000000" font-family="sans-serif" font-size="8.4" lengthAdjust="spacing" textLength="31.8" x="18" y="916.1473">Teacher</text><ellipse cx="35.7" cy="923.3555" fill="#E3E3E3" rx="4.8" ry="4.8" style="stroke:#181818;stroke-width:0.3;"/><path d="M35.7,928.1555 L35.7,944.3555 M27.9,932.9555 L43.5,932.9555 M35.7,944.3555 L27.9,953.3555 M35.7,944.3555 L43.5,953.3555 " fill="none" style="stroke:#181818;stroke-width:0.3;"/><rect fill="#E3E3E3" height="30.7453" rx="1.5" ry="1.5" style="stroke:#181818;stroke-width:0.3;" width="72" x="258.3" y="21.6"/><text fill="#000000" font-family="sans-serif" font-size="8.4" font-style="italic" lengthAdjust="spacing" textLength="57" x="265.8" y="34.8645">&#171;presentation&#187;</text><text fill="#000000" font-family="sans-serif" font-size="8.4" lengthAdjust="spacing" textLength="63.6" x="262.5" y="46.0371">ScheduleClassUI</text><rect fill="#E3E3E3" height="30.7453" rx="1.5" ry="1.5" style="stroke:#181818;stroke-width:0.3;" width="72" x="258.3" y="907.0828"/><text fill="#000000" font-family="sans-serif" font-size="8.4" font-style="italic" lengthAdjust="spacing" textLength="57" x="265.8" y="920.3473">&#171;presentation&#187;</text><text fill="#000000" font-family="sans-serif" font-size="8.4" lengthAdjust="spacing" textLength="63.6" x="262.5" y="931.5199">ScheduleClassUI</text><rect fill="#E3E3E3" height="30.7453" rx="1.5" ry="1.5" style="stroke:#181818;stroke-width:0.3;" width="102" x="348.3" y="21.6"/><text fill="#000000" font-family="sans-serif" font-size="8.4" font-style="italic" lengthAdjust="spacing" textLength="50.4" x="374.1" y="34.8645">&#171;application&#187;</text><text fill="#000000" font-family="sans-serif" font-size="8.4" lengthAdjust="spacing" textLength="93.6" x="352.5" y="46.0371">ScheduleClassController</text><rect fill="#E3E3E3" height="30.7453" rx="1.5" ry="1.5" style="stroke:#181818;stroke-width:0.3;" width="102" x="348.3" y="907.0828"/><text fill="#000000" font-family="sans-serif" font-size="8.4" font-style="italic" lengthAdjust="spacing" textLength="50.4" x="374.1" y="920.3473">&#171;application&#187;</text><text fill="#000000" font-family="sans-serif" font-size="8.4" lengthAdjust="spacing" textLength="93.6" x="352.5" y="931.5199">ScheduleClassController</text><rect fill="#E3E3E3" height="19.5727" rx="1.5" ry="1.5" style="stroke:#181818;stroke-width:0.3;" width="85.8" x="456.3" y="32.7727"/><text fill="#000000" font-family="sans-serif" font-size="8.4" lengthAdjust="spacing" textLength="77.4" x="460.5" y="46.0371">AuthorizationService</text><rect fill="#E3E3E3" height="19.5727" rx="1.5" ry="1.5" style="stroke:#181818;stroke-width:0.3;" width="85.8" x="456.3" y="907.0828"/><text fill="#000000" font-family="sans-serif" font-size="8.4" lengthAdjust="spacing" textLength="77.4" x="460.5" y="920.3473">AuthorizationService</text><rect fill="#E3E3E3" height="19.5727" rx="1.5" ry="1.5" style="stroke:#181818;stroke-width:0.3;" width="55.8" x="548.1" y="32.7727"/><text fill="#000000" font-family="sans-serif" font-size="8.4" lengthAdjust="spacing" textLength="47.4" x="552.3" y="46.0371">UserSession</text><rect fill="#E3E3E3" height="19.5727" rx="1.5" ry="1.5" style="stroke:#181818;stroke-width:0.3;" width="55.8" x="548.1" y="907.0828"/><text fill="#000000" font-family="sans-serif" font-size="8.4" lengthAdjust="spacing" textLength="47.4" x="552.3" y="920.3473">UserSession</text><rect fill="#E3E3E3" height="30.7453" rx="1.5" ry="1.5" style="stroke:#181818;stroke-width:0.3;" width="93" x="609.9" y="21.6"/><text fill="#000000" font-family="sans-serif" font-size="8.4" font-style="italic" lengthAdjust="spacing" textLength="36" x="638.4" y="34.8645">&#171;service&#187;</text><text fill="#000000" font-family="sans-serif" font-size="8.4" lengthAdjust="spacing" textLength="84.6" x="614.1" y="46.0371">ScheduleClassService</text><rect fill="#E3E3E3" height="30.7453" rx="1.5" ry="1.5" style="stroke:#181818;stroke-width:0.3;" width="93" x="609.9" y="907.0828"/><text fill="#000000" font-family="sans-serif" font-size="8.4" font-style="italic" lengthAdjust="spacing" textLength="36" x="638.4" y="920.3473">&#171;service&#187;</text><text fill="#000000" font-family="sans-serif" font-size="8.4" lengthAdjust="spacing" textLength="84.6" x="614.1" y="931.5199">ScheduleClassService</text><text fill="#000000" font-family="sans-serif" font-size="8.4" font-style="italic" lengthAdjust="spacing" textLength="47.4" x="785.7" y="39.6645">&#171;repository&#187;</text><text fill="#000000" font-family="sans-serif" font-size="8.4" lengthAdjust="spacing" textLength="61.8" x="778.5" y="50.8371">ClassRepository</text><path d="M800.4,9 C800.4,3 811.2,3 811.2,3 C811.2,3 822,3 822,9 L822,24.6 C822,30.6 811.2,30.6 811.2,30.6 C811.2,30.6 800.4,30.6 800.4,24.6 L800.4,9 " fill="#E3E3E3" style="stroke:#181818;stroke-width:0.8999999999999999;"/><path d="M800.4,9 C800.4,15 811.2,15 811.2,15 C811.2,15 822,15 822,9 " fill="none" style="stroke:#181818;stroke-width:0.8999999999999999;"/><text fill="#000000" font-family="sans-serif" font-size="8.4" font-style="italic" lengthAdjust="spacing" textLength="47.4" x="785.7" y="916.1473">&#171;repository&#187;</text><text fill="#000000" font-family="sans-serif" font-size="8.4" lengthAdjust="spacing" textLength="61.8" x="778.5" y="927.3199">ClassRepository</text><path d="M800.4,935.4281 C800.4,929.4281 811.2,929.4281 811.2,929.4281 C811.2,929.4281 822,929.4281 822,935.4281 L822,951.0281 C822,957.0281 811.2,957.0281 811.2,957.0281 C811.2,957.0281 800.4,957.0281 800.4,951.0281 L800.4,935.4281 " fill="#E3E3E3" style="stroke:#181818;stroke-width:0.8999999999999999;"/><path d="M800.4,935.4281 C800.4,941.4281 811.2,941.4281 811.2,941.4281 C811.2,941.4281 822,941.4281 822,935.4281 " fill="none" style="stroke:#181818;stroke-width:0.8999999999999999;"/><rect fill="#FFFFFF" height="843.3375" style="stroke:#181818;stroke-width:0.6;" width="6" x="32.7" y="58.9453"/><rect fill="#FFFFFF" height="823.9629" style="stroke:#181818;stroke-width:0.6;" width="6" x="291.3" y="72.9199"/><rect fill="#FFFFFF" height="18" style="stroke:#181818;stroke-width:0.6;" width="6" x="396.3" y="129.2438"/><rect fill="#FFFFFF" height="712.0898" style="stroke:#181818;stroke-width:0.6;" width="6" x="396.3" y="166.0184"/><rect fill="#FFFFFF" height="18.7746" style="stroke:#181818;stroke-width:0.6;" width="6" x="496.2" y="184.793"/><rect fill="#FFFFFF" height="18.7746" style="stroke:#181818;stroke-width:0.6;" width="6" x="573" y="222.3422"/><rect fill="#FFFFFF" height="18" style="stroke:#181818;stroke-width:0.6;" width="6" x="653.4" y="259.8914"/><rect fill="#FFFFFF" height="562.6676" style="stroke:#181818;stroke-width:0.6;" width="6" x="653.4" y="296.666"/><rect fill="#FFFFFF" height="18.7746" style="stroke:#181818;stroke-width:0.6;" width="6" x="808.2" y="315.4406"/><rect fill="#FFFFFF" height="45.3492" style="stroke:#181818;stroke-width:0.6;" width="6" x="808.2" y="795.2098"/><polygon fill="#181818" points="284.1,70.5199,290.1,72.9199,284.1,75.3199,286.5,72.9199" style="stroke:#181818;stroke-width:0.6;"/><line style="stroke:#181818;stroke-width:0.6;stroke-dasharray:2.0,2.0;" x1="38.7" x2="287.7" y1="72.9199" y2="72.9199"/><text fill="#000000" font-family="sans-serif" font-size="7.8" lengthAdjust="spacing" textLength="118.2" x="42.9" y="69.7623">Starts calss scheduling procedure</text><polygon fill="#181818" points="45.3,89.2945,39.3,91.6945,45.3,94.0945,42.9,91.6945" style="stroke:#181818;stroke-width:0.6;"/><line style="stroke:#181818;stroke-width:0.6;stroke-dasharray:2.0,2.0;" x1="41.7" x2="290.7" y1="91.6945" y2="91.6945"/><text fill="#000000" font-family="sans-serif" font-size="7.8" lengthAdjust="spacing" textLength="154.2" x="48.9" y="88.5369">Requests for class data (title, date, duration)</text><polygon fill="#181818" points="284.1,108.0691,290.1,110.4691,284.1,112.8691,286.5,110.4691" style="stroke:#181818;stroke-width:0.6;"/><line style="stroke:#181818;stroke-width:0.6;stroke-dasharray:2.0,2.0;" x1="38.7" x2="287.7" y1="110.4691" y2="110.4691"/><text fill="#000000" font-family="sans-serif" font-size="7.8" lengthAdjust="spacing" textLength="69" x="42.9" y="107.3115">Provides Class data</text><polygon fill="#181818" points="389.1,126.8438,395.1,129.2438,389.1,131.6437,391.5,129.2438" style="stroke:#181818;stroke-width:0.6;"/><line style="stroke:#181818;stroke-width:0.6;" x1="297.3" x2="392.7" y1="129.2438" y2="129.2438"/><text fill="#000000" font-family="sans-serif" font-size="7.8" lengthAdjust="spacing" textLength="21.6" x="301.5" y="126.0861">create</text><polygon fill="#181818" points="389.1,163.6184,395.1,166.0184,389.1,168.4184,391.5,166.0184" style="stroke:#181818;stroke-width:0.6;"/><line style="stroke:#181818;stroke-width:0.6;" x1="297.3" x2="392.7" y1="166.0184" y2="166.0184"/><text fill="#000000" font-family="sans-serif" font-size="7.8" lengthAdjust="spacing" textLength="78.6" x="301.5" y="162.8607">createClassSchedule()</text><polygon fill="#181818" points="489,182.393,495,184.793,489,187.193,491.4,184.793" style="stroke:#181818;stroke-width:0.6;"/><line style="stroke:#181818;stroke-width:0.6;" x1="402.3" x2="492.6" y1="184.793" y2="184.793"/><text fill="#000000" font-family="sans-serif" font-size="7.8" lengthAdjust="spacing" textLength="31.8" x="406.5" y="181.6354">session()</text><polygon fill="#181818" points="408.9,201.1676,402.9,203.5676,408.9,205.9676,406.5,203.5676" style="stroke:#181818;stroke-width:0.6;"/><line style="stroke:#181818;stroke-width:0.6;stroke-dasharray:2.0,2.0;" x1="405.3" x2="498.6" y1="203.5676" y2="203.5676"/><text fill="#000000" font-family="sans-serif" font-size="7.8" lengthAdjust="spacing" textLength="27" x="412.5" y="200.41">session</text><polygon fill="#181818" points="565.8,219.9422,571.8,222.3422,565.8,224.7422,568.2,222.3422" style="stroke:#181818;stroke-width:0.6;"/><line style="stroke:#181818;stroke-width:0.6;" x1="402.3" x2="569.4" y1="222.3422" y2="222.3422"/><text fill="#000000" font-family="sans-serif" font-size="7.8" lengthAdjust="spacing" textLength="67.8" x="406.5" y="219.1846">authenticatedUser()</text><polygon fill="#181818" points="408.9,238.7168,402.9,241.1168,408.9,243.5168,406.5,241.1168" style="stroke:#181818;stroke-width:0.6;"/><line style="stroke:#181818;stroke-width:0.6;stroke-dasharray:2.0,2.0;" x1="405.3" x2="575.4" y1="241.1168" y2="241.1168"/><text fill="#000000" font-family="sans-serif" font-size="7.8" lengthAdjust="spacing" textLength="15" x="412.5" y="237.9592">user</text><polygon fill="#181818" points="646.2,257.4914,652.2,259.8914,646.2,262.2914,648.6,259.8914" style="stroke:#181818;stroke-width:0.6;"/><line style="stroke:#181818;stroke-width:0.6;" x1="402.3" x2="649.8" y1="259.8914" y2="259.8914"/><text fill="#000000" font-family="sans-serif" font-size="7.8" lengthAdjust="spacing" textLength="21.6" x="406.5" y="256.7338">create</text><polygon fill="#181818" points="646.2,294.266,652.2,296.666,646.2,299.066,648.6,296.666" style="stroke:#181818;stroke-width:0.6;"/><line style="stroke:#181818;stroke-width:0.6;" x1="402.3" x2="649.8" y1="296.666" y2="296.666"/><text fill="#000000" font-family="sans-serif" font-size="7.8" lengthAdjust="spacing" textLength="78.6" x="406.5" y="293.5084">createClassSchedule()</text><polygon fill="#181818" points="801,313.0406,807,315.4406,801,317.8406,803.4,315.4406" style="stroke:#181818;stroke-width:0.6;"/><line style="stroke:#181818;stroke-width:0.6;" x1="659.4" x2="804.6" y1="315.4406" y2="315.4406"/><text fill="#000000" font-family="sans-serif" font-size="7.8" lengthAdjust="spacing" textLength="89.4" x="663.6" y="312.283">getAllScheduledClasses()</text><polygon fill="#181818" points="666,331.8152,660,334.2152,666,336.6152,663.6,334.2152" style="stroke:#181818;stroke-width:0.6;"/><line style="stroke:#181818;stroke-width:0.6;stroke-dasharray:2.0,2.0;" x1="662.4" x2="810.6" y1="334.2152" y2="334.2152"/><text fill="#000000" font-family="sans-serif" font-size="7.8" lengthAdjust="spacing" textLength="42" x="669.6" y="331.0576">List&lt;Class&gt;</text><line style="stroke:#181818;stroke-width:0.6;" x1="659.4" x2="684.6" y1="352.9898" y2="352.9898"/><line style="stroke:#181818;stroke-width:0.6;" x1="684.6" x2="684.6" y1="352.9898" y2="360.7898"/><line style="stroke:#181818;stroke-width:0.6;" x1="660" x2="684.6" y1="360.7898" y2="360.7898"/><polygon fill="#181818" points="666,358.3898,660,360.7898,666,363.1898,663.6,360.7898" style="stroke:#181818;stroke-width:0.6;"/><text fill="#000000" font-family="sans-serif" font-size="7.8" lengthAdjust="spacing" textLength="140.4" x="663.6" y="349.8322">checkCoincidentialClasses(List&lt;Class&gt;)</text><path d="M12,369.7898 L48.6,369.7898 L48.6,375.3645 L42.6,381.3645 L12,381.3645 L12,369.7898 " fill="#EEEEEE" style="stroke:#000000;stroke-width:0.8999999999999999;"/><rect fill="none" height="142.9969" style="stroke:#000000;stroke-width:0.8999999999999999;" width="696.9" x="12" y="369.7898"/><text fill="#000000" font-family="sans-serif" font-size="7.8" font-weight="bold" lengthAdjust="spacing" textLength="9.6" x="21" y="378.8068">alt</text><text fill="#000000" font-family="sans-serif" font-size="6.6" font-weight="bold" lengthAdjust="spacing" textLength="79.8" x="57.6" y="378.1119">[if coincidential classes]</text><polygon fill="#181818" points="408.9,392.9391,402.9,395.3391,408.9,397.7391,406.5,395.3391" style="stroke:#181818;stroke-width:0.6;"/><line style="stroke:#181818;stroke-width:0.6;stroke-dasharray:2.0,2.0;" x1="405.3" x2="652.8" y1="395.3391" y2="395.3391"/><text fill="#000000" font-family="sans-serif" font-size="7.8" lengthAdjust="spacing" textLength="84.6" x="412.5" y="392.1814">errorCoincidentialClass()</text><polygon fill="#181818" points="303.9,411.7137,297.9,414.1137,303.9,416.5137,301.5,414.1137" style="stroke:#181818;stroke-width:0.6;"/><line style="stroke:#181818;stroke-width:0.6;stroke-dasharray:2.0,2.0;" x1="300.3" x2="395.7" y1="414.1137" y2="414.1137"/><text fill="#000000" font-family="sans-serif" font-size="7.8" lengthAdjust="spacing" textLength="84.6" x="307.5" y="410.9561">errorCoincidentialClass()</text><polygon fill="#181818" points="45.3,430.4883,39.3,432.8883,45.3,435.2883,42.9,432.8883" style="stroke:#181818;stroke-width:0.6;"/><line style="stroke:#181818;stroke-width:0.6;stroke-dasharray:2.0,2.0;" x1="41.7" x2="290.7" y1="432.8883" y2="432.8883"/><text fill="#000000" font-family="sans-serif" font-size="7.8" lengthAdjust="spacing" textLength="151.2" x="48.9" y="429.7307">Show error message (coincidential classes)</text><polygon fill="#181818" points="45.3,449.2629,39.3,451.6629,45.3,454.0629,42.9,451.6629" style="stroke:#181818;stroke-width:0.6;"/><line style="stroke:#181818;stroke-width:0.6;stroke-dasharray:2.0,2.0;" x1="41.7" x2="290.7" y1="451.6629" y2="451.6629"/><text fill="#000000" font-family="sans-serif" font-size="7.8" lengthAdjust="spacing" textLength="155.4" x="48.9" y="448.5053">Request new class data (title, date, duration)</text><polygon fill="#181818" points="284.1,468.0375,290.1,470.4375,284.1,472.8375,286.5,470.4375" style="stroke:#181818;stroke-width:0.6;"/><line style="stroke:#181818;stroke-width:0.6;stroke-dasharray:2.0,2.0;" x1="38.7" x2="287.7" y1="470.4375" y2="470.4375"/><text fill="#000000" font-family="sans-serif" font-size="7.8" lengthAdjust="spacing" textLength="69" x="42.9" y="467.2799">Provides Class data</text><polygon fill="#181818" points="389.1,486.8121,395.1,489.2121,389.1,491.6121,391.5,489.2121" style="stroke:#181818;stroke-width:0.6;"/><line style="stroke:#181818;stroke-width:0.6;" x1="297.3" x2="392.7" y1="489.2121" y2="489.2121"/><text fill="#000000" font-family="sans-serif" font-size="7.8" lengthAdjust="spacing" textLength="78.6" x="301.5" y="486.0545">createClassSchedule()</text><polygon fill="#181818" points="646.2,505.5867,652.2,507.9867,646.2,510.3867,648.6,507.9867" style="stroke:#181818;stroke-width:0.6;"/><line style="stroke:#181818;stroke-width:0.6;" x1="402.3" x2="649.8" y1="507.9867" y2="507.9867"/><text fill="#000000" font-family="sans-serif" font-size="7.8" lengthAdjust="spacing" textLength="78.6" x="406.5" y="504.8291">createClassSchedule()</text><line style="stroke:#181818;stroke-width:0.6;" x1="659.4" x2="684.6" y1="530.9613" y2="530.9613"/><line style="stroke:#181818;stroke-width:0.6;" x1="684.6" x2="684.6" y1="530.9613" y2="538.7613"/><line style="stroke:#181818;stroke-width:0.6;" x1="660" x2="684.6" y1="538.7613" y2="538.7613"/><polygon fill="#181818" points="666,536.3613,660,538.7613,666,541.1613,663.6,538.7613" style="stroke:#181818;stroke-width:0.6;"/><text fill="#000000" font-family="sans-serif" font-size="7.8" lengthAdjust="spacing" textLength="136.2" x="663.6" y="527.8037">checkOverlappingClasses(List&lt;Class&gt;)</text><path d="M6,547.7613 L42.6,547.7613 L42.6,553.3359 L36.6,559.3359 L6,559.3359 L6,547.7613 " fill="#EEEEEE" style="stroke:#000000;stroke-width:0.8999999999999999;"/><rect fill="none" height="229.2738" style="stroke:#000000;stroke-width:0.8999999999999999;" width="708.9" x="6" y="547.7613"/><text fill="#000000" font-family="sans-serif" font-size="7.8" font-weight="bold" lengthAdjust="spacing" textLength="9.6" x="15" y="556.7783">alt</text><text fill="#000000" font-family="sans-serif" font-size="6.6" font-weight="bold" lengthAdjust="spacing" textLength="127.8" x="51.6" y="556.0834">[if participant has overlapping classes]</text><polygon fill="#181818" points="408.9,570.9105,402.9,573.3105,408.9,575.7105,406.5,573.3105" style="stroke:#181818;stroke-width:0.6;"/><line style="stroke:#181818;stroke-width:0.6;stroke-dasharray:2.0,2.0;" x1="405.3" x2="652.8" y1="573.3105" y2="573.3105"/><text fill="#000000" font-family="sans-serif" font-size="7.8" lengthAdjust="spacing" textLength="81" x="412.5" y="570.1529">warnOverlappingClass()</text><polygon fill="#181818" points="303.9,589.6852,297.9,592.0852,303.9,594.4852,301.5,592.0852" style="stroke:#181818;stroke-width:0.6;"/><line style="stroke:#181818;stroke-width:0.6;stroke-dasharray:2.0,2.0;" x1="300.3" x2="395.7" y1="592.0852" y2="592.0852"/><text fill="#000000" font-family="sans-serif" font-size="7.8" lengthAdjust="spacing" textLength="81" x="307.5" y="588.9275">warnOverlappingClass()</text><polygon fill="#181818" points="45.3,608.4598,39.3,610.8598,45.3,613.2598,42.9,610.8598" style="stroke:#181818;stroke-width:0.6;"/><line style="stroke:#181818;stroke-width:0.6;stroke-dasharray:2.0,2.0;" x1="41.7" x2="290.7" y1="610.8598" y2="610.8598"/><text fill="#000000" font-family="sans-serif" font-size="7.8" lengthAdjust="spacing" textLength="157.2" x="48.9" y="607.7021">Show warning message (overlapping classes)</text><polygon fill="#181818" points="45.3,627.2344,39.3,629.6344,45.3,632.0344,42.9,629.6344" style="stroke:#181818;stroke-width:0.6;"/><line style="stroke:#181818;stroke-width:0.6;stroke-dasharray:2.0,2.0;" x1="41.7" x2="290.7" y1="629.6344" y2="629.6344"/><text fill="#000000" font-family="sans-serif" font-size="7.8" lengthAdjust="spacing" textLength="238.2" x="48.9" y="626.4768">Ask for confirmation to schedule class or input new class information</text><path d="M12,638.6344 L48.6,638.6344 L48.6,644.209 L42.6,650.209 L12,650.209 L12,638.6344 " fill="#EEEEEE" style="stroke:#000000;stroke-width:0.8999999999999999;"/><rect fill="none" height="134.2008" style="stroke:#000000;stroke-width:0.8999999999999999;" width="696.9" x="12" y="638.6344"/><text fill="#000000" font-family="sans-serif" font-size="7.8" font-weight="bold" lengthAdjust="spacing" textLength="9.6" x="21" y="647.6514">alt</text><text fill="#000000" font-family="sans-serif" font-size="6.6" font-weight="bold" lengthAdjust="spacing" textLength="92.4" x="57.6" y="646.9564">[if teacher ignores warning]</text><polygon fill="#181818" points="284.1,661.7836,290.1,664.1836,284.1,666.5836,286.5,664.1836" style="stroke:#181818;stroke-width:0.6;"/><line style="stroke:#181818;stroke-width:0.6;stroke-dasharray:2.0,2.0;" x1="38.7" x2="287.7" y1="664.1836" y2="664.1836"/><text fill="#000000" font-family="sans-serif" font-size="7.8" lengthAdjust="spacing" textLength="54" x="42.9" y="661.026">Ignores warning</text><polygon fill="#181818" points="389.1,680.5582,395.1,682.9582,389.1,685.3582,391.5,682.9582" style="stroke:#181818;stroke-width:0.6;"/><line style="stroke:#181818;stroke-width:0.6;" x1="297.3" x2="392.7" y1="682.9582" y2="682.9582"/><text fill="#000000" font-family="sans-serif" font-size="7.8" lengthAdjust="spacing" textLength="78.6" x="301.5" y="679.8006">createClassSchedule()</text><polygon fill="#181818" points="646.2,699.3328,652.2,701.7328,646.2,704.1328,648.6,701.7328" style="stroke:#181818;stroke-width:0.6;"/><line style="stroke:#181818;stroke-width:0.6;" x1="402.3" x2="649.8" y1="701.7328" y2="701.7328"/><text fill="#000000" font-family="sans-serif" font-size="7.8" lengthAdjust="spacing" textLength="78.6" x="406.5" y="698.5752">createClassSchedule()</text><line style="stroke:#000000;stroke-width:0.6;stroke-dasharray:2.0,2.0;" x1="12" x2="708.9" y1="707.1328" y2="707.1328"/><text fill="#000000" font-family="sans-serif" font-size="6.6" font-weight="bold" lengthAdjust="spacing" textLength="134.4" x="15" y="714.2549">[if teacher inputs new class information]</text><polygon fill="#181818" points="284.1,728.0859,290.1,730.4859,284.1,732.8859,286.5,730.4859" style="stroke:#181818;stroke-width:0.6;"/><line style="stroke:#181818;stroke-width:0.6;stroke-dasharray:2.0,2.0;" x1="38.7" x2="287.7" y1="730.4859" y2="730.4859"/><text fill="#000000" font-family="sans-serif" font-size="7.8" lengthAdjust="spacing" textLength="98.4" x="42.9" y="727.3283">Inputs new class information</text><polygon fill="#181818" points="389.1,746.8605,395.1,749.2605,389.1,751.6605,391.5,749.2605" style="stroke:#181818;stroke-width:0.6;"/><line style="stroke:#181818;stroke-width:0.6;" x1="297.3" x2="392.7" y1="749.2605" y2="749.2605"/><text fill="#000000" font-family="sans-serif" font-size="7.8" lengthAdjust="spacing" textLength="78.6" x="301.5" y="746.1029">createClassSchedule()</text><polygon fill="#181818" points="646.2,765.6352,652.2,768.0352,646.2,770.4352,648.6,768.0352" style="stroke:#181818;stroke-width:0.6;"/><line style="stroke:#181818;stroke-width:0.6;" x1="402.3" x2="649.8" y1="768.0352" y2="768.0352"/><text fill="#000000" font-family="sans-serif" font-size="7.8" lengthAdjust="spacing" textLength="78.6" x="406.5" y="764.8775">createClassSchedule()</text><polygon fill="#181818" points="801,792.8098,807,795.2098,801,797.6098,803.4,795.2098" style="stroke:#181818;stroke-width:0.6;"/><line style="stroke:#181818;stroke-width:0.6;" x1="659.4" x2="804.6" y1="795.2098" y2="795.2098"/><text fill="#000000" font-family="sans-serif" font-size="7.8" lengthAdjust="spacing" textLength="19.8" x="663.6" y="792.0521">Class</text><line style="stroke:#181818;stroke-width:0.6;" x1="814.2" x2="839.4" y1="813.9844" y2="813.9844"/><line style="stroke:#181818;stroke-width:0.6;" x1="839.4" x2="839.4" y1="813.9844" y2="821.7844"/><line style="stroke:#181818;stroke-width:0.6;" x1="814.8" x2="839.4" y1="821.7844" y2="821.7844"/><polygon fill="#181818" points="820.8,819.3844,814.8,821.7844,820.8,824.1844,818.4,821.7844" style="stroke:#181818;stroke-width:0.6;"/><text fill="#000000" font-family="sans-serif" font-size="7.8" lengthAdjust="spacing" textLength="40.2" x="818.4" y="810.8268">save(Class)</text><polygon fill="#181818" points="666,838.159,660,840.559,666,842.959,663.6,840.559" style="stroke:#181818;stroke-width:0.6;"/><line style="stroke:#181818;stroke-width:0.6;stroke-dasharray:2.0,2.0;" x1="662.4" x2="810.6" y1="840.559" y2="840.559"/><text fill="#000000" font-family="sans-serif" font-size="7.8" lengthAdjust="spacing" textLength="17.4" x="669.6" y="837.4014">state</text><polygon fill="#181818" points="408.9,856.9336,402.9,859.3336,408.9,861.7336,406.5,859.3336" style="stroke:#181818;stroke-width:0.6;"/><line style="stroke:#181818;stroke-width:0.6;stroke-dasharray:2.0,2.0;" x1="405.3" x2="655.8" y1="859.3336" y2="859.3336"/><text fill="#000000" font-family="sans-serif" font-size="7.8" lengthAdjust="spacing" textLength="17.4" x="412.5" y="856.176">state</text><polygon fill="#181818" points="303.9,875.7082,297.9,878.1082,303.9,880.5082,301.5,878.1082" style="stroke:#181818;stroke-width:0.6;"/><line style="stroke:#181818;stroke-width:0.6;stroke-dasharray:2.0,2.0;" x1="300.3" x2="398.7" y1="878.1082" y2="878.1082"/><text fill="#000000" font-family="sans-serif" font-size="7.8" lengthAdjust="spacing" textLength="17.4" x="307.5" y="874.9506">state</text><polygon fill="#181818" points="45.3,894.4828,39.3,896.8828,45.3,899.2828,42.9,896.8828" style="stroke:#181818;stroke-width:0.6;"/><line style="stroke:#181818;stroke-width:0.6;stroke-dasharray:2.0,2.0;" x1="41.7" x2="293.7" y1="896.8828" y2="896.8828"/><text fill="#000000" font-family="sans-serif" font-size="7.8" lengthAdjust="spacing" textLength="160.2" x="48.9" y="893.7252">Shows state of execution (Success or Failure)</text><!--SRC=[jLR1Zfim4BtxAwozR28rtJjQHOgYhHgfLQjbqqDlhfaaLenDRPFjzkixjY4O0jdkOIC50PxtvZ7p67DxSAwosTrT9PboTIa_SbtUMVXTW-AmA0JR6rOIUnIgOdX6IwqqFnXT0dMcXcIbOlp8zf2x5mdK07U44CQTDlG963-0eSpIbRz122ASuAB2dFGcnyMYbh2MpDhjviR7RJVq_huoO44vveHMo-KLq5ehPxIKO0AukqGILbLIy56ELUqEseY_OJ47Sn8S0i5g-_JvPpzsQy7aO2r6He5vVaLGIfO_FFxOh1zGYertKSPj3_gLAInSrDwS4r8mntun2_GcC3v2fQt0uhs4iEuIUStv0gbzpSM9EMXg7OvqiLZwccOqTvZPKiwajTH6pKBjQMKqntC37Nwx8GGn7Xf8CioAlh08to4bzxAebqbdJZW97_o5FzOcL7JUovtHxqQVH07OdpCo9bWc7SieDu0qdOnkZHGmTdUI8xQYwSjiFaf94hFu1_MTpwYDdKunqHFX69ueJTU4f_fY-80TJPDHXgv3LtjFGk5jbMRnjiB_HORQzX_Vnmt86vzT5h1PIE7jhQiCa-LhqQIrDc8xGsPq3subPOii0W_ObA6B9ecJ5wc6ByAw-m1TfieJP9g-atu0VbnheJXQ3QlCP9i-8KGbqb6nepmDZ8u6cn0FkW36Q7D9Za-M5hAn-tHm_wNA3_ev1jCIVOHlFvsDwfgFlurKmVCxlun39xpDDmHKSQLPtqvW94vfd4BNMfLEp0DEGDt1pesRwjipCsgOPhnf4v4Z7VEHFlUvPoE2Xi2LFSRHgTLEc38qXZhTpc5eseWHkAdMQMU5Gbm4aBOYhjbMnLvft2bRHOD6RmQh_zlZDxKO96vKgIGltqxe7-Yx5lekOeCVXvvCvrS0l3gi-XZBJZ0BmFdaIBFEp-NnOJPbtGlCUVYEkFSYUBXBzZri8u3g7OK_mEjWnrbUSmxHXP-OaFX9CE_jFFXLWBz_]--></g></svg>