<?xml version="1.0" encoding="us-ascii" standalone="no"?><svg xmlns="http://www.w3.org/2000/svg" xmlns:xlink="http://www.w3.org/1999/xlink" contentStyleType="text/css" height="501px" preserveAspectRatio="none" style="width:989px;height:501px;background:#FFFFFF;" version="1.1" viewBox="0 0 989 501" width="989px" zoomAndPan="magnify"><defs/><g><rect fill="#FFFFFF" height="286.2793" style="stroke:#181818;stroke-width:1.0;" width="10" x="81.5" y="98.2422"/><rect fill="#FFFFFF" height="231.6973" style="stroke:#181818;stroke-width:1.0;" width="10" x="415.5" y="152.8242"/><rect fill="#FFFFFF" height="209.4063" style="stroke:#181818;stroke-width:1.0;" width="10" x="617" y="184.1152"/><rect fill="#FFFFFF" height="31.291" style="stroke:#181818;stroke-width:1.0;" width="10" x="904.5" y="277.6484"/><line style="stroke:#181818;stroke-width:0.5;stroke-dasharray:5.0,5.0;" x1="86" x2="86" y1="88.2422" y2="402.5215"/><line style="stroke:#181818;stroke-width:0.5;stroke-dasharray:5.0,5.0;" x1="244" x2="244" y1="88.2422" y2="402.5215"/><line style="stroke:#181818;stroke-width:0.5;stroke-dasharray:5.0,5.0;" x1="420" x2="420" y1="88.2422" y2="402.5215"/><line style="stroke:#181818;stroke-width:0.5;stroke-dasharray:5.0,5.0;" x1="622" x2="622" y1="88.2422" y2="402.5215"/><line style="stroke:#181818;stroke-width:0.5;stroke-dasharray:5.0,5.0;" x1="772" x2="772" y1="233.2363" y2="402.5215"/><line style="stroke:#181818;stroke-width:0.5;stroke-dasharray:5.0,5.0;" x1="909" x2="909" y1="88.2422" y2="402.5215"/><rect fill="#E2E2F0" height="51.2422" rx="2.5" ry="2.5" style="stroke:#181818;stroke-width:0.5;" width="163" x="5" y="36"/><text fill="#000000" font-family="sans-serif" font-size="14" font-style="italic" lengthAdjust="spacing" textLength="62" x="55.5" y="58.1074">&#171;listener&#187;</text><text fill="#000000" font-family="sans-serif" font-size="14" lengthAdjust="spacing" textLength="149" x="12" y="76.7285">InviteMeetingWatchDog</text><rect fill="#E2E2F0" height="51.2422" rx="2.5" ry="2.5" style="stroke:#181818;stroke-width:0.5;" width="163" x="5" y="401.5215"/><text fill="#000000" font-family="sans-serif" font-size="14" font-style="italic" lengthAdjust="spacing" textLength="62" x="55.5" y="423.6289">&#171;listener&#187;</text><text fill="#000000" font-family="sans-serif" font-size="14" lengthAdjust="spacing" textLength="149" x="12" y="442.25">InviteMeetingWatchDog</text><rect fill="#E2E2F0" height="51.2422" rx="2.5" ry="2.5" style="stroke:#181818;stroke-width:0.5;" width="133" x="178" y="36"/><text fill="#000000" font-family="sans-serif" font-size="14" font-style="italic" lengthAdjust="spacing" textLength="50" x="219.5" y="58.1074">&#171;event&#187;</text><text fill="#000000" font-family="sans-serif" font-size="14" lengthAdjust="spacing" textLength="119" x="185" y="76.7285">InviteMeetingEvent</text><rect fill="#E2E2F0" height="51.2422" rx="2.5" ry="2.5" style="stroke:#181818;stroke-width:0.5;" width="133" x="178" y="401.5215"/><text fill="#000000" font-family="sans-serif" font-size="14" font-style="italic" lengthAdjust="spacing" textLength="50" x="219.5" y="423.6289">&#171;event&#187;</text><text fill="#000000" font-family="sans-serif" font-size="14" lengthAdjust="spacing" textLength="119" x="185" y="442.25">InviteMeetingEvent</text><rect fill="#E2E2F0" height="51.2422" rx="2.5" ry="2.5" style="stroke:#181818;stroke-width:0.5;" width="199" x="321" y="36"/><text fill="#000000" font-family="sans-serif" font-size="14" font-style="italic" lengthAdjust="spacing" textLength="75" x="383" y="58.1074">&#171;controller&#187;</text><text fill="#000000" font-family="sans-serif" font-size="14" lengthAdjust="spacing" textLength="185" x="328" y="76.7285">InvitationToMeetingController</text><rect fill="#E2E2F0" height="51.2422" rx="2.5" ry="2.5" style="stroke:#181818;stroke-width:0.5;" width="199" x="321" y="401.5215"/><text fill="#000000" font-family="sans-serif" font-size="14" font-style="italic" lengthAdjust="spacing" textLength="75" x="383" y="423.6289">&#171;controller&#187;</text><text fill="#000000" font-family="sans-serif" font-size="14" lengthAdjust="spacing" textLength="185" x="328" y="442.25">InvitationToMeetingController</text><rect fill="#E2E2F0" height="51.2422" rx="2.5" ry="2.5" style="stroke:#181818;stroke-width:0.5;" width="184" x="530" y="36"/><text fill="#000000" font-family="sans-serif" font-size="14" font-style="italic" lengthAdjust="spacing" textLength="60" x="592" y="58.1074">&#171;service&#187;</text><text fill="#000000" font-family="sans-serif" font-size="14" lengthAdjust="spacing" textLength="170" x="537" y="76.7285">InvitationToMeetingService</text><rect fill="#E2E2F0" height="51.2422" rx="2.5" ry="2.5" style="stroke:#181818;stroke-width:0.5;" width="184" x="530" y="401.5215"/><text fill="#000000" font-family="sans-serif" font-size="14" font-style="italic" lengthAdjust="spacing" textLength="60" x="592" y="423.6289">&#171;service&#187;</text><text fill="#000000" font-family="sans-serif" font-size="14" lengthAdjust="spacing" textLength="170" x="537" y="442.25">InvitationToMeetingService</text><rect fill="#E2E2F0" height="51.2422" rx="2.5" ry="2.5" style="stroke:#181818;stroke-width:0.5;" width="97" x="724" y="401.5215"/><text fill="#000000" font-family="sans-serif" font-size="14" font-style="italic" lengthAdjust="spacing" textLength="50" x="747.5" y="423.6289">&#171;entity&#187;</text><text fill="#000000" font-family="sans-serif" font-size="14" lengthAdjust="spacing" textLength="83" x="731" y="442.25">MeetingInvite</text><text fill="#000000" font-family="sans-serif" font-size="14" font-style="italic" lengthAdjust="spacing" textLength="79" x="867" y="66.1074">&#171;repository&#187;</text><text fill="#000000" font-family="sans-serif" font-size="14" lengthAdjust="spacing" textLength="151" x="831" y="84.7285">MeetingInviteRepository</text><path d="M891.5,15 C891.5,5 909.5,5 909.5,5 C909.5,5 927.5,5 927.5,15 L927.5,41 C927.5,51 909.5,51 909.5,51 C909.5,51 891.5,51 891.5,41 L891.5,15 " fill="#E2E2F0" style="stroke:#181818;stroke-width:1.5;"/><path d="M891.5,15 C891.5,25 909.5,25 909.5,25 C909.5,25 927.5,25 927.5,15 " fill="none" style="stroke:#181818;stroke-width:1.5;"/><text fill="#000000" font-family="sans-serif" font-size="14" font-style="italic" lengthAdjust="spacing" textLength="79" x="867" y="416.6289">&#171;repository&#187;</text><text fill="#000000" font-family="sans-serif" font-size="14" lengthAdjust="spacing" textLength="151" x="831" y="435.25">MeetingInviteRepository</text><path d="M891.5,448.7637 C891.5,438.7637 909.5,438.7637 909.5,438.7637 C909.5,438.7637 927.5,438.7637 927.5,448.7637 L927.5,474.7637 C927.5,484.7637 909.5,484.7637 909.5,484.7637 C909.5,484.7637 891.5,484.7637 891.5,474.7637 L891.5,448.7637 " fill="#E2E2F0" style="stroke:#181818;stroke-width:1.5;"/><path d="M891.5,448.7637 C891.5,458.7637 909.5,458.7637 909.5,458.7637 C909.5,458.7637 927.5,458.7637 927.5,448.7637 " fill="none" style="stroke:#181818;stroke-width:1.5;"/><rect fill="#FFFFFF" height="286.2793" style="stroke:#181818;stroke-width:1.0;" width="10" x="81.5" y="98.2422"/><rect fill="#FFFFFF" height="231.6973" style="stroke:#181818;stroke-width:1.0;" width="10" x="415.5" y="152.8242"/><rect fill="#FFFFFF" height="209.4063" style="stroke:#181818;stroke-width:1.0;" width="10" x="617" y="184.1152"/><rect fill="#FFFFFF" height="31.291" style="stroke:#181818;stroke-width:1.0;" width="10" x="904.5" y="277.6484"/><polygon fill="#181818" points="408.5,117.5332,418.5,121.5332,408.5,125.5332,412.5,121.5332" style="stroke:#181818;stroke-width:1.0;"/><line style="stroke:#181818;stroke-width:1.0;stroke-dasharray:2.0,2.0;" x1="91.5" x2="414.5" y1="121.5332" y2="121.5332"/><text fill="#000000" font-family="sans-serif" font-size="13" lengthAdjust="spacing" textLength="36" x="98.5" y="116.2705">create</text><polygon fill="#181818" points="403.5,148.8242,413.5,152.8242,403.5,156.8242,407.5,152.8242" style="stroke:#181818;stroke-width:1.0;"/><line style="stroke:#181818;stroke-width:1.0;" x1="91.5" x2="409.5" y1="152.8242" y2="152.8242"/><text fill="#000000" font-family="sans-serif" font-size="13" lengthAdjust="spacing" textLength="102" x="98.5" y="147.5615">inviteUser( event )</text><polygon fill="#181818" points="605,180.1152,615,184.1152,605,188.1152,609,184.1152" style="stroke:#181818;stroke-width:1.0;"/><line style="stroke:#181818;stroke-width:1.0;" x1="425.5" x2="611" y1="184.1152" y2="184.1152"/><text fill="#000000" font-family="sans-serif" font-size="13" lengthAdjust="spacing" textLength="122" x="432.5" y="178.8525">saveInvitation( event )</text><polygon fill="#181818" points="712,211.4063,722,215.4063,712,219.4063,716,215.4063" style="stroke:#181818;stroke-width:1.0;"/><line style="stroke:#181818;stroke-width:1.0;" x1="627" x2="718" y1="215.4063" y2="215.4063"/><text fill="#000000" font-family="sans-serif" font-size="13" lengthAdjust="spacing" textLength="36" x="634" y="210.1436">create</text><rect fill="#E2E2F0" height="51.2422" rx="2.5" ry="2.5" style="stroke:#181818;stroke-width:0.5;" width="97" x="724" y="192.1152"/><text fill="#000000" font-family="sans-serif" font-size="14" font-style="italic" lengthAdjust="spacing" textLength="50" x="747.5" y="214.2227">&#171;entity&#187;</text><text fill="#000000" font-family="sans-serif" font-size="14" lengthAdjust="spacing" textLength="83" x="731" y="232.8438">MeetingInvite</text><polygon fill="#181818" points="892.5,273.6484,902.5,277.6484,892.5,281.6484,896.5,277.6484" style="stroke:#181818;stroke-width:1.0;"/><line style="stroke:#181818;stroke-width:1.0;" x1="627" x2="898.5" y1="277.6484" y2="277.6484"/><text fill="#000000" font-family="sans-serif" font-size="13" lengthAdjust="spacing" textLength="71" x="634" y="272.3857">save( invite )</text><polygon fill="#181818" points="638,304.9395,628,308.9395,638,312.9395,634,308.9395" style="stroke:#181818;stroke-width:1.0;"/><line style="stroke:#181818;stroke-width:1.0;stroke-dasharray:2.0,2.0;" x1="632" x2="908.5" y1="308.9395" y2="308.9395"/><text fill="#000000" font-family="sans-serif" font-size="13" lengthAdjust="spacing" textLength="50" x="644" y="303.6768">invitation</text><line style="stroke:#181818;stroke-width:1.0;" x1="627" x2="669" y1="340.2305" y2="340.2305"/><line style="stroke:#181818;stroke-width:1.0;" x1="669" x2="669" y1="340.2305" y2="353.2305"/><line style="stroke:#181818;stroke-width:1.0;" x1="628" x2="669" y1="353.2305" y2="353.2305"/><polygon fill="#181818" points="638,349.2305,628,353.2305,638,357.2305,634,353.2305" style="stroke:#181818;stroke-width:1.0;"/><text fill="#000000" font-family="sans-serif" font-size="13" lengthAdjust="spacing" textLength="66" x="634" y="334.9678">notifyUser()</text><polygon fill="#181818" points="97.5,380.5215,87.5,384.5215,97.5,388.5215,93.5,384.5215" style="stroke:#181818;stroke-width:1.0;"/><line style="stroke:#181818;stroke-width:1.0;stroke-dasharray:2.0,2.0;" x1="91.5" x2="419.5" y1="384.5215" y2="384.5215"/><text fill="#000000" font-family="sans-serif" font-size="13" lengthAdjust="spacing" textLength="29" x="103.5" y="379.2588">state</text><!--SRC=[XP31Ri8m44Jl-GhV2aWfzmXnWQX2Qg4Ab9vTimqh1JkrbqZyVTTs20bjLHztvurdv-58LBjiEgqhgUbygXwLEKqTV9r1AqWFA4ihJqbIIqkei6QHMEa62Lu027NvBaaTbwOKqedbvadCPXKw0WrsFl-RoXlW4IFvFb_l608_-8sGX4RlJCijZ2PhgWgiXnUxufbPrGt_DzY2RL21fxVxXH2CkpYwOrjzJEtbg_NUvzI4T67jGPBya0w6mW9guv2ClNYao5yt4RFTd55-KX4saesviiJNbgRpU4ucb0NU90c72utUDXZ-UEF08n4A4-EWwjoyBam2mA2_CHDEDd3hOiWEU9PtGu-o0-UVJ6wfxhRN2-CVepPXptfWtwe7owj3sgN5Bkb0U80VFh6ZDag4jI7yl8IAnhxeNXkiyNLoLBfUqlCCrONN6xB-6m00]--></g></svg>