<?xml version="1.0" encoding="us-ascii" standalone="no"?><svg xmlns="http://www.w3.org/2000/svg" xmlns:xlink="http://www.w3.org/1999/xlink" contentStyleType="text/css" height="796px" preserveAspectRatio="none" style="width:1064px;height:796px;background:#FFFFFF;" version="1.1" viewBox="0 0 1064 796" width="1064px" zoomAndPan="magnify"><defs/><g><rect fill="#FFFFFF" height="263.3281" style="stroke:#181818;stroke-width:1.0;" width="10" x="314.5" y="121.5332"/><rect fill="#FFFFFF" height="75.582" style="stroke:#181818;stroke-width:1.0;" width="10" x="314.5" y="416.1523"/><rect fill="#FFFFFF" height="165.4551" style="stroke:#181818;stroke-width:1.0;" width="10" x="314.5" y="523.0254"/><rect fill="#FFFFFF" height="156.4551" style="stroke:#181818;stroke-width:1.0;" width="10" x="633.5" y="152.8242"/><rect fill="#FFFFFF" height="93.873" style="stroke:#181818;stroke-width:1.0;" width="10" x="633.5" y="554.3164"/><rect fill="#FFFFFF" height="31.291" style="stroke:#181818;stroke-width:1.0;" width="10" x="820" y="184.1152"/><rect fill="#FFFFFF" height="31.291" style="stroke:#181818;stroke-width:1.0;" width="10" x="980" y="246.6973"/><rect fill="#FFFFFF" height="31.291" style="stroke:#181818;stroke-width:1.0;" width="10" x="980" y="585.6074"/><line style="stroke:#181818;stroke-width:0.5;stroke-dasharray:5.0,5.0;" x1="72" x2="72" y1="88.2422" y2="697.4805"/><line style="stroke:#181818;stroke-width:0.5;stroke-dasharray:5.0,5.0;" x1="319.5" x2="319.5" y1="88.2422" y2="697.4805"/><line style="stroke:#181818;stroke-width:0.5;stroke-dasharray:5.0,5.0;" x1="638.5" x2="638.5" y1="88.2422" y2="697.4805"/><line style="stroke:#181818;stroke-width:0.5;stroke-dasharray:5.0,5.0;" x1="824.5" x2="824.5" y1="88.2422" y2="697.4805"/><line style="stroke:#181818;stroke-width:0.5;stroke-dasharray:5.0,5.0;" x1="984.5" x2="984.5" y1="88.2422" y2="697.4805"/><text fill="#000000" font-family="sans-serif" font-size="14" lengthAdjust="spacing" textLength="129" x="5" y="84.7285">eCourseSystemUser</text><ellipse cx="72.5" cy="18.1211" fill="#E3E3E3" rx="8" ry="8" style="stroke:#181818;stroke-width:0.5;"/><path d="M72.5,26.1211 L72.5,53.1211 M59.5,34.1211 L85.5,34.1211 M72.5,53.1211 L59.5,68.1211 M72.5,53.1211 L85.5,68.1211 " fill="none" style="stroke:#181818;stroke-width:0.5;"/><text fill="#000000" font-family="sans-serif" font-size="14" lengthAdjust="spacing" textLength="129" x="5" y="711.5879">eCourseSystemUser</text><ellipse cx="72.5" cy="723.6016" fill="#E3E3E3" rx="8" ry="8" style="stroke:#181818;stroke-width:0.5;"/><path d="M72.5,731.6016 L72.5,758.6016 M59.5,739.6016 L85.5,739.6016 M72.5,758.6016 L59.5,773.6016 M72.5,758.6016 L85.5,773.6016 " fill="none" style="stroke:#181818;stroke-width:0.5;"/><rect fill="#E3E3E3" height="51.2422" rx="2.5" ry="2.5" style="stroke:#181818;stroke-width:0.5;" width="160" x="239.5" y="36"/><text fill="#000000" font-family="sans-serif" font-size="14" font-style="italic" lengthAdjust="spacing" textLength="95" x="272" y="58.1074">&#171;presentation&#187;</text><text fill="#000000" font-family="sans-serif" font-size="14" lengthAdjust="spacing" textLength="146" x="246.5" y="76.7285">ManageMeetingInviteUI</text><rect fill="#E3E3E3" height="51.2422" rx="2.5" ry="2.5" style="stroke:#181818;stroke-width:0.5;" width="160" x="239.5" y="696.4805"/><text fill="#000000" font-family="sans-serif" font-size="14" font-style="italic" lengthAdjust="spacing" textLength="95" x="272" y="718.5879">&#171;presentation&#187;</text><text fill="#000000" font-family="sans-serif" font-size="14" lengthAdjust="spacing" textLength="146" x="246.5" y="737.209">ManageMeetingInviteUI</text><rect fill="#E3E3E3" height="51.2422" rx="2.5" ry="2.5" style="stroke:#181818;stroke-width:0.5;" width="210" x="533.5" y="36"/><text fill="#000000" font-family="sans-serif" font-size="14" font-style="italic" lengthAdjust="spacing" textLength="84" x="596.5" y="58.1074">&#171;application&#187;</text><text fill="#000000" font-family="sans-serif" font-size="14" lengthAdjust="spacing" textLength="196" x="540.5" y="76.7285">ManageMeetingInviteController</text><rect fill="#E3E3E3" height="51.2422" rx="2.5" ry="2.5" style="stroke:#181818;stroke-width:0.5;" width="210" x="533.5" y="696.4805"/><text fill="#000000" font-family="sans-serif" font-size="14" font-style="italic" lengthAdjust="spacing" textLength="84" x="596.5" y="718.5879">&#171;application&#187;</text><text fill="#000000" font-family="sans-serif" font-size="14" lengthAdjust="spacing" textLength="196" x="540.5" y="737.209">ManageMeetingInviteController</text><rect fill="#E3E3E3" height="51.2422" rx="2.5" ry="2.5" style="stroke:#181818;stroke-width:0.5;" width="143" x="753.5" y="36"/><text fill="#000000" font-family="sans-serif" font-size="14" font-style="italic" lengthAdjust="spacing" textLength="60" x="795" y="58.1074">&#171;service&#187;</text><text fill="#000000" font-family="sans-serif" font-size="14" lengthAdjust="spacing" textLength="129" x="760.5" y="76.7285">AuthorizationService</text><rect fill="#E3E3E3" height="51.2422" rx="2.5" ry="2.5" style="stroke:#181818;stroke-width:0.5;" width="143" x="753.5" y="696.4805"/><text fill="#000000" font-family="sans-serif" font-size="14" font-style="italic" lengthAdjust="spacing" textLength="60" x="795" y="718.5879">&#171;service&#187;</text><text fill="#000000" font-family="sans-serif" font-size="14" lengthAdjust="spacing" textLength="129" x="760.5" y="737.209">AuthorizationService</text><text fill="#000000" font-family="sans-serif" font-size="14" font-style="italic" lengthAdjust="spacing" textLength="79" x="942.5" y="66.1074">&#171;repository&#187;</text><text fill="#000000" font-family="sans-serif" font-size="14" lengthAdjust="spacing" textLength="151" x="906.5" y="84.7285">MeetingInviteRepository</text><path d="M967,15 C967,5 985,5 985,5 C985,5 1003,5 1003,15 L1003,41 C1003,51 985,51 985,51 C985,51 967,51 967,41 L967,15 " fill="#E3E3E3" style="stroke:#181818;stroke-width:1.5;"/><path d="M967,15 C967,25 985,25 985,25 C985,25 1003,25 1003,15 " fill="none" style="stroke:#181818;stroke-width:1.5;"/><text fill="#000000" font-family="sans-serif" font-size="14" font-style="italic" lengthAdjust="spacing" textLength="79" x="942.5" y="711.5879">&#171;repository&#187;</text><text fill="#000000" font-family="sans-serif" font-size="14" lengthAdjust="spacing" textLength="151" x="906.5" y="730.209">MeetingInviteRepository</text><path d="M967,743.7227 C967,733.7227 985,733.7227 985,733.7227 C985,733.7227 1003,733.7227 1003,743.7227 L1003,769.7227 C1003,779.7227 985,779.7227 985,779.7227 C985,779.7227 967,779.7227 967,769.7227 L967,743.7227 " fill="#E3E3E3" style="stroke:#181818;stroke-width:1.5;"/><path d="M967,743.7227 C967,753.7227 985,753.7227 985,753.7227 C985,753.7227 1003,753.7227 1003,743.7227 " fill="none" style="stroke:#181818;stroke-width:1.5;"/><rect fill="#FFFFFF" height="263.3281" style="stroke:#181818;stroke-width:1.0;" width="10" x="314.5" y="121.5332"/><rect fill="#FFFFFF" height="75.582" style="stroke:#181818;stroke-width:1.0;" width="10" x="314.5" y="416.1523"/><rect fill="#FFFFFF" height="165.4551" style="stroke:#181818;stroke-width:1.0;" width="10" x="314.5" y="523.0254"/><rect fill="#FFFFFF" height="156.4551" style="stroke:#181818;stroke-width:1.0;" width="10" x="633.5" y="152.8242"/><rect fill="#FFFFFF" height="93.873" style="stroke:#181818;stroke-width:1.0;" width="10" x="633.5" y="554.3164"/><rect fill="#FFFFFF" height="31.291" style="stroke:#181818;stroke-width:1.0;" width="10" x="820" y="184.1152"/><rect fill="#FFFFFF" height="31.291" style="stroke:#181818;stroke-width:1.0;" width="10" x="980" y="246.6973"/><rect fill="#FFFFFF" height="31.291" style="stroke:#181818;stroke-width:1.0;" width="10" x="980" y="585.6074"/><polygon fill="#181818" points="302.5,117.5332,312.5,121.5332,302.5,125.5332,306.5,121.5332" style="stroke:#181818;stroke-width:1.0;"/><line style="stroke:#181818;stroke-width:1.0;stroke-dasharray:2.0,2.0;" x1="72.5" x2="308.5" y1="121.5332" y2="121.5332"/><text fill="#000000" font-family="sans-serif" font-size="13" lengthAdjust="spacing" textLength="211" x="79.5" y="116.2705">respond to meeting invitations option</text><polygon fill="#181818" points="621.5,148.8242,631.5,152.8242,621.5,156.8242,625.5,152.8242" style="stroke:#181818;stroke-width:1.0;"/><line style="stroke:#181818;stroke-width:1.0;" x1="324.5" x2="627.5" y1="152.8242" y2="152.8242"/><text fill="#000000" font-family="sans-serif" font-size="13" lengthAdjust="spacing" textLength="144" x="331.5" y="147.5615">getAllMeetingInvitations()</text><polygon fill="#181818" points="808,180.1152,818,184.1152,808,188.1152,812,184.1152" style="stroke:#181818;stroke-width:1.0;"/><line style="stroke:#181818;stroke-width:1.0;" x1="643.5" x2="814" y1="184.1152" y2="184.1152"/><text fill="#000000" font-family="sans-serif" font-size="13" lengthAdjust="spacing" textLength="53" x="650.5" y="178.8525">session()</text><polygon fill="#181818" points="654.5,211.4063,644.5,215.4063,654.5,219.4063,650.5,215.4063" style="stroke:#181818;stroke-width:1.0;"/><line style="stroke:#181818;stroke-width:1.0;stroke-dasharray:2.0,2.0;" x1="648.5" x2="824" y1="215.4063" y2="215.4063"/><text fill="#000000" font-family="sans-serif" font-size="13" lengthAdjust="spacing" textLength="31" x="660.5" y="210.1436">email</text><polygon fill="#181818" points="968,242.6973,978,246.6973,968,250.6973,972,246.6973" style="stroke:#181818;stroke-width:1.0;"/><line style="stroke:#181818;stroke-width:1.0;" x1="643.5" x2="974" y1="246.6973" y2="246.6973"/><text fill="#000000" font-family="sans-serif" font-size="13" lengthAdjust="spacing" textLength="264" x="650.5" y="241.4346">getAllMeetingInvitationsWithRecipient( email )</text><polygon fill="#181818" points="654.5,273.9883,644.5,277.9883,654.5,281.9883,650.5,277.9883" style="stroke:#181818;stroke-width:1.0;"/><line style="stroke:#181818;stroke-width:1.0;stroke-dasharray:2.0,2.0;" x1="648.5" x2="984" y1="277.9883" y2="277.9883"/><text fill="#000000" font-family="sans-serif" font-size="13" lengthAdjust="spacing" textLength="112" x="660.5" y="272.7256">List&lt;MeetingInvite&gt;</text><polygon fill="#181818" points="335.5,305.2793,325.5,309.2793,335.5,313.2793,331.5,309.2793" style="stroke:#181818;stroke-width:1.0;"/><line style="stroke:#181818;stroke-width:1.0;" x1="329.5" x2="637.5" y1="309.2793" y2="309.2793"/><text fill="#000000" font-family="sans-serif" font-size="13" lengthAdjust="spacing" textLength="112" x="341.5" y="304.0166">List&lt;MeetingInvite&gt;</text><line style="stroke:#181818;stroke-width:1.0;" x1="324.5" x2="366.5" y1="340.5703" y2="340.5703"/><line style="stroke:#181818;stroke-width:1.0;" x1="366.5" x2="366.5" y1="340.5703" y2="353.5703"/><line style="stroke:#181818;stroke-width:1.0;" x1="325.5" x2="366.5" y1="353.5703" y2="353.5703"/><polygon fill="#181818" points="335.5,349.5703,325.5,353.5703,335.5,357.5703,331.5,353.5703" style="stroke:#181818;stroke-width:1.0;"/><text fill="#000000" font-family="sans-serif" font-size="13" lengthAdjust="spacing" textLength="272" x="331.5" y="335.3076">displayMeetingInvitations( List&lt;MeetingInvite&gt; )</text><polygon fill="#181818" points="83.5,380.8613,73.5,384.8613,83.5,388.8613,79.5,384.8613" style="stroke:#181818;stroke-width:1.0;"/><line style="stroke:#181818;stroke-width:1.0;stroke-dasharray:2.0,2.0;" x1="77.5" x2="318.5" y1="384.8613" y2="384.8613"/><text fill="#000000" font-family="sans-serif" font-size="13" lengthAdjust="spacing" textLength="183" x="89.5" y="379.5986">shows list of meeting invitations</text><polygon fill="#181818" points="302.5,412.1523,312.5,416.1523,302.5,420.1523,306.5,416.1523" style="stroke:#181818;stroke-width:1.0;"/><line style="stroke:#181818;stroke-width:1.0;" x1="72.5" x2="308.5" y1="416.1523" y2="416.1523"/><text fill="#000000" font-family="sans-serif" font-size="13" lengthAdjust="spacing" textLength="139" x="79.5" y="410.8896">select meeting invitation</text><line style="stroke:#181818;stroke-width:1.0;" x1="324.5" x2="366.5" y1="447.4434" y2="447.4434"/><line style="stroke:#181818;stroke-width:1.0;" x1="366.5" x2="366.5" y1="447.4434" y2="460.4434"/><line style="stroke:#181818;stroke-width:1.0;" x1="325.5" x2="366.5" y1="460.4434" y2="460.4434"/><polygon fill="#181818" points="335.5,456.4434,325.5,460.4434,335.5,464.4434,331.5,460.4434" style="stroke:#181818;stroke-width:1.0;"/><text fill="#000000" font-family="sans-serif" font-size="13" lengthAdjust="spacing" textLength="190" x="331.5" y="442.1807">displayMeetingInvitationsStates()</text><polygon fill="#181818" points="83.5,487.7344,73.5,491.7344,83.5,495.7344,79.5,491.7344" style="stroke:#181818;stroke-width:1.0;"/><line style="stroke:#181818;stroke-width:1.0;" x1="77.5" x2="318.5" y1="491.7344" y2="491.7344"/><text fill="#000000" font-family="sans-serif" font-size="13" lengthAdjust="spacing" textLength="173" x="89.5" y="486.4717">asks for confirmation/rejection</text><polygon fill="#181818" points="302.5,519.0254,312.5,523.0254,302.5,527.0254,306.5,523.0254" style="stroke:#181818;stroke-width:1.0;"/><line style="stroke:#181818;stroke-width:1.0;" x1="72.5" x2="308.5" y1="523.0254" y2="523.0254"/><text fill="#000000" font-family="sans-serif" font-size="13" lengthAdjust="spacing" textLength="78" x="79.5" y="517.7627">confirm/reject</text><polygon fill="#181818" points="621.5,550.3164,631.5,554.3164,621.5,558.3164,625.5,554.3164" style="stroke:#181818;stroke-width:1.0;"/><line style="stroke:#181818;stroke-width:1.0;" x1="324.5" x2="627.5" y1="554.3164" y2="554.3164"/><text fill="#000000" font-family="sans-serif" font-size="13" lengthAdjust="spacing" textLength="290" x="331.5" y="549.0537">alterMeetingInviteState( meetingInvite, inviteState )</text><polygon fill="#181818" points="968,581.6074,978,585.6074,968,589.6074,972,585.6074" style="stroke:#181818;stroke-width:1.0;"/><line style="stroke:#181818;stroke-width:1.0;" x1="643.5" x2="974" y1="585.6074" y2="585.6074"/><text fill="#000000" font-family="sans-serif" font-size="13" lengthAdjust="spacing" textLength="304" x="650.5" y="580.3447">updateMeetingInviteState( meetingInvite, inviteState )</text><polygon fill="#181818" points="654.5,612.8984,644.5,616.8984,654.5,620.8984,650.5,616.8984" style="stroke:#181818;stroke-width:1.0;"/><line style="stroke:#181818;stroke-width:1.0;stroke-dasharray:2.0,2.0;" x1="648.5" x2="984" y1="616.8984" y2="616.8984"/><text fill="#000000" font-family="sans-serif" font-size="13" lengthAdjust="spacing" textLength="75" x="660.5" y="611.6357">MeetingInvite</text><polygon fill="#181818" points="335.5,644.1895,325.5,648.1895,335.5,652.1895,331.5,648.1895" style="stroke:#181818;stroke-width:1.0;"/><line style="stroke:#181818;stroke-width:1.0;" x1="329.5" x2="637.5" y1="648.1895" y2="648.1895"/><text fill="#000000" font-family="sans-serif" font-size="13" lengthAdjust="spacing" textLength="29" x="341.5" y="642.9268">state</text><polygon fill="#181818" points="83.5,675.4805,73.5,679.4805,83.5,683.4805,79.5,679.4805" style="stroke:#181818;stroke-width:1.0;"/><line style="stroke:#181818;stroke-width:1.0;" x1="77.5" x2="313.5" y1="679.4805" y2="679.4805"/><text fill="#000000" font-family="sans-serif" font-size="13" lengthAdjust="spacing" textLength="218" x="89.5" y="674.2178">shows invitation confirmation/rejection</text><!--SRC=[dLJ1Zjem4BtdAtmhbSfos1kAaD1UYjIzB8jwTiD0N1pRyaoewDTt7BF1NWn8pO5WUzwyDpFF-T8IkVbivhGqr7VwgR7T30_AEEbbzzHIfwjnAJfhRDDwsu4WtqDoucHpa7jOqqc3yD1GLLMo8Ui5lDZU8wnFID1j4BoGA9RXg68egKOvfXQlqZ3-5O2KsQ_CKH5iLY6KV-lQUK0m94bPirWy0hvOGzvg7RcILLrBvxHgIdcMFRNMgx_3sHhyKJKmIDsyVsSWnXq6LLj9yfT441df6pYBYiiw1THbzSnWFwu2df-XVZ6TBhYyEVSBdJLRGLPqCQLG8USW1OLruHtQgOwIW24LDuMnbyhcOW-qr3fL5D6JhvNWPmHVCCD-qXnEEDGw5mY8Z3r3CtY867U7y6acXD7GIQN7c2rSOtFIj5Mtw_Yfg7q3dfLY7qmYYIW8JBADXod3bTmV2gdE9haeYV-SDw-1vt4xKv8bwNuSuG3SAkJxToeChvIJgzwik8pe8PvMQ_-Wq1mexAvae2eHmDuvU-_CZQ3vjXPW1R_T5xlcDmI_nU0FUH8FA7Ryjx5cftmt1Cyy_6RQG7DFt1boZiuKXSP-lWM1JHFuh5-3hCb7WN7lMwmpdfLSbCnfFBpdsjxnHm7-c_UXWn-wEAFEO7SyVCF76DILxi2LUtCBNhnpOzR_0000]--></g></svg>