<?xml version="1.0" encoding="us-ascii" standalone="no"?><svg xmlns="http://www.w3.org/2000/svg" xmlns:xlink="http://www.w3.org/1999/xlink" contentStyleType="text/css" height="563px" preserveAspectRatio="none" style="width:767px;height:563px;background:#FFFFFF;" version="1.1" viewBox="0 0 767 563" width="767px" zoomAndPan="magnify"><defs/><g><!--class eCourseSystemUser--><g id="elem_eCourseSystemUser"><rect codeLine="3" fill="#F1F1F1" height="113.7852" id="eCourseSystemUser" rx="2.5" ry="2.5" style="stroke:#181818;stroke-width:0.5;" width="161" x="257" y="7"/><ellipse cx="272" cy="37.2715" fill="#ADD1B2" rx="11" ry="11" style="stroke:#181818;stroke-width:1.0;"/><path d="M274.7656,33.1465 Q274.9219,32.9277 275.1094,32.8184 Q275.2969,32.709 275.5156,32.709 Q275.8906,32.709 276.125,32.9746 Q276.3594,33.2246 276.3594,33.834 L276.3594,35.2871 Q276.3594,35.8965 276.125,36.1621 Q275.8906,36.4277 275.5156,36.4277 Q275.1719,36.4277 274.9688,36.2246 Q274.7656,36.0371 274.6563,35.5215 Q274.6094,35.1621 274.4219,34.9746 Q274.0938,34.5996 273.4844,34.3809 Q272.875,34.1621 272.25,34.1621 Q271.4844,34.1621 270.8438,34.4902 Q270.2188,34.8184 269.7188,35.5684 Q269.2344,36.3184 269.2344,37.3496 L269.2344,38.4434 Q269.2344,39.6777 270.125,40.5059 Q271.0156,41.3184 272.6094,41.3184 Q273.5469,41.3184 274.2031,41.0684 Q274.5938,40.9121 275.0156,40.4746 Q275.2813,40.209 275.4219,40.1309 Q275.5781,40.0527 275.7813,40.0527 Q276.1094,40.0527 276.3594,40.3184 Q276.625,40.5684 276.625,40.9121 Q276.625,41.2559 276.2813,41.6621 Q275.7813,42.2402 274.9844,42.5684 Q273.9063,43.0215 272.6094,43.0215 Q271.0938,43.0215 269.8906,42.3965 Q268.9063,41.8965 268.2188,40.834 Q267.5313,39.7559 267.5313,38.4746 L267.5313,37.3184 Q267.5313,35.9902 268.1406,34.8496 Q268.7656,33.6934 269.8594,33.084 Q270.9531,32.459 272.1875,32.459 Q272.9219,32.459 273.5625,32.6309 Q274.2188,32.7871 274.7656,33.1465 Z " fill="#000000"/><text fill="#000000" font-family="sans-serif" font-size="12" font-style="italic" lengthAdjust="spacing" textLength="35" x="333" y="24.9492">&#171;root&#187;</text><text fill="#000000" font-family="sans-serif" font-size="12" font-style="italic" lengthAdjust="spacing" textLength="44" x="328.5" y="40.9102">&#171;Entity&#187;</text><text fill="#000000" font-family="sans-serif" font-size="14" lengthAdjust="spacing" textLength="129" x="286" y="59.0293">eCourseSystemUser</text><line style="stroke:#181818;stroke-width:0.5;" x1="258" x2="417" y1="67.543" y2="67.543"/><ellipse cx="268" cy="82.3535" fill="#000000" rx="3" ry="3" style="stroke:#000000;stroke-width:1.0;"/><text fill="#000000" font-family="sans-serif" font-size="14" lengthAdjust="spacing" textLength="59" x="277" y="86.6504">FullName</text><ellipse cx="268" cy="100.9746" fill="#000000" rx="3" ry="3" style="stroke:#000000;stroke-width:1.0;"/><text fill="#000000" font-family="sans-serif" font-size="14" lengthAdjust="spacing" textLength="70" x="277" y="105.2715">ShortName</text><line style="stroke:#181818;stroke-width:0.5;" x1="258" x2="417" y1="112.7852" y2="112.7852"/></g><!--class Email--><g id="elem_Email"><rect codeLine="7" fill="#F1F1F1" height="60.582" id="Email" rx="2.5" ry="2.5" style="stroke:#181818;stroke-width:0.5;" width="111" x="453" y="33.5"/><ellipse cx="468" cy="55.791" fill="#ADD1B2" rx="11" ry="11" style="stroke:#181818;stroke-width:1.0;"/><path d="M470.7656,51.666 Q470.9219,51.4473 471.1094,51.3379 Q471.2969,51.2285 471.5156,51.2285 Q471.8906,51.2285 472.125,51.4941 Q472.3594,51.7441 472.3594,52.3535 L472.3594,53.8066 Q472.3594,54.416 472.125,54.6816 Q471.8906,54.9473 471.5156,54.9473 Q471.1719,54.9473 470.9688,54.7441 Q470.7656,54.5566 470.6563,54.041 Q470.6094,53.6816 470.4219,53.4941 Q470.0938,53.1191 469.4844,52.9004 Q468.875,52.6816 468.25,52.6816 Q467.4844,52.6816 466.8438,53.0098 Q466.2188,53.3379 465.7188,54.0879 Q465.2344,54.8379 465.2344,55.8691 L465.2344,56.9629 Q465.2344,58.1973 466.125,59.0254 Q467.0156,59.8379 468.6094,59.8379 Q469.5469,59.8379 470.2031,59.5879 Q470.5938,59.4316 471.0156,58.9941 Q471.2813,58.7285 471.4219,58.6504 Q471.5781,58.5723 471.7813,58.5723 Q472.1094,58.5723 472.3594,58.8379 Q472.625,59.0879 472.625,59.4316 Q472.625,59.7754 472.2813,60.1816 Q471.7813,60.7598 470.9844,61.0879 Q469.9063,61.541 468.6094,61.541 Q467.0938,61.541 465.8906,60.916 Q464.9063,60.416 464.2188,59.3535 Q463.5313,58.2754 463.5313,56.9941 L463.5313,55.8379 Q463.5313,54.5098 464.1406,53.3691 Q464.7656,52.2129 465.8594,51.6035 Q466.9531,50.9785 468.1875,50.9785 Q468.9219,50.9785 469.5625,51.1504 Q470.2188,51.3066 470.7656,51.666 Z " fill="#000000"/><text fill="#000000" font-family="sans-serif" font-size="12" font-style="italic" lengthAdjust="spacing" textLength="83" x="480" y="51.4492">&#171;Value object&#187;</text><text fill="#000000" font-family="sans-serif" font-size="14" lengthAdjust="spacing" textLength="34" x="504.5" y="69.5684">Email</text><line style="stroke:#181818;stroke-width:0.5;" x1="454" x2="563" y1="78.082" y2="78.082"/><line style="stroke:#181818;stroke-width:0.5;" x1="454" x2="563" y1="86.082" y2="86.082"/></g><!--class ManageMeetingInviteUI--><g id="elem_ManageMeetingInviteUI"><rect codeLine="9" fill="#F1F1F1" height="85.2422" id="ManageMeetingInviteUI" rx="2.5" ry="2.5" style="stroke:#181818;stroke-width:0.5;" width="322" x="176.5" y="181"/><ellipse cx="260.25" cy="197" fill="#ADD1B2" rx="11" ry="11" style="stroke:#181818;stroke-width:1.0;"/><path d="M263.0156,192.875 Q263.1719,192.6563 263.3594,192.5469 Q263.5469,192.4375 263.7656,192.4375 Q264.1406,192.4375 264.375,192.7031 Q264.6094,192.9531 264.6094,193.5625 L264.6094,195.0156 Q264.6094,195.625 264.375,195.8906 Q264.1406,196.1563 263.7656,196.1563 Q263.4219,196.1563 263.2188,195.9531 Q263.0156,195.7656 262.9063,195.25 Q262.8594,194.8906 262.6719,194.7031 Q262.3438,194.3281 261.7344,194.1094 Q261.125,193.8906 260.5,193.8906 Q259.7344,193.8906 259.0938,194.2188 Q258.4688,194.5469 257.9688,195.2969 Q257.4844,196.0469 257.4844,197.0781 L257.4844,198.1719 Q257.4844,199.4063 258.375,200.2344 Q259.2656,201.0469 260.8594,201.0469 Q261.7969,201.0469 262.4531,200.7969 Q262.8438,200.6406 263.2656,200.2031 Q263.5313,199.9375 263.6719,199.8594 Q263.8281,199.7813 264.0313,199.7813 Q264.3594,199.7813 264.6094,200.0469 Q264.875,200.2969 264.875,200.6406 Q264.875,200.9844 264.5313,201.3906 Q264.0313,201.9688 263.2344,202.2969 Q262.1563,202.75 260.8594,202.75 Q259.3438,202.75 258.1406,202.125 Q257.1563,201.625 256.4688,200.5625 Q255.7813,199.4844 255.7813,198.2031 L255.7813,197.0469 Q255.7813,195.7188 256.3906,194.5781 Q257.0156,193.4219 258.1094,192.8125 Q259.2031,192.1875 260.4375,192.1875 Q261.1719,192.1875 261.8125,192.3594 Q262.4688,192.5156 263.0156,192.875 Z " fill="#000000"/><text fill="#000000" font-family="sans-serif" font-size="14" lengthAdjust="spacing" textLength="146" x="280.75" y="202.7969">ManageMeetingInviteUI</text><line style="stroke:#181818;stroke-width:0.5;" x1="177.5" x2="497.5" y1="213" y2="213"/><line style="stroke:#181818;stroke-width:0.5;" x1="177.5" x2="497.5" y1="221" y2="221"/><ellipse cx="187.5" cy="235.8105" fill="#84BE84" rx="3" ry="3" style="stroke:#038048;stroke-width:1.0;"/><text fill="#000000" font-family="sans-serif" font-size="14" lengthAdjust="spacing" textLength="296" x="196.5" y="240.1074">displayMeetingInvitations( List&lt;MeetingInvite&gt; )</text><ellipse cx="187.5" cy="254.4316" fill="#84BE84" rx="3" ry="3" style="stroke:#038048;stroke-width:1.0;"/><text fill="#000000" font-family="sans-serif" font-size="14" lengthAdjust="spacing" textLength="207" x="196.5" y="258.7285">displayMeetingInvitationsStates()</text></g><!--class ManageMeetingInviteController--><g id="elem_ManageMeetingInviteController"><rect codeLine="13" fill="#F1F1F1" height="85.2422" id="ManageMeetingInviteController" rx="2.5" ry="2.5" style="stroke:#181818;stroke-width:0.5;" width="345" x="165" y="326"/><ellipse cx="235.25" cy="342" fill="#ADD1B2" rx="11" ry="11" style="stroke:#181818;stroke-width:1.0;"/><path d="M238.0156,337.875 Q238.1719,337.6563 238.3594,337.5469 Q238.5469,337.4375 238.7656,337.4375 Q239.1406,337.4375 239.375,337.7031 Q239.6094,337.9531 239.6094,338.5625 L239.6094,340.0156 Q239.6094,340.625 239.375,340.8906 Q239.1406,341.1563 238.7656,341.1563 Q238.4219,341.1563 238.2188,340.9531 Q238.0156,340.7656 237.9063,340.25 Q237.8594,339.8906 237.6719,339.7031 Q237.3438,339.3281 236.7344,339.1094 Q236.125,338.8906 235.5,338.8906 Q234.7344,338.8906 234.0938,339.2188 Q233.4688,339.5469 232.9688,340.2969 Q232.4844,341.0469 232.4844,342.0781 L232.4844,343.1719 Q232.4844,344.4063 233.375,345.2344 Q234.2656,346.0469 235.8594,346.0469 Q236.7969,346.0469 237.4531,345.7969 Q237.8438,345.6406 238.2656,345.2031 Q238.5313,344.9375 238.6719,344.8594 Q238.8281,344.7813 239.0313,344.7813 Q239.3594,344.7813 239.6094,345.0469 Q239.875,345.2969 239.875,345.6406 Q239.875,345.9844 239.5313,346.3906 Q239.0313,346.9688 238.2344,347.2969 Q237.1563,347.75 235.8594,347.75 Q234.3438,347.75 233.1406,347.125 Q232.1563,346.625 231.4688,345.5625 Q230.7813,344.4844 230.7813,343.2031 L230.7813,342.0469 Q230.7813,340.7188 231.3906,339.5781 Q232.0156,338.4219 233.1094,337.8125 Q234.2031,337.1875 235.4375,337.1875 Q236.1719,337.1875 236.8125,337.3594 Q237.4688,337.5156 238.0156,337.875 Z " fill="#000000"/><text fill="#000000" font-family="sans-serif" font-size="14" lengthAdjust="spacing" textLength="196" x="255.75" y="347.7969">ManageMeetingInviteController</text><line style="stroke:#181818;stroke-width:0.5;" x1="166" x2="509" y1="358" y2="358"/><line style="stroke:#181818;stroke-width:0.5;" x1="166" x2="509" y1="366" y2="366"/><ellipse cx="176" cy="380.8105" fill="#84BE84" rx="3" ry="3" style="stroke:#038048;stroke-width:1.0;"/><text fill="#000000" font-family="sans-serif" font-size="14" lengthAdjust="spacing" textLength="158" x="185" y="385.1074">getAllMeetingInvitations()</text><ellipse cx="176" cy="399.4316" fill="#84BE84" rx="3" ry="3" style="stroke:#038048;stroke-width:1.0;"/><text fill="#000000" font-family="sans-serif" font-size="14" lengthAdjust="spacing" textLength="319" x="185" y="403.7285">alterMeetingInviteState( meetingInvite, inviteState )</text></g><!--class AuthorizationService--><g id="elem_AuthorizationService"><rect codeLine="17" fill="#F1F1F1" height="66.6211" id="AuthorizationService" rx="2.5" ry="2.5" style="stroke:#181818;stroke-width:0.5;" width="161" x="599" y="30.5"/><ellipse cx="614" cy="46.5" fill="#ADD1B2" rx="11" ry="11" style="stroke:#181818;stroke-width:1.0;"/><path d="M616.7656,42.375 Q616.9219,42.1563 617.1094,42.0469 Q617.2969,41.9375 617.5156,41.9375 Q617.8906,41.9375 618.125,42.2031 Q618.3594,42.4531 618.3594,43.0625 L618.3594,44.5156 Q618.3594,45.125 618.125,45.3906 Q617.8906,45.6563 617.5156,45.6563 Q617.1719,45.6563 616.9688,45.4531 Q616.7656,45.2656 616.6563,44.75 Q616.6094,44.3906 616.4219,44.2031 Q616.0938,43.8281 615.4844,43.6094 Q614.875,43.3906 614.25,43.3906 Q613.4844,43.3906 612.8438,43.7188 Q612.2188,44.0469 611.7188,44.7969 Q611.2344,45.5469 611.2344,46.5781 L611.2344,47.6719 Q611.2344,48.9063 612.125,49.7344 Q613.0156,50.5469 614.6094,50.5469 Q615.5469,50.5469 616.2031,50.2969 Q616.5938,50.1406 617.0156,49.7031 Q617.2813,49.4375 617.4219,49.3594 Q617.5781,49.2813 617.7813,49.2813 Q618.1094,49.2813 618.3594,49.5469 Q618.625,49.7969 618.625,50.1406 Q618.625,50.4844 618.2813,50.8906 Q617.7813,51.4688 616.9844,51.7969 Q615.9063,52.25 614.6094,52.25 Q613.0938,52.25 611.8906,51.625 Q610.9063,51.125 610.2188,50.0625 Q609.5313,48.9844 609.5313,47.7031 L609.5313,46.5469 Q609.5313,45.2188 610.1406,44.0781 Q610.7656,42.9219 611.8594,42.3125 Q612.9531,41.6875 614.1875,41.6875 Q614.9219,41.6875 615.5625,41.8594 Q616.2188,42.0156 616.7656,42.375 Z " fill="#000000"/><text fill="#000000" font-family="sans-serif" font-size="14" lengthAdjust="spacing" textLength="129" x="628" y="52.2969">AuthorizationService</text><line style="stroke:#181818;stroke-width:0.5;" x1="600" x2="759" y1="62.5" y2="62.5"/><line style="stroke:#181818;stroke-width:0.5;" x1="600" x2="759" y1="70.5" y2="70.5"/><ellipse cx="610" cy="85.3105" fill="#84BE84" rx="3" ry="3" style="stroke:#038048;stroke-width:1.0;"/><text fill="#000000" font-family="sans-serif" font-size="14" lengthAdjust="spacing" textLength="58" x="619" y="89.6074">session()</text></g><!--class MeetingInviteRepository--><g id="elem_MeetingInviteRepository"><rect codeLine="21" fill="#F1F1F1" height="85.2422" id="MeetingInviteRepository" rx="2.5" ry="2.5" style="stroke:#181818;stroke-width:0.5;" width="361" x="7" y="471"/><ellipse cx="107.25" cy="487" fill="#B4A7E5" rx="11" ry="11" style="stroke:#181818;stroke-width:1.0;"/><path d="M108.2031,483.6406 L108.2031,490.2969 L109.9219,490.2969 Q110.5313,490.2969 110.7969,490.5313 Q111.0625,490.7656 111.0625,491.1563 Q111.0625,491.5313 110.7969,491.7656 Q110.5313,492 109.9219,492 L104.7813,492 Q104.1719,492 103.9063,491.7656 Q103.6406,491.5313 103.6406,491.1406 Q103.6406,490.7656 103.9063,490.5313 Q104.1719,490.2969 104.7813,490.2969 L106.5,490.2969 L106.5,483.6406 L104.7813,483.6406 Q104.1719,483.6406 103.9063,483.4063 Q103.6406,483.1719 103.6406,482.7813 Q103.6406,482.4063 103.9063,482.1719 Q104.1719,481.9375 104.7813,481.9375 L109.9219,481.9375 Q110.5313,481.9375 110.7969,482.1719 Q111.0625,482.4063 111.0625,482.7813 Q111.0625,483.1719 110.7969,483.4063 Q110.5313,483.6406 109.9219,483.6406 L108.2031,483.6406 Z " fill="#000000"/><text fill="#000000" font-family="sans-serif" font-size="14" font-style="italic" lengthAdjust="spacing" textLength="152" x="127.75" y="492.7969">MeetingInviteRepository</text><line style="stroke:#181818;stroke-width:0.5;" x1="8" x2="367" y1="503" y2="503"/><line style="stroke:#181818;stroke-width:0.5;" x1="8" x2="367" y1="511" y2="511"/><ellipse cx="18" cy="525.8105" fill="#84BE84" rx="3" ry="3" style="stroke:#038048;stroke-width:1.0;"/><text fill="#000000" font-family="sans-serif" font-size="14" lengthAdjust="spacing" textLength="286" x="27" y="530.1074">getAllMeetingInvitationsWithRecipient( email )</text><ellipse cx="18" cy="544.4316" fill="#84BE84" rx="3" ry="3" style="stroke:#038048;stroke-width:1.0;"/><text fill="#000000" font-family="sans-serif" font-size="14" lengthAdjust="spacing" textLength="335" x="27" y="548.7285">updateMeetingInviteState( meetingInvite, inviteState )</text></g><!--class AuthenticationService--><g id="elem_AuthenticationService"><rect fill="#F1F1F1" height="48" id="AuthenticationService" rx="2.5" ry="2.5" style="stroke:#181818;stroke-width:0.5;" width="169" x="403" y="489.5"/><ellipse cx="418" cy="505.5" fill="#ADD1B2" rx="11" ry="11" style="stroke:#181818;stroke-width:1.0;"/><path d="M420.7656,501.375 Q420.9219,501.1563 421.1094,501.0469 Q421.2969,500.9375 421.5156,500.9375 Q421.8906,500.9375 422.125,501.2031 Q422.3594,501.4531 422.3594,502.0625 L422.3594,503.5156 Q422.3594,504.125 422.125,504.3906 Q421.8906,504.6563 421.5156,504.6563 Q421.1719,504.6563 420.9688,504.4531 Q420.7656,504.2656 420.6563,503.75 Q420.6094,503.3906 420.4219,503.2031 Q420.0938,502.8281 419.4844,502.6094 Q418.875,502.3906 418.25,502.3906 Q417.4844,502.3906 416.8438,502.7188 Q416.2188,503.0469 415.7188,503.7969 Q415.2344,504.5469 415.2344,505.5781 L415.2344,506.6719 Q415.2344,507.9063 416.125,508.7344 Q417.0156,509.5469 418.6094,509.5469 Q419.5469,509.5469 420.2031,509.2969 Q420.5938,509.1406 421.0156,508.7031 Q421.2813,508.4375 421.4219,508.3594 Q421.5781,508.2813 421.7813,508.2813 Q422.1094,508.2813 422.3594,508.5469 Q422.625,508.7969 422.625,509.1406 Q422.625,509.4844 422.2813,509.8906 Q421.7813,510.4688 420.9844,510.7969 Q419.9063,511.25 418.6094,511.25 Q417.0938,511.25 415.8906,510.625 Q414.9063,510.125 414.2188,509.0625 Q413.5313,507.9844 413.5313,506.7031 L413.5313,505.5469 Q413.5313,504.2188 414.1406,503.0781 Q414.7656,501.9219 415.8594,501.3125 Q416.9531,500.6875 418.1875,500.6875 Q418.9219,500.6875 419.5625,500.8594 Q420.2188,501.0156 420.7656,501.375 Z " fill="#000000"/><text fill="#000000" font-family="sans-serif" font-size="14" lengthAdjust="spacing" textLength="137" x="432" y="511.2969">AuthenticationService</text><line style="stroke:#181818;stroke-width:0.5;" x1="404" x2="571" y1="521.5" y2="521.5"/><line style="stroke:#181818;stroke-width:0.5;" x1="404" x2="571" y1="529.5" y2="529.5"/></g><!--link eCourseSystemUser to Email--><g id="link_eCourseSystemUser_Email"><path codeLine="29" d="M418.32,64 C429.83,64 441.34,64 452.84,64 " fill="none" id="eCourseSystemUser-Email" style="stroke:#181818;stroke-width:1.0;"/></g><!--link eCourseSystemUser to ManageMeetingInviteUI--><g id="link_eCourseSystemUser_ManageMeetingInviteUI"><path codeLine="30" d="M337.5,121.42 C337.5,141.01 337.5,162.62 337.5,180.81 " fill="none" id="eCourseSystemUser-ManageMeetingInviteUI" style="stroke:#181818;stroke-width:1.0;stroke-dasharray:7.0,7.0;"/></g><!--link ManageMeetingInviteUI to ManageMeetingInviteController--><g id="link_ManageMeetingInviteUI_ManageMeetingInviteController"><path codeLine="31" d="M337.5,266.25 C337.5,285.04 337.5,307.18 337.5,325.95 " fill="none" id="ManageMeetingInviteUI-ManageMeetingInviteController" style="stroke:#181818;stroke-width:1.0;stroke-dasharray:7.0,7.0;"/></g><!--link ManageMeetingInviteController to AuthenticationService--><g id="link_ManageMeetingInviteController_AuthenticationService"><path codeLine="32" d="M381.29,411.25 C407.92,436.64 440.95,468.12 463.04,489.18 " fill="none" id="ManageMeetingInviteController-AuthenticationService" style="stroke:#181818;stroke-width:1.0;stroke-dasharray:7.0,7.0;"/></g><!--link ManageMeetingInviteController to MeetingInviteRepository--><g id="link_ManageMeetingInviteController_MeetingInviteRepository"><path codeLine="33" d="M293.71,411.25 C273.99,430.04 250.78,452.18 231.08,470.95 " fill="none" id="ManageMeetingInviteController-MeetingInviteRepository" style="stroke:#181818;stroke-width:1.0;stroke-dasharray:7.0,7.0;"/></g><!--SRC=[dL9BJy904BxlhvYRHGNkXf0OWWc9UA11p-iobZ7xQ7Qc9DNutrqA5OX54lUoEpFz7ZFJgxL8oNV3OMcrbyhPWGbkQAncxgz85r4xfPeGS1Ago9ZNBEYMZ156enY2ZCVfCVL2KgVdfu9qhk6XilP9Ezo7-Jf4QUAlFTtKQR89-QnjXH1Utz4agbPihhqkS8uev8kPtv3WShRZle4LSR9R7rUrKF2SmIEnZ4vWO-XTWkNfHivwFzuwr2V1ImpMOcnT52ZtrdQOQFMq5Omd98rG1kuuTmjqgC71mtqbQMRqqP3c63Tai9LcP4xPnh4YdsJUj44uqLfW6PWanFgIuHUIzG8DbOHUCi1cCMqJLRbAllxHnVRy_cNwkxrtL0Q3xgMhpkoPpmzRKdzMj_3jW5F3P8udV1bsPiXAVGC0]--></g></svg>