<?xml version="1.0" encoding="us-ascii" standalone="no"?><svg xmlns="http://www.w3.org/2000/svg" xmlns:xlink="http://www.w3.org/1999/xlink" contentStyleType="text/css" height="1304.4px" preserveAspectRatio="none" style="width:424px;height:1304px;background:#FFFFFF;" version="1.1" viewBox="0 0 424 1304" width="424.8px" zoomAndPan="magnify"><defs/><g><!--class Manager--><g id="elem_Manager"><rect codeLine="2" fill="#F1F1F1" height="114.1969" id="Manager" rx="3" ry="3" style="stroke:#181818;stroke-width:0.6;" width="105.6" x="76.8" y="19.8"/><ellipse cx="94.8" cy="56.1258" fill="#ADD1B2" rx="13.2" ry="13.2" style="stroke:#181818;stroke-width:1.2;"/><path d="M98.1187,51.1758 Q98.3062,50.9133 98.5313,50.782 Q98.7563,50.6508 99.0188,50.6508 Q99.4688,50.6508 99.75,50.9695 Q100.0313,51.2695 100.0313,52.0008 L100.0313,53.7445 Q100.0313,54.4758 99.75,54.7945 Q99.4688,55.1133 99.0188,55.1133 Q98.6063,55.1133 98.3625,54.8695 Q98.1187,54.6445 97.9875,54.0258 Q97.9312,53.5945 97.7063,53.3695 Q97.3125,52.9195 96.5813,52.657 Q95.85,52.3945 95.1,52.3945 Q94.1812,52.3945 93.4125,52.7883 Q92.6625,53.182 92.0625,54.082 Q91.4813,54.982 91.4813,56.2195 L91.4813,57.532 Q91.4813,59.0133 92.55,60.007 Q93.6187,60.982 95.5313,60.982 Q96.6563,60.982 97.4438,60.682 Q97.9125,60.4945 98.4188,59.9695 Q98.7375,59.6508 98.9063,59.557 Q99.0938,59.4633 99.3375,59.4633 Q99.7313,59.4633 100.0313,59.782 Q100.35,60.082 100.35,60.4945 Q100.35,60.907 99.9375,61.3945 Q99.3375,62.0883 98.3813,62.482 Q97.0875,63.0258 95.5313,63.0258 Q93.7125,63.0258 92.2688,62.2758 Q91.0875,61.6758 90.2625,60.4008 Q89.4375,59.107 89.4375,57.5695 L89.4375,56.182 Q89.4375,54.5883 90.1688,53.2195 Q90.9188,51.832 92.2313,51.1008 Q93.5438,50.3508 95.025,50.3508 Q95.9063,50.3508 96.675,50.557 Q97.4625,50.7445 98.1187,51.1758 Z " fill="#000000"/><text fill="#000000" font-family="sans-serif" font-size="14.4" font-style="italic" lengthAdjust="spacing" textLength="42" x="124.2" y="41.3391">&#171;root&#187;</text><text fill="#000000" font-family="sans-serif" font-size="14.4" font-style="italic" lengthAdjust="spacing" textLength="51.6" x="119.4" y="60.4922">&#171;entity&#187;</text><text fill="#000000" font-family="sans-serif" font-size="16.8" lengthAdjust="spacing" textLength="67.2" x="111.6" y="82.2352">Manager</text><line style="stroke:#181818;stroke-width:0.6;" x1="78" x2="181.2" y1="92.4516" y2="92.4516"/><ellipse cx="90" cy="110.2242" fill="#000000" rx="3.6" ry="3.6" style="stroke:#000000;stroke-width:1.2;"/><text fill="#000000" font-family="sans-serif" font-size="16.8" lengthAdjust="spacing" textLength="42" x="100.8" y="115.3805">name</text><line style="stroke:#181818;stroke-width:0.6;" x1="78" x2="181.2" y1="124.3969" y2="124.3969"/></g><!--class SystemUser--><g id="elem_SystemUser"><rect codeLine="6" fill="#F1F1F1" height="136.5422" id="SystemUser" rx="3" ry="3" style="stroke:#181818;stroke-width:0.6;" width="128.4" x="267" y="8.4"/><ellipse cx="285" cy="44.7258" fill="#ADD1B2" rx="13.2" ry="13.2" style="stroke:#181818;stroke-width:1.2;"/><path d="M288.3187,39.7758 Q288.5062,39.5133 288.7313,39.382 Q288.9563,39.2508 289.2188,39.2508 Q289.6688,39.2508 289.95,39.5695 Q290.2313,39.8695 290.2313,40.6008 L290.2313,42.3445 Q290.2313,43.0758 289.95,43.3945 Q289.6688,43.7133 289.2188,43.7133 Q288.8063,43.7133 288.5625,43.4695 Q288.3187,43.2445 288.1875,42.6258 Q288.1312,42.1945 287.9063,41.9695 Q287.5125,41.5195 286.7813,41.257 Q286.05,40.9945 285.3,40.9945 Q284.3812,40.9945 283.6125,41.3883 Q282.8625,41.782 282.2625,42.682 Q281.6813,43.582 281.6813,44.8195 L281.6813,46.132 Q281.6813,47.6133 282.75,48.607 Q283.8187,49.582 285.7313,49.582 Q286.8563,49.582 287.6438,49.282 Q288.1125,49.0945 288.6188,48.5695 Q288.9375,48.2508 289.1063,48.157 Q289.2938,48.0633 289.5375,48.0633 Q289.9313,48.0633 290.2313,48.382 Q290.55,48.682 290.55,49.0945 Q290.55,49.507 290.1375,49.9945 Q289.5375,50.6883 288.5813,51.082 Q287.2875,51.6258 285.7313,51.6258 Q283.9125,51.6258 282.4688,50.8758 Q281.2875,50.2758 280.4625,49.0008 Q279.6375,47.707 279.6375,46.1695 L279.6375,44.782 Q279.6375,43.1883 280.3688,41.8195 Q281.1188,40.432 282.4313,39.7008 Q283.7438,38.9508 285.225,38.9508 Q286.1063,38.9508 286.875,39.157 Q287.6625,39.3445 288.3187,39.7758 Z " fill="#000000"/><text fill="#000000" font-family="sans-serif" font-size="14.4" font-style="italic" lengthAdjust="spacing" textLength="42" x="325.8" y="29.9391">&#171;root&#187;</text><text fill="#000000" font-family="sans-serif" font-size="14.4" font-style="italic" lengthAdjust="spacing" textLength="52.8" x="320.4" y="49.0922">&#171;Entity&#187;</text><text fill="#000000" font-family="sans-serif" font-size="16.8" lengthAdjust="spacing" textLength="90" x="301.8" y="70.8352">SystemUser</text><line style="stroke:#181818;stroke-width:0.6;" x1="268.2" x2="394.2" y1="81.0516" y2="81.0516"/><ellipse cx="280.2" cy="98.8242" fill="#000000" rx="3.6" ry="3.6" style="stroke:#000000;stroke-width:1.2;"/><text fill="#000000" font-family="sans-serif" font-size="16.8" lengthAdjust="spacing" textLength="70.8" x="291" y="103.9805">FullName</text><ellipse cx="280.2" cy="121.1695" fill="#000000" rx="3.6" ry="3.6" style="stroke:#000000;stroke-width:1.2;"/><text fill="#000000" font-family="sans-serif" font-size="16.8" lengthAdjust="spacing" textLength="84" x="291" y="126.3258">ShortName</text><line style="stroke:#181818;stroke-width:0.6;" x1="268.2" x2="394.2" y1="135.3422" y2="135.3422"/></g><!--class ApproveApplicationUI--><g id="elem_ApproveApplicationUI"><rect codeLine="11" fill="#F1F1F1" height="102.2906" id="ApproveApplicationUI" rx="3" ry="3" style="stroke:#181818;stroke-width:0.6;" width="217.2" x="45" y="240"/><ellipse cx="71.1" cy="259.2" fill="#ADD1B2" rx="13.2" ry="13.2" style="stroke:#181818;stroke-width:1.2;"/><path d="M74.4188,254.25 Q74.6063,253.9875 74.8313,253.8563 Q75.0562,253.725 75.3188,253.725 Q75.7688,253.725 76.05,254.0438 Q76.3313,254.3438 76.3313,255.075 L76.3313,256.8187 Q76.3313,257.55 76.05,257.8688 Q75.7688,258.1875 75.3188,258.1875 Q74.9063,258.1875 74.6625,257.9437 Q74.4188,257.7188 74.2875,257.1 Q74.2313,256.6688 74.0063,256.4437 Q73.6125,255.9937 72.8813,255.7313 Q72.15,255.4688 71.4,255.4688 Q70.4813,255.4688 69.7125,255.8625 Q68.9625,256.2562 68.3625,257.1563 Q67.7813,258.0563 67.7813,259.2938 L67.7813,260.6063 Q67.7813,262.0875 68.85,263.0813 Q69.9188,264.0563 71.8313,264.0563 Q72.9563,264.0563 73.7437,263.7562 Q74.2125,263.5687 74.7188,263.0438 Q75.0375,262.725 75.2063,262.6312 Q75.3938,262.5375 75.6375,262.5375 Q76.0313,262.5375 76.3313,262.8563 Q76.65,263.1563 76.65,263.5687 Q76.65,263.9813 76.2375,264.4688 Q75.6375,265.1625 74.6812,265.5563 Q73.3875,266.1 71.8313,266.1 Q70.0125,266.1 68.5688,265.35 Q67.3875,264.75 66.5625,263.475 Q65.7375,262.1813 65.7375,260.6438 L65.7375,259.2562 Q65.7375,257.6625 66.4688,256.2938 Q67.2188,254.9063 68.5313,254.175 Q69.8438,253.425 71.325,253.425 Q72.2063,253.425 72.975,253.6313 Q73.7625,253.8188 74.4188,254.25 Z " fill="#000000"/><text fill="#000000" font-family="sans-serif" font-size="16.8" lengthAdjust="spacing" textLength="160.8" x="89.7" y="266.1563">ApproveApplicationUI</text><line style="stroke:#181818;stroke-width:0.6;" x1="46.2" x2="261" y1="278.4" y2="278.4"/><line style="stroke:#181818;stroke-width:0.6;" x1="46.2" x2="261" y1="288" y2="288"/><ellipse cx="58.2" cy="305.7727" fill="#84BE84" rx="3.6" ry="3.6" style="stroke:#038048;stroke-width:1.2;"/><text fill="#000000" font-family="sans-serif" font-size="16.8" lengthAdjust="spacing" textLength="186" x="69" y="310.9289">listPendingApplications()</text><ellipse cx="58.2" cy="328.118" fill="#84BE84" rx="3.6" ry="3.6" style="stroke:#038048;stroke-width:1.2;"/><text fill="#000000" font-family="sans-serif" font-size="16.8" lengthAdjust="spacing" textLength="64.8" x="69" y="333.2742">display()</text></g><!--class ApproveApplicationController--><g id="elem_ApproveApplicationController"><rect codeLine="16" fill="#F1F1F1" height="79.9453" id="ApproveApplicationController" rx="3" ry="3" style="stroke:#181818;stroke-width:0.6;" width="259.2" x="8.4" y="415.2"/><ellipse cx="26.4" cy="434.4" fill="#ADD1B2" rx="13.2" ry="13.2" style="stroke:#181818;stroke-width:1.2;"/><path d="M29.7188,429.45 Q29.9063,429.1875 30.1312,429.0563 Q30.3563,428.925 30.6188,428.925 Q31.0687,428.925 31.35,429.2438 Q31.6312,429.5438 31.6312,430.275 L31.6312,432.0188 Q31.6312,432.75 31.35,433.0687 Q31.0687,433.3875 30.6188,433.3875 Q30.2062,433.3875 29.9625,433.1438 Q29.7188,432.9188 29.5875,432.3 Q29.5313,431.8688 29.3063,431.6438 Q28.9125,431.1937 28.1813,430.9313 Q27.45,430.6688 26.7,430.6688 Q25.7813,430.6688 25.0125,431.0625 Q24.2625,431.4563 23.6625,432.3563 Q23.0813,433.2562 23.0813,434.4938 L23.0813,435.8063 Q23.0813,437.2875 24.15,438.2813 Q25.2188,439.2562 27.1312,439.2562 Q28.2562,439.2562 29.0438,438.9563 Q29.5125,438.7688 30.0187,438.2438 Q30.3375,437.925 30.5062,437.8313 Q30.6937,437.7375 30.9375,437.7375 Q31.3312,437.7375 31.6312,438.0563 Q31.95,438.3563 31.95,438.7688 Q31.95,439.1813 31.5375,439.6688 Q30.9375,440.3625 29.9813,440.7562 Q28.6875,441.3 27.1312,441.3 Q25.3125,441.3 23.8688,440.55 Q22.6875,439.95 21.8625,438.675 Q21.0375,437.3812 21.0375,435.8438 L21.0375,434.4563 Q21.0375,432.8625 21.7688,431.4938 Q22.5188,430.1063 23.8313,429.375 Q25.1438,428.625 26.625,428.625 Q27.5062,428.625 28.275,428.8313 Q29.0625,429.0188 29.7188,429.45 Z " fill="#000000"/><text fill="#000000" font-family="sans-serif" font-size="16.8" lengthAdjust="spacing" textLength="220.8" x="43.2" y="441.3563">ApproveApplicationController</text><line style="stroke:#181818;stroke-width:0.6;" x1="9.6" x2="266.4" y1="453.6" y2="453.6"/><line style="stroke:#181818;stroke-width:0.6;" x1="9.6" x2="266.4" y1="463.2" y2="463.2"/><ellipse cx="21.6" cy="480.9727" fill="#84BE84" rx="3.6" ry="3.6" style="stroke:#038048;stroke-width:1.2;"/><text fill="#000000" font-family="sans-serif" font-size="16.8" lengthAdjust="spacing" textLength="164.4" x="32.4" y="486.1289">pendingApplications()</text></g><!--class ApproveApplicationService--><g id="elem_ApproveApplicationService"><rect codeLine="20" fill="#F1F1F1" height="79.9453" id="ApproveApplicationService" rx="3" ry="3" style="stroke:#181818;stroke-width:0.6;" width="241.2" x="111" y="568.8"/><ellipse cx="129" cy="588" fill="#ADD1B2" rx="13.2" ry="13.2" style="stroke:#181818;stroke-width:1.2;"/><path d="M132.3188,583.05 Q132.5063,582.7875 132.7313,582.6563 Q132.9562,582.525 133.2188,582.525 Q133.6688,582.525 133.95,582.8438 Q134.2313,583.1438 134.2313,583.875 L134.2313,585.6188 Q134.2313,586.35 133.95,586.6687 Q133.6688,586.9875 133.2188,586.9875 Q132.8063,586.9875 132.5625,586.7438 Q132.3188,586.5188 132.1875,585.9 Q132.1313,585.4688 131.9063,585.2438 Q131.5125,584.7937 130.7813,584.5313 Q130.05,584.2688 129.3,584.2688 Q128.3813,584.2688 127.6125,584.6625 Q126.8625,585.0563 126.2625,585.9563 Q125.6812,586.8562 125.6812,588.0938 L125.6812,589.4063 Q125.6812,590.8875 126.75,591.8813 Q127.8188,592.8562 129.7313,592.8562 Q130.8563,592.8562 131.6437,592.5563 Q132.1125,592.3688 132.6188,591.8438 Q132.9375,591.525 133.1063,591.4313 Q133.2938,591.3375 133.5375,591.3375 Q133.9313,591.3375 134.2313,591.6563 Q134.55,591.9563 134.55,592.3688 Q134.55,592.7813 134.1375,593.2688 Q133.5375,593.9625 132.5812,594.3562 Q131.2875,594.9 129.7313,594.9 Q127.9125,594.9 126.4688,594.15 Q125.2875,593.55 124.4625,592.275 Q123.6375,590.9812 123.6375,589.4438 L123.6375,588.0563 Q123.6375,586.4625 124.3687,585.0938 Q125.1187,583.7063 126.4312,582.975 Q127.7437,582.225 129.225,582.225 Q130.1063,582.225 130.875,582.4313 Q131.6625,582.6188 132.3188,583.05 Z " fill="#000000"/><text fill="#000000" font-family="sans-serif" font-size="16.8" lengthAdjust="spacing" textLength="202.8" x="145.8" y="594.9563">ApproveApplicationService</text><line style="stroke:#181818;stroke-width:0.6;" x1="112.2" x2="351" y1="607.2" y2="607.2"/><line style="stroke:#181818;stroke-width:0.6;" x1="112.2" x2="351" y1="616.8" y2="616.8"/><ellipse cx="124.2" cy="634.5727" fill="#84BE84" rx="3.6" ry="3.6" style="stroke:#038048;stroke-width:1.2;"/><text fill="#000000" font-family="sans-serif" font-size="16.8" lengthAdjust="spacing" textLength="186" x="135" y="639.7289">listPendingApplications()</text></g><!--class ApplicationRepository--><g id="elem_ApplicationRepository"><rect codeLine="24" fill="#F1F1F1" height="102.2906" id="ApplicationRepository" rx="3" ry="3" style="stroke:#181818;stroke-width:0.6;" width="242.4" x="110.4" y="722.4"/><ellipse cx="146.22" cy="741.6" fill="#B4A7E5" rx="13.2" ry="13.2" style="stroke:#181818;stroke-width:1.2;"/><path d="M147.3637,737.5688 L147.3637,745.5563 L149.4262,745.5563 Q150.1575,745.5563 150.4763,745.8375 Q150.795,746.1188 150.795,746.5875 Q150.795,747.0375 150.4763,747.3188 Q150.1575,747.6 149.4262,747.6 L143.2575,747.6 Q142.5262,747.6 142.2075,747.3188 Q141.8888,747.0375 141.8888,746.5688 Q141.8888,746.1188 142.2075,745.8375 Q142.5262,745.5563 143.2575,745.5563 L145.32,745.5563 L145.32,737.5688 L143.2575,737.5688 Q142.5262,737.5688 142.2075,737.2875 Q141.8888,737.0063 141.8888,736.5375 Q141.8888,736.0875 142.2075,735.8063 Q142.5262,735.525 143.2575,735.525 L149.4262,735.525 Q150.1575,735.525 150.4763,735.8063 Q150.795,736.0875 150.795,736.5375 Q150.795,737.0063 150.4763,737.2875 Q150.1575,737.5688 149.4262,737.5688 L147.3637,737.5688 Z " fill="#000000"/><text fill="#000000" font-family="sans-serif" font-size="16.8" font-style="italic" lengthAdjust="spacing" textLength="164.4" x="166.98" y="748.5563">ApplicationRepository</text><line style="stroke:#181818;stroke-width:0.6;" x1="111.6" x2="351.6" y1="760.8" y2="760.8"/><line style="stroke:#181818;stroke-width:0.6;" x1="111.6" x2="351.6" y1="770.4" y2="770.4"/><ellipse cx="123.6" cy="788.1727" fill="#84BE84" rx="3.6" ry="3.6" style="stroke:#038048;stroke-width:1.2;"/><text fill="#000000" font-family="sans-serif" font-size="16.8" lengthAdjust="spacing" textLength="176.4" x="134.4" y="793.3289">save(List&lt;Application&gt;)</text><ellipse cx="123.6" cy="810.518" fill="#84BE84" rx="3.6" ry="3.6" style="stroke:#038048;stroke-width:1.2;"/><text fill="#000000" font-family="sans-serif" font-size="16.8" lengthAdjust="spacing" textLength="211.2" x="134.4" y="815.6742">findAllPendingApplications()</text></g><!--class Application--><g id="elem_Application"><rect codeLine="29" fill="#F1F1F1" height="158.8875" id="Application" rx="3" ry="3" style="stroke:#181818;stroke-width:0.6;" width="121.2" x="263.4" y="919.2"/><ellipse cx="281.4" cy="955.5258" fill="#ADD1B2" rx="13.2" ry="13.2" style="stroke:#181818;stroke-width:1.2;"/><path d="M284.7188,950.5758 Q284.9063,950.3133 285.1312,950.182 Q285.3563,950.0508 285.6188,950.0508 Q286.0687,950.0508 286.35,950.3695 Q286.6312,950.6695 286.6312,951.4008 L286.6312,953.1445 Q286.6312,953.8758 286.35,954.1945 Q286.0687,954.5133 285.6188,954.5133 Q285.2063,954.5133 284.9625,954.2695 Q284.7188,954.0445 284.5875,953.4258 Q284.5313,952.9945 284.3063,952.7695 Q283.9125,952.3195 283.1813,952.057 Q282.45,951.7945 281.7,951.7945 Q280.7813,951.7945 280.0125,952.1883 Q279.2625,952.582 278.6625,953.482 Q278.0813,954.382 278.0813,955.6195 L278.0813,956.932 Q278.0813,958.4133 279.15,959.407 Q280.2188,960.382 282.1312,960.382 Q283.2562,960.382 284.0438,960.082 Q284.5125,959.8945 285.0188,959.3695 Q285.3375,959.0508 285.5062,958.957 Q285.6937,958.8633 285.9375,958.8633 Q286.3313,958.8633 286.6312,959.182 Q286.95,959.482 286.95,959.8945 Q286.95,960.307 286.5375,960.7945 Q285.9375,961.4883 284.9813,961.882 Q283.6875,962.4258 282.1312,962.4258 Q280.3125,962.4258 278.8688,961.6758 Q277.6875,961.0758 276.8625,959.8008 Q276.0375,958.507 276.0375,956.9695 L276.0375,955.582 Q276.0375,953.9883 276.7688,952.6195 Q277.5188,951.232 278.8313,950.5008 Q280.1438,949.7508 281.625,949.7508 Q282.5062,949.7508 283.275,949.957 Q284.0625,950.1445 284.7188,950.5758 Z " fill="#000000"/><text fill="#000000" font-family="sans-serif" font-size="14.4" font-style="italic" lengthAdjust="spacing" textLength="42" x="318.6" y="940.7391">&#171;root&#187;</text><text fill="#000000" font-family="sans-serif" font-size="14.4" font-style="italic" lengthAdjust="spacing" textLength="51.6" x="313.8" y="959.8922">&#171;entity&#187;</text><text fill="#000000" font-family="sans-serif" font-size="16.8" lengthAdjust="spacing" textLength="82.8" x="298.2" y="981.6352">Application</text><line style="stroke:#181818;stroke-width:0.6;" x1="264.6" x2="383.4" y1="991.8516" y2="991.8516"/><ellipse cx="276.6" cy="1009.6242" fill="#000000" rx="3.6" ry="3.6" style="stroke:#000000;stroke-width:1.2;"/><text fill="#000000" font-family="sans-serif" font-size="16.8" lengthAdjust="spacing" textLength="13.2" x="287.4" y="1014.7805">id</text><ellipse cx="276.6" cy="1031.9695" fill="#000000" rx="3.6" ry="3.6" style="stroke:#000000;stroke-width:1.2;"/><text fill="#000000" font-family="sans-serif" font-size="16.8" lengthAdjust="spacing" textLength="56.4" x="287.4" y="1037.1258">student</text><ellipse cx="276.6" cy="1054.3148" fill="#000000" rx="3.6" ry="3.6" style="stroke:#000000;stroke-width:1.2;"/><text fill="#000000" font-family="sans-serif" font-size="16.8" lengthAdjust="spacing" textLength="51.6" x="287.4" y="1059.4711">course</text><line style="stroke:#181818;stroke-width:0.6;" x1="264.6" x2="383.4" y1="1068.4875" y2="1068.4875"/></g><!--class ApplicationStatus--><g id="elem_ApplicationStatus"><rect codeLine="35" fill="#F1F1F1" height="124.6359" id="ApplicationStatus" rx="3" ry="3" style="stroke:#181818;stroke-width:0.6;" width="169.2" x="239.4" y="1172.4"/><ellipse cx="257.4" cy="1191.6" fill="#EB937F" rx="13.2" ry="13.2" style="stroke:#181818;stroke-width:1.2;"/><path d="M256.0313,1192.5562 L256.0313,1195.5562 L261.225,1195.5562 L261.225,1194.45 Q261.225,1193.7188 261.5062,1193.4 Q261.8063,1193.0813 262.2562,1193.0813 Q262.7063,1193.0813 262.9875,1193.4 Q263.2688,1193.7188 263.2688,1194.45 L263.2688,1197.6 L253.6688,1197.6 Q252.9188,1197.6 252.6,1197.3188 Q252.3,1197.0375 252.3,1196.5688 Q252.3,1196.1187 252.6187,1195.8375 Q252.9375,1195.5562 253.6688,1195.5562 L253.9875,1195.5562 L253.9875,1187.5688 L253.6688,1187.5688 Q252.9188,1187.5688 252.6,1187.2875 Q252.3,1187.0063 252.3,1186.5375 Q252.3,1186.0875 252.6,1185.8062 Q252.9188,1185.525 253.6688,1185.525 L262.8187,1185.525 L262.8187,1188.6375 Q262.8187,1189.3687 262.5375,1189.6875 Q262.275,1189.9875 261.8063,1189.9875 Q261.3563,1189.9875 261.075,1189.6875 Q260.7938,1189.3687 260.7938,1188.6375 L260.7938,1187.5688 L256.0313,1187.5688 L256.0313,1190.5125 L257.8125,1190.5125 Q257.8125,1189.725 257.9625,1189.5 Q258.2813,1189.0125 258.8438,1189.0125 Q259.2938,1189.0125 259.575,1189.3313 Q259.8563,1189.6313 259.8563,1190.3625 L259.8563,1192.725 Q259.8563,1193.3813 259.7063,1193.6063 Q259.3875,1194.075 258.8438,1194.075 Q258.2813,1194.075 257.9625,1193.5875 Q257.8125,1193.3625 257.8125,1192.5562 L256.0313,1192.5562 Z " fill="#000000"/><text fill="#000000" font-family="sans-serif" font-size="16.8" lengthAdjust="spacing" textLength="130.8" x="274.2" y="1198.5562">ApplicationStatus</text><line style="stroke:#181818;stroke-width:0.6;" x1="240.6" x2="407.4" y1="1210.8" y2="1210.8"/><text fill="#000000" font-family="sans-serif" font-size="16.8" lengthAdjust="spacing" textLength="72" x="246.6" y="1233.7289">PENDING</text><text fill="#000000" font-family="sans-serif" font-size="16.8" lengthAdjust="spacing" textLength="91.2" x="246.6" y="1256.0742">APPROVED</text><text fill="#000000" font-family="sans-serif" font-size="16.8" lengthAdjust="spacing" textLength="86.4" x="246.6" y="1278.4195">REJECTED</text><line style="stroke:#181818;stroke-width:0.6;" x1="240.6" x2="407.4" y1="1287.4359" y2="1287.4359"/></g><!--link Manager to SystemUser--><g id="link_Manager_SystemUser"><path codeLine="41" d="M182.568,76.8 C208.356,76.8 239.568,76.8 266.724,76.8 " fill="none" id="Manager-SystemUser" style="stroke:#181818;stroke-width:1.2;"/><polygon fill="#000000" points="215.1,61.9746,204.2459,58.4479,204.2459,65.5013,215.1,61.9746" style="stroke:#000000;stroke-width:1.2;"/><text fill="#000000" font-family="sans-serif" font-size="15.6" lengthAdjust="spacing" textLength="25.2" x="219.9" y="68.434">is a</text><text fill="#000000" font-family="sans-serif" font-size="15.6" lengthAdjust="spacing" textLength="6" x="191.8377" y="71.5572">*</text><text fill="#000000" font-family="sans-serif" font-size="15.6" lengthAdjust="spacing" textLength="8.4" x="249.0957" y="71.9041">1</text></g><!--link SystemUser to ApproveApplicationService--><g id="link_SystemUser_ApproveApplicationService"><path codeLine="42" d="M331.656,145.248 C330.54,228.984 323.076,375.624 288,495.6 C280.536,521.124 267.372,547.812 255.648,568.74 " fill="none" id="SystemUser-ApproveApplicationService" style="stroke:#181818;stroke-width:1.2;"/><text fill="#000000" font-family="sans-serif" font-size="15.6" lengthAdjust="spacing" textLength="8.4" x="322.8231" y="171.2108">1</text><text fill="#000000" font-family="sans-serif" font-size="15.6" lengthAdjust="spacing" textLength="8.4" x="251.1556" y="555.3188">1</text></g><!--link SystemUser to Application--><g id="link_SystemUser_Application"><path codeLine="43" d="M373.548,145.38 C394.932,185.7 416.4,238.872 416.4,289.8 C416.4,289.8 416.4,289.8 416.4,774.6 C416.4,825.228 395.76,877.728 373.992,919.02 " fill="none" id="SystemUser-Application" style="stroke:#181818;stroke-width:1.2;"/></g><!--link SystemUser to ApproveApplicationUI--><g id="link_SystemUser_ApproveApplicationUI"><path codeLine="45" d="M268.5,145.608 C258.024,157.344 247.392,169.524 237.6,181.2 C221.832,200.016 205.152,221.268 190.848,239.964 " fill="none" id="SystemUser-ApproveApplicationUI" style="stroke:#181818;stroke-width:1.2;stroke-dasharray:7.0,7.0;"/><text fill="#000000" font-family="sans-serif" font-size="15.6" lengthAdjust="spacing" textLength="60" x="238.8" y="199.234">interacts</text></g><!--link ApproveApplicationUI to ApproveApplicationController--><g id="link_ApproveApplicationUI_ApproveApplicationController"><path codeLine="46" d="M148.788,342.132 C146.532,365.556 143.892,393.072 141.78,414.972 " fill="none" id="ApproveApplicationUI-ApproveApplicationController" style="stroke:#181818;stroke-width:1.2;"/></g><!--link ApproveApplicationController to ApproveApplicationService--><g id="link_ApproveApplicationController_ApproveApplicationService"><path codeLine="47" d="M162.348,495.936 C176.22,518.328 193.524,546.3 207.372,568.668 " fill="none" id="ApproveApplicationController-ApproveApplicationService" style="stroke:#181818;stroke-width:1.2;"/></g><!--link ApproveApplicationService to ApplicationRepository--><g id="link_ApproveApplicationService_ApplicationRepository"><path codeLine="48" d="M231.6,649.416 C231.6,671.328 231.6,698.856 231.6,722.292 " fill="none" id="ApproveApplicationService-ApplicationRepository" style="stroke:#181818;stroke-width:1.2;"/></g><!--link ApplicationRepository to Application--><g id="link_ApplicationRepository_Application"><path codeLine="49" d="M252.336,824.556 C263.88,852.372 278.52,887.616 291.54,919.008 " fill="none" id="ApplicationRepository-Application" style="stroke:#181818;stroke-width:1.2;"/><text fill="#000000" font-family="sans-serif" font-size="15.6" lengthAdjust="spacing" textLength="30" x="277.2" y="878.434">repo</text></g><!--link Application to ApplicationStatus--><g id="link_Application_ApplicationStatus"><path codeLine="50" d="M324,1077.84 C324,1108.536 324,1143.24 324,1172.088 " fill="none" id="Application-ApplicationStatus" style="stroke:#181818;stroke-width:1.2;"/><text fill="#000000" font-family="sans-serif" font-size="15.6" lengthAdjust="spacing" textLength="25.2" x="325.2" y="1131.634">has</text></g><!--SRC=[XL9VQy8m47_FfmXzSWw5lOuYY7R3iNN5phs7zjH0J4hkAfInxxxOrXcrrRpaBhy_kUGkKmAHVmWjDc1v65fZQ39n0MYILBdmXmsv5ZjWlunbDJkja62tmdD1T19mjuRyfLGgFWYRDDqQI_6PqRGehDc3svJC14cZLuj6_QWaKW8wbthZmJXuQE1SOg54vT8RPZEZoHgbmBQcHQVX3OSKx5vcSBScPo4rWLsB3BY7BQ4mACdOghL0iOV1k_C9FTQaVTHQwdogL7AtokDvJx-Q_vPv6o2LkKFRB3EbnRe7eCkTxvQIe18RUHB5yqNyMiVJ95b-VaVpEbb6Rz7iooNEm9k3u2dW8mLh6l5W6FpFqpENo0KFhwYZUklzS9_lk1xXxDRnk7E43jSUkY4oGjP9Q3nxnuNT0hl5ny9xaOjtd2Q3TPvUqDsJhCDyxWMZwPxZRGMoFm00]--></g></svg>