<?xml version="1.0" encoding="us-ascii" standalone="no"?><svg xmlns="http://www.w3.org/2000/svg" xmlns:xlink="http://www.w3.org/1999/xlink" contentStyleType="text/css" height="1077px" preserveAspectRatio="none" style="width:1328px;height:1077px;background:#FFFFFF;" version="1.1" viewBox="0 0 1328 1077" width="1328px" zoomAndPan="magnify"><defs/><g><rect fill="#FFFFFF" height="862.2754" style="stroke:#181818;stroke-width:1.0;" width="10" x="46" y="98.2422"/><rect fill="#FFFFFF" height="537.3652" style="stroke:#181818;stroke-width:1.0;" width="10" x="340" y="121.5332"/><rect fill="#FFFFFF" height="38.291" style="stroke:#181818;stroke-width:1.0;" width="10" x="340" y="690.1895"/><rect fill="#FFFFFF" height="31.291" style="stroke:#181818;stroke-width:1.0;" width="10" x="340" y="929.2266"/><rect fill="#FFFFFF" height="30" style="stroke:#181818;stroke-width:1.0;" width="10" x="523" y="152.8242"/><rect fill="#FFFFFF" height="342.9102" style="stroke:#181818;stroke-width:1.0;" width="10" x="523" y="214.1152"/><rect fill="#FFFFFF" height="31.291" style="stroke:#181818;stroke-width:1.0;" width="10" x="523" y="728.4805"/><rect fill="#FFFFFF" height="31.291" style="stroke:#181818;stroke-width:1.0;" width="10" x="523" y="897.9355"/><rect fill="#FFFFFF" height="31.291" style="stroke:#181818;stroke-width:1.0;" width="10" x="703.5" y="245.4063"/><rect fill="#FFFFFF" height="31.291" style="stroke:#181818;stroke-width:1.0;" width="10" x="831.5" y="307.9883"/><rect fill="#FFFFFF" height="30" style="stroke:#181818;stroke-width:1.0;" width="10" x="979.5" y="370.5703"/><rect fill="#FFFFFF" height="93.873" style="stroke:#181818;stroke-width:1.0;" width="10" x="979.5" y="431.8613"/><rect fill="#FFFFFF" height="31.291" style="stroke:#181818;stroke-width:1.0;" width="10" x="979.5" y="759.7715"/><rect fill="#FFFFFF" height="31.291" style="stroke:#181818;stroke-width:1.0;" width="10" x="979.5" y="866.6445"/><rect fill="#FFFFFF" height="31.291" style="stroke:#181818;stroke-width:1.0;" width="10" x="1169.5" y="463.1523"/><rect fill="#FFFFFF" height="75.582" style="stroke:#181818;stroke-width:1.0;" width="10" x="1169.5" y="791.0625"/><rect fill="none" height="81.873" style="stroke:#000000;stroke-width:1.5;" width="419" x="10" y="616.3164"/><line style="stroke:#181818;stroke-width:0.5;stroke-dasharray:5.0,5.0;" x1="51" x2="51" y1="88.2422" y2="978.5176"/><line style="stroke:#181818;stroke-width:0.5;stroke-dasharray:5.0,5.0;" x1="345" x2="345" y1="88.2422" y2="978.5176"/><line style="stroke:#181818;stroke-width:0.5;stroke-dasharray:5.0,5.0;" x1="528" x2="528" y1="88.2422" y2="978.5176"/><line style="stroke:#181818;stroke-width:0.5;stroke-dasharray:5.0,5.0;" x1="708" x2="708" y1="88.2422" y2="978.5176"/><line style="stroke:#181818;stroke-width:0.5;stroke-dasharray:5.0,5.0;" x1="836" x2="836" y1="88.2422" y2="978.5176"/><line style="stroke:#181818;stroke-width:0.5;stroke-dasharray:5.0,5.0;" x1="984" x2="984" y1="88.2422" y2="978.5176"/><line style="stroke:#181818;stroke-width:0.5;stroke-dasharray:5.0,5.0;" x1="1174" x2="1174" y1="88.2422" y2="978.5176"/><text fill="#000000" font-family="sans-serif" font-size="14" lengthAdjust="spacing" textLength="56" x="20" y="84.7285">Manager</text><ellipse cx="51" cy="18.1211" fill="#E3E3E3" rx="8" ry="8" style="stroke:#181818;stroke-width:0.5;"/><path d="M51,26.1211 L51,53.1211 M38,34.1211 L64,34.1211 M51,53.1211 L38,68.1211 M51,53.1211 L64,68.1211 " fill="none" style="stroke:#181818;stroke-width:0.5;"/><text fill="#000000" font-family="sans-serif" font-size="14" lengthAdjust="spacing" textLength="56" x="20" y="992.625">Manager</text><ellipse cx="51" cy="1004.6387" fill="#E3E3E3" rx="8" ry="8" style="stroke:#181818;stroke-width:0.5;"/><path d="M51,1012.6387 L51,1039.6387 M38,1020.6387 L64,1020.6387 M51,1039.6387 L38,1054.6387 M51,1039.6387 L64,1054.6387 " fill="none" style="stroke:#181818;stroke-width:0.5;"/><rect fill="#E3E3E3" height="51.2422" rx="2.5" ry="2.5" style="stroke:#181818;stroke-width:0.5;" width="148" x="271" y="36"/><text fill="#000000" font-family="sans-serif" font-size="14" font-style="italic" lengthAdjust="spacing" textLength="95" x="297.5" y="58.1074">&#171;presentation&#187;</text><text fill="#000000" font-family="sans-serif" font-size="14" lengthAdjust="spacing" textLength="134" x="278" y="76.7285">ApproveApplicationUI</text><rect fill="#E3E3E3" height="51.2422" rx="2.5" ry="2.5" style="stroke:#181818;stroke-width:0.5;" width="148" x="271" y="977.5176"/><text fill="#000000" font-family="sans-serif" font-size="14" font-style="italic" lengthAdjust="spacing" textLength="95" x="297.5" y="999.625">&#171;presentation&#187;</text><text fill="#000000" font-family="sans-serif" font-size="14" lengthAdjust="spacing" textLength="134" x="278" y="1018.2461">ApproveApplicationUI</text><rect fill="#E3E3E3" height="51.2422" rx="2.5" ry="2.5" style="stroke:#181818;stroke-width:0.5;" width="198" x="429" y="36"/><text fill="#000000" font-family="sans-serif" font-size="14" font-style="italic" lengthAdjust="spacing" textLength="84" x="486" y="58.1074">&#171;application&#187;</text><text fill="#000000" font-family="sans-serif" font-size="14" lengthAdjust="spacing" textLength="184" x="436" y="76.7285">ApproveApplicationController</text><rect fill="#E3E3E3" height="51.2422" rx="2.5" ry="2.5" style="stroke:#181818;stroke-width:0.5;" width="198" x="429" y="977.5176"/><text fill="#000000" font-family="sans-serif" font-size="14" font-style="italic" lengthAdjust="spacing" textLength="84" x="486" y="999.625">&#171;application&#187;</text><text fill="#000000" font-family="sans-serif" font-size="14" lengthAdjust="spacing" textLength="184" x="436" y="1018.2461">ApproveApplicationController</text><rect fill="#E3E3E3" height="32.6211" rx="2.5" ry="2.5" style="stroke:#181818;stroke-width:0.5;" width="143" x="637" y="54.6211"/><text fill="#000000" font-family="sans-serif" font-size="14" lengthAdjust="spacing" textLength="129" x="644" y="76.7285">AuthorizationService</text><rect fill="#E3E3E3" height="32.6211" rx="2.5" ry="2.5" style="stroke:#181818;stroke-width:0.5;" width="143" x="637" y="977.5176"/><text fill="#000000" font-family="sans-serif" font-size="14" lengthAdjust="spacing" textLength="129" x="644" y="999.625">AuthorizationService</text><rect fill="#E3E3E3" height="32.6211" rx="2.5" ry="2.5" style="stroke:#181818;stroke-width:0.5;" width="93" x="790" y="54.6211"/><text fill="#000000" font-family="sans-serif" font-size="14" lengthAdjust="spacing" textLength="79" x="797" y="76.7285">UserSession</text><rect fill="#E3E3E3" height="32.6211" rx="2.5" ry="2.5" style="stroke:#181818;stroke-width:0.5;" width="93" x="790" y="977.5176"/><text fill="#000000" font-family="sans-serif" font-size="14" lengthAdjust="spacing" textLength="79" x="797" y="999.625">UserSession</text><rect fill="#E3E3E3" height="51.2422" rx="2.5" ry="2.5" style="stroke:#181818;stroke-width:0.5;" width="183" x="893" y="36"/><text fill="#000000" font-family="sans-serif" font-size="14" font-style="italic" lengthAdjust="spacing" textLength="60" x="954.5" y="58.1074">&#171;service&#187;</text><text fill="#000000" font-family="sans-serif" font-size="14" lengthAdjust="spacing" textLength="169" x="900" y="76.7285">ApproveApplicationService</text><rect fill="#E3E3E3" height="51.2422" rx="2.5" ry="2.5" style="stroke:#181818;stroke-width:0.5;" width="183" x="893" y="977.5176"/><text fill="#000000" font-family="sans-serif" font-size="14" font-style="italic" lengthAdjust="spacing" textLength="60" x="954.5" y="999.625">&#171;service&#187;</text><text fill="#000000" font-family="sans-serif" font-size="14" lengthAdjust="spacing" textLength="169" x="900" y="1018.2461">ApproveApplicationService</text><text fill="#000000" font-family="sans-serif" font-size="14" font-style="italic" lengthAdjust="spacing" textLength="79" x="1132" y="66.1074">&#171;repository&#187;</text><text fill="#000000" font-family="sans-serif" font-size="14" lengthAdjust="spacing" textLength="137" x="1103" y="84.7285">ApplicationRepository</text><path d="M1156.5,15 C1156.5,5 1174.5,5 1174.5,5 C1174.5,5 1192.5,5 1192.5,15 L1192.5,41 C1192.5,51 1174.5,51 1174.5,51 C1174.5,51 1156.5,51 1156.5,41 L1156.5,15 " fill="#E3E3E3" style="stroke:#181818;stroke-width:1.5;"/><path d="M1156.5,15 C1156.5,25 1174.5,25 1174.5,25 C1174.5,25 1192.5,25 1192.5,15 " fill="none" style="stroke:#181818;stroke-width:1.5;"/><text fill="#000000" font-family="sans-serif" font-size="14" font-style="italic" lengthAdjust="spacing" textLength="79" x="1132" y="992.625">&#171;repository&#187;</text><text fill="#000000" font-family="sans-serif" font-size="14" lengthAdjust="spacing" textLength="137" x="1103" y="1011.2461">ApplicationRepository</text><path d="M1156.5,1024.7598 C1156.5,1014.7598 1174.5,1014.7598 1174.5,1014.7598 C1174.5,1014.7598 1192.5,1014.7598 1192.5,1024.7598 L1192.5,1050.7598 C1192.5,1060.7598 1174.5,1060.7598 1174.5,1060.7598 C1174.5,1060.7598 1156.5,1060.7598 1156.5,1050.7598 L1156.5,1024.7598 " fill="#E3E3E3" style="stroke:#181818;stroke-width:1.5;"/><path d="M1156.5,1024.7598 C1156.5,1034.7598 1174.5,1034.7598 1174.5,1034.7598 C1174.5,1034.7598 1192.5,1034.7598 1192.5,1024.7598 " fill="none" style="stroke:#181818;stroke-width:1.5;"/><rect fill="#FFFFFF" height="862.2754" style="stroke:#181818;stroke-width:1.0;" width="10" x="46" y="98.2422"/><rect fill="#FFFFFF" height="537.3652" style="stroke:#181818;stroke-width:1.0;" width="10" x="340" y="121.5332"/><rect fill="#FFFFFF" height="38.291" style="stroke:#181818;stroke-width:1.0;" width="10" x="340" y="690.1895"/><rect fill="#FFFFFF" height="31.291" style="stroke:#181818;stroke-width:1.0;" width="10" x="340" y="929.2266"/><rect fill="#FFFFFF" height="30" style="stroke:#181818;stroke-width:1.0;" width="10" x="523" y="152.8242"/><rect fill="#FFFFFF" height="342.9102" style="stroke:#181818;stroke-width:1.0;" width="10" x="523" y="214.1152"/><rect fill="#FFFFFF" height="31.291" style="stroke:#181818;stroke-width:1.0;" width="10" x="523" y="728.4805"/><rect fill="#FFFFFF" height="31.291" style="stroke:#181818;stroke-width:1.0;" width="10" x="523" y="897.9355"/><rect fill="#FFFFFF" height="31.291" style="stroke:#181818;stroke-width:1.0;" width="10" x="703.5" y="245.4063"/><rect fill="#FFFFFF" height="31.291" style="stroke:#181818;stroke-width:1.0;" width="10" x="831.5" y="307.9883"/><rect fill="#FFFFFF" height="30" style="stroke:#181818;stroke-width:1.0;" width="10" x="979.5" y="370.5703"/><rect fill="#FFFFFF" height="93.873" style="stroke:#181818;stroke-width:1.0;" width="10" x="979.5" y="431.8613"/><rect fill="#FFFFFF" height="31.291" style="stroke:#181818;stroke-width:1.0;" width="10" x="979.5" y="759.7715"/><rect fill="#FFFFFF" height="31.291" style="stroke:#181818;stroke-width:1.0;" width="10" x="979.5" y="866.6445"/><rect fill="#FFFFFF" height="31.291" style="stroke:#181818;stroke-width:1.0;" width="10" x="1169.5" y="463.1523"/><rect fill="#FFFFFF" height="75.582" style="stroke:#181818;stroke-width:1.0;" width="10" x="1169.5" y="791.0625"/><polygon fill="#181818" points="328,117.5332,338,121.5332,328,125.5332,332,121.5332" style="stroke:#181818;stroke-width:1.0;"/><line style="stroke:#181818;stroke-width:1.0;stroke-dasharray:2.0,2.0;" x1="56" x2="334" y1="121.5332" y2="121.5332"/><text fill="#000000" font-family="sans-serif" font-size="13" lengthAdjust="spacing" textLength="167" x="63" y="116.2705">List Applications for Approval</text><polygon fill="#181818" points="511,148.8242,521,152.8242,511,156.8242,515,152.8242" style="stroke:#181818;stroke-width:1.0;"/><line style="stroke:#181818;stroke-width:1.0;" x1="350" x2="517" y1="152.8242" y2="152.8242"/><text fill="#000000" font-family="sans-serif" font-size="13" lengthAdjust="spacing" textLength="36" x="357" y="147.5615">create</text><polygon fill="#181818" points="511,210.1152,521,214.1152,511,218.1152,515,214.1152" style="stroke:#181818;stroke-width:1.0;"/><line style="stroke:#181818;stroke-width:1.0;" x1="350" x2="517" y1="214.1152" y2="214.1152"/><text fill="#000000" font-family="sans-serif" font-size="13" lengthAdjust="spacing" textLength="143" x="357" y="208.8525">listPendingApplications()</text><polygon fill="#181818" points="691.5,241.4063,701.5,245.4063,691.5,249.4063,695.5,245.4063" style="stroke:#181818;stroke-width:1.0;"/><line style="stroke:#181818;stroke-width:1.0;" x1="533" x2="697.5" y1="245.4063" y2="245.4063"/><text fill="#000000" font-family="sans-serif" font-size="13" lengthAdjust="spacing" textLength="53" x="540" y="240.1436">session()</text><polygon fill="#181818" points="544,272.6973,534,276.6973,544,280.6973,540,276.6973" style="stroke:#181818;stroke-width:1.0;"/><line style="stroke:#181818;stroke-width:1.0;stroke-dasharray:2.0,2.0;" x1="538" x2="707.5" y1="276.6973" y2="276.6973"/><text fill="#000000" font-family="sans-serif" font-size="13" lengthAdjust="spacing" textLength="45" x="550" y="271.4346">session</text><polygon fill="#181818" points="819.5,303.9883,829.5,307.9883,819.5,311.9883,823.5,307.9883" style="stroke:#181818;stroke-width:1.0;"/><line style="stroke:#181818;stroke-width:1.0;" x1="533" x2="825.5" y1="307.9883" y2="307.9883"/><text fill="#000000" font-family="sans-serif" font-size="13" lengthAdjust="spacing" textLength="113" x="540" y="302.7256">authenticatedUser()</text><polygon fill="#181818" points="544,335.2793,534,339.2793,544,343.2793,540,339.2793" style="stroke:#181818;stroke-width:1.0;"/><line style="stroke:#181818;stroke-width:1.0;stroke-dasharray:2.0,2.0;" x1="538" x2="835.5" y1="339.2793" y2="339.2793"/><text fill="#000000" font-family="sans-serif" font-size="13" lengthAdjust="spacing" textLength="25" x="550" y="334.0166">user</text><polygon fill="#181818" points="967.5,366.5703,977.5,370.5703,967.5,374.5703,971.5,370.5703" style="stroke:#181818;stroke-width:1.0;"/><line style="stroke:#181818;stroke-width:1.0;" x1="533" x2="973.5" y1="370.5703" y2="370.5703"/><text fill="#000000" font-family="sans-serif" font-size="13" lengthAdjust="spacing" textLength="36" x="540" y="365.3076">create</text><polygon fill="#181818" points="967.5,427.8613,977.5,431.8613,967.5,435.8613,971.5,431.8613" style="stroke:#181818;stroke-width:1.0;"/><line style="stroke:#181818;stroke-width:1.0;" x1="533" x2="973.5" y1="431.8613" y2="431.8613"/><text fill="#000000" font-family="sans-serif" font-size="13" lengthAdjust="spacing" textLength="143" x="540" y="426.5986">listPendingApplications()</text><polygon fill="#181818" points="1157.5,459.1523,1167.5,463.1523,1157.5,467.1523,1161.5,463.1523" style="stroke:#181818;stroke-width:1.0;"/><line style="stroke:#181818;stroke-width:1.0;" x1="989.5" x2="1163.5" y1="463.1523" y2="463.1523"/><text fill="#000000" font-family="sans-serif" font-size="13" lengthAdjust="spacing" textLength="161" x="996.5" y="457.8896">findAllPendingApplications()</text><polygon fill="#181818" points="1000.5,490.4434,990.5,494.4434,1000.5,498.4434,996.5,494.4434" style="stroke:#181818;stroke-width:1.0;"/><line style="stroke:#181818;stroke-width:1.0;stroke-dasharray:2.0,2.0;" x1="994.5" x2="1173.5" y1="494.4434" y2="494.4434"/><text fill="#000000" font-family="sans-serif" font-size="13" lengthAdjust="spacing" textLength="101" x="1006.5" y="489.1807">List&lt;Application&gt;</text><polygon fill="#181818" points="544,521.7344,534,525.7344,544,529.7344,540,525.7344" style="stroke:#181818;stroke-width:1.0;"/><line style="stroke:#181818;stroke-width:1.0;stroke-dasharray:2.0,2.0;" x1="538" x2="983.5" y1="525.7344" y2="525.7344"/><text fill="#000000" font-family="sans-serif" font-size="13" lengthAdjust="spacing" textLength="101" x="550" y="520.4717">List&lt;Application&gt;</text><polygon fill="#181818" points="361,553.0254,351,557.0254,361,561.0254,357,557.0254" style="stroke:#181818;stroke-width:1.0;"/><line style="stroke:#181818;stroke-width:1.0;stroke-dasharray:2.0,2.0;" x1="355" x2="527" y1="557.0254" y2="557.0254"/><text fill="#000000" font-family="sans-serif" font-size="13" lengthAdjust="spacing" textLength="101" x="367" y="551.7627">List&lt;Application&gt;</text><line style="stroke:#181818;stroke-width:1.0;" x1="350" x2="392" y1="588.3164" y2="588.3164"/><line style="stroke:#181818;stroke-width:1.0;" x1="392" x2="392" y1="588.3164" y2="601.3164"/><line style="stroke:#181818;stroke-width:1.0;" x1="351" x2="392" y1="601.3164" y2="601.3164"/><polygon fill="#181818" points="361,597.3164,351,601.3164,361,605.3164,357,601.3164" style="stroke:#181818;stroke-width:1.0;"/><text fill="#000000" font-family="sans-serif" font-size="13" lengthAdjust="spacing" textLength="146" x="357" y="583.0537">display List&lt;Application&gt;</text><path d="M10,616.3164 L83,616.3164 L83,625.6074 L73,635.6074 L10,635.6074 L10,616.3164 " fill="#EEEEEE" style="stroke:#000000;stroke-width:1.5;"/><rect fill="none" height="81.873" style="stroke:#000000;stroke-width:1.5;" width="419" x="10" y="616.3164"/><text fill="#000000" font-family="sans-serif" font-size="13" font-weight="bold" lengthAdjust="spacing" textLength="28" x="25" y="631.3447">loop</text><text fill="#000000" font-family="sans-serif" font-size="11" font-weight="bold" lengthAdjust="spacing" textLength="115" x="98" y="630.1865">[for each application]</text><polygon fill="#181818" points="67,654.8984,57,658.8984,67,662.8984,63,658.8984" style="stroke:#181818;stroke-width:1.0;"/><line style="stroke:#181818;stroke-width:1.0;stroke-dasharray:2.0,2.0;" x1="61" x2="344" y1="658.8984" y2="658.8984"/><text fill="#000000" font-family="sans-serif" font-size="13" lengthAdjust="spacing" textLength="105" x="73" y="653.6357">Shows application</text><polygon fill="#181818" points="328,686.1895,338,690.1895,328,694.1895,332,690.1895" style="stroke:#181818;stroke-width:1.0;"/><line style="stroke:#181818;stroke-width:1.0;" x1="56" x2="334" y1="690.1895" y2="690.1895"/><text fill="#000000" font-family="sans-serif" font-size="13" lengthAdjust="spacing" textLength="162" x="63" y="684.9268">Approve/Rejects Application</text><polygon fill="#181818" points="511,724.4805,521,728.4805,511,732.4805,515,728.4805" style="stroke:#181818;stroke-width:1.0;"/><line style="stroke:#181818;stroke-width:1.0;" x1="345" x2="517" y1="728.4805" y2="728.4805"/><text fill="#000000" font-family="sans-serif" font-size="13" lengthAdjust="spacing" textLength="101" x="352" y="723.2178">List&lt;Application&gt;</text><polygon fill="#181818" points="967.5,755.7715,977.5,759.7715,967.5,763.7715,971.5,759.7715" style="stroke:#181818;stroke-width:1.0;"/><line style="stroke:#181818;stroke-width:1.0;" x1="528" x2="973.5" y1="759.7715" y2="759.7715"/><text fill="#000000" font-family="sans-serif" font-size="13" lengthAdjust="spacing" textLength="101" x="535" y="754.5088">List&lt;Application&gt;</text><polygon fill="#181818" points="1157.5,787.0625,1167.5,791.0625,1157.5,795.0625,1161.5,791.0625" style="stroke:#181818;stroke-width:1.0;"/><line style="stroke:#181818;stroke-width:1.0;" x1="984.5" x2="1163.5" y1="791.0625" y2="791.0625"/><text fill="#000000" font-family="sans-serif" font-size="13" lengthAdjust="spacing" textLength="101" x="991.5" y="785.7998">List&lt;Application&gt;</text><line style="stroke:#181818;stroke-width:1.0;" x1="1179.5" x2="1221.5" y1="822.3535" y2="822.3535"/><line style="stroke:#181818;stroke-width:1.0;" x1="1221.5" x2="1221.5" y1="822.3535" y2="835.3535"/><line style="stroke:#181818;stroke-width:1.0;" x1="1180.5" x2="1221.5" y1="835.3535" y2="835.3535"/><polygon fill="#181818" points="1190.5,831.3535,1180.5,835.3535,1190.5,839.3535,1186.5,835.3535" style="stroke:#181818;stroke-width:1.0;"/><text fill="#000000" font-family="sans-serif" font-size="13" lengthAdjust="spacing" textLength="135" x="1186.5" y="817.0908">save(List&lt;Application&gt;)</text><polygon fill="#181818" points="1000.5,862.6445,990.5,866.6445,1000.5,870.6445,996.5,866.6445" style="stroke:#181818;stroke-width:1.0;"/><line style="stroke:#181818;stroke-width:1.0;stroke-dasharray:2.0,2.0;" x1="994.5" x2="1173.5" y1="866.6445" y2="866.6445"/><text fill="#000000" font-family="sans-serif" font-size="13" lengthAdjust="spacing" textLength="29" x="1006.5" y="861.3818">state</text><polygon fill="#181818" points="544,893.9355,534,897.9355,544,901.9355,540,897.9355" style="stroke:#181818;stroke-width:1.0;"/><line style="stroke:#181818;stroke-width:1.0;stroke-dasharray:2.0,2.0;" x1="538" x2="983.5" y1="897.9355" y2="897.9355"/><text fill="#000000" font-family="sans-serif" font-size="13" lengthAdjust="spacing" textLength="29" x="550" y="892.6729">state</text><polygon fill="#181818" points="361,925.2266,351,929.2266,361,933.2266,357,929.2266" style="stroke:#181818;stroke-width:1.0;"/><line style="stroke:#181818;stroke-width:1.0;stroke-dasharray:2.0,2.0;" x1="355" x2="527" y1="929.2266" y2="929.2266"/><text fill="#000000" font-family="sans-serif" font-size="13" lengthAdjust="spacing" textLength="29" x="367" y="923.9639">state</text><polygon fill="#181818" points="62,956.5176,52,960.5176,62,964.5176,58,960.5176" style="stroke:#181818;stroke-width:1.0;"/><line style="stroke:#181818;stroke-width:1.0;stroke-dasharray:2.0,2.0;" x1="56" x2="344" y1="960.5176" y2="960.5176"/><text fill="#000000" font-family="sans-serif" font-size="13" lengthAdjust="spacing" textLength="260" x="68" y="955.2549">Show state of exectuion (Success or Failure)</text><!--SRC=[ZLHDZzem4BtxLupsid2Wt2E4X5PR5QcLAb9wwCrr1d3NnAdjqD9Vtx4Jo4320XAGUEOzpyURUTw5KFbiEgsCB4EzDn-KtKyz_gwnL3WfjDmwkHV-JPULf2VOszAgdRDxXE1gP9PAgZUvnJmS3O935OGGKWNhu8iioU10UbZ40o484RJI5Tq9JukgSlQ0z6Uqaa7RShryYixh9SncbKEFPKZdy_azv8ijWxF6e4iCtIinoSwjHrI7dNNwNpBcw0vQOI9OhBzz-d7fk_ReSlIUF9iey_nUL9mnVrrzNxwyKZo-EQLOdY_mRRcIT_iiH263_2az9leJxmehwpLLz9YSkrTYT-SNkY0sGXzamBO1wHScatciSVPP-m2CriE6h4qQqdJOzL88yYTKLzSCb4CoTbwTJHGuT3h0OIY2hrWMkjpoE4RZGLh1saf4gKSP-AOd7DDqB_scPFcLhJkFiN6_OgVsPY197oJ261SMKG3ybYW0-lPkgFrb2QBV5NahXduHMmE7duvkC3nGmXE3E6cGy9rcCjZeibWOSuUbGmWck0cF9Gfgnl1pdWV3Tu5SbUvTWdCQl199odU0J4AD12EYq9vstt40AOorLHe5ejW1Mny2w1CfelhYA6MGx-mVt_FXtL-catRochlRJJ5TuI_QbvxFO7BcO6hAqEIycp317fYVnzh6y0yBwg4s3Wg3A-kIqyi3Zdh4Ot5JZ3x4oReXm5uqjnJPOpddFbIX0MNs27X3UCVwkcgmO3U0VqadDIKCexnMYbOOa9e-IcrgX-Ehrb-ijhJs_mC0]--></g></svg>