<?xml version="1.0" encoding="UTF-8" standalone="no"?><svg xmlns="http://www.w3.org/2000/svg" xmlns:xlink="http://www.w3.org/1999/xlink" contentStyleType="text/css" height="1101px" preserveAspectRatio="none" style="width:493px;height:1101px;background:#FFFFFF;" version="1.1" viewBox="0 0 493 1101" width="493px" zoomAndPan="magnify"><defs/><g><!--MD5=[d6181cb537bdc20c0a3007a98a56832d]
class Student--><g id="elem_Student"><rect codeLine="2" fill="#F1F1F1" height="91.4063" id="Student" rx="2.5" ry="2.5" style="stroke:#181818;stroke-width:0.5;" width="81" x="163" y="25"/><ellipse cx="178" cy="53.8984" fill="#ADD1B2" rx="11" ry="11" style="stroke:#181818;stroke-width:1.0;"/><path d="M180,50.3984 Q180.2031,49.8984 180.4375,49.6484 Q180.6719,49.3984 180.9375,49.3984 Q181.4063,49.3984 181.7031,49.6797 Q182,49.9609 182,50.6172 L182,52.1797 Q182,52.8359 181.7188,53.1172 Q181.4375,53.3984 181,53.3984 Q180.6094,53.3984 180.3594,53.2266 Q180.1094,53.0547 180,52.6016 Q179.9531,52.2891 179.7813,52.1172 Q179.4688,51.7891 178.9063,51.6016 Q178.3438,51.3984 177.7813,51.3984 Q177.0781,51.3984 176.4844,51.6797 Q175.9063,51.9609 175.4531,52.5859 Q175,53.2109 175,54.0703 L175,54.9922 Q175,56.0234 175.8438,56.7109 Q176.6875,57.3984 178.1875,57.3984 Q179.0781,57.3984 179.7031,57.1953 Q180.0625,57.0859 180.4688,56.7266 Q180.7344,56.5234 180.875,56.4609 Q181.0156,56.3984 181.1875,56.3984 Q181.5156,56.3984 181.75,56.6641 Q182,56.9141 182,57.2734 Q182,57.6172 181.6563,58.0234 Q181.1563,58.6172 180.3594,58.9453 Q179.3125,59.3984 178.0313,59.3984 Q176.5313,59.3984 175.3281,58.8047 Q174.3594,58.3359 173.6719,57.3203 Q173,56.3047 173,55.1016 L173,54.0078 Q173,52.7578 173.5938,51.6641 Q174.2031,50.5703 175.25,49.9922 Q176.3125,49.3984 177.5,49.3984 Q178.2188,49.3984 178.8438,49.6484 Q179.4688,49.8984 180,50.3984 Z " fill="#000000"/><text fill="#000000" font-family="sans-serif" font-size="12" font-style="italic" lengthAdjust="spacing" textLength="35" x="199" y="42.457">«root»</text><text fill="#000000" font-family="sans-serif" font-size="12" font-style="italic" lengthAdjust="spacing" textLength="43" x="195" y="57.5508">«entity»</text><text fill="#000000" font-family="sans-serif" font-size="14" lengthAdjust="spacing" textLength="49" x="192" y="74.7207">Student</text><line style="stroke:#181818;stroke-width:0.5;" x1="164" x2="243" y1="82.7969" y2="82.7969"/><ellipse cx="174" cy="97.1016" fill="#000000" rx="3" ry="3" style="stroke:#000000;stroke-width:1.0;"/><text fill="#000000" font-family="sans-serif" font-size="14" lengthAdjust="spacing" textLength="35" x="183" y="101.3301">name</text><line style="stroke:#181818;stroke-width:0.5;" x1="164" x2="243" y1="108.4063" y2="108.4063"/></g><!--MD5=[20e583d4e0df3a755fa236795f6d14ab]
class eCourseSystemUser--><g id="elem_eCourseSystemUser"><rect codeLine="6" fill="#F1F1F1" height="126.625" id="eCourseSystemUser" rx="2.5" ry="2.5" style="stroke:#181818;stroke-width:0.5;" width="172" x="314.5" y="7"/><ellipse cx="334.45" cy="35.8984" fill="#ADD1B2" rx="11" ry="11" style="stroke:#181818;stroke-width:1.0;"/><path d="M336.45,32.3984 Q336.6531,31.8984 336.8875,31.6484 Q337.1219,31.3984 337.3875,31.3984 Q337.8563,31.3984 338.1531,31.6797 Q338.45,31.9609 338.45,32.6172 L338.45,34.1797 Q338.45,34.8359 338.1688,35.1172 Q337.8875,35.3984 337.45,35.3984 Q337.0594,35.3984 336.8094,35.2266 Q336.5594,35.0547 336.45,34.6016 Q336.4031,34.2891 336.2313,34.1172 Q335.9188,33.7891 335.3563,33.6016 Q334.7938,33.3984 334.2313,33.3984 Q333.5281,33.3984 332.9344,33.6797 Q332.3563,33.9609 331.9031,34.5859 Q331.45,35.2109 331.45,36.0703 L331.45,36.9922 Q331.45,38.0234 332.2938,38.7109 Q333.1375,39.3984 334.6375,39.3984 Q335.5281,39.3984 336.1531,39.1953 Q336.5125,39.0859 336.9188,38.7266 Q337.1844,38.5234 337.325,38.4609 Q337.4656,38.3984 337.6375,38.3984 Q337.9656,38.3984 338.2,38.6641 Q338.45,38.9141 338.45,39.2734 Q338.45,39.6172 338.1063,40.0234 Q337.6063,40.6172 336.8094,40.9453 Q335.7625,41.3984 334.4813,41.3984 Q332.9813,41.3984 331.7781,40.8047 Q330.8094,40.3359 330.1219,39.3203 Q329.45,38.3047 329.45,37.1016 L329.45,36.0078 Q329.45,34.7578 330.0438,33.6641 Q330.6531,32.5703 331.7,31.9922 Q332.7625,31.3984 333.95,31.3984 Q334.6688,31.3984 335.2938,31.6484 Q335.9188,31.8984 336.45,32.3984 Z " fill="#000000"/><text fill="#000000" font-family="sans-serif" font-size="12" font-style="italic" lengthAdjust="spacing" textLength="35" x="396.55" y="24.457">«root»</text><text fill="#000000" font-family="sans-serif" font-size="12" font-style="italic" lengthAdjust="spacing" textLength="44" x="392.05" y="39.5508">«Entity»</text><text fill="#000000" font-family="sans-serif" font-size="14" lengthAdjust="spacing" textLength="129" x="349.55" y="56.7207">eCourseSystemUser</text><line style="stroke:#181818;stroke-width:0.5;" x1="315.5" x2="485.5" y1="64.7969" y2="64.7969"/><ellipse cx="325.5" cy="79.1016" fill="#000000" rx="3" ry="3" style="stroke:#000000;stroke-width:1.0;"/><text fill="#000000" font-family="sans-serif" font-size="14" lengthAdjust="spacing" textLength="59" x="334.5" y="83.3301">FullName</text><ellipse cx="325.5" cy="96.7109" fill="#000000" rx="3" ry="3" style="stroke:#000000;stroke-width:1.0;"/><text fill="#000000" font-family="sans-serif" font-size="14" lengthAdjust="spacing" textLength="146" x="334.5" y="100.9395">MecanographicNumber</text><ellipse cx="325.5" cy="114.3203" fill="#000000" rx="3" ry="3" style="stroke:#000000;stroke-width:1.0;"/><text fill="#000000" font-family="sans-serif" font-size="14" lengthAdjust="spacing" textLength="70" x="334.5" y="118.5488">ShortName</text><line style="stroke:#181818;stroke-width:0.5;" x1="315.5" x2="485.5" y1="125.625" y2="125.625"/></g><!--MD5=[69026d26007152bbd208ccace517dc67]
class RequestStudentEnrollUI--><g id="elem_RequestStudentEnrollUI"><rect codeLine="12" fill="#F1F1F1" height="83.2188" id="RequestStudentEnrollUI" rx="2.5" ry="2.5" style="stroke:#181818;stroke-width:0.5;" width="208" x="194.5" y="212"/><ellipse cx="221.2" cy="228" fill="#ADD1B2" rx="11" ry="11" style="stroke:#181818;stroke-width:1.0;"/><path d="M223.2,224.5 Q223.4031,224 223.6375,223.75 Q223.8719,223.5 224.1375,223.5 Q224.6063,223.5 224.9031,223.7813 Q225.2,224.0625 225.2,224.7188 L225.2,226.2813 Q225.2,226.9375 224.9188,227.2188 Q224.6375,227.5 224.2,227.5 Q223.8094,227.5 223.5594,227.3281 Q223.3094,227.1563 223.2,226.7031 Q223.1531,226.3906 222.9813,226.2188 Q222.6688,225.8906 222.1063,225.7031 Q221.5438,225.5 220.9813,225.5 Q220.2781,225.5 219.6844,225.7813 Q219.1063,226.0625 218.6531,226.6875 Q218.2,227.3125 218.2,228.1719 L218.2,229.0938 Q218.2,230.125 219.0438,230.8125 Q219.8875,231.5 221.3875,231.5 Q222.2781,231.5 222.9031,231.2969 Q223.2625,231.1875 223.6688,230.8281 Q223.9344,230.625 224.075,230.5625 Q224.2156,230.5 224.3875,230.5 Q224.7156,230.5 224.95,230.7656 Q225.2,231.0156 225.2,231.375 Q225.2,231.7188 224.8563,232.125 Q224.3563,232.7188 223.5594,233.0469 Q222.5125,233.5 221.2313,233.5 Q219.7313,233.5 218.5281,232.9063 Q217.5594,232.4375 216.8719,231.4219 Q216.2,230.4063 216.2,229.2031 L216.2,228.1094 Q216.2,226.8594 216.7938,225.7656 Q217.4031,224.6719 218.45,224.0938 Q219.5125,223.5 220.7,223.5 Q221.4188,223.5 222.0438,223.75 Q222.6688,224 223.2,224.5 Z " fill="#000000"/><text fill="#000000" font-family="sans-serif" font-size="14" lengthAdjust="spacing" textLength="150" x="237.8" y="233.7285">RequestStudentEnrollUI</text><line style="stroke:#181818;stroke-width:0.5;" x1="195.5" x2="401.5" y1="244" y2="244"/><line style="stroke:#181818;stroke-width:0.5;" x1="195.5" x2="401.5" y1="252" y2="252"/><ellipse cx="205.5" cy="266.3047" fill="#84BE84" rx="3" ry="3" style="stroke:#038048;stroke-width:1.0;"/><text fill="#000000" font-family="sans-serif" font-size="14" lengthAdjust="spacing" textLength="182" x="214.5" y="270.5332">listCoursesEnrollmentOpen()</text><ellipse cx="205.5" cy="283.9141" fill="#84BE84" rx="3" ry="3" style="stroke:#038048;stroke-width:1.0;"/><text fill="#000000" font-family="sans-serif" font-size="14" lengthAdjust="spacing" textLength="54" x="214.5" y="288.1426">display()</text></g><!--MD5=[58e198a49e8d0870020bc65e491b2859]
class RequestEnrollStudentController--><g id="elem_RequestEnrollStudentController"><rect codeLine="17" fill="#F1F1F1" height="83.2188" id="RequestEnrollStudentController" rx="2.5" ry="2.5" style="stroke:#181818;stroke-width:0.5;" width="232" x="173.5" y="356"/><ellipse cx="188.5" cy="372" fill="#ADD1B2" rx="11" ry="11" style="stroke:#181818;stroke-width:1.0;"/><path d="M190.5,368.5 Q190.7031,368 190.9375,367.75 Q191.1719,367.5 191.4375,367.5 Q191.9063,367.5 192.2031,367.7813 Q192.5,368.0625 192.5,368.7188 L192.5,370.2813 Q192.5,370.9375 192.2188,371.2188 Q191.9375,371.5 191.5,371.5 Q191.1094,371.5 190.8594,371.3281 Q190.6094,371.1563 190.5,370.7031 Q190.4531,370.3906 190.2813,370.2188 Q189.9688,369.8906 189.4063,369.7031 Q188.8438,369.5 188.2813,369.5 Q187.5781,369.5 186.9844,369.7813 Q186.4063,370.0625 185.9531,370.6875 Q185.5,371.3125 185.5,372.1719 L185.5,373.0938 Q185.5,374.125 186.3438,374.8125 Q187.1875,375.5 188.6875,375.5 Q189.5781,375.5 190.2031,375.2969 Q190.5625,375.1875 190.9688,374.8281 Q191.2344,374.625 191.375,374.5625 Q191.5156,374.5 191.6875,374.5 Q192.0156,374.5 192.25,374.7656 Q192.5,375.0156 192.5,375.375 Q192.5,375.7188 192.1563,376.125 Q191.6563,376.7188 190.8594,377.0469 Q189.8125,377.5 188.5313,377.5 Q187.0313,377.5 185.8281,376.9063 Q184.8594,376.4375 184.1719,375.4219 Q183.5,374.4063 183.5,373.2031 L183.5,372.1094 Q183.5,370.8594 184.0938,369.7656 Q184.7031,368.6719 185.75,368.0938 Q186.8125,367.5 188,367.5 Q188.7188,367.5 189.3438,367.75 Q189.9688,368 190.5,368.5 Z " fill="#000000"/><text fill="#000000" font-family="sans-serif" font-size="14" lengthAdjust="spacing" textLength="200" x="202.5" y="377.7285">RequestEnrollStudentController</text><line style="stroke:#181818;stroke-width:0.5;" x1="174.5" x2="404.5" y1="388" y2="388"/><line style="stroke:#181818;stroke-width:0.5;" x1="174.5" x2="404.5" y1="396" y2="396"/><ellipse cx="184.5" cy="410.3047" fill="#84BE84" rx="3" ry="3" style="stroke:#038048;stroke-width:1.0;"/><text fill="#000000" font-family="sans-serif" font-size="14" lengthAdjust="spacing" textLength="182" x="193.5" y="414.5332">listCoursesEnrollmentOpen()</text><ellipse cx="184.5" cy="427.9141" fill="#84BE84" rx="3" ry="3" style="stroke:#038048;stroke-width:1.0;"/><text fill="#000000" font-family="sans-serif" font-size="14" lengthAdjust="spacing" textLength="143" x="193.5" y="432.1426">requestEnrollStudent()</text></g><!--MD5=[804276067aeaf9faf53fc30c5ac5e016]
class RequestEnrollStudentService--><g id="elem_RequestEnrollStudentService"><rect codeLine="22" fill="#F1F1F1" height="65.6094" id="RequestEnrollStudentService" rx="2.5" ry="2.5" style="stroke:#181818;stroke-width:0.5;" width="217" x="7" y="500"/><ellipse cx="22" cy="516" fill="#ADD1B2" rx="11" ry="11" style="stroke:#181818;stroke-width:1.0;"/><path d="M24,512.5 Q24.2031,512 24.4375,511.75 Q24.6719,511.5 24.9375,511.5 Q25.4063,511.5 25.7031,511.7813 Q26,512.0625 26,512.7188 L26,514.2813 Q26,514.9375 25.7188,515.2188 Q25.4375,515.5 25,515.5 Q24.6094,515.5 24.3594,515.3281 Q24.1094,515.1563 24,514.7031 Q23.9531,514.3906 23.7813,514.2188 Q23.4688,513.8906 22.9063,513.7031 Q22.3438,513.5 21.7813,513.5 Q21.0781,513.5 20.4844,513.7813 Q19.9063,514.0625 19.4531,514.6875 Q19,515.3125 19,516.1719 L19,517.0938 Q19,518.125 19.8438,518.8125 Q20.6875,519.5 22.1875,519.5 Q23.0781,519.5 23.7031,519.2969 Q24.0625,519.1875 24.4688,518.8281 Q24.7344,518.625 24.875,518.5625 Q25.0156,518.5 25.1875,518.5 Q25.5156,518.5 25.75,518.7656 Q26,519.0156 26,519.375 Q26,519.7188 25.6563,520.125 Q25.1563,520.7188 24.3594,521.0469 Q23.3125,521.5 22.0313,521.5 Q20.5313,521.5 19.3281,520.9063 Q18.3594,520.4375 17.6719,519.4219 Q17,518.4063 17,517.2031 L17,516.1094 Q17,514.8594 17.5938,513.7656 Q18.2031,512.6719 19.25,512.0938 Q20.3125,511.5 21.5,511.5 Q22.2188,511.5 22.8438,511.75 Q23.4688,512 24,512.5 Z " fill="#000000"/><text fill="#000000" font-family="sans-serif" font-size="14" lengthAdjust="spacing" textLength="185" x="36" y="521.7285">RequestEnrollStudentService</text><line style="stroke:#181818;stroke-width:0.5;" x1="8" x2="223" y1="532" y2="532"/><line style="stroke:#181818;stroke-width:0.5;" x1="8" x2="223" y1="540" y2="540"/><ellipse cx="18" cy="554.3047" fill="#84BE84" rx="3" ry="3" style="stroke:#038048;stroke-width:1.0;"/><text fill="#000000" font-family="sans-serif" font-size="14" lengthAdjust="spacing" textLength="143" x="27" y="558.5332">requestEnrollStudent()</text></g><!--MD5=[e357f1fd68df466d60efd00f0c47fbc0]
class CourseRepository--><g id="elem_CourseRepository"><rect codeLine="26" fill="#F1F1F1" height="65.6094" id="CourseRepository" rx="2.5" ry="2.5" style="stroke:#181818;stroke-width:0.5;" width="146" x="259.5" y="500"/><ellipse cx="274.5" cy="516" fill="#B4A7E5" rx="11" ry="11" style="stroke:#181818;stroke-width:1.0;"/><path d="M275.5,513 L275.5,519 L277.5,519 L277.9844,519 L278.5,519.625 L278.5,520 L278.5,520.375 L277.9844,521 L277.5,521 L271.5,521 L271.0156,521 L270.5,520.375 L270.5,520 L270.5,519.625 L271.0156,519 L271.5,519 L273.5,519 L273.5,513 L271.5,513 L271.0156,513 L270.5,512.375 L270.5,512 L270.5,511.625 L271.0156,511 L271.5,511 L277.5,511 L277.9844,511 L278.5,511.625 L278.5,512 L278.5,512.375 L277.9844,513 L277.5,513 L275.5,513 Z " fill="#000000"/><text fill="#000000" font-family="sans-serif" font-size="14" font-style="italic" lengthAdjust="spacing" textLength="114" x="288.5" y="521.7285">CourseRepository</text><line style="stroke:#181818;stroke-width:0.5;" x1="260.5" x2="404.5" y1="532" y2="532"/><line style="stroke:#181818;stroke-width:0.5;" x1="260.5" x2="404.5" y1="540" y2="540"/><ellipse cx="270.5" cy="554.3047" fill="#84BE84" rx="3" ry="3" style="stroke:#038048;stroke-width:1.0;"/><text fill="#000000" font-family="sans-serif" font-size="14" lengthAdjust="spacing" textLength="83" x="279.5" y="558.5332">findByCode()</text></g><!--MD5=[9dcfeacc8a876f0e26274e3df6bf5fa6]
class EnrollmentRepository--><g id="elem_EnrollmentRepository"><rect codeLine="29" fill="#F1F1F1" height="65.6094" id="EnrollmentRepository" rx="2.5" ry="2.5" style="stroke:#181818;stroke-width:0.5;" width="167" x="187" y="627"/><ellipse cx="202" cy="643" fill="#B4A7E5" rx="11" ry="11" style="stroke:#181818;stroke-width:1.0;"/><path d="M203,640 L203,646 L205,646 L205.4844,646 L206,646.625 L206,647 L206,647.375 L205.4844,648 L205,648 L199,648 L198.5156,648 L198,647.375 L198,647 L198,646.625 L198.5156,646 L199,646 L201,646 L201,640 L199,640 L198.5156,640 L198,639.375 L198,639 L198,638.625 L198.5156,638 L199,638 L205,638 L205.4844,638 L206,638.625 L206,639 L206,639.375 L205.4844,640 L205,640 L203,640 Z " fill="#000000"/><text fill="#000000" font-family="sans-serif" font-size="14" font-style="italic" lengthAdjust="spacing" textLength="135" x="216" y="648.7285">EnrollmentRepository</text><line style="stroke:#181818;stroke-width:0.5;" x1="188" x2="353" y1="659" y2="659"/><line style="stroke:#181818;stroke-width:0.5;" x1="188" x2="353" y1="667" y2="667"/><ellipse cx="198" cy="681.3047" fill="#84BE84" rx="3" ry="3" style="stroke:#038048;stroke-width:1.0;"/><text fill="#000000" font-family="sans-serif" font-size="14" lengthAdjust="spacing" textLength="40" x="207" y="685.5332">save()</text></g><!--MD5=[8f92c18fc84ee057e27d42a3de975999]
class Enroll--><g id="elem_Enroll"><rect codeLine="33" fill="#F1F1F1" height="126.625" id="Enroll" rx="2.5" ry="2.5" style="stroke:#181818;stroke-width:0.5;" width="73" x="328" y="771"/><ellipse cx="343.9" cy="799.8984" fill="#ADD1B2" rx="11" ry="11" style="stroke:#181818;stroke-width:1.0;"/><path d="M345.9,796.3984 Q346.1031,795.8984 346.3375,795.6484 Q346.5719,795.3984 346.8375,795.3984 Q347.3063,795.3984 347.6031,795.6797 Q347.9,795.9609 347.9,796.6172 L347.9,798.1797 Q347.9,798.8359 347.6188,799.1172 Q347.3375,799.3984 346.9,799.3984 Q346.5094,799.3984 346.2594,799.2266 Q346.0094,799.0547 345.9,798.6016 Q345.8531,798.2891 345.6813,798.1172 Q345.3688,797.7891 344.8063,797.6016 Q344.2438,797.3984 343.6813,797.3984 Q342.9781,797.3984 342.3844,797.6797 Q341.8063,797.9609 341.3531,798.5859 Q340.9,799.2109 340.9,800.0703 L340.9,800.9922 Q340.9,802.0234 341.7438,802.7109 Q342.5875,803.3984 344.0875,803.3984 Q344.9781,803.3984 345.6031,803.1953 Q345.9625,803.0859 346.3688,802.7266 Q346.6344,802.5234 346.775,802.4609 Q346.9156,802.3984 347.0875,802.3984 Q347.4156,802.3984 347.65,802.6641 Q347.9,802.9141 347.9,803.2734 Q347.9,803.6172 347.5563,804.0234 Q347.0563,804.6172 346.2594,804.9453 Q345.2125,805.3984 343.9313,805.3984 Q342.4313,805.3984 341.2281,804.8047 Q340.2594,804.3359 339.5719,803.3203 Q338.9,802.3047 338.9,801.1016 L338.9,800.0078 Q338.9,798.7578 339.4938,797.6641 Q340.1031,796.5703 341.15,795.9922 Q342.2125,795.3984 343.4,795.3984 Q344.1188,795.3984 344.7438,795.6484 Q345.3688,795.8984 345.9,796.3984 Z " fill="#000000"/><text fill="#000000" font-family="sans-serif" font-size="12" font-style="italic" lengthAdjust="spacing" textLength="35" x="360.1" y="788.457">«root»</text><text fill="#000000" font-family="sans-serif" font-size="12" font-style="italic" lengthAdjust="spacing" textLength="43" x="356.1" y="803.5508">«entity»</text><text fill="#000000" font-family="sans-serif" font-size="14" lengthAdjust="spacing" textLength="36" x="359.6" y="820.7207">Enroll</text><line style="stroke:#181818;stroke-width:0.5;" x1="329" x2="400" y1="828.7969" y2="828.7969"/><ellipse cx="339" cy="843.1016" fill="#000000" rx="3" ry="3" style="stroke:#000000;stroke-width:1.0;"/><text fill="#000000" font-family="sans-serif" font-size="14" lengthAdjust="spacing" textLength="11" x="348" y="847.3301">id</text><ellipse cx="339" cy="860.7109" fill="#000000" rx="3" ry="3" style="stroke:#000000;stroke-width:1.0;"/><text fill="#000000" font-family="sans-serif" font-size="14" lengthAdjust="spacing" textLength="47" x="348" y="864.9395">student</text><ellipse cx="339" cy="878.3203" fill="#000000" rx="3" ry="3" style="stroke:#000000;stroke-width:1.0;"/><text fill="#000000" font-family="sans-serif" font-size="14" lengthAdjust="spacing" textLength="43" x="348" y="882.5488">course</text><line style="stroke:#181818;stroke-width:0.5;" x1="329" x2="400" y1="889.625" y2="889.625"/></g><!--MD5=[3128b31f4aa1e423a631a8fd9ed5b272]
class EnrollStatus--><g id="elem_EnrollStatus"><rect codeLine="39" fill="#F1F1F1" height="118.4375" id="EnrollStatus" rx="2.5" ry="2.5" style="stroke:#181818;stroke-width:0.5;" width="108" x="310.5" y="976"/><ellipse cx="325.5" cy="992" fill="#EB937F" rx="11" ry="11" style="stroke:#181818;stroke-width:1.0;"/><path d="M324,993 L324,995 L328,995 L328,994 L328,993.5156 L328.625,993 L329,993 L329.375,993 L330,993.5156 L330,994 L330,997 L322,997 L321.5156,997 L321,996.375 L321,996 L321,995.625 L321.5156,995 L322,995 L322,995 L322,989 L322,989 L321.5156,989 L321,988.375 L321,988 L321,987.625 L321.5156,987 L322,987 L330,987 L330,990 L330,990.4844 L329.375,991 L329,991 L328.625,991 L328,990.4844 L328,990 L328,989 L324,989 L324,991 L325,991 L325,990.5156 L325,990.5156 L325.625,990 L326,990 L326.375,990 L327,990.5156 L327,991 L327,993 L327,993.4844 L326.375,994 L326.375,994 L326,994 L325.625,994 L325,993.4844 L325,993.4844 L325,993 L324,993 Z " fill="#000000"/><text fill="#000000" font-family="sans-serif" font-size="14" lengthAdjust="spacing" textLength="76" x="339.5" y="997.7285">EnrollStatus</text><line style="stroke:#181818;stroke-width:0.5;" x1="311.5" x2="417.5" y1="1008" y2="1008"/><text fill="#000000" font-family="sans-serif" font-size="14" lengthAdjust="spacing" textLength="38" x="316.5" y="1026.5332">OPEN</text><text fill="#000000" font-family="sans-serif" font-size="14" lengthAdjust="spacing" textLength="57" x="316.5" y="1044.1426">CLOSED</text><text fill="#000000" font-family="sans-serif" font-size="14" lengthAdjust="spacing" textLength="76" x="316.5" y="1061.752">APPROVED</text><text fill="#000000" font-family="sans-serif" font-size="14" lengthAdjust="spacing" textLength="72" x="316.5" y="1079.3613">REJECTED</text><line style="stroke:#181818;stroke-width:0.5;" x1="311.5" x2="417.5" y1="1086.4375" y2="1086.4375"/></g><!--MD5=[8bc65f3b90290c21b1c14af63c410e92]
link Student to eCourseSystemUser--><g id="link_Student_eCourseSystemUser"><path codeLine="46" d="M244.32,70.5 C264.6,70.5 289.93,70.5 314.25,70.5 " fill="none" id="Student-eCourseSystemUser" style="stroke:#181818;stroke-width:1.0;"/><polygon fill="#000000" points="271.25,58.6758,262.2049,55.7369,262.2049,61.6147,271.25,58.6758" style="stroke:#000000;stroke-width:1.0;"/><text fill="#000000" font-family="sans-serif" font-size="13" lengthAdjust="spacing" textLength="21" x="275.25" y="63.9951">is a</text><text fill="#000000" font-family="sans-serif" font-size="13" lengthAdjust="spacing" textLength="5" x="252.0364" y="66.5652">*</text><text fill="#000000" font-family="sans-serif" font-size="13" lengthAdjust="spacing" textLength="7" x="299.5371" y="67.3388">1</text></g><!--MD5=[b78ba50166f36290bb247eea5abe88b4]
link eCourseSystemUser to Enroll--><g id="link_eCourseSystemUser_Enroll"><path codeLine="47" d="M431.03,134.02 C445,168.19 458.5,211.75 458.5,252.5 C458.5,252.5 458.5,252.5 458.5,661 C458.5,711.14 427.51,760.57 401.11,793.58 " fill="none" id="eCourseSystemUser-Enroll" style="stroke:#181818;stroke-width:1.0;"/></g><!--MD5=[238eb3dc9073d8879c7003e76b1a09be]
link eCourseSystemUser to RequestStudentEnrollUI--><g id="link_eCourseSystemUser_RequestStudentEnrollUI"><path codeLine="49" d="M365.25,134.04 C350.74,159.79 334.35,188.89 321.43,211.8 " fill="none" id="eCourseSystemUser-RequestStudentEnrollUI" style="stroke:#181818;stroke-width:1.0;stroke-dasharray:7.0,7.0;"/><text fill="#000000" font-family="sans-serif" font-size="13" lengthAdjust="spacing" textLength="50" x="347.5" y="178.4951">interacts</text></g><!--MD5=[3fa16290f8c1ef030ec2370d1a9ecb88]
link RequestStudentEnrollUI to RequestEnrollStudentController--><g id="link_RequestStudentEnrollUI_RequestEnrollStudentController"><path codeLine="50" d="M295.92,295.19 C294.72,314.2 293.28,336.79 292.08,355.8 " fill="none" id="RequestStudentEnrollUI-RequestEnrollStudentController" style="stroke:#181818;stroke-width:1.0;"/></g><!--MD5=[a3bce8945b35c1e3dfff169f0dde9025]
link RequestEnrollStudentController to RequestEnrollStudentService--><g id="link_RequestEnrollStudentController_RequestEnrollStudentService"><path codeLine="51" d="M236.35,439.28 C210.96,458.76 181.02,481.73 157.29,499.93 " fill="none" id="RequestEnrollStudentController-RequestEnrollStudentService" style="stroke:#181818;stroke-width:1.0;"/></g><!--MD5=[cdce61d1751ba70b43611ba1dbf056e6]
link RequestEnrollStudentController to CourseRepository--><g id="link_RequestEnrollStudentController_CourseRepository"><path codeLine="52" d="M302.64,439.28 C308.91,458.76 316.31,481.73 322.17,499.93 " fill="none" id="RequestEnrollStudentController-CourseRepository" style="stroke:#181818;stroke-width:1.0;"/></g><!--MD5=[d9b515047abadf5521b2b4c939911694]
link RequestEnrollStudentService to EnrollmentRepository--><g id="link_RequestEnrollStudentService_EnrollmentRepository"><path codeLine="53" d="M155.42,566.19 C178.56,584.85 207.6,608.27 230.72,626.92 " fill="none" id="RequestEnrollStudentService-EnrollmentRepository" style="stroke:#181818;stroke-width:1.0;"/></g><!--MD5=[9186fa0c672cb9ac3f42227837c7e114]
link EnrollmentRepository to Enroll--><g id="link_EnrollmentRepository_Enroll"><path codeLine="54" d="M287.96,693.04 C299.85,714.87 315.99,744.48 330.38,770.89 " fill="none" id="EnrollmentRepository-Enroll" style="stroke:#181818;stroke-width:1.0;"/><text fill="#000000" font-family="sans-serif" font-size="13" lengthAdjust="spacing" textLength="25" x="313.5" y="737.4951">repo</text></g><!--MD5=[45ecaea59b16371dbe7467a3d1a5fb91]
link Enroll to EnrollStatus--><g id="link_Enroll_EnrollStatus"><path codeLine="55" d="M364.5,898.03 C364.5,922.92 364.5,951.39 364.5,975.83 " fill="none" id="Enroll-EnrollStatus" style="stroke:#181818;stroke-width:1.0;"/><text fill="#000000" font-family="sans-serif" font-size="13" lengthAdjust="spacing" textLength="21" x="365.5" y="942.4951">has</text></g><!--MD5=[63846f2ef6286bf7ed353d727d5ccd6e]
@startuml

class Student <<root>> <<entity>> {
* name
}

class eCourseSystemUser <<root>> <<Entity>> {
    * FullName
    * MecanographicNumber
    * ShortName
}

class RequestStudentEnrollUI{
    +listCoursesEnrollmentOpen()
    +display()
}

class RequestEnrollStudentController{
    +listCoursesEnrollmentOpen()
    +requestEnrollStudent()
}

class RequestEnrollStudentService{
    +requestEnrollStudent()
}

interface CourseRepository{
    +findByCode()
}
interface EnrollmentRepository{
    +save()
}

class Enroll <<root>> <<entity>> {
    * id
    * student
    * course
}

enum EnrollStatus{
    OPEN
    CLOSED
    APPROVED
    REJECTED
}

eCourseSystemUser "1" -left- "*" Student : is a <
eCourseSystemUser - - Enroll

eCourseSystemUser .. RequestStudentEnrollUI : interacts
RequestStudentEnrollUI - - RequestEnrollStudentController
RequestEnrollStudentController - - RequestEnrollStudentService
RequestEnrollStudentController - - CourseRepository
RequestEnrollStudentService - - EnrollmentRepository
EnrollmentRepository - - Enroll : repo
Enroll - - EnrollStatus : has

@enduml

PlantUML version 1.2022.12(Sun Oct 23 19:12:26 BST 2022)
(GPL source distribution)
Java Runtime: OpenJDK Runtime Environment
JVM: OpenJDK 64-Bit Server VM
Default Encoding: Cp1252
Language: pt
Country: PT
--></g></svg>