<?xml version="1.0" encoding="us-ascii" standalone="no"?><svg xmlns="http://www.w3.org/2000/svg" xmlns:xlink="http://www.w3.org/1999/xlink" contentStyleType="text/css" height="1405px" preserveAspectRatio="none" style="width:830px;height:1405px;background:#FFFFFF;" version="1.1" viewBox="0 0 830 1405" width="830px" zoomAndPan="magnify"><defs/><g><!--class SBPMessage--><g id="elem_SBPMessage"><rect codeLine="3" fill="#F1F1F1" height="377.1406" id="SBPMessage" rx="2.5" ry="2.5" style="stroke:#181818;stroke-width:0.5;" width="260" x="563" y="1021"/><ellipse cx="646.75" cy="1043.291" fill="#ADD1B2" rx="11" ry="11" style="stroke:#181818;stroke-width:1.0;"/><path d="M649.5156,1039.166 Q649.6719,1038.9473 649.8594,1038.8379 Q650.0469,1038.7285 650.2656,1038.7285 Q650.6406,1038.7285 650.875,1038.9941 Q651.1094,1039.2441 651.1094,1039.8535 L651.1094,1041.3066 Q651.1094,1041.916 650.875,1042.1816 Q650.6406,1042.4473 650.2656,1042.4473 Q649.9219,1042.4473 649.7188,1042.2441 Q649.5156,1042.0566 649.4063,1041.541 Q649.3594,1041.1816 649.1719,1040.9941 Q648.8438,1040.6191 648.2344,1040.4004 Q647.625,1040.1816 647,1040.1816 Q646.2344,1040.1816 645.5938,1040.5098 Q644.9688,1040.8379 644.4688,1041.5879 Q643.9844,1042.3379 643.9844,1043.3691 L643.9844,1044.4629 Q643.9844,1045.6973 644.875,1046.5254 Q645.7656,1047.3379 647.3594,1047.3379 Q648.2969,1047.3379 648.9531,1047.0879 Q649.3438,1046.9316 649.7656,1046.4941 Q650.0313,1046.2285 650.1719,1046.1504 Q650.3281,1046.0723 650.5313,1046.0723 Q650.8594,1046.0723 651.1094,1046.3379 Q651.375,1046.5879 651.375,1046.9316 Q651.375,1047.2754 651.0313,1047.6816 Q650.5313,1048.2598 649.7344,1048.5879 Q648.6563,1049.041 647.3594,1049.041 Q645.8438,1049.041 644.6406,1048.416 Q643.6563,1047.916 642.9688,1046.8535 Q642.2813,1045.7754 642.2813,1044.4941 L642.2813,1043.3379 Q642.2813,1042.0098 642.8906,1040.8691 Q643.5156,1039.7129 644.6094,1039.1035 Q645.7031,1038.4785 646.9375,1038.4785 Q647.6719,1038.4785 648.3125,1038.6504 Q648.9688,1038.8066 649.5156,1039.166 Z " fill="#000000"/><text fill="#000000" font-family="sans-serif" font-size="12" font-style="italic" lengthAdjust="spacing" textLength="58" x="680.25" y="1038.9492">&#171;protocol&#187;</text><text fill="#000000" font-family="sans-serif" font-size="14" lengthAdjust="spacing" textLength="84" x="667.25" y="1057.0684">SBPMessage</text><line style="stroke:#181818;stroke-width:0.5;" x1="564" x2="822" y1="1065.582" y2="1065.582"/><rect fill="none" height="6" style="stroke:#C82930;stroke-width:1.0;" width="6" x="571" y="1077.3926"/><text fill="#000000" font-family="sans-serif" font-size="14" lengthAdjust="spacing" textLength="79" x="583" y="1084.6895">COMMTEST</text><rect fill="none" height="6" style="stroke:#C82930;stroke-width:1.0;" width="6" x="571" y="1096.0137"/><text fill="#000000" font-family="sans-serif" font-size="14" lengthAdjust="spacing" textLength="61" x="583" y="1103.3105">DISCONN</text><rect fill="none" height="6" style="stroke:#C82930;stroke-width:1.0;" width="6" x="571" y="1114.6348"/><text fill="#000000" font-family="sans-serif" font-size="14" lengthAdjust="spacing" textLength="28" x="583" y="1121.9316">ACK</text><rect fill="none" height="6" style="stroke:#C82930;stroke-width:1.0;" width="6" x="571" y="1133.2559"/><text fill="#000000" font-family="sans-serif" font-size="14" lengthAdjust="spacing" textLength="29" x="583" y="1140.5527">ERR</text><rect fill="none" height="6" style="stroke:#C82930;stroke-width:1.0;" width="6" x="571" y="1151.877"/><text fill="#000000" font-family="sans-serif" font-size="14" lengthAdjust="spacing" textLength="36" x="583" y="1159.1738">AUTH</text><rect fill="none" height="6" style="stroke:#C82930;stroke-width:1.0;" width="6" x="571" y="1170.498"/><text fill="#000000" font-family="sans-serif" font-size="14" lengthAdjust="spacing" textLength="46" x="583" y="1177.7949">version</text><line style="stroke:#181818;stroke-width:0.5;" x1="564" x2="822" y1="1185.3086" y2="1185.3086"/><ellipse cx="574" cy="1200.1191" fill="#84BE84" rx="3" ry="3" style="stroke:#038048;stroke-width:1.0;"/><text fill="#000000" font-family="sans-serif" font-size="14" lengthAdjust="spacing" textLength="129" x="583" y="1204.416">type( SBPmessage )</text><ellipse cx="574" cy="1218.7402" fill="#84BE84" rx="3" ry="3" style="stroke:#038048;stroke-width:1.0;"/><text fill="#000000" font-family="sans-serif" font-size="14" lengthAdjust="spacing" textLength="227" x="583" y="1223.0371">isValidSBPMessage( SBPmessage )</text><ellipse cx="574" cy="1237.3613" fill="#84BE84" rx="3" ry="3" style="stroke:#038048;stroke-width:1.0;"/><text fill="#000000" font-family="sans-serif" font-size="14" lengthAdjust="spacing" textLength="125" x="583" y="1241.6582">encodeCommTest()</text><ellipse cx="574" cy="1255.9824" fill="#84BE84" rx="3" ry="3" style="stroke:#038048;stroke-width:1.0;"/><text fill="#000000" font-family="sans-serif" font-size="14" lengthAdjust="spacing" textLength="108" x="583" y="1260.2793">encodeDisconn()</text><ellipse cx="574" cy="1274.6035" fill="#84BE84" rx="3" ry="3" style="stroke:#038048;stroke-width:1.0;"/><text fill="#000000" font-family="sans-serif" font-size="14" lengthAdjust="spacing" textLength="80" x="583" y="1278.9004">encodeAck()</text><ellipse cx="574" cy="1293.2246" fill="#84BE84" rx="3" ry="3" style="stroke:#038048;stroke-width:1.0;"/><text fill="#000000" font-family="sans-serif" font-size="14" lengthAdjust="spacing" textLength="76" x="583" y="1297.5215">encodeErr()</text><ellipse cx="574" cy="1311.8457" fill="#84BE84" rx="3" ry="3" style="stroke:#038048;stroke-width:1.0;"/><text fill="#000000" font-family="sans-serif" font-size="14" lengthAdjust="spacing" textLength="141" x="583" y="1316.1426">encodeErr( errorMsg )</text><ellipse cx="574" cy="1330.4668" fill="#84BE84" rx="3" ry="3" style="stroke:#038048;stroke-width:1.0;"/><text fill="#000000" font-family="sans-serif" font-size="14" lengthAdjust="spacing" textLength="225" x="583" y="1334.7637">encodeAuth( username, password )</text><ellipse cx="574" cy="1349.0879" fill="#84BE84" rx="3" ry="3" style="stroke:#038048;stroke-width:1.0;"/><text fill="#000000" font-family="sans-serif" font-size="14" lengthAdjust="spacing" textLength="231" x="583" y="1353.3848">passwordFromAUTH( SBPmessage )</text><ellipse cx="574" cy="1367.709" fill="#84BE84" rx="3" ry="3" style="stroke:#038048;stroke-width:1.0;"/><text fill="#000000" font-family="sans-serif" font-size="14" lengthAdjust="spacing" textLength="234" x="583" y="1372.0059">usernameFromAUTH( SBPmessage )</text><ellipse cx="574" cy="1386.3301" fill="#84BE84" rx="3" ry="3" style="stroke:#038048;stroke-width:1.0;"/><text fill="#000000" font-family="sans-serif" font-size="14" lengthAdjust="spacing" textLength="232" x="583" y="1390.627">calculateDataLength( SBPmessage )</text></g><!--class SharedBoardApp--><g id="elem_SharedBoardApp"><rect codeLine="22" fill="#F1F1F1" height="190.9297" id="SharedBoardApp" rx="2.5" ry="2.5" style="stroke:#181818;stroke-width:0.5;" width="350" x="73" y="1114"/><ellipse cx="189.25" cy="1136.291" fill="#ADD1B2" rx="11" ry="11" style="stroke:#181818;stroke-width:1.0;"/><path d="M192.0156,1132.166 Q192.1719,1131.9473 192.3594,1131.8379 Q192.5469,1131.7285 192.7656,1131.7285 Q193.1406,1131.7285 193.375,1131.9941 Q193.6094,1132.2441 193.6094,1132.8535 L193.6094,1134.3066 Q193.6094,1134.916 193.375,1135.1816 Q193.1406,1135.4473 192.7656,1135.4473 Q192.4219,1135.4473 192.2188,1135.2441 Q192.0156,1135.0566 191.9063,1134.541 Q191.8594,1134.1816 191.6719,1133.9941 Q191.3438,1133.6191 190.7344,1133.4004 Q190.125,1133.1816 189.5,1133.1816 Q188.7344,1133.1816 188.0938,1133.5098 Q187.4688,1133.8379 186.9688,1134.5879 Q186.4844,1135.3379 186.4844,1136.3691 L186.4844,1137.4629 Q186.4844,1138.6973 187.375,1139.5254 Q188.2656,1140.3379 189.8594,1140.3379 Q190.7969,1140.3379 191.4531,1140.0879 Q191.8438,1139.9316 192.2656,1139.4941 Q192.5313,1139.2285 192.6719,1139.1504 Q192.8281,1139.0723 193.0313,1139.0723 Q193.3594,1139.0723 193.6094,1139.3379 Q193.875,1139.5879 193.875,1139.9316 Q193.875,1140.2754 193.5313,1140.6816 Q193.0313,1141.2598 192.2344,1141.5879 Q191.1563,1142.041 189.8594,1142.041 Q188.3438,1142.041 187.1406,1141.416 Q186.1563,1140.916 185.4688,1139.8535 Q184.7813,1138.7754 184.7813,1137.4941 L184.7813,1136.3379 Q184.7813,1135.0098 185.3906,1133.8691 Q186.0156,1132.7129 187.1094,1132.1035 Q188.2031,1131.4785 189.4375,1131.4785 Q190.1719,1131.4785 190.8125,1131.6504 Q191.4688,1131.8066 192.0156,1132.166 Z " fill="#000000"/><text fill="#000000" font-family="sans-serif" font-size="12" font-style="italic" lengthAdjust="spacing" textLength="58" x="235.25" y="1131.9492">&#171;CLIENT&#187;</text><text fill="#000000" font-family="sans-serif" font-size="14" lengthAdjust="spacing" textLength="109" x="209.75" y="1150.0684">SharedBoardApp</text><line style="stroke:#181818;stroke-width:0.5;" x1="74" x2="422" y1="1158.582" y2="1158.582"/><rect fill="none" height="6" style="stroke:#C82930;stroke-width:1.0;" width="6" x="81" y="1170.3926"/><text fill="#000000" font-family="sans-serif" font-size="14" lengthAdjust="spacing" textLength="66" x="93" y="1177.6895">dataWriter</text><rect fill="none" height="6" style="stroke:#C82930;stroke-width:1.0;" width="6" x="81" y="1189.0137"/><text fill="#000000" font-family="sans-serif" font-size="14" lengthAdjust="spacing" textLength="75" x="93" y="1196.3105">dataReader</text><line style="stroke:#181818;stroke-width:0.5;" x1="74" x2="422" y1="1203.8242" y2="1203.8242"/><ellipse cx="84" cy="1218.6348" fill="#84BE84" rx="3" ry="3" style="stroke:#038048;stroke-width:1.0;"/><text fill="#000000" font-family="sans-serif" font-size="14" lengthAdjust="spacing" textLength="40" x="93" y="1222.9316">main()</text><ellipse cx="84" cy="1237.2559" fill="#84BE84" rx="3" ry="3" style="stroke:#038048;stroke-width:1.0;"/><text fill="#000000" font-family="sans-serif" font-size="14" lengthAdjust="spacing" textLength="163" x="93" y="1241.5527">printSBPMessageCodes()</text><ellipse cx="84" cy="1255.877" fill="#84BE84" rx="3" ry="3" style="stroke:#038048;stroke-width:1.0;"/><text fill="#000000" font-family="sans-serif" font-size="14" lengthAdjust="spacing" textLength="192" x="93" y="1260.1738">receiveMessageOtherClients()</text><ellipse cx="84" cy="1274.498" fill="#84BE84" rx="3" ry="3" style="stroke:#038048;stroke-width:1.0;"/><text fill="#000000" font-family="sans-serif" font-size="14" lengthAdjust="spacing" textLength="177" x="93" y="1278.7949">sendMessageOtherClients()</text><ellipse cx="84" cy="1293.1191" fill="#84BE84" rx="3" ry="3" style="stroke:#038048;stroke-width:1.0;"/><text fill="#000000" font-family="sans-serif" font-size="14" lengthAdjust="spacing" textLength="324" x="93" y="1297.416">closeEverything( socket,  dataWriter,  dataReader )</text></g><!--class SharedBoardServer--><g id="elem_SharedBoardServer"><rect codeLine="31" fill="#F1F1F1" height="135.0664" id="SharedBoardServer" rx="2.5" ry="2.5" style="stroke:#181818;stroke-width:0.5;" width="158" x="7" y="7"/><ellipse cx="22" cy="29.291" fill="#ADD1B2" rx="11" ry="11" style="stroke:#181818;stroke-width:1.0;"/><path d="M24.7656,25.166 Q24.9219,24.9473 25.1094,24.8379 Q25.2969,24.7285 25.5156,24.7285 Q25.8906,24.7285 26.125,24.9941 Q26.3594,25.2441 26.3594,25.8535 L26.3594,27.3066 Q26.3594,27.916 26.125,28.1816 Q25.8906,28.4473 25.5156,28.4473 Q25.1719,28.4473 24.9688,28.2441 Q24.7656,28.0566 24.6563,27.541 Q24.6094,27.1816 24.4219,26.9941 Q24.0938,26.6191 23.4844,26.4004 Q22.875,26.1816 22.25,26.1816 Q21.4844,26.1816 20.8438,26.5098 Q20.2188,26.8379 19.7188,27.5879 Q19.2344,28.3379 19.2344,29.3691 L19.2344,30.4629 Q19.2344,31.6973 20.125,32.5254 Q21.0156,33.3379 22.6094,33.3379 Q23.5469,33.3379 24.2031,33.0879 Q24.5938,32.9316 25.0156,32.4941 Q25.2813,32.2285 25.4219,32.1504 Q25.5781,32.0723 25.7813,32.0723 Q26.1094,32.0723 26.3594,32.3379 Q26.625,32.5879 26.625,32.9316 Q26.625,33.2754 26.2813,33.6816 Q25.7813,34.2598 24.9844,34.5879 Q23.9063,35.041 22.6094,35.041 Q21.0938,35.041 19.8906,34.416 Q18.9063,33.916 18.2188,32.8535 Q17.5313,31.7754 17.5313,30.4941 L17.5313,29.3379 Q17.5313,28.0098 18.1406,26.8691 Q18.7656,25.7129 19.8594,25.1035 Q20.9531,24.4785 22.1875,24.4785 Q22.9219,24.4785 23.5625,24.6504 Q24.2188,24.8066 24.7656,25.166 Z " fill="#000000"/><text fill="#000000" font-family="sans-serif" font-size="12" font-style="italic" lengthAdjust="spacing" textLength="64" x="67" y="24.9492">&#171;SERVER&#187;</text><text fill="#000000" font-family="sans-serif" font-size="14" lengthAdjust="spacing" textLength="126" x="36" y="43.0684">SharedBoardServer</text><line style="stroke:#181818;stroke-width:0.5;" x1="8" x2="164" y1="51.582" y2="51.582"/><rect fill="none" height="6" style="stroke:#C82930;stroke-width:1.0;" width="6" x="15" y="63.3926"/><text fill="#000000" font-family="sans-serif" font-size="14" lengthAdjust="spacing" textLength="83" x="27" y="70.6895">serverSocket</text><line style="stroke:#181818;stroke-width:0.5;" x1="8" x2="164" y1="78.2031" y2="78.2031"/><ellipse cx="18" cy="93.0137" fill="#84BE84" rx="3" ry="3" style="stroke:#038048;stroke-width:1.0;"/><text fill="#000000" font-family="sans-serif" font-size="14" lengthAdjust="spacing" textLength="40" x="27" y="97.3105">main()</text><ellipse cx="18" cy="111.6348" fill="#84BE84" rx="3" ry="3" style="stroke:#038048;stroke-width:1.0;"/><text fill="#000000" font-family="sans-serif" font-size="14" lengthAdjust="spacing" textLength="80" x="27" y="115.9316">startServer()</text><ellipse cx="18" cy="130.2559" fill="#84BE84" rx="3" ry="3" style="stroke:#038048;stroke-width:1.0;"/><text fill="#000000" font-family="sans-serif" font-size="14" lengthAdjust="spacing" textLength="128" x="27" y="134.5527">closeServerSocket()</text></g><!--class ServerClientHandler--><g id="elem_ServerClientHandler"><rect codeLine="37" fill="#F1F1F1" height="228.1719" id="ServerClientHandler" rx="2.5" ry="2.5" style="stroke:#181818;stroke-width:0.5;" width="350" x="244" y="283"/><ellipse cx="327.75" cy="305.291" fill="#ADD1B2" rx="11" ry="11" style="stroke:#181818;stroke-width:1.0;"/><path d="M330.5156,301.166 Q330.6719,300.9473 330.8594,300.8379 Q331.0469,300.7285 331.2656,300.7285 Q331.6406,300.7285 331.875,300.9941 Q332.1094,301.2441 332.1094,301.8535 L332.1094,303.3066 Q332.1094,303.916 331.875,304.1816 Q331.6406,304.4473 331.2656,304.4473 Q330.9219,304.4473 330.7188,304.2441 Q330.5156,304.0566 330.4063,303.541 Q330.3594,303.1816 330.1719,302.9941 Q329.8438,302.6191 329.2344,302.4004 Q328.625,302.1816 328,302.1816 Q327.2344,302.1816 326.5938,302.5098 Q325.9688,302.8379 325.4688,303.5879 Q324.9844,304.3379 324.9844,305.3691 L324.9844,306.4629 Q324.9844,307.6973 325.875,308.5254 Q326.7656,309.3379 328.3594,309.3379 Q329.2969,309.3379 329.9531,309.0879 Q330.3438,308.9316 330.7656,308.4941 Q331.0313,308.2285 331.1719,308.1504 Q331.3281,308.0723 331.5313,308.0723 Q331.8594,308.0723 332.1094,308.3379 Q332.375,308.5879 332.375,308.9316 Q332.375,309.2754 332.0313,309.6816 Q331.5313,310.2598 330.7344,310.5879 Q329.6563,311.041 328.3594,311.041 Q326.8438,311.041 325.6406,310.416 Q324.6563,309.916 323.9688,308.8535 Q323.2813,307.7754 323.2813,306.4941 L323.2813,305.3379 Q323.2813,304.0098 323.8906,302.8691 Q324.5156,301.7129 325.6094,301.1035 Q326.7031,300.4785 327.9375,300.4785 Q328.6719,300.4785 329.3125,300.6504 Q329.9688,300.8066 330.5156,301.166 Z " fill="#000000"/><text fill="#000000" font-family="sans-serif" font-size="12" font-style="italic" lengthAdjust="spacing" textLength="178" x="346.25" y="300.9492">&#171;Comms beetwen server-client&#187;</text><text fill="#000000" font-family="sans-serif" font-size="14" lengthAdjust="spacing" textLength="127" x="371.75" y="319.0684">ServerClientHandler</text><line style="stroke:#181818;stroke-width:0.5;" x1="245" x2="593" y1="327.582" y2="327.582"/><rect fill="none" height="6" style="stroke:#C82930;stroke-width:1.0;" width="6" x="252" y="339.3926"/><text fill="#000000" font-family="sans-serif" font-size="14" lengthAdjust="spacing" textLength="41" x="264" y="346.6895">socket</text><rect fill="none" height="6" style="stroke:#C82930;stroke-width:1.0;" width="6" x="252" y="358.0137"/><text fill="#000000" font-family="sans-serif" font-size="14" lengthAdjust="spacing" textLength="66" x="264" y="365.3105">dataWriter</text><rect fill="none" height="6" style="stroke:#C82930;stroke-width:1.0;" width="6" x="252" y="376.6348"/><text fill="#000000" font-family="sans-serif" font-size="14" lengthAdjust="spacing" textLength="75" x="264" y="383.9316">dataReader</text><rect fill="none" height="6" style="stroke:#C82930;stroke-width:1.0;" width="6" x="252" y="395.2559"/><text fill="#000000" font-family="sans-serif" font-size="14" lengthAdjust="spacing" textLength="69" x="264" y="402.5527">clientName</text><rect fill="none" height="6" style="stroke:#C82930;stroke-width:1.0;" width="6" x="252" y="413.877"/><text fill="#000000" font-family="sans-serif" font-size="14" lengthAdjust="spacing" textLength="60" x="264" y="421.1738">password</text><line style="stroke:#181818;stroke-width:0.5;" x1="245" x2="593" y1="428.6875" y2="428.6875"/><ellipse cx="255" cy="443.498" fill="#84BE84" rx="3" ry="3" style="stroke:#038048;stroke-width:1.0;"/><text fill="#000000" font-family="sans-serif" font-size="14" lengthAdjust="spacing" textLength="31" x="264" y="447.7949">run()</text><ellipse cx="255" cy="462.1191" fill="#84BE84" rx="3" ry="3" style="stroke:#038048;stroke-width:1.0;"/><text fill="#000000" font-family="sans-serif" font-size="14" lengthAdjust="spacing" textLength="241" x="264" y="466.416">validateAuthentication( SBPmessage )</text><ellipse cx="255" cy="480.7402" fill="#84BE84" rx="3" ry="3" style="stroke:#038048;stroke-width:1.0;"/><text fill="#000000" font-family="sans-serif" font-size="14" lengthAdjust="spacing" textLength="184" x="264" y="485.0371">removeServerClientHandler()</text><ellipse cx="255" cy="499.3613" fill="#84BE84" rx="3" ry="3" style="stroke:#038048;stroke-width:1.0;"/><text fill="#000000" font-family="sans-serif" font-size="14" lengthAdjust="spacing" textLength="324" x="264" y="503.6582">closeEverything( socket,  dataWriter,  dataReader )</text></g><!--class ClientHandler--><g id="elem_ClientHandler"><rect codeLine="48" fill="#F1F1F1" height="228.1719" id="ClientHandler" rx="2.5" ry="2.5" style="stroke:#181818;stroke-width:0.5;" width="350" x="95" y="652"/><ellipse cx="194.75" cy="674.291" fill="#ADD1B2" rx="11" ry="11" style="stroke:#181818;stroke-width:1.0;"/><path d="M197.5156,670.166 Q197.6719,669.9473 197.8594,669.8379 Q198.0469,669.7285 198.2656,669.7285 Q198.6406,669.7285 198.875,669.9941 Q199.1094,670.2441 199.1094,670.8535 L199.1094,672.3066 Q199.1094,672.916 198.875,673.1816 Q198.6406,673.4473 198.2656,673.4473 Q197.9219,673.4473 197.7188,673.2441 Q197.5156,673.0566 197.4063,672.541 Q197.3594,672.1816 197.1719,671.9941 Q196.8438,671.6191 196.2344,671.4004 Q195.625,671.1816 195,671.1816 Q194.2344,671.1816 193.5938,671.5098 Q192.9688,671.8379 192.4688,672.5879 Q191.9844,673.3379 191.9844,674.3691 L191.9844,675.4629 Q191.9844,676.6973 192.875,677.5254 Q193.7656,678.3379 195.3594,678.3379 Q196.2969,678.3379 196.9531,678.0879 Q197.3438,677.9316 197.7656,677.4941 Q198.0313,677.2285 198.1719,677.1504 Q198.3281,677.0723 198.5313,677.0723 Q198.8594,677.0723 199.1094,677.3379 Q199.375,677.5879 199.375,677.9316 Q199.375,678.2754 199.0313,678.6816 Q198.5313,679.2598 197.7344,679.5879 Q196.6563,680.041 195.3594,680.041 Q193.8438,680.041 192.6406,679.416 Q191.6563,678.916 190.9688,677.8535 Q190.2813,676.7754 190.2813,675.4941 L190.2813,674.3379 Q190.2813,673.0098 190.8906,671.8691 Q191.5156,670.7129 192.6094,670.1035 Q193.7031,669.4785 194.9375,669.4785 Q195.6719,669.4785 196.3125,669.6504 Q196.9688,669.8066 197.5156,670.166 Z " fill="#000000"/><text fill="#000000" font-family="sans-serif" font-size="12" font-style="italic" lengthAdjust="spacing" textLength="146" x="213.25" y="669.9492">&#171;Comms beetwen clients&#187;</text><text fill="#000000" font-family="sans-serif" font-size="14" lengthAdjust="spacing" textLength="85" x="243.75" y="688.0684">ClientHandler</text><line style="stroke:#181818;stroke-width:0.5;" x1="96" x2="444" y1="696.582" y2="696.582"/><rect fill="none" height="6" style="stroke:#C82930;stroke-width:1.0;" width="6" x="103" y="708.3926"/><text fill="#000000" font-family="sans-serif" font-size="14" lengthAdjust="spacing" textLength="41" x="115" y="715.6895">socket</text><rect fill="none" height="6" style="stroke:#C82930;stroke-width:1.0;" width="6" x="103" y="727.0137"/><text fill="#000000" font-family="sans-serif" font-size="14" lengthAdjust="spacing" textLength="89" x="115" y="734.3105">clientHandlers</text><rect fill="none" height="6" style="stroke:#C82930;stroke-width:1.0;" width="6" x="103" y="745.6348"/><text fill="#000000" font-family="sans-serif" font-size="14" lengthAdjust="spacing" textLength="66" x="115" y="752.9316">dataWriter</text><rect fill="none" height="6" style="stroke:#C82930;stroke-width:1.0;" width="6" x="103" y="764.2559"/><text fill="#000000" font-family="sans-serif" font-size="14" lengthAdjust="spacing" textLength="75" x="115" y="771.5527">dataReader</text><rect fill="none" height="6" style="stroke:#C82930;stroke-width:1.0;" width="6" x="103" y="782.877"/><text fill="#000000" font-family="sans-serif" font-size="14" lengthAdjust="spacing" textLength="69" x="115" y="790.1738">clientName</text><line style="stroke:#181818;stroke-width:0.5;" x1="96" x2="444" y1="797.6875" y2="797.6875"/><ellipse cx="106" cy="812.498" fill="#84BE84" rx="3" ry="3" style="stroke:#038048;stroke-width:1.0;"/><text fill="#000000" font-family="sans-serif" font-size="14" lengthAdjust="spacing" textLength="31" x="115" y="816.7949">run()</text><ellipse cx="106" cy="831.1191" fill="#84BE84" rx="3" ry="3" style="stroke:#038048;stroke-width:1.0;"/><text fill="#000000" font-family="sans-serif" font-size="14" lengthAdjust="spacing" textLength="195" x="115" y="835.416">broadcastMessage( message )</text><ellipse cx="106" cy="849.7402" fill="#84BE84" rx="3" ry="3" style="stroke:#038048;stroke-width:1.0;"/><text fill="#000000" font-family="sans-serif" font-size="14" lengthAdjust="spacing" textLength="142" x="115" y="854.0371">removeClientHandler()</text><ellipse cx="106" cy="868.3613" fill="#84BE84" rx="3" ry="3" style="stroke:#038048;stroke-width:1.0;"/><text fill="#000000" font-family="sans-serif" font-size="14" lengthAdjust="spacing" textLength="324" x="115" y="872.6582">closeEverything( socket,  dataWriter,  dataReader )</text></g><!--link SharedBoardApp to SBPMessage--><g id="link_SharedBoardApp_SBPMessage"><path codeLine="61" d="M423.24,1209.5 C469.81,1209.5 519.29,1209.5 562.97,1209.5 " fill="none" id="SharedBoardApp-SBPMessage" style="stroke:#181818;stroke-width:1.0;"/><text fill="#000000" font-family="sans-serif" font-size="13" lengthAdjust="spacing" textLength="103" x="441.5" y="1202.5283">follows protocol of</text></g><!--link SharedBoardServer to SharedBoardApp--><g id="link_SharedBoardServer_SharedBoardApp"><path codeLine="62" d="M55.32,142.28 C47.87,163.9 42,188.3 42,211.5 C42,211.5 42,211.5 42,951.5 C42,1014.11 79.69,1070.18 122.83,1113.85 " fill="none" id="SharedBoardServer-SharedBoardApp" style="stroke:#181818;stroke-width:1.0;"/><text fill="#000000" font-family="sans-serif" font-size="13" lengthAdjust="spacing" textLength="53" x="43" y="587.0283">connects</text></g><!--link SharedBoardServer to ServerClientHandler--><g id="link_SharedBoardServer_ServerClientHandler"><path codeLine="63" d="M155.4,142.3 C197.62,182.93 252.65,235.89 301.49,282.91 " fill="none" id="SharedBoardServer-ServerClientHandler" style="stroke:#181818;stroke-width:1.0;"/><text fill="#000000" font-family="sans-serif" font-size="13" lengthAdjust="spacing" textLength="21" x="239" y="218.0283">has</text></g><!--link ServerClientHandler to SBPMessage--><g id="link_ServerClientHandler_SBPMessage"><path codeLine="64" d="M594.11,455.33 C644.44,483.42 686,523.79 686,580.5 C686,580.5 686,580.5 686,951.5 C686,973.93 686.27,997.45 686.7,1020.78 " fill="none" id="ServerClientHandler-SBPMessage" style="stroke:#181818;stroke-width:1.0;"/><text fill="#000000" font-family="sans-serif" font-size="13" lengthAdjust="spacing" textLength="103" x="687" y="771.5283">follows protocol of</text></g><!--link ServerClientHandler to SharedBoardApp--><g id="link_ServerClientHandler_SharedBoardApp"><path codeLine="65" d="M499.15,511.32 C508.62,533.3 515,556.87 515,580.5 C515,580.5 515,580.5 515,951.5 C515,1017.77 471.78,1072.32 420.11,1113.84 " fill="none" id="ServerClientHandler-SharedBoardApp" style="stroke:#181818;stroke-width:1.0;"/><text fill="#000000" font-family="sans-serif" font-size="13" lengthAdjust="spacing" textLength="70" x="516" y="771.5283">chats server</text></g><!--link ServerClientHandler to ClientHandler--><g id="link_ServerClientHandler_ClientHandler"><path codeLine="66" d="M373.08,511.11 C354.91,555.86 334.07,607.2 315.9,651.95 " fill="none" id="ServerClientHandler-ClientHandler" style="stroke:#181818;stroke-width:1.0;"/><text fill="#000000" font-family="sans-serif" font-size="13" lengthAdjust="spacing" textLength="95" x="349" y="587.0283">when user auths</text></g><!--link ClientHandler to SharedBoardApp--><g id="link_ClientHandler_SharedBoardApp"><path codeLine="67" d="M264.36,880.12 C260.75,952.55 256.12,1045.45 252.71,1113.95 " fill="none" id="ClientHandler-SharedBoardApp" style="stroke:#181818;stroke-width:1.0;"/><text fill="#000000" font-family="sans-serif" font-size="13" lengthAdjust="spacing" textLength="101" x="263" y="956.0283">chats other users</text></g><!--SRC=[hLJ1Rjim3BtxAtHRXbRBFIWAf8w75ckI8SxQioepjb1PCaGbGJ7itoSxSkmuQbOCzSaY-KJoyObV2cihd8p7bMJARalvZUjop2L3f9bWkM5b53L7ajxzd0CYou7St5H6MysrlBtz7H7tKH8lv_DragxzSVQGnil5mf-cyG__bwnMhUtN-jx_xi2WqAevNH7xLi6eJbVwT5-zG-0JaoBh2Wb6WU8wWrYNvHhGZaxDCu5SApMmJldhm98O4x0GC4QREUQ3PDEjBKPaYs0KA-6QL8wllJRPCQmrV3UwhFiE5jxYBmPn9lbMCWipPjaZgBpEV1BtfvrNmGnaTvgPR5fLRcRnuqEoM7SJozmDpqPOC3t32bZc3LUaPAAZgZ92sOxxsFMDHwS13c87thUq1PXO2b2s2q5GsIK_bneXSL9uiuLG-OYWvgzWhqclK7yu51dkDGNZxd3jfidgALbrxMBZI9jBG_sXPSOUqASrfJtWg9UpCH-wk6SgaqtMMdT8NW3i7fJFINaJr2kbA-BVOw3a05yuQNX3AwUM_6tNnQv-8KuUjIGTI71ctSiAIib0gNSGQEDJHdAPc4DB-0ubl8_5_-Nfb9WNerd66ThZxWZpyPbCHD7W4L8ZyiBI_YwTa8sMKk-Hj3kLwCqPZahOrBWpdKz8lS-0MupEdPJIe4mdf60kFk3vU84XCAN3hUFAAvX5_n3UHGtBspljDlkGCATZZ3wSHzURfK6YO_yl]--></g></svg>