<?xml version="1.0" encoding="us-ascii" standalone="no"?><svg xmlns="http://www.w3.org/2000/svg" xmlns:xlink="http://www.w3.org/1999/xlink" contentStyleType="text/css" height="831px" preserveAspectRatio="none" style="width:1261px;height:831px;background:#FFFFFF;" version="1.1" viewBox="0 0 1261 831" width="1261px" zoomAndPan="magnify"><defs/><g><!--class eCourseSystemUser--><g id="elem_eCourseSystemUser"><rect codeLine="3" fill="#F1F1F1" height="113.7852" id="eCourseSystemUser" rx="2.5" ry="2.5" style="stroke:#181818;stroke-width:0.5;" width="161" x="738.5" y="7"/><ellipse cx="753.5" cy="37.2715" fill="#ADD1B2" rx="11" ry="11" style="stroke:#181818;stroke-width:1.0;"/><path d="M756.2656,33.1465 Q756.4219,32.9277 756.6094,32.8184 Q756.7969,32.709 757.0156,32.709 Q757.3906,32.709 757.625,32.9746 Q757.8594,33.2246 757.8594,33.834 L757.8594,35.2871 Q757.8594,35.8965 757.625,36.1621 Q757.3906,36.4277 757.0156,36.4277 Q756.6719,36.4277 756.4688,36.2246 Q756.2656,36.0371 756.1563,35.5215 Q756.1094,35.1621 755.9219,34.9746 Q755.5938,34.5996 754.9844,34.3809 Q754.375,34.1621 753.75,34.1621 Q752.9844,34.1621 752.3438,34.4902 Q751.7188,34.8184 751.2188,35.5684 Q750.7344,36.3184 750.7344,37.3496 L750.7344,38.4434 Q750.7344,39.6777 751.625,40.5059 Q752.5156,41.3184 754.1094,41.3184 Q755.0469,41.3184 755.7031,41.0684 Q756.0938,40.9121 756.5156,40.4746 Q756.7813,40.209 756.9219,40.1309 Q757.0781,40.0527 757.2813,40.0527 Q757.6094,40.0527 757.8594,40.3184 Q758.125,40.5684 758.125,40.9121 Q758.125,41.2559 757.7813,41.6621 Q757.2813,42.2402 756.4844,42.5684 Q755.4063,43.0215 754.1094,43.0215 Q752.5938,43.0215 751.3906,42.3965 Q750.4063,41.8965 749.7188,40.834 Q749.0313,39.7559 749.0313,38.4746 L749.0313,37.3184 Q749.0313,35.9902 749.6406,34.8496 Q750.2656,33.6934 751.3594,33.084 Q752.4531,32.459 753.6875,32.459 Q754.4219,32.459 755.0625,32.6309 Q755.7188,32.7871 756.2656,33.1465 Z " fill="#000000"/><text fill="#000000" font-family="sans-serif" font-size="12" font-style="italic" lengthAdjust="spacing" textLength="35" x="814.5" y="24.9492">&#171;root&#187;</text><text fill="#000000" font-family="sans-serif" font-size="12" font-style="italic" lengthAdjust="spacing" textLength="44" x="810" y="40.9102">&#171;Entity&#187;</text><text fill="#000000" font-family="sans-serif" font-size="14" lengthAdjust="spacing" textLength="129" x="767.5" y="59.0293">eCourseSystemUser</text><line style="stroke:#181818;stroke-width:0.5;" x1="739.5" x2="898.5" y1="67.543" y2="67.543"/><ellipse cx="749.5" cy="82.3535" fill="#000000" rx="3" ry="3" style="stroke:#000000;stroke-width:1.0;"/><text fill="#000000" font-family="sans-serif" font-size="14" lengthAdjust="spacing" textLength="59" x="758.5" y="86.6504">FullName</text><ellipse cx="749.5" cy="100.9746" fill="#000000" rx="3" ry="3" style="stroke:#000000;stroke-width:1.0;"/><text fill="#000000" font-family="sans-serif" font-size="14" lengthAdjust="spacing" textLength="70" x="758.5" y="105.2715">ShortName</text><line style="stroke:#181818;stroke-width:0.5;" x1="739.5" x2="898.5" y1="112.7852" y2="112.7852"/></g><!--class ListExamsUI--><g id="elem_ListExamsUI"><rect codeLine="7" fill="#F1F1F1" height="85.2422" id="ListExamsUI" rx="2.5" ry="2.5" style="stroke:#181818;stroke-width:0.5;" width="229" x="602.5" y="182"/><ellipse cx="675.25" cy="198" fill="#ADD1B2" rx="11" ry="11" style="stroke:#181818;stroke-width:1.0;"/><path d="M678.0156,193.875 Q678.1719,193.6563 678.3594,193.5469 Q678.5469,193.4375 678.7656,193.4375 Q679.1406,193.4375 679.375,193.7031 Q679.6094,193.9531 679.6094,194.5625 L679.6094,196.0156 Q679.6094,196.625 679.375,196.8906 Q679.1406,197.1563 678.7656,197.1563 Q678.4219,197.1563 678.2188,196.9531 Q678.0156,196.7656 677.9063,196.25 Q677.8594,195.8906 677.6719,195.7031 Q677.3438,195.3281 676.7344,195.1094 Q676.125,194.8906 675.5,194.8906 Q674.7344,194.8906 674.0938,195.2188 Q673.4688,195.5469 672.9688,196.2969 Q672.4844,197.0469 672.4844,198.0781 L672.4844,199.1719 Q672.4844,200.4063 673.375,201.2344 Q674.2656,202.0469 675.8594,202.0469 Q676.7969,202.0469 677.4531,201.7969 Q677.8438,201.6406 678.2656,201.2031 Q678.5313,200.9375 678.6719,200.8594 Q678.8281,200.7813 679.0313,200.7813 Q679.3594,200.7813 679.6094,201.0469 Q679.875,201.2969 679.875,201.6406 Q679.875,201.9844 679.5313,202.3906 Q679.0313,202.9688 678.2344,203.2969 Q677.1563,203.75 675.8594,203.75 Q674.3438,203.75 673.1406,203.125 Q672.1563,202.625 671.4688,201.5625 Q670.7813,200.4844 670.7813,199.2031 L670.7813,198.0469 Q670.7813,196.7188 671.3906,195.5781 Q672.0156,194.4219 673.1094,193.8125 Q674.2031,193.1875 675.4375,193.1875 Q676.1719,193.1875 676.8125,193.3594 Q677.4688,193.5156 678.0156,193.875 Z " fill="#000000"/><text fill="#000000" font-family="sans-serif" font-size="14" lengthAdjust="spacing" textLength="75" x="695.75" y="203.7969">ListExamsUI</text><line style="stroke:#181818;stroke-width:0.5;" x1="603.5" x2="830.5" y1="214" y2="214"/><line style="stroke:#181818;stroke-width:0.5;" x1="603.5" x2="830.5" y1="222" y2="222"/><ellipse cx="613.5" cy="236.8105" fill="#84BE84" rx="3" ry="3" style="stroke:#038048;stroke-width:1.0;"/><text fill="#000000" font-family="sans-serif" font-size="14" lengthAdjust="spacing" textLength="203" x="622.5" y="241.1074">presentCourses( List&lt;Course&gt; )</text><ellipse cx="613.5" cy="255.4316" fill="#84BE84" rx="3" ry="3" style="stroke:#038048;stroke-width:1.0;"/><text fill="#000000" font-family="sans-serif" font-size="14" lengthAdjust="spacing" textLength="179" x="622.5" y="259.7285">presentExams( List&lt;Exam&gt; )</text></g><!--class ListExamsController--><g id="elem_ListExamsController"><rect codeLine="11" fill="#F1F1F1" height="66.6211" id="ListExamsController" rx="2.5" ry="2.5" style="stroke:#181818;stroke-width:0.5;" width="204" x="615" y="328"/><ellipse cx="651.15" cy="344" fill="#ADD1B2" rx="11" ry="11" style="stroke:#181818;stroke-width:1.0;"/><path d="M653.9156,339.875 Q654.0719,339.6563 654.2594,339.5469 Q654.4469,339.4375 654.6656,339.4375 Q655.0406,339.4375 655.275,339.7031 Q655.5094,339.9531 655.5094,340.5625 L655.5094,342.0156 Q655.5094,342.625 655.275,342.8906 Q655.0406,343.1563 654.6656,343.1563 Q654.3219,343.1563 654.1188,342.9531 Q653.9156,342.7656 653.8063,342.25 Q653.7594,341.8906 653.5719,341.7031 Q653.2438,341.3281 652.6344,341.1094 Q652.025,340.8906 651.4,340.8906 Q650.6344,340.8906 649.9938,341.2188 Q649.3688,341.5469 648.8688,342.2969 Q648.3844,343.0469 648.3844,344.0781 L648.3844,345.1719 Q648.3844,346.4063 649.275,347.2344 Q650.1656,348.0469 651.7594,348.0469 Q652.6969,348.0469 653.3531,347.7969 Q653.7438,347.6406 654.1656,347.2031 Q654.4313,346.9375 654.5719,346.8594 Q654.7281,346.7813 654.9313,346.7813 Q655.2594,346.7813 655.5094,347.0469 Q655.775,347.2969 655.775,347.6406 Q655.775,347.9844 655.4313,348.3906 Q654.9313,348.9688 654.1344,349.2969 Q653.0563,349.75 651.7594,349.75 Q650.2438,349.75 649.0406,349.125 Q648.0563,348.625 647.3688,347.5625 Q646.6813,346.4844 646.6813,345.2031 L646.6813,344.0469 Q646.6813,342.7188 647.2906,341.5781 Q647.9156,340.4219 649.0094,339.8125 Q650.1031,339.1875 651.3375,339.1875 Q652.0719,339.1875 652.7125,339.3594 Q653.3688,339.5156 653.9156,339.875 Z " fill="#000000"/><text fill="#000000" font-family="sans-serif" font-size="14" lengthAdjust="spacing" textLength="125" x="669.85" y="349.7969">ListExamsController</text><line style="stroke:#181818;stroke-width:0.5;" x1="616" x2="818" y1="360" y2="360"/><line style="stroke:#181818;stroke-width:0.5;" x1="616" x2="818" y1="368" y2="368"/><ellipse cx="626" cy="382.8105" fill="#84BE84" rx="3" ry="3" style="stroke:#038048;stroke-width:1.0;"/><text fill="#000000" font-family="sans-serif" font-size="14" lengthAdjust="spacing" textLength="178" x="635" y="387.1074">listCourseExams( courseID )</text></g><!--class ListCoursesController--><g id="elem_ListCoursesController"><rect codeLine="14" fill="#F1F1F1" height="66.6211" id="ListCoursesController" rx="2.5" ry="2.5" style="stroke:#181818;stroke-width:0.5;" width="169" x="410.5" y="328"/><ellipse cx="425.5" cy="344" fill="#ADD1B2" rx="11" ry="11" style="stroke:#181818;stroke-width:1.0;"/><path d="M428.2656,339.875 Q428.4219,339.6563 428.6094,339.5469 Q428.7969,339.4375 429.0156,339.4375 Q429.3906,339.4375 429.625,339.7031 Q429.8594,339.9531 429.8594,340.5625 L429.8594,342.0156 Q429.8594,342.625 429.625,342.8906 Q429.3906,343.1563 429.0156,343.1563 Q428.6719,343.1563 428.4688,342.9531 Q428.2656,342.7656 428.1563,342.25 Q428.1094,341.8906 427.9219,341.7031 Q427.5938,341.3281 426.9844,341.1094 Q426.375,340.8906 425.75,340.8906 Q424.9844,340.8906 424.3438,341.2188 Q423.7188,341.5469 423.2188,342.2969 Q422.7344,343.0469 422.7344,344.0781 L422.7344,345.1719 Q422.7344,346.4063 423.625,347.2344 Q424.5156,348.0469 426.1094,348.0469 Q427.0469,348.0469 427.7031,347.7969 Q428.0938,347.6406 428.5156,347.2031 Q428.7813,346.9375 428.9219,346.8594 Q429.0781,346.7813 429.2813,346.7813 Q429.6094,346.7813 429.8594,347.0469 Q430.125,347.2969 430.125,347.6406 Q430.125,347.9844 429.7813,348.3906 Q429.2813,348.9688 428.4844,349.2969 Q427.4063,349.75 426.1094,349.75 Q424.5938,349.75 423.3906,349.125 Q422.4063,348.625 421.7188,347.5625 Q421.0313,346.4844 421.0313,345.2031 L421.0313,344.0469 Q421.0313,342.7188 421.6406,341.5781 Q422.2656,340.4219 423.3594,339.8125 Q424.4531,339.1875 425.6875,339.1875 Q426.4219,339.1875 427.0625,339.3594 Q427.7188,339.5156 428.2656,339.875 Z " fill="#000000"/><text fill="#000000" font-family="sans-serif" font-size="14" lengthAdjust="spacing" textLength="137" x="439.5" y="349.7969">ListCoursesController</text><line style="stroke:#181818;stroke-width:0.5;" x1="411.5" x2="578.5" y1="360" y2="360"/><line style="stroke:#181818;stroke-width:0.5;" x1="411.5" x2="578.5" y1="368" y2="368"/><ellipse cx="421.5" cy="382.8105" fill="#84BE84" rx="3" ry="3" style="stroke:#038048;stroke-width:1.0;"/><text fill="#000000" font-family="sans-serif" font-size="14" lengthAdjust="spacing" textLength="134" x="430.5" y="387.1074">allCoursesAvailable()</text></g><!--class ListCourseExamsService--><g id="elem_ListCourseExamsService"><rect codeLine="17" fill="#F1F1F1" height="66.6211" id="ListCourseExamsService" rx="2.5" ry="2.5" style="stroke:#181818;stroke-width:0.5;" width="201" x="607.5" y="474"/><ellipse cx="628.35" cy="490" fill="#ADD1B2" rx="11" ry="11" style="stroke:#181818;stroke-width:1.0;"/><path d="M631.1156,485.875 Q631.2719,485.6563 631.4594,485.5469 Q631.6469,485.4375 631.8656,485.4375 Q632.2406,485.4375 632.475,485.7031 Q632.7094,485.9531 632.7094,486.5625 L632.7094,488.0156 Q632.7094,488.625 632.475,488.8906 Q632.2406,489.1563 631.8656,489.1563 Q631.5219,489.1563 631.3188,488.9531 Q631.1156,488.7656 631.0063,488.25 Q630.9594,487.8906 630.7719,487.7031 Q630.4438,487.3281 629.8344,487.1094 Q629.225,486.8906 628.6,486.8906 Q627.8344,486.8906 627.1938,487.2188 Q626.5688,487.5469 626.0688,488.2969 Q625.5844,489.0469 625.5844,490.0781 L625.5844,491.1719 Q625.5844,492.4063 626.475,493.2344 Q627.3656,494.0469 628.9594,494.0469 Q629.8969,494.0469 630.5531,493.7969 Q630.9438,493.6406 631.3656,493.2031 Q631.6313,492.9375 631.7719,492.8594 Q631.9281,492.7813 632.1313,492.7813 Q632.4594,492.7813 632.7094,493.0469 Q632.975,493.2969 632.975,493.6406 Q632.975,493.9844 632.6313,494.3906 Q632.1313,494.9688 631.3344,495.2969 Q630.2563,495.75 628.9594,495.75 Q627.4438,495.75 626.2406,495.125 Q625.2563,494.625 624.5688,493.5625 Q623.8813,492.4844 623.8813,491.2031 L623.8813,490.0469 Q623.8813,488.7188 624.4906,487.5781 Q625.1156,486.4219 626.2094,485.8125 Q627.3031,485.1875 628.5375,485.1875 Q629.2719,485.1875 629.9125,485.3594 Q630.5688,485.5156 631.1156,485.875 Z " fill="#000000"/><text fill="#000000" font-family="sans-serif" font-size="14" lengthAdjust="spacing" textLength="156" x="643.65" y="495.7969">ListCourseExamsService</text><line style="stroke:#181818;stroke-width:0.5;" x1="608.5" x2="807.5" y1="506" y2="506"/><line style="stroke:#181818;stroke-width:0.5;" x1="608.5" x2="807.5" y1="514" y2="514"/><ellipse cx="618.5" cy="528.8105" fill="#84BE84" rx="3" ry="3" style="stroke:#038048;stroke-width:1.0;"/><text fill="#000000" font-family="sans-serif" font-size="14" lengthAdjust="spacing" textLength="175" x="627.5" y="533.1074">allCourseExams( courseID )</text></g><!--class AuthorizationService--><g id="elem_AuthorizationService"><rect codeLine="20" fill="#F1F1F1" height="66.6211" id="AuthorizationService" rx="2.5" ry="2.5" style="stroke:#181818;stroke-width:0.5;" width="384" x="759" y="602"/><ellipse cx="882.25" cy="618" fill="#ADD1B2" rx="11" ry="11" style="stroke:#181818;stroke-width:1.0;"/><path d="M885.0156,613.875 Q885.1719,613.6563 885.3594,613.5469 Q885.5469,613.4375 885.7656,613.4375 Q886.1406,613.4375 886.375,613.7031 Q886.6094,613.9531 886.6094,614.5625 L886.6094,616.0156 Q886.6094,616.625 886.375,616.8906 Q886.1406,617.1563 885.7656,617.1563 Q885.4219,617.1563 885.2188,616.9531 Q885.0156,616.7656 884.9063,616.25 Q884.8594,615.8906 884.6719,615.7031 Q884.3438,615.3281 883.7344,615.1094 Q883.125,614.8906 882.5,614.8906 Q881.7344,614.8906 881.0938,615.2188 Q880.4688,615.5469 879.9688,616.2969 Q879.4844,617.0469 879.4844,618.0781 L879.4844,619.1719 Q879.4844,620.4063 880.375,621.2344 Q881.2656,622.0469 882.8594,622.0469 Q883.7969,622.0469 884.4531,621.7969 Q884.8438,621.6406 885.2656,621.2031 Q885.5313,620.9375 885.6719,620.8594 Q885.8281,620.7813 886.0313,620.7813 Q886.3594,620.7813 886.6094,621.0469 Q886.875,621.2969 886.875,621.6406 Q886.875,621.9844 886.5313,622.3906 Q886.0313,622.9688 885.2344,623.2969 Q884.1563,623.75 882.8594,623.75 Q881.3438,623.75 880.1406,623.125 Q879.1563,622.625 878.4688,621.5625 Q877.7813,620.4844 877.7813,619.2031 L877.7813,618.0469 Q877.7813,616.7188 878.3906,615.5781 Q879.0156,614.4219 880.1094,613.8125 Q881.2031,613.1875 882.4375,613.1875 Q883.1719,613.1875 883.8125,613.3594 Q884.4688,613.5156 885.0156,613.875 Z " fill="#000000"/><text fill="#000000" font-family="sans-serif" font-size="14" lengthAdjust="spacing" textLength="129" x="902.75" y="623.7969">AuthorizationService</text><line style="stroke:#181818;stroke-width:0.5;" x1="760" x2="1142" y1="634" y2="634"/><line style="stroke:#181818;stroke-width:0.5;" x1="760" x2="1142" y1="642" y2="642"/><ellipse cx="770" cy="656.8105" fill="#84BE84" rx="3" ry="3" style="stroke:#038048;stroke-width:1.0;"/><text fill="#000000" font-family="sans-serif" font-size="14" lengthAdjust="spacing" textLength="358" x="779" y="661.1074">isAuthenticatedUserAuthorizedTo( BaseRole.TEACHER )</text></g><!--class CourseRepository--><g id="elem_CourseRepository"><rect codeLine="23" fill="#F1F1F1" height="66.6211" id="CourseRepository" rx="2.5" ry="2.5" style="stroke:#181818;stroke-width:0.5;" width="180" x="309" y="602"/><ellipse cx="339.3" cy="618" fill="#B4A7E5" rx="11" ry="11" style="stroke:#181818;stroke-width:1.0;"/><path d="M340.2531,614.6406 L340.2531,621.2969 L341.9719,621.2969 Q342.5813,621.2969 342.8469,621.5313 Q343.1125,621.7656 343.1125,622.1563 Q343.1125,622.5313 342.8469,622.7656 Q342.5813,623 341.9719,623 L336.8313,623 Q336.2219,623 335.9563,622.7656 Q335.6906,622.5313 335.6906,622.1406 Q335.6906,621.7656 335.9563,621.5313 Q336.2219,621.2969 336.8313,621.2969 L338.55,621.2969 L338.55,614.6406 L336.8313,614.6406 Q336.2219,614.6406 335.9563,614.4063 Q335.6906,614.1719 335.6906,613.7813 Q335.6906,613.4063 335.9563,613.1719 Q336.2219,612.9375 336.8313,612.9375 L341.9719,612.9375 Q342.5813,612.9375 342.8469,613.1719 Q343.1125,613.4063 343.1125,613.7813 Q343.1125,614.1719 342.8469,614.4063 Q342.5813,614.6406 341.9719,614.6406 L340.2531,614.6406 Z " fill="#000000"/><text fill="#000000" font-family="sans-serif" font-size="14" font-style="italic" lengthAdjust="spacing" textLength="114" x="356.7" y="623.7969">CourseRepository</text><line style="stroke:#181818;stroke-width:0.5;" x1="310" x2="488" y1="634" y2="634"/><line style="stroke:#181818;stroke-width:0.5;" x1="310" x2="488" y1="642" y2="642"/><ellipse cx="320" cy="656.8105" fill="#84BE84" rx="3" ry="3" style="stroke:#038048;stroke-width:1.0;"/><text fill="#000000" font-family="sans-serif" font-size="14" lengthAdjust="spacing" textLength="154" x="329" y="661.1074">verifyCourse( courseID )</text></g><!--class ExamRepository--><g id="elem_ExamRepository"><rect codeLine="27" fill="#F1F1F1" height="66.6211" id="ExamRepository" rx="2.5" ry="2.5" style="stroke:#181818;stroke-width:0.5;" width="199" x="524.5" y="602"/><ellipse cx="568.75" cy="618" fill="#B4A7E5" rx="11" ry="11" style="stroke:#181818;stroke-width:1.0;"/><path d="M569.7031,614.6406 L569.7031,621.2969 L571.4219,621.2969 Q572.0313,621.2969 572.2969,621.5313 Q572.5625,621.7656 572.5625,622.1563 Q572.5625,622.5313 572.2969,622.7656 Q572.0313,623 571.4219,623 L566.2813,623 Q565.6719,623 565.4063,622.7656 Q565.1406,622.5313 565.1406,622.1406 Q565.1406,621.7656 565.4063,621.5313 Q565.6719,621.2969 566.2813,621.2969 L568,621.2969 L568,614.6406 L566.2813,614.6406 Q565.6719,614.6406 565.4063,614.4063 Q565.1406,614.1719 565.1406,613.7813 Q565.1406,613.4063 565.4063,613.1719 Q565.6719,612.9375 566.2813,612.9375 L571.4219,612.9375 Q572.0313,612.9375 572.2969,613.1719 Q572.5625,613.4063 572.5625,613.7813 Q572.5625,614.1719 572.2969,614.4063 Q572.0313,614.6406 571.4219,614.6406 L569.7031,614.6406 Z " fill="#000000"/><text fill="#000000" font-family="sans-serif" font-size="14" font-style="italic" lengthAdjust="spacing" textLength="102" x="589.25" y="623.7969">ExamRepository</text><line style="stroke:#181818;stroke-width:0.5;" x1="525.5" x2="722.5" y1="634" y2="634"/><line style="stroke:#181818;stroke-width:0.5;" x1="525.5" x2="722.5" y1="642" y2="642"/><ellipse cx="535.5" cy="656.8105" fill="#84BE84" rx="3" ry="3" style="stroke:#038048;stroke-width:1.0;"/><text fill="#000000" font-family="sans-serif" font-size="14" lengthAdjust="spacing" textLength="173" x="544.5" y="661.1074">findAllOfCourse( courseID )</text></g><!--class Course--><g id="elem_Course"><rect codeLine="30" fill="#F1F1F1" height="113.7852" id="Course" rx="2.5" ry="2.5" style="stroke:#181818;stroke-width:0.5;" width="78" x="263" y="7"/><ellipse cx="278" cy="37.2715" fill="#ADD1B2" rx="11" ry="11" style="stroke:#181818;stroke-width:1.0;"/><path d="M280.7656,33.1465 Q280.9219,32.9277 281.1094,32.8184 Q281.2969,32.709 281.5156,32.709 Q281.8906,32.709 282.125,32.9746 Q282.3594,33.2246 282.3594,33.834 L282.3594,35.2871 Q282.3594,35.8965 282.125,36.1621 Q281.8906,36.4277 281.5156,36.4277 Q281.1719,36.4277 280.9688,36.2246 Q280.7656,36.0371 280.6563,35.5215 Q280.6094,35.1621 280.4219,34.9746 Q280.0938,34.5996 279.4844,34.3809 Q278.875,34.1621 278.25,34.1621 Q277.4844,34.1621 276.8438,34.4902 Q276.2188,34.8184 275.7188,35.5684 Q275.2344,36.3184 275.2344,37.3496 L275.2344,38.4434 Q275.2344,39.6777 276.125,40.5059 Q277.0156,41.3184 278.6094,41.3184 Q279.5469,41.3184 280.2031,41.0684 Q280.5938,40.9121 281.0156,40.4746 Q281.2813,40.209 281.4219,40.1309 Q281.5781,40.0527 281.7813,40.0527 Q282.1094,40.0527 282.3594,40.3184 Q282.625,40.5684 282.625,40.9121 Q282.625,41.2559 282.2813,41.6621 Q281.7813,42.2402 280.9844,42.5684 Q279.9063,43.0215 278.6094,43.0215 Q277.0938,43.0215 275.8906,42.3965 Q274.9063,41.8965 274.2188,40.834 Q273.5313,39.7559 273.5313,38.4746 L273.5313,37.3184 Q273.5313,35.9902 274.1406,34.8496 Q274.7656,33.6934 275.8594,33.084 Q276.9531,32.459 278.1875,32.459 Q278.9219,32.459 279.5625,32.6309 Q280.2188,32.7871 280.7656,33.1465 Z " fill="#000000"/><text fill="#000000" font-family="sans-serif" font-size="12" font-style="italic" lengthAdjust="spacing" textLength="35" x="297.5" y="24.9492">&#171;root&#187;</text><text fill="#000000" font-family="sans-serif" font-size="12" font-style="italic" lengthAdjust="spacing" textLength="43" x="293.5" y="40.9102">&#171;entity&#187;</text><text fill="#000000" font-family="sans-serif" font-size="14" lengthAdjust="spacing" textLength="46" x="292" y="59.0293">Course</text><line style="stroke:#181818;stroke-width:0.5;" x1="264" x2="340" y1="67.543" y2="67.543"/><ellipse cx="274" cy="82.3535" fill="#000000" rx="3" ry="3" style="stroke:#000000;stroke-width:1.0;"/><text fill="#000000" font-family="sans-serif" font-size="14" lengthAdjust="spacing" textLength="11" x="283" y="86.6504">id</text><ellipse cx="274" cy="100.9746" fill="#000000" rx="3" ry="3" style="stroke:#000000;stroke-width:1.0;"/><text fill="#000000" font-family="sans-serif" font-size="14" lengthAdjust="spacing" textLength="35" x="283" y="105.2715">name</text><line style="stroke:#181818;stroke-width:0.5;" x1="264" x2="340" y1="112.7852" y2="112.7852"/></g><!--class CourseCode--><g id="elem_CourseCode"><rect codeLine="34" fill="#F1F1F1" height="85.2422" id="CourseCode" rx="2.5" ry="2.5" style="stroke:#181818;stroke-width:0.5;" width="196" x="7" y="182"/><ellipse cx="60.75" cy="198" fill="#ADD1B2" rx="11" ry="11" style="stroke:#181818;stroke-width:1.0;"/><path d="M63.5156,193.875 Q63.6719,193.6563 63.8594,193.5469 Q64.0469,193.4375 64.2656,193.4375 Q64.6406,193.4375 64.875,193.7031 Q65.1094,193.9531 65.1094,194.5625 L65.1094,196.0156 Q65.1094,196.625 64.875,196.8906 Q64.6406,197.1563 64.2656,197.1563 Q63.9219,197.1563 63.7188,196.9531 Q63.5156,196.7656 63.4063,196.25 Q63.3594,195.8906 63.1719,195.7031 Q62.8438,195.3281 62.2344,195.1094 Q61.625,194.8906 61,194.8906 Q60.2344,194.8906 59.5938,195.2188 Q58.9688,195.5469 58.4688,196.2969 Q57.9844,197.0469 57.9844,198.0781 L57.9844,199.1719 Q57.9844,200.4063 58.875,201.2344 Q59.7656,202.0469 61.3594,202.0469 Q62.2969,202.0469 62.9531,201.7969 Q63.3438,201.6406 63.7656,201.2031 Q64.0313,200.9375 64.1719,200.8594 Q64.3281,200.7813 64.5313,200.7813 Q64.8594,200.7813 65.1094,201.0469 Q65.375,201.2969 65.375,201.6406 Q65.375,201.9844 65.0313,202.3906 Q64.5313,202.9688 63.7344,203.2969 Q62.6563,203.75 61.3594,203.75 Q59.8438,203.75 58.6406,203.125 Q57.6563,202.625 56.9688,201.5625 Q56.2813,200.4844 56.2813,199.2031 L56.2813,198.0469 Q56.2813,196.7188 56.8906,195.5781 Q57.5156,194.4219 58.6094,193.8125 Q59.7031,193.1875 60.9375,193.1875 Q61.6719,193.1875 62.3125,193.3594 Q62.9688,193.5156 63.5156,193.875 Z " fill="#000000"/><text fill="#000000" font-family="sans-serif" font-size="14" lengthAdjust="spacing" textLength="80" x="81.25" y="203.7969">CourseCode</text><line style="stroke:#181818;stroke-width:0.5;" x1="8" x2="202" y1="214" y2="214"/><ellipse cx="18" cy="228.8105" fill="#000000" rx="3" ry="3" style="stroke:#000000;stroke-width:1.0;"/><text fill="#000000" font-family="sans-serif" font-size="14" lengthAdjust="spacing" textLength="31" x="27" y="233.1074">code</text><line style="stroke:#181818;stroke-width:0.5;" x1="8" x2="202" y1="240.6211" y2="240.6211"/><ellipse cx="18" cy="255.4316" fill="#84BE84" rx="3" ry="3" style="stroke:#038048;stroke-width:1.0;"/><text fill="#000000" font-family="sans-serif" font-size="14" lengthAdjust="spacing" textLength="170" x="27" y="259.7285">isValidCode( courseCode )</text></g><!--class Exam--><g id="elem_Exam"><rect codeLine="38" fill="#F1F1F1" height="76.543" id="Exam" rx="2.5" ry="2.5" style="stroke:#181818;stroke-width:0.5;" width="72" x="588" y="748"/><ellipse cx="603" cy="778.2715" fill="#ADD1B2" rx="11" ry="11" style="stroke:#181818;stroke-width:1.0;"/><path d="M605.7656,774.1465 Q605.9219,773.9277 606.1094,773.8184 Q606.2969,773.709 606.5156,773.709 Q606.8906,773.709 607.125,773.9746 Q607.3594,774.2246 607.3594,774.834 L607.3594,776.2871 Q607.3594,776.8965 607.125,777.1621 Q606.8906,777.4277 606.5156,777.4277 Q606.1719,777.4277 605.9688,777.2246 Q605.7656,777.0371 605.6563,776.5215 Q605.6094,776.1621 605.4219,775.9746 Q605.0938,775.5996 604.4844,775.3809 Q603.875,775.1621 603.25,775.1621 Q602.4844,775.1621 601.8438,775.4902 Q601.2188,775.8184 600.7188,776.5684 Q600.2344,777.3184 600.2344,778.3496 L600.2344,779.4434 Q600.2344,780.6777 601.125,781.5059 Q602.0156,782.3184 603.6094,782.3184 Q604.5469,782.3184 605.2031,782.0684 Q605.5938,781.9121 606.0156,781.4746 Q606.2813,781.209 606.4219,781.1309 Q606.5781,781.0527 606.7813,781.0527 Q607.1094,781.0527 607.3594,781.3184 Q607.625,781.5684 607.625,781.9121 Q607.625,782.2559 607.2813,782.6621 Q606.7813,783.2402 605.9844,783.5684 Q604.9063,784.0215 603.6094,784.0215 Q602.0938,784.0215 600.8906,783.3965 Q599.9063,782.8965 599.2188,781.834 Q598.5313,780.7559 598.5313,779.4746 L598.5313,778.3184 Q598.5313,776.9902 599.1406,775.8496 Q599.7656,774.6934 600.8594,774.084 Q601.9531,773.459 603.1875,773.459 Q603.9219,773.459 604.5625,773.6309 Q605.2188,773.7871 605.7656,774.1465 Z " fill="#000000"/><text fill="#000000" font-family="sans-serif" font-size="12" font-style="italic" lengthAdjust="spacing" textLength="35" x="619.5" y="765.9492">&#171;root&#187;</text><text fill="#000000" font-family="sans-serif" font-size="12" font-style="italic" lengthAdjust="spacing" textLength="44" x="615" y="781.9102">&#171;event&#187;</text><text fill="#000000" font-family="sans-serif" font-size="14" lengthAdjust="spacing" textLength="34" x="620" y="800.0293">Exam</text><line style="stroke:#181818;stroke-width:0.5;" x1="589" x2="659" y1="808.543" y2="808.543"/><line style="stroke:#181818;stroke-width:0.5;" x1="589" x2="659" y1="816.543" y2="816.543"/></g><!--class ListCourseService--><g id="elem_ListCourseService"><rect codeLine="41" fill="#F1F1F1" height="66.6211" id="ListCourseService" rx="2.5" ry="2.5" style="stroke:#181818;stroke-width:0.5;" width="160" x="405" y="474"/><ellipse cx="425.85" cy="490" fill="#ADD1B2" rx="11" ry="11" style="stroke:#181818;stroke-width:1.0;"/><path d="M428.6156,485.875 Q428.7719,485.6563 428.9594,485.5469 Q429.1469,485.4375 429.3656,485.4375 Q429.7406,485.4375 429.975,485.7031 Q430.2094,485.9531 430.2094,486.5625 L430.2094,488.0156 Q430.2094,488.625 429.975,488.8906 Q429.7406,489.1563 429.3656,489.1563 Q429.0219,489.1563 428.8188,488.9531 Q428.6156,488.7656 428.5063,488.25 Q428.4594,487.8906 428.2719,487.7031 Q427.9438,487.3281 427.3344,487.1094 Q426.725,486.8906 426.1,486.8906 Q425.3344,486.8906 424.6938,487.2188 Q424.0688,487.5469 423.5688,488.2969 Q423.0844,489.0469 423.0844,490.0781 L423.0844,491.1719 Q423.0844,492.4063 423.975,493.2344 Q424.8656,494.0469 426.4594,494.0469 Q427.3969,494.0469 428.0531,493.7969 Q428.4438,493.6406 428.8656,493.2031 Q429.1313,492.9375 429.2719,492.8594 Q429.4281,492.7813 429.6313,492.7813 Q429.9594,492.7813 430.2094,493.0469 Q430.475,493.2969 430.475,493.6406 Q430.475,493.9844 430.1313,494.3906 Q429.6313,494.9688 428.8344,495.2969 Q427.7563,495.75 426.4594,495.75 Q424.9438,495.75 423.7406,495.125 Q422.7563,494.625 422.0688,493.5625 Q421.3813,492.4844 421.3813,491.2031 L421.3813,490.0469 Q421.3813,488.7188 421.9906,487.5781 Q422.6156,486.4219 423.7094,485.8125 Q424.8031,485.1875 426.0375,485.1875 Q426.7719,485.1875 427.4125,485.3594 Q428.0688,485.5156 428.6156,485.875 Z " fill="#000000"/><text fill="#000000" font-family="sans-serif" font-size="14" lengthAdjust="spacing" textLength="115" x="441.15" y="495.7969">ListCourseService</text><line style="stroke:#181818;stroke-width:0.5;" x1="406" x2="564" y1="506" y2="506"/><line style="stroke:#181818;stroke-width:0.5;" x1="406" x2="564" y1="514" y2="514"/><ellipse cx="416" cy="528.8105" fill="#84BE84" rx="3" ry="3" style="stroke:#038048;stroke-width:1.0;"/><text fill="#000000" font-family="sans-serif" font-size="14" lengthAdjust="spacing" textLength="134" x="425" y="533.1074">allCoursesAvailable()</text></g><!--link eCourseSystemUser to ListExamsUI--><g id="link_eCourseSystemUser_ListExamsUI"><path codeLine="47" d="M782.75,121.33 C769.92,141.26 755.74,163.31 743.83,181.8 " fill="none" id="eCourseSystemUser-ListExamsUI" style="stroke:#181818;stroke-width:1.0;stroke-dasharray:7.0,7.0;"/></g><!--link ListExamsUI to ListExamsController--><g id="link_ListExamsUI_ListExamsController"><path codeLine="48" d="M717,267.11 C717,286.63 717,309.56 717,327.81 " fill="none" id="ListExamsUI-ListExamsController" style="stroke:#181818;stroke-width:1.0;stroke-dasharray:7.0,7.0;"/></g><!--link ListExamsUI to ListCoursesController--><g id="link_ListExamsUI_ListCoursesController"><path codeLine="49" d="M648.58,267.11 C616.48,286.63 578.77,309.56 548.75,327.81 " fill="none" id="ListExamsUI-ListCoursesController" style="stroke:#181818;stroke-width:1.0;stroke-dasharray:7.0,7.0;"/></g><!--link ListExamsController to ListCourseExamsService--><g id="link_ListExamsController_ListCourseExamsService"><path codeLine="50" d="M714.96,395.18 C713.48,418.74 711.51,450.42 710.03,473.95 " fill="none" id="ListExamsController-ListCourseExamsService" style="stroke:#181818;stroke-width:1.0;stroke-dasharray:7.0,7.0;"/></g><!--link ListCourseExamsService to ExamRepository--><g id="link_ListCourseExamsService_ExamRepository"><path codeLine="51" d="M686.15,541.28 C673.7,559.94 658.17,583.25 645.74,601.89 " fill="none" id="ListCourseExamsService-ExamRepository" style="stroke:#181818;stroke-width:1.0;stroke-dasharray:7.0,7.0;"/></g><!--link ListCourseExamsService to CourseRepository--><g id="link_ListCourseExamsService_CourseRepository"><path codeLine="52" d="M628.02,541.11 C582.16,559.82 524.77,583.22 478.91,601.92 " fill="none" id="ListCourseExamsService-CourseRepository" style="stroke:#181818;stroke-width:1.0;stroke-dasharray:7.0,7.0;"/></g><!--link Course to Exam--><g id="link_Course_Exam"><path codeLine="53" d="M277.38,121.09 C266.45,150.91 256,188.54 256,223.5 C256,223.5 256,223.5 256,636.5 C256,707.58 494.87,760.84 587.71,778.86 " fill="none" id="Course-Exam" style="stroke:#181818;stroke-width:1.0;"/><polygon fill="#000000" points="258.8666,430.1235,260.068,439.5579,265.3839,437.0499,258.8666,430.1235" style="stroke:#000000;stroke-width:1.0;"/><text fill="#000000" font-family="sans-serif" font-size="13" lengthAdjust="spacing" textLength="54" x="270" y="440.0283">related to</text><text fill="#000000" font-family="sans-serif" font-size="13" lengthAdjust="spacing" textLength="7" x="267.1286" y="142.7314">1</text><text fill="#000000" font-family="sans-serif" font-size="13" lengthAdjust="spacing" textLength="20" x="560.0432" y="773.2771">0..*</text></g><!--link ExamRepository to Exam--><g id="link_ExamRepository_Exam"><path codeLine="54" d="M624,669.2 C624,692.41 624,723.64 624,747.89 " fill="none" id="ExamRepository-Exam" style="stroke:#181818;stroke-width:1.0;stroke-dasharray:7.0,7.0;"/><text fill="#000000" font-family="sans-serif" font-size="13" lengthAdjust="spacing" textLength="25" x="625" y="714.0283">repo</text></g><!--link CourseRepository to Course--><g id="link_CourseRepository_Course"><path codeLine="55" d="M377.81,601.99 C363.8,577.36 348,542.13 348,508.5 C348,223.5 348,223.5 348,223.5 C348,188.54 337.55,150.91 326.62,121.09 " fill="none" id="CourseRepository-Course" style="stroke:#181818;stroke-width:1.0;stroke-dasharray:7.0,7.0;"/><text fill="#000000" font-family="sans-serif" font-size="13" lengthAdjust="spacing" textLength="25" x="349" y="367.0283">repo</text></g><!--link eCourseSystemUser to Exam--><g id="link_eCourseSystemUser_Exam"><path codeLine="56" d="M899.88,64.86 C1010.65,69.41 1196,96.05 1196,223.5 C1196,223.5 1196,223.5 1196,636.5 C1196,747.71 785.95,777.42 660.22,783.91 " fill="none" id="eCourseSystemUser-Exam" style="stroke:#181818;stroke-width:1.0;"/><polygon fill="#000000" points="1199.419,439.389,1205.0672,431.7373,1199.4909,429.8787,1199.419,439.389" style="stroke:#000000;stroke-width:1.0;"/><text fill="#000000" font-family="sans-serif" font-size="13" lengthAdjust="spacing" textLength="43" x="1210" y="440.0283">creates</text><text fill="#000000" font-family="sans-serif" font-size="13" lengthAdjust="spacing" textLength="7" x="907.3951" y="61.2304">1</text><text fill="#000000" font-family="sans-serif" font-size="13" lengthAdjust="spacing" textLength="5" x="668.206" y="778.7282">*</text></g><!--link Course to eCourseSystemUser--><g id="link_Course_eCourseSystemUser"><path codeLine="57" d="M341.28,64 C425.64,64 625.59,64 738.24,64 " fill="none" id="Course-eCourseSystemUser" style="stroke:#181818;stroke-width:1.0;"/><polygon fill="#000000" points="509.25,51.6455,518.2951,54.5844,518.2951,48.7066,509.25,51.6455" style="stroke:#000000;stroke-width:1.0;"/><text fill="#000000" font-family="sans-serif" font-size="13" lengthAdjust="spacing" textLength="46" x="523.25" y="57.0283">teaches</text><text fill="#000000" font-family="sans-serif" font-size="13" lengthAdjust="spacing" textLength="5" x="348.9832" y="59.5078">*</text><text fill="#000000" font-family="sans-serif" font-size="13" lengthAdjust="spacing" textLength="5" x="725.5645" y="60.268">*</text></g><!--link ListCoursesController to ListCourseService--><g id="link_ListCoursesController_ListCourseService"><path codeLine="58" d="M492.73,395.18 C491.09,418.74 488.89,450.42 487.26,473.95 " fill="none" id="ListCoursesController-ListCourseService" style="stroke:#181818;stroke-width:1.0;stroke-dasharray:7.0,7.0;"/></g><!--link ListCourseService to CourseRepository--><g id="link_ListCourseService_CourseRepository"><path codeLine="59" d="M462.63,541.28 C449.89,559.94 433.98,583.25 421.26,601.89 " fill="none" id="ListCourseService-CourseRepository" style="stroke:#181818;stroke-width:1.0;stroke-dasharray:7.0,7.0;"/></g><!--link Course to CourseCode--><g id="link_Course_CourseCode"><path codeLine="60" d="M262.61,96.69 C232.18,121.18 189.81,155.27 156.66,181.94 " fill="none" id="Course-CourseCode" style="stroke:#181818;stroke-width:1.0;stroke-dasharray:7.0,7.0;"/></g><!--link ListCourseExamsService to AuthorizationService--><g id="link_ListCourseExamsService_AuthorizationService"><path codeLine="61" d="M770.89,541.11 C806.89,559.78 851.92,583.13 887.95,601.81 " fill="none" id="ListCourseExamsService-AuthorizationService" style="stroke:#181818;stroke-width:1.0;stroke-dasharray:7.0,7.0;"/></g><!--link eCourseSystemUser to AuthorizationService--><g id="link_eCourseSystemUser_AuthorizationService"><path codeLine="62" d="M876.29,121.04 C899.08,149.25 920,185.49 920,223.5 C920,223.5 920,223.5 920,508.5 C920,540.94 929.81,576.75 938.39,601.88 " fill="none" id="eCourseSystemUser-AuthorizationService" style="stroke:#181818;stroke-width:1.0;stroke-dasharray:7.0,7.0;"/><text fill="#000000" font-family="sans-serif" font-size="13" lengthAdjust="spacing" textLength="25" x="921" y="367.0283">auth</text></g><!--SRC=[ZLF1ZjiW4Btp5IYNfgdYjDV8YfIcgNQbrLPATlTEyQH1miQ2ITHirNyl69mOmwxgqy2yDs-OUVvmH6pDSh5e9MlmLCk2gth19JDcNWdsIxEQaEv8OQDEsi3-OX3gPmEQbgLM2bSh6smR57YnuHz2mpUZtqzIFh8Q1bVxezBOtVqDPH-4mUrlLfldUy_zr6emqA2NCzCEKVhJYdwCC1qn85piyadXZMfGAob11m4gRSeN30LuTxZ_DgA75j82JCgGMv-PaEodX6cEsfNVWpuB3WdtRUtr2UsSn2j3ePeHNHYNjMyNd25KRX4z7AedDQLVcO6Tab0yRTURk-skgoiQ17rW7AZNta6hZ42bBttTCsXnkFXir5J4TZsdt8DeghMKFmuPUlycdnfw1cBFpAYeGj0C3UA96rL1Z-CslaxZXKbHkMolwkA1hkiuKZrRtKuqiw-tLZLQi_tIlw4eXbucWpXAtSoKWoIE8nbY31vwZEIl7I7Ut3l0iK58sDpaouJEvtJokIXc4p_M9TKWdGifAbgIMA8NxL2j8kEwDwqUaSwqrxm9SWrMqD3LjIsRyuYKlgG8Z1yjl2JPwSQJJ8Vu7sEvffpltXbhxf_EkoY7j4zXzleV]--></g></svg>