<?xml version="1.0" encoding="us-ascii" standalone="no"?><svg xmlns="http://www.w3.org/2000/svg" xmlns:xlink="http://www.w3.org/1999/xlink" contentStyleType="text/css" height="992px" preserveAspectRatio="none" style="width:1572px;height:992px;background:#FFFFFF;" version="1.1" viewBox="0 0 1572 992" width="1572px" zoomAndPan="magnify"><defs/><g><text fill="#000000" font-family="sans-serif" font-size="14" font-weight="bold" lengthAdjust="spacing" textLength="209" x="683" y="30.1074">SD - List all exams of a course</text><rect fill="#FFFFFF" height="714.4023" style="stroke:#181818;stroke-width:1.0;" width="10" x="217.5" y="161.1543"/><rect fill="#FFFFFF" height="31.291" style="stroke:#181818;stroke-width:1.0;" width="10" x="426.5" y="223.7363"/><rect fill="#FFFFFF" height="375.4922" style="stroke:#181818;stroke-width:1.0;" width="10" x="581.5" y="424.4824"/><rect fill="#FFFFFF" height="31.291" style="stroke:#181818;stroke-width:1.0;" width="10" x="939.5" y="455.7734"/><rect fill="#FFFFFF" height="219.0371" style="stroke:#181818;stroke-width:1.0;" width="10" x="1106" y="549.6465"/><rect fill="#FFFFFF" height="31.291" style="stroke:#181818;stroke-width:1.0;" width="10" x="1271" y="580.9375"/><rect fill="#FFFFFF" height="31.291" style="stroke:#181818;stroke-width:1.0;" width="10" x="1388" y="643.5195"/><rect fill="#FFFFFF" height="31.291" style="stroke:#181818;stroke-width:1.0;" width="10" x="1512" y="706.1016"/><line style="stroke:#181818;stroke-width:0.5;stroke-dasharray:5.0,5.0;" x1="34" x2="34" y1="127.8633" y2="893.5566"/><line style="stroke:#181818;stroke-width:0.5;stroke-dasharray:5.0,5.0;" x1="222" x2="222" y1="127.8633" y2="893.5566"/><line style="stroke:#181818;stroke-width:0.5;stroke-dasharray:5.0,5.0;" x1="431" x2="431" y1="127.8633" y2="893.5566"/><line style="stroke:#181818;stroke-width:0.5;stroke-dasharray:5.0,5.0;" x1="586" x2="586" y1="127.8633" y2="893.5566"/><line style="stroke:#181818;stroke-width:0.5;stroke-dasharray:5.0,5.0;" x1="944" x2="944" y1="127.8633" y2="893.5566"/><line style="stroke:#181818;stroke-width:0.5;stroke-dasharray:5.0,5.0;" x1="1111" x2="1111" y1="127.8633" y2="893.5566"/><line style="stroke:#181818;stroke-width:0.5;stroke-dasharray:5.0,5.0;" x1="1276" x2="1276" y1="127.8633" y2="893.5566"/><line style="stroke:#181818;stroke-width:0.5;stroke-dasharray:5.0,5.0;" x1="1393" x2="1393" y1="127.8633" y2="893.5566"/><line style="stroke:#181818;stroke-width:0.5;stroke-dasharray:5.0,5.0;" x1="1517" x2="1517" y1="127.8633" y2="893.5566"/><text fill="#000000" font-family="sans-serif" font-size="14" lengthAdjust="spacing" textLength="53" x="5" y="124.3496">Teacher</text><ellipse cx="34.5" cy="57.7422" fill="#E3E3E3" rx="8" ry="8" style="stroke:#181818;stroke-width:0.5;"/><path d="M34.5,65.7422 L34.5,92.7422 M21.5,73.7422 L47.5,73.7422 M34.5,92.7422 L21.5,107.7422 M34.5,92.7422 L47.5,107.7422 " fill="none" style="stroke:#181818;stroke-width:0.5;"/><text fill="#000000" font-family="sans-serif" font-size="14" lengthAdjust="spacing" textLength="53" x="5" y="907.6641">Teacher</text><ellipse cx="34.5" cy="919.6777" fill="#E3E3E3" rx="8" ry="8" style="stroke:#181818;stroke-width:0.5;"/><path d="M34.5,927.6777 L34.5,954.6777 M21.5,935.6777 L47.5,935.6777 M34.5,954.6777 L21.5,969.6777 M34.5,954.6777 L47.5,969.6777 " fill="none" style="stroke:#181818;stroke-width:0.5;"/><rect fill="#E3E3E3" height="51.2422" rx="2.5" ry="2.5" style="stroke:#181818;stroke-width:0.5;" width="109" x="168" y="75.6211"/><text fill="#000000" font-family="sans-serif" font-size="14" font-style="italic" lengthAdjust="spacing" textLength="95" x="175" y="97.7285">&#171;presentation&#187;</text><text fill="#000000" font-family="sans-serif" font-size="14" lengthAdjust="spacing" textLength="75" x="185" y="116.3496">ListExamsUI</text><rect fill="#E3E3E3" height="51.2422" rx="2.5" ry="2.5" style="stroke:#181818;stroke-width:0.5;" width="109" x="168" y="892.5566"/><text fill="#000000" font-family="sans-serif" font-size="14" font-style="italic" lengthAdjust="spacing" textLength="95" x="175" y="914.6641">&#171;presentation&#187;</text><text fill="#000000" font-family="sans-serif" font-size="14" lengthAdjust="spacing" textLength="75" x="185" y="933.2852">ListExamsUI</text><rect fill="#E3E3E3" height="51.2422" rx="2.5" ry="2.5" style="stroke:#181818;stroke-width:0.5;" width="151" x="356" y="75.6211"/><text fill="#000000" font-family="sans-serif" font-size="14" font-style="italic" lengthAdjust="spacing" textLength="84" x="389.5" y="97.7285">&#171;application&#187;</text><text fill="#000000" font-family="sans-serif" font-size="14" lengthAdjust="spacing" textLength="137" x="363" y="116.3496">ListCoursesController</text><rect fill="#E3E3E3" height="51.2422" rx="2.5" ry="2.5" style="stroke:#181818;stroke-width:0.5;" width="151" x="356" y="892.5566"/><text fill="#000000" font-family="sans-serif" font-size="14" font-style="italic" lengthAdjust="spacing" textLength="84" x="389.5" y="914.6641">&#171;application&#187;</text><text fill="#000000" font-family="sans-serif" font-size="14" lengthAdjust="spacing" textLength="137" x="363" y="933.2852">ListCoursesController</text><rect fill="#E3E3E3" height="51.2422" rx="2.5" ry="2.5" style="stroke:#181818;stroke-width:0.5;" width="139" x="517" y="75.6211"/><text fill="#000000" font-family="sans-serif" font-size="14" font-style="italic" lengthAdjust="spacing" textLength="84" x="544.5" y="97.7285">&#171;application&#187;</text><text fill="#000000" font-family="sans-serif" font-size="14" lengthAdjust="spacing" textLength="125" x="524" y="116.3496">ListExamsController</text><rect fill="#E3E3E3" height="51.2422" rx="2.5" ry="2.5" style="stroke:#181818;stroke-width:0.5;" width="139" x="517" y="892.5566"/><text fill="#000000" font-family="sans-serif" font-size="14" font-style="italic" lengthAdjust="spacing" textLength="84" x="544.5" y="914.6641">&#171;application&#187;</text><text fill="#000000" font-family="sans-serif" font-size="14" lengthAdjust="spacing" textLength="125" x="524" y="933.2852">ListExamsController</text><rect fill="#E3E3E3" height="51.2422" rx="2.5" ry="2.5" style="stroke:#181818;stroke-width:0.5;" width="143" x="873" y="75.6211"/><text fill="#000000" font-family="sans-serif" font-size="14" font-style="italic" lengthAdjust="spacing" textLength="60" x="914.5" y="97.7285">&#171;service&#187;</text><text fill="#000000" font-family="sans-serif" font-size="14" lengthAdjust="spacing" textLength="129" x="880" y="116.3496">AuthorizationService</text><rect fill="#E3E3E3" height="51.2422" rx="2.5" ry="2.5" style="stroke:#181818;stroke-width:0.5;" width="143" x="873" y="892.5566"/><text fill="#000000" font-family="sans-serif" font-size="14" font-style="italic" lengthAdjust="spacing" textLength="60" x="914.5" y="914.6641">&#171;service&#187;</text><text fill="#000000" font-family="sans-serif" font-size="14" lengthAdjust="spacing" textLength="129" x="880" y="933.2852">AuthorizationService</text><rect fill="#E3E3E3" height="51.2422" rx="2.5" ry="2.5" style="stroke:#181818;stroke-width:0.5;" width="170" x="1026" y="75.6211"/><text fill="#000000" font-family="sans-serif" font-size="14" font-style="italic" lengthAdjust="spacing" textLength="60" x="1081" y="97.7285">&#171;service&#187;</text><text fill="#000000" font-family="sans-serif" font-size="14" lengthAdjust="spacing" textLength="156" x="1033" y="116.3496">ListCourseExamsService</text><rect fill="#E3E3E3" height="51.2422" rx="2.5" ry="2.5" style="stroke:#181818;stroke-width:0.5;" width="170" x="1026" y="892.5566"/><text fill="#000000" font-family="sans-serif" font-size="14" font-style="italic" lengthAdjust="spacing" textLength="60" x="1081" y="914.6641">&#171;service&#187;</text><text fill="#000000" font-family="sans-serif" font-size="14" lengthAdjust="spacing" textLength="156" x="1033" y="933.2852">ListCourseExamsService</text><rect fill="#E3E3E3" height="32.6211" rx="2.5" ry="2.5" style="stroke:#181818;stroke-width:0.5;" width="94" x="1229" y="94.2422"/><text fill="#000000" font-family="sans-serif" font-size="14" lengthAdjust="spacing" textLength="80" x="1236" y="116.3496">CourseCode</text><rect fill="#E3E3E3" height="32.6211" rx="2.5" ry="2.5" style="stroke:#181818;stroke-width:0.5;" width="94" x="1229" y="892.5566"/><text fill="#000000" font-family="sans-serif" font-size="14" lengthAdjust="spacing" textLength="80" x="1236" y="914.6641">CourseCode</text><text fill="#000000" font-family="sans-serif" font-size="14" font-style="italic" lengthAdjust="spacing" textLength="79" x="1350.5" y="105.7285">&#171;repository&#187;</text><text fill="#000000" font-family="sans-serif" font-size="14" lengthAdjust="spacing" textLength="114" x="1333" y="124.3496">CourseRepository</text><path d="M1375,54.6211 C1375,44.6211 1393,44.6211 1393,44.6211 C1393,44.6211 1411,44.6211 1411,54.6211 L1411,80.6211 C1411,90.6211 1393,90.6211 1393,90.6211 C1393,90.6211 1375,90.6211 1375,80.6211 L1375,54.6211 " fill="#E3E3E3" style="stroke:#181818;stroke-width:1.5;"/><path d="M1375,54.6211 C1375,64.6211 1393,64.6211 1393,64.6211 C1393,64.6211 1411,64.6211 1411,54.6211 " fill="none" style="stroke:#181818;stroke-width:1.5;"/><text fill="#000000" font-family="sans-serif" font-size="14" font-style="italic" lengthAdjust="spacing" textLength="79" x="1350.5" y="907.6641">&#171;repository&#187;</text><text fill="#000000" font-family="sans-serif" font-size="14" lengthAdjust="spacing" textLength="114" x="1333" y="926.2852">CourseRepository</text><path d="M1375,939.7988 C1375,929.7988 1393,929.7988 1393,929.7988 C1393,929.7988 1411,929.7988 1411,939.7988 L1411,965.7988 C1411,975.7988 1393,975.7988 1393,975.7988 C1393,975.7988 1375,975.7988 1375,965.7988 L1375,939.7988 " fill="#E3E3E3" style="stroke:#181818;stroke-width:1.5;"/><path d="M1375,939.7988 C1375,949.7988 1393,949.7988 1393,949.7988 C1393,949.7988 1411,949.7988 1411,939.7988 " fill="none" style="stroke:#181818;stroke-width:1.5;"/><text fill="#000000" font-family="sans-serif" font-size="14" font-style="italic" lengthAdjust="spacing" textLength="79" x="1474.5" y="105.7285">&#171;repository&#187;</text><text fill="#000000" font-family="sans-serif" font-size="14" lengthAdjust="spacing" textLength="102" x="1463" y="124.3496">ExamRepository</text><path d="M1499,54.6211 C1499,44.6211 1517,44.6211 1517,44.6211 C1517,44.6211 1535,44.6211 1535,54.6211 L1535,80.6211 C1535,90.6211 1517,90.6211 1517,90.6211 C1517,90.6211 1499,90.6211 1499,80.6211 L1499,54.6211 " fill="#E3E3E3" style="stroke:#181818;stroke-width:1.5;"/><path d="M1499,54.6211 C1499,64.6211 1517,64.6211 1517,64.6211 C1517,64.6211 1535,64.6211 1535,54.6211 " fill="none" style="stroke:#181818;stroke-width:1.5;"/><text fill="#000000" font-family="sans-serif" font-size="14" font-style="italic" lengthAdjust="spacing" textLength="79" x="1474.5" y="907.6641">&#171;repository&#187;</text><text fill="#000000" font-family="sans-serif" font-size="14" lengthAdjust="spacing" textLength="102" x="1463" y="926.2852">ExamRepository</text><path d="M1499,939.7988 C1499,929.7988 1517,929.7988 1517,929.7988 C1517,929.7988 1535,929.7988 1535,939.7988 L1535,965.7988 C1535,975.7988 1517,975.7988 1517,975.7988 C1517,975.7988 1499,975.7988 1499,965.7988 L1499,939.7988 " fill="#E3E3E3" style="stroke:#181818;stroke-width:1.5;"/><path d="M1499,939.7988 C1499,949.7988 1517,949.7988 1517,949.7988 C1517,949.7988 1535,949.7988 1535,939.7988 " fill="none" style="stroke:#181818;stroke-width:1.5;"/><rect fill="#FFFFFF" height="714.4023" style="stroke:#181818;stroke-width:1.0;" width="10" x="217.5" y="161.1543"/><rect fill="#FFFFFF" height="31.291" style="stroke:#181818;stroke-width:1.0;" width="10" x="426.5" y="223.7363"/><rect fill="#FFFFFF" height="375.4922" style="stroke:#181818;stroke-width:1.0;" width="10" x="581.5" y="424.4824"/><rect fill="#FFFFFF" height="31.291" style="stroke:#181818;stroke-width:1.0;" width="10" x="939.5" y="455.7734"/><rect fill="#FFFFFF" height="219.0371" style="stroke:#181818;stroke-width:1.0;" width="10" x="1106" y="549.6465"/><rect fill="#FFFFFF" height="31.291" style="stroke:#181818;stroke-width:1.0;" width="10" x="1271" y="580.9375"/><rect fill="#FFFFFF" height="31.291" style="stroke:#181818;stroke-width:1.0;" width="10" x="1388" y="643.5195"/><rect fill="#FFFFFF" height="31.291" style="stroke:#181818;stroke-width:1.0;" width="10" x="1512" y="706.1016"/><polygon fill="#181818" points="205.5,157.1543,215.5,161.1543,205.5,165.1543,209.5,161.1543" style="stroke:#181818;stroke-width:1.0;"/><line style="stroke:#181818;stroke-width:1.0;stroke-dasharray:2.0,2.0;" x1="34.5" x2="211.5" y1="161.1543" y2="161.1543"/><text fill="#000000" font-family="sans-serif" font-size="13" lengthAdjust="spacing" textLength="114" x="41.5" y="155.8916">option to list exams</text><polygon fill="#181818" points="419.5,188.4453,429.5,192.4453,419.5,196.4453,423.5,192.4453" style="stroke:#181818;stroke-width:1.0;"/><line style="stroke:#181818;stroke-width:1.0;" x1="227.5" x2="425.5" y1="192.4453" y2="192.4453"/><text fill="#000000" font-family="sans-serif" font-size="13" lengthAdjust="spacing" textLength="36" x="234.5" y="187.1826">create</text><polygon fill="#181818" points="414.5,219.7363,424.5,223.7363,414.5,227.7363,418.5,223.7363" style="stroke:#181818;stroke-width:1.0;"/><line style="stroke:#181818;stroke-width:1.0;" x1="227.5" x2="420.5" y1="223.7363" y2="223.7363"/><text fill="#000000" font-family="sans-serif" font-size="13" lengthAdjust="spacing" textLength="124" x="234.5" y="218.4736">listCoursesAvailable()</text><polygon fill="#181818" points="238.5,251.0273,228.5,255.0273,238.5,259.0273,234.5,255.0273" style="stroke:#181818;stroke-width:1.0;"/><line style="stroke:#181818;stroke-width:1.0;stroke-dasharray:2.0,2.0;" x1="232.5" x2="430.5" y1="255.0273" y2="255.0273"/><text fill="#000000" font-family="sans-serif" font-size="13" lengthAdjust="spacing" textLength="78" x="244.5" y="249.7646">List&lt;Course&gt;</text><line style="stroke:#181818;stroke-width:1.0;" x1="227.5" x2="269.5" y1="286.3184" y2="286.3184"/><line style="stroke:#181818;stroke-width:1.0;" x1="269.5" x2="269.5" y1="286.3184" y2="299.3184"/><line style="stroke:#181818;stroke-width:1.0;" x1="228.5" x2="269.5" y1="299.3184" y2="299.3184"/><polygon fill="#181818" points="238.5,295.3184,228.5,299.3184,238.5,303.3184,234.5,299.3184" style="stroke:#181818;stroke-width:1.0;"/><text fill="#000000" font-family="sans-serif" font-size="13" lengthAdjust="spacing" textLength="185" x="234.5" y="281.0557">presentCourses( List&lt;Course&gt; )</text><polygon fill="#181818" points="45.5,326.6094,35.5,330.6094,45.5,334.6094,41.5,330.6094" style="stroke:#181818;stroke-width:1.0;"/><line style="stroke:#181818;stroke-width:1.0;stroke-dasharray:2.0,2.0;" x1="39.5" x2="216.5" y1="330.6094" y2="330.6094"/><text fill="#000000" font-family="sans-serif" font-size="13" lengthAdjust="spacing" textLength="159" x="51.5" y="325.3467">asks to insert one courseID</text><polygon fill="#181818" points="205.5,357.9004,215.5,361.9004,205.5,365.9004,209.5,361.9004" style="stroke:#181818;stroke-width:1.0;"/><line style="stroke:#181818;stroke-width:1.0;stroke-dasharray:2.0,2.0;" x1="34.5" x2="211.5" y1="361.9004" y2="361.9004"/><text fill="#000000" font-family="sans-serif" font-size="13" lengthAdjust="spacing" textLength="51" x="41.5" y="356.6377">courseID</text><polygon fill="#181818" points="574.5,389.1914,584.5,393.1914,574.5,397.1914,578.5,393.1914" style="stroke:#181818;stroke-width:1.0;"/><line style="stroke:#181818;stroke-width:1.0;" x1="227.5" x2="580.5" y1="393.1914" y2="393.1914"/><text fill="#000000" font-family="sans-serif" font-size="13" lengthAdjust="spacing" textLength="36" x="234.5" y="387.9287">create</text><polygon fill="#181818" points="569.5,420.4824,579.5,424.4824,569.5,428.4824,573.5,424.4824" style="stroke:#181818;stroke-width:1.0;"/><line style="stroke:#181818;stroke-width:1.0;" x1="227.5" x2="575.5" y1="424.4824" y2="424.4824"/><text fill="#000000" font-family="sans-serif" font-size="13" lengthAdjust="spacing" textLength="166" x="234.5" y="419.2197">listCourseExams( courseID )</text><polygon fill="#181818" points="927.5,451.7734,937.5,455.7734,927.5,459.7734,931.5,455.7734" style="stroke:#181818;stroke-width:1.0;"/><line style="stroke:#181818;stroke-width:1.0;" x1="591.5" x2="933.5" y1="455.7734" y2="455.7734"/><text fill="#000000" font-family="sans-serif" font-size="13" lengthAdjust="spacing" textLength="329" x="598.5" y="450.5107">isAuthenticatedUserAuthorizedTo(BaseRoles.TEACHER)</text><polygon fill="#181818" points="602.5,483.0645,592.5,487.0645,602.5,491.0645,598.5,487.0645" style="stroke:#181818;stroke-width:1.0;"/><line style="stroke:#181818;stroke-width:1.0;stroke-dasharray:2.0,2.0;" x1="596.5" x2="943.5" y1="487.0645" y2="487.0645"/><text fill="#000000" font-family="sans-serif" font-size="13" lengthAdjust="spacing" textLength="22" x="608.5" y="481.8018">true</text><polygon fill="#181818" points="1099,514.3555,1109,518.3555,1099,522.3555,1103,518.3555" style="stroke:#181818;stroke-width:1.0;"/><line style="stroke:#181818;stroke-width:1.0;" x1="591.5" x2="1105" y1="518.3555" y2="518.3555"/><text fill="#000000" font-family="sans-serif" font-size="13" lengthAdjust="spacing" textLength="36" x="598.5" y="513.0928">create</text><polygon fill="#181818" points="1094,545.6465,1104,549.6465,1094,553.6465,1098,549.6465" style="stroke:#181818;stroke-width:1.0;"/><line style="stroke:#181818;stroke-width:1.0;" x1="591.5" x2="1100" y1="549.6465" y2="549.6465"/><text fill="#000000" font-family="sans-serif" font-size="13" lengthAdjust="spacing" textLength="162" x="598.5" y="544.3838">allCourseExams( courseID )</text><polygon fill="#181818" points="1259,576.9375,1269,580.9375,1259,584.9375,1263,580.9375" style="stroke:#181818;stroke-width:1.0;"/><line style="stroke:#181818;stroke-width:1.0;" x1="1116" x2="1265" y1="580.9375" y2="580.9375"/><text fill="#000000" font-family="sans-serif" font-size="13" lengthAdjust="spacing" textLength="136" x="1123" y="575.6748">isValidCode( courseID )</text><polygon fill="#181818" points="1127,608.2285,1117,612.2285,1127,616.2285,1123,612.2285" style="stroke:#181818;stroke-width:1.0;"/><line style="stroke:#181818;stroke-width:1.0;stroke-dasharray:2.0,2.0;" x1="1121" x2="1275" y1="612.2285" y2="612.2285"/><text fill="#000000" font-family="sans-serif" font-size="13" lengthAdjust="spacing" textLength="45" x="1133" y="606.9658">boolean</text><polygon fill="#181818" points="1376,639.5195,1386,643.5195,1376,647.5195,1380,643.5195" style="stroke:#181818;stroke-width:1.0;"/><line style="stroke:#181818;stroke-width:1.0;" x1="1116" x2="1382" y1="643.5195" y2="643.5195"/><text fill="#000000" font-family="sans-serif" font-size="13" lengthAdjust="spacing" textLength="137" x="1123" y="638.2568">verifyCourse( courseID )</text><polygon fill="#181818" points="1127,670.8105,1117,674.8105,1127,678.8105,1123,674.8105" style="stroke:#181818;stroke-width:1.0;"/><line style="stroke:#181818;stroke-width:1.0;stroke-dasharray:2.0,2.0;" x1="1121" x2="1392" y1="674.8105" y2="674.8105"/><text fill="#000000" font-family="sans-serif" font-size="13" lengthAdjust="spacing" textLength="45" x="1133" y="669.5479">boolean</text><polygon fill="#181818" points="1500,702.1016,1510,706.1016,1500,710.1016,1504,706.1016" style="stroke:#181818;stroke-width:1.0;"/><line style="stroke:#181818;stroke-width:1.0;" x1="1116" x2="1506" y1="706.1016" y2="706.1016"/><text fill="#000000" font-family="sans-serif" font-size="13" lengthAdjust="spacing" textLength="156" x="1123" y="700.8389">findAllOfCourse( courseID )</text><polygon fill="#181818" points="1127,733.3926,1117,737.3926,1127,741.3926,1123,737.3926" style="stroke:#181818;stroke-width:1.0;"/><line style="stroke:#181818;stroke-width:1.0;stroke-dasharray:2.0,2.0;" x1="1121" x2="1516" y1="737.3926" y2="737.3926"/><text fill="#000000" font-family="sans-serif" font-size="13" lengthAdjust="spacing" textLength="71" x="1133" y="732.1299">List&lt;Exam&gt;</text><polygon fill="#181818" points="602.5,764.6836,592.5,768.6836,602.5,772.6836,598.5,768.6836" style="stroke:#181818;stroke-width:1.0;"/><line style="stroke:#181818;stroke-width:1.0;stroke-dasharray:2.0,2.0;" x1="596.5" x2="1110" y1="768.6836" y2="768.6836"/><text fill="#000000" font-family="sans-serif" font-size="13" lengthAdjust="spacing" textLength="71" x="608.5" y="763.4209">List&lt;Exam&gt;</text><polygon fill="#181818" points="238.5,795.9746,228.5,799.9746,238.5,803.9746,234.5,799.9746" style="stroke:#181818;stroke-width:1.0;"/><line style="stroke:#181818;stroke-width:1.0;stroke-dasharray:2.0,2.0;" x1="232.5" x2="585.5" y1="799.9746" y2="799.9746"/><text fill="#000000" font-family="sans-serif" font-size="13" lengthAdjust="spacing" textLength="71" x="244.5" y="794.7119">List&lt;Exam&gt;</text><line style="stroke:#181818;stroke-width:1.0;" x1="227.5" x2="269.5" y1="831.2656" y2="831.2656"/><line style="stroke:#181818;stroke-width:1.0;" x1="269.5" x2="269.5" y1="831.2656" y2="844.2656"/><line style="stroke:#181818;stroke-width:1.0;" x1="228.5" x2="269.5" y1="844.2656" y2="844.2656"/><polygon fill="#181818" points="238.5,840.2656,228.5,844.2656,238.5,848.2656,234.5,844.2656" style="stroke:#181818;stroke-width:1.0;"/><text fill="#000000" font-family="sans-serif" font-size="13" lengthAdjust="spacing" textLength="171" x="234.5" y="826.0029">presentExams( List&lt;Exam&gt; )</text><polygon fill="#181818" points="45.5,871.5566,35.5,875.5566,45.5,879.5566,41.5,875.5566" style="stroke:#181818;stroke-width:1.0;"/><line style="stroke:#181818;stroke-width:1.0;stroke-dasharray:2.0,2.0;" x1="39.5" x2="221.5" y1="875.5566" y2="875.5566"/><text fill="#000000" font-family="sans-serif" font-size="13" lengthAdjust="spacing" textLength="80" x="51.5" y="870.2939">shows exams</text><!--SRC=[bLHDZziW4BtpA-RMxC69rACLMKgJI1kfqahvs4Dln2Or2ZOMaBJfh- -07Go9lTjUBCFCUppU3FEbDAP9PxD6qDfSAZ7DPJNJPrutLD5gMffA4B-4IjOoBvMi61XrOK6aeVcP_cGxSnCC5CiD8OOR_D-j887lN1kWGW3xJIiDyWGKSdbHcX52SoCLx1dDIwQ0QbZO3OAqXkUyGLaElhR8myOcu7S-RnJJh3RKS5bdsLFwqh7hfQoDaaAqpFrggJHoqAOHF1-ZS2UE4No8NbnCAHN_us8xfguyP-vcX_th3m34wdPpLBWxEq3kjk-Zg1Qnb8NBNBwjra0AQkYHQjO5jwoHcgEjDvlIhxuYgV8hvFKuAs0CzGWYn9KCaYJ3sgGW6tjlC1A4hRkhkIqplrB3C8DW0J4rgaOAkM8O7ew9lgABA-M27WMRl12q4Znl176XkDntTTRaUKkMkRI2ZN2qKl2R0dJjrecOH2pmub8nj_KXHRlEsjwVrrWo0x9cNRjlLWzU-UsdYtj71Y8YRfI9fu5HKnuSiM9TDwR0jUrNl9njPbOSKFAzWLcnbvDls0zRAPYUxjUBvUjwsvuHdUEu_7RBd4IYyI0tCkuvWUizE4X7i6rwxy9O6AVAHqv4AX7XDotQ2iJdOYrufu8NzWqDCiIU8YIAk2UNU4L7YMRHEae9Uoo4Toh25vd2bIb-khMt-bnEW8qIGiv_5ZT4zgGHQKwyBXP2l9t-N-M8o42ZUrksdDddCaaiyx7b1gW2cdi_X7sLP7v8zBZ14J4q7xecxE5kDY2fU_Kfw5B-qjr434WFcxy0]--></g></svg>