<?xml version="1.0" encoding="us-ascii" standalone="no"?><svg xmlns="http://www.w3.org/2000/svg" xmlns:xlink="http://www.w3.org/1999/xlink" contentStyleType="text/css" height="582px" preserveAspectRatio="none" style="width:746px;height:582px;background:#FFFFFF;" version="1.1" viewBox="0 0 746 582" width="746px" zoomAndPan="magnify"><defs/><g><!--class eCourseSystemUser--><g id="elem_eCourseSystemUser"><rect codeLine="3" fill="#F1F1F1" height="113.7852" id="eCourseSystemUser" rx="2.5" ry="2.5" style="stroke:#181818;stroke-width:0.5;" width="161" x="245" y="7"/><ellipse cx="260" cy="37.2715" fill="#ADD1B2" rx="11" ry="11" style="stroke:#181818;stroke-width:1.0;"/><path d="M262.7656,33.1465 Q262.9219,32.9277 263.1094,32.8184 Q263.2969,32.709 263.5156,32.709 Q263.8906,32.709 264.125,32.9746 Q264.3594,33.2246 264.3594,33.834 L264.3594,35.2871 Q264.3594,35.8965 264.125,36.1621 Q263.8906,36.4277 263.5156,36.4277 Q263.1719,36.4277 262.9688,36.2246 Q262.7656,36.0371 262.6563,35.5215 Q262.6094,35.1621 262.4219,34.9746 Q262.0938,34.5996 261.4844,34.3809 Q260.875,34.1621 260.25,34.1621 Q259.4844,34.1621 258.8438,34.4902 Q258.2188,34.8184 257.7188,35.5684 Q257.2344,36.3184 257.2344,37.3496 L257.2344,38.4434 Q257.2344,39.6777 258.125,40.5059 Q259.0156,41.3184 260.6094,41.3184 Q261.5469,41.3184 262.2031,41.0684 Q262.5938,40.9121 263.0156,40.4746 Q263.2813,40.209 263.4219,40.1309 Q263.5781,40.0527 263.7813,40.0527 Q264.1094,40.0527 264.3594,40.3184 Q264.625,40.5684 264.625,40.9121 Q264.625,41.2559 264.2813,41.6621 Q263.7813,42.2402 262.9844,42.5684 Q261.9063,43.0215 260.6094,43.0215 Q259.0938,43.0215 257.8906,42.3965 Q256.9063,41.8965 256.2188,40.834 Q255.5313,39.7559 255.5313,38.4746 L255.5313,37.3184 Q255.5313,35.9902 256.1406,34.8496 Q256.7656,33.6934 257.8594,33.084 Q258.9531,32.459 260.1875,32.459 Q260.9219,32.459 261.5625,32.6309 Q262.2188,32.7871 262.7656,33.1465 Z " fill="#000000"/><text fill="#000000" font-family="sans-serif" font-size="12" font-style="italic" lengthAdjust="spacing" textLength="35" x="321" y="24.9492">&#171;root&#187;</text><text fill="#000000" font-family="sans-serif" font-size="12" font-style="italic" lengthAdjust="spacing" textLength="44" x="316.5" y="40.9102">&#171;Entity&#187;</text><text fill="#000000" font-family="sans-serif" font-size="14" lengthAdjust="spacing" textLength="129" x="274" y="59.0293">eCourseSystemUser</text><line style="stroke:#181818;stroke-width:0.5;" x1="246" x2="405" y1="67.543" y2="67.543"/><ellipse cx="256" cy="82.3535" fill="#000000" rx="3" ry="3" style="stroke:#000000;stroke-width:1.0;"/><text fill="#000000" font-family="sans-serif" font-size="14" lengthAdjust="spacing" textLength="59" x="265" y="86.6504">FullName</text><ellipse cx="256" cy="100.9746" fill="#000000" rx="3" ry="3" style="stroke:#000000;stroke-width:1.0;"/><text fill="#000000" font-family="sans-serif" font-size="14" lengthAdjust="spacing" textLength="70" x="265" y="105.2715">ShortName</text><line style="stroke:#181818;stroke-width:0.5;" x1="246" x2="405" y1="112.7852" y2="112.7852"/></g><!--class Email--><g id="elem_Email"><rect codeLine="7" fill="#F1F1F1" height="60.582" id="Email" rx="2.5" ry="2.5" style="stroke:#181818;stroke-width:0.5;" width="111" x="441" y="33.5"/><ellipse cx="456" cy="55.791" fill="#ADD1B2" rx="11" ry="11" style="stroke:#181818;stroke-width:1.0;"/><path d="M458.7656,51.666 Q458.9219,51.4473 459.1094,51.3379 Q459.2969,51.2285 459.5156,51.2285 Q459.8906,51.2285 460.125,51.4941 Q460.3594,51.7441 460.3594,52.3535 L460.3594,53.8066 Q460.3594,54.416 460.125,54.6816 Q459.8906,54.9473 459.5156,54.9473 Q459.1719,54.9473 458.9688,54.7441 Q458.7656,54.5566 458.6563,54.041 Q458.6094,53.6816 458.4219,53.4941 Q458.0938,53.1191 457.4844,52.9004 Q456.875,52.6816 456.25,52.6816 Q455.4844,52.6816 454.8438,53.0098 Q454.2188,53.3379 453.7188,54.0879 Q453.2344,54.8379 453.2344,55.8691 L453.2344,56.9629 Q453.2344,58.1973 454.125,59.0254 Q455.0156,59.8379 456.6094,59.8379 Q457.5469,59.8379 458.2031,59.5879 Q458.5938,59.4316 459.0156,58.9941 Q459.2813,58.7285 459.4219,58.6504 Q459.5781,58.5723 459.7813,58.5723 Q460.1094,58.5723 460.3594,58.8379 Q460.625,59.0879 460.625,59.4316 Q460.625,59.7754 460.2813,60.1816 Q459.7813,60.7598 458.9844,61.0879 Q457.9063,61.541 456.6094,61.541 Q455.0938,61.541 453.8906,60.916 Q452.9063,60.416 452.2188,59.3535 Q451.5313,58.2754 451.5313,56.9941 L451.5313,55.8379 Q451.5313,54.5098 452.1406,53.3691 Q452.7656,52.2129 453.8594,51.6035 Q454.9531,50.9785 456.1875,50.9785 Q456.9219,50.9785 457.5625,51.1504 Q458.2188,51.3066 458.7656,51.666 Z " fill="#000000"/><text fill="#000000" font-family="sans-serif" font-size="12" font-style="italic" lengthAdjust="spacing" textLength="83" x="468" y="51.4492">&#171;Value object&#187;</text><text fill="#000000" font-family="sans-serif" font-size="14" lengthAdjust="spacing" textLength="34" x="492.5" y="69.5684">Email</text><line style="stroke:#181818;stroke-width:0.5;" x1="442" x2="551" y1="78.082" y2="78.082"/><line style="stroke:#181818;stroke-width:0.5;" x1="442" x2="551" y1="86.082" y2="86.082"/></g><!--class ListMeetingParticipantsUI--><g id="elem_ListMeetingParticipantsUI"><rect codeLine="9" fill="#F1F1F1" height="85.2422" id="ListMeetingParticipantsUI" rx="2.5" ry="2.5" style="stroke:#181818;stroke-width:0.5;" width="299" x="176" y="181"/><ellipse cx="242.25" cy="197" fill="#ADD1B2" rx="11" ry="11" style="stroke:#181818;stroke-width:1.0;"/><path d="M245.0156,192.875 Q245.1719,192.6563 245.3594,192.5469 Q245.5469,192.4375 245.7656,192.4375 Q246.1406,192.4375 246.375,192.7031 Q246.6094,192.9531 246.6094,193.5625 L246.6094,195.0156 Q246.6094,195.625 246.375,195.8906 Q246.1406,196.1563 245.7656,196.1563 Q245.4219,196.1563 245.2188,195.9531 Q245.0156,195.7656 244.9063,195.25 Q244.8594,194.8906 244.6719,194.7031 Q244.3438,194.3281 243.7344,194.1094 Q243.125,193.8906 242.5,193.8906 Q241.7344,193.8906 241.0938,194.2188 Q240.4688,194.5469 239.9688,195.2969 Q239.4844,196.0469 239.4844,197.0781 L239.4844,198.1719 Q239.4844,199.4063 240.375,200.2344 Q241.2656,201.0469 242.8594,201.0469 Q243.7969,201.0469 244.4531,200.7969 Q244.8438,200.6406 245.2656,200.2031 Q245.5313,199.9375 245.6719,199.8594 Q245.8281,199.7813 246.0313,199.7813 Q246.3594,199.7813 246.6094,200.0469 Q246.875,200.2969 246.875,200.6406 Q246.875,200.9844 246.5313,201.3906 Q246.0313,201.9688 245.2344,202.2969 Q244.1563,202.75 242.8594,202.75 Q241.3438,202.75 240.1406,202.125 Q239.1563,201.625 238.4688,200.5625 Q237.7813,199.4844 237.7813,198.2031 L237.7813,197.0469 Q237.7813,195.7188 238.3906,194.5781 Q239.0156,193.4219 240.1094,192.8125 Q241.2031,192.1875 242.4375,192.1875 Q243.1719,192.1875 243.8125,192.3594 Q244.4688,192.5156 245.0156,192.875 Z " fill="#000000"/><text fill="#000000" font-family="sans-serif" font-size="14" lengthAdjust="spacing" textLength="158" x="262.75" y="202.7969">ListMeetingParticipantsUI</text><line style="stroke:#181818;stroke-width:0.5;" x1="177" x2="474" y1="213" y2="213"/><line style="stroke:#181818;stroke-width:0.5;" x1="177" x2="474" y1="221" y2="221"/><ellipse cx="187" cy="235.8105" fill="#84BE84" rx="3" ry="3" style="stroke:#038048;stroke-width:1.0;"/><text fill="#000000" font-family="sans-serif" font-size="14" lengthAdjust="spacing" textLength="203" x="196" y="240.1074">displayMeetings( List&lt;Meeting&gt;)</text><ellipse cx="187" cy="254.4316" fill="#84BE84" rx="3" ry="3" style="stroke:#038048;stroke-width:1.0;"/><text fill="#000000" font-family="sans-serif" font-size="14" lengthAdjust="spacing" textLength="273" x="196" y="258.7285">displayMeetingInvites( List&lt;MeetingInvite&gt; )</text></g><!--class ManageMeetingController--><g id="elem_ManageMeetingController"><rect codeLine="13" fill="#F1F1F1" height="103.8633" id="ManageMeetingController" rx="2.5" ry="2.5" style="stroke:#181818;stroke-width:0.5;" width="222" x="214.5" y="326"/><ellipse cx="241.65" cy="342" fill="#ADD1B2" rx="11" ry="11" style="stroke:#181818;stroke-width:1.0;"/><path d="M244.4156,337.875 Q244.5719,337.6563 244.7594,337.5469 Q244.9469,337.4375 245.1656,337.4375 Q245.5406,337.4375 245.775,337.7031 Q246.0094,337.9531 246.0094,338.5625 L246.0094,340.0156 Q246.0094,340.625 245.775,340.8906 Q245.5406,341.1563 245.1656,341.1563 Q244.8219,341.1563 244.6188,340.9531 Q244.4156,340.7656 244.3063,340.25 Q244.2594,339.8906 244.0719,339.7031 Q243.7438,339.3281 243.1344,339.1094 Q242.525,338.8906 241.9,338.8906 Q241.1344,338.8906 240.4938,339.2188 Q239.8688,339.5469 239.3688,340.2969 Q238.8844,341.0469 238.8844,342.0781 L238.8844,343.1719 Q238.8844,344.4063 239.775,345.2344 Q240.6656,346.0469 242.2594,346.0469 Q243.1969,346.0469 243.8531,345.7969 Q244.2438,345.6406 244.6656,345.2031 Q244.9313,344.9375 245.0719,344.8594 Q245.2281,344.7813 245.4313,344.7813 Q245.7594,344.7813 246.0094,345.0469 Q246.275,345.2969 246.275,345.6406 Q246.275,345.9844 245.9313,346.3906 Q245.4313,346.9688 244.6344,347.2969 Q243.5563,347.75 242.2594,347.75 Q240.7438,347.75 239.5406,347.125 Q238.5563,346.625 237.8688,345.5625 Q237.1813,344.4844 237.1813,343.2031 L237.1813,342.0469 Q237.1813,340.7188 237.7906,339.5781 Q238.4156,338.4219 239.5094,337.8125 Q240.6031,337.1875 241.8375,337.1875 Q242.5719,337.1875 243.2125,337.3594 Q243.8688,337.5156 244.4156,337.875 Z " fill="#000000"/><text fill="#000000" font-family="sans-serif" font-size="14" lengthAdjust="spacing" textLength="163" x="258.35" y="347.7969">ManageMeetingController</text><line style="stroke:#181818;stroke-width:0.5;" x1="215.5" x2="435.5" y1="358" y2="358"/><line style="stroke:#181818;stroke-width:0.5;" x1="215.5" x2="435.5" y1="366" y2="366"/><ellipse cx="225.5" cy="380.8105" fill="#84BE84" rx="3" ry="3" style="stroke:#038048;stroke-width:1.0;"/><text fill="#000000" font-family="sans-serif" font-size="14" lengthAdjust="spacing" textLength="131" x="234.5" y="385.1074">getAllUserMeetings()</text><ellipse cx="225.5" cy="399.4316" fill="#84BE84" rx="3" ry="3" style="stroke:#038048;stroke-width:1.0;"/><text fill="#000000" font-family="sans-serif" font-size="14" lengthAdjust="spacing" textLength="180" x="234.5" y="403.7285">getAllParticipatingMeetings()</text><ellipse cx="225.5" cy="418.0527" fill="#84BE84" rx="3" ry="3" style="stroke:#038048;stroke-width:1.0;"/><text fill="#000000" font-family="sans-serif" font-size="14" lengthAdjust="spacing" textLength="196" x="234.5" y="422.3496">getAllMeetingIvites( meetingId )</text></g><!--class AuthenticationService--><g id="elem_AuthenticationService"><rect codeLine="18" fill="#F1F1F1" height="66.6211" id="AuthenticationService" rx="2.5" ry="2.5" style="stroke:#181818;stroke-width:0.5;" width="169" x="7" y="499"/><ellipse cx="22" cy="515" fill="#ADD1B2" rx="11" ry="11" style="stroke:#181818;stroke-width:1.0;"/><path d="M24.7656,510.875 Q24.9219,510.6563 25.1094,510.5469 Q25.2969,510.4375 25.5156,510.4375 Q25.8906,510.4375 26.125,510.7031 Q26.3594,510.9531 26.3594,511.5625 L26.3594,513.0156 Q26.3594,513.625 26.125,513.8906 Q25.8906,514.1563 25.5156,514.1563 Q25.1719,514.1563 24.9688,513.9531 Q24.7656,513.7656 24.6563,513.25 Q24.6094,512.8906 24.4219,512.7031 Q24.0938,512.3281 23.4844,512.1094 Q22.875,511.8906 22.25,511.8906 Q21.4844,511.8906 20.8438,512.2188 Q20.2188,512.5469 19.7188,513.2969 Q19.2344,514.0469 19.2344,515.0781 L19.2344,516.1719 Q19.2344,517.4063 20.125,518.2344 Q21.0156,519.0469 22.6094,519.0469 Q23.5469,519.0469 24.2031,518.7969 Q24.5938,518.6406 25.0156,518.2031 Q25.2813,517.9375 25.4219,517.8594 Q25.5781,517.7813 25.7813,517.7813 Q26.1094,517.7813 26.3594,518.0469 Q26.625,518.2969 26.625,518.6406 Q26.625,518.9844 26.2813,519.3906 Q25.7813,519.9688 24.9844,520.2969 Q23.9063,520.75 22.6094,520.75 Q21.0938,520.75 19.8906,520.125 Q18.9063,519.625 18.2188,518.5625 Q17.5313,517.4844 17.5313,516.2031 L17.5313,515.0469 Q17.5313,513.7188 18.1406,512.5781 Q18.7656,511.4219 19.8594,510.8125 Q20.9531,510.1875 22.1875,510.1875 Q22.9219,510.1875 23.5625,510.3594 Q24.2188,510.5156 24.7656,510.875 Z " fill="#000000"/><text fill="#000000" font-family="sans-serif" font-size="14" lengthAdjust="spacing" textLength="137" x="36" y="520.7969">AuthenticationService</text><line style="stroke:#181818;stroke-width:0.5;" x1="8" x2="175" y1="531" y2="531"/><line style="stroke:#181818;stroke-width:0.5;" x1="8" x2="175" y1="539" y2="539"/><ellipse cx="18" cy="553.8105" fill="#84BE84" rx="3" ry="3" style="stroke:#038048;stroke-width:1.0;"/><text fill="#000000" font-family="sans-serif" font-size="14" lengthAdjust="spacing" textLength="58" x="27" y="558.1074">session()</text></g><!--class MeetingInviteRepository--><g id="elem_MeetingInviteRepository"><rect codeLine="21" fill="#F1F1F1" height="66.6211" id="MeetingInviteRepository" rx="2.5" ry="2.5" style="stroke:#181818;stroke-width:0.5;" width="229" x="211" y="499"/><ellipse cx="246.25" cy="515" fill="#B4A7E5" rx="11" ry="11" style="stroke:#181818;stroke-width:1.0;"/><path d="M247.2031,511.6406 L247.2031,518.2969 L248.9219,518.2969 Q249.5313,518.2969 249.7969,518.5313 Q250.0625,518.7656 250.0625,519.1563 Q250.0625,519.5313 249.7969,519.7656 Q249.5313,520 248.9219,520 L243.7813,520 Q243.1719,520 242.9063,519.7656 Q242.6406,519.5313 242.6406,519.1406 Q242.6406,518.7656 242.9063,518.5313 Q243.1719,518.2969 243.7813,518.2969 L245.5,518.2969 L245.5,511.6406 L243.7813,511.6406 Q243.1719,511.6406 242.9063,511.4063 Q242.6406,511.1719 242.6406,510.7813 Q242.6406,510.4063 242.9063,510.1719 Q243.1719,509.9375 243.7813,509.9375 L248.9219,509.9375 Q249.5313,509.9375 249.7969,510.1719 Q250.0625,510.4063 250.0625,510.7813 Q250.0625,511.1719 249.7969,511.4063 Q249.5313,511.6406 248.9219,511.6406 L247.2031,511.6406 Z " fill="#000000"/><text fill="#000000" font-family="sans-serif" font-size="14" font-style="italic" lengthAdjust="spacing" textLength="152" x="264.75" y="520.7969">MeetingInviteRepository</text><line style="stroke:#181818;stroke-width:0.5;" x1="212" x2="439" y1="531" y2="531"/><line style="stroke:#181818;stroke-width:0.5;" x1="212" x2="439" y1="539" y2="539"/><ellipse cx="222" cy="553.8105" fill="#84BE84" rx="3" ry="3" style="stroke:#038048;stroke-width:1.0;"/><text fill="#000000" font-family="sans-serif" font-size="14" lengthAdjust="spacing" textLength="203" x="231" y="558.1074">searchByMeetingID( meetingID )</text></g><!--class MeetingRepository--><g id="elem_MeetingRepository"><rect codeLine="24" fill="#F1F1F1" height="85.2422" id="MeetingRepository" rx="2.5" ry="2.5" style="stroke:#181818;stroke-width:0.5;" width="264" x="475.5" y="490"/><ellipse cx="543.75" cy="506" fill="#B4A7E5" rx="11" ry="11" style="stroke:#181818;stroke-width:1.0;"/><path d="M544.7031,502.6406 L544.7031,509.2969 L546.4219,509.2969 Q547.0313,509.2969 547.2969,509.5313 Q547.5625,509.7656 547.5625,510.1563 Q547.5625,510.5313 547.2969,510.7656 Q547.0313,511 546.4219,511 L541.2813,511 Q540.6719,511 540.4063,510.7656 Q540.1406,510.5313 540.1406,510.1406 Q540.1406,509.7656 540.4063,509.5313 Q540.6719,509.2969 541.2813,509.2969 L543,509.2969 L543,502.6406 L541.2813,502.6406 Q540.6719,502.6406 540.4063,502.4063 Q540.1406,502.1719 540.1406,501.7813 Q540.1406,501.4063 540.4063,501.1719 Q540.6719,500.9375 541.2813,500.9375 L546.4219,500.9375 Q547.0313,500.9375 547.2969,501.1719 Q547.5625,501.4063 547.5625,501.7813 Q547.5625,502.1719 547.2969,502.4063 Q547.0313,502.6406 546.4219,502.6406 L544.7031,502.6406 Z " fill="#000000"/><text fill="#000000" font-family="sans-serif" font-size="14" font-style="italic" lengthAdjust="spacing" textLength="119" x="564.25" y="511.7969">MeetingRepository</text><line style="stroke:#181818;stroke-width:0.5;" x1="476.5" x2="738.5" y1="522" y2="522"/><line style="stroke:#181818;stroke-width:0.5;" x1="476.5" x2="738.5" y1="530" y2="530"/><ellipse cx="486.5" cy="544.8105" fill="#84BE84" rx="3" ry="3" style="stroke:#038048;stroke-width:1.0;"/><text fill="#000000" font-family="sans-serif" font-size="14" lengthAdjust="spacing" textLength="212" x="495.5" y="549.1074">getAllMeetingsWithOwner( email )</text><ellipse cx="486.5" cy="563.4316" fill="#84BE84" rx="3" ry="3" style="stroke:#038048;stroke-width:1.0;"/><text fill="#000000" font-family="sans-serif" font-size="14" lengthAdjust="spacing" textLength="238" x="495.5" y="567.7285">getAllMeetingsWithParticipant( email )</text></g><!--link eCourseSystemUser to Email--><g id="link_eCourseSystemUser_Email"><path codeLine="31" d="M406.32,64 C417.83,64 429.34,64 440.84,64 " fill="none" id="eCourseSystemUser-Email" style="stroke:#181818;stroke-width:1.0;"/></g><!--link eCourseSystemUser to ListMeetingParticipantsUI--><g id="link_eCourseSystemUser_ListMeetingParticipantsUI"><path codeLine="32" d="M325.5,121.42 C325.5,141.01 325.5,162.62 325.5,180.81 " fill="none" id="eCourseSystemUser-ListMeetingParticipantsUI" style="stroke:#181818;stroke-width:1.0;stroke-dasharray:7.0,7.0;"/></g><!--link ListMeetingParticipantsUI to ManageMeetingController--><g id="link_ListMeetingParticipantsUI_ManageMeetingController"><path codeLine="33" d="M325.5,266.17 C325.5,284.6 325.5,306.45 325.5,325.86 " fill="none" id="ListMeetingParticipantsUI-ManageMeetingController" style="stroke:#181818;stroke-width:1.0;stroke-dasharray:7.0,7.0;"/></g><!--link ManageMeetingController to AuthenticationService--><g id="link_ManageMeetingController_AuthenticationService"><path codeLine="34" d="M246.93,430.2 C212.14,452.88 172.26,478.87 141.6,498.85 " fill="none" id="ManageMeetingController-AuthenticationService" style="stroke:#181818;stroke-width:1.0;stroke-dasharray:7.0,7.0;"/></g><!--link ManageMeetingController to MeetingInviteRepository--><g id="link_ManageMeetingController_MeetingInviteRepository"><path codeLine="35" d="M325.5,430.2 C325.5,452.88 325.5,478.87 325.5,498.85 " fill="none" id="ManageMeetingController-MeetingInviteRepository" style="stroke:#181818;stroke-width:1.0;stroke-dasharray:7.0,7.0;"/></g><!--link ManageMeetingController to MeetingRepository--><g id="link_ManageMeetingController_MeetingRepository"><path codeLine="36" d="M420.19,430.2 C456.03,449.59 496.36,471.4 530.4,489.8 " fill="none" id="ManageMeetingController-MeetingRepository" style="stroke:#181818;stroke-width:1.0;stroke-dasharray:7.0,7.0;"/></g><!--SRC=[ZL9HJy8m47xVh-YRJ0Ey6x840HCIKID1dsivjvgkNNetp6BuxtQZ6o2hiK-zk-_xxkjThpAY0c_7uq9nJMMkHiBaOw4uud0hUMfv7aLDo61cIekmhf0Wto1ODfbOOoX9t6MXILBbhjyHS-UQtPTAFV8SVBZEZAKctdkvHSwbSinNhafWvlqJX9Dgcpr8f1K0IPq-SqjIoCBvmytoe7_3jXATvSfZSD0m9ZvCubxKKkyamI_i8Pcmk7EsufgduCipeyaQfS2sdLEWgLBr0BhcyLcfCrmN0vYskJUK-t1xOcDQKWPkhCBf6Bq6kvC2MXC8Y2uxgE5I4zWFBe2TFUa52eEIZAsE96v5TjUDOtviF6UzIfSQP_RnJLBszAN13XWq-uo3i9Cr7i7xo9tBZpKy_8wUocWK_XfHi5BJ0bkD0lcQqhk1lmY1-V-3SWB-0G00]--></g></svg>