<?xml version="1.0" encoding="us-ascii" standalone="no"?><svg xmlns="http://www.w3.org/2000/svg" xmlns:xlink="http://www.w3.org/1999/xlink" contentStyleType="text/css" height="765px" preserveAspectRatio="none" style="width:1090px;height:765px;background:#FFFFFF;" version="1.1" viewBox="0 0 1090 765" width="1090px" zoomAndPan="magnify"><defs/><g><rect fill="#FFFFFF" height="294.6191" style="stroke:#181818;stroke-width:1.0;" width="10" x="258.5" y="121.5332"/><rect fill="#FFFFFF" height="200.7461" style="stroke:#181818;stroke-width:1.0;" width="10" x="258.5" y="447.4434"/><rect fill="#FFFFFF" height="156.4551" style="stroke:#181818;stroke-width:1.0;" width="10" x="533.5" y="184.1152"/><rect fill="#FFFFFF" height="93.873" style="stroke:#181818;stroke-width:1.0;" width="10" x="533.5" y="478.7344"/><rect fill="#FFFFFF" height="31.291" style="stroke:#181818;stroke-width:1.0;" width="10" x="707.5" y="215.4063"/><rect fill="#FFFFFF" height="31.291" style="stroke:#181818;stroke-width:1.0;" width="10" x="871.5" y="510.0254"/><rect fill="#FFFFFF" height="31.291" style="stroke:#181818;stroke-width:1.0;" width="10" x="1022" y="277.9883"/><line style="stroke:#181818;stroke-width:0.5;stroke-dasharray:5.0,5.0;" x1="72" x2="72" y1="88.2422" y2="666.1895"/><line style="stroke:#181818;stroke-width:0.5;stroke-dasharray:5.0,5.0;" x1="263.5" x2="263.5" y1="88.2422" y2="666.1895"/><line style="stroke:#181818;stroke-width:0.5;stroke-dasharray:5.0,5.0;" x1="538" x2="538" y1="88.2422" y2="666.1895"/><line style="stroke:#181818;stroke-width:0.5;stroke-dasharray:5.0,5.0;" x1="712" x2="712" y1="88.2422" y2="666.1895"/><line style="stroke:#181818;stroke-width:0.5;stroke-dasharray:5.0,5.0;" x1="876" x2="876" y1="88.2422" y2="666.1895"/><line style="stroke:#181818;stroke-width:0.5;stroke-dasharray:5.0,5.0;" x1="1027" x2="1027" y1="88.2422" y2="666.1895"/><text fill="#000000" font-family="sans-serif" font-size="14" lengthAdjust="spacing" textLength="129" x="5" y="84.7285">eCourseSystemUser</text><ellipse cx="72.5" cy="18.1211" fill="#E3E3E3" rx="8" ry="8" style="stroke:#181818;stroke-width:0.5;"/><path d="M72.5,26.1211 L72.5,53.1211 M59.5,34.1211 L85.5,34.1211 M72.5,53.1211 L59.5,68.1211 M72.5,53.1211 L85.5,68.1211 " fill="none" style="stroke:#181818;stroke-width:0.5;"/><text fill="#000000" font-family="sans-serif" font-size="14" lengthAdjust="spacing" textLength="129" x="5" y="680.2969">eCourseSystemUser</text><ellipse cx="72.5" cy="692.3105" fill="#E3E3E3" rx="8" ry="8" style="stroke:#181818;stroke-width:0.5;"/><path d="M72.5,700.3105 L72.5,727.3105 M59.5,708.3105 L85.5,708.3105 M72.5,727.3105 L59.5,742.3105 M72.5,727.3105 L85.5,742.3105 " fill="none" style="stroke:#181818;stroke-width:0.5;"/><rect fill="#E3E3E3" height="51.2422" rx="2.5" ry="2.5" style="stroke:#181818;stroke-width:0.5;" width="172" x="177.5" y="36"/><text fill="#000000" font-family="sans-serif" font-size="14" font-style="italic" lengthAdjust="spacing" textLength="95" x="216" y="58.1074">&#171;presentation&#187;</text><text fill="#000000" font-family="sans-serif" font-size="14" lengthAdjust="spacing" textLength="158" x="184.5" y="76.7285">ListMeetingParticipantsUI</text><rect fill="#E3E3E3" height="51.2422" rx="2.5" ry="2.5" style="stroke:#181818;stroke-width:0.5;" width="172" x="177.5" y="665.1895"/><text fill="#000000" font-family="sans-serif" font-size="14" font-style="italic" lengthAdjust="spacing" textLength="95" x="216" y="687.2969">&#171;presentation&#187;</text><text fill="#000000" font-family="sans-serif" font-size="14" lengthAdjust="spacing" textLength="158" x="184.5" y="705.918">ListMeetingParticipantsUI</text><rect fill="#E3E3E3" height="51.2422" rx="2.5" ry="2.5" style="stroke:#181818;stroke-width:0.5;" width="177" x="450" y="36"/><text fill="#000000" font-family="sans-serif" font-size="14" font-style="italic" lengthAdjust="spacing" textLength="84" x="496.5" y="58.1074">&#171;application&#187;</text><text fill="#000000" font-family="sans-serif" font-size="14" lengthAdjust="spacing" textLength="163" x="457" y="76.7285">ManageMeetingController</text><rect fill="#E3E3E3" height="51.2422" rx="2.5" ry="2.5" style="stroke:#181818;stroke-width:0.5;" width="177" x="450" y="665.1895"/><text fill="#000000" font-family="sans-serif" font-size="14" font-style="italic" lengthAdjust="spacing" textLength="84" x="496.5" y="687.2969">&#171;application&#187;</text><text fill="#000000" font-family="sans-serif" font-size="14" lengthAdjust="spacing" textLength="163" x="457" y="705.918">ManageMeetingController</text><rect fill="#E3E3E3" height="51.2422" rx="2.5" ry="2.5" style="stroke:#181818;stroke-width:0.5;" width="151" x="637" y="36"/><text fill="#000000" font-family="sans-serif" font-size="14" font-style="italic" lengthAdjust="spacing" textLength="60" x="682.5" y="58.1074">&#171;service&#187;</text><text fill="#000000" font-family="sans-serif" font-size="14" lengthAdjust="spacing" textLength="137" x="644" y="76.7285">AuthenticationService</text><rect fill="#E3E3E3" height="51.2422" rx="2.5" ry="2.5" style="stroke:#181818;stroke-width:0.5;" width="151" x="637" y="665.1895"/><text fill="#000000" font-family="sans-serif" font-size="14" font-style="italic" lengthAdjust="spacing" textLength="60" x="682.5" y="687.2969">&#171;service&#187;</text><text fill="#000000" font-family="sans-serif" font-size="14" lengthAdjust="spacing" textLength="137" x="644" y="705.918">AuthenticationService</text><text fill="#000000" font-family="sans-serif" font-size="14" font-style="italic" lengthAdjust="spacing" textLength="79" x="834" y="66.1074">&#171;repository&#187;</text><text fill="#000000" font-family="sans-serif" font-size="14" lengthAdjust="spacing" textLength="151" x="798" y="84.7285">MeetingInviteRepository</text><path d="M858.5,15 C858.5,5 876.5,5 876.5,5 C876.5,5 894.5,5 894.5,15 L894.5,41 C894.5,51 876.5,51 876.5,51 C876.5,51 858.5,51 858.5,41 L858.5,15 " fill="#E3E3E3" style="stroke:#181818;stroke-width:1.5;"/><path d="M858.5,15 C858.5,25 876.5,25 876.5,25 C876.5,25 894.5,25 894.5,15 " fill="none" style="stroke:#181818;stroke-width:1.5;"/><text fill="#000000" font-family="sans-serif" font-size="14" font-style="italic" lengthAdjust="spacing" textLength="79" x="834" y="680.2969">&#171;repository&#187;</text><text fill="#000000" font-family="sans-serif" font-size="14" lengthAdjust="spacing" textLength="151" x="798" y="698.918">MeetingInviteRepository</text><path d="M858.5,712.4316 C858.5,702.4316 876.5,702.4316 876.5,702.4316 C876.5,702.4316 894.5,702.4316 894.5,712.4316 L894.5,738.4316 C894.5,748.4316 876.5,748.4316 876.5,748.4316 C876.5,748.4316 858.5,748.4316 858.5,738.4316 L858.5,712.4316 " fill="#E3E3E3" style="stroke:#181818;stroke-width:1.5;"/><path d="M858.5,712.4316 C858.5,722.4316 876.5,722.4316 876.5,722.4316 C876.5,722.4316 894.5,722.4316 894.5,712.4316 " fill="none" style="stroke:#181818;stroke-width:1.5;"/><text fill="#000000" font-family="sans-serif" font-size="14" font-style="italic" lengthAdjust="spacing" textLength="79" x="984.5" y="66.1074">&#171;repository&#187;</text><text fill="#000000" font-family="sans-serif" font-size="14" lengthAdjust="spacing" textLength="118" x="965" y="84.7285">MeetingRepository</text><path d="M1009,15 C1009,5 1027,5 1027,5 C1027,5 1045,5 1045,15 L1045,41 C1045,51 1027,51 1027,51 C1027,51 1009,51 1009,41 L1009,15 " fill="#E3E3E3" style="stroke:#181818;stroke-width:1.5;"/><path d="M1009,15 C1009,25 1027,25 1027,25 C1027,25 1045,25 1045,15 " fill="none" style="stroke:#181818;stroke-width:1.5;"/><text fill="#000000" font-family="sans-serif" font-size="14" font-style="italic" lengthAdjust="spacing" textLength="79" x="984.5" y="680.2969">&#171;repository&#187;</text><text fill="#000000" font-family="sans-serif" font-size="14" lengthAdjust="spacing" textLength="118" x="965" y="698.918">MeetingRepository</text><path d="M1009,712.4316 C1009,702.4316 1027,702.4316 1027,702.4316 C1027,702.4316 1045,702.4316 1045,712.4316 L1045,738.4316 C1045,748.4316 1027,748.4316 1027,748.4316 C1027,748.4316 1009,748.4316 1009,738.4316 L1009,712.4316 " fill="#E3E3E3" style="stroke:#181818;stroke-width:1.5;"/><path d="M1009,712.4316 C1009,722.4316 1027,722.4316 1027,722.4316 C1027,722.4316 1045,722.4316 1045,712.4316 " fill="none" style="stroke:#181818;stroke-width:1.5;"/><rect fill="#FFFFFF" height="294.6191" style="stroke:#181818;stroke-width:1.0;" width="10" x="258.5" y="121.5332"/><rect fill="#FFFFFF" height="200.7461" style="stroke:#181818;stroke-width:1.0;" width="10" x="258.5" y="447.4434"/><rect fill="#FFFFFF" height="156.4551" style="stroke:#181818;stroke-width:1.0;" width="10" x="533.5" y="184.1152"/><rect fill="#FFFFFF" height="93.873" style="stroke:#181818;stroke-width:1.0;" width="10" x="533.5" y="478.7344"/><rect fill="#FFFFFF" height="31.291" style="stroke:#181818;stroke-width:1.0;" width="10" x="707.5" y="215.4063"/><rect fill="#FFFFFF" height="31.291" style="stroke:#181818;stroke-width:1.0;" width="10" x="871.5" y="510.0254"/><rect fill="#FFFFFF" height="31.291" style="stroke:#181818;stroke-width:1.0;" width="10" x="1022" y="277.9883"/><polygon fill="#181818" points="246.5,117.5332,256.5,121.5332,246.5,125.5332,250.5,121.5332" style="stroke:#181818;stroke-width:1.0;"/><line style="stroke:#181818;stroke-width:1.0;stroke-dasharray:2.0,2.0;" x1="72.5" x2="252.5" y1="121.5332" y2="121.5332"/><text fill="#000000" font-family="sans-serif" font-size="13" lengthAdjust="spacing" textLength="113" x="79.5" y="116.2705">list meetings option</text><polygon fill="#181818" points="526.5,148.8242,536.5,152.8242,526.5,156.8242,530.5,152.8242" style="stroke:#181818;stroke-width:1.0;"/><line style="stroke:#181818;stroke-width:1.0;" x1="268.5" x2="532.5" y1="152.8242" y2="152.8242"/><text fill="#000000" font-family="sans-serif" font-size="13" lengthAdjust="spacing" textLength="36" x="275.5" y="147.5615">create</text><polygon fill="#181818" points="521.5,180.1152,531.5,184.1152,521.5,188.1152,525.5,184.1152" style="stroke:#181818;stroke-width:1.0;"/><line style="stroke:#181818;stroke-width:1.0;" x1="268.5" x2="527.5" y1="184.1152" y2="184.1152"/><text fill="#000000" font-family="sans-serif" font-size="13" lengthAdjust="spacing" textLength="166" x="275.5" y="178.8525">getAllParticipatingMeetings()</text><polygon fill="#181818" points="695.5,211.4063,705.5,215.4063,695.5,219.4063,699.5,215.4063" style="stroke:#181818;stroke-width:1.0;"/><line style="stroke:#181818;stroke-width:1.0;" x1="543.5" x2="701.5" y1="215.4063" y2="215.4063"/><text fill="#000000" font-family="sans-serif" font-size="13" lengthAdjust="spacing" textLength="53" x="550.5" y="210.1436">session()</text><polygon fill="#181818" points="554.5,242.6973,544.5,246.6973,554.5,250.6973,550.5,246.6973" style="stroke:#181818;stroke-width:1.0;"/><line style="stroke:#181818;stroke-width:1.0;stroke-dasharray:2.0,2.0;" x1="548.5" x2="711.5" y1="246.6973" y2="246.6973"/><text fill="#000000" font-family="sans-serif" font-size="13" lengthAdjust="spacing" textLength="31" x="560.5" y="241.4346">email</text><polygon fill="#181818" points="1010,273.9883,1020,277.9883,1010,281.9883,1014,277.9883" style="stroke:#181818;stroke-width:1.0;"/><line style="stroke:#181818;stroke-width:1.0;" x1="543.5" x2="1016" y1="277.9883" y2="277.9883"/><text fill="#000000" font-family="sans-serif" font-size="13" lengthAdjust="spacing" textLength="214" x="550.5" y="272.7256">getAllMeetingsWithParticipant(email)</text><polygon fill="#181818" points="554.5,305.2793,544.5,309.2793,554.5,313.2793,550.5,309.2793" style="stroke:#181818;stroke-width:1.0;"/><line style="stroke:#181818;stroke-width:1.0;stroke-dasharray:2.0,2.0;" x1="548.5" x2="1026" y1="309.2793" y2="309.2793"/><text fill="#000000" font-family="sans-serif" font-size="13" lengthAdjust="spacing" textLength="83" x="560.5" y="304.0166">List&lt;Meeting&gt;</text><polygon fill="#181818" points="279.5,336.5703,269.5,340.5703,279.5,344.5703,275.5,340.5703" style="stroke:#181818;stroke-width:1.0;"/><line style="stroke:#181818;stroke-width:1.0;stroke-dasharray:2.0,2.0;" x1="273.5" x2="537.5" y1="340.5703" y2="340.5703"/><text fill="#000000" font-family="sans-serif" font-size="13" lengthAdjust="spacing" textLength="83" x="285.5" y="335.3076">List&lt;Meeting&gt;</text><line style="stroke:#181818;stroke-width:1.0;stroke-dasharray:2.0,2.0;" x1="268.5" x2="310.5" y1="371.8613" y2="371.8613"/><line style="stroke:#181818;stroke-width:1.0;stroke-dasharray:2.0,2.0;" x1="310.5" x2="310.5" y1="371.8613" y2="384.8613"/><line style="stroke:#181818;stroke-width:1.0;stroke-dasharray:2.0,2.0;" x1="269.5" x2="310.5" y1="384.8613" y2="384.8613"/><polygon fill="#181818" points="279.5,380.8613,269.5,384.8613,279.5,388.8613,275.5,384.8613" style="stroke:#181818;stroke-width:1.0;"/><text fill="#000000" font-family="sans-serif" font-size="13" lengthAdjust="spacing" textLength="189" x="275.5" y="366.5986">displayMeetings( List&lt;Meeting&gt;)</text><polygon fill="#181818" points="83.5,412.1523,73.5,416.1523,83.5,420.1523,79.5,416.1523" style="stroke:#181818;stroke-width:1.0;"/><line style="stroke:#181818;stroke-width:1.0;stroke-dasharray:2.0,2.0;" x1="77.5" x2="262.5" y1="416.1523" y2="416.1523"/><text fill="#000000" font-family="sans-serif" font-size="13" lengthAdjust="spacing" textLength="129" x="89.5" y="410.8896">shows list of meetings</text><polygon fill="#181818" points="246.5,443.4434,256.5,447.4434,246.5,451.4434,250.5,447.4434" style="stroke:#181818;stroke-width:1.0;"/><line style="stroke:#181818;stroke-width:1.0;" x1="72.5" x2="252.5" y1="447.4434" y2="447.4434"/><text fill="#000000" font-family="sans-serif" font-size="13" lengthAdjust="spacing" textLength="85" x="79.5" y="442.1807">select meeting</text><polygon fill="#181818" points="521.5,474.7344,531.5,478.7344,521.5,482.7344,525.5,478.7344" style="stroke:#181818;stroke-width:1.0;"/><line style="stroke:#181818;stroke-width:1.0;" x1="268.5" x2="527.5" y1="478.7344" y2="478.7344"/><text fill="#000000" font-family="sans-serif" font-size="13" lengthAdjust="spacing" textLength="180" x="275.5" y="473.4717">getAllMeetingIvites( meetingId )</text><polygon fill="#181818" points="859.5,506.0254,869.5,510.0254,859.5,514.0254,863.5,510.0254" style="stroke:#181818;stroke-width:1.0;"/><line style="stroke:#181818;stroke-width:1.0;" x1="543.5" x2="865.5" y1="510.0254" y2="510.0254"/><text fill="#000000" font-family="sans-serif" font-size="13" lengthAdjust="spacing" textLength="187" x="550.5" y="504.7627">searchByMeetingID( meetingID )</text><polygon fill="#181818" points="554.5,537.3164,544.5,541.3164,554.5,545.3164,550.5,541.3164" style="stroke:#181818;stroke-width:1.0;"/><line style="stroke:#181818;stroke-width:1.0;stroke-dasharray:2.0,2.0;" x1="548.5" x2="875.5" y1="541.3164" y2="541.3164"/><text fill="#000000" font-family="sans-serif" font-size="13" lengthAdjust="spacing" textLength="112" x="560.5" y="536.0537">List&lt;MeetingInvite&gt;</text><polygon fill="#181818" points="279.5,568.6074,269.5,572.6074,279.5,576.6074,275.5,572.6074" style="stroke:#181818;stroke-width:1.0;"/><line style="stroke:#181818;stroke-width:1.0;stroke-dasharray:2.0,2.0;" x1="273.5" x2="537.5" y1="572.6074" y2="572.6074"/><text fill="#000000" font-family="sans-serif" font-size="13" lengthAdjust="spacing" textLength="112" x="285.5" y="567.3447">List&lt;MeetingInvite&gt;</text><line style="stroke:#181818;stroke-width:1.0;" x1="268.5" x2="310.5" y1="603.8984" y2="603.8984"/><line style="stroke:#181818;stroke-width:1.0;" x1="310.5" x2="310.5" y1="603.8984" y2="616.8984"/><line style="stroke:#181818;stroke-width:1.0;" x1="269.5" x2="310.5" y1="616.8984" y2="616.8984"/><polygon fill="#181818" points="279.5,612.8984,269.5,616.8984,279.5,620.8984,275.5,616.8984" style="stroke:#181818;stroke-width:1.0;"/><text fill="#000000" font-family="sans-serif" font-size="13" lengthAdjust="spacing" textLength="251" x="275.5" y="598.6357">displayMeetingInvites( List&lt;MeetingInvite&gt; )</text><polygon fill="#181818" points="83.5,644.1895,73.5,648.1895,83.5,652.1895,79.5,648.1895" style="stroke:#181818;stroke-width:1.0;"/><line style="stroke:#181818;stroke-width:1.0;stroke-dasharray:2.0,2.0;" x1="77.5" x2="262.5" y1="648.1895" y2="648.1895"/><text fill="#000000" font-family="sans-serif" font-size="13" lengthAdjust="spacing" textLength="162" x="89.5" y="642.9268">shows list of meeting invites</text><!--SRC=[bLD1Rjim4Bph5NjhSd0Cv2W81jpaK04D4DGrUcRfZKM44WboxSA_xrAa9KfHabO70IHtPeSpooyDaItNQwj5HwTMtqdJhlshwgnmehrhgDN5i8JMT4OsphG8v4wOdLWXNyKHTtJH20ub5Vm9ISO1FfYJyxYxUC9sxz61yB0DHmLZIKbbkJTyLvwU44brn-Tns-_hKCx_gh8EFNOaI9bkivc0dqJ7tHFymNJaZDQnKxQgAc6jLdA9ONkYXidJuGxTMKdibUv_VcEaZpkCAeg38F5RU8JKiExEYl07MkCLN-iIODcggjomOFmS_HxkVWuCN-yRh5ORjgG4pPv16say61ka1zVLMH1oHS6-SUbeGGdI8Pyj71oHjbeFrWVA9D3Vt1R0tq0ymlhzp67c37wLuD5x5fEG4tGe67PxTrSpATWAfOUI0qwXRtjcdbtlSPN-Ir6JZTDDJxqWAgCO3lCevXB3j5QfoMP9wfmm5vpIUykHuMSUXxnw69HmK9wVwsL8PqfqMwJQVbGuYSRyyN5IpCimB4NMYkSaZLNKvL7p0xwMVZ9F4xlhy0vOK8BM1_YFoHaT2nA4aytNwnthnv7p4JwCRo6z3yEBR_UJ2FybmPneESTetaA44JeBCl7nRIU1mZk9Weeaqs3_0W00]--></g></svg>