<?xml version="1.0" encoding="UTF-8" standalone="no"?><svg xmlns="http://www.w3.org/2000/svg" xmlns:xlink="http://www.w3.org/1999/xlink" contentStyleType="text/css" height="1144px" preserveAspectRatio="none" style="width:2493px;height:1144px;background:#FFFFFF;" version="1.1" viewBox="0 0 2493 1144" width="2493px" zoomAndPan="magnify"><defs/><g><!--MD5=[1580dfd706460ce9df8258b7790a2424]
class ChangePostItUI--><g id="elem_ChangePostItUI"><rect codeLine="4" fill="#F1F1F1" height="48" id="ChangePostItUI" rx="2.5" ry="2.5" style="stroke:#181818;stroke-width:0.5;" width="129" x="1582" y="77.5"/><ellipse cx="1597" cy="93.5" fill="#ADD1B2" rx="11" ry="11" style="stroke:#181818;stroke-width:1.0;"/><path d="M1599,90 Q1599.2031,89.5 1599.4375,89.25 Q1599.6719,89 1599.9375,89 Q1600.4063,89 1600.7031,89.2813 Q1601,89.5625 1601,90.2188 L1601,91.7813 Q1601,92.4375 1600.7188,92.7188 Q1600.4375,93 1600,93 Q1599.6094,93 1599.3594,92.8281 Q1599.1094,92.6563 1599,92.2031 Q1598.9531,91.8906 1598.7813,91.7188 Q1598.4688,91.3906 1597.9063,91.2031 Q1597.3438,91 1596.7813,91 Q1596.0781,91 1595.4844,91.2813 Q1594.9063,91.5625 1594.4531,92.1875 Q1594,92.8125 1594,93.6719 L1594,94.5938 Q1594,95.625 1594.8438,96.3125 Q1595.6875,97 1597.1875,97 Q1598.0781,97 1598.7031,96.7969 Q1599.0625,96.6875 1599.4688,96.3281 Q1599.7344,96.125 1599.875,96.0625 Q1600.0156,96 1600.1875,96 Q1600.5156,96 1600.75,96.2656 Q1601,96.5156 1601,96.875 Q1601,97.2188 1600.6563,97.625 Q1600.1563,98.2188 1599.3594,98.5469 Q1598.3125,99 1597.0313,99 Q1595.5313,99 1594.3281,98.4063 Q1593.3594,97.9375 1592.6719,96.9219 Q1592,95.9063 1592,94.7031 L1592,93.6094 Q1592,92.3594 1592.5938,91.2656 Q1593.2031,90.1719 1594.25,89.5938 Q1595.3125,89 1596.5,89 Q1597.2188,89 1597.8438,89.25 Q1598.4688,89.5 1599,90 Z " fill="#000000"/><text fill="#000000" font-family="sans-serif" font-size="14" lengthAdjust="spacing" textLength="97" x="1611" y="99.2285">ChangePostItUI</text><line style="stroke:#181818;stroke-width:0.5;" x1="1583" x2="1710" y1="109.5" y2="109.5"/><line style="stroke:#181818;stroke-width:0.5;" x1="1583" x2="1710" y1="117.5" y2="117.5"/></g><!--MD5=[8e8ff1a758e472f9a4d9cde8d3f24a3b]
class ChangePostItController--><g id="elem_ChangePostItController"><rect codeLine="7" fill="#F1F1F1" height="83.2188" id="ChangePostItController" rx="2.5" ry="2.5" style="stroke:#181818;stroke-width:0.5;" width="179" x="651" y="287.5"/><ellipse cx="666" cy="303.5" fill="#ADD1B2" rx="11" ry="11" style="stroke:#181818;stroke-width:1.0;"/><path d="M668,300 Q668.2031,299.5 668.4375,299.25 Q668.6719,299 668.9375,299 Q669.4063,299 669.7031,299.2813 Q670,299.5625 670,300.2188 L670,301.7813 Q670,302.4375 669.7188,302.7188 Q669.4375,303 669,303 Q668.6094,303 668.3594,302.8281 Q668.1094,302.6563 668,302.2031 Q667.9531,301.8906 667.7813,301.7188 Q667.4688,301.3906 666.9063,301.2031 Q666.3438,301 665.7813,301 Q665.0781,301 664.4844,301.2813 Q663.9063,301.5625 663.4531,302.1875 Q663,302.8125 663,303.6719 L663,304.5938 Q663,305.625 663.8438,306.3125 Q664.6875,307 666.1875,307 Q667.0781,307 667.7031,306.7969 Q668.0625,306.6875 668.4688,306.3281 Q668.7344,306.125 668.875,306.0625 Q669.0156,306 669.1875,306 Q669.5156,306 669.75,306.2656 Q670,306.5156 670,306.875 Q670,307.2188 669.6563,307.625 Q669.1563,308.2188 668.3594,308.5469 Q667.3125,309 666.0313,309 Q664.5313,309 663.3281,308.4063 Q662.3594,307.9375 661.6719,306.9219 Q661,305.9063 661,304.7031 L661,303.6094 Q661,302.3594 661.5938,301.2656 Q662.2031,300.1719 663.25,299.5938 Q664.3125,299 665.5,299 Q666.2188,299 666.8438,299.25 Q667.4688,299.5 668,300 Z " fill="#000000"/><text fill="#000000" font-family="sans-serif" font-size="14" lengthAdjust="spacing" textLength="147" x="680" y="309.2285">ChangePostItController</text><line style="stroke:#181818;stroke-width:0.5;" x1="652" x2="829" y1="319.5" y2="319.5"/><line style="stroke:#181818;stroke-width:0.5;" x1="652" x2="829" y1="327.5" y2="327.5"/><ellipse cx="662" cy="341.8047" fill="#84BE84" rx="3" ry="3" style="stroke:#038048;stroke-width:1.0;"/><text fill="#000000" font-family="sans-serif" font-size="14" lengthAdjust="spacing" textLength="104" x="671" y="346.0332">getUserBoards()</text><ellipse cx="662" cy="359.4141" fill="#84BE84" rx="3" ry="3" style="stroke:#038048;stroke-width:1.0;"/><text fill="#000000" font-family="sans-serif" font-size="14" lengthAdjust="spacing" textLength="92" x="671" y="363.6426">changePostIt()</text></g><!--MD5=[f8b74beabc3289bc4114cd635d3006ec]
class ChangePostItService--><g id="elem_ChangePostItService"><rect codeLine="12" fill="#F1F1F1" height="83.2188" id="ChangePostItService" rx="2.5" ry="2.5" style="stroke:#181818;stroke-width:0.5;" width="164" x="545.5" y="518.5"/><ellipse cx="560.5" cy="534.5" fill="#ADD1B2" rx="11" ry="11" style="stroke:#181818;stroke-width:1.0;"/><path d="M562.5,531 Q562.7031,530.5 562.9375,530.25 Q563.1719,530 563.4375,530 Q563.9063,530 564.2031,530.2813 Q564.5,530.5625 564.5,531.2188 L564.5,532.7813 Q564.5,533.4375 564.2188,533.7188 Q563.9375,534 563.5,534 Q563.1094,534 562.8594,533.8281 Q562.6094,533.6563 562.5,533.2031 Q562.4531,532.8906 562.2813,532.7188 Q561.9688,532.3906 561.4063,532.2031 Q560.8438,532 560.2813,532 Q559.5781,532 558.9844,532.2813 Q558.4063,532.5625 557.9531,533.1875 Q557.5,533.8125 557.5,534.6719 L557.5,535.5938 Q557.5,536.625 558.3438,537.3125 Q559.1875,538 560.6875,538 Q561.5781,538 562.2031,537.7969 Q562.5625,537.6875 562.9688,537.3281 Q563.2344,537.125 563.375,537.0625 Q563.5156,537 563.6875,537 Q564.0156,537 564.25,537.2656 Q564.5,537.5156 564.5,537.875 Q564.5,538.2188 564.1563,538.625 Q563.6563,539.2188 562.8594,539.5469 Q561.8125,540 560.5313,540 Q559.0313,540 557.8281,539.4063 Q556.8594,538.9375 556.1719,537.9219 Q555.5,536.9063 555.5,535.7031 L555.5,534.6094 Q555.5,533.3594 556.0938,532.2656 Q556.7031,531.1719 557.75,530.5938 Q558.8125,530 560,530 Q560.7188,530 561.3438,530.25 Q561.9688,530.5 562.5,531 Z " fill="#000000"/><text fill="#000000" font-family="sans-serif" font-size="14" lengthAdjust="spacing" textLength="132" x="574.5" y="540.2285">ChangePostItService</text><line style="stroke:#181818;stroke-width:0.5;" x1="546.5" x2="708.5" y1="550.5" y2="550.5"/><line style="stroke:#181818;stroke-width:0.5;" x1="546.5" x2="708.5" y1="558.5" y2="558.5"/><ellipse cx="556.5" cy="572.8047" fill="#84BE84" rx="3" ry="3" style="stroke:#038048;stroke-width:1.0;"/><text fill="#000000" font-family="sans-serif" font-size="14" lengthAdjust="spacing" textLength="92" x="565.5" y="577.0332">changePostIt()</text><ellipse cx="556.5" cy="590.4141" fill="#84BE84" rx="3" ry="3" style="stroke:#038048;stroke-width:1.0;"/><text fill="#000000" font-family="sans-serif" font-size="14" lengthAdjust="spacing" textLength="123" x="565.5" y="594.6426">changePostItSync()</text></g><!--MD5=[a3ac25944a2a4483ffa4df45ccdd1823]
class UserAccessBoardsService--><g id="elem_UserAccessBoardsService"><rect codeLine="17" fill="#F1F1F1" height="65.6094" id="UserAccessBoardsService" rx="2.5" ry="2.5" style="stroke:#181818;stroke-width:0.5;" width="581" x="745" y="527"/><ellipse cx="948.25" cy="543" fill="#ADD1B2" rx="11" ry="11" style="stroke:#181818;stroke-width:1.0;"/><path d="M950.25,539.5 Q950.4531,539 950.6875,538.75 Q950.9219,538.5 951.1875,538.5 Q951.6563,538.5 951.9531,538.7813 Q952.25,539.0625 952.25,539.7188 L952.25,541.2813 Q952.25,541.9375 951.9688,542.2188 Q951.6875,542.5 951.25,542.5 Q950.8594,542.5 950.6094,542.3281 Q950.3594,542.1563 950.25,541.7031 Q950.2031,541.3906 950.0313,541.2188 Q949.7188,540.8906 949.1563,540.7031 Q948.5938,540.5 948.0313,540.5 Q947.3281,540.5 946.7344,540.7813 Q946.1563,541.0625 945.7031,541.6875 Q945.25,542.3125 945.25,543.1719 L945.25,544.0938 Q945.25,545.125 946.0938,545.8125 Q946.9375,546.5 948.4375,546.5 Q949.3281,546.5 949.9531,546.2969 Q950.3125,546.1875 950.7188,545.8281 Q950.9844,545.625 951.125,545.5625 Q951.2656,545.5 951.4375,545.5 Q951.7656,545.5 952,545.7656 Q952.25,546.0156 952.25,546.375 Q952.25,546.7188 951.9063,547.125 Q951.4063,547.7188 950.6094,548.0469 Q949.5625,548.5 948.2813,548.5 Q946.7813,548.5 945.5781,547.9063 Q944.6094,547.4375 943.9219,546.4219 Q943.25,545.4063 943.25,544.2031 L943.25,543.1094 Q943.25,541.8594 943.8438,540.7656 Q944.4531,539.6719 945.5,539.0938 Q946.5625,538.5 947.75,538.5 Q948.4688,538.5 949.0938,538.75 Q949.7188,539 950.25,539.5 Z " fill="#000000"/><text fill="#000000" font-family="sans-serif" font-size="14" lengthAdjust="spacing" textLength="166" x="968.75" y="548.7285">UserAccessBoardsService</text><line style="stroke:#181818;stroke-width:0.5;" x1="746" x2="1325" y1="559" y2="559"/><line style="stroke:#181818;stroke-width:0.5;" x1="746" x2="1325" y1="567" y2="567"/><ellipse cx="756" cy="581.3047" fill="#84BE84" rx="3" ry="3" style="stroke:#038048;stroke-width:1.0;"/><text fill="#000000" font-family="sans-serif" font-size="14" lengthAdjust="spacing" textLength="555" x="765" y="585.5332">findBoardsOfUser(sessionEmail, theRepository, theUserRepository): List&lt;SharedBoard&gt;</text></g><!--MD5=[48590afff58a68e2fcba47824d6f8a11]
class RepositoryFactory--><g id="elem_RepositoryFactory"><rect codeLine="21" fill="#F1F1F1" height="48" id="RepositoryFactory" rx="2.5" ry="2.5" style="stroke:#181818;stroke-width:0.5;" width="148" x="1361.5" y="536"/><ellipse cx="1376.5" cy="552" fill="#ADD1B2" rx="11" ry="11" style="stroke:#181818;stroke-width:1.0;"/><path d="M1378.5,548.5 Q1378.7031,548 1378.9375,547.75 Q1379.1719,547.5 1379.4375,547.5 Q1379.9063,547.5 1380.2031,547.7813 Q1380.5,548.0625 1380.5,548.7188 L1380.5,550.2813 Q1380.5,550.9375 1380.2188,551.2188 Q1379.9375,551.5 1379.5,551.5 Q1379.1094,551.5 1378.8594,551.3281 Q1378.6094,551.1563 1378.5,550.7031 Q1378.4531,550.3906 1378.2813,550.2188 Q1377.9688,549.8906 1377.4063,549.7031 Q1376.8438,549.5 1376.2813,549.5 Q1375.5781,549.5 1374.9844,549.7813 Q1374.4063,550.0625 1373.9531,550.6875 Q1373.5,551.3125 1373.5,552.1719 L1373.5,553.0938 Q1373.5,554.125 1374.3438,554.8125 Q1375.1875,555.5 1376.6875,555.5 Q1377.5781,555.5 1378.2031,555.2969 Q1378.5625,555.1875 1378.9688,554.8281 Q1379.2344,554.625 1379.375,554.5625 Q1379.5156,554.5 1379.6875,554.5 Q1380.0156,554.5 1380.25,554.7656 Q1380.5,555.0156 1380.5,555.375 Q1380.5,555.7188 1380.1563,556.125 Q1379.6563,556.7188 1378.8594,557.0469 Q1377.8125,557.5 1376.5313,557.5 Q1375.0313,557.5 1373.8281,556.9063 Q1372.8594,556.4375 1372.1719,555.4219 Q1371.5,554.4063 1371.5,553.2031 L1371.5,552.1094 Q1371.5,550.8594 1372.0938,549.7656 Q1372.7031,548.6719 1373.75,548.0938 Q1374.8125,547.5 1376,547.5 Q1376.7188,547.5 1377.3438,547.75 Q1377.9688,548 1378.5,548.5 Z " fill="#000000"/><text fill="#000000" font-family="sans-serif" font-size="14" lengthAdjust="spacing" textLength="116" x="1390.5" y="557.7285">RepositoryFactory</text><line style="stroke:#181818;stroke-width:0.5;" x1="1362.5" x2="1508.5" y1="568" y2="568"/><line style="stroke:#181818;stroke-width:0.5;" x1="1362.5" x2="1508.5" y1="576" y2="576"/></g><!--MD5=[39266bf60f50c773b7a94d6ff34d11bd]
class BoardRepsitory--><g id="elem_BoardRepsitory"><rect codeLine="25" fill="#F1F1F1" height="100.8281" id="BoardRepsitory" rx="2.5" ry="2.5" style="stroke:#181818;stroke-width:0.5;" width="300" x="1544.5" y="509.5"/><ellipse cx="1641.25" cy="525.5" fill="#ADD1B2" rx="11" ry="11" style="stroke:#181818;stroke-width:1.0;"/><path d="M1643.25,522 Q1643.4531,521.5 1643.6875,521.25 Q1643.9219,521 1644.1875,521 Q1644.6563,521 1644.9531,521.2813 Q1645.25,521.5625 1645.25,522.2188 L1645.25,523.7813 Q1645.25,524.4375 1644.9688,524.7188 Q1644.6875,525 1644.25,525 Q1643.8594,525 1643.6094,524.8281 Q1643.3594,524.6563 1643.25,524.2031 Q1643.2031,523.8906 1643.0313,523.7188 Q1642.7188,523.3906 1642.1563,523.2031 Q1641.5938,523 1641.0313,523 Q1640.3281,523 1639.7344,523.2813 Q1639.1563,523.5625 1638.7031,524.1875 Q1638.25,524.8125 1638.25,525.6719 L1638.25,526.5938 Q1638.25,527.625 1639.0938,528.3125 Q1639.9375,529 1641.4375,529 Q1642.3281,529 1642.9531,528.7969 Q1643.3125,528.6875 1643.7188,528.3281 Q1643.9844,528.125 1644.125,528.0625 Q1644.2656,528 1644.4375,528 Q1644.7656,528 1645,528.2656 Q1645.25,528.5156 1645.25,528.875 Q1645.25,529.2188 1644.9063,529.625 Q1644.4063,530.2188 1643.6094,530.5469 Q1642.5625,531 1641.2813,531 Q1639.7813,531 1638.5781,530.4063 Q1637.6094,529.9375 1636.9219,528.9219 Q1636.25,527.9063 1636.25,526.7031 L1636.25,525.6094 Q1636.25,524.3594 1636.8438,523.2656 Q1637.4531,522.1719 1638.5,521.5938 Q1639.5625,521 1640.75,521 Q1641.4688,521 1642.0938,521.25 Q1642.7188,521.5 1643.25,522 Z " fill="#000000"/><text fill="#000000" font-family="sans-serif" font-size="14" lengthAdjust="spacing" textLength="98" x="1661.75" y="531.2285">BoardRepsitory</text><line style="stroke:#181818;stroke-width:0.5;" x1="1545.5" x2="1843.5" y1="541.5" y2="541.5"/><line style="stroke:#181818;stroke-width:0.5;" x1="1545.5" x2="1843.5" y1="549.5" y2="549.5"/><ellipse cx="1555.5" cy="563.8047" fill="#84BE84" rx="3" ry="3" style="stroke:#038048;stroke-width:1.0;"/><text fill="#000000" font-family="sans-serif" font-size="14" lengthAdjust="spacing" textLength="256" x="1564.5" y="568.0332">findBoeardsHiOwn(): List&lt;SharedBoard&gt;</text><ellipse cx="1555.5" cy="581.4141" fill="#84BE84" rx="3" ry="3" style="stroke:#038048;stroke-width:1.0;"/><text fill="#000000" font-family="sans-serif" font-size="14" lengthAdjust="spacing" textLength="274" x="1564.5" y="585.6426">findBoeardsHiShared(): List&lt;SharedBoard&gt;</text><ellipse cx="1555.5" cy="599.0234" fill="#84BE84" rx="3" ry="3" style="stroke:#038048;stroke-width:1.0;"/><text fill="#000000" font-family="sans-serif" font-size="14" lengthAdjust="spacing" textLength="88" x="1564.5" y="603.252">save(boardId)</text></g><!--MD5=[d98fa60e7e29446a1b02022748feb6fd]
class PostItRepository--><g id="elem_PostItRepository"><rect codeLine="31" fill="#F1F1F1" height="65.6094" id="PostItRepository" rx="2.5" ry="2.5" style="stroke:#181818;stroke-width:0.5;" width="135" x="7" y="527"/><ellipse cx="22" cy="543" fill="#ADD1B2" rx="11" ry="11" style="stroke:#181818;stroke-width:1.0;"/><path d="M24,539.5 Q24.2031,539 24.4375,538.75 Q24.6719,538.5 24.9375,538.5 Q25.4063,538.5 25.7031,538.7813 Q26,539.0625 26,539.7188 L26,541.2813 Q26,541.9375 25.7188,542.2188 Q25.4375,542.5 25,542.5 Q24.6094,542.5 24.3594,542.3281 Q24.1094,542.1563 24,541.7031 Q23.9531,541.3906 23.7813,541.2188 Q23.4688,540.8906 22.9063,540.7031 Q22.3438,540.5 21.7813,540.5 Q21.0781,540.5 20.4844,540.7813 Q19.9063,541.0625 19.4531,541.6875 Q19,542.3125 19,543.1719 L19,544.0938 Q19,545.125 19.8438,545.8125 Q20.6875,546.5 22.1875,546.5 Q23.0781,546.5 23.7031,546.2969 Q24.0625,546.1875 24.4688,545.8281 Q24.7344,545.625 24.875,545.5625 Q25.0156,545.5 25.1875,545.5 Q25.5156,545.5 25.75,545.7656 Q26,546.0156 26,546.375 Q26,546.7188 25.6563,547.125 Q25.1563,547.7188 24.3594,548.0469 Q23.3125,548.5 22.0313,548.5 Q20.5313,548.5 19.3281,547.9063 Q18.3594,547.4375 17.6719,546.4219 Q17,545.4063 17,544.2031 L17,543.1094 Q17,541.8594 17.5938,540.7656 Q18.2031,539.6719 19.25,539.0938 Q20.3125,538.5 21.5,538.5 Q22.2188,538.5 22.8438,538.75 Q23.4688,539 24,539.5 Z " fill="#000000"/><text fill="#000000" font-family="sans-serif" font-size="14" lengthAdjust="spacing" textLength="103" x="36" y="548.7285">PostItRepository</text><line style="stroke:#181818;stroke-width:0.5;" x1="8" x2="141" y1="559" y2="559"/><line style="stroke:#181818;stroke-width:0.5;" x1="8" x2="141" y1="567" y2="567"/><ellipse cx="18" cy="581.3047" fill="#84BE84" rx="3" ry="3" style="stroke:#038048;stroke-width:1.0;"/><text fill="#000000" font-family="sans-serif" font-size="14" lengthAdjust="spacing" textLength="74" x="27" y="585.5332">save(postIt)</text></g><!--MD5=[9563755d011c5cec7ec66dc53565a59e]
class Board--><g id="elem_Board"><rect codeLine="36" fill="#F1F1F1" height="144.2344" id="Board" rx="2.5" ry="2.5" style="stroke:#181818;stroke-width:0.5;" width="271" x="2197" y="257"/><ellipse cx="2308.75" cy="285.8984" fill="#ADD1B2" rx="11" ry="11" style="stroke:#181818;stroke-width:1.0;"/><path d="M2310.75,282.3984 Q2310.9531,281.8984 2311.1875,281.6484 Q2311.4219,281.3984 2311.6875,281.3984 Q2312.1563,281.3984 2312.4531,281.6797 Q2312.75,281.9609 2312.75,282.6172 L2312.75,284.1797 Q2312.75,284.8359 2312.4688,285.1172 Q2312.1875,285.3984 2311.75,285.3984 Q2311.3594,285.3984 2311.1094,285.2266 Q2310.8594,285.0547 2310.75,284.6016 Q2310.7031,284.2891 2310.5313,284.1172 Q2310.2188,283.7891 2309.6563,283.6016 Q2309.0938,283.3984 2308.5313,283.3984 Q2307.8281,283.3984 2307.2344,283.6797 Q2306.6563,283.9609 2306.2031,284.5859 Q2305.75,285.2109 2305.75,286.0703 L2305.75,286.9922 Q2305.75,288.0234 2306.5938,288.7109 Q2307.4375,289.3984 2308.9375,289.3984 Q2309.8281,289.3984 2310.4531,289.1953 Q2310.8125,289.0859 2311.2188,288.7266 Q2311.4844,288.5234 2311.625,288.4609 Q2311.7656,288.3984 2311.9375,288.3984 Q2312.2656,288.3984 2312.5,288.6641 Q2312.75,288.9141 2312.75,289.2734 Q2312.75,289.6172 2312.4063,290.0234 Q2311.9063,290.6172 2311.1094,290.9453 Q2310.0625,291.3984 2308.7813,291.3984 Q2307.2813,291.3984 2306.0781,290.8047 Q2305.1094,290.3359 2304.4219,289.3203 Q2303.75,288.3047 2303.75,287.1016 L2303.75,286.0078 Q2303.75,284.7578 2304.3438,283.6641 Q2304.9531,282.5703 2306,281.9922 Q2307.0625,281.3984 2308.25,281.3984 Q2308.9688,281.3984 2309.5938,281.6484 Q2310.2188,281.8984 2310.75,282.3984 Z " fill="#000000"/><text fill="#000000" font-family="sans-serif" font-size="12" font-style="italic" lengthAdjust="spacing" textLength="35" x="2331.25" y="274.457">«root»</text><text fill="#000000" font-family="sans-serif" font-size="12" font-style="italic" lengthAdjust="spacing" textLength="43" x="2327.25" y="289.5508">«entity»</text><text fill="#000000" font-family="sans-serif" font-size="14" lengthAdjust="spacing" textLength="38" x="2329.75" y="306.7207">Board</text><line style="stroke:#181818;stroke-width:0.5;" x1="2198" x2="2467" y1="314.7969" y2="314.7969"/><ellipse cx="2208" cy="329.1016" fill="#000000" rx="3" ry="3" style="stroke:#000000;stroke-width:1.0;"/><text fill="#000000" font-family="sans-serif" font-size="14" lengthAdjust="spacing" textLength="245" x="2217" y="333.3301">id «unique» «automatically generated»</text><ellipse cx="2208" cy="346.7109" fill="#000000" rx="3" ry="3" style="stroke:#000000;stroke-width:1.0;"/><text fill="#000000" font-family="sans-serif" font-size="14" lengthAdjust="spacing" textLength="73" x="2217" y="350.9395">boradName</text><ellipse cx="2208" cy="364.3203" fill="#000000" rx="3" ry="3" style="stroke:#000000;stroke-width:1.0;"/><text fill="#000000" font-family="sans-serif" font-size="14" lengthAdjust="spacing" textLength="59" x="2217" y="368.5488">maxRows</text><ellipse cx="2208" cy="381.9297" fill="#000000" rx="3" ry="3" style="stroke:#000000;stroke-width:1.0;"/><text fill="#000000" font-family="sans-serif" font-size="14" lengthAdjust="spacing" textLength="80" x="2217" y="386.1582">maxColumns</text><line style="stroke:#181818;stroke-width:0.5;" x1="2198" x2="2467" y1="393.2344" y2="393.2344"/></g><!--MD5=[fea3dc74c7473bae0133d22265a91e2f]
class Cell--><g id="elem_Cell"><rect codeLine="43" fill="#F1F1F1" height="93.9219" id="Cell" rx="2.5" ry="2.5" style="stroke:#181818;stroke-width:0.5;" width="73" x="2335" y="719"/><ellipse cx="2350.9" cy="740.3516" fill="#ADD1B2" rx="11" ry="11" style="stroke:#181818;stroke-width:1.0;"/><path d="M2352.9,736.8516 Q2353.1031,736.3516 2353.3375,736.1016 Q2353.5719,735.8516 2353.8375,735.8516 Q2354.3063,735.8516 2354.6031,736.1328 Q2354.9,736.4141 2354.9,737.0703 L2354.9,738.6328 Q2354.9,739.2891 2354.6188,739.5703 Q2354.3375,739.8516 2353.9,739.8516 Q2353.5094,739.8516 2353.2594,739.6797 Q2353.0094,739.5078 2352.9,739.0547 Q2352.8531,738.7422 2352.6813,738.5703 Q2352.3688,738.2422 2351.8063,738.0547 Q2351.2438,737.8516 2350.6813,737.8516 Q2349.9781,737.8516 2349.3844,738.1328 Q2348.8063,738.4141 2348.3531,739.0391 Q2347.9,739.6641 2347.9,740.5234 L2347.9,741.4453 Q2347.9,742.4766 2348.7438,743.1641 Q2349.5875,743.8516 2351.0875,743.8516 Q2351.9781,743.8516 2352.6031,743.6484 Q2352.9625,743.5391 2353.3688,743.1797 Q2353.6344,742.9766 2353.775,742.9141 Q2353.9156,742.8516 2354.0875,742.8516 Q2354.4156,742.8516 2354.65,743.1172 Q2354.9,743.3672 2354.9,743.7266 Q2354.9,744.0703 2354.5563,744.4766 Q2354.0563,745.0703 2353.2594,745.3984 Q2352.2125,745.8516 2350.9313,745.8516 Q2349.4313,745.8516 2348.2281,745.2578 Q2347.2594,744.7891 2346.5719,743.7734 Q2345.9,742.7578 2345.9,741.5547 L2345.9,740.4609 Q2345.9,739.2109 2346.4938,738.1172 Q2347.1031,737.0234 2348.15,736.4453 Q2349.2125,735.8516 2350.4,735.8516 Q2351.1188,735.8516 2351.7438,736.1016 Q2352.3688,736.3516 2352.9,736.8516 Z " fill="#000000"/><text fill="#000000" font-family="sans-serif" font-size="12" font-style="italic" lengthAdjust="spacing" textLength="43" x="2363.1" y="736.457">«entity»</text><text fill="#000000" font-family="sans-serif" font-size="14" lengthAdjust="spacing" textLength="24" x="2372.6" y="753.627">Cell</text><line style="stroke:#181818;stroke-width:0.5;" x1="2336" x2="2407" y1="761.7031" y2="761.7031"/><ellipse cx="2346" cy="776.0078" fill="#000000" rx="3" ry="3" style="stroke:#000000;stroke-width:1.0;"/><text fill="#000000" font-family="sans-serif" font-size="14" lengthAdjust="spacing" textLength="11" x="2355" y="780.2363">id</text><ellipse cx="2346" cy="793.6172" fill="#000000" rx="3" ry="3" style="stroke:#000000;stroke-width:1.0;"/><text fill="#000000" font-family="sans-serif" font-size="14" lengthAdjust="spacing" textLength="47" x="2355" y="797.8457">content</text><line style="stroke:#181818;stroke-width:0.5;" x1="2336" x2="2407" y1="804.9219" y2="804.9219"/></g><!--MD5=[4cbb5a746c09f2285613d1ce86c65523]
class ColumnCell--><g id="elem_ColumnCell"><rect codeLine="48" fill="#F1F1F1" height="111.5313" id="ColumnCell" rx="2.5" ry="2.5" style="stroke:#181818;stroke-width:0.5;" width="104" x="2382.5" y="504"/><ellipse cx="2397.5" cy="525.3516" fill="#ADD1B2" rx="11" ry="11" style="stroke:#181818;stroke-width:1.0;"/><path d="M2399.5,521.8516 Q2399.7031,521.3516 2399.9375,521.1016 Q2400.1719,520.8516 2400.4375,520.8516 Q2400.9063,520.8516 2401.2031,521.1328 Q2401.5,521.4141 2401.5,522.0703 L2401.5,523.6328 Q2401.5,524.2891 2401.2188,524.5703 Q2400.9375,524.8516 2400.5,524.8516 Q2400.1094,524.8516 2399.8594,524.6797 Q2399.6094,524.5078 2399.5,524.0547 Q2399.4531,523.7422 2399.2813,523.5703 Q2398.9688,523.2422 2398.4063,523.0547 Q2397.8438,522.8516 2397.2813,522.8516 Q2396.5781,522.8516 2395.9844,523.1328 Q2395.4063,523.4141 2394.9531,524.0391 Q2394.5,524.6641 2394.5,525.5234 L2394.5,526.4453 Q2394.5,527.4766 2395.3438,528.1641 Q2396.1875,528.8516 2397.6875,528.8516 Q2398.5781,528.8516 2399.2031,528.6484 Q2399.5625,528.5391 2399.9688,528.1797 Q2400.2344,527.9766 2400.375,527.9141 Q2400.5156,527.8516 2400.6875,527.8516 Q2401.0156,527.8516 2401.25,528.1172 Q2401.5,528.3672 2401.5,528.7266 Q2401.5,529.0703 2401.1563,529.4766 Q2400.6563,530.0703 2399.8594,530.3984 Q2398.8125,530.8516 2397.5313,530.8516 Q2396.0313,530.8516 2394.8281,530.2578 Q2393.8594,529.7891 2393.1719,528.7734 Q2392.5,527.7578 2392.5,526.5547 L2392.5,525.4609 Q2392.5,524.2109 2393.0938,523.1172 Q2393.7031,522.0234 2394.75,521.4453 Q2395.8125,520.8516 2397,520.8516 Q2397.7188,520.8516 2398.3438,521.1016 Q2398.9688,521.3516 2399.5,521.8516 Z " fill="#000000"/><text fill="#000000" font-family="sans-serif" font-size="12" font-style="italic" lengthAdjust="spacing" textLength="43" x="2426" y="521.457">«entity»</text><text fill="#000000" font-family="sans-serif" font-size="14" lengthAdjust="spacing" textLength="72" x="2411.5" y="538.627">ColumnCell</text><line style="stroke:#181818;stroke-width:0.5;" x1="2383.5" x2="2485.5" y1="546.7031" y2="546.7031"/><ellipse cx="2393.5" cy="561.0078" fill="#000000" rx="3" ry="3" style="stroke:#000000;stroke-width:1.0;"/><text fill="#000000" font-family="sans-serif" font-size="14" lengthAdjust="spacing" textLength="11" x="2402.5" y="565.2363">id</text><ellipse cx="2393.5" cy="578.6172" fill="#000000" rx="3" ry="3" style="stroke:#000000;stroke-width:1.0;"/><text fill="#000000" font-family="sans-serif" font-size="14" lengthAdjust="spacing" textLength="76" x="2402.5" y="582.8457">columnTittle</text><ellipse cx="2393.5" cy="596.2266" fill="#000000" rx="3" ry="3" style="stroke:#000000;stroke-width:1.0;"/><text fill="#000000" font-family="sans-serif" font-size="14" lengthAdjust="spacing" textLength="45" x="2402.5" y="600.4551">column</text><line style="stroke:#181818;stroke-width:0.5;" x1="2383.5" x2="2485.5" y1="607.5313" y2="607.5313"/></g><!--MD5=[29b00cfe41dcb34143e361ceefc9408b]
class RowCell--><g id="elem_RowCell"><rect codeLine="54" fill="#F1F1F1" height="111.5313" id="RowCell" rx="2.5" ry="2.5" style="stroke:#181818;stroke-width:0.5;" width="83" x="2264" y="504"/><ellipse cx="2279" cy="525.3516" fill="#ADD1B2" rx="11" ry="11" style="stroke:#181818;stroke-width:1.0;"/><path d="M2281,521.8516 Q2281.2031,521.3516 2281.4375,521.1016 Q2281.6719,520.8516 2281.9375,520.8516 Q2282.4063,520.8516 2282.7031,521.1328 Q2283,521.4141 2283,522.0703 L2283,523.6328 Q2283,524.2891 2282.7188,524.5703 Q2282.4375,524.8516 2282,524.8516 Q2281.6094,524.8516 2281.3594,524.6797 Q2281.1094,524.5078 2281,524.0547 Q2280.9531,523.7422 2280.7813,523.5703 Q2280.4688,523.2422 2279.9063,523.0547 Q2279.3438,522.8516 2278.7813,522.8516 Q2278.0781,522.8516 2277.4844,523.1328 Q2276.9063,523.4141 2276.4531,524.0391 Q2276,524.6641 2276,525.5234 L2276,526.4453 Q2276,527.4766 2276.8438,528.1641 Q2277.6875,528.8516 2279.1875,528.8516 Q2280.0781,528.8516 2280.7031,528.6484 Q2281.0625,528.5391 2281.4688,528.1797 Q2281.7344,527.9766 2281.875,527.9141 Q2282.0156,527.8516 2282.1875,527.8516 Q2282.5156,527.8516 2282.75,528.1172 Q2283,528.3672 2283,528.7266 Q2283,529.0703 2282.6563,529.4766 Q2282.1563,530.0703 2281.3594,530.3984 Q2280.3125,530.8516 2279.0313,530.8516 Q2277.5313,530.8516 2276.3281,530.2578 Q2275.3594,529.7891 2274.6719,528.7734 Q2274,527.7578 2274,526.5547 L2274,525.4609 Q2274,524.2109 2274.5938,523.1172 Q2275.2031,522.0234 2276.25,521.4453 Q2277.3125,520.8516 2278.5,520.8516 Q2279.2188,520.8516 2279.8438,521.1016 Q2280.4688,521.3516 2281,521.8516 Z " fill="#000000"/><text fill="#000000" font-family="sans-serif" font-size="12" font-style="italic" lengthAdjust="spacing" textLength="43" x="2297" y="521.457">«entity»</text><text fill="#000000" font-family="sans-serif" font-size="14" lengthAdjust="spacing" textLength="51" x="2293" y="538.627">RowCell</text><line style="stroke:#181818;stroke-width:0.5;" x1="2265" x2="2346" y1="546.7031" y2="546.7031"/><ellipse cx="2275" cy="561.0078" fill="#000000" rx="3" ry="3" style="stroke:#000000;stroke-width:1.0;"/><text fill="#000000" font-family="sans-serif" font-size="14" lengthAdjust="spacing" textLength="11" x="2284" y="565.2363">id</text><ellipse cx="2275" cy="578.6172" fill="#000000" rx="3" ry="3" style="stroke:#000000;stroke-width:1.0;"/><text fill="#000000" font-family="sans-serif" font-size="14" lengthAdjust="spacing" textLength="53" x="2284" y="582.8457">rowTittle</text><ellipse cx="2275" cy="596.2266" fill="#000000" rx="3" ry="3" style="stroke:#000000;stroke-width:1.0;"/><text fill="#000000" font-family="sans-serif" font-size="14" lengthAdjust="spacing" textLength="22" x="2284" y="600.4551">row</text><line style="stroke:#181818;stroke-width:0.5;" x1="2265" x2="2346" y1="607.5313" y2="607.5313"/></g><!--MD5=[458552462bbdcbc92793825846cc11c0]
class PostIt--><g id="elem_PostIt"><rect codeLine="60" fill="#F1F1F1" height="161.8438" id="PostIt" rx="2.5" ry="2.5" style="stroke:#181818;stroke-width:0.5;" width="80" x="1879.5" y="479"/><ellipse cx="1898.55" cy="507.8984" fill="#ADD1B2" rx="11" ry="11" style="stroke:#181818;stroke-width:1.0;"/><path d="M1900.55,504.3984 Q1900.7531,503.8984 1900.9875,503.6484 Q1901.2219,503.3984 1901.4875,503.3984 Q1901.9563,503.3984 1902.2531,503.6797 Q1902.55,503.9609 1902.55,504.6172 L1902.55,506.1797 Q1902.55,506.8359 1902.2688,507.1172 Q1901.9875,507.3984 1901.55,507.3984 Q1901.1594,507.3984 1900.9094,507.2266 Q1900.6594,507.0547 1900.55,506.6016 Q1900.5031,506.2891 1900.3313,506.1172 Q1900.0188,505.7891 1899.4563,505.6016 Q1898.8938,505.3984 1898.3313,505.3984 Q1897.6281,505.3984 1897.0344,505.6797 Q1896.4563,505.9609 1896.0031,506.5859 Q1895.55,507.2109 1895.55,508.0703 L1895.55,508.9922 Q1895.55,510.0234 1896.3938,510.7109 Q1897.2375,511.3984 1898.7375,511.3984 Q1899.6281,511.3984 1900.2531,511.1953 Q1900.6125,511.0859 1901.0188,510.7266 Q1901.2844,510.5234 1901.425,510.4609 Q1901.5656,510.3984 1901.7375,510.3984 Q1902.0656,510.3984 1902.3,510.6641 Q1902.55,510.9141 1902.55,511.2734 Q1902.55,511.6172 1902.2063,512.0234 Q1901.7063,512.6172 1900.9094,512.9453 Q1899.8625,513.3984 1898.5813,513.3984 Q1897.0813,513.3984 1895.8781,512.8047 Q1894.9094,512.3359 1894.2219,511.3203 Q1893.55,510.3047 1893.55,509.1016 L1893.55,508.0078 Q1893.55,506.7578 1894.1438,505.6641 Q1894.7531,504.5703 1895.8,503.9922 Q1896.8625,503.3984 1898.05,503.3984 Q1898.7688,503.3984 1899.3938,503.6484 Q1900.0188,503.8984 1900.55,504.3984 Z " fill="#000000"/><text fill="#000000" font-family="sans-serif" font-size="12" font-style="italic" lengthAdjust="spacing" textLength="35" x="1915.45" y="496.457">«root»</text><text fill="#000000" font-family="sans-serif" font-size="12" font-style="italic" lengthAdjust="spacing" textLength="43" x="1911.45" y="511.5508">«entity»</text><text fill="#000000" font-family="sans-serif" font-size="14" lengthAdjust="spacing" textLength="35" x="1915.45" y="528.7207">PostIt</text><line style="stroke:#181818;stroke-width:0.5;" x1="1880.5" x2="1958.5" y1="536.7969" y2="536.7969"/><ellipse cx="1890.5" cy="551.1016" fill="#000000" rx="3" ry="3" style="stroke:#000000;stroke-width:1.0;"/><text fill="#000000" font-family="sans-serif" font-size="14" lengthAdjust="spacing" textLength="11" x="1899.5" y="555.3301">id</text><ellipse cx="1890.5" cy="568.7109" fill="#000000" rx="3" ry="3" style="stroke:#000000;stroke-width:1.0;"/><text fill="#000000" font-family="sans-serif" font-size="14" lengthAdjust="spacing" textLength="22" x="1899.5" y="572.9395">row</text><ellipse cx="1890.5" cy="586.3203" fill="#000000" rx="3" ry="3" style="stroke:#000000;stroke-width:1.0;"/><text fill="#000000" font-family="sans-serif" font-size="14" lengthAdjust="spacing" textLength="45" x="1899.5" y="590.5488">column</text><ellipse cx="1890.5" cy="603.9297" fill="#000000" rx="3" ry="3" style="stroke:#000000;stroke-width:1.0;"/><text fill="#000000" font-family="sans-serif" font-size="14" lengthAdjust="spacing" textLength="47" x="1899.5" y="608.1582">content</text><ellipse cx="1890.5" cy="621.5391" fill="#000000" rx="3" ry="3" style="stroke:#000000;stroke-width:1.0;"/><text fill="#000000" font-family="sans-serif" font-size="14" lengthAdjust="spacing" textLength="54" x="1899.5" y="625.7676">ownUser</text><line style="stroke:#181818;stroke-width:0.5;" x1="1880.5" x2="1958.5" y1="632.8438" y2="632.8438"/></g><!--MD5=[fd7366e9f96236d9aa60dcc04f2b83e5]
class Content--><g id="elem_Content"><rect codeLine="68" fill="#F1F1F1" height="76.3125" id="Content" rx="2.5" ry="2.5" style="stroke:#181818;stroke-width:0.5;" width="109" x="2161" y="907.5"/><ellipse cx="2176" cy="928.8516" fill="#ADD1B2" rx="11" ry="11" style="stroke:#181818;stroke-width:1.0;"/><path d="M2178,925.3516 Q2178.2031,924.8516 2178.4375,924.6016 Q2178.6719,924.3516 2178.9375,924.3516 Q2179.4063,924.3516 2179.7031,924.6328 Q2180,924.9141 2180,925.5703 L2180,927.1328 Q2180,927.7891 2179.7188,928.0703 Q2179.4375,928.3516 2179,928.3516 Q2178.6094,928.3516 2178.3594,928.1797 Q2178.1094,928.0078 2178,927.5547 Q2177.9531,927.2422 2177.7813,927.0703 Q2177.4688,926.7422 2176.9063,926.5547 Q2176.3438,926.3516 2175.7813,926.3516 Q2175.0781,926.3516 2174.4844,926.6328 Q2173.9063,926.9141 2173.4531,927.5391 Q2173,928.1641 2173,929.0234 L2173,929.9453 Q2173,930.9766 2173.8438,931.6641 Q2174.6875,932.3516 2176.1875,932.3516 Q2177.0781,932.3516 2177.7031,932.1484 Q2178.0625,932.0391 2178.4688,931.6797 Q2178.7344,931.4766 2178.875,931.4141 Q2179.0156,931.3516 2179.1875,931.3516 Q2179.5156,931.3516 2179.75,931.6172 Q2180,931.8672 2180,932.2266 Q2180,932.5703 2179.6563,932.9766 Q2179.1563,933.5703 2178.3594,933.8984 Q2177.3125,934.3516 2176.0313,934.3516 Q2174.5313,934.3516 2173.3281,933.7578 Q2172.3594,933.2891 2171.6719,932.2734 Q2171,931.2578 2171,930.0547 L2171,928.9609 Q2171,927.7109 2171.5938,926.6172 Q2172.2031,925.5234 2173.25,924.9453 Q2174.3125,924.3516 2175.5,924.3516 Q2176.2188,924.3516 2176.8438,924.6016 Q2177.4688,924.8516 2178,925.3516 Z " fill="#000000"/><text fill="#000000" font-family="sans-serif" font-size="12" font-style="italic" lengthAdjust="spacing" textLength="81" x="2188" y="924.957">«value object»</text><text fill="#000000" font-family="sans-serif" font-size="14" lengthAdjust="spacing" textLength="50" x="2203.5" y="942.127">Content</text><line style="stroke:#181818;stroke-width:0.5;" x1="2162" x2="2269" y1="950.2031" y2="950.2031"/><ellipse cx="2172" cy="964.5078" fill="#000000" rx="3" ry="3" style="stroke:#000000;stroke-width:1.0;"/><text fill="#000000" font-family="sans-serif" font-size="14" lengthAdjust="spacing" textLength="47" x="2181" y="968.7363">content</text><line style="stroke:#181818;stroke-width:0.5;" x1="2162" x2="2269" y1="975.8125" y2="975.8125"/></g><!--MD5=[0b02ff7abf5a902735d6394ae27154cc]
class BoardPostIt--><g id="elem_BoardPostIt"><rect codeLine="72" fill="#F1F1F1" height="65.6094" id="BoardPostIt" rx="2.5" ry="2.5" style="stroke:#181818;stroke-width:0.5;" width="105" x="177" y="527"/><ellipse cx="192" cy="543" fill="#ADD1B2" rx="11" ry="11" style="stroke:#181818;stroke-width:1.0;"/><path d="M194,539.5 Q194.2031,539 194.4375,538.75 Q194.6719,538.5 194.9375,538.5 Q195.4063,538.5 195.7031,538.7813 Q196,539.0625 196,539.7188 L196,541.2813 Q196,541.9375 195.7188,542.2188 Q195.4375,542.5 195,542.5 Q194.6094,542.5 194.3594,542.3281 Q194.1094,542.1563 194,541.7031 Q193.9531,541.3906 193.7813,541.2188 Q193.4688,540.8906 192.9063,540.7031 Q192.3438,540.5 191.7813,540.5 Q191.0781,540.5 190.4844,540.7813 Q189.9063,541.0625 189.4531,541.6875 Q189,542.3125 189,543.1719 L189,544.0938 Q189,545.125 189.8438,545.8125 Q190.6875,546.5 192.1875,546.5 Q193.0781,546.5 193.7031,546.2969 Q194.0625,546.1875 194.4688,545.8281 Q194.7344,545.625 194.875,545.5625 Q195.0156,545.5 195.1875,545.5 Q195.5156,545.5 195.75,545.7656 Q196,546.0156 196,546.375 Q196,546.7188 195.6563,547.125 Q195.1563,547.7188 194.3594,548.0469 Q193.3125,548.5 192.0313,548.5 Q190.5313,548.5 189.3281,547.9063 Q188.3594,547.4375 187.6719,546.4219 Q187,545.4063 187,544.2031 L187,543.1094 Q187,541.8594 187.5938,540.7656 Q188.2031,539.6719 189.25,539.0938 Q190.3125,538.5 191.5,538.5 Q192.2188,538.5 192.8438,538.75 Q193.4688,539 194,539.5 Z " fill="#000000"/><text fill="#000000" font-family="sans-serif" font-size="14" lengthAdjust="spacing" textLength="73" x="206" y="548.7285">BoardPostIt</text><line style="stroke:#181818;stroke-width:0.5;" x1="178" x2="281" y1="559" y2="559"/><line style="stroke:#181818;stroke-width:0.5;" x1="178" x2="281" y1="567" y2="567"/><ellipse cx="188" cy="581.3047" fill="#84BE84" rx="3" ry="3" style="stroke:#038048;stroke-width:1.0;"/><text fill="#000000" font-family="sans-serif" font-size="14" lengthAdjust="spacing" textLength="31" x="197" y="585.5332">run()</text></g><!--MD5=[bc064d979c32666ae52f3d7624591b7b]
class SystemUser--><g id="elem_SystemUser"><rect codeLine="78" fill="#F1F1F1" height="109.0156" id="SystemUser" rx="2.5" ry="2.5" style="stroke:#181818;stroke-width:0.5;" width="107" x="1085" y="891"/><ellipse cx="1100" cy="919.8984" fill="#ADD1B2" rx="11" ry="11" style="stroke:#181818;stroke-width:1.0;"/><path d="M1102,916.3984 Q1102.2031,915.8984 1102.4375,915.6484 Q1102.6719,915.3984 1102.9375,915.3984 Q1103.4063,915.3984 1103.7031,915.6797 Q1104,915.9609 1104,916.6172 L1104,918.1797 Q1104,918.8359 1103.7188,919.1172 Q1103.4375,919.3984 1103,919.3984 Q1102.6094,919.3984 1102.3594,919.2266 Q1102.1094,919.0547 1102,918.6016 Q1101.9531,918.2891 1101.7813,918.1172 Q1101.4688,917.7891 1100.9063,917.6016 Q1100.3438,917.3984 1099.7813,917.3984 Q1099.0781,917.3984 1098.4844,917.6797 Q1097.9063,917.9609 1097.4531,918.5859 Q1097,919.2109 1097,920.0703 L1097,920.9922 Q1097,922.0234 1097.8438,922.7109 Q1098.6875,923.3984 1100.1875,923.3984 Q1101.0781,923.3984 1101.7031,923.1953 Q1102.0625,923.0859 1102.4688,922.7266 Q1102.7344,922.5234 1102.875,922.4609 Q1103.0156,922.3984 1103.1875,922.3984 Q1103.5156,922.3984 1103.75,922.6641 Q1104,922.9141 1104,923.2734 Q1104,923.6172 1103.6563,924.0234 Q1103.1563,924.6172 1102.3594,924.9453 Q1101.3125,925.3984 1100.0313,925.3984 Q1098.5313,925.3984 1097.3281,924.8047 Q1096.3594,924.3359 1095.6719,923.3203 Q1095,922.3047 1095,921.1016 L1095,920.0078 Q1095,918.7578 1095.5938,917.6641 Q1096.2031,916.5703 1097.25,915.9922 Q1098.3125,915.3984 1099.5,915.3984 Q1100.2188,915.3984 1100.8438,915.6484 Q1101.4688,915.8984 1102,916.3984 Z " fill="#000000"/><text fill="#000000" font-family="sans-serif" font-size="12" font-style="italic" lengthAdjust="spacing" textLength="35" x="1134" y="908.457">«root»</text><text fill="#000000" font-family="sans-serif" font-size="12" font-style="italic" lengthAdjust="spacing" textLength="44" x="1129.5" y="923.5508">«Entity»</text><text fill="#000000" font-family="sans-serif" font-size="14" lengthAdjust="spacing" textLength="75" x="1114" y="940.7207">SystemUser</text><line style="stroke:#181818;stroke-width:0.5;" x1="1086" x2="1191" y1="948.7969" y2="948.7969"/><ellipse cx="1096" cy="963.1016" fill="#000000" rx="3" ry="3" style="stroke:#000000;stroke-width:1.0;"/><text fill="#000000" font-family="sans-serif" font-size="14" lengthAdjust="spacing" textLength="36" x="1105" y="967.3301">Name</text><ellipse cx="1096" cy="980.7109" fill="#000000" rx="3" ry="3" style="stroke:#000000;stroke-width:1.0;"/><text fill="#000000" font-family="sans-serif" font-size="14" lengthAdjust="spacing" textLength="64" x="1105" y="984.9395">Username</text><line style="stroke:#181818;stroke-width:0.5;" x1="1086" x2="1191" y1="992.0156" y2="992.0156"/></g><!--MD5=[20e583d4e0df3a755fa236795f6d14ab]
class eCourseSystemUser--><g id="elem_eCourseSystemUser"><rect codeLine="83" fill="#F1F1F1" height="73.7969" id="eCourseSystemUser" rx="2.5" ry="2.5" style="stroke:#181818;stroke-width:0.5;" width="161" x="1627" y="729"/><ellipse cx="1642" cy="757.8984" fill="#ADD1B2" rx="11" ry="11" style="stroke:#181818;stroke-width:1.0;"/><path d="M1644,754.3984 Q1644.2031,753.8984 1644.4375,753.6484 Q1644.6719,753.3984 1644.9375,753.3984 Q1645.4063,753.3984 1645.7031,753.6797 Q1646,753.9609 1646,754.6172 L1646,756.1797 Q1646,756.8359 1645.7188,757.1172 Q1645.4375,757.3984 1645,757.3984 Q1644.6094,757.3984 1644.3594,757.2266 Q1644.1094,757.0547 1644,756.6016 Q1643.9531,756.2891 1643.7813,756.1172 Q1643.4688,755.7891 1642.9063,755.6016 Q1642.3438,755.3984 1641.7813,755.3984 Q1641.0781,755.3984 1640.4844,755.6797 Q1639.9063,755.9609 1639.4531,756.5859 Q1639,757.2109 1639,758.0703 L1639,758.9922 Q1639,760.0234 1639.8438,760.7109 Q1640.6875,761.3984 1642.1875,761.3984 Q1643.0781,761.3984 1643.7031,761.1953 Q1644.0625,761.0859 1644.4688,760.7266 Q1644.7344,760.5234 1644.875,760.4609 Q1645.0156,760.3984 1645.1875,760.3984 Q1645.5156,760.3984 1645.75,760.6641 Q1646,760.9141 1646,761.2734 Q1646,761.6172 1645.6563,762.0234 Q1645.1563,762.6172 1644.3594,762.9453 Q1643.3125,763.3984 1642.0313,763.3984 Q1640.5313,763.3984 1639.3281,762.8047 Q1638.3594,762.3359 1637.6719,761.3203 Q1637,760.3047 1637,759.1016 L1637,758.0078 Q1637,756.7578 1637.5938,755.6641 Q1638.2031,754.5703 1639.25,753.9922 Q1640.3125,753.3984 1641.5,753.3984 Q1642.2188,753.3984 1642.8438,753.6484 Q1643.4688,753.8984 1644,754.3984 Z " fill="#000000"/><text fill="#000000" font-family="sans-serif" font-size="12" font-style="italic" lengthAdjust="spacing" textLength="35" x="1703" y="746.457">«root»</text><text fill="#000000" font-family="sans-serif" font-size="12" font-style="italic" lengthAdjust="spacing" textLength="44" x="1698.5" y="761.5508">«Entity»</text><text fill="#000000" font-family="sans-serif" font-size="14" lengthAdjust="spacing" textLength="129" x="1656" y="778.7207">eCourseSystemUser</text><line style="stroke:#181818;stroke-width:0.5;" x1="1628" x2="1787" y1="786.7969" y2="786.7969"/><line style="stroke:#181818;stroke-width:0.5;" x1="1628" x2="1787" y1="794.7969" y2="794.7969"/></g><!--MD5=[e4d65baa86ae757e763babcb916fe418]
class EmailAdderss--><g id="elem_EmailAdderss"><rect codeLine="87" fill="#F1F1F1" height="58.7031" id="EmailAdderss" rx="2.5" ry="2.5" style="stroke:#181818;stroke-width:0.5;" width="118" x="1245.5" y="1069.5"/><ellipse cx="1260.5" cy="1090.8516" fill="#ADD1B2" rx="11" ry="11" style="stroke:#181818;stroke-width:1.0;"/><path d="M1262.5,1087.3516 Q1262.7031,1086.8516 1262.9375,1086.6016 Q1263.1719,1086.3516 1263.4375,1086.3516 Q1263.9063,1086.3516 1264.2031,1086.6328 Q1264.5,1086.9141 1264.5,1087.5703 L1264.5,1089.1328 Q1264.5,1089.7891 1264.2188,1090.0703 Q1263.9375,1090.3516 1263.5,1090.3516 Q1263.1094,1090.3516 1262.8594,1090.1797 Q1262.6094,1090.0078 1262.5,1089.5547 Q1262.4531,1089.2422 1262.2813,1089.0703 Q1261.9688,1088.7422 1261.4063,1088.5547 Q1260.8438,1088.3516 1260.2813,1088.3516 Q1259.5781,1088.3516 1258.9844,1088.6328 Q1258.4063,1088.9141 1257.9531,1089.5391 Q1257.5,1090.1641 1257.5,1091.0234 L1257.5,1091.9453 Q1257.5,1092.9766 1258.3438,1093.6641 Q1259.1875,1094.3516 1260.6875,1094.3516 Q1261.5781,1094.3516 1262.2031,1094.1484 Q1262.5625,1094.0391 1262.9688,1093.6797 Q1263.2344,1093.4766 1263.375,1093.4141 Q1263.5156,1093.3516 1263.6875,1093.3516 Q1264.0156,1093.3516 1264.25,1093.6172 Q1264.5,1093.8672 1264.5,1094.2266 Q1264.5,1094.5703 1264.1563,1094.9766 Q1263.6563,1095.5703 1262.8594,1095.8984 Q1261.8125,1096.3516 1260.5313,1096.3516 Q1259.0313,1096.3516 1257.8281,1095.7578 Q1256.8594,1095.2891 1256.1719,1094.2734 Q1255.5,1093.2578 1255.5,1092.0547 L1255.5,1090.9609 Q1255.5,1089.7109 1256.0938,1088.6172 Q1256.7031,1087.5234 1257.75,1086.9453 Q1258.8125,1086.3516 1260,1086.3516 Q1260.7188,1086.3516 1261.3438,1086.6016 Q1261.9688,1086.8516 1262.5,1087.3516 Z " fill="#000000"/><text fill="#000000" font-family="sans-serif" font-size="12" font-style="italic" lengthAdjust="spacing" textLength="83" x="1276" y="1086.957">«Value object»</text><text fill="#000000" font-family="sans-serif" font-size="14" lengthAdjust="spacing" textLength="86" x="1274.5" y="1104.127">EmailAdderss</text><line style="stroke:#181818;stroke-width:0.5;" x1="1246.5" x2="1362.5" y1="1112.2031" y2="1112.2031"/><line style="stroke:#181818;stroke-width:0.5;" x1="1246.5" x2="1362.5" y1="1120.2031" y2="1120.2031"/></g><!--MD5=[a3638c1e5b65d287ecad7f06f5c0f212]
class Role--><g id="elem_Role"><rect codeLine="89" fill="#F1F1F1" height="76.3125" id="Role" rx="2.5" ry="2.5" style="stroke:#181818;stroke-width:0.5;" width="102" x="963.5" y="1061"/><ellipse cx="992" cy="1082.3516" fill="#ADD1B2" rx="11" ry="11" style="stroke:#181818;stroke-width:1.0;"/><path d="M994,1078.8516 Q994.2031,1078.3516 994.4375,1078.1016 Q994.6719,1077.8516 994.9375,1077.8516 Q995.4063,1077.8516 995.7031,1078.1328 Q996,1078.4141 996,1079.0703 L996,1080.6328 Q996,1081.2891 995.7188,1081.5703 Q995.4375,1081.8516 995,1081.8516 Q994.6094,1081.8516 994.3594,1081.6797 Q994.1094,1081.5078 994,1081.0547 Q993.9531,1080.7422 993.7813,1080.5703 Q993.4688,1080.2422 992.9063,1080.0547 Q992.3438,1079.8516 991.7813,1079.8516 Q991.0781,1079.8516 990.4844,1080.1328 Q989.9063,1080.4141 989.4531,1081.0391 Q989,1081.6641 989,1082.5234 L989,1083.4453 Q989,1084.4766 989.8438,1085.1641 Q990.6875,1085.8516 992.1875,1085.8516 Q993.0781,1085.8516 993.7031,1085.6484 Q994.0625,1085.5391 994.4688,1085.1797 Q994.7344,1084.9766 994.875,1084.9141 Q995.0156,1084.8516 995.1875,1084.8516 Q995.5156,1084.8516 995.75,1085.1172 Q996,1085.3672 996,1085.7266 Q996,1086.0703 995.6563,1086.4766 Q995.1563,1087.0703 994.3594,1087.3984 Q993.3125,1087.8516 992.0313,1087.8516 Q990.5313,1087.8516 989.3281,1087.2578 Q988.3594,1086.7891 987.6719,1085.7734 Q987,1084.7578 987,1083.5547 L987,1082.4609 Q987,1081.2109 987.5938,1080.1172 Q988.2031,1079.0234 989.25,1078.4453 Q990.3125,1077.8516 991.5,1077.8516 Q992.2188,1077.8516 992.8438,1078.1016 Q993.4688,1078.3516 994,1078.8516 Z " fill="#000000"/><text fill="#000000" font-family="sans-serif" font-size="12" font-style="italic" lengthAdjust="spacing" textLength="44" x="1007" y="1078.457">«Entity»</text><text fill="#000000" font-family="sans-serif" font-size="14" lengthAdjust="spacing" textLength="29" x="1014.5" y="1095.627">Role</text><line style="stroke:#181818;stroke-width:0.5;" x1="964.5" x2="1064.5" y1="1103.7031" y2="1103.7031"/><ellipse cx="974.5" cy="1118.0078" fill="#000000" rx="3" ry="3" style="stroke:#000000;stroke-width:1.0;"/><text fill="#000000" font-family="sans-serif" font-size="14" lengthAdjust="spacing" textLength="76" x="983.5" y="1122.2363">String name</text><line style="stroke:#181818;stroke-width:0.5;" x1="964.5" x2="1064.5" y1="1129.3125" y2="1129.3125"/></g><!--MD5=[51fd3fce36c976f35b405d5800336138]
class UserStatus--><g id="elem_UserStatus"><rect codeLine="93" fill="#F1F1F1" height="93.9219" id="UserStatus" rx="2.5" ry="2.5" style="stroke:#181818;stroke-width:0.5;" width="101" x="1227" y="898.5"/><ellipse cx="1242" cy="919.8516" fill="#ADD1B2" rx="11" ry="11" style="stroke:#181818;stroke-width:1.0;"/><path d="M1244,916.3516 Q1244.2031,915.8516 1244.4375,915.6016 Q1244.6719,915.3516 1244.9375,915.3516 Q1245.4063,915.3516 1245.7031,915.6328 Q1246,915.9141 1246,916.5703 L1246,918.1328 Q1246,918.7891 1245.7188,919.0703 Q1245.4375,919.3516 1245,919.3516 Q1244.6094,919.3516 1244.3594,919.1797 Q1244.1094,919.0078 1244,918.5547 Q1243.9531,918.2422 1243.7813,918.0703 Q1243.4688,917.7422 1242.9063,917.5547 Q1242.3438,917.3516 1241.7813,917.3516 Q1241.0781,917.3516 1240.4844,917.6328 Q1239.9063,917.9141 1239.4531,918.5391 Q1239,919.1641 1239,920.0234 L1239,920.9453 Q1239,921.9766 1239.8438,922.6641 Q1240.6875,923.3516 1242.1875,923.3516 Q1243.0781,923.3516 1243.7031,923.1484 Q1244.0625,923.0391 1244.4688,922.6797 Q1244.7344,922.4766 1244.875,922.4141 Q1245.0156,922.3516 1245.1875,922.3516 Q1245.5156,922.3516 1245.75,922.6172 Q1246,922.8672 1246,923.2266 Q1246,923.5703 1245.6563,923.9766 Q1245.1563,924.5703 1244.3594,924.8984 Q1243.3125,925.3516 1242.0313,925.3516 Q1240.5313,925.3516 1239.3281,924.7578 Q1238.3594,924.2891 1237.6719,923.2734 Q1237,922.2578 1237,921.0547 L1237,919.9609 Q1237,918.7109 1237.5938,917.6172 Q1238.2031,916.5234 1239.25,915.9453 Q1240.3125,915.3516 1241.5,915.3516 Q1242.2188,915.3516 1242.8438,915.6016 Q1243.4688,915.8516 1244,916.3516 Z " fill="#000000"/><text fill="#000000" font-family="sans-serif" font-size="12" font-style="italic" lengthAdjust="spacing" textLength="46" x="1267.5" y="915.957">«enum»</text><text fill="#000000" font-family="sans-serif" font-size="14" lengthAdjust="spacing" textLength="69" x="1256" y="933.127">UserStatus</text><line style="stroke:#181818;stroke-width:0.5;" x1="1228" x2="1327" y1="941.2031" y2="941.2031"/><ellipse cx="1238" cy="955.5078" fill="none" rx="3" ry="3" style="stroke:#038048;stroke-width:1.0;"/><text fill="#000000" font-family="sans-serif" font-size="14" lengthAdjust="spacing" textLength="53" x="1247" y="959.7363">ENABLE</text><ellipse cx="1238" cy="973.1172" fill="none" rx="3" ry="3" style="stroke:#038048;stroke-width:1.0;"/><text fill="#000000" font-family="sans-serif" font-size="14" lengthAdjust="spacing" textLength="57" x="1247" y="977.3457">DISABLE</text><line style="stroke:#181818;stroke-width:0.5;" x1="1228" x2="1327" y1="984.4219" y2="984.4219"/></g><!--MD5=[2f01b1126ff33a0669651ec2488a5ef9]
class Password--><g id="elem_Password"><rect codeLine="98" fill="#F1F1F1" height="58.7031" id="Password" rx="2.5" ry="2.5" style="stroke:#181818;stroke-width:0.5;" width="109" x="1101" y="1069.5"/><ellipse cx="1116" cy="1090.8516" fill="#ADD1B2" rx="11" ry="11" style="stroke:#181818;stroke-width:1.0;"/><path d="M1118,1087.3516 Q1118.2031,1086.8516 1118.4375,1086.6016 Q1118.6719,1086.3516 1118.9375,1086.3516 Q1119.4063,1086.3516 1119.7031,1086.6328 Q1120,1086.9141 1120,1087.5703 L1120,1089.1328 Q1120,1089.7891 1119.7188,1090.0703 Q1119.4375,1090.3516 1119,1090.3516 Q1118.6094,1090.3516 1118.3594,1090.1797 Q1118.1094,1090.0078 1118,1089.5547 Q1117.9531,1089.2422 1117.7813,1089.0703 Q1117.4688,1088.7422 1116.9063,1088.5547 Q1116.3438,1088.3516 1115.7813,1088.3516 Q1115.0781,1088.3516 1114.4844,1088.6328 Q1113.9063,1088.9141 1113.4531,1089.5391 Q1113,1090.1641 1113,1091.0234 L1113,1091.9453 Q1113,1092.9766 1113.8438,1093.6641 Q1114.6875,1094.3516 1116.1875,1094.3516 Q1117.0781,1094.3516 1117.7031,1094.1484 Q1118.0625,1094.0391 1118.4688,1093.6797 Q1118.7344,1093.4766 1118.875,1093.4141 Q1119.0156,1093.3516 1119.1875,1093.3516 Q1119.5156,1093.3516 1119.75,1093.6172 Q1120,1093.8672 1120,1094.2266 Q1120,1094.5703 1119.6563,1094.9766 Q1119.1563,1095.5703 1118.3594,1095.8984 Q1117.3125,1096.3516 1116.0313,1096.3516 Q1114.5313,1096.3516 1113.3281,1095.7578 Q1112.3594,1095.2891 1111.6719,1094.2734 Q1111,1093.2578 1111,1092.0547 L1111,1090.9609 Q1111,1089.7109 1111.5938,1088.6172 Q1112.2031,1087.5234 1113.25,1086.9453 Q1114.3125,1086.3516 1115.5,1086.3516 Q1116.2188,1086.3516 1116.8438,1086.6016 Q1117.4688,1086.8516 1118,1087.3516 Z " fill="#000000"/><text fill="#000000" font-family="sans-serif" font-size="12" font-style="italic" lengthAdjust="spacing" textLength="81" x="1128" y="1086.957">«value object»</text><text fill="#000000" font-family="sans-serif" font-size="14" lengthAdjust="spacing" textLength="61" x="1138" y="1104.127">Password</text><line style="stroke:#181818;stroke-width:0.5;" x1="1102" x2="1209" y1="1112.2031" y2="1112.2031"/><line style="stroke:#181818;stroke-width:0.5;" x1="1102" x2="1209" y1="1120.2031" y2="1120.2031"/></g><!--MD5=[739264bb8c13fd453fd6fc4eef2b32cc]
class Acronym--><g id="elem_Acronym"><rect codeLine="100" fill="#F1F1F1" height="58.7031" id="Acronym" rx="2.5" ry="2.5" style="stroke:#181818;stroke-width:0.5;" width="109" x="1363" y="916"/><ellipse cx="1378" cy="937.3516" fill="#ADD1B2" rx="11" ry="11" style="stroke:#181818;stroke-width:1.0;"/><path d="M1380,933.8516 Q1380.2031,933.3516 1380.4375,933.1016 Q1380.6719,932.8516 1380.9375,932.8516 Q1381.4063,932.8516 1381.7031,933.1328 Q1382,933.4141 1382,934.0703 L1382,935.6328 Q1382,936.2891 1381.7188,936.5703 Q1381.4375,936.8516 1381,936.8516 Q1380.6094,936.8516 1380.3594,936.6797 Q1380.1094,936.5078 1380,936.0547 Q1379.9531,935.7422 1379.7813,935.5703 Q1379.4688,935.2422 1378.9063,935.0547 Q1378.3438,934.8516 1377.7813,934.8516 Q1377.0781,934.8516 1376.4844,935.1328 Q1375.9063,935.4141 1375.4531,936.0391 Q1375,936.6641 1375,937.5234 L1375,938.4453 Q1375,939.4766 1375.8438,940.1641 Q1376.6875,940.8516 1378.1875,940.8516 Q1379.0781,940.8516 1379.7031,940.6484 Q1380.0625,940.5391 1380.4688,940.1797 Q1380.7344,939.9766 1380.875,939.9141 Q1381.0156,939.8516 1381.1875,939.8516 Q1381.5156,939.8516 1381.75,940.1172 Q1382,940.3672 1382,940.7266 Q1382,941.0703 1381.6563,941.4766 Q1381.1563,942.0703 1380.3594,942.3984 Q1379.3125,942.8516 1378.0313,942.8516 Q1376.5313,942.8516 1375.3281,942.2578 Q1374.3594,941.7891 1373.6719,940.7734 Q1373,939.7578 1373,938.5547 L1373,937.4609 Q1373,936.2109 1373.5938,935.1172 Q1374.2031,934.0234 1375.25,933.4453 Q1376.3125,932.8516 1377.5,932.8516 Q1378.2188,932.8516 1378.8438,933.1016 Q1379.4688,933.3516 1380,933.8516 Z " fill="#000000"/><text fill="#000000" font-family="sans-serif" font-size="12" font-style="italic" lengthAdjust="spacing" textLength="81" x="1390" y="933.457">«value object»</text><text fill="#000000" font-family="sans-serif" font-size="14" lengthAdjust="spacing" textLength="55" x="1403" y="950.627">Acronym</text><line style="stroke:#181818;stroke-width:0.5;" x1="1364" x2="1471" y1="958.7031" y2="958.7031"/><line style="stroke:#181818;stroke-width:0.5;" x1="1364" x2="1471" y1="966.7031" y2="966.7031"/></g><!--MD5=[339871d7601d113ba04802e4e0a41179]
class NIF--><g id="elem_NIF"><rect codeLine="102" fill="#F1F1F1" height="58.7031" id="NIF" rx="2.5" ry="2.5" style="stroke:#181818;stroke-width:0.5;" width="109" x="1507" y="916"/><ellipse cx="1522" cy="937.3516" fill="#ADD1B2" rx="11" ry="11" style="stroke:#181818;stroke-width:1.0;"/><path d="M1524,933.8516 Q1524.2031,933.3516 1524.4375,933.1016 Q1524.6719,932.8516 1524.9375,932.8516 Q1525.4063,932.8516 1525.7031,933.1328 Q1526,933.4141 1526,934.0703 L1526,935.6328 Q1526,936.2891 1525.7188,936.5703 Q1525.4375,936.8516 1525,936.8516 Q1524.6094,936.8516 1524.3594,936.6797 Q1524.1094,936.5078 1524,936.0547 Q1523.9531,935.7422 1523.7813,935.5703 Q1523.4688,935.2422 1522.9063,935.0547 Q1522.3438,934.8516 1521.7813,934.8516 Q1521.0781,934.8516 1520.4844,935.1328 Q1519.9063,935.4141 1519.4531,936.0391 Q1519,936.6641 1519,937.5234 L1519,938.4453 Q1519,939.4766 1519.8438,940.1641 Q1520.6875,940.8516 1522.1875,940.8516 Q1523.0781,940.8516 1523.7031,940.6484 Q1524.0625,940.5391 1524.4688,940.1797 Q1524.7344,939.9766 1524.875,939.9141 Q1525.0156,939.8516 1525.1875,939.8516 Q1525.5156,939.8516 1525.75,940.1172 Q1526,940.3672 1526,940.7266 Q1526,941.0703 1525.6563,941.4766 Q1525.1563,942.0703 1524.3594,942.3984 Q1523.3125,942.8516 1522.0313,942.8516 Q1520.5313,942.8516 1519.3281,942.2578 Q1518.3594,941.7891 1517.6719,940.7734 Q1517,939.7578 1517,938.5547 L1517,937.4609 Q1517,936.2109 1517.5938,935.1172 Q1518.2031,934.0234 1519.25,933.4453 Q1520.3125,932.8516 1521.5,932.8516 Q1522.2188,932.8516 1522.8438,933.1016 Q1523.4688,933.3516 1524,933.8516 Z " fill="#000000"/><text fill="#000000" font-family="sans-serif" font-size="12" font-style="italic" lengthAdjust="spacing" textLength="81" x="1534" y="933.457">«value object»</text><text fill="#000000" font-family="sans-serif" font-size="14" lengthAdjust="spacing" textLength="21" x="1564" y="950.627">NIF</text><line style="stroke:#181818;stroke-width:0.5;" x1="1508" x2="1615" y1="958.7031" y2="958.7031"/><line style="stroke:#181818;stroke-width:0.5;" x1="1508" x2="1615" y1="966.7031" y2="966.7031"/></g><!--MD5=[ec957f90f125634d426aef890efece94]
class BirthDate--><g id="elem_BirthDate"><rect codeLine="104" fill="#F1F1F1" height="58.7031" id="BirthDate" rx="2.5" ry="2.5" style="stroke:#181818;stroke-width:0.5;" width="109" x="1651" y="916"/><ellipse cx="1666" cy="937.3516" fill="#ADD1B2" rx="11" ry="11" style="stroke:#181818;stroke-width:1.0;"/><path d="M1668,933.8516 Q1668.2031,933.3516 1668.4375,933.1016 Q1668.6719,932.8516 1668.9375,932.8516 Q1669.4063,932.8516 1669.7031,933.1328 Q1670,933.4141 1670,934.0703 L1670,935.6328 Q1670,936.2891 1669.7188,936.5703 Q1669.4375,936.8516 1669,936.8516 Q1668.6094,936.8516 1668.3594,936.6797 Q1668.1094,936.5078 1668,936.0547 Q1667.9531,935.7422 1667.7813,935.5703 Q1667.4688,935.2422 1666.9063,935.0547 Q1666.3438,934.8516 1665.7813,934.8516 Q1665.0781,934.8516 1664.4844,935.1328 Q1663.9063,935.4141 1663.4531,936.0391 Q1663,936.6641 1663,937.5234 L1663,938.4453 Q1663,939.4766 1663.8438,940.1641 Q1664.6875,940.8516 1666.1875,940.8516 Q1667.0781,940.8516 1667.7031,940.6484 Q1668.0625,940.5391 1668.4688,940.1797 Q1668.7344,939.9766 1668.875,939.9141 Q1669.0156,939.8516 1669.1875,939.8516 Q1669.5156,939.8516 1669.75,940.1172 Q1670,940.3672 1670,940.7266 Q1670,941.0703 1669.6563,941.4766 Q1669.1563,942.0703 1668.3594,942.3984 Q1667.3125,942.8516 1666.0313,942.8516 Q1664.5313,942.8516 1663.3281,942.2578 Q1662.3594,941.7891 1661.6719,940.7734 Q1661,939.7578 1661,938.5547 L1661,937.4609 Q1661,936.2109 1661.5938,935.1172 Q1662.2031,934.0234 1663.25,933.4453 Q1664.3125,932.8516 1665.5,932.8516 Q1666.2188,932.8516 1666.8438,933.1016 Q1667.4688,933.3516 1668,933.8516 Z " fill="#000000"/><text fill="#000000" font-family="sans-serif" font-size="12" font-style="italic" lengthAdjust="spacing" textLength="81" x="1678" y="933.457">«value object»</text><text fill="#000000" font-family="sans-serif" font-size="14" lengthAdjust="spacing" textLength="59" x="1689" y="950.627">BirthDate</text><line style="stroke:#181818;stroke-width:0.5;" x1="1652" x2="1759" y1="958.7031" y2="958.7031"/><line style="stroke:#181818;stroke-width:0.5;" x1="1652" x2="1759" y1="966.7031" y2="966.7031"/></g><!--MD5=[9de4f19eab90a199848c5893311179be]
class MechanographicNumber--><g id="elem_MechanographicNumber"><rect codeLine="106" fill="#F1F1F1" height="73.7969" id="MechanographicNumber" rx="2.5" ry="2.5" style="stroke:#181818;stroke-width:0.5;" width="186" x="1795.5" y="908.5"/><ellipse cx="1810.5" cy="937.3984" fill="#ADD1B2" rx="11" ry="11" style="stroke:#181818;stroke-width:1.0;"/><path d="M1812.5,933.8984 Q1812.7031,933.3984 1812.9375,933.1484 Q1813.1719,932.8984 1813.4375,932.8984 Q1813.9063,932.8984 1814.2031,933.1797 Q1814.5,933.4609 1814.5,934.1172 L1814.5,935.6797 Q1814.5,936.3359 1814.2188,936.6172 Q1813.9375,936.8984 1813.5,936.8984 Q1813.1094,936.8984 1812.8594,936.7266 Q1812.6094,936.5547 1812.5,936.1016 Q1812.4531,935.7891 1812.2813,935.6172 Q1811.9688,935.2891 1811.4063,935.1016 Q1810.8438,934.8984 1810.2813,934.8984 Q1809.5781,934.8984 1808.9844,935.1797 Q1808.4063,935.4609 1807.9531,936.0859 Q1807.5,936.7109 1807.5,937.5703 L1807.5,938.4922 Q1807.5,939.5234 1808.3438,940.2109 Q1809.1875,940.8984 1810.6875,940.8984 Q1811.5781,940.8984 1812.2031,940.6953 Q1812.5625,940.5859 1812.9688,940.2266 Q1813.2344,940.0234 1813.375,939.9609 Q1813.5156,939.8984 1813.6875,939.8984 Q1814.0156,939.8984 1814.25,940.1641 Q1814.5,940.4141 1814.5,940.7734 Q1814.5,941.1172 1814.1563,941.5234 Q1813.6563,942.1172 1812.8594,942.4453 Q1811.8125,942.8984 1810.5313,942.8984 Q1809.0313,942.8984 1807.8281,942.3047 Q1806.8594,941.8359 1806.1719,940.8203 Q1805.5,939.8047 1805.5,938.6016 L1805.5,937.5078 Q1805.5,936.2578 1806.0938,935.1641 Q1806.7031,934.0703 1807.75,933.4922 Q1808.8125,932.8984 1810,932.8984 Q1810.7188,932.8984 1811.3438,933.1484 Q1811.9688,933.3984 1812.5,933.8984 Z " fill="#000000"/><text fill="#000000" font-family="sans-serif" font-size="12" font-style="italic" lengthAdjust="spacing" textLength="81" x="1861" y="925.957">«value object»</text><text fill="#000000" font-family="sans-serif" font-size="12" font-style="italic" lengthAdjust="spacing" textLength="146" x="1828.5" y="941.0508">«automatically generated»</text><text fill="#000000" font-family="sans-serif" font-size="14" lengthAdjust="spacing" textLength="154" x="1824.5" y="958.2207">MechanographicNumber</text><line style="stroke:#181818;stroke-width:0.5;" x1="1796.5" x2="1980.5" y1="966.2969" y2="966.2969"/><line style="stroke:#181818;stroke-width:0.5;" x1="1796.5" x2="1980.5" y1="974.2969" y2="974.2969"/></g><!--MD5=[64e7a81d370390ac66d73872e4f36773]
class Grade--><g id="elem_Grade"><rect codeLine="108" fill="#F1F1F1" height="58.7031" id="Grade" rx="2.5" ry="2.5" style="stroke:#181818;stroke-width:0.5;" width="109" x="2017" y="916"/><ellipse cx="2032" cy="937.3516" fill="#ADD1B2" rx="11" ry="11" style="stroke:#181818;stroke-width:1.0;"/><path d="M2034,933.8516 Q2034.2031,933.3516 2034.4375,933.1016 Q2034.6719,932.8516 2034.9375,932.8516 Q2035.4063,932.8516 2035.7031,933.1328 Q2036,933.4141 2036,934.0703 L2036,935.6328 Q2036,936.2891 2035.7188,936.5703 Q2035.4375,936.8516 2035,936.8516 Q2034.6094,936.8516 2034.3594,936.6797 Q2034.1094,936.5078 2034,936.0547 Q2033.9531,935.7422 2033.7813,935.5703 Q2033.4688,935.2422 2032.9063,935.0547 Q2032.3438,934.8516 2031.7813,934.8516 Q2031.0781,934.8516 2030.4844,935.1328 Q2029.9063,935.4141 2029.4531,936.0391 Q2029,936.6641 2029,937.5234 L2029,938.4453 Q2029,939.4766 2029.8438,940.1641 Q2030.6875,940.8516 2032.1875,940.8516 Q2033.0781,940.8516 2033.7031,940.6484 Q2034.0625,940.5391 2034.4688,940.1797 Q2034.7344,939.9766 2034.875,939.9141 Q2035.0156,939.8516 2035.1875,939.8516 Q2035.5156,939.8516 2035.75,940.1172 Q2036,940.3672 2036,940.7266 Q2036,941.0703 2035.6563,941.4766 Q2035.1563,942.0703 2034.3594,942.3984 Q2033.3125,942.8516 2032.0313,942.8516 Q2030.5313,942.8516 2029.3281,942.2578 Q2028.3594,941.7891 2027.6719,940.7734 Q2027,939.7578 2027,938.5547 L2027,937.4609 Q2027,936.2109 2027.5938,935.1172 Q2028.2031,934.0234 2029.25,933.4453 Q2030.3125,932.8516 2031.5,932.8516 Q2032.2188,932.8516 2032.8438,933.1016 Q2033.4688,933.3516 2034,933.8516 Z " fill="#000000"/><text fill="#000000" font-family="sans-serif" font-size="12" font-style="italic" lengthAdjust="spacing" textLength="81" x="2044" y="933.457">«value object»</text><text fill="#000000" font-family="sans-serif" font-size="14" lengthAdjust="spacing" textLength="40" x="2064.5" y="950.627">Grade</text><line style="stroke:#181818;stroke-width:0.5;" x1="2018" x2="2125" y1="958.7031" y2="958.7031"/><line style="stroke:#181818;stroke-width:0.5;" x1="2018" x2="2125" y1="966.7031" y2="966.7031"/></g><!--MD5=[093c210125347143eef5bb9199eae634]
class UserRepository--><g id="elem_UserRepository"><rect codeLine="110" fill="#F1F1F1" height="188.875" id="UserRepository" rx="2.5" ry="2.5" style="stroke:#181818;stroke-width:0.5;" width="328" x="1746.5" y="7"/><ellipse cx="1857.75" cy="23" fill="#ADD1B2" rx="11" ry="11" style="stroke:#181818;stroke-width:1.0;"/><path d="M1859.75,19.5 Q1859.9531,19 1860.1875,18.75 Q1860.4219,18.5 1860.6875,18.5 Q1861.1563,18.5 1861.4531,18.7813 Q1861.75,19.0625 1861.75,19.7188 L1861.75,21.2813 Q1861.75,21.9375 1861.4688,22.2188 Q1861.1875,22.5 1860.75,22.5 Q1860.3594,22.5 1860.1094,22.3281 Q1859.8594,22.1563 1859.75,21.7031 Q1859.7031,21.3906 1859.5313,21.2188 Q1859.2188,20.8906 1858.6563,20.7031 Q1858.0938,20.5 1857.5313,20.5 Q1856.8281,20.5 1856.2344,20.7813 Q1855.6563,21.0625 1855.2031,21.6875 Q1854.75,22.3125 1854.75,23.1719 L1854.75,24.0938 Q1854.75,25.125 1855.5938,25.8125 Q1856.4375,26.5 1857.9375,26.5 Q1858.8281,26.5 1859.4531,26.2969 Q1859.8125,26.1875 1860.2188,25.8281 Q1860.4844,25.625 1860.625,25.5625 Q1860.7656,25.5 1860.9375,25.5 Q1861.2656,25.5 1861.5,25.7656 Q1861.75,26.0156 1861.75,26.375 Q1861.75,26.7188 1861.4063,27.125 Q1860.9063,27.7188 1860.1094,28.0469 Q1859.0625,28.5 1857.7813,28.5 Q1856.2813,28.5 1855.0781,27.9063 Q1854.1094,27.4375 1853.4219,26.4219 Q1852.75,25.4063 1852.75,24.2031 L1852.75,23.1094 Q1852.75,21.8594 1853.3438,20.7656 Q1853.9531,19.6719 1855,19.0938 Q1856.0625,18.5 1857.25,18.5 Q1857.9688,18.5 1858.5938,18.75 Q1859.2188,19 1859.75,19.5 Z " fill="#000000"/><text fill="#000000" font-family="sans-serif" font-size="14" lengthAdjust="spacing" textLength="97" x="1878.25" y="28.7285">UserRepository</text><line style="stroke:#181818;stroke-width:0.5;" x1="1747.5" x2="2073.5" y1="39" y2="39"/><line style="stroke:#181818;stroke-width:0.5;" x1="1747.5" x2="2073.5" y1="47" y2="47"/><ellipse cx="1757.5" cy="61.3047" fill="#84BE84" rx="3" ry="3" style="stroke:#038048;stroke-width:1.0;"/><text fill="#000000" font-family="sans-serif" font-size="14" lengthAdjust="spacing" textLength="127" x="1766.5" y="65.5332">addUser(user: user)</text><ellipse cx="1757.5" cy="78.9141" fill="#84BE84" rx="3" ry="3" style="stroke:#038048;stroke-width:1.0;"/><text fill="#000000" font-family="sans-serif" font-size="14" lengthAdjust="spacing" textLength="150" x="1766.5" y="83.1426">removeUser(user: user)</text><ellipse cx="1757.5" cy="105.3281" fill="#84BE84" rx="3" ry="3" style="stroke:#038048;stroke-width:1.0;"/><text fill="#000000" font-family="sans-serif" font-size="14" lengthAdjust="spacing" textLength="298" x="1766.5" y="100.752">CreateUser(String: fullName, String: fhortName,</text><text fill="#000000" font-family="sans-serif" font-size="14" lengthAdjust="spacing" textLength="286" x="1774.5" y="118.3613">Role: role, Email: email, Password, password)</text><ellipse cx="1757.5" cy="131.7422" fill="#84BE84" rx="3" ry="3" style="stroke:#038048;stroke-width:1.0;"/><text fill="#000000" font-family="sans-serif" font-size="14" lengthAdjust="spacing" textLength="183" x="1766.5" y="135.9707">searchUser(user: user): User</text><ellipse cx="1757.5" cy="149.3516" fill="#84BE84" rx="3" ry="3" style="stroke:#038048;stroke-width:1.0;"/><text fill="#000000" font-family="sans-serif" font-size="14" lengthAdjust="spacing" textLength="172" x="1766.5" y="153.5801">alterUserStatus(User: user)</text><ellipse cx="1757.5" cy="166.9609" fill="#84BE84" rx="3" ry="3" style="stroke:#038048;stroke-width:1.0;"/><text fill="#000000" font-family="sans-serif" font-size="14" lengthAdjust="spacing" textLength="160" x="1766.5" y="171.1895">totalNumberOfUsers(): int</text><ellipse cx="1757.5" cy="184.5703" fill="#84BE84" rx="3" ry="3" style="stroke:#038048;stroke-width:1.0;"/><text fill="#000000" font-family="sans-serif" font-size="14" lengthAdjust="spacing" textLength="184" x="1766.5" y="188.7988">listSystemUsers(): List&lt;User&gt;</text></g><!--MD5=[3762909e135fb728396985e200594027]
class SharedBoard--><g id="elem_SharedBoard"><rect fill="#F1F1F1" height="48" id="SharedBoard" rx="2.5" ry="2.5" style="stroke:#181818;stroke-width:0.5;" width="116" x="815.5" y="921.5"/><ellipse cx="830.5" cy="937.5" fill="#ADD1B2" rx="11" ry="11" style="stroke:#181818;stroke-width:1.0;"/><path d="M832.5,934 Q832.7031,933.5 832.9375,933.25 Q833.1719,933 833.4375,933 Q833.9063,933 834.2031,933.2813 Q834.5,933.5625 834.5,934.2188 L834.5,935.7813 Q834.5,936.4375 834.2188,936.7188 Q833.9375,937 833.5,937 Q833.1094,937 832.8594,936.8281 Q832.6094,936.6563 832.5,936.2031 Q832.4531,935.8906 832.2813,935.7188 Q831.9688,935.3906 831.4063,935.2031 Q830.8438,935 830.2813,935 Q829.5781,935 828.9844,935.2813 Q828.4063,935.5625 827.9531,936.1875 Q827.5,936.8125 827.5,937.6719 L827.5,938.5938 Q827.5,939.625 828.3438,940.3125 Q829.1875,941 830.6875,941 Q831.5781,941 832.2031,940.7969 Q832.5625,940.6875 832.9688,940.3281 Q833.2344,940.125 833.375,940.0625 Q833.5156,940 833.6875,940 Q834.0156,940 834.25,940.2656 Q834.5,940.5156 834.5,940.875 Q834.5,941.2188 834.1563,941.625 Q833.6563,942.2188 832.8594,942.5469 Q831.8125,943 830.5313,943 Q829.0313,943 827.8281,942.4063 Q826.8594,941.9375 826.1719,940.9219 Q825.5,939.9063 825.5,938.7031 L825.5,937.6094 Q825.5,936.3594 826.0938,935.2656 Q826.7031,934.1719 827.75,933.5938 Q828.8125,933 830,933 Q830.7188,933 831.3438,933.25 Q831.9688,933.5 832.5,934 Z " fill="#000000"/><text fill="#000000" font-family="sans-serif" font-size="14" lengthAdjust="spacing" textLength="84" x="844.5" y="943.2285">SharedBoard</text><line style="stroke:#181818;stroke-width:0.5;" x1="816.5" x2="930.5" y1="953.5" y2="953.5"/><line style="stroke:#181818;stroke-width:0.5;" x1="816.5" x2="930.5" y1="961.5" y2="961.5"/></g><!--MD5=[ebc00ce410b2f87f9bae58c2605cbdbe]
class UserRepsitory--><g id="elem_UserRepsitory"><rect fill="#F1F1F1" height="48" id="UserRepsitory" rx="2.5" ry="2.5" style="stroke:#181818;stroke-width:0.5;" width="121" x="389" y="536"/><ellipse cx="404" cy="552" fill="#ADD1B2" rx="11" ry="11" style="stroke:#181818;stroke-width:1.0;"/><path d="M406,548.5 Q406.2031,548 406.4375,547.75 Q406.6719,547.5 406.9375,547.5 Q407.4063,547.5 407.7031,547.7813 Q408,548.0625 408,548.7188 L408,550.2813 Q408,550.9375 407.7188,551.2188 Q407.4375,551.5 407,551.5 Q406.6094,551.5 406.3594,551.3281 Q406.1094,551.1563 406,550.7031 Q405.9531,550.3906 405.7813,550.2188 Q405.4688,549.8906 404.9063,549.7031 Q404.3438,549.5 403.7813,549.5 Q403.0781,549.5 402.4844,549.7813 Q401.9063,550.0625 401.4531,550.6875 Q401,551.3125 401,552.1719 L401,553.0938 Q401,554.125 401.8438,554.8125 Q402.6875,555.5 404.1875,555.5 Q405.0781,555.5 405.7031,555.2969 Q406.0625,555.1875 406.4688,554.8281 Q406.7344,554.625 406.875,554.5625 Q407.0156,554.5 407.1875,554.5 Q407.5156,554.5 407.75,554.7656 Q408,555.0156 408,555.375 Q408,555.7188 407.6563,556.125 Q407.1563,556.7188 406.3594,557.0469 Q405.3125,557.5 404.0313,557.5 Q402.5313,557.5 401.3281,556.9063 Q400.3594,556.4375 399.6719,555.4219 Q399,554.4063 399,553.2031 L399,552.1094 Q399,550.8594 399.5938,549.7656 Q400.2031,548.6719 401.25,548.0938 Q402.3125,547.5 403.5,547.5 Q404.2188,547.5 404.8438,547.75 Q405.4688,548 406,548.5 Z " fill="#000000"/><text fill="#000000" font-family="sans-serif" font-size="14" lengthAdjust="spacing" textLength="89" x="418" y="557.7285">UserRepsitory</text><line style="stroke:#181818;stroke-width:0.5;" x1="390" x2="509" y1="568" y2="568"/><line style="stroke:#181818;stroke-width:0.5;" x1="390" x2="509" y1="576" y2="576"/></g><!--MD5=[9bd87ab3e3a1c8f9b85ac09482781901]
class ShareBoardRepsitory--><g id="elem_ShareBoardRepsitory"><rect fill="#F1F1F1" height="48" id="ShareBoardRepsitory" rx="2.5" ry="2.5" style="stroke:#181818;stroke-width:0.5;" width="168" x="623.5" y="742"/><ellipse cx="638.5" cy="758" fill="#ADD1B2" rx="11" ry="11" style="stroke:#181818;stroke-width:1.0;"/><path d="M640.5,754.5 Q640.7031,754 640.9375,753.75 Q641.1719,753.5 641.4375,753.5 Q641.9063,753.5 642.2031,753.7813 Q642.5,754.0625 642.5,754.7188 L642.5,756.2813 Q642.5,756.9375 642.2188,757.2188 Q641.9375,757.5 641.5,757.5 Q641.1094,757.5 640.8594,757.3281 Q640.6094,757.1563 640.5,756.7031 Q640.4531,756.3906 640.2813,756.2188 Q639.9688,755.8906 639.4063,755.7031 Q638.8438,755.5 638.2813,755.5 Q637.5781,755.5 636.9844,755.7813 Q636.4063,756.0625 635.9531,756.6875 Q635.5,757.3125 635.5,758.1719 L635.5,759.0938 Q635.5,760.125 636.3438,760.8125 Q637.1875,761.5 638.6875,761.5 Q639.5781,761.5 640.2031,761.2969 Q640.5625,761.1875 640.9688,760.8281 Q641.2344,760.625 641.375,760.5625 Q641.5156,760.5 641.6875,760.5 Q642.0156,760.5 642.25,760.7656 Q642.5,761.0156 642.5,761.375 Q642.5,761.7188 642.1563,762.125 Q641.6563,762.7188 640.8594,763.0469 Q639.8125,763.5 638.5313,763.5 Q637.0313,763.5 635.8281,762.9063 Q634.8594,762.4375 634.1719,761.4219 Q633.5,760.4063 633.5,759.2031 L633.5,758.1094 Q633.5,756.8594 634.0938,755.7656 Q634.7031,754.6719 635.75,754.0938 Q636.8125,753.5 638,753.5 Q638.7188,753.5 639.3438,753.75 Q639.9688,754 640.5,754.5 Z " fill="#000000"/><text fill="#000000" font-family="sans-serif" font-size="14" lengthAdjust="spacing" textLength="136" x="652.5" y="763.7285">ShareBoardRepsitory</text><line style="stroke:#181818;stroke-width:0.5;" x1="624.5" x2="790.5" y1="774" y2="774"/><line style="stroke:#181818;stroke-width:0.5;" x1="624.5" x2="790.5" y1="782" y2="782"/></g><!--MD5=[f231bdc2037d7e99c0f9f97c75c90b8c]
link SystemUser to EmailAdderss--><g id="link_SystemUser_EmailAdderss"><path codeLine="121" d="M1192.4,995.69 C1217.63,1018.72 1246.98,1045.5 1269.32,1065.89 " fill="none" id="SystemUser-to-EmailAdderss" style="stroke:#181818;stroke-width:1.0;"/><polygon fill="#181818" points="1273.12,1069.36,1269.179,1060.334,1269.4307,1065.9853,1263.7794,1066.2369,1273.12,1069.36" style="stroke:#181818;stroke-width:1.0;"/><text fill="#000000" font-family="sans-serif" font-size="13" lengthAdjust="spacing" textLength="7" x="1258.49" y="1058.6923">1</text></g><!--MD5=[a00b48498abbf4d3aa5edbf04235e8b3]
link SystemUser to Password--><g id="link_SystemUser_Password"><path codeLine="122" d="M1144.54,1000.34 C1146.93,1021.64 1149.61,1045.47 1151.71,1064.26 " fill="none" id="SystemUser-to-Password" style="stroke:#181818;stroke-width:1.0;"/><polygon fill="#181818" points="1152.29,1069.42,1155.2598,1060.0296,1151.7316,1064.4513,1147.3098,1060.9231,1152.29,1069.42" style="stroke:#181818;stroke-width:1.0;"/><text fill="#000000" font-family="sans-serif" font-size="13" lengthAdjust="spacing" textLength="7" x="1143.8222" y="1058.7654">1</text></g><!--MD5=[d3e2c3652565ddd10ca44b31c1cde3f1]
link SystemUser to Role--><g id="link_SystemUser_Role"><path codeLine="123" d="M1094.43,1000.34 C1079.16,1019 1062.3,1039.6 1048.01,1057.05 " fill="none" id="SystemUser-to-Role" style="stroke:#181818;stroke-width:1.0;"/><polygon fill="#181818" points="1044.82,1060.96,1053.6176,1056.5326,1047.9885,1057.0921,1047.429,1051.463,1044.82,1060.96" style="stroke:#181818;stroke-width:1.0;"/><text fill="#000000" font-family="sans-serif" font-size="13" lengthAdjust="spacing" textLength="7" x="1042.5973" y="1050.2577">1</text></g><!--MD5=[707c0fa37bcadaff401ff5c196aecfd2]
link eCourseSystemUser to SystemUser--><g id="link_eCourseSystemUser_SystemUser"><path codeLine="125" d="M1626.96,776.92 C1525.6,791.65 1348.03,824.95 1209.5,891 C1205.11,893.09 1200.73,895.48 1196.41,898.06 " fill="none" id="eCourseSystemUser-to-SystemUser" style="stroke:#181818;stroke-width:1.0;"/><polygon fill="#181818" points="1192.13,900.7,1201.8925,899.3989,1196.3907,898.0835,1197.7061,892.5817,1192.13,900.7" style="stroke:#181818;stroke-width:1.0;"/><text fill="#000000" font-family="sans-serif" font-size="13" lengthAdjust="spacing" textLength="7" x="1200.1639" y="890.7937">1</text></g><!--MD5=[928caa8145e9fdbdf7ce8b7a9388c5cf]
link eCourseSystemUser to Role--><g id="link_eCourseSystemUser_Role"><path codeLine="126" d="M1626.91,771.82 C1473.14,782.7 1146.17,814.43 1067.5,891 C1023.13,934.19 1014.09,1009.06 1013.17,1055.94 " fill="none" id="eCourseSystemUser-to-Role" style="stroke:#181818;stroke-width:1.0;"/><polygon fill="#181818" points="1013.1,1060.95,1017.2282,1052.0081,1013.1714,1055.9505,1009.229,1051.8938,1013.1,1060.95" style="stroke:#181818;stroke-width:1.0;"/><text fill="#000000" font-family="sans-serif" font-size="13" lengthAdjust="spacing" textLength="7" x="1005.2272" y="1050.2459">1</text></g><!--MD5=[226ee7e7935b9c6b2225cd96a015d9fc]
link eCourseSystemUser to UserStatus--><g id="link_eCourseSystemUser_UserStatus"><path codeLine="127" d="M1626.98,786.21 C1551.41,806.14 1436.68,841.39 1345.5,891 C1341.15,893.37 1336.78,896.02 1332.49,898.83 " fill="none" id="eCourseSystemUser-to-UserStatus" style="stroke:#181818;stroke-width:1.0;"/><polygon fill="#181818" points="1328.22,901.7,1337.9206,899.9974,1332.3692,898.91,1333.4566,893.3587,1328.22,901.7" style="stroke:#181818;stroke-width:1.0;"/><text fill="#000000" font-family="sans-serif" font-size="13" lengthAdjust="spacing" textLength="7" x="1335.8447" y="891.941">1</text></g><!--MD5=[7fc0a473de4ea777906984eac7152d38]
link eCourseSystemUser to Acronym--><g id="link_eCourseSystemUser_Acronym"><path codeLine="128" d="M1638.96,803.19 C1595.37,826.88 1538.18,859.24 1489.5,891 C1479.23,897.7 1468.46,905.34 1458.48,912.71 " fill="none" id="eCourseSystemUser-to-Acronym" style="stroke:#181818;stroke-width:1.0;"/><polygon fill="#181818" points="1454.25,915.85,1463.8637,913.7105,1458.2688,912.8752,1459.104,907.2804,1454.25,915.85" style="stroke:#181818;stroke-width:1.0;"/><text fill="#000000" font-family="sans-serif" font-size="13" lengthAdjust="spacing" textLength="7" x="1454.5234" y="905.1801">1</text></g><!--MD5=[410c4ff2c6c57b4ea47f0914b8fd4a56]
link eCourseSystemUser to NIF--><g id="link_eCourseSystemUser_NIF"><path codeLine="129" d="M1677.6,803.35 C1651.41,835.19 1613.7,881.04 1588.43,911.76 " fill="none" id="eCourseSystemUser-to-NIF" style="stroke:#181818;stroke-width:1.0;"/><polygon fill="#181818" points="1585.1,915.8,1593.9057,911.3886,1588.2755,911.9379,1587.7262,906.3077,1585.1,915.8" style="stroke:#181818;stroke-width:1.0;"/><text fill="#000000" font-family="sans-serif" font-size="13" lengthAdjust="spacing" textLength="7" x="1582.4969" y="905.1192">1</text></g><!--MD5=[4acda15f84181a880db022c57ecbea25]
link eCourseSystemUser to BirthDate--><g id="link_eCourseSystemUser_BirthDate"><path codeLine="130" d="M1707.09,803.35 C1706.74,834.8 1706.23,879.92 1705.88,910.62 " fill="none" id="eCourseSystemUser-to-BirthDate" style="stroke:#181818;stroke-width:1.0;"/><polygon fill="#181818" points="1705.82,915.8,1709.9226,906.8463,1705.8771,910.8003,1701.9231,906.7549,1705.82,915.8" style="stroke:#181818;stroke-width:1.0;"/><text fill="#000000" font-family="sans-serif" font-size="13" lengthAdjust="spacing" textLength="7" x="1698.1244" y="905.1192">1</text></g><!--MD5=[66f04da9ec02c7096c76345605e618df]
link eCourseSystemUser to MechanographicNumber--><g id="link_eCourseSystemUser_MechanographicNumber"><path codeLine="131" d="M1718.37,803.41 C1725.32,822.18 1735.82,844.52 1750.5,861 C1766.15,878.57 1786.4,893.6 1806.53,905.86 " fill="none" id="eCourseSystemUser-to-MechanographicNumber" style="stroke:#181818;stroke-width:1.0;"/><polygon fill="#181818" points="1810.83,908.44,1805.1705,900.3796,1806.5425,905.8675,1801.0546,907.2395,1810.83,908.44" style="stroke:#181818;stroke-width:1.0;"/><text fill="#000000" font-family="sans-serif" font-size="13" lengthAdjust="spacing" textLength="7" x="1788.8643" y="897.6783">1</text></g><!--MD5=[659d153684b242d47cde3f84b74271f5]
link eCourseSystemUser to Grade--><g id="link_eCourseSystemUser_Grade"><path codeLine="132" d="M1727.35,803.14 C1740.52,823.55 1759.75,847.58 1783.5,861 C1867.88,908.69 1909.8,854.28 1999.5,891 C2012.46,896.31 2025.21,904.49 2036.28,912.87 " fill="none" id="eCourseSystemUser-to-Grade" style="stroke:#181818;stroke-width:1.0;"/><polygon fill="#181818" points="2040.29,915.96,2035.6133,907.2923,2036.3333,912.9032,2030.7224,913.6231,2040.29,915.96" style="stroke:#181818;stroke-width:1.0;"/><polygon fill="#000000" points="1793.2116,853.8493,1785.6719,848.0524,1783.7045,853.5913,1793.2116,853.8493" style="stroke:#000000;stroke-width:1.0;"/><text fill="#000000" font-family="sans-serif" font-size="13" lengthAdjust="spacing" textLength="79" x="1797.5" y="857.4951">student has a</text><text fill="#000000" font-family="sans-serif" font-size="13" lengthAdjust="spacing" textLength="7" x="2025.6972" y="905.3142">1</text></g><!--MD5=[3a52c12a79cc1f77a57a4b34d5446b6f]
link eCourseSystemUser to SharedBoard--><g id="link_eCourseSystemUser_SharedBoard"><path codeLine="133" d="M1626.73,769.39 C1433.02,775.86 954.04,796.42 899.5,843 C878.67,860.79 873.35,892.78 872.5,916.1 " fill="none" id="eCourseSystemUser-to-SharedBoard" style="stroke:#181818;stroke-width:1.0;"/><polygon fill="#181818" points="872.38,921.24,876.5846,912.3338,872.4943,916.2413,868.5867,912.1509,872.38,921.24" style="stroke:#181818;stroke-width:1.0;"/><polygon fill="#000000" points="899.592,853.1305,909.0318,854.2883,907.9095,848.5186,899.592,853.1305" style="stroke:#000000;stroke-width:1.0;"/><text fill="#000000" font-family="sans-serif" font-size="13" lengthAdjust="spacing" textLength="30" x="913.5" y="857.4951">owns</text><text fill="#000000" font-family="sans-serif" font-size="13" lengthAdjust="spacing" textLength="5" x="866.4524" y="910.5135">*</text></g><!--MD5=[3a52c12a79cc1f77a57a4b34d5446b6f]
link eCourseSystemUser to SharedBoard--><g id="link_eCourseSystemUser_SharedBoard"><path codeLine="134" d="M1626.81,769.16 C1463.04,774.57 1097.59,792.13 984.5,843 C947.58,859.61 914.67,893.32 894.45,917.34 " fill="none" id="eCourseSystemUser-to-SharedBoard-1" style="stroke:#181818;stroke-width:1.0;"/><polygon fill="#181818" points="891.07,921.4,899.903,917.0435,894.2695,917.5577,893.7553,911.9243,891.07,921.4" style="stroke:#181818;stroke-width:1.0;"/><polygon fill="#000000" points="994.4007,851.1842,984.9524,850.0974,986.1181,855.8585,994.4007,851.1842" style="stroke:#000000;stroke-width:1.0;"/><text fill="#000000" font-family="sans-serif" font-size="13" lengthAdjust="spacing" textLength="54" x="998.5" y="857.4951">shared to</text><text fill="#000000" font-family="sans-serif" font-size="13" lengthAdjust="spacing" textLength="5" x="889.9317" y="910.7145">*</text></g><!--MD5=[11e0908c4520905629a7e288b8750e79]
link eCourseSystemUser to PostIt--><g id="link_eCourseSystemUser_PostIt"><path codeLine="135" d="M1658.08,728.86 C1639.28,710.8 1625.76,689.02 1641.5,671 C1706.71,596.34 1777.65,692.25 1862.5,641 C1867.19,638.16 1871.61,634.78 1875.74,631.03 " fill="none" id="eCourseSystemUser-to-PostIt" style="stroke:#181818;stroke-width:1.0;"/><polygon fill="#181818" points="1879.45,627.48,1870.1745,630.7913,1875.8297,630.9286,1875.6923,636.5838,1879.45,627.48" style="stroke:#181818;stroke-width:1.0;"/><polygon fill="#000000" points="1651.0605,678.126,1641.6056,679.1535,1644.0153,684.5147,1651.0605,678.126" style="stroke:#000000;stroke-width:1.0;"/><text fill="#000000" font-family="sans-serif" font-size="13" lengthAdjust="spacing" textLength="54" x="1655.5" y="685.4951">creates a</text><text fill="#000000" font-family="sans-serif" font-size="13" lengthAdjust="spacing" textLength="5" x="1866.6048" y="654.9386">*</text></g><!--MD5=[11e0908c4520905629a7e288b8750e79]
link eCourseSystemUser to PostIt--><g id="link_eCourseSystemUser_PostIt"><path codeLine="136" d="M1715.99,728.66 C1722.38,708.96 1733.09,685.71 1750.5,671 C1789.86,637.73 1820.16,670.38 1862.5,641 C1867.11,637.8 1871.48,634.1 1875.59,630.08 " fill="none" id="eCourseSystemUser-to-PostIt-1" style="stroke:#181818;stroke-width:1.0;"/><polygon fill="#181818" points="1879.3,626.3,1870.1365,629.9098,1875.7932,629.864,1875.839,635.5207,1879.3,626.3" style="stroke:#181818;stroke-width:1.0;"/><polygon fill="#000000" points="1759.7539,677.5482,1750.5141,679.8011,1753.6029,684.8019,1759.7539,677.5482" style="stroke:#000000;stroke-width:1.0;"/><text fill="#000000" font-family="sans-serif" font-size="13" lengthAdjust="spacing" textLength="57" x="1764.5" y="685.4951">updates a</text><text fill="#000000" font-family="sans-serif" font-size="13" lengthAdjust="spacing" textLength="5" x="1866.4272" y="634.591">*</text></g><!--MD5=[11e0908c4520905629a7e288b8750e79]
link eCourseSystemUser to PostIt--><g id="link_eCourseSystemUser_PostIt"><path codeLine="137" d="M1773.24,728.92 C1791.46,717.39 1810.59,703.75 1826.5,689 C1846.05,670.87 1846.76,662.53 1862.5,641 C1866.92,634.96 1871.49,628.64 1876.04,622.31 " fill="none" id="eCourseSystemUser-to-PostIt-2" style="stroke:#181818;stroke-width:1.0;"/><polygon fill="#181818" points="1879.19,617.94,1870.6907,622.9161,1876.273,622.0009,1877.1881,627.5833,1879.19,617.94" style="stroke:#181818;stroke-width:1.0;"/><polygon fill="#000000" points="1849.9706,676.5765,1841.5766,681.0477,1845.8078,685.1276,1849.9706,676.5765" style="stroke:#000000;stroke-width:1.0;"/><text fill="#000000" font-family="sans-serif" font-size="13" lengthAdjust="spacing" textLength="53" x="1855.5" y="685.4951">deletes a</text><text fill="#000000" font-family="sans-serif" font-size="13" lengthAdjust="spacing" textLength="5" x="1866.5645" y="624.3759">*</text></g><!--MD5=[e85121feb5d35d913643cda2015ac961]
link PostIt to eCourseSystemUser--><g id="link_PostIt_eCourseSystemUser"><path codeLine="150" d="M1932.49,641.13 C1931.52,658.16 1927.37,675.16 1917.5,689 C1888.12,730.19 1834.12,749.14 1788.24,757.81 " fill="none" id="PostIt-eCourseSystemUser" style="stroke:#181818;stroke-width:1.0;"/><polygon fill="#000000" points="1934.3875,677.0313,1925.5067,680.4347,1929.2032,685.0047,1934.3875,677.0313" style="stroke:#000000;stroke-width:1.0;"/><text fill="#000000" font-family="sans-serif" font-size="13" lengthAdjust="spacing" textLength="30" x="1939.5" y="685.4951">owns</text><text fill="#000000" font-family="sans-serif" font-size="13" lengthAdjust="spacing" textLength="5" x="1928.3915" y="662.3065">*</text><text fill="#000000" font-family="sans-serif" font-size="13" lengthAdjust="spacing" textLength="5" x="1795.9137" y="753.8382">*</text></g><!--MD5=[f86810595fa6c0f2eb1947b8b0d7e595]
link eCourseSystemUser to Content--><g id="link_eCourseSystemUser_Content"><path codeLine="138" d="M1788.17,784.2 C1845.31,797.47 1923.27,817.81 1989.5,843 C2006.22,849.36 2008.73,854.76 2025.5,861 C2076.21,879.88 2094.63,867.76 2143.5,891 C2151.45,894.78 2159.4,899.5 2166.96,904.56 " fill="none" id="eCourseSystemUser-to-Content" style="stroke:#181818;stroke-width:1.0;"/><polygon fill="#181818" points="2171.12,907.4,2165.9364,899.0256,2166.9886,904.5838,2161.4304,905.6359,2171.12,907.4" style="stroke:#181818;stroke-width:1.0;"/><polygon fill="#000000" points="2035.2652,853.6899,2027.5348,848.1499,2025.7549,853.7517,2035.2652,853.6899" style="stroke:#000000;stroke-width:1.0;"/><text fill="#000000" font-family="sans-serif" font-size="13" lengthAdjust="spacing" textLength="54" x="2039.5" y="857.4951">creates a</text><text fill="#000000" font-family="sans-serif" font-size="13" lengthAdjust="spacing" textLength="5" x="2157.7695" y="896.687">*</text></g><!--MD5=[f86810595fa6c0f2eb1947b8b0d7e595]
link eCourseSystemUser to Content--><g id="link_eCourseSystemUser_Content"><path codeLine="139" d="M1788.1,770.52 C1869.96,776.81 1998.56,794.32 2098.5,843 C2128.67,857.69 2157.22,882.18 2178.57,903.42 " fill="none" id="eCourseSystemUser-to-Content-1" style="stroke:#181818;stroke-width:1.0;"/><polygon fill="#181818" points="2182.2,907.07,2178.683,897.8705,2178.6716,903.5273,2173.0148,903.5159,2182.2,907.07" style="stroke:#181818;stroke-width:1.0;"/><polygon fill="#000000" points="2136.2333,853.7868,2128.6176,848.0902,2126.7237,853.6546,2136.2333,853.7868" style="stroke:#000000;stroke-width:1.0;"/><text fill="#000000" font-family="sans-serif" font-size="13" lengthAdjust="spacing" textLength="57" x="2140.5" y="857.4951">updates a</text><text fill="#000000" font-family="sans-serif" font-size="13" lengthAdjust="spacing" textLength="5" x="2171.0469" y="896.5883">*</text></g><!--MD5=[f86810595fa6c0f2eb1947b8b0d7e595]
link eCourseSystemUser to Content--><g id="link_eCourseSystemUser_Content"><path codeLine="140" d="M1788.41,800.33 C1818,813.05 1851.55,828.08 1881.5,843 C1896.11,850.27 1898.02,855.85 1913.5,861 C2011.32,893.53 2047.93,852.34 2143.5,891 C2152.03,894.45 2160.45,899.15 2168.37,904.35 " fill="none" id="eCourseSystemUser-to-Content-2" style="stroke:#181818;stroke-width:1.0;"/><polygon fill="#181818" points="2172.71,907.29,2167.4932,898.9363,2168.5674,904.4902,2163.0135,905.5644,2172.71,907.29" style="stroke:#181818;stroke-width:1.0;"/><polygon fill="#000000" points="1923.3225,853.496,1915.3745,848.2731,1913.8225,853.9423,1923.3225,853.496" style="stroke:#000000;stroke-width:1.0;"/><text fill="#000000" font-family="sans-serif" font-size="13" lengthAdjust="spacing" textLength="53" x="1927.5" y="857.4951">deletes a</text><text fill="#000000" font-family="sans-serif" font-size="13" lengthAdjust="spacing" textLength="5" x="2165.5333" y="896.5574">*</text></g><!--MD5=[da2a5290a63a8534baa32152db2d811b]
link Board to RowCell--><g id="link_Board_RowCell"><path codeLine="142" d="M2324.11,401.2 C2320.2,434.29 2315.64,473.03 2312,503.85 " fill="none" id="Board-RowCell" style="stroke:#181818;stroke-width:1.0;"/><polygon fill="#000000" points="2323.9142,445.1413,2327.8926,436.5029,2322.0552,435.8142,2323.9142,445.1413" style="stroke:#000000;stroke-width:1.0;"/><text fill="#000000" font-family="sans-serif" font-size="13" lengthAdjust="spacing" textLength="21" x="2333.5" y="445.4951">has</text><text fill="#000000" font-family="sans-serif" font-size="13" lengthAdjust="spacing" textLength="7" x="2315.8838" y="422.9718">1</text><text fill="#000000" font-family="sans-serif" font-size="13" lengthAdjust="spacing" textLength="29" x="2281.975" y="493.1784">1..20</text></g><!--MD5=[72390aabb3503012b907a4d55bfc109a]
link Board to ColumnCell--><g id="link_Board_ColumnCell"><path codeLine="143" d="M2364.21,401.2 C2378.95,434.29 2396.21,473.03 2409.93,503.85 " fill="none" id="Board-ColumnCell" style="stroke:#181818;stroke-width:1.0;"/><polygon fill="#000000" points="2390.5343,444.7432,2389.5389,435.2849,2384.1695,437.6764,2390.5343,444.7432" style="stroke:#000000;stroke-width:1.0;"/><text fill="#000000" font-family="sans-serif" font-size="13" lengthAdjust="spacing" textLength="21" x="2397.5" y="445.4951">has</text><text fill="#000000" font-family="sans-serif" font-size="13" lengthAdjust="spacing" textLength="7" x="2360.1192" y="422.9718">1</text><text fill="#000000" font-family="sans-serif" font-size="13" lengthAdjust="spacing" textLength="29" x="2375.9242" y="493.1784">1..10</text></g><!--MD5=[d3e547b2047a8ecb980554efc6f941ec]
link Board to PostIt--><g id="link_Board_PostIt"><path codeLine="144" d="M2204.37,401.05 C2120.29,447.67 2015.85,505.57 1959.71,536.7 " fill="none" id="Board-PostIt" style="stroke:#181818;stroke-width:1.0;"/><polygon fill="#000000" points="2138.1271,442.6003,2147.4628,440.7846,2144.6126,435.644,2138.1271,442.6003" style="stroke:#000000;stroke-width:1.0;"/><text fill="#000000" font-family="sans-serif" font-size="13" lengthAdjust="spacing" textLength="21" x="2151.5" y="445.4951">has</text><text fill="#000000" font-family="sans-serif" font-size="13" lengthAdjust="spacing" textLength="7" x="2183.7957" y="422.8063">1</text><text fill="#000000" font-family="sans-serif" font-size="13" lengthAdjust="spacing" textLength="5" x="1967.5847" y="528.471">*</text></g><!--MD5=[f008db0b635f5ada50fc34ba33a040fd]
link ColumnCell to Cell--><g id="link_ColumnCell_Cell"><path codeLine="146" d="M2417.45,616.21 C2409.51,641.91 2400.01,672.67 2391.72,699.54 " fill="none" id="ColumnCell-to-Cell" style="stroke:#181818;stroke-width:1.0;"/><polygon fill="none" points="2398.38,701.68,2385.79,718.73,2385,697.55,2398.38,701.68" style="stroke:#181818;stroke-width:1.0;"/></g><!--MD5=[8d830f574c373a6c836572ba76b0fa08]
link RowCell to Cell--><g id="link_RowCell_Cell"><path codeLine="147" d="M2323.36,616.21 C2331.68,641.91 2341.63,672.67 2350.32,699.54 " fill="none" id="RowCell-to-Cell" style="stroke:#181818;stroke-width:1.0;"/><polygon fill="none" points="2357.03,697.54,2356.53,718.73,2343.71,701.85,2357.03,697.54" style="stroke:#181818;stroke-width:1.0;"/></g><!--MD5=[d169426e0fc7faeee53011ef1e88d799]
link PostIt to Content--><g id="link_PostIt_Content"><path codeLine="149" d="M1959.69,586.37 C2024.65,629.89 2151,725.52 2206.5,843 C2215.87,862.83 2218.27,887.27 2218.26,907.19 " fill="none" id="PostIt-Content" style="stroke:#181818;stroke-width:1.0;"/><polygon fill="#000000" points="2197.6376,770.0688,2194.2499,761.182,2189.6734,764.8705,2197.6376,770.0688" style="stroke:#000000;stroke-width:1.0;"/><text fill="#000000" font-family="sans-serif" font-size="13" lengthAdjust="spacing" textLength="49" x="2203.5" y="771.4951">contains</text><text fill="#000000" font-family="sans-serif" font-size="13" lengthAdjust="spacing" textLength="5" x="1967.561" y="587.2989">*</text><text fill="#000000" font-family="sans-serif" font-size="13" lengthAdjust="spacing" textLength="5" x="2213.3047" y="896.7289">*</text></g><!--MD5=[66385a1d9b223a7ef8da887b7e08f217]
link eCourseSystemUser to ChangePostItUI--><g id="link_eCourseSystemUser_ChangePostItUI"><path codeLine="153" d="M1788.02,753.29 C1859.26,741.09 1955.4,719.47 1978.5,689 C2034.89,614.62 2010.66,566.25 1977.5,479 C1975.4,473.48 1739.03,206.8 1667.06,125.67 " fill="none" id="eCourseSystemUser-ChangePostItUI" style="stroke:#181818;stroke-width:1.0;stroke-dasharray:7.0,7.0;"/></g><!--MD5=[b1b14f4f3dc2c6f67ae8946e66a6d25b]
link ChangePostItUI to ChangePostItController--><g id="link_ChangePostItUI_ChangePostItController"><path codeLine="154" d="M1581.71,118.63 C1422.64,158.22 1012.62,260.27 830.26,305.66 " fill="none" id="ChangePostItUI-ChangePostItController" style="stroke:#181818;stroke-width:1.0;stroke-dasharray:7.0,7.0;"/></g><!--MD5=[03c422fb9450a4501e55d48a450cff2e]
link ChangePostItController to ChangePostItService--><g id="link_ChangePostItController_ChangePostItService"><path codeLine="155" d="M720.43,370.68 C699.88,412.32 668.12,476.67 647.57,518.32 " fill="none" id="ChangePostItController-ChangePostItService" style="stroke:#181818;stroke-width:1.0;stroke-dasharray:7.0,7.0;"/></g><!--MD5=[dc1c030c530963940dd558db78952b79]
link ChangePostItController to RepositoryFactory--><g id="link_ChangePostItController_RepositoryFactory"><path codeLine="157" d="M830.23,338.84 C952.27,353.74 1174.71,391.34 1343.5,479 C1371.11,493.34 1397.35,517.59 1414.68,535.64 " fill="none" id="ChangePostItController-RepositoryFactory" style="stroke:#181818;stroke-width:1.0;stroke-dasharray:7.0,7.0;"/></g><!--MD5=[a10032f54d181ecbef25a626ecebe2a6]
link ChangePostItController to BoardRepsitory--><g id="link_ChangePostItController_BoardRepsitory"><path codeLine="158" d="M830.04,339.23 C978.09,356.19 1281.97,398.22 1527.5,479 C1552.24,487.14 1578.04,498.14 1601.75,509.37 " fill="none" id="ChangePostItController-BoardRepsitory" style="stroke:#181818;stroke-width:1.0;stroke-dasharray:7.0,7.0;"/></g><!--MD5=[fef413484de0ed2c0df6a7ffbec368e6]
link ChangePostItController to PostItRepository--><g id="link_ChangePostItController_PostItRepository"><path codeLine="159" d="M650.92,335.96 C530.72,347.56 314.45,381.37 159.5,479 C138.75,492.07 118.63,510.66 103.17,526.63 " fill="none" id="ChangePostItController-PostItRepository" style="stroke:#181818;stroke-width:1.0;stroke-dasharray:7.0,7.0;"/></g><!--MD5=[bbd42ae398e512ef288e136ab568d7e8]
link ChangePostItController to UserRepsitory--><g id="link_ChangePostItController_UserRepsitory"><path codeLine="160" d="M676.64,370.54 C633.38,399.03 575.72,439.05 528.5,479 C507.49,496.78 485.66,519.24 470.28,535.83 " fill="none" id="ChangePostItController-UserRepsitory" style="stroke:#181818;stroke-width:1.0;stroke-dasharray:7.0,7.0;"/></g><!--MD5=[8de7640f4e564098152f4f6e17c46b07]
link ChangePostItController to UserAccessBoardsService--><g id="link_ChangePostItController_UserAccessBoardsService"><path codeLine="161" d="M792.9,370.68 C850.35,415.28 941.36,485.92 994.05,526.83 " fill="none" id="ChangePostItController-UserAccessBoardsService" style="stroke:#181818;stroke-width:1.0;stroke-dasharray:7.0,7.0;"/></g><!--MD5=[4713d17528f39b804228e3e87b825dde]
link ChangePostItController to BoardPostIt--><g id="link_ChangePostItController_BoardPostIt"><path codeLine="162" d="M650.66,331.49 C557.35,337.21 411.06,358.32 309.5,431 C276.15,454.87 253.68,497.39 241.25,526.84 " fill="none" id="ChangePostItController-BoardPostIt" style="stroke:#181818;stroke-width:1.0;stroke-dasharray:7.0,7.0;"/></g><!--MD5=[1af8889cd02099a01fc2db8db87cc599]
link ChangePostItController to SharedBoard--><g id="link_ChangePostItController_SharedBoard"><path codeLine="163" d="M650.65,338.36 C562.81,351.85 433.52,387.08 371.5,479 C331.23,538.69 338.93,576.79 371.5,641 C460.89,817.2 703.09,900.64 815.16,930.72 " fill="none" id="ChangePostItController-SharedBoard" style="stroke:#181818;stroke-width:1.0;stroke-dasharray:7.0,7.0;"/></g><!--MD5=[4bca8770b1b7f409f2b761d947e4abfe]
link ChangePostItController to PostIt--><g id="link_ChangePostItController_PostIt"><path codeLine="164" d="M830.2,332.81 C1064.47,341.54 1688.57,374.3 1862.5,479 C1868.64,482.69 1874.29,487.33 1879.46,492.5 " fill="none" id="ChangePostItController-PostIt" style="stroke:#181818;stroke-width:1.0;stroke-dasharray:7.0,7.0;"/></g><!--MD5=[73a93778ec3a2a29bc1a37d5be1910b3]
link UserAccessBoardsService to ShareBoardRepsitory--><g id="link_UserAccessBoardsService_ShareBoardRepsitory"><path codeLine="166" d="M961.79,593.11 C918.64,613.18 863.9,640.87 818.5,671 C786.31,692.36 752.95,721.77 731.31,741.97 " fill="none" id="UserAccessBoardsService-ShareBoardRepsitory" style="stroke:#181818;stroke-width:1.0;stroke-dasharray:7.0,7.0;"/></g><!--MD5=[b7c5baf0e2a8fedf1c1654593d6f3a4a]
link UserAccessBoardsService to SharedBoard--><g id="link_UserAccessBoardsService_SharedBoard"><path codeLine="167" d="M1010.78,593.01 C973.77,643.08 905.32,744.43 877.5,843 C870.12,869.14 870.17,900.56 871.39,921.45 " fill="none" id="UserAccessBoardsService-SharedBoard" style="stroke:#181818;stroke-width:1.0;stroke-dasharray:7.0,7.0;"/></g><!--MD5=[0fea02208c09e70534fa1f04198b21dd]
@startuml

top to bottom direction

class ChangePostItUI {
}

class ChangePostItController {
    + getUserBoards()
    + changePostIt()
}

class ChangePostItService{
    + changePostIt()
    + changePostItSync()
}

class UserAccessBoardsService {
    + findBoardsOfUser(sessionEmail, theRepository, theUserRepository): List<SharedBoard>
}

class RepositoryFactory {

}

class BoardRepsitory {
    + findBoeardsHiOwn(): List<SharedBoard>
    + findBoeardsHiShared(): List<SharedBoard>
    + save(boardId)
}

class PostItRepository {
    + save(postIt)
}


class Board <<root>> <<entity>> {
    * id <<unique>> <<automatically generated>>
    * boradName
    * maxRows
    * maxColumns
}

class Cell <<entity>> {
    * id
    * content
}

class ColumnCell <<entity>> {
    * id
    * columnTittle
    * column
}

class RowCell <<entity>> {
    * id
    * rowTittle
    * row
}

class PostIt <<root>> <<entity>> {
    * id
    * row
    * column
    * content
    * ownUser
}

class Content <<value object>> {
    * content
}

class BoardPostIt {
    + run()
}



class SystemUser <<root>> <<Entity>> {
    * Name
    * Username
}

class eCourseSystemUser <<root>> <<Entity>> {

}

class EmailAdderss <<Value object>>

class Role <<Entity>> {
    * String name
}

class UserStatus <<enum>> {
    + ENABLE
    + DISABLE
}

class Password <<value object>>

class Acronym <<value object>>

class NIF <<value object>>

class BirthDate <<value object>>

class MechanographicNumber <<value object>> <<automatically generated>>

class Grade <<value object>>

class UserRepository {
    + addUser(user: user)
    + removeUser(user: user)
    + CreateUser(String: fullName, String: fhortName, \n  Role: role, Email: email, Password, password)
    + searchUser(user: user): User
    + alterUserStatus(User: user)
    + totalNumberOfUsers(): int
    + listSystemUsers(): List<User>
}


SystemUser - -> "1" EmailAdderss
SystemUser - -> "1" Password
SystemUser - -> "1" Role

eCourseSystemUser - -> "1" SystemUser
eCourseSystemUser - -> "1" Role
eCourseSystemUser - -> "1" UserStatus
eCourseSystemUser - -> "1" Acronym
eCourseSystemUser - -> "1" NIF
eCourseSystemUser - -> "1" BirthDate
eCourseSystemUser - -> "1" MechanographicNumber
eCourseSystemUser - -> "1" Grade : student has a >
eCourseSystemUser - -> "*" SharedBoard : owns >
eCourseSystemUser - -> "*" SharedBoard : shared to <
eCourseSystemUser - -> "*" PostIt : creates a >
eCourseSystemUser - -> "*" PostIt : updates a >
eCourseSystemUser - -> "*" PostIt : deletes a >
eCourseSystemUser - -> "*" Content : creates a >
eCourseSystemUser - -> "*" Content : updates a >
eCourseSystemUser - -> "*" Content : deletes a >

Board "1" - - "1..20" RowCell : has >
Board "1" - - "1..10" ColumnCell : has >
Board "1" - - "*" PostIt : has >

ColumnCell - -|> Cell
RowCell - -|> Cell

PostIt "*" - - "*" Content : contains >
PostIt "*" - - "*" eCourseSystemUser : owns <


eCourseSystemUser .. ChangePostItUI
ChangePostItUI .. ChangePostItController
ChangePostItController .. ChangePostItService

ChangePostItController .. RepositoryFactory
ChangePostItController .. BoardRepsitory
ChangePostItController .. PostItRepository
ChangePostItController .. UserRepsitory
ChangePostItController .. UserAccessBoardsService
ChangePostItController .. BoardPostIt
ChangePostItController .. SharedBoard
ChangePostItController .. PostIt

UserAccessBoardsService .. ShareBoardRepsitory
UserAccessBoardsService .. SharedBoard



@enduml

PlantUML version 1.2022.12(Sun Oct 23 19:12:26 BST 2022)
(GPL source distribution)
Java Runtime: OpenJDK Runtime Environment
JVM: OpenJDK 64-Bit Server VM
Default Encoding: Cp1252
Language: pt
Country: PT
--></g></svg>