<?xml version="1.0" encoding="UTF-8" standalone="no"?><svg xmlns="http://www.w3.org/2000/svg" xmlns:xlink="http://www.w3.org/1999/xlink" contentStyleType="text/css" height="953.1px" preserveAspectRatio="none" style="width:1919px;height:953px;background:#FFFFFF;" version="1.1" viewBox="0 0 1919 953" width="1919.7px" zoomAndPan="magnify"><defs/><g><!--MD5=[a24c54bdd3aee88d5f4bc9207185f02e]
cluster ECOURSESYSTEMUSER--><g id="cluster_ECOURSESYSTEMUSER"><path d="M7.65,5.4 L156.15,5.4 A3.375,3.375 0 0 1 158.4,7.65 L164.7,26.6484 L1003.95,26.6484 A2.25,2.25 0 0 1 1006.2,28.8984 L1006.2,526.05 A2.25,2.25 0 0 1 1003.95,528.3 L7.65,528.3 A2.25,2.25 0 0 1 5.4,526.05 L5.4,7.65 A2.25,2.25 0 0 1 7.65,5.4 " fill="none" style="stroke:#000000;stroke-width:1.35;"/><line style="stroke:#000000;stroke-width:1.35;" x1="5.4" x2="164.7" y1="26.6484" y2="26.6484"/><text fill="#000000" font-family="sans-serif" font-size="12.6" font-weight="bold" lengthAdjust="spacing" textLength="147.6" x="9" y="20.2799">ECOURSESYSTEMUSER</text><text fill="#000000" font-family="sans-serif" font-size="12.6" font-style="italic" lengthAdjust="spacing" textLength="73.8" x="472.5" y="41.5283">«Aggregate»</text></g><!--MD5=[73ec80eaf46639bfb0ddb69c93278171]
cluster SHAREBOARD--><g id="cluster_SHAREBOARD"><path d="M1030.05,178.2 L1118.25,178.2 A3.375,3.375 0 0 1 1120.5,180.45 L1126.8,199.4484 L1376.55,199.4484 A2.25,2.25 0 0 1 1378.8,201.6984 L1378.8,749.7 A2.25,2.25 0 0 1 1376.55,751.95 L1030.05,751.95 A2.25,2.25 0 0 1 1027.8,749.7 L1027.8,180.45 A2.25,2.25 0 0 1 1030.05,178.2 " fill="none" style="stroke:#000000;stroke-width:1.35;"/><line style="stroke:#000000;stroke-width:1.35;" x1="1027.8" x2="1126.8" y1="199.4484" y2="199.4484"/><text fill="#000000" font-family="sans-serif" font-size="12.6" font-weight="bold" lengthAdjust="spacing" textLength="87.3" x="1031.4" y="193.0799">SHAREBOARD</text><text fill="#000000" font-family="sans-serif" font-size="12.6" font-style="italic" lengthAdjust="spacing" textLength="72.9" x="1170.45" y="214.3283">«aggregate»</text></g><!--MD5=[915d5a0c565b22110fe0ce2397bcfe30]
cluster Post-It--><g id="cluster_Post-It"><path d="M1402.65,590.4 L1444.05,590.4 A3.375,3.375 0 0 1 1446.3,592.65 L1452.6,611.6484 L1852.65,611.6484 A2.25,2.25 0 0 1 1854.9,613.8984 L1854.9,944.55 A2.25,2.25 0 0 1 1852.65,946.8 L1402.65,946.8 A2.25,2.25 0 0 1 1400.4,944.55 L1400.4,592.65 A2.25,2.25 0 0 1 1402.65,590.4 " fill="none" style="stroke:#000000;stroke-width:1.35;"/><line style="stroke:#000000;stroke-width:1.35;" x1="1400.4" x2="1452.6" y1="611.6484" y2="611.6484"/><text fill="#000000" font-family="sans-serif" font-size="12.6" font-weight="bold" lengthAdjust="spacing" textLength="40.5" x="1404" y="605.2799">Post-It</text><text fill="#000000" font-family="sans-serif" font-size="12.6" font-style="italic" lengthAdjust="spacing" textLength="72.9" x="1594.8" y="626.5283">«agreggate»</text></g><!--MD5=[bc064d979c32666ae52f3d7624591b7b]
class SystemUser--><g id="elem_SystemUser"><rect codeLine="6" fill="#F1F1F1" height="98.1141" id="SystemUser" rx="2.25" ry="2.25" style="stroke:#181818;stroke-width:0.45;" width="96.3" x="20.25" y="242.55"/><ellipse cx="33.75" cy="268.5586" fill="#ADD1B2" rx="9.9" ry="9.9" style="stroke:#181818;stroke-width:0.9;"/><path d="M35.55,265.4086 Q35.7328,264.9586 35.9438,264.7336 Q36.1547,264.5086 36.3938,264.5086 Q36.8156,264.5086 37.0828,264.7617 Q37.35,265.0148 37.35,265.6055 L37.35,267.0117 Q37.35,267.6023 37.0969,267.8555 Q36.8438,268.1086 36.45,268.1086 Q36.0984,268.1086 35.8734,267.9539 Q35.6484,267.7992 35.55,267.3914 Q35.5078,267.1102 35.3531,266.9555 Q35.0719,266.6602 34.5656,266.4914 Q34.0594,266.3086 33.5531,266.3086 Q32.9203,266.3086 32.3859,266.5617 Q31.8656,266.8148 31.4578,267.3773 Q31.05,267.9398 31.05,268.7133 L31.05,269.543 Q31.05,270.4711 31.8094,271.0898 Q32.5688,271.7086 33.9188,271.7086 Q34.7203,271.7086 35.2828,271.5258 Q35.6063,271.4273 35.9719,271.1039 Q36.2109,270.9211 36.3375,270.8648 Q36.4641,270.8086 36.6188,270.8086 Q36.9141,270.8086 37.125,271.0477 Q37.35,271.2727 37.35,271.5961 Q37.35,271.9055 37.0406,272.2711 Q36.5906,272.8055 35.8734,273.1008 Q34.9313,273.5086 33.7781,273.5086 Q32.4281,273.5086 31.3453,272.9742 Q30.4734,272.5523 29.8547,271.6383 Q29.25,270.7242 29.25,269.6414 L29.25,268.657 Q29.25,267.532 29.7844,266.5477 Q30.3328,265.5633 31.275,265.043 Q32.2313,264.5086 33.3,264.5086 Q33.9469,264.5086 34.5094,264.7336 Q35.0719,264.9586 35.55,265.4086 Z " fill="#000000"/><text fill="#000000" font-family="sans-serif" font-size="10.8" font-style="italic" lengthAdjust="spacing" textLength="31.5" x="64.35" y="258.2613">«root»</text><text fill="#000000" font-family="sans-serif" font-size="10.8" font-style="italic" lengthAdjust="spacing" textLength="39.6" x="60.3" y="271.8457">«Entity»</text><text fill="#000000" font-family="sans-serif" font-size="12.6" lengthAdjust="spacing" textLength="67.5" x="46.35" y="287.2986">SystemUser</text><line style="stroke:#181818;stroke-width:0.45;" x1="21.15" x2="115.65" y1="294.5672" y2="294.5672"/><ellipse cx="30.15" cy="307.4414" fill="#000000" rx="2.7" ry="2.7" style="stroke:#000000;stroke-width:0.9;"/><text fill="#000000" font-family="sans-serif" font-size="12.6" lengthAdjust="spacing" textLength="32.4" x="38.25" y="311.2471">Name</text><ellipse cx="30.15" cy="323.2898" fill="#000000" rx="2.7" ry="2.7" style="stroke:#000000;stroke-width:0.9;"/><text fill="#000000" font-family="sans-serif" font-size="12.6" lengthAdjust="spacing" textLength="57.6" x="38.25" y="327.0955">Username</text><line style="stroke:#181818;stroke-width:0.45;" x1="21.15" x2="115.65" y1="333.4641" y2="333.4641"/></g><!--MD5=[20e583d4e0df3a755fa236795f6d14ab]
class eCourseSystemUser--><g id="elem_eCourseSystemUser"><rect codeLine="11" fill="#F1F1F1" height="66.4172" id="eCourseSystemUser" rx="2.25" ry="2.25" style="stroke:#181818;stroke-width:0.45;" width="144.9" x="840.15" y="54"/><ellipse cx="853.65" cy="80.0086" fill="#ADD1B2" rx="9.9" ry="9.9" style="stroke:#181818;stroke-width:0.9;"/><path d="M855.45,76.8586 Q855.6328,76.4086 855.8438,76.1836 Q856.0547,75.9586 856.2938,75.9586 Q856.7156,75.9586 856.9828,76.2117 Q857.25,76.4648 857.25,77.0555 L857.25,78.4617 Q857.25,79.0523 856.9969,79.3055 Q856.7438,79.5586 856.35,79.5586 Q855.9984,79.5586 855.7734,79.4039 Q855.5484,79.2492 855.45,78.8414 Q855.4078,78.5602 855.2531,78.4055 Q854.9719,78.1102 854.4656,77.9414 Q853.9594,77.7586 853.4531,77.7586 Q852.8203,77.7586 852.2859,78.0117 Q851.7656,78.2648 851.3578,78.8273 Q850.95,79.3898 850.95,80.1633 L850.95,80.993 Q850.95,81.9211 851.7094,82.5398 Q852.4688,83.1586 853.8188,83.1586 Q854.6203,83.1586 855.1828,82.9758 Q855.5063,82.8773 855.8719,82.5539 Q856.1109,82.3711 856.2375,82.3148 Q856.3641,82.2586 856.5188,82.2586 Q856.8141,82.2586 857.025,82.4977 Q857.25,82.7227 857.25,83.0461 Q857.25,83.3555 856.9406,83.7211 Q856.4906,84.2555 855.7734,84.5508 Q854.8313,84.9586 853.6781,84.9586 Q852.3281,84.9586 851.2453,84.4242 Q850.3734,84.0023 849.7547,83.0883 Q849.15,82.1742 849.15,81.0914 L849.15,80.107 Q849.15,78.982 849.6844,77.9977 Q850.2328,77.0133 851.175,76.493 Q852.1313,75.9586 853.2,75.9586 Q853.8469,75.9586 854.4094,76.1836 Q854.9719,76.4086 855.45,76.8586 Z " fill="#000000"/><text fill="#000000" font-family="sans-serif" font-size="10.8" font-style="italic" lengthAdjust="spacing" textLength="31.5" x="908.55" y="69.7113">«root»</text><text fill="#000000" font-family="sans-serif" font-size="10.8" font-style="italic" lengthAdjust="spacing" textLength="39.6" x="904.5" y="83.2957">«Entity»</text><text fill="#000000" font-family="sans-serif" font-size="12.6" lengthAdjust="spacing" textLength="116.1" x="866.25" y="98.7486">eCourseSystemUser</text><line style="stroke:#181818;stroke-width:0.45;" x1="841.05" x2="984.15" y1="106.0172" y2="106.0172"/><line style="stroke:#181818;stroke-width:0.45;" x1="841.05" x2="984.15" y1="113.2172" y2="113.2172"/></g><!--MD5=[e4d65baa86ae757e763babcb916fe418]
class EmailAdderss--><g id="elem_EmailAdderss"><rect codeLine="15" fill="#F1F1F1" height="52.8328" id="EmailAdderss" rx="2.25" ry="2.25" style="stroke:#181818;stroke-width:0.45;" width="106.2" x="150.3" y="453.15"/><ellipse cx="163.8" cy="472.3664" fill="#ADD1B2" rx="9.9" ry="9.9" style="stroke:#181818;stroke-width:0.9;"/><path d="M165.6,469.2164 Q165.7828,468.7664 165.9938,468.5414 Q166.2047,468.3164 166.4438,468.3164 Q166.8656,468.3164 167.1328,468.5695 Q167.4,468.8227 167.4,469.4133 L167.4,470.8195 Q167.4,471.4102 167.1469,471.6633 Q166.8938,471.9164 166.5,471.9164 Q166.1484,471.9164 165.9234,471.7617 Q165.6984,471.607 165.6,471.1992 Q165.5578,470.918 165.4031,470.7633 Q165.1219,470.468 164.6156,470.2992 Q164.1094,470.1164 163.6031,470.1164 Q162.9703,470.1164 162.4359,470.3695 Q161.9156,470.6227 161.5078,471.1852 Q161.1,471.7477 161.1,472.5211 L161.1,473.3508 Q161.1,474.2789 161.8594,474.8977 Q162.6188,475.5164 163.9688,475.5164 Q164.7703,475.5164 165.3328,475.3336 Q165.6563,475.2352 166.0219,474.9117 Q166.2609,474.7289 166.3875,474.6727 Q166.5141,474.6164 166.6688,474.6164 Q166.9641,474.6164 167.175,474.8555 Q167.4,475.0805 167.4,475.4039 Q167.4,475.7133 167.0906,476.0789 Q166.6406,476.6133 165.9234,476.9086 Q164.9813,477.3164 163.8281,477.3164 Q162.4781,477.3164 161.3953,476.782 Q160.5234,476.3602 159.9047,475.4461 Q159.3,474.532 159.3,473.4492 L159.3,472.4648 Q159.3,471.3398 159.8344,470.3555 Q160.3828,469.3711 161.325,468.8508 Q162.2813,468.3164 163.35,468.3164 Q163.9969,468.3164 164.5594,468.5414 Q165.1219,468.7664 165.6,469.2164 Z " fill="#000000"/><text fill="#000000" font-family="sans-serif" font-size="10.8" font-style="italic" lengthAdjust="spacing" textLength="74.7" x="177.75" y="468.8613">«Value object»</text><text fill="#000000" font-family="sans-serif" font-size="12.6" lengthAdjust="spacing" textLength="77.4" x="176.4" y="484.3143">EmailAdderss</text><line style="stroke:#181818;stroke-width:0.45;" x1="151.2" x2="255.6" y1="491.5828" y2="491.5828"/><line style="stroke:#181818;stroke-width:0.45;" x1="151.2" x2="255.6" y1="498.7828" y2="498.7828"/></g><!--MD5=[a3638c1e5b65d287ecad7f06f5c0f212]
class Role--><g id="elem_Role"><rect codeLine="17" fill="#F1F1F1" height="68.6813" id="Role" rx="2.25" ry="2.25" style="stroke:#181818;stroke-width:0.45;" width="91.8" x="288" y="445.5"/><ellipse cx="313.65" cy="464.7164" fill="#ADD1B2" rx="9.9" ry="9.9" style="stroke:#181818;stroke-width:0.9;"/><path d="M315.45,461.5664 Q315.6328,461.1164 315.8438,460.8914 Q316.0547,460.6664 316.2938,460.6664 Q316.7156,460.6664 316.9828,460.9195 Q317.25,461.1727 317.25,461.7633 L317.25,463.1695 Q317.25,463.7602 316.9969,464.0133 Q316.7438,464.2664 316.35,464.2664 Q315.9984,464.2664 315.7734,464.1117 Q315.5484,463.957 315.45,463.5492 Q315.4078,463.268 315.2531,463.1133 Q314.9719,462.818 314.4656,462.6492 Q313.9594,462.4664 313.4531,462.4664 Q312.8203,462.4664 312.2859,462.7195 Q311.7656,462.9727 311.3578,463.5352 Q310.95,464.0977 310.95,464.8711 L310.95,465.7008 Q310.95,466.6289 311.7094,467.2477 Q312.4688,467.8664 313.8188,467.8664 Q314.6203,467.8664 315.1828,467.6836 Q315.5063,467.5852 315.8719,467.2617 Q316.1109,467.0789 316.2375,467.0227 Q316.3641,466.9664 316.5188,466.9664 Q316.8141,466.9664 317.025,467.2055 Q317.25,467.4305 317.25,467.7539 Q317.25,468.0633 316.9406,468.4289 Q316.4906,468.9633 315.7734,469.2586 Q314.8313,469.6664 313.6781,469.6664 Q312.3281,469.6664 311.2453,469.132 Q310.3734,468.7102 309.7547,467.7961 Q309.15,466.882 309.15,465.7992 L309.15,464.8148 Q309.15,463.6898 309.6844,462.7055 Q310.2328,461.7211 311.175,461.2008 Q312.1313,460.6664 313.2,460.6664 Q313.8469,460.6664 314.4094,460.8914 Q314.9719,461.1164 315.45,461.5664 Z " fill="#000000"/><text fill="#000000" font-family="sans-serif" font-size="10.8" font-style="italic" lengthAdjust="spacing" textLength="39.6" x="327.15" y="461.2113">«Entity»</text><text fill="#000000" font-family="sans-serif" font-size="12.6" lengthAdjust="spacing" textLength="26.1" x="333.9" y="476.6643">Role</text><line style="stroke:#181818;stroke-width:0.45;" x1="288.9" x2="378.9" y1="483.9328" y2="483.9328"/><ellipse cx="297.9" cy="496.807" fill="#000000" rx="2.7" ry="2.7" style="stroke:#000000;stroke-width:0.9;"/><text fill="#000000" font-family="sans-serif" font-size="12.6" lengthAdjust="spacing" textLength="68.4" x="306" y="500.6127">String name</text><line style="stroke:#181818;stroke-width:0.45;" x1="288.9" x2="378.9" y1="506.9813" y2="506.9813"/></g><!--MD5=[51fd3fce36c976f35b405d5800336138]
class UserStatus--><g id="elem_UserStatus"><rect codeLine="21" fill="#F1F1F1" height="84.5297" id="UserStatus" rx="2.25" ry="2.25" style="stroke:#181818;stroke-width:0.45;" width="90.9" x="182.25" y="249.3"/><ellipse cx="195.75" cy="268.5164" fill="#ADD1B2" rx="9.9" ry="9.9" style="stroke:#181818;stroke-width:0.9;"/><path d="M197.55,265.3664 Q197.7328,264.9164 197.9438,264.6914 Q198.1547,264.4664 198.3938,264.4664 Q198.8156,264.4664 199.0828,264.7195 Q199.35,264.9727 199.35,265.5633 L199.35,266.9695 Q199.35,267.5602 199.0969,267.8133 Q198.8438,268.0664 198.45,268.0664 Q198.0984,268.0664 197.8734,267.9117 Q197.6484,267.757 197.55,267.3492 Q197.5078,267.068 197.3531,266.9133 Q197.0719,266.618 196.5656,266.4492 Q196.0594,266.2664 195.5531,266.2664 Q194.9203,266.2664 194.3859,266.5195 Q193.8656,266.7727 193.4578,267.3352 Q193.05,267.8977 193.05,268.6711 L193.05,269.5008 Q193.05,270.4289 193.8094,271.0477 Q194.5688,271.6664 195.9188,271.6664 Q196.7203,271.6664 197.2828,271.4836 Q197.6063,271.3852 197.9719,271.0617 Q198.2109,270.8789 198.3375,270.8227 Q198.4641,270.7664 198.6188,270.7664 Q198.9141,270.7664 199.125,271.0055 Q199.35,271.2305 199.35,271.5539 Q199.35,271.8633 199.0406,272.2289 Q198.5906,272.7633 197.8734,273.0586 Q196.9313,273.4664 195.7781,273.4664 Q194.4281,273.4664 193.3453,272.932 Q192.4734,272.5102 191.8547,271.5961 Q191.25,270.682 191.25,269.5992 L191.25,268.6148 Q191.25,267.4898 191.7844,266.5055 Q192.3328,265.5211 193.275,265.0008 Q194.2313,264.4664 195.3,264.4664 Q195.9469,264.4664 196.5094,264.6914 Q197.0719,264.9164 197.55,265.3664 Z " fill="#000000"/><text fill="#000000" font-family="sans-serif" font-size="10.8" font-style="italic" lengthAdjust="spacing" textLength="41.4" x="218.7" y="265.0113">«enum»</text><text fill="#000000" font-family="sans-serif" font-size="12.6" lengthAdjust="spacing" textLength="62.1" x="208.35" y="280.4643">UserStatus</text><line style="stroke:#181818;stroke-width:0.45;" x1="183.15" x2="272.25" y1="287.7328" y2="287.7328"/><ellipse cx="192.15" cy="300.607" fill="none" rx="2.7" ry="2.7" style="stroke:#038048;stroke-width:0.9;"/><text fill="#000000" font-family="sans-serif" font-size="12.6" lengthAdjust="spacing" textLength="47.7" x="200.25" y="304.4127">ENABLE</text><ellipse cx="192.15" cy="316.4555" fill="none" rx="2.7" ry="2.7" style="stroke:#038048;stroke-width:0.9;"/><text fill="#000000" font-family="sans-serif" font-size="12.6" lengthAdjust="spacing" textLength="51.3" x="200.25" y="320.2611">DISABLE</text><line style="stroke:#181818;stroke-width:0.45;" x1="183.15" x2="272.25" y1="326.6297" y2="326.6297"/></g><!--MD5=[2f01b1126ff33a0669651ec2488a5ef9]
class Password--><g id="elem_Password"><rect codeLine="26" fill="#F1F1F1" height="52.8328" id="Password" rx="2.25" ry="2.25" style="stroke:#181818;stroke-width:0.45;" width="98.1" x="20.25" y="453.15"/><ellipse cx="33.75" cy="472.3664" fill="#ADD1B2" rx="9.9" ry="9.9" style="stroke:#181818;stroke-width:0.9;"/><path d="M35.55,469.2164 Q35.7328,468.7664 35.9438,468.5414 Q36.1547,468.3164 36.3938,468.3164 Q36.8156,468.3164 37.0828,468.5695 Q37.35,468.8227 37.35,469.4133 L37.35,470.8195 Q37.35,471.4102 37.0969,471.6633 Q36.8438,471.9164 36.45,471.9164 Q36.0984,471.9164 35.8734,471.7617 Q35.6484,471.607 35.55,471.1992 Q35.5078,470.918 35.3531,470.7633 Q35.0719,470.468 34.5656,470.2992 Q34.0594,470.1164 33.5531,470.1164 Q32.9203,470.1164 32.3859,470.3695 Q31.8656,470.6227 31.4578,471.1852 Q31.05,471.7477 31.05,472.5211 L31.05,473.3508 Q31.05,474.2789 31.8094,474.8977 Q32.5688,475.5164 33.9188,475.5164 Q34.7203,475.5164 35.2828,475.3336 Q35.6063,475.2352 35.9719,474.9117 Q36.2109,474.7289 36.3375,474.6727 Q36.4641,474.6164 36.6188,474.6164 Q36.9141,474.6164 37.125,474.8555 Q37.35,475.0805 37.35,475.4039 Q37.35,475.7133 37.0406,476.0789 Q36.5906,476.6133 35.8734,476.9086 Q34.9313,477.3164 33.7781,477.3164 Q32.4281,477.3164 31.3453,476.782 Q30.4734,476.3602 29.8547,475.4461 Q29.25,474.532 29.25,473.4492 L29.25,472.4648 Q29.25,471.3398 29.7844,470.3555 Q30.3328,469.3711 31.275,468.8508 Q32.2313,468.3164 33.3,468.3164 Q33.9469,468.3164 34.5094,468.5414 Q35.0719,468.7664 35.55,469.2164 Z " fill="#000000"/><text fill="#000000" font-family="sans-serif" font-size="10.8" font-style="italic" lengthAdjust="spacing" textLength="72.9" x="44.55" y="468.8613">«value object»</text><text fill="#000000" font-family="sans-serif" font-size="12.6" lengthAdjust="spacing" textLength="54.9" x="53.55" y="484.3143">Password</text><line style="stroke:#181818;stroke-width:0.45;" x1="21.15" x2="117.45" y1="491.5828" y2="491.5828"/><line style="stroke:#181818;stroke-width:0.45;" x1="21.15" x2="117.45" y1="498.7828" y2="498.7828"/></g><!--MD5=[739264bb8c13fd453fd6fc4eef2b32cc]
class Acronym--><g id="elem_Acronym"><rect codeLine="28" fill="#F1F1F1" height="52.8328" id="Acronym" rx="2.25" ry="2.25" style="stroke:#181818;stroke-width:0.45;" width="98.1" x="304.65" y="265.05"/><ellipse cx="318.15" cy="284.2664" fill="#ADD1B2" rx="9.9" ry="9.9" style="stroke:#181818;stroke-width:0.9;"/><path d="M319.95,281.1164 Q320.1328,280.6664 320.3438,280.4414 Q320.5547,280.2164 320.7938,280.2164 Q321.2156,280.2164 321.4828,280.4695 Q321.75,280.7227 321.75,281.3133 L321.75,282.7195 Q321.75,283.3102 321.4969,283.5633 Q321.2438,283.8164 320.85,283.8164 Q320.4984,283.8164 320.2734,283.6617 Q320.0484,283.507 319.95,283.0992 Q319.9078,282.818 319.7531,282.6633 Q319.4719,282.368 318.9656,282.1992 Q318.4594,282.0164 317.9531,282.0164 Q317.3203,282.0164 316.7859,282.2695 Q316.2656,282.5227 315.8578,283.0852 Q315.45,283.6477 315.45,284.4211 L315.45,285.2508 Q315.45,286.1789 316.2094,286.7977 Q316.9688,287.4164 318.3188,287.4164 Q319.1203,287.4164 319.6828,287.2336 Q320.0063,287.1352 320.3719,286.8117 Q320.6109,286.6289 320.7375,286.5727 Q320.8641,286.5164 321.0188,286.5164 Q321.3141,286.5164 321.525,286.7555 Q321.75,286.9805 321.75,287.3039 Q321.75,287.6133 321.4406,287.9789 Q320.9906,288.5133 320.2734,288.8086 Q319.3313,289.2164 318.1781,289.2164 Q316.8281,289.2164 315.7453,288.682 Q314.8734,288.2602 314.2547,287.3461 Q313.65,286.432 313.65,285.3492 L313.65,284.3648 Q313.65,283.2398 314.1844,282.2555 Q314.7328,281.2711 315.675,280.7508 Q316.6313,280.2164 317.7,280.2164 Q318.3469,280.2164 318.9094,280.4414 Q319.4719,280.6664 319.95,281.1164 Z " fill="#000000"/><text fill="#000000" font-family="sans-serif" font-size="10.8" font-style="italic" lengthAdjust="spacing" textLength="72.9" x="328.95" y="280.7613">«value object»</text><text fill="#000000" font-family="sans-serif" font-size="12.6" lengthAdjust="spacing" textLength="49.5" x="340.65" y="296.2143">Acronym</text><line style="stroke:#181818;stroke-width:0.45;" x1="305.55" x2="401.85" y1="303.4828" y2="303.4828"/><line style="stroke:#181818;stroke-width:0.45;" x1="305.55" x2="401.85" y1="310.6828" y2="310.6828"/></g><!--MD5=[339871d7601d113ba04802e4e0a41179]
class NIF--><g id="elem_NIF"><rect codeLine="30" fill="#F1F1F1" height="52.8328" id="NIF" rx="2.25" ry="2.25" style="stroke:#181818;stroke-width:0.45;" width="98.1" x="434.25" y="265.05"/><ellipse cx="447.75" cy="284.2664" fill="#ADD1B2" rx="9.9" ry="9.9" style="stroke:#181818;stroke-width:0.9;"/><path d="M449.55,281.1164 Q449.7328,280.6664 449.9438,280.4414 Q450.1547,280.2164 450.3938,280.2164 Q450.8156,280.2164 451.0828,280.4695 Q451.35,280.7227 451.35,281.3133 L451.35,282.7195 Q451.35,283.3102 451.0969,283.5633 Q450.8438,283.8164 450.45,283.8164 Q450.0984,283.8164 449.8734,283.6617 Q449.6484,283.507 449.55,283.0992 Q449.5078,282.818 449.3531,282.6633 Q449.0719,282.368 448.5656,282.1992 Q448.0594,282.0164 447.5531,282.0164 Q446.9203,282.0164 446.3859,282.2695 Q445.8656,282.5227 445.4578,283.0852 Q445.05,283.6477 445.05,284.4211 L445.05,285.2508 Q445.05,286.1789 445.8094,286.7977 Q446.5688,287.4164 447.9188,287.4164 Q448.7203,287.4164 449.2828,287.2336 Q449.6063,287.1352 449.9719,286.8117 Q450.2109,286.6289 450.3375,286.5727 Q450.4641,286.5164 450.6188,286.5164 Q450.9141,286.5164 451.125,286.7555 Q451.35,286.9805 451.35,287.3039 Q451.35,287.6133 451.0406,287.9789 Q450.5906,288.5133 449.8734,288.8086 Q448.9313,289.2164 447.7781,289.2164 Q446.4281,289.2164 445.3453,288.682 Q444.4734,288.2602 443.8547,287.3461 Q443.25,286.432 443.25,285.3492 L443.25,284.3648 Q443.25,283.2398 443.7844,282.2555 Q444.3328,281.2711 445.275,280.7508 Q446.2313,280.2164 447.3,280.2164 Q447.9469,280.2164 448.5094,280.4414 Q449.0719,280.6664 449.55,281.1164 Z " fill="#000000"/><text fill="#000000" font-family="sans-serif" font-size="10.8" font-style="italic" lengthAdjust="spacing" textLength="72.9" x="458.55" y="280.7613">«value object»</text><text fill="#000000" font-family="sans-serif" font-size="12.6" lengthAdjust="spacing" textLength="18.9" x="485.55" y="296.2143">NIF</text><line style="stroke:#181818;stroke-width:0.45;" x1="435.15" x2="531.45" y1="303.4828" y2="303.4828"/><line style="stroke:#181818;stroke-width:0.45;" x1="435.15" x2="531.45" y1="310.6828" y2="310.6828"/></g><!--MD5=[ec957f90f125634d426aef890efece94]
class BirthDate--><g id="elem_BirthDate"><rect codeLine="32" fill="#F1F1F1" height="52.8328" id="BirthDate" rx="2.25" ry="2.25" style="stroke:#181818;stroke-width:0.45;" width="98.1" x="563.85" y="265.05"/><ellipse cx="577.35" cy="284.2664" fill="#ADD1B2" rx="9.9" ry="9.9" style="stroke:#181818;stroke-width:0.9;"/><path d="M579.15,281.1164 Q579.3328,280.6664 579.5438,280.4414 Q579.7547,280.2164 579.9938,280.2164 Q580.4156,280.2164 580.6828,280.4695 Q580.95,280.7227 580.95,281.3133 L580.95,282.7195 Q580.95,283.3102 580.6969,283.5633 Q580.4438,283.8164 580.05,283.8164 Q579.6984,283.8164 579.4734,283.6617 Q579.2484,283.507 579.15,283.0992 Q579.1078,282.818 578.9531,282.6633 Q578.6719,282.368 578.1656,282.1992 Q577.6594,282.0164 577.1531,282.0164 Q576.5203,282.0164 575.9859,282.2695 Q575.4656,282.5227 575.0578,283.0852 Q574.65,283.6477 574.65,284.4211 L574.65,285.2508 Q574.65,286.1789 575.4094,286.7977 Q576.1688,287.4164 577.5188,287.4164 Q578.3203,287.4164 578.8828,287.2336 Q579.2063,287.1352 579.5719,286.8117 Q579.8109,286.6289 579.9375,286.5727 Q580.0641,286.5164 580.2188,286.5164 Q580.5141,286.5164 580.725,286.7555 Q580.95,286.9805 580.95,287.3039 Q580.95,287.6133 580.6406,287.9789 Q580.1906,288.5133 579.4734,288.8086 Q578.5313,289.2164 577.3781,289.2164 Q576.0281,289.2164 574.9453,288.682 Q574.0734,288.2602 573.4547,287.3461 Q572.85,286.432 572.85,285.3492 L572.85,284.3648 Q572.85,283.2398 573.3844,282.2555 Q573.9328,281.2711 574.875,280.7508 Q575.8313,280.2164 576.9,280.2164 Q577.5469,280.2164 578.1094,280.4414 Q578.6719,280.6664 579.15,281.1164 Z " fill="#000000"/><text fill="#000000" font-family="sans-serif" font-size="10.8" font-style="italic" lengthAdjust="spacing" textLength="72.9" x="588.15" y="280.7613">«value object»</text><text fill="#000000" font-family="sans-serif" font-size="12.6" lengthAdjust="spacing" textLength="53.1" x="598.05" y="296.2143">BirthDate</text><line style="stroke:#181818;stroke-width:0.45;" x1="564.75" x2="661.05" y1="303.4828" y2="303.4828"/><line style="stroke:#181818;stroke-width:0.45;" x1="564.75" x2="661.05" y1="310.6828" y2="310.6828"/></g><!--MD5=[9de4f19eab90a199848c5893311179be]
class MechanographicNumber--><g id="elem_MechanographicNumber"><rect codeLine="34" fill="#F1F1F1" height="66.4172" id="MechanographicNumber" rx="2.25" ry="2.25" style="stroke:#181818;stroke-width:0.45;" width="167.4" x="693.9" y="258.3"/><ellipse cx="707.4" cy="284.3086" fill="#ADD1B2" rx="9.9" ry="9.9" style="stroke:#181818;stroke-width:0.9;"/><path d="M709.2,281.1586 Q709.3828,280.7086 709.5938,280.4836 Q709.8047,280.2586 710.0438,280.2586 Q710.4656,280.2586 710.7328,280.5117 Q711,280.7648 711,281.3555 L711,282.7617 Q711,283.3523 710.7469,283.6055 Q710.4938,283.8586 710.1,283.8586 Q709.7484,283.8586 709.5234,283.7039 Q709.2984,283.5492 709.2,283.1414 Q709.1578,282.8602 709.0031,282.7055 Q708.7219,282.4102 708.2156,282.2414 Q707.7094,282.0586 707.2031,282.0586 Q706.5703,282.0586 706.0359,282.3117 Q705.5156,282.5648 705.1078,283.1273 Q704.7,283.6898 704.7,284.4633 L704.7,285.293 Q704.7,286.2211 705.4594,286.8398 Q706.2188,287.4586 707.5688,287.4586 Q708.3703,287.4586 708.9328,287.2758 Q709.2563,287.1773 709.6219,286.8539 Q709.8609,286.6711 709.9875,286.6148 Q710.1141,286.5586 710.2688,286.5586 Q710.5641,286.5586 710.775,286.7977 Q711,287.0227 711,287.3461 Q711,287.6555 710.6906,288.0211 Q710.2406,288.5555 709.5234,288.8508 Q708.5813,289.2586 707.4281,289.2586 Q706.0781,289.2586 704.9953,288.7242 Q704.1234,288.3023 703.5047,287.3883 Q702.9,286.4742 702.9,285.3914 L702.9,284.407 Q702.9,283.282 703.4344,282.2977 Q703.9828,281.3133 704.925,280.793 Q705.8813,280.2586 706.95,280.2586 Q707.5969,280.2586 708.1594,280.4836 Q708.7219,280.7086 709.2,281.1586 Z " fill="#000000"/><text fill="#000000" font-family="sans-serif" font-size="10.8" font-style="italic" lengthAdjust="spacing" textLength="72.9" x="752.85" y="274.0113">«value object»</text><text fill="#000000" font-family="sans-serif" font-size="10.8" font-style="italic" lengthAdjust="spacing" textLength="131.4" x="723.6" y="287.5957">«automatically generated»</text><text fill="#000000" font-family="sans-serif" font-size="12.6" lengthAdjust="spacing" textLength="138.6" x="720" y="303.0486">MechanographicNumber</text><line style="stroke:#181818;stroke-width:0.45;" x1="694.8" x2="860.4" y1="310.3172" y2="310.3172"/><line style="stroke:#181818;stroke-width:0.45;" x1="694.8" x2="860.4" y1="317.5172" y2="317.5172"/></g><!--MD5=[64e7a81d370390ac66d73872e4f36773]
class Grade--><g id="elem_Grade"><rect codeLine="36" fill="#F1F1F1" height="52.8328" id="Grade" rx="2.25" ry="2.25" style="stroke:#181818;stroke-width:0.45;" width="98.1" x="893.25" y="265.05"/><ellipse cx="906.75" cy="284.2664" fill="#ADD1B2" rx="9.9" ry="9.9" style="stroke:#181818;stroke-width:0.9;"/><path d="M908.55,281.1164 Q908.7328,280.6664 908.9438,280.4414 Q909.1547,280.2164 909.3938,280.2164 Q909.8156,280.2164 910.0828,280.4695 Q910.35,280.7227 910.35,281.3133 L910.35,282.7195 Q910.35,283.3102 910.0969,283.5633 Q909.8438,283.8164 909.45,283.8164 Q909.0984,283.8164 908.8734,283.6617 Q908.6484,283.507 908.55,283.0992 Q908.5078,282.818 908.3531,282.6633 Q908.0719,282.368 907.5656,282.1992 Q907.0594,282.0164 906.5531,282.0164 Q905.9203,282.0164 905.3859,282.2695 Q904.8656,282.5227 904.4578,283.0852 Q904.05,283.6477 904.05,284.4211 L904.05,285.2508 Q904.05,286.1789 904.8094,286.7977 Q905.5688,287.4164 906.9188,287.4164 Q907.7203,287.4164 908.2828,287.2336 Q908.6063,287.1352 908.9719,286.8117 Q909.2109,286.6289 909.3375,286.5727 Q909.4641,286.5164 909.6188,286.5164 Q909.9141,286.5164 910.125,286.7555 Q910.35,286.9805 910.35,287.3039 Q910.35,287.6133 910.0406,287.9789 Q909.5906,288.5133 908.8734,288.8086 Q907.9313,289.2164 906.7781,289.2164 Q905.4281,289.2164 904.3453,288.682 Q903.4734,288.2602 902.8547,287.3461 Q902.25,286.432 902.25,285.3492 L902.25,284.3648 Q902.25,283.2398 902.7844,282.2555 Q903.3328,281.2711 904.275,280.7508 Q905.2313,280.2164 906.3,280.2164 Q906.9469,280.2164 907.5094,280.4414 Q908.0719,280.6664 908.55,281.1164 Z " fill="#000000"/><text fill="#000000" font-family="sans-serif" font-size="10.8" font-style="italic" lengthAdjust="spacing" textLength="72.9" x="917.55" y="280.7613">«value object»</text><text fill="#000000" font-family="sans-serif" font-size="12.6" lengthAdjust="spacing" textLength="36" x="936" y="296.2143">Grade</text><line style="stroke:#181818;stroke-width:0.45;" x1="894.15" x2="990.45" y1="303.4828" y2="303.4828"/><line style="stroke:#181818;stroke-width:0.45;" x1="894.15" x2="990.45" y1="310.6828" y2="310.6828"/></g><!--MD5=[3762909e135fb728396985e200594027]
class SharedBoard--><g id="elem_SharedBoard"><rect codeLine="42" fill="#F1F1F1" height="129.8109" id="SharedBoard" rx="2.25" ry="2.25" style="stroke:#181818;stroke-width:0.45;" width="243.9" x="1042.65" y="226.8"/><ellipse cx="1122.975" cy="252.8086" fill="#ADD1B2" rx="9.9" ry="9.9" style="stroke:#181818;stroke-width:0.9;"/><path d="M1124.775,249.6586 Q1124.9578,249.2086 1125.1688,248.9836 Q1125.3797,248.7586 1125.6188,248.7586 Q1126.0406,248.7586 1126.3078,249.0117 Q1126.575,249.2648 1126.575,249.8555 L1126.575,251.2617 Q1126.575,251.8523 1126.3219,252.1055 Q1126.0688,252.3586 1125.675,252.3586 Q1125.3234,252.3586 1125.0984,252.2039 Q1124.8734,252.0492 1124.775,251.6414 Q1124.7328,251.3602 1124.5781,251.2055 Q1124.2969,250.9102 1123.7906,250.7414 Q1123.2844,250.5586 1122.7781,250.5586 Q1122.1453,250.5586 1121.6109,250.8117 Q1121.0906,251.0648 1120.6828,251.6273 Q1120.275,252.1898 1120.275,252.9633 L1120.275,253.793 Q1120.275,254.7211 1121.0344,255.3398 Q1121.7938,255.9586 1123.1438,255.9586 Q1123.9453,255.9586 1124.5078,255.7758 Q1124.8313,255.6773 1125.1969,255.3539 Q1125.4359,255.1711 1125.5625,255.1148 Q1125.6891,255.0586 1125.8438,255.0586 Q1126.1391,255.0586 1126.35,255.2977 Q1126.575,255.5227 1126.575,255.8461 Q1126.575,256.1555 1126.2656,256.5211 Q1125.8156,257.0555 1125.0984,257.3508 Q1124.1563,257.7586 1123.0031,257.7586 Q1121.6531,257.7586 1120.5703,257.2242 Q1119.6984,256.8023 1119.0797,255.8883 Q1118.475,254.9742 1118.475,253.8914 L1118.475,252.907 Q1118.475,251.782 1119.0094,250.7977 Q1119.5578,249.8133 1120.5,249.293 Q1121.4563,248.7586 1122.525,248.7586 Q1123.1719,248.7586 1123.7344,248.9836 Q1124.2969,249.2086 1124.775,249.6586 Z " fill="#000000"/><text fill="#000000" font-family="sans-serif" font-size="10.8" font-style="italic" lengthAdjust="spacing" textLength="31.5" x="1163.475" y="242.5113">«root»</text><text fill="#000000" font-family="sans-serif" font-size="10.8" font-style="italic" lengthAdjust="spacing" textLength="38.7" x="1159.875" y="256.0957">«entity»</text><text fill="#000000" font-family="sans-serif" font-size="12.6" lengthAdjust="spacing" textLength="75.6" x="1141.425" y="271.5486">SharedBoard</text><line style="stroke:#181818;stroke-width:0.45;" x1="1043.55" x2="1285.65" y1="278.8172" y2="278.8172"/><ellipse cx="1052.55" cy="291.6914" fill="#000000" rx="2.7" ry="2.7" style="stroke:#000000;stroke-width:0.9;"/><text fill="#000000" font-family="sans-serif" font-size="12.6" lengthAdjust="spacing" textLength="220.5" x="1060.65" y="295.4971">id «unique» «automatically generated»</text><ellipse cx="1052.55" cy="307.5398" fill="#000000" rx="2.7" ry="2.7" style="stroke:#000000;stroke-width:0.9;"/><text fill="#000000" font-family="sans-serif" font-size="12.6" lengthAdjust="spacing" textLength="65.7" x="1060.65" y="311.3455">boradName</text><ellipse cx="1052.55" cy="323.3883" fill="#000000" rx="2.7" ry="2.7" style="stroke:#000000;stroke-width:0.9;"/><text fill="#000000" font-family="sans-serif" font-size="12.6" lengthAdjust="spacing" textLength="53.1" x="1060.65" y="327.1939">maxRows</text><ellipse cx="1052.55" cy="339.2367" fill="#000000" rx="2.7" ry="2.7" style="stroke:#000000;stroke-width:0.9;"/><text fill="#000000" font-family="sans-serif" font-size="12.6" lengthAdjust="spacing" textLength="72" x="1060.65" y="343.0424">maxColumns</text><line style="stroke:#181818;stroke-width:0.45;" x1="1043.55" x2="1285.65" y1="349.4109" y2="349.4109"/></g><!--MD5=[fea3dc74c7473bae0133d22265a91e2f]
class Cell--><g id="elem_Cell"><rect codeLine="49" fill="#F1F1F1" height="74.8969" id="Cell" rx="2.25" ry="2.25" style="stroke:#181818;stroke-width:0.45;" width="65.7" x="1172.25" y="662.85"/><ellipse cx="1192.635" cy="677.25" fill="#ADD1B2" rx="9.9" ry="9.9" style="stroke:#181818;stroke-width:0.9;"/><path d="M1194.435,674.1 Q1194.6178,673.65 1194.8288,673.425 Q1195.0397,673.2 1195.2788,673.2 Q1195.7006,673.2 1195.9678,673.4531 Q1196.235,673.7063 1196.235,674.2969 L1196.235,675.7031 Q1196.235,676.2938 1195.9819,676.5469 Q1195.7288,676.8 1195.335,676.8 Q1194.9834,676.8 1194.7584,676.6453 Q1194.5334,676.4906 1194.435,676.0828 Q1194.3928,675.8016 1194.2381,675.6469 Q1193.9569,675.3516 1193.4506,675.1828 Q1192.9444,675 1192.4381,675 Q1191.8053,675 1191.2709,675.2531 Q1190.7506,675.5063 1190.3428,676.0688 Q1189.935,676.6313 1189.935,677.4047 L1189.935,678.2344 Q1189.935,679.1625 1190.6944,679.7813 Q1191.4538,680.4 1192.8038,680.4 Q1193.6053,680.4 1194.1678,680.2172 Q1194.4913,680.1188 1194.8569,679.7953 Q1195.0959,679.6125 1195.2225,679.5563 Q1195.3491,679.5 1195.5038,679.5 Q1195.7991,679.5 1196.01,679.7391 Q1196.235,679.9641 1196.235,680.2875 Q1196.235,680.5969 1195.9256,680.9625 Q1195.4756,681.4969 1194.7584,681.7922 Q1193.8163,682.2 1192.6631,682.2 Q1191.3131,682.2 1190.2303,681.6656 Q1189.3584,681.2438 1188.7397,680.3297 Q1188.135,679.4156 1188.135,678.3328 L1188.135,677.3484 Q1188.135,676.2234 1188.6694,675.2391 Q1189.2178,674.2547 1190.16,673.7344 Q1191.1163,673.2 1192.185,673.2 Q1192.8319,673.2 1193.3944,673.425 Q1193.9569,673.65 1194.435,674.1 Z " fill="#000000"/><text fill="#000000" font-family="sans-serif" font-size="12.6" lengthAdjust="spacing" textLength="21.6" x="1206.765" y="682.4057">Cell</text><line style="stroke:#181818;stroke-width:0.45;" x1="1173.15" x2="1237.05" y1="691.65" y2="691.65"/><ellipse cx="1182.15" cy="704.5242" fill="#000000" rx="2.7" ry="2.7" style="stroke:#000000;stroke-width:0.9;"/><text fill="#000000" font-family="sans-serif" font-size="12.6" lengthAdjust="spacing" textLength="9.9" x="1190.25" y="708.3299">id</text><ellipse cx="1182.15" cy="720.3727" fill="#000000" rx="2.7" ry="2.7" style="stroke:#000000;stroke-width:0.9;"/><text fill="#000000" font-family="sans-serif" font-size="12.6" lengthAdjust="spacing" textLength="42.3" x="1190.25" y="724.1783">content</text><line style="stroke:#181818;stroke-width:0.45;" x1="1173.15" x2="1237.05" y1="730.5469" y2="730.5469"/></g><!--MD5=[d8020466466b5a2fe3f6b8633d61f8f3]
class NormalCell--><g id="elem_NormalCell"><rect codeLine="54" fill="#F1F1F1" height="106.5938" id="NormalCell" rx="2.25" ry="2.25" style="stroke:#181818;stroke-width:0.45;" width="90" x="1274.4" y="426.6"/><ellipse cx="1287.9" cy="441" fill="#ADD1B2" rx="9.9" ry="9.9" style="stroke:#181818;stroke-width:0.9;"/><path d="M1289.7,437.85 Q1289.8828,437.4 1290.0938,437.175 Q1290.3047,436.95 1290.5438,436.95 Q1290.9656,436.95 1291.2328,437.2031 Q1291.5,437.4563 1291.5,438.0469 L1291.5,439.4531 Q1291.5,440.0438 1291.2469,440.2969 Q1290.9938,440.55 1290.6,440.55 Q1290.2484,440.55 1290.0234,440.3953 Q1289.7984,440.2406 1289.7,439.8328 Q1289.6578,439.5516 1289.5031,439.3969 Q1289.2219,439.1016 1288.7156,438.9328 Q1288.2094,438.75 1287.7031,438.75 Q1287.0703,438.75 1286.5359,439.0031 Q1286.0156,439.2563 1285.6078,439.8188 Q1285.2,440.3813 1285.2,441.1547 L1285.2,441.9844 Q1285.2,442.9125 1285.9594,443.5313 Q1286.7188,444.15 1288.0688,444.15 Q1288.8703,444.15 1289.4328,443.9672 Q1289.7563,443.8688 1290.1219,443.5453 Q1290.3609,443.3625 1290.4875,443.3063 Q1290.6141,443.25 1290.7688,443.25 Q1291.0641,443.25 1291.275,443.4891 Q1291.5,443.7141 1291.5,444.0375 Q1291.5,444.3469 1291.1906,444.7125 Q1290.7406,445.2469 1290.0234,445.5422 Q1289.0813,445.95 1287.9281,445.95 Q1286.5781,445.95 1285.4953,445.4156 Q1284.6234,444.9938 1284.0047,444.0797 Q1283.4,443.1656 1283.4,442.0828 L1283.4,441.0984 Q1283.4,439.9734 1283.9344,438.9891 Q1284.4828,438.0047 1285.425,437.4844 Q1286.3813,436.95 1287.45,436.95 Q1288.0969,436.95 1288.6594,437.175 Q1289.2219,437.4 1289.7,437.85 Z " fill="#000000"/><text fill="#000000" font-family="sans-serif" font-size="12.6" lengthAdjust="spacing" textLength="61.2" x="1300.5" y="446.1557">NormalCell</text><line style="stroke:#181818;stroke-width:0.45;" x1="1275.3" x2="1363.5" y1="455.4" y2="455.4"/><ellipse cx="1284.3" cy="468.2742" fill="#000000" rx="2.7" ry="2.7" style="stroke:#000000;stroke-width:0.9;"/><text fill="#000000" font-family="sans-serif" font-size="12.6" lengthAdjust="spacing" textLength="9.9" x="1292.4" y="472.0799">id</text><ellipse cx="1284.3" cy="484.1227" fill="#000000" rx="2.7" ry="2.7" style="stroke:#000000;stroke-width:0.9;"/><text fill="#000000" font-family="sans-serif" font-size="12.6" lengthAdjust="spacing" textLength="19.8" x="1292.4" y="487.9283">row</text><ellipse cx="1284.3" cy="499.9711" fill="#000000" rx="2.7" ry="2.7" style="stroke:#000000;stroke-width:0.9;"/><text fill="#000000" font-family="sans-serif" font-size="12.6" lengthAdjust="spacing" textLength="40.5" x="1292.4" y="503.7768">column</text><ellipse cx="1284.3" cy="515.8195" fill="#000000" rx="2.7" ry="2.7" style="stroke:#000000;stroke-width:0.9;"/><text fill="#000000" font-family="sans-serif" font-size="12.6" lengthAdjust="spacing" textLength="42.3" x="1292.4" y="519.6252">content</text><line style="stroke:#181818;stroke-width:0.45;" x1="1275.3" x2="1363.5" y1="525.9938" y2="525.9938"/></g><!--MD5=[4cbb5a746c09f2285613d1ce86c65523]
class ColumnCell--><g id="elem_ColumnCell"><rect codeLine="61" fill="#F1F1F1" height="90.7453" id="ColumnCell" rx="2.25" ry="2.25" style="stroke:#181818;stroke-width:0.45;" width="93.6" x="1042.2" y="434.25"/><ellipse cx="1055.7" cy="448.65" fill="#ADD1B2" rx="9.9" ry="9.9" style="stroke:#181818;stroke-width:0.9;"/><path d="M1057.5,445.5 Q1057.6828,445.05 1057.8938,444.825 Q1058.1047,444.6 1058.3438,444.6 Q1058.7656,444.6 1059.0328,444.8531 Q1059.3,445.1063 1059.3,445.6969 L1059.3,447.1031 Q1059.3,447.6938 1059.0469,447.9469 Q1058.7938,448.2 1058.4,448.2 Q1058.0484,448.2 1057.8234,448.0453 Q1057.5984,447.8906 1057.5,447.4828 Q1057.4578,447.2016 1057.3031,447.0469 Q1057.0219,446.7516 1056.5156,446.5828 Q1056.0094,446.4 1055.5031,446.4 Q1054.8703,446.4 1054.3359,446.6531 Q1053.8156,446.9063 1053.4078,447.4688 Q1053,448.0313 1053,448.8047 L1053,449.6344 Q1053,450.5625 1053.7594,451.1813 Q1054.5188,451.8 1055.8688,451.8 Q1056.6703,451.8 1057.2328,451.6172 Q1057.5563,451.5188 1057.9219,451.1953 Q1058.1609,451.0125 1058.2875,450.9563 Q1058.4141,450.9 1058.5688,450.9 Q1058.8641,450.9 1059.075,451.1391 Q1059.3,451.3641 1059.3,451.6875 Q1059.3,451.9969 1058.9906,452.3625 Q1058.5406,452.8969 1057.8234,453.1922 Q1056.8813,453.6 1055.7281,453.6 Q1054.3781,453.6 1053.2953,453.0656 Q1052.4234,452.6438 1051.8047,451.7297 Q1051.2,450.8156 1051.2,449.7328 L1051.2,448.7484 Q1051.2,447.6234 1051.7344,446.6391 Q1052.2828,445.6547 1053.225,445.1344 Q1054.1813,444.6 1055.25,444.6 Q1055.8969,444.6 1056.4594,444.825 Q1057.0219,445.05 1057.5,445.5 Z " fill="#000000"/><text fill="#000000" font-family="sans-serif" font-size="12.6" lengthAdjust="spacing" textLength="64.8" x="1068.3" y="453.8057">ColumnCell</text><line style="stroke:#181818;stroke-width:0.45;" x1="1043.1" x2="1134.9" y1="463.05" y2="463.05"/><ellipse cx="1052.1" cy="475.9242" fill="#000000" rx="2.7" ry="2.7" style="stroke:#000000;stroke-width:0.9;"/><text fill="#000000" font-family="sans-serif" font-size="12.6" lengthAdjust="spacing" textLength="9.9" x="1060.2" y="479.7299">id</text><ellipse cx="1052.1" cy="491.7727" fill="#000000" rx="2.7" ry="2.7" style="stroke:#000000;stroke-width:0.9;"/><text fill="#000000" font-family="sans-serif" font-size="12.6" lengthAdjust="spacing" textLength="68.4" x="1060.2" y="495.5783">columnTittle</text><ellipse cx="1052.1" cy="507.6211" fill="#000000" rx="2.7" ry="2.7" style="stroke:#000000;stroke-width:0.9;"/><text fill="#000000" font-family="sans-serif" font-size="12.6" lengthAdjust="spacing" textLength="40.5" x="1060.2" y="511.4268">column</text><line style="stroke:#181818;stroke-width:0.45;" x1="1043.1" x2="1134.9" y1="517.7953" y2="517.7953"/></g><!--MD5=[29b00cfe41dcb34143e361ceefc9408b]
class RowCell--><g id="elem_RowCell"><rect codeLine="67" fill="#F1F1F1" height="90.7453" id="RowCell" rx="2.25" ry="2.25" style="stroke:#181818;stroke-width:0.45;" width="74.7" x="1167.75" y="434.25"/><ellipse cx="1181.25" cy="448.65" fill="#ADD1B2" rx="9.9" ry="9.9" style="stroke:#181818;stroke-width:0.9;"/><path d="M1183.05,445.5 Q1183.2328,445.05 1183.4438,444.825 Q1183.6547,444.6 1183.8938,444.6 Q1184.3156,444.6 1184.5828,444.8531 Q1184.85,445.1063 1184.85,445.6969 L1184.85,447.1031 Q1184.85,447.6938 1184.5969,447.9469 Q1184.3438,448.2 1183.95,448.2 Q1183.5984,448.2 1183.3734,448.0453 Q1183.1484,447.8906 1183.05,447.4828 Q1183.0078,447.2016 1182.8531,447.0469 Q1182.5719,446.7516 1182.0656,446.5828 Q1181.5594,446.4 1181.0531,446.4 Q1180.4203,446.4 1179.8859,446.6531 Q1179.3656,446.9063 1178.9578,447.4688 Q1178.55,448.0313 1178.55,448.8047 L1178.55,449.6344 Q1178.55,450.5625 1179.3094,451.1813 Q1180.0688,451.8 1181.4188,451.8 Q1182.2203,451.8 1182.7828,451.6172 Q1183.1063,451.5188 1183.4719,451.1953 Q1183.7109,451.0125 1183.8375,450.9563 Q1183.9641,450.9 1184.1188,450.9 Q1184.4141,450.9 1184.625,451.1391 Q1184.85,451.3641 1184.85,451.6875 Q1184.85,451.9969 1184.5406,452.3625 Q1184.0906,452.8969 1183.3734,453.1922 Q1182.4313,453.6 1181.2781,453.6 Q1179.9281,453.6 1178.8453,453.0656 Q1177.9734,452.6438 1177.3547,451.7297 Q1176.75,450.8156 1176.75,449.7328 L1176.75,448.7484 Q1176.75,447.6234 1177.2844,446.6391 Q1177.8328,445.6547 1178.775,445.1344 Q1179.7313,444.6 1180.8,444.6 Q1181.4469,444.6 1182.0094,444.825 Q1182.5719,445.05 1183.05,445.5 Z " fill="#000000"/><text fill="#000000" font-family="sans-serif" font-size="12.6" lengthAdjust="spacing" textLength="45.9" x="1193.85" y="453.8057">RowCell</text><line style="stroke:#181818;stroke-width:0.45;" x1="1168.65" x2="1241.55" y1="463.05" y2="463.05"/><ellipse cx="1177.65" cy="475.9242" fill="#000000" rx="2.7" ry="2.7" style="stroke:#000000;stroke-width:0.9;"/><text fill="#000000" font-family="sans-serif" font-size="12.6" lengthAdjust="spacing" textLength="9.9" x="1185.75" y="479.7299">id</text><ellipse cx="1177.65" cy="491.7727" fill="#000000" rx="2.7" ry="2.7" style="stroke:#000000;stroke-width:0.9;"/><text fill="#000000" font-family="sans-serif" font-size="12.6" lengthAdjust="spacing" textLength="47.7" x="1185.75" y="495.5783">rowTittle</text><ellipse cx="1177.65" cy="507.6211" fill="#000000" rx="2.7" ry="2.7" style="stroke:#000000;stroke-width:0.9;"/><text fill="#000000" font-family="sans-serif" font-size="12.6" lengthAdjust="spacing" textLength="19.8" x="1185.75" y="511.4268">row</text><line style="stroke:#181818;stroke-width:0.45;" x1="1168.65" x2="1241.55" y1="517.7953" y2="517.7953"/></g><!--MD5=[458552462bbdcbc92793825846cc11c0]
class PostIt--><g id="elem_PostIt"><rect codeLine="76" fill="#F1F1F1" height="122.4422" id="PostIt" rx="2.25" ry="2.25" style="stroke:#181818;stroke-width:0.45;" width="67.5" x="1459.35" y="639"/><ellipse cx="1476.09" cy="653.4" fill="#ADD1B2" rx="9.9" ry="9.9" style="stroke:#181818;stroke-width:0.9;"/><path d="M1477.89,650.25 Q1478.0728,649.8 1478.2838,649.575 Q1478.4947,649.35 1478.7337,649.35 Q1479.1556,649.35 1479.4228,649.6031 Q1479.69,649.8563 1479.69,650.4469 L1479.69,651.8531 Q1479.69,652.4438 1479.4369,652.6969 Q1479.1838,652.95 1478.79,652.95 Q1478.4384,652.95 1478.2134,652.7953 Q1477.9884,652.6406 1477.89,652.2328 Q1477.8478,651.9516 1477.6931,651.7969 Q1477.4119,651.5016 1476.9056,651.3328 Q1476.3994,651.15 1475.8931,651.15 Q1475.2603,651.15 1474.7259,651.4031 Q1474.2056,651.6563 1473.7978,652.2188 Q1473.39,652.7813 1473.39,653.5547 L1473.39,654.3844 Q1473.39,655.3125 1474.1494,655.9313 Q1474.9088,656.55 1476.2588,656.55 Q1477.0603,656.55 1477.6228,656.3672 Q1477.9463,656.2688 1478.3119,655.9453 Q1478.5509,655.7625 1478.6775,655.7063 Q1478.8041,655.65 1478.9588,655.65 Q1479.2541,655.65 1479.465,655.8891 Q1479.69,656.1141 1479.69,656.4375 Q1479.69,656.7469 1479.3806,657.1125 Q1478.9306,657.6469 1478.2134,657.9422 Q1477.2713,658.35 1476.1181,658.35 Q1474.7681,658.35 1473.6853,657.8156 Q1472.8134,657.3938 1472.1947,656.4797 Q1471.59,655.5656 1471.59,654.4828 L1471.59,653.4984 Q1471.59,652.3734 1472.1244,651.3891 Q1472.6728,650.4047 1473.615,649.8844 Q1474.5713,649.35 1475.64,649.35 Q1476.2869,649.35 1476.8494,649.575 Q1477.4119,649.8 1477.89,650.25 Z " fill="#000000"/><text fill="#000000" font-family="sans-serif" font-size="12.6" lengthAdjust="spacing" textLength="31.5" x="1489.41" y="658.5557">PostIt</text><line style="stroke:#181818;stroke-width:0.45;" x1="1460.25" x2="1525.95" y1="667.8" y2="667.8"/><ellipse cx="1469.25" cy="680.6742" fill="#000000" rx="2.7" ry="2.7" style="stroke:#000000;stroke-width:0.9;"/><text fill="#000000" font-family="sans-serif" font-size="12.6" lengthAdjust="spacing" textLength="9.9" x="1477.35" y="684.4799">id</text><ellipse cx="1469.25" cy="696.5227" fill="#000000" rx="2.7" ry="2.7" style="stroke:#000000;stroke-width:0.9;"/><text fill="#000000" font-family="sans-serif" font-size="12.6" lengthAdjust="spacing" textLength="19.8" x="1477.35" y="700.3283">title</text><ellipse cx="1469.25" cy="712.3711" fill="#000000" rx="2.7" ry="2.7" style="stroke:#000000;stroke-width:0.9;"/><text fill="#000000" font-family="sans-serif" font-size="12.6" lengthAdjust="spacing" textLength="42.3" x="1477.35" y="716.1768">content</text><ellipse cx="1469.25" cy="728.2195" fill="#000000" rx="2.7" ry="2.7" style="stroke:#000000;stroke-width:0.9;"/><text fill="#000000" font-family="sans-serif" font-size="12.6" lengthAdjust="spacing" textLength="27.9" x="1477.35" y="732.0252">color</text><ellipse cx="1469.25" cy="744.068" fill="#000000" rx="2.7" ry="2.7" style="stroke:#000000;stroke-width:0.9;"/><text fill="#000000" font-family="sans-serif" font-size="12.6" lengthAdjust="spacing" textLength="44.1" x="1477.35" y="747.8736">position</text><line style="stroke:#181818;stroke-width:0.45;" x1="1460.25" x2="1525.95" y1="754.2422" y2="754.2422"/></g><!--MD5=[fd7366e9f96236d9aa60dcc04f2b83e5]
class Content--><g id="elem_Content"><rect codeLine="84" fill="#F1F1F1" height="43.2" id="Content" rx="2.25" ry="2.25" style="stroke:#181818;stroke-width:0.45;" width="73.8" x="1702.8" y="678.6"/><ellipse cx="1716.3" cy="693" fill="#ADD1B2" rx="9.9" ry="9.9" style="stroke:#181818;stroke-width:0.9;"/><path d="M1718.1,689.85 Q1718.2828,689.4 1718.4938,689.175 Q1718.7047,688.95 1718.9438,688.95 Q1719.3656,688.95 1719.6328,689.2031 Q1719.9,689.4563 1719.9,690.0469 L1719.9,691.4531 Q1719.9,692.0438 1719.6469,692.2969 Q1719.3938,692.55 1719,692.55 Q1718.6484,692.55 1718.4234,692.3953 Q1718.1984,692.2406 1718.1,691.8328 Q1718.0578,691.5516 1717.9031,691.3969 Q1717.6219,691.1016 1717.1156,690.9328 Q1716.6094,690.75 1716.1031,690.75 Q1715.4703,690.75 1714.9359,691.0031 Q1714.4156,691.2563 1714.0078,691.8188 Q1713.6,692.3813 1713.6,693.1547 L1713.6,693.9844 Q1713.6,694.9125 1714.3594,695.5313 Q1715.1188,696.15 1716.4688,696.15 Q1717.2703,696.15 1717.8328,695.9672 Q1718.1563,695.8688 1718.5219,695.5453 Q1718.7609,695.3625 1718.8875,695.3063 Q1719.0141,695.25 1719.1688,695.25 Q1719.4641,695.25 1719.675,695.4891 Q1719.9,695.7141 1719.9,696.0375 Q1719.9,696.3469 1719.5906,696.7125 Q1719.1406,697.2469 1718.4234,697.5422 Q1717.4813,697.95 1716.3281,697.95 Q1714.9781,697.95 1713.8953,697.4156 Q1713.0234,696.9938 1712.4047,696.0797 Q1711.8,695.1656 1711.8,694.0828 L1711.8,693.0984 Q1711.8,691.9734 1712.3344,690.9891 Q1712.8828,690.0047 1713.825,689.4844 Q1714.7813,688.95 1715.85,688.95 Q1716.4969,688.95 1717.0594,689.175 Q1717.6219,689.4 1718.1,689.85 Z " fill="#000000"/><text fill="#000000" font-family="sans-serif" font-size="12.6" lengthAdjust="spacing" textLength="45" x="1728.9" y="698.1557">Content</text><line style="stroke:#181818;stroke-width:0.45;" x1="1703.7" x2="1775.7" y1="707.4" y2="707.4"/><line style="stroke:#181818;stroke-width:0.45;" x1="1703.7" x2="1775.7" y1="714.6" y2="714.6"/></g><!--MD5=[60e68e8cf9d9845bf0d333d823b84d81]
class MovementType--><g id="elem_MovementType"><rect codeLine="86" fill="#F1F1F1" height="100.3781" id="MovementType" rx="2.25" ry="2.25" style="stroke:#181818;stroke-width:0.45;" width="116.1" x="1435.05" y="831.6"/><ellipse cx="1448.55" cy="850.8164" fill="#ADD1B2" rx="9.9" ry="9.9" style="stroke:#181818;stroke-width:0.9;"/><path d="M1450.35,847.6664 Q1450.5328,847.2164 1450.7438,846.9914 Q1450.9547,846.7664 1451.1938,846.7664 Q1451.6156,846.7664 1451.8828,847.0195 Q1452.15,847.2727 1452.15,847.8633 L1452.15,849.2695 Q1452.15,849.8602 1451.8969,850.1133 Q1451.6438,850.3664 1451.25,850.3664 Q1450.8984,850.3664 1450.6734,850.2117 Q1450.4484,850.057 1450.35,849.6492 Q1450.3078,849.368 1450.1531,849.2133 Q1449.8719,848.918 1449.3656,848.7492 Q1448.8594,848.5664 1448.3531,848.5664 Q1447.7203,848.5664 1447.1859,848.8195 Q1446.6656,849.0727 1446.2578,849.6352 Q1445.85,850.1977 1445.85,850.9711 L1445.85,851.8008 Q1445.85,852.7289 1446.6094,853.3477 Q1447.3688,853.9664 1448.7188,853.9664 Q1449.5203,853.9664 1450.0828,853.7836 Q1450.4063,853.6852 1450.7719,853.3617 Q1451.0109,853.1789 1451.1375,853.1227 Q1451.2641,853.0664 1451.4188,853.0664 Q1451.7141,853.0664 1451.925,853.3055 Q1452.15,853.5305 1452.15,853.8539 Q1452.15,854.1633 1451.8406,854.5289 Q1451.3906,855.0633 1450.6734,855.3586 Q1449.7313,855.7664 1448.5781,855.7664 Q1447.2281,855.7664 1446.1453,855.232 Q1445.2734,854.8102 1444.6547,853.8961 Q1444.05,852.982 1444.05,851.8992 L1444.05,850.9148 Q1444.05,849.7898 1444.5844,848.8055 Q1445.1328,847.8211 1446.075,847.3008 Q1447.0313,846.7664 1448.1,846.7664 Q1448.7469,846.7664 1449.3094,846.9914 Q1449.8719,847.2164 1450.35,847.6664 Z " fill="#000000"/><text fill="#000000" font-family="sans-serif" font-size="10.8" font-style="italic" lengthAdjust="spacing" textLength="41.4" x="1484.1" y="847.3113">«enum»</text><text fill="#000000" font-family="sans-serif" font-size="12.6" lengthAdjust="spacing" textLength="87.3" x="1461.15" y="862.7643">MovementType</text><line style="stroke:#181818;stroke-width:0.45;" x1="1435.95" x2="1550.25" y1="870.0328" y2="870.0328"/><rect fill="none" height="5.4" style="stroke:#C82930;stroke-width:0.9;" width="5.4" x="1442.25" y="880.207"/><text fill="#000000" font-family="sans-serif" font-size="12.6" lengthAdjust="spacing" textLength="49.5" x="1453.05" y="886.7127">UPDATE</text><rect fill="none" height="5.4" style="stroke:#C82930;stroke-width:0.9;" width="5.4" x="1442.25" y="896.0555"/><text fill="#000000" font-family="sans-serif" font-size="12.6" lengthAdjust="spacing" textLength="50.4" x="1453.05" y="902.5611">CREATE</text><rect fill="none" height="5.4" style="stroke:#C82930;stroke-width:0.9;" width="5.4" x="1442.25" y="911.9039"/><text fill="#000000" font-family="sans-serif" font-size="12.6" lengthAdjust="spacing" textLength="48.6" x="1453.05" y="918.4096">DELETE</text><line style="stroke:#181818;stroke-width:0.45;" x1="1435.95" x2="1550.25" y1="924.7781" y2="924.7781"/></g><!--MD5=[abcce420e1f59bdadbddcfae9041ca61]
class TextContent--><g id="elem_TextContent"><rect codeLine="92" fill="#F1F1F1" height="43.2" id="TextContent" rx="2.25" ry="2.25" style="stroke:#181818;stroke-width:0.45;" width="98.1" x="1592.55" y="860.4"/><ellipse cx="1606.05" cy="874.8" fill="#ADD1B2" rx="9.9" ry="9.9" style="stroke:#181818;stroke-width:0.9;"/><path d="M1607.85,871.65 Q1608.0328,871.2 1608.2438,870.975 Q1608.4547,870.75 1608.6938,870.75 Q1609.1156,870.75 1609.3828,871.0031 Q1609.65,871.2563 1609.65,871.8469 L1609.65,873.2531 Q1609.65,873.8438 1609.3969,874.0969 Q1609.1438,874.35 1608.75,874.35 Q1608.3984,874.35 1608.1734,874.1953 Q1607.9484,874.0406 1607.85,873.6328 Q1607.8078,873.3516 1607.6531,873.1969 Q1607.3719,872.9016 1606.8656,872.7328 Q1606.3594,872.55 1605.8531,872.55 Q1605.2203,872.55 1604.6859,872.8031 Q1604.1656,873.0563 1603.7578,873.6188 Q1603.35,874.1813 1603.35,874.9547 L1603.35,875.7844 Q1603.35,876.7125 1604.1094,877.3313 Q1604.8688,877.95 1606.2188,877.95 Q1607.0203,877.95 1607.5828,877.7672 Q1607.9063,877.6688 1608.2719,877.3453 Q1608.5109,877.1625 1608.6375,877.1063 Q1608.7641,877.05 1608.9188,877.05 Q1609.2141,877.05 1609.425,877.2891 Q1609.65,877.5141 1609.65,877.8375 Q1609.65,878.1469 1609.3406,878.5125 Q1608.8906,879.0469 1608.1734,879.3422 Q1607.2313,879.75 1606.0781,879.75 Q1604.7281,879.75 1603.6453,879.2156 Q1602.7734,878.7938 1602.1547,877.8797 Q1601.55,876.9656 1601.55,875.8828 L1601.55,874.8984 Q1601.55,873.7734 1602.0844,872.7891 Q1602.6328,871.8047 1603.575,871.2844 Q1604.5313,870.75 1605.6,870.75 Q1606.2469,870.75 1606.8094,870.975 Q1607.3719,871.2 1607.85,871.65 Z " fill="#000000"/><text fill="#000000" font-family="sans-serif" font-size="12.6" lengthAdjust="spacing" textLength="69.3" x="1618.65" y="879.9557">TextContent</text><line style="stroke:#181818;stroke-width:0.45;" x1="1593.45" x2="1689.75" y1="889.2" y2="889.2"/><line style="stroke:#181818;stroke-width:0.45;" x1="1593.45" x2="1689.75" y1="896.4" y2="896.4"/></g><!--MD5=[bc461e4afe53bd8ac245c7e413cbc420]
class ImageContent--><g id="elem_ImageContent"><rect codeLine="94" fill="#F1F1F1" height="43.2" id="ImageContent" rx="2.25" ry="2.25" style="stroke:#181818;stroke-width:0.45;" width="108" x="1727.1" y="860.4"/><ellipse cx="1740.6" cy="874.8" fill="#ADD1B2" rx="9.9" ry="9.9" style="stroke:#181818;stroke-width:0.9;"/><path d="M1742.4,871.65 Q1742.5828,871.2 1742.7938,870.975 Q1743.0047,870.75 1743.2438,870.75 Q1743.6656,870.75 1743.9328,871.0031 Q1744.2,871.2563 1744.2,871.8469 L1744.2,873.2531 Q1744.2,873.8438 1743.9469,874.0969 Q1743.6938,874.35 1743.3,874.35 Q1742.9484,874.35 1742.7234,874.1953 Q1742.4984,874.0406 1742.4,873.6328 Q1742.3578,873.3516 1742.2031,873.1969 Q1741.9219,872.9016 1741.4156,872.7328 Q1740.9094,872.55 1740.4031,872.55 Q1739.7703,872.55 1739.2359,872.8031 Q1738.7156,873.0563 1738.3078,873.6188 Q1737.9,874.1813 1737.9,874.9547 L1737.9,875.7844 Q1737.9,876.7125 1738.6594,877.3313 Q1739.4188,877.95 1740.7688,877.95 Q1741.5703,877.95 1742.1328,877.7672 Q1742.4563,877.6688 1742.8219,877.3453 Q1743.0609,877.1625 1743.1875,877.1063 Q1743.3141,877.05 1743.4688,877.05 Q1743.7641,877.05 1743.975,877.2891 Q1744.2,877.5141 1744.2,877.8375 Q1744.2,878.1469 1743.8906,878.5125 Q1743.4406,879.0469 1742.7234,879.3422 Q1741.7813,879.75 1740.6281,879.75 Q1739.2781,879.75 1738.1953,879.2156 Q1737.3234,878.7938 1736.7047,877.8797 Q1736.1,876.9656 1736.1,875.8828 L1736.1,874.8984 Q1736.1,873.7734 1736.6344,872.7891 Q1737.1828,871.8047 1738.125,871.2844 Q1739.0813,870.75 1740.15,870.75 Q1740.7969,870.75 1741.3594,870.975 Q1741.9219,871.2 1742.4,871.65 Z " fill="#000000"/><text fill="#000000" font-family="sans-serif" font-size="12.6" lengthAdjust="spacing" textLength="79.2" x="1753.2" y="879.9557">ImageContent</text><line style="stroke:#181818;stroke-width:0.45;" x1="1728" x2="1834.2" y1="889.2" y2="889.2"/><line style="stroke:#181818;stroke-width:0.45;" x1="1728" x2="1834.2" y1="896.4" y2="896.4"/></g><!--MD5=[f231bdc2037d7e99c0f9f97c75c90b8c]
link SystemUser to EmailAdderss--><g id="link_SystemUser_EmailAdderss"><path codeLine="101" d="M86.985,340.722 C95.508,359.937 106.641,381.69 119.7,399.6 C133.173,418.086 151.308,435.861 167.256,449.874 " fill="none" id="SystemUser-to-EmailAdderss" style="stroke:#181818;stroke-width:0.9;"/><polygon fill="#181818" points="170.838,452.979,167.0781,444.952,167.4387,450.0303,162.3603,450.3909,170.838,452.979" style="stroke:#181818;stroke-width:0.9;"/><text fill="#000000" font-family="sans-serif" font-size="11.7" lengthAdjust="spacing" textLength="6.3" x="156.726" y="443.3682">1</text></g><!--MD5=[a00b48498abbf4d3aa5edbf04235e8b3]
link SystemUser to Password--><g id="link_SystemUser_Password"><path codeLine="102" d="M68.634,340.722 C68.796,374.796 69.012,419.427 69.156,448.587 " fill="none" id="SystemUser-to-Password" style="stroke:#181818;stroke-width:0.9;"/><polygon fill="#181818" points="69.174,453.132,72.7277,445.0116,69.1483,448.6321,65.5278,445.0527,69.174,453.132" style="stroke:#181818;stroke-width:0.9;"/><text fill="#000000" font-family="sans-serif" font-size="11.7" lengthAdjust="spacing" textLength="6.3" x="62.1574" y="443.5547">1</text></g><!--MD5=[d3e2c3652565ddd10ca44b31c1cde3f1]
link SystemUser to Role--><g id="link_SystemUser_Role"><path codeLine="103" d="M96.408,340.929 C111.528,365.454 129.465,391.698 141.3,399.6 C190.566,432.486 218.511,400.761 271.8,426.6 C280.404,430.776 288.81,436.401 296.523,442.422 " fill="none" id="SystemUser-to-Role" style="stroke:#181818;stroke-width:0.9;"/><polygon fill="#181818" points="300.249,445.41,296.1834,437.5334,296.7389,442.5942,291.6781,443.1496,300.249,445.41" style="stroke:#181818;stroke-width:0.9;"/><text fill="#000000" font-family="sans-serif" font-size="11.7" lengthAdjust="spacing" textLength="6.3" x="294.816" y="435.7683">1</text></g><!--MD5=[707c0fa37bcadaff401ff5c196aecfd2]
link eCourseSystemUser to SystemUser--><g id="link_eCourseSystemUser_SystemUser"><path codeLine="105" d="M840.114,89.775 C659.277,94.275 198.594,109.386 141.3,147.6 C110.349,168.246 91.854,206.244 81.243,237.906 " fill="none" id="eCourseSystemUser-to-SystemUser" style="stroke:#181818;stroke-width:0.9;"/><polygon fill="#181818" points="79.74,242.523,85.6633,235.9287,81.1283,238.2425,78.8145,233.7075,79.74,242.523" style="stroke:#181818;stroke-width:0.9;"/><text fill="#000000" font-family="sans-serif" font-size="11.7" lengthAdjust="spacing" textLength="6.3" x="74.5405" y="232.7267">1</text></g><!--MD5=[928caa8145e9fdbdf7ce8b7a9388c5cf]
link eCourseSystemUser to Role--><g id="link_eCourseSystemUser_Role"><path codeLine="106" d="M840.015,90.675 C660.906,97.551 209.304,119.835 166.5,171 C140.067,202.599 147.06,320.076 166.5,356.4 C193.041,405.99 226.8,392.85 271.8,426.6 C278.361,431.523 285.147,436.905 291.717,442.278 " fill="none" id="eCourseSystemUser-to-Role" style="stroke:#181818;stroke-width:0.9;"/><polygon fill="#181818" points="295.344,445.266,291.3912,437.3322,291.8744,442.4004,286.8062,442.8835,295.344,445.266" style="stroke:#181818;stroke-width:0.9;"/><text fill="#000000" font-family="sans-serif" font-size="11.7" lengthAdjust="spacing" textLength="6.3" x="281.8758" y="435.8588">1</text></g><!--MD5=[226ee7e7935b9c6b2225cd96a015d9fc]
link eCourseSystemUser to UserStatus--><g id="link_eCourseSystemUser_UserStatus"><path codeLine="107" d="M840.078,89.244 C694.881,92.682 375.048,107.46 288.9,171 C264.663,188.874 249.309,219.141 240.039,244.764 " fill="none" id="eCourseSystemUser-to-UserStatus" style="stroke:#181818;stroke-width:0.9;"/><polygon fill="#181818" points="238.5,249.165,244.5763,242.7115,239.9883,244.9182,237.7815,240.3302,238.5,249.165" style="stroke:#181818;stroke-width:0.9;"/><text fill="#000000" font-family="sans-serif" font-size="11.7" lengthAdjust="spacing" textLength="6.3" x="233.3236" y="239.6489">1</text></g><!--MD5=[7fc0a473de4ea777906984eac7152d38]
link eCourseSystemUser to Acronym--><g id="link_eCourseSystemUser_Acronym"><path codeLine="108" d="M840.114,92.565 C719.631,101.079 484.83,123.39 418.5,171 C388.341,192.645 370.791,232.803 361.737,260.595 " fill="none" id="eCourseSystemUser-to-Acronym" style="stroke:#181818;stroke-width:0.9;"/><polygon fill="#181818" points="360.36,264.951,366.2416,258.3195,361.7212,260.6618,359.3789,256.1415,360.36,264.951" style="stroke:#181818;stroke-width:0.9;"/><text fill="#000000" font-family="sans-serif" font-size="11.7" lengthAdjust="spacing" textLength="6.3" x="354.8278" y="255.356">1</text></g><!--MD5=[410c4ff2c6c57b4ea47f0914b8fd4a56]
link eCourseSystemUser to NIF--><g id="link_eCourseSystemUser_NIF"><path codeLine="109" d="M839.808,97.515 C747.054,110.592 593.334,136.683 548.1,171 C518.616,193.365 500.949,233.172 491.679,260.703 " fill="none" id="eCourseSystemUser-to-NIF" style="stroke:#181818;stroke-width:0.9;"/><polygon fill="#181818" points="490.266,265.014,496.2072,258.4358,491.6659,260.7373,489.3644,256.196,490.266,265.014" style="stroke:#181818;stroke-width:0.9;"/><text fill="#000000" font-family="sans-serif" font-size="11.7" lengthAdjust="spacing" textLength="6.3" x="484.8008" y="255.4327">1</text></g><!--MD5=[4acda15f84181a880db022c57ecbea25]
link eCourseSystemUser to BirthDate--><g id="link_eCourseSystemUser_BirthDate"><path codeLine="110" d="M840.051,99.792 C790.011,110.907 724.491,131.994 678.6,171 C650.682,194.724 632.529,233.433 622.521,260.388 " fill="none" id="eCourseSystemUser-to-BirthDate" style="stroke:#181818;stroke-width:0.9;"/><polygon fill="#181818" points="620.865,264.942,627.0289,258.572,622.4111,260.7159,620.2672,256.0982,620.865,264.942" style="stroke:#181818;stroke-width:0.9;"/><text fill="#000000" font-family="sans-serif" font-size="11.7" lengthAdjust="spacing" textLength="6.3" x="615.6183" y="255.345">1</text></g><!--MD5=[66f04da9ec02c7096c76345605e618df]
link eCourseSystemUser to MechanographicNumber--><g id="link_eCourseSystemUser_MechanographicNumber"><path codeLine="111" d="M890.91,120.735 C866.556,157.266 827.127,216.405 801.792,254.403 " fill="none" id="eCourseSystemUser-to-MechanographicNumber" style="stroke:#181818;stroke-width:0.9;"/><polygon fill="#181818" points="799.236,258.246,806.7245,253.5033,801.7322,254.5018,800.7337,249.5095,799.236,258.246" style="stroke:#181818;stroke-width:0.9;"/><text fill="#000000" font-family="sans-serif" font-size="11.7" lengthAdjust="spacing" textLength="6.3" x="796.3444" y="248.5605">1</text></g><!--MD5=[659d153684b242d47cde3f84b74271f5]
link eCourseSystemUser to Grade--><g id="link_eCourseSystemUser_Grade"><path codeLine="112" d="M915.111,120.636 C916.299,134.028 917.883,149.688 919.8,163.8 C924.318,196.983 931.239,234.747 936.216,260.388 " fill="none" id="eCourseSystemUser-to-Grade" style="stroke:#181818;stroke-width:0.9;"/><polygon fill="#181818" points="937.125,265.032,939.1101,256.3932,936.2647,260.615,932.0429,257.7696,937.125,265.032" style="stroke:#181818;stroke-width:0.9;"/><polygon fill="#000000" points="924.972,160.3078,926.3718,151.8635,921.141,152.6534,924.972,160.3078" style="stroke:#000000;stroke-width:0.9;"/><text fill="#000000" font-family="sans-serif" font-size="11.7" lengthAdjust="spacing" textLength="71.1" x="932.4" y="160.6456">student has a</text><text fill="#000000" font-family="sans-serif" font-size="11.7" lengthAdjust="spacing" textLength="6.3" x="929.0039" y="255.4547">1</text></g><!--MD5=[3a52c12a79cc1f77a57a4b34d5446b6f]
link eCourseSystemUser to SharedBoard--><g id="link_eCourseSystemUser_SharedBoard"><path codeLine="113" d="M968.49,120.609 C981.756,128.952 995.643,138.231 1008,147.6 C1038.339,170.595 1069.704,198.351 1096.326,223.272 " fill="none" id="eCourseSystemUser-to-SharedBoard" style="stroke:#181818;stroke-width:0.9;"/><polygon fill="#181818" points="1099.881,226.611,1096.4329,218.4452,1096.5977,223.5337,1091.5092,223.6985,1099.881,226.611" style="stroke:#181818;stroke-width:0.9;"/><polygon fill="#000000" points="1034.0086,158.6759,1029.3177,151.5163,1026.0052,155.6409,1034.0086,158.6759" style="stroke:#000000;stroke-width:0.9;"/><text fill="#000000" font-family="sans-serif" font-size="11.7" lengthAdjust="spacing" textLength="27" x="1038.6" y="160.6456">owns</text><text fill="#000000" font-family="sans-serif" font-size="11.7" lengthAdjust="spacing" textLength="4.5" x="1088.4748" y="216.9176">*</text></g><!--MD5=[3a52c12a79cc1f77a57a4b34d5446b6f]
link eCourseSystemUser to SharedBoard--><g id="link_eCourseSystemUser_SharedBoard"><path codeLine="114" d="M985.131,104.031 C1014.849,113.139 1048.185,127.008 1073.7,147.6 C1098.378,167.517 1118.385,196.011 1133.28,222.345 " fill="none" id="eCourseSystemUser-to-SharedBoard-1" style="stroke:#181818;stroke-width:0.9;"/><polygon fill="#181818" points="1135.62,226.548,1134.8112,217.721,1133.4248,222.6198,1128.5261,221.2333,1135.62,226.548" style="stroke:#181818;stroke-width:0.9;"/><polygon fill="#000000" points="1090.8837,153.05,1095.5941,160.1969,1098.8953,156.0632,1090.8837,153.05" style="stroke:#000000;stroke-width:0.9;"/><text fill="#000000" font-family="sans-serif" font-size="11.7" lengthAdjust="spacing" textLength="48.6" x="1102.5" y="160.6456">shared to</text><text fill="#000000" font-family="sans-serif" font-size="11.7" lengthAdjust="spacing" textLength="4.5" x="1127.8994" y="216.8481">*</text></g><!--MD5=[11e0908c4520905629a7e288b8750e79]
link eCourseSystemUser to PostIt--><g id="link_eCourseSystemUser_PostIt"><path codeLine="115" d="M985.212,91.287 C1102.077,97.812 1324.332,117.135 1378.8,171 C1452.312,243.711 1400.463,298.467 1422,399.6 C1439.289,480.78 1461.753,573.687 1476.756,634.257 " fill="none" id="eCourseSystemUser-to-PostIt" style="stroke:#181818;stroke-width:0.9;"/><polygon fill="#181818" points="1477.908,638.928,1479.436,630.1967,1476.8166,634.5624,1472.4509,631.943,1477.908,638.928" style="stroke:#181818;stroke-width:0.9;"/><polygon fill="#000000" points="1429.5201,394.9942,1426.0176,387.1841,1422.0958,390.7344,1429.5201,394.9942" style="stroke:#000000;stroke-width:0.9;"/><text fill="#000000" font-family="sans-serif" font-size="11.7" lengthAdjust="spacing" textLength="48.6" x="1434.6" y="396.4456">creates a</text><text fill="#000000" font-family="sans-serif" font-size="11.7" lengthAdjust="spacing" textLength="4.5" x="1471.5003" y="629.1995">*</text></g><!--MD5=[11e0908c4520905629a7e288b8750e79]
link eCourseSystemUser to PostIt--><g id="link_eCourseSystemUser_PostIt"><path codeLine="116" d="M985.14,88.785 C1112.409,91.53 1367.613,105.3 1422,171 C1532.448,304.425 1519.407,525.123 1504.404,634.176 " fill="none" id="eCourseSystemUser-to-PostIt-1" style="stroke:#181818;stroke-width:0.9;"/><polygon fill="#181818" points="1503.774,638.649,1508.4712,631.1319,1504.4032,634.1932,1501.3419,630.1252,1503.774,638.649" style="stroke:#181818;stroke-width:0.9;"/><polygon fill="#000000" points="1516.003,394.9173,1512.3053,387.1977,1508.474,390.8454,1516.003,394.9173" style="stroke:#000000;stroke-width:0.9;"/><text fill="#000000" font-family="sans-serif" font-size="11.7" lengthAdjust="spacing" textLength="51.3" x="1521" y="396.4456">updates a</text><text fill="#000000" font-family="sans-serif" font-size="11.7" lengthAdjust="spacing" textLength="4.5" x="1500.1427" y="629.3188">*</text></g><!--MD5=[11e0908c4520905629a7e288b8750e79]
link eCourseSystemUser to PostIt--><g id="link_eCourseSystemUser_PostIt"><path codeLine="117" d="M985.221,88.56 C1122.993,90.828 1414.8,103.662 1485,171 C1619.145,299.673 1649.907,400.239 1589.4,576 C1577.601,610.272 1551.942,642.312 1530.072,665.145 " fill="none" id="eCourseSystemUser-to-PostIt-2" style="stroke:#181818;stroke-width:0.9;"/><polygon fill="#181818" points="1526.877,668.439,1535.1043,665.1404,1530.0137,665.2123,1529.9417,660.1217,1526.877,668.439" style="stroke:#181818;stroke-width:0.9;"/><polygon fill="#000000" points="1624.8907,394.9289,1621.222,387.1955,1617.3771,390.8288,1624.8907,394.9289" style="stroke:#000000;stroke-width:0.9;"/><text fill="#000000" font-family="sans-serif" font-size="11.7" lengthAdjust="spacing" textLength="47.7" x="1629.9" y="396.4456">deletes a</text><text fill="#000000" font-family="sans-serif" font-size="11.7" lengthAdjust="spacing" textLength="4.5" x="1533.9698" y="658.5412">*</text></g><!--MD5=[f86810595fa6c0f2eb1947b8b0d7e595]
link eCourseSystemUser to Content--><g id="link_eCourseSystemUser_Content"><path codeLine="118" d="M985.158,88.101 C1136.961,89.343 1481.355,100.107 1570.5,171 C1733.067,300.285 1741.806,586.701 1740.528,673.722 " fill="none" id="eCourseSystemUser-to-Content" style="stroke:#181818;stroke-width:0.9;"/><polygon fill="#181818" points="1740.447,678.447,1744.1853,670.4099,1740.5241,673.9477,1736.9864,670.2865,1740.447,678.447" style="stroke:#181818;stroke-width:0.9;"/><polygon fill="#000000" points="1713.5564,394.4154,1708.7435,387.3372,1705.5022,391.518,1713.5564,394.4154" style="stroke:#000000;stroke-width:0.9;"/><text fill="#000000" font-family="sans-serif" font-size="11.7" lengthAdjust="spacing" textLength="48.6" x="1718.1" y="396.4456">creates a</text><text fill="#000000" font-family="sans-serif" font-size="11.7" lengthAdjust="spacing" textLength="4.5" x="1735.5619" y="668.8139">*</text></g><!--MD5=[f86810595fa6c0f2eb1947b8b0d7e595]
link eCourseSystemUser to Content--><g id="link_eCourseSystemUser_Content"><path codeLine="119" d="M985.167,92.043 C1161.504,101.97 1601.901,130.563 1654.2,171 C1740.078,237.402 1747.08,278.442 1774.8,383.4 C1802.691,489.006 1766.466,620.154 1748.601,674.217 " fill="none" id="eCourseSystemUser-to-Content-1" style="stroke:#181818;stroke-width:0.9;"/><polygon fill="#181818" points="1747.143,678.591,1753.1256,672.0505,1748.5699,674.3232,1746.2972,669.7675,1747.143,678.591" style="stroke:#181818;stroke-width:0.9;"/><polygon fill="#000000" points="1786.4783,394.3869,1781.609,387.3474,1778.4012,391.5539,1786.4783,394.3869" style="stroke:#000000;stroke-width:0.9;"/><text fill="#000000" font-family="sans-serif" font-size="11.7" lengthAdjust="spacing" textLength="51.3" x="1791" y="396.4456">updates a</text><text fill="#000000" font-family="sans-serif" font-size="11.7" lengthAdjust="spacing" textLength="4.5" x="1743.9737" y="668.9948">*</text></g><!--MD5=[f86810595fa6c0f2eb1947b8b0d7e595]
link eCourseSystemUser to Content--><g id="link_eCourseSystemUser_Content"><path codeLine="120" d="M985.149,91.242 C1174.716,99.774 1674.333,126.306 1733.4,171 C1824.417,239.859 1866.762,286.641 1850.4,399.6 C1834.929,506.385 1779.048,623.934 1753.11,674.235 " fill="none" id="eCourseSystemUser-to-Content-2" style="stroke:#181818;stroke-width:0.9;"/><polygon fill="#181818" points="1750.995,678.312,1757.9158,672.7738,1753.0638,674.3157,1751.5218,669.4637,1750.995,678.312" style="stroke:#181818;stroke-width:0.9;"/><polygon fill="#000000" points="1860.2842,394.3791,1855.3996,387.3502,1852.201,391.5637,1860.2842,394.3791" style="stroke:#000000;stroke-width:0.9;"/><text fill="#000000" font-family="sans-serif" font-size="11.7" lengthAdjust="spacing" textLength="47.7" x="1864.8" y="396.4456">deletes a</text><text fill="#000000" font-family="sans-serif" font-size="11.7" lengthAdjust="spacing" textLength="4.5" x="1754.2966" y="669.006">*</text></g><!--MD5=[92114318fa0f002b6360b10d63032630]
link SharedBoard to RowCell--><g id="link_SharedBoard_RowCell"><path codeLine="122" d="M1178.541,356.616 C1184.094,382.194 1190.367,411.012 1195.416,434.241 " fill="none" id="SharedBoard-RowCell" style="stroke:#181818;stroke-width:0.9;"/><polygon fill="#000000" points="1192.5559,396.0555,1193.4113,387.5388,1188.242,388.6626,1192.5559,396.0555" style="stroke:#000000;stroke-width:0.9;"/><text fill="#000000" font-family="sans-serif" font-size="11.7" lengthAdjust="spacing" textLength="18.9" x="1199.7" y="396.4456">has</text><text fill="#000000" font-family="sans-serif" font-size="11.7" lengthAdjust="spacing" textLength="6.3" x="1173.3032" y="375.8756">1</text><text fill="#000000" font-family="sans-serif" font-size="11.7" lengthAdjust="spacing" textLength="26.1" x="1166.119" y="424.6146">1..20</text></g><!--MD5=[e982496c34a262e6ac5d6de623bcdb61]
link SharedBoard to ColumnCell--><g id="link_SharedBoard_ColumnCell"><path codeLine="123" d="M1138.581,356.616 C1128.204,382.194 1116.504,411.012 1107.081,434.241 " fill="none" id="SharedBoard-ColumnCell" style="stroke:#181818;stroke-width:0.9;"/><polygon fill="#000000" points="1129.6079,395.828,1135.1198,389.2794,1130.218,387.2902,1129.6079,395.828" style="stroke:#000000;stroke-width:0.9;"/><text fill="#000000" font-family="sans-serif" font-size="11.7" lengthAdjust="spacing" textLength="18.9" x="1139.4" y="396.4456">has</text><text fill="#000000" font-family="sans-serif" font-size="11.7" lengthAdjust="spacing" textLength="6.3" x="1129.4097" y="375.8756">1</text><text fill="#000000" font-family="sans-serif" font-size="11.7" lengthAdjust="spacing" textLength="26.1" x="1081.6885" y="424.6146">1..10</text></g><!--MD5=[0c1334670b83b881f020f86d43dfb209]
link SharedBoard to NormalCell--><g id="link_SharedBoard_NormalCell"><path codeLine="124" d="M1217.871,356.616 C1236.762,379.35 1257.786,404.649 1275.777,426.303 " fill="none" id="SharedBoard-NormalCell" style="stroke:#181818;stroke-width:0.9;"/><polygon fill="#000000" points="1258.3759,395.1193,1255.2077,387.1677,1251.139,390.5486,1258.3759,395.1193" style="stroke:#000000;stroke-width:0.9;"/><text fill="#000000" font-family="sans-serif" font-size="11.7" lengthAdjust="spacing" textLength="18.9" x="1263.6" y="396.4456">has</text><text fill="#000000" font-family="sans-serif" font-size="11.7" lengthAdjust="spacing" textLength="6.3" x="1216.5048" y="375.8756">1</text><text fill="#000000" font-family="sans-serif" font-size="11.7" lengthAdjust="spacing" textLength="18" x="1251.3636" y="416.6586">1..*</text></g><!--MD5=[a08461ec698270c29cbc5643e3d644e9]
link NormalCell to Cell--><g id="link_NormalCell_Cell"><path codeLine="126" d="M1292.022,532.98 C1274.031,567.414 1250.577,612.288 1232.568,646.749 " fill="none" id="NormalCell-to-Cell" style="stroke:#181818;stroke-width:0.9;"/><polygon fill="none" points="1238.13,649.701,1224.207,662.733,1226.961,643.86,1238.13,649.701" style="stroke:#181818;stroke-width:0.9;"/></g><!--MD5=[f008db0b635f5ada50fc34ba33a040fd]
link ColumnCell to Cell--><g id="link_ColumnCell_Cell"><path codeLine="127" d="M1112.778,525.384 C1131.417,560.493 1157.4,609.444 1177.056,646.47 " fill="none" id="ColumnCell-to-Cell" style="stroke:#181818;stroke-width:0.9;"/><polygon fill="none" points="1182.717,643.698,1185.588,662.553,1171.584,649.611,1182.717,643.698" style="stroke:#181818;stroke-width:0.9;"/></g><!--MD5=[8d830f574c373a6c836572ba76b0fa08]
link RowCell to Cell--><g id="link_RowCell_Cell"><path codeLine="128" d="M1205.1,525.384 C1205.1,559.863 1205.1,607.689 1205.1,644.463 " fill="none" id="RowCell-to-Cell" style="stroke:#181818;stroke-width:0.9;"/><polygon fill="none" points="1211.4,644.553,1205.1,662.553,1198.8,644.553,1211.4,644.553" style="stroke:#181818;stroke-width:0.9;"/></g><!--MD5=[d3682495e275fc82776efff098d72d16]
link NormalCell to Content--><g id="link_NormalCell_Content"><path codeLine="130" d="M1364.508,499.725 C1410.057,519.417 1482.129,551.592 1542.6,583.2 C1601.73,614.106 1668.132,654.444 1706.805,678.528 " fill="none" id="NormalCell-Content" style="stroke:#181818;stroke-width:0.9;"/><polygon fill="#000000" points="1533.0886,570.1417,1527.0978,564.0282,1524.6485,568.7171,1533.0886,570.1417" style="stroke:#000000;stroke-width:0.9;"/><text fill="#000000" font-family="sans-serif" font-size="11.7" lengthAdjust="spacing" textLength="44.1" x="1537.2" y="572.8456">contains</text><text fill="#000000" font-family="sans-serif" font-size="11.7" lengthAdjust="spacing" textLength="4.5" x="1371.4637" y="499.3486">*</text><text fill="#000000" font-family="sans-serif" font-size="11.7" lengthAdjust="spacing" textLength="4.5" x="1693.2991" y="668.9157">*</text></g><!--MD5=[ed2d42a3fcfdb9e5d186610664b30db7]
link NormalCell to PostIt--><g id="link_NormalCell_PostIt"><path codeLine="131" d="M1322.208,533.043 C1325.574,548.766 1331.955,564.795 1343.7,576 C1355.22,586.989 1364.805,575.595 1378.8,583.2 C1410.363,600.354 1438.74,629.055 1459.323,653.634 " fill="none" id="NormalCell-PostIt" style="stroke:#181818;stroke-width:0.9;"/><polygon fill="#000000" points="1351.5791,571.0301,1347.2131,563.6678,1343.7195,567.6401,1351.5791,571.0301" style="stroke:#000000;stroke-width:0.9;"/><text fill="#000000" font-family="sans-serif" font-size="11.7" lengthAdjust="spacing" textLength="44.1" x="1356.3" y="572.8456">contains</text><text fill="#000000" font-family="sans-serif" font-size="11.7" lengthAdjust="spacing" textLength="4.5" x="1317.776" y="552.5626">*</text><text fill="#000000" font-family="sans-serif" font-size="11.7" lengthAdjust="spacing" textLength="4.5" x="1447.7302" y="640.8214">*</text></g><!--MD5=[8a638b3969a34d355c20865734a53abc]
link Content to TextContent--><g id="link_Content_TextContent"><path codeLine="133" d="M1735.029,721.854 C1729.638,743.427 1719.549,777.744 1704.6,804.6 C1693.134,825.192 1675.899,845.658 1662.354,860.229 " fill="none" id="Content-TextContent" style="stroke:#181818;stroke-width:0.9;"/><polygon fill="#000000" points="1714.2076,800.6422,1720.3345,794.665,1715.6511,792.2052,1714.2076,800.6422" style="stroke:#000000;stroke-width:0.9;"/><text fill="#000000" font-family="sans-serif" font-size="11.7" lengthAdjust="spacing" textLength="18.9" x="1724.4" y="801.4456">is a</text><text fill="#000000" font-family="sans-serif" font-size="11.7" lengthAdjust="spacing" textLength="4.5" x="1728.842" y="741.0713">*</text><text fill="#000000" font-family="sans-serif" font-size="11.7" lengthAdjust="spacing" textLength="4.5" x="1662.5957" y="850.5913">*</text></g><!--MD5=[cf9cbbaa217fe4f8964351596a2ce37f]
link Content to ImageContent--><g id="link_Content_ImageContent"><path codeLine="134" d="M1749.609,722.106 C1757.331,739.476 1767.627,765 1773,788.4 C1778.571,812.646 1780.371,841.266 1780.92,860.229 " fill="none" id="Content-ImageContent" style="stroke:#181818;stroke-width:0.9;"/><polygon fill="#000000" points="1781.1949,801.0469,1781.9747,792.5229,1776.8156,793.6925,1781.1949,801.0469" style="stroke:#000000;stroke-width:0.9;"/><text fill="#000000" font-family="sans-serif" font-size="11.7" lengthAdjust="spacing" textLength="18.9" x="1788.3" y="801.4456">is a</text><text fill="#000000" font-family="sans-serif" font-size="11.7" lengthAdjust="spacing" textLength="4.5" x="1746.8801" y="741.019">*</text><text fill="#000000" font-family="sans-serif" font-size="11.7" lengthAdjust="spacing" textLength="4.5" x="1775.7973" y="850.5913">*</text></g><!--MD5=[266aa7a1b8b1278c70914b8105a07ed5]
link Content to MovementType--><g id="link_Content_MovementType"><path codeLine="135" d="M1702.584,719.667 C1671.408,735.984 1626.3,761.301 1590.3,788.4 C1573.164,801.306 1555.785,816.903 1540.557,831.6 " fill="none" id="Content-MovementType" style="stroke:#181818;stroke-width:0.9;"/><polygon fill="#000000" points="1591.0976,799.2159,1599.2987,796.7652,1596.2919,792.4127,1591.0976,799.2159" style="stroke:#000000;stroke-width:0.9;"/><text fill="#000000" font-family="sans-serif" font-size="11.7" lengthAdjust="spacing" textLength="28.8" x="1602.9" y="801.4456">has a</text><text fill="#000000" font-family="sans-serif" font-size="11.7" lengthAdjust="spacing" textLength="4.5" x="1691.0719" y="719.6258">*</text><text fill="#000000" font-family="sans-serif" font-size="11.7" lengthAdjust="spacing" textLength="4.5" x="1542.1317" y="821.6552">*</text></g><!--MD5=[8d697eafcbc8e51a4d9d02e4410e7489]
link PostIt to TextContent--><g id="link_PostIt_TextContent"><path codeLine="137" d="M1501.776,761.607 C1506.042,776.709 1512.405,792.135 1521.9,804.6 C1536.03,823.158 1547.172,819.153 1566.9,831.6 C1581.507,840.816 1597.491,851.346 1610.91,860.319 " fill="none" id="PostIt-TextContent" style="stroke:#181818;stroke-width:0.9;"/><polygon fill="#000000" points="1529.7373,799.6768,1525.4743,792.2544,1521.9257,796.1777,1529.7373,799.6768" style="stroke:#000000;stroke-width:0.9;"/><text fill="#000000" font-family="sans-serif" font-size="11.7" lengthAdjust="spacing" textLength="18.9" x="1534.5" y="801.4456">is a</text><text fill="#000000" font-family="sans-serif" font-size="11.7" lengthAdjust="spacing" textLength="4.5" x="1497.9387" y="780.8418">*</text><text fill="#000000" font-family="sans-serif" font-size="11.7" lengthAdjust="spacing" textLength="4.5" x="1597.9691" y="850.7044">*</text></g><!--MD5=[78398f28da8318fa7201bf4d2bf3b5f5]
link PostIt to ImageContent--><g id="link_PostIt_ImageContent"><path codeLine="138" d="M1526.967,721.269 C1569.249,746.577 1643.652,791.523 1706.4,831.6 C1720.953,840.897 1736.928,851.436 1750.356,860.391 " fill="none" id="PostIt-ImageContent" style="stroke:#181818;stroke-width:0.9;"/><polygon fill="#000000" points="1667.9198,799.0371,1662.408,792.4884,1659.6114,796.9789,1667.9198,799.0371" style="stroke:#000000;stroke-width:0.9;"/><text fill="#000000" font-family="sans-serif" font-size="11.7" lengthAdjust="spacing" textLength="18.9" x="1672.2" y="801.4456">is a</text><text fill="#000000" font-family="sans-serif" font-size="11.7" lengthAdjust="spacing" textLength="4.5" x="1534.0775" y="721.7721">*</text><text fill="#000000" font-family="sans-serif" font-size="11.7" lengthAdjust="spacing" textLength="4.5" x="1737.4013" y="850.7948">*</text></g><!--MD5=[9674e416dc365545ceadb9c8e4ea1f9a]
link PostIt to MovementType--><g id="link_PostIt_MovementType"><path codeLine="139" d="M1459.332,739.737 C1446.768,758.709 1437.003,782.253 1443.6,804.6 C1446.291,813.699 1450.431,822.744 1455.21,831.249 " fill="none" id="PostIt-MovementType" style="stroke:#181818;stroke-width:0.9;"/><polygon fill="#000000" points="1447.8975,801.1536,1450.9062,793.1403,1445.6215,792.9023,1447.8975,801.1536" style="stroke:#000000;stroke-width:0.9;"/><text fill="#000000" font-family="sans-serif" font-size="11.7" lengthAdjust="spacing" textLength="28.8" x="1456.2" y="801.4456">has a</text><text fill="#000000" font-family="sans-serif" font-size="11.7" lengthAdjust="spacing" textLength="4.5" x="1447.741" y="743.8759">*</text><text fill="#000000" font-family="sans-serif" font-size="11.7" lengthAdjust="spacing" textLength="4.5" x="1445.8179" y="821.9768">*</text></g><!--MD5=[566a57900b3b342da7c845b7c3122ad2]
@startuml
'https://plantuml.com/sequence-diagram


package "ECOURSESYSTEMUSER" <<Aggregate>> {

    class SystemUser <<root>> <<Entity>> {
        * Name
        * Username
    }

    class eCourseSystemUser <<root>> <<Entity>> {

    }

    class EmailAdderss <<Value object>>

    class Role <<Entity>> {
        * String name
    }

    class UserStatus <<enum>> {
        + ENABLE
        + DISABLE
    }

    class Password <<value object>>

    class Acronym <<value object>>

    class NIF <<value object>>

    class BirthDate <<value object>>

    class MechanographicNumber <<value object>> <<automatically generated>>

    class Grade <<value object>>

}


package "SHAREBOARD" <<aggregate>> {
    class SharedBoard <<root>> <<entity>> {
        * id <<unique>> <<automatically generated>>
        * boradName
        * maxRows
        * maxColumns
    }

    class Cell {
        * id
        * content
    }

    class NormalCell {
        * id
        * row
        * column
        * content
    }

    class ColumnCell {
        * id
        * columnTittle
        * column
    }

    class RowCell {
        * id
        * rowTittle
        * row
    }
}

package "Post-It" <<agreggate>> {

    class PostIt{
        * id
        * title
        * content
        * color
        * position
    }

    class Content

    class MovementType <<enum>> {
        - UPDATE
        - CREATE
        - DELETE
    }

    class TextContent

    class ImageContent
}



'Relationships

SystemUser - -> "1" EmailAdderss
SystemUser - -> "1" Password
SystemUser - -> "1" Role

eCourseSystemUser - -> "1" SystemUser
eCourseSystemUser - -> "1" Role
eCourseSystemUser - -> "1" UserStatus
eCourseSystemUser - -> "1" Acronym
eCourseSystemUser - -> "1" NIF
eCourseSystemUser - -> "1" BirthDate
eCourseSystemUser - -> "1" MechanographicNumber
eCourseSystemUser - -> "1" Grade : student has a >
eCourseSystemUser - -> "*" SharedBoard : owns >
eCourseSystemUser - -> "*" SharedBoard : shared to <
eCourseSystemUser - -> "*" PostIt : creates a >
eCourseSystemUser - -> "*" PostIt : updates a >
eCourseSystemUser - -> "*" PostIt : deletes a >
eCourseSystemUser - -> "*" Content : creates a >
eCourseSystemUser - -> "*" Content : updates a >
eCourseSystemUser - -> "*" Content : deletes a >

SharedBoard "1" - - "1..20" RowCell : has >
SharedBoard "1" - - "1..10" ColumnCell : has >
SharedBoard "1" - - "1..*" NormalCell : has >

NormalCell - -|> Cell
ColumnCell - -|> Cell
RowCell - -|> Cell

NormalCell "*" - - "*" Content : contains >
NormalCell "*" - - "*" PostIt : contains >

Content "*" - - "*" TextContent : is a >
Content "*" - - "*" ImageContent : is a >
Content "*" - - "*" MovementType : has a >

PostIt "*" - - "*" TextContent : is a >
PostIt "*" - - "*" ImageContent : is a >
PostIt "*" - - "*" MovementType : has a >

@enduml

@startuml


package "ECOURSESYSTEMUSER" <<Aggregate>> {

    class SystemUser <<root>> <<Entity>> {
        * Name
        * Username
    }

    class eCourseSystemUser <<root>> <<Entity>> {

    }

    class EmailAdderss <<Value object>>

    class Role <<Entity>> {
        * String name
    }

    class UserStatus <<enum>> {
        + ENABLE
        + DISABLE
    }

    class Password <<value object>>

    class Acronym <<value object>>

    class NIF <<value object>>

    class BirthDate <<value object>>

    class MechanographicNumber <<value object>> <<automatically generated>>

    class Grade <<value object>>

}


package "SHAREBOARD" <<aggregate>> {
    class SharedBoard <<root>> <<entity>> {
        * id <<unique>> <<automatically generated>>
        * boradName
        * maxRows
        * maxColumns
    }

    class Cell {
        * id
        * content
    }

    class NormalCell {
        * id
        * row
        * column
        * content
    }

    class ColumnCell {
        * id
        * columnTittle
        * column
    }

    class RowCell {
        * id
        * rowTittle
        * row
    }
}

package "Post-It" <<agreggate>> {

    class PostIt{
        * id
        * title
        * content
        * color
        * position
    }

    class Content

    class MovementType <<enum>> {
        - UPDATE
        - CREATE
        - DELETE
    }

    class TextContent

    class ImageContent
}




SystemUser - -> "1" EmailAdderss
SystemUser - -> "1" Password
SystemUser - -> "1" Role

eCourseSystemUser - -> "1" SystemUser
eCourseSystemUser - -> "1" Role
eCourseSystemUser - -> "1" UserStatus
eCourseSystemUser - -> "1" Acronym
eCourseSystemUser - -> "1" NIF
eCourseSystemUser - -> "1" BirthDate
eCourseSystemUser - -> "1" MechanographicNumber
eCourseSystemUser - -> "1" Grade : student has a >
eCourseSystemUser - -> "*" SharedBoard : owns >
eCourseSystemUser - -> "*" SharedBoard : shared to <
eCourseSystemUser - -> "*" PostIt : creates a >
eCourseSystemUser - -> "*" PostIt : updates a >
eCourseSystemUser - -> "*" PostIt : deletes a >
eCourseSystemUser - -> "*" Content : creates a >
eCourseSystemUser - -> "*" Content : updates a >
eCourseSystemUser - -> "*" Content : deletes a >

SharedBoard "1" - - "1..20" RowCell : has >
SharedBoard "1" - - "1..10" ColumnCell : has >
SharedBoard "1" - - "1..*" NormalCell : has >

NormalCell - -|> Cell
ColumnCell - -|> Cell
RowCell - -|> Cell

NormalCell "*" - - "*" Content : contains >
NormalCell "*" - - "*" PostIt : contains >

Content "*" - - "*" TextContent : is a >
Content "*" - - "*" ImageContent : is a >
Content "*" - - "*" MovementType : has a >

PostIt "*" - - "*" TextContent : is a >
PostIt "*" - - "*" ImageContent : is a >
PostIt "*" - - "*" MovementType : has a >

@enduml

PlantUML version 1.2022.12(Sun Oct 23 19:12:26 BST 2022)
(GPL source distribution)
Java Runtime: OpenJDK Runtime Environment
JVM: OpenJDK 64-Bit Server VM
Default Encoding: Cp1252
Language: pt
Country: PT
--></g></svg>