<?xml version="1.0" encoding="UTF-8" standalone="no"?><svg xmlns="http://www.w3.org/2000/svg" xmlns:xlink="http://www.w3.org/1999/xlink" contentStyleType="text/css" height="1244px" preserveAspectRatio="none" style="width:2865px;height:1244px;background:#FFFFFF;" version="1.1" viewBox="0 0 2865 1244" width="2865px" zoomAndPan="magnify"><defs/><g><rect fill="#FFFFFF" height="1019.6641" style="stroke:#181818;stroke-width:1.0;" width="10" x="17.5" y="118.5703"/><rect fill="#FFFFFF" height="433.5703" style="stroke:#181818;stroke-width:1.0;" width="10" x="451.5" y="118.5703"/><rect fill="#FFFFFF" height="30.3516" style="stroke:#181818;stroke-width:1.0;" width="10" x="451.5" y="582.4922"/><rect fill="#FFFFFF" height="486.0391" style="stroke:#181818;stroke-width:1.0;" width="10" x="451.5" y="643.1953"/><rect fill="#FFFFFF" height="73.7031" style="stroke:#181818;stroke-width:1.0;" width="10" x="631.5" y="148.9219"/><rect fill="#FFFFFF" height="268.8125" style="stroke:#181818;stroke-width:1.0;" width="10" x="899.5" y="252.9766"/><rect fill="#FFFFFF" height="425.3359" style="stroke:#181818;stroke-width:1.0;" width="10" x="899.5" y="673.5469"/><rect fill="#FFFFFF" height="394.9844" style="stroke:#181818;stroke-width:1.0;" width="10" x="1429.5" y="703.8984"/><rect fill="#FFFFFF" height="208.1094" style="stroke:#181818;stroke-width:1.0;" width="10" x="1604.5" y="283.3281"/><rect fill="#FFFFFF" height="147.4063" style="stroke:#181818;stroke-width:1.0;" width="10" x="2034.5" y="313.6797"/><rect fill="#FFFFFF" height="30.3516" style="stroke:#181818;stroke-width:1.0;" width="10" x="2803.5" y="1038.1797"/><line style="stroke:#181818;stroke-width:0.5;stroke-dasharray:5.0,5.0;" x1="22" x2="22" y1="86.2188" y2="1147.2344"/><line style="stroke:#181818;stroke-width:0.5;stroke-dasharray:5.0,5.0;" x1="456" x2="456" y1="86.2188" y2="1147.2344"/><line style="stroke:#181818;stroke-width:0.5;stroke-dasharray:5.0,5.0;" x1="636.5" x2="636.5" y1="86.2188" y2="1147.2344"/><line style="stroke:#181818;stroke-width:0.5;stroke-dasharray:5.0,5.0;" x1="904" x2="904" y1="86.2188" y2="1147.2344"/><line style="stroke:#181818;stroke-width:0.5;stroke-dasharray:5.0,5.0;" x1="1434.5" x2="1434.5" y1="86.2188" y2="1147.2344"/><line style="stroke:#181818;stroke-width:0.5;stroke-dasharray:5.0,5.0;" x1="1609.5" x2="1609.5" y1="86.2188" y2="1147.2344"/><line style="stroke:#181818;stroke-width:0.5;stroke-dasharray:5.0,5.0;" x1="1772.5" x2="1772.5" y1="86.2188" y2="1147.2344"/><line style="stroke:#181818;stroke-width:0.5;stroke-dasharray:5.0,5.0;" x1="2039.5" x2="2039.5" y1="86.2188" y2="1147.2344"/><line style="stroke:#181818;stroke-width:0.5;stroke-dasharray:5.0,5.0;" x1="2210" x2="2210" y1="752.0078" y2="1147.2344"/><line style="stroke:#181818;stroke-width:0.5;stroke-dasharray:5.0,5.0;" x1="2304" x2="2304" y1="813.6445" y2="1147.2344"/><line style="stroke:#181818;stroke-width:0.5;stroke-dasharray:5.0,5.0;" x1="2444" x2="2444" y1="875.2813" y2="1147.2344"/><line style="stroke:#181818;stroke-width:0.5;stroke-dasharray:5.0,5.0;" x1="2579" x2="2579" y1="935.5" y2="1147.2344"/><line style="stroke:#181818;stroke-width:0.5;stroke-dasharray:5.0,5.0;" x1="2693" x2="2693" y1="995.7188" y2="1147.2344"/><line style="stroke:#181818;stroke-width:0.5;stroke-dasharray:5.0,5.0;" x1="2808" x2="2808" y1="86.2188" y2="1147.2344"/><text fill="#000000" font-family="sans-serif" font-size="14" lengthAdjust="spacing" textLength="29" x="5" y="83.1426">User</text><ellipse cx="22.5" cy="17.1094" fill="#E2E2F0" rx="8" ry="8" style="stroke:#181818;stroke-width:0.5;"/><path d="M22.5,25.1094 L22.5,52.1094 M9.5,33.1094 L35.5,33.1094 M22.5,52.1094 L9.5,67.1094 M22.5,52.1094 L35.5,67.1094 " fill="none" style="stroke:#181818;stroke-width:0.5;"/><text fill="#000000" font-family="sans-serif" font-size="14" lengthAdjust="spacing" textLength="29" x="5" y="1160.7676">User</text><ellipse cx="22.5" cy="1172.3438" fill="#E2E2F0" rx="8" ry="8" style="stroke:#181818;stroke-width:0.5;"/><path d="M22.5,1180.3438 L22.5,1207.3438 M9.5,1188.3438 L35.5,1188.3438 M22.5,1207.3438 L9.5,1222.3438 M22.5,1207.3438 L35.5,1222.3438 " fill="none" style="stroke:#181818;stroke-width:0.5;"/><rect fill="#E2E2F0" height="31.6094" rx="2.5" ry="2.5" style="stroke:#181818;stroke-width:0.5;" width="115" x="399" y="53.6094"/><text fill="#000000" font-family="sans-serif" font-size="14" lengthAdjust="spacing" textLength="101" x="406" y="75.1426">:ChangePostItUI</text><rect fill="#E2E2F0" height="31.6094" rx="2.5" ry="2.5" style="stroke:#181818;stroke-width:0.5;" width="115" x="399" y="1146.2344"/><text fill="#000000" font-family="sans-serif" font-size="14" lengthAdjust="spacing" textLength="101" x="406" y="1167.7676">:ChangePostItUI</text><rect fill="#E2E2F0" height="49.2188" rx="2.5" ry="2.5" style="stroke:#181818;stroke-width:0.5;" width="136" x="568.5" y="36"/><text fill="#000000" font-family="sans-serif" font-size="14" font-style="italic" lengthAdjust="spacing" textLength="55" x="609" y="57.5332">«server»</text><text fill="#000000" font-family="sans-serif" font-size="14" lengthAdjust="spacing" textLength="122" x="575.5" y="75.1426">:ShareBoardServer</text><rect fill="#E2E2F0" height="49.2188" rx="2.5" ry="2.5" style="stroke:#181818;stroke-width:0.5;" width="136" x="568.5" y="1146.2344"/><text fill="#000000" font-family="sans-serif" font-size="14" font-style="italic" lengthAdjust="spacing" textLength="55" x="609" y="1167.7676">«server»</text><text fill="#000000" font-family="sans-serif" font-size="14" lengthAdjust="spacing" textLength="122" x="575.5" y="1185.377">:ShareBoardServer</text><rect fill="#E2E2F0" height="31.6094" rx="2.5" ry="2.5" style="stroke:#181818;stroke-width:0.5;" width="165" x="822" y="53.6094"/><text fill="#000000" font-family="sans-serif" font-size="14" lengthAdjust="spacing" textLength="151" x="829" y="75.1426">:ChangePostItController</text><rect fill="#E2E2F0" height="31.6094" rx="2.5" ry="2.5" style="stroke:#181818;stroke-width:0.5;" width="165" x="822" y="1146.2344"/><text fill="#000000" font-family="sans-serif" font-size="14" lengthAdjust="spacing" textLength="151" x="829" y="1167.7676">:ChangePostItController</text><rect fill="#E2E2F0" height="49.2188" rx="2.5" ry="2.5" style="stroke:#181818;stroke-width:0.5;" width="146" x="1361.5" y="36"/><text fill="#000000" font-family="sans-serif" font-size="14" font-style="italic" lengthAdjust="spacing" textLength="60" x="1404.5" y="57.5332">«service»</text><text fill="#000000" font-family="sans-serif" font-size="14" lengthAdjust="spacing" textLength="132" x="1368.5" y="75.1426">ChangePostItService</text><rect fill="#E2E2F0" height="49.2188" rx="2.5" ry="2.5" style="stroke:#181818;stroke-width:0.5;" width="146" x="1361.5" y="1146.2344"/><text fill="#000000" font-family="sans-serif" font-size="14" font-style="italic" lengthAdjust="spacing" textLength="60" x="1404.5" y="1167.7676">«service»</text><text fill="#000000" font-family="sans-serif" font-size="14" lengthAdjust="spacing" textLength="132" x="1368.5" y="1185.377">ChangePostItService</text><rect fill="#E2E2F0" height="49.2188" rx="2.5" ry="2.5" style="stroke:#181818;stroke-width:0.5;" width="184" x="1517.5" y="36"/><text fill="#000000" font-family="sans-serif" font-size="14" font-style="italic" lengthAdjust="spacing" textLength="60" x="1579.5" y="57.5332">«service»</text><text fill="#000000" font-family="sans-serif" font-size="14" lengthAdjust="spacing" textLength="170" x="1524.5" y="75.1426">:UserAccessBoardsService</text><rect fill="#E2E2F0" height="49.2188" rx="2.5" ry="2.5" style="stroke:#181818;stroke-width:0.5;" width="184" x="1517.5" y="1146.2344"/><text fill="#000000" font-family="sans-serif" font-size="14" font-style="italic" lengthAdjust="spacing" textLength="60" x="1579.5" y="1167.7676">«service»</text><text fill="#000000" font-family="sans-serif" font-size="14" lengthAdjust="spacing" textLength="170" x="1524.5" y="1185.377">:UserAccessBoardsService</text><text fill="#000000" font-family="sans-serif" font-size="14" font-style="italic" lengthAdjust="spacing" textLength="79" x="1730" y="65.5332">«repository»</text><text fill="#000000" font-family="sans-serif" font-size="14" lengthAdjust="spacing" textLength="116" x="1711.5" y="83.1426">RepositoryFactory</text><path d="M1754.5,15 C1754.5,5 1772.5,5 1772.5,5 C1772.5,5 1790.5,5 1790.5,15 L1790.5,41 C1790.5,51 1772.5,51 1772.5,51 C1772.5,51 1754.5,51 1754.5,41 L1754.5,15 " fill="#E2E2F0" style="stroke:#181818;stroke-width:1.5;"/><path d="M1754.5,15 C1754.5,25 1772.5,25 1772.5,25 C1772.5,25 1790.5,25 1790.5,15 " fill="none" style="stroke:#181818;stroke-width:1.5;"/><text fill="#000000" font-family="sans-serif" font-size="14" font-style="italic" lengthAdjust="spacing" textLength="79" x="1730" y="1160.7676">«repository»</text><text fill="#000000" font-family="sans-serif" font-size="14" lengthAdjust="spacing" textLength="116" x="1711.5" y="1178.377">RepositoryFactory</text><path d="M1754.5,1191.4531 C1754.5,1181.4531 1772.5,1181.4531 1772.5,1181.4531 C1772.5,1181.4531 1790.5,1181.4531 1790.5,1191.4531 L1790.5,1217.4531 C1790.5,1227.4531 1772.5,1227.4531 1772.5,1227.4531 C1772.5,1227.4531 1754.5,1227.4531 1754.5,1217.4531 L1754.5,1191.4531 " fill="#E2E2F0" style="stroke:#181818;stroke-width:1.5;"/><path d="M1754.5,1191.4531 C1754.5,1201.4531 1772.5,1201.4531 1772.5,1201.4531 C1772.5,1201.4531 1790.5,1201.4531 1790.5,1191.4531 " fill="none" style="stroke:#181818;stroke-width:1.5;"/><text fill="#000000" font-family="sans-serif" font-size="14" font-style="italic" lengthAdjust="spacing" textLength="79" x="1997" y="65.5332">«repository»</text><text fill="#000000" font-family="sans-serif" font-size="14" lengthAdjust="spacing" textLength="144" x="1964.5" y="83.1426">ShareBoardRepository</text><path d="M2021.5,15 C2021.5,5 2039.5,5 2039.5,5 C2039.5,5 2057.5,5 2057.5,15 L2057.5,41 C2057.5,51 2039.5,51 2039.5,51 C2039.5,51 2021.5,51 2021.5,41 L2021.5,15 " fill="#E2E2F0" style="stroke:#181818;stroke-width:1.5;"/><path d="M2021.5,15 C2021.5,25 2039.5,25 2039.5,25 C2039.5,25 2057.5,25 2057.5,15 " fill="none" style="stroke:#181818;stroke-width:1.5;"/><text fill="#000000" font-family="sans-serif" font-size="14" font-style="italic" lengthAdjust="spacing" textLength="79" x="1997" y="1160.7676">«repository»</text><text fill="#000000" font-family="sans-serif" font-size="14" lengthAdjust="spacing" textLength="144" x="1964.5" y="1178.377">ShareBoardRepository</text><path d="M2021.5,1191.4531 C2021.5,1181.4531 2039.5,1181.4531 2039.5,1181.4531 C2039.5,1181.4531 2057.5,1181.4531 2057.5,1191.4531 L2057.5,1217.4531 C2057.5,1227.4531 2039.5,1227.4531 2039.5,1227.4531 C2039.5,1227.4531 2021.5,1227.4531 2021.5,1217.4531 L2021.5,1191.4531 " fill="#E2E2F0" style="stroke:#181818;stroke-width:1.5;"/><path d="M2021.5,1191.4531 C2021.5,1201.4531 2039.5,1201.4531 2039.5,1201.4531 C2039.5,1201.4531 2057.5,1201.4531 2057.5,1191.4531 " fill="none" style="stroke:#181818;stroke-width:1.5;"/><rect fill="#E2E2F0" height="49.2188" rx="2.5" ry="2.5" style="stroke:#181818;stroke-width:0.5;" width="55" x="2183" y="1146.2344"/><text fill="#000000" font-family="sans-serif" font-size="14" lengthAdjust="spacing" textLength="41" x="2190" y="1167.7676">board:</text><text fill="#000000" font-family="sans-serif" font-size="14" lengthAdjust="spacing" textLength="38" x="2191.5" y="1185.377">Board</text><rect fill="#E2E2F0" height="49.2188" rx="2.5" ry="2.5" style="stroke:#181818;stroke-width:0.5;" width="112" x="2248" y="1146.2344"/><text fill="#000000" font-family="sans-serif" font-size="14" lengthAdjust="spacing" textLength="98" x="2255" y="1167.7676">boardChanges:</text><text fill="#000000" font-family="sans-serif" font-size="14" lengthAdjust="spacing" textLength="95" x="2256.5" y="1185.377">BoardChanges</text><rect fill="#E2E2F0" height="49.2188" rx="2.5" ry="2.5" style="stroke:#181818;stroke-width:0.5;" width="149" x="2370" y="1146.2344"/><text fill="#000000" font-family="sans-serif" font-size="14" lengthAdjust="spacing" textLength="135" x="2377" y="1167.7676">boardChangedEvent:</text><text fill="#000000" font-family="sans-serif" font-size="14" lengthAdjust="spacing" textLength="132" x="2378.5" y="1185.377">BoardChangedEvent</text><rect fill="#E2E2F0" height="49.2188" rx="2.5" ry="2.5" style="stroke:#181818;stroke-width:0.5;" width="100" x="2529" y="1146.2344"/><text fill="#000000" font-family="sans-serif" font-size="14" lengthAdjust="spacing" textLength="86" x="2536" y="1167.7676">domainEvent:</text><text fill="#000000" font-family="sans-serif" font-size="14" lengthAdjust="spacing" textLength="84" x="2537" y="1185.377">DomainEvent</text><rect fill="#E2E2F0" height="49.2188" rx="2.5" ry="2.5" style="stroke:#181818;stroke-width:0.5;" width="109" x="2639" y="1146.2344"/><text fill="#000000" font-family="sans-serif" font-size="14" lengthAdjust="spacing" textLength="62" x="2662.5" y="1167.7676">publisher:</text><text fill="#000000" font-family="sans-serif" font-size="14" lengthAdjust="spacing" textLength="95" x="2646" y="1185.377">EventPublisher</text><rect fill="#E2E2F0" height="49.2188" rx="2.5" ry="2.5" style="stroke:#181818;stroke-width:0.5;" width="101" x="2758" y="36"/><text fill="#000000" font-family="sans-serif" font-size="14" font-style="italic" lengthAdjust="spacing" textLength="64" x="2776.5" y="57.5332">«mapper»</text><text fill="#000000" font-family="sans-serif" font-size="14" lengthAdjust="spacing" textLength="87" x="2765" y="75.1426">:PostItMapper</text><rect fill="#E2E2F0" height="49.2188" rx="2.5" ry="2.5" style="stroke:#181818;stroke-width:0.5;" width="101" x="2758" y="1146.2344"/><text fill="#000000" font-family="sans-serif" font-size="14" font-style="italic" lengthAdjust="spacing" textLength="64" x="2776.5" y="1167.7676">«mapper»</text><text fill="#000000" font-family="sans-serif" font-size="14" lengthAdjust="spacing" textLength="87" x="2765" y="1185.377">:PostItMapper</text><rect fill="#FFFFFF" height="1019.6641" style="stroke:#181818;stroke-width:1.0;" width="10" x="17.5" y="118.5703"/><rect fill="#FFFFFF" height="433.5703" style="stroke:#181818;stroke-width:1.0;" width="10" x="451.5" y="118.5703"/><rect fill="#FFFFFF" height="30.3516" style="stroke:#181818;stroke-width:1.0;" width="10" x="451.5" y="582.4922"/><rect fill="#FFFFFF" height="486.0391" style="stroke:#181818;stroke-width:1.0;" width="10" x="451.5" y="643.1953"/><rect fill="#FFFFFF" height="73.7031" style="stroke:#181818;stroke-width:1.0;" width="10" x="631.5" y="148.9219"/><rect fill="#FFFFFF" height="268.8125" style="stroke:#181818;stroke-width:1.0;" width="10" x="899.5" y="252.9766"/><rect fill="#FFFFFF" height="425.3359" style="stroke:#181818;stroke-width:1.0;" width="10" x="899.5" y="673.5469"/><rect fill="#FFFFFF" height="394.9844" style="stroke:#181818;stroke-width:1.0;" width="10" x="1429.5" y="703.8984"/><rect fill="#FFFFFF" height="208.1094" style="stroke:#181818;stroke-width:1.0;" width="10" x="1604.5" y="283.3281"/><rect fill="#FFFFFF" height="147.4063" style="stroke:#181818;stroke-width:1.0;" width="10" x="2034.5" y="313.6797"/><rect fill="#FFFFFF" height="30.3516" style="stroke:#181818;stroke-width:1.0;" width="10" x="2803.5" y="1038.1797"/><polygon fill="#181818" points="439.5,114.5703,449.5,118.5703,439.5,122.5703,443.5,118.5703" style="stroke:#181818;stroke-width:1.0;"/><line style="stroke:#181818;stroke-width:1.0;" x1="27.5" x2="445.5" y1="118.5703" y2="118.5703"/><text fill="#000000" font-family="sans-serif" font-size="13" font-weight="bold" lengthAdjust="spacing" textLength="7" x="34.5" y="113.7139">1</text><text fill="#000000" font-family="sans-serif" font-size="13" lengthAdjust="spacing" textLength="138" x="45.5" y="113.7139">Starts creating a Post-It</text><polygon fill="#181818" points="619.5,144.9219,629.5,148.9219,619.5,152.9219,623.5,148.9219" style="stroke:#181818;stroke-width:1.0;"/><line style="stroke:#181818;stroke-width:1.0;" x1="461.5" x2="625.5" y1="148.9219" y2="148.9219"/><text fill="#000000" font-family="sans-serif" font-size="13" font-weight="bold" lengthAdjust="spacing" textLength="7" x="468.5" y="144.0654">2</text><text fill="#000000" font-family="sans-serif" font-size="13" lengthAdjust="spacing" textLength="78" x="479.5" y="144.0654">createPostIt()</text><line style="stroke:#181818;stroke-width:1.0;" x1="641.5" x2="683.5" y1="179.2734" y2="179.2734"/><line style="stroke:#181818;stroke-width:1.0;" x1="683.5" x2="683.5" y1="179.2734" y2="192.2734"/><line style="stroke:#181818;stroke-width:1.0;" x1="642.5" x2="683.5" y1="192.2734" y2="192.2734"/><polygon fill="#181818" points="652.5,188.2734,642.5,192.2734,652.5,196.2734,648.5,192.2734" style="stroke:#181818;stroke-width:1.0;"/><text fill="#000000" font-family="sans-serif" font-size="13" font-weight="bold" lengthAdjust="spacing" textLength="7" x="648.5" y="174.417">3</text><text fill="#000000" font-family="sans-serif" font-size="13" lengthAdjust="spacing" textLength="68" x="659.5" y="174.417">getInstace()</text><polygon fill="#181818" points="472.5,218.625,462.5,222.625,472.5,226.625,468.5,222.625" style="stroke:#181818;stroke-width:1.0;"/><line style="stroke:#181818;stroke-width:1.0;stroke-dasharray:2.0,2.0;" x1="466.5" x2="635.5" y1="222.625" y2="222.625"/><text fill="#000000" font-family="sans-serif" font-size="13" font-weight="bold" lengthAdjust="spacing" textLength="7" x="478.5" y="217.7686">4</text><text fill="#000000" font-family="sans-serif" font-size="13" lengthAdjust="spacing" textLength="135" x="489.5" y="217.7686">CreatePostItController()</text><polygon fill="#181818" points="887.5,248.9766,897.5,252.9766,887.5,256.9766,891.5,252.9766" style="stroke:#181818;stroke-width:1.0;"/><line style="stroke:#181818;stroke-width:1.0;" x1="461.5" x2="893.5" y1="252.9766" y2="252.9766"/><text fill="#000000" font-family="sans-serif" font-size="13" font-weight="bold" lengthAdjust="spacing" textLength="7" x="468.5" y="248.1201">5</text><text fill="#000000" font-family="sans-serif" font-size="13" lengthAdjust="spacing" textLength="94" x="479.5" y="248.1201">getUserBoards()</text><polygon fill="#181818" points="1592.5,279.3281,1602.5,283.3281,1592.5,287.3281,1596.5,283.3281" style="stroke:#181818;stroke-width:1.0;"/><line style="stroke:#181818;stroke-width:1.0;" x1="909.5" x2="1598.5" y1="283.3281" y2="283.3281"/><text fill="#000000" font-family="sans-serif" font-size="13" font-weight="bold" lengthAdjust="spacing" textLength="7" x="916.5" y="278.4717">6</text><text fill="#000000" font-family="sans-serif" font-size="13" lengthAdjust="spacing" textLength="94" x="927.5" y="278.4717">getUserBoards()</text><polygon fill="#181818" points="2022.5,309.6797,2032.5,313.6797,2022.5,317.6797,2026.5,313.6797" style="stroke:#181818;stroke-width:1.0;"/><line style="stroke:#181818;stroke-width:1.0;" x1="1614.5" x2="2028.5" y1="313.6797" y2="313.6797"/><text fill="#000000" font-family="sans-serif" font-size="13" font-weight="bold" lengthAdjust="spacing" textLength="7" x="1621.5" y="308.8232">7</text><text fill="#000000" font-family="sans-serif" font-size="13" lengthAdjust="spacing" textLength="390" x="1632.5" y="308.8232">findBoardsOfUser(sessionEmail, theRepository, theUserRepository)</text><line style="stroke:#181818;stroke-width:1.0;" x1="2044.5" x2="2086.5" y1="344.0313" y2="344.0313"/><line style="stroke:#181818;stroke-width:1.0;" x1="2086.5" x2="2086.5" y1="344.0313" y2="357.0313"/><line style="stroke:#181818;stroke-width:1.0;" x1="2045.5" x2="2086.5" y1="357.0313" y2="357.0313"/><polygon fill="#181818" points="2055.5,353.0313,2045.5,357.0313,2055.5,361.0313,2051.5,357.0313" style="stroke:#181818;stroke-width:1.0;"/><text fill="#000000" font-family="sans-serif" font-size="13" font-weight="bold" lengthAdjust="spacing" textLength="7" x="2051.5" y="339.1748">8</text><text fill="#000000" font-family="sans-serif" font-size="13" lengthAdjust="spacing" textLength="114" x="2062.5" y="339.1748">findBoeardsHiOwn()</text><polygon fill="#181818" points="1625.5,383.3828,1615.5,387.3828,1625.5,391.3828,1621.5,387.3828" style="stroke:#181818;stroke-width:1.0;"/><line style="stroke:#181818;stroke-width:1.0;stroke-dasharray:2.0,2.0;" x1="1619.5" x2="2033.5" y1="387.3828" y2="387.3828"/><text fill="#000000" font-family="sans-serif" font-size="13" font-weight="bold" lengthAdjust="spacing" textLength="7" x="1631.5" y="382.5264">9</text><text fill="#000000" font-family="sans-serif" font-size="13" lengthAdjust="spacing" textLength="85" x="1642.5" y="382.5264">onwendBoards</text><line style="stroke:#181818;stroke-width:1.0;" x1="2044.5" x2="2086.5" y1="417.7344" y2="417.7344"/><line style="stroke:#181818;stroke-width:1.0;" x1="2086.5" x2="2086.5" y1="417.7344" y2="430.7344"/><line style="stroke:#181818;stroke-width:1.0;" x1="2045.5" x2="2086.5" y1="430.7344" y2="430.7344"/><polygon fill="#181818" points="2055.5,426.7344,2045.5,430.7344,2055.5,434.7344,2051.5,430.7344" style="stroke:#181818;stroke-width:1.0;"/><text fill="#000000" font-family="sans-serif" font-size="13" font-weight="bold" lengthAdjust="spacing" textLength="14" x="2051.5" y="412.8779">10</text><text fill="#000000" font-family="sans-serif" font-size="13" lengthAdjust="spacing" textLength="129" x="2069.5" y="412.8779">findBoeardsHiShared()</text><polygon fill="#181818" points="1625.5,457.0859,1615.5,461.0859,1625.5,465.0859,1621.5,461.0859" style="stroke:#181818;stroke-width:1.0;"/><line style="stroke:#181818;stroke-width:1.0;stroke-dasharray:2.0,2.0;" x1="1619.5" x2="2038.5" y1="461.0859" y2="461.0859"/><text fill="#000000" font-family="sans-serif" font-size="13" font-weight="bold" lengthAdjust="spacing" textLength="14" x="1631.5" y="456.2295">11</text><text fill="#000000" font-family="sans-serif" font-size="13" lengthAdjust="spacing" textLength="80" x="1649.5" y="456.2295">sharedBoards</text><polygon fill="#181818" points="920.5,487.4375,910.5,491.4375,920.5,495.4375,916.5,491.4375" style="stroke:#181818;stroke-width:1.0;"/><line style="stroke:#181818;stroke-width:1.0;stroke-dasharray:2.0,2.0;" x1="914.5" x2="1608.5" y1="491.4375" y2="491.4375"/><text fill="#000000" font-family="sans-serif" font-size="13" font-weight="bold" lengthAdjust="spacing" textLength="14" x="926.5" y="486.5811">12</text><text fill="#000000" font-family="sans-serif" font-size="13" lengthAdjust="spacing" textLength="39" x="944.5" y="486.5811">boards</text><polygon fill="#181818" points="472.5,517.7891,462.5,521.7891,472.5,525.7891,468.5,521.7891" style="stroke:#181818;stroke-width:1.0;"/><line style="stroke:#181818;stroke-width:1.0;stroke-dasharray:2.0,2.0;" x1="466.5" x2="903.5" y1="521.7891" y2="521.7891"/><text fill="#000000" font-family="sans-serif" font-size="13" font-weight="bold" lengthAdjust="spacing" textLength="14" x="478.5" y="516.9326">13</text><text fill="#000000" font-family="sans-serif" font-size="13" lengthAdjust="spacing" textLength="39" x="496.5" y="516.9326">boards</text><polygon fill="#181818" points="38.5,548.1406,28.5,552.1406,38.5,556.1406,34.5,552.1406" style="stroke:#181818;stroke-width:1.0;"/><line style="stroke:#181818;stroke-width:1.0;stroke-dasharray:2.0,2.0;" x1="32.5" x2="455.5" y1="552.1406" y2="552.1406"/><text fill="#000000" font-family="sans-serif" font-size="13" font-weight="bold" lengthAdjust="spacing" textLength="14" x="44.5" y="547.2842">14</text><text fill="#000000" font-family="sans-serif" font-size="13" lengthAdjust="spacing" textLength="382" x="62.5" y="547.2842">print the boards that the user owns and/or the ones that he shares</text><polygon fill="#181818" points="439.5,578.4922,449.5,582.4922,439.5,586.4922,443.5,582.4922" style="stroke:#181818;stroke-width:1.0;"/><line style="stroke:#181818;stroke-width:1.0;" x1="27.5" x2="445.5" y1="582.4922" y2="582.4922"/><text fill="#000000" font-family="sans-serif" font-size="13" font-weight="bold" lengthAdjust="spacing" textLength="14" x="34.5" y="577.6357">15</text><text fill="#000000" font-family="sans-serif" font-size="13" lengthAdjust="spacing" textLength="89" x="52.5" y="577.6357">selects a board</text><polygon fill="#181818" points="38.5,608.8438,28.5,612.8438,38.5,616.8438,34.5,612.8438" style="stroke:#181818;stroke-width:1.0;"/><line style="stroke:#181818;stroke-width:1.0;stroke-dasharray:2.0,2.0;" x1="32.5" x2="455.5" y1="612.8438" y2="612.8438"/><text fill="#000000" font-family="sans-serif" font-size="13" font-weight="bold" lengthAdjust="spacing" textLength="14" x="44.5" y="607.9873">16</text><text fill="#000000" font-family="sans-serif" font-size="13" lengthAdjust="spacing" textLength="380" x="62.5" y="607.9873">asks for the row,column, and Content of the Post-It to be changed</text><polygon fill="#181818" points="439.5,639.1953,449.5,643.1953,439.5,647.1953,443.5,643.1953" style="stroke:#181818;stroke-width:1.0;"/><line style="stroke:#181818;stroke-width:1.0;" x1="27.5" x2="445.5" y1="643.1953" y2="643.1953"/><text fill="#000000" font-family="sans-serif" font-size="13" font-weight="bold" lengthAdjust="spacing" textLength="14" x="34.5" y="638.3389">17</text><text fill="#000000" font-family="sans-serif" font-size="13" lengthAdjust="spacing" textLength="370" x="52.5" y="638.3389">enters the row,column, and Content of the Post-It to be changed</text><polygon fill="#181818" points="887.5,669.5469,897.5,673.5469,887.5,677.5469,891.5,673.5469" style="stroke:#181818;stroke-width:1.0;"/><line style="stroke:#181818;stroke-width:1.0;" x1="461.5" x2="893.5" y1="673.5469" y2="673.5469"/><text fill="#000000" font-family="sans-serif" font-size="13" font-weight="bold" lengthAdjust="spacing" textLength="14" x="468.5" y="668.6904">18</text><text fill="#000000" font-family="sans-serif" font-size="13" lengthAdjust="spacing" textLength="401" x="486.5" y="668.6904">changePostIt(postItRow, postItColumn, postItContent, selectedBoard)</text><polygon fill="#181818" points="1417.5,699.8984,1427.5,703.8984,1417.5,707.8984,1421.5,703.8984" style="stroke:#181818;stroke-width:1.0;"/><line style="stroke:#181818;stroke-width:1.0;" x1="909.5" x2="1423.5" y1="703.8984" y2="703.8984"/><text fill="#000000" font-family="sans-serif" font-size="13" font-weight="bold" lengthAdjust="spacing" textLength="14" x="916.5" y="699.042">19</text><text fill="#000000" font-family="sans-serif" font-size="13" lengthAdjust="spacing" textLength="483" x="934.5" y="699.042">changePostIt(postItRow, postItColumn, postItContent, selectedBoard,sessionEmail)</text><polygon fill="#181818" points="2171,730.25,2181,734.25,2171,738.25,2175,734.25" style="stroke:#181818;stroke-width:1.0;"/><line style="stroke:#181818;stroke-width:1.0;" x1="1439.5" x2="2177" y1="734.25" y2="734.25"/><text fill="#000000" font-family="sans-serif" font-size="13" font-weight="bold" lengthAdjust="spacing" textLength="14" x="1446.5" y="729.3936">20</text><text fill="#000000" font-family="sans-serif" font-size="13" lengthAdjust="spacing" textLength="295" x="1464.5" y="729.3936">updateCell(postItRow, postItColumn, postItContent)</text><rect fill="#E2E2F0" height="49.2188" rx="2.5" ry="2.5" style="stroke:#181818;stroke-width:0.5;" width="55" x="2183" y="711.8984"/><text fill="#000000" font-family="sans-serif" font-size="14" lengthAdjust="spacing" textLength="41" x="2190" y="733.4316">board:</text><text fill="#000000" font-family="sans-serif" font-size="14" lengthAdjust="spacing" textLength="38" x="2191.5" y="751.041">Board</text><polygon fill="#181818" points="2236,823.1719,2246,827.1719,2236,831.1719,2240,827.1719" style="stroke:#181818;stroke-width:1.0;"/><line style="stroke:#181818;stroke-width:1.0;" x1="1439.5" x2="2242" y1="827.1719" y2="827.1719"/><text fill="#000000" font-family="sans-serif" font-size="13" font-weight="bold" lengthAdjust="spacing" textLength="14" x="1446.5" y="805.9639">21</text><text fill="#000000" font-family="sans-serif" font-size="13" lengthAdjust="spacing" textLength="373" x="1464.5" y="789.6123">new(board,LocalDateTime.now(),"PostIt in pos [" + postItRow + "</text><text fill="#000000" font-family="sans-serif" font-size="13" lengthAdjust="spacing" textLength="490" x="1464.5" y="805.9639">," + postItColumn + "]: content changed to \'"+postItContent+"\' by "+sessionEmail+"</text><text fill="#000000" font-family="sans-serif" font-size="13" lengthAdjust="spacing" textLength="90" x="1464.5" y="822.3154">",postItContent)</text><rect fill="#E2E2F0" height="49.2188" rx="2.5" ry="2.5" style="stroke:#181818;stroke-width:0.5;" width="112" x="2248" y="774.9531"/><text fill="#000000" font-family="sans-serif" font-size="14" lengthAdjust="spacing" textLength="98" x="2255" y="796.4863">boardChanges:</text><text fill="#000000" font-family="sans-serif" font-size="14" lengthAdjust="spacing" textLength="95" x="2256.5" y="814.0957">BoardChanges</text><polygon fill="#181818" points="2358,853.5234,2368,857.5234,2358,861.5234,2362,857.5234" style="stroke:#181818;stroke-width:1.0;"/><line style="stroke:#181818;stroke-width:1.0;" x1="1439.5" x2="2364" y1="857.5234" y2="857.5234"/><text fill="#000000" font-family="sans-serif" font-size="13" font-weight="bold" lengthAdjust="spacing" textLength="14" x="1446.5" y="852.667">22</text><text fill="#000000" font-family="sans-serif" font-size="13" lengthAdjust="spacing" textLength="114" x="1464.5" y="852.667">new(boardChanges)</text><rect fill="#E2E2F0" height="49.2188" rx="2.5" ry="2.5" style="stroke:#181818;stroke-width:0.5;" width="149" x="2370" y="835.1719"/><text fill="#000000" font-family="sans-serif" font-size="14" lengthAdjust="spacing" textLength="135" x="2377" y="856.7051">boardChangedEvent:</text><text fill="#000000" font-family="sans-serif" font-size="14" lengthAdjust="spacing" textLength="132" x="2378.5" y="874.3145">BoardChangedEvent</text><polygon fill="#181818" points="2517,913.7422,2527,917.7422,2517,921.7422,2521,917.7422" style="stroke:#181818;stroke-width:1.0;"/><line style="stroke:#181818;stroke-width:1.0;" x1="1439.5" x2="2523" y1="917.7422" y2="917.7422"/><text fill="#000000" font-family="sans-serif" font-size="13" font-weight="bold" lengthAdjust="spacing" textLength="14" x="1446.5" y="912.8857">23</text><text fill="#000000" font-family="sans-serif" font-size="13" lengthAdjust="spacing" textLength="153" x="1464.5" y="912.8857">event=boardChangedEvent</text><rect fill="#E2E2F0" height="49.2188" rx="2.5" ry="2.5" style="stroke:#181818;stroke-width:0.5;" width="100" x="2529" y="895.3906"/><text fill="#000000" font-family="sans-serif" font-size="14" lengthAdjust="spacing" textLength="86" x="2536" y="916.9238">domainEvent:</text><text fill="#000000" font-family="sans-serif" font-size="14" lengthAdjust="spacing" textLength="84" x="2537" y="934.5332">DomainEvent</text><polygon fill="#181818" points="2627,973.9609,2637,977.9609,2627,981.9609,2631,977.9609" style="stroke:#181818;stroke-width:1.0;"/><line style="stroke:#181818;stroke-width:1.0;" x1="1439.5" x2="2633" y1="977.9609" y2="977.9609"/><text fill="#000000" font-family="sans-serif" font-size="13" font-weight="bold" lengthAdjust="spacing" textLength="14" x="1446.5" y="973.1045">24</text><text fill="#000000" font-family="sans-serif" font-size="13" lengthAdjust="spacing" textLength="79" x="1464.5" y="973.1045">publish(event)</text><rect fill="#E2E2F0" height="49.2188" rx="2.5" ry="2.5" style="stroke:#181818;stroke-width:0.5;" width="109" x="2639" y="955.6094"/><text fill="#000000" font-family="sans-serif" font-size="14" lengthAdjust="spacing" textLength="62" x="2662.5" y="977.1426">publisher:</text><text fill="#000000" font-family="sans-serif" font-size="14" lengthAdjust="spacing" textLength="95" x="2646" y="994.752">EventPublisher</text><polygon fill="#181818" points="2791.5,1034.1797,2801.5,1038.1797,2791.5,1042.1797,2795.5,1038.1797" style="stroke:#181818;stroke-width:1.0;"/><line style="stroke:#181818;stroke-width:1.0;" x1="1439.5" x2="2797.5" y1="1038.1797" y2="1038.1797"/><text fill="#000000" font-family="sans-serif" font-size="13" font-weight="bold" lengthAdjust="spacing" textLength="14" x="1446.5" y="1033.3232">25</text><text fill="#000000" font-family="sans-serif" font-size="13" lengthAdjust="spacing" textLength="77" x="1464.5" y="1033.3232">toDTO(postIt)</text><polygon fill="#181818" points="1450.5,1064.5313,1440.5,1068.5313,1450.5,1072.5313,1446.5,1068.5313" style="stroke:#181818;stroke-width:1.0;"/><line style="stroke:#181818;stroke-width:1.0;stroke-dasharray:2.0,2.0;" x1="1444.5" x2="2807.5" y1="1068.5313" y2="1068.5313"/><text fill="#000000" font-family="sans-serif" font-size="13" font-weight="bold" lengthAdjust="spacing" textLength="14" x="1456.5" y="1063.6748">26</text><text fill="#000000" font-family="sans-serif" font-size="13" lengthAdjust="spacing" textLength="58" x="1474.5" y="1063.6748">postItDTO</text><polygon fill="#181818" points="915.5,1094.8828,905.5,1098.8828,915.5,1102.8828,911.5,1098.8828" style="stroke:#181818;stroke-width:1.0;"/><line style="stroke:#181818;stroke-width:1.0;stroke-dasharray:2.0,2.0;" x1="909.5" x2="1433.5" y1="1098.8828" y2="1098.8828"/><text fill="#000000" font-family="sans-serif" font-size="13" font-weight="bold" lengthAdjust="spacing" textLength="14" x="921.5" y="1094.0264">27</text><text fill="#000000" font-family="sans-serif" font-size="13" lengthAdjust="spacing" textLength="58" x="939.5" y="1094.0264">postItDTO</text><polygon fill="#181818" points="38.5,1125.2344,28.5,1129.2344,38.5,1133.2344,34.5,1129.2344" style="stroke:#181818;stroke-width:1.0;"/><line style="stroke:#181818;stroke-width:1.0;stroke-dasharray:2.0,2.0;" x1="32.5" x2="455.5" y1="1129.2344" y2="1129.2344"/><text fill="#000000" font-family="sans-serif" font-size="13" font-weight="bold" lengthAdjust="spacing" textLength="14" x="44.5" y="1124.3779">28</text><text fill="#000000" font-family="sans-serif" font-size="13" lengthAdjust="spacing" textLength="167" x="62.5" y="1124.3779">Post-It updated successfully!</text><!--MD5=[d4f8ceb578d846a3e63225db28a103e0]
@startuml
'https://plantuml.com/sequence-diagram

autonumber

Actor User as Usr

participant ":ChangePostItUI" as UI
participant ":ShareBoardServer" as SBS <<server>>
participant ":ChangePostItController" as Con
participant "ChangePostItService" as S <<service>>
participant ":UserAccessBoardsService" as UABS <<service>>
database RepositoryFactory as FAR <<repository>>
database ShareBoardRepository as Us <<repository>>
participant "board:\nBoard" as board
participant "boardChanges:\nBoardChanges" as boardChanges
participant "boardChangedEvent:\nBoardChangedEvent" as boardChangedEvent
participant "domainEvent:\nDomainEvent" as domainEvent
participant "publisher:\nEventPublisher" as publisher
participant ":PostItMapper" as PIM <<mapper>>



Usr -> UI : Starts creating a Post-It
activate Usr
activate UI

UI -> SBS : createPostIt()
activate SBS
SBS -> SBS : getInstace()
SBS - -> UI : CreatePostItController()
deactivate SBS

UI-> Con: getUserBoards()
activate Con

Con -> UABS : getUserBoards()

activate UABS
UABS -> Us : findBoardsOfUser(sessionEmail, theRepository, theUserRepository)
activate Us
Us -> Us : findBoeardsHiOwn()
Us - -> UABS : onwendBoards


Us -> Us : findBoeardsHiShared()
Us - -> UABS : sharedBoards
deactivate Us

UABS- ->Con: boards
deactivate UABS

Con - -> UI : boards
deactivate Con



UI- -> Usr : print the boards that the user owns and/or the ones that he shares
deactivate UI


Usr -> UI : selects a board
activate UI
UI - -> Usr : asks for the row,column, and Content of the Post-It to be changed
deactivate UI
Usr -> UI: enters the row,column, and Content of the Post-It to be changed
activate UI

UI-> Con: changePostIt(postItRow, postItColumn, postItContent, selectedBoard)
     activate Con
        Con->S:changePostIt(postItRow, postItColumn, postItContent, selectedBoard,sessionEmail)
        activate S
     S->board**:updateCell(postItRow, postItColumn, postItContent)
     S->boardChanges**:new(board,LocalDateTime.now(),"PostIt in pos [" + postItRow + "\n," + postItColumn + "]: content changed to \'"+postItContent+"\' by "+sessionEmail+"\n",postItContent)
     S->boardChangedEvent**:new(boardChanges)
     S->domainEvent**:event=boardChangedEvent
     S->publisher**:publish(event)
     S -> PIM: toDTO(postIt)
     activate PIM
     PIM - -> S: postItDTO
        deactivate PIM
     S- ->Con: postItDTO
     deactivate S
        deactivate Con
        deactivate SBS

UI- ->Usr: Post-It updated successfully!
deactivate UI


@enduml

@startuml

autonumber

Actor User as Usr

participant ":ChangePostItUI" as UI
participant ":ShareBoardServer" as SBS <<server>>
participant ":ChangePostItController" as Con
participant "ChangePostItService" as S <<service>>
participant ":UserAccessBoardsService" as UABS <<service>>
database RepositoryFactory as FAR <<repository>>
database ShareBoardRepository as Us <<repository>>
participant "board:\nBoard" as board
participant "boardChanges:\nBoardChanges" as boardChanges
participant "boardChangedEvent:\nBoardChangedEvent" as boardChangedEvent
participant "domainEvent:\nDomainEvent" as domainEvent
participant "publisher:\nEventPublisher" as publisher
participant ":PostItMapper" as PIM <<mapper>>



Usr -> UI : Starts creating a Post-It
activate Usr
activate UI

UI -> SBS : createPostIt()
activate SBS
SBS -> SBS : getInstace()
SBS - -> UI : CreatePostItController()
deactivate SBS

UI-> Con: getUserBoards()
activate Con

Con -> UABS : getUserBoards()

activate UABS
UABS -> Us : findBoardsOfUser(sessionEmail, theRepository, theUserRepository)
activate Us
Us -> Us : findBoeardsHiOwn()
Us - -> UABS : onwendBoards


Us -> Us : findBoeardsHiShared()
Us - -> UABS : sharedBoards
deactivate Us

UABS- ->Con: boards
deactivate UABS

Con - -> UI : boards
deactivate Con



UI- -> Usr : print the boards that the user owns and/or the ones that he shares
deactivate UI


Usr -> UI : selects a board
activate UI
UI - -> Usr : asks for the row,column, and Content of the Post-It to be changed
deactivate UI
Usr -> UI: enters the row,column, and Content of the Post-It to be changed
activate UI

UI-> Con: changePostIt(postItRow, postItColumn, postItContent, selectedBoard)
     activate Con
        Con->S:changePostIt(postItRow, postItColumn, postItContent, selectedBoard,sessionEmail)
        activate S
     S->board**:updateCell(postItRow, postItColumn, postItContent)
     S->boardChanges**:new(board,LocalDateTime.now(),"PostIt in pos [" + postItRow + "\n," + postItColumn + "]: content changed to \'"+postItContent+"\' by "+sessionEmail+"\n",postItContent)
     S->boardChangedEvent**:new(boardChanges)
     S->domainEvent**:event=boardChangedEvent
     S->publisher**:publish(event)
     S -> PIM: toDTO(postIt)
     activate PIM
     PIM - -> S: postItDTO
        deactivate PIM
     S- ->Con: postItDTO
     deactivate S
        deactivate Con
        deactivate SBS

UI- ->Usr: Post-It updated successfully!
deactivate UI


@enduml

PlantUML version 1.2022.12(Sun Oct 23 19:12:26 BST 2022)
(GPL source distribution)
Java Runtime: OpenJDK Runtime Environment
JVM: OpenJDK 64-Bit Server VM
Default Encoding: Cp1252
Language: pt
Country: PT
--></g></svg>