<?xml version="1.0" encoding="us-ascii" standalone="no"?><svg xmlns="http://www.w3.org/2000/svg" xmlns:xlink="http://www.w3.org/1999/xlink" contentStyleType="text/css" height="592.8px" preserveAspectRatio="none" style="width:656px;height:592px;background:#FFFFFF;" version="1.1" viewBox="0 0 656 592" width="656.4px" zoomAndPan="magnify"><defs/><g><!--class eCourseSystemUser--><g id="elem_eCourseSystemUser"><rect codeLine="3" fill="#F1F1F1" height="174.0445" id="eCourseSystemUser" rx="1.5" ry="1.5" style="stroke:#181818;stroke-width:0.3;" width="274.2" x="178.2" y="30.048"/><ellipse cx="274.05" cy="39.648" fill="#ADD1B2" rx="6.6" ry="6.6" style="stroke:#181818;stroke-width:0.6;"/><path d="M275.7094,37.173 Q275.8031,37.0418 275.9156,36.9761 Q276.0281,36.9105 276.1594,36.9105 Q276.3844,36.9105 276.525,37.0699 Q276.6656,37.2199 276.6656,37.5855 L276.6656,38.4574 Q276.6656,38.823 276.525,38.9824 Q276.3844,39.1418 276.1594,39.1418 Q275.9531,39.1418 275.8313,39.0199 Q275.7094,38.9074 275.6438,38.598 Q275.6156,38.3824 275.5031,38.2699 Q275.3063,38.0449 274.9406,37.9136 Q274.575,37.7824 274.2,37.7824 Q273.7406,37.7824 273.3563,37.9793 Q272.9813,38.1761 272.6813,38.6261 Q272.3906,39.0761 272.3906,39.6949 L272.3906,40.3511 Q272.3906,41.0918 272.925,41.5886 Q273.4594,42.0761 274.4156,42.0761 Q274.9781,42.0761 275.3719,41.9261 Q275.6063,41.8324 275.8594,41.5699 Q276.0188,41.4105 276.1031,41.3636 Q276.1969,41.3168 276.3187,41.3168 Q276.5156,41.3168 276.6656,41.4761 Q276.825,41.6261 276.825,41.8324 Q276.825,42.0386 276.6188,42.2824 Q276.3187,42.6293 275.8406,42.8261 Q275.1937,43.098 274.4156,43.098 Q273.5062,43.098 272.7844,42.723 Q272.1937,42.423 271.7813,41.7855 Q271.3688,41.1386 271.3688,40.3699 L271.3688,39.6761 Q271.3688,38.8793 271.7344,38.1949 Q272.1094,37.5011 272.7656,37.1355 Q273.4219,36.7605 274.1625,36.7605 Q274.6031,36.7605 274.9875,36.8636 Q275.3812,36.9574 275.7094,37.173 Z " fill="#000000"/><text fill="#000000" font-family="sans-serif" font-size="8.4" lengthAdjust="spacing" textLength="77.4" x="286.35" y="43.1261">eCourseSystemUser</text><line style="stroke:#181818;stroke-width:0.3;" x1="178.8" x2="451.8" y1="49.248" y2="49.248"/><ellipse cx="184.8" cy="58.1343" fill="#000000" rx="1.8" ry="1.8" style="stroke:#000000;stroke-width:0.6;"/><text fill="#000000" font-family="sans-serif" font-size="8.4" lengthAdjust="spacing" textLength="57" x="190.2" y="60.7125">String fullName</text><ellipse cx="184.8" cy="69.307" fill="#000000" rx="1.8" ry="1.8" style="stroke:#000000;stroke-width:0.6;"/><text fill="#000000" font-family="sans-serif" font-size="8.4" lengthAdjust="spacing" textLength="65.4" x="190.2" y="71.8851">String shortName</text><ellipse cx="184.8" cy="80.4796" fill="#000000" rx="1.8" ry="1.8" style="stroke:#000000;stroke-width:0.6;"/><text fill="#000000" font-family="sans-serif" font-size="8.4" lengthAdjust="spacing" textLength="34.2" x="190.2" y="83.0578">Role role</text><ellipse cx="184.8" cy="91.6523" fill="#000000" rx="1.8" ry="1.8" style="stroke:#000000;stroke-width:0.6;"/><text fill="#000000" font-family="sans-serif" font-size="8.4" lengthAdjust="spacing" textLength="42.6" x="190.2" y="94.2304">Email email</text><ellipse cx="184.8" cy="102.825" fill="#000000" rx="1.8" ry="1.8" style="stroke:#000000;stroke-width:0.6;"/><text fill="#000000" font-family="sans-serif" font-size="8.4" lengthAdjust="spacing" textLength="75" x="190.2" y="105.4031">Password password</text><ellipse cx="184.8" cy="113.9976" fill="#000000" rx="1.8" ry="1.8" style="stroke:#000000;stroke-width:0.6;"/><text fill="#000000" font-family="sans-serif" font-size="8.4" lengthAdjust="spacing" textLength="66.6" x="190.2" y="116.5757">UserStatus status</text><ellipse cx="184.8" cy="125.1703" fill="#000000" rx="1.8" ry="1.8" style="stroke:#000000;stroke-width:0.6;"/><text fill="#000000" font-family="sans-serif" font-size="8.4" lengthAdjust="spacing" textLength="116.4" x="190.2" y="127.7484">List&lt;Course&gt; coursesTeached</text><ellipse cx="184.8" cy="136.3429" fill="#000000" rx="1.8" ry="1.8" style="stroke:#000000;stroke-width:0.6;"/><text fill="#000000" font-family="sans-serif" font-size="8.4" lengthAdjust="spacing" textLength="118.2" x="190.2" y="138.921">List&lt;Course&gt; coursesTeaching</text><ellipse cx="184.8" cy="147.5156" fill="#000000" rx="1.8" ry="1.8" style="stroke:#000000;stroke-width:0.6;"/><text fill="#000000" font-family="sans-serif" font-size="8.4" lengthAdjust="spacing" textLength="24" x="190.2" y="150.0937">NIF nif</text><ellipse cx="184.8" cy="158.6882" fill="#000000" rx="1.8" ry="1.8" style="stroke:#000000;stroke-width:0.6;"/><text fill="#000000" font-family="sans-serif" font-size="8.4" lengthAdjust="spacing" textLength="67.8" x="190.2" y="161.2664">Acronym acronym</text><line style="stroke:#181818;stroke-width:0.3;" x1="178.8" x2="451.8" y1="165.7746" y2="165.7746"/><ellipse cx="184.8" cy="180.2472" fill="#84BE84" rx="1.8" ry="1.8" style="stroke:#038048;stroke-width:0.6;"/><text fill="#000000" font-family="sans-serif" font-size="8.4" lengthAdjust="spacing" textLength="256.2" x="190.2" y="177.239">eCourseSystemUser(String: fullName, String: shortName, Role: role,</text><text fill="#000000" font-family="sans-serif" font-size="8.4" lengthAdjust="spacing" textLength="193.2" x="192.6" y="188.4117">Email: email, Password, password, boolean: status)</text><ellipse cx="184.8" cy="197.0062" fill="#84BE84" rx="1.8" ry="1.8" style="stroke:#038048;stroke-width:0.6;"/><text fill="#000000" font-family="sans-serif" font-size="8.4" lengthAdjust="spacing" textLength="123" x="190.2" y="199.5843">AlterUserStatus(boolean: status)</text></g><!--class CourseRepository--><g id="elem_CourseRepository"><rect codeLine="19" fill="#F1F1F1" height="84.6633" id="CourseRepository" rx="1.5" ry="1.5" style="stroke:#181818;stroke-width:0.3;" width="137.4" x="4.2" y="487.248"/><ellipse cx="36.15" cy="496.848" fill="#ADD1B2" rx="6.6" ry="6.6" style="stroke:#181818;stroke-width:0.6;"/><path d="M37.8094,494.373 Q37.9031,494.2418 38.0156,494.1761 Q38.1281,494.1105 38.2594,494.1105 Q38.4844,494.1105 38.625,494.2699 Q38.7656,494.4199 38.7656,494.7855 L38.7656,495.6574 Q38.7656,496.023 38.625,496.1824 Q38.4844,496.3418 38.2594,496.3418 Q38.0531,496.3418 37.9313,496.2199 Q37.8094,496.1074 37.7438,495.798 Q37.7156,495.5824 37.6031,495.4699 Q37.4063,495.2449 37.0406,495.1136 Q36.675,494.9824 36.3,494.9824 Q35.8406,494.9824 35.4563,495.1793 Q35.0813,495.3761 34.7813,495.8261 Q34.4906,496.2761 34.4906,496.8949 L34.4906,497.5511 Q34.4906,498.2918 35.025,498.7886 Q35.5594,499.2761 36.5156,499.2761 Q37.0781,499.2761 37.4719,499.1261 Q37.7063,499.0324 37.9594,498.7699 Q38.1188,498.6105 38.2031,498.5636 Q38.2969,498.5168 38.4187,498.5168 Q38.6156,498.5168 38.7656,498.6761 Q38.925,498.8261 38.925,499.0324 Q38.925,499.2386 38.7188,499.4824 Q38.4187,499.8293 37.9406,500.0261 Q37.2937,500.298 36.5156,500.298 Q35.6062,500.298 34.8844,499.923 Q34.2937,499.623 33.8813,498.9855 Q33.4688,498.3386 33.4688,497.5699 L33.4688,496.8761 Q33.4688,496.0793 33.8344,495.3949 Q34.2094,494.7011 34.8656,494.3355 Q35.5219,493.9605 36.2625,493.9605 Q36.7031,493.9605 37.0875,494.0636 Q37.4812,494.1574 37.8094,494.373 Z " fill="#000000"/><text fill="#000000" font-family="sans-serif" font-size="8.4" lengthAdjust="spacing" textLength="68.4" x="48.45" y="500.3261">CourseRepository</text><line style="stroke:#181818;stroke-width:0.3;" x1="4.8" x2="141" y1="506.448" y2="506.448"/><line style="stroke:#181818;stroke-width:0.3;" x1="4.8" x2="141" y1="511.248" y2="511.248"/><ellipse cx="10.8" cy="520.1343" fill="#84BE84" rx="1.8" ry="1.8" style="stroke:#038048;stroke-width:0.6;"/><text fill="#000000" font-family="sans-serif" font-size="8.4" lengthAdjust="spacing" textLength="108" x="16.2" y="522.7125">addCourse(Course: Course)</text><ellipse cx="10.8" cy="531.307" fill="#84BE84" rx="1.8" ry="1.8" style="stroke:#038048;stroke-width:0.6;"/><text fill="#000000" font-family="sans-serif" font-size="8.4" lengthAdjust="spacing" textLength="121.8" x="16.2" y="533.8851">removeCourse(Course: Course)</text><ellipse cx="10.8" cy="542.4796" fill="#84BE84" rx="1.8" ry="1.8" style="stroke:#038048;stroke-width:0.6;"/><text fill="#000000" font-family="sans-serif" font-size="8.4" lengthAdjust="spacing" textLength="83.4" x="16.2" y="545.0578">findall(): List&lt;Course&gt;</text><ellipse cx="10.8" cy="553.6523" fill="#84BE84" rx="1.8" ry="1.8" style="stroke:#038048;stroke-width:0.6;"/><text fill="#000000" font-family="sans-serif" font-size="8.4" lengthAdjust="spacing" textLength="107.4" x="16.2" y="556.2304">findAllOpen() : List&lt;Course&gt;</text><ellipse cx="10.8" cy="564.825" fill="#84BE84" rx="1.8" ry="1.8" style="stroke:#038048;stroke-width:0.6;"/><text fill="#000000" font-family="sans-serif" font-size="8.4" lengthAdjust="spacing" textLength="110.4" x="16.2" y="567.4031">findAllClosed(): List&lt;Course&gt;</text></g><!--class userRepository--><g id="elem_userRepository"><rect codeLine="28" fill="#F1F1F1" height="118.1812" id="userRepository" rx="1.5" ry="1.5" style="stroke:#181818;stroke-width:0.3;" width="126" x="162.9" y="470.448"/><ellipse cx="194.55" cy="480.048" fill="#ADD1B2" rx="6.6" ry="6.6" style="stroke:#181818;stroke-width:0.6;"/><path d="M196.2094,477.573 Q196.3031,477.4418 196.4156,477.3761 Q196.5281,477.3105 196.6594,477.3105 Q196.8844,477.3105 197.025,477.4699 Q197.1656,477.6199 197.1656,477.9855 L197.1656,478.8574 Q197.1656,479.223 197.025,479.3824 Q196.8844,479.5418 196.6594,479.5418 Q196.4531,479.5418 196.3312,479.4199 Q196.2094,479.3074 196.1437,478.998 Q196.1156,478.7824 196.0031,478.6699 Q195.8063,478.4449 195.4406,478.3136 Q195.075,478.1824 194.7,478.1824 Q194.2406,478.1824 193.8563,478.3793 Q193.4813,478.5761 193.1813,479.0261 Q192.8906,479.4761 192.8906,480.0949 L192.8906,480.7511 Q192.8906,481.4918 193.425,481.9886 Q193.9594,482.4761 194.9156,482.4761 Q195.4781,482.4761 195.8719,482.3261 Q196.1063,482.2324 196.3594,481.9699 Q196.5187,481.8105 196.6031,481.7636 Q196.6969,481.7168 196.8188,481.7168 Q197.0156,481.7168 197.1656,481.8761 Q197.325,482.0261 197.325,482.2324 Q197.325,482.4386 197.1188,482.6824 Q196.8188,483.0293 196.3406,483.2261 Q195.6938,483.498 194.9156,483.498 Q194.0063,483.498 193.2844,483.123 Q192.6938,482.823 192.2813,482.1855 Q191.8688,481.5386 191.8688,480.7699 L191.8688,480.0761 Q191.8688,479.2793 192.2344,478.5949 Q192.6094,477.9011 193.2656,477.5355 Q193.9219,477.1605 194.6625,477.1605 Q195.1031,477.1605 195.4875,477.2636 Q195.8813,477.3574 196.2094,477.573 Z " fill="#000000"/><text fill="#000000" font-family="sans-serif" font-size="8.4" lengthAdjust="spacing" textLength="57.6" x="206.85" y="483.5261">userRepository</text><line style="stroke:#181818;stroke-width:0.3;" x1="163.5" x2="288.3" y1="489.648" y2="489.648"/><line style="stroke:#181818;stroke-width:0.3;" x1="163.5" x2="288.3" y1="494.448" y2="494.448"/><ellipse cx="169.5" cy="503.3343" fill="#84BE84" rx="1.8" ry="1.8" style="stroke:#038048;stroke-width:0.6;"/><text fill="#000000" font-family="sans-serif" font-size="8.4" lengthAdjust="spacing" textLength="75.6" x="174.9" y="505.9125">adduser(user: user)</text><ellipse cx="169.5" cy="514.507" fill="#84BE84" rx="1.8" ry="1.8" style="stroke:#038048;stroke-width:0.6;"/><text fill="#000000" font-family="sans-serif" font-size="8.4" lengthAdjust="spacing" textLength="89.4" x="174.9" y="517.0851">removeuser(user: user)</text><ellipse cx="169.5" cy="525.6796" fill="#84BE84" rx="1.8" ry="1.8" style="stroke:#038048;stroke-width:0.6;"/><text fill="#000000" font-family="sans-serif" font-size="8.4" lengthAdjust="spacing" textLength="108.6" x="174.9" y="528.2578">searchuser(user: user): user</text><ellipse cx="169.5" cy="536.8523" fill="#84BE84" rx="1.8" ry="1.8" style="stroke:#038048;stroke-width:0.6;"/><text fill="#000000" font-family="sans-serif" font-size="8.4" lengthAdjust="spacing" textLength="102" x="174.9" y="539.4304">alteruserStatus(user: user)</text><ellipse cx="169.5" cy="548.025" fill="#84BE84" rx="1.8" ry="1.8" style="stroke:#038048;stroke-width:0.6;"/><text fill="#000000" font-family="sans-serif" font-size="8.4" lengthAdjust="spacing" textLength="95.4" x="174.9" y="550.6031">totalNumberOfusers(): int</text><ellipse cx="169.5" cy="559.1976" fill="#84BE84" rx="1.8" ry="1.8" style="stroke:#038048;stroke-width:0.6;"/><text fill="#000000" font-family="sans-serif" font-size="8.4" lengthAdjust="spacing" textLength="109.2" x="174.9" y="561.7757">listSystemusers(): List&lt;user&gt;</text><ellipse cx="169.5" cy="570.3703" fill="#84BE84" rx="1.8" ry="1.8" style="stroke:#038048;stroke-width:0.6;"/><text fill="#000000" font-family="sans-serif" font-size="8.4" lengthAdjust="spacing" textLength="105" x="174.9" y="572.9484">getopenusers() : List&lt;user&gt;</text><ellipse cx="169.5" cy="581.5429" fill="#84BE84" rx="1.8" ry="1.8" style="stroke:#038048;stroke-width:0.6;"/><text fill="#000000" font-family="sans-serif" font-size="8.4" lengthAdjust="spacing" textLength="110.4" x="174.9" y="584.121">getclosedusers() : List&lt;user&gt;</text></g><!--class SetTeachersCourseUI--><g id="elem_SetTeachersCourseUI"><rect codeLine="40" fill="#F1F1F1" height="62.318" id="SetTeachersCourseUI" rx="1.5" ry="1.5" style="stroke:#181818;stroke-width:0.3;" width="138.6" x="127.8" y="251.448"/><ellipse cx="153" cy="261.048" fill="#ADD1B2" rx="6.6" ry="6.6" style="stroke:#181818;stroke-width:0.6;"/><path d="M154.6594,258.573 Q154.7531,258.4418 154.8656,258.3761 Q154.9781,258.3105 155.1094,258.3105 Q155.3344,258.3105 155.475,258.4699 Q155.6156,258.6199 155.6156,258.9855 L155.6156,259.8574 Q155.6156,260.223 155.475,260.3824 Q155.3344,260.5418 155.1094,260.5418 Q154.9031,260.5418 154.7813,260.4199 Q154.6594,260.3074 154.5938,259.998 Q154.5656,259.7824 154.4531,259.6699 Q154.2563,259.4449 153.8906,259.3136 Q153.525,259.1824 153.15,259.1824 Q152.6906,259.1824 152.3063,259.3793 Q151.9313,259.5761 151.6313,260.0261 Q151.3406,260.4761 151.3406,261.0949 L151.3406,261.7511 Q151.3406,262.4918 151.875,262.9886 Q152.4094,263.4761 153.3656,263.4761 Q153.9281,263.4761 154.3219,263.3261 Q154.5563,263.2324 154.8094,262.9699 Q154.9688,262.8105 155.0531,262.7636 Q155.1469,262.7168 155.2687,262.7168 Q155.4656,262.7168 155.6156,262.8761 Q155.775,263.0261 155.775,263.2324 Q155.775,263.4386 155.5688,263.6824 Q155.2687,264.0293 154.7906,264.2261 Q154.1437,264.498 153.3656,264.498 Q152.4562,264.498 151.7344,264.123 Q151.1437,263.823 150.7313,263.1855 Q150.3188,262.5386 150.3188,261.7699 L150.3188,261.0761 Q150.3188,260.2793 150.6844,259.5949 Q151.0594,258.9011 151.7156,258.5355 Q152.3719,258.1605 153.1125,258.1605 Q153.5531,258.1605 153.9375,258.2636 Q154.3312,258.3574 154.6594,258.573 Z " fill="#000000"/><text fill="#000000" font-family="sans-serif" font-size="8.4" lengthAdjust="spacing" textLength="83.4" x="165" y="264.5261">SetTeachersCourseUI</text><line style="stroke:#181818;stroke-width:0.3;" x1="128.4" x2="265.8" y1="270.648" y2="270.648"/><line style="stroke:#181818;stroke-width:0.3;" x1="128.4" x2="265.8" y1="275.448" y2="275.448"/><ellipse cx="134.4" cy="284.3343" fill="#84BE84" rx="1.8" ry="1.8" style="stroke:#038048;stroke-width:0.6;"/><text fill="#000000" font-family="sans-serif" font-size="8.4" lengthAdjust="spacing" textLength="88.8" x="139.8" y="286.9125">SetTeachersinCourse()</text><ellipse cx="134.4" cy="295.507" fill="#84BE84" rx="1.8" ry="1.8" style="stroke:#038048;stroke-width:0.6;"/><text fill="#000000" font-family="sans-serif" font-size="8.4" lengthAdjust="spacing" textLength="123" x="139.8" y="298.0851">getCourses() :List&lt;CourseDTO&gt;</text><ellipse cx="134.4" cy="306.6796" fill="#84BE84" rx="1.8" ry="1.8" style="stroke:#038048;stroke-width:0.6;"/><text fill="#000000" font-family="sans-serif" font-size="8.4" lengthAdjust="spacing" textLength="116.4" x="139.8" y="309.2578">getTeachers() :List&lt;userDTO&gt;</text></g><!--class SetTeachersCourseController--><g id="elem_SetTeachersCourseController"><rect codeLine="47" fill="#F1F1F1" height="62.318" id="SetTeachersCourseController" rx="1.5" ry="1.5" style="stroke:#181818;stroke-width:0.3;" width="132.6" x="157.2" y="371.448"/><ellipse cx="166.2" cy="381.048" fill="#ADD1B2" rx="6.6" ry="6.6" style="stroke:#181818;stroke-width:0.6;"/><path d="M167.8594,378.573 Q167.9531,378.4418 168.0656,378.3761 Q168.1781,378.3105 168.3094,378.3105 Q168.5344,378.3105 168.675,378.4699 Q168.8156,378.6199 168.8156,378.9855 L168.8156,379.8574 Q168.8156,380.223 168.675,380.3824 Q168.5344,380.5418 168.3094,380.5418 Q168.1031,380.5418 167.9813,380.4199 Q167.8594,380.3074 167.7938,379.998 Q167.7656,379.7824 167.6531,379.6699 Q167.4562,379.4449 167.0906,379.3136 Q166.725,379.1824 166.35,379.1824 Q165.8906,379.1824 165.5063,379.3793 Q165.1313,379.5761 164.8312,380.0261 Q164.5406,380.4761 164.5406,381.0949 L164.5406,381.7511 Q164.5406,382.4918 165.075,382.9886 Q165.6094,383.4761 166.5656,383.4761 Q167.1281,383.4761 167.5219,383.3261 Q167.7563,383.2324 168.0094,382.9699 Q168.1688,382.8105 168.2531,382.7636 Q168.3469,382.7168 168.4688,382.7168 Q168.6656,382.7168 168.8156,382.8761 Q168.975,383.0261 168.975,383.2324 Q168.975,383.4386 168.7687,383.6824 Q168.4688,384.0293 167.9906,384.2261 Q167.3438,384.498 166.5656,384.498 Q165.6563,384.498 164.9344,384.123 Q164.3438,383.823 163.9313,383.1855 Q163.5187,382.5386 163.5187,381.7699 L163.5187,381.0761 Q163.5187,380.2793 163.8844,379.5949 Q164.2594,378.9011 164.9156,378.5355 Q165.5719,378.1605 166.3125,378.1605 Q166.7531,378.1605 167.1375,378.2636 Q167.5313,378.3574 167.8594,378.573 Z " fill="#000000"/><text fill="#000000" font-family="sans-serif" font-size="8.4" lengthAdjust="spacing" textLength="113.4" x="174.6" y="384.5261">SetTeachersCourseController</text><line style="stroke:#181818;stroke-width:0.3;" x1="157.8" x2="289.2" y1="390.648" y2="390.648"/><line style="stroke:#181818;stroke-width:0.3;" x1="157.8" x2="289.2" y1="395.448" y2="395.448"/><ellipse cx="163.8" cy="404.3343" fill="#84BE84" rx="1.8" ry="1.8" style="stroke:#038048;stroke-width:0.6;"/><text fill="#000000" font-family="sans-serif" font-size="8.4" lengthAdjust="spacing" textLength="88.8" x="169.2" y="406.9125">SetTeachersinCourse()</text><ellipse cx="163.8" cy="415.507" fill="#84BE84" rx="1.8" ry="1.8" style="stroke:#038048;stroke-width:0.6;"/><text fill="#000000" font-family="sans-serif" font-size="8.4" lengthAdjust="spacing" textLength="81.6" x="169.2" y="418.0851">getall() :List&lt;Course&gt;</text><ellipse cx="163.8" cy="426.6796" fill="#84BE84" rx="1.8" ry="1.8" style="stroke:#038048;stroke-width:0.6;"/><text fill="#000000" font-family="sans-serif" font-size="8.4" lengthAdjust="spacing" textLength="106.8" x="169.2" y="429.2578">getallTeachers() :List&lt;user&gt;</text></g><!--class TeachersinCourseService--><g id="elem_TeachersinCourseService"><rect codeLine="53" fill="#F1F1F1" height="39.9727" id="TeachersinCourseService" rx="1.5" ry="1.5" style="stroke:#181818;stroke-width:0.3;" width="117.6" x="314.1" y="509.448"/><ellipse cx="323.1" cy="519.048" fill="#ADD1B2" rx="6.6" ry="6.6" style="stroke:#181818;stroke-width:0.6;"/><path d="M324.7594,516.573 Q324.8531,516.4418 324.9656,516.3761 Q325.0781,516.3105 325.2094,516.3105 Q325.4344,516.3105 325.575,516.4699 Q325.7156,516.6199 325.7156,516.9855 L325.7156,517.8574 Q325.7156,518.223 325.575,518.3824 Q325.4344,518.5418 325.2094,518.5418 Q325.0031,518.5418 324.8812,518.4199 Q324.7594,518.3074 324.6937,517.998 Q324.6656,517.7824 324.5531,517.6699 Q324.3563,517.4449 323.9906,517.3136 Q323.625,517.1824 323.25,517.1824 Q322.7906,517.1824 322.4063,517.3793 Q322.0313,517.5761 321.7313,518.0261 Q321.4406,518.4761 321.4406,519.0949 L321.4406,519.7511 Q321.4406,520.4918 321.975,520.9886 Q322.5094,521.4761 323.4656,521.4761 Q324.0281,521.4761 324.4219,521.3261 Q324.6563,521.2324 324.9094,520.9699 Q325.0687,520.8105 325.1531,520.7636 Q325.2469,520.7168 325.3688,520.7168 Q325.5656,520.7168 325.7156,520.8761 Q325.875,521.0261 325.875,521.2324 Q325.875,521.4386 325.6688,521.6824 Q325.3688,522.0293 324.8906,522.2261 Q324.2438,522.498 323.4656,522.498 Q322.5563,522.498 321.8344,522.123 Q321.2438,521.823 320.8313,521.1855 Q320.4188,520.5386 320.4188,519.7699 L320.4188,519.0761 Q320.4188,518.2793 320.7844,517.5949 Q321.1594,516.9011 321.8156,516.5355 Q322.4719,516.1605 323.2125,516.1605 Q323.6531,516.1605 324.0375,516.2636 Q324.4313,516.3574 324.7594,516.573 Z " fill="#000000"/><text fill="#000000" font-family="sans-serif" font-size="8.4" lengthAdjust="spacing" textLength="98.4" x="331.5" y="522.5261">TeachersinCourseService</text><line style="stroke:#181818;stroke-width:0.3;" x1="314.7" x2="431.1" y1="528.648" y2="528.648"/><line style="stroke:#181818;stroke-width:0.3;" x1="314.7" x2="431.1" y1="533.448" y2="533.448"/><ellipse cx="320.7" cy="542.3343" fill="#84BE84" rx="1.8" ry="1.8" style="stroke:#038048;stroke-width:0.6;"/><text fill="#000000" font-family="sans-serif" font-size="8.4" lengthAdjust="spacing" textLength="48" x="326.1" y="544.9125">addCourse()</text></g><!--class Password--><g id="elem_Password"><rect fill="#F1F1F1" height="28.8" id="Password" rx="1.5" ry="1.5" style="stroke:#181818;stroke-width:0.3;" width="55.8" x="287.4" y="268.248"/><ellipse cx="296.4" cy="277.848" fill="#ADD1B2" rx="6.6" ry="6.6" style="stroke:#181818;stroke-width:0.6;"/><path d="M298.0594,275.373 Q298.1531,275.2418 298.2656,275.1761 Q298.3781,275.1105 298.5094,275.1105 Q298.7344,275.1105 298.875,275.2699 Q299.0156,275.4199 299.0156,275.7855 L299.0156,276.6574 Q299.0156,277.023 298.875,277.1824 Q298.7344,277.3418 298.5094,277.3418 Q298.3031,277.3418 298.1813,277.2199 Q298.0594,277.1074 297.9938,276.798 Q297.9656,276.5824 297.8531,276.4699 Q297.6563,276.2449 297.2906,276.1136 Q296.925,275.9824 296.55,275.9824 Q296.0906,275.9824 295.7063,276.1793 Q295.3313,276.3761 295.0313,276.8261 Q294.7406,277.2761 294.7406,277.8949 L294.7406,278.5511 Q294.7406,279.2918 295.275,279.7886 Q295.8094,280.2761 296.7656,280.2761 Q297.3281,280.2761 297.7219,280.1261 Q297.9563,280.0324 298.2094,279.7699 Q298.3688,279.6105 298.4531,279.5636 Q298.5469,279.5168 298.6688,279.5168 Q298.8656,279.5168 299.0156,279.6761 Q299.175,279.8261 299.175,280.0324 Q299.175,280.2386 298.9688,280.4824 Q298.6688,280.8293 298.1906,281.0261 Q297.5438,281.298 296.7656,281.298 Q295.8563,281.298 295.1344,280.923 Q294.5438,280.623 294.1312,279.9855 Q293.7188,279.3386 293.7188,278.5699 L293.7188,277.8761 Q293.7188,277.0793 294.0844,276.3949 Q294.4594,275.7011 295.1156,275.3355 Q295.7719,274.9605 296.5125,274.9605 Q296.9531,274.9605 297.3375,275.0636 Q297.7313,275.1574 298.0594,275.373 Z " fill="#000000"/><text fill="#000000" font-family="sans-serif" font-size="8.4" lengthAdjust="spacing" textLength="36.6" x="304.8" y="281.3261">Password</text><line style="stroke:#181818;stroke-width:0.3;" x1="288" x2="342.6" y1="287.448" y2="287.448"/><line style="stroke:#181818;stroke-width:0.3;" x1="288" x2="342.6" y1="292.248" y2="292.248"/></g><!--class Email--><g id="elem_Email"><rect fill="#F1F1F1" height="28.8" id="Email" rx="1.5" ry="1.5" style="stroke:#181818;stroke-width:0.3;" width="39.6" x="612.9" y="102.648"/><ellipse cx="621.9" cy="112.248" fill="#ADD1B2" rx="6.6" ry="6.6" style="stroke:#181818;stroke-width:0.6;"/><path d="M623.5594,109.773 Q623.6531,109.6418 623.7656,109.5761 Q623.8781,109.5105 624.0094,109.5105 Q624.2344,109.5105 624.375,109.6699 Q624.5156,109.8199 624.5156,110.1855 L624.5156,111.0574 Q624.5156,111.423 624.375,111.5824 Q624.2344,111.7418 624.0094,111.7418 Q623.8031,111.7418 623.6813,111.6199 Q623.5594,111.5074 623.4938,111.198 Q623.4656,110.9824 623.3531,110.8699 Q623.1563,110.6449 622.7906,110.5136 Q622.425,110.3824 622.05,110.3824 Q621.5906,110.3824 621.2063,110.5793 Q620.8313,110.7761 620.5313,111.2261 Q620.2406,111.6761 620.2406,112.2949 L620.2406,112.9511 Q620.2406,113.6918 620.775,114.1886 Q621.3094,114.6761 622.2656,114.6761 Q622.8281,114.6761 623.2219,114.5261 Q623.4563,114.4324 623.7094,114.1699 Q623.8688,114.0105 623.9531,113.9636 Q624.0469,113.9168 624.1687,113.9168 Q624.3656,113.9168 624.5156,114.0761 Q624.675,114.2261 624.675,114.4324 Q624.675,114.6386 624.4688,114.8824 Q624.1687,115.2293 623.6906,115.4261 Q623.0437,115.698 622.2656,115.698 Q621.3562,115.698 620.6344,115.323 Q620.0437,115.023 619.6313,114.3855 Q619.2188,113.7386 619.2188,112.9699 L619.2188,112.2761 Q619.2188,111.4793 619.5844,110.7949 Q619.9594,110.1011 620.6156,109.7355 Q621.2719,109.3605 622.0125,109.3605 Q622.4531,109.3605 622.8375,109.4636 Q623.2312,109.5574 623.5594,109.773 Z " fill="#000000"/><text fill="#000000" font-family="sans-serif" font-size="8.4" lengthAdjust="spacing" textLength="20.4" x="630.3" y="115.7261">Email</text><line style="stroke:#181818;stroke-width:0.3;" x1="613.5" x2="651.9" y1="121.848" y2="121.848"/><line style="stroke:#181818;stroke-width:0.3;" x1="613.5" x2="651.9" y1="126.648" y2="126.648"/></g><!--class Role--><g id="elem_Role"><rect fill="#F1F1F1" height="28.8" id="Role" rx="1.5" ry="1.5" style="stroke:#181818;stroke-width:0.3;" width="36.6" x="555" y="102.648"/><ellipse cx="564" cy="112.248" fill="#ADD1B2" rx="6.6" ry="6.6" style="stroke:#181818;stroke-width:0.6;"/><path d="M565.6594,109.773 Q565.7531,109.6418 565.8656,109.5761 Q565.9781,109.5105 566.1094,109.5105 Q566.3344,109.5105 566.475,109.6699 Q566.6156,109.8199 566.6156,110.1855 L566.6156,111.0574 Q566.6156,111.423 566.475,111.5824 Q566.3344,111.7418 566.1094,111.7418 Q565.9031,111.7418 565.7813,111.6199 Q565.6594,111.5074 565.5938,111.198 Q565.5656,110.9824 565.4531,110.8699 Q565.2563,110.6449 564.8906,110.5136 Q564.525,110.3824 564.15,110.3824 Q563.6906,110.3824 563.3063,110.5793 Q562.9313,110.7761 562.6313,111.2261 Q562.3406,111.6761 562.3406,112.2949 L562.3406,112.9511 Q562.3406,113.6918 562.875,114.1886 Q563.4094,114.6761 564.3656,114.6761 Q564.9281,114.6761 565.3219,114.5261 Q565.5563,114.4324 565.8094,114.1699 Q565.9688,114.0105 566.0531,113.9636 Q566.1469,113.9168 566.2688,113.9168 Q566.4656,113.9168 566.6156,114.0761 Q566.775,114.2261 566.775,114.4324 Q566.775,114.6386 566.5688,114.8824 Q566.2688,115.2293 565.7906,115.4261 Q565.1438,115.698 564.3656,115.698 Q563.4563,115.698 562.7344,115.323 Q562.1438,115.023 561.7312,114.3855 Q561.3188,113.7386 561.3188,112.9699 L561.3188,112.2761 Q561.3188,111.4793 561.6844,110.7949 Q562.0594,110.1011 562.7156,109.7355 Q563.3719,109.3605 564.1125,109.3605 Q564.5531,109.3605 564.9375,109.4636 Q565.3313,109.5574 565.6594,109.773 Z " fill="#000000"/><text fill="#000000" font-family="sans-serif" font-size="8.4" lengthAdjust="spacing" textLength="17.4" x="572.4" y="115.7261">Role</text><line style="stroke:#181818;stroke-width:0.3;" x1="555.6" x2="591" y1="121.848" y2="121.848"/><line style="stroke:#181818;stroke-width:0.3;" x1="555.6" x2="591" y1="126.648" y2="126.648"/></g><!--class UserStatus--><g id="elem_UserStatus"><rect fill="#F1F1F1" height="28.8" id="UserStatus" rx="1.5" ry="1.5" style="stroke:#181818;stroke-width:0.3;" width="60.6" x="473.4" y="102.648"/><ellipse cx="482.4" cy="112.248" fill="#ADD1B2" rx="6.6" ry="6.6" style="stroke:#181818;stroke-width:0.6;"/><path d="M484.0594,109.773 Q484.1531,109.6418 484.2656,109.5761 Q484.3781,109.5105 484.5094,109.5105 Q484.7344,109.5105 484.875,109.6699 Q485.0156,109.8199 485.0156,110.1855 L485.0156,111.0574 Q485.0156,111.423 484.875,111.5824 Q484.7344,111.7418 484.5094,111.7418 Q484.3031,111.7418 484.1813,111.6199 Q484.0594,111.5074 483.9938,111.198 Q483.9656,110.9824 483.8531,110.8699 Q483.6563,110.6449 483.2906,110.5136 Q482.925,110.3824 482.55,110.3824 Q482.0906,110.3824 481.7062,110.5793 Q481.3312,110.7761 481.0313,111.2261 Q480.7406,111.6761 480.7406,112.2949 L480.7406,112.9511 Q480.7406,113.6918 481.275,114.1886 Q481.8094,114.6761 482.7656,114.6761 Q483.3281,114.6761 483.7219,114.5261 Q483.9562,114.4324 484.2094,114.1699 Q484.3688,114.0105 484.4531,113.9636 Q484.5469,113.9168 484.6688,113.9168 Q484.8656,113.9168 485.0156,114.0761 Q485.175,114.2261 485.175,114.4324 Q485.175,114.6386 484.9688,114.8824 Q484.6688,115.2293 484.1906,115.4261 Q483.5438,115.698 482.7656,115.698 Q481.8563,115.698 481.1344,115.323 Q480.5438,115.023 480.1312,114.3855 Q479.7188,113.7386 479.7188,112.9699 L479.7188,112.2761 Q479.7188,111.4793 480.0844,110.7949 Q480.4594,110.1011 481.1156,109.7355 Q481.7719,109.3605 482.5125,109.3605 Q482.9531,109.3605 483.3375,109.4636 Q483.7313,109.5574 484.0594,109.773 Z " fill="#000000"/><text fill="#000000" font-family="sans-serif" font-size="8.4" lengthAdjust="spacing" textLength="41.4" x="490.8" y="115.7261">UserStatus</text><line style="stroke:#181818;stroke-width:0.3;" x1="474" x2="533.4" y1="121.848" y2="121.848"/><line style="stroke:#181818;stroke-width:0.3;" x1="474" x2="533.4" y1="126.648" y2="126.648"/></g><!--link eCourseSystemUser to Password--><g id="link_eCourseSystemUser_Password"><path codeLine="61" d="M315.3,204.18 C315.3,229.092 315.3,253.464 315.3,268.128 " fill="none" id="eCourseSystemUser-Password" style="stroke:#181818;stroke-width:0.6;"/></g><!--link eCourseSystemUser to Email--><g id="link_eCourseSystemUser_Email"><path codeLine="62" d="M447.534,30.006 C456.084,26.514 464.742,23.472 473.4,21.048 C498.696,13.968 566.964,11.934 591.6,21.048 C623.484,32.844 630.708,78.858 632.292,102.642 " fill="none" id="eCourseSystemUser-Email" style="stroke:#181818;stroke-width:0.6;"/></g><!--link eCourseSystemUser to Role--><g id="link_eCourseSystemUser_Role"><path codeLine="63" d="M447.534,30.006 C456.084,26.514 464.742,23.472 473.4,21.048 C504.072,12.462 526.752,3.6 544.5,30.048 C559.788,52.842 567.552,84.42 570.99,102.594 " fill="none" id="eCourseSystemUser-Role" style="stroke:#181818;stroke-width:0.6;"/></g><!--link eCourseSystemUser to UserStatus--><g id="link_eCourseSystemUser_UserStatus"><path codeLine="64" d="M452.55,117.048 C459.48,117.048 466.404,117.048 473.334,117.048 " fill="none" id="eCourseSystemUser-UserStatus" style="stroke:#181818;stroke-width:0.6;"/></g><!--link eCourseSystemUser to SetTeachersCourseUI--><g id="link_eCourseSystemUser_SetTeachersCourseUI"><path codeLine="66" d="M253.086,204.18 C240.906,221.124 228.9,237.816 219.15,251.376 " fill="none" id="eCourseSystemUser-SetTeachersCourseUI" style="stroke:#181818;stroke-width:0.6;stroke-dasharray:7.0,7.0;"/><text fill="#000000" font-family="sans-serif" font-size="7.8" lengthAdjust="spacing" textLength="53.4" x="239.7" y="231.065">if Manager user</text></g><!--link SetTeachersCourseUI to SetTeachersCourseController--><g id="link_SetTeachersCourseUI_SetTeachersCourseController"><path codeLine="67" d="M203.934,313.998 C207.858,331.668 212.772,353.784 216.696,371.43 " fill="none" id="SetTeachersCourseUI-SetTeachersCourseController" style="stroke:#181818;stroke-width:0.6;stroke-dasharray:7.0,7.0;"/></g><!--link SetTeachersCourseController to CourseRepository--><g id="link_SetTeachersCourseController_CourseRepository"><path codeLine="68" d="M186.66,433.998 C167.502,449.988 143.802,469.77 123.006,487.128 " fill="none" id="SetTeachersCourseController-CourseRepository" style="stroke:#181818;stroke-width:0.6;stroke-dasharray:7.0,7.0;"/></g><!--link SetTeachersCourseController to userRepository--><g id="link_SetTeachersCourseController_userRepository"><path codeLine="69" d="M224.088,433.998 C224.298,444.972 224.538,457.734 224.778,470.268 " fill="none" id="SetTeachersCourseController-userRepository" style="stroke:#181818;stroke-width:0.6;stroke-dasharray:7.0,7.0;"/></g><!--link SetTeachersCourseController to TeachersinCourseService--><g id="link_SetTeachersCourseController_TeachersinCourseService"><path codeLine="70" d="M260.046,433.998 C287.952,457.476 325.56,489.12 349.524,509.28 " fill="none" id="SetTeachersCourseController-TeachersinCourseService" style="stroke:#181818;stroke-width:0.6;stroke-dasharray:7.0,7.0;"/></g><!--link TeachersinCourseService to eCourseSystemUser--><g id="link_TeachersinCourseService_eCourseSystemUser"><path codeLine="71" d="M372.954,509.436 C372.774,463.884 370.554,347.166 353.7,251.448 C350.976,235.98 347.16,219.738 342.984,204.114 " fill="none" id="TeachersinCourseService-eCourseSystemUser" style="stroke:#181818;stroke-width:0.6;stroke-dasharray:7.0,7.0;"/><text fill="#000000" font-family="sans-serif" font-size="7.8" lengthAdjust="spacing" textLength="36" x="367.2" y="340.865">if Teacher,</text><text fill="#000000" font-family="sans-serif" font-size="7.8" lengthAdjust="spacing" textLength="36.6" x="366.9" y="351.2396">get altered</text></g><!--SRC=[XLHDRwCm4BtxLrYvb6n9Vm1QHOhINQbIDrc5zjQB2qEmPEp8Dbr5g_tlwoyW2ORaWCEyvvbvpnuAHfJ2i1MjL92VbORcNO74Vn4slsyurvBo8wvQndQaWUkegeNK5-63O82bUOJt7msX38DzXiXlK-sFa2K-XJyXRclcckXMOUMM47-bId_tpQrnuLRr1gIeeRp7C0q6okxb9-Qq2c-RGWf-RZ3ngui-ZXr8lCQibvxYBjBBJftYp4bEyGVtWZElEEt5fhtQ57yAmoKy2pANeVo6QP232Sc8zWyXLBYpyeqUu2GKrKAUmr4zObAM7alyaWLgLqD28xvWbb9HNXB6acLsvQj7BRXXR7y2dYpn36FBX89ob6IGq1gXSG4MIUmZSwJhrYT01KGMzItebowpjRSTx1qdqK8JjckRJv3xoWBAza-v3ZWpIlpbw44dphu5zKVGmdWJS1mb5CwQA6Mm9mVjxxXKthltbywY2uZoS9JBFhiFkCmNpZ-_xOS6kjqznnPt3Dl0HFsjuDhSSGRIz37PX4tlBizLzNKFH4klXxAtENEGNxI0oFtsuu0U3i28feAhcfuKGkEls6hL3s4CbVHOwvMVsXdS3laCF8njh8MdfzXvPWjQuL-4awEXM1yMACAARXuE0yrWTkljb-8U_teixx4dZWjD7QFPCdB7sH0sf1_St1C_gb0k4FeF]--></g></svg>