<?xml version="1.0" encoding="us-ascii" standalone="no"?><svg xmlns="http://www.w3.org/2000/svg" xmlns:xlink="http://www.w3.org/1999/xlink" contentStyleType="text/css" height="706.8px" preserveAspectRatio="none" style="width:1290px;height:706px;background:#FFFFFF;" version="1.1" viewBox="0 0 1290 706" width="1290.6px" zoomAndPan="magnify"><defs/><g><rect fill="#FFFFFF" height="569.0637" style="stroke:#181818;stroke-width:0.6;" width="6" x="18.6" y="72.9199"/><rect fill="#FFFFFF" height="93.873" style="stroke:#181818;stroke-width:0.6;" width="6" x="251.4" y="72.9199"/><rect fill="#FFFFFF" height="93.873" style="stroke:#181818;stroke-width:0.6;" width="6" x="251.4" y="185.5676"/><rect fill="#FFFFFF" height="338.3684" style="stroke:#181818;stroke-width:0.6;" width="6" x="251.4" y="298.2152"/><rect fill="#FFFFFF" height="56.3238" style="stroke:#181818;stroke-width:0.6;" width="6" x="519" y="91.6945"/><rect fill="#FFFFFF" height="56.3238" style="stroke:#181818;stroke-width:0.6;" width="6" x="519" y="204.3422"/><rect fill="#FFFFFF" height="300.8191" style="stroke:#181818;stroke-width:0.6;" width="6" x="519" y="316.9898"/><rect fill="#FFFFFF" height="84.0984" style="stroke:#181818;stroke-width:0.6;" width="6" x="798" y="430.8375"/><rect fill="#FFFFFF" height="35.5746" style="stroke:#181818;stroke-width:0.6;" width="6" x="944.4" y="465.3867"/><rect fill="#FFFFFF" height="18.7746" style="stroke:#181818;stroke-width:0.6;" width="6" x="1071.6" y="223.1168"/><rect fill="#FFFFFF" height="18.7746" style="stroke:#181818;stroke-width:0.6;" width="6" x="1071.6" y="389.0883"/><rect fill="#FFFFFF" height="18.7746" style="stroke:#181818;stroke-width:0.6;" width="6" x="1144.5" y="110.4691"/><rect fill="#FFFFFF" height="18.7746" style="stroke:#181818;stroke-width:0.6;" width="6" x="1144.5" y="335.7645"/><rect fill="#FFFFFF" height="65.3238" style="stroke:#181818;stroke-width:0.6;" width="6" x="1144.5" y="533.7105"/><rect fill="none" height="49.1238" style="stroke:#000000;stroke-width:0.8999999999999999;" width="657.6" x="453.9" y="363.5391"/><rect fill="none" height="56.9238" style="stroke:#000000;stroke-width:0.8999999999999999;" width="333" x="741.6" y="439.8375"/><rect fill="none" height="38.1492" style="stroke:#000000;stroke-width:0.8999999999999999;" width="181.8" x="1105.5" y="542.7105"/><line style="stroke:#181818;stroke-width:0.3;stroke-dasharray:5.0,5.0;" x1="21.6" x2="21.6" y1="52.9453" y2="647.3836"/><line style="stroke:#181818;stroke-width:0.3;stroke-dasharray:5.0,5.0;" x1="254.1" x2="254.1" y1="52.9453" y2="647.3836"/><line style="stroke:#181818;stroke-width:0.3;stroke-dasharray:5.0,5.0;" x1="521.7" x2="521.7" y1="52.9453" y2="647.3836"/><line style="stroke:#181818;stroke-width:0.3;stroke-dasharray:5.0,5.0;" x1="801" x2="801" y1="52.9453" y2="647.3836"/><line style="stroke:#181818;stroke-width:0.3;stroke-dasharray:5.0,5.0;" x1="947.1" x2="947.1" y1="52.9453" y2="647.3836"/><line style="stroke:#181818;stroke-width:0.3;stroke-dasharray:5.0,5.0;" x1="1074.3" x2="1074.3" y1="52.9453" y2="647.3836"/><line style="stroke:#181818;stroke-width:0.3;stroke-dasharray:5.0,5.0;" x1="1147.5" x2="1147.5" y1="52.9453" y2="647.3836"/><text fill="#000000" font-family="sans-serif" font-size="8.4" lengthAdjust="spacing" textLength="33.6" x="3" y="50.8371">Manager</text><ellipse cx="21.6" cy="10.8727" fill="#E2E2F0" rx="4.8" ry="4.8" style="stroke:#181818;stroke-width:0.3;"/><path d="M21.6,15.6727 L21.6,31.8727 M13.8,20.4727 L29.4,20.4727 M21.6,31.8727 L13.8,40.8727 M21.6,31.8727 L29.4,40.8727 " fill="none" style="stroke:#181818;stroke-width:0.3;"/><text fill="#000000" font-family="sans-serif" font-size="8.4" lengthAdjust="spacing" textLength="33.6" x="3" y="655.848">Manager</text><ellipse cx="21.6" cy="663.0563" fill="#E2E2F0" rx="4.8" ry="4.8" style="stroke:#181818;stroke-width:0.3;"/><path d="M21.6,667.8562 L21.6,684.0563 M13.8,672.6563 L29.4,672.6563 M21.6,684.0563 L13.8,693.0563 M21.6,684.0563 L29.4,693.0563 " fill="none" style="stroke:#181818;stroke-width:0.3;"/><rect fill="#E2E2F0" height="19.5727" rx="1.5" ry="1.5" style="stroke:#181818;stroke-width:0.3;" width="94.2" x="207.3" y="32.7727"/><text fill="#000000" font-family="sans-serif" font-size="8.4" lengthAdjust="spacing" textLength="85.8" x="211.5" y="46.0371">:SetTeachersCourseUI</text><rect fill="#E2E2F0" height="19.5727" rx="1.5" ry="1.5" style="stroke:#181818;stroke-width:0.3;" width="94.2" x="207.3" y="646.7836"/><text fill="#000000" font-family="sans-serif" font-size="8.4" lengthAdjust="spacing" textLength="85.8" x="211.5" y="660.048">:SetTeachersCourseUI</text><rect fill="#E2E2F0" height="19.5727" rx="1.5" ry="1.5" style="stroke:#181818;stroke-width:0.3;" width="124.2" x="459.9" y="32.7727"/><text fill="#000000" font-family="sans-serif" font-size="8.4" lengthAdjust="spacing" textLength="115.8" x="464.1" y="46.0371">:SetTeachersCourseController</text><rect fill="#E2E2F0" height="19.5727" rx="1.5" ry="1.5" style="stroke:#181818;stroke-width:0.3;" width="124.2" x="459.9" y="646.7836"/><text fill="#000000" font-family="sans-serif" font-size="8.4" lengthAdjust="spacing" textLength="115.8" x="464.1" y="660.048">:SetTeachersCourseController</text><rect fill="#E2E2F0" height="30.7453" rx="1.5" ry="1.5" style="stroke:#181818;stroke-width:0.3;" width="106.8" x="747.6" y="21.6"/><text fill="#000000" font-family="sans-serif" font-size="8.4" font-style="italic" lengthAdjust="spacing" textLength="36" x="783" y="34.8645">&#171;service&#187;</text><text fill="#000000" font-family="sans-serif" font-size="8.4" lengthAdjust="spacing" textLength="98.4" x="751.8" y="46.0371">TeachersinCourseService</text><rect fill="#E2E2F0" height="30.7453" rx="1.5" ry="1.5" style="stroke:#181818;stroke-width:0.3;" width="106.8" x="747.6" y="646.7836"/><text fill="#000000" font-family="sans-serif" font-size="8.4" font-style="italic" lengthAdjust="spacing" textLength="36" x="783" y="660.048">&#171;service&#187;</text><text fill="#000000" font-family="sans-serif" font-size="8.4" lengthAdjust="spacing" textLength="98.4" x="751.8" y="671.2207">TeachersinCourseService</text><rect fill="#E2E2F0" height="19.5727" rx="1.5" ry="1.5" style="stroke:#181818;stroke-width:0.3;" width="40.2" x="927.3" y="32.7727"/><text fill="#000000" font-family="sans-serif" font-size="8.4" lengthAdjust="spacing" textLength="31.8" x="931.5" y="46.0371">Teacher</text><rect fill="#E2E2F0" height="19.5727" rx="1.5" ry="1.5" style="stroke:#181818;stroke-width:0.3;" width="40.2" x="927.3" y="646.7836"/><text fill="#000000" font-family="sans-serif" font-size="8.4" lengthAdjust="spacing" textLength="31.8" x="931.5" y="660.048">Teacher</text><text fill="#000000" font-family="sans-serif" font-size="8.4" font-style="italic" lengthAdjust="spacing" textLength="47.4" x="1049.1" y="39.6645">&#171;repository&#187;</text><text fill="#000000" font-family="sans-serif" font-size="8.4" lengthAdjust="spacing" textLength="58.2" x="1043.7" y="50.8371">UserRepository</text><path d="M1063.8,9 C1063.8,3 1074.6,3 1074.6,3 C1074.6,3 1085.4,3 1085.4,9 L1085.4,24.6 C1085.4,30.6 1074.6,30.6 1074.6,30.6 C1074.6,30.6 1063.8,30.6 1063.8,24.6 L1063.8,9 " fill="#E2E2F0" style="stroke:#181818;stroke-width:0.8999999999999999;"/><path d="M1063.8,9 C1063.8,15 1074.6,15 1074.6,15 C1074.6,15 1085.4,15 1085.4,9 " fill="none" style="stroke:#181818;stroke-width:0.8999999999999999;"/><text fill="#000000" font-family="sans-serif" font-size="8.4" font-style="italic" lengthAdjust="spacing" textLength="47.4" x="1049.1" y="655.848">&#171;repository&#187;</text><text fill="#000000" font-family="sans-serif" font-size="8.4" lengthAdjust="spacing" textLength="58.2" x="1043.7" y="667.0207">UserRepository</text><path d="M1063.8,675.1289 C1063.8,669.1289 1074.6,669.1289 1074.6,669.1289 C1074.6,669.1289 1085.4,669.1289 1085.4,675.1289 L1085.4,690.7289 C1085.4,696.7289 1074.6,696.7289 1074.6,696.7289 C1074.6,696.7289 1063.8,696.7289 1063.8,690.7289 L1063.8,675.1289 " fill="#E2E2F0" style="stroke:#181818;stroke-width:0.8999999999999999;"/><path d="M1063.8,675.1289 C1063.8,681.1289 1074.6,681.1289 1074.6,681.1289 C1074.6,681.1289 1085.4,681.1289 1085.4,675.1289 " fill="none" style="stroke:#181818;stroke-width:0.8999999999999999;"/><text fill="#000000" font-family="sans-serif" font-size="8.4" font-style="italic" lengthAdjust="spacing" textLength="47.4" x="1122" y="39.6645">&#171;repository&#187;</text><text fill="#000000" font-family="sans-serif" font-size="8.4" lengthAdjust="spacing" textLength="68.4" x="1111.5" y="50.8371">CourseRepository</text><path d="M1136.7,9 C1136.7,3 1147.5,3 1147.5,3 C1147.5,3 1158.3,3 1158.3,9 L1158.3,24.6 C1158.3,30.6 1147.5,30.6 1147.5,30.6 C1147.5,30.6 1136.7,30.6 1136.7,24.6 L1136.7,9 " fill="#E2E2F0" style="stroke:#181818;stroke-width:0.8999999999999999;"/><path d="M1136.7,9 C1136.7,15 1147.5,15 1147.5,15 C1147.5,15 1158.3,15 1158.3,9 " fill="none" style="stroke:#181818;stroke-width:0.8999999999999999;"/><text fill="#000000" font-family="sans-serif" font-size="8.4" font-style="italic" lengthAdjust="spacing" textLength="47.4" x="1122" y="655.848">&#171;repository&#187;</text><text fill="#000000" font-family="sans-serif" font-size="8.4" lengthAdjust="spacing" textLength="68.4" x="1111.5" y="667.0207">CourseRepository</text><path d="M1136.7,675.1289 C1136.7,669.1289 1147.5,669.1289 1147.5,669.1289 C1147.5,669.1289 1158.3,669.1289 1158.3,675.1289 L1158.3,690.7289 C1158.3,696.7289 1147.5,696.7289 1147.5,696.7289 C1147.5,696.7289 1136.7,696.7289 1136.7,690.7289 L1136.7,675.1289 " fill="#E2E2F0" style="stroke:#181818;stroke-width:0.8999999999999999;"/><path d="M1136.7,675.1289 C1136.7,681.1289 1147.5,681.1289 1147.5,681.1289 C1147.5,681.1289 1158.3,681.1289 1158.3,675.1289 " fill="none" style="stroke:#181818;stroke-width:0.8999999999999999;"/><rect fill="#FFFFFF" height="569.0637" style="stroke:#181818;stroke-width:0.6;" width="6" x="18.6" y="72.9199"/><rect fill="#FFFFFF" height="93.873" style="stroke:#181818;stroke-width:0.6;" width="6" x="251.4" y="72.9199"/><rect fill="#FFFFFF" height="93.873" style="stroke:#181818;stroke-width:0.6;" width="6" x="251.4" y="185.5676"/><rect fill="#FFFFFF" height="338.3684" style="stroke:#181818;stroke-width:0.6;" width="6" x="251.4" y="298.2152"/><rect fill="#FFFFFF" height="56.3238" style="stroke:#181818;stroke-width:0.6;" width="6" x="519" y="91.6945"/><rect fill="#FFFFFF" height="56.3238" style="stroke:#181818;stroke-width:0.6;" width="6" x="519" y="204.3422"/><rect fill="#FFFFFF" height="300.8191" style="stroke:#181818;stroke-width:0.6;" width="6" x="519" y="316.9898"/><rect fill="#FFFFFF" height="84.0984" style="stroke:#181818;stroke-width:0.6;" width="6" x="798" y="430.8375"/><rect fill="#FFFFFF" height="35.5746" style="stroke:#181818;stroke-width:0.6;" width="6" x="944.4" y="465.3867"/><rect fill="#FFFFFF" height="18.7746" style="stroke:#181818;stroke-width:0.6;" width="6" x="1071.6" y="223.1168"/><rect fill="#FFFFFF" height="18.7746" style="stroke:#181818;stroke-width:0.6;" width="6" x="1071.6" y="389.0883"/><rect fill="#FFFFFF" height="18.7746" style="stroke:#181818;stroke-width:0.6;" width="6" x="1144.5" y="110.4691"/><rect fill="#FFFFFF" height="18.7746" style="stroke:#181818;stroke-width:0.6;" width="6" x="1144.5" y="335.7645"/><rect fill="#FFFFFF" height="65.3238" style="stroke:#181818;stroke-width:0.6;" width="6" x="1144.5" y="533.7105"/><polygon fill="#181818" points="244.2,70.5199,250.2,72.9199,244.2,75.3199,246.6,72.9199" style="stroke:#181818;stroke-width:0.6;"/><line style="stroke:#181818;stroke-width:0.6;" x1="24.6" x2="247.8" y1="72.9199" y2="72.9199"/><text fill="#000000" font-family="sans-serif" font-size="7.8" font-weight="bold" lengthAdjust="spacing" textLength="4.2" x="28.8" y="69.7623">1</text><text fill="#000000" font-family="sans-serif" font-size="7.8" lengthAdjust="spacing" textLength="143.4" x="35.4" y="69.7623">Starts asking to set Teachers in a course</text><polygon fill="#181818" points="511.8,89.2945,517.8,91.6945,511.8,94.0945,514.2,91.6945" style="stroke:#181818;stroke-width:0.6;"/><line style="stroke:#181818;stroke-width:0.6;" x1="257.4" x2="515.4" y1="91.6945" y2="91.6945"/><text fill="#000000" font-family="sans-serif" font-size="7.8" font-weight="bold" lengthAdjust="spacing" textLength="4.2" x="261.6" y="88.5369">2</text><text fill="#000000" font-family="sans-serif" font-size="7.8" lengthAdjust="spacing" textLength="44.4" x="268.2" y="88.5369">getCourses()</text><polygon fill="#181818" points="1137.3,108.0691,1143.3,110.4691,1137.3,112.8691,1139.7,110.4691" style="stroke:#181818;stroke-width:0.6;"/><line style="stroke:#181818;stroke-width:0.6;" x1="525" x2="1140.9" y1="110.4691" y2="110.4691"/><text fill="#000000" font-family="sans-serif" font-size="7.8" font-weight="bold" lengthAdjust="spacing" textLength="4.2" x="529.2" y="107.3115">3</text><text fill="#000000" font-family="sans-serif" font-size="7.8" lengthAdjust="spacing" textLength="106.2" x="535.8" y="107.3115">List&lt;Course&gt; Courses=getall()</text><polygon fill="#181818" points="531.6,126.8438,525.6,129.2438,531.6,131.6437,529.2,129.2438" style="stroke:#181818;stroke-width:0.6;"/><line style="stroke:#181818;stroke-width:0.6;stroke-dasharray:2.0,2.0;" x1="528" x2="1146.9" y1="129.2438" y2="129.2438"/><text fill="#000000" font-family="sans-serif" font-size="7.8" font-weight="bold" lengthAdjust="spacing" textLength="4.2" x="535.2" y="126.0861">4</text><text fill="#000000" font-family="sans-serif" font-size="7.8" lengthAdjust="spacing" textLength="28.8" x="541.8" y="126.0861">Courses</text><polygon fill="#181818" points="264,145.6184,258,148.0184,264,150.4184,261.6,148.0184" style="stroke:#181818;stroke-width:0.6;"/><line style="stroke:#181818;stroke-width:0.6;stroke-dasharray:2.0,2.0;" x1="260.4" x2="521.4" y1="148.0184" y2="148.0184"/><text fill="#000000" font-family="sans-serif" font-size="7.8" font-weight="bold" lengthAdjust="spacing" textLength="4.2" x="267.6" y="144.8607">5</text><text fill="#000000" font-family="sans-serif" font-size="7.8" lengthAdjust="spacing" textLength="40.2" x="274.2" y="144.8607">CourseDTO</text><polygon fill="#181818" points="31.2,164.393,25.2,166.793,31.2,169.193,28.8,166.793" style="stroke:#181818;stroke-width:0.6;"/><line style="stroke:#181818;stroke-width:0.6;stroke-dasharray:2.0,2.0;" x1="27.6" x2="253.8" y1="166.793" y2="166.793"/><text fill="#000000" font-family="sans-serif" font-size="7.8" font-weight="bold" lengthAdjust="spacing" textLength="4.2" x="34.8" y="163.6354">6</text><text fill="#000000" font-family="sans-serif" font-size="7.8" lengthAdjust="spacing" textLength="140.4" x="41.4" y="163.6354">Shows Courses and asks to choose one</text><polygon fill="#181818" points="244.2,183.1676,250.2,185.5676,244.2,187.9676,246.6,185.5676" style="stroke:#181818;stroke-width:0.6;"/><line style="stroke:#181818;stroke-width:0.6;" x1="24.6" x2="247.8" y1="185.5676" y2="185.5676"/><text fill="#000000" font-family="sans-serif" font-size="7.8" font-weight="bold" lengthAdjust="spacing" textLength="4.2" x="28.8" y="182.41">7</text><text fill="#000000" font-family="sans-serif" font-size="7.8" lengthAdjust="spacing" textLength="58.8" x="35.4" y="182.41">Selects a course</text><polygon fill="#181818" points="511.8,201.9422,517.8,204.3422,511.8,206.7422,514.2,204.3422" style="stroke:#181818;stroke-width:0.6;"/><line style="stroke:#181818;stroke-width:0.6;" x1="257.4" x2="515.4" y1="204.3422" y2="204.3422"/><text fill="#000000" font-family="sans-serif" font-size="7.8" font-weight="bold" lengthAdjust="spacing" textLength="4.2" x="261.6" y="201.1846">8</text><text fill="#000000" font-family="sans-serif" font-size="7.8" lengthAdjust="spacing" textLength="47.4" x="268.2" y="201.1846">getTeachers()</text><polygon fill="#181818" points="1064.4,220.7168,1070.4,223.1168,1064.4,225.5168,1066.8,223.1168" style="stroke:#181818;stroke-width:0.6;"/><line style="stroke:#181818;stroke-width:0.6;" x1="525" x2="1068" y1="223.1168" y2="223.1168"/><text fill="#000000" font-family="sans-serif" font-size="7.8" font-weight="bold" lengthAdjust="spacing" textLength="4.2" x="529.2" y="219.9592">9</text><text fill="#000000" font-family="sans-serif" font-size="7.8" lengthAdjust="spacing" textLength="132.6" x="535.8" y="219.9592">List&lt;User&gt; Teachers=getallTeachers()</text><polygon fill="#181818" points="531.6,239.4914,525.6,241.8914,531.6,244.2914,529.2,241.8914" style="stroke:#181818;stroke-width:0.6;"/><line style="stroke:#181818;stroke-width:0.6;stroke-dasharray:2.0,2.0;" x1="528" x2="1074" y1="241.8914" y2="241.8914"/><text fill="#000000" font-family="sans-serif" font-size="7.8" font-weight="bold" lengthAdjust="spacing" textLength="8.4" x="535.2" y="238.7338">10</text><text fill="#000000" font-family="sans-serif" font-size="7.8" lengthAdjust="spacing" textLength="31.8" x="546" y="238.7338">Teachers</text><polygon fill="#181818" points="264,258.266,258,260.666,264,263.066,261.6,260.666" style="stroke:#181818;stroke-width:0.6;"/><line style="stroke:#181818;stroke-width:0.6;stroke-dasharray:2.0,2.0;" x1="260.4" x2="521.4" y1="260.666" y2="260.666"/><text fill="#000000" font-family="sans-serif" font-size="7.8" font-weight="bold" lengthAdjust="spacing" textLength="8.4" x="267.6" y="257.5084">11</text><text fill="#000000" font-family="sans-serif" font-size="7.8" lengthAdjust="spacing" textLength="43.2" x="278.4" y="257.5084">TeacherDTO</text><polygon fill="#181818" points="31.2,277.0406,25.2,279.4406,31.2,281.8406,28.8,279.4406" style="stroke:#181818;stroke-width:0.6;"/><line style="stroke:#181818;stroke-width:0.6;stroke-dasharray:2.0,2.0;" x1="27.6" x2="253.8" y1="279.4406" y2="279.4406"/><text fill="#000000" font-family="sans-serif" font-size="7.8" font-weight="bold" lengthAdjust="spacing" textLength="8.4" x="34.8" y="276.283">12</text><text fill="#000000" font-family="sans-serif" font-size="7.8" lengthAdjust="spacing" textLength="201.6" x="45.6" y="276.283">Shows Teachers and asks to choose the teachers needed</text><polygon fill="#181818" points="244.2,295.8152,250.2,298.2152,244.2,300.6152,246.6,298.2152" style="stroke:#181818;stroke-width:0.6;"/><line style="stroke:#181818;stroke-width:0.6;" x1="24.6" x2="247.8" y1="298.2152" y2="298.2152"/><text fill="#000000" font-family="sans-serif" font-size="7.8" font-weight="bold" lengthAdjust="spacing" textLength="8.4" x="28.8" y="295.0576">13</text><text fill="#000000" font-family="sans-serif" font-size="7.8" lengthAdjust="spacing" textLength="97.8" x="39.6" y="295.0576">Selects all wanted Teachers</text><polygon fill="#181818" points="511.8,314.5898,517.8,316.9898,511.8,319.3898,514.2,316.9898" style="stroke:#181818;stroke-width:0.6;"/><line style="stroke:#181818;stroke-width:0.6;" x1="257.4" x2="515.4" y1="316.9898" y2="316.9898"/><text fill="#000000" font-family="sans-serif" font-size="7.8" font-weight="bold" lengthAdjust="spacing" textLength="8.4" x="261.6" y="313.8322">14</text><text fill="#000000" font-family="sans-serif" font-size="7.8" lengthAdjust="spacing" textLength="239.4" x="272.4" y="313.8322">SetTeachersInCourse(String CourseCode, List&lt;Acronyms&gt; teachers)</text><polygon fill="#181818" points="1137.3,333.3645,1143.3,335.7645,1137.3,338.1645,1139.7,335.7645" style="stroke:#181818;stroke-width:0.6;"/><line style="stroke:#181818;stroke-width:0.6;" x1="525" x2="1140.9" y1="335.7645" y2="335.7645"/><text fill="#000000" font-family="sans-serif" font-size="7.8" font-weight="bold" lengthAdjust="spacing" textLength="8.4" x="529.2" y="332.6068">15</text><text fill="#000000" font-family="sans-serif" font-size="7.8" lengthAdjust="spacing" textLength="174" x="540" y="332.6068">Course=findByCode(COURSECODE CourseCode)</text><polygon fill="#181818" points="531.6,352.1391,525.6,354.5391,531.6,356.9391,529.2,354.5391" style="stroke:#181818;stroke-width:0.6;"/><line style="stroke:#181818;stroke-width:0.6;stroke-dasharray:2.0,2.0;" x1="528" x2="1146.9" y1="354.5391" y2="354.5391"/><text fill="#000000" font-family="sans-serif" font-size="7.8" font-weight="bold" lengthAdjust="spacing" textLength="8.4" x="535.2" y="351.3814">16</text><text fill="#000000" font-family="sans-serif" font-size="7.8" lengthAdjust="spacing" textLength="24.6" x="546" y="351.3814">Course</text><path d="M453.9,363.5391 L497.7,363.5391 L497.7,369.1137 L491.7,375.1137 L453.9,375.1137 L453.9,363.5391 " fill="#EEEEEE" style="stroke:#000000;stroke-width:0.8999999999999999;"/><rect fill="none" height="49.1238" style="stroke:#000000;stroke-width:0.8999999999999999;" width="657.6" x="453.9" y="363.5391"/><text fill="#000000" font-family="sans-serif" font-size="7.8" font-weight="bold" lengthAdjust="spacing" textLength="16.8" x="462.9" y="372.5561">loop</text><text fill="#000000" font-family="sans-serif" font-size="6.6" font-weight="bold" lengthAdjust="spacing" textLength="102.6" x="506.7" y="371.8611">[for each Acronym in teachers]</text><polygon fill="#181818" points="1064.4,386.6883,1070.4,389.0883,1064.4,391.4883,1066.8,389.0883" style="stroke:#181818;stroke-width:0.6;"/><line style="stroke:#181818;stroke-width:0.6;" x1="525" x2="1068" y1="389.0883" y2="389.0883"/><text fill="#000000" font-family="sans-serif" font-size="7.8" font-weight="bold" lengthAdjust="spacing" textLength="8.4" x="529.2" y="385.9307">17</text><text fill="#000000" font-family="sans-serif" font-size="7.8" lengthAdjust="spacing" textLength="109.8" x="540" y="385.9307">User=findByAcronym(Acronym)</text><polygon fill="#181818" points="531.6,405.4629,525.6,407.8629,531.6,410.2629,529.2,407.8629" style="stroke:#181818;stroke-width:0.6;"/><line style="stroke:#181818;stroke-width:0.6;stroke-dasharray:2.0,2.0;" x1="528" x2="1074" y1="407.8629" y2="407.8629"/><text fill="#000000" font-family="sans-serif" font-size="7.8" font-weight="bold" lengthAdjust="spacing" textLength="8.4" x="535.2" y="404.7053">18</text><text fill="#000000" font-family="sans-serif" font-size="7.8" lengthAdjust="spacing" textLength="27.6" x="546" y="404.7053">Teacher</text><polygon fill="#181818" points="790.8,428.4375,796.8,430.8375,790.8,433.2375,793.2,430.8375" style="stroke:#181818;stroke-width:0.6;"/><line style="stroke:#181818;stroke-width:0.6;" x1="525" x2="794.4" y1="430.8375" y2="430.8375"/><text fill="#000000" font-family="sans-serif" font-size="7.8" font-weight="bold" lengthAdjust="spacing" textLength="8.4" x="529.2" y="427.6799">19</text><text fill="#000000" font-family="sans-serif" font-size="7.8" lengthAdjust="spacing" textLength="250.8" x="540" y="427.6799">SetTeacherCourse(Course course, List&lt;eCourseSystemUser&gt; teachers)</text><path d="M741.6,439.8375 L785.4,439.8375 L785.4,445.4121 L779.4,451.4121 L741.6,451.4121 L741.6,439.8375 " fill="#EEEEEE" style="stroke:#000000;stroke-width:0.8999999999999999;"/><rect fill="none" height="56.9238" style="stroke:#000000;stroke-width:0.8999999999999999;" width="333" x="741.6" y="439.8375"/><text fill="#000000" font-family="sans-serif" font-size="7.8" font-weight="bold" lengthAdjust="spacing" textLength="16.8" x="750.6" y="448.8545">loop</text><text fill="#000000" font-family="sans-serif" font-size="6.6" font-weight="bold" lengthAdjust="spacing" textLength="97.8" x="794.4" y="448.1596">[for each teacher in teachers]</text><polygon fill="#181818" points="937.2,462.9867,943.2,465.3867,937.2,467.7867,939.6,465.3867" style="stroke:#181818;stroke-width:0.6;"/><line style="stroke:#181818;stroke-width:0.6;" x1="804" x2="940.8" y1="465.3867" y2="465.3867"/><text fill="#000000" font-family="sans-serif" font-size="7.8" font-weight="bold" lengthAdjust="spacing" textLength="8.4" x="808.2" y="462.2291">20</text><text fill="#000000" font-family="sans-serif" font-size="7.8" lengthAdjust="spacing" textLength="118.2" x="819" y="462.2291">setTeacherCourse(Course course)</text><line style="stroke:#181818;stroke-width:0.6;stroke-dasharray:2.0,2.0;" x1="950.4" x2="975.6" y1="484.1613" y2="484.1613"/><line style="stroke:#181818;stroke-width:0.6;stroke-dasharray:2.0,2.0;" x1="975.6" x2="975.6" y1="484.1613" y2="491.9613"/><line style="stroke:#181818;stroke-width:0.6;stroke-dasharray:2.0,2.0;" x1="951" x2="975.6" y1="491.9613" y2="491.9613"/><polygon fill="#181818" points="957,489.5613,951,491.9613,957,494.3613,954.6,491.9613" style="stroke:#181818;stroke-width:0.6;"/><text fill="#000000" font-family="sans-serif" font-size="7.8" font-weight="bold" lengthAdjust="spacing" textLength="8.4" x="954.6" y="481.0037">21</text><text fill="#000000" font-family="sans-serif" font-size="7.8" lengthAdjust="spacing" textLength="102" x="965.4" y="481.0037">coursesTeaching.add(course)</text><polygon fill="#181818" points="531.6,512.5359,525.6,514.9359,531.6,517.3359,529.2,514.9359" style="stroke:#181818;stroke-width:0.6;"/><line style="stroke:#181818;stroke-width:0.6;stroke-dasharray:2.0,2.0;" x1="528" x2="800.4" y1="514.9359" y2="514.9359"/><text fill="#000000" font-family="sans-serif" font-size="7.8" font-weight="bold" lengthAdjust="spacing" textLength="8.4" x="535.2" y="511.7783">22</text><text fill="#000000" font-family="sans-serif" font-size="7.8" lengthAdjust="spacing" textLength="56.4" x="546" y="511.7783">TeachersAltered</text><polygon fill="#181818" points="1137.3,531.3105,1143.3,533.7105,1137.3,536.1105,1139.7,533.7105" style="stroke:#181818;stroke-width:0.6;"/><line style="stroke:#181818;stroke-width:0.6;" x1="525" x2="1140.9" y1="533.7105" y2="533.7105"/><text fill="#000000" font-family="sans-serif" font-size="7.8" font-weight="bold" lengthAdjust="spacing" textLength="8.4" x="529.2" y="530.5529">23</text><text fill="#000000" font-family="sans-serif" font-size="7.8" lengthAdjust="spacing" textLength="73.8" x="540" y="530.5529">add(TeachersAltered)</text><path d="M1105.5,542.7105 L1149.3,542.7105 L1149.3,548.2852 L1143.3,554.2852 L1105.5,554.2852 L1105.5,542.7105 " fill="#EEEEEE" style="stroke:#000000;stroke-width:0.8999999999999999;"/><rect fill="none" height="38.1492" style="stroke:#000000;stroke-width:0.8999999999999999;" width="181.8" x="1105.5" y="542.7105"/><text fill="#000000" font-family="sans-serif" font-size="7.8" font-weight="bold" lengthAdjust="spacing" textLength="16.8" x="1114.5" y="551.7275">loop</text><text fill="#000000" font-family="sans-serif" font-size="6.6" font-weight="bold" lengthAdjust="spacing" textLength="126" x="1158.3" y="551.0326">[for each Teacher in TeachersAltered]</text><line style="stroke:#181818;stroke-width:0.6;" x1="1150.5" x2="1175.7" y1="568.2598" y2="568.2598"/><line style="stroke:#181818;stroke-width:0.6;" x1="1175.7" x2="1175.7" y1="568.2598" y2="576.0598"/><line style="stroke:#181818;stroke-width:0.6;" x1="1151.1" x2="1175.7" y1="576.0598" y2="576.0598"/><polygon fill="#181818" points="1157.1,573.6598,1151.1,576.0598,1157.1,578.4598,1154.7,576.0598" style="stroke:#181818;stroke-width:0.6;"/><text fill="#000000" font-family="sans-serif" font-size="7.8" font-weight="bold" lengthAdjust="spacing" textLength="8.4" x="1154.7" y="565.1021">24</text><text fill="#000000" font-family="sans-serif" font-size="7.8" lengthAdjust="spacing" textLength="20.4" x="1165.5" y="565.1021">save()</text><polygon fill="#181818" points="531.6,596.6344,525.6,599.0344,531.6,601.4344,529.2,599.0344" style="stroke:#181818;stroke-width:0.6;"/><line style="stroke:#181818;stroke-width:0.6;stroke-dasharray:2.0,2.0;" x1="528" x2="1146.9" y1="599.0344" y2="599.0344"/><text fill="#000000" font-family="sans-serif" font-size="7.8" font-weight="bold" lengthAdjust="spacing" textLength="8.4" x="535.2" y="595.8768">25</text><text fill="#000000" font-family="sans-serif" font-size="7.8" lengthAdjust="spacing" textLength="55.8" x="546" y="595.8768">operation status</text><polygon fill="#181818" points="264,615.409,258,617.809,264,620.209,261.6,617.809" style="stroke:#181818;stroke-width:0.6;"/><line style="stroke:#181818;stroke-width:0.6;stroke-dasharray:2.0,2.0;" x1="260.4" x2="521.4" y1="617.809" y2="617.809"/><text fill="#000000" font-family="sans-serif" font-size="7.8" font-weight="bold" lengthAdjust="spacing" textLength="8.4" x="267.6" y="614.6514">26</text><text fill="#000000" font-family="sans-serif" font-size="7.8" lengthAdjust="spacing" textLength="55.8" x="278.4" y="614.6514">operation status</text><polygon fill="#181818" points="31.2,634.1836,25.2,636.5836,31.2,638.9836,28.8,636.5836" style="stroke:#181818;stroke-width:0.6;"/><line style="stroke:#181818;stroke-width:0.6;stroke-dasharray:2.0,2.0;" x1="27.6" x2="253.8" y1="636.5836" y2="636.5836"/><text fill="#000000" font-family="sans-serif" font-size="7.8" font-weight="bold" lengthAdjust="spacing" textLength="8.4" x="34.8" y="633.426">27</text><text fill="#000000" font-family="sans-serif" font-size="7.8" lengthAdjust="spacing" textLength="55.8" x="45.6" y="633.426">operation status</text><!--SRC=[ZLJRRgCm47ttLrXzMIfjcdUK8dKf3qYxYXJW0roO9jQ2pTecLVv-ns3CfKdQXro0CsVEd3dcnycOLeVRRLipORgcVYfbizNmhmDHmgRYxAXOGmZhZ1HTymQAa9VII4N_CC6Ee2ZJzYyXBLE6bxn56leGPc1oOEK9b8vbfpGKwOE55kbNm5WAesHTW-eBy79PCQAv6F0Pg3CleGVdCTtjz70ZYXPrhgn79QHYXhqn3RH0z05QgJdETEaLPWSaKVuUydZqq769ntjhF453w2R2OMb8CuCgD2B_Sd6aHb8DNescN516ovwMiDBmCpFG- -alq35IfCY6JY3T4SoWGWUF4yYwH0X-Ro9ykjiTPd92-fjhinkg8ZU3VaOYLjTBaivoT1jBOdivAAbWZH68AT8HyPhlbnZHIqRDrWYqu2G_zCX6cQYi6zfwKPwaH5-bW3c17HahlODGGsaj_6JKPsz6Os-OWykzQewDGUItuhovneK4s38xU8z6q4A_1KqcESZtNFB9k6AJEU5dV2u0AgY-OrjTqmyy0b1DOXSrta9RunrCtVaACgDiSiVJMS7FmRENKabnQNJaDJsIfUctykYudj-vg7vTB6KGxuj3biJxrsJMQ9LD7yqnT-jWrbAsz1tVJLOFTVhi4Hi5tWo1tR-Juye2zxlQlL-zN-jwyO1xiq9Sul9uxggpTFXnSNPsWdkTNRI1PiZZvAllaCUhAHrcCMKUOzyaj6-QEttdh0d9ayrGD3pKVI7k_ObLLJ0MJBFDXiPYst5mPKpFIsr0BUE9qcy5mlPOLQvslnmwduPUDxGXkTP2ipC4imbcOP8jA6Ou7cTjcEdklU_kGyS3ZOSml8Siqly0]--></g></svg>