<?xml version="1.0" encoding="us-ascii" standalone="no"?><svg xmlns="http://www.w3.org/2000/svg" xmlns:xlink="http://www.w3.org/1999/xlink" contentStyleType="text/css" height="224.4px" preserveAspectRatio="none" style="width:201px;height:224px;background:#FFFFFF;" version="1.1" viewBox="0 0 201 224" width="201.6px" zoomAndPan="magnify"><defs/><g><rect fill="#FFFFFF" height="107.8477" style="stroke:#181818;stroke-width:0.6;" width="6" x="18.6" y="56.1727"/><rect fill="#FFFFFF" height="18.7746" style="stroke:#181818;stroke-width:0.6;" width="6" x="175.8" y="70.1473"/><rect fill="#FFFFFF" height="18.7746" style="stroke:#181818;stroke-width:0.6;" width="6" x="175.8" y="107.6965"/><rect fill="#FFFFFF" height="18.7746" style="stroke:#181818;stroke-width:0.6;" width="6" x="175.8" y="145.2457"/><line style="stroke:#181818;stroke-width:0.3;stroke-dasharray:5.0,5.0;" x1="21.6" x2="21.6" y1="50.1727" y2="174.8203"/><line style="stroke:#181818;stroke-width:0.3;stroke-dasharray:5.0,5.0;" x1="178.8" x2="178.8" y1="50.1727" y2="174.8203"/><text fill="#000000" font-family="sans-serif" font-size="8.4" lengthAdjust="spacing" textLength="33.6" x="3" y="48.0645">Manager</text><ellipse cx="21.6" cy="8.1" fill="#E2E2F0" rx="4.8" ry="4.8" style="stroke:#181818;stroke-width:0.3;"/><path d="M21.6,12.9 L21.6,29.1 M13.8,17.7 L29.4,17.7 M21.6,29.1 L13.8,38.1 M21.6,29.1 L29.4,38.1 " fill="none" style="stroke:#181818;stroke-width:0.3;"/><text fill="#000000" font-family="sans-serif" font-size="8.4" lengthAdjust="spacing" textLength="33.6" x="3" y="183.2848">Manager</text><ellipse cx="21.6" cy="190.493" fill="#E2E2F0" rx="4.8" ry="4.8" style="stroke:#181818;stroke-width:0.3;"/><path d="M21.6,195.293 L21.6,211.493 M13.8,200.093 L29.4,200.093 M21.6,211.493 L13.8,220.493 M21.6,211.493 L29.4,220.493 " fill="none" style="stroke:#181818;stroke-width:0.3;"/><rect fill="#E2E2F0" height="19.5727" rx="1.5" ry="1.5" style="stroke:#181818;stroke-width:0.3;" width="38.4" x="159.6" y="30"/><text fill="#000000" font-family="sans-serif" font-size="8.4" lengthAdjust="spacing" textLength="30" x="163.8" y="43.2645">:System</text><rect fill="#E2E2F0" height="19.5727" rx="1.5" ry="1.5" style="stroke:#181818;stroke-width:0.3;" width="38.4" x="159.6" y="174.2203"/><text fill="#000000" font-family="sans-serif" font-size="8.4" lengthAdjust="spacing" textLength="30" x="163.8" y="187.4848">:System</text><rect fill="#FFFFFF" height="107.8477" style="stroke:#181818;stroke-width:0.6;" width="6" x="18.6" y="56.1727"/><rect fill="#FFFFFF" height="18.7746" style="stroke:#181818;stroke-width:0.6;" width="6" x="175.8" y="70.1473"/><rect fill="#FFFFFF" height="18.7746" style="stroke:#181818;stroke-width:0.6;" width="6" x="175.8" y="107.6965"/><rect fill="#FFFFFF" height="18.7746" style="stroke:#181818;stroke-width:0.6;" width="6" x="175.8" y="145.2457"/><polygon fill="#181818" points="168.6,67.7473,174.6,70.1473,168.6,72.5473,171,70.1473" style="stroke:#181818;stroke-width:0.6;"/><line style="stroke:#181818;stroke-width:0.6;stroke-dasharray:2.0,2.0;" x1="24.6" x2="172.2" y1="70.1473" y2="70.1473"/><text fill="#000000" font-family="sans-serif" font-size="7.8" font-weight="bold" lengthAdjust="spacing" textLength="4.2" x="28.8" y="66.9896">1</text><text fill="#000000" font-family="sans-serif" font-size="7.8" lengthAdjust="spacing" textLength="104.4" x="35.4" y="66.9896">asks to set course's Teachers</text><polygon fill="#181818" points="31.2,86.5219,25.2,88.9219,31.2,91.3219,28.8,88.9219" style="stroke:#181818;stroke-width:0.6;"/><line style="stroke:#181818;stroke-width:0.6;stroke-dasharray:2.0,2.0;" x1="27.6" x2="178.2" y1="88.9219" y2="88.9219"/><text fill="#000000" font-family="sans-serif" font-size="7.8" font-weight="bold" lengthAdjust="spacing" textLength="4.2" x="34.8" y="85.7643">2</text><text fill="#000000" font-family="sans-serif" font-size="7.8" lengthAdjust="spacing" textLength="82.2" x="41.4" y="85.7643">asks for specific course</text><polygon fill="#181818" points="168.6,105.2965,174.6,107.6965,168.6,110.0965,171,107.6965" style="stroke:#181818;stroke-width:0.6;"/><line style="stroke:#181818;stroke-width:0.6;stroke-dasharray:2.0,2.0;" x1="24.6" x2="172.2" y1="107.6965" y2="107.6965"/><text fill="#000000" font-family="sans-serif" font-size="7.8" font-weight="bold" lengthAdjust="spacing" textLength="4.2" x="28.8" y="104.5389">3</text><text fill="#000000" font-family="sans-serif" font-size="7.8" lengthAdjust="spacing" textLength="53.4" x="35.4" y="104.5389">Selects Course</text><polygon fill="#181818" points="31.2,124.0711,25.2,126.4711,31.2,128.8711,28.8,126.4711" style="stroke:#181818;stroke-width:0.6;"/><line style="stroke:#181818;stroke-width:0.6;stroke-dasharray:2.0,2.0;" x1="27.6" x2="178.2" y1="126.4711" y2="126.4711"/><text fill="#000000" font-family="sans-serif" font-size="7.8" font-weight="bold" lengthAdjust="spacing" textLength="4.2" x="34.8" y="123.3135">4</text><text fill="#000000" font-family="sans-serif" font-size="7.8" lengthAdjust="spacing" textLength="130.2" x="41.4" y="123.3135">Asks for Teachers to be set in course</text><polygon fill="#181818" points="168.6,142.8457,174.6,145.2457,168.6,147.6457,171,145.2457" style="stroke:#181818;stroke-width:0.6;"/><line style="stroke:#181818;stroke-width:0.6;stroke-dasharray:2.0,2.0;" x1="24.6" x2="172.2" y1="145.2457" y2="145.2457"/><text fill="#000000" font-family="sans-serif" font-size="7.8" font-weight="bold" lengthAdjust="spacing" textLength="4.2" x="28.8" y="142.0881">5</text><text fill="#000000" font-family="sans-serif" font-size="7.8" lengthAdjust="spacing" textLength="60.6" x="35.4" y="142.0881">Selects Teachers</text><polygon fill="#181818" points="28.2,161.6203,22.2,164.0203,28.2,166.4203,25.8,164.0203" style="stroke:#181818;stroke-width:0.6;"/><line style="stroke:#181818;stroke-width:0.6;stroke-dasharray:2.0,2.0;" x1="24.6" x2="178.2" y1="164.0203" y2="164.0203"/><text fill="#000000" font-family="sans-serif" font-size="7.8" font-weight="bold" lengthAdjust="spacing" textLength="4.2" x="31.8" y="160.8627">6</text><text fill="#000000" font-family="sans-serif" font-size="7.8" lengthAdjust="spacing" textLength="99.6" x="38.4" y="160.8627">informs of operation success</text><!--SRC=[XOz1JiCm44NtFiMecwv2zbaW8TQioWMcqv_M8hQ3Pro9s-C4aYAKmiAIFV9__yt-OZPgrxRZmD5A61uaXLRnNX05pSdpENDmN2p54ex8ph5OolJ2aS_8n3fTvwc_ic5-rTCqZxJh3Xzg23lgwhyt9KkaC99KicAlz0gM2xBUqcl4tS8JgX8NI5_RTOJutiitofsmGPWqwBV70GF4b9w_WdyshyLFI-yYF6ronBoCZ_zAt7DOrz-osD3miJe4fTHJ6f7PV8gaHGIgTzf_J2lY4m00]--></g></svg>