<?xml version="1.0" encoding="us-ascii" standalone="no"?><svg xmlns="http://www.w3.org/2000/svg" xmlns:xlink="http://www.w3.org/1999/xlink" contentStyleType="text/css" height="112px" preserveAspectRatio="none" style="width:542px;height:112px;background:#FFFFFF;" version="1.1" viewBox="0 0 542 112" width="542px" zoomAndPan="magnify"><defs/><g><!--entity Manager--><g id="elem_Manager"><ellipse cx="34" cy="25.5" fill="#F1F1F1" rx="8" ry="8" style="stroke:#181818;stroke-width:0.5;"/><path d="M34,33.5 L34,60.5 M21,41.5 L47,41.5 M34,60.5 L21,75.5 M34,60.5 L47,75.5 " fill="none" style="stroke:#181818;stroke-width:0.5;"/><text fill="#000000" font-family="sans-serif" font-size="14" lengthAdjust="spacing" textLength="56" x="6" y="92.1074">Manager</text></g><g id="elem_Sets course's Teachers"><ellipse cx="219.1072" cy="56.6214" fill="#F1F1F1" rx="96.1072" ry="21.6214" style="stroke:#181818;stroke-width:0.5;"/><text fill="#000000" font-family="sans-serif" font-size="14" lengthAdjust="spacing" textLength="149" x="142.2836" y="61.2219">Sets course's Teachers</text></g><g id="elem_Teacher"><ellipse cx="486.5542" cy="22.3368" fill="#F1F1F1" rx="49.5542" ry="16.3368" style="stroke:#181818;stroke-width:0.5;"/><text fill="#000000" font-family="sans-serif" font-size="14" lengthAdjust="spacing" textLength="53" x="457.0542" y="27.1405">Teacher</text></g><g id="elem_Course"><ellipse cx="486.3367" cy="90.2713" fill="#F1F1F1" rx="44.3367" ry="16.2713" style="stroke:#181818;stroke-width:0.5;"/><text fill="#000000" font-family="sans-serif" font-size="14" lengthAdjust="spacing" textLength="46" x="460.3367" y="95.075">Course</text></g><!--link Manager to Sets course's Teachers--><g id="link_Manager_Sets course's Teachers"><path d="M62,56.5 C78.41,56.5 100.44,56.5 122.77,56.5 " fill="none" id="Manager-Sets course's Teachers" style="stroke:#181818;stroke-width:1.0;"/></g><!--link Sets course's Teachers to Teacher--><g id="link_Sets course's Teachers_Teacher"><path d="M302.91,45.88 C345.98,40.37 397.24,33.8 434.47,29.04 " fill="none" id="Sets course's Teachers-to-Teacher" style="stroke:#181818;stroke-width:1.0;stroke-dasharray:7.0,7.0;"/><polygon fill="#181818" points="439.86,28.35,430.4213,25.5372,434.9013,28.9912,431.4473,33.4712,439.86,28.35" style="stroke:#181818;stroke-width:1.0;"/><text fill="#000000" font-family="sans-serif" font-size="13" lengthAdjust="spacing" textLength="60" x="346" y="29.5283">&#171;extends&#187;</text></g><!--link Sets course's Teachers to Course--><g id="link_Sets course's Teachers_Course"><path d="M302.91,67.12 C347.72,72.86 401.4,79.73 438.91,84.53 " fill="none" id="Sets course's Teachers-to-Course" style="stroke:#181818;stroke-width:1.0;stroke-dasharray:7.0,7.0;"/><polygon fill="#181818" points="444.32,85.23,435.9092,80.1058,439.3615,84.587,434.8803,88.0393,444.32,85.23" style="stroke:#181818;stroke-width:1.0;"/><text fill="#000000" font-family="sans-serif" font-size="13" lengthAdjust="spacing" textLength="60" x="346" y="69.5283">&#171;extends&#187;</text></g><!--SRC=[XOix2iCm44HxdM8xsuNjtXWrgLCb5rYaZIJGn-okmSUF2Qu28QyOviDqKNMJPPwtZ5NtaYVNohmBZGvFyGa3Op4cqqj16t0AKS4d9gUfLODE6yCTAmPYSt9P64Ve7wG2hkqir0ay2Lqabi7y6c2QBFHN7621TQL3gNgnzi_fzkc_FoTl]--></g></svg>