<?xml version="1.0" encoding="UTF-8" standalone="no"?><svg xmlns="http://www.w3.org/2000/svg" xmlns:xlink="http://www.w3.org/1999/xlink" contentStyleType="text/css" height="984px" preserveAspectRatio="none" style="width:437px;height:984px;background:#FFFFFF;" version="1.1" viewBox="0 0 437 984" width="437px" zoomAndPan="magnify"><defs/><g><!--MD5=[d6181cb537bdc20c0a3007a98a56832d]
class Student--><g id="elem_Student"><rect codeLine="2" fill="#F1F1F1" height="91.4063" id="Student" rx="2.5" ry="2.5" style="stroke:#181818;stroke-width:0.5;" width="81" x="7" y="25"/><ellipse cx="22" cy="53.8984" fill="#ADD1B2" rx="11" ry="11" style="stroke:#181818;stroke-width:1.0;"/><path d="M24,50.3984 Q24.2031,49.8984 24.4375,49.6484 Q24.6719,49.3984 24.9375,49.3984 Q25.4063,49.3984 25.7031,49.6797 Q26,49.9609 26,50.6172 L26,52.1797 Q26,52.8359 25.7188,53.1172 Q25.4375,53.3984 25,53.3984 Q24.6094,53.3984 24.3594,53.2266 Q24.1094,53.0547 24,52.6016 Q23.9531,52.2891 23.7813,52.1172 Q23.4688,51.7891 22.9063,51.6016 Q22.3438,51.3984 21.7813,51.3984 Q21.0781,51.3984 20.4844,51.6797 Q19.9063,51.9609 19.4531,52.5859 Q19,53.2109 19,54.0703 L19,54.9922 Q19,56.0234 19.8438,56.7109 Q20.6875,57.3984 22.1875,57.3984 Q23.0781,57.3984 23.7031,57.1953 Q24.0625,57.0859 24.4688,56.7266 Q24.7344,56.5234 24.875,56.4609 Q25.0156,56.3984 25.1875,56.3984 Q25.5156,56.3984 25.75,56.6641 Q26,56.9141 26,57.2734 Q26,57.6172 25.6563,58.0234 Q25.1563,58.6172 24.3594,58.9453 Q23.3125,59.3984 22.0313,59.3984 Q20.5313,59.3984 19.3281,58.8047 Q18.3594,58.3359 17.6719,57.3203 Q17,56.3047 17,55.1016 L17,54.0078 Q17,52.7578 17.5938,51.6641 Q18.2031,50.5703 19.25,49.9922 Q20.3125,49.3984 21.5,49.3984 Q22.2188,49.3984 22.8438,49.6484 Q23.4688,49.8984 24,50.3984 Z " fill="#000000"/><text fill="#000000" font-family="sans-serif" font-size="12" font-style="italic" lengthAdjust="spacing" textLength="35" x="43" y="42.457">«root»</text><text fill="#000000" font-family="sans-serif" font-size="12" font-style="italic" lengthAdjust="spacing" textLength="43" x="39" y="57.5508">«entity»</text><text fill="#000000" font-family="sans-serif" font-size="14" lengthAdjust="spacing" textLength="49" x="36" y="74.7207">Student</text><line style="stroke:#181818;stroke-width:0.5;" x1="8" x2="87" y1="82.7969" y2="82.7969"/><ellipse cx="18" cy="97.1016" fill="#000000" rx="3" ry="3" style="stroke:#000000;stroke-width:1.0;"/><text fill="#000000" font-family="sans-serif" font-size="14" lengthAdjust="spacing" textLength="35" x="27" y="101.3301">name</text><line style="stroke:#181818;stroke-width:0.5;" x1="8" x2="87" y1="108.4063" y2="108.4063"/></g><!--MD5=[20e583d4e0df3a755fa236795f6d14ab]
class eCourseSystemUser--><g id="elem_eCourseSystemUser"><rect codeLine="6" fill="#F1F1F1" height="126.625" id="eCourseSystemUser" rx="2.5" ry="2.5" style="stroke:#181818;stroke-width:0.5;" width="172" x="158.5" y="7"/><ellipse cx="178.45" cy="35.8984" fill="#ADD1B2" rx="11" ry="11" style="stroke:#181818;stroke-width:1.0;"/><path d="M180.45,32.3984 Q180.6531,31.8984 180.8875,31.6484 Q181.1219,31.3984 181.3875,31.3984 Q181.8563,31.3984 182.1531,31.6797 Q182.45,31.9609 182.45,32.6172 L182.45,34.1797 Q182.45,34.8359 182.1688,35.1172 Q181.8875,35.3984 181.45,35.3984 Q181.0594,35.3984 180.8094,35.2266 Q180.5594,35.0547 180.45,34.6016 Q180.4031,34.2891 180.2313,34.1172 Q179.9188,33.7891 179.3563,33.6016 Q178.7938,33.3984 178.2313,33.3984 Q177.5281,33.3984 176.9344,33.6797 Q176.3563,33.9609 175.9031,34.5859 Q175.45,35.2109 175.45,36.0703 L175.45,36.9922 Q175.45,38.0234 176.2938,38.7109 Q177.1375,39.3984 178.6375,39.3984 Q179.5281,39.3984 180.1531,39.1953 Q180.5125,39.0859 180.9188,38.7266 Q181.1844,38.5234 181.325,38.4609 Q181.4656,38.3984 181.6375,38.3984 Q181.9656,38.3984 182.2,38.6641 Q182.45,38.9141 182.45,39.2734 Q182.45,39.6172 182.1063,40.0234 Q181.6063,40.6172 180.8094,40.9453 Q179.7625,41.3984 178.4813,41.3984 Q176.9813,41.3984 175.7781,40.8047 Q174.8094,40.3359 174.1219,39.3203 Q173.45,38.3047 173.45,37.1016 L173.45,36.0078 Q173.45,34.7578 174.0438,33.6641 Q174.6531,32.5703 175.7,31.9922 Q176.7625,31.3984 177.95,31.3984 Q178.6688,31.3984 179.2938,31.6484 Q179.9188,31.8984 180.45,32.3984 Z " fill="#000000"/><text fill="#000000" font-family="sans-serif" font-size="12" font-style="italic" lengthAdjust="spacing" textLength="35" x="240.55" y="24.457">«root»</text><text fill="#000000" font-family="sans-serif" font-size="12" font-style="italic" lengthAdjust="spacing" textLength="44" x="236.05" y="39.5508">«Entity»</text><text fill="#000000" font-family="sans-serif" font-size="14" lengthAdjust="spacing" textLength="129" x="193.55" y="56.7207">eCourseSystemUser</text><line style="stroke:#181818;stroke-width:0.5;" x1="159.5" x2="329.5" y1="64.7969" y2="64.7969"/><ellipse cx="169.5" cy="79.1016" fill="#000000" rx="3" ry="3" style="stroke:#000000;stroke-width:1.0;"/><text fill="#000000" font-family="sans-serif" font-size="14" lengthAdjust="spacing" textLength="59" x="178.5" y="83.3301">FullName</text><ellipse cx="169.5" cy="96.7109" fill="#000000" rx="3" ry="3" style="stroke:#000000;stroke-width:1.0;"/><text fill="#000000" font-family="sans-serif" font-size="14" lengthAdjust="spacing" textLength="146" x="178.5" y="100.9395">MecanographicNumber</text><ellipse cx="169.5" cy="114.3203" fill="#000000" rx="3" ry="3" style="stroke:#000000;stroke-width:1.0;"/><text fill="#000000" font-family="sans-serif" font-size="14" lengthAdjust="spacing" textLength="70" x="178.5" y="118.5488">ShortName</text><line style="stroke:#181818;stroke-width:0.5;" x1="159.5" x2="329.5" y1="125.625" y2="125.625"/></g><!--MD5=[96eb789576751fa7e84d33c7c5e8adad]
class BulkEnrollUI--><g id="elem_BulkEnrollUI"><rect codeLine="11" fill="#F1F1F1" height="83.2188" id="BulkEnrollUI" rx="2.5" ry="2.5" style="stroke:#181818;stroke-width:0.5;" width="208" x="140.5" y="212"/><ellipse cx="202.75" cy="228" fill="#ADD1B2" rx="11" ry="11" style="stroke:#181818;stroke-width:1.0;"/><path d="M204.75,224.5 Q204.9531,224 205.1875,223.75 Q205.4219,223.5 205.6875,223.5 Q206.1563,223.5 206.4531,223.7813 Q206.75,224.0625 206.75,224.7188 L206.75,226.2813 Q206.75,226.9375 206.4688,227.2188 Q206.1875,227.5 205.75,227.5 Q205.3594,227.5 205.1094,227.3281 Q204.8594,227.1563 204.75,226.7031 Q204.7031,226.3906 204.5313,226.2188 Q204.2188,225.8906 203.6563,225.7031 Q203.0938,225.5 202.5313,225.5 Q201.8281,225.5 201.2344,225.7813 Q200.6563,226.0625 200.2031,226.6875 Q199.75,227.3125 199.75,228.1719 L199.75,229.0938 Q199.75,230.125 200.5938,230.8125 Q201.4375,231.5 202.9375,231.5 Q203.8281,231.5 204.4531,231.2969 Q204.8125,231.1875 205.2188,230.8281 Q205.4844,230.625 205.625,230.5625 Q205.7656,230.5 205.9375,230.5 Q206.2656,230.5 206.5,230.7656 Q206.75,231.0156 206.75,231.375 Q206.75,231.7188 206.4063,232.125 Q205.9063,232.7188 205.1094,233.0469 Q204.0625,233.5 202.7813,233.5 Q201.2813,233.5 200.0781,232.9063 Q199.1094,232.4375 198.4219,231.4219 Q197.75,230.4063 197.75,229.2031 L197.75,228.1094 Q197.75,226.8594 198.3438,225.7656 Q198.9531,224.6719 200,224.0938 Q201.0625,223.5 202.25,223.5 Q202.9688,223.5 203.5938,223.75 Q204.2188,224 204.75,224.5 Z " fill="#000000"/><text fill="#000000" font-family="sans-serif" font-size="14" lengthAdjust="spacing" textLength="75" x="223.25" y="233.7285">BulkEnrollUI</text><line style="stroke:#181818;stroke-width:0.5;" x1="141.5" x2="347.5" y1="244" y2="244"/><line style="stroke:#181818;stroke-width:0.5;" x1="141.5" x2="347.5" y1="252" y2="252"/><ellipse cx="151.5" cy="266.3047" fill="#84BE84" rx="3" ry="3" style="stroke:#038048;stroke-width:1.0;"/><text fill="#000000" font-family="sans-serif" font-size="14" lengthAdjust="spacing" textLength="182" x="160.5" y="270.5332">listCoursesEnrollmentOpen()</text><ellipse cx="151.5" cy="283.9141" fill="#84BE84" rx="3" ry="3" style="stroke:#038048;stroke-width:1.0;"/><text fill="#000000" font-family="sans-serif" font-size="14" lengthAdjust="spacing" textLength="54" x="160.5" y="288.1426">display()</text></g><!--MD5=[257487df2c652b642bdc605de817988b]
class BulkEnrollController--><g id="elem_BulkEnrollController"><rect codeLine="16" fill="#F1F1F1" height="83.2188" id="BulkEnrollController" rx="2.5" ry="2.5" style="stroke:#181818;stroke-width:0.5;" width="208" x="140.5" y="356"/><ellipse cx="178.45" cy="372" fill="#ADD1B2" rx="11" ry="11" style="stroke:#181818;stroke-width:1.0;"/><path d="M180.45,368.5 Q180.6531,368 180.8875,367.75 Q181.1219,367.5 181.3875,367.5 Q181.8563,367.5 182.1531,367.7813 Q182.45,368.0625 182.45,368.7188 L182.45,370.2813 Q182.45,370.9375 182.1688,371.2188 Q181.8875,371.5 181.45,371.5 Q181.0594,371.5 180.8094,371.3281 Q180.5594,371.1563 180.45,370.7031 Q180.4031,370.3906 180.2313,370.2188 Q179.9188,369.8906 179.3563,369.7031 Q178.7938,369.5 178.2313,369.5 Q177.5281,369.5 176.9344,369.7813 Q176.3563,370.0625 175.9031,370.6875 Q175.45,371.3125 175.45,372.1719 L175.45,373.0938 Q175.45,374.125 176.2938,374.8125 Q177.1375,375.5 178.6375,375.5 Q179.5281,375.5 180.1531,375.2969 Q180.5125,375.1875 180.9188,374.8281 Q181.1844,374.625 181.325,374.5625 Q181.4656,374.5 181.6375,374.5 Q181.9656,374.5 182.2,374.7656 Q182.45,375.0156 182.45,375.375 Q182.45,375.7188 182.1063,376.125 Q181.6063,376.7188 180.8094,377.0469 Q179.7625,377.5 178.4813,377.5 Q176.9813,377.5 175.7781,376.9063 Q174.8094,376.4375 174.1219,375.4219 Q173.45,374.4063 173.45,373.2031 L173.45,372.1094 Q173.45,370.8594 174.0438,369.7656 Q174.6531,368.6719 175.7,368.0938 Q176.7625,367.5 177.95,367.5 Q178.6688,367.5 179.2938,367.75 Q179.9188,368 180.45,368.5 Z " fill="#000000"/><text fill="#000000" font-family="sans-serif" font-size="14" lengthAdjust="spacing" textLength="125" x="197.55" y="377.7285">BulkEnrollController</text><line style="stroke:#181818;stroke-width:0.5;" x1="141.5" x2="347.5" y1="388" y2="388"/><line style="stroke:#181818;stroke-width:0.5;" x1="141.5" x2="347.5" y1="396" y2="396"/><ellipse cx="151.5" cy="410.3047" fill="#84BE84" rx="3" ry="3" style="stroke:#038048;stroke-width:1.0;"/><text fill="#000000" font-family="sans-serif" font-size="14" lengthAdjust="spacing" textLength="182" x="160.5" y="414.5332">listCoursesEnrollmentOpen()</text><ellipse cx="151.5" cy="427.9141" fill="#84BE84" rx="3" ry="3" style="stroke:#038048;stroke-width:1.0;"/><text fill="#000000" font-family="sans-serif" font-size="14" lengthAdjust="spacing" textLength="101" x="160.5" y="432.1426">enrollStudents()</text></g><!--MD5=[57e1c774d8b7bc38f37b24d2af81be7c]
class BulkEnrollService--><g id="elem_BulkEnrollService"><rect codeLine="21" fill="#F1F1F1" height="100.8281" id="BulkEnrollService" rx="2.5" ry="2.5" style="stroke:#181818;stroke-width:0.5;" width="142" x="84.5" y="500"/><ellipse cx="99.5" cy="516" fill="#ADD1B2" rx="11" ry="11" style="stroke:#181818;stroke-width:1.0;"/><path d="M101.5,512.5 Q101.7031,512 101.9375,511.75 Q102.1719,511.5 102.4375,511.5 Q102.9063,511.5 103.2031,511.7813 Q103.5,512.0625 103.5,512.7188 L103.5,514.2813 Q103.5,514.9375 103.2188,515.2188 Q102.9375,515.5 102.5,515.5 Q102.1094,515.5 101.8594,515.3281 Q101.6094,515.1563 101.5,514.7031 Q101.4531,514.3906 101.2813,514.2188 Q100.9688,513.8906 100.4063,513.7031 Q99.8438,513.5 99.2813,513.5 Q98.5781,513.5 97.9844,513.7813 Q97.4063,514.0625 96.9531,514.6875 Q96.5,515.3125 96.5,516.1719 L96.5,517.0938 Q96.5,518.125 97.3438,518.8125 Q98.1875,519.5 99.6875,519.5 Q100.5781,519.5 101.2031,519.2969 Q101.5625,519.1875 101.9688,518.8281 Q102.2344,518.625 102.375,518.5625 Q102.5156,518.5 102.6875,518.5 Q103.0156,518.5 103.25,518.7656 Q103.5,519.0156 103.5,519.375 Q103.5,519.7188 103.1563,520.125 Q102.6563,520.7188 101.8594,521.0469 Q100.8125,521.5 99.5313,521.5 Q98.0313,521.5 96.8281,520.9063 Q95.8594,520.4375 95.1719,519.4219 Q94.5,518.4063 94.5,517.2031 L94.5,516.1094 Q94.5,514.8594 95.0938,513.7656 Q95.7031,512.6719 96.75,512.0938 Q97.8125,511.5 99,511.5 Q99.7188,511.5 100.3438,511.75 Q100.9688,512 101.5,512.5 Z " fill="#000000"/><text fill="#000000" font-family="sans-serif" font-size="14" lengthAdjust="spacing" textLength="110" x="113.5" y="521.7285">BulkEnrollService</text><line style="stroke:#181818;stroke-width:0.5;" x1="85.5" x2="225.5" y1="532" y2="532"/><line style="stroke:#181818;stroke-width:0.5;" x1="85.5" x2="225.5" y1="540" y2="540"/><ellipse cx="95.5" cy="554.3047" fill="#84BE84" rx="3" ry="3" style="stroke:#038048;stroke-width:1.0;"/><text fill="#000000" font-family="sans-serif" font-size="14" lengthAdjust="spacing" textLength="101" x="104.5" y="558.5332">enrollStudents()</text><ellipse cx="95.5" cy="571.9141" fill="#84BE84" rx="3" ry="3" style="stroke:#038048;stroke-width:1.0;"/><text fill="#000000" font-family="sans-serif" font-size="14" lengthAdjust="spacing" textLength="96" x="104.5" y="576.1426">parse(csvPath)</text><ellipse cx="95.5" cy="589.5234" fill="#84BE84" rx="3" ry="3" style="stroke:#038048;stroke-width:1.0;"/><text fill="#000000" font-family="sans-serif" font-size="14" lengthAdjust="spacing" textLength="115" x="104.5" y="593.752">validateStudents()</text></g><!--MD5=[e357f1fd68df466d60efd00f0c47fbc0]
class CourseRepository--><g id="elem_CourseRepository"><rect codeLine="27" fill="#F1F1F1" height="83.2188" id="CourseRepository" rx="2.5" ry="2.5" style="stroke:#181818;stroke-width:0.5;" width="146" x="266.5" y="509"/><ellipse cx="281.5" cy="525" fill="#B4A7E5" rx="11" ry="11" style="stroke:#181818;stroke-width:1.0;"/><path d="M282.5,522 L282.5,528 L284.5,528 L284.9844,528 L285.5,528.625 L285.5,529 L285.5,529.375 L284.9844,530 L284.5,530 L278.5,530 L278.0156,530 L277.5,529.375 L277.5,529 L277.5,528.625 L278.0156,528 L278.5,528 L280.5,528 L280.5,522 L278.5,522 L278.0156,522 L277.5,521.375 L277.5,521 L277.5,520.625 L278.0156,520 L278.5,520 L284.5,520 L284.9844,520 L285.5,520.625 L285.5,521 L285.5,521.375 L284.9844,522 L284.5,522 L282.5,522 Z " fill="#000000"/><text fill="#000000" font-family="sans-serif" font-size="14" font-style="italic" lengthAdjust="spacing" textLength="114" x="295.5" y="530.7285">CourseRepository</text><line style="stroke:#181818;stroke-width:0.5;" x1="267.5" x2="411.5" y1="541" y2="541"/><ellipse cx="277.5" cy="555.3047" fill="none" rx="3" ry="3" style="stroke:#038048;stroke-width:1.0;"/><text fill="#000000" font-family="sans-serif" font-size="14" lengthAdjust="spacing" textLength="106" x="286.5" y="559.5332">findAllWithStatus</text><line style="stroke:#181818;stroke-width:0.5;" x1="267.5" x2="411.5" y1="566.6094" y2="566.6094"/><ellipse cx="277.5" cy="580.9141" fill="#84BE84" rx="3" ry="3" style="stroke:#038048;stroke-width:1.0;"/><text fill="#000000" font-family="sans-serif" font-size="14" lengthAdjust="spacing" textLength="83" x="286.5" y="585.1426">findByCode()</text></g><!--MD5=[2a66b06a3e1b1fa10753a3ca6832f925]
class eCourseUserRepository--><g id="elem_eCourseUserRepository"><rect codeLine="32" fill="#F1F1F1" height="65.6094" id="eCourseUserRepository" rx="2.5" ry="2.5" style="stroke:#181818;stroke-width:0.5;" width="184" x="52.5" y="697"/><ellipse cx="67.5" cy="713" fill="#B4A7E5" rx="11" ry="11" style="stroke:#181818;stroke-width:1.0;"/><path d="M68.5,710 L68.5,716 L70.5,716 L70.9844,716 L71.5,716.625 L71.5,717 L71.5,717.375 L70.9844,718 L70.5,718 L64.5,718 L64.0156,718 L63.5,717.375 L63.5,717 L63.5,716.625 L64.0156,716 L64.5,716 L66.5,716 L66.5,710 L64.5,710 L64.0156,710 L63.5,709.375 L63.5,709 L63.5,708.625 L64.0156,708 L64.5,708 L70.5,708 L70.9844,708 L71.5,708.625 L71.5,709 L71.5,709.375 L70.9844,710 L70.5,710 L68.5,710 Z " fill="#000000"/><text fill="#000000" font-family="sans-serif" font-size="14" font-style="italic" lengthAdjust="spacing" textLength="152" x="81.5" y="718.7285">eCourseUserRepository</text><line style="stroke:#181818;stroke-width:0.5;" x1="53.5" x2="235.5" y1="729" y2="729"/><line style="stroke:#181818;stroke-width:0.5;" x1="53.5" x2="235.5" y1="737" y2="737"/><ellipse cx="63.5" cy="751.3047" fill="#84BE84" rx="3" ry="3" style="stroke:#038048;stroke-width:1.0;"/><text fill="#000000" font-family="sans-serif" font-size="14" lengthAdjust="spacing" textLength="83" x="72.5" y="755.5332">findByMeca()</text></g><!--MD5=[4066b0363c5a91ff3b6e03e0428953a9]
class Course--><g id="elem_Course"><rect codeLine="36" fill="#F1F1F1" height="136.0469" id="Course" rx="2.5" ry="2.5" style="stroke:#181818;stroke-width:0.5;" width="148" x="271.5" y="662"/><ellipse cx="318.25" cy="678" fill="#ADD1B2" rx="11" ry="11" style="stroke:#181818;stroke-width:1.0;"/><path d="M320.25,674.5 Q320.4531,674 320.6875,673.75 Q320.9219,673.5 321.1875,673.5 Q321.6563,673.5 321.9531,673.7813 Q322.25,674.0625 322.25,674.7188 L322.25,676.2813 Q322.25,676.9375 321.9688,677.2188 Q321.6875,677.5 321.25,677.5 Q320.8594,677.5 320.6094,677.3281 Q320.3594,677.1563 320.25,676.7031 Q320.2031,676.3906 320.0313,676.2188 Q319.7188,675.8906 319.1563,675.7031 Q318.5938,675.5 318.0313,675.5 Q317.3281,675.5 316.7344,675.7813 Q316.1563,676.0625 315.7031,676.6875 Q315.25,677.3125 315.25,678.1719 L315.25,679.0938 Q315.25,680.125 316.0938,680.8125 Q316.9375,681.5 318.4375,681.5 Q319.3281,681.5 319.9531,681.2969 Q320.3125,681.1875 320.7188,680.8281 Q320.9844,680.625 321.125,680.5625 Q321.2656,680.5 321.4375,680.5 Q321.7656,680.5 322,680.7656 Q322.25,681.0156 322.25,681.375 Q322.25,681.7188 321.9063,682.125 Q321.4063,682.7188 320.6094,683.0469 Q319.5625,683.5 318.2813,683.5 Q316.7813,683.5 315.5781,682.9063 Q314.6094,682.4375 313.9219,681.4219 Q313.25,680.4063 313.25,679.2031 L313.25,678.1094 Q313.25,676.8594 313.8438,675.7656 Q314.4531,674.6719 315.5,674.0938 Q316.5625,673.5 317.75,673.5 Q318.4688,673.5 319.0938,673.75 Q319.7188,674 320.25,674.5 Z " fill="#000000"/><text fill="#000000" font-family="sans-serif" font-size="14" lengthAdjust="spacing" textLength="46" x="338.75" y="683.7285">Course</text><line style="stroke:#181818;stroke-width:0.5;" x1="272.5" x2="418.5" y1="694" y2="694"/><ellipse cx="282.5" cy="708.3047" fill="#000000" rx="3" ry="3" style="stroke:#000000;stroke-width:1.0;"/><text fill="#000000" font-family="sans-serif" font-size="14" lengthAdjust="spacing" textLength="31" x="291.5" y="712.5332">code</text><ellipse cx="282.5" cy="725.9141" fill="#000000" rx="3" ry="3" style="stroke:#000000;stroke-width:1.0;"/><text fill="#000000" font-family="sans-serif" font-size="14" lengthAdjust="spacing" textLength="35" x="291.5" y="730.1426">name</text><ellipse cx="282.5" cy="743.5234" fill="#000000" rx="3" ry="3" style="stroke:#000000;stroke-width:1.0;"/><text fill="#000000" font-family="sans-serif" font-size="14" lengthAdjust="spacing" textLength="38" x="291.5" y="747.752">status</text><line style="stroke:#181818;stroke-width:0.5;" x1="272.5" x2="418.5" y1="754.8281" y2="754.8281"/><ellipse cx="282.5" cy="769.1328" fill="#84BE84" rx="3" ry="3" style="stroke:#038048;stroke-width:1.0;"/><text fill="#000000" font-family="sans-serif" font-size="14" lengthAdjust="spacing" textLength="122" x="291.5" y="773.3613">disableEnrollment()</text><ellipse cx="282.5" cy="786.7422" fill="#84BE84" rx="3" ry="3" style="stroke:#038048;stroke-width:1.0;"/><text fill="#000000" font-family="sans-serif" font-size="14" lengthAdjust="spacing" textLength="93" x="291.5" y="790.9707">numStudents()</text></g><!--MD5=[e3d83ec5fd90ea9f3f2bfe265cb53458]
class Status--><g id="elem_Status"><rect codeLine="46" fill="#F1F1F1" height="118.4375" id="Status" rx="2.5" ry="2.5" style="stroke:#181818;stroke-width:0.5;" width="170" x="260.5" y="859"/><ellipse cx="321.25" cy="875" fill="#EB937F" rx="11" ry="11" style="stroke:#181818;stroke-width:1.0;"/><path d="M319.75,876 L319.75,878 L323.75,878 L323.75,877 L323.75,876.5156 L324.375,876 L324.75,876 L325.125,876 L325.75,876.5156 L325.75,877 L325.75,880 L317.75,880 L317.2656,880 L316.75,879.375 L316.75,879 L316.75,878.625 L317.2656,878 L317.75,878 L317.75,878 L317.75,872 L317.75,872 L317.2656,872 L316.75,871.375 L316.75,871 L316.75,870.625 L317.2656,870 L317.75,870 L325.75,870 L325.75,873 L325.75,873.4844 L325.125,874 L324.75,874 L324.375,874 L323.75,873.4844 L323.75,873 L323.75,872 L319.75,872 L319.75,874 L320.75,874 L320.75,873.5156 L320.75,873.5156 L321.375,873 L321.75,873 L322.125,873 L322.75,873.5156 L322.75,874 L322.75,876 L322.75,876.4844 L322.125,877 L322.125,877 L321.75,877 L321.375,877 L320.75,876.4844 L320.75,876.4844 L320.75,876 L319.75,876 Z " fill="#000000"/><text fill="#000000" font-family="sans-serif" font-size="14" lengthAdjust="spacing" textLength="40" x="341.75" y="880.7285">Status</text><line style="stroke:#181818;stroke-width:0.5;" x1="261.5" x2="429.5" y1="891" y2="891"/><text fill="#000000" font-family="sans-serif" font-size="14" lengthAdjust="spacing" textLength="38" x="266.5" y="909.5332">OPEN</text><text fill="#000000" font-family="sans-serif" font-size="14" lengthAdjust="spacing" textLength="57" x="266.5" y="927.1426">CLOSED</text><text fill="#000000" font-family="sans-serif" font-size="14" lengthAdjust="spacing" textLength="139" x="266.5" y="944.752">OPEN_ENROLLMENT</text><text fill="#000000" font-family="sans-serif" font-size="14" lengthAdjust="spacing" textLength="158" x="266.5" y="962.3613">CLOSED_ENROLLMENT</text><line style="stroke:#181818;stroke-width:0.5;" x1="261.5" x2="429.5" y1="969.4375" y2="969.4375"/></g><!--MD5=[8bc65f3b90290c21b1c14af63c410e92]
link Student to eCourseSystemUser--><g id="link_Student_eCourseSystemUser"><path codeLine="53" d="M88.32,70.5 C108.6,70.5 133.93,70.5 158.25,70.5 " fill="none" id="Student-eCourseSystemUser" style="stroke:#181818;stroke-width:1.0;"/><polygon fill="#000000" points="115.25,58.6758,106.2049,55.7369,106.2049,61.6147,115.25,58.6758" style="stroke:#000000;stroke-width:1.0;"/><text fill="#000000" font-family="sans-serif" font-size="13" lengthAdjust="spacing" textLength="21" x="119.25" y="63.9951">is a</text><text fill="#000000" font-family="sans-serif" font-size="13" lengthAdjust="spacing" textLength="5" x="96.0364" y="66.5652">*</text><text fill="#000000" font-family="sans-serif" font-size="13" lengthAdjust="spacing" textLength="7" x="143.5371" y="67.3388">1</text></g><!--MD5=[ce53aae8abe0f5001b05e59aa9b3033e]
link eCourseSystemUser to BulkEnrollUI--><g id="link_eCourseSystemUser_BulkEnrollUI"><path codeLine="55" d="M244.5,134.04 C244.5,159.79 244.5,188.89 244.5,211.8 " fill="none" id="eCourseSystemUser-BulkEnrollUI" style="stroke:#181818;stroke-width:1.0;stroke-dasharray:7.0,7.0;"/><text fill="#000000" font-family="sans-serif" font-size="13" lengthAdjust="spacing" textLength="50" x="245.5" y="178.4951">interacts</text></g><!--MD5=[dca5d4f8c3f323e31032c25fdc3ba29b]
link BulkEnrollUI to BulkEnrollController--><g id="link_BulkEnrollUI_BulkEnrollController"><path codeLine="56" d="M244.5,295.19 C244.5,314.2 244.5,336.79 244.5,355.8 " fill="none" id="BulkEnrollUI-BulkEnrollController" style="stroke:#181818;stroke-width:1.0;"/></g><!--MD5=[efa3a0757e2453f617e7b74a35d9bd62]
link BulkEnrollController to BulkEnrollService--><g id="link_BulkEnrollController_BulkEnrollService"><path codeLine="57" d="M220.42,439.36 C209.4,458.05 196.25,480.36 184.68,500 " fill="none" id="BulkEnrollController-BulkEnrollService" style="stroke:#181818;stroke-width:1.0;"/></g><!--MD5=[7c22e959baddf8ba3ad2f2c175230194]
link BulkEnrollController to CourseRepository--><g id="link_BulkEnrollController_CourseRepository"><path codeLine="58" d="M270.21,439.36 C283.78,460.94 300.38,487.33 313.94,508.87 " fill="none" id="BulkEnrollController-CourseRepository" style="stroke:#181818;stroke-width:1.0;"/></g><!--MD5=[55c69a8b7b83d26318503dc8eb17e636]
link CourseRepository to Course--><g id="link_CourseRepository_Course"><path codeLine="59" d="M340.88,592.22 C341.57,612.79 342.43,638.29 343.22,661.68 " fill="none" id="CourseRepository-Course" style="stroke:#181818;stroke-width:1.0;"/></g><!--MD5=[cdc1d55094c557520fb600b706b2b09e]
link BulkEnrollService to eCourseUserRepository--><g id="link_BulkEnrollService_eCourseUserRepository"><path codeLine="60" d="M152.41,601.42 C150.51,631.97 148.15,670.18 146.5,696.78 " fill="none" id="BulkEnrollService-eCourseUserRepository" style="stroke:#181818;stroke-width:1.0;"/></g><!--MD5=[4654ec3f3344622994bd886089f3a203]
link Course to Status--><g id="link_Course_Status"><path codeLine="61" d="M345.5,798.15 C345.5,818.03 345.5,839.61 345.5,858.87 " fill="none" id="Course-Status" style="stroke:#181818;stroke-width:1.0;"/></g><!--MD5=[28cdef622ce478b0d495bca19a313278]
@startuml

class Student <<root>> <<entity>> {
* name
}

class eCourseSystemUser <<root>> <<Entity>> {
    * FullName
    * MecanographicNumber
    * ShortName
}
class BulkEnrollUI  {
    +listCoursesEnrollmentOpen()
    +display()
}

class BulkEnrollController{
    +listCoursesEnrollmentOpen()
    +enrollStudents()
}

class BulkEnrollService{
    +enrollStudents()
    +parse(csvPath)
    +validateStudents()
}

interface CourseRepository{
    +findAllWithStatus
    +findByCode()
}

interface eCourseUserRepository{
    +findByMeca()
}

class Course{
    * code
    * name
    * status
    +disableEnrollment()
    +numStudents()
    
}


enum Status{
    OPEN
    CLOSED
    OPEN_ENROLLMENT
    CLOSED_ENROLLMENT
}

eCourseSystemUser "1" -left- "*" Student : is a <

eCourseSystemUser ..BulkEnrollUI : interacts
BulkEnrollUI - - BulkEnrollController
BulkEnrollController - - BulkEnrollService
BulkEnrollController - - CourseRepository
CourseRepository - - Course
BulkEnrollService - - eCourseUserRepository
Course - - Status

@enduml

PlantUML version 1.2022.12(Sun Oct 23 19:12:26 BST 2022)
(GPL source distribution)
Java Runtime: OpenJDK Runtime Environment
JVM: OpenJDK 64-Bit Server VM
Default Encoding: Cp1252
Language: pt
Country: PT
--></g></svg>