<?xml version="1.0" encoding="UTF-8" standalone="no"?><svg xmlns="http://www.w3.org/2000/svg" xmlns:xlink="http://www.w3.org/1999/xlink" contentStyleType="text/css" height="1369px" preserveAspectRatio="none" style="width:1607px;height:1369px;background:#FFFFFF;" version="1.1" viewBox="0 0 1607 1369" width="1607px" zoomAndPan="magnify"><defs/><g><rect fill="none" height="27.6094" id="_title" style="stroke:none;stroke-width:1.0;" width="194" x="708.25" y="10"/><text fill="#000000" font-family="sans-serif" font-size="14" font-weight="bold" lengthAdjust="spacing" textLength="184" x="713.25" y="29.5332">SSD - Bulk Enroll Students</text><rect fill="#FFFFFF" height="30.3516" style="stroke:#181818;stroke-width:1.0;" width="10" x="19.5" y="409.3828"/><rect fill="#FFFFFF" height="195.1094" style="stroke:#181818;stroke-width:1.0;" width="10" x="282.5" y="153.5703"/><rect fill="#FFFFFF" height="30.3516" style="stroke:#181818;stroke-width:1.0;" width="10" x="282.5" y="379.0313"/><rect fill="#FFFFFF" height="768.7344" style="stroke:#181818;stroke-width:1.0;" width="10" x="282.5" y="439.7344"/><rect fill="#FFFFFF" height="30.3516" style="stroke:#181818;stroke-width:1.0;" width="10" x="282.5" y="1238.8203"/><rect fill="#FFFFFF" height="91.0547" style="stroke:#181818;stroke-width:1.0;" width="10" x="546.5" y="183.9219"/><rect fill="#FFFFFF" height="664.6797" style="stroke:#181818;stroke-width:1.0;" width="10" x="546.5" y="470.0859"/><rect fill="#FFFFFF" height="505.9219" style="stroke:#181818;stroke-width:1.0;" width="10" x="792.5" y="561.1406"/><rect fill="#FFFFFF" height="30.3516" style="stroke:#181818;stroke-width:1.0;" width="10" x="1158.5" y="214.2734"/><rect fill="#FFFFFF" height="30.3516" style="stroke:#181818;stroke-width:1.0;" width="10" x="1158.5" y="500.4375"/><rect fill="#FFFFFF" height="30.3516" style="stroke:#181818;stroke-width:1.0;" width="10" x="1315" y="703.5469"/><rect fill="#FFFFFF" height="55.7031" style="stroke:#181818;stroke-width:1.0;" width="10" x="1428.5" y="814.6016"/><rect fill="#FFFFFF" height="30.3516" style="stroke:#181818;stroke-width:1.0;" width="10" x="1488" y="900.6563"/><rect fill="#FFFFFF" height="30" style="stroke:#181818;stroke-width:1.0;" width="10" x="1556.5" y="993.7109"/><rect fill="none" height="79.0547" style="stroke:#000000;stroke-width:1.5;" width="687" x="725.5" y="662.8438"/><rect fill="none" height="109.4063" style="stroke:#000000;stroke-width:1.5;" width="806" x="725.5" y="829.6016"/><rect fill="none" height="78.7031" style="stroke:#000000;stroke-width:1.5;" width="876" x="725.5" y="953.0078"/><line style="stroke:#181818;stroke-width:0.5;stroke-dasharray:5.0,5.0;" x1="24" x2="24" y1="121.2188" y2="1287.1719"/><line style="stroke:#181818;stroke-width:0.5;stroke-dasharray:5.0,5.0;" x1="287" x2="287" y1="121.2188" y2="1287.1719"/><line style="stroke:#181818;stroke-width:0.5;stroke-dasharray:5.0,5.0;" x1="551" x2="551" y1="121.2188" y2="1287.1719"/><line style="stroke:#181818;stroke-width:0.5;stroke-dasharray:5.0,5.0;" x1="797.5" x2="797.5" y1="121.2188" y2="1287.1719"/><line style="stroke:#181818;stroke-width:0.5;stroke-dasharray:5.0,5.0;" x1="1163.5" x2="1163.5" y1="121.2188" y2="1287.1719"/><line style="stroke:#181818;stroke-width:0.5;stroke-dasharray:5.0,5.0;" x1="1319.5" x2="1319.5" y1="121.2188" y2="1287.1719"/><line style="stroke:#181818;stroke-width:0.5;stroke-dasharray:5.0,5.0;" x1="1433.5" x2="1433.5" y1="121.2188" y2="1287.1719"/><line style="stroke:#181818;stroke-width:0.5;stroke-dasharray:5.0,5.0;" x1="1492.5" x2="1492.5" y1="121.2188" y2="1287.1719"/><line style="stroke:#181818;stroke-width:0.5;stroke-dasharray:5.0,5.0;" x1="1561.5" x2="1561.5" y1="121.2188" y2="1287.1719"/><text fill="#000000" font-family="sans-serif" font-size="14" lengthAdjust="spacing" textLength="33" x="5" y="118.1426">Actor</text><ellipse cx="24.5" cy="52.1094" fill="#E3E3E3" rx="8" ry="8" style="stroke:#181818;stroke-width:0.5;"/><path d="M24.5,60.1094 L24.5,87.1094 M11.5,68.1094 L37.5,68.1094 M24.5,87.1094 L11.5,102.1094 M24.5,87.1094 L37.5,102.1094 " fill="none" style="stroke:#181818;stroke-width:0.5;"/><text fill="#000000" font-family="sans-serif" font-size="14" lengthAdjust="spacing" textLength="33" x="5" y="1300.7051">Actor</text><ellipse cx="24.5" cy="1312.2813" fill="#E3E3E3" rx="8" ry="8" style="stroke:#181818;stroke-width:0.5;"/><path d="M24.5,1320.2813 L24.5,1347.2813 M11.5,1328.2813 L37.5,1328.2813 M24.5,1347.2813 L11.5,1362.2813 M24.5,1347.2813 L37.5,1362.2813 " fill="none" style="stroke:#181818;stroke-width:0.5;"/><rect fill="#E3E3E3" height="49.2188" rx="2.5" ry="2.5" style="stroke:#181818;stroke-width:0.5;" width="109" x="233" y="71"/><text fill="#000000" font-family="sans-serif" font-size="14" font-style="italic" lengthAdjust="spacing" textLength="95" x="240" y="92.5332">«presentation»</text><text fill="#000000" font-family="sans-serif" font-size="14" lengthAdjust="spacing" textLength="75" x="250" y="110.1426">BulkEnrollUI</text><rect fill="#E3E3E3" height="49.2188" rx="2.5" ry="2.5" style="stroke:#181818;stroke-width:0.5;" width="109" x="233" y="1286.1719"/><text fill="#000000" font-family="sans-serif" font-size="14" font-style="italic" lengthAdjust="spacing" textLength="95" x="240" y="1307.7051">«presentation»</text><text fill="#000000" font-family="sans-serif" font-size="14" lengthAdjust="spacing" textLength="75" x="250" y="1325.3145">BulkEnrollUI</text><rect fill="#E3E3E3" height="49.2188" rx="2.5" ry="2.5" style="stroke:#181818;stroke-width:0.5;" width="139" x="482" y="71"/><text fill="#000000" font-family="sans-serif" font-size="14" font-style="italic" lengthAdjust="spacing" textLength="84" x="509.5" y="92.5332">«application»</text><text fill="#000000" font-family="sans-serif" font-size="14" lengthAdjust="spacing" textLength="125" x="489" y="110.1426">BulkEnrollController</text><rect fill="#E3E3E3" height="49.2188" rx="2.5" ry="2.5" style="stroke:#181818;stroke-width:0.5;" width="139" x="482" y="1286.1719"/><text fill="#000000" font-family="sans-serif" font-size="14" font-style="italic" lengthAdjust="spacing" textLength="84" x="509.5" y="1307.7051">«application»</text><text fill="#000000" font-family="sans-serif" font-size="14" lengthAdjust="spacing" textLength="125" x="489" y="1325.3145">BulkEnrollController</text><rect fill="#E3E3E3" height="49.2188" rx="2.5" ry="2.5" style="stroke:#181818;stroke-width:0.5;" width="124" x="735.5" y="71"/><text fill="#000000" font-family="sans-serif" font-size="14" font-style="italic" lengthAdjust="spacing" textLength="60" x="767.5" y="92.5332">«service»</text><text fill="#000000" font-family="sans-serif" font-size="14" lengthAdjust="spacing" textLength="110" x="742.5" y="110.1426">BulkEnrollService</text><rect fill="#E3E3E3" height="49.2188" rx="2.5" ry="2.5" style="stroke:#181818;stroke-width:0.5;" width="124" x="735.5" y="1286.1719"/><text fill="#000000" font-family="sans-serif" font-size="14" font-style="italic" lengthAdjust="spacing" textLength="60" x="767.5" y="1307.7051">«service»</text><text fill="#000000" font-family="sans-serif" font-size="14" lengthAdjust="spacing" textLength="110" x="742.5" y="1325.3145">BulkEnrollService</text><rect fill="#E3E3E3" height="49.2188" rx="2.5" ry="2.5" style="stroke:#181818;stroke-width:0.5;" width="128" x="1099.5" y="71"/><text fill="#000000" font-family="sans-serif" font-size="14" font-style="italic" lengthAdjust="spacing" textLength="79" x="1124" y="92.5332">«repository»</text><text fill="#000000" font-family="sans-serif" font-size="14" lengthAdjust="spacing" textLength="114" x="1106.5" y="110.1426">CourseRepository</text><rect fill="#E3E3E3" height="49.2188" rx="2.5" ry="2.5" style="stroke:#181818;stroke-width:0.5;" width="128" x="1099.5" y="1286.1719"/><text fill="#000000" font-family="sans-serif" font-size="14" font-style="italic" lengthAdjust="spacing" textLength="79" x="1124" y="1307.7051">«repository»</text><text fill="#000000" font-family="sans-serif" font-size="14" lengthAdjust="spacing" textLength="114" x="1106.5" y="1325.3145">CourseRepository</text><rect fill="#E3E3E3" height="49.2188" rx="2.5" ry="2.5" style="stroke:#181818;stroke-width:0.5;" width="165" x="1237.5" y="71"/><text fill="#000000" font-family="sans-serif" font-size="14" font-style="italic" lengthAdjust="spacing" textLength="79" x="1280.5" y="92.5332">«repository»</text><text fill="#000000" font-family="sans-serif" font-size="14" lengthAdjust="spacing" textLength="151" x="1244.5" y="110.1426">eCourseUserRepository</text><rect fill="#E3E3E3" height="49.2188" rx="2.5" ry="2.5" style="stroke:#181818;stroke-width:0.5;" width="165" x="1237.5" y="1286.1719"/><text fill="#000000" font-family="sans-serif" font-size="14" font-style="italic" lengthAdjust="spacing" textLength="79" x="1280.5" y="1307.7051">«repository»</text><text fill="#000000" font-family="sans-serif" font-size="14" lengthAdjust="spacing" textLength="151" x="1244.5" y="1325.3145">eCourseUserRepository</text><rect fill="#E3E3E3" height="31.6094" rx="2.5" ry="2.5" style="stroke:#181818;stroke-width:0.5;" width="42" x="1412.5" y="88.6094"/><text fill="#000000" font-family="sans-serif" font-size="14" lengthAdjust="spacing" textLength="28" x="1419.5" y="110.1426">user</text><rect fill="#E3E3E3" height="31.6094" rx="2.5" ry="2.5" style="stroke:#181818;stroke-width:0.5;" width="42" x="1412.5" y="1286.1719"/><text fill="#000000" font-family="sans-serif" font-size="14" lengthAdjust="spacing" textLength="28" x="1419.5" y="1307.7051">user</text><rect fill="#E3E3E3" height="31.6094" rx="2.5" ry="2.5" style="stroke:#181818;stroke-width:0.5;" width="57" x="1464.5" y="88.6094"/><text fill="#000000" font-family="sans-serif" font-size="14" lengthAdjust="spacing" textLength="43" x="1471.5" y="110.1426">course</text><rect fill="#E3E3E3" height="31.6094" rx="2.5" ry="2.5" style="stroke:#181818;stroke-width:0.5;" width="57" x="1464.5" y="1286.1719"/><text fill="#000000" font-family="sans-serif" font-size="14" lengthAdjust="spacing" textLength="43" x="1471.5" y="1307.7051">course</text><rect fill="#E3E3E3" height="31.6094" rx="2.5" ry="2.5" style="stroke:#181818;stroke-width:0.5;" width="60" x="1531.5" y="88.6094"/><text fill="#000000" font-family="sans-serif" font-size="14" lengthAdjust="spacing" textLength="46" x="1538.5" y="110.1426">Course</text><rect fill="#E3E3E3" height="31.6094" rx="2.5" ry="2.5" style="stroke:#181818;stroke-width:0.5;" width="60" x="1531.5" y="1286.1719"/><text fill="#000000" font-family="sans-serif" font-size="14" lengthAdjust="spacing" textLength="46" x="1538.5" y="1307.7051">Course</text><rect fill="#FFFFFF" height="30.3516" style="stroke:#181818;stroke-width:1.0;" width="10" x="19.5" y="409.3828"/><rect fill="#FFFFFF" height="195.1094" style="stroke:#181818;stroke-width:1.0;" width="10" x="282.5" y="153.5703"/><rect fill="#FFFFFF" height="30.3516" style="stroke:#181818;stroke-width:1.0;" width="10" x="282.5" y="379.0313"/><rect fill="#FFFFFF" height="768.7344" style="stroke:#181818;stroke-width:1.0;" width="10" x="282.5" y="439.7344"/><rect fill="#FFFFFF" height="30.3516" style="stroke:#181818;stroke-width:1.0;" width="10" x="282.5" y="1238.8203"/><rect fill="#FFFFFF" height="91.0547" style="stroke:#181818;stroke-width:1.0;" width="10" x="546.5" y="183.9219"/><rect fill="#FFFFFF" height="664.6797" style="stroke:#181818;stroke-width:1.0;" width="10" x="546.5" y="470.0859"/><rect fill="#FFFFFF" height="505.9219" style="stroke:#181818;stroke-width:1.0;" width="10" x="792.5" y="561.1406"/><rect fill="#FFFFFF" height="30.3516" style="stroke:#181818;stroke-width:1.0;" width="10" x="1158.5" y="214.2734"/><rect fill="#FFFFFF" height="30.3516" style="stroke:#181818;stroke-width:1.0;" width="10" x="1158.5" y="500.4375"/><rect fill="#FFFFFF" height="30.3516" style="stroke:#181818;stroke-width:1.0;" width="10" x="1315" y="703.5469"/><rect fill="#FFFFFF" height="55.7031" style="stroke:#181818;stroke-width:1.0;" width="10" x="1428.5" y="814.6016"/><rect fill="#FFFFFF" height="30.3516" style="stroke:#181818;stroke-width:1.0;" width="10" x="1488" y="900.6563"/><rect fill="#FFFFFF" height="30" style="stroke:#181818;stroke-width:1.0;" width="10" x="1556.5" y="993.7109"/><polygon fill="#181818" points="270.5,149.5703,280.5,153.5703,270.5,157.5703,274.5,153.5703" style="stroke:#181818;stroke-width:1.0;"/><line style="stroke:#181818;stroke-width:1.0;" x1="24.5" x2="276.5" y1="153.5703" y2="153.5703"/><text fill="#000000" font-family="sans-serif" font-size="13" lengthAdjust="spacing" textLength="187" x="31.5" y="148.7139">Requests to bulk enroll students</text><polygon fill="#181818" points="534.5,179.9219,544.5,183.9219,534.5,187.9219,538.5,183.9219" style="stroke:#181818;stroke-width:1.0;"/><line style="stroke:#181818;stroke-width:1.0;" x1="292.5" x2="540.5" y1="183.9219" y2="183.9219"/><text fill="#000000" font-family="sans-serif" font-size="13" lengthAdjust="spacing" textLength="166" x="299.5" y="179.0654">listCoursesEnrollmentOpen()</text><polygon fill="#181818" points="1146.5,210.2734,1156.5,214.2734,1146.5,218.2734,1150.5,214.2734" style="stroke:#181818;stroke-width:1.0;"/><line style="stroke:#181818;stroke-width:1.0;" x1="556.5" x2="1152.5" y1="214.2734" y2="214.2734"/><text fill="#000000" font-family="sans-serif" font-size="13" lengthAdjust="spacing" textLength="239" x="563.5" y="209.417">findAllWithStatus(OPEN_ENROLLMENT)</text><polygon fill="#181818" points="567.5,240.625,557.5,244.625,567.5,248.625,563.5,244.625" style="stroke:#181818;stroke-width:1.0;"/><line style="stroke:#181818;stroke-width:1.0;stroke-dasharray:2.0,2.0;" x1="561.5" x2="1162.5" y1="244.625" y2="244.625"/><text fill="#000000" font-family="sans-serif" font-size="13" lengthAdjust="spacing" textLength="78" x="573.5" y="239.7686">List&lt;Course&gt;</text><polygon fill="#181818" points="303.5,270.9766,293.5,274.9766,303.5,278.9766,299.5,274.9766" style="stroke:#181818;stroke-width:1.0;"/><line style="stroke:#181818;stroke-width:1.0;stroke-dasharray:2.0,2.0;" x1="297.5" x2="550.5" y1="274.9766" y2="274.9766"/><text fill="#000000" font-family="sans-serif" font-size="13" lengthAdjust="spacing" textLength="98" x="309.5" y="270.1201">List&lt;CourseDto&gt;</text><line style="stroke:#181818;stroke-width:1.0;" x1="292.5" x2="334.5" y1="305.3281" y2="305.3281"/><line style="stroke:#181818;stroke-width:1.0;" x1="334.5" x2="334.5" y1="305.3281" y2="318.3281"/><line style="stroke:#181818;stroke-width:1.0;" x1="293.5" x2="334.5" y1="318.3281" y2="318.3281"/><polygon fill="#181818" points="303.5,314.3281,293.5,318.3281,303.5,322.3281,299.5,318.3281" style="stroke:#181818;stroke-width:1.0;"/><text fill="#000000" font-family="sans-serif" font-size="13" lengthAdjust="spacing" textLength="134" x="299.5" y="300.4717">showCourses(Courses)</text><polygon fill="#181818" points="35.5,344.6797,25.5,348.6797,35.5,352.6797,31.5,348.6797" style="stroke:#181818;stroke-width:1.0;"/><line style="stroke:#181818;stroke-width:1.0;stroke-dasharray:2.0,2.0;" x1="29.5" x2="286.5" y1="348.6797" y2="348.6797"/><text fill="#000000" font-family="sans-serif" font-size="13" lengthAdjust="spacing" textLength="145" x="41.5" y="343.8232">Display List&lt;CourseDto&gt;</text><polygon fill="#181818" points="270.5,375.0313,280.5,379.0313,270.5,383.0313,274.5,379.0313" style="stroke:#181818;stroke-width:1.0;"/><line style="stroke:#181818;stroke-width:1.0;" x1="24.5" x2="276.5" y1="379.0313" y2="379.0313"/><text fill="#000000" font-family="sans-serif" font-size="13" lengthAdjust="spacing" textLength="98" x="31.5" y="374.1748">Choose a course</text><polygon fill="#181818" points="40.5,405.3828,30.5,409.3828,40.5,413.3828,36.5,409.3828" style="stroke:#181818;stroke-width:1.0;"/><line style="stroke:#181818;stroke-width:1.0;" x1="34.5" x2="286.5" y1="409.3828" y2="409.3828"/><text fill="#000000" font-family="sans-serif" font-size="13" lengthAdjust="spacing" textLength="121" x="46.5" y="404.5264">Ask for CSV file path</text><polygon fill="#181818" points="270.5,435.7344,280.5,439.7344,270.5,443.7344,274.5,439.7344" style="stroke:#181818;stroke-width:1.0;"/><line style="stroke:#181818;stroke-width:1.0;stroke-dasharray:2.0,2.0;" x1="24.5" x2="276.5" y1="439.7344" y2="439.7344"/><text fill="#000000" font-family="sans-serif" font-size="13" lengthAdjust="spacing" textLength="112" x="31.5" y="434.8779">types CSV file path</text><polygon fill="#181818" points="534.5,466.0859,544.5,470.0859,534.5,474.0859,538.5,470.0859" style="stroke:#181818;stroke-width:1.0;"/><line style="stroke:#181818;stroke-width:1.0;" x1="292.5" x2="540.5" y1="470.0859" y2="470.0859"/><text fill="#000000" font-family="sans-serif" font-size="13" lengthAdjust="spacing" textLength="235" x="299.5" y="465.2295">enrollStudents(selectedCourse, csvPath)</text><polygon fill="#181818" points="1146.5,496.4375,1156.5,500.4375,1146.5,504.4375,1150.5,500.4375" style="stroke:#181818;stroke-width:1.0;"/><line style="stroke:#181818;stroke-width:1.0;" x1="556.5" x2="1152.5" y1="500.4375" y2="500.4375"/><text fill="#000000" font-family="sans-serif" font-size="13" lengthAdjust="spacing" textLength="125" x="563.5" y="495.5811">findByCode(courseID)</text><polygon fill="#181818" points="567.5,526.7891,557.5,530.7891,567.5,534.7891,563.5,530.7891" style="stroke:#181818;stroke-width:1.0;"/><line style="stroke:#181818;stroke-width:1.0;stroke-dasharray:2.0,2.0;" x1="561.5" x2="1162.5" y1="530.7891" y2="530.7891"/><text fill="#000000" font-family="sans-serif" font-size="13" lengthAdjust="spacing" textLength="41" x="573.5" y="525.9326">Course</text><polygon fill="#181818" points="780.5,557.1406,790.5,561.1406,780.5,565.1406,784.5,561.1406" style="stroke:#181818;stroke-width:1.0;"/><line style="stroke:#181818;stroke-width:1.0;" x1="556.5" x2="786.5" y1="561.1406" y2="561.1406"/><text fill="#000000" font-family="sans-serif" font-size="13" lengthAdjust="spacing" textLength="217" x="563.5" y="556.2842">enrollStudents(course, csvPath, repo)</text><line style="stroke:#181818;stroke-width:1.0;" x1="802.5" x2="844.5" y1="591.4922" y2="591.4922"/><line style="stroke:#181818;stroke-width:1.0;" x1="844.5" x2="844.5" y1="591.4922" y2="604.4922"/><line style="stroke:#181818;stroke-width:1.0;" x1="803.5" x2="844.5" y1="604.4922" y2="604.4922"/><polygon fill="#181818" points="813.5,600.4922,803.5,604.4922,813.5,608.4922,809.5,604.4922" style="stroke:#181818;stroke-width:1.0;"/><text fill="#000000" font-family="sans-serif" font-size="13" lengthAdjust="spacing" textLength="263" x="809.5" y="586.6357">List mecanographicNumbers= parse(csvPath)</text><line style="stroke:#181818;stroke-width:1.0;" x1="802.5" x2="844.5" y1="634.8438" y2="634.8438"/><line style="stroke:#181818;stroke-width:1.0;" x1="844.5" x2="844.5" y1="634.8438" y2="647.8438"/><line style="stroke:#181818;stroke-width:1.0;" x1="803.5" x2="844.5" y1="647.8438" y2="647.8438"/><polygon fill="#181818" points="813.5,643.8438,803.5,647.8438,813.5,651.8438,809.5,647.8438" style="stroke:#181818;stroke-width:1.0;"/><text fill="#000000" font-family="sans-serif" font-size="13" lengthAdjust="spacing" textLength="342" x="809.5" y="629.9873">corrected= validateStudents(mecanographicNumbers, repo)</text><path d="M725.5,662.8438 L798.5,662.8438 L798.5,671.1953 L788.5,681.1953 L725.5,681.1953 L725.5,662.8438 " fill="#EEEEEE" style="stroke:#000000;stroke-width:1.5;"/><rect fill="none" height="79.0547" style="stroke:#000000;stroke-width:1.5;" width="687" x="725.5" y="662.8438"/><text fill="#000000" font-family="sans-serif" font-size="13" font-weight="bold" lengthAdjust="spacing" textLength="28" x="740.5" y="677.3389">loop</text><text fill="#000000" font-family="sans-serif" font-size="11" font-weight="bold" lengthAdjust="spacing" textLength="185" x="813.5" y="676.2627">[for each mecanographicNumber]</text><polygon fill="#181818" points="1303,699.5469,1313,703.5469,1303,707.5469,1307,703.5469" style="stroke:#181818;stroke-width:1.0;"/><line style="stroke:#181818;stroke-width:1.0;" x1="802.5" x2="1309" y1="703.5469" y2="703.5469"/><text fill="#000000" font-family="sans-serif" font-size="13" lengthAdjust="spacing" textLength="209" x="809.5" y="698.6904">findByMeca(mecanographicNumber)</text><polygon fill="#181818" points="813.5,729.8984,803.5,733.8984,813.5,737.8984,809.5,733.8984" style="stroke:#181818;stroke-width:1.0;"/><line style="stroke:#181818;stroke-width:1.0;stroke-dasharray:2.0,2.0;" x1="807.5" x2="1319" y1="733.8984" y2="733.8984"/><text fill="#000000" font-family="sans-serif" font-size="13" lengthAdjust="spacing" textLength="27" x="819.5" y="729.042">User</text><line style="stroke:#181818;stroke-width:1.0;" x1="802.5" x2="844.5" y1="771.25" y2="771.25"/><line style="stroke:#181818;stroke-width:1.0;" x1="844.5" x2="844.5" y1="771.25" y2="784.25"/><line style="stroke:#181818;stroke-width:1.0;" x1="803.5" x2="844.5" y1="784.25" y2="784.25"/><polygon fill="#181818" points="813.5,780.25,803.5,784.25,813.5,788.25,809.5,784.25" style="stroke:#181818;stroke-width:1.0;"/><text fill="#000000" font-family="sans-serif" font-size="13" lengthAdjust="spacing" textLength="224" x="809.5" y="766.3936">enrollStudents(course, corrected, fepo)</text><polygon fill="#181818" points="1416.5,810.6016,1426.5,814.6016,1416.5,818.6016,1420.5,814.6016" style="stroke:#181818;stroke-width:1.0;"/><line style="stroke:#181818;stroke-width:1.0;" x1="802.5" x2="1422.5" y1="814.6016" y2="814.6016"/><text fill="#000000" font-family="sans-serif" font-size="13" lengthAdjust="spacing" textLength="151" x="809.5" y="809.7451">setStudentCourse(course)</text><path d="M725.5,829.6016 L798.5,829.6016 L798.5,837.9531 L788.5,847.9531 L725.5,847.9531 L725.5,829.6016 " fill="#EEEEEE" style="stroke:#000000;stroke-width:1.5;"/><rect fill="none" height="109.4063" style="stroke:#000000;stroke-width:1.5;" width="806" x="725.5" y="829.6016"/><text fill="#000000" font-family="sans-serif" font-size="13" font-weight="bold" lengthAdjust="spacing" textLength="28" x="740.5" y="844.0967">loop</text><text fill="#000000" font-family="sans-serif" font-size="11" font-weight="bold" lengthAdjust="spacing" textLength="82" x="813.5" y="843.0205">[for each user]</text><polygon fill="#181818" points="813.5,866.3047,803.5,870.3047,813.5,874.3047,809.5,870.3047" style="stroke:#181818;stroke-width:1.0;"/><line style="stroke:#181818;stroke-width:1.0;stroke-dasharray:2.0,2.0;" x1="807.5" x2="1432.5" y1="870.3047" y2="870.3047"/><text fill="#000000" font-family="sans-serif" font-size="13" lengthAdjust="spacing" textLength="29" x="819.5" y="865.4482">state</text><polygon fill="#181818" points="1476,896.6563,1486,900.6563,1476,904.6563,1480,900.6563" style="stroke:#181818;stroke-width:1.0;"/><line style="stroke:#181818;stroke-width:1.0;" x1="802.5" x2="1482" y1="900.6563" y2="900.6563"/><text fill="#000000" font-family="sans-serif" font-size="13" lengthAdjust="spacing" textLength="120" x="809.5" y="895.7998">setNumStudents(+1)</text><polygon fill="#181818" points="813.5,927.0078,803.5,931.0078,813.5,935.0078,809.5,931.0078" style="stroke:#181818;stroke-width:1.0;"/><line style="stroke:#181818;stroke-width:1.0;stroke-dasharray:2.0,2.0;" x1="807.5" x2="1492" y1="931.0078" y2="931.0078"/><text fill="#000000" font-family="sans-serif" font-size="13" lengthAdjust="spacing" textLength="29" x="819.5" y="926.1514">state</text><path d="M725.5,953.0078 L786.5,953.0078 L786.5,961.3594 L776.5,971.3594 L725.5,971.3594 L725.5,953.0078 " fill="#EEEEEE" style="stroke:#000000;stroke-width:1.5;"/><rect fill="none" height="78.7031" style="stroke:#000000;stroke-width:1.5;" width="876" x="725.5" y="953.0078"/><text fill="#000000" font-family="sans-serif" font-size="13" font-weight="bold" lengthAdjust="spacing" textLength="16" x="740.5" y="967.5029">alt</text><text fill="#000000" font-family="sans-serif" font-size="11" font-weight="bold" lengthAdjust="spacing" textLength="174" x="801.5" y="966.4268">[course max students reached]</text><polygon fill="#181818" points="1544.5,989.7109,1554.5,993.7109,1544.5,997.7109,1548.5,993.7109" style="stroke:#181818;stroke-width:1.0;"/><line style="stroke:#181818;stroke-width:1.0;" x1="802.5" x2="1550.5" y1="993.7109" y2="993.7109"/><text fill="#000000" font-family="sans-serif" font-size="13" lengthAdjust="spacing" textLength="118" x="809.5" y="988.8545">disableEnrollments()</text><line style="stroke:#181818;stroke-width:1.0;stroke-dasharray:2.0,2.0;" x1="802.5" x2="844.5" y1="1066.0625" y2="1066.0625"/><line style="stroke:#181818;stroke-width:1.0;stroke-dasharray:2.0,2.0;" x1="844.5" x2="844.5" y1="1066.0625" y2="1079.0625"/><line style="stroke:#181818;stroke-width:1.0;stroke-dasharray:2.0,2.0;" x1="797.5" x2="844.5" y1="1079.0625" y2="1079.0625"/><polygon fill="#181818" points="807.5,1075.0625,797.5,1079.0625,807.5,1083.0625,803.5,1079.0625" style="stroke:#181818;stroke-width:1.0;"/><text fill="#000000" font-family="sans-serif" font-size="13" lengthAdjust="spacing" textLength="70" x="809.5" y="1061.2061">studentsDto</text><polygon fill="#181818" points="567.5,1100.4141,557.5,1104.4141,567.5,1108.4141,563.5,1104.4141" style="stroke:#181818;stroke-width:1.0;"/><line style="stroke:#181818;stroke-width:1.0;stroke-dasharray:2.0,2.0;" x1="561.5" x2="796.5" y1="1104.4141" y2="1104.4141"/><text fill="#000000" font-family="sans-serif" font-size="13" lengthAdjust="spacing" textLength="70" x="573.5" y="1099.5576">Studentsdto</text><polygon fill="#181818" points="303.5,1130.7656,293.5,1134.7656,303.5,1138.7656,299.5,1134.7656" style="stroke:#181818;stroke-width:1.0;"/><line style="stroke:#181818;stroke-width:1.0;stroke-dasharray:2.0,2.0;" x1="297.5" x2="550.5" y1="1134.7656" y2="1134.7656"/><text fill="#000000" font-family="sans-serif" font-size="13" lengthAdjust="spacing" textLength="4" x="309.5" y="1129.9092">-</text><line style="stroke:#181818;stroke-width:1.0;" x1="292.5" x2="334.5" y1="1165.1172" y2="1165.1172"/><line style="stroke:#181818;stroke-width:1.0;" x1="334.5" x2="334.5" y1="1165.1172" y2="1178.1172"/><line style="stroke:#181818;stroke-width:1.0;" x1="293.5" x2="334.5" y1="1178.1172" y2="1178.1172"/><polygon fill="#181818" points="303.5,1174.1172,293.5,1178.1172,303.5,1182.1172,299.5,1178.1172" style="stroke:#181818;stroke-width:1.0;"/><text fill="#000000" font-family="sans-serif" font-size="13" lengthAdjust="spacing" textLength="142" x="299.5" y="1160.2607">showStudents(enrolleds)</text><polygon fill="#181818" points="35.5,1204.4688,25.5,1208.4688,35.5,1212.4688,31.5,1208.4688" style="stroke:#181818;stroke-width:1.0;"/><line style="stroke:#181818;stroke-width:1.0;stroke-dasharray:2.0,2.0;" x1="29.5" x2="286.5" y1="1208.4688" y2="1208.4688"/><text fill="#000000" font-family="sans-serif" font-size="13" lengthAdjust="spacing" textLength="146" x="41.5" y="1203.6123">Display enrolled students</text><polygon fill="#181818" points="270.5,1234.8203,280.5,1238.8203,270.5,1242.8203,274.5,1238.8203" style="stroke:#181818;stroke-width:1.0;"/><line style="stroke:#181818;stroke-width:1.0;stroke-dasharray:2.0,2.0;" x1="24.5" x2="276.5" y1="1238.8203" y2="1238.8203"/><text fill="#000000" font-family="sans-serif" font-size="13" lengthAdjust="spacing" textLength="102" x="31.5" y="1233.9639">Choose a student</text><polygon fill="#181818" points="35.5,1265.1719,25.5,1269.1719,35.5,1273.1719,31.5,1269.1719" style="stroke:#181818;stroke-width:1.0;"/><line style="stroke:#181818;stroke-width:1.0;stroke-dasharray:2.0,2.0;" x1="29.5" x2="286.5" y1="1269.1719" y2="1269.1719"/><text fill="#000000" font-family="sans-serif" font-size="13" lengthAdjust="spacing" textLength="234" x="41.5" y="1264.3154">Display "Students enrolled successfully"</text><!--MD5=[2fb88ceddbbd9ba81f4592766f2e91e4]
@startuml
'https://plantuml.com/skinparam
skinparam monochrome true
skinparam packageStyle rect

title SSD - Bulk Enroll Students

actor Actor as Actor
participant BulkEnrollUI as UI <<presentation>>
participant BulkEnrollController as Controller <<application>>
participant BulkEnrollService as Service <<service>>
participant CourseRepository as CourseRepo <<repository>>
participant eCourseUserRepository as ActorRepo <<repository>>

Actor -> UI: Requests to bulk enroll students
activate UI

UI -> Controller: listCoursesEnrollmentOpen()
activate Controller
Controller -> CourseRepo: findAllWithStatus(OPEN_ENROLLMENT)
activate CourseRepo
CourseRepo - -> Controller: List<Course>
deactivate CourseRepo
Controller - -> UI: List<CourseDto>
deactivate Controller

    UI -> UI: showCourses(Courses)
    UI - -> Actor: Display List<CourseDto>
    deactivate UI
    Actor -> UI: Choose a course
    activate UI
    UI -> Actor: Ask for CSV file path
    deactivate UI
    activate Actor
    Actor - -> UI: types CSV file path
    deactivate Actor
     activate UI
    UI -> Controller: enrollStudents(selectedCourse, csvPath)
    activate Controller
    Controller -> CourseRepo: findByCode(courseID)
    activate CourseRepo
    CourseRepo - -> Controller: Course
    deactivate CourseRepo
    Controller -> Service: enrollStudents(course, csvPath, repo)
    activate Service
    Service -> Service: List mecanographicNumbers= parse(csvPath)
    Service -> Service: corrected= validateStudents(mecanographicNumbers, repo)
    loop for each mecanographicNumber
    Service -> ActorRepo: findByMeca(mecanographicNumber)
    activate ActorRepo
    ActorRepo - -> Service: User
deactivate ActorRepo
    end
    Service -> Service: enrollStudents(course, corrected, fepo)
    Service -> user: setStudentCourse(course)
    loop for each user
    activate user
    user - -> Service: state
    deactivate user
    Service -> course: setNumStudents(+1)
    activate course
    course - -> Service: state
    deactivate course
    end
    ALT course max students reached
    Service -> Course: disableEnrollments()
    activate Course
    deactivate Course
    END


    activate Service

    deactivate Course
    Service - -> Service: studentsDto
    deactivate Service
    Service - -> Controller: Studentsdto
    deactivate Service
    Controller - -> UI: -
    deactivate Controller
    UI -> UI: showStudents(enrolleds)

    UI - -> Actor: Display enrolled students
    deactivate UI
    Actor - -> UI: Choose a student
    activate UI
    UI - -> Actor: Display "Students enrolled successfully"
    deactivate UI


@enduml

@startuml
skinparam monochrome true
skinparam packageStyle rect

title SSD - Bulk Enroll Students

actor Actor as Actor
participant BulkEnrollUI as UI <<presentation>>
participant BulkEnrollController as Controller <<application>>
participant BulkEnrollService as Service <<service>>
participant CourseRepository as CourseRepo <<repository>>
participant eCourseUserRepository as ActorRepo <<repository>>

Actor -> UI: Requests to bulk enroll students
activate UI

UI -> Controller: listCoursesEnrollmentOpen()
activate Controller
Controller -> CourseRepo: findAllWithStatus(OPEN_ENROLLMENT)
activate CourseRepo
CourseRepo - -> Controller: List<Course>
deactivate CourseRepo
Controller - -> UI: List<CourseDto>
deactivate Controller

    UI -> UI: showCourses(Courses)
    UI - -> Actor: Display List<CourseDto>
    deactivate UI
    Actor -> UI: Choose a course
    activate UI
    UI -> Actor: Ask for CSV file path
    deactivate UI
    activate Actor
    Actor - -> UI: types CSV file path
    deactivate Actor
     activate UI
    UI -> Controller: enrollStudents(selectedCourse, csvPath)
    activate Controller
    Controller -> CourseRepo: findByCode(courseID)
    activate CourseRepo
    CourseRepo - -> Controller: Course
    deactivate CourseRepo
    Controller -> Service: enrollStudents(course, csvPath, repo)
    activate Service
    Service -> Service: List mecanographicNumbers= parse(csvPath)
    Service -> Service: corrected= validateStudents(mecanographicNumbers, repo)
    loop for each mecanographicNumber
    Service -> ActorRepo: findByMeca(mecanographicNumber)
    activate ActorRepo
    ActorRepo - -> Service: User
deactivate ActorRepo
    end
    Service -> Service: enrollStudents(course, corrected, fepo)
    Service -> user: setStudentCourse(course)
    loop for each user
    activate user
    user - -> Service: state
    deactivate user
    Service -> course: setNumStudents(+1)
    activate course
    course - -> Service: state
    deactivate course
    end
    ALT course max students reached
    Service -> Course: disableEnrollments()
    activate Course
    deactivate Course
    END


    activate Service

    deactivate Course
    Service - -> Service: studentsDto
    deactivate Service
    Service - -> Controller: Studentsdto
    deactivate Service
    Controller - -> UI: -
    deactivate Controller
    UI -> UI: showStudents(enrolleds)

    UI - -> Actor: Display enrolled students
    deactivate UI
    Actor - -> UI: Choose a student
    activate UI
    UI - -> Actor: Display "Students enrolled successfully"
    deactivate UI


@enduml

PlantUML version 1.2022.12(Sun Oct 23 19:12:26 BST 2022)
(GPL source distribution)
Java Runtime: OpenJDK Runtime Environment
JVM: OpenJDK 64-Bit Server VM
Default Encoding: Cp1252
Language: pt
Country: PT
--></g></svg>