<?xml version="1.0" encoding="us-ascii" standalone="no"?><svg xmlns="http://www.w3.org/2000/svg" xmlns:xlink="http://www.w3.org/1999/xlink" contentStyleType="text/css" height="1682px" preserveAspectRatio="none" style="width:2053px;height:1682px;background:#FFFFFF;" version="1.1" viewBox="0 0 2053 1682" width="2053px" zoomAndPan="magnify"><defs/><g><!--class ListExamGradesCourseUI--><g id="elem_ListExamGradesCourseUI"><rect codeLine="4" fill="#F1F1F1" height="66.6211" id="ListExamGradesCourseUI" rx="2.5" ry="2.5" style="stroke:#181818;stroke-width:0.5;" width="351" x="318.5" y="813.5"/><ellipse cx="409.25" cy="829.5" fill="#ADD1B2" rx="11" ry="11" style="stroke:#181818;stroke-width:1.0;"/><path d="M412.0156,825.375 Q412.1719,825.1563 412.3594,825.0469 Q412.5469,824.9375 412.7656,824.9375 Q413.1406,824.9375 413.375,825.2031 Q413.6094,825.4531 413.6094,826.0625 L413.6094,827.5156 Q413.6094,828.125 413.375,828.3906 Q413.1406,828.6563 412.7656,828.6563 Q412.4219,828.6563 412.2188,828.4531 Q412.0156,828.2656 411.9063,827.75 Q411.8594,827.3906 411.6719,827.2031 Q411.3438,826.8281 410.7344,826.6094 Q410.125,826.3906 409.5,826.3906 Q408.7344,826.3906 408.0938,826.7188 Q407.4688,827.0469 406.9688,827.7969 Q406.4844,828.5469 406.4844,829.5781 L406.4844,830.6719 Q406.4844,831.9063 407.375,832.7344 Q408.2656,833.5469 409.8594,833.5469 Q410.7969,833.5469 411.4531,833.2969 Q411.8438,833.1406 412.2656,832.7031 Q412.5313,832.4375 412.6719,832.3594 Q412.8281,832.2813 413.0313,832.2813 Q413.3594,832.2813 413.6094,832.5469 Q413.875,832.7969 413.875,833.1406 Q413.875,833.4844 413.5313,833.8906 Q413.0313,834.4688 412.2344,834.7969 Q411.1563,835.25 409.8594,835.25 Q408.3438,835.25 407.1406,834.625 Q406.1563,834.125 405.4688,833.0625 Q404.7813,831.9844 404.7813,830.7031 L404.7813,829.5469 Q404.7813,828.2188 405.3906,827.0781 Q406.0156,825.9219 407.1094,825.3125 Q408.2031,824.6875 409.4375,824.6875 Q410.1719,824.6875 410.8125,824.8594 Q411.4688,825.0156 412.0156,825.375 Z " fill="#000000"/><text fill="#000000" font-family="sans-serif" font-size="14" lengthAdjust="spacing" textLength="161" x="429.75" y="835.2969">ListExamGradesCourseUI</text><line style="stroke:#181818;stroke-width:0.5;" x1="319.5" x2="668.5" y1="845.5" y2="845.5"/><line style="stroke:#181818;stroke-width:0.5;" x1="319.5" x2="668.5" y1="853.5" y2="853.5"/><ellipse cx="329.5" cy="868.3105" fill="#84BE84" rx="3" ry="3" style="stroke:#038048;stroke-width:1.0;"/><text fill="#000000" font-family="sans-serif" font-size="14" lengthAdjust="spacing" textLength="325" x="338.5" y="872.6074">getExamGradesOfCourse() : List&lt;ExamGradesDto&gt;</text></g><!--class ListExamGradesCourseController--><g id="elem_ListExamGradesCourseController"><rect codeLine="8" fill="#F1F1F1" height="103.8633" id="ListExamGradesCourseController" rx="2.5" ry="2.5" style="stroke:#181818;stroke-width:0.5;" width="357" x="315.5" y="965"/><ellipse cx="384.25" cy="981" fill="#ADD1B2" rx="11" ry="11" style="stroke:#181818;stroke-width:1.0;"/><path d="M387.0156,976.875 Q387.1719,976.6563 387.3594,976.5469 Q387.5469,976.4375 387.7656,976.4375 Q388.1406,976.4375 388.375,976.7031 Q388.6094,976.9531 388.6094,977.5625 L388.6094,979.0156 Q388.6094,979.625 388.375,979.8906 Q388.1406,980.1563 387.7656,980.1563 Q387.4219,980.1563 387.2188,979.9531 Q387.0156,979.7656 386.9063,979.25 Q386.8594,978.8906 386.6719,978.7031 Q386.3438,978.3281 385.7344,978.1094 Q385.125,977.8906 384.5,977.8906 Q383.7344,977.8906 383.0938,978.2188 Q382.4688,978.5469 381.9688,979.2969 Q381.4844,980.0469 381.4844,981.0781 L381.4844,982.1719 Q381.4844,983.4063 382.375,984.2344 Q383.2656,985.0469 384.8594,985.0469 Q385.7969,985.0469 386.4531,984.7969 Q386.8438,984.6406 387.2656,984.2031 Q387.5313,983.9375 387.6719,983.8594 Q387.8281,983.7813 388.0313,983.7813 Q388.3594,983.7813 388.6094,984.0469 Q388.875,984.2969 388.875,984.6406 Q388.875,984.9844 388.5313,985.3906 Q388.0313,985.9688 387.2344,986.2969 Q386.1563,986.75 384.8594,986.75 Q383.3438,986.75 382.1406,986.125 Q381.1563,985.625 380.4688,984.5625 Q379.7813,983.4844 379.7813,982.2031 L379.7813,981.0469 Q379.7813,979.7188 380.3906,978.5781 Q381.0156,977.4219 382.1094,976.8125 Q383.2031,976.1875 384.4375,976.1875 Q385.1719,976.1875 385.8125,976.3594 Q386.4688,976.5156 387.0156,976.875 Z " fill="#000000"/><text fill="#000000" font-family="sans-serif" font-size="14" lengthAdjust="spacing" textLength="211" x="404.75" y="986.7969">ListExamGradesCourseController</text><line style="stroke:#181818;stroke-width:0.5;" x1="316.5" x2="671.5" y1="997" y2="997"/><line style="stroke:#181818;stroke-width:0.5;" x1="316.5" x2="671.5" y1="1005" y2="1005"/><ellipse cx="326.5" cy="1019.8105" fill="#84BE84" rx="3" ry="3" style="stroke:#038048;stroke-width:1.0;"/><text fill="#000000" font-family="sans-serif" font-size="14" lengthAdjust="spacing" textLength="120" x="335.5" y="1024.1074">session() : Session</text><ellipse cx="326.5" cy="1038.4316" fill="#84BE84" rx="3" ry="3" style="stroke:#038048;stroke-width:1.0;"/><text fill="#000000" font-family="sans-serif" font-size="14" lengthAdjust="spacing" textLength="266" x="335.5" y="1042.7285">authenticatedUser() : eCourseSystemUser</text><ellipse cx="326.5" cy="1057.0527" fill="#84BE84" rx="3" ry="3" style="stroke:#038048;stroke-width:1.0;"/><text fill="#000000" font-family="sans-serif" font-size="14" lengthAdjust="spacing" textLength="331" x="335.5" y="1061.3496">getExamGradesOfCourse(user) : List&lt;ExamGrades&gt;</text></g><!--class SeeTeacherCourseGradesService--><g id="elem_SeeTeacherCourseGradesService"><rect codeLine="14" fill="#F1F1F1" height="103.8633" id="SeeTeacherCourseGradesService" rx="2.5" ry="2.5" style="stroke:#181818;stroke-width:0.5;" width="392" x="146" y="1130"/><ellipse cx="228.75" cy="1146" fill="#ADD1B2" rx="11" ry="11" style="stroke:#181818;stroke-width:1.0;"/><path d="M231.5156,1141.875 Q231.6719,1141.6563 231.8594,1141.5469 Q232.0469,1141.4375 232.2656,1141.4375 Q232.6406,1141.4375 232.875,1141.7031 Q233.1094,1141.9531 233.1094,1142.5625 L233.1094,1144.0156 Q233.1094,1144.625 232.875,1144.8906 Q232.6406,1145.1563 232.2656,1145.1563 Q231.9219,1145.1563 231.7188,1144.9531 Q231.5156,1144.7656 231.4063,1144.25 Q231.3594,1143.8906 231.1719,1143.7031 Q230.8438,1143.3281 230.2344,1143.1094 Q229.625,1142.8906 229,1142.8906 Q228.2344,1142.8906 227.5938,1143.2188 Q226.9688,1143.5469 226.4688,1144.2969 Q225.9844,1145.0469 225.9844,1146.0781 L225.9844,1147.1719 Q225.9844,1148.4063 226.875,1149.2344 Q227.7656,1150.0469 229.3594,1150.0469 Q230.2969,1150.0469 230.9531,1149.7969 Q231.3438,1149.6406 231.7656,1149.2031 Q232.0313,1148.9375 232.1719,1148.8594 Q232.3281,1148.7813 232.5313,1148.7813 Q232.8594,1148.7813 233.1094,1149.0469 Q233.375,1149.2969 233.375,1149.6406 Q233.375,1149.9844 233.0313,1150.3906 Q232.5313,1150.9688 231.7344,1151.2969 Q230.6563,1151.75 229.3594,1151.75 Q227.8438,1151.75 226.6406,1151.125 Q225.6563,1150.625 224.9688,1149.5625 Q224.2813,1148.4844 224.2813,1147.2031 L224.2813,1146.0469 Q224.2813,1144.7188 224.8906,1143.5781 Q225.5156,1142.4219 226.6094,1141.8125 Q227.7031,1141.1875 228.9375,1141.1875 Q229.6719,1141.1875 230.3125,1141.3594 Q230.9688,1141.5156 231.5156,1141.875 Z " fill="#000000"/><text fill="#000000" font-family="sans-serif" font-size="14" lengthAdjust="spacing" textLength="218" x="249.25" y="1151.7969">SeeTeacherCourseGradesService</text><line style="stroke:#181818;stroke-width:0.5;" x1="147" x2="537" y1="1162" y2="1162"/><line style="stroke:#181818;stroke-width:0.5;" x1="147" x2="537" y1="1170" y2="1170"/><ellipse cx="157" cy="1184.8105" fill="#84BE84" rx="3" ry="3" style="stroke:#038048;stroke-width:1.0;"/><text fill="#000000" font-family="sans-serif" font-size="14" lengthAdjust="spacing" textLength="251" x="166" y="1189.1074">searchUser(user) : eCourseSystemUser</text><ellipse cx="157" cy="1203.4316" fill="#84BE84" rx="3" ry="3" style="stroke:#038048;stroke-width:1.0;"/><text fill="#000000" font-family="sans-serif" font-size="14" lengthAdjust="spacing" textLength="169" x="166" y="1207.7285">isRegent(teacher) : course</text><ellipse cx="157" cy="1222.0527" fill="#84BE84" rx="3" ry="3" style="stroke:#038048;stroke-width:1.0;"/><text fill="#000000" font-family="sans-serif" font-size="14" lengthAdjust="spacing" textLength="366" x="166" y="1226.3496">getgetExamGradesOfCourse(course) : List&lt;ExamGrades&gt;</text></g><!--class ListExamGradesCourseService--><g id="elem_ListExamGradesCourseService"><rect codeLine="20" fill="#F1F1F1" height="66.6211" id="ListExamGradesCourseService" rx="2.5" ry="2.5" style="stroke:#181818;stroke-width:0.5;" width="314" x="7" y="1360"/><ellipse cx="61.75" cy="1376" fill="#ADD1B2" rx="11" ry="11" style="stroke:#181818;stroke-width:1.0;"/><path d="M64.5156,1371.875 Q64.6719,1371.6563 64.8594,1371.5469 Q65.0469,1371.4375 65.2656,1371.4375 Q65.6406,1371.4375 65.875,1371.7031 Q66.1094,1371.9531 66.1094,1372.5625 L66.1094,1374.0156 Q66.1094,1374.625 65.875,1374.8906 Q65.6406,1375.1563 65.2656,1375.1563 Q64.9219,1375.1563 64.7188,1374.9531 Q64.5156,1374.7656 64.4063,1374.25 Q64.3594,1373.8906 64.1719,1373.7031 Q63.8438,1373.3281 63.2344,1373.1094 Q62.625,1372.8906 62,1372.8906 Q61.2344,1372.8906 60.5938,1373.2188 Q59.9688,1373.5469 59.4688,1374.2969 Q58.9844,1375.0469 58.9844,1376.0781 L58.9844,1377.1719 Q58.9844,1378.4063 59.875,1379.2344 Q60.7656,1380.0469 62.3594,1380.0469 Q63.2969,1380.0469 63.9531,1379.7969 Q64.3438,1379.6406 64.7656,1379.2031 Q65.0313,1378.9375 65.1719,1378.8594 Q65.3281,1378.7813 65.5313,1378.7813 Q65.8594,1378.7813 66.1094,1379.0469 Q66.375,1379.2969 66.375,1379.6406 Q66.375,1379.9844 66.0313,1380.3906 Q65.5313,1380.9688 64.7344,1381.2969 Q63.6563,1381.75 62.3594,1381.75 Q60.8438,1381.75 59.6406,1381.125 Q58.6563,1380.625 57.9688,1379.5625 Q57.2813,1378.4844 57.2813,1377.2031 L57.2813,1376.0469 Q57.2813,1374.7188 57.8906,1373.5781 Q58.5156,1372.4219 59.6094,1371.8125 Q60.7031,1371.1875 61.9375,1371.1875 Q62.6719,1371.1875 63.3125,1371.3594 Q63.9688,1371.5156 64.5156,1371.875 Z " fill="#000000"/><text fill="#000000" font-family="sans-serif" font-size="14" lengthAdjust="spacing" textLength="196" x="82.25" y="1381.7969">ListExamGradesCourseService</text><line style="stroke:#181818;stroke-width:0.5;" x1="8" x2="320" y1="1392" y2="1392"/><line style="stroke:#181818;stroke-width:0.5;" x1="8" x2="320" y1="1400" y2="1400"/><ellipse cx="18" cy="1414.8105" fill="#84BE84" rx="3" ry="3" style="stroke:#038048;stroke-width:1.0;"/><text fill="#000000" font-family="sans-serif" font-size="14" lengthAdjust="spacing" textLength="288" x="27" y="1419.1074">findExamGrades(course) : List&lt;ExamGrades&gt;</text></g><!--class SystemUser--><g id="elem_SystemUser"><rect codeLine="24" fill="#F1F1F1" height="113.7852" id="SystemUser" rx="2.5" ry="2.5" style="stroke:#181818;stroke-width:0.5;" width="107" x="1565.5" y="790"/><ellipse cx="1580.5" cy="820.2715" fill="#ADD1B2" rx="11" ry="11" style="stroke:#181818;stroke-width:1.0;"/><path d="M1583.2656,816.1465 Q1583.4219,815.9277 1583.6094,815.8184 Q1583.7969,815.709 1584.0156,815.709 Q1584.3906,815.709 1584.625,815.9746 Q1584.8594,816.2246 1584.8594,816.834 L1584.8594,818.2871 Q1584.8594,818.8965 1584.625,819.1621 Q1584.3906,819.4277 1584.0156,819.4277 Q1583.6719,819.4277 1583.4688,819.2246 Q1583.2656,819.0371 1583.1563,818.5215 Q1583.1094,818.1621 1582.9219,817.9746 Q1582.5938,817.5996 1581.9844,817.3809 Q1581.375,817.1621 1580.75,817.1621 Q1579.9844,817.1621 1579.3438,817.4902 Q1578.7188,817.8184 1578.2188,818.5684 Q1577.7344,819.3184 1577.7344,820.3496 L1577.7344,821.4434 Q1577.7344,822.6777 1578.625,823.5059 Q1579.5156,824.3184 1581.1094,824.3184 Q1582.0469,824.3184 1582.7031,824.0684 Q1583.0938,823.9121 1583.5156,823.4746 Q1583.7813,823.209 1583.9219,823.1309 Q1584.0781,823.0527 1584.2813,823.0527 Q1584.6094,823.0527 1584.8594,823.3184 Q1585.125,823.5684 1585.125,823.9121 Q1585.125,824.2559 1584.7813,824.6621 Q1584.2813,825.2402 1583.4844,825.5684 Q1582.4063,826.0215 1581.1094,826.0215 Q1579.5938,826.0215 1578.3906,825.3965 Q1577.4063,824.8965 1576.7188,823.834 Q1576.0313,822.7559 1576.0313,821.4746 L1576.0313,820.3184 Q1576.0313,818.9902 1576.6406,817.8496 Q1577.2656,816.6934 1578.3594,816.084 Q1579.4531,815.459 1580.6875,815.459 Q1581.4219,815.459 1582.0625,815.6309 Q1582.7188,815.7871 1583.2656,816.1465 Z " fill="#000000"/><text fill="#000000" font-family="sans-serif" font-size="12" font-style="italic" lengthAdjust="spacing" textLength="35" x="1614.5" y="807.9492">&#171;root&#187;</text><text fill="#000000" font-family="sans-serif" font-size="12" font-style="italic" lengthAdjust="spacing" textLength="44" x="1610" y="823.9102">&#171;Entity&#187;</text><text fill="#000000" font-family="sans-serif" font-size="14" lengthAdjust="spacing" textLength="75" x="1594.5" y="842.0293">SystemUser</text><line style="stroke:#181818;stroke-width:0.5;" x1="1566.5" x2="1671.5" y1="850.543" y2="850.543"/><ellipse cx="1576.5" cy="865.3535" fill="#000000" rx="3" ry="3" style="stroke:#000000;stroke-width:1.0;"/><text fill="#000000" font-family="sans-serif" font-size="14" lengthAdjust="spacing" textLength="36" x="1585.5" y="869.6504">Name</text><ellipse cx="1576.5" cy="883.9746" fill="#000000" rx="3" ry="3" style="stroke:#000000;stroke-width:1.0;"/><text fill="#000000" font-family="sans-serif" font-size="14" lengthAdjust="spacing" textLength="64" x="1585.5" y="888.2715">Username</text><line style="stroke:#181818;stroke-width:0.5;" x1="1566.5" x2="1671.5" y1="895.7852" y2="895.7852"/></g><!--class eCourseSystemUser--><g id="elem_eCourseSystemUser"><rect codeLine="29" fill="#F1F1F1" height="76.543" id="eCourseSystemUser" rx="2.5" ry="2.5" style="stroke:#181818;stroke-width:0.5;" width="161" x="1285.5" y="634"/><ellipse cx="1300.5" cy="664.2715" fill="#ADD1B2" rx="11" ry="11" style="stroke:#181818;stroke-width:1.0;"/><path d="M1303.2656,660.1465 Q1303.4219,659.9277 1303.6094,659.8184 Q1303.7969,659.709 1304.0156,659.709 Q1304.3906,659.709 1304.625,659.9746 Q1304.8594,660.2246 1304.8594,660.834 L1304.8594,662.2871 Q1304.8594,662.8965 1304.625,663.1621 Q1304.3906,663.4277 1304.0156,663.4277 Q1303.6719,663.4277 1303.4688,663.2246 Q1303.2656,663.0371 1303.1563,662.5215 Q1303.1094,662.1621 1302.9219,661.9746 Q1302.5938,661.5996 1301.9844,661.3809 Q1301.375,661.1621 1300.75,661.1621 Q1299.9844,661.1621 1299.3438,661.4902 Q1298.7188,661.8184 1298.2188,662.5684 Q1297.7344,663.3184 1297.7344,664.3496 L1297.7344,665.4434 Q1297.7344,666.6777 1298.625,667.5059 Q1299.5156,668.3184 1301.1094,668.3184 Q1302.0469,668.3184 1302.7031,668.0684 Q1303.0938,667.9121 1303.5156,667.4746 Q1303.7813,667.209 1303.9219,667.1309 Q1304.0781,667.0527 1304.2813,667.0527 Q1304.6094,667.0527 1304.8594,667.3184 Q1305.125,667.5684 1305.125,667.9121 Q1305.125,668.2559 1304.7813,668.6621 Q1304.2813,669.2402 1303.4844,669.5684 Q1302.4063,670.0215 1301.1094,670.0215 Q1299.5938,670.0215 1298.3906,669.3965 Q1297.4063,668.8965 1296.7188,667.834 Q1296.0313,666.7559 1296.0313,665.4746 L1296.0313,664.3184 Q1296.0313,662.9902 1296.6406,661.8496 Q1297.2656,660.6934 1298.3594,660.084 Q1299.4531,659.459 1300.6875,659.459 Q1301.4219,659.459 1302.0625,659.6309 Q1302.7188,659.7871 1303.2656,660.1465 Z " fill="#000000"/><text fill="#000000" font-family="sans-serif" font-size="12" font-style="italic" lengthAdjust="spacing" textLength="35" x="1361.5" y="651.9492">&#171;root&#187;</text><text fill="#000000" font-family="sans-serif" font-size="12" font-style="italic" lengthAdjust="spacing" textLength="44" x="1357" y="667.9102">&#171;Entity&#187;</text><text fill="#000000" font-family="sans-serif" font-size="14" lengthAdjust="spacing" textLength="129" x="1314.5" y="686.0293">eCourseSystemUser</text><line style="stroke:#181818;stroke-width:0.5;" x1="1286.5" x2="1445.5" y1="694.543" y2="694.543"/><line style="stroke:#181818;stroke-width:0.5;" x1="1286.5" x2="1445.5" y1="702.543" y2="702.543"/></g><!--class EmailAdderss--><g id="elem_EmailAdderss"><rect codeLine="33" fill="#F1F1F1" height="60.582" id="EmailAdderss" rx="2.5" ry="2.5" style="stroke:#181818;stroke-width:0.5;" width="118" x="1726" y="986.5"/><ellipse cx="1741" cy="1008.791" fill="#ADD1B2" rx="11" ry="11" style="stroke:#181818;stroke-width:1.0;"/><path d="M1743.7656,1004.666 Q1743.9219,1004.4473 1744.1094,1004.3379 Q1744.2969,1004.2285 1744.5156,1004.2285 Q1744.8906,1004.2285 1745.125,1004.4941 Q1745.3594,1004.7441 1745.3594,1005.3535 L1745.3594,1006.8066 Q1745.3594,1007.416 1745.125,1007.6816 Q1744.8906,1007.9473 1744.5156,1007.9473 Q1744.1719,1007.9473 1743.9688,1007.7441 Q1743.7656,1007.5566 1743.6563,1007.041 Q1743.6094,1006.6816 1743.4219,1006.4941 Q1743.0938,1006.1191 1742.4844,1005.9004 Q1741.875,1005.6816 1741.25,1005.6816 Q1740.4844,1005.6816 1739.8438,1006.0098 Q1739.2188,1006.3379 1738.7188,1007.0879 Q1738.2344,1007.8379 1738.2344,1008.8691 L1738.2344,1009.9629 Q1738.2344,1011.1973 1739.125,1012.0254 Q1740.0156,1012.8379 1741.6094,1012.8379 Q1742.5469,1012.8379 1743.2031,1012.5879 Q1743.5938,1012.4316 1744.0156,1011.9941 Q1744.2813,1011.7285 1744.4219,1011.6504 Q1744.5781,1011.5723 1744.7813,1011.5723 Q1745.1094,1011.5723 1745.3594,1011.8379 Q1745.625,1012.0879 1745.625,1012.4316 Q1745.625,1012.7754 1745.2813,1013.1816 Q1744.7813,1013.7598 1743.9844,1014.0879 Q1742.9063,1014.541 1741.6094,1014.541 Q1740.0938,1014.541 1738.8906,1013.916 Q1737.9063,1013.416 1737.2188,1012.3535 Q1736.5313,1011.2754 1736.5313,1009.9941 L1736.5313,1008.8379 Q1736.5313,1007.5098 1737.1406,1006.3691 Q1737.7656,1005.2129 1738.8594,1004.6035 Q1739.9531,1003.9785 1741.1875,1003.9785 Q1741.9219,1003.9785 1742.5625,1004.1504 Q1743.2188,1004.3066 1743.7656,1004.666 Z " fill="#000000"/><text fill="#000000" font-family="sans-serif" font-size="12" font-style="italic" lengthAdjust="spacing" textLength="83" x="1756.5" y="1004.4492">&#171;Value object&#187;</text><text fill="#000000" font-family="sans-serif" font-size="14" lengthAdjust="spacing" textLength="86" x="1755" y="1022.5684">EmailAdderss</text><line style="stroke:#181818;stroke-width:0.5;" x1="1727" x2="1843" y1="1031.082" y2="1031.082"/><line style="stroke:#181818;stroke-width:0.5;" x1="1727" x2="1843" y1="1039.082" y2="1039.082"/></g><!--class Role--><g id="elem_Role"><rect codeLine="35" fill="#F1F1F1" height="79.2031" id="Role" rx="2.5" ry="2.5" style="stroke:#181818;stroke-width:0.5;" width="102" x="1444" y="977.5"/><ellipse cx="1472.5" cy="999.791" fill="#ADD1B2" rx="11" ry="11" style="stroke:#181818;stroke-width:1.0;"/><path d="M1475.2656,995.666 Q1475.4219,995.4473 1475.6094,995.3379 Q1475.7969,995.2285 1476.0156,995.2285 Q1476.3906,995.2285 1476.625,995.4941 Q1476.8594,995.7441 1476.8594,996.3535 L1476.8594,997.8066 Q1476.8594,998.416 1476.625,998.6816 Q1476.3906,998.9473 1476.0156,998.9473 Q1475.6719,998.9473 1475.4688,998.7441 Q1475.2656,998.5566 1475.1563,998.041 Q1475.1094,997.6816 1474.9219,997.4941 Q1474.5938,997.1191 1473.9844,996.9004 Q1473.375,996.6816 1472.75,996.6816 Q1471.9844,996.6816 1471.3438,997.0098 Q1470.7188,997.3379 1470.2188,998.0879 Q1469.7344,998.8379 1469.7344,999.8691 L1469.7344,1000.9629 Q1469.7344,1002.1973 1470.625,1003.0254 Q1471.5156,1003.8379 1473.1094,1003.8379 Q1474.0469,1003.8379 1474.7031,1003.5879 Q1475.0938,1003.4316 1475.5156,1002.9941 Q1475.7813,1002.7285 1475.9219,1002.6504 Q1476.0781,1002.5723 1476.2813,1002.5723 Q1476.6094,1002.5723 1476.8594,1002.8379 Q1477.125,1003.0879 1477.125,1003.4316 Q1477.125,1003.7754 1476.7813,1004.1816 Q1476.2813,1004.7598 1475.4844,1005.0879 Q1474.4063,1005.541 1473.1094,1005.541 Q1471.5938,1005.541 1470.3906,1004.916 Q1469.4063,1004.416 1468.7188,1003.3535 Q1468.0313,1002.2754 1468.0313,1000.9941 L1468.0313,999.8379 Q1468.0313,998.5098 1468.6406,997.3691 Q1469.2656,996.2129 1470.3594,995.6035 Q1471.4531,994.9785 1472.6875,994.9785 Q1473.4219,994.9785 1474.0625,995.1504 Q1474.7188,995.3066 1475.2656,995.666 Z " fill="#000000"/><text fill="#000000" font-family="sans-serif" font-size="12" font-style="italic" lengthAdjust="spacing" textLength="44" x="1487.5" y="995.4492">&#171;Entity&#187;</text><text fill="#000000" font-family="sans-serif" font-size="14" lengthAdjust="spacing" textLength="29" x="1495" y="1013.5684">Role</text><line style="stroke:#181818;stroke-width:0.5;" x1="1445" x2="1545" y1="1022.082" y2="1022.082"/><ellipse cx="1455" cy="1036.8926" fill="#000000" rx="3" ry="3" style="stroke:#000000;stroke-width:1.0;"/><text fill="#000000" font-family="sans-serif" font-size="14" lengthAdjust="spacing" textLength="76" x="1464" y="1041.1895">String name</text><line style="stroke:#181818;stroke-width:0.5;" x1="1445" x2="1545" y1="1048.7031" y2="1048.7031"/></g><!--class UserStatus--><g id="elem_UserStatus"><rect codeLine="39" fill="#F1F1F1" height="97.8242" id="UserStatus" rx="2.5" ry="2.5" style="stroke:#181818;stroke-width:0.5;" width="101" x="704.5" y="798"/><ellipse cx="719.5" cy="820.291" fill="#ADD1B2" rx="11" ry="11" style="stroke:#181818;stroke-width:1.0;"/><path d="M722.2656,816.166 Q722.4219,815.9473 722.6094,815.8379 Q722.7969,815.7285 723.0156,815.7285 Q723.3906,815.7285 723.625,815.9941 Q723.8594,816.2441 723.8594,816.8535 L723.8594,818.3066 Q723.8594,818.916 723.625,819.1816 Q723.3906,819.4473 723.0156,819.4473 Q722.6719,819.4473 722.4688,819.2441 Q722.2656,819.0566 722.1563,818.541 Q722.1094,818.1816 721.9219,817.9941 Q721.5938,817.6191 720.9844,817.4004 Q720.375,817.1816 719.75,817.1816 Q718.9844,817.1816 718.3438,817.5098 Q717.7188,817.8379 717.2188,818.5879 Q716.7344,819.3379 716.7344,820.3691 L716.7344,821.4629 Q716.7344,822.6973 717.625,823.5254 Q718.5156,824.3379 720.1094,824.3379 Q721.0469,824.3379 721.7031,824.0879 Q722.0938,823.9316 722.5156,823.4941 Q722.7813,823.2285 722.9219,823.1504 Q723.0781,823.0723 723.2813,823.0723 Q723.6094,823.0723 723.8594,823.3379 Q724.125,823.5879 724.125,823.9316 Q724.125,824.2754 723.7813,824.6816 Q723.2813,825.2598 722.4844,825.5879 Q721.4063,826.041 720.1094,826.041 Q718.5938,826.041 717.3906,825.416 Q716.4063,824.916 715.7188,823.8535 Q715.0313,822.7754 715.0313,821.4941 L715.0313,820.3379 Q715.0313,819.0098 715.6406,817.8691 Q716.2656,816.7129 717.3594,816.1035 Q718.4531,815.4785 719.6875,815.4785 Q720.4219,815.4785 721.0625,815.6504 Q721.7188,815.8066 722.2656,816.166 Z " fill="#000000"/><text fill="#000000" font-family="sans-serif" font-size="12" font-style="italic" lengthAdjust="spacing" textLength="46" x="745" y="815.9492">&#171;enum&#187;</text><text fill="#000000" font-family="sans-serif" font-size="14" lengthAdjust="spacing" textLength="69" x="733.5" y="834.0684">UserStatus</text><line style="stroke:#181818;stroke-width:0.5;" x1="705.5" x2="804.5" y1="842.582" y2="842.582"/><ellipse cx="715.5" cy="857.3926" fill="none" rx="3" ry="3" style="stroke:#038048;stroke-width:1.0;"/><text fill="#000000" font-family="sans-serif" font-size="14" lengthAdjust="spacing" textLength="53" x="724.5" y="861.6895">ENABLE</text><ellipse cx="715.5" cy="876.0137" fill="none" rx="3" ry="3" style="stroke:#038048;stroke-width:1.0;"/><text fill="#000000" font-family="sans-serif" font-size="14" lengthAdjust="spacing" textLength="57" x="724.5" y="880.3105">DISABLE</text><line style="stroke:#181818;stroke-width:0.5;" x1="705.5" x2="804.5" y1="887.8242" y2="887.8242"/></g><!--class Password--><g id="elem_Password"><rect codeLine="44" fill="#F1F1F1" height="60.582" id="Password" rx="2.5" ry="2.5" style="stroke:#181818;stroke-width:0.5;" width="109" x="1581.5" y="986.5"/><ellipse cx="1596.5" cy="1008.791" fill="#ADD1B2" rx="11" ry="11" style="stroke:#181818;stroke-width:1.0;"/><path d="M1599.2656,1004.666 Q1599.4219,1004.4473 1599.6094,1004.3379 Q1599.7969,1004.2285 1600.0156,1004.2285 Q1600.3906,1004.2285 1600.625,1004.4941 Q1600.8594,1004.7441 1600.8594,1005.3535 L1600.8594,1006.8066 Q1600.8594,1007.416 1600.625,1007.6816 Q1600.3906,1007.9473 1600.0156,1007.9473 Q1599.6719,1007.9473 1599.4688,1007.7441 Q1599.2656,1007.5566 1599.1563,1007.041 Q1599.1094,1006.6816 1598.9219,1006.4941 Q1598.5938,1006.1191 1597.9844,1005.9004 Q1597.375,1005.6816 1596.75,1005.6816 Q1595.9844,1005.6816 1595.3438,1006.0098 Q1594.7188,1006.3379 1594.2188,1007.0879 Q1593.7344,1007.8379 1593.7344,1008.8691 L1593.7344,1009.9629 Q1593.7344,1011.1973 1594.625,1012.0254 Q1595.5156,1012.8379 1597.1094,1012.8379 Q1598.0469,1012.8379 1598.7031,1012.5879 Q1599.0938,1012.4316 1599.5156,1011.9941 Q1599.7813,1011.7285 1599.9219,1011.6504 Q1600.0781,1011.5723 1600.2813,1011.5723 Q1600.6094,1011.5723 1600.8594,1011.8379 Q1601.125,1012.0879 1601.125,1012.4316 Q1601.125,1012.7754 1600.7813,1013.1816 Q1600.2813,1013.7598 1599.4844,1014.0879 Q1598.4063,1014.541 1597.1094,1014.541 Q1595.5938,1014.541 1594.3906,1013.916 Q1593.4063,1013.416 1592.7188,1012.3535 Q1592.0313,1011.2754 1592.0313,1009.9941 L1592.0313,1008.8379 Q1592.0313,1007.5098 1592.6406,1006.3691 Q1593.2656,1005.2129 1594.3594,1004.6035 Q1595.4531,1003.9785 1596.6875,1003.9785 Q1597.4219,1003.9785 1598.0625,1004.1504 Q1598.7188,1004.3066 1599.2656,1004.666 Z " fill="#000000"/><text fill="#000000" font-family="sans-serif" font-size="12" font-style="italic" lengthAdjust="spacing" textLength="81" x="1608.5" y="1004.4492">&#171;value object&#187;</text><text fill="#000000" font-family="sans-serif" font-size="14" lengthAdjust="spacing" textLength="61" x="1618.5" y="1022.5684">Password</text><line style="stroke:#181818;stroke-width:0.5;" x1="1582.5" x2="1689.5" y1="1031.082" y2="1031.082"/><line style="stroke:#181818;stroke-width:0.5;" x1="1582.5" x2="1689.5" y1="1039.082" y2="1039.082"/></g><!--class Acronym--><g id="elem_Acronym"><rect codeLine="46" fill="#F1F1F1" height="60.582" id="Acronym" rx="2.5" ry="2.5" style="stroke:#181818;stroke-width:0.5;" width="109" x="840.5" y="816.5"/><ellipse cx="855.5" cy="838.791" fill="#ADD1B2" rx="11" ry="11" style="stroke:#181818;stroke-width:1.0;"/><path d="M858.2656,834.666 Q858.4219,834.4473 858.6094,834.3379 Q858.7969,834.2285 859.0156,834.2285 Q859.3906,834.2285 859.625,834.4941 Q859.8594,834.7441 859.8594,835.3535 L859.8594,836.8066 Q859.8594,837.416 859.625,837.6816 Q859.3906,837.9473 859.0156,837.9473 Q858.6719,837.9473 858.4688,837.7441 Q858.2656,837.5566 858.1563,837.041 Q858.1094,836.6816 857.9219,836.4941 Q857.5938,836.1191 856.9844,835.9004 Q856.375,835.6816 855.75,835.6816 Q854.9844,835.6816 854.3438,836.0098 Q853.7188,836.3379 853.2188,837.0879 Q852.7344,837.8379 852.7344,838.8691 L852.7344,839.9629 Q852.7344,841.1973 853.625,842.0254 Q854.5156,842.8379 856.1094,842.8379 Q857.0469,842.8379 857.7031,842.5879 Q858.0938,842.4316 858.5156,841.9941 Q858.7813,841.7285 858.9219,841.6504 Q859.0781,841.5723 859.2813,841.5723 Q859.6094,841.5723 859.8594,841.8379 Q860.125,842.0879 860.125,842.4316 Q860.125,842.7754 859.7813,843.1816 Q859.2813,843.7598 858.4844,844.0879 Q857.4063,844.541 856.1094,844.541 Q854.5938,844.541 853.3906,843.916 Q852.4063,843.416 851.7188,842.3535 Q851.0313,841.2754 851.0313,839.9941 L851.0313,838.8379 Q851.0313,837.5098 851.6406,836.3691 Q852.2656,835.2129 853.3594,834.6035 Q854.4531,833.9785 855.6875,833.9785 Q856.4219,833.9785 857.0625,834.1504 Q857.7188,834.3066 858.2656,834.666 Z " fill="#000000"/><text fill="#000000" font-family="sans-serif" font-size="12" font-style="italic" lengthAdjust="spacing" textLength="81" x="867.5" y="834.4492">&#171;value object&#187;</text><text fill="#000000" font-family="sans-serif" font-size="14" lengthAdjust="spacing" textLength="55" x="880.5" y="852.5684">Acronym</text><line style="stroke:#181818;stroke-width:0.5;" x1="841.5" x2="948.5" y1="861.082" y2="861.082"/><line style="stroke:#181818;stroke-width:0.5;" x1="841.5" x2="948.5" y1="869.082" y2="869.082"/></g><!--class NIF--><g id="elem_NIF"><rect codeLine="48" fill="#F1F1F1" height="60.582" id="NIF" rx="2.5" ry="2.5" style="stroke:#181818;stroke-width:0.5;" width="109" x="984.5" y="816.5"/><ellipse cx="999.5" cy="838.791" fill="#ADD1B2" rx="11" ry="11" style="stroke:#181818;stroke-width:1.0;"/><path d="M1002.2656,834.666 Q1002.4219,834.4473 1002.6094,834.3379 Q1002.7969,834.2285 1003.0156,834.2285 Q1003.3906,834.2285 1003.625,834.4941 Q1003.8594,834.7441 1003.8594,835.3535 L1003.8594,836.8066 Q1003.8594,837.416 1003.625,837.6816 Q1003.3906,837.9473 1003.0156,837.9473 Q1002.6719,837.9473 1002.4688,837.7441 Q1002.2656,837.5566 1002.1563,837.041 Q1002.1094,836.6816 1001.9219,836.4941 Q1001.5938,836.1191 1000.9844,835.9004 Q1000.375,835.6816 999.75,835.6816 Q998.9844,835.6816 998.3438,836.0098 Q997.7188,836.3379 997.2188,837.0879 Q996.7344,837.8379 996.7344,838.8691 L996.7344,839.9629 Q996.7344,841.1973 997.625,842.0254 Q998.5156,842.8379 1000.1094,842.8379 Q1001.0469,842.8379 1001.7031,842.5879 Q1002.0938,842.4316 1002.5156,841.9941 Q1002.7813,841.7285 1002.9219,841.6504 Q1003.0781,841.5723 1003.2813,841.5723 Q1003.6094,841.5723 1003.8594,841.8379 Q1004.125,842.0879 1004.125,842.4316 Q1004.125,842.7754 1003.7813,843.1816 Q1003.2813,843.7598 1002.4844,844.0879 Q1001.4063,844.541 1000.1094,844.541 Q998.5938,844.541 997.3906,843.916 Q996.4063,843.416 995.7188,842.3535 Q995.0313,841.2754 995.0313,839.9941 L995.0313,838.8379 Q995.0313,837.5098 995.6406,836.3691 Q996.2656,835.2129 997.3594,834.6035 Q998.4531,833.9785 999.6875,833.9785 Q1000.4219,833.9785 1001.0625,834.1504 Q1001.7188,834.3066 1002.2656,834.666 Z " fill="#000000"/><text fill="#000000" font-family="sans-serif" font-size="12" font-style="italic" lengthAdjust="spacing" textLength="81" x="1011.5" y="834.4492">&#171;value object&#187;</text><text fill="#000000" font-family="sans-serif" font-size="14" lengthAdjust="spacing" textLength="21" x="1041.5" y="852.5684">NIF</text><line style="stroke:#181818;stroke-width:0.5;" x1="985.5" x2="1092.5" y1="861.082" y2="861.082"/><line style="stroke:#181818;stroke-width:0.5;" x1="985.5" x2="1092.5" y1="869.082" y2="869.082"/></g><!--class BirthDate--><g id="elem_BirthDate"><rect codeLine="50" fill="#F1F1F1" height="60.582" id="BirthDate" rx="2.5" ry="2.5" style="stroke:#181818;stroke-width:0.5;" width="109" x="1128.5" y="816.5"/><ellipse cx="1143.5" cy="838.791" fill="#ADD1B2" rx="11" ry="11" style="stroke:#181818;stroke-width:1.0;"/><path d="M1146.2656,834.666 Q1146.4219,834.4473 1146.6094,834.3379 Q1146.7969,834.2285 1147.0156,834.2285 Q1147.3906,834.2285 1147.625,834.4941 Q1147.8594,834.7441 1147.8594,835.3535 L1147.8594,836.8066 Q1147.8594,837.416 1147.625,837.6816 Q1147.3906,837.9473 1147.0156,837.9473 Q1146.6719,837.9473 1146.4688,837.7441 Q1146.2656,837.5566 1146.1563,837.041 Q1146.1094,836.6816 1145.9219,836.4941 Q1145.5938,836.1191 1144.9844,835.9004 Q1144.375,835.6816 1143.75,835.6816 Q1142.9844,835.6816 1142.3438,836.0098 Q1141.7188,836.3379 1141.2188,837.0879 Q1140.7344,837.8379 1140.7344,838.8691 L1140.7344,839.9629 Q1140.7344,841.1973 1141.625,842.0254 Q1142.5156,842.8379 1144.1094,842.8379 Q1145.0469,842.8379 1145.7031,842.5879 Q1146.0938,842.4316 1146.5156,841.9941 Q1146.7813,841.7285 1146.9219,841.6504 Q1147.0781,841.5723 1147.2813,841.5723 Q1147.6094,841.5723 1147.8594,841.8379 Q1148.125,842.0879 1148.125,842.4316 Q1148.125,842.7754 1147.7813,843.1816 Q1147.2813,843.7598 1146.4844,844.0879 Q1145.4063,844.541 1144.1094,844.541 Q1142.5938,844.541 1141.3906,843.916 Q1140.4063,843.416 1139.7188,842.3535 Q1139.0313,841.2754 1139.0313,839.9941 L1139.0313,838.8379 Q1139.0313,837.5098 1139.6406,836.3691 Q1140.2656,835.2129 1141.3594,834.6035 Q1142.4531,833.9785 1143.6875,833.9785 Q1144.4219,833.9785 1145.0625,834.1504 Q1145.7188,834.3066 1146.2656,834.666 Z " fill="#000000"/><text fill="#000000" font-family="sans-serif" font-size="12" font-style="italic" lengthAdjust="spacing" textLength="81" x="1155.5" y="834.4492">&#171;value object&#187;</text><text fill="#000000" font-family="sans-serif" font-size="14" lengthAdjust="spacing" textLength="59" x="1166.5" y="852.5684">BirthDate</text><line style="stroke:#181818;stroke-width:0.5;" x1="1129.5" x2="1236.5" y1="861.082" y2="861.082"/><line style="stroke:#181818;stroke-width:0.5;" x1="1129.5" x2="1236.5" y1="869.082" y2="869.082"/></g><!--class MechanographicNumber--><g id="elem_MechanographicNumber"><rect codeLine="52" fill="#F1F1F1" height="76.543" id="MechanographicNumber" rx="2.5" ry="2.5" style="stroke:#181818;stroke-width:0.5;" width="186" x="1273" y="808.5"/><ellipse cx="1288" cy="838.7715" fill="#ADD1B2" rx="11" ry="11" style="stroke:#181818;stroke-width:1.0;"/><path d="M1290.7656,834.6465 Q1290.9219,834.4277 1291.1094,834.3184 Q1291.2969,834.209 1291.5156,834.209 Q1291.8906,834.209 1292.125,834.4746 Q1292.3594,834.7246 1292.3594,835.334 L1292.3594,836.7871 Q1292.3594,837.3965 1292.125,837.6621 Q1291.8906,837.9277 1291.5156,837.9277 Q1291.1719,837.9277 1290.9688,837.7246 Q1290.7656,837.5371 1290.6563,837.0215 Q1290.6094,836.6621 1290.4219,836.4746 Q1290.0938,836.0996 1289.4844,835.8809 Q1288.875,835.6621 1288.25,835.6621 Q1287.4844,835.6621 1286.8438,835.9902 Q1286.2188,836.3184 1285.7188,837.0684 Q1285.2344,837.8184 1285.2344,838.8496 L1285.2344,839.9434 Q1285.2344,841.1777 1286.125,842.0059 Q1287.0156,842.8184 1288.6094,842.8184 Q1289.5469,842.8184 1290.2031,842.5684 Q1290.5938,842.4121 1291.0156,841.9746 Q1291.2813,841.709 1291.4219,841.6309 Q1291.5781,841.5527 1291.7813,841.5527 Q1292.1094,841.5527 1292.3594,841.8184 Q1292.625,842.0684 1292.625,842.4121 Q1292.625,842.7559 1292.2813,843.1621 Q1291.7813,843.7402 1290.9844,844.0684 Q1289.9063,844.5215 1288.6094,844.5215 Q1287.0938,844.5215 1285.8906,843.8965 Q1284.9063,843.3965 1284.2188,842.334 Q1283.5313,841.2559 1283.5313,839.9746 L1283.5313,838.8184 Q1283.5313,837.4902 1284.1406,836.3496 Q1284.7656,835.1934 1285.8594,834.584 Q1286.9531,833.959 1288.1875,833.959 Q1288.9219,833.959 1289.5625,834.1309 Q1290.2188,834.2871 1290.7656,834.6465 Z " fill="#000000"/><text fill="#000000" font-family="sans-serif" font-size="12" font-style="italic" lengthAdjust="spacing" textLength="81" x="1338.5" y="826.4492">&#171;value object&#187;</text><text fill="#000000" font-family="sans-serif" font-size="12" font-style="italic" lengthAdjust="spacing" textLength="146" x="1306" y="842.4102">&#171;automatically generated&#187;</text><text fill="#000000" font-family="sans-serif" font-size="14" lengthAdjust="spacing" textLength="154" x="1302" y="860.5293">MechanographicNumber</text><line style="stroke:#181818;stroke-width:0.5;" x1="1274" x2="1458" y1="869.043" y2="869.043"/><line style="stroke:#181818;stroke-width:0.5;" x1="1274" x2="1458" y1="877.043" y2="877.043"/></g><!--class Grade--><g id="elem_Grade"><rect codeLine="54" fill="#F1F1F1" height="60.582" id="Grade" rx="2.5" ry="2.5" style="stroke:#181818;stroke-width:0.5;" width="109" x="1707.5" y="816.5"/><ellipse cx="1722.5" cy="838.791" fill="#ADD1B2" rx="11" ry="11" style="stroke:#181818;stroke-width:1.0;"/><path d="M1725.2656,834.666 Q1725.4219,834.4473 1725.6094,834.3379 Q1725.7969,834.2285 1726.0156,834.2285 Q1726.3906,834.2285 1726.625,834.4941 Q1726.8594,834.7441 1726.8594,835.3535 L1726.8594,836.8066 Q1726.8594,837.416 1726.625,837.6816 Q1726.3906,837.9473 1726.0156,837.9473 Q1725.6719,837.9473 1725.4688,837.7441 Q1725.2656,837.5566 1725.1563,837.041 Q1725.1094,836.6816 1724.9219,836.4941 Q1724.5938,836.1191 1723.9844,835.9004 Q1723.375,835.6816 1722.75,835.6816 Q1721.9844,835.6816 1721.3438,836.0098 Q1720.7188,836.3379 1720.2188,837.0879 Q1719.7344,837.8379 1719.7344,838.8691 L1719.7344,839.9629 Q1719.7344,841.1973 1720.625,842.0254 Q1721.5156,842.8379 1723.1094,842.8379 Q1724.0469,842.8379 1724.7031,842.5879 Q1725.0938,842.4316 1725.5156,841.9941 Q1725.7813,841.7285 1725.9219,841.6504 Q1726.0781,841.5723 1726.2813,841.5723 Q1726.6094,841.5723 1726.8594,841.8379 Q1727.125,842.0879 1727.125,842.4316 Q1727.125,842.7754 1726.7813,843.1816 Q1726.2813,843.7598 1725.4844,844.0879 Q1724.4063,844.541 1723.1094,844.541 Q1721.5938,844.541 1720.3906,843.916 Q1719.4063,843.416 1718.7188,842.3535 Q1718.0313,841.2754 1718.0313,839.9941 L1718.0313,838.8379 Q1718.0313,837.5098 1718.6406,836.3691 Q1719.2656,835.2129 1720.3594,834.6035 Q1721.4531,833.9785 1722.6875,833.9785 Q1723.4219,833.9785 1724.0625,834.1504 Q1724.7188,834.3066 1725.2656,834.666 Z " fill="#000000"/><text fill="#000000" font-family="sans-serif" font-size="12" font-style="italic" lengthAdjust="spacing" textLength="81" x="1734.5" y="834.4492">&#171;value object&#187;</text><text fill="#000000" font-family="sans-serif" font-size="14" lengthAdjust="spacing" textLength="40" x="1755" y="852.5684">Grade</text><line style="stroke:#181818;stroke-width:0.5;" x1="1708.5" x2="1815.5" y1="861.082" y2="861.082"/><line style="stroke:#181818;stroke-width:0.5;" x1="1708.5" x2="1815.5" y1="869.082" y2="869.082"/></g><!--class Course--><g id="elem_Course"><rect codeLine="56" fill="#F1F1F1" height="159.7266" id="Course" rx="2.5" ry="2.5" style="stroke:#181818;stroke-width:0.5;" width="515" x="1470.5" y="7"/><ellipse cx="1700.75" cy="23" fill="#ADD1B2" rx="11" ry="11" style="stroke:#181818;stroke-width:1.0;"/><path d="M1703.5156,18.875 Q1703.6719,18.6563 1703.8594,18.5469 Q1704.0469,18.4375 1704.2656,18.4375 Q1704.6406,18.4375 1704.875,18.7031 Q1705.1094,18.9531 1705.1094,19.5625 L1705.1094,21.0156 Q1705.1094,21.625 1704.875,21.8906 Q1704.6406,22.1563 1704.2656,22.1563 Q1703.9219,22.1563 1703.7188,21.9531 Q1703.5156,21.7656 1703.4063,21.25 Q1703.3594,20.8906 1703.1719,20.7031 Q1702.8438,20.3281 1702.2344,20.1094 Q1701.625,19.8906 1701,19.8906 Q1700.2344,19.8906 1699.5938,20.2188 Q1698.9688,20.5469 1698.4688,21.2969 Q1697.9844,22.0469 1697.9844,23.0781 L1697.9844,24.1719 Q1697.9844,25.4063 1698.875,26.2344 Q1699.7656,27.0469 1701.3594,27.0469 Q1702.2969,27.0469 1702.9531,26.7969 Q1703.3438,26.6406 1703.7656,26.2031 Q1704.0313,25.9375 1704.1719,25.8594 Q1704.3281,25.7813 1704.5313,25.7813 Q1704.8594,25.7813 1705.1094,26.0469 Q1705.375,26.2969 1705.375,26.6406 Q1705.375,26.9844 1705.0313,27.3906 Q1704.5313,27.9688 1703.7344,28.2969 Q1702.6563,28.75 1701.3594,28.75 Q1699.8438,28.75 1698.6406,28.125 Q1697.6563,27.625 1696.9688,26.5625 Q1696.2813,25.4844 1696.2813,24.2031 L1696.2813,23.0469 Q1696.2813,21.7188 1696.8906,20.5781 Q1697.5156,19.4219 1698.6094,18.8125 Q1699.7031,18.1875 1700.9375,18.1875 Q1701.6719,18.1875 1702.3125,18.3594 Q1702.9688,18.5156 1703.5156,18.875 Z " fill="#000000"/><text fill="#000000" font-family="sans-serif" font-size="14" lengthAdjust="spacing" textLength="46" x="1721.25" y="28.7969">Course</text><line style="stroke:#181818;stroke-width:0.5;" x1="1471.5" x2="1984.5" y1="39" y2="39"/><ellipse cx="1481.5" cy="53.8105" fill="#000000" rx="3" ry="3" style="stroke:#000000;stroke-width:1.0;"/><text fill="#000000" font-family="sans-serif" font-size="14" lengthAdjust="spacing" textLength="30" x="1490.5" y="58.1074">int id</text><ellipse cx="1481.5" cy="72.4316" fill="#000000" rx="3" ry="3" style="stroke:#000000;stroke-width:1.0;"/><text fill="#000000" font-family="sans-serif" font-size="14" lengthAdjust="spacing" textLength="35" x="1490.5" y="76.7285">name</text><ellipse cx="1481.5" cy="91.0527" fill="#000000" rx="3" ry="3" style="stroke:#000000;stroke-width:1.0;"/><text fill="#000000" font-family="sans-serif" font-size="14" lengthAdjust="spacing" textLength="128" x="1490.5" y="95.3496">CourseStatus status</text><ellipse cx="1481.5" cy="109.6738" fill="#000000" rx="3" ry="3" style="stroke:#000000;stroke-width:1.0;"/><text fill="#000000" font-family="sans-serif" font-size="14" lengthAdjust="spacing" textLength="69" x="1490.5" y="113.9707">Code code</text><ellipse cx="1481.5" cy="128.2949" fill="#000000" rx="3" ry="3" style="stroke:#000000;stroke-width:1.0;"/><text fill="#000000" font-family="sans-serif" font-size="14" lengthAdjust="spacing" textLength="98" x="1490.5" y="132.5918">Teacher regent</text><line style="stroke:#181818;stroke-width:0.5;" x1="1471.5" x2="1984.5" y1="140.1055" y2="140.1055"/><ellipse cx="1481.5" cy="154.916" fill="#84BE84" rx="3" ry="3" style="stroke:#038048;stroke-width:1.0;"/><text fill="#000000" font-family="sans-serif" font-size="14" lengthAdjust="spacing" textLength="489" x="1490.5" y="159.2129">Course(int id, String name, CourseStatus status, Code code, Teacher regent)</text></g><!--class Exam--><g id="elem_Exam"><rect codeLine="65" fill="#F1F1F1" height="132.4063" id="Exam" rx="2.5" ry="2.5" style="stroke:#181818;stroke-width:0.5;" width="111" x="1531.5" y="246"/><ellipse cx="1564.05" cy="276.2715" fill="#ADD1B2" rx="11" ry="11" style="stroke:#181818;stroke-width:1.0;"/><path d="M1566.8156,272.1465 Q1566.9719,271.9277 1567.1594,271.8184 Q1567.3469,271.709 1567.5656,271.709 Q1567.9406,271.709 1568.175,271.9746 Q1568.4094,272.2246 1568.4094,272.834 L1568.4094,274.2871 Q1568.4094,274.8965 1568.175,275.1621 Q1567.9406,275.4277 1567.5656,275.4277 Q1567.2219,275.4277 1567.0188,275.2246 Q1566.8156,275.0371 1566.7063,274.5215 Q1566.6594,274.1621 1566.4719,273.9746 Q1566.1438,273.5996 1565.5344,273.3809 Q1564.925,273.1621 1564.3,273.1621 Q1563.5344,273.1621 1562.8938,273.4902 Q1562.2688,273.8184 1561.7688,274.5684 Q1561.2844,275.3184 1561.2844,276.3496 L1561.2844,277.4434 Q1561.2844,278.6777 1562.175,279.5059 Q1563.0656,280.3184 1564.6594,280.3184 Q1565.5969,280.3184 1566.2531,280.0684 Q1566.6438,279.9121 1567.0656,279.4746 Q1567.3313,279.209 1567.4719,279.1309 Q1567.6281,279.0527 1567.8313,279.0527 Q1568.1594,279.0527 1568.4094,279.3184 Q1568.675,279.5684 1568.675,279.9121 Q1568.675,280.2559 1568.3313,280.6621 Q1567.8313,281.2402 1567.0344,281.5684 Q1565.9563,282.0215 1564.6594,282.0215 Q1563.1438,282.0215 1561.9406,281.3965 Q1560.9563,280.8965 1560.2688,279.834 Q1559.5813,278.7559 1559.5813,277.4746 L1559.5813,276.3184 Q1559.5813,274.9902 1560.1906,273.8496 Q1560.8156,272.6934 1561.9094,272.084 Q1563.0031,271.459 1564.2375,271.459 Q1564.9719,271.459 1565.6125,271.6309 Q1566.2688,271.7871 1566.8156,272.1465 Z " fill="#000000"/><text fill="#000000" font-family="sans-serif" font-size="12" font-style="italic" lengthAdjust="spacing" textLength="35" x="1584.45" y="263.9492">&#171;root&#187;</text><text fill="#000000" font-family="sans-serif" font-size="12" font-style="italic" lengthAdjust="spacing" textLength="44" x="1579.95" y="279.9102">&#171;event&#187;</text><text fill="#000000" font-family="sans-serif" font-size="14" lengthAdjust="spacing" textLength="34" x="1584.95" y="298.0293">Exam</text><line style="stroke:#181818;stroke-width:0.5;" x1="1532.5" x2="1641.5" y1="306.543" y2="306.543"/><ellipse cx="1542.5" cy="321.3535" fill="#000000" rx="3" ry="3" style="stroke:#000000;stroke-width:1.0;"/><text fill="#000000" font-family="sans-serif" font-size="14" lengthAdjust="spacing" textLength="85" x="1551.5" y="325.6504">title &#171;unique&#187;</text><ellipse cx="1542.5" cy="339.9746" fill="#000000" rx="3" ry="3" style="stroke:#000000;stroke-width:1.0;"/><text fill="#000000" font-family="sans-serif" font-size="14" lengthAdjust="spacing" textLength="62" x="1551.5" y="344.2715">openDate</text><ellipse cx="1542.5" cy="358.5957" fill="#000000" rx="3" ry="3" style="stroke:#000000;stroke-width:1.0;"/><text fill="#000000" font-family="sans-serif" font-size="14" lengthAdjust="spacing" textLength="63" x="1551.5" y="362.8926">closeDate</text><line style="stroke:#181818;stroke-width:0.5;" x1="1532.5" x2="1641.5" y1="370.4063" y2="370.4063"/></g><!--class ExamGrade--><g id="elem_ExamGrade"><rect codeLine="71" fill="#F1F1F1" height="97.8242" id="ExamGrade" rx="2.5" ry="2.5" style="stroke:#181818;stroke-width:0.5;" width="206" x="1444" y="457"/><ellipse cx="1504.25" cy="479.291" fill="#ADD1B2" rx="11" ry="11" style="stroke:#181818;stroke-width:1.0;"/><path d="M1507.0156,475.166 Q1507.1719,474.9473 1507.3594,474.8379 Q1507.5469,474.7285 1507.7656,474.7285 Q1508.1406,474.7285 1508.375,474.9941 Q1508.6094,475.2441 1508.6094,475.8535 L1508.6094,477.3066 Q1508.6094,477.916 1508.375,478.1816 Q1508.1406,478.4473 1507.7656,478.4473 Q1507.4219,478.4473 1507.2188,478.2441 Q1507.0156,478.0566 1506.9063,477.541 Q1506.8594,477.1816 1506.6719,476.9941 Q1506.3438,476.6191 1505.7344,476.4004 Q1505.125,476.1816 1504.5,476.1816 Q1503.7344,476.1816 1503.0938,476.5098 Q1502.4688,476.8379 1501.9688,477.5879 Q1501.4844,478.3379 1501.4844,479.3691 L1501.4844,480.4629 Q1501.4844,481.6973 1502.375,482.5254 Q1503.2656,483.3379 1504.8594,483.3379 Q1505.7969,483.3379 1506.4531,483.0879 Q1506.8438,482.9316 1507.2656,482.4941 Q1507.5313,482.2285 1507.6719,482.1504 Q1507.8281,482.0723 1508.0313,482.0723 Q1508.3594,482.0723 1508.6094,482.3379 Q1508.875,482.5879 1508.875,482.9316 Q1508.875,483.2754 1508.5313,483.6816 Q1508.0313,484.2598 1507.2344,484.5879 Q1506.1563,485.041 1504.8594,485.041 Q1503.3438,485.041 1502.1406,484.416 Q1501.1563,483.916 1500.4688,482.8535 Q1499.7813,481.7754 1499.7813,480.4941 L1499.7813,479.3379 Q1499.7813,478.0098 1500.3906,476.8691 Q1501.0156,475.7129 1502.1094,475.1035 Q1503.2031,474.4785 1504.4375,474.4785 Q1505.1719,474.4785 1505.8125,474.6504 Q1506.4688,474.8066 1507.0156,475.166 Z " fill="#000000"/><text fill="#000000" font-family="sans-serif" font-size="12" font-style="italic" lengthAdjust="spacing" textLength="81" x="1522.75" y="474.9492">&#171;value object&#187;</text><text fill="#000000" font-family="sans-serif" font-size="14" lengthAdjust="spacing" textLength="74" x="1526.25" y="493.0684">ExamGrade</text><line style="stroke:#181818;stroke-width:0.5;" x1="1445" x2="1649" y1="501.582" y2="501.582"/><ellipse cx="1455" cy="516.3926" fill="#000000" rx="3" ry="3" style="stroke:#000000;stroke-width:1.0;"/><text fill="#000000" font-family="sans-serif" font-size="14" lengthAdjust="spacing" textLength="56" x="1464" y="520.6895">int grade</text><ellipse cx="1455" cy="535.0137" fill="#000000" rx="3" ry="3" style="stroke:#000000;stroke-width:1.0;"/><text fill="#000000" font-family="sans-serif" font-size="14" lengthAdjust="spacing" textLength="180" x="1464" y="539.3105">eCourseSystemUser student</text><line style="stroke:#181818;stroke-width:0.5;" x1="1445" x2="1649" y1="546.8242" y2="546.8242"/></g><!--class RepositoryFactory--><g id="elem_RepositoryFactory"><rect codeLine="76" fill="#F1F1F1" height="48" id="RepositoryFactory" rx="2.5" ry="2.5" style="stroke:#181818;stroke-width:0.5;" width="148" x="573" y="1158"/><ellipse cx="588" cy="1174" fill="#ADD1B2" rx="11" ry="11" style="stroke:#181818;stroke-width:1.0;"/><path d="M590.7656,1169.875 Q590.9219,1169.6563 591.1094,1169.5469 Q591.2969,1169.4375 591.5156,1169.4375 Q591.8906,1169.4375 592.125,1169.7031 Q592.3594,1169.9531 592.3594,1170.5625 L592.3594,1172.0156 Q592.3594,1172.625 592.125,1172.8906 Q591.8906,1173.1563 591.5156,1173.1563 Q591.1719,1173.1563 590.9688,1172.9531 Q590.7656,1172.7656 590.6563,1172.25 Q590.6094,1171.8906 590.4219,1171.7031 Q590.0938,1171.3281 589.4844,1171.1094 Q588.875,1170.8906 588.25,1170.8906 Q587.4844,1170.8906 586.8438,1171.2188 Q586.2188,1171.5469 585.7188,1172.2969 Q585.2344,1173.0469 585.2344,1174.0781 L585.2344,1175.1719 Q585.2344,1176.4063 586.125,1177.2344 Q587.0156,1178.0469 588.6094,1178.0469 Q589.5469,1178.0469 590.2031,1177.7969 Q590.5938,1177.6406 591.0156,1177.2031 Q591.2813,1176.9375 591.4219,1176.8594 Q591.5781,1176.7813 591.7813,1176.7813 Q592.1094,1176.7813 592.3594,1177.0469 Q592.625,1177.2969 592.625,1177.6406 Q592.625,1177.9844 592.2813,1178.3906 Q591.7813,1178.9688 590.9844,1179.2969 Q589.9063,1179.75 588.6094,1179.75 Q587.0938,1179.75 585.8906,1179.125 Q584.9063,1178.625 584.2188,1177.5625 Q583.5313,1176.4844 583.5313,1175.2031 L583.5313,1174.0469 Q583.5313,1172.7188 584.1406,1171.5781 Q584.7656,1170.4219 585.8594,1169.8125 Q586.9531,1169.1875 588.1875,1169.1875 Q588.9219,1169.1875 589.5625,1169.3594 Q590.2188,1169.5156 590.7656,1169.875 Z " fill="#000000"/><text fill="#000000" font-family="sans-serif" font-size="14" lengthAdjust="spacing" textLength="116" x="602" y="1179.7969">RepositoryFactory</text><line style="stroke:#181818;stroke-width:0.5;" x1="574" x2="720" y1="1190" y2="1190"/><line style="stroke:#181818;stroke-width:0.5;" x1="574" x2="720" y1="1198" y2="1198"/></g><!--class UserRepository--><g id="elem_UserRepository"><rect codeLine="80" fill="#F1F1F1" height="196.9688" id="UserRepository" rx="2.5" ry="2.5" style="stroke:#181818;stroke-width:0.5;" width="328" x="356" y="1295"/><ellipse cx="467.25" cy="1311" fill="#ADD1B2" rx="11" ry="11" style="stroke:#181818;stroke-width:1.0;"/><path d="M470.0156,1306.875 Q470.1719,1306.6563 470.3594,1306.5469 Q470.5469,1306.4375 470.7656,1306.4375 Q471.1406,1306.4375 471.375,1306.7031 Q471.6094,1306.9531 471.6094,1307.5625 L471.6094,1309.0156 Q471.6094,1309.625 471.375,1309.8906 Q471.1406,1310.1563 470.7656,1310.1563 Q470.4219,1310.1563 470.2188,1309.9531 Q470.0156,1309.7656 469.9063,1309.25 Q469.8594,1308.8906 469.6719,1308.7031 Q469.3438,1308.3281 468.7344,1308.1094 Q468.125,1307.8906 467.5,1307.8906 Q466.7344,1307.8906 466.0938,1308.2188 Q465.4688,1308.5469 464.9688,1309.2969 Q464.4844,1310.0469 464.4844,1311.0781 L464.4844,1312.1719 Q464.4844,1313.4063 465.375,1314.2344 Q466.2656,1315.0469 467.8594,1315.0469 Q468.7969,1315.0469 469.4531,1314.7969 Q469.8438,1314.6406 470.2656,1314.2031 Q470.5313,1313.9375 470.6719,1313.8594 Q470.8281,1313.7813 471.0313,1313.7813 Q471.3594,1313.7813 471.6094,1314.0469 Q471.875,1314.2969 471.875,1314.6406 Q471.875,1314.9844 471.5313,1315.3906 Q471.0313,1315.9688 470.2344,1316.2969 Q469.1563,1316.75 467.8594,1316.75 Q466.3438,1316.75 465.1406,1316.125 Q464.1563,1315.625 463.4688,1314.5625 Q462.7813,1313.4844 462.7813,1312.2031 L462.7813,1311.0469 Q462.7813,1309.7188 463.3906,1308.5781 Q464.0156,1307.4219 465.1094,1306.8125 Q466.2031,1306.1875 467.4375,1306.1875 Q468.1719,1306.1875 468.8125,1306.3594 Q469.4688,1306.5156 470.0156,1306.875 Z " fill="#000000"/><text fill="#000000" font-family="sans-serif" font-size="14" lengthAdjust="spacing" textLength="97" x="487.75" y="1316.7969">UserRepository</text><line style="stroke:#181818;stroke-width:0.5;" x1="357" x2="683" y1="1327" y2="1327"/><line style="stroke:#181818;stroke-width:0.5;" x1="357" x2="683" y1="1335" y2="1335"/><ellipse cx="367" cy="1349.8105" fill="#84BE84" rx="3" ry="3" style="stroke:#038048;stroke-width:1.0;"/><text fill="#000000" font-family="sans-serif" font-size="14" lengthAdjust="spacing" textLength="127" x="376" y="1354.1074">addUser(user: user)</text><ellipse cx="367" cy="1368.4316" fill="#84BE84" rx="3" ry="3" style="stroke:#038048;stroke-width:1.0;"/><text fill="#000000" font-family="sans-serif" font-size="14" lengthAdjust="spacing" textLength="150" x="376" y="1372.7285">removeUser(user: user)</text><ellipse cx="367" cy="1396.3633" fill="#84BE84" rx="3" ry="3" style="stroke:#038048;stroke-width:1.0;"/><text fill="#000000" font-family="sans-serif" font-size="14" lengthAdjust="spacing" textLength="298" x="376" y="1391.3496">CreateUser(String: fullName, String: fhortName,</text><text fill="#000000" font-family="sans-serif" font-size="14" lengthAdjust="spacing" textLength="286" x="384" y="1409.9707">Role: role, Email: email, Password, password)</text><ellipse cx="367" cy="1424.2949" fill="#84BE84" rx="3" ry="3" style="stroke:#038048;stroke-width:1.0;"/><text fill="#000000" font-family="sans-serif" font-size="14" lengthAdjust="spacing" textLength="183" x="376" y="1428.5918">searchUser(user: user): User</text><ellipse cx="367" cy="1442.916" fill="#84BE84" rx="3" ry="3" style="stroke:#038048;stroke-width:1.0;"/><text fill="#000000" font-family="sans-serif" font-size="14" lengthAdjust="spacing" textLength="172" x="376" y="1447.2129">alterUserStatus(User: user)</text><ellipse cx="367" cy="1461.5371" fill="#84BE84" rx="3" ry="3" style="stroke:#038048;stroke-width:1.0;"/><text fill="#000000" font-family="sans-serif" font-size="14" lengthAdjust="spacing" textLength="160" x="376" y="1465.834">totalNumberOfUsers(): int</text><ellipse cx="367" cy="1480.1582" fill="#84BE84" rx="3" ry="3" style="stroke:#038048;stroke-width:1.0;"/><text fill="#000000" font-family="sans-serif" font-size="14" lengthAdjust="spacing" textLength="184" x="376" y="1484.4551">listSystemUsers(): List&lt;User&gt;</text></g><!--class ExamRepository--><g id="elem_ExamRepository"><rect codeLine="90" fill="#F1F1F1" height="122.4844" id="ExamRepository" rx="2.5" ry="2.5" style="stroke:#181818;stroke-width:0.5;" width="231" x="48.5" y="1553"/><ellipse cx="108.75" cy="1569" fill="#ADD1B2" rx="11" ry="11" style="stroke:#181818;stroke-width:1.0;"/><path d="M111.5156,1564.875 Q111.6719,1564.6563 111.8594,1564.5469 Q112.0469,1564.4375 112.2656,1564.4375 Q112.6406,1564.4375 112.875,1564.7031 Q113.1094,1564.9531 113.1094,1565.5625 L113.1094,1567.0156 Q113.1094,1567.625 112.875,1567.8906 Q112.6406,1568.1563 112.2656,1568.1563 Q111.9219,1568.1563 111.7188,1567.9531 Q111.5156,1567.7656 111.4063,1567.25 Q111.3594,1566.8906 111.1719,1566.7031 Q110.8438,1566.3281 110.2344,1566.1094 Q109.625,1565.8906 109,1565.8906 Q108.2344,1565.8906 107.5938,1566.2188 Q106.9688,1566.5469 106.4688,1567.2969 Q105.9844,1568.0469 105.9844,1569.0781 L105.9844,1570.1719 Q105.9844,1571.4063 106.875,1572.2344 Q107.7656,1573.0469 109.3594,1573.0469 Q110.2969,1573.0469 110.9531,1572.7969 Q111.3438,1572.6406 111.7656,1572.2031 Q112.0313,1571.9375 112.1719,1571.8594 Q112.3281,1571.7813 112.5313,1571.7813 Q112.8594,1571.7813 113.1094,1572.0469 Q113.375,1572.2969 113.375,1572.6406 Q113.375,1572.9844 113.0313,1573.3906 Q112.5313,1573.9688 111.7344,1574.2969 Q110.6563,1574.75 109.3594,1574.75 Q107.8438,1574.75 106.6406,1574.125 Q105.6563,1573.625 104.9688,1572.5625 Q104.2813,1571.4844 104.2813,1570.2031 L104.2813,1569.0469 Q104.2813,1567.7188 104.8906,1566.5781 Q105.5156,1565.4219 106.6094,1564.8125 Q107.7031,1564.1875 108.9375,1564.1875 Q109.6719,1564.1875 110.3125,1564.3594 Q110.9688,1564.5156 111.5156,1564.875 Z " fill="#000000"/><text fill="#000000" font-family="sans-serif" font-size="14" lengthAdjust="spacing" textLength="102" x="129.25" y="1574.7969">ExamRepository</text><line style="stroke:#181818;stroke-width:0.5;" x1="49.5" x2="278.5" y1="1585" y2="1585"/><line style="stroke:#181818;stroke-width:0.5;" x1="49.5" x2="278.5" y1="1593" y2="1593"/><ellipse cx="59.5" cy="1607.8105" fill="#84BE84" rx="3" ry="3" style="stroke:#038048;stroke-width:1.0;"/><text fill="#000000" font-family="sans-serif" font-size="14" lengthAdjust="spacing" textLength="144" x="68.5" y="1612.1074">addExam(Exam: Exam)</text><ellipse cx="59.5" cy="1626.4316" fill="#84BE84" rx="3" ry="3" style="stroke:#038048;stroke-width:1.0;"/><text fill="#000000" font-family="sans-serif" font-size="14" lengthAdjust="spacing" textLength="167" x="68.5" y="1630.7285">removeExam(Exam: Exam)</text><ellipse cx="59.5" cy="1645.0527" fill="#84BE84" rx="3" ry="3" style="stroke:#038048;stroke-width:1.0;"/><text fill="#000000" font-family="sans-serif" font-size="14" lengthAdjust="spacing" textLength="205" x="68.5" y="1649.3496">searchExam(Exam: Exam): Exam</text><ellipse cx="59.5" cy="1663.6738" fill="#84BE84" rx="3" ry="3" style="stroke:#038048;stroke-width:1.0;"/><text fill="#000000" font-family="sans-serif" font-size="14" lengthAdjust="spacing" textLength="165" x="68.5" y="1667.9707">totalNumberOfExams(): int</text></g><!--class CourseStatus--><g id="elem_CourseStatus"><rect fill="#F1F1F1" height="48" id="CourseStatus" rx="2.5" ry="2.5" style="stroke:#181818;stroke-width:0.5;" width="118" x="1781" y="288"/><ellipse cx="1796" cy="304" fill="#ADD1B2" rx="11" ry="11" style="stroke:#181818;stroke-width:1.0;"/><path d="M1798.7656,299.875 Q1798.9219,299.6563 1799.1094,299.5469 Q1799.2969,299.4375 1799.5156,299.4375 Q1799.8906,299.4375 1800.125,299.7031 Q1800.3594,299.9531 1800.3594,300.5625 L1800.3594,302.0156 Q1800.3594,302.625 1800.125,302.8906 Q1799.8906,303.1563 1799.5156,303.1563 Q1799.1719,303.1563 1798.9688,302.9531 Q1798.7656,302.7656 1798.6563,302.25 Q1798.6094,301.8906 1798.4219,301.7031 Q1798.0938,301.3281 1797.4844,301.1094 Q1796.875,300.8906 1796.25,300.8906 Q1795.4844,300.8906 1794.8438,301.2188 Q1794.2188,301.5469 1793.7188,302.2969 Q1793.2344,303.0469 1793.2344,304.0781 L1793.2344,305.1719 Q1793.2344,306.4063 1794.125,307.2344 Q1795.0156,308.0469 1796.6094,308.0469 Q1797.5469,308.0469 1798.2031,307.7969 Q1798.5938,307.6406 1799.0156,307.2031 Q1799.2813,306.9375 1799.4219,306.8594 Q1799.5781,306.7813 1799.7813,306.7813 Q1800.1094,306.7813 1800.3594,307.0469 Q1800.625,307.2969 1800.625,307.6406 Q1800.625,307.9844 1800.2813,308.3906 Q1799.7813,308.9688 1798.9844,309.2969 Q1797.9063,309.75 1796.6094,309.75 Q1795.0938,309.75 1793.8906,309.125 Q1792.9063,308.625 1792.2188,307.5625 Q1791.5313,306.4844 1791.5313,305.2031 L1791.5313,304.0469 Q1791.5313,302.7188 1792.1406,301.5781 Q1792.7656,300.4219 1793.8594,299.8125 Q1794.9531,299.1875 1796.1875,299.1875 Q1796.9219,299.1875 1797.5625,299.3594 Q1798.2188,299.5156 1798.7656,299.875 Z " fill="#000000"/><text fill="#000000" font-family="sans-serif" font-size="14" lengthAdjust="spacing" textLength="86" x="1810" y="309.7969">CourseStatus</text><line style="stroke:#181818;stroke-width:0.5;" x1="1782" x2="1898" y1="320" y2="320"/><line style="stroke:#181818;stroke-width:0.5;" x1="1782" x2="1898" y1="328" y2="328"/></g><!--class CourseCode--><g id="elem_CourseCode"><rect fill="#F1F1F1" height="48" id="CourseCode" rx="2.5" ry="2.5" style="stroke:#181818;stroke-width:0.5;" width="112" x="1934" y="288"/><ellipse cx="1949" cy="304" fill="#ADD1B2" rx="11" ry="11" style="stroke:#181818;stroke-width:1.0;"/><path d="M1951.7656,299.875 Q1951.9219,299.6563 1952.1094,299.5469 Q1952.2969,299.4375 1952.5156,299.4375 Q1952.8906,299.4375 1953.125,299.7031 Q1953.3594,299.9531 1953.3594,300.5625 L1953.3594,302.0156 Q1953.3594,302.625 1953.125,302.8906 Q1952.8906,303.1563 1952.5156,303.1563 Q1952.1719,303.1563 1951.9688,302.9531 Q1951.7656,302.7656 1951.6563,302.25 Q1951.6094,301.8906 1951.4219,301.7031 Q1951.0938,301.3281 1950.4844,301.1094 Q1949.875,300.8906 1949.25,300.8906 Q1948.4844,300.8906 1947.8438,301.2188 Q1947.2188,301.5469 1946.7188,302.2969 Q1946.2344,303.0469 1946.2344,304.0781 L1946.2344,305.1719 Q1946.2344,306.4063 1947.125,307.2344 Q1948.0156,308.0469 1949.6094,308.0469 Q1950.5469,308.0469 1951.2031,307.7969 Q1951.5938,307.6406 1952.0156,307.2031 Q1952.2813,306.9375 1952.4219,306.8594 Q1952.5781,306.7813 1952.7813,306.7813 Q1953.1094,306.7813 1953.3594,307.0469 Q1953.625,307.2969 1953.625,307.6406 Q1953.625,307.9844 1953.2813,308.3906 Q1952.7813,308.9688 1951.9844,309.2969 Q1950.9063,309.75 1949.6094,309.75 Q1948.0938,309.75 1946.8906,309.125 Q1945.9063,308.625 1945.2188,307.5625 Q1944.5313,306.4844 1944.5313,305.2031 L1944.5313,304.0469 Q1944.5313,302.7188 1945.1406,301.5781 Q1945.7656,300.4219 1946.8594,299.8125 Q1947.9531,299.1875 1949.1875,299.1875 Q1949.9219,299.1875 1950.5625,299.3594 Q1951.2188,299.5156 1951.7656,299.875 Z " fill="#000000"/><text fill="#000000" font-family="sans-serif" font-size="14" lengthAdjust="spacing" textLength="80" x="1963" y="309.7969">CourseCode</text><line style="stroke:#181818;stroke-width:0.5;" x1="1935" x2="2045" y1="320" y2="320"/><line style="stroke:#181818;stroke-width:0.5;" x1="1935" x2="2045" y1="328" y2="328"/></g><!--link SystemUser to EmailAdderss--><g id="link_SystemUser_EmailAdderss"><path codeLine="99" d="M1672.9,902.54 C1698.96,928.92 1729.4,959.73 1751.98,982.58 " fill="none" id="SystemUser-to-EmailAdderss" style="stroke:#181818;stroke-width:1.0;"/><polygon fill="#181818" points="1755.53,986.18,1752.0502,976.9664,1752.016,982.6231,1746.3592,982.5888,1755.53,986.18" style="stroke:#181818;stroke-width:1.0;"/><text fill="#000000" font-family="sans-serif" font-size="13" lengthAdjust="spacing" textLength="7" x="1741.7299" y="975.1717">1</text></g><!--link SystemUser to Password--><g id="link_SystemUser_Password"><path codeLine="100" d="M1624.71,904.41 C1627.28,929.82 1630.24,959.03 1632.48,981.19 " fill="none" id="SystemUser-to-Password" style="stroke:#181818;stroke-width:1.0;"/><polygon fill="#181818" points="1633,986.38,1636.0527,977.0162,1632.4855,981.4065,1628.0951,977.8394,1633,986.38" style="stroke:#181818;stroke-width:1.0;"/><text fill="#000000" font-family="sans-serif" font-size="13" lengthAdjust="spacing" textLength="7" x="1624.6594" y="975.4129">1</text></g><!--link SystemUser to Role--><g id="link_SystemUser_Role"><path codeLine="101" d="M1577.36,904.41 C1560.74,926.93 1541.92,952.43 1526.47,973.36 " fill="none" id="SystemUser-to-Role" style="stroke:#181818;stroke-width:1.0;"/><polygon fill="#181818" points="1523.43,977.48,1531.9914,972.6114,1526.3979,973.4562,1525.5532,967.8627,1523.43,977.48" style="stroke:#181818;stroke-width:1.0;"/><text fill="#000000" font-family="sans-serif" font-size="13" lengthAdjust="spacing" textLength="7" x="1520.7148" y="966.2624">1</text></g><!--link eCourseSystemUser to SystemUser--><g id="link_eCourseSystemUser_SystemUser"><path codeLine="103" d="M1446.87,697.65 C1475.05,708.31 1505.88,722.65 1531,741 C1547.91,753.35 1563.6,769.62 1576.9,785.66 " fill="none" id="eCourseSystemUser-to-SystemUser" style="stroke:#181818;stroke-width:1.0;"/><polygon fill="#181818" points="1580.23,789.73,1577.621,780.233,1577.0615,785.8621,1571.4324,785.3026,1580.23,789.73" style="stroke:#181818;stroke-width:1.0;"/><text fill="#000000" font-family="sans-serif" font-size="13" lengthAdjust="spacing" textLength="7" x="1568.0783" y="778.7734">1</text></g><!--link eCourseSystemUser to Role--><g id="link_eCourseSystemUser_Role"><path codeLine="104" d="M1414.33,711.14 C1437.15,731.79 1462.32,759.4 1476,790 C1502.35,848.96 1502.74,925.15 1499.61,972.28 " fill="none" id="eCourseSystemUser-to-Role" style="stroke:#181818;stroke-width:1.0;"/><polygon fill="#181818" points="1499.25,977.31,1503.8828,968.6188,1499.6073,972.3228,1495.9033,968.0472,1499.25,977.31" style="stroke:#181818;stroke-width:1.0;"/><text fill="#000000" font-family="sans-serif" font-size="13" lengthAdjust="spacing" textLength="7" x="1492.3742" y="966.3641">1</text></g><!--link eCourseSystemUser to UserStatus--><g id="link_eCourseSystemUser_UserStatus"><path codeLine="105" d="M1285.08,678.43 C1175.27,687.81 975.3,714.62 823,790 C818.58,792.19 814.19,794.71 809.9,797.46 " fill="none" id="eCourseSystemUser-to-UserStatus" style="stroke:#181818;stroke-width:1.0;"/><polygon fill="#181818" points="805.65,800.27,815.3638,798.6444,809.8212,797.513,810.9526,791.9704,805.65,800.27" style="stroke:#181818;stroke-width:1.0;"/><text fill="#000000" font-family="sans-serif" font-size="13" lengthAdjust="spacing" textLength="7" x="813.6033" y="789.2207">1</text></g><!--link eCourseSystemUser to Acronym--><g id="link_eCourseSystemUser_Acronym"><path codeLine="106" d="M1285.45,687.72 C1202.41,704.47 1070.77,736.95 967,790 C954.69,796.29 942.41,804.8 931.56,813.29 " fill="none" id="eCourseSystemUser-to-Acronym" style="stroke:#181818;stroke-width:1.0;"/><polygon fill="#181818" points="927.63,816.41,937.1633,813.9367,931.5427,813.297,932.1824,807.6764,927.63,816.41" style="stroke:#181818;stroke-width:1.0;"/><text fill="#000000" font-family="sans-serif" font-size="13" lengthAdjust="spacing" textLength="7" x="926.6381" y="805.4491">1</text></g><!--link eCourseSystemUser to NIF--><g id="link_eCourseSystemUser_NIF"><path codeLine="107" d="M1285.46,704.63 C1234.03,725.86 1166.78,756.2 1111,790 C1099.76,796.81 1088.24,805.09 1077.81,813.17 " fill="none" id="eCourseSystemUser-to-NIF" style="stroke:#181818;stroke-width:1.0;"/><polygon fill="#181818" points="1073.71,816.37,1083.2628,813.9732,1077.6475,813.2885,1078.3323,807.6732,1073.71,816.37" style="stroke:#181818;stroke-width:1.0;"/><text fill="#000000" font-family="sans-serif" font-size="13" lengthAdjust="spacing" textLength="7" x="1073.1471" y="805.4009">1</text></g><!--link eCourseSystemUser to BirthDate--><g id="link_eCourseSystemUser_BirthDate"><path codeLine="108" d="M1325.84,711.36 C1293.69,741.66 1249.03,783.75 1218.25,812.77 " fill="none" id="eCourseSystemUser-to-BirthDate" style="stroke:#181818;stroke-width:1.0;"/><polygon fill="#181818" points="1214.57,816.24,1223.8589,812.9663,1218.2043,812.806,1218.3645,807.1515,1214.57,816.24" style="stroke:#181818;stroke-width:1.0;"/><text fill="#000000" font-family="sans-serif" font-size="13" lengthAdjust="spacing" textLength="7" x="1213.3594" y="805.2441">1</text></g><!--link eCourseSystemUser to MechanographicNumber--><g id="link_eCourseSystemUser_MechanographicNumber"><path codeLine="109" d="M1366,711.36 C1366,738.43 1366,774.92 1366,803.08 " fill="none" id="eCourseSystemUser-to-MechanographicNumber" style="stroke:#181818;stroke-width:1.0;"/><polygon fill="#181818" points="1366,808.23,1370,799.23,1366,803.23,1362,799.23,1366,808.23" style="stroke:#181818;stroke-width:1.0;"/><text fill="#000000" font-family="sans-serif" font-size="13" lengthAdjust="spacing" textLength="7" x="1358.3984" y="797.1981">1</text></g><!--link eCourseSystemUser to Grade--><g id="link_eCourseSystemUser_Grade"><path codeLine="110" d="M1446.94,698.43 C1483.89,710.39 1528.01,725.47 1567,741 C1585.66,748.43 1589.44,752.32 1608,760 C1643.86,774.84 1656.05,771.19 1690,790 C1701.74,796.5 1713.6,804.84 1724.21,813.08 " fill="none" id="eCourseSystemUser-to-Grade" style="stroke:#181818;stroke-width:1.0;"/><polygon fill="#181818" points="1728.37,816.35,1723.7826,807.6348,1724.4449,813.2527,1718.8269,813.915,1728.37,816.35" style="stroke:#181818;stroke-width:1.0;"/><polygon fill="#000000" points="1617.6206,752.5561,1610.3849,746.3839,1608.1389,751.8157,1617.6206,752.5561" style="stroke:#000000;stroke-width:1.0;"/><text fill="#000000" font-family="sans-serif" font-size="13" lengthAdjust="spacing" textLength="79" x="1622" y="756.0283">student has a</text><text fill="#000000" font-family="sans-serif" font-size="13" lengthAdjust="spacing" textLength="7" x="1713.7119" y="805.3767">1</text></g><!--link eCourseSystemUser to ListExamGradesCourseUI--><g id="link_eCourseSystemUser_ListExamGradesCourseUI"><path codeLine="113" d="M1285.09,683.11 C1191.7,694.68 1033.66,715.75 899,741 C803.95,758.82 780.58,765.63 687,790 C659.4,797.19 629.74,805.5 602.16,813.48 " fill="none" id="eCourseSystemUser-ListExamGradesCourseUI" style="stroke:#181818;stroke-width:1.0;stroke-dasharray:7.0,7.0;"/></g><!--link ListExamGradesCourseUI to ListExamGradesCourseController--><g id="link_ListExamGradesCourseUI_ListExamGradesCourseController"><path codeLine="114" d="M494,880.79 C494,904.66 494,937.46 494,964.77 " fill="none" id="ListExamGradesCourseUI-ListExamGradesCourseController" style="stroke:#181818;stroke-width:1.0;stroke-dasharray:7.0,7.0;"/></g><!--link ListExamGradesCourseController to RepositoryFactory--><g id="link_ListExamGradesCourseController_RepositoryFactory"><path codeLine="115" d="M541.99,1069.13 C569.86,1098.82 603.62,1134.78 625.2,1157.77 " fill="none" id="ListExamGradesCourseController-RepositoryFactory" style="stroke:#181818;stroke-width:1.0;stroke-dasharray:7.0,7.0;"/></g><!--link ListExamGradesCourseController to SeeTeacherCourseGradesService--><g id="link_ListExamGradesCourseController_SeeTeacherCourseGradesService"><path codeLine="116" d="M446.32,1069.13 C428.3,1088.45 407.8,1110.44 389.77,1129.77 " fill="none" id="ListExamGradesCourseController-SeeTeacherCourseGradesService" style="stroke:#181818;stroke-width:1.0;stroke-dasharray:7.0,7.0;"/></g><!--link SeeTeacherCourseGradesService to UserRepository--><g id="link_SeeTeacherCourseGradesService_UserRepository"><path codeLine="117" d="M385.54,1234.25 C401.09,1252.54 419.15,1273.81 436.91,1294.7 " fill="none" id="SeeTeacherCourseGradesService-UserRepository" style="stroke:#181818;stroke-width:1.0;stroke-dasharray:7.0,7.0;"/></g><!--link SeeTeacherCourseGradesService to ListExamGradesCourseService--><g id="link_SeeTeacherCourseGradesService_ListExamGradesCourseService"><path codeLine="118" d="M298.46,1234.25 C265.21,1273.38 220.4,1326.12 191.85,1359.72 " fill="none" id="SeeTeacherCourseGradesService-ListExamGradesCourseService" style="stroke:#181818;stroke-width:1.0;stroke-dasharray:7.0,7.0;"/></g><!--link ListExamGradesCourseService to ExamRepository--><g id="link_ListExamGradesCourseService_ExamRepository"><path codeLine="119" d="M164,1427.21 C164,1460.31 164,1512.24 164,1552.79 " fill="none" id="ListExamGradesCourseService-ExamRepository" style="stroke:#181818;stroke-width:1.0;stroke-dasharray:7.0,7.0;"/></g><!--link Course to CourseStatus--><g id="link_Course_CourseStatus"><path codeLine="121" d="M1767.8,167.25 C1788.09,207.65 1811.49,254.24 1826.02,283.16 " fill="none" id="Course-to-CourseStatus" style="stroke:#181818;stroke-width:1.0;"/><polygon fill="#181818" points="1828.27,287.64,1827.8102,277.8019,1826.0282,283.1707,1820.6594,281.3887,1828.27,287.64" style="stroke:#181818;stroke-width:1.0;"/><text fill="#000000" font-family="sans-serif" font-size="13" lengthAdjust="spacing" textLength="7" x="1817.5577" y="276.6942">1</text></g><!--link Course to CourseCode--><g id="link_Course_CourseCode"><path codeLine="122" d="M1823.02,167.17 C1852.89,192.24 1885.93,220.16 1916,246 C1930.57,258.52 1946.61,272.58 1960.02,284.4 " fill="none" id="Course-to-CourseCode" style="stroke:#181818;stroke-width:1.0;"/><polygon fill="#181818" points="1964.09,288,1959.9846,279.0476,1960.3396,284.6933,1954.6939,285.0483,1964.09,288" style="stroke:#181818;stroke-width:1.0;"/><text fill="#000000" font-family="sans-serif" font-size="13" lengthAdjust="spacing" textLength="7" x="1949.5537" y="276.7375">1</text></g><!--link Course to Grade--><g id="link_Course_Grade"><path codeLine="124" d="M1728,167.21 C1728,209.82 1728,263.28 1728,311 C1728,311 1728,311 1728,673.5 C1728,724.48 1742.47,782.35 1752.53,816.43 " fill="none" id="Course-Grade" style="stroke:#181818;stroke-width:1.0;"/><polygon fill="#000000" points="1732.8112,501.1491,1730.2159,510.2987,1736.0896,510.0767,1732.8112,501.1491" style="stroke:#000000;stroke-width:1.0;"/><text fill="#000000" font-family="sans-serif" font-size="13" lengthAdjust="spacing" textLength="47" x="1742" y="511.5283">refers to</text><text fill="#000000" font-family="sans-serif" font-size="13" lengthAdjust="spacing" textLength="7" x="1720.6992" y="188.8861">1</text><text fill="#000000" font-family="sans-serif" font-size="13" lengthAdjust="spacing" textLength="7" x="1742.8549" y="805.4732">1</text></g><!--link Course to Exam--><g id="link_Course_Exam"><path codeLine="125" d="M1653.77,167.22 C1646.27,176.9 1639.17,186.94 1633,197 C1623.74,212.1 1615.65,229.39 1608.94,245.87 " fill="none" id="Course-Exam" style="stroke:#181818;stroke-width:1.0;"/><polygon fill="#000000" points="1640.476,202.3016,1633.4436,208.7044,1638.5502,211.6151,1640.476,202.3016" style="stroke:#000000;stroke-width:1.0;"/><text fill="#000000" font-family="sans-serif" font-size="13" lengthAdjust="spacing" textLength="54" x="1647" y="212.0283">related to</text><text fill="#000000" font-family="sans-serif" font-size="13" lengthAdjust="spacing" textLength="7" x="1640.333" y="188.6188">1</text><text fill="#000000" font-family="sans-serif" font-size="13" lengthAdjust="spacing" textLength="20" x="1590.2459" y="234.7294">0..*</text></g><!--link Course to eCourseSystemUser--><g id="link_Course_eCourseSystemUser"><path codeLine="127" d="M1597.35,167.08 C1567.17,189.77 1537.15,216.47 1514,246 C1418.81,367.4 1382.44,554.33 1370.77,633.74 " fill="none" id="Course-eCourseSystemUser" style="stroke:#181818;stroke-width:1.0;"/><polygon fill="#000000" points="1433.1839,413.1477,1426.5894,420.0007,1431.877,422.568,1433.1839,413.1477" style="stroke:#000000;stroke-width:1.0;"/><text fill="#000000" font-family="sans-serif" font-size="13" lengthAdjust="spacing" textLength="46" x="1440" y="423.0283">teaches</text><text fill="#000000" font-family="sans-serif" font-size="13" lengthAdjust="spacing" textLength="5" x="1580.9074" y="188.7449">*</text><text fill="#000000" font-family="sans-serif" font-size="13" lengthAdjust="spacing" textLength="5" x="1366.1602" y="622.7098">*</text></g><!--link Exam to ExamGrade--><g id="link_Exam_ExamGrade"><path codeLine="129" d="M1573.46,378 C1568.09,403.79 1562.02,432.91 1557.05,456.76 " fill="none" id="Exam-ExamGrade" style="stroke:#181818;stroke-width:1.0;"/><polygon fill="#000000" points="1570.9801,422.5404,1575.7022,414.2849,1569.948,413.086,1570.9801,422.5404" style="stroke:#000000;stroke-width:1.0;"/><text fill="#000000" font-family="sans-serif" font-size="13" lengthAdjust="spacing" textLength="21" x="1581" y="423.0283">has</text><text fill="#000000" font-family="sans-serif" font-size="13" lengthAdjust="spacing" textLength="7" x="1564.4898" y="400.6357">1</text><text fill="#000000" font-family="sans-serif" font-size="13" lengthAdjust="spacing" textLength="7" x="1550.9711" y="445.7015">1</text></g><!--link ExamGrade to eCourseSystemUser--><g id="link_ExamGrade_eCourseSystemUser"><path codeLine="130" d="M1494.16,555.02 C1466.51,580.15 1433.15,610.47 1407.4,633.88 " fill="none" id="ExamGrade-eCourseSystemUser" style="stroke:#181818;stroke-width:1.0;"/><polygon fill="#000000" points="1458.3,598.0086,1466.9701,594.0995,1463.0166,589.7499,1458.3,598.0086" style="stroke:#000000;stroke-width:1.0;"/><text fill="#000000" font-family="sans-serif" font-size="13" lengthAdjust="spacing" textLength="21" x="1471" y="600.0283">has</text><text fill="#000000" font-family="sans-serif" font-size="13" lengthAdjust="spacing" textLength="7" x="1479.5893" y="576.8089">1</text><text fill="#000000" font-family="sans-serif" font-size="13" lengthAdjust="spacing" textLength="7" x="1406.9141" y="622.8739">1</text></g><!--SRC=[ZLPDRzim3BthLmWzfLqIR5SZCD2FT2ZGfKEpxhIBQZEn1jlA93bRCEo_Z_g8R2UosnniK-_nXQP8Mbhig1RqLMWjAffp2PdceYOaAvbIz94hlVp3gi-IvQ1kHICLl3pGluJYxmFTGWTzsZXySaaJwxXeiJijKl9lJFLMr5gAiWGPr1KeXR5OlRLxzWXhT06rvXdJaByea9O3JcbzK1egipeQPOE4IAITCDS0tu1b1KZduWXha7kUGITA9hF21d6K70g4gsVOOjmJxMGDDxFKDj9ui8ur7cuigwV1RdYTjvntoRPlGHSBAOHEKtnOOlRr0H-TyXLTiGhye-7MnWmQPmaPa6ezbXNZvNMUWqHZiVZEoWQeUFs9vPccHzApA24MorfBNczfFmRpjslDT6Fqe6wguF21BbVNDuzBRzmzhAqLFB_YvRUGEVhjet5SPrBKXseGNptS3s8tNEhY3kjuaF45ieBLOYlPhk3PggbURVxwP5p0fX0LCqrHbWSifHgaQOzMo6xjuD-uBGevvBMcFFT6tMwktqcNI6Ll0K7r32_Uzhr3fQrvdrnVpqvzsjsfQKnwsgfEJmGlEyM2TTkjADWZtga7B0zRA4tDVpM0h-oMnGvgatblPgLGOEsUS3nhlJnj3SNRvwMkT9ER10JLPzW9nRMGXtkMcLklyerFomWbol8yp9Y4sadZ4GcLsCC0U2i1tyY2BjS9tJHbkR893ok5aDej_QYfRQk4uZ16s_OXJZHpcuPEcDATVxgCJq4VH48xqu-L6cJRXPENis2rqAnq1VwqCR2Qe0GFnLFYa6eJQq4xjuoLzdSjda63JCmbiQH-1WT0zsQdeBl5uZRh8MwCYP1EBSncARtuTD4RRp7ycEWOPhQ7aFCwE-ATpyumoOeCm-qsZP3ys1jXuE0RGSFe6-74Xjy8tJLhSkmvMZ156SKP5_6PpmUEDsJWr3FWq9vSo1i76nGuw_rt-8oUGyZuAGNT-mFbRVx8EOACdJ7GjTzvXFXlod5tkWC-Zfbf7zpCycpMsrS96smPSs9TdB8-pkTN5-vJO7Yb-VOvOc0YFhFNys98g3kJASEt8fr_Rpy3YQsebBGh7LfCrT49-Gy0]--></g></svg>