<?xml version="1.0" encoding="us-ascii" standalone="no"?><svg xmlns="http://www.w3.org/2000/svg" xmlns:xlink="http://www.w3.org/1999/xlink" contentStyleType="text/css" height="949px" preserveAspectRatio="none" style="width:1727px;height:949px;background:#FFFFFF;" version="1.1" viewBox="0 0 1727 949" width="1727px" zoomAndPan="magnify"><defs/><g><!--cluster ECOURSESYSTEMUSER--><g id="cluster_ECOURSESYSTEMUSER"><path d="M714.5,88.5 L879.5,88.5 A3.75,3.75 0 0 1 882,91 L889,113.1211 L1678.5,113.1211 A2.5,2.5 0 0 1 1681,115.6211 L1681,940 A2.5,2.5 0 0 1 1678.5,942.5 L714.5,942.5 A2.5,2.5 0 0 1 712,940 L712,91 A2.5,2.5 0 0 1 714.5,88.5 " fill="none" style="stroke:#000000;stroke-width:1.5;"/><line style="stroke:#000000;stroke-width:1.5;" x1="712" x2="889" y1="113.1211" y2="113.1211"/><text fill="#000000" font-family="sans-serif" font-size="14" font-weight="bold" lengthAdjust="spacing" textLength="164" x="716" y="105.6074">ECOURSESYSTEMUSER</text><text fill="#000000" font-family="sans-serif" font-size="14" font-style="italic" lengthAdjust="spacing" textLength="82" x="1159.5" y="130.2285">&#171;Aggregate&#187;</text></g><!--cluster COURSE--><g id="cluster_COURSE"><path d="M8.5,112.5 L68.5,112.5 A3.75,3.75 0 0 1 71,115 L78,137.1211 L409.5,137.1211 A2.5,2.5 0 0 1 412,139.6211 L412,377 A2.5,2.5 0 0 1 409.5,379.5 L8.5,379.5 A2.5,2.5 0 0 1 6,377 L6,115 A2.5,2.5 0 0 1 8.5,112.5 " fill="none" style="stroke:#000000;stroke-width:1.5;"/><line style="stroke:#000000;stroke-width:1.5;" x1="6" x2="78" y1="137.1211" y2="137.1211"/><text fill="#000000" font-family="sans-serif" font-size="14" font-weight="bold" lengthAdjust="spacing" textLength="59" x="10" y="129.6074">COURSE</text><text fill="#000000" font-family="sans-serif" font-size="14" font-style="italic" lengthAdjust="spacing" textLength="81" x="172.5" y="154.2285">&#171;aggregate&#187;</text></g><!--cluster EXAM--><g id="cluster_EXAM"><path d="M263.5,403.5 L304.5,403.5 A3.75,3.75 0 0 1 307,406 L314,428.1211 L641.5,428.1211 A2.5,2.5 0 0 1 644,430.6211 L644,643 A2.5,2.5 0 0 1 641.5,645.5 L263.5,645.5 A2.5,2.5 0 0 1 261,643 L261,406 A2.5,2.5 0 0 1 263.5,403.5 " fill="none" style="stroke:#000000;stroke-width:1.5;"/><line style="stroke:#000000;stroke-width:1.5;" x1="261" x2="314" y1="428.1211" y2="428.1211"/><text fill="#000000" font-family="sans-serif" font-size="14" font-weight="bold" lengthAdjust="spacing" textLength="40" x="265" y="420.6074">EXAM</text><text fill="#000000" font-family="sans-serif" font-size="14" font-style="italic" lengthAdjust="spacing" textLength="81" x="416" y="445.2285">&#171;aggregate&#187;</text></g><!--class SystemUser--><g id="elem_SystemUser"><rect codeLine="7" fill="#F1F1F1" height="113.7852" id="SystemUser" rx="2.5" ry="2.5" style="stroke:#181818;stroke-width:0.5;" width="107" x="1142.5" y="678.5"/><ellipse cx="1157.5" cy="708.7715" fill="#ADD1B2" rx="11" ry="11" style="stroke:#181818;stroke-width:1.0;"/><path d="M1160.2656,704.6465 Q1160.4219,704.4277 1160.6094,704.3184 Q1160.7969,704.209 1161.0156,704.209 Q1161.3906,704.209 1161.625,704.4746 Q1161.8594,704.7246 1161.8594,705.334 L1161.8594,706.7871 Q1161.8594,707.3965 1161.625,707.6621 Q1161.3906,707.9277 1161.0156,707.9277 Q1160.6719,707.9277 1160.4688,707.7246 Q1160.2656,707.5371 1160.1563,707.0215 Q1160.1094,706.6621 1159.9219,706.4746 Q1159.5938,706.0996 1158.9844,705.8809 Q1158.375,705.6621 1157.75,705.6621 Q1156.9844,705.6621 1156.3438,705.9902 Q1155.7188,706.3184 1155.2188,707.0684 Q1154.7344,707.8184 1154.7344,708.8496 L1154.7344,709.9434 Q1154.7344,711.1777 1155.625,712.0059 Q1156.5156,712.8184 1158.1094,712.8184 Q1159.0469,712.8184 1159.7031,712.5684 Q1160.0938,712.4121 1160.5156,711.9746 Q1160.7813,711.709 1160.9219,711.6309 Q1161.0781,711.5527 1161.2813,711.5527 Q1161.6094,711.5527 1161.8594,711.8184 Q1162.125,712.0684 1162.125,712.4121 Q1162.125,712.7559 1161.7813,713.1621 Q1161.2813,713.7402 1160.4844,714.0684 Q1159.4063,714.5215 1158.1094,714.5215 Q1156.5938,714.5215 1155.3906,713.8965 Q1154.4063,713.3965 1153.7188,712.334 Q1153.0313,711.2559 1153.0313,709.9746 L1153.0313,708.8184 Q1153.0313,707.4902 1153.6406,706.3496 Q1154.2656,705.1934 1155.3594,704.584 Q1156.4531,703.959 1157.6875,703.959 Q1158.4219,703.959 1159.0625,704.1309 Q1159.7188,704.2871 1160.2656,704.6465 Z " fill="#000000"/><text fill="#000000" font-family="sans-serif" font-size="12" font-style="italic" lengthAdjust="spacing" textLength="35" x="1191.5" y="696.4492">&#171;root&#187;</text><text fill="#000000" font-family="sans-serif" font-size="12" font-style="italic" lengthAdjust="spacing" textLength="44" x="1187" y="712.4102">&#171;Entity&#187;</text><text fill="#000000" font-family="sans-serif" font-size="14" lengthAdjust="spacing" textLength="75" x="1171.5" y="730.5293">SystemUser</text><line style="stroke:#181818;stroke-width:0.5;" x1="1143.5" x2="1248.5" y1="739.043" y2="739.043"/><ellipse cx="1153.5" cy="753.8535" fill="#000000" rx="3" ry="3" style="stroke:#000000;stroke-width:1.0;"/><text fill="#000000" font-family="sans-serif" font-size="14" lengthAdjust="spacing" textLength="36" x="1162.5" y="758.1504">Name</text><ellipse cx="1153.5" cy="772.4746" fill="#000000" rx="3" ry="3" style="stroke:#000000;stroke-width:1.0;"/><text fill="#000000" font-family="sans-serif" font-size="14" lengthAdjust="spacing" textLength="64" x="1162.5" y="776.7715">Username</text><line style="stroke:#181818;stroke-width:0.5;" x1="1143.5" x2="1248.5" y1="784.2852" y2="784.2852"/></g><!--class eCourseSystemUser--><g id="elem_eCourseSystemUser"><rect codeLine="12" fill="#F1F1F1" height="76.543" id="eCourseSystemUser" rx="2.5" ry="2.5" style="stroke:#181818;stroke-width:0.5;" width="161" x="728" y="506"/><ellipse cx="743" cy="536.2715" fill="#ADD1B2" rx="11" ry="11" style="stroke:#181818;stroke-width:1.0;"/><path d="M745.7656,532.1465 Q745.9219,531.9277 746.1094,531.8184 Q746.2969,531.709 746.5156,531.709 Q746.8906,531.709 747.125,531.9746 Q747.3594,532.2246 747.3594,532.834 L747.3594,534.2871 Q747.3594,534.8965 747.125,535.1621 Q746.8906,535.4277 746.5156,535.4277 Q746.1719,535.4277 745.9688,535.2246 Q745.7656,535.0371 745.6563,534.5215 Q745.6094,534.1621 745.4219,533.9746 Q745.0938,533.5996 744.4844,533.3809 Q743.875,533.1621 743.25,533.1621 Q742.4844,533.1621 741.8438,533.4902 Q741.2188,533.8184 740.7188,534.5684 Q740.2344,535.3184 740.2344,536.3496 L740.2344,537.4434 Q740.2344,538.6777 741.125,539.5059 Q742.0156,540.3184 743.6094,540.3184 Q744.5469,540.3184 745.2031,540.0684 Q745.5938,539.9121 746.0156,539.4746 Q746.2813,539.209 746.4219,539.1309 Q746.5781,539.0527 746.7813,539.0527 Q747.1094,539.0527 747.3594,539.3184 Q747.625,539.5684 747.625,539.9121 Q747.625,540.2559 747.2813,540.6621 Q746.7813,541.2402 745.9844,541.5684 Q744.9063,542.0215 743.6094,542.0215 Q742.0938,542.0215 740.8906,541.3965 Q739.9063,540.8965 739.2188,539.834 Q738.5313,538.7559 738.5313,537.4746 L738.5313,536.3184 Q738.5313,534.9902 739.1406,533.8496 Q739.7656,532.6934 740.8594,532.084 Q741.9531,531.459 743.1875,531.459 Q743.9219,531.459 744.5625,531.6309 Q745.2188,531.7871 745.7656,532.1465 Z " fill="#000000"/><text fill="#000000" font-family="sans-serif" font-size="12" font-style="italic" lengthAdjust="spacing" textLength="35" x="804" y="523.9492">&#171;root&#187;</text><text fill="#000000" font-family="sans-serif" font-size="12" font-style="italic" lengthAdjust="spacing" textLength="44" x="799.5" y="539.9102">&#171;Entity&#187;</text><text fill="#000000" font-family="sans-serif" font-size="14" lengthAdjust="spacing" textLength="129" x="757" y="558.0293">eCourseSystemUser</text><line style="stroke:#181818;stroke-width:0.5;" x1="729" x2="888" y1="566.543" y2="566.543"/><line style="stroke:#181818;stroke-width:0.5;" x1="729" x2="888" y1="574.543" y2="574.543"/></g><!--class EmailAdderss--><g id="elem_EmailAdderss"><rect codeLine="16" fill="#F1F1F1" height="60.582" id="EmailAdderss" rx="2.5" ry="2.5" style="stroke:#181818;stroke-width:0.5;" width="118" x="1547" y="603"/><ellipse cx="1562" cy="625.291" fill="#ADD1B2" rx="11" ry="11" style="stroke:#181818;stroke-width:1.0;"/><path d="M1564.7656,621.166 Q1564.9219,620.9473 1565.1094,620.8379 Q1565.2969,620.7285 1565.5156,620.7285 Q1565.8906,620.7285 1566.125,620.9941 Q1566.3594,621.2441 1566.3594,621.8535 L1566.3594,623.3066 Q1566.3594,623.916 1566.125,624.1816 Q1565.8906,624.4473 1565.5156,624.4473 Q1565.1719,624.4473 1564.9688,624.2441 Q1564.7656,624.0566 1564.6563,623.541 Q1564.6094,623.1816 1564.4219,622.9941 Q1564.0938,622.6191 1563.4844,622.4004 Q1562.875,622.1816 1562.25,622.1816 Q1561.4844,622.1816 1560.8438,622.5098 Q1560.2188,622.8379 1559.7188,623.5879 Q1559.2344,624.3379 1559.2344,625.3691 L1559.2344,626.4629 Q1559.2344,627.6973 1560.125,628.5254 Q1561.0156,629.3379 1562.6094,629.3379 Q1563.5469,629.3379 1564.2031,629.0879 Q1564.5938,628.9316 1565.0156,628.4941 Q1565.2813,628.2285 1565.4219,628.1504 Q1565.5781,628.0723 1565.7813,628.0723 Q1566.1094,628.0723 1566.3594,628.3379 Q1566.625,628.5879 1566.625,628.9316 Q1566.625,629.2754 1566.2813,629.6816 Q1565.7813,630.2598 1564.9844,630.5879 Q1563.9063,631.041 1562.6094,631.041 Q1561.0938,631.041 1559.8906,630.416 Q1558.9063,629.916 1558.2188,628.8535 Q1557.5313,627.7754 1557.5313,626.4941 L1557.5313,625.3379 Q1557.5313,624.0098 1558.1406,622.8691 Q1558.7656,621.7129 1559.8594,621.1035 Q1560.9531,620.4785 1562.1875,620.4785 Q1562.9219,620.4785 1563.5625,620.6504 Q1564.2188,620.8066 1564.7656,621.166 Z " fill="#000000"/><text fill="#000000" font-family="sans-serif" font-size="12" font-style="italic" lengthAdjust="spacing" textLength="83" x="1577.5" y="620.9492">&#171;Value object&#187;</text><text fill="#000000" font-family="sans-serif" font-size="14" lengthAdjust="spacing" textLength="86" x="1576" y="639.0684">EmailAdderss</text><line style="stroke:#181818;stroke-width:0.5;" x1="1548" x2="1664" y1="647.582" y2="647.582"/><line style="stroke:#181818;stroke-width:0.5;" x1="1548" x2="1664" y1="655.582" y2="655.582"/></g><!--class Role--><g id="elem_Role"><rect codeLine="18" fill="#F1F1F1" height="79.2031" id="Role" rx="2.5" ry="2.5" style="stroke:#181818;stroke-width:0.5;" width="102" x="1555" y="795"/><ellipse cx="1583.5" cy="817.291" fill="#ADD1B2" rx="11" ry="11" style="stroke:#181818;stroke-width:1.0;"/><path d="M1586.2656,813.166 Q1586.4219,812.9473 1586.6094,812.8379 Q1586.7969,812.7285 1587.0156,812.7285 Q1587.3906,812.7285 1587.625,812.9941 Q1587.8594,813.2441 1587.8594,813.8535 L1587.8594,815.3066 Q1587.8594,815.916 1587.625,816.1816 Q1587.3906,816.4473 1587.0156,816.4473 Q1586.6719,816.4473 1586.4688,816.2441 Q1586.2656,816.0566 1586.1563,815.541 Q1586.1094,815.1816 1585.9219,814.9941 Q1585.5938,814.6191 1584.9844,814.4004 Q1584.375,814.1816 1583.75,814.1816 Q1582.9844,814.1816 1582.3438,814.5098 Q1581.7188,814.8379 1581.2188,815.5879 Q1580.7344,816.3379 1580.7344,817.3691 L1580.7344,818.4629 Q1580.7344,819.6973 1581.625,820.5254 Q1582.5156,821.3379 1584.1094,821.3379 Q1585.0469,821.3379 1585.7031,821.0879 Q1586.0938,820.9316 1586.5156,820.4941 Q1586.7813,820.2285 1586.9219,820.1504 Q1587.0781,820.0723 1587.2813,820.0723 Q1587.6094,820.0723 1587.8594,820.3379 Q1588.125,820.5879 1588.125,820.9316 Q1588.125,821.2754 1587.7813,821.6816 Q1587.2813,822.2598 1586.4844,822.5879 Q1585.4063,823.041 1584.1094,823.041 Q1582.5938,823.041 1581.3906,822.416 Q1580.4063,821.916 1579.7188,820.8535 Q1579.0313,819.7754 1579.0313,818.4941 L1579.0313,817.3379 Q1579.0313,816.0098 1579.6406,814.8691 Q1580.2656,813.7129 1581.3594,813.1035 Q1582.4531,812.4785 1583.6875,812.4785 Q1584.4219,812.4785 1585.0625,812.6504 Q1585.7188,812.8066 1586.2656,813.166 Z " fill="#000000"/><text fill="#000000" font-family="sans-serif" font-size="12" font-style="italic" lengthAdjust="spacing" textLength="44" x="1598.5" y="812.9492">&#171;Entity&#187;</text><text fill="#000000" font-family="sans-serif" font-size="14" lengthAdjust="spacing" textLength="29" x="1606" y="831.0684">Role</text><line style="stroke:#181818;stroke-width:0.5;" x1="1556" x2="1656" y1="839.582" y2="839.582"/><ellipse cx="1566" cy="854.3926" fill="#000000" rx="3" ry="3" style="stroke:#000000;stroke-width:1.0;"/><text fill="#000000" font-family="sans-serif" font-size="14" lengthAdjust="spacing" textLength="76" x="1575" y="858.6895">String name</text><line style="stroke:#181818;stroke-width:0.5;" x1="1556" x2="1656" y1="866.2031" y2="866.2031"/></g><!--class UserStatus--><g id="elem_UserStatus"><rect codeLine="22" fill="#F1F1F1" height="97.8242" id="UserStatus" rx="2.5" ry="2.5" style="stroke:#181818;stroke-width:0.5;" width="101" x="1145.5" y="545.5"/><ellipse cx="1160.5" cy="567.791" fill="#ADD1B2" rx="11" ry="11" style="stroke:#181818;stroke-width:1.0;"/><path d="M1163.2656,563.666 Q1163.4219,563.4473 1163.6094,563.3379 Q1163.7969,563.2285 1164.0156,563.2285 Q1164.3906,563.2285 1164.625,563.4941 Q1164.8594,563.7441 1164.8594,564.3535 L1164.8594,565.8066 Q1164.8594,566.416 1164.625,566.6816 Q1164.3906,566.9473 1164.0156,566.9473 Q1163.6719,566.9473 1163.4688,566.7441 Q1163.2656,566.5566 1163.1563,566.041 Q1163.1094,565.6816 1162.9219,565.4941 Q1162.5938,565.1191 1161.9844,564.9004 Q1161.375,564.6816 1160.75,564.6816 Q1159.9844,564.6816 1159.3438,565.0098 Q1158.7188,565.3379 1158.2188,566.0879 Q1157.7344,566.8379 1157.7344,567.8691 L1157.7344,568.9629 Q1157.7344,570.1973 1158.625,571.0254 Q1159.5156,571.8379 1161.1094,571.8379 Q1162.0469,571.8379 1162.7031,571.5879 Q1163.0938,571.4316 1163.5156,570.9941 Q1163.7813,570.7285 1163.9219,570.6504 Q1164.0781,570.5723 1164.2813,570.5723 Q1164.6094,570.5723 1164.8594,570.8379 Q1165.125,571.0879 1165.125,571.4316 Q1165.125,571.7754 1164.7813,572.1816 Q1164.2813,572.7598 1163.4844,573.0879 Q1162.4063,573.541 1161.1094,573.541 Q1159.5938,573.541 1158.3906,572.916 Q1157.4063,572.416 1156.7188,571.3535 Q1156.0313,570.2754 1156.0313,568.9941 L1156.0313,567.8379 Q1156.0313,566.5098 1156.6406,565.3691 Q1157.2656,564.2129 1158.3594,563.6035 Q1159.4531,562.9785 1160.6875,562.9785 Q1161.4219,562.9785 1162.0625,563.1504 Q1162.7188,563.3066 1163.2656,563.666 Z " fill="#000000"/><text fill="#000000" font-family="sans-serif" font-size="12" font-style="italic" lengthAdjust="spacing" textLength="46" x="1186" y="563.4492">&#171;enum&#187;</text><text fill="#000000" font-family="sans-serif" font-size="14" lengthAdjust="spacing" textLength="69" x="1174.5" y="581.5684">UserStatus</text><line style="stroke:#181818;stroke-width:0.5;" x1="1146.5" x2="1245.5" y1="590.082" y2="590.082"/><ellipse cx="1156.5" cy="604.8926" fill="none" rx="3" ry="3" style="stroke:#038048;stroke-width:1.0;"/><text fill="#000000" font-family="sans-serif" font-size="14" lengthAdjust="spacing" textLength="53" x="1165.5" y="609.1895">ENABLE</text><ellipse cx="1156.5" cy="623.5137" fill="none" rx="3" ry="3" style="stroke:#038048;stroke-width:1.0;"/><text fill="#000000" font-family="sans-serif" font-size="14" lengthAdjust="spacing" textLength="57" x="1165.5" y="627.8105">DISABLE</text><line style="stroke:#181818;stroke-width:0.5;" x1="1146.5" x2="1245.5" y1="635.3242" y2="635.3242"/></g><!--class Password--><g id="elem_Password"><rect codeLine="27" fill="#F1F1F1" height="60.582" id="Password" rx="2.5" ry="2.5" style="stroke:#181818;stroke-width:0.5;" width="109" x="1551.5" y="699"/><ellipse cx="1566.5" cy="721.291" fill="#ADD1B2" rx="11" ry="11" style="stroke:#181818;stroke-width:1.0;"/><path d="M1569.2656,717.166 Q1569.4219,716.9473 1569.6094,716.8379 Q1569.7969,716.7285 1570.0156,716.7285 Q1570.3906,716.7285 1570.625,716.9941 Q1570.8594,717.2441 1570.8594,717.8535 L1570.8594,719.3066 Q1570.8594,719.916 1570.625,720.1816 Q1570.3906,720.4473 1570.0156,720.4473 Q1569.6719,720.4473 1569.4688,720.2441 Q1569.2656,720.0566 1569.1563,719.541 Q1569.1094,719.1816 1568.9219,718.9941 Q1568.5938,718.6191 1567.9844,718.4004 Q1567.375,718.1816 1566.75,718.1816 Q1565.9844,718.1816 1565.3438,718.5098 Q1564.7188,718.8379 1564.2188,719.5879 Q1563.7344,720.3379 1563.7344,721.3691 L1563.7344,722.4629 Q1563.7344,723.6973 1564.625,724.5254 Q1565.5156,725.3379 1567.1094,725.3379 Q1568.0469,725.3379 1568.7031,725.0879 Q1569.0938,724.9316 1569.5156,724.4941 Q1569.7813,724.2285 1569.9219,724.1504 Q1570.0781,724.0723 1570.2813,724.0723 Q1570.6094,724.0723 1570.8594,724.3379 Q1571.125,724.5879 1571.125,724.9316 Q1571.125,725.2754 1570.7813,725.6816 Q1570.2813,726.2598 1569.4844,726.5879 Q1568.4063,727.041 1567.1094,727.041 Q1565.5938,727.041 1564.3906,726.416 Q1563.4063,725.916 1562.7188,724.8535 Q1562.0313,723.7754 1562.0313,722.4941 L1562.0313,721.3379 Q1562.0313,720.0098 1562.6406,718.8691 Q1563.2656,717.7129 1564.3594,717.1035 Q1565.4531,716.4785 1566.6875,716.4785 Q1567.4219,716.4785 1568.0625,716.6504 Q1568.7188,716.8066 1569.2656,717.166 Z " fill="#000000"/><text fill="#000000" font-family="sans-serif" font-size="12" font-style="italic" lengthAdjust="spacing" textLength="81" x="1578.5" y="716.9492">&#171;value object&#187;</text><text fill="#000000" font-family="sans-serif" font-size="14" lengthAdjust="spacing" textLength="61" x="1588.5" y="735.0684">Password</text><line style="stroke:#181818;stroke-width:0.5;" x1="1552.5" x2="1659.5" y1="743.582" y2="743.582"/><line style="stroke:#181818;stroke-width:0.5;" x1="1552.5" x2="1659.5" y1="751.582" y2="751.582"/></g><!--class Acronym--><g id="elem_Acronym"><rect codeLine="29" fill="#F1F1F1" height="60.582" id="Acronym" rx="2.5" ry="2.5" style="stroke:#181818;stroke-width:0.5;" width="109" x="1141.5" y="449"/><ellipse cx="1156.5" cy="471.291" fill="#ADD1B2" rx="11" ry="11" style="stroke:#181818;stroke-width:1.0;"/><path d="M1159.2656,467.166 Q1159.4219,466.9473 1159.6094,466.8379 Q1159.7969,466.7285 1160.0156,466.7285 Q1160.3906,466.7285 1160.625,466.9941 Q1160.8594,467.2441 1160.8594,467.8535 L1160.8594,469.3066 Q1160.8594,469.916 1160.625,470.1816 Q1160.3906,470.4473 1160.0156,470.4473 Q1159.6719,470.4473 1159.4688,470.2441 Q1159.2656,470.0566 1159.1563,469.541 Q1159.1094,469.1816 1158.9219,468.9941 Q1158.5938,468.6191 1157.9844,468.4004 Q1157.375,468.1816 1156.75,468.1816 Q1155.9844,468.1816 1155.3438,468.5098 Q1154.7188,468.8379 1154.2188,469.5879 Q1153.7344,470.3379 1153.7344,471.3691 L1153.7344,472.4629 Q1153.7344,473.6973 1154.625,474.5254 Q1155.5156,475.3379 1157.1094,475.3379 Q1158.0469,475.3379 1158.7031,475.0879 Q1159.0938,474.9316 1159.5156,474.4941 Q1159.7813,474.2285 1159.9219,474.1504 Q1160.0781,474.0723 1160.2813,474.0723 Q1160.6094,474.0723 1160.8594,474.3379 Q1161.125,474.5879 1161.125,474.9316 Q1161.125,475.2754 1160.7813,475.6816 Q1160.2813,476.2598 1159.4844,476.5879 Q1158.4063,477.041 1157.1094,477.041 Q1155.5938,477.041 1154.3906,476.416 Q1153.4063,475.916 1152.7188,474.8535 Q1152.0313,473.7754 1152.0313,472.4941 L1152.0313,471.3379 Q1152.0313,470.0098 1152.6406,468.8691 Q1153.2656,467.7129 1154.3594,467.1035 Q1155.4531,466.4785 1156.6875,466.4785 Q1157.4219,466.4785 1158.0625,466.6504 Q1158.7188,466.8066 1159.2656,467.166 Z " fill="#000000"/><text fill="#000000" font-family="sans-serif" font-size="12" font-style="italic" lengthAdjust="spacing" textLength="81" x="1168.5" y="466.9492">&#171;value object&#187;</text><text fill="#000000" font-family="sans-serif" font-size="14" lengthAdjust="spacing" textLength="55" x="1181.5" y="485.0684">Acronym</text><line style="stroke:#181818;stroke-width:0.5;" x1="1142.5" x2="1249.5" y1="493.582" y2="493.582"/><line style="stroke:#181818;stroke-width:0.5;" x1="1142.5" x2="1249.5" y1="501.582" y2="501.582"/></g><!--class NIF--><g id="elem_NIF"><rect codeLine="31" fill="#F1F1F1" height="60.582" id="NIF" rx="2.5" ry="2.5" style="stroke:#181818;stroke-width:0.5;" width="109" x="1141.5" y="353"/><ellipse cx="1156.5" cy="375.291" fill="#ADD1B2" rx="11" ry="11" style="stroke:#181818;stroke-width:1.0;"/><path d="M1159.2656,371.166 Q1159.4219,370.9473 1159.6094,370.8379 Q1159.7969,370.7285 1160.0156,370.7285 Q1160.3906,370.7285 1160.625,370.9941 Q1160.8594,371.2441 1160.8594,371.8535 L1160.8594,373.3066 Q1160.8594,373.916 1160.625,374.1816 Q1160.3906,374.4473 1160.0156,374.4473 Q1159.6719,374.4473 1159.4688,374.2441 Q1159.2656,374.0566 1159.1563,373.541 Q1159.1094,373.1816 1158.9219,372.9941 Q1158.5938,372.6191 1157.9844,372.4004 Q1157.375,372.1816 1156.75,372.1816 Q1155.9844,372.1816 1155.3438,372.5098 Q1154.7188,372.8379 1154.2188,373.5879 Q1153.7344,374.3379 1153.7344,375.3691 L1153.7344,376.4629 Q1153.7344,377.6973 1154.625,378.5254 Q1155.5156,379.3379 1157.1094,379.3379 Q1158.0469,379.3379 1158.7031,379.0879 Q1159.0938,378.9316 1159.5156,378.4941 Q1159.7813,378.2285 1159.9219,378.1504 Q1160.0781,378.0723 1160.2813,378.0723 Q1160.6094,378.0723 1160.8594,378.3379 Q1161.125,378.5879 1161.125,378.9316 Q1161.125,379.2754 1160.7813,379.6816 Q1160.2813,380.2598 1159.4844,380.5879 Q1158.4063,381.041 1157.1094,381.041 Q1155.5938,381.041 1154.3906,380.416 Q1153.4063,379.916 1152.7188,378.8535 Q1152.0313,377.7754 1152.0313,376.4941 L1152.0313,375.3379 Q1152.0313,374.0098 1152.6406,372.8691 Q1153.2656,371.7129 1154.3594,371.1035 Q1155.4531,370.4785 1156.6875,370.4785 Q1157.4219,370.4785 1158.0625,370.6504 Q1158.7188,370.8066 1159.2656,371.166 Z " fill="#000000"/><text fill="#000000" font-family="sans-serif" font-size="12" font-style="italic" lengthAdjust="spacing" textLength="81" x="1168.5" y="370.9492">&#171;value object&#187;</text><text fill="#000000" font-family="sans-serif" font-size="14" lengthAdjust="spacing" textLength="21" x="1198.5" y="389.0684">NIF</text><line style="stroke:#181818;stroke-width:0.5;" x1="1142.5" x2="1249.5" y1="397.582" y2="397.582"/><line style="stroke:#181818;stroke-width:0.5;" x1="1142.5" x2="1249.5" y1="405.582" y2="405.582"/></g><!--class BirthDate--><g id="elem_BirthDate"><rect codeLine="33" fill="#F1F1F1" height="60.582" id="BirthDate" rx="2.5" ry="2.5" style="stroke:#181818;stroke-width:0.5;" width="109" x="1141.5" y="257"/><ellipse cx="1156.5" cy="279.291" fill="#ADD1B2" rx="11" ry="11" style="stroke:#181818;stroke-width:1.0;"/><path d="M1159.2656,275.166 Q1159.4219,274.9473 1159.6094,274.8379 Q1159.7969,274.7285 1160.0156,274.7285 Q1160.3906,274.7285 1160.625,274.9941 Q1160.8594,275.2441 1160.8594,275.8535 L1160.8594,277.3066 Q1160.8594,277.916 1160.625,278.1816 Q1160.3906,278.4473 1160.0156,278.4473 Q1159.6719,278.4473 1159.4688,278.2441 Q1159.2656,278.0566 1159.1563,277.541 Q1159.1094,277.1816 1158.9219,276.9941 Q1158.5938,276.6191 1157.9844,276.4004 Q1157.375,276.1816 1156.75,276.1816 Q1155.9844,276.1816 1155.3438,276.5098 Q1154.7188,276.8379 1154.2188,277.5879 Q1153.7344,278.3379 1153.7344,279.3691 L1153.7344,280.4629 Q1153.7344,281.6973 1154.625,282.5254 Q1155.5156,283.3379 1157.1094,283.3379 Q1158.0469,283.3379 1158.7031,283.0879 Q1159.0938,282.9316 1159.5156,282.4941 Q1159.7813,282.2285 1159.9219,282.1504 Q1160.0781,282.0723 1160.2813,282.0723 Q1160.6094,282.0723 1160.8594,282.3379 Q1161.125,282.5879 1161.125,282.9316 Q1161.125,283.2754 1160.7813,283.6816 Q1160.2813,284.2598 1159.4844,284.5879 Q1158.4063,285.041 1157.1094,285.041 Q1155.5938,285.041 1154.3906,284.416 Q1153.4063,283.916 1152.7188,282.8535 Q1152.0313,281.7754 1152.0313,280.4941 L1152.0313,279.3379 Q1152.0313,278.0098 1152.6406,276.8691 Q1153.2656,275.7129 1154.3594,275.1035 Q1155.4531,274.4785 1156.6875,274.4785 Q1157.4219,274.4785 1158.0625,274.6504 Q1158.7188,274.8066 1159.2656,275.166 Z " fill="#000000"/><text fill="#000000" font-family="sans-serif" font-size="12" font-style="italic" lengthAdjust="spacing" textLength="81" x="1168.5" y="274.9492">&#171;value object&#187;</text><text fill="#000000" font-family="sans-serif" font-size="14" lengthAdjust="spacing" textLength="59" x="1179.5" y="293.0684">BirthDate</text><line style="stroke:#181818;stroke-width:0.5;" x1="1142.5" x2="1249.5" y1="301.582" y2="301.582"/><line style="stroke:#181818;stroke-width:0.5;" x1="1142.5" x2="1249.5" y1="309.582" y2="309.582"/></g><!--class MechanographicNumber--><g id="elem_MechanographicNumber"><rect codeLine="35" fill="#F1F1F1" height="76.543" id="MechanographicNumber" rx="2.5" ry="2.5" style="stroke:#181818;stroke-width:0.5;" width="186" x="1103" y="145"/><ellipse cx="1118" cy="175.2715" fill="#ADD1B2" rx="11" ry="11" style="stroke:#181818;stroke-width:1.0;"/><path d="M1120.7656,171.1465 Q1120.9219,170.9277 1121.1094,170.8184 Q1121.2969,170.709 1121.5156,170.709 Q1121.8906,170.709 1122.125,170.9746 Q1122.3594,171.2246 1122.3594,171.834 L1122.3594,173.2871 Q1122.3594,173.8965 1122.125,174.1621 Q1121.8906,174.4277 1121.5156,174.4277 Q1121.1719,174.4277 1120.9688,174.2246 Q1120.7656,174.0371 1120.6563,173.5215 Q1120.6094,173.1621 1120.4219,172.9746 Q1120.0938,172.5996 1119.4844,172.3809 Q1118.875,172.1621 1118.25,172.1621 Q1117.4844,172.1621 1116.8438,172.4902 Q1116.2188,172.8184 1115.7188,173.5684 Q1115.2344,174.3184 1115.2344,175.3496 L1115.2344,176.4434 Q1115.2344,177.6777 1116.125,178.5059 Q1117.0156,179.3184 1118.6094,179.3184 Q1119.5469,179.3184 1120.2031,179.0684 Q1120.5938,178.9121 1121.0156,178.4746 Q1121.2813,178.209 1121.4219,178.1309 Q1121.5781,178.0527 1121.7813,178.0527 Q1122.1094,178.0527 1122.3594,178.3184 Q1122.625,178.5684 1122.625,178.9121 Q1122.625,179.2559 1122.2813,179.6621 Q1121.7813,180.2402 1120.9844,180.5684 Q1119.9063,181.0215 1118.6094,181.0215 Q1117.0938,181.0215 1115.8906,180.3965 Q1114.9063,179.8965 1114.2188,178.834 Q1113.5313,177.7559 1113.5313,176.4746 L1113.5313,175.3184 Q1113.5313,173.9902 1114.1406,172.8496 Q1114.7656,171.6934 1115.8594,171.084 Q1116.9531,170.459 1118.1875,170.459 Q1118.9219,170.459 1119.5625,170.6309 Q1120.2188,170.7871 1120.7656,171.1465 Z " fill="#000000"/><text fill="#000000" font-family="sans-serif" font-size="12" font-style="italic" lengthAdjust="spacing" textLength="81" x="1168.5" y="162.9492">&#171;value object&#187;</text><text fill="#000000" font-family="sans-serif" font-size="12" font-style="italic" lengthAdjust="spacing" textLength="146" x="1136" y="178.9102">&#171;automatically generated&#187;</text><text fill="#000000" font-family="sans-serif" font-size="14" lengthAdjust="spacing" textLength="154" x="1132" y="197.0293">MechanographicNumber</text><line style="stroke:#181818;stroke-width:0.5;" x1="1104" x2="1288" y1="205.543" y2="205.543"/><line style="stroke:#181818;stroke-width:0.5;" x1="1104" x2="1288" y1="213.543" y2="213.543"/></g><!--class Grade--><g id="elem_Grade"><rect codeLine="37" fill="#F1F1F1" height="60.582" id="Grade" rx="2.5" ry="2.5" style="stroke:#181818;stroke-width:0.5;" width="109" x="1141.5" y="865"/><ellipse cx="1156.5" cy="887.291" fill="#ADD1B2" rx="11" ry="11" style="stroke:#181818;stroke-width:1.0;"/><path d="M1159.2656,883.166 Q1159.4219,882.9473 1159.6094,882.8379 Q1159.7969,882.7285 1160.0156,882.7285 Q1160.3906,882.7285 1160.625,882.9941 Q1160.8594,883.2441 1160.8594,883.8535 L1160.8594,885.3066 Q1160.8594,885.916 1160.625,886.1816 Q1160.3906,886.4473 1160.0156,886.4473 Q1159.6719,886.4473 1159.4688,886.2441 Q1159.2656,886.0566 1159.1563,885.541 Q1159.1094,885.1816 1158.9219,884.9941 Q1158.5938,884.6191 1157.9844,884.4004 Q1157.375,884.1816 1156.75,884.1816 Q1155.9844,884.1816 1155.3438,884.5098 Q1154.7188,884.8379 1154.2188,885.5879 Q1153.7344,886.3379 1153.7344,887.3691 L1153.7344,888.4629 Q1153.7344,889.6973 1154.625,890.5254 Q1155.5156,891.3379 1157.1094,891.3379 Q1158.0469,891.3379 1158.7031,891.0879 Q1159.0938,890.9316 1159.5156,890.4941 Q1159.7813,890.2285 1159.9219,890.1504 Q1160.0781,890.0723 1160.2813,890.0723 Q1160.6094,890.0723 1160.8594,890.3379 Q1161.125,890.5879 1161.125,890.9316 Q1161.125,891.2754 1160.7813,891.6816 Q1160.2813,892.2598 1159.4844,892.5879 Q1158.4063,893.041 1157.1094,893.041 Q1155.5938,893.041 1154.3906,892.416 Q1153.4063,891.916 1152.7188,890.8535 Q1152.0313,889.7754 1152.0313,888.4941 L1152.0313,887.3379 Q1152.0313,886.0098 1152.6406,884.8691 Q1153.2656,883.7129 1154.3594,883.1035 Q1155.4531,882.4785 1156.6875,882.4785 Q1157.4219,882.4785 1158.0625,882.6504 Q1158.7188,882.8066 1159.2656,883.166 Z " fill="#000000"/><text fill="#000000" font-family="sans-serif" font-size="12" font-style="italic" lengthAdjust="spacing" textLength="81" x="1168.5" y="882.9492">&#171;value object&#187;</text><text fill="#000000" font-family="sans-serif" font-size="14" lengthAdjust="spacing" textLength="40" x="1189" y="901.0684">Grade</text><line style="stroke:#181818;stroke-width:0.5;" x1="1142.5" x2="1249.5" y1="909.582" y2="909.582"/><line style="stroke:#181818;stroke-width:0.5;" x1="1142.5" x2="1249.5" y1="917.582" y2="917.582"/></g><!--class Course--><g id="elem_Course"><rect codeLine="42" fill="#F1F1F1" height="95.1641" id="Course" rx="2.5" ry="2.5" style="stroke:#181818;stroke-width:0.5;" width="124" x="22" y="268"/><ellipse cx="57.7" cy="298.2715" fill="#ADD1B2" rx="11" ry="11" style="stroke:#181818;stroke-width:1.0;"/><path d="M60.4656,294.1465 Q60.6219,293.9277 60.8094,293.8184 Q60.9969,293.709 61.2156,293.709 Q61.5906,293.709 61.825,293.9746 Q62.0594,294.2246 62.0594,294.834 L62.0594,296.2871 Q62.0594,296.8965 61.825,297.1621 Q61.5906,297.4277 61.2156,297.4277 Q60.8719,297.4277 60.6688,297.2246 Q60.4656,297.0371 60.3563,296.5215 Q60.3094,296.1621 60.1219,295.9746 Q59.7938,295.5996 59.1844,295.3809 Q58.575,295.1621 57.95,295.1621 Q57.1844,295.1621 56.5438,295.4902 Q55.9188,295.8184 55.4188,296.5684 Q54.9344,297.3184 54.9344,298.3496 L54.9344,299.4434 Q54.9344,300.6777 55.825,301.5059 Q56.7156,302.3184 58.3094,302.3184 Q59.2469,302.3184 59.9031,302.0684 Q60.2938,301.9121 60.7156,301.4746 Q60.9813,301.209 61.1219,301.1309 Q61.2781,301.0527 61.4813,301.0527 Q61.8094,301.0527 62.0594,301.3184 Q62.325,301.5684 62.325,301.9121 Q62.325,302.2559 61.9813,302.6621 Q61.4813,303.2402 60.6844,303.5684 Q59.6063,304.0215 58.3094,304.0215 Q56.7938,304.0215 55.5906,303.3965 Q54.6063,302.8965 53.9188,301.834 Q53.2313,300.7559 53.2313,299.4746 L53.2313,298.3184 Q53.2313,296.9902 53.8406,295.8496 Q54.4656,294.6934 55.5594,294.084 Q56.6531,293.459 57.8875,293.459 Q58.6219,293.459 59.2625,293.6309 Q59.9188,293.7871 60.4656,294.1465 Z " fill="#000000"/><text fill="#000000" font-family="sans-serif" font-size="12" font-style="italic" lengthAdjust="spacing" textLength="35" x="81.8" y="285.9492">&#171;root&#187;</text><text fill="#000000" font-family="sans-serif" font-size="12" font-style="italic" lengthAdjust="spacing" textLength="43" x="77.8" y="301.9102">&#171;entity&#187;</text><text fill="#000000" font-family="sans-serif" font-size="14" lengthAdjust="spacing" textLength="46" x="76.3" y="320.0293">Course</text><line style="stroke:#181818;stroke-width:0.5;" x1="23" x2="145" y1="328.543" y2="328.543"/><ellipse cx="33" cy="343.3535" fill="#000000" rx="3" ry="3" style="stroke:#000000;stroke-width:1.0;"/><text fill="#000000" font-family="sans-serif" font-size="14" lengthAdjust="spacing" textLength="98" x="42" y="347.6504">name &#171;unique&#187;</text><line style="stroke:#181818;stroke-width:0.5;" x1="23" x2="145" y1="355.1641" y2="355.1641"/></g><!--class CourseStatus--><g id="elem_CourseStatus"><rect codeLine="47" fill="#F1F1F1" height="97.8242" id="CourseStatus" rx="2.5" ry="2.5" style="stroke:#181818;stroke-width:0.5;" width="118" x="278" y="265.5"/><ellipse cx="293" cy="287.791" fill="#EB937F" rx="11" ry="11" style="stroke:#181818;stroke-width:1.0;"/><path d="M291.8594,288.5879 L291.8594,291.0879 L296.1875,291.0879 L296.1875,290.166 Q296.1875,289.5566 296.4219,289.291 Q296.6719,289.0254 297.0469,289.0254 Q297.4219,289.0254 297.6563,289.291 Q297.8906,289.5566 297.8906,290.166 L297.8906,292.791 L289.8906,292.791 Q289.2656,292.791 289,292.5566 Q288.75,292.3223 288.75,291.9316 Q288.75,291.5566 289.0156,291.3223 Q289.2813,291.0879 289.8906,291.0879 L290.1563,291.0879 L290.1563,284.4316 L289.8906,284.4316 Q289.2656,284.4316 289,284.1973 Q288.75,283.9629 288.75,283.5723 Q288.75,283.1973 289,282.9629 Q289.2656,282.7285 289.8906,282.7285 L297.5156,282.7285 L297.5156,285.3223 Q297.5156,285.9316 297.2813,286.1973 Q297.0625,286.4473 296.6719,286.4473 Q296.2969,286.4473 296.0625,286.1973 Q295.8281,285.9316 295.8281,285.3223 L295.8281,284.4316 L291.8594,284.4316 L291.8594,286.8848 L293.3438,286.8848 Q293.3438,286.2285 293.4688,286.041 Q293.7344,285.6348 294.2031,285.6348 Q294.5781,285.6348 294.8125,285.9004 Q295.0469,286.1504 295.0469,286.7598 L295.0469,288.7285 Q295.0469,289.2754 294.9219,289.4629 Q294.6563,289.8535 294.2031,289.8535 Q293.7344,289.8535 293.4688,289.4473 Q293.3438,289.2598 293.3438,288.5879 L291.8594,288.5879 Z " fill="#000000"/><text fill="#000000" font-family="sans-serif" font-size="12" font-style="italic" lengthAdjust="spacing" textLength="46" x="327" y="283.4492">&#171;enum&#187;</text><text fill="#000000" font-family="sans-serif" font-size="14" lengthAdjust="spacing" textLength="86" x="307" y="301.5684">CourseStatus</text><line style="stroke:#181818;stroke-width:0.5;" x1="279" x2="395" y1="310.082" y2="310.082"/><ellipse cx="289" cy="324.8926" fill="none" rx="3" ry="3" style="stroke:#038048;stroke-width:1.0;"/><text fill="#000000" font-family="sans-serif" font-size="14" lengthAdjust="spacing" textLength="38" x="298" y="329.1895">OPEN</text><ellipse cx="289" cy="343.5137" fill="none" rx="3" ry="3" style="stroke:#038048;stroke-width:1.0;"/><text fill="#000000" font-family="sans-serif" font-size="14" lengthAdjust="spacing" textLength="57" x="298" y="347.8105">CLOSED</text><line style="stroke:#181818;stroke-width:0.5;" x1="279" x2="395" y1="355.3242" y2="355.3242"/></g><!--class CourseCode--><g id="elem_CourseCode"><rect codeLine="52" fill="#F1F1F1" height="60.582" id="CourseCode" rx="2.5" ry="2.5" style="stroke:#181818;stroke-width:0.5;" width="112" x="281" y="169"/><ellipse cx="296" cy="191.291" fill="#ADD1B2" rx="11" ry="11" style="stroke:#181818;stroke-width:1.0;"/><path d="M298.7656,187.166 Q298.9219,186.9473 299.1094,186.8379 Q299.2969,186.7285 299.5156,186.7285 Q299.8906,186.7285 300.125,186.9941 Q300.3594,187.2441 300.3594,187.8535 L300.3594,189.3066 Q300.3594,189.916 300.125,190.1816 Q299.8906,190.4473 299.5156,190.4473 Q299.1719,190.4473 298.9688,190.2441 Q298.7656,190.0566 298.6563,189.541 Q298.6094,189.1816 298.4219,188.9941 Q298.0938,188.6191 297.4844,188.4004 Q296.875,188.1816 296.25,188.1816 Q295.4844,188.1816 294.8438,188.5098 Q294.2188,188.8379 293.7188,189.5879 Q293.2344,190.3379 293.2344,191.3691 L293.2344,192.4629 Q293.2344,193.6973 294.125,194.5254 Q295.0156,195.3379 296.6094,195.3379 Q297.5469,195.3379 298.2031,195.0879 Q298.5938,194.9316 299.0156,194.4941 Q299.2813,194.2285 299.4219,194.1504 Q299.5781,194.0723 299.7813,194.0723 Q300.1094,194.0723 300.3594,194.3379 Q300.625,194.5879 300.625,194.9316 Q300.625,195.2754 300.2813,195.6816 Q299.7813,196.2598 298.9844,196.5879 Q297.9063,197.041 296.6094,197.041 Q295.0938,197.041 293.8906,196.416 Q292.9063,195.916 292.2188,194.8535 Q291.5313,193.7754 291.5313,192.4941 L291.5313,191.3379 Q291.5313,190.0098 292.1406,188.8691 Q292.7656,187.7129 293.8594,187.1035 Q294.9531,186.4785 296.1875,186.4785 Q296.9219,186.4785 297.5625,186.6504 Q298.2188,186.8066 298.7656,187.166 Z " fill="#000000"/><text fill="#000000" font-family="sans-serif" font-size="12" font-style="italic" lengthAdjust="spacing" textLength="81" x="309.5" y="186.9492">&#171;value object&#187;</text><text fill="#000000" font-family="sans-serif" font-size="14" lengthAdjust="spacing" textLength="80" x="310" y="205.0684">CourseCode</text><line style="stroke:#181818;stroke-width:0.5;" x1="282" x2="392" y1="213.582" y2="213.582"/><line style="stroke:#181818;stroke-width:0.5;" x1="282" x2="392" y1="221.582" y2="221.582"/></g><!--class Exam--><g id="elem_Exam"><rect codeLine="56" fill="#F1F1F1" height="169.6484" id="Exam" rx="2.5" ry="2.5" style="stroke:#181818;stroke-width:0.5;" width="120" x="277" y="459.5"/><ellipse cx="313.6" cy="489.7715" fill="#ADD1B2" rx="11" ry="11" style="stroke:#181818;stroke-width:1.0;"/><path d="M316.3656,485.6465 Q316.5219,485.4277 316.7094,485.3184 Q316.8969,485.209 317.1156,485.209 Q317.4906,485.209 317.725,485.4746 Q317.9594,485.7246 317.9594,486.334 L317.9594,487.7871 Q317.9594,488.3965 317.725,488.6621 Q317.4906,488.9277 317.1156,488.9277 Q316.7719,488.9277 316.5688,488.7246 Q316.3656,488.5371 316.2563,488.0215 Q316.2094,487.6621 316.0219,487.4746 Q315.6938,487.0996 315.0844,486.8809 Q314.475,486.6621 313.85,486.6621 Q313.0844,486.6621 312.4438,486.9902 Q311.8188,487.3184 311.3188,488.0684 Q310.8344,488.8184 310.8344,489.8496 L310.8344,490.9434 Q310.8344,492.1777 311.725,493.0059 Q312.6156,493.8184 314.2094,493.8184 Q315.1469,493.8184 315.8031,493.5684 Q316.1938,493.4121 316.6156,492.9746 Q316.8813,492.709 317.0219,492.6309 Q317.1781,492.5527 317.3813,492.5527 Q317.7094,492.5527 317.9594,492.8184 Q318.225,493.0684 318.225,493.4121 Q318.225,493.7559 317.8813,494.1621 Q317.3813,494.7402 316.5844,495.0684 Q315.5063,495.5215 314.2094,495.5215 Q312.6938,495.5215 311.4906,494.8965 Q310.5063,494.3965 309.8188,493.334 Q309.1313,492.2559 309.1313,490.9746 L309.1313,489.8184 Q309.1313,488.4902 309.7406,487.3496 Q310.3656,486.1934 311.4594,485.584 Q312.5531,484.959 313.7875,484.959 Q314.5219,484.959 315.1625,485.1309 Q315.8188,485.2871 316.3656,485.6465 Z " fill="#000000"/><text fill="#000000" font-family="sans-serif" font-size="12" font-style="italic" lengthAdjust="spacing" textLength="35" x="334.9" y="477.4492">&#171;root&#187;</text><text fill="#000000" font-family="sans-serif" font-size="12" font-style="italic" lengthAdjust="spacing" textLength="44" x="330.4" y="493.4102">&#171;event&#187;</text><text fill="#000000" font-family="sans-serif" font-size="14" lengthAdjust="spacing" textLength="34" x="335.4" y="511.5293">Exam</text><line style="stroke:#181818;stroke-width:0.5;" x1="278" x2="396" y1="520.043" y2="520.043"/><ellipse cx="288" cy="534.8535" fill="#000000" rx="3" ry="3" style="stroke:#000000;stroke-width:1.0;"/><text fill="#000000" font-family="sans-serif" font-size="14" lengthAdjust="spacing" textLength="94" x="297" y="539.1504">code &#171;unique&#187;</text><ellipse cx="288" cy="553.4746" fill="#000000" rx="3" ry="3" style="stroke:#000000;stroke-width:1.0;"/><text fill="#000000" font-family="sans-serif" font-size="14" lengthAdjust="spacing" textLength="85" x="297" y="557.7715">title &#171;unique&#187;</text><ellipse cx="288" cy="572.0957" fill="#000000" rx="3" ry="3" style="stroke:#000000;stroke-width:1.0;"/><text fill="#000000" font-family="sans-serif" font-size="14" lengthAdjust="spacing" textLength="62" x="297" y="576.3926">openDate</text><ellipse cx="288" cy="590.7168" fill="#000000" rx="3" ry="3" style="stroke:#000000;stroke-width:1.0;"/><text fill="#000000" font-family="sans-serif" font-size="14" lengthAdjust="spacing" textLength="63" x="297" y="595.0137">closeDate</text><ellipse cx="288" cy="609.3379" fill="#000000" rx="3" ry="3" style="stroke:#000000;stroke-width:1.0;"/><text fill="#000000" font-family="sans-serif" font-size="14" lengthAdjust="spacing" textLength="80" x="297" y="613.6348">CourseCode</text><line style="stroke:#181818;stroke-width:0.5;" x1="278" x2="396" y1="621.1484" y2="621.1484"/></g><!--class ExamGrade--><g id="elem_ExamGrade"><rect codeLine="64" fill="#F1F1F1" height="60.582" id="ExamGrade" rx="2.5" ry="2.5" style="stroke:#181818;stroke-width:0.5;" width="109" x="519" y="514"/><ellipse cx="534" cy="536.291" fill="#ADD1B2" rx="11" ry="11" style="stroke:#181818;stroke-width:1.0;"/><path d="M536.7656,532.166 Q536.9219,531.9473 537.1094,531.8379 Q537.2969,531.7285 537.5156,531.7285 Q537.8906,531.7285 538.125,531.9941 Q538.3594,532.2441 538.3594,532.8535 L538.3594,534.3066 Q538.3594,534.916 538.125,535.1816 Q537.8906,535.4473 537.5156,535.4473 Q537.1719,535.4473 536.9688,535.2441 Q536.7656,535.0566 536.6563,534.541 Q536.6094,534.1816 536.4219,533.9941 Q536.0938,533.6191 535.4844,533.4004 Q534.875,533.1816 534.25,533.1816 Q533.4844,533.1816 532.8438,533.5098 Q532.2188,533.8379 531.7188,534.5879 Q531.2344,535.3379 531.2344,536.3691 L531.2344,537.4629 Q531.2344,538.6973 532.125,539.5254 Q533.0156,540.3379 534.6094,540.3379 Q535.5469,540.3379 536.2031,540.0879 Q536.5938,539.9316 537.0156,539.4941 Q537.2813,539.2285 537.4219,539.1504 Q537.5781,539.0723 537.7813,539.0723 Q538.1094,539.0723 538.3594,539.3379 Q538.625,539.5879 538.625,539.9316 Q538.625,540.2754 538.2813,540.6816 Q537.7813,541.2598 536.9844,541.5879 Q535.9063,542.041 534.6094,542.041 Q533.0938,542.041 531.8906,541.416 Q530.9063,540.916 530.2188,539.8535 Q529.5313,538.7754 529.5313,537.4941 L529.5313,536.3379 Q529.5313,535.0098 530.1406,533.8691 Q530.7656,532.7129 531.8594,532.1035 Q532.9531,531.4785 534.1875,531.4785 Q534.9219,531.4785 535.5625,531.6504 Q536.2188,531.8066 536.7656,532.166 Z " fill="#000000"/><text fill="#000000" font-family="sans-serif" font-size="12" font-style="italic" lengthAdjust="spacing" textLength="81" x="546" y="531.9492">&#171;value object&#187;</text><text fill="#000000" font-family="sans-serif" font-size="14" lengthAdjust="spacing" textLength="74" x="549.5" y="550.0684">ExamGrade</text><line style="stroke:#181818;stroke-width:0.5;" x1="520" x2="627" y1="558.582" y2="558.582"/><line style="stroke:#181818;stroke-width:0.5;" x1="520" x2="627" y1="566.582" y2="566.582"/></g><!--class SeeTeacherCourseGradesService--><g id="elem_SeeTeacherCourseGradesService"><rect codeLine="68" fill="#F1F1F1" height="60.582" id="SeeTeacherCourseGradesService" rx="2.5" ry="2.5" style="stroke:#181818;stroke-width:0.5;" width="250" x="1071" y="9"/><ellipse cx="1086" cy="31.291" fill="#ADD1B2" rx="11" ry="11" style="stroke:#181818;stroke-width:1.0;"/><path d="M1088.7656,27.166 Q1088.9219,26.9473 1089.1094,26.8379 Q1089.2969,26.7285 1089.5156,26.7285 Q1089.8906,26.7285 1090.125,26.9941 Q1090.3594,27.2441 1090.3594,27.8535 L1090.3594,29.3066 Q1090.3594,29.916 1090.125,30.1816 Q1089.8906,30.4473 1089.5156,30.4473 Q1089.1719,30.4473 1088.9688,30.2441 Q1088.7656,30.0566 1088.6563,29.541 Q1088.6094,29.1816 1088.4219,28.9941 Q1088.0938,28.6191 1087.4844,28.4004 Q1086.875,28.1816 1086.25,28.1816 Q1085.4844,28.1816 1084.8438,28.5098 Q1084.2188,28.8379 1083.7188,29.5879 Q1083.2344,30.3379 1083.2344,31.3691 L1083.2344,32.4629 Q1083.2344,33.6973 1084.125,34.5254 Q1085.0156,35.3379 1086.6094,35.3379 Q1087.5469,35.3379 1088.2031,35.0879 Q1088.5938,34.9316 1089.0156,34.4941 Q1089.2813,34.2285 1089.4219,34.1504 Q1089.5781,34.0723 1089.7813,34.0723 Q1090.1094,34.0723 1090.3594,34.3379 Q1090.625,34.5879 1090.625,34.9316 Q1090.625,35.2754 1090.2813,35.6816 Q1089.7813,36.2598 1088.9844,36.5879 Q1087.9063,37.041 1086.6094,37.041 Q1085.0938,37.041 1083.8906,36.416 Q1082.9063,35.916 1082.2188,34.8535 Q1081.5313,33.7754 1081.5313,32.4941 L1081.5313,31.3379 Q1081.5313,30.0098 1082.1406,28.8691 Q1082.7656,27.7129 1083.8594,27.1035 Q1084.9531,26.4785 1086.1875,26.4785 Q1086.9219,26.4785 1087.5625,26.6504 Q1088.2188,26.8066 1088.7656,27.166 Z " fill="#000000"/><text fill="#000000" font-family="sans-serif" font-size="12" font-style="italic" lengthAdjust="spacing" textLength="53" x="1182.5" y="26.9492">&#171;service&#187;</text><text fill="#000000" font-family="sans-serif" font-size="14" lengthAdjust="spacing" textLength="218" x="1100" y="45.0684">SeeTeacherCourseGradesService</text><line style="stroke:#181818;stroke-width:0.5;" x1="1072" x2="1320" y1="53.582" y2="53.582"/><line style="stroke:#181818;stroke-width:0.5;" x1="1072" x2="1320" y1="61.582" y2="61.582"/></g><!--class ListExamGradesCourseService--><g id="elem_ListExamGradesCourseService"><rect codeLine="72" fill="#F1F1F1" height="60.582" id="ListExamGradesCourseService" rx="2.5" ry="2.5" style="stroke:#181818;stroke-width:0.5;" width="228" x="1492" y="7"/><ellipse cx="1507" cy="29.291" fill="#ADD1B2" rx="11" ry="11" style="stroke:#181818;stroke-width:1.0;"/><path d="M1509.7656,25.166 Q1509.9219,24.9473 1510.1094,24.8379 Q1510.2969,24.7285 1510.5156,24.7285 Q1510.8906,24.7285 1511.125,24.9941 Q1511.3594,25.2441 1511.3594,25.8535 L1511.3594,27.3066 Q1511.3594,27.916 1511.125,28.1816 Q1510.8906,28.4473 1510.5156,28.4473 Q1510.1719,28.4473 1509.9688,28.2441 Q1509.7656,28.0566 1509.6563,27.541 Q1509.6094,27.1816 1509.4219,26.9941 Q1509.0938,26.6191 1508.4844,26.4004 Q1507.875,26.1816 1507.25,26.1816 Q1506.4844,26.1816 1505.8438,26.5098 Q1505.2188,26.8379 1504.7188,27.5879 Q1504.2344,28.3379 1504.2344,29.3691 L1504.2344,30.4629 Q1504.2344,31.6973 1505.125,32.5254 Q1506.0156,33.3379 1507.6094,33.3379 Q1508.5469,33.3379 1509.2031,33.0879 Q1509.5938,32.9316 1510.0156,32.4941 Q1510.2813,32.2285 1510.4219,32.1504 Q1510.5781,32.0723 1510.7813,32.0723 Q1511.1094,32.0723 1511.3594,32.3379 Q1511.625,32.5879 1511.625,32.9316 Q1511.625,33.2754 1511.2813,33.6816 Q1510.7813,34.2598 1509.9844,34.5879 Q1508.9063,35.041 1507.6094,35.041 Q1506.0938,35.041 1504.8906,34.416 Q1503.9063,33.916 1503.2188,32.8535 Q1502.5313,31.7754 1502.5313,30.4941 L1502.5313,29.3379 Q1502.5313,28.0098 1503.1406,26.8691 Q1503.7656,25.7129 1504.8594,25.1035 Q1505.9531,24.4785 1507.1875,24.4785 Q1507.9219,24.4785 1508.5625,24.6504 Q1509.2188,24.8066 1509.7656,25.166 Z " fill="#000000"/><text fill="#000000" font-family="sans-serif" font-size="12" font-style="italic" lengthAdjust="spacing" textLength="53" x="1592.5" y="24.9492">&#171;service&#187;</text><text fill="#000000" font-family="sans-serif" font-size="14" lengthAdjust="spacing" textLength="196" x="1521" y="43.0684">ListExamGradesCourseService</text><line style="stroke:#181818;stroke-width:0.5;" x1="1493" x2="1719" y1="51.582" y2="51.582"/><line style="stroke:#181818;stroke-width:0.5;" x1="1493" x2="1719" y1="59.582" y2="59.582"/></g><!--link SystemUser to EmailAdderss--><g id="link_SystemUser_EmailAdderss"><path codeLine="80" d="M1249.5,722.37 C1324.27,703.68 1461.22,669.44 1541.56,649.36 " fill="none" id="SystemUser-to-EmailAdderss" style="stroke:#181818;stroke-width:1.0;"/><polygon fill="#181818" points="1546.77,648.06,1537.0686,646.3623,1541.9193,649.2727,1539.0089,654.1234,1546.77,648.06" style="stroke:#181818;stroke-width:1.0;"/><text fill="#000000" font-family="sans-serif" font-size="13" lengthAdjust="spacing" textLength="7" x="1532.1248" y="664.942">1</text></g><!--link SystemUser to Password--><g id="link_SystemUser_Password"><path codeLine="81" d="M1249.5,734.73 C1325.74,733.61 1466.65,731.53 1546.25,730.36 " fill="none" id="SystemUser-to-Password" style="stroke:#181818;stroke-width:1.0;"/><polygon fill="#181818" points="1551.4,730.29,1542.3438,726.419,1546.4005,730.3614,1542.4581,734.4182,1551.4,730.29" style="stroke:#181818;stroke-width:1.0;"/><text fill="#000000" font-family="sans-serif" font-size="13" lengthAdjust="spacing" textLength="7" x="1536.5928" y="745.6143">1</text></g><!--link SystemUser to Role--><g id="link_SystemUser_Role"><path codeLine="82" d="M1249.5,748.24 C1326.9,767.02 1470.94,801.97 1549.83,821.11 " fill="none" id="SystemUser-to-Role" style="stroke:#181818;stroke-width:1.0;"/><polygon fill="#181818" points="1554.94,822.35,1547.1454,816.3297,1550.0826,821.1642,1545.2481,824.1015,1554.94,822.35" style="stroke:#181818;stroke-width:1.0;"/><text fill="#000000" font-family="sans-serif" font-size="13" lengthAdjust="spacing" textLength="7" x="1539.9265" y="816.3518">1</text></g><!--link eCourseSystemUser to SystemUser--><g id="link_eCourseSystemUser_SystemUser"><path codeLine="84" d="M887.51,583.15 C961.64,619.88 1071.35,674.24 1137.72,707.12 " fill="none" id="eCourseSystemUser-to-SystemUser" style="stroke:#181818;stroke-width:1.0;"/><polygon fill="#181818" points="1142.43,709.45,1136.1303,701.8795,1137.9465,707.2368,1132.5891,709.0531,1142.43,709.45" style="stroke:#181818;stroke-width:1.0;"/><text fill="#000000" font-family="sans-serif" font-size="13" lengthAdjust="spacing" textLength="7" x="1127.4045" y="721.0459">1</text></g><!--link eCourseSystemUser to Role--><g id="link_eCourseSystemUser_Role"><path codeLine="85" d="M832.97,583.04 C872.94,644.49 960.69,762.52 1071,809.5 C1155.88,845.64 1430.94,840.73 1549.64,836.73 " fill="none" id="eCourseSystemUser-to-Role" style="stroke:#181818;stroke-width:1.0;"/><polygon fill="#181818" points="1554.83,836.55,1545.6982,832.8607,1549.8329,836.7213,1545.9723,840.856,1554.83,836.55" style="stroke:#181818;stroke-width:1.0;"/><text fill="#000000" font-family="sans-serif" font-size="13" lengthAdjust="spacing" textLength="7" x="1540.142" y="852.0681">1</text></g><!--link eCourseSystemUser to UserStatus--><g id="link_eCourseSystemUser_UserStatus"><path codeLine="86" d="M889.38,554.86 C964.5,564.6 1074.93,578.93 1140.45,587.42 " fill="none" id="eCourseSystemUser-to-UserStatus" style="stroke:#181818;stroke-width:1.0;"/><polygon fill="#181818" points="1145.48,588.08,1137.0692,582.9558,1140.5215,587.437,1136.0403,590.8893,1145.48,588.08" style="stroke:#181818;stroke-width:1.0;"/><text fill="#000000" font-family="sans-serif" font-size="13" lengthAdjust="spacing" textLength="7" x="1130.5458" y="602.4481">1</text></g><!--link eCourseSystemUser to Acronym--><g id="link_eCourseSystemUser_Acronym"><path codeLine="87" d="M889.38,531.03 C962.88,518.64 1070.21,500.54 1136.17,489.42 " fill="none" id="eCourseSystemUser-to-Acronym" style="stroke:#181818;stroke-width:1.0;"/><polygon fill="#181818" points="1141.24,488.56,1131.7014,486.1075,1136.3092,489.3889,1133.0277,493.9967,1141.24,488.56" style="stroke:#181818;stroke-width:1.0;"/><text fill="#000000" font-family="sans-serif" font-size="13" lengthAdjust="spacing" textLength="7" x="1126.4113" y="504.9956">1</text></g><!--link eCourseSystemUser to NIF--><g id="link_eCourseSystemUser_NIF"><path codeLine="88" d="M889.28,509.08 C940.9,486.39 1009.67,456.61 1071,431.5 C1092.35,422.76 1115.93,413.53 1136.74,405.52 " fill="none" id="eCourseSystemUser-to-NIF" style="stroke:#181818;stroke-width:1.0;"/><polygon fill="#181818" points="1141.42,403.72,1131.5837,403.2235,1136.7544,405.5178,1134.4601,410.6885,1141.42,403.72" style="stroke:#181818;stroke-width:1.0;"/><text fill="#000000" font-family="sans-serif" font-size="13" lengthAdjust="spacing" textLength="7" x="1126.6155" y="421.6552">1</text></g><!--link eCourseSystemUser to BirthDate--><g id="link_eCourseSystemUser_BirthDate"><path codeLine="89" d="M849.64,505.86 C898.65,460.31 985.6,384.6 1071,335.5 C1091.47,323.73 1115.37,313.71 1136.7,305.91 " fill="none" id="eCourseSystemUser-to-BirthDate" style="stroke:#181818;stroke-width:1.0;"/><polygon fill="#181818" points="1141.49,304.18,1131.6661,303.4797,1136.7881,305.8807,1134.3872,311.0027,1141.49,304.18" style="stroke:#181818;stroke-width:1.0;"/><text fill="#000000" font-family="sans-serif" font-size="13" lengthAdjust="spacing" textLength="7" x="1126.3323" y="321.7991">1</text></g><!--link eCourseSystemUser to MechanographicNumber--><g id="link_eCourseSystemUser_MechanographicNumber"><path codeLine="90" d="M832.98,505.8 C873.74,441.69 963.6,313.21 1071,239.5 C1079.54,233.64 1088.78,228.15 1098.25,223.07 " fill="none" id="eCourseSystemUser-to-MechanographicNumber" style="stroke:#181818;stroke-width:1.0;"/><polygon fill="#181818" points="1102.91,220.6,1093.0842,221.2729,1098.4904,222.9381,1096.8252,228.3443,1102.91,220.6" style="stroke:#181818;stroke-width:1.0;"/><text fill="#000000" font-family="sans-serif" font-size="13" lengthAdjust="spacing" textLength="7" x="1087.9111" y="238.4355">1</text></g><!--link eCourseSystemUser to Grade--><g id="link_eCourseSystemUser_Grade"><path codeLine="91" d="M810.82,583.02 C815.35,650.07 834.99,787.61 919,856.5 C951.25,882.94 1065.19,891.46 1136.2,894.2 " fill="none" id="eCourseSystemUser-to-Grade" style="stroke:#181818;stroke-width:1.0;"/><polygon fill="#181818" points="1141.23,894.39,1132.3847,890.0587,1136.2334,894.2044,1132.0877,898.0532,1141.23,894.39" style="stroke:#181818;stroke-width:1.0;"/><polygon fill="#000000" points="941.6135,850.6013,937.1079,842.2257,933.0453,846.4737,941.6135,850.6013" style="stroke:#000000;stroke-width:1.0;"/><text fill="#000000" font-family="sans-serif" font-size="13" lengthAdjust="spacing" textLength="79" x="947" y="852.5283">student has a</text><text fill="#000000" font-family="sans-serif" font-size="13" lengthAdjust="spacing" textLength="7" x="1126.4" y="890.1746">1</text></g><!--link eCourseSystemUser to SeeTeacherCourseGradesService--><g id="link_eCourseSystemUser_SeeTeacherCourseGradesService"><path codeLine="93" d="M824.71,505.76 C843.79,459.02 878.93,378.8 919,315.5 C976.28,225 993.03,201.93 1071,128.5 C1092.61,108.15 1119.05,88.56 1141.96,72.97 " fill="none" id="eCourseSystemUser-to-SeeTeacherCourseGradesService" style="stroke:#181818;stroke-width:1.0;"/><polygon fill="#181818" points="1146.2,70.11,1136.5035,71.8356,1142.0574,72.9098,1140.9832,78.4637,1146.2,70.11" style="stroke:#181818;stroke-width:1.0;"/><polygon fill="#000000" points="926.956,147.1129,919.2382,152.6704,923.9788,156.1455,926.956,147.1129" style="stroke:#000000;stroke-width:1.0;"/><text fill="#000000" font-family="sans-serif" font-size="13" lengthAdjust="spacing" textLength="107" x="933" y="156.5283">see course grades</text></g><!--link SeeTeacherCourseGradesService to ListExamGradesCourseService--><g id="link_SeeTeacherCourseGradesService_ListExamGradesCourseService"><path codeLine="94" d="M1321.08,38.89 C1373.77,38.63 1434.91,38.33 1486.93,38.08 " fill="none" id="SeeTeacherCourseGradesService-to-ListExamGradesCourseService" style="stroke:#181818;stroke-width:1.0;"/><polygon fill="#181818" points="1491.93,38.05,1482.9073,34.1015,1486.9301,38.0786,1482.953,42.1014,1491.93,38.05" style="stroke:#181818;stroke-width:1.0;"/><polygon fill="#000000" points="1360.9999,29.1211,1351.9406,26.2264,1351.9693,32.1042,1360.9999,29.1211" style="stroke:#000000;stroke-width:1.0;"/><text fill="#000000" font-family="sans-serif" font-size="13" lengthAdjust="spacing" textLength="96" x="1365" y="34.5283">list exam grades</text></g><!--link Course to CourseStatus--><g id="link_Course_CourseStatus"><path codeLine="97" d="M146.08,315.26 C184.41,315.1 233.74,314.91 272.52,314.75 " fill="none" id="Course-to-CourseStatus" style="stroke:#181818;stroke-width:1.0;"/><polygon fill="#181818" points="277.67,314.73,268.6586,310.7557,272.67,314.7443,268.6815,318.7557,277.67,314.73" style="stroke:#181818;stroke-width:1.0;"/><text fill="#000000" font-family="sans-serif" font-size="13" lengthAdjust="spacing" textLength="7" x="263.0126" y="329.8507">1</text></g><!--link Course to CourseCode--><g id="link_Course_CourseCode"><path codeLine="98" d="M146.08,287.27 C185.54,269.03 236.66,245.41 275.93,227.26 " fill="none" id="Course-to-CourseCode" style="stroke:#181818;stroke-width:1.0;"/><polygon fill="#181818" points="280.65,225.08,270.8024,225.2374,276.114,227.1835,274.1679,232.495,280.65,225.08" style="stroke:#181818;stroke-width:1.0;"/><text fill="#000000" font-family="sans-serif" font-size="13" lengthAdjust="spacing" textLength="7" x="265.9817" y="243.5202">1</text></g><!--link Course to Grade--><g id="link_Course_Grade"><path codeLine="100" d="M94.3,363.02 C123.29,504.21 217.2,911.5 336,911.5 C336,911.5 336,911.5 809.5,911.5 C928.06,911.5 1066.96,903.85 1141.4,899.13 " fill="none" id="Course-Grade" style="stroke:#181818;stroke-width:1.0;"/><polygon fill="#000000" points="543.0494,899.8668,549.7612,906.605,552.44,901.373,543.0494,899.8668" style="stroke:#000000;stroke-width:1.0;"/><text fill="#000000" font-family="sans-serif" font-size="13" lengthAdjust="spacing" textLength="47" x="556.5" y="907.5283">refers to</text><text fill="#000000" font-family="sans-serif" font-size="13" lengthAdjust="spacing" textLength="7" x="96.3269" y="385.2856">1</text><text fill="#000000" font-family="sans-serif" font-size="13" lengthAdjust="spacing" textLength="7" x="1126.5928" y="914.8359">1</text></g><!--link Course to Exam--><g id="link_Course_Exam"><path codeLine="101" d="M137.31,363.23 C177.97,400.32 234.39,451.79 276.72,490.41 " fill="none" id="Course-Exam" style="stroke:#181818;stroke-width:1.0;"/><polygon fill="#000000" points="177.3062,390.7757,182.0077,399.0429,185.9691,394.7005,177.3062,390.7757" style="stroke:#000000;stroke-width:1.0;"/><text fill="#000000" font-family="sans-serif" font-size="13" lengthAdjust="spacing" textLength="54" x="190" y="399.5283">related to</text><text fill="#000000" font-family="sans-serif" font-size="13" lengthAdjust="spacing" textLength="7" x="137.3145" y="385.1746">1</text><text fill="#000000" font-family="sans-serif" font-size="13" lengthAdjust="spacing" textLength="20" x="249.0331" y="499.4871">0..*</text></g><!--link Course to eCourseSystemUser--><g id="link_Course_eCourseSystemUser"><path codeLine="103" d="M94.29,363.18 C111.45,437.23 155.64,578.32 253,645.5 C398.96,746.22 485.18,705.65 652,645.5 C691.52,631.25 731.16,605.28 760.52,583.25 " fill="none" id="Course-eCourseSystemUser" style="stroke:#181818;stroke-width:1.0;"/><polygon fill="#000000" points="428.2523,688.5772,435.9192,694.2049,437.7628,688.6236,428.2523,688.5772" style="stroke:#000000;stroke-width:1.0;"/><text fill="#000000" font-family="sans-serif" font-size="13" lengthAdjust="spacing" textLength="46" x="442" y="695.5283">teaches</text><text fill="#000000" font-family="sans-serif" font-size="13" lengthAdjust="spacing" textLength="5" x="90.3855" y="385.1176">*</text><text fill="#000000" font-family="sans-serif" font-size="13" lengthAdjust="spacing" textLength="5" x="747.7903" y="604.5707">*</text></g><!--link Exam to ExamGrade--><g id="link_Exam_ExamGrade"><path codeLine="105" d="M397.17,544.5 C434.62,544.5 482.64,544.5 518.96,544.5 " fill="none" id="Exam-ExamGrade" style="stroke:#181818;stroke-width:1.0;"/><polygon fill="#000000" points="450.5,535.1455,441.4549,532.2066,441.4549,538.0844,450.5,535.1455" style="stroke:#000000;stroke-width:1.0;"/><text fill="#000000" font-family="sans-serif" font-size="13" lengthAdjust="spacing" textLength="21" x="454.5" y="540.5283">has</text><text fill="#000000" font-family="sans-serif" font-size="13" lengthAdjust="spacing" textLength="7" x="404.9298" y="559.6034">1</text><text fill="#000000" font-family="sans-serif" font-size="13" lengthAdjust="spacing" textLength="7" x="504.1609" y="559.7181">1</text></g><!--link ExamGrade to eCourseSystemUser--><g id="link_ExamGrade_eCourseSystemUser"><path codeLine="106" d="M628.25,544.5 C657.81,544.5 695.07,544.5 727.94,544.5 " fill="none" id="ExamGrade-eCourseSystemUser" style="stroke:#181818;stroke-width:1.0;"/><polygon fill="#000000" points="670,535.1455,660.9549,532.2066,660.9549,538.0844,670,535.1455" style="stroke:#000000;stroke-width:1.0;"/><text fill="#000000" font-family="sans-serif" font-size="13" lengthAdjust="spacing" textLength="21" x="674" y="540.5283">has</text><text fill="#000000" font-family="sans-serif" font-size="13" lengthAdjust="spacing" textLength="7" x="636.0773" y="559.7181">1</text><text fill="#000000" font-family="sans-serif" font-size="13" lengthAdjust="spacing" textLength="7" x="712.928" y="559.3741">1</text></g><!--SRC=[XLNRZfim47ttLrXvMMch9ErhX92o2QrMocKLTglsqGkpuDPWQfkqKRN_NfkhIS3b0SKpPmwUovdSfKeLShLS5epagipO8kBPKiAl4l88vZ4bYI0PGWpU55OS2vga2iTKGAGepn4gIFIJ981dmURuSWg3y7lu7EnVmk0qmvwtJX812L7W-_WlGbW_4IDIul0Y5MGl4eH62SwL1dXUa2kgBXKMDyyzFf0ChAE9oLlJkyq96ruA2V-bleqCCaBPEev1w8FdVIMi1CnVV-WaVTy6dZY3gNk6Ij0ymUDtCzS95L6buOUyp0R17t1mM3_i0ikmVGmxou3fIRz-Sn5hdlFaFTUHuFabSs8EZv-T_WSgLBhLlNEYzX2b9ETwIegKHeSoUwtgFWpG1b8gdX558yBO1IUGWz3KyP3iYo3nsEVUhJchnymC5naCLyzIZu7TV1ZhbscKzfKvrSFUtgCfjUbGm-Fgsl4fE5Z7pUuO1jlRbjL46pwMcvrQy6szToKM_27P8AspJkmggwZ-IfTLxz4bO1CkNa1kEctpC2xXojRdCI8XVJT7-nhL0pm3YL8GDLKL84CGPngPG5d_gbNQHUseL1szRBeo6OFGtGaOCTj9fhIG25aBOJxtyUpJR23uCNyhiZ6VsG48tIwRrj-R7A2APDhThmi7g16v0w4bxl1s0dTWnkJjWDSJiC9IbR6UJPmIYGdsfyhbdWTD0w07kb9pKhaqbJl6iBhcPOMPzc8mIkee4MfMHfk6hVnnNoM2rcNCy_cW00BUz6oPVqpl6lLniRYVrLesE6RMO0tiaDe_hzwtPLjXLMKl3RuYiRxUYt1LbTv7lSM2ZR7My7y0]--></g></svg>