<?xml version="1.0" encoding="us-ascii" standalone="no"?><svg xmlns="http://www.w3.org/2000/svg" xmlns:xlink="http://www.w3.org/1999/xlink" contentStyleType="text/css" height="879px" preserveAspectRatio="none" style="width:1929px;height:879px;background:#FFFFFF;" version="1.1" viewBox="0 0 1929 879" width="1929px" zoomAndPan="magnify"><defs/><g><rect fill="#FFFFFF" height="640.8203" style="stroke:#181818;stroke-width:1.0;" width="10" x="29.5" y="121.5332"/><rect fill="#FFFFFF" height="640.8203" style="stroke:#181818;stroke-width:1.0;" width="10" x="334.5" y="121.5332"/><rect fill="#FFFFFF" height="578.2383" style="stroke:#181818;stroke-width:1.0;" width="10" x="599.5" y="152.8242"/><rect fill="#FFFFFF" height="359.2012" style="stroke:#181818;stroke-width:1.0;" width="10" x="844.5" y="340.5703"/><rect fill="#FFFFFF" height="31.291" style="stroke:#181818;stroke-width:1.0;" width="10" x="1042" y="184.1152"/><rect fill="#FFFFFF" height="62.582" style="stroke:#181818;stroke-width:1.0;" width="10" x="1170" y="246.6973"/><rect fill="#FFFFFF" height="31.291" style="stroke:#181818;stroke-width:1.0;" width="10" x="1260" y="478.7344"/><rect fill="#FFFFFF" height="127.1641" style="stroke:#181818;stroke-width:1.0;" width="10" x="1408.5" y="541.3164"/><rect fill="#FFFFFF" height="75.582" style="stroke:#181818;stroke-width:1.0;" width="10" x="1707" y="371.8613"/><rect fill="#FFFFFF" height="38.291" style="stroke:#181818;stroke-width:1.0;" width="10" x="1854" y="598.8984"/><rect fill="none" height="50.582" style="stroke:#000000;stroke-width:1.5;" width="624.5" x="1298.5" y="556.3164"/><line style="stroke:#181818;stroke-width:0.5;stroke-dasharray:5.0,5.0;" x1="34" x2="34" y1="88.2422" y2="780.3535"/><line style="stroke:#181818;stroke-width:0.5;stroke-dasharray:5.0,5.0;" x1="339" x2="339" y1="88.2422" y2="780.3535"/><line style="stroke:#181818;stroke-width:0.5;stroke-dasharray:5.0,5.0;" x1="604" x2="604" y1="88.2422" y2="780.3535"/><line style="stroke:#181818;stroke-width:0.5;stroke-dasharray:5.0,5.0;" x1="849.5" x2="849.5" y1="88.2422" y2="780.3535"/><line style="stroke:#181818;stroke-width:0.5;stroke-dasharray:5.0,5.0;" x1="1046.5" x2="1046.5" y1="88.2422" y2="780.3535"/><line style="stroke:#181818;stroke-width:0.5;stroke-dasharray:5.0,5.0;" x1="1174.5" x2="1174.5" y1="88.2422" y2="780.3535"/><line style="stroke:#181818;stroke-width:0.5;stroke-dasharray:5.0,5.0;" x1="1264.5" x2="1264.5" y1="88.2422" y2="780.3535"/><line style="stroke:#181818;stroke-width:0.5;stroke-dasharray:5.0,5.0;" x1="1413.5" x2="1413.5" y1="88.2422" y2="780.3535"/><line style="stroke:#181818;stroke-width:0.5;stroke-dasharray:5.0,5.0;" x1="1589.5" x2="1589.5" y1="88.2422" y2="780.3535"/><line style="stroke:#181818;stroke-width:0.5;stroke-dasharray:5.0,5.0;" x1="1711.5" x2="1711.5" y1="88.2422" y2="780.3535"/><line style="stroke:#181818;stroke-width:0.5;stroke-dasharray:5.0,5.0;" x1="1859" x2="1859" y1="88.2422" y2="780.3535"/><text fill="#000000" font-family="sans-serif" font-size="14" lengthAdjust="spacing" textLength="53" x="5" y="84.7285">Teacher</text><ellipse cx="34.5" cy="18.1211" fill="#E2E2F0" rx="8" ry="8" style="stroke:#181818;stroke-width:0.5;"/><path d="M34.5,26.1211 L34.5,53.1211 M21.5,34.1211 L47.5,34.1211 M34.5,53.1211 L21.5,68.1211 M34.5,53.1211 L47.5,68.1211 " fill="none" style="stroke:#181818;stroke-width:0.5;"/><text fill="#000000" font-family="sans-serif" font-size="14" lengthAdjust="spacing" textLength="53" x="5" y="794.4609">Teacher</text><ellipse cx="34.5" cy="806.4746" fill="#E2E2F0" rx="8" ry="8" style="stroke:#181818;stroke-width:0.5;"/><path d="M34.5,814.4746 L34.5,841.4746 M21.5,822.4746 L47.5,822.4746 M34.5,841.4746 L21.5,856.4746 M34.5,841.4746 L47.5,856.4746 " fill="none" style="stroke:#181818;stroke-width:0.5;"/><rect fill="#E2E2F0" height="32.6211" rx="2.5" ry="2.5" style="stroke:#181818;stroke-width:0.5;" width="179" x="250" y="54.6211"/><text fill="#000000" font-family="sans-serif" font-size="14" lengthAdjust="spacing" textLength="165" x="257" y="76.7285">:ListExamGradesCourseUI</text><rect fill="#E2E2F0" height="32.6211" rx="2.5" ry="2.5" style="stroke:#181818;stroke-width:0.5;" width="179" x="250" y="779.3535"/><text fill="#000000" font-family="sans-serif" font-size="14" lengthAdjust="spacing" textLength="165" x="257" y="801.4609">:ListExamGradesCourseUI</text><rect fill="#E2E2F0" height="32.6211" rx="2.5" ry="2.5" style="stroke:#181818;stroke-width:0.5;" width="229" x="490" y="54.6211"/><text fill="#000000" font-family="sans-serif" font-size="14" lengthAdjust="spacing" textLength="215" x="497" y="76.7285">:ListExamGradesCourseController</text><rect fill="#E2E2F0" height="32.6211" rx="2.5" ry="2.5" style="stroke:#181818;stroke-width:0.5;" width="229" x="490" y="779.3535"/><text fill="#000000" font-family="sans-serif" font-size="14" lengthAdjust="spacing" textLength="215" x="497" y="801.4609">:ListExamGradesCourseController</text><rect fill="#E2E2F0" height="51.2422" rx="2.5" ry="2.5" style="stroke:#181818;stroke-width:0.5;" width="232" x="733.5" y="36"/><text fill="#000000" font-family="sans-serif" font-size="14" font-style="italic" lengthAdjust="spacing" textLength="60" x="819.5" y="58.1074">&#171;service&#187;</text><text fill="#000000" font-family="sans-serif" font-size="14" lengthAdjust="spacing" textLength="218" x="740.5" y="76.7285">SeeTeacherCourseGradesService</text><rect fill="#E2E2F0" height="51.2422" rx="2.5" ry="2.5" style="stroke:#181818;stroke-width:0.5;" width="232" x="733.5" y="779.3535"/><text fill="#000000" font-family="sans-serif" font-size="14" font-style="italic" lengthAdjust="spacing" textLength="60" x="819.5" y="801.4609">&#171;service&#187;</text><text fill="#000000" font-family="sans-serif" font-size="14" lengthAdjust="spacing" textLength="218" x="740.5" y="820.082">SeeTeacherCourseGradesService</text><rect fill="#E2E2F0" height="32.6211" rx="2.5" ry="2.5" style="stroke:#181818;stroke-width:0.5;" width="143" x="975.5" y="54.6211"/><text fill="#000000" font-family="sans-serif" font-size="14" lengthAdjust="spacing" textLength="129" x="982.5" y="76.7285">AuthorizationService</text><rect fill="#E2E2F0" height="32.6211" rx="2.5" ry="2.5" style="stroke:#181818;stroke-width:0.5;" width="143" x="975.5" y="779.3535"/><text fill="#000000" font-family="sans-serif" font-size="14" lengthAdjust="spacing" textLength="129" x="982.5" y="801.4609">AuthorizationService</text><rect fill="#E2E2F0" height="32.6211" rx="2.5" ry="2.5" style="stroke:#181818;stroke-width:0.5;" width="93" x="1128.5" y="54.6211"/><text fill="#000000" font-family="sans-serif" font-size="14" lengthAdjust="spacing" textLength="79" x="1135.5" y="76.7285">UserSession</text><rect fill="#E2E2F0" height="32.6211" rx="2.5" ry="2.5" style="stroke:#181818;stroke-width:0.5;" width="93" x="1128.5" y="779.3535"/><text fill="#000000" font-family="sans-serif" font-size="14" lengthAdjust="spacing" textLength="79" x="1135.5" y="801.4609">UserSession</text><rect fill="#E2E2F0" height="32.6211" rx="2.5" ry="2.5" style="stroke:#181818;stroke-width:0.5;" width="67" x="1231.5" y="54.6211"/><text fill="#000000" font-family="sans-serif" font-size="14" lengthAdjust="spacing" textLength="53" x="1238.5" y="76.7285">Teacher</text><rect fill="#E2E2F0" height="32.6211" rx="2.5" ry="2.5" style="stroke:#181818;stroke-width:0.5;" width="67" x="1231.5" y="779.3535"/><text fill="#000000" font-family="sans-serif" font-size="14" lengthAdjust="spacing" textLength="53" x="1238.5" y="801.4609">Teacher</text><rect fill="#E2E2F0" height="51.2422" rx="2.5" ry="2.5" style="stroke:#181818;stroke-width:0.5;" width="210" x="1308.5" y="36"/><text fill="#000000" font-family="sans-serif" font-size="14" font-style="italic" lengthAdjust="spacing" textLength="60" x="1383.5" y="58.1074">&#171;service&#187;</text><text fill="#000000" font-family="sans-serif" font-size="14" lengthAdjust="spacing" textLength="196" x="1315.5" y="76.7285">ListExamGradesCourseService</text><rect fill="#E2E2F0" height="51.2422" rx="2.5" ry="2.5" style="stroke:#181818;stroke-width:0.5;" width="210" x="1308.5" y="779.3535"/><text fill="#000000" font-family="sans-serif" font-size="14" font-style="italic" lengthAdjust="spacing" textLength="60" x="1383.5" y="801.4609">&#171;service&#187;</text><text fill="#000000" font-family="sans-serif" font-size="14" lengthAdjust="spacing" textLength="196" x="1315.5" y="820.082">ListExamGradesCourseService</text><text fill="#000000" font-family="sans-serif" font-size="14" font-style="italic" lengthAdjust="spacing" textLength="79" x="1547" y="66.1074">&#171;repository&#187;</text><text fill="#000000" font-family="sans-serif" font-size="14" lengthAdjust="spacing" textLength="116" x="1528.5" y="84.7285">RepositoryFactory</text><path d="M1571.5,15 C1571.5,5 1589.5,5 1589.5,5 C1589.5,5 1607.5,5 1607.5,15 L1607.5,41 C1607.5,51 1589.5,51 1589.5,51 C1589.5,51 1571.5,51 1571.5,41 L1571.5,15 " fill="#E2E2F0" style="stroke:#181818;stroke-width:1.5;"/><path d="M1571.5,15 C1571.5,25 1589.5,25 1589.5,25 C1589.5,25 1607.5,25 1607.5,15 " fill="none" style="stroke:#181818;stroke-width:1.5;"/><text fill="#000000" font-family="sans-serif" font-size="14" font-style="italic" lengthAdjust="spacing" textLength="79" x="1547" y="794.4609">&#171;repository&#187;</text><text fill="#000000" font-family="sans-serif" font-size="14" lengthAdjust="spacing" textLength="116" x="1528.5" y="813.082">RepositoryFactory</text><path d="M1571.5,826.5957 C1571.5,816.5957 1589.5,816.5957 1589.5,816.5957 C1589.5,816.5957 1607.5,816.5957 1607.5,826.5957 L1607.5,852.5957 C1607.5,862.5957 1589.5,862.5957 1589.5,862.5957 C1589.5,862.5957 1571.5,862.5957 1571.5,852.5957 L1571.5,826.5957 " fill="#E2E2F0" style="stroke:#181818;stroke-width:1.5;"/><path d="M1571.5,826.5957 C1571.5,836.5957 1589.5,836.5957 1589.5,836.5957 C1589.5,836.5957 1607.5,836.5957 1607.5,826.5957 " fill="none" style="stroke:#181818;stroke-width:1.5;"/><text fill="#000000" font-family="sans-serif" font-size="14" font-style="italic" lengthAdjust="spacing" textLength="79" x="1669.5" y="66.1074">&#171;repository&#187;</text><text fill="#000000" font-family="sans-serif" font-size="14" lengthAdjust="spacing" textLength="97" x="1660.5" y="84.7285">UserRepository</text><path d="M1694,15 C1694,5 1712,5 1712,5 C1712,5 1730,5 1730,15 L1730,41 C1730,51 1712,51 1712,51 C1712,51 1694,51 1694,41 L1694,15 " fill="#E2E2F0" style="stroke:#181818;stroke-width:1.5;"/><path d="M1694,15 C1694,25 1712,25 1712,25 C1712,25 1730,25 1730,15 " fill="none" style="stroke:#181818;stroke-width:1.5;"/><text fill="#000000" font-family="sans-serif" font-size="14" font-style="italic" lengthAdjust="spacing" textLength="79" x="1669.5" y="794.4609">&#171;repository&#187;</text><text fill="#000000" font-family="sans-serif" font-size="14" lengthAdjust="spacing" textLength="97" x="1660.5" y="813.082">UserRepository</text><path d="M1694,826.5957 C1694,816.5957 1712,816.5957 1712,816.5957 C1712,816.5957 1730,816.5957 1730,826.5957 L1730,852.5957 C1730,862.5957 1712,862.5957 1712,862.5957 C1712,862.5957 1694,862.5957 1694,852.5957 L1694,826.5957 " fill="#E2E2F0" style="stroke:#181818;stroke-width:1.5;"/><path d="M1694,826.5957 C1694,836.5957 1712,836.5957 1712,836.5957 C1712,836.5957 1730,836.5957 1730,826.5957 " fill="none" style="stroke:#181818;stroke-width:1.5;"/><text fill="#000000" font-family="sans-serif" font-size="14" font-style="italic" lengthAdjust="spacing" textLength="79" x="1816.5" y="66.1074">&#171;repository&#187;</text><text fill="#000000" font-family="sans-serif" font-size="14" lengthAdjust="spacing" textLength="102" x="1805" y="84.7285">ExamRepository</text><path d="M1841,15 C1841,5 1859,5 1859,5 C1859,5 1877,5 1877,15 L1877,41 C1877,51 1859,51 1859,51 C1859,51 1841,51 1841,41 L1841,15 " fill="#E2E2F0" style="stroke:#181818;stroke-width:1.5;"/><path d="M1841,15 C1841,25 1859,25 1859,25 C1859,25 1877,25 1877,15 " fill="none" style="stroke:#181818;stroke-width:1.5;"/><text fill="#000000" font-family="sans-serif" font-size="14" font-style="italic" lengthAdjust="spacing" textLength="79" x="1816.5" y="794.4609">&#171;repository&#187;</text><text fill="#000000" font-family="sans-serif" font-size="14" lengthAdjust="spacing" textLength="102" x="1805" y="813.082">ExamRepository</text><path d="M1841,826.5957 C1841,816.5957 1859,816.5957 1859,816.5957 C1859,816.5957 1877,816.5957 1877,826.5957 L1877,852.5957 C1877,862.5957 1859,862.5957 1859,862.5957 C1859,862.5957 1841,862.5957 1841,852.5957 L1841,826.5957 " fill="#E2E2F0" style="stroke:#181818;stroke-width:1.5;"/><path d="M1841,826.5957 C1841,836.5957 1859,836.5957 1859,836.5957 C1859,836.5957 1877,836.5957 1877,826.5957 " fill="none" style="stroke:#181818;stroke-width:1.5;"/><rect fill="#FFFFFF" height="640.8203" style="stroke:#181818;stroke-width:1.0;" width="10" x="29.5" y="121.5332"/><rect fill="#FFFFFF" height="640.8203" style="stroke:#181818;stroke-width:1.0;" width="10" x="334.5" y="121.5332"/><rect fill="#FFFFFF" height="578.2383" style="stroke:#181818;stroke-width:1.0;" width="10" x="599.5" y="152.8242"/><rect fill="#FFFFFF" height="359.2012" style="stroke:#181818;stroke-width:1.0;" width="10" x="844.5" y="340.5703"/><rect fill="#FFFFFF" height="31.291" style="stroke:#181818;stroke-width:1.0;" width="10" x="1042" y="184.1152"/><rect fill="#FFFFFF" height="62.582" style="stroke:#181818;stroke-width:1.0;" width="10" x="1170" y="246.6973"/><rect fill="#FFFFFF" height="31.291" style="stroke:#181818;stroke-width:1.0;" width="10" x="1260" y="478.7344"/><rect fill="#FFFFFF" height="127.1641" style="stroke:#181818;stroke-width:1.0;" width="10" x="1408.5" y="541.3164"/><rect fill="#FFFFFF" height="75.582" style="stroke:#181818;stroke-width:1.0;" width="10" x="1707" y="371.8613"/><rect fill="#FFFFFF" height="38.291" style="stroke:#181818;stroke-width:1.0;" width="10" x="1854" y="598.8984"/><polygon fill="#181818" points="322.5,117.5332,332.5,121.5332,322.5,125.5332,326.5,121.5332" style="stroke:#181818;stroke-width:1.0;"/><line style="stroke:#181818;stroke-width:1.0;" x1="39.5" x2="328.5" y1="121.5332" y2="121.5332"/><text fill="#000000" font-family="sans-serif" font-size="13" font-weight="bold" lengthAdjust="spacing" textLength="7" x="46.5" y="116.2705">1</text><text fill="#000000" font-family="sans-serif" font-size="13" lengthAdjust="spacing" textLength="270" x="57.5" y="116.2705">Starts asking to list exam grades of his course</text><polygon fill="#181818" points="587.5,148.8242,597.5,152.8242,587.5,156.8242,591.5,152.8242" style="stroke:#181818;stroke-width:1.0;"/><line style="stroke:#181818;stroke-width:1.0;" x1="344.5" x2="593.5" y1="152.8242" y2="152.8242"/><text fill="#000000" font-family="sans-serif" font-size="13" font-weight="bold" lengthAdjust="spacing" textLength="7" x="351.5" y="147.5615">2</text><text fill="#000000" font-family="sans-serif" font-size="13" lengthAdjust="spacing" textLength="156" x="362.5" y="147.5615">getExamGradesOfCourse()</text><polygon fill="#181818" points="1030,180.1152,1040,184.1152,1030,188.1152,1034,184.1152" style="stroke:#181818;stroke-width:1.0;"/><line style="stroke:#181818;stroke-width:1.0;" x1="609.5" x2="1036" y1="184.1152" y2="184.1152"/><text fill="#000000" font-family="sans-serif" font-size="13" font-weight="bold" lengthAdjust="spacing" textLength="7" x="616.5" y="178.8525">3</text><text fill="#000000" font-family="sans-serif" font-size="13" lengthAdjust="spacing" textLength="53" x="627.5" y="178.8525">session()</text><polygon fill="#181818" points="620.5,211.4063,610.5,215.4063,620.5,219.4063,616.5,215.4063" style="stroke:#181818;stroke-width:1.0;"/><line style="stroke:#181818;stroke-width:1.0;stroke-dasharray:2.0,2.0;" x1="614.5" x2="1046" y1="215.4063" y2="215.4063"/><text fill="#000000" font-family="sans-serif" font-size="13" font-weight="bold" lengthAdjust="spacing" textLength="7" x="626.5" y="210.1436">4</text><text fill="#000000" font-family="sans-serif" font-size="13" lengthAdjust="spacing" textLength="45" x="637.5" y="210.1436">session</text><polygon fill="#181818" points="1158,242.6973,1168,246.6973,1158,250.6973,1162,246.6973" style="stroke:#181818;stroke-width:1.0;"/><line style="stroke:#181818;stroke-width:1.0;" x1="609.5" x2="1164" y1="246.6973" y2="246.6973"/><text fill="#000000" font-family="sans-serif" font-size="13" font-weight="bold" lengthAdjust="spacing" textLength="7" x="616.5" y="241.4346">5</text><text fill="#000000" font-family="sans-serif" font-size="13" lengthAdjust="spacing" textLength="113" x="627.5" y="241.4346">authenticatedUser()</text><polygon fill="#181818" points="620.5,273.9883,610.5,277.9883,620.5,281.9883,616.5,277.9883" style="stroke:#181818;stroke-width:1.0;"/><line style="stroke:#181818;stroke-width:1.0;stroke-dasharray:2.0,2.0;" x1="614.5" x2="1169" y1="277.9883" y2="277.9883"/><text fill="#000000" font-family="sans-serif" font-size="13" font-weight="bold" lengthAdjust="spacing" textLength="7" x="626.5" y="272.7256">6</text><text fill="#000000" font-family="sans-serif" font-size="13" lengthAdjust="spacing" textLength="25" x="637.5" y="272.7256">user</text><polygon fill="#181818" points="1577.5,305.2793,1587.5,309.2793,1577.5,313.2793,1581.5,309.2793" style="stroke:#181818;stroke-width:1.0;"/><line style="stroke:#181818;stroke-width:1.0;" x1="609.5" x2="1583.5" y1="309.2793" y2="309.2793"/><text fill="#000000" font-family="sans-serif" font-size="13" font-weight="bold" lengthAdjust="spacing" textLength="7" x="616.5" y="304.0166">7</text><text fill="#000000" font-family="sans-serif" font-size="13" lengthAdjust="spacing" textLength="4" x="627.5" y="304.0166">&#160;</text><polygon fill="#181818" points="832.5,336.5703,842.5,340.5703,832.5,344.5703,836.5,340.5703" style="stroke:#181818;stroke-width:1.0;"/><line style="stroke:#181818;stroke-width:1.0;" x1="609.5" x2="838.5" y1="340.5703" y2="340.5703"/><text fill="#000000" font-family="sans-serif" font-size="13" font-weight="bold" lengthAdjust="spacing" textLength="7" x="616.5" y="335.3076">8</text><text fill="#000000" font-family="sans-serif" font-size="13" lengthAdjust="spacing" textLength="181" x="627.5" y="335.3076">getExamGradesOfCourse(user)</text><polygon fill="#181818" points="1695,367.8613,1705,371.8613,1695,375.8613,1699,371.8613" style="stroke:#181818;stroke-width:1.0;"/><line style="stroke:#181818;stroke-width:1.0;" x1="854.5" x2="1701" y1="371.8613" y2="371.8613"/><text fill="#000000" font-family="sans-serif" font-size="13" font-weight="bold" lengthAdjust="spacing" textLength="7" x="861.5" y="366.5986">9</text><text fill="#000000" font-family="sans-serif" font-size="13" lengthAdjust="spacing" textLength="99" x="872.5" y="366.5986">searchUser(user)</text><line style="stroke:#181818;stroke-width:1.0;" x1="1717" x2="1759" y1="403.1523" y2="403.1523"/><line style="stroke:#181818;stroke-width:1.0;" x1="1759" x2="1759" y1="403.1523" y2="416.1523"/><line style="stroke:#181818;stroke-width:1.0;" x1="1718" x2="1759" y1="416.1523" y2="416.1523"/><polygon fill="#181818" points="1728,412.1523,1718,416.1523,1728,420.1523,1724,416.1523" style="stroke:#181818;stroke-width:1.0;"/><text fill="#000000" font-family="sans-serif" font-size="13" font-weight="bold" lengthAdjust="spacing" textLength="14" x="1724" y="397.8896">10</text><text fill="#000000" font-family="sans-serif" font-size="13" lengthAdjust="spacing" textLength="105" x="1742" y="397.8896">searchUser(email)</text><polygon fill="#181818" points="865.5,443.4434,855.5,447.4434,865.5,451.4434,861.5,447.4434" style="stroke:#181818;stroke-width:1.0;"/><line style="stroke:#181818;stroke-width:1.0;stroke-dasharray:2.0,2.0;" x1="859.5" x2="1711" y1="447.4434" y2="447.4434"/><text fill="#000000" font-family="sans-serif" font-size="13" font-weight="bold" lengthAdjust="spacing" textLength="14" x="871.5" y="442.1807">11</text><text fill="#000000" font-family="sans-serif" font-size="13" lengthAdjust="spacing" textLength="43" x="889.5" y="442.1807">teacher</text><polygon fill="#181818" points="1248,474.7344,1258,478.7344,1248,482.7344,1252,478.7344" style="stroke:#181818;stroke-width:1.0;"/><line style="stroke:#181818;stroke-width:1.0;" x1="854.5" x2="1254" y1="478.7344" y2="478.7344"/><text fill="#000000" font-family="sans-serif" font-size="13" font-weight="bold" lengthAdjust="spacing" textLength="14" x="861.5" y="473.4717">12</text><text fill="#000000" font-family="sans-serif" font-size="13" lengthAdjust="spacing" textLength="102" x="879.5" y="473.4717">isRegent(teacher)</text><polygon fill="#181818" points="865.5,506.0254,855.5,510.0254,865.5,514.0254,861.5,510.0254" style="stroke:#181818;stroke-width:1.0;"/><line style="stroke:#181818;stroke-width:1.0;stroke-dasharray:2.0,2.0;" x1="859.5" x2="1264" y1="510.0254" y2="510.0254"/><text fill="#000000" font-family="sans-serif" font-size="13" font-weight="bold" lengthAdjust="spacing" textLength="14" x="871.5" y="504.7627">13</text><text fill="#000000" font-family="sans-serif" font-size="13" lengthAdjust="spacing" textLength="39" x="889.5" y="504.7627">course</text><polygon fill="#181818" points="1396.5,537.3164,1406.5,541.3164,1396.5,545.3164,1400.5,541.3164" style="stroke:#181818;stroke-width:1.0;"/><line style="stroke:#181818;stroke-width:1.0;stroke-dasharray:2.0,2.0;" x1="854.5" x2="1402.5" y1="541.3164" y2="541.3164"/><text fill="#000000" font-family="sans-serif" font-size="13" font-weight="bold" lengthAdjust="spacing" textLength="14" x="861.5" y="536.0537">14</text><text fill="#000000" font-family="sans-serif" font-size="13" lengthAdjust="spacing" textLength="213" x="879.5" y="536.0537">getgetExamGradesOfCourse(course)</text><path d="M1298.5,556.3164 L1371.5,556.3164 L1371.5,565.6074 L1361.5,575.6074 L1298.5,575.6074 L1298.5,556.3164 " fill="#EEEEEE" style="stroke:#000000;stroke-width:1.5;"/><rect fill="none" height="50.582" style="stroke:#000000;stroke-width:1.5;" width="624.5" x="1298.5" y="556.3164"/><text fill="#000000" font-family="sans-serif" font-size="13" font-weight="bold" lengthAdjust="spacing" textLength="28" x="1313.5" y="571.3447">loop</text><text fill="#000000" font-family="sans-serif" font-size="11" font-weight="bold" lengthAdjust="spacing" textLength="95" x="1386.5" y="570.1865">[for each course]</text><polygon fill="#181818" points="1842,594.8984,1852,598.8984,1842,602.8984,1846,598.8984" style="stroke:#181818;stroke-width:1.0;"/><line style="stroke:#181818;stroke-width:1.0;stroke-dasharray:2.0,2.0;" x1="1418.5" x2="1848" y1="598.8984" y2="598.8984"/><text fill="#000000" font-family="sans-serif" font-size="13" font-weight="bold" lengthAdjust="spacing" textLength="14" x="1425.5" y="593.6357">15</text><text fill="#000000" font-family="sans-serif" font-size="13" lengthAdjust="spacing" textLength="143" x="1443.5" y="593.6357">findExamGrades(course)</text><polygon fill="#181818" points="1429.5,633.1895,1419.5,637.1895,1429.5,641.1895,1425.5,637.1895" style="stroke:#181818;stroke-width:1.0;"/><line style="stroke:#181818;stroke-width:1.0;stroke-dasharray:2.0,2.0;" x1="1423.5" x2="1858" y1="637.1895" y2="637.1895"/><text fill="#000000" font-family="sans-serif" font-size="13" font-weight="bold" lengthAdjust="spacing" textLength="14" x="1435.5" y="631.9268">16</text><text fill="#000000" font-family="sans-serif" font-size="13" lengthAdjust="spacing" textLength="193" x="1453.5" y="631.9268">List&lt;ExamGrades&gt; ExamGrades</text><polygon fill="#181818" points="865.5,664.4805,855.5,668.4805,865.5,672.4805,861.5,668.4805" style="stroke:#181818;stroke-width:1.0;"/><line style="stroke:#181818;stroke-width:1.0;stroke-dasharray:2.0,2.0;" x1="859.5" x2="1412.5" y1="668.4805" y2="668.4805"/><text fill="#000000" font-family="sans-serif" font-size="13" font-weight="bold" lengthAdjust="spacing" textLength="14" x="871.5" y="663.2178">17</text><text fill="#000000" font-family="sans-serif" font-size="13" lengthAdjust="spacing" textLength="193" x="889.5" y="663.2178">List&lt;ExamGrades&gt; ExamGrades</text><polygon fill="#181818" points="620.5,695.7715,610.5,699.7715,620.5,703.7715,616.5,699.7715" style="stroke:#181818;stroke-width:1.0;"/><line style="stroke:#181818;stroke-width:1.0;stroke-dasharray:2.0,2.0;" x1="614.5" x2="848.5" y1="699.7715" y2="699.7715"/><text fill="#000000" font-family="sans-serif" font-size="13" font-weight="bold" lengthAdjust="spacing" textLength="14" x="626.5" y="694.5088">18</text><text fill="#000000" font-family="sans-serif" font-size="13" lengthAdjust="spacing" textLength="193" x="644.5" y="694.5088">List&lt;ExamGrades&gt; ExamGrades</text><polygon fill="#181818" points="355.5,727.0625,345.5,731.0625,355.5,735.0625,351.5,731.0625" style="stroke:#181818;stroke-width:1.0;"/><line style="stroke:#181818;stroke-width:1.0;stroke-dasharray:2.0,2.0;" x1="349.5" x2="603.5" y1="731.0625" y2="731.0625"/><text fill="#000000" font-family="sans-serif" font-size="13" font-weight="bold" lengthAdjust="spacing" textLength="14" x="361.5" y="725.7998">19</text><text fill="#000000" font-family="sans-serif" font-size="13" lengthAdjust="spacing" textLength="213" x="379.5" y="725.7998">List&lt;ExamGradesDto&gt; ExamGrades</text><polygon fill="#181818" points="45.5,758.3535,35.5,762.3535,45.5,766.3535,41.5,762.3535" style="stroke:#181818;stroke-width:1.0;"/><line style="stroke:#181818;stroke-width:1.0;stroke-dasharray:2.0,2.0;" x1="39.5" x2="338.5" y1="762.3535" y2="762.3535"/><text fill="#000000" font-family="sans-serif" font-size="13" font-weight="bold" lengthAdjust="spacing" textLength="14" x="51.5" y="757.0908">20</text><text fill="#000000" font-family="sans-serif" font-size="13" lengthAdjust="spacing" textLength="213" x="69.5" y="757.0908">List&lt;ExamGradesDto&gt; ExamGrades</text><!--SRC=[bLJ1Yjim4BthAuQzTFVWvcw28RZUDX0en36KthJs91QrBLUIbsw_lZEIToDlDf0U7EBCUs_Uw8togNLkjEbgDNPoS5FVVQvrlxBuUyAXngHHycHaBuISd1wc_WcD49lQQGC7b7MB1gG5woOXHccSgjL8Cd2NxfHrnH_PVpMoGPlhoLYijdUChhOtO7CzEAEx3etdqEkIL2BE1W8-S4iqpwf6JzaLi5xRy4EMBTcRoRNQgB_IAJt4f4rr-FPpYQr8eqHh2Hdib-K249r3UQWMfOy6cxi5Xtdii95EFacBiCTHMqLd_F8e-QXV6FousTCyvgqK4zZYcHHCNaUpeoMw-7615fGf91c51IcKZeQoXFobXXCu3HqD1aWwSFAZWJv2gopKVaH1hjMpTEWNu-s5SXVLbZGfJ18zONGstu_XTEuVpdZEN0ZwJ38V2t5io256XSG280dYRpZHu3iSo_cnoZ85skaM1qgBwWsVOQpBCTDprfmix_xCfpH4hCxekRGhhit62b67NI5sHP9HL6nOchhr7jwXg4m-zW4NmR2NgdlmfIJZdYxiuTBLthUWlKn1sJsUQDpx6HZruBsbPnQQGunqk4uwNCxzS1_F5uYB2NFHQJt2aVulkEkhDgdb94Txby9H3SrPx5A4G0A71bX8qCkh3RvSwpCnW_Fts3lJGpUUxKOI6_S3- -Hl9lbbfQIs5vmlJb-ZyPhJjKWokYp_mwFh5BtnJVi7]--></g></svg>