<?xml version="1.0" encoding="us-ascii" standalone="no"?><svg xmlns="http://www.w3.org/2000/svg" xmlns:xlink="http://www.w3.org/1999/xlink" contentStyleType="text/css" height="1136px" preserveAspectRatio="none" style="width:1392px;height:1136px;background:#FFFFFF;" version="1.1" viewBox="0 0 1392 1136" width="1392px" zoomAndPan="magnify"><defs/><g><text fill="#000000" font-family="sans-serif" font-size="14" font-weight="bold" lengthAdjust="spacing" textLength="185" x="605" y="30.1074">SD - List courses available</text><rect fill="#FFFFFF" height="858.5664" style="stroke:#181818;stroke-width:1.0;" width="10" x="192.5" y="161.1543"/><rect fill="#FFFFFF" height="737.6934" style="stroke:#181818;stroke-width:1.0;" width="10" x="351.5" y="223.7363"/><rect fill="#FFFFFF" height="643.8203" style="stroke:#181818;stroke-width:1.0;" width="10" x="501.5" y="286.3184"/><rect fill="#FFFFFF" height="31.291" style="stroke:#181818;stroke-width:1.0;" width="10" x="864.5" y="354.9004"/><rect fill="#FFFFFF" height="31.291" style="stroke:#181818;stroke-width:1.0;" width="10" x="864.5" y="517.3555"/><rect fill="#FFFFFF" height="31.291" style="stroke:#181818;stroke-width:1.0;" width="10" x="864.5" y="579.9375"/><rect fill="#FFFFFF" height="31.291" style="stroke:#181818;stroke-width:1.0;" width="10" x="864.5" y="804.9746"/><rect fill="#FFFFFF" height="31.291" style="stroke:#181818;stroke-width:1.0;" width="10" x="1017.5" y="705.1016"/><rect fill="#FFFFFF" height="31.291" style="stroke:#181818;stroke-width:1.0;" width="10" x="1159" y="417.4824"/><rect fill="#FFFFFF" height="31.291" style="stroke:#181818;stroke-width:1.0;" width="10" x="1159" y="867.5566"/><rect fill="#FFFFFF" height="31.291" style="stroke:#181818;stroke-width:1.0;" width="10" x="1307.5" y="642.5195"/><line style="stroke:#181818;stroke-width:0.5;stroke-dasharray:5.0,5.0;" x1="45" x2="45" y1="127.8633" y2="1037.7207"/><line style="stroke:#181818;stroke-width:0.5;stroke-dasharray:5.0,5.0;" x1="197" x2="197" y1="127.8633" y2="1037.7207"/><line style="stroke:#181818;stroke-width:0.5;stroke-dasharray:5.0,5.0;" x1="356" x2="356" y1="127.8633" y2="1037.7207"/><line style="stroke:#181818;stroke-width:0.5;stroke-dasharray:5.0,5.0;" x1="506" x2="506" y1="127.8633" y2="1037.7207"/><line style="stroke:#181818;stroke-width:0.5;stroke-dasharray:5.0,5.0;" x1="869" x2="869" y1="127.8633" y2="1037.7207"/><line style="stroke:#181818;stroke-width:0.5;stroke-dasharray:5.0,5.0;" x1="1022" x2="1022" y1="127.8633" y2="1037.7207"/><line style="stroke:#181818;stroke-width:0.5;stroke-dasharray:5.0,5.0;" x1="1164" x2="1164" y1="127.8633" y2="1037.7207"/><line style="stroke:#181818;stroke-width:0.5;stroke-dasharray:5.0,5.0;" x1="1312" x2="1312" y1="127.8633" y2="1037.7207"/><text fill="#000000" font-family="sans-serif" font-size="14" lengthAdjust="spacing" textLength="75" x="5" y="124.3496">SystemUser</text><ellipse cx="45.5" cy="57.7422" fill="#E3E3E3" rx="8" ry="8" style="stroke:#181818;stroke-width:0.5;"/><path d="M45.5,65.7422 L45.5,92.7422 M32.5,73.7422 L58.5,73.7422 M45.5,92.7422 L32.5,107.7422 M45.5,92.7422 L58.5,107.7422 " fill="none" style="stroke:#181818;stroke-width:0.5;"/><text fill="#000000" font-family="sans-serif" font-size="14" lengthAdjust="spacing" textLength="75" x="5" y="1051.8281">SystemUser</text><ellipse cx="45.5" cy="1063.8418" fill="#E3E3E3" rx="8" ry="8" style="stroke:#181818;stroke-width:0.5;"/><path d="M45.5,1071.8418 L45.5,1098.8418 M32.5,1079.8418 L58.5,1079.8418 M45.5,1098.8418 L32.5,1113.8418 M45.5,1098.8418 L58.5,1113.8418 " fill="none" style="stroke:#181818;stroke-width:0.5;"/><rect fill="#E3E3E3" height="51.2422" rx="2.5" ry="2.5" style="stroke:#181818;stroke-width:0.5;" width="109" x="143" y="75.6211"/><text fill="#000000" font-family="sans-serif" font-size="14" font-style="italic" lengthAdjust="spacing" textLength="95" x="150" y="97.7285">&#171;presentation&#187;</text><text fill="#000000" font-family="sans-serif" font-size="14" lengthAdjust="spacing" textLength="87" x="154" y="116.3496">ListCoursesUI</text><rect fill="#E3E3E3" height="51.2422" rx="2.5" ry="2.5" style="stroke:#181818;stroke-width:0.5;" width="109" x="143" y="1036.7207"/><text fill="#000000" font-family="sans-serif" font-size="14" font-style="italic" lengthAdjust="spacing" textLength="95" x="150" y="1058.8281">&#171;presentation&#187;</text><text fill="#000000" font-family="sans-serif" font-size="14" lengthAdjust="spacing" textLength="87" x="154" y="1077.4492">ListCoursesUI</text><rect fill="#E3E3E3" height="51.2422" rx="2.5" ry="2.5" style="stroke:#181818;stroke-width:0.5;" width="151" x="281" y="75.6211"/><text fill="#000000" font-family="sans-serif" font-size="14" font-style="italic" lengthAdjust="spacing" textLength="84" x="314.5" y="97.7285">&#171;application&#187;</text><text fill="#000000" font-family="sans-serif" font-size="14" lengthAdjust="spacing" textLength="137" x="288" y="116.3496">ListCoursesController</text><rect fill="#E3E3E3" height="51.2422" rx="2.5" ry="2.5" style="stroke:#181818;stroke-width:0.5;" width="151" x="281" y="1036.7207"/><text fill="#000000" font-family="sans-serif" font-size="14" font-style="italic" lengthAdjust="spacing" textLength="84" x="314.5" y="1058.8281">&#171;application&#187;</text><text fill="#000000" font-family="sans-serif" font-size="14" lengthAdjust="spacing" textLength="137" x="288" y="1077.4492">ListCoursesController</text><rect fill="#E3E3E3" height="51.2422" rx="2.5" ry="2.5" style="stroke:#181818;stroke-width:0.5;" width="129" x="442" y="75.6211"/><text fill="#000000" font-family="sans-serif" font-size="14" font-style="italic" lengthAdjust="spacing" textLength="60" x="476.5" y="97.7285">&#171;service&#187;</text><text fill="#000000" font-family="sans-serif" font-size="14" lengthAdjust="spacing" textLength="115" x="449" y="116.3496">ListCourseService</text><rect fill="#E3E3E3" height="51.2422" rx="2.5" ry="2.5" style="stroke:#181818;stroke-width:0.5;" width="129" x="442" y="1036.7207"/><text fill="#000000" font-family="sans-serif" font-size="14" font-style="italic" lengthAdjust="spacing" textLength="60" x="476.5" y="1058.8281">&#171;service&#187;</text><text fill="#000000" font-family="sans-serif" font-size="14" lengthAdjust="spacing" textLength="115" x="449" y="1077.4492">ListCourseService</text><rect fill="#E3E3E3" height="32.6211" rx="2.5" ry="2.5" style="stroke:#181818;stroke-width:0.5;" width="143" x="798" y="94.2422"/><text fill="#000000" font-family="sans-serif" font-size="14" lengthAdjust="spacing" textLength="129" x="805" y="116.3496">AuthorizationService</text><rect fill="#E3E3E3" height="32.6211" rx="2.5" ry="2.5" style="stroke:#181818;stroke-width:0.5;" width="143" x="798" y="1036.7207"/><text fill="#000000" font-family="sans-serif" font-size="14" lengthAdjust="spacing" textLength="129" x="805" y="1058.8281">AuthorizationService</text><rect fill="#E3E3E3" height="32.6211" rx="2.5" ry="2.5" style="stroke:#181818;stroke-width:0.5;" width="143" x="951" y="94.2422"/><text fill="#000000" font-family="sans-serif" font-size="14" lengthAdjust="spacing" textLength="129" x="958" y="116.3496">eCourseSystemUser</text><rect fill="#E3E3E3" height="32.6211" rx="2.5" ry="2.5" style="stroke:#181818;stroke-width:0.5;" width="143" x="951" y="1036.7207"/><text fill="#000000" font-family="sans-serif" font-size="14" lengthAdjust="spacing" textLength="129" x="958" y="1058.8281">eCourseSystemUser</text><text fill="#000000" font-family="sans-serif" font-size="14" font-style="italic" lengthAdjust="spacing" textLength="79" x="1121.5" y="105.7285">&#171;repository&#187;</text><text fill="#000000" font-family="sans-serif" font-size="14" lengthAdjust="spacing" textLength="114" x="1104" y="124.3496">CourseRepository</text><path d="M1146,54.6211 C1146,44.6211 1164,44.6211 1164,44.6211 C1164,44.6211 1182,44.6211 1182,54.6211 L1182,80.6211 C1182,90.6211 1164,90.6211 1164,90.6211 C1164,90.6211 1146,90.6211 1146,80.6211 L1146,54.6211 " fill="#E3E3E3" style="stroke:#181818;stroke-width:1.5;"/><path d="M1146,54.6211 C1146,64.6211 1164,64.6211 1164,64.6211 C1164,64.6211 1182,64.6211 1182,54.6211 " fill="none" style="stroke:#181818;stroke-width:1.5;"/><text fill="#000000" font-family="sans-serif" font-size="14" font-style="italic" lengthAdjust="spacing" textLength="79" x="1121.5" y="1051.8281">&#171;repository&#187;</text><text fill="#000000" font-family="sans-serif" font-size="14" lengthAdjust="spacing" textLength="114" x="1104" y="1070.4492">CourseRepository</text><path d="M1146,1083.9629 C1146,1073.9629 1164,1073.9629 1164,1073.9629 C1164,1073.9629 1182,1073.9629 1182,1083.9629 L1182,1109.9629 C1182,1119.9629 1164,1119.9629 1164,1119.9629 C1164,1119.9629 1146,1119.9629 1146,1109.9629 L1146,1083.9629 " fill="#E3E3E3" style="stroke:#181818;stroke-width:1.5;"/><path d="M1146,1083.9629 C1146,1093.9629 1164,1093.9629 1164,1093.9629 C1164,1093.9629 1182,1093.9629 1182,1083.9629 " fill="none" style="stroke:#181818;stroke-width:1.5;"/><text fill="#000000" font-family="sans-serif" font-size="14" font-style="italic" lengthAdjust="spacing" textLength="79" x="1270" y="105.7285">&#171;repository&#187;</text><text fill="#000000" font-family="sans-serif" font-size="14" lengthAdjust="spacing" textLength="151" x="1234" y="124.3496">eCourseUserRepository</text><path d="M1294.5,54.6211 C1294.5,44.6211 1312.5,44.6211 1312.5,44.6211 C1312.5,44.6211 1330.5,44.6211 1330.5,54.6211 L1330.5,80.6211 C1330.5,90.6211 1312.5,90.6211 1312.5,90.6211 C1312.5,90.6211 1294.5,90.6211 1294.5,80.6211 L1294.5,54.6211 " fill="#E3E3E3" style="stroke:#181818;stroke-width:1.5;"/><path d="M1294.5,54.6211 C1294.5,64.6211 1312.5,64.6211 1312.5,64.6211 C1312.5,64.6211 1330.5,64.6211 1330.5,54.6211 " fill="none" style="stroke:#181818;stroke-width:1.5;"/><text fill="#000000" font-family="sans-serif" font-size="14" font-style="italic" lengthAdjust="spacing" textLength="79" x="1270" y="1051.8281">&#171;repository&#187;</text><text fill="#000000" font-family="sans-serif" font-size="14" lengthAdjust="spacing" textLength="151" x="1234" y="1070.4492">eCourseUserRepository</text><path d="M1294.5,1083.9629 C1294.5,1073.9629 1312.5,1073.9629 1312.5,1073.9629 C1312.5,1073.9629 1330.5,1073.9629 1330.5,1083.9629 L1330.5,1109.9629 C1330.5,1119.9629 1312.5,1119.9629 1312.5,1119.9629 C1312.5,1119.9629 1294.5,1119.9629 1294.5,1109.9629 L1294.5,1083.9629 " fill="#E3E3E3" style="stroke:#181818;stroke-width:1.5;"/><path d="M1294.5,1083.9629 C1294.5,1093.9629 1312.5,1093.9629 1312.5,1093.9629 C1312.5,1093.9629 1330.5,1093.9629 1330.5,1083.9629 " fill="none" style="stroke:#181818;stroke-width:1.5;"/><rect fill="#FFFFFF" height="858.5664" style="stroke:#181818;stroke-width:1.0;" width="10" x="192.5" y="161.1543"/><rect fill="#FFFFFF" height="737.6934" style="stroke:#181818;stroke-width:1.0;" width="10" x="351.5" y="223.7363"/><rect fill="#FFFFFF" height="643.8203" style="stroke:#181818;stroke-width:1.0;" width="10" x="501.5" y="286.3184"/><rect fill="#FFFFFF" height="31.291" style="stroke:#181818;stroke-width:1.0;" width="10" x="864.5" y="354.9004"/><rect fill="#FFFFFF" height="31.291" style="stroke:#181818;stroke-width:1.0;" width="10" x="864.5" y="517.3555"/><rect fill="#FFFFFF" height="31.291" style="stroke:#181818;stroke-width:1.0;" width="10" x="864.5" y="579.9375"/><rect fill="#FFFFFF" height="31.291" style="stroke:#181818;stroke-width:1.0;" width="10" x="864.5" y="804.9746"/><rect fill="#FFFFFF" height="31.291" style="stroke:#181818;stroke-width:1.0;" width="10" x="1017.5" y="705.1016"/><rect fill="#FFFFFF" height="31.291" style="stroke:#181818;stroke-width:1.0;" width="10" x="1159" y="417.4824"/><rect fill="#FFFFFF" height="31.291" style="stroke:#181818;stroke-width:1.0;" width="10" x="1159" y="867.5566"/><rect fill="#FFFFFF" height="31.291" style="stroke:#181818;stroke-width:1.0;" width="10" x="1307.5" y="642.5195"/><polygon fill="#181818" points="180.5,157.1543,190.5,161.1543,180.5,165.1543,184.5,161.1543" style="stroke:#181818;stroke-width:1.0;"/><line style="stroke:#181818;stroke-width:1.0;stroke-dasharray:2.0,2.0;" x1="45.5" x2="186.5" y1="161.1543" y2="161.1543"/><text fill="#000000" font-family="sans-serif" font-size="13" lengthAdjust="spacing" textLength="128" x="52.5" y="155.8916">List Courses Available</text><polygon fill="#181818" points="344.5,188.4453,354.5,192.4453,344.5,196.4453,348.5,192.4453" style="stroke:#181818;stroke-width:1.0;"/><line style="stroke:#181818;stroke-width:1.0;" x1="202.5" x2="350.5" y1="192.4453" y2="192.4453"/><text fill="#000000" font-family="sans-serif" font-size="13" lengthAdjust="spacing" textLength="36" x="209.5" y="187.1826">create</text><polygon fill="#181818" points="339.5,219.7363,349.5,223.7363,339.5,227.7363,343.5,223.7363" style="stroke:#181818;stroke-width:1.0;"/><line style="stroke:#181818;stroke-width:1.0;" x1="202.5" x2="345.5" y1="223.7363" y2="223.7363"/><text fill="#000000" font-family="sans-serif" font-size="13" lengthAdjust="spacing" textLength="124" x="209.5" y="218.4736">listCoursesAvailable()</text><polygon fill="#181818" points="494.5,251.0273,504.5,255.0273,494.5,259.0273,498.5,255.0273" style="stroke:#181818;stroke-width:1.0;"/><line style="stroke:#181818;stroke-width:1.0;" x1="361.5" x2="500.5" y1="255.0273" y2="255.0273"/><text fill="#000000" font-family="sans-serif" font-size="13" lengthAdjust="spacing" textLength="36" x="368.5" y="249.7646">create</text><polygon fill="#181818" points="489.5,282.3184,499.5,286.3184,489.5,290.3184,493.5,286.3184" style="stroke:#181818;stroke-width:1.0;"/><line style="stroke:#181818;stroke-width:1.0;" x1="361.5" x2="495.5" y1="286.3184" y2="286.3184"/><text fill="#000000" font-family="sans-serif" font-size="13" lengthAdjust="spacing" textLength="120" x="368.5" y="281.0557">allCoursesAvailable()</text><path d="M451,299.3184 L451,326.3184 L562,326.3184 L562,309.3184 L552,299.3184 L451,299.3184 " fill="#FAFAFA" style="stroke:#181818;stroke-width:0.5;"/><path d="M552,299.3184 L552,309.3184 L562,309.3184 L552,299.3184 " fill="#FAFAFA" style="stroke:#181818;stroke-width:0.5;"/><text fill="#000000" font-family="sans-serif" font-size="13" lengthAdjust="spacing" textLength="90" x="457" y="318.3467">if it&#180;s a student:</text><polygon fill="#181818" points="852.5,350.9004,862.5,354.9004,852.5,358.9004,856.5,354.9004" style="stroke:#181818;stroke-width:1.0;"/><line style="stroke:#181818;stroke-width:1.0;" x1="511.5" x2="858.5" y1="354.9004" y2="354.9004"/><text fill="#000000" font-family="sans-serif" font-size="13" lengthAdjust="spacing" textLength="327" x="518.5" y="349.6377">isAuthenticatedUserAuthorizedTo(BaseRoles.STUDENT)</text><polygon fill="#181818" points="522.5,382.1914,512.5,386.1914,522.5,390.1914,518.5,386.1914" style="stroke:#181818;stroke-width:1.0;"/><line style="stroke:#181818;stroke-width:1.0;stroke-dasharray:2.0,2.0;" x1="516.5" x2="868.5" y1="386.1914" y2="386.1914"/><text fill="#000000" font-family="sans-serif" font-size="13" lengthAdjust="spacing" textLength="22" x="528.5" y="380.9287">true</text><polygon fill="#181818" points="1147,413.4824,1157,417.4824,1147,421.4824,1151,417.4824" style="stroke:#181818;stroke-width:1.0;"/><line style="stroke:#181818;stroke-width:1.0;" x1="511.5" x2="1153" y1="417.4824" y2="417.4824"/><text fill="#000000" font-family="sans-serif" font-size="13" lengthAdjust="spacing" textLength="236" x="518.5" y="412.2197">findAllWithStatus( CourseStatus.OPEN )</text><polygon fill="#181818" points="522.5,444.7734,512.5,448.7734,522.5,452.7734,518.5,448.7734" style="stroke:#181818;stroke-width:1.0;"/><line style="stroke:#181818;stroke-width:1.0;stroke-dasharray:2.0,2.0;" x1="516.5" x2="1163" y1="448.7734" y2="448.7734"/><text fill="#000000" font-family="sans-serif" font-size="13" lengthAdjust="spacing" textLength="78" x="528.5" y="443.5107">List&lt;Course&gt;</text><path d="M451,461.7734 L451,488.7734 L562,488.7734 L562,471.7734 L552,461.7734 L451,461.7734 " fill="#FAFAFA" style="stroke:#181818;stroke-width:0.5;"/><path d="M552,461.7734 L552,471.7734 L562,471.7734 L552,461.7734 " fill="#FAFAFA" style="stroke:#181818;stroke-width:0.5;"/><text fill="#000000" font-family="sans-serif" font-size="13" lengthAdjust="spacing" textLength="90" x="457" y="480.8018">if it&#180;s a teacher:</text><polygon fill="#181818" points="852.5,513.3555,862.5,517.3555,852.5,521.3555,856.5,517.3555" style="stroke:#181818;stroke-width:1.0;"/><line style="stroke:#181818;stroke-width:1.0;" x1="511.5" x2="858.5" y1="517.3555" y2="517.3555"/><text fill="#000000" font-family="sans-serif" font-size="13" lengthAdjust="spacing" textLength="329" x="518.5" y="512.0928">isAuthenticatedUserAuthorizedTo(BaseRoles.TEACHER)</text><polygon fill="#181818" points="522.5,544.6465,512.5,548.6465,522.5,552.6465,518.5,548.6465" style="stroke:#181818;stroke-width:1.0;"/><line style="stroke:#181818;stroke-width:1.0;stroke-dasharray:2.0,2.0;" x1="516.5" x2="868.5" y1="548.6465" y2="548.6465"/><text fill="#000000" font-family="sans-serif" font-size="13" lengthAdjust="spacing" textLength="22" x="528.5" y="543.3838">true</text><polygon fill="#181818" points="852.5,575.9375,862.5,579.9375,852.5,583.9375,856.5,579.9375" style="stroke:#181818;stroke-width:1.0;"/><line style="stroke:#181818;stroke-width:1.0;" x1="511.5" x2="858.5" y1="579.9375" y2="579.9375"/><text fill="#000000" font-family="sans-serif" font-size="13" lengthAdjust="spacing" textLength="176" x="518.5" y="574.6748">getAuthenticatedUser().email()</text><polygon fill="#181818" points="522.5,607.2285,512.5,611.2285,522.5,615.2285,518.5,611.2285" style="stroke:#181818;stroke-width:1.0;"/><line style="stroke:#181818;stroke-width:1.0;stroke-dasharray:2.0,2.0;" x1="516.5" x2="868.5" y1="611.2285" y2="611.2285"/><text fill="#000000" font-family="sans-serif" font-size="13" lengthAdjust="spacing" textLength="31" x="528.5" y="605.9658">email</text><polygon fill="#181818" points="1295.5,638.5195,1305.5,642.5195,1295.5,646.5195,1299.5,642.5195" style="stroke:#181818;stroke-width:1.0;"/><line style="stroke:#181818;stroke-width:1.0;" x1="511.5" x2="1301.5" y1="642.5195" y2="642.5195"/><text fill="#000000" font-family="sans-serif" font-size="13" lengthAdjust="spacing" textLength="105" x="518.5" y="637.2568">searchUser(email)</text><polygon fill="#181818" points="522.5,669.8105,512.5,673.8105,522.5,677.8105,518.5,673.8105" style="stroke:#181818;stroke-width:1.0;"/><line style="stroke:#181818;stroke-width:1.0;stroke-dasharray:2.0,2.0;" x1="516.5" x2="1311.5" y1="673.8105" y2="673.8105"/><text fill="#000000" font-family="sans-serif" font-size="13" lengthAdjust="spacing" textLength="25" x="528.5" y="668.5479">user</text><polygon fill="#181818" points="1005.5,701.1016,1015.5,705.1016,1005.5,709.1016,1009.5,705.1016" style="stroke:#181818;stroke-width:1.0;"/><line style="stroke:#181818;stroke-width:1.0;" x1="511.5" x2="1011.5" y1="705.1016" y2="705.1016"/><text fill="#000000" font-family="sans-serif" font-size="13" lengthAdjust="spacing" textLength="103" x="518.5" y="699.8389">coursesTeached()</text><polygon fill="#181818" points="522.5,732.3926,512.5,736.3926,522.5,740.3926,518.5,736.3926" style="stroke:#181818;stroke-width:1.0;"/><line style="stroke:#181818;stroke-width:1.0;stroke-dasharray:2.0,2.0;" x1="516.5" x2="1021.5" y1="736.3926" y2="736.3926"/><text fill="#000000" font-family="sans-serif" font-size="13" lengthAdjust="spacing" textLength="78" x="528.5" y="731.1299">List&lt;Course&gt;</text><path d="M447,749.3926 L447,776.3926 L565,776.3926 L565,759.3926 L555,749.3926 L447,749.3926 " fill="#FAFAFA" style="stroke:#181818;stroke-width:0.5;"/><path d="M555,749.3926 L555,759.3926 L565,759.3926 L555,749.3926 " fill="#FAFAFA" style="stroke:#181818;stroke-width:0.5;"/><text fill="#000000" font-family="sans-serif" font-size="13" lengthAdjust="spacing" textLength="97" x="453" y="768.4209">if it&#180;s a manager:</text><polygon fill="#181818" points="852.5,800.9746,862.5,804.9746,852.5,808.9746,856.5,804.9746" style="stroke:#181818;stroke-width:1.0;"/><line style="stroke:#181818;stroke-width:1.0;" x1="511.5" x2="858.5" y1="804.9746" y2="804.9746"/><text fill="#000000" font-family="sans-serif" font-size="13" lengthAdjust="spacing" textLength="334" x="518.5" y="799.7119">isAuthenticatedUserAuthorizedTo(BaseRoles.MANAGER)</text><polygon fill="#181818" points="522.5,832.2656,512.5,836.2656,522.5,840.2656,518.5,836.2656" style="stroke:#181818;stroke-width:1.0;"/><line style="stroke:#181818;stroke-width:1.0;stroke-dasharray:2.0,2.0;" x1="516.5" x2="868.5" y1="836.2656" y2="836.2656"/><text fill="#000000" font-family="sans-serif" font-size="13" lengthAdjust="spacing" textLength="22" x="528.5" y="831.0029">true</text><polygon fill="#181818" points="1147,863.5566,1157,867.5566,1147,871.5566,1151,867.5566" style="stroke:#181818;stroke-width:1.0;"/><line style="stroke:#181818;stroke-width:1.0;" x1="511.5" x2="1153" y1="867.5566" y2="867.5566"/><text fill="#000000" font-family="sans-serif" font-size="13" lengthAdjust="spacing" textLength="43" x="518.5" y="862.2939">findAll()</text><polygon fill="#181818" points="522.5,894.8477,512.5,898.8477,522.5,902.8477,518.5,898.8477" style="stroke:#181818;stroke-width:1.0;"/><line style="stroke:#181818;stroke-width:1.0;stroke-dasharray:2.0,2.0;" x1="516.5" x2="1163" y1="898.8477" y2="898.8477"/><text fill="#000000" font-family="sans-serif" font-size="13" lengthAdjust="spacing" textLength="78" x="528.5" y="893.585">List&lt;Course&gt;</text><polygon fill="#181818" points="372.5,926.1387,362.5,930.1387,372.5,934.1387,368.5,930.1387" style="stroke:#181818;stroke-width:1.0;"/><line style="stroke:#181818;stroke-width:1.0;stroke-dasharray:2.0,2.0;" x1="366.5" x2="505.5" y1="930.1387" y2="930.1387"/><text fill="#000000" font-family="sans-serif" font-size="13" lengthAdjust="spacing" textLength="78" x="378.5" y="924.876">List&lt;Course&gt;</text><polygon fill="#181818" points="213.5,957.4297,203.5,961.4297,213.5,965.4297,209.5,961.4297" style="stroke:#181818;stroke-width:1.0;"/><line style="stroke:#181818;stroke-width:1.0;stroke-dasharray:2.0,2.0;" x1="207.5" x2="355.5" y1="961.4297" y2="961.4297"/><text fill="#000000" font-family="sans-serif" font-size="13" lengthAdjust="spacing" textLength="78" x="219.5" y="956.167">List&lt;Course&gt;</text><line style="stroke:#181818;stroke-width:1.0;" x1="202.5" x2="244.5" y1="992.7207" y2="992.7207"/><line style="stroke:#181818;stroke-width:1.0;" x1="244.5" x2="244.5" y1="992.7207" y2="1005.7207"/><line style="stroke:#181818;stroke-width:1.0;" x1="203.5" x2="244.5" y1="1005.7207" y2="1005.7207"/><polygon fill="#181818" points="213.5,1001.7207,203.5,1005.7207,213.5,1009.7207,209.5,1005.7207" style="stroke:#181818;stroke-width:1.0;"/><text fill="#000000" font-family="sans-serif" font-size="13" lengthAdjust="spacing" textLength="135" x="209.5" y="987.458">display( List&lt;Course&gt; )</text><polygon fill="#181818" points="56.5,1015.7207,46.5,1019.7207,56.5,1023.7207,52.5,1019.7207" style="stroke:#181818;stroke-width:1.0;"/><line style="stroke:#181818;stroke-width:1.0;stroke-dasharray:2.0,2.0;" x1="50.5" x2="196.5" y1="1019.7207" y2="1019.7207"/><!--SRC=[nLRBRjim4BppAtYhSh1z5mG3Qc8q0TgqiAmMw8sHDX4HIXH8oe3xNVs2VbcNeXwaMnLEqI8-22PtPpZS7P5wKndJnfjDArXZkbgi2rblz3DlMgPOlQvCBSWqfBLiP54fMGCrgWClqhBYcJr1Pau2g8B246AumV_P3LtHzrmRMiXEQT2K7HaNx4408QmmKj7if0tKkGP5cQQfdIF8QdZ1MrJLewyTEB-pAVXCabQ1XiOmmsMptIu1hcLZb1J2SNkZ965jAtZnPtm6wiWBiDXi_nb1sasS0TBEL5BnRpsPXqdpm-tN81C6tc3BUROdX9JCi0UcWRgKFRHISwp5oQPueoHHqm1rJB21sfA6s5pt4-T0qbUQhbPRB6ZiUZHKZQPJZx15_CWCO0x1kcFoNCIO5WemHduJ4NCF9hBeYb3yJPHpFcxVHhp-89sj-BJ4KfW9iR1Ci1Gc4pAiOd-Dn4bvH2OR6MSfVwJS_FYE9gNQT2NwAvw2q9GzR9f09CheUun2kBOkG8Jr59Is3QCje3p8w2tsQ2y5w7Lso6zszuTPPQ3KUSOFkHLMqvRxLyzFA641RVCHvjaXfe-yALCXld1JPVZsT3eQkkv6wu-VTlTqGTjC5CGz_bcbzLFYcBTBQZs-bxJ684E59llthJdiqklRtJxS_WKjkhXLYoqxxzce_GdCB-AZgpNKQFRehotKmr_aeV4GYQa6feggrz7JB8WO045m99c5T4YpfEESOLIIxUsnu5xwGs-5SgaIzcGD121sMFmoXxgZ-N9hrgp1Q_1_MFD3Uf- -UnLhNd2QHAzmO0IoWjjdYSmZ6lldNochxNWF1aWFvLrOxiR3PumPNEFtqoaAi7Y6vdV8wRvdV4lT_GG0]--></g></svg>