<?xml version="1.0" encoding="us-ascii" standalone="no"?><svg xmlns="http://www.w3.org/2000/svg" xmlns:xlink="http://www.w3.org/1999/xlink" contentStyleType="text/css" height="1331px" preserveAspectRatio="none" style="width:735px;height:1331px;background:#FFFFFF;" version="1.1" viewBox="0 0 735 1331" width="735px" zoomAndPan="magnify"><defs/><g><!--class eCourseSystemUser--><g id="elem_eCourseSystemUser"><rect codeLine="3" fill="#F1F1F1" height="132.4063" id="eCourseSystemUser" rx="2.5" ry="2.5" style="stroke:#181818;stroke-width:0.5;" width="161" x="346" y="293"/><ellipse cx="361" cy="323.2715" fill="#ADD1B2" rx="11" ry="11" style="stroke:#181818;stroke-width:1.0;"/><path d="M363.7656,319.1465 Q363.9219,318.9277 364.1094,318.8184 Q364.2969,318.709 364.5156,318.709 Q364.8906,318.709 365.125,318.9746 Q365.3594,319.2246 365.3594,319.834 L365.3594,321.2871 Q365.3594,321.8965 365.125,322.1621 Q364.8906,322.4277 364.5156,322.4277 Q364.1719,322.4277 363.9688,322.2246 Q363.7656,322.0371 363.6563,321.5215 Q363.6094,321.1621 363.4219,320.9746 Q363.0938,320.5996 362.4844,320.3809 Q361.875,320.1621 361.25,320.1621 Q360.4844,320.1621 359.8438,320.4902 Q359.2188,320.8184 358.7188,321.5684 Q358.2344,322.3184 358.2344,323.3496 L358.2344,324.4434 Q358.2344,325.6777 359.125,326.5059 Q360.0156,327.3184 361.6094,327.3184 Q362.5469,327.3184 363.2031,327.0684 Q363.5938,326.9121 364.0156,326.4746 Q364.2813,326.209 364.4219,326.1309 Q364.5781,326.0527 364.7813,326.0527 Q365.1094,326.0527 365.3594,326.3184 Q365.625,326.5684 365.625,326.9121 Q365.625,327.2559 365.2813,327.6621 Q364.7813,328.2402 363.9844,328.5684 Q362.9063,329.0215 361.6094,329.0215 Q360.0938,329.0215 358.8906,328.3965 Q357.9063,327.8965 357.2188,326.834 Q356.5313,325.7559 356.5313,324.4746 L356.5313,323.3184 Q356.5313,321.9902 357.1406,320.8496 Q357.7656,319.6934 358.8594,319.084 Q359.9531,318.459 361.1875,318.459 Q361.9219,318.459 362.5625,318.6309 Q363.2188,318.7871 363.7656,319.1465 Z " fill="#000000"/><text fill="#000000" font-family="sans-serif" font-size="12" font-style="italic" lengthAdjust="spacing" textLength="35" x="422" y="310.9492">&#171;root&#187;</text><text fill="#000000" font-family="sans-serif" font-size="12" font-style="italic" lengthAdjust="spacing" textLength="44" x="417.5" y="326.9102">&#171;Entity&#187;</text><text fill="#000000" font-family="sans-serif" font-size="14" lengthAdjust="spacing" textLength="129" x="375" y="345.0293">eCourseSystemUser</text><line style="stroke:#181818;stroke-width:0.5;" x1="347" x2="506" y1="353.543" y2="353.543"/><ellipse cx="357" cy="368.3535" fill="#000000" rx="3" ry="3" style="stroke:#000000;stroke-width:1.0;"/><text fill="#000000" font-family="sans-serif" font-size="14" lengthAdjust="spacing" textLength="59" x="366" y="372.6504">FullName</text><ellipse cx="357" cy="386.9746" fill="#000000" rx="3" ry="3" style="stroke:#000000;stroke-width:1.0;"/><text fill="#000000" font-family="sans-serif" font-size="14" lengthAdjust="spacing" textLength="70" x="366" y="391.2715">ShortName</text><line style="stroke:#181818;stroke-width:0.5;" x1="347" x2="506" y1="398.7852" y2="398.7852"/><ellipse cx="357" cy="413.5957" fill="#84BE84" rx="3" ry="3" style="stroke:#038048;stroke-width:1.0;"/><text fill="#000000" font-family="sans-serif" font-size="14" lengthAdjust="spacing" textLength="116" x="366" y="417.8926">coursesTeached()</text></g><!--class ListCoursesUI--><g id="elem_ListCoursesUI"><rect codeLine="8" fill="#F1F1F1" height="66.6211" id="ListCoursesUI" rx="2.5" ry="2.5" style="stroke:#181818;stroke-width:0.5;" width="229" x="79" y="510"/><ellipse cx="145.75" cy="526" fill="#ADD1B2" rx="11" ry="11" style="stroke:#181818;stroke-width:1.0;"/><path d="M148.5156,521.875 Q148.6719,521.6563 148.8594,521.5469 Q149.0469,521.4375 149.2656,521.4375 Q149.6406,521.4375 149.875,521.7031 Q150.1094,521.9531 150.1094,522.5625 L150.1094,524.0156 Q150.1094,524.625 149.875,524.8906 Q149.6406,525.1563 149.2656,525.1563 Q148.9219,525.1563 148.7188,524.9531 Q148.5156,524.7656 148.4063,524.25 Q148.3594,523.8906 148.1719,523.7031 Q147.8438,523.3281 147.2344,523.1094 Q146.625,522.8906 146,522.8906 Q145.2344,522.8906 144.5938,523.2188 Q143.9688,523.5469 143.4688,524.2969 Q142.9844,525.0469 142.9844,526.0781 L142.9844,527.1719 Q142.9844,528.4063 143.875,529.2344 Q144.7656,530.0469 146.3594,530.0469 Q147.2969,530.0469 147.9531,529.7969 Q148.3438,529.6406 148.7656,529.2031 Q149.0313,528.9375 149.1719,528.8594 Q149.3281,528.7813 149.5313,528.7813 Q149.8594,528.7813 150.1094,529.0469 Q150.375,529.2969 150.375,529.6406 Q150.375,529.9844 150.0313,530.3906 Q149.5313,530.9688 148.7344,531.2969 Q147.6563,531.75 146.3594,531.75 Q144.8438,531.75 143.6406,531.125 Q142.6563,530.625 141.9688,529.5625 Q141.2813,528.4844 141.2813,527.2031 L141.2813,526.0469 Q141.2813,524.7188 141.8906,523.5781 Q142.5156,522.4219 143.6094,521.8125 Q144.7031,521.1875 145.9375,521.1875 Q146.6719,521.1875 147.3125,521.3594 Q147.9688,521.5156 148.5156,521.875 Z " fill="#000000"/><text fill="#000000" font-family="sans-serif" font-size="14" lengthAdjust="spacing" textLength="87" x="166.25" y="531.7969">ListCoursesUI</text><line style="stroke:#181818;stroke-width:0.5;" x1="80" x2="307" y1="542" y2="542"/><line style="stroke:#181818;stroke-width:0.5;" x1="80" x2="307" y1="550" y2="550"/><ellipse cx="90" cy="564.8105" fill="#84BE84" rx="3" ry="3" style="stroke:#038048;stroke-width:1.0;"/><text fill="#000000" font-family="sans-serif" font-size="14" lengthAdjust="spacing" textLength="203" x="99" y="569.1074">presentCourses( List&lt;Course&gt; )</text></g><!--class ListCoursesController--><g id="elem_ListCoursesController"><rect codeLine="11" fill="#F1F1F1" height="66.6211" id="ListCoursesController" rx="2.5" ry="2.5" style="stroke:#181818;stroke-width:0.5;" width="169" x="116" y="644"/><ellipse cx="131" cy="660" fill="#ADD1B2" rx="11" ry="11" style="stroke:#181818;stroke-width:1.0;"/><path d="M133.7656,655.875 Q133.9219,655.6563 134.1094,655.5469 Q134.2969,655.4375 134.5156,655.4375 Q134.8906,655.4375 135.125,655.7031 Q135.3594,655.9531 135.3594,656.5625 L135.3594,658.0156 Q135.3594,658.625 135.125,658.8906 Q134.8906,659.1563 134.5156,659.1563 Q134.1719,659.1563 133.9688,658.9531 Q133.7656,658.7656 133.6563,658.25 Q133.6094,657.8906 133.4219,657.7031 Q133.0938,657.3281 132.4844,657.1094 Q131.875,656.8906 131.25,656.8906 Q130.4844,656.8906 129.8438,657.2188 Q129.2188,657.5469 128.7188,658.2969 Q128.2344,659.0469 128.2344,660.0781 L128.2344,661.1719 Q128.2344,662.4063 129.125,663.2344 Q130.0156,664.0469 131.6094,664.0469 Q132.5469,664.0469 133.2031,663.7969 Q133.5938,663.6406 134.0156,663.2031 Q134.2813,662.9375 134.4219,662.8594 Q134.5781,662.7813 134.7813,662.7813 Q135.1094,662.7813 135.3594,663.0469 Q135.625,663.2969 135.625,663.6406 Q135.625,663.9844 135.2813,664.3906 Q134.7813,664.9688 133.9844,665.2969 Q132.9063,665.75 131.6094,665.75 Q130.0938,665.75 128.8906,665.125 Q127.9063,664.625 127.2188,663.5625 Q126.5313,662.4844 126.5313,661.2031 L126.5313,660.0469 Q126.5313,658.7188 127.1406,657.5781 Q127.7656,656.4219 128.8594,655.8125 Q129.9531,655.1875 131.1875,655.1875 Q131.9219,655.1875 132.5625,655.3594 Q133.2188,655.5156 133.7656,655.875 Z " fill="#000000"/><text fill="#000000" font-family="sans-serif" font-size="14" lengthAdjust="spacing" textLength="137" x="145" y="665.7969">ListCoursesController</text><line style="stroke:#181818;stroke-width:0.5;" x1="117" x2="284" y1="676" y2="676"/><line style="stroke:#181818;stroke-width:0.5;" x1="117" x2="284" y1="684" y2="684"/><ellipse cx="127" cy="698.8105" fill="#84BE84" rx="3" ry="3" style="stroke:#038048;stroke-width:1.0;"/><text fill="#000000" font-family="sans-serif" font-size="14" lengthAdjust="spacing" textLength="137" x="136" y="703.1074">listCoursesAvailable()</text></g><!--class ListCourseService--><g id="elem_ListCourseService"><rect codeLine="14" fill="#F1F1F1" height="66.6211" id="ListCourseService" rx="2.5" ry="2.5" style="stroke:#181818;stroke-width:0.5;" width="160" x="175.5" y="772"/><ellipse cx="196.35" cy="788" fill="#ADD1B2" rx="11" ry="11" style="stroke:#181818;stroke-width:1.0;"/><path d="M199.1156,783.875 Q199.2719,783.6563 199.4594,783.5469 Q199.6469,783.4375 199.8656,783.4375 Q200.2406,783.4375 200.475,783.7031 Q200.7094,783.9531 200.7094,784.5625 L200.7094,786.0156 Q200.7094,786.625 200.475,786.8906 Q200.2406,787.1563 199.8656,787.1563 Q199.5219,787.1563 199.3188,786.9531 Q199.1156,786.7656 199.0063,786.25 Q198.9594,785.8906 198.7719,785.7031 Q198.4438,785.3281 197.8344,785.1094 Q197.225,784.8906 196.6,784.8906 Q195.8344,784.8906 195.1938,785.2188 Q194.5688,785.5469 194.0688,786.2969 Q193.5844,787.0469 193.5844,788.0781 L193.5844,789.1719 Q193.5844,790.4063 194.475,791.2344 Q195.3656,792.0469 196.9594,792.0469 Q197.8969,792.0469 198.5531,791.7969 Q198.9438,791.6406 199.3656,791.2031 Q199.6313,790.9375 199.7719,790.8594 Q199.9281,790.7813 200.1313,790.7813 Q200.4594,790.7813 200.7094,791.0469 Q200.975,791.2969 200.975,791.6406 Q200.975,791.9844 200.6313,792.3906 Q200.1313,792.9688 199.3344,793.2969 Q198.2563,793.75 196.9594,793.75 Q195.4438,793.75 194.2406,793.125 Q193.2563,792.625 192.5688,791.5625 Q191.8813,790.4844 191.8813,789.2031 L191.8813,788.0469 Q191.8813,786.7188 192.4906,785.5781 Q193.1156,784.4219 194.2094,783.8125 Q195.3031,783.1875 196.5375,783.1875 Q197.2719,783.1875 197.9125,783.3594 Q198.5688,783.5156 199.1156,783.875 Z " fill="#000000"/><text fill="#000000" font-family="sans-serif" font-size="14" lengthAdjust="spacing" textLength="115" x="211.65" y="793.7969">ListCourseService</text><line style="stroke:#181818;stroke-width:0.5;" x1="176.5" x2="334.5" y1="804" y2="804"/><line style="stroke:#181818;stroke-width:0.5;" x1="176.5" x2="334.5" y1="812" y2="812"/><ellipse cx="186.5" cy="826.8105" fill="#84BE84" rx="3" ry="3" style="stroke:#038048;stroke-width:1.0;"/><text fill="#000000" font-family="sans-serif" font-size="14" lengthAdjust="spacing" textLength="134" x="195.5" y="831.1074">allCoursesAvailable()</text></g><!--class AuthorizationService--><g id="elem_AuthorizationService"><rect codeLine="17" fill="#F1F1F1" height="85.2422" id="AuthorizationService" rx="2.5" ry="2.5" style="stroke:#181818;stroke-width:0.5;" width="315" x="255" y="147"/><ellipse cx="343.75" cy="163" fill="#ADD1B2" rx="11" ry="11" style="stroke:#181818;stroke-width:1.0;"/><path d="M346.5156,158.875 Q346.6719,158.6563 346.8594,158.5469 Q347.0469,158.4375 347.2656,158.4375 Q347.6406,158.4375 347.875,158.7031 Q348.1094,158.9531 348.1094,159.5625 L348.1094,161.0156 Q348.1094,161.625 347.875,161.8906 Q347.6406,162.1563 347.2656,162.1563 Q346.9219,162.1563 346.7188,161.9531 Q346.5156,161.7656 346.4063,161.25 Q346.3594,160.8906 346.1719,160.7031 Q345.8438,160.3281 345.2344,160.1094 Q344.625,159.8906 344,159.8906 Q343.2344,159.8906 342.5938,160.2188 Q341.9688,160.5469 341.4688,161.2969 Q340.9844,162.0469 340.9844,163.0781 L340.9844,164.1719 Q340.9844,165.4063 341.875,166.2344 Q342.7656,167.0469 344.3594,167.0469 Q345.2969,167.0469 345.9531,166.7969 Q346.3438,166.6406 346.7656,166.2031 Q347.0313,165.9375 347.1719,165.8594 Q347.3281,165.7813 347.5313,165.7813 Q347.8594,165.7813 348.1094,166.0469 Q348.375,166.2969 348.375,166.6406 Q348.375,166.9844 348.0313,167.3906 Q347.5313,167.9688 346.7344,168.2969 Q345.6563,168.75 344.3594,168.75 Q342.8438,168.75 341.6406,168.125 Q340.6563,167.625 339.9688,166.5625 Q339.2813,165.4844 339.2813,164.2031 L339.2813,163.0469 Q339.2813,161.7188 339.8906,160.5781 Q340.5156,159.4219 341.6094,158.8125 Q342.7031,158.1875 343.9375,158.1875 Q344.6719,158.1875 345.3125,158.3594 Q345.9688,158.5156 346.5156,158.875 Z " fill="#000000"/><text fill="#000000" font-family="sans-serif" font-size="14" lengthAdjust="spacing" textLength="129" x="364.25" y="168.7969">AuthorizationService</text><line style="stroke:#181818;stroke-width:0.5;" x1="256" x2="569" y1="179" y2="179"/><line style="stroke:#181818;stroke-width:0.5;" x1="256" x2="569" y1="187" y2="187"/><ellipse cx="266" cy="201.8105" fill="#84BE84" rx="3" ry="3" style="stroke:#038048;stroke-width:1.0;"/><text fill="#000000" font-family="sans-serif" font-size="14" lengthAdjust="spacing" textLength="289" x="275" y="206.1074">isAuthenticatedUserAuthorizedTo( BaseRole )</text><ellipse cx="266" cy="220.4316" fill="#84BE84" rx="3" ry="3" style="stroke:#038048;stroke-width:1.0;"/><text fill="#000000" font-family="sans-serif" font-size="14" lengthAdjust="spacing" textLength="58" x="275" y="224.7285">session()</text></g><!--class CourseRepository--><g id="elem_CourseRepository"><rect codeLine="21" fill="#F1F1F1" height="85.2422" id="CourseRepository" rx="2.5" ry="2.5" style="stroke:#181818;stroke-width:0.5;" width="233" x="7" y="900"/><ellipse cx="62.25" cy="916" fill="#B4A7E5" rx="11" ry="11" style="stroke:#181818;stroke-width:1.0;"/><path d="M63.2031,912.6406 L63.2031,919.2969 L64.9219,919.2969 Q65.5313,919.2969 65.7969,919.5313 Q66.0625,919.7656 66.0625,920.1563 Q66.0625,920.5313 65.7969,920.7656 Q65.5313,921 64.9219,921 L59.7813,921 Q59.1719,921 58.9063,920.7656 Q58.6406,920.5313 58.6406,920.1406 Q58.6406,919.7656 58.9063,919.5313 Q59.1719,919.2969 59.7813,919.2969 L61.5,919.2969 L61.5,912.6406 L59.7813,912.6406 Q59.1719,912.6406 58.9063,912.4063 Q58.6406,912.1719 58.6406,911.7813 Q58.6406,911.4063 58.9063,911.1719 Q59.1719,910.9375 59.7813,910.9375 L64.9219,910.9375 Q65.5313,910.9375 65.7969,911.1719 Q66.0625,911.4063 66.0625,911.7813 Q66.0625,912.1719 65.7969,912.4063 Q65.5313,912.6406 64.9219,912.6406 L63.2031,912.6406 Z " fill="#000000"/><text fill="#000000" font-family="sans-serif" font-size="14" font-style="italic" lengthAdjust="spacing" textLength="114" x="82.75" y="921.7969">CourseRepository</text><line style="stroke:#181818;stroke-width:0.5;" x1="8" x2="239" y1="932" y2="932"/><line style="stroke:#181818;stroke-width:0.5;" x1="8" x2="239" y1="940" y2="940"/><ellipse cx="18" cy="954.8105" fill="#84BE84" rx="3" ry="3" style="stroke:#038048;stroke-width:1.0;"/><text fill="#000000" font-family="sans-serif" font-size="14" lengthAdjust="spacing" textLength="207" x="27" y="959.1074">findAllWithStatus( courseStatus )</text><ellipse cx="18" cy="973.4316" fill="#84BE84" rx="3" ry="3" style="stroke:#038048;stroke-width:1.0;"/><text fill="#000000" font-family="sans-serif" font-size="14" lengthAdjust="spacing" textLength="101" x="27" y="977.7285">findAllCourses()</text></g><!--class eCourseUserRepository--><g id="elem_eCourseUserRepository"><rect codeLine="25" fill="#F1F1F1" height="66.6211" id="eCourseUserRepository" rx="2.5" ry="2.5" style="stroke:#181818;stroke-width:0.5;" width="184" x="275.5" y="909"/><ellipse cx="290.5" cy="925" fill="#B4A7E5" rx="11" ry="11" style="stroke:#181818;stroke-width:1.0;"/><path d="M291.4531,921.6406 L291.4531,928.2969 L293.1719,928.2969 Q293.7813,928.2969 294.0469,928.5313 Q294.3125,928.7656 294.3125,929.1563 Q294.3125,929.5313 294.0469,929.7656 Q293.7813,930 293.1719,930 L288.0313,930 Q287.4219,930 287.1563,929.7656 Q286.8906,929.5313 286.8906,929.1406 Q286.8906,928.7656 287.1563,928.5313 Q287.4219,928.2969 288.0313,928.2969 L289.75,928.2969 L289.75,921.6406 L288.0313,921.6406 Q287.4219,921.6406 287.1563,921.4063 Q286.8906,921.1719 286.8906,920.7813 Q286.8906,920.4063 287.1563,920.1719 Q287.4219,919.9375 288.0313,919.9375 L293.1719,919.9375 Q293.7813,919.9375 294.0469,920.1719 Q294.3125,920.4063 294.3125,920.7813 Q294.3125,921.1719 294.0469,921.4063 Q293.7813,921.6406 293.1719,921.6406 L291.4531,921.6406 Z " fill="#000000"/><text fill="#000000" font-family="sans-serif" font-size="14" font-style="italic" lengthAdjust="spacing" textLength="152" x="304.5" y="930.7969">eCourseUserRepository</text><line style="stroke:#181818;stroke-width:0.5;" x1="276.5" x2="458.5" y1="941" y2="941"/><line style="stroke:#181818;stroke-width:0.5;" x1="276.5" x2="458.5" y1="949" y2="949"/><ellipse cx="286.5" cy="963.8105" fill="#84BE84" rx="3" ry="3" style="stroke:#038048;stroke-width:1.0;"/><text fill="#000000" font-family="sans-serif" font-size="14" lengthAdjust="spacing" textLength="123" x="295.5" y="968.1074">searchUser( email )</text></g><!--class Course--><g id="elem_Course"><rect codeLine="28" fill="#F1F1F1" height="113.7852" id="Course" rx="2.5" ry="2.5" style="stroke:#181818;stroke-width:0.5;" width="78" x="279.5" y="1064"/><ellipse cx="294.5" cy="1094.2715" fill="#ADD1B2" rx="11" ry="11" style="stroke:#181818;stroke-width:1.0;"/><path d="M297.2656,1090.1465 Q297.4219,1089.9277 297.6094,1089.8184 Q297.7969,1089.709 298.0156,1089.709 Q298.3906,1089.709 298.625,1089.9746 Q298.8594,1090.2246 298.8594,1090.834 L298.8594,1092.2871 Q298.8594,1092.8965 298.625,1093.1621 Q298.3906,1093.4277 298.0156,1093.4277 Q297.6719,1093.4277 297.4688,1093.2246 Q297.2656,1093.0371 297.1563,1092.5215 Q297.1094,1092.1621 296.9219,1091.9746 Q296.5938,1091.5996 295.9844,1091.3809 Q295.375,1091.1621 294.75,1091.1621 Q293.9844,1091.1621 293.3438,1091.4902 Q292.7188,1091.8184 292.2188,1092.5684 Q291.7344,1093.3184 291.7344,1094.3496 L291.7344,1095.4434 Q291.7344,1096.6777 292.625,1097.5059 Q293.5156,1098.3184 295.1094,1098.3184 Q296.0469,1098.3184 296.7031,1098.0684 Q297.0938,1097.9121 297.5156,1097.4746 Q297.7813,1097.209 297.9219,1097.1309 Q298.0781,1097.0527 298.2813,1097.0527 Q298.6094,1097.0527 298.8594,1097.3184 Q299.125,1097.5684 299.125,1097.9121 Q299.125,1098.2559 298.7813,1098.6621 Q298.2813,1099.2402 297.4844,1099.5684 Q296.4063,1100.0215 295.1094,1100.0215 Q293.5938,1100.0215 292.3906,1099.3965 Q291.4063,1098.8965 290.7188,1097.834 Q290.0313,1096.7559 290.0313,1095.4746 L290.0313,1094.3184 Q290.0313,1092.9902 290.6406,1091.8496 Q291.2656,1090.6934 292.3594,1090.084 Q293.4531,1089.459 294.6875,1089.459 Q295.4219,1089.459 296.0625,1089.6309 Q296.7188,1089.7871 297.2656,1090.1465 Z " fill="#000000"/><text fill="#000000" font-family="sans-serif" font-size="12" font-style="italic" lengthAdjust="spacing" textLength="35" x="314" y="1081.9492">&#171;root&#187;</text><text fill="#000000" font-family="sans-serif" font-size="12" font-style="italic" lengthAdjust="spacing" textLength="43" x="310" y="1097.9102">&#171;entity&#187;</text><text fill="#000000" font-family="sans-serif" font-size="14" lengthAdjust="spacing" textLength="46" x="308.5" y="1116.0293">Course</text><line style="stroke:#181818;stroke-width:0.5;" x1="280.5" x2="356.5" y1="1124.543" y2="1124.543"/><ellipse cx="290.5" cy="1139.3535" fill="#000000" rx="3" ry="3" style="stroke:#000000;stroke-width:1.0;"/><text fill="#000000" font-family="sans-serif" font-size="14" lengthAdjust="spacing" textLength="11" x="299.5" y="1143.6504">id</text><ellipse cx="290.5" cy="1157.9746" fill="#000000" rx="3" ry="3" style="stroke:#000000;stroke-width:1.0;"/><text fill="#000000" font-family="sans-serif" font-size="14" lengthAdjust="spacing" textLength="35" x="299.5" y="1162.2715">name</text><line style="stroke:#181818;stroke-width:0.5;" x1="280.5" x2="356.5" y1="1169.7852" y2="1169.7852"/></g><!--class BaseRole--><g id="elem_BaseRole"><rect codeLine="32" fill="#F1F1F1" height="79.2031" id="BaseRole" rx="2.5" ry="2.5" style="stroke:#181818;stroke-width:0.5;" width="109" x="569" y="7"/><ellipse cx="584" cy="29.291" fill="#ADD1B2" rx="11" ry="11" style="stroke:#181818;stroke-width:1.0;"/><path d="M586.7656,25.166 Q586.9219,24.9473 587.1094,24.8379 Q587.2969,24.7285 587.5156,24.7285 Q587.8906,24.7285 588.125,24.9941 Q588.3594,25.2441 588.3594,25.8535 L588.3594,27.3066 Q588.3594,27.916 588.125,28.1816 Q587.8906,28.4473 587.5156,28.4473 Q587.1719,28.4473 586.9688,28.2441 Q586.7656,28.0566 586.6563,27.541 Q586.6094,27.1816 586.4219,26.9941 Q586.0938,26.6191 585.4844,26.4004 Q584.875,26.1816 584.25,26.1816 Q583.4844,26.1816 582.8438,26.5098 Q582.2188,26.8379 581.7188,27.5879 Q581.2344,28.3379 581.2344,29.3691 L581.2344,30.4629 Q581.2344,31.6973 582.125,32.5254 Q583.0156,33.3379 584.6094,33.3379 Q585.5469,33.3379 586.2031,33.0879 Q586.5938,32.9316 587.0156,32.4941 Q587.2813,32.2285 587.4219,32.1504 Q587.5781,32.0723 587.7813,32.0723 Q588.1094,32.0723 588.3594,32.3379 Q588.625,32.5879 588.625,32.9316 Q588.625,33.2754 588.2813,33.6816 Q587.7813,34.2598 586.9844,34.5879 Q585.9063,35.041 584.6094,35.041 Q583.0938,35.041 581.8906,34.416 Q580.9063,33.916 580.2188,32.8535 Q579.5313,31.7754 579.5313,30.4941 L579.5313,29.3379 Q579.5313,28.0098 580.1406,26.8691 Q580.7656,25.7129 581.8594,25.1035 Q582.9531,24.4785 584.1875,24.4785 Q584.9219,24.4785 585.5625,24.6504 Q586.2188,24.8066 586.7656,25.166 Z " fill="#000000"/><text fill="#000000" font-family="sans-serif" font-size="12" font-style="italic" lengthAdjust="spacing" textLength="81" x="596" y="24.9492">&#171;value object&#187;</text><text fill="#000000" font-family="sans-serif" font-size="14" lengthAdjust="spacing" textLength="61" x="606" y="43.0684">BaseRole</text><line style="stroke:#181818;stroke-width:0.5;" x1="570" x2="677" y1="51.582" y2="51.582"/><ellipse cx="580" cy="66.3926" fill="#000000" rx="3" ry="3" style="stroke:#000000;stroke-width:1.0;"/><text fill="#000000" font-family="sans-serif" font-size="14" lengthAdjust="spacing" textLength="24" x="589" y="70.6895">role</text><line style="stroke:#181818;stroke-width:0.5;" x1="570" x2="677" y1="78.2031" y2="78.2031"/></g><!--class Role--><g id="elem_Role"><rect codeLine="35" fill="#F1F1F1" height="79.2031" id="Role" rx="2.5" ry="2.5" style="stroke:#181818;stroke-width:0.5;" width="109" x="566" y="504"/><ellipse cx="581" cy="526.291" fill="#ADD1B2" rx="11" ry="11" style="stroke:#181818;stroke-width:1.0;"/><path d="M583.7656,522.166 Q583.9219,521.9473 584.1094,521.8379 Q584.2969,521.7285 584.5156,521.7285 Q584.8906,521.7285 585.125,521.9941 Q585.3594,522.2441 585.3594,522.8535 L585.3594,524.3066 Q585.3594,524.916 585.125,525.1816 Q584.8906,525.4473 584.5156,525.4473 Q584.1719,525.4473 583.9688,525.2441 Q583.7656,525.0566 583.6563,524.541 Q583.6094,524.1816 583.4219,523.9941 Q583.0938,523.6191 582.4844,523.4004 Q581.875,523.1816 581.25,523.1816 Q580.4844,523.1816 579.8438,523.5098 Q579.2188,523.8379 578.7188,524.5879 Q578.2344,525.3379 578.2344,526.3691 L578.2344,527.4629 Q578.2344,528.6973 579.125,529.5254 Q580.0156,530.3379 581.6094,530.3379 Q582.5469,530.3379 583.2031,530.0879 Q583.5938,529.9316 584.0156,529.4941 Q584.2813,529.2285 584.4219,529.1504 Q584.5781,529.0723 584.7813,529.0723 Q585.1094,529.0723 585.3594,529.3379 Q585.625,529.5879 585.625,529.9316 Q585.625,530.2754 585.2813,530.6816 Q584.7813,531.2598 583.9844,531.5879 Q582.9063,532.041 581.6094,532.041 Q580.0938,532.041 578.8906,531.416 Q577.9063,530.916 577.2188,529.8535 Q576.5313,528.7754 576.5313,527.4941 L576.5313,526.3379 Q576.5313,525.0098 577.1406,523.8691 Q577.7656,522.7129 578.8594,522.1035 Q579.9531,521.4785 581.1875,521.4785 Q581.9219,521.4785 582.5625,521.6504 Q583.2188,521.8066 583.7656,522.166 Z " fill="#000000"/><text fill="#000000" font-family="sans-serif" font-size="12" font-style="italic" lengthAdjust="spacing" textLength="81" x="593" y="521.9492">&#171;value object&#187;</text><text fill="#000000" font-family="sans-serif" font-size="14" lengthAdjust="spacing" textLength="29" x="619" y="540.0684">Role</text><line style="stroke:#181818;stroke-width:0.5;" x1="567" x2="674" y1="548.582" y2="548.582"/><ellipse cx="577" cy="563.3926" fill="#000000" rx="3" ry="3" style="stroke:#000000;stroke-width:1.0;"/><text fill="#000000" font-family="sans-serif" font-size="14" lengthAdjust="spacing" textLength="35" x="586" y="567.6895">name</text><line style="stroke:#181818;stroke-width:0.5;" x1="567" x2="674" y1="575.2031" y2="575.2031"/></g><!--class CourseCode--><g id="elem_CourseCode"><rect codeLine="38" fill="#F1F1F1" height="79.2031" id="CourseCode" rx="2.5" ry="2.5" style="stroke:#181818;stroke-width:0.5;" width="112" x="187.5" y="1242"/><ellipse cx="202.5" cy="1264.291" fill="#ADD1B2" rx="11" ry="11" style="stroke:#181818;stroke-width:1.0;"/><path d="M205.2656,1260.166 Q205.4219,1259.9473 205.6094,1259.8379 Q205.7969,1259.7285 206.0156,1259.7285 Q206.3906,1259.7285 206.625,1259.9941 Q206.8594,1260.2441 206.8594,1260.8535 L206.8594,1262.3066 Q206.8594,1262.916 206.625,1263.1816 Q206.3906,1263.4473 206.0156,1263.4473 Q205.6719,1263.4473 205.4688,1263.2441 Q205.2656,1263.0566 205.1563,1262.541 Q205.1094,1262.1816 204.9219,1261.9941 Q204.5938,1261.6191 203.9844,1261.4004 Q203.375,1261.1816 202.75,1261.1816 Q201.9844,1261.1816 201.3438,1261.5098 Q200.7188,1261.8379 200.2188,1262.5879 Q199.7344,1263.3379 199.7344,1264.3691 L199.7344,1265.4629 Q199.7344,1266.6973 200.625,1267.5254 Q201.5156,1268.3379 203.1094,1268.3379 Q204.0469,1268.3379 204.7031,1268.0879 Q205.0938,1267.9316 205.5156,1267.4941 Q205.7813,1267.2285 205.9219,1267.1504 Q206.0781,1267.0723 206.2813,1267.0723 Q206.6094,1267.0723 206.8594,1267.3379 Q207.125,1267.5879 207.125,1267.9316 Q207.125,1268.2754 206.7813,1268.6816 Q206.2813,1269.2598 205.4844,1269.5879 Q204.4063,1270.041 203.1094,1270.041 Q201.5938,1270.041 200.3906,1269.416 Q199.4063,1268.916 198.7188,1267.8535 Q198.0313,1266.7754 198.0313,1265.4941 L198.0313,1264.3379 Q198.0313,1263.0098 198.6406,1261.8691 Q199.2656,1260.7129 200.3594,1260.1035 Q201.4531,1259.4785 202.6875,1259.4785 Q203.4219,1259.4785 204.0625,1259.6504 Q204.7188,1259.8066 205.2656,1260.166 Z " fill="#000000"/><text fill="#000000" font-family="sans-serif" font-size="12" font-style="italic" lengthAdjust="spacing" textLength="81" x="216" y="1259.9492">&#171;value object&#187;</text><text fill="#000000" font-family="sans-serif" font-size="14" lengthAdjust="spacing" textLength="80" x="216.5" y="1278.0684">CourseCode</text><line style="stroke:#181818;stroke-width:0.5;" x1="188.5" x2="298.5" y1="1286.582" y2="1286.582"/><ellipse cx="198.5" cy="1301.3926" fill="#000000" rx="3" ry="3" style="stroke:#000000;stroke-width:1.0;"/><text fill="#000000" font-family="sans-serif" font-size="14" lengthAdjust="spacing" textLength="31" x="207.5" y="1305.6895">code</text><line style="stroke:#181818;stroke-width:0.5;" x1="188.5" x2="298.5" y1="1313.2031" y2="1313.2031"/></g><!--class CourseStatus--><g id="elem_CourseStatus"><rect codeLine="41" fill="#F1F1F1" height="85.2422" id="CourseStatus" rx="2.5" ry="2.5" style="stroke:#181818;stroke-width:0.5;" width="118" x="334.5" y="1239"/><ellipse cx="349.5" cy="1255" fill="#EB937F" rx="11" ry="11" style="stroke:#181818;stroke-width:1.0;"/><path d="M348.3594,1255.7969 L348.3594,1258.2969 L352.6875,1258.2969 L352.6875,1257.375 Q352.6875,1256.7656 352.9219,1256.5 Q353.1719,1256.2344 353.5469,1256.2344 Q353.9219,1256.2344 354.1563,1256.5 Q354.3906,1256.7656 354.3906,1257.375 L354.3906,1260 L346.3906,1260 Q345.7656,1260 345.5,1259.7656 Q345.25,1259.5313 345.25,1259.1406 Q345.25,1258.7656 345.5156,1258.5313 Q345.7813,1258.2969 346.3906,1258.2969 L346.6563,1258.2969 L346.6563,1251.6406 L346.3906,1251.6406 Q345.7656,1251.6406 345.5,1251.4063 Q345.25,1251.1719 345.25,1250.7813 Q345.25,1250.4063 345.5,1250.1719 Q345.7656,1249.9375 346.3906,1249.9375 L354.0156,1249.9375 L354.0156,1252.5313 Q354.0156,1253.1406 353.7813,1253.4063 Q353.5625,1253.6563 353.1719,1253.6563 Q352.7969,1253.6563 352.5625,1253.4063 Q352.3281,1253.1406 352.3281,1252.5313 L352.3281,1251.6406 L348.3594,1251.6406 L348.3594,1254.0938 L349.8438,1254.0938 Q349.8438,1253.4375 349.9688,1253.25 Q350.2344,1252.8438 350.7031,1252.8438 Q351.0781,1252.8438 351.3125,1253.1094 Q351.5469,1253.3594 351.5469,1253.9688 L351.5469,1255.9375 Q351.5469,1256.4844 351.4219,1256.6719 Q351.1563,1257.0625 350.7031,1257.0625 Q350.2344,1257.0625 349.9688,1256.6563 Q349.8438,1256.4688 349.8438,1255.7969 L348.3594,1255.7969 Z " fill="#000000"/><text fill="#000000" font-family="sans-serif" font-size="14" lengthAdjust="spacing" textLength="86" x="363.5" y="1260.7969">CourseStatus</text><line style="stroke:#181818;stroke-width:0.5;" x1="335.5" x2="451.5" y1="1271" y2="1271"/><text fill="#000000" font-family="sans-serif" font-size="14" lengthAdjust="spacing" textLength="38" x="340.5" y="1290.1074">OPEN</text><text fill="#000000" font-family="sans-serif" font-size="14" lengthAdjust="spacing" textLength="47" x="340.5" y="1308.7285">CLOSE</text><line style="stroke:#181818;stroke-width:0.5;" x1="335.5" x2="451.5" y1="1316.2422" y2="1316.2422"/></g><!--link eCourseSystemUser to ListCourseService--><g id="link_eCourseSystemUser_ListCourseService"><path codeLine="47" d="M406.16,425.31 C383.36,496.51 344.1,613.34 302.5,711 C293.74,731.56 282.55,753.95 273.28,771.66 " fill="none" id="eCourseSystemUser-ListCourseService" style="stroke:#181818;stroke-width:1.0;"/><text fill="#000000" font-family="sans-serif" font-size="13" lengthAdjust="spacing" textLength="7" x="396.5525" y="447.5144">1</text><text fill="#000000" font-family="sans-serif" font-size="13" lengthAdjust="spacing" textLength="7" x="269.0021" y="760.6811">1</text></g><!--link Course to CourseCode--><g id="link_Course_CourseCode"><path codeLine="48" d="M291.85,1178.33 C281.91,1199.33 270.86,1222.68 261.84,1241.75 " fill="none" id="Course-CourseCode" style="stroke:#181818;stroke-width:1.0;"/><text fill="#000000" font-family="sans-serif" font-size="13" lengthAdjust="spacing" textLength="7" x="281.3639" y="1199.9992">1</text><text fill="#000000" font-family="sans-serif" font-size="13" lengthAdjust="spacing" textLength="7" x="257.2979" y="1230.7942">1</text></g><!--link eCourseSystemUser to ListCoursesUI--><g id="link_eCourseSystemUser_ListCoursesUI"><path codeLine="50" d="M345.97,409.74 C325.08,423.65 302.99,439.28 283.5,455 C262.64,471.83 241.05,492.69 224.24,509.82 " fill="none" id="eCourseSystemUser-ListCoursesUI" style="stroke:#181818;stroke-width:1.0;stroke-dasharray:7.0,7.0;"/><text fill="#000000" font-family="sans-serif" font-size="13" lengthAdjust="spacing" textLength="50" x="284.5" y="470.0283">interacts</text></g><!--link eCourseSystemUser to Course--><g id="link_eCourseSystemUser_Course"><path codeLine="51" d="M474.03,425.05 C493.92,458.45 512.5,500.82 512.5,542.5 C512.5,542.5 512.5,542.5 512.5,943.5 C512.5,1026.37 414.45,1080.62 357.76,1105.06 " fill="none" id="eCourseSystemUser-Course" style="stroke:#181818;stroke-width:1.0;"/></g><!--link ListCoursesUI to ListCoursesController--><g id="link_ListCoursesUI_ListCoursesController"><path codeLine="52" d="M195.23,577.13 C196.31,597.44 197.69,623.47 198.77,643.79 " fill="none" id="ListCoursesUI-ListCoursesController" style="stroke:#181818;stroke-width:1.0;stroke-dasharray:7.0,7.0;"/></g><!--link ListCoursesController to ListCourseService--><g id="link_ListCoursesController_ListCourseService"><path codeLine="53" d="M214.81,711.28 C222.96,729.94 233.13,753.25 241.26,771.89 " fill="none" id="ListCoursesController-ListCourseService" style="stroke:#181818;stroke-width:1.0;stroke-dasharray:7.0,7.0;"/></g><!--link ListCourseService to CourseRepository--><g id="link_ListCourseService_CourseRepository"><path codeLine="54" d="M223.55,839.18 C205.69,857.44 183.26,880.38 164.16,899.91 " fill="none" id="ListCourseService-CourseRepository" style="stroke:#181818;stroke-width:1.0;stroke-dasharray:7.0,7.0;"/></g><!--link ListCourseService to AuthorizationService--><g id="link_ListCourseService_AuthorizationService"><path codeLine="55" d="M175.38,793.89 C109,780.07 25.5,748.73 25.5,678.5 C25.5,358 25.5,358 25.5,358 C25.5,252.67 147.74,212.83 254.81,198.13 " fill="none" id="ListCourseService-AuthorizationService" style="stroke:#181818;stroke-width:1.0;stroke-dasharray:7.0,7.0;"/></g><!--link BaseRole to AuthorizationService--><g id="link_BaseRole_AuthorizationService"><path codeLine="56" d="M568.89,83.99 C540.07,103.25 504.59,126.96 474.72,146.92 " fill="none" id="BaseRole-AuthorizationService" style="stroke:#181818;stroke-width:1.0;stroke-dasharray:7.0,7.0;"/></g><!--link AuthorizationService to eCourseSystemUser--><g id="link_AuthorizationService_eCourseSystemUser"><path codeLine="57" d="M416,232.34 C417.53,250.65 419.36,272.57 421.06,292.93 " fill="none" id="AuthorizationService-eCourseSystemUser" style="stroke:#181818;stroke-width:1.0;stroke-dasharray:7.0,7.0;"/></g><!--link ListCourseService to BaseRole--><g id="link_ListCourseService_BaseRole"><path codeLine="58" d="M335.74,799.63 C470.69,789.21 728.5,758.81 728.5,678.5 C728.5,188.5 728.5,188.5 728.5,188.5 C728.5,148.06 700.37,111.71 673.23,86.05 " fill="none" id="ListCourseService-BaseRole" style="stroke:#181818;stroke-width:1.0;stroke-dasharray:7.0,7.0;"/></g><!--link ListCourseService to eCourseUserRepository--><g id="link_ListCourseService_eCourseUserRepository"><path codeLine="59" d="M282.61,839.18 C300.09,860.25 322.74,887.55 340.25,908.65 " fill="none" id="ListCourseService-eCourseUserRepository" style="stroke:#181818;stroke-width:1.0;stroke-dasharray:7.0,7.0;"/></g><!--link CourseRepository to Course--><g id="link_CourseRepository_Course"><path codeLine="60" d="M169.71,985.33 C203.05,1015.5 247.57,1055.8 279.2,1084.43 " fill="none" id="CourseRepository-Course" style="stroke:#181818;stroke-width:1.0;stroke-dasharray:7.0,7.0;"/><text fill="#000000" font-family="sans-serif" font-size="13" lengthAdjust="spacing" textLength="25" x="222.5" y="1030.0283">repo</text></g><!--link Course to CourseStatus--><g id="link_Course_CourseStatus"><path codeLine="61" d="M345.15,1178.33 C354.58,1198.26 365.02,1220.31 373.77,1238.8 " fill="none" id="Course-CourseStatus" style="stroke:#181818;stroke-width:1.0;"/><text fill="#000000" font-family="sans-serif" font-size="13" lengthAdjust="spacing" textLength="5" x="342.9423" y="1199.9992">*</text><text fill="#000000" font-family="sans-serif" font-size="13" lengthAdjust="spacing" textLength="7" x="363.0677" y="1227.6722">1</text></g><!--link BaseRole to Role--><g id="link_BaseRole_Role"><path codeLine="62" d="M623.26,86.34 C622.7,178.87 621.29,411.49 620.73,503.84 " fill="none" id="BaseRole-Role" style="stroke:#181818;stroke-width:1.0;stroke-dasharray:7.0,7.0;"/></g><!--link eCourseSystemUser to Role--><g id="link_eCourseSystemUser_Role"><path codeLine="63" d="M505.53,425.07 C516.78,434.89 528.06,445.07 538.5,455 C554.64,470.36 571.61,488.16 585.9,503.69 " fill="none" id="eCourseSystemUser-Role" style="stroke:#181818;stroke-width:1.0;stroke-dasharray:7.0,7.0;"/></g><!--link eCourseSystemUser to eCourseUserRepository--><g id="link_eCourseSystemUser_eCourseUserRepository"><path codeLine="64" d="M429.68,425.02 C431.11,459.85 432.5,503.51 432.5,542.5 C432.5,542.5 432.5,542.5 432.5,806.5 C432.5,844.35 411.5,882.78 393.38,908.91 " fill="none" id="eCourseSystemUser-eCourseUserRepository" style="stroke:#181818;stroke-width:1.0;stroke-dasharray:7.0,7.0;"/><text fill="#000000" font-family="sans-serif" font-size="13" lengthAdjust="spacing" textLength="25" x="433.5" y="683.0283">repo</text></g><!--SRC=[VLHDRzim3BthLmYzBEiG1xiMHe0iI841HJlKBNPMPNPM8Kk6H0V8WlttqPO_OpM-s2GV7xzUygL0hFpTPbDfOR0kTI9jkP5QUB_EbVZZHCbOQtBOszfvo4uUeNpru7YQEcjnkwMFWq659_eyCqxFBR-ljNuK9NHcLbY7W_sDovRBlu2G1UIhh-nVL-L1UGo5_ElFSuUk77WmlN_LWj9WRNaqTsyDEgirk9v3Zy7TKIWjtZH4wsRWZaf2doUqlfAsgv4cKty5AcikCfLlejItaW8XRrRMmo5_iIl-GtXujXfeX911HJpnjFpA8BXt8O67yizGMQ_GkbFF_wvCljFwjy8YGu4rBIQiDLW3QuVhjpSdxwxQDBUiu44uMJIn5OUIffyiE-HDDG1p3OJ3gtnYc4O0FS4mVPeUXQw1sxSFa3ZH41rmX5-7pfX3QtkRNqcG5AK4C7NPuRkjdTdJhyCZspyyPGS2CBRK_Stt6xvUjw-5R5YtbmbcR2T6bYHppVCxtbv7IFGHE7467vjdpMb6-REeTmxlMrzu6jYb-kAesE-0nPmygQjakFqda6JvPnClE_14er5jiyk1nY5fzOxSmmblBquO5C86uL9YMpnwrCyZqRRwsly1]--></g></svg>