<?xml version="1.0" encoding="us-ascii" standalone="no"?><svg xmlns="http://www.w3.org/2000/svg" xmlns:xlink="http://www.w3.org/1999/xlink" contentStyleType="text/css" height="693.6px" preserveAspectRatio="none" style="width:1030px;height:693px;background:#FFFFFF;" version="1.1" viewBox="0 0 1030 693" width="1030.8px" zoomAndPan="magnify"><defs/><g><!--class eCourseSystemUser--><g id="elem_eCourseSystemUser"><rect codeLine="3" fill="#F1F1F1" height="174.0445" id="eCourseSystemUser" rx="1.5" ry="1.5" style="stroke:#181818;stroke-width:0.3;" width="274.2" x="194.4" y="30.048"/><ellipse cx="290.25" cy="39.648" fill="#ADD1B2" rx="6.6" ry="6.6" style="stroke:#181818;stroke-width:0.6;"/><path d="M291.9094,37.173 Q292.0031,37.0417 292.1156,36.9761 Q292.2281,36.9105 292.3594,36.9105 Q292.5844,36.9105 292.725,37.0699 Q292.8656,37.2199 292.8656,37.5855 L292.8656,38.4574 Q292.8656,38.823 292.725,38.9824 Q292.5844,39.1417 292.3594,39.1417 Q292.1531,39.1417 292.0313,39.0199 Q291.9094,38.9074 291.8438,38.598 Q291.8156,38.3824 291.7031,38.2699 Q291.5062,38.0449 291.1406,37.9136 Q290.775,37.7824 290.4,37.7824 Q289.9406,37.7824 289.5563,37.9792 Q289.1813,38.1761 288.8812,38.6261 Q288.5906,39.0761 288.5906,39.6949 L288.5906,40.3511 Q288.5906,41.0917 289.125,41.5886 Q289.6594,42.0761 290.6156,42.0761 Q291.1781,42.0761 291.5719,41.9261 Q291.8063,41.8324 292.0594,41.5699 Q292.2188,41.4105 292.3031,41.3636 Q292.3969,41.3167 292.5188,41.3167 Q292.7156,41.3167 292.8656,41.4761 Q293.025,41.6261 293.025,41.8324 Q293.025,42.0386 292.8187,42.2824 Q292.5188,42.6292 292.0406,42.8261 Q291.3938,43.098 290.6156,43.098 Q289.7063,43.098 288.9844,42.723 Q288.3938,42.423 287.9813,41.7855 Q287.5687,41.1386 287.5687,40.3699 L287.5687,39.6761 Q287.5687,38.8792 287.9344,38.1949 Q288.3094,37.5011 288.9656,37.1355 Q289.6219,36.7605 290.3625,36.7605 Q290.8031,36.7605 291.1875,36.8636 Q291.5813,36.9574 291.9094,37.173 Z " fill="#000000"/><text fill="#000000" font-family="sans-serif" font-size="8.4" lengthAdjust="spacing" textLength="77.4" x="302.55" y="43.1261">eCourseSystemUser</text><line style="stroke:#181818;stroke-width:0.3;" x1="195" x2="468" y1="49.248" y2="49.248"/><ellipse cx="201" cy="58.1343" fill="#000000" rx="1.8" ry="1.8" style="stroke:#000000;stroke-width:0.6;"/><text fill="#000000" font-family="sans-serif" font-size="8.4" lengthAdjust="spacing" textLength="57" x="206.4" y="60.7125">String fullName</text><ellipse cx="201" cy="69.307" fill="#000000" rx="1.8" ry="1.8" style="stroke:#000000;stroke-width:0.6;"/><text fill="#000000" font-family="sans-serif" font-size="8.4" lengthAdjust="spacing" textLength="65.4" x="206.4" y="71.8851">String shortName</text><ellipse cx="201" cy="80.4796" fill="#000000" rx="1.8" ry="1.8" style="stroke:#000000;stroke-width:0.6;"/><text fill="#000000" font-family="sans-serif" font-size="8.4" lengthAdjust="spacing" textLength="34.2" x="206.4" y="83.0578">Role role</text><ellipse cx="201" cy="91.6523" fill="#000000" rx="1.8" ry="1.8" style="stroke:#000000;stroke-width:0.6;"/><text fill="#000000" font-family="sans-serif" font-size="8.4" lengthAdjust="spacing" textLength="42.6" x="206.4" y="94.2304">Email email</text><ellipse cx="201" cy="102.825" fill="#000000" rx="1.8" ry="1.8" style="stroke:#000000;stroke-width:0.6;"/><text fill="#000000" font-family="sans-serif" font-size="8.4" lengthAdjust="spacing" textLength="75" x="206.4" y="105.4031">Password password</text><ellipse cx="201" cy="113.9976" fill="#000000" rx="1.8" ry="1.8" style="stroke:#000000;stroke-width:0.6;"/><text fill="#000000" font-family="sans-serif" font-size="8.4" lengthAdjust="spacing" textLength="66.6" x="206.4" y="116.5757">UserStatus status</text><ellipse cx="201" cy="125.1703" fill="#000000" rx="1.8" ry="1.8" style="stroke:#000000;stroke-width:0.6;"/><text fill="#000000" font-family="sans-serif" font-size="8.4" lengthAdjust="spacing" textLength="116.4" x="206.4" y="127.7484">List&lt;Course&gt; coursesTeached</text><ellipse cx="201" cy="136.3429" fill="#000000" rx="1.8" ry="1.8" style="stroke:#000000;stroke-width:0.6;"/><text fill="#000000" font-family="sans-serif" font-size="8.4" lengthAdjust="spacing" textLength="118.2" x="206.4" y="138.921">List&lt;Course&gt; coursesTeaching</text><ellipse cx="201" cy="147.5156" fill="#000000" rx="1.8" ry="1.8" style="stroke:#000000;stroke-width:0.6;"/><text fill="#000000" font-family="sans-serif" font-size="8.4" lengthAdjust="spacing" textLength="24" x="206.4" y="150.0937">NIF nif</text><ellipse cx="201" cy="158.6882" fill="#000000" rx="1.8" ry="1.8" style="stroke:#000000;stroke-width:0.6;"/><text fill="#000000" font-family="sans-serif" font-size="8.4" lengthAdjust="spacing" textLength="67.8" x="206.4" y="161.2664">Acronym acronym</text><line style="stroke:#181818;stroke-width:0.3;" x1="195" x2="468" y1="165.7746" y2="165.7746"/><ellipse cx="201" cy="180.2472" fill="#84BE84" rx="1.8" ry="1.8" style="stroke:#038048;stroke-width:0.6;"/><text fill="#000000" font-family="sans-serif" font-size="8.4" lengthAdjust="spacing" textLength="256.2" x="206.4" y="177.239">eCourseSystemUser(String: fullName, String: shortName, Role: role,</text><text fill="#000000" font-family="sans-serif" font-size="8.4" lengthAdjust="spacing" textLength="193.2" x="208.8" y="188.4117">Email: email, Password, password, boolean: status)</text><ellipse cx="201" cy="197.0062" fill="#84BE84" rx="1.8" ry="1.8" style="stroke:#038048;stroke-width:0.6;"/><text fill="#000000" font-family="sans-serif" font-size="8.4" lengthAdjust="spacing" textLength="123" x="206.4" y="199.5843">AlterUserStatus(boolean: status)</text></g><!--class userRepository--><g id="elem_userRepository"><rect codeLine="22" fill="#F1F1F1" height="118.1812" id="userRepository" rx="1.5" ry="1.5" style="stroke:#181818;stroke-width:0.3;" width="126" x="326.7" y="571.248"/><ellipse cx="358.35" cy="580.848" fill="#ADD1B2" rx="6.6" ry="6.6" style="stroke:#181818;stroke-width:0.6;"/><path d="M360.0094,578.373 Q360.1031,578.2417 360.2156,578.1761 Q360.3281,578.1105 360.4594,578.1105 Q360.6844,578.1105 360.825,578.2699 Q360.9656,578.4199 360.9656,578.7855 L360.9656,579.6574 Q360.9656,580.023 360.825,580.1824 Q360.6844,580.3417 360.4594,580.3417 Q360.2531,580.3417 360.1312,580.2199 Q360.0094,580.1074 359.9437,579.798 Q359.9156,579.5824 359.8031,579.4699 Q359.6063,579.2449 359.2406,579.1136 Q358.875,578.9824 358.5,578.9824 Q358.0406,578.9824 357.6563,579.1792 Q357.2813,579.3761 356.9813,579.8261 Q356.6906,580.2761 356.6906,580.8949 L356.6906,581.5511 Q356.6906,582.2918 357.225,582.7886 Q357.7594,583.2761 358.7156,583.2761 Q359.2781,583.2761 359.6719,583.1261 Q359.9063,583.0324 360.1594,582.7699 Q360.3187,582.6105 360.4031,582.5636 Q360.4969,582.5167 360.6188,582.5167 Q360.8156,582.5167 360.9656,582.6761 Q361.125,582.8261 361.125,583.0324 Q361.125,583.2386 360.9188,583.4824 Q360.6188,583.8292 360.1406,584.0261 Q359.4938,584.298 358.7156,584.298 Q357.8063,584.298 357.0844,583.923 Q356.4938,583.623 356.0813,582.9855 Q355.6688,582.3386 355.6688,581.5699 L355.6688,580.8761 Q355.6688,580.0792 356.0344,579.3949 Q356.4094,578.7011 357.0656,578.3355 Q357.7219,577.9605 358.4625,577.9605 Q358.9031,577.9605 359.2875,578.0636 Q359.6813,578.1574 360.0094,578.373 Z " fill="#000000"/><text fill="#000000" font-family="sans-serif" font-size="8.4" lengthAdjust="spacing" textLength="57.6" x="370.65" y="584.3261">userRepository</text><line style="stroke:#181818;stroke-width:0.3;" x1="327.3" x2="452.1" y1="590.448" y2="590.448"/><line style="stroke:#181818;stroke-width:0.3;" x1="327.3" x2="452.1" y1="595.248" y2="595.248"/><ellipse cx="333.3" cy="604.1343" fill="#84BE84" rx="1.8" ry="1.8" style="stroke:#038048;stroke-width:0.6;"/><text fill="#000000" font-family="sans-serif" font-size="8.4" lengthAdjust="spacing" textLength="75.6" x="338.7" y="606.7125">adduser(user: user)</text><ellipse cx="333.3" cy="615.307" fill="#84BE84" rx="1.8" ry="1.8" style="stroke:#038048;stroke-width:0.6;"/><text fill="#000000" font-family="sans-serif" font-size="8.4" lengthAdjust="spacing" textLength="89.4" x="338.7" y="617.8851">removeuser(user: user)</text><ellipse cx="333.3" cy="626.4796" fill="#84BE84" rx="1.8" ry="1.8" style="stroke:#038048;stroke-width:0.6;"/><text fill="#000000" font-family="sans-serif" font-size="8.4" lengthAdjust="spacing" textLength="108.6" x="338.7" y="629.0578">searchuser(user: user): user</text><ellipse cx="333.3" cy="637.6523" fill="#84BE84" rx="1.8" ry="1.8" style="stroke:#038048;stroke-width:0.6;"/><text fill="#000000" font-family="sans-serif" font-size="8.4" lengthAdjust="spacing" textLength="102" x="338.7" y="640.2304">alteruserStatus(user: user)</text><ellipse cx="333.3" cy="648.825" fill="#84BE84" rx="1.8" ry="1.8" style="stroke:#038048;stroke-width:0.6;"/><text fill="#000000" font-family="sans-serif" font-size="8.4" lengthAdjust="spacing" textLength="95.4" x="338.7" y="651.4031">totalNumberOfusers(): int</text><ellipse cx="333.3" cy="659.9976" fill="#84BE84" rx="1.8" ry="1.8" style="stroke:#038048;stroke-width:0.6;"/><text fill="#000000" font-family="sans-serif" font-size="8.4" lengthAdjust="spacing" textLength="109.2" x="338.7" y="662.5757">listSystemusers(): List&lt;user&gt;</text><ellipse cx="333.3" cy="671.1703" fill="#84BE84" rx="1.8" ry="1.8" style="stroke:#038048;stroke-width:0.6;"/><text fill="#000000" font-family="sans-serif" font-size="8.4" lengthAdjust="spacing" textLength="105" x="338.7" y="673.7484">getopenusers() : List&lt;user&gt;</text><ellipse cx="333.3" cy="682.3429" fill="#84BE84" rx="1.8" ry="1.8" style="stroke:#038048;stroke-width:0.6;"/><text fill="#000000" font-family="sans-serif" font-size="8.4" lengthAdjust="spacing" textLength="110.4" x="338.7" y="684.921">getclosedusers() : List&lt;user&gt;</text></g><!--class ExamRepository--><g id="elem_ExamRepository"><rect codeLine="33" fill="#F1F1F1" height="73.4906" id="ExamRepository" rx="1.5" ry="1.5" style="stroke:#181818;stroke-width:0.3;" width="138.6" x="690" y="80.448"/><ellipse cx="726.15" cy="90.048" fill="#ADD1B2" rx="6.6" ry="6.6" style="stroke:#181818;stroke-width:0.6;"/><path d="M727.8094,87.573 Q727.9031,87.4417 728.0156,87.3761 Q728.1281,87.3105 728.2594,87.3105 Q728.4844,87.3105 728.625,87.4699 Q728.7656,87.6199 728.7656,87.9855 L728.7656,88.8574 Q728.7656,89.223 728.625,89.3824 Q728.4844,89.5417 728.2594,89.5417 Q728.0531,89.5417 727.9313,89.4199 Q727.8094,89.3074 727.7438,88.998 Q727.7156,88.7824 727.6031,88.6699 Q727.4063,88.4449 727.0406,88.3136 Q726.675,88.1824 726.3,88.1824 Q725.8406,88.1824 725.4563,88.3792 Q725.0813,88.5761 724.7813,89.0261 Q724.4906,89.4761 724.4906,90.0949 L724.4906,90.7511 Q724.4906,91.4917 725.025,91.9886 Q725.5594,92.4761 726.5156,92.4761 Q727.0781,92.4761 727.4719,92.3261 Q727.7063,92.2324 727.9594,91.9699 Q728.1188,91.8105 728.2031,91.7636 Q728.2969,91.7167 728.4187,91.7167 Q728.6156,91.7167 728.7656,91.8761 Q728.925,92.0261 728.925,92.2324 Q728.925,92.4386 728.7188,92.6824 Q728.4187,93.0292 727.9406,93.2261 Q727.2937,93.498 726.5156,93.498 Q725.6062,93.498 724.8844,93.123 Q724.2937,92.823 723.8813,92.1855 Q723.4688,91.5386 723.4688,90.7699 L723.4688,90.0761 Q723.4688,89.2792 723.8344,88.5949 Q724.2094,87.9011 724.8656,87.5355 Q725.5219,87.1605 726.2625,87.1605 Q726.7031,87.1605 727.0875,87.2636 Q727.4812,87.3574 727.8094,87.573 Z " fill="#000000"/><text fill="#000000" font-family="sans-serif" font-size="8.4" lengthAdjust="spacing" textLength="61.2" x="738.45" y="93.5261">ExamRepository</text><line style="stroke:#181818;stroke-width:0.3;" x1="690.6" x2="828" y1="99.648" y2="99.648"/><line style="stroke:#181818;stroke-width:0.3;" x1="690.6" x2="828" y1="104.448" y2="104.448"/><ellipse cx="696.6" cy="113.3343" fill="#84BE84" rx="1.8" ry="1.8" style="stroke:#038048;stroke-width:0.6;"/><text fill="#000000" font-family="sans-serif" font-size="8.4" lengthAdjust="spacing" textLength="86.4" x="702" y="115.9125">addExam(Exam: Exam)</text><ellipse cx="696.6" cy="124.507" fill="#84BE84" rx="1.8" ry="1.8" style="stroke:#038048;stroke-width:0.6;"/><text fill="#000000" font-family="sans-serif" font-size="8.4" lengthAdjust="spacing" textLength="100.2" x="702" y="127.0851">removeExam(Exam: Exam)</text><ellipse cx="696.6" cy="135.6796" fill="#84BE84" rx="1.8" ry="1.8" style="stroke:#038048;stroke-width:0.6;"/><text fill="#000000" font-family="sans-serif" font-size="8.4" lengthAdjust="spacing" textLength="123" x="702" y="138.2578">searchExam(Exam: Exam): Exam</text><ellipse cx="696.6" cy="146.8523" fill="#84BE84" rx="1.8" ry="1.8" style="stroke:#038048;stroke-width:0.6;"/><text fill="#000000" font-family="sans-serif" font-size="8.4" lengthAdjust="spacing" textLength="99" x="702" y="149.4304">totalNumberOfExams(): int</text></g><!--class ListFutureExamsUI--><g id="elem_ListFutureExamsUI"><rect codeLine="41" fill="#F1F1F1" height="39.9727" id="ListFutureExamsUI" rx="1.5" ry="1.5" style="stroke:#181818;stroke-width:0.3;" width="151.8" x="130.8" y="251.448"/><ellipse cx="169.05" cy="261.048" fill="#ADD1B2" rx="6.6" ry="6.6" style="stroke:#181818;stroke-width:0.6;"/><path d="M170.7094,258.573 Q170.8031,258.4417 170.9156,258.3761 Q171.0281,258.3105 171.1594,258.3105 Q171.3844,258.3105 171.525,258.4699 Q171.6656,258.6199 171.6656,258.9855 L171.6656,259.8574 Q171.6656,260.223 171.525,260.3824 Q171.3844,260.5417 171.1594,260.5417 Q170.9531,260.5417 170.8312,260.4199 Q170.7094,260.3074 170.6437,259.998 Q170.6156,259.7824 170.5031,259.6699 Q170.3063,259.4449 169.9406,259.3136 Q169.575,259.1824 169.2,259.1824 Q168.7406,259.1824 168.3563,259.3792 Q167.9813,259.5761 167.6813,260.0261 Q167.3906,260.4761 167.3906,261.0949 L167.3906,261.7511 Q167.3906,262.4917 167.925,262.9886 Q168.4594,263.4761 169.4156,263.4761 Q169.9781,263.4761 170.3719,263.3261 Q170.6063,263.2324 170.8594,262.9699 Q171.0187,262.8105 171.1031,262.7636 Q171.1969,262.7167 171.3188,262.7167 Q171.5156,262.7167 171.6656,262.8761 Q171.825,263.0261 171.825,263.2324 Q171.825,263.4386 171.6188,263.6824 Q171.3188,264.0292 170.8406,264.2261 Q170.1938,264.498 169.4156,264.498 Q168.5063,264.498 167.7844,264.123 Q167.1938,263.823 166.7813,263.1855 Q166.3688,262.5386 166.3688,261.7699 L166.3688,261.0761 Q166.3688,260.2792 166.7344,259.5949 Q167.1094,258.9011 167.7656,258.5355 Q168.4219,258.1605 169.1625,258.1605 Q169.6031,258.1605 169.9875,258.2636 Q170.3813,258.3574 170.7094,258.573 Z " fill="#000000"/><text fill="#000000" font-family="sans-serif" font-size="8.4" lengthAdjust="spacing" textLength="70.2" x="181.35" y="264.5261">ListFutureExamsUI</text><line style="stroke:#181818;stroke-width:0.3;" x1="131.4" x2="282" y1="270.648" y2="270.648"/><line style="stroke:#181818;stroke-width:0.3;" x1="131.4" x2="282" y1="275.448" y2="275.448"/><ellipse cx="137.4" cy="284.3343" fill="#84BE84" rx="1.8" ry="1.8" style="stroke:#038048;stroke-width:0.6;"/><text fill="#000000" font-family="sans-serif" font-size="8.4" lengthAdjust="spacing" textLength="136.2" x="142.8" y="286.9125">getFutureExams() : List&lt;ExamDTO&gt;</text></g><!--class ListFutureExamsController--><g id="elem_ListFutureExamsController"><rect codeLine="46" fill="#F1F1F1" height="39.9727" id="ListFutureExamsController" rx="1.5" ry="1.5" style="stroke:#181818;stroke-width:0.3;" width="150.6" x="156.6" y="328.248"/><ellipse cx="179.64" cy="337.848" fill="#ADD1B2" rx="6.6" ry="6.6" style="stroke:#181818;stroke-width:0.6;"/><path d="M181.2994,335.373 Q181.3931,335.2417 181.5056,335.1761 Q181.6181,335.1105 181.7494,335.1105 Q181.9744,335.1105 182.115,335.2699 Q182.2556,335.4199 182.2556,335.7855 L182.2556,336.6574 Q182.2556,337.023 182.115,337.1824 Q181.9744,337.3417 181.7494,337.3417 Q181.5431,337.3417 181.4213,337.2199 Q181.2994,337.1074 181.2338,336.798 Q181.2056,336.5824 181.0931,336.4699 Q180.8962,336.2449 180.5306,336.1136 Q180.165,335.9824 179.79,335.9824 Q179.3306,335.9824 178.9463,336.1792 Q178.5713,336.3761 178.2712,336.8261 Q177.9806,337.2761 177.9806,337.8949 L177.9806,338.5511 Q177.9806,339.2917 178.515,339.7886 Q179.0494,340.2761 180.0056,340.2761 Q180.5681,340.2761 180.9619,340.1261 Q181.1963,340.0324 181.4494,339.7699 Q181.6088,339.6105 181.6931,339.5636 Q181.7869,339.5167 181.9087,339.5167 Q182.1056,339.5167 182.2556,339.6761 Q182.415,339.8261 182.415,340.0324 Q182.415,340.2386 182.2087,340.4824 Q181.9087,340.8292 181.4306,341.0261 Q180.7837,341.298 180.0056,341.298 Q179.0962,341.298 178.3744,340.923 Q177.7837,340.623 177.3712,339.9855 Q176.9587,339.3386 176.9587,338.5699 L176.9587,337.8761 Q176.9587,337.0792 177.3244,336.3949 Q177.6994,335.7011 178.3556,335.3355 Q179.0119,334.9605 179.7525,334.9605 Q180.1931,334.9605 180.5775,335.0636 Q180.9712,335.1574 181.2994,335.373 Z " fill="#000000"/><text fill="#000000" font-family="sans-serif" font-size="8.4" lengthAdjust="spacing" textLength="100.2" x="191.16" y="341.3261">ListFutureExamsController</text><line style="stroke:#181818;stroke-width:0.3;" x1="157.2" x2="306.6" y1="347.448" y2="347.448"/><line style="stroke:#181818;stroke-width:0.3;" x1="157.2" x2="306.6" y1="352.248" y2="352.248"/><ellipse cx="163.2" cy="361.1343" fill="#84BE84" rx="1.8" ry="1.8" style="stroke:#038048;stroke-width:0.6;"/><text fill="#000000" font-family="sans-serif" font-size="8.4" lengthAdjust="spacing" textLength="135" x="168.6" y="363.7125">getFutureExams(user) : List&lt;Exam&gt;</text></g><!--class ListExamService--><g id="elem_ListExamService"><rect codeLine="50" fill="#F1F1F1" height="62.318" id="ListExamService" rx="1.5" ry="1.5" style="stroke:#181818;stroke-width:0.3;" width="152.4" x="313.5" y="438.648"/><ellipse cx="356.25" cy="448.248" fill="#ADD1B2" rx="6.6" ry="6.6" style="stroke:#181818;stroke-width:0.6;"/><path d="M357.9094,445.773 Q358.0031,445.6417 358.1156,445.5761 Q358.2281,445.5105 358.3594,445.5105 Q358.5844,445.5105 358.725,445.6699 Q358.8656,445.8199 358.8656,446.1855 L358.8656,447.0574 Q358.8656,447.423 358.725,447.5824 Q358.5844,447.7417 358.3594,447.7417 Q358.1531,447.7417 358.0313,447.6199 Q357.9094,447.5074 357.8438,447.198 Q357.8156,446.9824 357.7031,446.8699 Q357.5062,446.6449 357.1406,446.5136 Q356.775,446.3824 356.4,446.3824 Q355.9406,446.3824 355.5563,446.5792 Q355.1813,446.7761 354.8812,447.2261 Q354.5906,447.6761 354.5906,448.2949 L354.5906,448.9511 Q354.5906,449.6917 355.125,450.1886 Q355.6594,450.6761 356.6156,450.6761 Q357.1781,450.6761 357.5719,450.5261 Q357.8063,450.4324 358.0594,450.1699 Q358.2188,450.0105 358.3031,449.9636 Q358.3969,449.9167 358.5188,449.9167 Q358.7156,449.9167 358.8656,450.0761 Q359.025,450.2261 359.025,450.4324 Q359.025,450.6386 358.8187,450.8824 Q358.5188,451.2292 358.0406,451.4261 Q357.3938,451.698 356.6156,451.698 Q355.7063,451.698 354.9844,451.323 Q354.3938,451.023 353.9813,450.3855 Q353.5687,449.7386 353.5687,448.9699 L353.5687,448.2761 Q353.5687,447.4792 353.9344,446.7949 Q354.3094,446.1011 354.9656,445.7355 Q355.6219,445.3605 356.3625,445.3605 Q356.8031,445.3605 357.1875,445.4636 Q357.5813,445.5574 357.9094,445.773 Z " fill="#000000"/><text fill="#000000" font-family="sans-serif" font-size="8.4" lengthAdjust="spacing" textLength="61.8" x="368.55" y="451.7261">ListExamService</text><line style="stroke:#181818;stroke-width:0.3;" x1="314.1" x2="465.3" y1="457.848" y2="457.848"/><line style="stroke:#181818;stroke-width:0.3;" x1="314.1" x2="465.3" y1="462.648" y2="462.648"/><ellipse cx="320.1" cy="471.5343" fill="#84BE84" rx="1.8" ry="1.8" style="stroke:#038048;stroke-width:0.6;"/><text fill="#000000" font-family="sans-serif" font-size="8.4" lengthAdjust="spacing" textLength="87.6" x="325.5" y="474.1125">findStudent(user: user)</text><ellipse cx="320.1" cy="482.707" fill="#84BE84" rx="1.8" ry="1.8" style="stroke:#038048;stroke-width:0.6;"/><text fill="#000000" font-family="sans-serif" font-size="8.4" lengthAdjust="spacing" textLength="136.8" x="325.5" y="485.2851">getStudentCourses() : List&lt;Course&gt;</text><ellipse cx="320.1" cy="493.8796" fill="#84BE84" rx="1.8" ry="1.8" style="stroke:#038048;stroke-width:0.6;"/><text fill="#000000" font-family="sans-serif" font-size="8.4" lengthAdjust="spacing" textLength="127.8" x="325.5" y="496.4578">getExamCourses() : List&lt;Course&gt;</text></g><!--class ListExamCoursesService--><g id="elem_ListExamCoursesService"><rect codeLine="56" fill="#F1F1F1" height="39.9727" id="ListExamCoursesService" rx="1.5" ry="1.5" style="stroke:#181818;stroke-width:0.3;" width="177" x="849.6" y="96.948"/><ellipse cx="888.75" cy="106.548" fill="#ADD1B2" rx="6.6" ry="6.6" style="stroke:#181818;stroke-width:0.6;"/><path d="M890.4094,104.073 Q890.5031,103.9417 890.6156,103.8761 Q890.7281,103.8105 890.8594,103.8105 Q891.0844,103.8105 891.225,103.9699 Q891.3656,104.1199 891.3656,104.4855 L891.3656,105.3574 Q891.3656,105.723 891.225,105.8824 Q891.0844,106.0417 890.8594,106.0417 Q890.6531,106.0417 890.5313,105.9199 Q890.4094,105.8074 890.3438,105.498 Q890.3156,105.2824 890.2031,105.1699 Q890.0063,104.9449 889.6406,104.8136 Q889.275,104.6824 888.9,104.6824 Q888.4406,104.6824 888.0563,104.8792 Q887.6813,105.0761 887.3813,105.5261 Q887.0906,105.9761 887.0906,106.5949 L887.0906,107.2511 Q887.0906,107.9917 887.625,108.4886 Q888.1594,108.9761 889.1156,108.9761 Q889.6781,108.9761 890.0719,108.8261 Q890.3063,108.7324 890.5594,108.4699 Q890.7188,108.3105 890.8031,108.2636 Q890.8969,108.2167 891.0188,108.2167 Q891.2156,108.2167 891.3656,108.3761 Q891.525,108.5261 891.525,108.7324 Q891.525,108.9386 891.3188,109.1824 Q891.0188,109.5292 890.5406,109.7261 Q889.8938,109.998 889.1156,109.998 Q888.2063,109.998 887.4844,109.623 Q886.8938,109.323 886.4812,108.6855 Q886.0688,108.0386 886.0688,107.2699 L886.0688,106.5761 Q886.0688,105.7792 886.4344,105.0949 Q886.8094,104.4011 887.4656,104.0355 Q888.1219,103.6605 888.8625,103.6605 Q889.3031,103.6605 889.6875,103.7636 Q890.0813,103.8574 890.4094,104.073 Z " fill="#000000"/><text fill="#000000" font-family="sans-serif" font-size="8.4" lengthAdjust="spacing" textLength="93.6" x="901.05" y="110.0261">ListExamCoursesService</text><line style="stroke:#181818;stroke-width:0.3;" x1="850.2" x2="1026" y1="116.148" y2="116.148"/><line style="stroke:#181818;stroke-width:0.3;" x1="850.2" x2="1026" y1="120.948" y2="120.948"/><ellipse cx="856.2" cy="129.8343" fill="#84BE84" rx="1.8" ry="1.8" style="stroke:#038048;stroke-width:0.6;"/><text fill="#000000" font-family="sans-serif" font-size="8.4" lengthAdjust="spacing" textLength="161.4" x="861.6" y="132.4125">findFutureExamsByCourses() : List&lt;Exam&gt;</text></g><!--class AuthorizationService--><g id="elem_AuthorizationService"><rect codeLine="60" fill="#F1F1F1" height="129.3539" id="AuthorizationService" rx="1.5" ry="1.5" style="stroke:#181818;stroke-width:0.3;" width="155.4" x="4.2" y="405.048"/><ellipse cx="40.65" cy="414.648" fill="#ADD1B2" rx="6.6" ry="6.6" style="stroke:#181818;stroke-width:0.6;"/><path d="M42.3094,412.173 Q42.4031,412.0417 42.5156,411.9761 Q42.6281,411.9105 42.7594,411.9105 Q42.9844,411.9105 43.125,412.0699 Q43.2656,412.2199 43.2656,412.5855 L43.2656,413.4574 Q43.2656,413.823 43.125,413.9824 Q42.9844,414.1417 42.7594,414.1417 Q42.5531,414.1417 42.4313,414.0199 Q42.3094,413.9074 42.2438,413.598 Q42.2156,413.3824 42.1031,413.2699 Q41.9063,413.0449 41.5406,412.9136 Q41.175,412.7824 40.8,412.7824 Q40.3406,412.7824 39.9563,412.9792 Q39.5813,413.1761 39.2813,413.6261 Q38.9906,414.0761 38.9906,414.6949 L38.9906,415.3511 Q38.9906,416.0917 39.525,416.5886 Q40.0594,417.0761 41.0156,417.0761 Q41.5781,417.0761 41.9719,416.9261 Q42.2063,416.8324 42.4594,416.5699 Q42.6188,416.4105 42.7031,416.3636 Q42.7969,416.3167 42.9187,416.3167 Q43.1156,416.3167 43.2656,416.4761 Q43.425,416.6261 43.425,416.8324 Q43.425,417.0386 43.2188,417.2824 Q42.9187,417.6292 42.4406,417.8261 Q41.7937,418.098 41.0156,418.098 Q40.1062,418.098 39.3844,417.723 Q38.7937,417.423 38.3813,416.7855 Q37.9688,416.1386 37.9688,415.3699 L37.9688,414.6761 Q37.9688,413.8792 38.3344,413.1949 Q38.7094,412.5011 39.3656,412.1355 Q40.0219,411.7605 40.7625,411.7605 Q41.2031,411.7605 41.5875,411.8636 Q41.9812,411.9574 42.3094,412.173 Z " fill="#000000"/><text fill="#000000" font-family="sans-serif" font-size="8.4" lengthAdjust="spacing" textLength="77.4" x="52.95" y="418.1261">AuthorizationService</text><line style="stroke:#181818;stroke-width:0.3;" x1="4.8" x2="159" y1="424.248" y2="424.248"/><ellipse cx="10.8" cy="433.1343" fill="#000000" rx="1.8" ry="1.8" style="stroke:#000000;stroke-width:0.6;"/><text fill="#000000" font-family="sans-serif" font-size="8.4" lengthAdjust="spacing" textLength="53.4" x="16.2" y="435.7125">Logger logger</text><ellipse cx="10.8" cy="444.307" fill="#000000" rx="1.8" ry="1.8" style="stroke:#000000;stroke-width:0.6;"/><text fill="#000000" font-family="sans-serif" font-size="8.4" lengthAdjust="spacing" textLength="79.8" x="16.2" y="446.8851">UserSession Session</text><line style="stroke:#181818;stroke-width:0.3;" x1="4.8" x2="159" y1="451.3933" y2="451.3933"/><ellipse cx="10.8" cy="460.2796" fill="#84BE84" rx="1.8" ry="1.8" style="stroke:#038048;stroke-width:0.6;"/><text fill="#000000" font-family="sans-serif" font-size="8.4" lengthAdjust="spacing" textLength="90.6" x="16.2" y="462.8578">createSessionForUser()</text><ellipse cx="10.8" cy="471.4523" fill="#84BE84" rx="1.8" ry="1.8" style="stroke:#038048;stroke-width:0.6;"/><text fill="#000000" font-family="sans-serif" font-size="8.4" lengthAdjust="spacing" textLength="54.6" x="16.2" y="474.0304">clearSession()</text><ellipse cx="10.8" cy="482.625" fill="#84BE84" rx="1.8" ry="1.8" style="stroke:#038048;stroke-width:0.6;"/><text fill="#000000" font-family="sans-serif" font-size="8.4" lengthAdjust="spacing" textLength="49.8" x="16.2" y="485.2031">hasSession()</text><ellipse cx="10.8" cy="493.7976" fill="#84BE84" rx="1.8" ry="1.8" style="stroke:#038048;stroke-width:0.6;"/><text fill="#000000" font-family="sans-serif" font-size="8.4" lengthAdjust="spacing" textLength="34.8" x="16.2" y="496.3757">session()</text><ellipse cx="10.8" cy="504.9703" fill="#84BE84" rx="1.8" ry="1.8" style="stroke:#038048;stroke-width:0.6;"/><text fill="#000000" font-family="sans-serif" font-size="8.4" lengthAdjust="spacing" textLength="132" x="16.2" y="507.5484">isAuthenticatedUserAuthorizedTo()</text><ellipse cx="10.8" cy="516.1429" fill="#84BE84" rx="1.8" ry="1.8" style="stroke:#038048;stroke-width:0.6;"/><text fill="#000000" font-family="sans-serif" font-size="8.4" lengthAdjust="spacing" textLength="139.8" x="16.2" y="518.721">ensureAuthenticatedUserHasAnyOf()</text><ellipse cx="10.8" cy="527.3156" fill="#84BE84" rx="1.8" ry="1.8" style="stroke:#038048;stroke-width:0.6;"/><text fill="#000000" font-family="sans-serif" font-size="8.4" lengthAdjust="spacing" textLength="118.2" x="16.2" y="529.8937">loggedinUserWithPermissions()</text></g><!--class UserSession--><g id="elem_UserSession"><rect codeLine="72" fill="#F1F1F1" height="107.0086" id="UserSession" rx="1.5" ry="1.5" style="stroke:#181818;stroke-width:0.3;" width="107.4" x="180.6" y="416.448"/><ellipse cx="208.05" cy="426.048" fill="#ADD1B2" rx="6.6" ry="6.6" style="stroke:#181818;stroke-width:0.6;"/><path d="M209.7094,423.573 Q209.8031,423.4417 209.9156,423.3761 Q210.0281,423.3105 210.1594,423.3105 Q210.3844,423.3105 210.525,423.4699 Q210.6656,423.6199 210.6656,423.9855 L210.6656,424.8574 Q210.6656,425.223 210.525,425.3824 Q210.3844,425.5417 210.1594,425.5417 Q209.9531,425.5417 209.8312,425.4199 Q209.7094,425.3074 209.6437,424.998 Q209.6156,424.7824 209.5031,424.6699 Q209.3063,424.4449 208.9406,424.3136 Q208.575,424.1824 208.2,424.1824 Q207.7406,424.1824 207.3563,424.3792 Q206.9813,424.5761 206.6813,425.0261 Q206.3906,425.4761 206.3906,426.0949 L206.3906,426.7511 Q206.3906,427.4917 206.925,427.9886 Q207.4594,428.4761 208.4156,428.4761 Q208.9781,428.4761 209.3719,428.3261 Q209.6063,428.2324 209.8594,427.9699 Q210.0187,427.8105 210.1031,427.7636 Q210.1969,427.7167 210.3188,427.7167 Q210.5156,427.7167 210.6656,427.8761 Q210.825,428.0261 210.825,428.2324 Q210.825,428.4386 210.6188,428.6824 Q210.3188,429.0292 209.8406,429.2261 Q209.1938,429.498 208.4156,429.498 Q207.5063,429.498 206.7844,429.123 Q206.1938,428.823 205.7813,428.1855 Q205.3688,427.5386 205.3688,426.7699 L205.3688,426.0761 Q205.3688,425.2792 205.7344,424.5949 Q206.1094,423.9011 206.7656,423.5355 Q207.4219,423.1605 208.1625,423.1605 Q208.6031,423.1605 208.9875,423.2636 Q209.3813,423.3574 209.7094,423.573 Z " fill="#000000"/><text fill="#000000" font-family="sans-serif" font-size="8.4" lengthAdjust="spacing" textLength="47.4" x="220.35" y="429.5261">UserSession</text><line style="stroke:#181818;stroke-width:0.3;" x1="181.2" x2="287.4" y1="435.648" y2="435.648"/><ellipse cx="187.2" cy="444.5343" fill="#000000" rx="1.8" ry="1.8" style="stroke:#000000;stroke-width:0.6;"/><text fill="#000000" font-family="sans-serif" font-size="8.4" lengthAdjust="spacing" textLength="88.8" x="192.6" y="447.1125">User authenticatedUser</text><ellipse cx="187.2" cy="455.707" fill="#000000" rx="1.8" ry="1.8" style="stroke:#000000;stroke-width:0.6;"/><text fill="#000000" font-family="sans-serif" font-size="8.4" lengthAdjust="spacing" textLength="42" x="192.6" y="458.2851">UUID token</text><ellipse cx="187.2" cy="466.8796" fill="#000000" rx="1.8" ry="1.8" style="stroke:#000000;stroke-width:0.6;"/><text fill="#000000" font-family="sans-serif" font-size="8.4" lengthAdjust="spacing" textLength="75" x="192.6" y="469.4578">Calendar startedOn</text><line style="stroke:#181818;stroke-width:0.3;" x1="181.2" x2="287.4" y1="473.966" y2="473.966"/><ellipse cx="187.2" cy="482.8523" fill="#84BE84" rx="1.8" ry="1.8" style="stroke:#038048;stroke-width:0.6;"/><text fill="#000000" font-family="sans-serif" font-size="8.4" lengthAdjust="spacing" textLength="91.8" x="192.6" y="485.4304">UserSession(user: user)</text><ellipse cx="187.2" cy="494.025" fill="#84BE84" rx="1.8" ry="1.8" style="stroke:#038048;stroke-width:0.6;"/><text fill="#000000" font-family="sans-serif" font-size="8.4" lengthAdjust="spacing" textLength="75" x="192.6" y="496.6031">authenticatedUser()</text><ellipse cx="187.2" cy="505.1976" fill="#84BE84" rx="1.8" ry="1.8" style="stroke:#038048;stroke-width:0.6;"/><text fill="#000000" font-family="sans-serif" font-size="8.4" lengthAdjust="spacing" textLength="27" x="192.6" y="507.7757">token()</text><ellipse cx="187.2" cy="516.3703" fill="#84BE84" rx="1.8" ry="1.8" style="stroke:#038048;stroke-width:0.6;"/><text fill="#000000" font-family="sans-serif" font-size="8.4" lengthAdjust="spacing" textLength="43.8" x="192.6" y="518.9484">startedOn()</text></g><!--class Password--><g id="elem_Password"><rect fill="#F1F1F1" height="28.8" id="Password" rx="1.5" ry="1.5" style="stroke:#181818;stroke-width:0.3;" width="55.8" x="303.6" y="257.148"/><ellipse cx="312.6" cy="266.748" fill="#ADD1B2" rx="6.6" ry="6.6" style="stroke:#181818;stroke-width:0.6;"/><path d="M314.2594,264.273 Q314.3531,264.1417 314.4656,264.0761 Q314.5781,264.0105 314.7094,264.0105 Q314.9344,264.0105 315.075,264.1699 Q315.2156,264.3199 315.2156,264.6855 L315.2156,265.5574 Q315.2156,265.923 315.075,266.0824 Q314.9344,266.2417 314.7094,266.2417 Q314.5031,266.2417 314.3812,266.1199 Q314.2594,266.0074 314.1937,265.698 Q314.1656,265.4824 314.0531,265.3699 Q313.8563,265.1449 313.4906,265.0136 Q313.125,264.8824 312.75,264.8824 Q312.2906,264.8824 311.9063,265.0792 Q311.5313,265.2761 311.2313,265.7261 Q310.9406,266.1761 310.9406,266.7949 L310.9406,267.4511 Q310.9406,268.1917 311.475,268.6886 Q312.0094,269.1761 312.9656,269.1761 Q313.5281,269.1761 313.9219,269.0261 Q314.1563,268.9324 314.4094,268.6699 Q314.5687,268.5105 314.6531,268.4636 Q314.7469,268.4167 314.8688,268.4167 Q315.0656,268.4167 315.2156,268.5761 Q315.375,268.7261 315.375,268.9324 Q315.375,269.1386 315.1688,269.3824 Q314.8688,269.7292 314.3906,269.9261 Q313.7438,270.198 312.9656,270.198 Q312.0563,270.198 311.3344,269.823 Q310.7438,269.523 310.3313,268.8855 Q309.9188,268.2386 309.9188,267.4699 L309.9188,266.7761 Q309.9188,265.9792 310.2844,265.2949 Q310.6594,264.6011 311.3156,264.2355 Q311.9719,263.8605 312.7125,263.8605 Q313.1531,263.8605 313.5375,263.9636 Q313.9313,264.0574 314.2594,264.273 Z " fill="#000000"/><text fill="#000000" font-family="sans-serif" font-size="8.4" lengthAdjust="spacing" textLength="36.6" x="321" y="270.2261">Password</text><line style="stroke:#181818;stroke-width:0.3;" x1="304.2" x2="358.8" y1="276.348" y2="276.348"/><line style="stroke:#181818;stroke-width:0.3;" x1="304.2" x2="358.8" y1="281.148" y2="281.148"/></g><!--class Email--><g id="elem_Email"><rect fill="#F1F1F1" height="28.8" id="Email" rx="1.5" ry="1.5" style="stroke:#181818;stroke-width:0.3;" width="39.6" x="629.1" y="102.648"/><ellipse cx="638.1" cy="112.248" fill="#ADD1B2" rx="6.6" ry="6.6" style="stroke:#181818;stroke-width:0.6;"/><path d="M639.7594,109.773 Q639.8531,109.6417 639.9656,109.5761 Q640.0781,109.5105 640.2094,109.5105 Q640.4344,109.5105 640.575,109.6699 Q640.7156,109.8199 640.7156,110.1855 L640.7156,111.0574 Q640.7156,111.423 640.575,111.5824 Q640.4344,111.7417 640.2094,111.7417 Q640.0031,111.7417 639.8813,111.6199 Q639.7594,111.5074 639.6938,111.198 Q639.6656,110.9824 639.5531,110.8699 Q639.3562,110.6449 638.9906,110.5136 Q638.625,110.3824 638.25,110.3824 Q637.7906,110.3824 637.4063,110.5792 Q637.0313,110.7761 636.7312,111.2261 Q636.4406,111.6761 636.4406,112.2949 L636.4406,112.9511 Q636.4406,113.6917 636.975,114.1886 Q637.5094,114.6761 638.4656,114.6761 Q639.0281,114.6761 639.4219,114.5261 Q639.6563,114.4324 639.9094,114.1699 Q640.0688,114.0105 640.1531,113.9636 Q640.2469,113.9167 640.3688,113.9167 Q640.5656,113.9167 640.7156,114.0761 Q640.875,114.2261 640.875,114.4324 Q640.875,114.6386 640.6687,114.8824 Q640.3688,115.2292 639.8906,115.4261 Q639.2438,115.698 638.4656,115.698 Q637.5563,115.698 636.8344,115.323 Q636.2438,115.023 635.8313,114.3855 Q635.4187,113.7386 635.4187,112.9699 L635.4187,112.2761 Q635.4187,111.4792 635.7844,110.7949 Q636.1594,110.1011 636.8156,109.7355 Q637.4719,109.3605 638.2125,109.3605 Q638.6531,109.3605 639.0375,109.4636 Q639.4313,109.5574 639.7594,109.773 Z " fill="#000000"/><text fill="#000000" font-family="sans-serif" font-size="8.4" lengthAdjust="spacing" textLength="20.4" x="646.5" y="115.7261">Email</text><line style="stroke:#181818;stroke-width:0.3;" x1="629.7" x2="668.1" y1="121.848" y2="121.848"/><line style="stroke:#181818;stroke-width:0.3;" x1="629.7" x2="668.1" y1="126.648" y2="126.648"/></g><!--class Role--><g id="elem_Role"><rect fill="#F1F1F1" height="28.8" id="Role" rx="1.5" ry="1.5" style="stroke:#181818;stroke-width:0.3;" width="36.6" x="571.2" y="102.648"/><ellipse cx="580.2" cy="112.248" fill="#ADD1B2" rx="6.6" ry="6.6" style="stroke:#181818;stroke-width:0.6;"/><path d="M581.8594,109.773 Q581.9531,109.6417 582.0656,109.5761 Q582.1781,109.5105 582.3094,109.5105 Q582.5344,109.5105 582.675,109.6699 Q582.8156,109.8199 582.8156,110.1855 L582.8156,111.0574 Q582.8156,111.423 582.675,111.5824 Q582.5344,111.7417 582.3094,111.7417 Q582.1031,111.7417 581.9812,111.6199 Q581.8594,111.5074 581.7937,111.198 Q581.7656,110.9824 581.6531,110.8699 Q581.4563,110.6449 581.0906,110.5136 Q580.725,110.3824 580.35,110.3824 Q579.8906,110.3824 579.5063,110.5792 Q579.1313,110.7761 578.8313,111.2261 Q578.5406,111.6761 578.5406,112.2949 L578.5406,112.9511 Q578.5406,113.6917 579.075,114.1886 Q579.6094,114.6761 580.5656,114.6761 Q581.1281,114.6761 581.5219,114.5261 Q581.7563,114.4324 582.0094,114.1699 Q582.1687,114.0105 582.2531,113.9636 Q582.3469,113.9167 582.4688,113.9167 Q582.6656,113.9167 582.8156,114.0761 Q582.975,114.2261 582.975,114.4324 Q582.975,114.6386 582.7688,114.8824 Q582.4688,115.2292 581.9906,115.4261 Q581.3438,115.698 580.5656,115.698 Q579.6563,115.698 578.9344,115.323 Q578.3438,115.023 577.9313,114.3855 Q577.5188,113.7386 577.5188,112.9699 L577.5188,112.2761 Q577.5188,111.4792 577.8844,110.7949 Q578.2594,110.1011 578.9156,109.7355 Q579.5719,109.3605 580.3125,109.3605 Q580.7531,109.3605 581.1375,109.4636 Q581.5313,109.5574 581.8594,109.773 Z " fill="#000000"/><text fill="#000000" font-family="sans-serif" font-size="8.4" lengthAdjust="spacing" textLength="17.4" x="588.6" y="115.7261">Role</text><line style="stroke:#181818;stroke-width:0.3;" x1="571.8" x2="607.2" y1="121.848" y2="121.848"/><line style="stroke:#181818;stroke-width:0.3;" x1="571.8" x2="607.2" y1="126.648" y2="126.648"/></g><!--class UserStatus--><g id="elem_UserStatus"><rect fill="#F1F1F1" height="28.8" id="UserStatus" rx="1.5" ry="1.5" style="stroke:#181818;stroke-width:0.3;" width="60.6" x="489.6" y="102.648"/><ellipse cx="498.6" cy="112.248" fill="#ADD1B2" rx="6.6" ry="6.6" style="stroke:#181818;stroke-width:0.6;"/><path d="M500.2594,109.773 Q500.3531,109.6417 500.4656,109.5761 Q500.5781,109.5105 500.7094,109.5105 Q500.9344,109.5105 501.075,109.6699 Q501.2156,109.8199 501.2156,110.1855 L501.2156,111.0574 Q501.2156,111.423 501.075,111.5824 Q500.9344,111.7417 500.7094,111.7417 Q500.5031,111.7417 500.3812,111.6199 Q500.2594,111.5074 500.1937,111.198 Q500.1656,110.9824 500.0531,110.8699 Q499.8563,110.6449 499.4906,110.5136 Q499.125,110.3824 498.75,110.3824 Q498.2906,110.3824 497.9063,110.5792 Q497.5313,110.7761 497.2313,111.2261 Q496.9406,111.6761 496.9406,112.2949 L496.9406,112.9511 Q496.9406,113.6917 497.475,114.1886 Q498.0094,114.6761 498.9656,114.6761 Q499.5281,114.6761 499.9219,114.5261 Q500.1563,114.4324 500.4094,114.1699 Q500.5687,114.0105 500.6531,113.9636 Q500.7469,113.9167 500.8688,113.9167 Q501.0656,113.9167 501.2156,114.0761 Q501.375,114.2261 501.375,114.4324 Q501.375,114.6386 501.1688,114.8824 Q500.8688,115.2292 500.3906,115.4261 Q499.7438,115.698 498.9656,115.698 Q498.0563,115.698 497.3344,115.323 Q496.7438,115.023 496.3312,114.3855 Q495.9188,113.7386 495.9188,112.9699 L495.9188,112.2761 Q495.9188,111.4792 496.2844,110.7949 Q496.6594,110.1011 497.3156,109.7355 Q497.9719,109.3605 498.7125,109.3605 Q499.1531,109.3605 499.5375,109.4636 Q499.9313,109.5574 500.2594,109.773 Z " fill="#000000"/><text fill="#000000" font-family="sans-serif" font-size="8.4" lengthAdjust="spacing" textLength="41.4" x="507" y="115.7261">UserStatus</text><line style="stroke:#181818;stroke-width:0.3;" x1="490.2" x2="549.6" y1="121.848" y2="121.848"/><line style="stroke:#181818;stroke-width:0.3;" x1="490.2" x2="549.6" y1="126.648" y2="126.648"/></g><!--link eCourseSystemUser to Password--><g id="link_eCourseSystemUser_Password"><path codeLine="86" d="M331.5,204.156 C331.5,224.802 331.5,244.476 331.5,257.058 " fill="none" id="eCourseSystemUser-Password" style="stroke:#181818;stroke-width:0.6;"/></g><!--link eCourseSystemUser to Email--><g id="link_eCourseSystemUser_Email"><path codeLine="87" d="M463.734,30.006 C472.284,26.514 480.942,23.472 489.6,21.048 C514.896,13.968 583.164,11.934 607.8,21.048 C639.684,32.844 646.908,78.858 648.492,102.642 " fill="none" id="eCourseSystemUser-Email" style="stroke:#181818;stroke-width:0.6;"/></g><!--link eCourseSystemUser to Role--><g id="link_eCourseSystemUser_Role"><path codeLine="88" d="M463.734,30.006 C472.284,26.514 480.942,23.472 489.6,21.048 C520.272,12.462 542.952,3.6 560.7,30.048 C575.988,52.842 583.752,84.42 587.19,102.594 " fill="none" id="eCourseSystemUser-Role" style="stroke:#181818;stroke-width:0.6;"/></g><!--link eCourseSystemUser to UserStatus--><g id="link_eCourseSystemUser_UserStatus"><path codeLine="89" d="M468.75,117.048 C475.68,117.048 482.604,117.048 489.534,117.048 " fill="none" id="eCourseSystemUser-UserStatus" style="stroke:#181818;stroke-width:0.6;"/></g><!--link eCourseSystemUser to ListFutureExamsUI--><g id="link_eCourseSystemUser_ListFutureExamsUI"><path codeLine="93" d="M261.078,204.156 C246.702,221.814 232.902,238.758 222.804,251.166 " fill="none" id="eCourseSystemUser-ListFutureExamsUI" style="stroke:#181818;stroke-width:0.6;stroke-dasharray:7.0,7.0;"/><text fill="#000000" font-family="sans-serif" font-size="7.8" lengthAdjust="spacing" textLength="33.6" x="244.5" y="231.065">As a user</text></g><!--link ListFutureExamsUI to ListFutureExamsController--><g id="link_ListFutureExamsUI_ListFutureExamsController"><path codeLine="94" d="M213.258,291.816 C216.99,303.012 221.652,316.998 225.378,328.182 " fill="none" id="ListFutureExamsUI-ListFutureExamsController" style="stroke:#181818;stroke-width:0.6;stroke-dasharray:7.0,7.0;"/></g><!--link ListExamService to userRepository--><g id="link_ListExamService_userRepository"><path codeLine="95" d="M389.7,501.162 C389.7,521.01 389.7,547.47 389.7,571.23 " fill="none" id="ListExamService-userRepository" style="stroke:#181818;stroke-width:0.6;stroke-dasharray:7.0,7.0;"/></g><!--link ListFutureExamsController to AuthorizationService--><g id="link_ListFutureExamsController_AuthorizationService"><path codeLine="96" d="M207.468,368.544 C194.226,379.164 177.048,392.94 159.672,406.872 " fill="none" id="ListFutureExamsController-AuthorizationService" style="stroke:#181818;stroke-width:0.6;stroke-dasharray:7.0,7.0;"/></g><!--link ListFutureExamsController to UserSession--><g id="link_ListFutureExamsController_UserSession"><path codeLine="97" d="M232.29,368.544 C232.554,381.594 232.908,399.408 233.244,416.43 " fill="none" id="ListFutureExamsController-UserSession" style="stroke:#181818;stroke-width:0.6;stroke-dasharray:7.0,7.0;"/></g><!--link ListFutureExamsController to ListExamService--><g id="link_ListFutureExamsController_ListExamService"><path codeLine="98" d="M257.604,368.544 C282.492,387.522 320.604,416.574 349.506,438.606 " fill="none" id="ListFutureExamsController-ListExamService" style="stroke:#181818;stroke-width:0.6;stroke-dasharray:7.0,7.0;"/></g><!--link ListExamService to eCourseSystemUser--><g id="link_ListExamService_eCourseSystemUser"><path codeLine="99" d="M388.734,438.516 C386.982,396.114 382.248,317.412 369.9,251.448 C367.008,236.01 363.114,219.78 358.902,204.168 " fill="none" id="ListExamService-eCourseSystemUser" style="stroke:#181818;stroke-width:0.6;stroke-dasharray:7.0,7.0;"/></g><!--SRC=[XLNRRjim37ttLmXzcPUa_G1Z293rWXKecg99i9U-g3OJ2vEbG9IxPKN-VRhv4il9_615vF4H3oaoEQU816vbhH1M1zHGRH0K-Ko8UIPafHKJExAjEN-c5PnQiPHAzyolaWDHvXNsznLbd81z1ykBEUstL0NPXn_1RizSQQfh9EYMO7zYgB_vuEOaTokkWUOb5Fz3c003vFdnWGYs3Rj5hgGuL8JwrLcdSGPIhp5hfSz8OsbbpvpYp4cUaJVX1MTUyQmLEslLpiYxD5WgiY3pQpX-mJMeBWbf13icxibTkMe3V8MzHAQbEeHQJGaj2kj9xIjpe8PUGIK_u8mJWQgy73hzqZ3RyEekl9X4IqtvSrszWrfkhGDJGy643dvkokIJspfTvUnkxZ4xq78F8lZ9A23d4g4OXHoRxDp_eTLuTgmdjQ_CWKwpSyRfipDq-cLCkxMtsezjoMoW3xMkbJi7DuzDM4PKpzw9ijkxzNAUTC867BTIQ7FpE2Z35H6vulJ9vgT4rhG2zS5oy2cQaYqJnKhN1GWzhB3DVN3vHkb56fglWLdYivWeX80yYOHCRIGzCTyF4U50qQBMfYdPNwgP5ATaaoUvsvc9njtYJQxJ0D60ILX3EN85L4EmFKZNasbp5tBJayrthR6aE3JXOC_GncTont93NbZE9c0erhB5WK0ZESB-eBWGX-MsnJaf1HFM-PFfyWLKnToH9aDTKlegFplXX0uF2BxDuvsvox_0vs9oIpc8WYexWvH1BfiSzNX79a74ddOpmd1tIMfOqp3Tlhm2T_N3akqnIU8_fUlhTgQEUHNRbVhQ3-4BVZkpBxYxAMo3Yd4tDt4pPrSB9DIbuIg9l2EVTBsR39lHW4_dUtBsMuiTk_cNl-YLxp9m4DbOf55wakGV]--></g></svg>