<?xml version="1.0" encoding="us-ascii" standalone="no"?><svg xmlns="http://www.w3.org/2000/svg" xmlns:xlink="http://www.w3.org/1999/xlink" contentStyleType="text/css" height="896.4px" preserveAspectRatio="none" style="width:493px;height:896px;background:#FFFFFF;" version="1.1" viewBox="0 0 493 896" width="493.8px" zoomAndPan="magnify"><defs/><g><!--cluster ECOURSESYSTEMUSER--><g id="cluster_ECOURSESYSTEMUSER"><path d="M5.1,338.4082 L104.1,338.4082 A2.25,2.25 0 0 1 105.6,339.9082 L109.8,353.1809 L242.4,353.1809 A1.5,1.5 0 0 1 243.9,354.6809 L243.9,857.1082 A1.5,1.5 0 0 1 242.4,858.6082 L5.1,858.6082 A1.5,1.5 0 0 1 3.6,857.1082 L3.6,339.9082 A1.5,1.5 0 0 1 5.1,338.4082 " fill="none" style="stroke:#000000;stroke-width:0.8999999999999999;"/><line style="stroke:#000000;stroke-width:0.8999999999999999;" x1="3.6" x2="109.8" y1="353.1809" y2="353.1809"/><text fill="#000000" font-family="sans-serif" font-size="8.4" font-weight="bold" lengthAdjust="spacing" textLength="98.4" x="6" y="348.6727">ECOURSESYSTEMUSER</text><text fill="#000000" font-family="sans-serif" font-size="8.4" font-style="italic" lengthAdjust="spacing" textLength="49.2" x="101.55" y="363.4453">&#171;Aggregate&#187;</text></g><!--cluster EXAM--><g id="cluster_EXAM"><path d="M135.9,3.6082 L160.5,3.6082 A2.25,2.25 0 0 1 162,5.1082 L166.2,18.3809 L488.4,18.3809 A1.5,1.5 0 0 1 489.9,19.8809 L489.9,322.5082 A1.5,1.5 0 0 1 488.4,324.0082 L135.9,324.0082 A1.5,1.5 0 0 1 134.4,322.5082 L134.4,5.1082 A1.5,1.5 0 0 1 135.9,3.6082 " fill="none" style="stroke:#000000;stroke-width:0.8999999999999999;"/><line style="stroke:#000000;stroke-width:0.8999999999999999;" x1="134.4" x2="166.2" y1="18.3809" y2="18.3809"/><text fill="#000000" font-family="sans-serif" font-size="8.4" font-weight="bold" lengthAdjust="spacing" textLength="24" x="136.8" y="13.8727">EXAM</text><text fill="#000000" font-family="sans-serif" font-size="8.4" font-style="italic" lengthAdjust="spacing" textLength="48.6" x="290.25" y="28.6453">&#171;aggregate&#187;</text></g><!--class SystemUser--><g id="elem_SystemUser"><rect codeLine="9" fill="#F1F1F1" height="63.4711" id="SystemUser" rx="1.5" ry="1.5" style="stroke:#181818;stroke-width:0.3;" width="54" x="159.3" y="785.4082"/><text fill="#000000" font-family="sans-serif" font-size="7.2" font-style="italic" lengthAdjust="spacing" textLength="21" x="175.8" y="796.1777">&#171;root&#187;</text><text fill="#000000" font-family="sans-serif" font-size="7.2" font-style="italic" lengthAdjust="spacing" textLength="26.4" x="173.1" y="805.7543">&#171;Entity&#187;</text><text fill="#000000" font-family="sans-serif" font-size="8.4" lengthAdjust="spacing" textLength="45" x="163.8" y="816.6258">SystemUser</text><line style="stroke:#181818;stroke-width:0.3;" x1="159.9" x2="212.7" y1="821.734" y2="821.734"/><ellipse cx="165.9" cy="830.6203" fill="#000000" rx="1.8" ry="1.8" style="stroke:#000000;stroke-width:0.6;"/><text fill="#000000" font-family="sans-serif" font-size="8.4" lengthAdjust="spacing" textLength="21.6" x="171.3" y="833.1984">Name</text><ellipse cx="165.9" cy="841.793" fill="#000000" rx="1.8" ry="1.8" style="stroke:#000000;stroke-width:0.6;"/><text fill="#000000" font-family="sans-serif" font-size="8.4" lengthAdjust="spacing" textLength="38.4" x="171.3" y="844.3711">Username</text></g><!--class eCourseSystemUser--><g id="elem_eCourseSystemUser"><rect codeLine="14" fill="#F1F1F1" height="41.1258" id="eCourseSystemUser" rx="1.5" ry="1.5" style="stroke:#181818;stroke-width:0.3;" width="81" x="13.2" y="561.9082"/><text fill="#000000" font-family="sans-serif" font-size="7.2" font-style="italic" lengthAdjust="spacing" textLength="21" x="43.2" y="572.6777">&#171;root&#187;</text><text fill="#000000" font-family="sans-serif" font-size="7.2" font-style="italic" lengthAdjust="spacing" textLength="26.4" x="40.5" y="582.2543">&#171;Entity&#187;</text><text fill="#000000" font-family="sans-serif" font-size="8.4" lengthAdjust="spacing" textLength="77.4" x="15" y="593.1258">eCourseSystemUser</text><line style="stroke:#181818;stroke-width:0.3;" x1="13.8" x2="93.6" y1="598.234" y2="598.234"/></g><!--class EmailAdderss--><g id="elem_EmailAdderss"><rect codeLine="18" fill="#F1F1F1" height="31.5492" id="EmailAdderss" rx="1.5" ry="1.5" style="stroke:#181818;stroke-width:0.3;" width="55.2" x="26.1" y="652.5082"/><text fill="#000000" font-family="sans-serif" font-size="7.2" font-style="italic" lengthAdjust="spacing" textLength="49.8" x="28.8" y="663.2777">&#171;Value object&#187;</text><text fill="#000000" font-family="sans-serif" font-size="8.4" lengthAdjust="spacing" textLength="51.6" x="27.9" y="674.1492">EmailAdderss</text><line style="stroke:#181818;stroke-width:0.3;" x1="26.7" x2="80.7" y1="679.2574" y2="679.2574"/></g><!--class Role--><g id="elem_Role"><rect codeLine="20" fill="#F1F1F1" height="42.7219" id="Role" rx="1.5" ry="1.5" style="stroke:#181818;stroke-width:0.3;" width="61.2" x="155.7" y="721.5082"/><text fill="#000000" font-family="sans-serif" font-size="7.2" font-style="italic" lengthAdjust="spacing" textLength="26.4" x="173.1" y="732.2777">&#171;Entity&#187;</text><text fill="#000000" font-family="sans-serif" font-size="8.4" lengthAdjust="spacing" textLength="17.4" x="177.6" y="743.1492">Role</text><line style="stroke:#181818;stroke-width:0.3;" x1="156.3" x2="216.3" y1="748.2574" y2="748.2574"/><ellipse cx="162.3" cy="757.1438" fill="#000000" rx="1.8" ry="1.8" style="stroke:#000000;stroke-width:0.6;"/><text fill="#000000" font-family="sans-serif" font-size="8.4" lengthAdjust="spacing" textLength="45.6" x="167.7" y="759.7219">String name</text></g><!--class UserStatus--><g id="elem_UserStatus"><rect codeLine="24" fill="#F1F1F1" height="53.8945" id="UserStatus" rx="1.5" ry="1.5" style="stroke:#181818;stroke-width:0.3;" width="49.8" x="161.4" y="646.2082"/><text fill="#000000" font-family="sans-serif" font-size="7.2" font-style="italic" lengthAdjust="spacing" textLength="27.6" x="172.5" y="656.9777">&#171;enum&#187;</text><text fill="#000000" font-family="sans-serif" font-size="8.4" lengthAdjust="spacing" textLength="41.4" x="165.6" y="667.8492">UserStatus</text><line style="stroke:#181818;stroke-width:0.3;" x1="162" x2="210.6" y1="672.9574" y2="672.9574"/><ellipse cx="168" cy="681.8438" fill="none" rx="1.8" ry="1.8" style="stroke:#038048;stroke-width:0.6;"/><text fill="#000000" font-family="sans-serif" font-size="8.4" lengthAdjust="spacing" textLength="31.8" x="173.4" y="684.4219">ENABLE</text><ellipse cx="168" cy="693.0164" fill="none" rx="1.8" ry="1.8" style="stroke:#038048;stroke-width:0.6;"/><text fill="#000000" font-family="sans-serif" font-size="8.4" lengthAdjust="spacing" textLength="34.2" x="173.4" y="695.5945">DISABLE</text></g><!--class Password--><g id="elem_Password"><rect codeLine="29" fill="#F1F1F1" height="31.5492" id="Password" rx="1.5" ry="1.5" style="stroke:#181818;stroke-width:0.3;" width="49.8" x="28.8" y="761.7082"/><text fill="#000000" font-family="sans-serif" font-size="7.2" font-style="italic" lengthAdjust="spacing" textLength="48.6" x="29.4" y="772.4777">&#171;value object&#187;</text><text fill="#000000" font-family="sans-serif" font-size="8.4" lengthAdjust="spacing" textLength="36.6" x="35.4" y="783.3492">Password</text><line style="stroke:#181818;stroke-width:0.3;" x1="29.4" x2="78" y1="788.4574" y2="788.4574"/></g><!--class Acronym--><g id="elem_Acronym"><rect codeLine="31" fill="#F1F1F1" height="31.5492" id="Acronym" rx="1.5" ry="1.5" style="stroke:#181818;stroke-width:0.3;" width="49.8" x="161.4" y="593.1082"/><text fill="#000000" font-family="sans-serif" font-size="7.2" font-style="italic" lengthAdjust="spacing" textLength="48.6" x="162" y="603.8777">&#171;value object&#187;</text><text fill="#000000" font-family="sans-serif" font-size="8.4" lengthAdjust="spacing" textLength="33" x="169.8" y="614.7492">Acronym</text><line style="stroke:#181818;stroke-width:0.3;" x1="162" x2="210.6" y1="619.8574" y2="619.8574"/></g><!--class NIF--><g id="elem_NIF"><rect codeLine="33" fill="#F1F1F1" height="31.5492" id="NIF" rx="1.5" ry="1.5" style="stroke:#181818;stroke-width:0.3;" width="49.8" x="161.4" y="540.3082"/><text fill="#000000" font-family="sans-serif" font-size="7.2" font-style="italic" lengthAdjust="spacing" textLength="48.6" x="162" y="551.0777">&#171;value object&#187;</text><text fill="#000000" font-family="sans-serif" font-size="8.4" lengthAdjust="spacing" textLength="12.6" x="180" y="561.9492">NIF</text><line style="stroke:#181818;stroke-width:0.3;" x1="162" x2="210.6" y1="567.0574" y2="567.0574"/></g><!--class BirthDate--><g id="elem_BirthDate"><rect codeLine="35" fill="#F1F1F1" height="31.5492" id="BirthDate" rx="1.5" ry="1.5" style="stroke:#181818;stroke-width:0.3;" width="49.8" x="161.4" y="487.5082"/><text fill="#000000" font-family="sans-serif" font-size="7.2" font-style="italic" lengthAdjust="spacing" textLength="48.6" x="162" y="498.2777">&#171;value object&#187;</text><text fill="#000000" font-family="sans-serif" font-size="8.4" lengthAdjust="spacing" textLength="35.4" x="168.6" y="509.1492">BirthDate</text><line style="stroke:#181818;stroke-width:0.3;" x1="162" x2="210.6" y1="514.2574" y2="514.2574"/></g><!--class MechanographicNumber--><g id="elem_MechanographicNumber"><rect codeLine="37" fill="#F1F1F1" height="41.1258" id="MechanographicNumber" rx="1.5" ry="1.5" style="stroke:#181818;stroke-width:0.3;" width="96" x="138.3" y="425.1082"/><text fill="#000000" font-family="sans-serif" font-size="7.2" font-style="italic" lengthAdjust="spacing" textLength="48.6" x="162" y="435.8777">&#171;value object&#187;</text><text fill="#000000" font-family="sans-serif" font-size="7.2" font-style="italic" lengthAdjust="spacing" textLength="87.6" x="142.5" y="445.4543">&#171;automatically generated&#187;</text><text fill="#000000" font-family="sans-serif" font-size="8.4" lengthAdjust="spacing" textLength="92.4" x="140.1" y="456.3258">MechanographicNumber</text><line style="stroke:#181818;stroke-width:0.3;" x1="138.9" x2="233.7" y1="461.434" y2="461.434"/></g><!--class Grade--><g id="elem_Grade"><rect codeLine="39" fill="#F1F1F1" height="31.5492" id="Grade" rx="1.5" ry="1.5" style="stroke:#181818;stroke-width:0.3;" width="49.8" x="161.4" y="372.3082"/><text fill="#000000" font-family="sans-serif" font-size="7.2" font-style="italic" lengthAdjust="spacing" textLength="48.6" x="162" y="383.0777">&#171;value object&#187;</text><text fill="#000000" font-family="sans-serif" font-size="8.4" lengthAdjust="spacing" textLength="24" x="174.3" y="393.9492">Grade</text><line style="stroke:#181818;stroke-width:0.3;" x1="162" x2="210.6" y1="399.0574" y2="399.0574"/></g><!--class Exam--><g id="elem_Exam"><rect codeLine="43" fill="#F1F1F1" height="74.6438" id="Exam" rx="1.5" ry="1.5" style="stroke:#181818;stroke-width:0.3;" width="66.6" x="153" y="240.0082"/><text fill="#000000" font-family="sans-serif" font-size="7.2" font-style="italic" lengthAdjust="spacing" textLength="21" x="175.8" y="250.7777">&#171;root&#187;</text><text fill="#000000" font-family="sans-serif" font-size="7.2" font-style="italic" lengthAdjust="spacing" textLength="26.4" x="173.1" y="260.3543">&#171;event&#187;</text><text fill="#000000" font-family="sans-serif" font-size="8.4" lengthAdjust="spacing" textLength="20.4" x="176.1" y="271.2258">Exam</text><line style="stroke:#181818;stroke-width:0.3;" x1="153.6" x2="219" y1="276.334" y2="276.334"/><ellipse cx="159.6" cy="285.2203" fill="#000000" rx="1.8" ry="1.8" style="stroke:#000000;stroke-width:0.6;"/><text fill="#000000" font-family="sans-serif" font-size="8.4" lengthAdjust="spacing" textLength="51" x="165" y="287.7984">title &#171;unique&#187;</text><ellipse cx="159.6" cy="296.393" fill="#000000" rx="1.8" ry="1.8" style="stroke:#000000;stroke-width:0.6;"/><text fill="#000000" font-family="sans-serif" font-size="8.4" lengthAdjust="spacing" textLength="37.2" x="165" y="298.9711">openDate</text><ellipse cx="159.6" cy="307.5656" fill="#000000" rx="1.8" ry="1.8" style="stroke:#000000;stroke-width:0.6;"/><text fill="#000000" font-family="sans-serif" font-size="8.4" lengthAdjust="spacing" textLength="37.8" x="165" y="310.1438">closeDate</text></g><!--class ExamGrade--><g id="elem_ExamGrade"><rect codeLine="49" fill="#F1F1F1" height="31.5492" id="ExamGrade" rx="1.5" ry="1.5" style="stroke:#181818;stroke-width:0.3;" width="49.8" x="161.4" y="186.9082"/><text fill="#000000" font-family="sans-serif" font-size="7.2" font-style="italic" lengthAdjust="spacing" textLength="48.6" x="162" y="197.6777">&#171;value object&#187;</text><text fill="#000000" font-family="sans-serif" font-size="8.4" lengthAdjust="spacing" textLength="44.4" x="164.1" y="208.5492">ExamGrade</text><line style="stroke:#181818;stroke-width:0.3;" x1="162" x2="210.6" y1="213.6574" y2="213.6574"/></g><!--class Header--><g id="elem_Header"><rect codeLine="51" fill="#F1F1F1" height="42.7219" id="Header" rx="1.5" ry="1.5" style="stroke:#181818;stroke-width:0.3;" width="57" x="157.8" y="123.3082"/><text fill="#000000" font-family="sans-serif" font-size="7.2" font-style="italic" lengthAdjust="spacing" textLength="25.8" x="173.4" y="134.0777">&#171;entity&#187;</text><text fill="#000000" font-family="sans-serif" font-size="8.4" lengthAdjust="spacing" textLength="27.6" x="172.5" y="144.9492">Header</text><line style="stroke:#181818;stroke-width:0.3;" x1="158.4" x2="214.2" y1="150.0574" y2="150.0574"/><ellipse cx="164.4" cy="158.9438" fill="#000000" rx="1.8" ry="1.8" style="stroke:#000000;stroke-width:0.6;"/><text fill="#000000" font-family="sans-serif" font-size="8.4" lengthAdjust="spacing" textLength="41.4" x="169.8" y="161.5219">description</text></g><!--class FeedbackType--><g id="elem_FeedbackType"><rect codeLine="55" fill="#F1F1F1" height="65.0672" id="FeedbackType" rx="1.5" ry="1.5" style="stroke:#181818;stroke-width:0.3;" width="84.6" x="144" y="37.2082"/><text fill="#000000" font-family="sans-serif" font-size="7.2" font-style="italic" lengthAdjust="spacing" textLength="27.6" x="172.5" y="47.9777">&#171;enum&#187;</text><text fill="#000000" font-family="sans-serif" font-size="8.4" lengthAdjust="spacing" textLength="57" x="157.8" y="58.8492">FeedbackType</text><line style="stroke:#181818;stroke-width:0.3;" x1="144.6" x2="228" y1="63.9574" y2="63.9574"/><ellipse cx="150.6" cy="72.8438" fill="none" rx="1.8" ry="1.8" style="stroke:#038048;stroke-width:0.6;"/><text fill="#000000" font-family="sans-serif" font-size="8.4" lengthAdjust="spacing" textLength="22.8" x="156" y="75.4219">NONE</text><ellipse cx="150.6" cy="84.0164" fill="none" rx="1.8" ry="1.8" style="stroke:#038048;stroke-width:0.6;"/><text fill="#000000" font-family="sans-serif" font-size="8.4" lengthAdjust="spacing" textLength="66" x="156" y="86.5945">ON_SUBMISSION</text><ellipse cx="150.6" cy="95.1891" fill="none" rx="1.8" ry="1.8" style="stroke:#038048;stroke-width:0.6;"/><text fill="#000000" font-family="sans-serif" font-size="8.4" lengthAdjust="spacing" textLength="69" x="156" y="97.7672">AFTER_CLOSING</text></g><!--class GradeType--><g id="elem_GradeType"><rect codeLine="61" fill="#F1F1F1" height="65.0672" id="GradeType" rx="1.5" ry="1.5" style="stroke:#181818;stroke-width:0.3;" width="84.6" x="286.5" y="220.8082"/><text fill="#000000" font-family="sans-serif" font-size="7.2" font-style="italic" lengthAdjust="spacing" textLength="27.6" x="315" y="231.5777">&#171;enum&#187;</text><text fill="#000000" font-family="sans-serif" font-size="8.4" lengthAdjust="spacing" textLength="43.2" x="307.2" y="242.4492">GradeType</text><line style="stroke:#181818;stroke-width:0.3;" x1="287.1" x2="370.5" y1="247.5574" y2="247.5574"/><ellipse cx="293.1" cy="256.4437" fill="none" rx="1.8" ry="1.8" style="stroke:#038048;stroke-width:0.6;"/><text fill="#000000" font-family="sans-serif" font-size="8.4" lengthAdjust="spacing" textLength="22.8" x="298.5" y="259.0219">NONE</text><ellipse cx="293.1" cy="267.6164" fill="none" rx="1.8" ry="1.8" style="stroke:#038048;stroke-width:0.6;"/><text fill="#000000" font-family="sans-serif" font-size="8.4" lengthAdjust="spacing" textLength="66" x="298.5" y="270.1945">ON_SUBMISSION</text><ellipse cx="293.1" cy="278.7891" fill="none" rx="1.8" ry="1.8" style="stroke:#038048;stroke-width:0.6;"/><text fill="#000000" font-family="sans-serif" font-size="8.4" lengthAdjust="spacing" textLength="69" x="298.5" y="281.3672">AFTER_CLOSING</text></g><!--class Section--><g id="elem_Section"><rect codeLine="67" fill="#F1F1F1" height="42.7219" id="Section" rx="1.5" ry="1.5" style="stroke:#181818;stroke-width:0.3;" width="57" x="300.3" y="156.9082"/><text fill="#000000" font-family="sans-serif" font-size="7.2" font-style="italic" lengthAdjust="spacing" textLength="25.8" x="315.9" y="167.6777">&#171;entity&#187;</text><text fill="#000000" font-family="sans-serif" font-size="8.4" lengthAdjust="spacing" textLength="28.2" x="314.7" y="178.5492">Section</text><line style="stroke:#181818;stroke-width:0.3;" x1="300.9" x2="356.7" y1="183.6574" y2="183.6574"/><ellipse cx="306.9" cy="192.5438" fill="#000000" rx="1.8" ry="1.8" style="stroke:#000000;stroke-width:0.6;"/><text fill="#000000" font-family="sans-serif" font-size="8.4" lengthAdjust="spacing" textLength="41.4" x="312.3" y="195.1219">description</text></g><!--class QuestionType--><g id="elem_QuestionType"><rect codeLine="71" fill="#F1F1F1" height="98.5852" id="QuestionType" rx="1.5" ry="1.5" style="stroke:#181818;stroke-width:0.3;" width="117" x="270.3" y="37.2082"/><text fill="#000000" font-family="sans-serif" font-size="7.2" font-style="italic" lengthAdjust="spacing" textLength="27.6" x="315" y="47.9777">&#171;enum&#187;</text><text fill="#000000" font-family="sans-serif" font-size="8.4" lengthAdjust="spacing" textLength="53.4" x="302.1" y="58.8492">QuestionType</text><line style="stroke:#181818;stroke-width:0.3;" x1="270.9" x2="386.7" y1="63.9574" y2="63.9574"/><ellipse cx="276.9" cy="72.8438" fill="none" rx="1.8" ry="1.8" style="stroke:#038048;stroke-width:0.6;"/><text fill="#000000" font-family="sans-serif" font-size="8.4" lengthAdjust="spacing" textLength="42.6" x="282.3" y="75.4219">MATCHING</text><ellipse cx="276.9" cy="84.0164" fill="none" rx="1.8" ry="1.8" style="stroke:#038048;stroke-width:0.6;"/><text fill="#000000" font-family="sans-serif" font-size="8.4" lengthAdjust="spacing" textLength="75.6" x="282.3" y="86.5945">MULTIPLE_CHOICE</text><ellipse cx="276.9" cy="95.1891" fill="none" rx="1.8" ry="1.8" style="stroke:#038048;stroke-width:0.6;"/><text fill="#000000" font-family="sans-serif" font-size="8.4" lengthAdjust="spacing" textLength="69" x="282.3" y="97.7672">SHORT_ANSWER</text><ellipse cx="276.9" cy="106.3617" fill="none" rx="1.8" ry="1.8" style="stroke:#038048;stroke-width:0.6;"/><text fill="#000000" font-family="sans-serif" font-size="8.4" lengthAdjust="spacing" textLength="46.8" x="282.3" y="108.9398">NUMERICAL</text><ellipse cx="276.9" cy="117.5344" fill="none" rx="1.8" ry="1.8" style="stroke:#038048;stroke-width:0.6;"/><text fill="#000000" font-family="sans-serif" font-size="8.4" lengthAdjust="spacing" textLength="101.4" x="282.3" y="120.1125">SELECT_MISSING_WORD</text><ellipse cx="276.9" cy="128.707" fill="none" rx="1.8" ry="1.8" style="stroke:#038048;stroke-width:0.6;"/><text fill="#000000" font-family="sans-serif" font-size="8.4" lengthAdjust="spacing" textLength="53.4" x="282.3" y="131.2852">TRUE_FALSE</text></g><!--class Question--><g id="elem_Question"><rect codeLine="80" fill="#F1F1F1" height="42.7219" id="Question" rx="1.5" ry="1.5" style="stroke:#181818;stroke-width:0.3;" width="57" x="423.3" y="231.9082"/><text fill="#000000" font-family="sans-serif" font-size="7.2" font-style="italic" lengthAdjust="spacing" textLength="25.8" x="438.9" y="242.6777">&#171;entity&#187;</text><text fill="#000000" font-family="sans-serif" font-size="8.4" lengthAdjust="spacing" textLength="34.2" x="434.7" y="253.5492">Question</text><line style="stroke:#181818;stroke-width:0.3;" x1="423.9" x2="479.7" y1="258.6574" y2="258.6574"/><ellipse cx="429.9" cy="267.5438" fill="#000000" rx="1.8" ry="1.8" style="stroke:#000000;stroke-width:0.6;"/><text fill="#000000" font-family="sans-serif" font-size="8.4" lengthAdjust="spacing" textLength="41.4" x="435.3" y="270.1219">description</text></g><!--class ListExamCoursesService--><g id="elem_ListExamCoursesService"><rect codeLine="84" fill="#F1F1F1" height="31.5492" id="ListExamCoursesService" rx="1.5" ry="1.5" style="stroke:#181818;stroke-width:0.3;" width="97.2" x="5.1" y="213.3082"/><text fill="#000000" font-family="sans-serif" font-size="7.2" font-style="italic" lengthAdjust="spacing" textLength="31.8" x="37.8" y="224.0777">&#171;service&#187;</text><text fill="#000000" font-family="sans-serif" font-size="8.4" lengthAdjust="spacing" textLength="93.6" x="6.9" y="234.9492">ListExamCoursesService</text><line style="stroke:#181818;stroke-width:0.3;" x1="5.7" x2="101.7" y1="240.0574" y2="240.0574"/></g><!--class ListExamService--><g id="elem_ListExamService"><rect codeLine="85" fill="#F1F1F1" height="31.5492" id="ListExamService" rx="1.5" ry="1.5" style="stroke:#181818;stroke-width:0.3;" width="65.4" x="21" y="160.5082"/><text fill="#000000" font-family="sans-serif" font-size="7.2" font-style="italic" lengthAdjust="spacing" textLength="31.8" x="37.8" y="171.2777">&#171;service&#187;</text><text fill="#000000" font-family="sans-serif" font-size="8.4" lengthAdjust="spacing" textLength="61.8" x="22.8" y="182.1492">ListExamService</text><line style="stroke:#181818;stroke-width:0.3;" x1="21.6" x2="85.8" y1="187.2574" y2="187.2574"/></g><!--class ListFutureExamService--><g id="elem_ListFutureExamService"><rect fill="#F1F1F1" height="21.9727" id="ListFutureExamService" rx="1.5" ry="1.5" style="stroke:#181818;stroke-width:0.3;" width="90.6" x="141" y="870.3082"/><text fill="#000000" font-family="sans-serif" font-size="8.4" lengthAdjust="spacing" textLength="87" x="142.8" y="882.3727">ListFutureExamService</text><line style="stroke:#181818;stroke-width:0.3;" x1="141.6" x2="231" y1="887.4809" y2="887.4809"/></g><!--class Course--><g id="elem_Course"><rect fill="#F1F1F1" height="21.9727" id="Course" rx="1.5" ry="1.5" style="stroke:#181818;stroke-width:0.3;" width="31.2" x="38.1" y="266.1082"/><text fill="#000000" font-family="sans-serif" font-size="8.4" lengthAdjust="spacing" textLength="27.6" x="39.9" y="278.1727">Course</text><line style="stroke:#181818;stroke-width:0.3;" x1="38.7" x2="68.7" y1="283.2809" y2="283.2809"/></g><!--link eCourseSystemUser to SystemUser--><g id="link_eCourseSystemUser_SystemUser"><path codeLine="87" d="M86.1,603.3862 C86.1,655.8442 86.1,789.4582 86.1,789.4582 C86.1,789.4582 156.186,789.4582 156.186,789.4582 " fill="none" id="eCourseSystemUser-to-SystemUser" style="stroke:#181818;stroke-width:0.6;"/><polygon fill="#181818" points="159.186,789.4582,153.786,787.0582,156.186,789.4582,153.786,791.8582,159.186,789.4582" style="stroke:#181818;stroke-width:0.6;"/><text fill="#000000" font-family="sans-serif" font-size="7.8" lengthAdjust="spacing" textLength="4.2" x="150.33" y="794.2895">1</text></g><!--link eCourseSystemUser to Role--><g id="link_eCourseSystemUser_Role"><path codeLine="88" d="M94.296,598.2082 C123.84,598.2082 158.7,598.2082 158.7,598.2082 C158.7,598.2082 158.7,718.4722 158.7,718.4722 " fill="none" id="eCourseSystemUser-to-Role" style="stroke:#181818;stroke-width:0.6;"/><polygon fill="#181818" points="158.7,721.4722,161.1,716.0722,158.7,718.4722,156.3,716.0722,158.7,721.4722" style="stroke:#181818;stroke-width:0.6;"/><text fill="#000000" font-family="sans-serif" font-size="7.8" lengthAdjust="spacing" textLength="4.2" x="149.0241" y="714.8199">1</text></g><!--link eCourseSystemUser to UserStatus--><g id="link_eCourseSystemUser_UserStatus"><path codeLine="89" d="M90.3,603.3622 C90.3,622.9582 90.3,649.3582 90.3,649.3582 C90.3,649.3582 158.328,649.3582 158.328,649.3582 " fill="none" id="eCourseSystemUser-to-UserStatus" style="stroke:#181818;stroke-width:0.6;"/><polygon fill="#181818" points="161.328,649.3582,155.928,646.9582,158.328,649.3582,155.928,651.7582,161.328,649.3582" style="stroke:#181818;stroke-width:0.6;"/><text fill="#000000" font-family="sans-serif" font-size="7.8" lengthAdjust="spacing" textLength="4.2" x="152.475" y="654.5766">1</text></g><!--link eCourseSystemUser to Acronym--><g id="link_eCourseSystemUser_Acronym"><path codeLine="90" d="M94.206,595.6582 C94.206,595.6582 158.238,595.6582 158.238,595.6582 " fill="none" id="eCourseSystemUser-to-Acronym" style="stroke:#181818;stroke-width:0.6;"/><polygon fill="#181818" points="161.238,595.6582,155.838,593.2582,158.238,595.6582,155.838,598.0582,161.238,595.6582" style="stroke:#181818;stroke-width:0.6;"/><text fill="#000000" font-family="sans-serif" font-size="7.8" lengthAdjust="spacing" textLength="4.2" x="152.3695" y="602.6938">1</text></g><!--link eCourseSystemUser to NIF--><g id="link_eCourseSystemUser_NIF"><path codeLine="91" d="M94.206,568.7062 C94.206,568.7062 158.238,568.7062 158.238,568.7062 " fill="none" id="eCourseSystemUser-to-NIF" style="stroke:#181818;stroke-width:0.6;"/><polygon fill="#181818" points="161.238,568.7062,155.838,566.3062,158.238,568.7062,155.838,571.1062,161.238,568.7062" style="stroke:#181818;stroke-width:0.6;"/><text fill="#000000" font-family="sans-serif" font-size="7.8" lengthAdjust="spacing" textLength="4.2" x="152.3695" y="580.1844">1</text></g><!--link eCourseSystemUser to BirthDate--><g id="link_eCourseSystemUser_BirthDate"><path codeLine="92" d="M88.5,561.8002 C88.5,538.3342 88.5,503.4082 88.5,503.4082 C88.5,503.4082 158.37,503.4082 158.37,503.4082 " fill="none" id="eCourseSystemUser-to-BirthDate" style="stroke:#181818;stroke-width:0.6;"/><polygon fill="#181818" points="161.37,503.4082,155.97,501.0082,158.37,503.4082,155.97,505.8082,161.37,503.4082" style="stroke:#181818;stroke-width:0.6;"/><text fill="#000000" font-family="sans-serif" font-size="7.8" lengthAdjust="spacing" textLength="4.2" x="152.3553" y="512.7715">1</text></g><!--link eCourseSystemUser to MechanographicNumber--><g id="link_eCourseSystemUser_MechanographicNumber"><path codeLine="93" d="M94.356,565.3102 C120.996,565.3102 150.9,565.3102 150.9,565.3102 C150.9,565.3102 150.9,469.6222 150.9,469.6222 " fill="none" id="eCourseSystemUser-to-MechanographicNumber" style="stroke:#181818;stroke-width:0.6;"/><polygon fill="#181818" points="150.9,466.6222,148.5,472.0222,150.9,469.6222,153.3,472.0222,150.9,466.6222" style="stroke:#181818;stroke-width:0.6;"/><text fill="#000000" font-family="sans-serif" font-size="7.8" lengthAdjust="spacing" textLength="4.2" x="140.2547" y="479.5317">1</text></g><!--link eCourseSystemUser to Grade--><g id="link_eCourseSystemUser_Grade"><path codeLine="94" d="M81.9,561.8062 C81.9,511.6522 81.9,388.2082 81.9,388.2082 C81.9,388.2082 158.292,388.2082 158.292,388.2082 " fill="none" id="eCourseSystemUser-to-Grade" style="stroke:#181818;stroke-width:0.6;"/><polygon fill="#181818" points="161.292,388.2082,155.892,385.8082,158.292,388.2082,155.892,390.6082,161.292,388.2082" style="stroke:#181818;stroke-width:0.6;"/><polygon fill="#000000" points="29.7083,439.8496,25.9084,444.1067,29.1364,445.5272,29.7083,439.8496" style="stroke:#000000;stroke-width:0.6;"/><text fill="#000000" font-family="sans-serif" font-size="7.8" lengthAdjust="spacing" textLength="47.4" x="33.9" y="445.8252">student has a</text><text fill="#000000" font-family="sans-serif" font-size="7.8" lengthAdjust="spacing" textLength="4.2" x="152.4328" y="397.5383">1</text></g><!--link eCourseSystemUser to Exam--><g id="link_eCourseSystemUser_Exam"><path codeLine="95" d="M75.9,561.6982 C75.9,496.5202 75.9,301.3582 75.9,301.3582 C75.9,301.3582 120.384,301.3582 152.874,301.3582 " fill="none" id="eCourseSystemUser-Exam" style="stroke:#181818;stroke-width:0.6;"/><polygon fill="#000000" points="22.1506,395.9486,18.9209,400.653,22.3028,401.6529,22.1506,395.9486" style="stroke:#000000;stroke-width:0.6;"/><text fill="#000000" font-family="sans-serif" font-size="7.8" lengthAdjust="spacing" textLength="48.6" x="26.7" y="402.0552">Student takes</text><text fill="#000000" font-family="sans-serif" font-size="7.8" lengthAdjust="spacing" textLength="3" x="76.7166" y="555.161">*</text><text fill="#000000" font-family="sans-serif" font-size="7.8" lengthAdjust="spacing" textLength="4.2" x="143.9002" y="313.701">1</text></g><!--link eCourseSystemUser to ListFutureExamService--><g id="link_eCourseSystemUser_ListFutureExamService"><path codeLine="96" d="M94.23,600.7582 C119.052,600.7582 146.1,600.7582 146.1,600.7582 C146.1,600.7582 146.1,818.0362 146.1,870.2302 " fill="none" id="eCourseSystemUser-ListFutureExamService" style="stroke:#181818;stroke-width:0.6;"/><polygon fill="#000000" points="98.6671,718.2954,99.3728,712.6329,95.9097,713.2995,98.6671,718.2954" style="stroke:#000000;stroke-width:0.6;"/><text fill="#000000" font-family="sans-serif" font-size="7.8" lengthAdjust="spacing" textLength="42" x="103.5" y="718.5792">Student use</text><text fill="#000000" font-family="sans-serif" font-size="7.8" lengthAdjust="spacing" textLength="3" x="99.0897" y="611.8894">*</text><text fill="#000000" font-family="sans-serif" font-size="7.8" lengthAdjust="spacing" textLength="3" x="133.4569" y="864.7294">*</text></g><!--link Course to Exam--><g id="link_Course_Exam"><path codeLine="97" d="M69.432,277.2082 C89.874,277.2082 126.114,277.2082 152.832,277.2082 " fill="none" id="Course-Exam" style="stroke:#181818;stroke-width:0.6;"/><polygon fill="#000000" points="69.732,271.5955,75.1591,273.3589,75.1591,269.8322,69.732,271.5955" style="stroke:#000000;stroke-width:0.6;"/><text fill="#000000" font-family="sans-serif" font-size="7.8" lengthAdjust="spacing" textLength="32.4" x="78.132" y="274.8252">related to</text><text fill="#000000" font-family="sans-serif" font-size="7.8" lengthAdjust="spacing" textLength="4.2" x="74.0014" y="286.9836">1</text><text fill="#000000" font-family="sans-serif" font-size="7.8" lengthAdjust="spacing" textLength="12" x="136.2685" y="286.2109">0..*</text></g><!--SRC=[jLNVRvim47xdhx3oCgbJs-srYY9HwZH813fCrkqfSk56l8BDRDCjclg_puOqSLR2fadZ8J5tt_totNsysMZTgAlBowQYNBTrTP6B-bB1jnPu3kS5ewMajQSU6M-eEQ6AST3R1f2GUYEy3Ii0vKpc5VJd6eouK5u5NpJI0abMRZGgc8HSCy4zhw7v8oq1JN2Gh5A2oMUIuUMAu7I2fbE_B2MKLCDiXdvw7Z9FNb6b4Dag3VLAWJGeAOGsWEaKSytqjiEYtNE6Obg3ysfj-8lesVK9WMYbWZ-wVcs9QyegloX0cfVfz2EjMdCZ3rzDaREP2qn51QVo95eoNgBXt6mwH5FTMl_0s_h8-2t2iNyTOKTm4vAzvCZJdVdvBcHX_3oTpDFFfU3RUXGJX_DH_JKp8t5ZUZUAMaA-eLoOiMesB8_R-g6xzsC38w2j5ZNLBATLjKKbS936TN7ix5RIOYZSipDcd_obdInwD5bEAt_GskqxF07NltNADAzhOykPMGmJuA0I3N1RioFAAw5WBpkU6nFiLCu7r08CGdPz7nYR0bGkMTDjanF0pWYQ0nGFflBCRkZWtCH9x4vD4g_9wdeP4X8ciIFtvnbErq6Ka32-VHMcA-7_nTXjVCyO_t8D7rfGLd4wnQMV1OkNi3lHAih2kmYlWqKI1cu1P96asTgFoJrEtJ9NIvo6WH-vK1pX85jtnSQtw_ialN6qMRh2wxaVaO4rVSdvx-jzzdhBY2bj1wjdCqL0Fh7SrgtwanckO-0GmdjDXkVdCpHvFt6eTmHaYMv4VQ2p4T2EX4OGXe96j7i26i4CqSy8l5_MAwHqMvYse0rLYABPWCNaR6AiEgEEKguCl_SscZw26hKnVxOtyrQt4jmE7Poq2eoBtaCNnDgzkxWusuUJK5c2j1_TwIy0]--></g></svg>