<?xml version="1.0" encoding="us-ascii" standalone="no"?><svg xmlns="http://www.w3.org/2000/svg" xmlns:xlink="http://www.w3.org/1999/xlink" contentStyleType="text/css" height="535.2px" preserveAspectRatio="none" style="width:931px;height:535px;background:#FFFFFF;" version="1.1" viewBox="0 0 931 535" width="931.8px" zoomAndPan="magnify"><defs/><g><rect fill="#FFFFFF" height="392.2922" style="stroke:#181818;stroke-width:0.6;" width="6" x="16.5" y="72.9199"/><rect fill="#FFFFFF" height="392.2922" style="stroke:#181818;stroke-width:0.6;" width="6" x="152.7" y="72.9199"/><rect fill="#FFFFFF" height="354.743" style="stroke:#181818;stroke-width:0.6;" width="6" x="285.9" y="91.6945"/><rect fill="#FFFFFF" height="242.0953" style="stroke:#181818;stroke-width:0.6;" width="6" x="403.5" y="185.5676"/><rect fill="#FFFFFF" height="18.7746" style="stroke:#181818;stroke-width:0.6;" width="6" x="487.5" y="110.4691"/><rect fill="#FFFFFF" height="18.7746" style="stroke:#181818;stroke-width:0.6;" width="6" x="564.3" y="148.0184"/><rect fill="#FFFFFF" height="18.7746" style="stroke:#181818;stroke-width:0.6;" width="6" x="617.1" y="268.466"/><rect fill="#FFFFFF" height="102.873" style="stroke:#181818;stroke-width:0.6;" width="6" x="693" y="306.0152"/><rect fill="#FFFFFF" height="45.3492" style="stroke:#181818;stroke-width:0.6;" width="6" x="802.8" y="204.3422"/><rect fill="#FFFFFF" height="22.9746" style="stroke:#181818;stroke-width:0.6;" width="6" x="886.8" y="340.5645"/><rect fill="none" height="30.3492" style="stroke:#000000;stroke-width:0.8999999999999999;" width="289.2" x="639" y="315.0152"/><line style="stroke:#181818;stroke-width:0.3;stroke-dasharray:5.0,5.0;" x1="19.2" x2="19.2" y1="52.9453" y2="476.0121"/><line style="stroke:#181818;stroke-width:0.3;stroke-dasharray:5.0,5.0;" x1="155.4" x2="155.4" y1="52.9453" y2="476.0121"/><line style="stroke:#181818;stroke-width:0.3;stroke-dasharray:5.0,5.0;" x1="288.6" x2="288.6" y1="52.9453" y2="476.0121"/><line style="stroke:#181818;stroke-width:0.3;stroke-dasharray:5.0,5.0;" x1="406.2" x2="406.2" y1="52.9453" y2="476.0121"/><line style="stroke:#181818;stroke-width:0.3;stroke-dasharray:5.0,5.0;" x1="490.2" x2="490.2" y1="52.9453" y2="476.0121"/><line style="stroke:#181818;stroke-width:0.3;stroke-dasharray:5.0,5.0;" x1="567" x2="567" y1="52.9453" y2="476.0121"/><line style="stroke:#181818;stroke-width:0.3;stroke-dasharray:5.0,5.0;" x1="619.8" x2="619.8" y1="52.9453" y2="476.0121"/><line style="stroke:#181818;stroke-width:0.3;stroke-dasharray:5.0,5.0;" x1="696" x2="696" y1="52.9453" y2="476.0121"/><line style="stroke:#181818;stroke-width:0.3;stroke-dasharray:5.0,5.0;" x1="805.5" x2="805.5" y1="52.9453" y2="476.0121"/><line style="stroke:#181818;stroke-width:0.3;stroke-dasharray:5.0,5.0;" x1="889.8" x2="889.8" y1="52.9453" y2="476.0121"/><text fill="#000000" font-family="sans-serif" font-size="8.4" lengthAdjust="spacing" textLength="29.4" x="3" y="50.8371">Student</text><ellipse cx="19.5" cy="10.8727" fill="#E2E2F0" rx="4.8" ry="4.8" style="stroke:#181818;stroke-width:0.3;"/><path d="M19.5,15.6727 L19.5,31.8727 M11.7,20.4727 L27.3,20.4727 M19.5,31.8727 L11.7,40.8727 M19.5,31.8727 L27.3,40.8727 " fill="none" style="stroke:#181818;stroke-width:0.3;"/><text fill="#000000" font-family="sans-serif" font-size="8.4" lengthAdjust="spacing" textLength="29.4" x="3" y="484.4766">Student</text><ellipse cx="19.5" cy="491.6848" fill="#E2E2F0" rx="4.8" ry="4.8" style="stroke:#181818;stroke-width:0.3;"/><path d="M19.5,496.4848 L19.5,512.6848 M11.7,501.2848 L27.3,501.2848 M19.5,512.6848 L11.7,521.6848 M19.5,512.6848 L27.3,521.6848 " fill="none" style="stroke:#181818;stroke-width:0.3;"/><rect fill="#E2E2F0" height="19.5727" rx="1.5" ry="1.5" style="stroke:#181818;stroke-width:0.3;" width="81" x="115.2" y="32.7727"/><text fill="#000000" font-family="sans-serif" font-size="8.4" lengthAdjust="spacing" textLength="72.6" x="119.4" y="46.0371">:ListFutureExamsUI</text><rect fill="#E2E2F0" height="19.5727" rx="1.5" ry="1.5" style="stroke:#181818;stroke-width:0.3;" width="81" x="115.2" y="475.4121"/><text fill="#000000" font-family="sans-serif" font-size="8.4" lengthAdjust="spacing" textLength="72.6" x="119.4" y="488.6766">:ListFutureExamsUI</text><rect fill="#E2E2F0" height="19.5727" rx="1.5" ry="1.5" style="stroke:#181818;stroke-width:0.3;" width="111" x="233.4" y="32.7727"/><text fill="#000000" font-family="sans-serif" font-size="8.4" lengthAdjust="spacing" textLength="102.6" x="237.6" y="46.0371">:ListFutureExamsController</text><rect fill="#E2E2F0" height="19.5727" rx="1.5" ry="1.5" style="stroke:#181818;stroke-width:0.3;" width="111" x="233.4" y="475.4121"/><text fill="#000000" font-family="sans-serif" font-size="8.4" lengthAdjust="spacing" textLength="102.6" x="237.6" y="488.6766">:ListFutureExamsController</text><rect fill="#E2E2F0" height="30.7453" rx="1.5" ry="1.5" style="stroke:#181818;stroke-width:0.3;" width="70.2" x="371.4" y="21.6"/><text fill="#000000" font-family="sans-serif" font-size="8.4" font-style="italic" lengthAdjust="spacing" textLength="36" x="388.5" y="34.8645">&#171;service&#187;</text><text fill="#000000" font-family="sans-serif" font-size="8.4" lengthAdjust="spacing" textLength="61.8" x="375.6" y="46.0371">ListExamService</text><rect fill="#E2E2F0" height="30.7453" rx="1.5" ry="1.5" style="stroke:#181818;stroke-width:0.3;" width="70.2" x="371.4" y="475.4121"/><text fill="#000000" font-family="sans-serif" font-size="8.4" font-style="italic" lengthAdjust="spacing" textLength="36" x="388.5" y="488.6766">&#171;service&#187;</text><text fill="#000000" font-family="sans-serif" font-size="8.4" lengthAdjust="spacing" textLength="61.8" x="375.6" y="499.8492">ListExamService</text><rect fill="#E2E2F0" height="19.5727" rx="1.5" ry="1.5" style="stroke:#181818;stroke-width:0.3;" width="85.8" x="447.6" y="32.7727"/><text fill="#000000" font-family="sans-serif" font-size="8.4" lengthAdjust="spacing" textLength="77.4" x="451.8" y="46.0371">AuthorizationService</text><rect fill="#E2E2F0" height="19.5727" rx="1.5" ry="1.5" style="stroke:#181818;stroke-width:0.3;" width="85.8" x="447.6" y="475.4121"/><text fill="#000000" font-family="sans-serif" font-size="8.4" lengthAdjust="spacing" textLength="77.4" x="451.8" y="488.6766">AuthorizationService</text><rect fill="#E2E2F0" height="19.5727" rx="1.5" ry="1.5" style="stroke:#181818;stroke-width:0.3;" width="55.8" x="539.4" y="32.7727"/><text fill="#000000" font-family="sans-serif" font-size="8.4" lengthAdjust="spacing" textLength="47.4" x="543.6" y="46.0371">UserSession</text><rect fill="#E2E2F0" height="19.5727" rx="1.5" ry="1.5" style="stroke:#181818;stroke-width:0.3;" width="55.8" x="539.4" y="475.4121"/><text fill="#000000" font-family="sans-serif" font-size="8.4" lengthAdjust="spacing" textLength="47.4" x="543.6" y="488.6766">UserSession</text><rect fill="#E2E2F0" height="19.5727" rx="1.5" ry="1.5" style="stroke:#181818;stroke-width:0.3;" width="37.8" x="601.2" y="32.7727"/><text fill="#000000" font-family="sans-serif" font-size="8.4" lengthAdjust="spacing" textLength="29.4" x="605.4" y="46.0371">Student</text><rect fill="#E2E2F0" height="19.5727" rx="1.5" ry="1.5" style="stroke:#181818;stroke-width:0.3;" width="37.8" x="601.2" y="475.4121"/><text fill="#000000" font-family="sans-serif" font-size="8.4" lengthAdjust="spacing" textLength="29.4" x="605.4" y="488.6766">Student</text><rect fill="#E2E2F0" height="30.7453" rx="1.5" ry="1.5" style="stroke:#181818;stroke-width:0.3;" width="102" x="645" y="21.6"/><text fill="#000000" font-family="sans-serif" font-size="8.4" font-style="italic" lengthAdjust="spacing" textLength="36" x="678" y="34.8645">&#171;service&#187;</text><text fill="#000000" font-family="sans-serif" font-size="8.4" lengthAdjust="spacing" textLength="93.6" x="649.2" y="46.0371">ListExamCoursesService</text><rect fill="#E2E2F0" height="30.7453" rx="1.5" ry="1.5" style="stroke:#181818;stroke-width:0.3;" width="102" x="645" y="475.4121"/><text fill="#000000" font-family="sans-serif" font-size="8.4" font-style="italic" lengthAdjust="spacing" textLength="36" x="678" y="488.6766">&#171;service&#187;</text><text fill="#000000" font-family="sans-serif" font-size="8.4" lengthAdjust="spacing" textLength="93.6" x="649.2" y="499.8492">ListExamCoursesService</text><text fill="#000000" font-family="sans-serif" font-size="8.4" font-style="italic" lengthAdjust="spacing" textLength="47.4" x="780.3" y="39.6645">&#171;repository&#187;</text><text fill="#000000" font-family="sans-serif" font-size="8.4" lengthAdjust="spacing" textLength="58.2" x="774.9" y="50.8371">UserRepository</text><path d="M795,9 C795,3 805.8,3 805.8,3 C805.8,3 816.6,3 816.6,9 L816.6,24.6 C816.6,30.6 805.8,30.6 805.8,30.6 C805.8,30.6 795,30.6 795,24.6 L795,9 " fill="#E2E2F0" style="stroke:#181818;stroke-width:0.8999999999999999;"/><path d="M795,9 C795,15 805.8,15 805.8,15 C805.8,15 816.6,15 816.6,9 " fill="none" style="stroke:#181818;stroke-width:0.8999999999999999;"/><text fill="#000000" font-family="sans-serif" font-size="8.4" font-style="italic" lengthAdjust="spacing" textLength="47.4" x="780.3" y="484.4766">&#171;repository&#187;</text><text fill="#000000" font-family="sans-serif" font-size="8.4" lengthAdjust="spacing" textLength="58.2" x="774.9" y="495.6492">UserRepository</text><path d="M795,503.7574 C795,497.7574 805.8,497.7574 805.8,497.7574 C805.8,497.7574 816.6,497.7574 816.6,503.7574 L816.6,519.3574 C816.6,525.3574 805.8,525.3574 805.8,525.3574 C805.8,525.3574 795,525.3574 795,519.3574 L795,503.7574 " fill="#E2E2F0" style="stroke:#181818;stroke-width:0.8999999999999999;"/><path d="M795,503.7574 C795,509.7574 805.8,509.7574 805.8,509.7574 C805.8,509.7574 816.6,509.7574 816.6,503.7574 " fill="none" style="stroke:#181818;stroke-width:0.8999999999999999;"/><text fill="#000000" font-family="sans-serif" font-size="8.4" font-style="italic" lengthAdjust="spacing" textLength="47.4" x="864.3" y="39.6645">&#171;repository&#187;</text><text fill="#000000" font-family="sans-serif" font-size="8.4" lengthAdjust="spacing" textLength="61.2" x="857.4" y="50.8371">ExamRepository</text><path d="M879,9 C879,3 889.8,3 889.8,3 C889.8,3 900.6,3 900.6,9 L900.6,24.6 C900.6,30.6 889.8,30.6 889.8,30.6 C889.8,30.6 879,30.6 879,24.6 L879,9 " fill="#E2E2F0" style="stroke:#181818;stroke-width:0.8999999999999999;"/><path d="M879,9 C879,15 889.8,15 889.8,15 C889.8,15 900.6,15 900.6,9 " fill="none" style="stroke:#181818;stroke-width:0.8999999999999999;"/><text fill="#000000" font-family="sans-serif" font-size="8.4" font-style="italic" lengthAdjust="spacing" textLength="47.4" x="864.3" y="484.4766">&#171;repository&#187;</text><text fill="#000000" font-family="sans-serif" font-size="8.4" lengthAdjust="spacing" textLength="61.2" x="857.4" y="495.6492">ExamRepository</text><path d="M879,503.7574 C879,497.7574 889.8,497.7574 889.8,497.7574 C889.8,497.7574 900.6,497.7574 900.6,503.7574 L900.6,519.3574 C900.6,525.3574 889.8,525.3574 889.8,525.3574 C889.8,525.3574 879,525.3574 879,519.3574 L879,503.7574 " fill="#E2E2F0" style="stroke:#181818;stroke-width:0.8999999999999999;"/><path d="M879,503.7574 C879,509.7574 889.8,509.7574 889.8,509.7574 C889.8,509.7574 900.6,509.7574 900.6,503.7574 " fill="none" style="stroke:#181818;stroke-width:0.8999999999999999;"/><rect fill="#FFFFFF" height="392.2922" style="stroke:#181818;stroke-width:0.6;" width="6" x="16.5" y="72.9199"/><rect fill="#FFFFFF" height="392.2922" style="stroke:#181818;stroke-width:0.6;" width="6" x="152.7" y="72.9199"/><rect fill="#FFFFFF" height="354.743" style="stroke:#181818;stroke-width:0.6;" width="6" x="285.9" y="91.6945"/><rect fill="#FFFFFF" height="242.0953" style="stroke:#181818;stroke-width:0.6;" width="6" x="403.5" y="185.5676"/><rect fill="#FFFFFF" height="18.7746" style="stroke:#181818;stroke-width:0.6;" width="6" x="487.5" y="110.4691"/><rect fill="#FFFFFF" height="18.7746" style="stroke:#181818;stroke-width:0.6;" width="6" x="564.3" y="148.0184"/><rect fill="#FFFFFF" height="18.7746" style="stroke:#181818;stroke-width:0.6;" width="6" x="617.1" y="268.466"/><rect fill="#FFFFFF" height="102.873" style="stroke:#181818;stroke-width:0.6;" width="6" x="693" y="306.0152"/><rect fill="#FFFFFF" height="45.3492" style="stroke:#181818;stroke-width:0.6;" width="6" x="802.8" y="204.3422"/><rect fill="#FFFFFF" height="22.9746" style="stroke:#181818;stroke-width:0.6;" width="6" x="886.8" y="340.5645"/><polygon fill="#181818" points="145.5,70.5199,151.5,72.9199,145.5,75.3199,147.9,72.9199" style="stroke:#181818;stroke-width:0.6;"/><line style="stroke:#181818;stroke-width:0.6;" x1="22.5" x2="149.1" y1="72.9199" y2="72.9199"/><text fill="#000000" font-family="sans-serif" font-size="7.8" font-weight="bold" lengthAdjust="spacing" textLength="4.2" x="26.7" y="69.7623">1</text><text fill="#000000" font-family="sans-serif" font-size="7.8" lengthAdjust="spacing" textLength="115.2" x="33.3" y="69.7623">Starts asking to list future exams</text><polygon fill="#181818" points="278.7,89.2945,284.7,91.6945,278.7,94.0945,281.1,91.6945" style="stroke:#181818;stroke-width:0.6;"/><line style="stroke:#181818;stroke-width:0.6;" x1="158.7" x2="282.3" y1="91.6945" y2="91.6945"/><text fill="#000000" font-family="sans-serif" font-size="7.8" font-weight="bold" lengthAdjust="spacing" textLength="4.2" x="162.9" y="88.5369">2</text><text fill="#000000" font-family="sans-serif" font-size="7.8" lengthAdjust="spacing" textLength="62.4" x="169.5" y="88.5369">getFutureExams()</text><polygon fill="#181818" points="480.3,108.0691,486.3,110.4691,480.3,112.8691,482.7,110.4691" style="stroke:#181818;stroke-width:0.6;"/><line style="stroke:#181818;stroke-width:0.6;" x1="291.9" x2="483.9" y1="110.4691" y2="110.4691"/><text fill="#000000" font-family="sans-serif" font-size="7.8" font-weight="bold" lengthAdjust="spacing" textLength="4.2" x="296.1" y="107.3115">3</text><text fill="#000000" font-family="sans-serif" font-size="7.8" lengthAdjust="spacing" textLength="31.8" x="302.7" y="107.3115">session()</text><polygon fill="#181818" points="298.5,126.8438,292.5,129.2438,298.5,131.6437,296.1,129.2438" style="stroke:#181818;stroke-width:0.6;"/><line style="stroke:#181818;stroke-width:0.6;stroke-dasharray:2.0,2.0;" x1="294.9" x2="489.9" y1="129.2438" y2="129.2438"/><text fill="#000000" font-family="sans-serif" font-size="7.8" font-weight="bold" lengthAdjust="spacing" textLength="4.2" x="302.1" y="126.0861">4</text><text fill="#000000" font-family="sans-serif" font-size="7.8" lengthAdjust="spacing" textLength="27" x="308.7" y="126.0861">session</text><polygon fill="#181818" points="557.1,145.6184,563.1,148.0184,557.1,150.4184,559.5,148.0184" style="stroke:#181818;stroke-width:0.6;"/><line style="stroke:#181818;stroke-width:0.6;" x1="291.9" x2="560.7" y1="148.0184" y2="148.0184"/><text fill="#000000" font-family="sans-serif" font-size="7.8" font-weight="bold" lengthAdjust="spacing" textLength="4.2" x="296.1" y="144.8607">5</text><text fill="#000000" font-family="sans-serif" font-size="7.8" lengthAdjust="spacing" textLength="67.8" x="302.7" y="144.8607">authenticatedUser()</text><polygon fill="#181818" points="298.5,164.393,292.5,166.793,298.5,169.193,296.1,166.793" style="stroke:#181818;stroke-width:0.6;"/><line style="stroke:#181818;stroke-width:0.6;stroke-dasharray:2.0,2.0;" x1="294.9" x2="566.7" y1="166.793" y2="166.793"/><text fill="#000000" font-family="sans-serif" font-size="7.8" font-weight="bold" lengthAdjust="spacing" textLength="4.2" x="302.1" y="163.6354">6</text><text fill="#000000" font-family="sans-serif" font-size="7.8" lengthAdjust="spacing" textLength="15" x="308.7" y="163.6354">user</text><polygon fill="#181818" points="396.3,183.1676,402.3,185.5676,396.3,187.9676,398.7,185.5676" style="stroke:#181818;stroke-width:0.6;"/><line style="stroke:#181818;stroke-width:0.6;" x1="291.9" x2="399.9" y1="185.5676" y2="185.5676"/><text fill="#000000" font-family="sans-serif" font-size="7.8" font-weight="bold" lengthAdjust="spacing" textLength="4.2" x="296.1" y="182.41">7</text><text fill="#000000" font-family="sans-serif" font-size="7.8" lengthAdjust="spacing" textLength="77.4" x="302.7" y="182.41">getFutureExams(user)</text><polygon fill="#181818" points="795.6,201.9422,801.6,204.3422,795.6,206.7422,798,204.3422" style="stroke:#181818;stroke-width:0.6;"/><line style="stroke:#181818;stroke-width:0.6;" x1="409.5" x2="799.2" y1="204.3422" y2="204.3422"/><text fill="#000000" font-family="sans-serif" font-size="7.8" font-weight="bold" lengthAdjust="spacing" textLength="4.2" x="413.7" y="201.1846">8</text><text fill="#000000" font-family="sans-serif" font-size="7.8" lengthAdjust="spacing" textLength="58.8" x="420.3" y="201.1846">findStudent(user)</text><line style="stroke:#181818;stroke-width:0.6;" x1="808.8" x2="834" y1="223.1168" y2="223.1168"/><line style="stroke:#181818;stroke-width:0.6;" x1="834" x2="834" y1="223.1168" y2="230.9168"/><line style="stroke:#181818;stroke-width:0.6;" x1="809.4" x2="834" y1="230.9168" y2="230.9168"/><polygon fill="#181818" points="815.4,228.5168,809.4,230.9168,815.4,233.3168,813,230.9168" style="stroke:#181818;stroke-width:0.6;"/><text fill="#000000" font-family="sans-serif" font-size="7.8" font-weight="bold" lengthAdjust="spacing" textLength="4.2" x="813" y="219.9592">9</text><text fill="#000000" font-family="sans-serif" font-size="7.8" lengthAdjust="spacing" textLength="63" x="819.6" y="219.9592">searchUser(email)</text><polygon fill="#181818" points="416.1,247.2914,410.1,249.6914,416.1,252.0914,413.7,249.6914" style="stroke:#181818;stroke-width:0.6;"/><line style="stroke:#181818;stroke-width:0.6;stroke-dasharray:2.0,2.0;" x1="412.5" x2="805.2" y1="249.6914" y2="249.6914"/><text fill="#000000" font-family="sans-serif" font-size="7.8" font-weight="bold" lengthAdjust="spacing" textLength="8.4" x="419.7" y="246.5338">10</text><text fill="#000000" font-family="sans-serif" font-size="7.8" lengthAdjust="spacing" textLength="25.8" x="430.5" y="246.5338">student</text><polygon fill="#181818" points="609.9,266.066,615.9,268.466,609.9,270.866,612.3,268.466" style="stroke:#181818;stroke-width:0.6;"/><line style="stroke:#181818;stroke-width:0.6;" x1="409.5" x2="613.5" y1="268.466" y2="268.466"/><text fill="#000000" font-family="sans-serif" font-size="7.8" font-weight="bold" lengthAdjust="spacing" textLength="8.4" x="413.7" y="265.3084">11</text><text fill="#000000" font-family="sans-serif" font-size="7.8" lengthAdjust="spacing" textLength="71.4" x="424.5" y="265.3084">getStudentCourses()</text><polygon fill="#181818" points="416.1,284.8406,410.1,287.2406,416.1,289.6406,413.7,287.2406" style="stroke:#181818;stroke-width:0.6;"/><line style="stroke:#181818;stroke-width:0.6;stroke-dasharray:2.0,2.0;" x1="412.5" x2="619.5" y1="287.2406" y2="287.2406"/><text fill="#000000" font-family="sans-serif" font-size="7.8" font-weight="bold" lengthAdjust="spacing" textLength="8.4" x="419.7" y="284.083">12</text><text fill="#000000" font-family="sans-serif" font-size="7.8" lengthAdjust="spacing" textLength="74.4" x="430.5" y="284.083">List&lt;Course&gt;courses</text><polygon fill="#181818" points="685.8,303.6152,691.8,306.0152,685.8,308.4152,688.2,306.0152" style="stroke:#181818;stroke-width:0.6;"/><line style="stroke:#181818;stroke-width:0.6;stroke-dasharray:2.0,2.0;" x1="409.5" x2="689.4" y1="306.0152" y2="306.0152"/><text fill="#000000" font-family="sans-serif" font-size="7.8" font-weight="bold" lengthAdjust="spacing" textLength="8.4" x="413.7" y="302.8576">13</text><text fill="#000000" font-family="sans-serif" font-size="7.8" lengthAdjust="spacing" textLength="90" x="424.5" y="302.8576">getFutureExams(courses)</text><path d="M639,315.0152 L682.8,315.0152 L682.8,320.5898 L676.8,326.5898 L639,326.5898 L639,315.0152 " fill="#EEEEEE" style="stroke:#000000;stroke-width:0.8999999999999999;"/><rect fill="none" height="30.3492" style="stroke:#000000;stroke-width:0.8999999999999999;" width="289.2" x="639" y="315.0152"/><text fill="#000000" font-family="sans-serif" font-size="7.8" font-weight="bold" lengthAdjust="spacing" textLength="16.8" x="648" y="324.0322">loop</text><text fill="#000000" font-family="sans-serif" font-size="6.6" font-weight="bold" lengthAdjust="spacing" textLength="57" x="691.8" y="323.3373">[for each course]</text><polygon fill="#181818" points="879.6,338.1645,885.6,340.5645,879.6,342.9645,882,340.5645" style="stroke:#181818;stroke-width:0.6;"/><line style="stroke:#181818;stroke-width:0.6;stroke-dasharray:2.0,2.0;" x1="699" x2="883.2" y1="340.5645" y2="340.5645"/><text fill="#000000" font-family="sans-serif" font-size="7.8" font-weight="bold" lengthAdjust="spacing" textLength="8.4" x="703.2" y="337.4068">14</text><text fill="#000000" font-family="sans-serif" font-size="7.8" lengthAdjust="spacing" textLength="79.8" x="714" y="337.4068">findAllofCourse(course)</text><polygon fill="#181818" points="705.6,361.1391,699.6,363.5391,705.6,365.9391,703.2,363.5391" style="stroke:#181818;stroke-width:0.6;"/><line style="stroke:#181818;stroke-width:0.6;stroke-dasharray:2.0,2.0;" x1="702" x2="889.2" y1="363.5391" y2="363.5391"/><text fill="#000000" font-family="sans-serif" font-size="7.8" font-weight="bold" lengthAdjust="spacing" textLength="8.4" x="709.2" y="360.3814">15</text><text fill="#000000" font-family="sans-serif" font-size="7.8" lengthAdjust="spacing" textLength="67.2" x="720" y="360.3814">List&lt;Exam&gt;Exams</text><line style="stroke:#181818;stroke-width:0.6;stroke-dasharray:2.0,2.0;" x1="699" x2="724.2" y1="382.3137" y2="382.3137"/><line style="stroke:#181818;stroke-width:0.6;stroke-dasharray:2.0,2.0;" x1="724.2" x2="724.2" y1="382.3137" y2="390.1137"/><line style="stroke:#181818;stroke-width:0.6;stroke-dasharray:2.0,2.0;" x1="699.6" x2="724.2" y1="390.1137" y2="390.1137"/><polygon fill="#181818" points="705.6,387.7137,699.6,390.1137,705.6,392.5137,703.2,390.1137" style="stroke:#181818;stroke-width:0.6;"/><text fill="#000000" font-family="sans-serif" font-size="7.8" font-weight="bold" lengthAdjust="spacing" textLength="8.4" x="703.2" y="379.1561">16</text><text fill="#000000" font-family="sans-serif" font-size="7.8" lengthAdjust="spacing" textLength="84.6" x="714" y="379.1561">filterPastExams(Exams)</text><polygon fill="#181818" points="416.1,406.4883,410.1,408.8883,416.1,411.2883,413.7,408.8883" style="stroke:#181818;stroke-width:0.6;"/><line style="stroke:#181818;stroke-width:0.6;stroke-dasharray:2.0,2.0;" x1="412.5" x2="695.4" y1="408.8883" y2="408.8883"/><text fill="#000000" font-family="sans-serif" font-size="7.8" font-weight="bold" lengthAdjust="spacing" textLength="8.4" x="419.7" y="405.7307">17</text><text fill="#000000" font-family="sans-serif" font-size="7.8" lengthAdjust="spacing" textLength="86.4" x="430.5" y="405.7307">List&lt;Exam&gt;futureExams</text><polygon fill="#181818" points="298.5,425.2629,292.5,427.6629,298.5,430.0629,296.1,427.6629" style="stroke:#181818;stroke-width:0.6;"/><line style="stroke:#181818;stroke-width:0.6;stroke-dasharray:2.0,2.0;" x1="294.9" x2="405.9" y1="427.6629" y2="427.6629"/><text fill="#000000" font-family="sans-serif" font-size="7.8" font-weight="bold" lengthAdjust="spacing" textLength="8.4" x="302.1" y="424.5053">18</text><text fill="#000000" font-family="sans-serif" font-size="7.8" lengthAdjust="spacing" textLength="86.4" x="312.9" y="424.5053">List&lt;Exam&gt;futureExams</text><polygon fill="#181818" points="165.3,444.0375,159.3,446.4375,165.3,448.8375,162.9,446.4375" style="stroke:#181818;stroke-width:0.6;"/><line style="stroke:#181818;stroke-width:0.6;stroke-dasharray:2.0,2.0;" x1="161.7" x2="288.3" y1="446.4375" y2="446.4375"/><text fill="#000000" font-family="sans-serif" font-size="7.8" font-weight="bold" lengthAdjust="spacing" textLength="8.4" x="168.9" y="443.2799">19</text><text fill="#000000" font-family="sans-serif" font-size="7.8" lengthAdjust="spacing" textLength="102" x="179.7" y="443.2799">List&lt;ExamDTO&gt;futureExams</text><polygon fill="#181818" points="26.1,462.8121,20.1,465.2121,26.1,467.6121,23.7,465.2121" style="stroke:#181818;stroke-width:0.6;"/><line style="stroke:#181818;stroke-width:0.6;stroke-dasharray:2.0,2.0;" x1="22.5" x2="155.1" y1="465.2121" y2="465.2121"/><text fill="#000000" font-family="sans-serif" font-size="7.8" font-weight="bold" lengthAdjust="spacing" textLength="8.4" x="29.7" y="462.0545">20</text><text fill="#000000" font-family="sans-serif" font-size="7.8" lengthAdjust="spacing" textLength="102" x="40.5" y="462.0545">List&lt;ExamDTO&gt;futureExams</text><!--SRC=[ZPFBZfim58RtVWfhDfqiQFOeGeeeLICXjGf1ghhpm25O1Knz6RLz-fvZCyHCDDKiC39y_lzpyuVUsjca-_qyYCcwSVZOg75lu9U3gO6abUAgnSYOS5PDRdm2pTYniKhpoheM9ik5uSOwncQXhMpaZ3By8IsbiP-TTHgAts8qzUc1mFhqVonNazLg641x7BTRdd02Az3FiW4FbGK_74pua6LR_kXihxJyAwnKKtpeM5- -_DYoDMfKO0oI8TQgsW1HljMbtlnw2IjNJXimYr48Be-3QuKLJy809xCppCf8BEMVO7V6FFJwBQP9UqiNt-zeXbtWIOOrvYa6Y-4P97_AwSgjuWE6o3jVQGvKQYOQAv-51T-zTOCTOlK9PR3sg7E5k3sFknj8lM4CroJpnKJOXEeXnLSi53gyU19qLvBn5bwHp1jJ6bMLSfow7cik6mHQgjb6cpf4oqtN8R8HzSYYM1Pt-H0VvLGMh2oI35kHyavExTBornZ-P_W4q83GJUzZWr78OUT_9HcvcN2URG8wUmyS8H_DOh5CJbnW6Z9y5YaQiKEWiYR0iIp1A4jiVfVbmcyIpTcWrCmxlCYeqlF0C1J9KGN7ArJWE0og2xQBJAI258EfvQJ4SFDYxsCbwypxnt7IaM3XoKuE5lGt4QwFUVJhRYLYgUwMK2n8cVZ4VV_VWVkHnTQT8lhJvUjR1sZCyJua6VRoVIVm1aKxkbp_0000]--></g></svg>