<?xml version="1.0" encoding="us-ascii" standalone="no"?><svg xmlns="http://www.w3.org/2000/svg" xmlns:xlink="http://www.w3.org/1999/xlink" contentStyleType="text/css" height="89px" preserveAspectRatio="none" style="width:529px;height:89px;background:#FFFFFF;" version="1.1" viewBox="0 0 529 89" width="529px" zoomAndPan="magnify"><defs/><g><!--entity Student--><g id="elem_Student"><ellipse cx="30.5" cy="14" fill="#F1F1F1" rx="8" ry="8" style="stroke:#181818;stroke-width:0.5;"/><path d="M30.5,22 L30.5,49 M17.5,30 L43.5,30 M30.5,49 L17.5,64 M30.5,49 L43.5,64 " fill="none" style="stroke:#181818;stroke-width:0.5;"/><text fill="#000000" font-family="sans-serif" font-size="14" lengthAdjust="spacing" textLength="49" x="6" y="80.6074">Student</text></g><!--entity ListExamService--><g id="elem_ListExamService"><ellipse cx="470.5" cy="14" fill="#F1F1F1" rx="8" ry="8" style="stroke:#181818;stroke-width:0.5;"/><path d="M470.5,22 L470.5,49 M457.5,30 L483.5,30 M470.5,49 L457.5,64 M470.5,49 L483.5,64 " fill="none" style="stroke:#181818;stroke-width:0.5;"/><text fill="#000000" font-family="sans-serif" font-size="14" lengthAdjust="spacing" textLength="103" x="419" y="80.6074">ListExamService</text></g><g id="elem_lists all future exames"><ellipse cx="267.3582" cy="44.9716" fill="#F1F1F1" rx="90.3582" ry="20.4716" style="stroke:#181818;stroke-width:0.5;"/><text fill="#000000" font-family="sans-serif" font-size="14" lengthAdjust="spacing" textLength="135" x="196.8582" y="49.7754">lists all future exames</text></g><!--link Student to lists all future exames--><g id="link_Student_lists all future exames"><path d="M55.33,45 C83.8,45 133.09,45 176.9,45 " fill="none" id="Student-lists all future exames" style="stroke:#181818;stroke-width:1.0;"/></g><!--link lists all future exames to Student--><g id="link_lists all future exames_Student"><path d="M217.92,62.19 C181.12,72.82 129.47,82.59 85,72 C76.45,69.96 67.72,66.33 59.86,62.38 " fill="none" id="lists all future exames-to-Student" style="stroke:#181818;stroke-width:1.0;stroke-dasharray:7.0,7.0;"/><polygon fill="#181818" points="55.08,59.89,61.2039,67.6035,59.5114,62.2058,64.9091,60.5133,55.08,59.89" style="stroke:#181818;stroke-width:1.0;"/><text fill="#000000" font-family="sans-serif" font-size="13" lengthAdjust="spacing" textLength="60" x="86" y="68.0283">&#171;extends&#187;</text></g><!--link lists all future exames to ListExamService--><g id="link_lists all future exames_ListExamService"><path d="M358.12,45 C378.96,45 400.42,45 418.88,45 " fill="none" id="lists all future exames-ListExamService" style="stroke:#181818;stroke-width:1.0;"/></g><!--SRC=[VOwz3eCm38HtFuMtmf1aHuYjMpUUm4eCHCeFIfoAnsy6jgfTJZfzT_Oz3f6pJiQSWPAq6BJDqRJAob8Nvsal5042RuAIiVZz47I-i1MV4v2LN72LvZZ9xLw-olEYk79vUyi0S7DK2eVGQKKA0RSchJ1oZt8TuIT1hHSSxXiZJZZFV0adLvVbJwi_-ru27m00]--></g></svg>