<?xml version="1.0" encoding="us-ascii" standalone="no"?><svg xmlns="http://www.w3.org/2000/svg" xmlns:xlink="http://www.w3.org/1999/xlink" contentStyleType="text/css" height="1085px" preserveAspectRatio="none" style="width:2791px;height:1085px;background:#FFFFFF;" version="1.1" viewBox="0 0 2791 1085" width="2791px" zoomAndPan="magnify"><defs/><g><!--class TakeExamUI--><g id="elem_TakeExamUI"><rect codeLine="4" fill="#F1F1F1" height="122.4844" id="TakeExamUI" rx="2.5" ry="2.5" style="stroke:#181818;stroke-width:0.5;" width="357" x="1402.5" y="246"/><ellipse cx="1537.75" cy="262" fill="#ADD1B2" rx="11" ry="11" style="stroke:#181818;stroke-width:1.0;"/><path d="M1540.5156,257.875 Q1540.6719,257.6563 1540.8594,257.5469 Q1541.0469,257.4375 1541.2656,257.4375 Q1541.6406,257.4375 1541.875,257.7031 Q1542.1094,257.9531 1542.1094,258.5625 L1542.1094,260.0156 Q1542.1094,260.625 1541.875,260.8906 Q1541.6406,261.1563 1541.2656,261.1563 Q1540.9219,261.1563 1540.7188,260.9531 Q1540.5156,260.7656 1540.4063,260.25 Q1540.3594,259.8906 1540.1719,259.7031 Q1539.8438,259.3281 1539.2344,259.1094 Q1538.625,258.8906 1538,258.8906 Q1537.2344,258.8906 1536.5938,259.2188 Q1535.9688,259.5469 1535.4688,260.2969 Q1534.9844,261.0469 1534.9844,262.0781 L1534.9844,263.1719 Q1534.9844,264.4063 1535.875,265.2344 Q1536.7656,266.0469 1538.3594,266.0469 Q1539.2969,266.0469 1539.9531,265.7969 Q1540.3438,265.6406 1540.7656,265.2031 Q1541.0313,264.9375 1541.1719,264.8594 Q1541.3281,264.7813 1541.5313,264.7813 Q1541.8594,264.7813 1542.1094,265.0469 Q1542.375,265.2969 1542.375,265.6406 Q1542.375,265.9844 1542.0313,266.3906 Q1541.5313,266.9688 1540.7344,267.2969 Q1539.6563,267.75 1538.3594,267.75 Q1536.8438,267.75 1535.6406,267.125 Q1534.6563,266.625 1533.9688,265.5625 Q1533.2813,264.4844 1533.2813,263.2031 L1533.2813,262.0469 Q1533.2813,260.7188 1533.8906,259.5781 Q1534.5156,258.4219 1535.6094,257.8125 Q1536.7031,257.1875 1537.9375,257.1875 Q1538.6719,257.1875 1539.3125,257.3594 Q1539.9688,257.5156 1540.5156,257.875 Z " fill="#000000"/><text fill="#000000" font-family="sans-serif" font-size="14" lengthAdjust="spacing" textLength="78" x="1558.25" y="267.7969">TakeExamUI</text><line style="stroke:#181818;stroke-width:0.5;" x1="1403.5" x2="1758.5" y1="278" y2="278"/><line style="stroke:#181818;stroke-width:0.5;" x1="1403.5" x2="1758.5" y1="286" y2="286"/><ellipse cx="1413.5" cy="300.8105" fill="#84BE84" rx="3" ry="3" style="stroke:#038048;stroke-width:1.0;"/><text fill="#000000" font-family="sans-serif" font-size="14" lengthAdjust="spacing" textLength="60" x="1422.5" y="305.1074">doShow()</text><ellipse cx="1413.5" cy="319.4316" fill="#84BE84" rx="3" ry="3" style="stroke:#038048;stroke-width:1.0;"/><text fill="#000000" font-family="sans-serif" font-size="14" lengthAdjust="spacing" textLength="251" x="1422.5" y="323.7285">showExams(final List&lt;ExamDto&gt; exams)</text><ellipse cx="1413.5" cy="338.0527" fill="#84BE84" rx="3" ry="3" style="stroke:#038048;stroke-width:1.0;"/><text fill="#000000" font-family="sans-serif" font-size="14" lengthAdjust="spacing" textLength="331" x="1422.5" y="342.3496">buildExamsMenu(final List&lt;ExamDto&gt; exams) : Menu</text><ellipse cx="1413.5" cy="356.6738" fill="#84BE84" rx="3" ry="3" style="stroke:#038048;stroke-width:1.0;"/><text fill="#000000" font-family="sans-serif" font-size="14" lengthAdjust="spacing" textLength="113" x="1422.5" y="360.9707">headline() : String</text></g><!--class TakeExamController--><g id="elem_TakeExamController"><rect codeLine="11" fill="#F1F1F1" height="178.3477" id="TakeExamController" rx="2.5" ry="2.5" style="stroke:#181818;stroke-width:0.5;" width="262" x="1192" y="447"/><ellipse cx="1254.75" cy="463" fill="#ADD1B2" rx="11" ry="11" style="stroke:#181818;stroke-width:1.0;"/><path d="M1257.5156,458.875 Q1257.6719,458.6563 1257.8594,458.5469 Q1258.0469,458.4375 1258.2656,458.4375 Q1258.6406,458.4375 1258.875,458.7031 Q1259.1094,458.9531 1259.1094,459.5625 L1259.1094,461.0156 Q1259.1094,461.625 1258.875,461.8906 Q1258.6406,462.1563 1258.2656,462.1563 Q1257.9219,462.1563 1257.7188,461.9531 Q1257.5156,461.7656 1257.4063,461.25 Q1257.3594,460.8906 1257.1719,460.7031 Q1256.8438,460.3281 1256.2344,460.1094 Q1255.625,459.8906 1255,459.8906 Q1254.2344,459.8906 1253.5938,460.2188 Q1252.9688,460.5469 1252.4688,461.2969 Q1251.9844,462.0469 1251.9844,463.0781 L1251.9844,464.1719 Q1251.9844,465.4063 1252.875,466.2344 Q1253.7656,467.0469 1255.3594,467.0469 Q1256.2969,467.0469 1256.9531,466.7969 Q1257.3438,466.6406 1257.7656,466.2031 Q1258.0313,465.9375 1258.1719,465.8594 Q1258.3281,465.7813 1258.5313,465.7813 Q1258.8594,465.7813 1259.1094,466.0469 Q1259.375,466.2969 1259.375,466.6406 Q1259.375,466.9844 1259.0313,467.3906 Q1258.5313,467.9688 1257.7344,468.2969 Q1256.6563,468.75 1255.3594,468.75 Q1253.8438,468.75 1252.6406,468.125 Q1251.6563,467.625 1250.9688,466.5625 Q1250.2813,465.4844 1250.2813,464.2031 L1250.2813,463.0469 Q1250.2813,461.7188 1250.8906,460.5781 Q1251.5156,459.4219 1252.6094,458.8125 Q1253.7031,458.1875 1254.9375,458.1875 Q1255.6719,458.1875 1256.3125,458.3594 Q1256.9688,458.5156 1257.5156,458.875 Z " fill="#000000"/><text fill="#000000" font-family="sans-serif" font-size="14" lengthAdjust="spacing" textLength="128" x="1275.25" y="468.7969">TakeExamController</text><line style="stroke:#181818;stroke-width:0.5;" x1="1193" x2="1453" y1="479" y2="479"/><ellipse cx="1203" cy="493.8105" fill="#000000" rx="3" ry="3" style="stroke:#000000;stroke-width:1.0;"/><text fill="#000000" font-family="sans-serif" font-size="14" lengthAdjust="spacing" textLength="167" x="1212" y="498.1074">AuthorizationService authz</text><ellipse cx="1203" cy="512.4316" fill="#000000" rx="3" ry="3" style="stroke:#000000;stroke-width:1.0;"/><text fill="#000000" font-family="sans-serif" font-size="14" lengthAdjust="spacing" textLength="184" x="1212" y="516.7285">eCourseUserRepository repo</text><ellipse cx="1203" cy="531.0527" fill="#000000" rx="3" ry="3" style="stroke:#000000;stroke-width:1.0;"/><text fill="#000000" font-family="sans-serif" font-size="14" lengthAdjust="spacing" textLength="144" x="1212" y="535.3496">ExamRepository repoE</text><ellipse cx="1203" cy="549.6738" fill="#000000" rx="3" ry="3" style="stroke:#000000;stroke-width:1.0;"/><text fill="#000000" font-family="sans-serif" font-size="14" lengthAdjust="spacing" textLength="162" x="1212" y="553.9707">TakeExamService service</text><line style="stroke:#181818;stroke-width:0.5;" x1="1193" x2="1453" y1="561.4844" y2="561.4844"/><ellipse cx="1203" cy="576.2949" fill="#84BE84" rx="3" ry="3" style="stroke:#038048;stroke-width:1.0;"/><text fill="#000000" font-family="sans-serif" font-size="14" lengthAdjust="spacing" textLength="236" x="1212" y="580.5918">getTakeableExams() : List&lt;ExamDto&gt;</text><ellipse cx="1203" cy="594.916" fill="#84BE84" rx="3" ry="3" style="stroke:#038048;stroke-width:1.0;"/><text fill="#000000" font-family="sans-serif" font-size="14" lengthAdjust="spacing" textLength="146" x="1212" y="599.2129">getUser() : SystemUser</text><ellipse cx="1203" cy="613.5371" fill="#84BE84" rx="3" ry="3" style="stroke:#038048;stroke-width:1.0;"/><text fill="#000000" font-family="sans-serif" font-size="14" lengthAdjust="spacing" textLength="179" x="1212" y="617.834">takeExam(String examCode)</text></g><!--class SystemUser--><g id="elem_SystemUser"><rect codeLine="21" fill="#F1F1F1" height="113.7852" id="SystemUser" rx="2.5" ry="2.5" style="stroke:#181818;stroke-width:0.5;" width="107" x="1937.5" y="250"/><ellipse cx="1952.5" cy="280.2715" fill="#ADD1B2" rx="11" ry="11" style="stroke:#181818;stroke-width:1.0;"/><path d="M1955.2656,276.1465 Q1955.4219,275.9277 1955.6094,275.8184 Q1955.7969,275.709 1956.0156,275.709 Q1956.3906,275.709 1956.625,275.9746 Q1956.8594,276.2246 1956.8594,276.834 L1956.8594,278.2871 Q1956.8594,278.8965 1956.625,279.1621 Q1956.3906,279.4277 1956.0156,279.4277 Q1955.6719,279.4277 1955.4688,279.2246 Q1955.2656,279.0371 1955.1563,278.5215 Q1955.1094,278.1621 1954.9219,277.9746 Q1954.5938,277.5996 1953.9844,277.3809 Q1953.375,277.1621 1952.75,277.1621 Q1951.9844,277.1621 1951.3438,277.4902 Q1950.7188,277.8184 1950.2188,278.5684 Q1949.7344,279.3184 1949.7344,280.3496 L1949.7344,281.4434 Q1949.7344,282.6777 1950.625,283.5059 Q1951.5156,284.3184 1953.1094,284.3184 Q1954.0469,284.3184 1954.7031,284.0684 Q1955.0938,283.9121 1955.5156,283.4746 Q1955.7813,283.209 1955.9219,283.1309 Q1956.0781,283.0527 1956.2813,283.0527 Q1956.6094,283.0527 1956.8594,283.3184 Q1957.125,283.5684 1957.125,283.9121 Q1957.125,284.2559 1956.7813,284.6621 Q1956.2813,285.2402 1955.4844,285.5684 Q1954.4063,286.0215 1953.1094,286.0215 Q1951.5938,286.0215 1950.3906,285.3965 Q1949.4063,284.8965 1948.7188,283.834 Q1948.0313,282.7559 1948.0313,281.4746 L1948.0313,280.3184 Q1948.0313,278.9902 1948.6406,277.8496 Q1949.2656,276.6934 1950.3594,276.084 Q1951.4531,275.459 1952.6875,275.459 Q1953.4219,275.459 1954.0625,275.6309 Q1954.7188,275.7871 1955.2656,276.1465 Z " fill="#000000"/><text fill="#000000" font-family="sans-serif" font-size="12" font-style="italic" lengthAdjust="spacing" textLength="35" x="1986.5" y="267.9492">&#171;root&#187;</text><text fill="#000000" font-family="sans-serif" font-size="12" font-style="italic" lengthAdjust="spacing" textLength="44" x="1982" y="283.9102">&#171;Entity&#187;</text><text fill="#000000" font-family="sans-serif" font-size="14" lengthAdjust="spacing" textLength="75" x="1966.5" y="302.0293">SystemUser</text><line style="stroke:#181818;stroke-width:0.5;" x1="1938.5" x2="2043.5" y1="310.543" y2="310.543"/><ellipse cx="1948.5" cy="325.3535" fill="#000000" rx="3" ry="3" style="stroke:#000000;stroke-width:1.0;"/><text fill="#000000" font-family="sans-serif" font-size="14" lengthAdjust="spacing" textLength="36" x="1957.5" y="329.6504">Name</text><ellipse cx="1948.5" cy="343.9746" fill="#000000" rx="3" ry="3" style="stroke:#000000;stroke-width:1.0;"/><text fill="#000000" font-family="sans-serif" font-size="14" lengthAdjust="spacing" textLength="64" x="1957.5" y="348.2715">Username</text><line style="stroke:#181818;stroke-width:0.5;" x1="1938.5" x2="2043.5" y1="355.7852" y2="355.7852"/></g><!--class eCourseSystemUser--><g id="elem_eCourseSystemUser"><rect codeLine="26" fill="#F1F1F1" height="76.543" id="eCourseSystemUser" rx="2.5" ry="2.5" style="stroke:#181818;stroke-width:0.5;" width="161" x="1803.5" y="48.5"/><ellipse cx="1818.5" cy="78.7715" fill="#ADD1B2" rx="11" ry="11" style="stroke:#181818;stroke-width:1.0;"/><path d="M1821.2656,74.6465 Q1821.4219,74.4277 1821.6094,74.3184 Q1821.7969,74.209 1822.0156,74.209 Q1822.3906,74.209 1822.625,74.4746 Q1822.8594,74.7246 1822.8594,75.334 L1822.8594,76.7871 Q1822.8594,77.3965 1822.625,77.6621 Q1822.3906,77.9277 1822.0156,77.9277 Q1821.6719,77.9277 1821.4688,77.7246 Q1821.2656,77.5371 1821.1563,77.0215 Q1821.1094,76.6621 1820.9219,76.4746 Q1820.5938,76.0996 1819.9844,75.8809 Q1819.375,75.6621 1818.75,75.6621 Q1817.9844,75.6621 1817.3438,75.9902 Q1816.7188,76.3184 1816.2188,77.0684 Q1815.7344,77.8184 1815.7344,78.8496 L1815.7344,79.9434 Q1815.7344,81.1777 1816.625,82.0059 Q1817.5156,82.8184 1819.1094,82.8184 Q1820.0469,82.8184 1820.7031,82.5684 Q1821.0938,82.4121 1821.5156,81.9746 Q1821.7813,81.709 1821.9219,81.6309 Q1822.0781,81.5527 1822.2813,81.5527 Q1822.6094,81.5527 1822.8594,81.8184 Q1823.125,82.0684 1823.125,82.4121 Q1823.125,82.7559 1822.7813,83.1621 Q1822.2813,83.7402 1821.4844,84.0684 Q1820.4063,84.5215 1819.1094,84.5215 Q1817.5938,84.5215 1816.3906,83.8965 Q1815.4063,83.3965 1814.7188,82.334 Q1814.0313,81.2559 1814.0313,79.9746 L1814.0313,78.8184 Q1814.0313,77.4902 1814.6406,76.3496 Q1815.2656,75.1934 1816.3594,74.584 Q1817.4531,73.959 1818.6875,73.959 Q1819.4219,73.959 1820.0625,74.1309 Q1820.7188,74.2871 1821.2656,74.6465 Z " fill="#000000"/><text fill="#000000" font-family="sans-serif" font-size="12" font-style="italic" lengthAdjust="spacing" textLength="35" x="1879.5" y="66.4492">&#171;root&#187;</text><text fill="#000000" font-family="sans-serif" font-size="12" font-style="italic" lengthAdjust="spacing" textLength="44" x="1875" y="82.4102">&#171;Entity&#187;</text><text fill="#000000" font-family="sans-serif" font-size="14" lengthAdjust="spacing" textLength="129" x="1832.5" y="100.5293">eCourseSystemUser</text><line style="stroke:#181818;stroke-width:0.5;" x1="1804.5" x2="1963.5" y1="109.043" y2="109.043"/><line style="stroke:#181818;stroke-width:0.5;" x1="1804.5" x2="1963.5" y1="117.043" y2="117.043"/></g><!--class EmailAdderss--><g id="elem_EmailAdderss"><rect codeLine="30" fill="#F1F1F1" height="60.582" id="EmailAdderss" rx="2.5" ry="2.5" style="stroke:#181818;stroke-width:0.5;" width="118" x="2021" y="505.5"/><ellipse cx="2036" cy="527.791" fill="#ADD1B2" rx="11" ry="11" style="stroke:#181818;stroke-width:1.0;"/><path d="M2038.7656,523.666 Q2038.9219,523.4473 2039.1094,523.3379 Q2039.2969,523.2285 2039.5156,523.2285 Q2039.8906,523.2285 2040.125,523.4941 Q2040.3594,523.7441 2040.3594,524.3535 L2040.3594,525.8066 Q2040.3594,526.416 2040.125,526.6816 Q2039.8906,526.9473 2039.5156,526.9473 Q2039.1719,526.9473 2038.9688,526.7441 Q2038.7656,526.5566 2038.6563,526.041 Q2038.6094,525.6816 2038.4219,525.4941 Q2038.0938,525.1191 2037.4844,524.9004 Q2036.875,524.6816 2036.25,524.6816 Q2035.4844,524.6816 2034.8438,525.0098 Q2034.2188,525.3379 2033.7188,526.0879 Q2033.2344,526.8379 2033.2344,527.8691 L2033.2344,528.9629 Q2033.2344,530.1973 2034.125,531.0254 Q2035.0156,531.8379 2036.6094,531.8379 Q2037.5469,531.8379 2038.2031,531.5879 Q2038.5938,531.4316 2039.0156,530.9941 Q2039.2813,530.7285 2039.4219,530.6504 Q2039.5781,530.5723 2039.7813,530.5723 Q2040.1094,530.5723 2040.3594,530.8379 Q2040.625,531.0879 2040.625,531.4316 Q2040.625,531.7754 2040.2813,532.1816 Q2039.7813,532.7598 2038.9844,533.0879 Q2037.9063,533.541 2036.6094,533.541 Q2035.0938,533.541 2033.8906,532.916 Q2032.9063,532.416 2032.2188,531.3535 Q2031.5313,530.2754 2031.5313,528.9941 L2031.5313,527.8379 Q2031.5313,526.5098 2032.1406,525.3691 Q2032.7656,524.2129 2033.8594,523.6035 Q2034.9531,522.9785 2036.1875,522.9785 Q2036.9219,522.9785 2037.5625,523.1504 Q2038.2188,523.3066 2038.7656,523.666 Z " fill="#000000"/><text fill="#000000" font-family="sans-serif" font-size="12" font-style="italic" lengthAdjust="spacing" textLength="83" x="2051.5" y="523.4492">&#171;Value object&#187;</text><text fill="#000000" font-family="sans-serif" font-size="14" lengthAdjust="spacing" textLength="86" x="2050" y="541.5684">EmailAdderss</text><line style="stroke:#181818;stroke-width:0.5;" x1="2022" x2="2138" y1="550.082" y2="550.082"/><line style="stroke:#181818;stroke-width:0.5;" x1="2022" x2="2138" y1="558.082" y2="558.082"/></g><!--class Role--><g id="elem_Role"><rect codeLine="32" fill="#F1F1F1" height="79.2031" id="Role" rx="2.5" ry="2.5" style="stroke:#181818;stroke-width:0.5;" width="102" x="1884" y="496.5"/><ellipse cx="1912.5" cy="518.791" fill="#ADD1B2" rx="11" ry="11" style="stroke:#181818;stroke-width:1.0;"/><path d="M1915.2656,514.666 Q1915.4219,514.4473 1915.6094,514.3379 Q1915.7969,514.2285 1916.0156,514.2285 Q1916.3906,514.2285 1916.625,514.4941 Q1916.8594,514.7441 1916.8594,515.3535 L1916.8594,516.8066 Q1916.8594,517.416 1916.625,517.6816 Q1916.3906,517.9473 1916.0156,517.9473 Q1915.6719,517.9473 1915.4688,517.7441 Q1915.2656,517.5566 1915.1563,517.041 Q1915.1094,516.6816 1914.9219,516.4941 Q1914.5938,516.1191 1913.9844,515.9004 Q1913.375,515.6816 1912.75,515.6816 Q1911.9844,515.6816 1911.3438,516.0098 Q1910.7188,516.3379 1910.2188,517.0879 Q1909.7344,517.8379 1909.7344,518.8691 L1909.7344,519.9629 Q1909.7344,521.1973 1910.625,522.0254 Q1911.5156,522.8379 1913.1094,522.8379 Q1914.0469,522.8379 1914.7031,522.5879 Q1915.0938,522.4316 1915.5156,521.9941 Q1915.7813,521.7285 1915.9219,521.6504 Q1916.0781,521.5723 1916.2813,521.5723 Q1916.6094,521.5723 1916.8594,521.8379 Q1917.125,522.0879 1917.125,522.4316 Q1917.125,522.7754 1916.7813,523.1816 Q1916.2813,523.7598 1915.4844,524.0879 Q1914.4063,524.541 1913.1094,524.541 Q1911.5938,524.541 1910.3906,523.916 Q1909.4063,523.416 1908.7188,522.3535 Q1908.0313,521.2754 1908.0313,519.9941 L1908.0313,518.8379 Q1908.0313,517.5098 1908.6406,516.3691 Q1909.2656,515.2129 1910.3594,514.6035 Q1911.4531,513.9785 1912.6875,513.9785 Q1913.4219,513.9785 1914.0625,514.1504 Q1914.7188,514.3066 1915.2656,514.666 Z " fill="#000000"/><text fill="#000000" font-family="sans-serif" font-size="12" font-style="italic" lengthAdjust="spacing" textLength="44" x="1927.5" y="514.4492">&#171;Entity&#187;</text><text fill="#000000" font-family="sans-serif" font-size="14" lengthAdjust="spacing" textLength="29" x="1935" y="532.5684">Role</text><line style="stroke:#181818;stroke-width:0.5;" x1="1885" x2="1985" y1="541.082" y2="541.082"/><ellipse cx="1895" cy="555.8926" fill="#000000" rx="3" ry="3" style="stroke:#000000;stroke-width:1.0;"/><text fill="#000000" font-family="sans-serif" font-size="14" lengthAdjust="spacing" textLength="76" x="1904" y="560.1895">String name</text><line style="stroke:#181818;stroke-width:0.5;" x1="1885" x2="1985" y1="567.7031" y2="567.7031"/></g><!--class UserStatus--><g id="elem_UserStatus"><rect codeLine="36" fill="#F1F1F1" height="97.8242" id="UserStatus" rx="2.5" ry="2.5" style="stroke:#181818;stroke-width:0.5;" width="101" x="2079.5" y="258"/><ellipse cx="2094.5" cy="280.291" fill="#ADD1B2" rx="11" ry="11" style="stroke:#181818;stroke-width:1.0;"/><path d="M2097.2656,276.166 Q2097.4219,275.9473 2097.6094,275.8379 Q2097.7969,275.7285 2098.0156,275.7285 Q2098.3906,275.7285 2098.625,275.9941 Q2098.8594,276.2441 2098.8594,276.8535 L2098.8594,278.3066 Q2098.8594,278.916 2098.625,279.1816 Q2098.3906,279.4473 2098.0156,279.4473 Q2097.6719,279.4473 2097.4688,279.2441 Q2097.2656,279.0566 2097.1563,278.541 Q2097.1094,278.1816 2096.9219,277.9941 Q2096.5938,277.6191 2095.9844,277.4004 Q2095.375,277.1816 2094.75,277.1816 Q2093.9844,277.1816 2093.3438,277.5098 Q2092.7188,277.8379 2092.2188,278.5879 Q2091.7344,279.3379 2091.7344,280.3691 L2091.7344,281.4629 Q2091.7344,282.6973 2092.625,283.5254 Q2093.5156,284.3379 2095.1094,284.3379 Q2096.0469,284.3379 2096.7031,284.0879 Q2097.0938,283.9316 2097.5156,283.4941 Q2097.7813,283.2285 2097.9219,283.1504 Q2098.0781,283.0723 2098.2813,283.0723 Q2098.6094,283.0723 2098.8594,283.3379 Q2099.125,283.5879 2099.125,283.9316 Q2099.125,284.2754 2098.7813,284.6816 Q2098.2813,285.2598 2097.4844,285.5879 Q2096.4063,286.041 2095.1094,286.041 Q2093.5938,286.041 2092.3906,285.416 Q2091.4063,284.916 2090.7188,283.8535 Q2090.0313,282.7754 2090.0313,281.4941 L2090.0313,280.3379 Q2090.0313,279.0098 2090.6406,277.8691 Q2091.2656,276.7129 2092.3594,276.1035 Q2093.4531,275.4785 2094.6875,275.4785 Q2095.4219,275.4785 2096.0625,275.6504 Q2096.7188,275.8066 2097.2656,276.166 Z " fill="#000000"/><text fill="#000000" font-family="sans-serif" font-size="12" font-style="italic" lengthAdjust="spacing" textLength="46" x="2120" y="275.9492">&#171;enum&#187;</text><text fill="#000000" font-family="sans-serif" font-size="14" lengthAdjust="spacing" textLength="69" x="2108.5" y="294.0684">UserStatus</text><line style="stroke:#181818;stroke-width:0.5;" x1="2080.5" x2="2179.5" y1="302.582" y2="302.582"/><ellipse cx="2090.5" cy="317.3926" fill="none" rx="3" ry="3" style="stroke:#038048;stroke-width:1.0;"/><text fill="#000000" font-family="sans-serif" font-size="14" lengthAdjust="spacing" textLength="53" x="2099.5" y="321.6895">ENABLE</text><ellipse cx="2090.5" cy="336.0137" fill="none" rx="3" ry="3" style="stroke:#038048;stroke-width:1.0;"/><text fill="#000000" font-family="sans-serif" font-size="14" lengthAdjust="spacing" textLength="57" x="2099.5" y="340.3105">DISABLE</text><line style="stroke:#181818;stroke-width:0.5;" x1="2080.5" x2="2179.5" y1="347.8242" y2="347.8242"/></g><!--class Password--><g id="elem_Password"><rect codeLine="41" fill="#F1F1F1" height="60.582" id="Password" rx="2.5" ry="2.5" style="stroke:#181818;stroke-width:0.5;" width="109" x="2174.5" y="505.5"/><ellipse cx="2189.5" cy="527.791" fill="#ADD1B2" rx="11" ry="11" style="stroke:#181818;stroke-width:1.0;"/><path d="M2192.2656,523.666 Q2192.4219,523.4473 2192.6094,523.3379 Q2192.7969,523.2285 2193.0156,523.2285 Q2193.3906,523.2285 2193.625,523.4941 Q2193.8594,523.7441 2193.8594,524.3535 L2193.8594,525.8066 Q2193.8594,526.416 2193.625,526.6816 Q2193.3906,526.9473 2193.0156,526.9473 Q2192.6719,526.9473 2192.4688,526.7441 Q2192.2656,526.5566 2192.1563,526.041 Q2192.1094,525.6816 2191.9219,525.4941 Q2191.5938,525.1191 2190.9844,524.9004 Q2190.375,524.6816 2189.75,524.6816 Q2188.9844,524.6816 2188.3438,525.0098 Q2187.7188,525.3379 2187.2188,526.0879 Q2186.7344,526.8379 2186.7344,527.8691 L2186.7344,528.9629 Q2186.7344,530.1973 2187.625,531.0254 Q2188.5156,531.8379 2190.1094,531.8379 Q2191.0469,531.8379 2191.7031,531.5879 Q2192.0938,531.4316 2192.5156,530.9941 Q2192.7813,530.7285 2192.9219,530.6504 Q2193.0781,530.5723 2193.2813,530.5723 Q2193.6094,530.5723 2193.8594,530.8379 Q2194.125,531.0879 2194.125,531.4316 Q2194.125,531.7754 2193.7813,532.1816 Q2193.2813,532.7598 2192.4844,533.0879 Q2191.4063,533.541 2190.1094,533.541 Q2188.5938,533.541 2187.3906,532.916 Q2186.4063,532.416 2185.7188,531.3535 Q2185.0313,530.2754 2185.0313,528.9941 L2185.0313,527.8379 Q2185.0313,526.5098 2185.6406,525.3691 Q2186.2656,524.2129 2187.3594,523.6035 Q2188.4531,522.9785 2189.6875,522.9785 Q2190.4219,522.9785 2191.0625,523.1504 Q2191.7188,523.3066 2192.2656,523.666 Z " fill="#000000"/><text fill="#000000" font-family="sans-serif" font-size="12" font-style="italic" lengthAdjust="spacing" textLength="81" x="2201.5" y="523.4492">&#171;value object&#187;</text><text fill="#000000" font-family="sans-serif" font-size="14" lengthAdjust="spacing" textLength="61" x="2211.5" y="541.5684">Password</text><line style="stroke:#181818;stroke-width:0.5;" x1="2175.5" x2="2282.5" y1="550.082" y2="550.082"/><line style="stroke:#181818;stroke-width:0.5;" x1="2175.5" x2="2282.5" y1="558.082" y2="558.082"/></g><!--class Acronym--><g id="elem_Acronym"><rect codeLine="43" fill="#F1F1F1" height="60.582" id="Acronym" rx="2.5" ry="2.5" style="stroke:#181818;stroke-width:0.5;" width="109" x="2215.5" y="276.5"/><ellipse cx="2230.5" cy="298.791" fill="#ADD1B2" rx="11" ry="11" style="stroke:#181818;stroke-width:1.0;"/><path d="M2233.2656,294.666 Q2233.4219,294.4473 2233.6094,294.3379 Q2233.7969,294.2285 2234.0156,294.2285 Q2234.3906,294.2285 2234.625,294.4941 Q2234.8594,294.7441 2234.8594,295.3535 L2234.8594,296.8066 Q2234.8594,297.416 2234.625,297.6816 Q2234.3906,297.9473 2234.0156,297.9473 Q2233.6719,297.9473 2233.4688,297.7441 Q2233.2656,297.5566 2233.1563,297.041 Q2233.1094,296.6816 2232.9219,296.4941 Q2232.5938,296.1191 2231.9844,295.9004 Q2231.375,295.6816 2230.75,295.6816 Q2229.9844,295.6816 2229.3438,296.0098 Q2228.7188,296.3379 2228.2188,297.0879 Q2227.7344,297.8379 2227.7344,298.8691 L2227.7344,299.9629 Q2227.7344,301.1973 2228.625,302.0254 Q2229.5156,302.8379 2231.1094,302.8379 Q2232.0469,302.8379 2232.7031,302.5879 Q2233.0938,302.4316 2233.5156,301.9941 Q2233.7813,301.7285 2233.9219,301.6504 Q2234.0781,301.5723 2234.2813,301.5723 Q2234.6094,301.5723 2234.8594,301.8379 Q2235.125,302.0879 2235.125,302.4316 Q2235.125,302.7754 2234.7813,303.1816 Q2234.2813,303.7598 2233.4844,304.0879 Q2232.4063,304.541 2231.1094,304.541 Q2229.5938,304.541 2228.3906,303.916 Q2227.4063,303.416 2226.7188,302.3535 Q2226.0313,301.2754 2226.0313,299.9941 L2226.0313,298.8379 Q2226.0313,297.5098 2226.6406,296.3691 Q2227.2656,295.2129 2228.3594,294.6035 Q2229.4531,293.9785 2230.6875,293.9785 Q2231.4219,293.9785 2232.0625,294.1504 Q2232.7188,294.3066 2233.2656,294.666 Z " fill="#000000"/><text fill="#000000" font-family="sans-serif" font-size="12" font-style="italic" lengthAdjust="spacing" textLength="81" x="2242.5" y="294.4492">&#171;value object&#187;</text><text fill="#000000" font-family="sans-serif" font-size="14" lengthAdjust="spacing" textLength="55" x="2255.5" y="312.5684">Acronym</text><line style="stroke:#181818;stroke-width:0.5;" x1="2216.5" x2="2323.5" y1="321.082" y2="321.082"/><line style="stroke:#181818;stroke-width:0.5;" x1="2216.5" x2="2323.5" y1="329.082" y2="329.082"/></g><!--class NIF--><g id="elem_NIF"><rect codeLine="45" fill="#F1F1F1" height="60.582" id="NIF" rx="2.5" ry="2.5" style="stroke:#181818;stroke-width:0.5;" width="109" x="2359.5" y="276.5"/><ellipse cx="2374.5" cy="298.791" fill="#ADD1B2" rx="11" ry="11" style="stroke:#181818;stroke-width:1.0;"/><path d="M2377.2656,294.666 Q2377.4219,294.4473 2377.6094,294.3379 Q2377.7969,294.2285 2378.0156,294.2285 Q2378.3906,294.2285 2378.625,294.4941 Q2378.8594,294.7441 2378.8594,295.3535 L2378.8594,296.8066 Q2378.8594,297.416 2378.625,297.6816 Q2378.3906,297.9473 2378.0156,297.9473 Q2377.6719,297.9473 2377.4688,297.7441 Q2377.2656,297.5566 2377.1563,297.041 Q2377.1094,296.6816 2376.9219,296.4941 Q2376.5938,296.1191 2375.9844,295.9004 Q2375.375,295.6816 2374.75,295.6816 Q2373.9844,295.6816 2373.3438,296.0098 Q2372.7188,296.3379 2372.2188,297.0879 Q2371.7344,297.8379 2371.7344,298.8691 L2371.7344,299.9629 Q2371.7344,301.1973 2372.625,302.0254 Q2373.5156,302.8379 2375.1094,302.8379 Q2376.0469,302.8379 2376.7031,302.5879 Q2377.0938,302.4316 2377.5156,301.9941 Q2377.7813,301.7285 2377.9219,301.6504 Q2378.0781,301.5723 2378.2813,301.5723 Q2378.6094,301.5723 2378.8594,301.8379 Q2379.125,302.0879 2379.125,302.4316 Q2379.125,302.7754 2378.7813,303.1816 Q2378.2813,303.7598 2377.4844,304.0879 Q2376.4063,304.541 2375.1094,304.541 Q2373.5938,304.541 2372.3906,303.916 Q2371.4063,303.416 2370.7188,302.3535 Q2370.0313,301.2754 2370.0313,299.9941 L2370.0313,298.8379 Q2370.0313,297.5098 2370.6406,296.3691 Q2371.2656,295.2129 2372.3594,294.6035 Q2373.4531,293.9785 2374.6875,293.9785 Q2375.4219,293.9785 2376.0625,294.1504 Q2376.7188,294.3066 2377.2656,294.666 Z " fill="#000000"/><text fill="#000000" font-family="sans-serif" font-size="12" font-style="italic" lengthAdjust="spacing" textLength="81" x="2386.5" y="294.4492">&#171;value object&#187;</text><text fill="#000000" font-family="sans-serif" font-size="14" lengthAdjust="spacing" textLength="21" x="2416.5" y="312.5684">NIF</text><line style="stroke:#181818;stroke-width:0.5;" x1="2360.5" x2="2467.5" y1="321.082" y2="321.082"/><line style="stroke:#181818;stroke-width:0.5;" x1="2360.5" x2="2467.5" y1="329.082" y2="329.082"/></g><!--class BirthDate--><g id="elem_BirthDate"><rect codeLine="47" fill="#F1F1F1" height="60.582" id="BirthDate" rx="2.5" ry="2.5" style="stroke:#181818;stroke-width:0.5;" width="109" x="2675.5" y="276.5"/><ellipse cx="2690.5" cy="298.791" fill="#ADD1B2" rx="11" ry="11" style="stroke:#181818;stroke-width:1.0;"/><path d="M2693.2656,294.666 Q2693.4219,294.4473 2693.6094,294.3379 Q2693.7969,294.2285 2694.0156,294.2285 Q2694.3906,294.2285 2694.625,294.4941 Q2694.8594,294.7441 2694.8594,295.3535 L2694.8594,296.8066 Q2694.8594,297.416 2694.625,297.6816 Q2694.3906,297.9473 2694.0156,297.9473 Q2693.6719,297.9473 2693.4688,297.7441 Q2693.2656,297.5566 2693.1563,297.041 Q2693.1094,296.6816 2692.9219,296.4941 Q2692.5938,296.1191 2691.9844,295.9004 Q2691.375,295.6816 2690.75,295.6816 Q2689.9844,295.6816 2689.3438,296.0098 Q2688.7188,296.3379 2688.2188,297.0879 Q2687.7344,297.8379 2687.7344,298.8691 L2687.7344,299.9629 Q2687.7344,301.1973 2688.625,302.0254 Q2689.5156,302.8379 2691.1094,302.8379 Q2692.0469,302.8379 2692.7031,302.5879 Q2693.0938,302.4316 2693.5156,301.9941 Q2693.7813,301.7285 2693.9219,301.6504 Q2694.0781,301.5723 2694.2813,301.5723 Q2694.6094,301.5723 2694.8594,301.8379 Q2695.125,302.0879 2695.125,302.4316 Q2695.125,302.7754 2694.7813,303.1816 Q2694.2813,303.7598 2693.4844,304.0879 Q2692.4063,304.541 2691.1094,304.541 Q2689.5938,304.541 2688.3906,303.916 Q2687.4063,303.416 2686.7188,302.3535 Q2686.0313,301.2754 2686.0313,299.9941 L2686.0313,298.8379 Q2686.0313,297.5098 2686.6406,296.3691 Q2687.2656,295.2129 2688.3594,294.6035 Q2689.4531,293.9785 2690.6875,293.9785 Q2691.4219,293.9785 2692.0625,294.1504 Q2692.7188,294.3066 2693.2656,294.666 Z " fill="#000000"/><text fill="#000000" font-family="sans-serif" font-size="12" font-style="italic" lengthAdjust="spacing" textLength="81" x="2702.5" y="294.4492">&#171;value object&#187;</text><text fill="#000000" font-family="sans-serif" font-size="14" lengthAdjust="spacing" textLength="59" x="2713.5" y="312.5684">BirthDate</text><line style="stroke:#181818;stroke-width:0.5;" x1="2676.5" x2="2783.5" y1="321.082" y2="321.082"/><line style="stroke:#181818;stroke-width:0.5;" x1="2676.5" x2="2783.5" y1="329.082" y2="329.082"/></g><!--class MechanographicNumber--><g id="elem_MechanographicNumber"><rect codeLine="49" fill="#F1F1F1" height="76.543" id="MechanographicNumber" rx="2.5" ry="2.5" style="stroke:#181818;stroke-width:0.5;" width="186" x="1110" y="268.5"/><ellipse cx="1125" cy="298.7715" fill="#ADD1B2" rx="11" ry="11" style="stroke:#181818;stroke-width:1.0;"/><path d="M1127.7656,294.6465 Q1127.9219,294.4277 1128.1094,294.3184 Q1128.2969,294.209 1128.5156,294.209 Q1128.8906,294.209 1129.125,294.4746 Q1129.3594,294.7246 1129.3594,295.334 L1129.3594,296.7871 Q1129.3594,297.3965 1129.125,297.6621 Q1128.8906,297.9277 1128.5156,297.9277 Q1128.1719,297.9277 1127.9688,297.7246 Q1127.7656,297.5371 1127.6563,297.0215 Q1127.6094,296.6621 1127.4219,296.4746 Q1127.0938,296.0996 1126.4844,295.8809 Q1125.875,295.6621 1125.25,295.6621 Q1124.4844,295.6621 1123.8438,295.9902 Q1123.2188,296.3184 1122.7188,297.0684 Q1122.2344,297.8184 1122.2344,298.8496 L1122.2344,299.9434 Q1122.2344,301.1777 1123.125,302.0059 Q1124.0156,302.8184 1125.6094,302.8184 Q1126.5469,302.8184 1127.2031,302.5684 Q1127.5938,302.4121 1128.0156,301.9746 Q1128.2813,301.709 1128.4219,301.6309 Q1128.5781,301.5527 1128.7813,301.5527 Q1129.1094,301.5527 1129.3594,301.8184 Q1129.625,302.0684 1129.625,302.4121 Q1129.625,302.7559 1129.2813,303.1621 Q1128.7813,303.7402 1127.9844,304.0684 Q1126.9063,304.5215 1125.6094,304.5215 Q1124.0938,304.5215 1122.8906,303.8965 Q1121.9063,303.3965 1121.2188,302.334 Q1120.5313,301.2559 1120.5313,299.9746 L1120.5313,298.8184 Q1120.5313,297.4902 1121.1406,296.3496 Q1121.7656,295.1934 1122.8594,294.584 Q1123.9531,293.959 1125.1875,293.959 Q1125.9219,293.959 1126.5625,294.1309 Q1127.2188,294.2871 1127.7656,294.6465 Z " fill="#000000"/><text fill="#000000" font-family="sans-serif" font-size="12" font-style="italic" lengthAdjust="spacing" textLength="81" x="1175.5" y="286.4492">&#171;value object&#187;</text><text fill="#000000" font-family="sans-serif" font-size="12" font-style="italic" lengthAdjust="spacing" textLength="146" x="1143" y="302.4102">&#171;automatically generated&#187;</text><text fill="#000000" font-family="sans-serif" font-size="14" lengthAdjust="spacing" textLength="154" x="1139" y="320.5293">MechanographicNumber</text><line style="stroke:#181818;stroke-width:0.5;" x1="1111" x2="1295" y1="329.043" y2="329.043"/><line style="stroke:#181818;stroke-width:0.5;" x1="1111" x2="1295" y1="337.043" y2="337.043"/></g><!--class Grade--><g id="elem_Grade"><rect codeLine="51" fill="#F1F1F1" height="60.582" id="Grade" rx="2.5" ry="2.5" style="stroke:#181818;stroke-width:0.5;" width="109" x="697.5" y="276.5"/><ellipse cx="712.5" cy="298.791" fill="#ADD1B2" rx="11" ry="11" style="stroke:#181818;stroke-width:1.0;"/><path d="M715.2656,294.666 Q715.4219,294.4473 715.6094,294.3379 Q715.7969,294.2285 716.0156,294.2285 Q716.3906,294.2285 716.625,294.4941 Q716.8594,294.7441 716.8594,295.3535 L716.8594,296.8066 Q716.8594,297.416 716.625,297.6816 Q716.3906,297.9473 716.0156,297.9473 Q715.6719,297.9473 715.4688,297.7441 Q715.2656,297.5566 715.1563,297.041 Q715.1094,296.6816 714.9219,296.4941 Q714.5938,296.1191 713.9844,295.9004 Q713.375,295.6816 712.75,295.6816 Q711.9844,295.6816 711.3438,296.0098 Q710.7188,296.3379 710.2188,297.0879 Q709.7344,297.8379 709.7344,298.8691 L709.7344,299.9629 Q709.7344,301.1973 710.625,302.0254 Q711.5156,302.8379 713.1094,302.8379 Q714.0469,302.8379 714.7031,302.5879 Q715.0938,302.4316 715.5156,301.9941 Q715.7813,301.7285 715.9219,301.6504 Q716.0781,301.5723 716.2813,301.5723 Q716.6094,301.5723 716.8594,301.8379 Q717.125,302.0879 717.125,302.4316 Q717.125,302.7754 716.7813,303.1816 Q716.2813,303.7598 715.4844,304.0879 Q714.4063,304.541 713.1094,304.541 Q711.5938,304.541 710.3906,303.916 Q709.4063,303.416 708.7188,302.3535 Q708.0313,301.2754 708.0313,299.9941 L708.0313,298.8379 Q708.0313,297.5098 708.6406,296.3691 Q709.2656,295.2129 710.3594,294.6035 Q711.4531,293.9785 712.6875,293.9785 Q713.4219,293.9785 714.0625,294.1504 Q714.7188,294.3066 715.2656,294.666 Z " fill="#000000"/><text fill="#000000" font-family="sans-serif" font-size="12" font-style="italic" lengthAdjust="spacing" textLength="81" x="724.5" y="294.4492">&#171;value object&#187;</text><text fill="#000000" font-family="sans-serif" font-size="14" lengthAdjust="spacing" textLength="40" x="745" y="312.5684">Grade</text><line style="stroke:#181818;stroke-width:0.5;" x1="698.5" x2="805.5" y1="321.082" y2="321.082"/><line style="stroke:#181818;stroke-width:0.5;" x1="698.5" x2="805.5" y1="329.082" y2="329.082"/></g><!--class Course--><g id="elem_Course"><rect codeLine="53" fill="#F1F1F1" height="159.7266" id="Course" rx="2.5" ry="2.5" style="stroke:#181818;stroke-width:0.5;" width="515" x="360.5" y="7"/><ellipse cx="590.75" cy="23" fill="#ADD1B2" rx="11" ry="11" style="stroke:#181818;stroke-width:1.0;"/><path d="M593.5156,18.875 Q593.6719,18.6563 593.8594,18.5469 Q594.0469,18.4375 594.2656,18.4375 Q594.6406,18.4375 594.875,18.7031 Q595.1094,18.9531 595.1094,19.5625 L595.1094,21.0156 Q595.1094,21.625 594.875,21.8906 Q594.6406,22.1563 594.2656,22.1563 Q593.9219,22.1563 593.7188,21.9531 Q593.5156,21.7656 593.4063,21.25 Q593.3594,20.8906 593.1719,20.7031 Q592.8438,20.3281 592.2344,20.1094 Q591.625,19.8906 591,19.8906 Q590.2344,19.8906 589.5938,20.2188 Q588.9688,20.5469 588.4688,21.2969 Q587.9844,22.0469 587.9844,23.0781 L587.9844,24.1719 Q587.9844,25.4063 588.875,26.2344 Q589.7656,27.0469 591.3594,27.0469 Q592.2969,27.0469 592.9531,26.7969 Q593.3438,26.6406 593.7656,26.2031 Q594.0313,25.9375 594.1719,25.8594 Q594.3281,25.7813 594.5313,25.7813 Q594.8594,25.7813 595.1094,26.0469 Q595.375,26.2969 595.375,26.6406 Q595.375,26.9844 595.0313,27.3906 Q594.5313,27.9688 593.7344,28.2969 Q592.6563,28.75 591.3594,28.75 Q589.8438,28.75 588.6406,28.125 Q587.6563,27.625 586.9688,26.5625 Q586.2813,25.4844 586.2813,24.2031 L586.2813,23.0469 Q586.2813,21.7188 586.8906,20.5781 Q587.5156,19.4219 588.6094,18.8125 Q589.7031,18.1875 590.9375,18.1875 Q591.6719,18.1875 592.3125,18.3594 Q592.9688,18.5156 593.5156,18.875 Z " fill="#000000"/><text fill="#000000" font-family="sans-serif" font-size="14" lengthAdjust="spacing" textLength="46" x="611.25" y="28.7969">Course</text><line style="stroke:#181818;stroke-width:0.5;" x1="361.5" x2="874.5" y1="39" y2="39"/><ellipse cx="371.5" cy="53.8105" fill="#000000" rx="3" ry="3" style="stroke:#000000;stroke-width:1.0;"/><text fill="#000000" font-family="sans-serif" font-size="14" lengthAdjust="spacing" textLength="30" x="380.5" y="58.1074">int id</text><ellipse cx="371.5" cy="72.4316" fill="#000000" rx="3" ry="3" style="stroke:#000000;stroke-width:1.0;"/><text fill="#000000" font-family="sans-serif" font-size="14" lengthAdjust="spacing" textLength="35" x="380.5" y="76.7285">name</text><ellipse cx="371.5" cy="91.0527" fill="#000000" rx="3" ry="3" style="stroke:#000000;stroke-width:1.0;"/><text fill="#000000" font-family="sans-serif" font-size="14" lengthAdjust="spacing" textLength="128" x="380.5" y="95.3496">CourseStatus status</text><ellipse cx="371.5" cy="109.6738" fill="#000000" rx="3" ry="3" style="stroke:#000000;stroke-width:1.0;"/><text fill="#000000" font-family="sans-serif" font-size="14" lengthAdjust="spacing" textLength="69" x="380.5" y="113.9707">Code code</text><ellipse cx="371.5" cy="128.2949" fill="#000000" rx="3" ry="3" style="stroke:#000000;stroke-width:1.0;"/><text fill="#000000" font-family="sans-serif" font-size="14" lengthAdjust="spacing" textLength="98" x="380.5" y="132.5918">Teacher regent</text><line style="stroke:#181818;stroke-width:0.5;" x1="361.5" x2="874.5" y1="140.1055" y2="140.1055"/><ellipse cx="371.5" cy="154.916" fill="#84BE84" rx="3" ry="3" style="stroke:#038048;stroke-width:1.0;"/><text fill="#000000" font-family="sans-serif" font-size="14" lengthAdjust="spacing" textLength="489" x="380.5" y="159.2129">Course(int id, String name, CourseStatus status, Code code, Teacher regent)</text></g><!--class Exam--><g id="elem_Exam"><rect codeLine="62" fill="#F1F1F1" height="132.4063" id="Exam" rx="2.5" ry="2.5" style="stroke:#181818;stroke-width:0.5;" width="111" x="86.5" y="728"/><ellipse cx="119.05" cy="758.2715" fill="#ADD1B2" rx="11" ry="11" style="stroke:#181818;stroke-width:1.0;"/><path d="M121.8156,754.1465 Q121.9719,753.9277 122.1594,753.8184 Q122.3469,753.709 122.5656,753.709 Q122.9406,753.709 123.175,753.9746 Q123.4094,754.2246 123.4094,754.834 L123.4094,756.2871 Q123.4094,756.8965 123.175,757.1621 Q122.9406,757.4277 122.5656,757.4277 Q122.2219,757.4277 122.0188,757.2246 Q121.8156,757.0371 121.7063,756.5215 Q121.6594,756.1621 121.4719,755.9746 Q121.1438,755.5996 120.5344,755.3809 Q119.925,755.1621 119.3,755.1621 Q118.5344,755.1621 117.8938,755.4902 Q117.2688,755.8184 116.7688,756.5684 Q116.2844,757.3184 116.2844,758.3496 L116.2844,759.4434 Q116.2844,760.6777 117.175,761.5059 Q118.0656,762.3184 119.6594,762.3184 Q120.5969,762.3184 121.2531,762.0684 Q121.6438,761.9121 122.0656,761.4746 Q122.3313,761.209 122.4719,761.1309 Q122.6281,761.0527 122.8313,761.0527 Q123.1594,761.0527 123.4094,761.3184 Q123.675,761.5684 123.675,761.9121 Q123.675,762.2559 123.3313,762.6621 Q122.8313,763.2402 122.0344,763.5684 Q120.9563,764.0215 119.6594,764.0215 Q118.1438,764.0215 116.9406,763.3965 Q115.9563,762.8965 115.2688,761.834 Q114.5813,760.7559 114.5813,759.4746 L114.5813,758.3184 Q114.5813,756.9902 115.1906,755.8496 Q115.8156,754.6934 116.9094,754.084 Q118.0031,753.459 119.2375,753.459 Q119.9719,753.459 120.6125,753.6309 Q121.2688,753.7871 121.8156,754.1465 Z " fill="#000000"/><text fill="#000000" font-family="sans-serif" font-size="12" font-style="italic" lengthAdjust="spacing" textLength="35" x="139.45" y="745.9492">&#171;root&#187;</text><text fill="#000000" font-family="sans-serif" font-size="12" font-style="italic" lengthAdjust="spacing" textLength="44" x="134.95" y="761.9102">&#171;event&#187;</text><text fill="#000000" font-family="sans-serif" font-size="14" lengthAdjust="spacing" textLength="34" x="139.95" y="780.0293">Exam</text><line style="stroke:#181818;stroke-width:0.5;" x1="87.5" x2="196.5" y1="788.543" y2="788.543"/><ellipse cx="97.5" cy="803.3535" fill="#000000" rx="3" ry="3" style="stroke:#000000;stroke-width:1.0;"/><text fill="#000000" font-family="sans-serif" font-size="14" lengthAdjust="spacing" textLength="85" x="106.5" y="807.6504">title &#171;unique&#187;</text><ellipse cx="97.5" cy="821.9746" fill="#000000" rx="3" ry="3" style="stroke:#000000;stroke-width:1.0;"/><text fill="#000000" font-family="sans-serif" font-size="14" lengthAdjust="spacing" textLength="62" x="106.5" y="826.2715">openDate</text><ellipse cx="97.5" cy="840.5957" fill="#000000" rx="3" ry="3" style="stroke:#000000;stroke-width:1.0;"/><text fill="#000000" font-family="sans-serif" font-size="14" lengthAdjust="spacing" textLength="63" x="106.5" y="844.8926">closeDate</text><line style="stroke:#181818;stroke-width:0.5;" x1="87.5" x2="196.5" y1="852.4063" y2="852.4063"/></g><!--class ExamGrade--><g id="elem_ExamGrade"><rect codeLine="68" fill="#F1F1F1" height="97.8242" id="ExamGrade" rx="2.5" ry="2.5" style="stroke:#181818;stroke-width:0.5;" width="206" x="992" y="981"/><ellipse cx="1052.25" cy="1003.291" fill="#ADD1B2" rx="11" ry="11" style="stroke:#181818;stroke-width:1.0;"/><path d="M1055.0156,999.166 Q1055.1719,998.9473 1055.3594,998.8379 Q1055.5469,998.7285 1055.7656,998.7285 Q1056.1406,998.7285 1056.375,998.9941 Q1056.6094,999.2441 1056.6094,999.8535 L1056.6094,1001.3066 Q1056.6094,1001.916 1056.375,1002.1816 Q1056.1406,1002.4473 1055.7656,1002.4473 Q1055.4219,1002.4473 1055.2188,1002.2441 Q1055.0156,1002.0566 1054.9063,1001.541 Q1054.8594,1001.1816 1054.6719,1000.9941 Q1054.3438,1000.6191 1053.7344,1000.4004 Q1053.125,1000.1816 1052.5,1000.1816 Q1051.7344,1000.1816 1051.0938,1000.5098 Q1050.4688,1000.8379 1049.9688,1001.5879 Q1049.4844,1002.3379 1049.4844,1003.3691 L1049.4844,1004.4629 Q1049.4844,1005.6973 1050.375,1006.5254 Q1051.2656,1007.3379 1052.8594,1007.3379 Q1053.7969,1007.3379 1054.4531,1007.0879 Q1054.8438,1006.9316 1055.2656,1006.4941 Q1055.5313,1006.2285 1055.6719,1006.1504 Q1055.8281,1006.0723 1056.0313,1006.0723 Q1056.3594,1006.0723 1056.6094,1006.3379 Q1056.875,1006.5879 1056.875,1006.9316 Q1056.875,1007.2754 1056.5313,1007.6816 Q1056.0313,1008.2598 1055.2344,1008.5879 Q1054.1563,1009.041 1052.8594,1009.041 Q1051.3438,1009.041 1050.1406,1008.416 Q1049.1563,1007.916 1048.4688,1006.8535 Q1047.7813,1005.7754 1047.7813,1004.4941 L1047.7813,1003.3379 Q1047.7813,1002.0098 1048.3906,1000.8691 Q1049.0156,999.7129 1050.1094,999.1035 Q1051.2031,998.4785 1052.4375,998.4785 Q1053.1719,998.4785 1053.8125,998.6504 Q1054.4688,998.8066 1055.0156,999.166 Z " fill="#000000"/><text fill="#000000" font-family="sans-serif" font-size="12" font-style="italic" lengthAdjust="spacing" textLength="81" x="1070.75" y="998.9492">&#171;value object&#187;</text><text fill="#000000" font-family="sans-serif" font-size="14" lengthAdjust="spacing" textLength="74" x="1074.25" y="1017.0684">ExamGrade</text><line style="stroke:#181818;stroke-width:0.5;" x1="993" x2="1197" y1="1025.582" y2="1025.582"/><ellipse cx="1003" cy="1040.3926" fill="#000000" rx="3" ry="3" style="stroke:#000000;stroke-width:1.0;"/><text fill="#000000" font-family="sans-serif" font-size="14" lengthAdjust="spacing" textLength="56" x="1012" y="1044.6895">int grade</text><ellipse cx="1003" cy="1059.0137" fill="#000000" rx="3" ry="3" style="stroke:#000000;stroke-width:1.0;"/><text fill="#000000" font-family="sans-serif" font-size="14" lengthAdjust="spacing" textLength="180" x="1012" y="1063.3105">eCourseSystemUser student</text><line style="stroke:#181818;stroke-width:0.5;" x1="993" x2="1197" y1="1070.8242" y2="1070.8242"/></g><!--class RepositoryFactory--><g id="elem_RepositoryFactory"><rect codeLine="73" fill="#F1F1F1" height="48" id="RepositoryFactory" rx="2.5" ry="2.5" style="stroke:#181818;stroke-width:0.5;" width="148" x="1249" y="770"/><ellipse cx="1264" cy="786" fill="#ADD1B2" rx="11" ry="11" style="stroke:#181818;stroke-width:1.0;"/><path d="M1266.7656,781.875 Q1266.9219,781.6563 1267.1094,781.5469 Q1267.2969,781.4375 1267.5156,781.4375 Q1267.8906,781.4375 1268.125,781.7031 Q1268.3594,781.9531 1268.3594,782.5625 L1268.3594,784.0156 Q1268.3594,784.625 1268.125,784.8906 Q1267.8906,785.1563 1267.5156,785.1563 Q1267.1719,785.1563 1266.9688,784.9531 Q1266.7656,784.7656 1266.6563,784.25 Q1266.6094,783.8906 1266.4219,783.7031 Q1266.0938,783.3281 1265.4844,783.1094 Q1264.875,782.8906 1264.25,782.8906 Q1263.4844,782.8906 1262.8438,783.2188 Q1262.2188,783.5469 1261.7188,784.2969 Q1261.2344,785.0469 1261.2344,786.0781 L1261.2344,787.1719 Q1261.2344,788.4063 1262.125,789.2344 Q1263.0156,790.0469 1264.6094,790.0469 Q1265.5469,790.0469 1266.2031,789.7969 Q1266.5938,789.6406 1267.0156,789.2031 Q1267.2813,788.9375 1267.4219,788.8594 Q1267.5781,788.7813 1267.7813,788.7813 Q1268.1094,788.7813 1268.3594,789.0469 Q1268.625,789.2969 1268.625,789.6406 Q1268.625,789.9844 1268.2813,790.3906 Q1267.7813,790.9688 1266.9844,791.2969 Q1265.9063,791.75 1264.6094,791.75 Q1263.0938,791.75 1261.8906,791.125 Q1260.9063,790.625 1260.2188,789.5625 Q1259.5313,788.4844 1259.5313,787.2031 L1259.5313,786.0469 Q1259.5313,784.7188 1260.1406,783.5781 Q1260.7656,782.4219 1261.8594,781.8125 Q1262.9531,781.1875 1264.1875,781.1875 Q1264.9219,781.1875 1265.5625,781.3594 Q1266.2188,781.5156 1266.7656,781.875 Z " fill="#000000"/><text fill="#000000" font-family="sans-serif" font-size="14" lengthAdjust="spacing" textLength="116" x="1278" y="791.7969">RepositoryFactory</text><line style="stroke:#181818;stroke-width:0.5;" x1="1250" x2="1396" y1="802" y2="802"/><line style="stroke:#181818;stroke-width:0.5;" x1="1250" x2="1396" y1="810" y2="810"/></g><!--class UserRepository--><g id="elem_UserRepository"><rect codeLine="77" fill="#F1F1F1" height="196.9688" id="UserRepository" rx="2.5" ry="2.5" style="stroke:#181818;stroke-width:0.5;" width="328" x="1432" y="695.5"/><ellipse cx="1543.25" cy="711.5" fill="#ADD1B2" rx="11" ry="11" style="stroke:#181818;stroke-width:1.0;"/><path d="M1546.0156,707.375 Q1546.1719,707.1563 1546.3594,707.0469 Q1546.5469,706.9375 1546.7656,706.9375 Q1547.1406,706.9375 1547.375,707.2031 Q1547.6094,707.4531 1547.6094,708.0625 L1547.6094,709.5156 Q1547.6094,710.125 1547.375,710.3906 Q1547.1406,710.6563 1546.7656,710.6563 Q1546.4219,710.6563 1546.2188,710.4531 Q1546.0156,710.2656 1545.9063,709.75 Q1545.8594,709.3906 1545.6719,709.2031 Q1545.3438,708.8281 1544.7344,708.6094 Q1544.125,708.3906 1543.5,708.3906 Q1542.7344,708.3906 1542.0938,708.7188 Q1541.4688,709.0469 1540.9688,709.7969 Q1540.4844,710.5469 1540.4844,711.5781 L1540.4844,712.6719 Q1540.4844,713.9063 1541.375,714.7344 Q1542.2656,715.5469 1543.8594,715.5469 Q1544.7969,715.5469 1545.4531,715.2969 Q1545.8438,715.1406 1546.2656,714.7031 Q1546.5313,714.4375 1546.6719,714.3594 Q1546.8281,714.2813 1547.0313,714.2813 Q1547.3594,714.2813 1547.6094,714.5469 Q1547.875,714.7969 1547.875,715.1406 Q1547.875,715.4844 1547.5313,715.8906 Q1547.0313,716.4688 1546.2344,716.7969 Q1545.1563,717.25 1543.8594,717.25 Q1542.3438,717.25 1541.1406,716.625 Q1540.1563,716.125 1539.4688,715.0625 Q1538.7813,713.9844 1538.7813,712.7031 L1538.7813,711.5469 Q1538.7813,710.2188 1539.3906,709.0781 Q1540.0156,707.9219 1541.1094,707.3125 Q1542.2031,706.6875 1543.4375,706.6875 Q1544.1719,706.6875 1544.8125,706.8594 Q1545.4688,707.0156 1546.0156,707.375 Z " fill="#000000"/><text fill="#000000" font-family="sans-serif" font-size="14" lengthAdjust="spacing" textLength="97" x="1563.75" y="717.2969">UserRepository</text><line style="stroke:#181818;stroke-width:0.5;" x1="1433" x2="1759" y1="727.5" y2="727.5"/><line style="stroke:#181818;stroke-width:0.5;" x1="1433" x2="1759" y1="735.5" y2="735.5"/><ellipse cx="1443" cy="750.3105" fill="#84BE84" rx="3" ry="3" style="stroke:#038048;stroke-width:1.0;"/><text fill="#000000" font-family="sans-serif" font-size="14" lengthAdjust="spacing" textLength="127" x="1452" y="754.6074">addUser(user: user)</text><ellipse cx="1443" cy="768.9316" fill="#84BE84" rx="3" ry="3" style="stroke:#038048;stroke-width:1.0;"/><text fill="#000000" font-family="sans-serif" font-size="14" lengthAdjust="spacing" textLength="150" x="1452" y="773.2285">removeUser(user: user)</text><ellipse cx="1443" cy="796.8633" fill="#84BE84" rx="3" ry="3" style="stroke:#038048;stroke-width:1.0;"/><text fill="#000000" font-family="sans-serif" font-size="14" lengthAdjust="spacing" textLength="298" x="1452" y="791.8496">CreateUser(String: fullName, String: fhortName,</text><text fill="#000000" font-family="sans-serif" font-size="14" lengthAdjust="spacing" textLength="286" x="1460" y="810.4707">Role: role, Email: email, Password, password)</text><ellipse cx="1443" cy="824.7949" fill="#84BE84" rx="3" ry="3" style="stroke:#038048;stroke-width:1.0;"/><text fill="#000000" font-family="sans-serif" font-size="14" lengthAdjust="spacing" textLength="183" x="1452" y="829.0918">searchUser(user: user): User</text><ellipse cx="1443" cy="843.416" fill="#84BE84" rx="3" ry="3" style="stroke:#038048;stroke-width:1.0;"/><text fill="#000000" font-family="sans-serif" font-size="14" lengthAdjust="spacing" textLength="172" x="1452" y="847.7129">alterUserStatus(User: user)</text><ellipse cx="1443" cy="862.0371" fill="#84BE84" rx="3" ry="3" style="stroke:#038048;stroke-width:1.0;"/><text fill="#000000" font-family="sans-serif" font-size="14" lengthAdjust="spacing" textLength="160" x="1452" y="866.334">totalNumberOfUsers(): int</text><ellipse cx="1443" cy="880.6582" fill="#84BE84" rx="3" ry="3" style="stroke:#038048;stroke-width:1.0;"/><text fill="#000000" font-family="sans-serif" font-size="14" lengthAdjust="spacing" textLength="184" x="1452" y="884.9551">listSystemUsers(): List&lt;User&gt;</text></g><!--class ExamRepository--><g id="elem_ExamRepository"><rect codeLine="87" fill="#F1F1F1" height="122.4844" id="ExamRepository" rx="2.5" ry="2.5" style="stroke:#181818;stroke-width:0.5;" width="231" x="232.5" y="733"/><ellipse cx="292.75" cy="749" fill="#ADD1B2" rx="11" ry="11" style="stroke:#181818;stroke-width:1.0;"/><path d="M295.5156,744.875 Q295.6719,744.6563 295.8594,744.5469 Q296.0469,744.4375 296.2656,744.4375 Q296.6406,744.4375 296.875,744.7031 Q297.1094,744.9531 297.1094,745.5625 L297.1094,747.0156 Q297.1094,747.625 296.875,747.8906 Q296.6406,748.1563 296.2656,748.1563 Q295.9219,748.1563 295.7188,747.9531 Q295.5156,747.7656 295.4063,747.25 Q295.3594,746.8906 295.1719,746.7031 Q294.8438,746.3281 294.2344,746.1094 Q293.625,745.8906 293,745.8906 Q292.2344,745.8906 291.5938,746.2188 Q290.9688,746.5469 290.4688,747.2969 Q289.9844,748.0469 289.9844,749.0781 L289.9844,750.1719 Q289.9844,751.4063 290.875,752.2344 Q291.7656,753.0469 293.3594,753.0469 Q294.2969,753.0469 294.9531,752.7969 Q295.3438,752.6406 295.7656,752.2031 Q296.0313,751.9375 296.1719,751.8594 Q296.3281,751.7813 296.5313,751.7813 Q296.8594,751.7813 297.1094,752.0469 Q297.375,752.2969 297.375,752.6406 Q297.375,752.9844 297.0313,753.3906 Q296.5313,753.9688 295.7344,754.2969 Q294.6563,754.75 293.3594,754.75 Q291.8438,754.75 290.6406,754.125 Q289.6563,753.625 288.9688,752.5625 Q288.2813,751.4844 288.2813,750.2031 L288.2813,749.0469 Q288.2813,747.7188 288.8906,746.5781 Q289.5156,745.4219 290.6094,744.8125 Q291.7031,744.1875 292.9375,744.1875 Q293.6719,744.1875 294.3125,744.3594 Q294.9688,744.5156 295.5156,744.875 Z " fill="#000000"/><text fill="#000000" font-family="sans-serif" font-size="14" lengthAdjust="spacing" textLength="102" x="313.25" y="754.7969">ExamRepository</text><line style="stroke:#181818;stroke-width:0.5;" x1="233.5" x2="462.5" y1="765" y2="765"/><line style="stroke:#181818;stroke-width:0.5;" x1="233.5" x2="462.5" y1="773" y2="773"/><ellipse cx="243.5" cy="787.8105" fill="#84BE84" rx="3" ry="3" style="stroke:#038048;stroke-width:1.0;"/><text fill="#000000" font-family="sans-serif" font-size="14" lengthAdjust="spacing" textLength="144" x="252.5" y="792.1074">addExam(Exam: Exam)</text><ellipse cx="243.5" cy="806.4316" fill="#84BE84" rx="3" ry="3" style="stroke:#038048;stroke-width:1.0;"/><text fill="#000000" font-family="sans-serif" font-size="14" lengthAdjust="spacing" textLength="167" x="252.5" y="810.7285">removeExam(Exam: Exam)</text><ellipse cx="243.5" cy="825.0527" fill="#84BE84" rx="3" ry="3" style="stroke:#038048;stroke-width:1.0;"/><text fill="#000000" font-family="sans-serif" font-size="14" lengthAdjust="spacing" textLength="205" x="252.5" y="829.3496">searchExam(Exam: Exam): Exam</text><ellipse cx="243.5" cy="843.6738" fill="#84BE84" rx="3" ry="3" style="stroke:#038048;stroke-width:1.0;"/><text fill="#000000" font-family="sans-serif" font-size="14" lengthAdjust="spacing" textLength="165" x="252.5" y="847.9707">totalNumberOfExams(): int</text></g><!--class ExamDto--><g id="elem_ExamDto"><rect codeLine="94" fill="#F1F1F1" height="215.5898" id="ExamDto" rx="2.5" ry="2.5" style="stroke:#181818;stroke-width:0.5;" width="715" x="498.5" y="686"/><ellipse cx="823.75" cy="702" fill="#ADD1B2" rx="11" ry="11" style="stroke:#181818;stroke-width:1.0;"/><path d="M826.5156,697.875 Q826.6719,697.6563 826.8594,697.5469 Q827.0469,697.4375 827.2656,697.4375 Q827.6406,697.4375 827.875,697.7031 Q828.1094,697.9531 828.1094,698.5625 L828.1094,700.0156 Q828.1094,700.625 827.875,700.8906 Q827.6406,701.1563 827.2656,701.1563 Q826.9219,701.1563 826.7188,700.9531 Q826.5156,700.7656 826.4063,700.25 Q826.3594,699.8906 826.1719,699.7031 Q825.8438,699.3281 825.2344,699.1094 Q824.625,698.8906 824,698.8906 Q823.2344,698.8906 822.5938,699.2188 Q821.9688,699.5469 821.4688,700.2969 Q820.9844,701.0469 820.9844,702.0781 L820.9844,703.1719 Q820.9844,704.4063 821.875,705.2344 Q822.7656,706.0469 824.3594,706.0469 Q825.2969,706.0469 825.9531,705.7969 Q826.3438,705.6406 826.7656,705.2031 Q827.0313,704.9375 827.1719,704.8594 Q827.3281,704.7813 827.5313,704.7813 Q827.8594,704.7813 828.1094,705.0469 Q828.375,705.2969 828.375,705.6406 Q828.375,705.9844 828.0313,706.3906 Q827.5313,706.9688 826.7344,707.2969 Q825.6563,707.75 824.3594,707.75 Q822.8438,707.75 821.6406,707.125 Q820.6563,706.625 819.9688,705.5625 Q819.2813,704.4844 819.2813,703.2031 L819.2813,702.0469 Q819.2813,700.7188 819.8906,699.5781 Q820.5156,698.4219 821.6094,697.8125 Q822.7031,697.1875 823.9375,697.1875 Q824.6719,697.1875 825.3125,697.3594 Q825.9688,697.5156 826.5156,697.875 Z " fill="#000000"/><text fill="#000000" font-family="sans-serif" font-size="14" lengthAdjust="spacing" textLength="56" x="844.25" y="707.7969">ExamDto</text><line style="stroke:#181818;stroke-width:0.5;" x1="499.5" x2="1212.5" y1="718" y2="718"/><ellipse cx="509.5" cy="732.8105" fill="#000000" rx="3" ry="3" style="stroke:#000000;stroke-width:1.0;"/><text fill="#000000" font-family="sans-serif" font-size="14" lengthAdjust="spacing" textLength="31" x="518.5" y="737.1074">code</text><ellipse cx="509.5" cy="751.4316" fill="#000000" rx="3" ry="3" style="stroke:#000000;stroke-width:1.0;"/><text fill="#000000" font-family="sans-serif" font-size="14" lengthAdjust="spacing" textLength="35" x="518.5" y="755.7285">name</text><ellipse cx="509.5" cy="770.0527" fill="#000000" rx="3" ry="3" style="stroke:#000000;stroke-width:1.0;"/><text fill="#000000" font-family="sans-serif" font-size="14" lengthAdjust="spacing" textLength="69" x="518.5" y="774.3496">description</text><ellipse cx="509.5" cy="788.6738" fill="#000000" rx="3" ry="3" style="stroke:#000000;stroke-width:1.0;"/><text fill="#000000" font-family="sans-serif" font-size="14" lengthAdjust="spacing" textLength="80" x="518.5" y="792.9707">CourseCode</text><ellipse cx="509.5" cy="807.2949" fill="#000000" rx="3" ry="3" style="stroke:#000000;stroke-width:1.0;"/><text fill="#000000" font-family="sans-serif" font-size="14" lengthAdjust="spacing" textLength="62" x="518.5" y="811.5918">openDate</text><ellipse cx="509.5" cy="825.916" fill="#000000" rx="3" ry="3" style="stroke:#000000;stroke-width:1.0;"/><text fill="#000000" font-family="sans-serif" font-size="14" lengthAdjust="spacing" textLength="63" x="518.5" y="830.2129">closeDate</text><line style="stroke:#181818;stroke-width:0.5;" x1="499.5" x2="1212.5" y1="837.7266" y2="837.7266"/><ellipse cx="509.5" cy="852.5371" fill="#84BE84" rx="3" ry="3" style="stroke:#038048;stroke-width:1.0;"/><text fill="#000000" font-family="sans-serif" font-size="14" lengthAdjust="spacing" textLength="689" x="518.5" y="856.834">ExamDto(String code, String name, String description, String courseCode, String openDate, String closeDate)</text><ellipse cx="509.5" cy="871.1582" fill="#84BE84" rx="3" ry="3" style="stroke:#038048;stroke-width:1.0;"/><text fill="#000000" font-family="sans-serif" font-size="14" lengthAdjust="spacing" textLength="137" x="518.5" y="875.4551">ExamDto toDto(exam)</text><ellipse cx="509.5" cy="889.7793" fill="#84BE84" rx="3" ry="3" style="stroke:#038048;stroke-width:1.0;"/><text fill="#000000" font-family="sans-serif" font-size="14" lengthAdjust="spacing" textLength="59" x="518.5" y="894.0762">toString()</text></g><!--class TakeExamService--><g id="elem_TakeExamService"><rect codeLine="106" fill="#F1F1F1" height="172.3086" id="TakeExamService" rx="2.5" ry="2.5" style="stroke:#181818;stroke-width:0.5;" width="632" x="1937" y="708"/><ellipse cx="2192.25" cy="730.291" fill="#ADD1B2" rx="11" ry="11" style="stroke:#181818;stroke-width:1.0;"/><path d="M2195.0156,726.166 Q2195.1719,725.9473 2195.3594,725.8379 Q2195.5469,725.7285 2195.7656,725.7285 Q2196.1406,725.7285 2196.375,725.9941 Q2196.6094,726.2441 2196.6094,726.8535 L2196.6094,728.3066 Q2196.6094,728.916 2196.375,729.1816 Q2196.1406,729.4473 2195.7656,729.4473 Q2195.4219,729.4473 2195.2188,729.2441 Q2195.0156,729.0566 2194.9063,728.541 Q2194.8594,728.1816 2194.6719,727.9941 Q2194.3438,727.6191 2193.7344,727.4004 Q2193.125,727.1816 2192.5,727.1816 Q2191.7344,727.1816 2191.0938,727.5098 Q2190.4688,727.8379 2189.9688,728.5879 Q2189.4844,729.3379 2189.4844,730.3691 L2189.4844,731.4629 Q2189.4844,732.6973 2190.375,733.5254 Q2191.2656,734.3379 2192.8594,734.3379 Q2193.7969,734.3379 2194.4531,734.0879 Q2194.8438,733.9316 2195.2656,733.4941 Q2195.5313,733.2285 2195.6719,733.1504 Q2195.8281,733.0723 2196.0313,733.0723 Q2196.3594,733.0723 2196.6094,733.3379 Q2196.875,733.5879 2196.875,733.9316 Q2196.875,734.2754 2196.5313,734.6816 Q2196.0313,735.2598 2195.2344,735.5879 Q2194.1563,736.041 2192.8594,736.041 Q2191.3438,736.041 2190.1406,735.416 Q2189.1563,734.916 2188.4688,733.8535 Q2187.7813,732.7754 2187.7813,731.4941 L2187.7813,730.3379 Q2187.7813,729.0098 2188.3906,727.8691 Q2189.0156,726.7129 2190.1094,726.1035 Q2191.2031,725.4785 2192.4375,725.4785 Q2193.1719,725.4785 2193.8125,725.6504 Q2194.4688,725.8066 2195.0156,726.166 Z " fill="#000000"/><text fill="#000000" font-family="sans-serif" font-size="12" font-style="italic" lengthAdjust="spacing" textLength="53" x="2242.75" y="725.9492">&#171;service&#187;</text><text fill="#000000" font-family="sans-serif" font-size="14" lengthAdjust="spacing" textLength="113" x="2212.75" y="744.0684">TakeExamService</text><line style="stroke:#181818;stroke-width:0.5;" x1="1938" x2="2568" y1="752.582" y2="752.582"/><ellipse cx="1948" cy="767.3926" fill="#000000" rx="3" ry="3" style="stroke:#000000;stroke-width:1.0;"/><text fill="#000000" font-family="sans-serif" font-size="14" lengthAdjust="spacing" textLength="311" x="1957" y="771.6895">ListExamCoursesService listExamCoursesService</text><ellipse cx="1948" cy="786.0137" fill="#000000" rx="3" ry="3" style="stroke:#000000;stroke-width:1.0;"/><text fill="#000000" font-family="sans-serif" font-size="14" lengthAdjust="spacing" textLength="165" x="1957" y="790.3105">eCourseSystemUser fuser</text><line style="stroke:#181818;stroke-width:0.5;" x1="1938" x2="2568" y1="797.8242" y2="797.8242"/><ellipse cx="1948" cy="812.6348" fill="#84BE84" rx="3" ry="3" style="stroke:#038048;stroke-width:1.0;"/><text fill="#000000" font-family="sans-serif" font-size="14" lengthAdjust="spacing" textLength="606" x="1957" y="816.9316">getExams(SystemUser user, ExamRepository repoE, eCourseUserRepository repo) : List&lt;Exam&gt;</text><ellipse cx="1948" cy="831.2559" fill="#84BE84" rx="3" ry="3" style="stroke:#038048;stroke-width:1.0;"/><text fill="#000000" font-family="sans-serif" font-size="14" lengthAdjust="spacing" textLength="506" x="1957" y="835.5527">findUser(SystemUser user, eCourseUserRepository repo ) : eCourseSystemUser</text><ellipse cx="1948" cy="849.877" fill="#84BE84" rx="3" ry="3" style="stroke:#038048;stroke-width:1.0;"/><text fill="#000000" font-family="sans-serif" font-size="14" lengthAdjust="spacing" textLength="389" x="1957" y="854.1738">getStudentCourses(eCourseSystemUser user) : List&lt;Course&gt;</text><ellipse cx="1948" cy="868.498" fill="#84BE84" rx="3" ry="3" style="stroke:#038048;stroke-width:1.0;"/><text fill="#000000" font-family="sans-serif" font-size="14" lengthAdjust="spacing" textLength="104" x="1957" y="872.7949">takeExam(exam)</text></g><!--class ListExamCoursesService--><g id="elem_ListExamCoursesService"><rect codeLine="116" fill="#F1F1F1" height="85.2422" id="ListExamCoursesService" rx="2.5" ry="2.5" style="stroke:#181818;stroke-width:0.5;" width="530" x="2219" y="987.5"/><ellipse cx="2401.75" cy="1003.5" fill="#ADD1B2" rx="11" ry="11" style="stroke:#181818;stroke-width:1.0;"/><path d="M2404.5156,999.375 Q2404.6719,999.1563 2404.8594,999.0469 Q2405.0469,998.9375 2405.2656,998.9375 Q2405.6406,998.9375 2405.875,999.2031 Q2406.1094,999.4531 2406.1094,1000.0625 L2406.1094,1001.5156 Q2406.1094,1002.125 2405.875,1002.3906 Q2405.6406,1002.6563 2405.2656,1002.6563 Q2404.9219,1002.6563 2404.7188,1002.4531 Q2404.5156,1002.2656 2404.4063,1001.75 Q2404.3594,1001.3906 2404.1719,1001.2031 Q2403.8438,1000.8281 2403.2344,1000.6094 Q2402.625,1000.3906 2402,1000.3906 Q2401.2344,1000.3906 2400.5938,1000.7188 Q2399.9688,1001.0469 2399.4688,1001.7969 Q2398.9844,1002.5469 2398.9844,1003.5781 L2398.9844,1004.6719 Q2398.9844,1005.9063 2399.875,1006.7344 Q2400.7656,1007.5469 2402.3594,1007.5469 Q2403.2969,1007.5469 2403.9531,1007.2969 Q2404.3438,1007.1406 2404.7656,1006.7031 Q2405.0313,1006.4375 2405.1719,1006.3594 Q2405.3281,1006.2813 2405.5313,1006.2813 Q2405.8594,1006.2813 2406.1094,1006.5469 Q2406.375,1006.7969 2406.375,1007.1406 Q2406.375,1007.4844 2406.0313,1007.8906 Q2405.5313,1008.4688 2404.7344,1008.7969 Q2403.6563,1009.25 2402.3594,1009.25 Q2400.8438,1009.25 2399.6406,1008.625 Q2398.6563,1008.125 2397.9688,1007.0625 Q2397.2813,1005.9844 2397.2813,1004.7031 L2397.2813,1003.5469 Q2397.2813,1002.2188 2397.8906,1001.0781 Q2398.5156,999.9219 2399.6094,999.3125 Q2400.7031,998.6875 2401.9375,998.6875 Q2402.6719,998.6875 2403.3125,998.8594 Q2403.9688,999.0156 2404.5156,999.375 Z " fill="#000000"/><text fill="#000000" font-family="sans-serif" font-size="14" lengthAdjust="spacing" textLength="156" x="2422.25" y="1009.2969">ListExamCoursesService</text><line style="stroke:#181818;stroke-width:0.5;" x1="2220" x2="2748" y1="1019.5" y2="1019.5"/><line style="stroke:#181818;stroke-width:0.5;" x1="2220" x2="2748" y1="1027.5" y2="1027.5"/><ellipse cx="2230" cy="1042.3105" fill="#84BE84" rx="3" ry="3" style="stroke:#038048;stroke-width:1.0;"/><text fill="#000000" font-family="sans-serif" font-size="14" lengthAdjust="spacing" textLength="474" x="2239" y="1046.6074">getFutureExams(List&lt;Course&gt; courses,ExamRepository repo) : List&lt;Exam&gt;</text><ellipse cx="2230" cy="1060.9316" fill="#84BE84" rx="3" ry="3" style="stroke:#038048;stroke-width:1.0;"/><text fill="#000000" font-family="sans-serif" font-size="14" lengthAdjust="spacing" textLength="504" x="2239" y="1065.2285">getTakeableExams(List&lt;Course&gt; courses, ExamRepository repoE) : List&lt;Exam&gt;</text></g><!--class ExamValListener--><g id="elem_ExamValListener"><rect codeLine="121" fill="#F1F1F1" height="48" id="ExamValListener" rx="2.5" ry="2.5" style="stroke:#181818;stroke-width:0.5;" width="137" x="1930.5" y="1006"/><ellipse cx="1945.5" cy="1022" fill="#ADD1B2" rx="11" ry="11" style="stroke:#181818;stroke-width:1.0;"/><path d="M1948.2656,1017.875 Q1948.4219,1017.6563 1948.6094,1017.5469 Q1948.7969,1017.4375 1949.0156,1017.4375 Q1949.3906,1017.4375 1949.625,1017.7031 Q1949.8594,1017.9531 1949.8594,1018.5625 L1949.8594,1020.0156 Q1949.8594,1020.625 1949.625,1020.8906 Q1949.3906,1021.1563 1949.0156,1021.1563 Q1948.6719,1021.1563 1948.4688,1020.9531 Q1948.2656,1020.7656 1948.1563,1020.25 Q1948.1094,1019.8906 1947.9219,1019.7031 Q1947.5938,1019.3281 1946.9844,1019.1094 Q1946.375,1018.8906 1945.75,1018.8906 Q1944.9844,1018.8906 1944.3438,1019.2188 Q1943.7188,1019.5469 1943.2188,1020.2969 Q1942.7344,1021.0469 1942.7344,1022.0781 L1942.7344,1023.1719 Q1942.7344,1024.4063 1943.625,1025.2344 Q1944.5156,1026.0469 1946.1094,1026.0469 Q1947.0469,1026.0469 1947.7031,1025.7969 Q1948.0938,1025.6406 1948.5156,1025.2031 Q1948.7813,1024.9375 1948.9219,1024.8594 Q1949.0781,1024.7813 1949.2813,1024.7813 Q1949.6094,1024.7813 1949.8594,1025.0469 Q1950.125,1025.2969 1950.125,1025.6406 Q1950.125,1025.9844 1949.7813,1026.3906 Q1949.2813,1026.9688 1948.4844,1027.2969 Q1947.4063,1027.75 1946.1094,1027.75 Q1944.5938,1027.75 1943.3906,1027.125 Q1942.4063,1026.625 1941.7188,1025.5625 Q1941.0313,1024.4844 1941.0313,1023.2031 L1941.0313,1022.0469 Q1941.0313,1020.7188 1941.6406,1019.5781 Q1942.2656,1018.4219 1943.3594,1017.8125 Q1944.4531,1017.1875 1945.6875,1017.1875 Q1946.4219,1017.1875 1947.0625,1017.3594 Q1947.7188,1017.5156 1948.2656,1017.875 Z " fill="#000000"/><text fill="#000000" font-family="sans-serif" font-size="14" lengthAdjust="spacing" textLength="105" x="1959.5" y="1027.7969">ExamValListener</text><line style="stroke:#181818;stroke-width:0.5;" x1="1931.5" x2="2066.5" y1="1038" y2="1038"/><line style="stroke:#181818;stroke-width:0.5;" x1="1931.5" x2="2066.5" y1="1046" y2="1046"/></g><!--class CourseStatus--><g id="elem_CourseStatus"><rect fill="#F1F1F1" height="48" id="CourseStatus" rx="2.5" ry="2.5" style="stroke:#181818;stroke-width:0.5;" width="118" x="447" y="283"/><ellipse cx="462" cy="299" fill="#ADD1B2" rx="11" ry="11" style="stroke:#181818;stroke-width:1.0;"/><path d="M464.7656,294.875 Q464.9219,294.6563 465.1094,294.5469 Q465.2969,294.4375 465.5156,294.4375 Q465.8906,294.4375 466.125,294.7031 Q466.3594,294.9531 466.3594,295.5625 L466.3594,297.0156 Q466.3594,297.625 466.125,297.8906 Q465.8906,298.1563 465.5156,298.1563 Q465.1719,298.1563 464.9688,297.9531 Q464.7656,297.7656 464.6563,297.25 Q464.6094,296.8906 464.4219,296.7031 Q464.0938,296.3281 463.4844,296.1094 Q462.875,295.8906 462.25,295.8906 Q461.4844,295.8906 460.8438,296.2188 Q460.2188,296.5469 459.7188,297.2969 Q459.2344,298.0469 459.2344,299.0781 L459.2344,300.1719 Q459.2344,301.4063 460.125,302.2344 Q461.0156,303.0469 462.6094,303.0469 Q463.5469,303.0469 464.2031,302.7969 Q464.5938,302.6406 465.0156,302.2031 Q465.2813,301.9375 465.4219,301.8594 Q465.5781,301.7813 465.7813,301.7813 Q466.1094,301.7813 466.3594,302.0469 Q466.625,302.2969 466.625,302.6406 Q466.625,302.9844 466.2813,303.3906 Q465.7813,303.9688 464.9844,304.2969 Q463.9063,304.75 462.6094,304.75 Q461.0938,304.75 459.8906,304.125 Q458.9063,303.625 458.2188,302.5625 Q457.5313,301.4844 457.5313,300.2031 L457.5313,299.0469 Q457.5313,297.7188 458.1406,296.5781 Q458.7656,295.4219 459.8594,294.8125 Q460.9531,294.1875 462.1875,294.1875 Q462.9219,294.1875 463.5625,294.3594 Q464.2188,294.5156 464.7656,294.875 Z " fill="#000000"/><text fill="#000000" font-family="sans-serif" font-size="14" lengthAdjust="spacing" textLength="86" x="476" y="304.7969">CourseStatus</text><line style="stroke:#181818;stroke-width:0.5;" x1="448" x2="564" y1="315" y2="315"/><line style="stroke:#181818;stroke-width:0.5;" x1="448" x2="564" y1="323" y2="323"/></g><!--class CourseCode--><g id="elem_CourseCode"><rect fill="#F1F1F1" height="48" id="CourseCode" rx="2.5" ry="2.5" style="stroke:#181818;stroke-width:0.5;" width="112" x="7" y="1006"/><ellipse cx="22" cy="1022" fill="#ADD1B2" rx="11" ry="11" style="stroke:#181818;stroke-width:1.0;"/><path d="M24.7656,1017.875 Q24.9219,1017.6563 25.1094,1017.5469 Q25.2969,1017.4375 25.5156,1017.4375 Q25.8906,1017.4375 26.125,1017.7031 Q26.3594,1017.9531 26.3594,1018.5625 L26.3594,1020.0156 Q26.3594,1020.625 26.125,1020.8906 Q25.8906,1021.1563 25.5156,1021.1563 Q25.1719,1021.1563 24.9688,1020.9531 Q24.7656,1020.7656 24.6563,1020.25 Q24.6094,1019.8906 24.4219,1019.7031 Q24.0938,1019.3281 23.4844,1019.1094 Q22.875,1018.8906 22.25,1018.8906 Q21.4844,1018.8906 20.8438,1019.2188 Q20.2188,1019.5469 19.7188,1020.2969 Q19.2344,1021.0469 19.2344,1022.0781 L19.2344,1023.1719 Q19.2344,1024.4063 20.125,1025.2344 Q21.0156,1026.0469 22.6094,1026.0469 Q23.5469,1026.0469 24.2031,1025.7969 Q24.5938,1025.6406 25.0156,1025.2031 Q25.2813,1024.9375 25.4219,1024.8594 Q25.5781,1024.7813 25.7813,1024.7813 Q26.1094,1024.7813 26.3594,1025.0469 Q26.625,1025.2969 26.625,1025.6406 Q26.625,1025.9844 26.2813,1026.3906 Q25.7813,1026.9688 24.9844,1027.2969 Q23.9063,1027.75 22.6094,1027.75 Q21.0938,1027.75 19.8906,1027.125 Q18.9063,1026.625 18.2188,1025.5625 Q17.5313,1024.4844 17.5313,1023.2031 L17.5313,1022.0469 Q17.5313,1020.7188 18.1406,1019.5781 Q18.7656,1018.4219 19.8594,1017.8125 Q20.9531,1017.1875 22.1875,1017.1875 Q22.9219,1017.1875 23.5625,1017.3594 Q24.2188,1017.5156 24.7656,1017.875 Z " fill="#000000"/><text fill="#000000" font-family="sans-serif" font-size="14" lengthAdjust="spacing" textLength="80" x="36" y="1027.7969">CourseCode</text><line style="stroke:#181818;stroke-width:0.5;" x1="8" x2="118" y1="1038" y2="1038"/><line style="stroke:#181818;stroke-width:0.5;" x1="8" x2="118" y1="1046" y2="1046"/></g><!--link SystemUser to EmailAdderss--><g id="link_SystemUser_EmailAdderss"><path codeLine="128" d="M2013,364.11 C2029.75,406.83 2052.27,464.27 2066.46,500.47 " fill="none" id="SystemUser-to-EmailAdderss" style="stroke:#181818;stroke-width:1.0;"/><polygon fill="#181818" points="2068.32,505.21,2068.754,495.3707,2066.4926,500.5559,2061.3074,498.2945,2068.32,505.21" style="stroke:#181818;stroke-width:1.0;"/><text fill="#000000" font-family="sans-serif" font-size="13" lengthAdjust="spacing" textLength="7" x="2058.1891" y="494.2079">1</text></g><!--link SystemUser to Password--><g id="link_SystemUser_Password"><path codeLine="129" d="M2044.85,353.58 C2050.63,358.46 2056.43,363.33 2062,368 C2104.08,403.28 2118.33,408.02 2157,447 C2173.66,463.79 2190.5,484.15 2203.7,501.05 " fill="none" id="SystemUser-to-Password" style="stroke:#181818;stroke-width:1.0;"/><polygon fill="#181818" points="2206.98,505.27,2204.6264,495.7065,2203.9162,501.3186,2198.3041,500.6085,2206.98,505.27" style="stroke:#181818;stroke-width:1.0;"/><text fill="#000000" font-family="sans-serif" font-size="13" lengthAdjust="spacing" textLength="7" x="2194.7165" y="494.2802">1</text></g><!--link SystemUser to Role--><g id="link_SystemUser_Role"><path codeLine="130" d="M1977.16,364.11 C1967.49,403.28 1954.78,454.82 1945.85,491.02 " fill="none" id="SystemUser-to-Role" style="stroke:#181818;stroke-width:1.0;"/><polygon fill="#181818" points="1944.56,496.25,1950.6019,488.4721,1945.7592,491.3959,1942.8354,486.5533,1944.56,496.25" style="stroke:#181818;stroke-width:1.0;"/><text fill="#000000" font-family="sans-serif" font-size="13" lengthAdjust="spacing" textLength="7" x="1938.5637" y="485.2942">1</text></g><!--link eCourseSystemUser to SystemUser--><g id="link_eCourseSystemUser_SystemUser"><path codeLine="132" d="M1902.64,125.97 C1918.75,158.8 1942.33,206.84 1961.08,245.04 " fill="none" id="eCourseSystemUser-to-SystemUser" style="stroke:#181818;stroke-width:1.0;"/><polygon fill="#181818" points="1963.34,249.65,1962.9683,239.8082,1961.1383,245.1608,1955.7856,243.3309,1963.34,249.65" style="stroke:#181818;stroke-width:1.0;"/><text fill="#000000" font-family="sans-serif" font-size="13" lengthAdjust="spacing" textLength="7" x="1952.5424" y="238.6837">1</text></g><!--link eCourseSystemUser to Role--><g id="link_eCourseSystemUser_Role"><path codeLine="133" d="M1888.3,125.73 C1897.7,208.07 1920,403.52 1930,491.16 " fill="none" id="eCourseSystemUser-to-Role" style="stroke:#181818;stroke-width:1.0;"/><polygon fill="#181818" points="1930.58,496.26,1933.5261,486.8621,1930.009,491.2927,1925.5784,487.7756,1930.58,496.26" style="stroke:#181818;stroke-width:1.0;"/><text fill="#000000" font-family="sans-serif" font-size="13" lengthAdjust="spacing" textLength="7" x="1922.2682" y="485.3058">1</text></g><!--link eCourseSystemUser to UserStatus--><g id="link_eCourseSystemUser_UserStatus"><path codeLine="134" d="M1926.57,125.72 C1967.9,162.35 2030.81,218.1 2075.72,257.89 " fill="none" id="eCourseSystemUser-to-UserStatus" style="stroke:#181818;stroke-width:1.0;"/><polygon fill="#181818" points="2079.46,261.21,2075.3738,252.2488,2075.7167,257.8953,2070.0702,258.2382,2079.46,261.21" style="stroke:#181818;stroke-width:1.0;"/><text fill="#000000" font-family="sans-serif" font-size="13" lengthAdjust="spacing" textLength="7" x="2064.5229" y="250.2988">1</text></g><!--link eCourseSystemUser to Acronym--><g id="link_eCourseSystemUser_Acronym"><path codeLine="135" d="M1964.51,122.34 C2029.64,151.55 2122.6,196.55 2198,246 C2210.12,253.95 2222.52,263.63 2233.54,272.87 " fill="none" id="eCourseSystemUser-to-Acronym" style="stroke:#181818;stroke-width:1.0;"/><polygon fill="#181818" points="2237.53,276.25,2233.2448,267.3823,2233.7136,273.0196,2228.0762,273.4885,2237.53,276.25" style="stroke:#181818;stroke-width:1.0;"/><text fill="#000000" font-family="sans-serif" font-size="13" lengthAdjust="spacing" textLength="7" x="2223.1112" y="265.2561">1</text></g><!--link eCourseSystemUser to NIF--><g id="link_eCourseSystemUser_NIF"><path codeLine="136" d="M1964.67,106.36 C2059.19,129.96 2218.55,176.38 2342,246 C2355.24,253.47 2368.41,263.48 2379.79,273.18 " fill="none" id="eCourseSystemUser-to-NIF" style="stroke:#181818;stroke-width:1.0;"/><polygon fill="#181818" points="2383.58,276.45,2379.3664,267.548,2379.7898,273.189,2374.1488,273.6123,2383.58,276.45" style="stroke:#181818;stroke-width:1.0;"/><text fill="#000000" font-family="sans-serif" font-size="13" lengthAdjust="spacing" textLength="7" x="2369.16" y="265.0137">1</text></g><!--link eCourseSystemUser to BirthDate--><g id="link_eCourseSystemUser_BirthDate"><path codeLine="137" d="M1964.66,91.77 C2136.73,101.04 2533.45,129.3 2648,197 C2677.36,214.35 2699.64,246.68 2713.51,271.65 " fill="none" id="eCourseSystemUser-to-BirthDate" style="stroke:#181818;stroke-width:1.0;"/><polygon fill="#181818" points="2716.01,276.22,2715.2231,266.4026,2713.6208,271.8278,2708.1956,270.2254,2716.01,276.22" style="stroke:#181818;stroke-width:1.0;"/><text fill="#000000" font-family="sans-serif" font-size="13" lengthAdjust="spacing" textLength="7" x="2705.4027" y="265.2199">1</text></g><!--link eCourseSystemUser to MechanographicNumber--><g id="link_eCourseSystemUser_MechanographicNumber"><path codeLine="138" d="M1803.47,90.15 C1690.43,96.08 1480.88,117.86 1323,197 C1290.28,213.4 1259.84,241.27 1237.8,264.72 " fill="none" id="eCourseSystemUser-to-MechanographicNumber" style="stroke:#181818;stroke-width:1.0;"/><polygon fill="#181818" points="1234.34,268.44,1243.3976,264.5721,1237.7444,264.7781,1237.5385,259.125,1234.34,268.44" style="stroke:#181818;stroke-width:1.0;"/><text fill="#000000" font-family="sans-serif" font-size="13" lengthAdjust="spacing" textLength="7" x="1232.299" y="257.1524">1</text></g><!--link eCourseSystemUser to Grade--><g id="link_eCourseSystemUser_Grade"><path codeLine="139" d="M1803.45,93.31 C1554.75,110.06 813.35,162.65 775,197 C754.56,215.31 749.71,246.81 749.45,271.26 " fill="none" id="eCourseSystemUser-to-Grade" style="stroke:#181818;stroke-width:1.0;"/><polygon fill="#181818" points="749.46,276.36,753.46,267.36,749.46,271.36,745.46,267.36,749.46,276.36" style="stroke:#181818;stroke-width:1.0;"/><polygon fill="#000000" points="775.0698,207.4779,784.4779,208.87,783.4994,203.0742,775.0698,207.4779" style="stroke:#000000;stroke-width:1.0;"/><text fill="#000000" font-family="sans-serif" font-size="13" lengthAdjust="spacing" textLength="79" x="789" y="212.0283">student has a</text><text fill="#000000" font-family="sans-serif" font-size="13" lengthAdjust="spacing" textLength="7" x="741.2143" y="265.3888">1</text></g><!--link eCourseSystemUser to TakeExamService--><g id="link_eCourseSystemUser_TakeExamService"><path codeLine="141" d="M1964.73,97.11 C2113.69,115.75 2422.44,163.6 2486,246 C2595.62,388.1 2448.87,589.48 2343.42,704.09 " fill="none" id="eCourseSystemUser-to-TakeExamService" style="stroke:#181818;stroke-width:1.0;"/><polygon fill="#181818" points="2340,707.79,2349.0418,703.8855,2343.3896,704.1143,2343.1608,698.4621,2340,707.79" style="stroke:#181818;stroke-width:1.0;"/><polygon fill="#000000" points="2528.6466,411.8876,2526.3523,402.6579,2521.3654,405.7692,2528.6466,411.8876" style="stroke:#000000;stroke-width:1.0;"/><text fill="#000000" font-family="sans-serif" font-size="13" lengthAdjust="spacing" textLength="21" x="2535" y="413.0283">use</text></g><!--link eCourseSystemUser to ListExamCoursesService--><g id="link_eCourseSystemUser_ListExamCoursesService"><path codeLine="142" d="M1964.74,94.63 C2156.23,112.56 2622,170.15 2622,306 C2622,306 2622,306 2622,795 C2622,868.48 2570.89,939.19 2530.88,983.29 " fill="none" id="eCourseSystemUser-to-ListExamCoursesService" style="stroke:#181818;stroke-width:1.0;"/><polygon fill="#181818" points="2527.29,987.21,2536.316,983.269,2530.6647,983.5207,2530.4131,977.8694,2527.29,987.21" style="stroke:#181818;stroke-width:1.0;"/><polygon fill="#000000" points="2629.6865,540.3625,2627.3052,531.1548,2622.3479,534.313,2629.6865,540.3625" style="stroke:#000000;stroke-width:1.0;"/><text fill="#000000" font-family="sans-serif" font-size="13" lengthAdjust="spacing" textLength="21" x="2636" y="541.5283">use</text></g><!--link eCourseSystemUser to Exam--><g id="link_eCourseSystemUser_Exam"><path codeLine="144" d="M1803.09,100.81 C1687.48,119.55 1468.61,156.6 1284,197 C1198.39,215.73 1175.09,215.3 1093,246 C1041.9,265.11 256.08,650.09 215,686 C201.37,697.91 189.09,712.92 178.67,727.88 " fill="none" id="eCourseSystemUser-Exam" style="stroke:#181818;stroke-width:1.0;"/><polygon fill="#000000" points="774.3355,409.4461,783.8321,408.9305,781.7153,403.447,774.3355,409.4461" style="stroke:#000000;stroke-width:1.0;"/><text fill="#000000" font-family="sans-serif" font-size="13" lengthAdjust="spacing" textLength="36" x="788" y="413.0283">take a</text><text fill="#000000" font-family="sans-serif" font-size="13" lengthAdjust="spacing" textLength="5" x="1790.4006" y="116.9295">*</text><text fill="#000000" font-family="sans-serif" font-size="13" lengthAdjust="spacing" textLength="5" x="177.4073" y="716.7405">*</text></g><!--link Course to CourseStatus--><g id="link_Course_CourseStatus"><path codeLine="147" d="M577.41,167.01 C557.52,205.71 534.83,249.89 520.46,277.85 " fill="none" id="Course-to-CourseStatus" style="stroke:#181818;stroke-width:1.0;"/><polygon fill="#181818" points="518.06,282.53,525.7261,276.3469,520.3416,278.0809,518.6076,272.6964,518.06,282.53" style="stroke:#181818;stroke-width:1.0;"/><text fill="#000000" font-family="sans-serif" font-size="13" lengthAdjust="spacing" textLength="7" x="513.1465" y="271.5574">1</text></g><!--link Course to CourseCode--><g id="link_Course_CourseCode"><path codeLine="148" d="M360.13,136.48 C203.3,173.6 33,231.15 33,306 C33,306 33,306 33,795 C33,869.78 48.26,956.92 57.01,1000.75 " fill="none" id="Course-to-CourseCode" style="stroke:#181818;stroke-width:1.0;"/><polygon fill="#181818" points="58.05,1005.88,60.1965,996.2679,57.0639,1000.9782,52.3536,997.8456,58.05,1005.88" style="stroke:#181818;stroke-width:1.0;"/><text fill="#000000" font-family="sans-serif" font-size="13" lengthAdjust="spacing" textLength="7" x="48.8847" y="994.5867">1</text></g><!--link Course to Grade--><g id="link_Course_Grade"><path codeLine="150" d="M647.38,167.15 C654.82,183.79 663.45,200.87 673,216 C686.76,237.8 705.73,259.6 721.63,276.28 " fill="none" id="Course-Grade" style="stroke:#181818;stroke-width:1.0;"/><polygon fill="#000000" points="675.1874,202.5116,677.8456,211.6431,682.7053,208.3367,675.1874,202.5116" style="stroke:#000000;stroke-width:1.0;"/><text fill="#000000" font-family="sans-serif" font-size="13" lengthAdjust="spacing" textLength="47" x="687" y="212.0283">refers to</text><text fill="#000000" font-family="sans-serif" font-size="13" lengthAdjust="spacing" textLength="7" x="642.6041" y="188.8209">1</text><text fill="#000000" font-family="sans-serif" font-size="13" lengthAdjust="spacing" textLength="7" x="707.6443" y="265.2923">1</text></g><!--link Course to eCourseSystemUser--><g id="link_Course_eCourseSystemUser"><path codeLine="152" d="M875.72,87 C1165.63,87 1619.91,87 1803.26,87 " fill="none" id="Course-eCourseSystemUser" style="stroke:#181818;stroke-width:1.0;"/><polygon fill="#000000" points="1314.5,74.6455,1323.5451,77.5844,1323.5451,71.7066,1314.5,74.6455" style="stroke:#000000;stroke-width:1.0;"/><text fill="#000000" font-family="sans-serif" font-size="13" lengthAdjust="spacing" textLength="35" x="1328.5" y="80.0283">is in a</text><text fill="#000000" font-family="sans-serif" font-size="13" lengthAdjust="spacing" textLength="5" x="883.4453" y="83.7844">*</text><text fill="#000000" font-family="sans-serif" font-size="13" lengthAdjust="spacing" textLength="5" x="1790.5863" y="83.2792">*</text></g><!--link Exam to ExamGrade--><g id="link_Exam_ExamGrade"><path codeLine="154" d="M173.92,860.07 C184.81,876.15 198.5,891.71 215,902 C342.94,981.81 788.15,1013.77 991.84,1024.43 " fill="none" id="Exam-ExamGrade" style="stroke:#181818;stroke-width:1.0;"/><polygon fill="#000000" points="361.902,942.6306,353.6132,937.9673,352.4552,943.7299,361.902,942.6306" style="stroke:#000000;stroke-width:1.0;"/><text fill="#000000" font-family="sans-serif" font-size="13" lengthAdjust="spacing" textLength="21" x="366" y="947.0283">has</text><text fill="#000000" font-family="sans-serif" font-size="13" lengthAdjust="spacing" textLength="7" x="170.0284" y="882.2481">1</text><text fill="#000000" font-family="sans-serif" font-size="13" lengthAdjust="spacing" textLength="7" x="977.0072" y="1020.4422">1</text></g><!--link Exam to CourseCode--><g id="link_Exam_CourseCode"><path codeLine="155" d="M119.99,860.18 C103.6,908.73 82.18,972.2 70.84,1005.79 " fill="none" id="Exam-CourseCode" style="stroke:#181818;stroke-width:1.0;"/><polygon fill="#000000" points="99.4009,946.3829,105.0783,938.7528,99.5091,936.873,99.4009,946.3829" style="stroke:#000000;stroke-width:1.0;"/><text fill="#000000" font-family="sans-serif" font-size="13" lengthAdjust="spacing" textLength="21" x="110" y="947.0283">has</text><text fill="#000000" font-family="sans-serif" font-size="13" lengthAdjust="spacing" textLength="5" x="112.3092" y="882.3701">*</text><text fill="#000000" font-family="sans-serif" font-size="13" lengthAdjust="spacing" textLength="7" x="64.8979" y="994.8807">1</text></g><!--link ExamGrade to eCourseSystemUser--><g id="link_ExamGrade_eCourseSystemUser"><path codeLine="156" d="M1198.28,1022.51 C1367.39,1009.86 1693.11,976.34 1778,902 C1815.64,869.04 1813,845.04 1813,795 C1813,306 1813,306 1813,306 C1813,240.12 1842.67,168.31 1863.65,125.77 " fill="none" id="ExamGrade-eCourseSystemUser" style="stroke:#181818;stroke-width:1.0;"/><polygon fill="#000000" points="1820.9794,532.1301,1813.2295,537.6428,1817.9498,541.1453,1820.9794,532.1301" style="stroke:#000000;stroke-width:1.0;"/><text fill="#000000" font-family="sans-serif" font-size="13" lengthAdjust="spacing" textLength="21" x="1827" y="541.5283">has</text><text fill="#000000" font-family="sans-serif" font-size="13" lengthAdjust="spacing" textLength="7" x="1206.1217" y="1018.3812">1</text><text fill="#000000" font-family="sans-serif" font-size="13" lengthAdjust="spacing" textLength="7" x="1852.998" y="147.0938">1</text></g><!--link eCourseSystemUser to TakeExamUI--><g id="link_eCourseSystemUser_TakeExamUI"><path codeLine="158" d="M1831.57,125.72 C1785.58,158.81 1717.91,207.5 1664.48,245.94 " fill="none" id="eCourseSystemUser-TakeExamUI" style="stroke:#181818;stroke-width:1.0;stroke-dasharray:7.0,7.0;"/></g><!--link TakeExamUI to TakeExamController--><g id="link_TakeExamUI_TakeExamController"><path codeLine="159" d="M1512.54,368.24 C1485.22,392.27 1453.22,420.43 1423.37,446.69 " fill="none" id="TakeExamUI-TakeExamController" style="stroke:#181818;stroke-width:1.0;stroke-dasharray:7.0,7.0;"/></g><!--link TakeExamController to RepositoryFactory--><g id="link_TakeExamController_RepositoryFactory"><path codeLine="160" d="M1323,625.1 C1323,676.45 1323,737.31 1323,769.8 " fill="none" id="TakeExamController-RepositoryFactory" style="stroke:#181818;stroke-width:1.0;stroke-dasharray:7.0,7.0;"/></g><!--link TakeExamController to ExamRepository--><g id="link_TakeExamController_ExamRepository"><path codeLine="161" d="M1191.79,588.25 C1122.47,613.06 1035.31,640.72 955,656 C851.32,675.72 579.39,647.8 481,686 C454.06,696.46 428.35,714.47 406.84,732.77 " fill="none" id="TakeExamController-ExamRepository" style="stroke:#181818;stroke-width:1.0;stroke-dasharray:7.0,7.0;"/></g><!--link TakeExamController to UserRepository--><g id="link_TakeExamController_UserRepository"><path codeLine="162" d="M1416.95,625.1 C1441.01,647.66 1467.03,672.06 1491.59,695.09 " fill="none" id="TakeExamController-UserRepository" style="stroke:#181818;stroke-width:1.0;stroke-dasharray:7.0,7.0;"/></g><!--link TakeExamController to TakeExamService--><g id="link_TakeExamController_TakeExamService"><path codeLine="163" d="M1454.27,573.14 C1580.95,608.01 1777.46,662.1 1943.86,707.9 " fill="none" id="TakeExamController-TakeExamService" style="stroke:#181818;stroke-width:1.0;stroke-dasharray:7.0,7.0;"/></g><!--link TakeExamController to Exam--><g id="link_TakeExamController_Exam"><path codeLine="164" d="M1191.78,583.92 C1112.45,610.07 1008.68,640.43 914,656 C837.29,668.62 282.94,648.22 215,686 C197.61,695.67 183.51,711.44 172.52,727.94 " fill="none" id="TakeExamController-Exam" style="stroke:#181818;stroke-width:1.0;stroke-dasharray:7.0,7.0;"/></g><!--link TakeExamController to eCourseSystemUser--><g id="link_TakeExamController_eCourseSystemUser"><path codeLine="165" d="M1319.75,446.86 C1322.18,383.53 1335.82,300.11 1385,246 C1493.64,126.47 1691.99,96.76 1803.09,89.76 " fill="none" id="TakeExamController-eCourseSystemUser" style="stroke:#181818;stroke-width:1.0;stroke-dasharray:7.0,7.0;"/></g><!--link TakeExamController to Course--><g id="link_TakeExamController_Course"><path codeLine="166" d="M1191.76,517.54 C1024.66,492.6 749.25,441.51 680,368 C629.56,314.46 616.69,229.45 614.82,167.13 " fill="none" id="TakeExamController-Course" style="stroke:#181818;stroke-width:1.0;stroke-dasharray:7.0,7.0;"/></g><!--link TakeExamController to ExamDto--><g id="link_TakeExamController_ExamDto"><path codeLine="167" d="M1191.98,608.82 C1148.41,632.71 1098.9,659.85 1051.52,685.82 " fill="none" id="TakeExamController-ExamDto" style="stroke:#181818;stroke-width:1.0;stroke-dasharray:7.0,7.0;"/></g><!--link TakeExamService to ListExamCoursesService--><g id="link_TakeExamService_ListExamCoursesService"><path codeLine="168" d="M2337.05,880.14 C2373.04,916.6 2413.44,957.53 2442.76,987.23 " fill="none" id="TakeExamService-ListExamCoursesService" style="stroke:#181818;stroke-width:1.0;stroke-dasharray:7.0,7.0;"/></g><!--link TakeExamService to ExamValListener--><g id="link_TakeExamService_ExamValListener"><path codeLine="169" d="M2160.58,880.14 C2111.79,925.09 2055.62,976.84 2024.01,1005.96 " fill="none" id="TakeExamService-ExamValListener" style="stroke:#181818;stroke-width:1.0;stroke-dasharray:7.0,7.0;"/></g><!--link ExamValListener to TakeExamUI--><g id="link_ExamValListener_TakeExamUI"><path codeLine="170" d="M1984.17,1005.76 C1968.09,980.41 1941.8,938.58 1920,902 C1804.79,708.72 1674.39,476.11 1614.42,368.3 " fill="none" id="ExamValListener-TakeExamUI" style="stroke:#181818;stroke-width:1.0;stroke-dasharray:7.0,7.0;"/></g><!--SRC=[XLTBZzis4BxhLn1xYNVZ1EXLC0HilDvYWSGjrjsSUg6byKef9ReajQaJzBzt-18fYN9za4NEn-7muxoa-9aeJevSATwIgX5GgePtMLOoAYNvW_u5ktze-_94VcO4V-z9nGyr_xwwTKE90usGgrFJKKO-Dr9jzCI3uWK1BV7GOz-moc2_GDTVmPESQ8HRLWEjMDF1IiyVb6Ywr-pVgO5RtYd16GFX3BqZzxsgkMX-K7sW0uYtfWH2SVA70y2MzqB2YmJn36Sk6yN5XGXyTG2jU2BPEP7Vr-kLzj-P_0fA0-YHWUL6cpuwQG3gxUtHBb91guTEgDmUAtjeGywMLt0RZX_MaCr6SAwA0bzsdMhK1Lyz5NlQWdlLs4uF1nsEXlzL5LRiMjgm-we2WOFDvYjbFH1-_8Q-KnGUzCmPf6nnXndReBSzAAfwhG-llXqMl2Ux_VsdppitU7WwcD6mydTyVEUYmdLlIJlkIy6xIxietpyzBie-DKBL3rJ18k8Bb3Nj-AkWvxefztrxDFoDmJY1ViTRzCIICdR1Q-z0eDegAFfLq6fv6tj50uTDfqXJkK4NBjVTf2LIchz1WjfBV7Z_1LhMQAe0j4KvSktobTM-ZczgdLAz3bhN4uMHYseFZZqAtb0U-GEwXt6Klcl-xg4et3G_GwUPTyEISGbcF5ASPct4qwk6Z2C-SdMf-aeJC6WDyVv8InFsiUTFSeLtKLfL9enxVEH4FttE4z3oDrWGRWNWYOpGSfsJKy_OtX0-p60IKtRgpuwOiCe9fZeScpZC2UY_zH09Qt9sRqEE1YhAUcf4Jg9SGva24Q9mzJ8pLd55cNNmtqvQZ5ajrmmxESFq5eWrGfFnzAWOtrgQGPFgz2Cte3632q9xigdG_gNiTjdOsZso2PEoCqPxcm-KEBpmlG9PYkPiAYI9GsuRBHXvxiXrYKjeTZkVrctyZ8BD3QBjXhbos6-OyXi6ZD_nTh8bag4tXe51muzTjRgTLrLVtJORLz-YsDANQoklDaXwA4jEByRVgGy-YCNGtayar-9riX2lhzJlKRdrjHRx3HkbC_NBYeZMDBCws7kmwSCTTZK_duaWRusL5jFoRgyZiB_0xC-mxMElUk5QYrYpymwvJX2Mv6JMg2Ir9VcVw1i54tO4MgIh79gDeYnxzmpCT6AoRiuoooAEFdmeoCqlDwEs8YNt2Iubqsano-RyUtbqUSiWesHP7DBZ5P1hDwuWiE6u8XrQZYkOLDDn1MwBPEvh7Qcf99GKItHDWz-K0OIdqGlEwXSbLjtStU1AysTwWzn4WhKeSusEDptkEj8oatczI4zhrT6X1PpGd_GtpYR0j0NcERSEIuF4we3c8DxO5oaDBKTkM2mSucv01AD64BieqfJQsC8JZ7ty67s8PT4tMIG87q1Pufi8WRF6PW4tZlK5q3XLBe0cZdHblmNHFF6cSHPsHJyMlMpgrYXA-suAEKbgsJJ9ZMy8V_y1]--></g></svg>