<?xml version="1.0" encoding="us-ascii" standalone="no"?><svg xmlns="http://www.w3.org/2000/svg" xmlns:xlink="http://www.w3.org/1999/xlink" contentStyleType="text/css" height="1587px" preserveAspectRatio="none" style="width:825px;height:1587px;background:#FFFFFF;" version="1.1" viewBox="0 0 825 1587" width="825px" zoomAndPan="magnify"><defs/><g><!--cluster ECOURSESYSTEMUSER--><g id="cluster_ECOURSESYSTEMUSER"><path d="M106.67,563.0137 L271.67,563.0137 A3.75,3.75 0 0 1 274.17,565.5137 L281.17,587.6348 L815.67,587.6348 A2.5,2.5 0 0 1 818.17,590.1348 L818.17,1413.5137 A2.5,2.5 0 0 1 815.67,1416.0137 L106.67,1416.0137 A2.5,2.5 0 0 1 104.17,1413.5137 L104.17,565.5137 A2.5,2.5 0 0 1 106.67,563.0137 " fill="none" style="stroke:#000000;stroke-width:1.5;"/><line style="stroke:#000000;stroke-width:1.5;" x1="104.17" x2="281.17" y1="587.6348" y2="587.6348"/><text fill="#000000" font-family="sans-serif" font-size="14" font-weight="bold" lengthAdjust="spacing" textLength="164" x="108.17" y="580.1211">ECOURSESYSTEMUSER</text><text fill="#000000" font-family="sans-serif" font-size="14" font-style="italic" lengthAdjust="spacing" textLength="82" x="424.17" y="604.7422">&#171;Aggregate&#187;</text></g><!--cluster COURSE--><g id="cluster_COURSE"><path d="M125.17,6.0137 L185.17,6.0137 A3.75,3.75 0 0 1 187.67,8.5137 L194.67,30.6348 L601.67,30.6348 A2.5,2.5 0 0 1 604.17,33.1348 L604.17,270.5137 A2.5,2.5 0 0 1 601.67,273.0137 L125.17,273.0137 A2.5,2.5 0 0 1 122.67,270.5137 L122.67,8.5137 A2.5,2.5 0 0 1 125.17,6.0137 " fill="none" style="stroke:#000000;stroke-width:1.5;"/><line style="stroke:#000000;stroke-width:1.5;" x1="122.67" x2="194.67" y1="30.6348" y2="30.6348"/><text fill="#000000" font-family="sans-serif" font-size="14" font-weight="bold" lengthAdjust="spacing" textLength="59" x="126.67" y="23.1211">COURSE</text><text fill="#000000" font-family="sans-serif" font-size="14" font-style="italic" lengthAdjust="spacing" textLength="81" x="326.92" y="47.7422">&#171;aggregate&#187;</text></g><!--cluster EXAM--><g id="cluster_EXAM"><path d="M127.17,297.0137 L168.17,297.0137 A3.75,3.75 0 0 1 170.67,299.5137 L177.67,321.6348 L597.17,321.6348 A2.5,2.5 0 0 1 599.67,324.1348 L599.67,536.5137 A2.5,2.5 0 0 1 597.17,539.0137 L127.17,539.0137 A2.5,2.5 0 0 1 124.67,536.5137 L124.67,299.5137 A2.5,2.5 0 0 1 127.17,297.0137 " fill="none" style="stroke:#000000;stroke-width:1.5;"/><line style="stroke:#000000;stroke-width:1.5;" x1="124.67" x2="177.67" y1="321.6348" y2="321.6348"/><text fill="#000000" font-family="sans-serif" font-size="14" font-weight="bold" lengthAdjust="spacing" textLength="40" x="128.67" y="314.1211">EXAM</text><text fill="#000000" font-family="sans-serif" font-size="14" font-style="italic" lengthAdjust="spacing" textLength="81" x="325.67" y="338.7422">&#171;aggregate&#187;</text></g><!--class SystemUser--><g id="elem_SystemUser"><rect codeLine="7" fill="#F1F1F1" height="113.7852" id="SystemUser" rx="2.5" ry="2.5" style="stroke:#181818;stroke-width:0.5;" width="107" x="475.67" y="1249.0137"/><ellipse cx="490.67" cy="1279.2852" fill="#ADD1B2" rx="11" ry="11" style="stroke:#181818;stroke-width:1.0;"/><path d="M493.4356,1275.1602 Q493.5919,1274.9414 493.7794,1274.832 Q493.9669,1274.7227 494.1856,1274.7227 Q494.5606,1274.7227 494.795,1274.9883 Q495.0294,1275.2383 495.0294,1275.8477 L495.0294,1277.3008 Q495.0294,1277.9102 494.795,1278.1758 Q494.5606,1278.4414 494.1856,1278.4414 Q493.8419,1278.4414 493.6388,1278.2383 Q493.4356,1278.0508 493.3263,1277.5352 Q493.2794,1277.1758 493.0919,1276.9883 Q492.7638,1276.6133 492.1544,1276.3945 Q491.545,1276.1758 490.92,1276.1758 Q490.1544,1276.1758 489.5138,1276.5039 Q488.8888,1276.832 488.3888,1277.582 Q487.9044,1278.332 487.9044,1279.3633 L487.9044,1280.457 Q487.9044,1281.6914 488.795,1282.5195 Q489.6856,1283.332 491.2794,1283.332 Q492.2169,1283.332 492.8731,1283.082 Q493.2638,1282.9258 493.6856,1282.4883 Q493.9513,1282.2227 494.0919,1282.1445 Q494.2481,1282.0664 494.4513,1282.0664 Q494.7794,1282.0664 495.0294,1282.332 Q495.295,1282.582 495.295,1282.9258 Q495.295,1283.2695 494.9513,1283.6758 Q494.4513,1284.2539 493.6544,1284.582 Q492.5763,1285.0352 491.2794,1285.0352 Q489.7638,1285.0352 488.5606,1284.4102 Q487.5763,1283.9102 486.8888,1282.8477 Q486.2013,1281.7695 486.2013,1280.4883 L486.2013,1279.332 Q486.2013,1278.0039 486.8106,1276.8633 Q487.4356,1275.707 488.5294,1275.0977 Q489.6231,1274.4727 490.8575,1274.4727 Q491.5919,1274.4727 492.2325,1274.6445 Q492.8888,1274.8008 493.4356,1275.1602 Z " fill="#000000"/><text fill="#000000" font-family="sans-serif" font-size="12" font-style="italic" lengthAdjust="spacing" textLength="35" x="524.67" y="1266.9629">&#171;root&#187;</text><text fill="#000000" font-family="sans-serif" font-size="12" font-style="italic" lengthAdjust="spacing" textLength="44" x="520.17" y="1282.9238">&#171;Entity&#187;</text><text fill="#000000" font-family="sans-serif" font-size="14" lengthAdjust="spacing" textLength="75" x="504.67" y="1301.043">SystemUser</text><line style="stroke:#181818;stroke-width:0.5;" x1="476.67" x2="581.67" y1="1309.5566" y2="1309.5566"/><ellipse cx="486.67" cy="1324.3672" fill="#000000" rx="3" ry="3" style="stroke:#000000;stroke-width:1.0;"/><text fill="#000000" font-family="sans-serif" font-size="14" lengthAdjust="spacing" textLength="36" x="495.67" y="1328.6641">Name</text><ellipse cx="486.67" cy="1342.9883" fill="#000000" rx="3" ry="3" style="stroke:#000000;stroke-width:1.0;"/><text fill="#000000" font-family="sans-serif" font-size="14" lengthAdjust="spacing" textLength="64" x="495.67" y="1347.2852">Username</text><line style="stroke:#181818;stroke-width:0.5;" x1="476.67" x2="581.67" y1="1354.7988" y2="1354.7988"/></g><!--class eCourseSystemUser--><g id="elem_eCourseSystemUser"><rect codeLine="12" fill="#F1F1F1" height="76.543" id="eCourseSystemUser" rx="2.5" ry="2.5" style="stroke:#181818;stroke-width:0.5;" width="161" x="120.17" y="878.5137"/><ellipse cx="135.17" cy="908.7852" fill="#ADD1B2" rx="11" ry="11" style="stroke:#181818;stroke-width:1.0;"/><path d="M137.9356,904.6602 Q138.0919,904.4414 138.2794,904.332 Q138.4669,904.2227 138.6856,904.2227 Q139.0606,904.2227 139.295,904.4883 Q139.5294,904.7383 139.5294,905.3477 L139.5294,906.8008 Q139.5294,907.4102 139.295,907.6758 Q139.0606,907.9414 138.6856,907.9414 Q138.3419,907.9414 138.1388,907.7383 Q137.9356,907.5508 137.8263,907.0352 Q137.7794,906.6758 137.5919,906.4883 Q137.2638,906.1133 136.6544,905.8945 Q136.045,905.6758 135.42,905.6758 Q134.6544,905.6758 134.0138,906.0039 Q133.3888,906.332 132.8888,907.082 Q132.4044,907.832 132.4044,908.8633 L132.4044,909.957 Q132.4044,911.1914 133.295,912.0195 Q134.1856,912.832 135.7794,912.832 Q136.7169,912.832 137.3731,912.582 Q137.7638,912.4258 138.1856,911.9883 Q138.4513,911.7227 138.5919,911.6445 Q138.7481,911.5664 138.9513,911.5664 Q139.2794,911.5664 139.5294,911.832 Q139.795,912.082 139.795,912.4258 Q139.795,912.7695 139.4513,913.1758 Q138.9513,913.7539 138.1544,914.082 Q137.0763,914.5352 135.7794,914.5352 Q134.2638,914.5352 133.0606,913.9102 Q132.0763,913.4102 131.3888,912.3477 Q130.7013,911.2695 130.7013,909.9883 L130.7013,908.832 Q130.7013,907.5039 131.3106,906.3633 Q131.9356,905.207 133.0294,904.5977 Q134.1231,903.9727 135.3575,903.9727 Q136.0919,903.9727 136.7325,904.1445 Q137.3888,904.3008 137.9356,904.6602 Z " fill="#000000"/><text fill="#000000" font-family="sans-serif" font-size="12" font-style="italic" lengthAdjust="spacing" textLength="35" x="196.17" y="896.4629">&#171;root&#187;</text><text fill="#000000" font-family="sans-serif" font-size="12" font-style="italic" lengthAdjust="spacing" textLength="44" x="191.67" y="912.4238">&#171;Entity&#187;</text><text fill="#000000" font-family="sans-serif" font-size="14" lengthAdjust="spacing" textLength="129" x="149.17" y="930.543">eCourseSystemUser</text><line style="stroke:#181818;stroke-width:0.5;" x1="121.17" x2="280.17" y1="939.0566" y2="939.0566"/><line style="stroke:#181818;stroke-width:0.5;" x1="121.17" x2="280.17" y1="947.0566" y2="947.0566"/></g><!--class EmailAdderss--><g id="elem_EmailAdderss"><rect codeLine="16" fill="#F1F1F1" height="60.582" id="EmailAdderss" rx="2.5" ry="2.5" style="stroke:#181818;stroke-width:0.5;" width="118" x="684.17" y="1224.5137"/><ellipse cx="699.17" cy="1246.8047" fill="#ADD1B2" rx="11" ry="11" style="stroke:#181818;stroke-width:1.0;"/><path d="M701.9356,1242.6797 Q702.0919,1242.4609 702.2794,1242.3516 Q702.4669,1242.2422 702.6856,1242.2422 Q703.0606,1242.2422 703.295,1242.5078 Q703.5294,1242.7578 703.5294,1243.3672 L703.5294,1244.8203 Q703.5294,1245.4297 703.295,1245.6953 Q703.0606,1245.9609 702.6856,1245.9609 Q702.3419,1245.9609 702.1388,1245.7578 Q701.9356,1245.5703 701.8263,1245.0547 Q701.7794,1244.6953 701.5919,1244.5078 Q701.2638,1244.1328 700.6544,1243.9141 Q700.045,1243.6953 699.42,1243.6953 Q698.6544,1243.6953 698.0138,1244.0234 Q697.3888,1244.3516 696.8888,1245.1016 Q696.4044,1245.8516 696.4044,1246.8828 L696.4044,1247.9766 Q696.4044,1249.2109 697.295,1250.0391 Q698.1856,1250.8516 699.7794,1250.8516 Q700.7169,1250.8516 701.3731,1250.6016 Q701.7638,1250.4453 702.1856,1250.0078 Q702.4513,1249.7422 702.5919,1249.6641 Q702.7481,1249.5859 702.9513,1249.5859 Q703.2794,1249.5859 703.5294,1249.8516 Q703.795,1250.1016 703.795,1250.4453 Q703.795,1250.7891 703.4513,1251.1953 Q702.9513,1251.7734 702.1544,1252.1016 Q701.0763,1252.5547 699.7794,1252.5547 Q698.2638,1252.5547 697.0606,1251.9297 Q696.0763,1251.4297 695.3888,1250.3672 Q694.7013,1249.2891 694.7013,1248.0078 L694.7013,1246.8516 Q694.7013,1245.5234 695.3106,1244.3828 Q695.9356,1243.2266 697.0294,1242.6172 Q698.1231,1241.9922 699.3575,1241.9922 Q700.0919,1241.9922 700.7325,1242.1641 Q701.3888,1242.3203 701.9356,1242.6797 Z " fill="#000000"/><text fill="#000000" font-family="sans-serif" font-size="12" font-style="italic" lengthAdjust="spacing" textLength="83" x="714.67" y="1242.4629">&#171;Value object&#187;</text><text fill="#000000" font-family="sans-serif" font-size="14" lengthAdjust="spacing" textLength="86" x="713.17" y="1260.582">EmailAdderss</text><line style="stroke:#181818;stroke-width:0.5;" x1="685.17" x2="801.17" y1="1269.0957" y2="1269.0957"/><line style="stroke:#181818;stroke-width:0.5;" x1="685.17" x2="801.17" y1="1277.0957" y2="1277.0957"/></g><!--class Role--><g id="elem_Role"><rect codeLine="18" fill="#F1F1F1" height="79.2031" id="Role" rx="2.5" ry="2.5" style="stroke:#181818;stroke-width:0.5;" width="102" x="692.17" y="1320.5137"/><ellipse cx="720.67" cy="1342.8047" fill="#ADD1B2" rx="11" ry="11" style="stroke:#181818;stroke-width:1.0;"/><path d="M723.4356,1338.6797 Q723.5919,1338.4609 723.7794,1338.3516 Q723.9669,1338.2422 724.1856,1338.2422 Q724.5606,1338.2422 724.795,1338.5078 Q725.0294,1338.7578 725.0294,1339.3672 L725.0294,1340.8203 Q725.0294,1341.4297 724.795,1341.6953 Q724.5606,1341.9609 724.1856,1341.9609 Q723.8419,1341.9609 723.6388,1341.7578 Q723.4356,1341.5703 723.3263,1341.0547 Q723.2794,1340.6953 723.0919,1340.5078 Q722.7638,1340.1328 722.1544,1339.9141 Q721.545,1339.6953 720.92,1339.6953 Q720.1544,1339.6953 719.5138,1340.0234 Q718.8888,1340.3516 718.3888,1341.1016 Q717.9044,1341.8516 717.9044,1342.8828 L717.9044,1343.9766 Q717.9044,1345.2109 718.795,1346.0391 Q719.6856,1346.8516 721.2794,1346.8516 Q722.2169,1346.8516 722.8731,1346.6016 Q723.2638,1346.4453 723.6856,1346.0078 Q723.9513,1345.7422 724.0919,1345.6641 Q724.2481,1345.5859 724.4513,1345.5859 Q724.7794,1345.5859 725.0294,1345.8516 Q725.295,1346.1016 725.295,1346.4453 Q725.295,1346.7891 724.9513,1347.1953 Q724.4513,1347.7734 723.6544,1348.1016 Q722.5763,1348.5547 721.2794,1348.5547 Q719.7638,1348.5547 718.5606,1347.9297 Q717.5763,1347.4297 716.8888,1346.3672 Q716.2013,1345.2891 716.2013,1344.0078 L716.2013,1342.8516 Q716.2013,1341.5234 716.8106,1340.3828 Q717.4356,1339.2266 718.5294,1338.6172 Q719.6231,1337.9922 720.8575,1337.9922 Q721.5919,1337.9922 722.2325,1338.1641 Q722.8888,1338.3203 723.4356,1338.6797 Z " fill="#000000"/><text fill="#000000" font-family="sans-serif" font-size="12" font-style="italic" lengthAdjust="spacing" textLength="44" x="735.67" y="1338.4629">&#171;Entity&#187;</text><text fill="#000000" font-family="sans-serif" font-size="14" lengthAdjust="spacing" textLength="29" x="743.17" y="1356.582">Role</text><line style="stroke:#181818;stroke-width:0.5;" x1="693.17" x2="793.17" y1="1365.0957" y2="1365.0957"/><ellipse cx="703.17" cy="1379.9063" fill="#000000" rx="3" ry="3" style="stroke:#000000;stroke-width:1.0;"/><text fill="#000000" font-family="sans-serif" font-size="14" lengthAdjust="spacing" textLength="76" x="712.17" y="1384.2031">String name</text><line style="stroke:#181818;stroke-width:0.5;" x1="693.17" x2="793.17" y1="1391.7168" y2="1391.7168"/></g><!--class UserStatus--><g id="elem_UserStatus"><rect codeLine="22" fill="#F1F1F1" height="97.8242" id="UserStatus" rx="2.5" ry="2.5" style="stroke:#181818;stroke-width:0.5;" width="101" x="478.67" y="1116.0137"/><ellipse cx="493.67" cy="1138.3047" fill="#ADD1B2" rx="11" ry="11" style="stroke:#181818;stroke-width:1.0;"/><path d="M496.4356,1134.1797 Q496.5919,1133.9609 496.7794,1133.8516 Q496.9669,1133.7422 497.1856,1133.7422 Q497.5606,1133.7422 497.795,1134.0078 Q498.0294,1134.2578 498.0294,1134.8672 L498.0294,1136.3203 Q498.0294,1136.9297 497.795,1137.1953 Q497.5606,1137.4609 497.1856,1137.4609 Q496.8419,1137.4609 496.6388,1137.2578 Q496.4356,1137.0703 496.3263,1136.5547 Q496.2794,1136.1953 496.0919,1136.0078 Q495.7638,1135.6328 495.1544,1135.4141 Q494.545,1135.1953 493.92,1135.1953 Q493.1544,1135.1953 492.5138,1135.5234 Q491.8888,1135.8516 491.3888,1136.6016 Q490.9044,1137.3516 490.9044,1138.3828 L490.9044,1139.4766 Q490.9044,1140.7109 491.795,1141.5391 Q492.6856,1142.3516 494.2794,1142.3516 Q495.2169,1142.3516 495.8731,1142.1016 Q496.2638,1141.9453 496.6856,1141.5078 Q496.9513,1141.2422 497.0919,1141.1641 Q497.2481,1141.0859 497.4513,1141.0859 Q497.7794,1141.0859 498.0294,1141.3516 Q498.295,1141.6016 498.295,1141.9453 Q498.295,1142.2891 497.9513,1142.6953 Q497.4513,1143.2734 496.6544,1143.6016 Q495.5763,1144.0547 494.2794,1144.0547 Q492.7638,1144.0547 491.5606,1143.4297 Q490.5763,1142.9297 489.8888,1141.8672 Q489.2013,1140.7891 489.2013,1139.5078 L489.2013,1138.3516 Q489.2013,1137.0234 489.8106,1135.8828 Q490.4356,1134.7266 491.5294,1134.1172 Q492.6231,1133.4922 493.8575,1133.4922 Q494.5919,1133.4922 495.2325,1133.6641 Q495.8888,1133.8203 496.4356,1134.1797 Z " fill="#000000"/><text fill="#000000" font-family="sans-serif" font-size="12" font-style="italic" lengthAdjust="spacing" textLength="46" x="519.17" y="1133.9629">&#171;enum&#187;</text><text fill="#000000" font-family="sans-serif" font-size="14" lengthAdjust="spacing" textLength="69" x="507.67" y="1152.082">UserStatus</text><line style="stroke:#181818;stroke-width:0.5;" x1="479.67" x2="578.67" y1="1160.5957" y2="1160.5957"/><ellipse cx="489.67" cy="1175.4063" fill="none" rx="3" ry="3" style="stroke:#038048;stroke-width:1.0;"/><text fill="#000000" font-family="sans-serif" font-size="14" lengthAdjust="spacing" textLength="53" x="498.67" y="1179.7031">ENABLE</text><ellipse cx="489.67" cy="1194.0273" fill="none" rx="3" ry="3" style="stroke:#038048;stroke-width:1.0;"/><text fill="#000000" font-family="sans-serif" font-size="14" lengthAdjust="spacing" textLength="57" x="498.67" y="1198.3242">DISABLE</text><line style="stroke:#181818;stroke-width:0.5;" x1="479.67" x2="578.67" y1="1205.8379" y2="1205.8379"/></g><!--class Password--><g id="elem_Password"><rect codeLine="27" fill="#F1F1F1" height="60.582" id="Password" rx="2.5" ry="2.5" style="stroke:#181818;stroke-width:0.5;" width="109" x="688.67" y="1128.5137"/><ellipse cx="703.67" cy="1150.8047" fill="#ADD1B2" rx="11" ry="11" style="stroke:#181818;stroke-width:1.0;"/><path d="M706.4356,1146.6797 Q706.5919,1146.4609 706.7794,1146.3516 Q706.9669,1146.2422 707.1856,1146.2422 Q707.5606,1146.2422 707.795,1146.5078 Q708.0294,1146.7578 708.0294,1147.3672 L708.0294,1148.8203 Q708.0294,1149.4297 707.795,1149.6953 Q707.5606,1149.9609 707.1856,1149.9609 Q706.8419,1149.9609 706.6388,1149.7578 Q706.4356,1149.5703 706.3263,1149.0547 Q706.2794,1148.6953 706.0919,1148.5078 Q705.7638,1148.1328 705.1544,1147.9141 Q704.545,1147.6953 703.92,1147.6953 Q703.1544,1147.6953 702.5138,1148.0234 Q701.8888,1148.3516 701.3888,1149.1016 Q700.9044,1149.8516 700.9044,1150.8828 L700.9044,1151.9766 Q700.9044,1153.2109 701.795,1154.0391 Q702.6856,1154.8516 704.2794,1154.8516 Q705.2169,1154.8516 705.8731,1154.6016 Q706.2638,1154.4453 706.6856,1154.0078 Q706.9513,1153.7422 707.0919,1153.6641 Q707.2481,1153.5859 707.4513,1153.5859 Q707.7794,1153.5859 708.0294,1153.8516 Q708.295,1154.1016 708.295,1154.4453 Q708.295,1154.7891 707.9513,1155.1953 Q707.4513,1155.7734 706.6544,1156.1016 Q705.5763,1156.5547 704.2794,1156.5547 Q702.7638,1156.5547 701.5606,1155.9297 Q700.5763,1155.4297 699.8888,1154.3672 Q699.2013,1153.2891 699.2013,1152.0078 L699.2013,1150.8516 Q699.2013,1149.5234 699.8106,1148.3828 Q700.4356,1147.2266 701.5294,1146.6172 Q702.6231,1145.9922 703.8575,1145.9922 Q704.5919,1145.9922 705.2325,1146.1641 Q705.8888,1146.3203 706.4356,1146.6797 Z " fill="#000000"/><text fill="#000000" font-family="sans-serif" font-size="12" font-style="italic" lengthAdjust="spacing" textLength="81" x="715.67" y="1146.4629">&#171;value object&#187;</text><text fill="#000000" font-family="sans-serif" font-size="14" lengthAdjust="spacing" textLength="61" x="725.67" y="1164.582">Password</text><line style="stroke:#181818;stroke-width:0.5;" x1="689.67" x2="796.67" y1="1173.0957" y2="1173.0957"/><line style="stroke:#181818;stroke-width:0.5;" x1="689.67" x2="796.67" y1="1181.0957" y2="1181.0957"/></g><!--class Acronym--><g id="elem_Acronym"><rect codeLine="29" fill="#F1F1F1" height="60.582" id="Acronym" rx="2.5" ry="2.5" style="stroke:#181818;stroke-width:0.5;" width="109" x="474.67" y="1019.5137"/><ellipse cx="489.67" cy="1041.8047" fill="#ADD1B2" rx="11" ry="11" style="stroke:#181818;stroke-width:1.0;"/><path d="M492.4356,1037.6797 Q492.5919,1037.4609 492.7794,1037.3516 Q492.9669,1037.2422 493.1856,1037.2422 Q493.5606,1037.2422 493.795,1037.5078 Q494.0294,1037.7578 494.0294,1038.3672 L494.0294,1039.8203 Q494.0294,1040.4297 493.795,1040.6953 Q493.5606,1040.9609 493.1856,1040.9609 Q492.8419,1040.9609 492.6388,1040.7578 Q492.4356,1040.5703 492.3263,1040.0547 Q492.2794,1039.6953 492.0919,1039.5078 Q491.7638,1039.1328 491.1544,1038.9141 Q490.545,1038.6953 489.92,1038.6953 Q489.1544,1038.6953 488.5138,1039.0234 Q487.8888,1039.3516 487.3888,1040.1016 Q486.9044,1040.8516 486.9044,1041.8828 L486.9044,1042.9766 Q486.9044,1044.2109 487.795,1045.0391 Q488.6856,1045.8516 490.2794,1045.8516 Q491.2169,1045.8516 491.8731,1045.6016 Q492.2638,1045.4453 492.6856,1045.0078 Q492.9513,1044.7422 493.0919,1044.6641 Q493.2481,1044.5859 493.4513,1044.5859 Q493.7794,1044.5859 494.0294,1044.8516 Q494.295,1045.1016 494.295,1045.4453 Q494.295,1045.7891 493.9513,1046.1953 Q493.4513,1046.7734 492.6544,1047.1016 Q491.5763,1047.5547 490.2794,1047.5547 Q488.7638,1047.5547 487.5606,1046.9297 Q486.5763,1046.4297 485.8888,1045.3672 Q485.2013,1044.2891 485.2013,1043.0078 L485.2013,1041.8516 Q485.2013,1040.5234 485.8106,1039.3828 Q486.4356,1038.2266 487.5294,1037.6172 Q488.6231,1036.9922 489.8575,1036.9922 Q490.5919,1036.9922 491.2325,1037.1641 Q491.8888,1037.3203 492.4356,1037.6797 Z " fill="#000000"/><text fill="#000000" font-family="sans-serif" font-size="12" font-style="italic" lengthAdjust="spacing" textLength="81" x="501.67" y="1037.4629">&#171;value object&#187;</text><text fill="#000000" font-family="sans-serif" font-size="14" lengthAdjust="spacing" textLength="55" x="514.67" y="1055.582">Acronym</text><line style="stroke:#181818;stroke-width:0.5;" x1="475.67" x2="582.67" y1="1064.0957" y2="1064.0957"/><line style="stroke:#181818;stroke-width:0.5;" x1="475.67" x2="582.67" y1="1072.0957" y2="1072.0957"/></g><!--class NIF--><g id="elem_NIF"><rect codeLine="31" fill="#F1F1F1" height="60.582" id="NIF" rx="2.5" ry="2.5" style="stroke:#181818;stroke-width:0.5;" width="109" x="474.67" y="923.5137"/><ellipse cx="489.67" cy="945.8047" fill="#ADD1B2" rx="11" ry="11" style="stroke:#181818;stroke-width:1.0;"/><path d="M492.4356,941.6797 Q492.5919,941.4609 492.7794,941.3516 Q492.9669,941.2422 493.1856,941.2422 Q493.5606,941.2422 493.795,941.5078 Q494.0294,941.7578 494.0294,942.3672 L494.0294,943.8203 Q494.0294,944.4297 493.795,944.6953 Q493.5606,944.9609 493.1856,944.9609 Q492.8419,944.9609 492.6388,944.7578 Q492.4356,944.5703 492.3263,944.0547 Q492.2794,943.6953 492.0919,943.5078 Q491.7638,943.1328 491.1544,942.9141 Q490.545,942.6953 489.92,942.6953 Q489.1544,942.6953 488.5138,943.0234 Q487.8888,943.3516 487.3888,944.1016 Q486.9044,944.8516 486.9044,945.8828 L486.9044,946.9766 Q486.9044,948.2109 487.795,949.0391 Q488.6856,949.8516 490.2794,949.8516 Q491.2169,949.8516 491.8731,949.6016 Q492.2638,949.4453 492.6856,949.0078 Q492.9513,948.7422 493.0919,948.6641 Q493.2481,948.5859 493.4513,948.5859 Q493.7794,948.5859 494.0294,948.8516 Q494.295,949.1016 494.295,949.4453 Q494.295,949.7891 493.9513,950.1953 Q493.4513,950.7734 492.6544,951.1016 Q491.5763,951.5547 490.2794,951.5547 Q488.7638,951.5547 487.5606,950.9297 Q486.5763,950.4297 485.8888,949.3672 Q485.2013,948.2891 485.2013,947.0078 L485.2013,945.8516 Q485.2013,944.5234 485.8106,943.3828 Q486.4356,942.2266 487.5294,941.6172 Q488.6231,940.9922 489.8575,940.9922 Q490.5919,940.9922 491.2325,941.1641 Q491.8888,941.3203 492.4356,941.6797 Z " fill="#000000"/><text fill="#000000" font-family="sans-serif" font-size="12" font-style="italic" lengthAdjust="spacing" textLength="81" x="501.67" y="941.4629">&#171;value object&#187;</text><text fill="#000000" font-family="sans-serif" font-size="14" lengthAdjust="spacing" textLength="21" x="531.67" y="959.582">NIF</text><line style="stroke:#181818;stroke-width:0.5;" x1="475.67" x2="582.67" y1="968.0957" y2="968.0957"/><line style="stroke:#181818;stroke-width:0.5;" x1="475.67" x2="582.67" y1="976.0957" y2="976.0957"/></g><!--class BirthDate--><g id="elem_BirthDate"><rect codeLine="33" fill="#F1F1F1" height="60.582" id="BirthDate" rx="2.5" ry="2.5" style="stroke:#181818;stroke-width:0.5;" width="109" x="474.67" y="827.5137"/><ellipse cx="489.67" cy="849.8047" fill="#ADD1B2" rx="11" ry="11" style="stroke:#181818;stroke-width:1.0;"/><path d="M492.4356,845.6797 Q492.5919,845.4609 492.7794,845.3516 Q492.9669,845.2422 493.1856,845.2422 Q493.5606,845.2422 493.795,845.5078 Q494.0294,845.7578 494.0294,846.3672 L494.0294,847.8203 Q494.0294,848.4297 493.795,848.6953 Q493.5606,848.9609 493.1856,848.9609 Q492.8419,848.9609 492.6388,848.7578 Q492.4356,848.5703 492.3263,848.0547 Q492.2794,847.6953 492.0919,847.5078 Q491.7638,847.1328 491.1544,846.9141 Q490.545,846.6953 489.92,846.6953 Q489.1544,846.6953 488.5138,847.0234 Q487.8888,847.3516 487.3888,848.1016 Q486.9044,848.8516 486.9044,849.8828 L486.9044,850.9766 Q486.9044,852.2109 487.795,853.0391 Q488.6856,853.8516 490.2794,853.8516 Q491.2169,853.8516 491.8731,853.6016 Q492.2638,853.4453 492.6856,853.0078 Q492.9513,852.7422 493.0919,852.6641 Q493.2481,852.5859 493.4513,852.5859 Q493.7794,852.5859 494.0294,852.8516 Q494.295,853.1016 494.295,853.4453 Q494.295,853.7891 493.9513,854.1953 Q493.4513,854.7734 492.6544,855.1016 Q491.5763,855.5547 490.2794,855.5547 Q488.7638,855.5547 487.5606,854.9297 Q486.5763,854.4297 485.8888,853.3672 Q485.2013,852.2891 485.2013,851.0078 L485.2013,849.8516 Q485.2013,848.5234 485.8106,847.3828 Q486.4356,846.2266 487.5294,845.6172 Q488.6231,844.9922 489.8575,844.9922 Q490.5919,844.9922 491.2325,845.1641 Q491.8888,845.3203 492.4356,845.6797 Z " fill="#000000"/><text fill="#000000" font-family="sans-serif" font-size="12" font-style="italic" lengthAdjust="spacing" textLength="81" x="501.67" y="845.4629">&#171;value object&#187;</text><text fill="#000000" font-family="sans-serif" font-size="14" lengthAdjust="spacing" textLength="59" x="512.67" y="863.582">BirthDate</text><line style="stroke:#181818;stroke-width:0.5;" x1="475.67" x2="582.67" y1="872.0957" y2="872.0957"/><line style="stroke:#181818;stroke-width:0.5;" x1="475.67" x2="582.67" y1="880.0957" y2="880.0957"/></g><!--class MechanographicNumber--><g id="elem_MechanographicNumber"><rect codeLine="35" fill="#F1F1F1" height="76.543" id="MechanographicNumber" rx="2.5" ry="2.5" style="stroke:#181818;stroke-width:0.5;" width="186" x="436.17" y="715.5137"/><ellipse cx="451.17" cy="745.7852" fill="#ADD1B2" rx="11" ry="11" style="stroke:#181818;stroke-width:1.0;"/><path d="M453.9356,741.6602 Q454.0919,741.4414 454.2794,741.332 Q454.4669,741.2227 454.6856,741.2227 Q455.0606,741.2227 455.295,741.4883 Q455.5294,741.7383 455.5294,742.3477 L455.5294,743.8008 Q455.5294,744.4102 455.295,744.6758 Q455.0606,744.9414 454.6856,744.9414 Q454.3419,744.9414 454.1388,744.7383 Q453.9356,744.5508 453.8263,744.0352 Q453.7794,743.6758 453.5919,743.4883 Q453.2638,743.1133 452.6544,742.8945 Q452.045,742.6758 451.42,742.6758 Q450.6544,742.6758 450.0138,743.0039 Q449.3888,743.332 448.8888,744.082 Q448.4044,744.832 448.4044,745.8633 L448.4044,746.957 Q448.4044,748.1914 449.295,749.0195 Q450.1856,749.832 451.7794,749.832 Q452.7169,749.832 453.3731,749.582 Q453.7638,749.4258 454.1856,748.9883 Q454.4513,748.7227 454.5919,748.6445 Q454.7481,748.5664 454.9513,748.5664 Q455.2794,748.5664 455.5294,748.832 Q455.795,749.082 455.795,749.4258 Q455.795,749.7695 455.4513,750.1758 Q454.9513,750.7539 454.1544,751.082 Q453.0763,751.5352 451.7794,751.5352 Q450.2638,751.5352 449.0606,750.9102 Q448.0763,750.4102 447.3888,749.3477 Q446.7013,748.2695 446.7013,746.9883 L446.7013,745.832 Q446.7013,744.5039 447.3106,743.3633 Q447.9356,742.207 449.0294,741.5977 Q450.1231,740.9727 451.3575,740.9727 Q452.0919,740.9727 452.7325,741.1445 Q453.3888,741.3008 453.9356,741.6602 Z " fill="#000000"/><text fill="#000000" font-family="sans-serif" font-size="12" font-style="italic" lengthAdjust="spacing" textLength="81" x="501.67" y="733.4629">&#171;value object&#187;</text><text fill="#000000" font-family="sans-serif" font-size="12" font-style="italic" lengthAdjust="spacing" textLength="146" x="469.17" y="749.4238">&#171;automatically generated&#187;</text><text fill="#000000" font-family="sans-serif" font-size="14" lengthAdjust="spacing" textLength="154" x="465.17" y="767.543">MechanographicNumber</text><line style="stroke:#181818;stroke-width:0.5;" x1="437.17" x2="621.17" y1="776.0566" y2="776.0566"/><line style="stroke:#181818;stroke-width:0.5;" x1="437.17" x2="621.17" y1="784.0566" y2="784.0566"/></g><!--class Grade--><g id="elem_Grade"><rect codeLine="37" fill="#F1F1F1" height="60.582" id="Grade" rx="2.5" ry="2.5" style="stroke:#181818;stroke-width:0.5;" width="109" x="474.67" y="619.5137"/><ellipse cx="489.67" cy="641.8047" fill="#ADD1B2" rx="11" ry="11" style="stroke:#181818;stroke-width:1.0;"/><path d="M492.4356,637.6797 Q492.5919,637.4609 492.7794,637.3516 Q492.9669,637.2422 493.1856,637.2422 Q493.5606,637.2422 493.795,637.5078 Q494.0294,637.7578 494.0294,638.3672 L494.0294,639.8203 Q494.0294,640.4297 493.795,640.6953 Q493.5606,640.9609 493.1856,640.9609 Q492.8419,640.9609 492.6388,640.7578 Q492.4356,640.5703 492.3263,640.0547 Q492.2794,639.6953 492.0919,639.5078 Q491.7638,639.1328 491.1544,638.9141 Q490.545,638.6953 489.92,638.6953 Q489.1544,638.6953 488.5138,639.0234 Q487.8888,639.3516 487.3888,640.1016 Q486.9044,640.8516 486.9044,641.8828 L486.9044,642.9766 Q486.9044,644.2109 487.795,645.0391 Q488.6856,645.8516 490.2794,645.8516 Q491.2169,645.8516 491.8731,645.6016 Q492.2638,645.4453 492.6856,645.0078 Q492.9513,644.7422 493.0919,644.6641 Q493.2481,644.5859 493.4513,644.5859 Q493.7794,644.5859 494.0294,644.8516 Q494.295,645.1016 494.295,645.4453 Q494.295,645.7891 493.9513,646.1953 Q493.4513,646.7734 492.6544,647.1016 Q491.5763,647.5547 490.2794,647.5547 Q488.7638,647.5547 487.5606,646.9297 Q486.5763,646.4297 485.8888,645.3672 Q485.2013,644.2891 485.2013,643.0078 L485.2013,641.8516 Q485.2013,640.5234 485.8106,639.3828 Q486.4356,638.2266 487.5294,637.6172 Q488.6231,636.9922 489.8575,636.9922 Q490.5919,636.9922 491.2325,637.1641 Q491.8888,637.3203 492.4356,637.6797 Z " fill="#000000"/><text fill="#000000" font-family="sans-serif" font-size="12" font-style="italic" lengthAdjust="spacing" textLength="81" x="501.67" y="637.4629">&#171;value object&#187;</text><text fill="#000000" font-family="sans-serif" font-size="14" lengthAdjust="spacing" textLength="40" x="522.17" y="655.582">Grade</text><line style="stroke:#181818;stroke-width:0.5;" x1="475.67" x2="582.67" y1="664.0957" y2="664.0957"/><line style="stroke:#181818;stroke-width:0.5;" x1="475.67" x2="582.67" y1="672.0957" y2="672.0957"/></g><!--class Course--><g id="elem_Course"><rect codeLine="42" fill="#F1F1F1" height="95.1641" id="Course" rx="2.5" ry="2.5" style="stroke:#181818;stroke-width:0.5;" width="124" x="138.67" y="161.5137"/><ellipse cx="174.37" cy="191.7852" fill="#ADD1B2" rx="11" ry="11" style="stroke:#181818;stroke-width:1.0;"/><path d="M177.1356,187.6602 Q177.2919,187.4414 177.4794,187.332 Q177.6669,187.2227 177.8856,187.2227 Q178.2606,187.2227 178.495,187.4883 Q178.7294,187.7383 178.7294,188.3477 L178.7294,189.8008 Q178.7294,190.4102 178.495,190.6758 Q178.2606,190.9414 177.8856,190.9414 Q177.5419,190.9414 177.3388,190.7383 Q177.1356,190.5508 177.0263,190.0352 Q176.9794,189.6758 176.7919,189.4883 Q176.4638,189.1133 175.8544,188.8945 Q175.245,188.6758 174.62,188.6758 Q173.8544,188.6758 173.2138,189.0039 Q172.5888,189.332 172.0888,190.082 Q171.6044,190.832 171.6044,191.8633 L171.6044,192.957 Q171.6044,194.1914 172.495,195.0195 Q173.3856,195.832 174.9794,195.832 Q175.9169,195.832 176.5731,195.582 Q176.9638,195.4258 177.3856,194.9883 Q177.6513,194.7227 177.7919,194.6445 Q177.9481,194.5664 178.1513,194.5664 Q178.4794,194.5664 178.7294,194.832 Q178.995,195.082 178.995,195.4258 Q178.995,195.7695 178.6513,196.1758 Q178.1513,196.7539 177.3544,197.082 Q176.2763,197.5352 174.9794,197.5352 Q173.4638,197.5352 172.2606,196.9102 Q171.2763,196.4102 170.5888,195.3477 Q169.9013,194.2695 169.9013,192.9883 L169.9013,191.832 Q169.9013,190.5039 170.5106,189.3633 Q171.1356,188.207 172.2294,187.5977 Q173.3231,186.9727 174.5575,186.9727 Q175.2919,186.9727 175.9325,187.1445 Q176.5888,187.3008 177.1356,187.6602 Z " fill="#000000"/><text fill="#000000" font-family="sans-serif" font-size="12" font-style="italic" lengthAdjust="spacing" textLength="35" x="198.47" y="179.4629">&#171;root&#187;</text><text fill="#000000" font-family="sans-serif" font-size="12" font-style="italic" lengthAdjust="spacing" textLength="43" x="194.47" y="195.4238">&#171;entity&#187;</text><text fill="#000000" font-family="sans-serif" font-size="14" lengthAdjust="spacing" textLength="46" x="192.97" y="213.543">Course</text><line style="stroke:#181818;stroke-width:0.5;" x1="139.67" x2="261.67" y1="222.0566" y2="222.0566"/><ellipse cx="149.67" cy="236.8672" fill="#000000" rx="3" ry="3" style="stroke:#000000;stroke-width:1.0;"/><text fill="#000000" font-family="sans-serif" font-size="14" lengthAdjust="spacing" textLength="98" x="158.67" y="241.1641">name &#171;unique&#187;</text><line style="stroke:#181818;stroke-width:0.5;" x1="139.67" x2="261.67" y1="248.6777" y2="248.6777"/></g><!--class CourseStatus--><g id="elem_CourseStatus"><rect codeLine="47" fill="#F1F1F1" height="97.8242" id="CourseStatus" rx="2.5" ry="2.5" style="stroke:#181818;stroke-width:0.5;" width="118" x="470.17" y="62.0137"/><ellipse cx="485.17" cy="84.3047" fill="#EB937F" rx="11" ry="11" style="stroke:#181818;stroke-width:1.0;"/><path d="M484.0294,85.1016 L484.0294,87.6016 L488.3575,87.6016 L488.3575,86.6797 Q488.3575,86.0703 488.5919,85.8047 Q488.8419,85.5391 489.2169,85.5391 Q489.5919,85.5391 489.8263,85.8047 Q490.0606,86.0703 490.0606,86.6797 L490.0606,89.3047 L482.0606,89.3047 Q481.4356,89.3047 481.17,89.0703 Q480.92,88.8359 480.92,88.4453 Q480.92,88.0703 481.1856,87.8359 Q481.4513,87.6016 482.0606,87.6016 L482.3263,87.6016 L482.3263,80.9453 L482.0606,80.9453 Q481.4356,80.9453 481.17,80.7109 Q480.92,80.4766 480.92,80.0859 Q480.92,79.7109 481.17,79.4766 Q481.4356,79.2422 482.0606,79.2422 L489.6856,79.2422 L489.6856,81.8359 Q489.6856,82.4453 489.4513,82.7109 Q489.2325,82.9609 488.8419,82.9609 Q488.4669,82.9609 488.2325,82.7109 Q487.9981,82.4453 487.9981,81.8359 L487.9981,80.9453 L484.0294,80.9453 L484.0294,83.3984 L485.5138,83.3984 Q485.5138,82.7422 485.6388,82.5547 Q485.9044,82.1484 486.3731,82.1484 Q486.7481,82.1484 486.9825,82.4141 Q487.2169,82.6641 487.2169,83.2734 L487.2169,85.2422 Q487.2169,85.7891 487.0919,85.9766 Q486.8263,86.3672 486.3731,86.3672 Q485.9044,86.3672 485.6388,85.9609 Q485.5138,85.7734 485.5138,85.1016 L484.0294,85.1016 Z " fill="#000000"/><text fill="#000000" font-family="sans-serif" font-size="12" font-style="italic" lengthAdjust="spacing" textLength="46" x="519.17" y="79.9629">&#171;enum&#187;</text><text fill="#000000" font-family="sans-serif" font-size="14" lengthAdjust="spacing" textLength="86" x="499.17" y="98.082">CourseStatus</text><line style="stroke:#181818;stroke-width:0.5;" x1="471.17" x2="587.17" y1="106.5957" y2="106.5957"/><ellipse cx="481.17" cy="121.4063" fill="none" rx="3" ry="3" style="stroke:#038048;stroke-width:1.0;"/><text fill="#000000" font-family="sans-serif" font-size="14" lengthAdjust="spacing" textLength="38" x="490.17" y="125.7031">OPEN</text><ellipse cx="481.17" cy="140.0273" fill="none" rx="3" ry="3" style="stroke:#038048;stroke-width:1.0;"/><text fill="#000000" font-family="sans-serif" font-size="14" lengthAdjust="spacing" textLength="57" x="490.17" y="144.3242">CLOSED</text><line style="stroke:#181818;stroke-width:0.5;" x1="471.17" x2="587.17" y1="151.8379" y2="151.8379"/></g><!--class CourseCode--><g id="elem_CourseCode"><rect codeLine="52" fill="#F1F1F1" height="60.582" id="CourseCode" rx="2.5" ry="2.5" style="stroke:#181818;stroke-width:0.5;" width="112" x="473.17" y="195.5137"/><ellipse cx="488.17" cy="217.8047" fill="#ADD1B2" rx="11" ry="11" style="stroke:#181818;stroke-width:1.0;"/><path d="M490.9356,213.6797 Q491.0919,213.4609 491.2794,213.3516 Q491.4669,213.2422 491.6856,213.2422 Q492.0606,213.2422 492.295,213.5078 Q492.5294,213.7578 492.5294,214.3672 L492.5294,215.8203 Q492.5294,216.4297 492.295,216.6953 Q492.0606,216.9609 491.6856,216.9609 Q491.3419,216.9609 491.1388,216.7578 Q490.9356,216.5703 490.8263,216.0547 Q490.7794,215.6953 490.5919,215.5078 Q490.2638,215.1328 489.6544,214.9141 Q489.045,214.6953 488.42,214.6953 Q487.6544,214.6953 487.0138,215.0234 Q486.3888,215.3516 485.8888,216.1016 Q485.4044,216.8516 485.4044,217.8828 L485.4044,218.9766 Q485.4044,220.2109 486.295,221.0391 Q487.1856,221.8516 488.7794,221.8516 Q489.7169,221.8516 490.3731,221.6016 Q490.7638,221.4453 491.1856,221.0078 Q491.4513,220.7422 491.5919,220.6641 Q491.7481,220.5859 491.9513,220.5859 Q492.2794,220.5859 492.5294,220.8516 Q492.795,221.1016 492.795,221.4453 Q492.795,221.7891 492.4513,222.1953 Q491.9513,222.7734 491.1544,223.1016 Q490.0763,223.5547 488.7794,223.5547 Q487.2638,223.5547 486.0606,222.9297 Q485.0763,222.4297 484.3888,221.3672 Q483.7013,220.2891 483.7013,219.0078 L483.7013,217.8516 Q483.7013,216.5234 484.3106,215.3828 Q484.9356,214.2266 486.0294,213.6172 Q487.1231,212.9922 488.3575,212.9922 Q489.0919,212.9922 489.7325,213.1641 Q490.3888,213.3203 490.9356,213.6797 Z " fill="#000000"/><text fill="#000000" font-family="sans-serif" font-size="12" font-style="italic" lengthAdjust="spacing" textLength="81" x="501.67" y="213.4629">&#171;value object&#187;</text><text fill="#000000" font-family="sans-serif" font-size="14" lengthAdjust="spacing" textLength="80" x="502.17" y="231.582">CourseCode</text><line style="stroke:#181818;stroke-width:0.5;" x1="474.17" x2="584.17" y1="240.0957" y2="240.0957"/><line style="stroke:#181818;stroke-width:0.5;" x1="474.17" x2="584.17" y1="248.0957" y2="248.0957"/></g><!--class Exam--><g id="elem_Exam"><rect codeLine="56" fill="#F1F1F1" height="169.6484" id="Exam" rx="2.5" ry="2.5" style="stroke:#181818;stroke-width:0.5;" width="120" x="140.67" y="353.0137"/><ellipse cx="177.27" cy="383.2852" fill="#ADD1B2" rx="11" ry="11" style="stroke:#181818;stroke-width:1.0;"/><path d="M180.0356,379.1602 Q180.1919,378.9414 180.3794,378.832 Q180.5669,378.7227 180.7856,378.7227 Q181.1606,378.7227 181.395,378.9883 Q181.6294,379.2383 181.6294,379.8477 L181.6294,381.3008 Q181.6294,381.9102 181.395,382.1758 Q181.1606,382.4414 180.7856,382.4414 Q180.4419,382.4414 180.2388,382.2383 Q180.0356,382.0508 179.9263,381.5352 Q179.8794,381.1758 179.6919,380.9883 Q179.3638,380.6133 178.7544,380.3945 Q178.145,380.1758 177.52,380.1758 Q176.7544,380.1758 176.1138,380.5039 Q175.4888,380.832 174.9888,381.582 Q174.5044,382.332 174.5044,383.3633 L174.5044,384.457 Q174.5044,385.6914 175.395,386.5195 Q176.2856,387.332 177.8794,387.332 Q178.8169,387.332 179.4731,387.082 Q179.8638,386.9258 180.2856,386.4883 Q180.5513,386.2227 180.6919,386.1445 Q180.8481,386.0664 181.0513,386.0664 Q181.3794,386.0664 181.6294,386.332 Q181.895,386.582 181.895,386.9258 Q181.895,387.2695 181.5513,387.6758 Q181.0513,388.2539 180.2544,388.582 Q179.1763,389.0352 177.8794,389.0352 Q176.3638,389.0352 175.1606,388.4102 Q174.1763,387.9102 173.4888,386.8477 Q172.8013,385.7695 172.8013,384.4883 L172.8013,383.332 Q172.8013,382.0039 173.4106,380.8633 Q174.0356,379.707 175.1294,379.0977 Q176.2231,378.4727 177.4575,378.4727 Q178.1919,378.4727 178.8325,378.6445 Q179.4888,378.8008 180.0356,379.1602 Z " fill="#000000"/><text fill="#000000" font-family="sans-serif" font-size="12" font-style="italic" lengthAdjust="spacing" textLength="35" x="198.57" y="370.9629">&#171;root&#187;</text><text fill="#000000" font-family="sans-serif" font-size="12" font-style="italic" lengthAdjust="spacing" textLength="44" x="194.07" y="386.9238">&#171;event&#187;</text><text fill="#000000" font-family="sans-serif" font-size="14" lengthAdjust="spacing" textLength="34" x="199.07" y="405.043">Exam</text><line style="stroke:#181818;stroke-width:0.5;" x1="141.67" x2="259.67" y1="413.5566" y2="413.5566"/><ellipse cx="151.67" cy="428.3672" fill="#000000" rx="3" ry="3" style="stroke:#000000;stroke-width:1.0;"/><text fill="#000000" font-family="sans-serif" font-size="14" lengthAdjust="spacing" textLength="94" x="160.67" y="432.6641">code &#171;unique&#187;</text><ellipse cx="151.67" cy="446.9883" fill="#000000" rx="3" ry="3" style="stroke:#000000;stroke-width:1.0;"/><text fill="#000000" font-family="sans-serif" font-size="14" lengthAdjust="spacing" textLength="85" x="160.67" y="451.2852">title &#171;unique&#187;</text><ellipse cx="151.67" cy="465.6094" fill="#000000" rx="3" ry="3" style="stroke:#000000;stroke-width:1.0;"/><text fill="#000000" font-family="sans-serif" font-size="14" lengthAdjust="spacing" textLength="62" x="160.67" y="469.9063">openDate</text><ellipse cx="151.67" cy="484.2305" fill="#000000" rx="3" ry="3" style="stroke:#000000;stroke-width:1.0;"/><text fill="#000000" font-family="sans-serif" font-size="14" lengthAdjust="spacing" textLength="63" x="160.67" y="488.5273">closeDate</text><ellipse cx="151.67" cy="502.8516" fill="#000000" rx="3" ry="3" style="stroke:#000000;stroke-width:1.0;"/><text fill="#000000" font-family="sans-serif" font-size="14" lengthAdjust="spacing" textLength="80" x="160.67" y="507.1484">CourseCode</text><line style="stroke:#181818;stroke-width:0.5;" x1="141.67" x2="259.67" y1="514.6621" y2="514.6621"/></g><!--class ExamGrade--><g id="elem_ExamGrade"><rect codeLine="64" fill="#F1F1F1" height="60.582" id="ExamGrade" rx="2.5" ry="2.5" style="stroke:#181818;stroke-width:0.5;" width="109" x="474.67" y="447.5137"/><ellipse cx="489.67" cy="469.8047" fill="#ADD1B2" rx="11" ry="11" style="stroke:#181818;stroke-width:1.0;"/><path d="M492.4356,465.6797 Q492.5919,465.4609 492.7794,465.3516 Q492.9669,465.2422 493.1856,465.2422 Q493.5606,465.2422 493.795,465.5078 Q494.0294,465.7578 494.0294,466.3672 L494.0294,467.8203 Q494.0294,468.4297 493.795,468.6953 Q493.5606,468.9609 493.1856,468.9609 Q492.8419,468.9609 492.6388,468.7578 Q492.4356,468.5703 492.3263,468.0547 Q492.2794,467.6953 492.0919,467.5078 Q491.7638,467.1328 491.1544,466.9141 Q490.545,466.6953 489.92,466.6953 Q489.1544,466.6953 488.5138,467.0234 Q487.8888,467.3516 487.3888,468.1016 Q486.9044,468.8516 486.9044,469.8828 L486.9044,470.9766 Q486.9044,472.2109 487.795,473.0391 Q488.6856,473.8516 490.2794,473.8516 Q491.2169,473.8516 491.8731,473.6016 Q492.2638,473.4453 492.6856,473.0078 Q492.9513,472.7422 493.0919,472.6641 Q493.2481,472.5859 493.4513,472.5859 Q493.7794,472.5859 494.0294,472.8516 Q494.295,473.1016 494.295,473.4453 Q494.295,473.7891 493.9513,474.1953 Q493.4513,474.7734 492.6544,475.1016 Q491.5763,475.5547 490.2794,475.5547 Q488.7638,475.5547 487.5606,474.9297 Q486.5763,474.4297 485.8888,473.3672 Q485.2013,472.2891 485.2013,471.0078 L485.2013,469.8516 Q485.2013,468.5234 485.8106,467.3828 Q486.4356,466.2266 487.5294,465.6172 Q488.6231,464.9922 489.8575,464.9922 Q490.5919,464.9922 491.2325,465.1641 Q491.8888,465.3203 492.4356,465.6797 Z " fill="#000000"/><text fill="#000000" font-family="sans-serif" font-size="12" font-style="italic" lengthAdjust="spacing" textLength="81" x="501.67" y="465.4629">&#171;value object&#187;</text><text fill="#000000" font-family="sans-serif" font-size="14" lengthAdjust="spacing" textLength="74" x="505.17" y="483.582">ExamGrade</text><line style="stroke:#181818;stroke-width:0.5;" x1="475.67" x2="582.67" y1="492.0957" y2="492.0957"/><line style="stroke:#181818;stroke-width:0.5;" x1="475.67" x2="582.67" y1="500.0957" y2="500.0957"/></g><!--class TakeExamService--><g id="elem_TakeExamService"><rect codeLine="68" fill="#F1F1F1" height="60.582" id="TakeExamService" rx="2.5" ry="2.5" style="stroke:#181818;stroke-width:0.5;" width="145" x="456.67" y="1435.5137"/><ellipse cx="471.67" cy="1457.8047" fill="#ADD1B2" rx="11" ry="11" style="stroke:#181818;stroke-width:1.0;"/><path d="M474.4356,1453.6797 Q474.5919,1453.4609 474.7794,1453.3516 Q474.9669,1453.2422 475.1856,1453.2422 Q475.5606,1453.2422 475.795,1453.5078 Q476.0294,1453.7578 476.0294,1454.3672 L476.0294,1455.8203 Q476.0294,1456.4297 475.795,1456.6953 Q475.5606,1456.9609 475.1856,1456.9609 Q474.8419,1456.9609 474.6388,1456.7578 Q474.4356,1456.5703 474.3263,1456.0547 Q474.2794,1455.6953 474.0919,1455.5078 Q473.7638,1455.1328 473.1544,1454.9141 Q472.545,1454.6953 471.92,1454.6953 Q471.1544,1454.6953 470.5138,1455.0234 Q469.8888,1455.3516 469.3888,1456.1016 Q468.9044,1456.8516 468.9044,1457.8828 L468.9044,1458.9766 Q468.9044,1460.2109 469.795,1461.0391 Q470.6856,1461.8516 472.2794,1461.8516 Q473.2169,1461.8516 473.8731,1461.6016 Q474.2638,1461.4453 474.6856,1461.0078 Q474.9513,1460.7422 475.0919,1460.6641 Q475.2481,1460.5859 475.4513,1460.5859 Q475.7794,1460.5859 476.0294,1460.8516 Q476.295,1461.1016 476.295,1461.4453 Q476.295,1461.7891 475.9513,1462.1953 Q475.4513,1462.7734 474.6544,1463.1016 Q473.5763,1463.5547 472.2794,1463.5547 Q470.7638,1463.5547 469.5606,1462.9297 Q468.5763,1462.4297 467.8888,1461.3672 Q467.2013,1460.2891 467.2013,1459.0078 L467.2013,1457.8516 Q467.2013,1456.5234 467.8106,1455.3828 Q468.4356,1454.2266 469.5294,1453.6172 Q470.6231,1452.9922 471.8575,1452.9922 Q472.5919,1452.9922 473.2325,1453.1641 Q473.8888,1453.3203 474.4356,1453.6797 Z " fill="#000000"/><text fill="#000000" font-family="sans-serif" font-size="12" font-style="italic" lengthAdjust="spacing" textLength="53" x="515.67" y="1453.4629">&#171;service&#187;</text><text fill="#000000" font-family="sans-serif" font-size="14" lengthAdjust="spacing" textLength="113" x="485.67" y="1471.582">TakeExamService</text><line style="stroke:#181818;stroke-width:0.5;" x1="457.67" x2="600.67" y1="1480.0957" y2="1480.0957"/><line style="stroke:#181818;stroke-width:0.5;" x1="457.67" x2="600.67" y1="1488.0957" y2="1488.0957"/></g><!--class ListExamCoursesService--><g id="elem_ListExamCoursesService"><rect codeLine="72" fill="#F1F1F1" height="48" id="ListExamCoursesService" rx="2.5" ry="2.5" style="stroke:#181818;stroke-width:0.5;" width="188" x="435.17" y="1532.0137"/><ellipse cx="450.17" cy="1548.0137" fill="#ADD1B2" rx="11" ry="11" style="stroke:#181818;stroke-width:1.0;"/><path d="M452.9356,1543.8887 Q453.0919,1543.6699 453.2794,1543.5605 Q453.4669,1543.4512 453.6856,1543.4512 Q454.0606,1543.4512 454.295,1543.7168 Q454.5294,1543.9668 454.5294,1544.5762 L454.5294,1546.0293 Q454.5294,1546.6387 454.295,1546.9043 Q454.0606,1547.1699 453.6856,1547.1699 Q453.3419,1547.1699 453.1388,1546.9668 Q452.9356,1546.7793 452.8263,1546.2637 Q452.7794,1545.9043 452.5919,1545.7168 Q452.2638,1545.3418 451.6544,1545.123 Q451.045,1544.9043 450.42,1544.9043 Q449.6544,1544.9043 449.0138,1545.2324 Q448.3888,1545.5605 447.8888,1546.3105 Q447.4044,1547.0605 447.4044,1548.0918 L447.4044,1549.1855 Q447.4044,1550.4199 448.295,1551.248 Q449.1856,1552.0605 450.7794,1552.0605 Q451.7169,1552.0605 452.3731,1551.8105 Q452.7638,1551.6543 453.1856,1551.2168 Q453.4513,1550.9512 453.5919,1550.873 Q453.7481,1550.7949 453.9513,1550.7949 Q454.2794,1550.7949 454.5294,1551.0605 Q454.795,1551.3105 454.795,1551.6543 Q454.795,1551.998 454.4513,1552.4043 Q453.9513,1552.9824 453.1544,1553.3105 Q452.0763,1553.7637 450.7794,1553.7637 Q449.2638,1553.7637 448.0606,1553.1387 Q447.0763,1552.6387 446.3888,1551.5762 Q445.7013,1550.498 445.7013,1549.2168 L445.7013,1548.0605 Q445.7013,1546.7324 446.3106,1545.5918 Q446.9356,1544.4355 448.0294,1543.8262 Q449.1231,1543.2012 450.3575,1543.2012 Q451.0919,1543.2012 451.7325,1543.373 Q452.3888,1543.5293 452.9356,1543.8887 Z " fill="#000000"/><text fill="#000000" font-family="sans-serif" font-size="14" lengthAdjust="spacing" textLength="156" x="464.17" y="1553.8105">ListExamCoursesService</text><line style="stroke:#181818;stroke-width:0.5;" x1="436.17" x2="622.17" y1="1564.0137" y2="1564.0137"/><line style="stroke:#181818;stroke-width:0.5;" x1="436.17" x2="622.17" y1="1572.0137" y2="1572.0137"/></g><!--link SystemUser to EmailAdderss--><g id="link_SystemUser_EmailAdderss"><path codeLine="79" d="M582.85,1293.3437 C611.95,1286.3437 648.3,1277.5937 678.93,1270.2237 " fill="none" id="SystemUser-to-EmailAdderss" style="stroke:#181818;stroke-width:1.0;"/><polygon fill="#181818" points="683.79,1269.0537,674.103,1267.2753,678.9294,1270.2259,675.9787,1275.0523,683.79,1269.0537" style="stroke:#181818;stroke-width:1.0;"/><text fill="#000000" font-family="sans-serif" font-size="13" lengthAdjust="spacing" textLength="7" x="669.1265" y="1285.8723">1</text></g><!--link SystemUser to Password--><g id="link_SystemUser_Password"><path codeLine="80" d="M582.85,1269.4837 C616.76,1245.9737 660.53,1215.6237 693.61,1192.6837 " fill="none" id="SystemUser-to-Password" style="stroke:#181818;stroke-width:1.0;"/><polygon fill="#181818" points="698,1189.6437,688.3218,1191.4691,693.8865,1192.486,692.8695,1198.0507,698,1189.6437" style="stroke:#181818;stroke-width:1.0;"/><text fill="#000000" font-family="sans-serif" font-size="13" lengthAdjust="spacing" textLength="7" x="681.7223" y="1211.1987">1</text></g><!--link SystemUser to Role--><g id="link_SystemUser_Role"><path codeLine="81" d="M582.85,1319.4337 C614.51,1327.4937 654.75,1337.7437 686.87,1345.9237 " fill="none" id="SystemUser-to-Role" style="stroke:#181818;stroke-width:1.0;"/><polygon fill="#181818" points="691.95,1347.2237,684.2099,1341.1334,687.1035,1345.9942,682.2427,1348.8878,691.95,1347.2237" style="stroke:#181818;stroke-width:1.0;"/><text fill="#000000" font-family="sans-serif" font-size="13" lengthAdjust="spacing" textLength="7" x="677.255" y="1360.6549">1</text></g><!--link eCourseSystemUser to SystemUser--><g id="link_eCourseSystemUser_SystemUser"><path codeLine="83" d="M224.7,955.5437 C263.17,1017.9437 345.2,1143.0137 435.17,1231.0137 C446.36,1241.9637 459.04,1252.9737 471.35,1263.0537 " fill="none" id="eCourseSystemUser-to-SystemUser" style="stroke:#181818;stroke-width:1.0;"/><polygon fill="#181818" points="475.51,1266.4437,471.0473,1257.6639,471.6294,1263.2907,466.0026,1263.8728,475.51,1266.4437" style="stroke:#181818;stroke-width:1.0;"/><text fill="#000000" font-family="sans-serif" font-size="13" lengthAdjust="spacing" textLength="7" x="460.8291" y="1276.3309">1</text></g><!--link eCourseSystemUser to Role--><g id="link_eCourseSystemUser_Role"><path codeLine="84" d="M206.47,955.6637 C220.68,1050.7937 272.28,1294.7037 435.17,1380.0137 C514.95,1421.7937 622.81,1399.8637 687.16,1380.0237 " fill="none" id="eCourseSystemUser-to-Role" style="stroke:#181818;stroke-width:1.0;"/><polygon fill="#181818" points="692.1,1378.4737,682.3147,1377.3569,687.3301,1379.9732,684.7139,1384.9887,692.1,1378.4737" style="stroke:#181818;stroke-width:1.0;"/><text fill="#000000" font-family="sans-serif" font-size="13" lengthAdjust="spacing" textLength="7" x="677.085" y="1396.4682">1</text></g><!--link eCourseSystemUser to UserStatus--><g id="link_eCourseSystemUser_UserStatus"><path codeLine="85" d="M246.68,955.5437 C266.25,972.0037 289.6,991.2537 311.17,1008.0137 C364.94,1049.7937 379.99,1058.1137 435.17,1098.0137 C447.77,1107.1237 461.35,1116.9237 474.13,1126.1337 " fill="none" id="eCourseSystemUser-to-UserStatus" style="stroke:#181818;stroke-width:1.0;"/><polygon fill="#181818" points="478.43,1129.2337,473.4879,1120.7145,474.3808,1126.3005,468.7948,1127.1933,478.43,1129.2337" style="stroke:#181818;stroke-width:1.0;"/><text fill="#000000" font-family="sans-serif" font-size="13" lengthAdjust="spacing" textLength="7" x="463.8025" y="1139.4586">1</text></g><!--link eCourseSystemUser to Acronym--><g id="link_eCourseSystemUser_Acronym"><path codeLine="86" d="M281.54,949.5537 C339.82,973.2837 417.47,1004.9237 469.95,1026.3037 " fill="none" id="eCourseSystemUser-to-Acronym" style="stroke:#181818;stroke-width:1.0;"/><polygon fill="#181818" points="474.64,1028.2037,467.8144,1021.1036,470.0095,1026.3172,464.796,1028.5124,474.64,1028.2037" style="stroke:#181818;stroke-width:1.0;"/><text fill="#000000" font-family="sans-serif" font-size="13" lengthAdjust="spacing" textLength="7" x="459.8422" y="1040.4911">1</text></g><!--link eCourseSystemUser to NIF--><g id="link_eCourseSystemUser_NIF"><path codeLine="87" d="M281.54,926.0637 C339.7,932.6537 417.16,941.4337 469.64,947.3837 " fill="none" id="eCourseSystemUser-to-NIF" style="stroke:#181818;stroke-width:1.0;"/><polygon fill="#181818" points="474.64,947.9437,466.1415,942.9662,469.6711,947.3868,465.2505,950.9164,474.64,947.9437" style="stroke:#181818;stroke-width:1.0;"/><text fill="#000000" font-family="sans-serif" font-size="13" lengthAdjust="spacing" textLength="7" x="459.8422" y="962.3462">1</text></g><!--link eCourseSystemUser to BirthDate--><g id="link_eCourseSystemUser_BirthDate"><path codeLine="88" d="M281.54,902.5837 C339.7,892.0737 417.16,878.0737 469.64,868.5937 " fill="none" id="eCourseSystemUser-to-BirthDate" style="stroke:#181818;stroke-width:1.0;"/><polygon fill="#181818" points="474.64,867.6837,465.0679,865.3655,469.7213,868.5819,466.505,873.2353,474.64,867.6837" style="stroke:#181818;stroke-width:1.0;"/><text fill="#000000" font-family="sans-serif" font-size="13" lengthAdjust="spacing" textLength="7" x="459.8422" y="884.2012">1</text></g><!--link eCourseSystemUser to MechanographicNumber--><g id="link_eCourseSystemUser_MechanographicNumber"><path codeLine="89" d="M279.05,878.3837 C329.38,853.2537 394.95,820.5237 446.19,794.9437 " fill="none" id="eCourseSystemUser-to-MechanographicNumber" style="stroke:#181818;stroke-width:1.0;"/><polygon fill="#181818" points="450.78,792.6437,440.9407,793.0783,446.305,794.874,444.5093,800.2383,450.78,792.6437" style="stroke:#181818;stroke-width:1.0;"/><text fill="#000000" font-family="sans-serif" font-size="13" lengthAdjust="spacing" textLength="7" x="431.2406" y="813.946">1</text></g><!--link eCourseSystemUser to Grade--><g id="link_eCourseSystemUser_Grade"><path codeLine="90" d="M250.48,878.2337 C302.19,836.6737 379.81,772.8137 405.17,744.0137 C421.3,725.6937 417.06,714.3737 435.17,698.0137 C445.38,688.7937 457.68,680.8237 469.95,674.1837 " fill="none" id="eCourseSystemUser-to-Grade" style="stroke:#181818;stroke-width:1.0;"/><polygon fill="#181818" points="474.46,671.7937,464.6342,672.4666,470.0404,674.1318,468.3752,679.538,474.46,671.7937" style="stroke:#181818;stroke-width:1.0;"/><polygon fill="#000000" points="319.8318,731.2546,311.2064,735.2611,315.2087,739.5659,319.8318,731.2546" style="stroke:#000000;stroke-width:1.0;"/><text fill="#000000" font-family="sans-serif" font-size="13" lengthAdjust="spacing" textLength="79" x="325.17" y="740.042">student has a</text><text fill="#000000" font-family="sans-serif" font-size="13" lengthAdjust="spacing" textLength="7" x="459.638" y="689.9385">1</text></g><!--link eCourseSystemUser to TakeExamService--><g id="link_eCourseSystemUser_TakeExamService"><path codeLine="92" d="M204.51,955.6237 C213.2,1062.9337 243.14,1361.2337 311.17,1427.0137 C347.81,1462.4437 405.04,1471.5637 451.53,1472.1637 " fill="none" id="eCourseSystemUser-to-TakeExamService" style="stroke:#181818;stroke-width:1.0;"/><polygon fill="#181818" points="456.56,1472.1937,447.5946,1468.1167,451.5602,1472.1508,447.526,1476.1164,456.56,1472.1937" style="stroke:#181818;stroke-width:1.0;"/><polygon fill="#000000" points="347.3271,1422.1699,346.0762,1412.742,340.7735,1415.2778,347.3271,1422.1699" style="stroke:#000000;stroke-width:1.0;"/><text fill="#000000" font-family="sans-serif" font-size="13" lengthAdjust="spacing" textLength="21" x="354.17" y="1423.042">use</text></g><!--link eCourseSystemUser to ListExamCoursesService--><g id="link_eCourseSystemUser_ListExamCoursesService"><path codeLine="93" d="M203.83,955.6237 C211.09,1071.6837 238.38,1414.2937 311.17,1494.0137 C341.32,1527.0337 387.71,1542.9337 429.86,1550.4137 " fill="none" id="eCourseSystemUser-to-ListExamCoursesService" style="stroke:#181818;stroke-width:1.0;"/><polygon fill="#181818" points="434.98,1551.2837,426.7831,1545.8238,430.0515,1550.4408,425.4345,1553.7093,434.98,1551.2837" style="stroke:#181818;stroke-width:1.0;"/><polygon fill="#000000" points="346.9462,1489.3331,346.4803,1479.8339,340.9858,1481.9219,346.9462,1489.3331" style="stroke:#000000;stroke-width:1.0;"/><text fill="#000000" font-family="sans-serif" font-size="13" lengthAdjust="spacing" textLength="21" x="354.17" y="1490.042">use</text></g><!--link eCourseSystemUser to Exam--><g id="link_eCourseSystemUser_Exam"><path codeLine="95" d="M200.67,878.2237 C200.67,801.3837 200.67,628.2237 200.67,523.4337 " fill="none" id="eCourseSystemUser-Exam" style="stroke:#181818;stroke-width:1.0;"/><polygon fill="#000000" points="167.67,695.9092,164.7311,704.9543,170.6089,704.9543,167.67,695.9092" style="stroke:#000000;stroke-width:1.0;"/><text fill="#000000" font-family="sans-serif" font-size="13" lengthAdjust="spacing" textLength="36" x="176.67" y="706.292">take a</text><text fill="#000000" font-family="sans-serif" font-size="13" lengthAdjust="spacing" textLength="5" x="195.2403" y="867.1883">*</text><text fill="#000000" font-family="sans-serif" font-size="13" lengthAdjust="spacing" textLength="5" x="195.4786" y="544.6773">*</text></g><!--link Course to CourseStatus--><g id="link_Course_CourseStatus"><path codeLine="98" d="M262.7,190.6937 C320.42,173.3737 406.66,147.4837 465.05,129.9537 " fill="none" id="Course-to-CourseStatus" style="stroke:#181818;stroke-width:1.0;"/><polygon fill="#181818" points="469.91,128.5037,460.1419,127.2451,465.1189,129.9338,462.4302,134.9109,469.91,128.5037" style="stroke:#181818;stroke-width:1.0;"/><text fill="#000000" font-family="sans-serif" font-size="13" lengthAdjust="spacing" textLength="7" x="455.2611" y="145.728">1</text></g><!--link Course to CourseCode--><g id="link_Course_CourseCode"><path codeLine="99" d="M262.7,212.1937 C321.38,215.2437 409.53,219.8337 467.94,222.8737 " fill="none" id="Course-to-CourseCode" style="stroke:#181818;stroke-width:1.0;"/><polygon fill="#181818" points="473.15,223.1537,464.368,218.6954,468.1566,222.8961,463.9559,226.6848,473.15,223.1537" style="stroke:#181818;stroke-width:1.0;"/><text fill="#000000" font-family="sans-serif" font-size="13" lengthAdjust="spacing" textLength="7" x="458.152" y="237.9875">1</text></g><!--link Course to Grade--><g id="link_Course_Grade"><path codeLine="101" d="M237.98,256.6637 C253.76,279.7537 270.94,308.5837 281.17,337.0137 C314.73,430.2837 251,479.2437 311.17,558.0137 C350.42,609.3937 423.88,632.3937 474.37,642.4737 " fill="none" id="Course-Grade" style="stroke:#181818;stroke-width:1.0;"/><polygon fill="#000000" points="329.5578,544.3958,331.7774,553.6437,336.7893,550.5729,329.5578,544.3958" style="stroke:#000000;stroke-width:1.0;"/><text fill="#000000" font-family="sans-serif" font-size="13" lengthAdjust="spacing" textLength="47" x="341.17" y="554.042">refers to</text><text fill="#000000" font-family="sans-serif" font-size="13" lengthAdjust="spacing" textLength="7" x="235.7345" y="278.597">1</text><text fill="#000000" font-family="sans-serif" font-size="13" lengthAdjust="spacing" textLength="7" x="459.5359" y="656.6786">1</text></g><!--link Course to eCourseSystemUser--><g id="link_Course_eCourseSystemUser"><path codeLine="103" d="M150.99,256.6337 C130.64,279.0537 108.91,307.3637 96.17,337.0137 C6,546.8437 55.74,566.3937 64.17,606.5137 C85.9,709.9537 144.27,820.9937 177.21,878.1137 " fill="none" id="Course-eCourseSystemUser" style="stroke:#181818;stroke-width:1.0;"/><polygon fill="#000000" points="42.9592,592.1636,40.4042,601.3246,46.2768,601.0768,42.9592,592.1636" style="stroke:#000000;stroke-width:1.0;"/><text fill="#000000" font-family="sans-serif" font-size="13" lengthAdjust="spacing" textLength="35" x="52.17" y="602.542">is in a</text><text fill="#000000" font-family="sans-serif" font-size="13" lengthAdjust="spacing" textLength="5" x="138.6522" y="278.5628">*</text><text fill="#000000" font-family="sans-serif" font-size="13" lengthAdjust="spacing" textLength="5" x="167.9104" y="867.3533">*</text></g><!--link Exam to ExamGrade--><g id="link_Exam_ExamGrade"><path codeLine="105" d="M260.8,445.2537 C321.72,452.7237 415.83,464.2537 474.62,471.4537 " fill="none" id="Exam-ExamGrade" style="stroke:#181818;stroke-width:1.0;"/><polygon fill="#000000" points="350.1329,444.2673,341.5124,440.2501,340.7975,446.0843,350.1329,444.2673" style="stroke:#000000;stroke-width:1.0;"/><text fill="#000000" font-family="sans-serif" font-size="13" lengthAdjust="spacing" textLength="21" x="354.17" y="449.042">has</text><text fill="#000000" font-family="sans-serif" font-size="13" lengthAdjust="spacing" textLength="7" x="268.5549" y="461.2395">1</text><text fill="#000000" font-family="sans-serif" font-size="13" lengthAdjust="spacing" textLength="7" x="459.8195" y="485.7903">1</text></g><!--link Exam to CourseCode--><g id="link_Exam_CourseCode"><path codeLine="106" d="M260.8,399.6237 C324.01,358.5737 422.98,294.3137 481.12,256.5637 " fill="none" id="Exam-CourseCode" style="stroke:#181818;stroke-width:1.0;"/><polygon fill="#000000" points="349.3635,294.9362,340.1769,297.3972,343.3779,302.327,349.3635,294.9362" style="stroke:#000000;stroke-width:1.0;"/><text fill="#000000" font-family="sans-serif" font-size="13" lengthAdjust="spacing" textLength="21" x="354.17" y="303.042">has</text><text fill="#000000" font-family="sans-serif" font-size="13" lengthAdjust="spacing" textLength="5" x="268.8245" y="409.8635">*</text><text fill="#000000" font-family="sans-serif" font-size="13" lengthAdjust="spacing" textLength="7" x="464.2933" y="278.1035">1</text></g><!--link ExamGrade to eCourseSystemUser--><g id="link_ExamGrade_eCourseSystemUser"><path codeLine="107" d="M502.07,508.6837 C482.09,533.1437 454.72,568.8537 435.17,603.0137 C418.16,632.7437 428.61,649.0337 405.17,674.0137 C373.21,708.0837 344.95,688.7537 311.17,721.0137 C264.24,765.8437 232.04,835.2637 215.26,878.3337 " fill="none" id="ExamGrade-eCourseSystemUser" style="stroke:#181818;stroke-width:1.0;"/><polygon fill="#000000" points="342.1049,668.6095,349.9717,663.2649,345.3277,659.6617,342.1049,668.6095" style="stroke:#000000;stroke-width:1.0;"/><text fill="#000000" font-family="sans-serif" font-size="13" lengthAdjust="spacing" textLength="21" x="354.17" y="670.042">has</text><text fill="#000000" font-family="sans-serif" font-size="13" lengthAdjust="spacing" textLength="7" x="489.2369" y="530.2463">1</text><text fill="#000000" font-family="sans-serif" font-size="13" lengthAdjust="spacing" textLength="7" x="210.1661" y="867.3172">1</text></g><!--SRC=[XLLDZvim4BtxLrYvh9GgZNf522cRkDLA-LY5tQezUc4Mt0MRsYPjjDh_NfkFO1AW74Wyy-PvnZFFtALQ5yfRBekCSbtcsUT8v4i5lqlW4InYHXD9SuGoUDLO2onPaceSCmcHPe8ZLD3eZIQ0PsHzU3w69FmPFf7TSqYEC-pxgoIHa50DGO3V4SBcYJAg50xFIaF-h40Qb1H26u3l4wwPFbTOt3nplASvE4iRmrlJXyi9Qr5A1V-bleqaEMNPAev1ceNlVwTP2LYy_3951e4BF8eCnl8CjMGymSEvsNH2JNLf-O6NUI_u4oRxrVsME8RDGtYnz9WUpUkFaB7XEOtckOgauETy4hD_-3hflsTIfnlJkqdK3gAKSc6cf4XPj2_pb-hS-m76G4ijSgfPHBFiZ1FW80rrt2Vx9cayjDs7CsVrcDdXehtXwbZgCN2R3qFzieqolf8pC-nj7irHsmurF5DTEpoIlRDSRmyXsTosh2PQYw7QtDB8ZzLkgZ3ob-QziawciAkgedgNIrMTnnn1Dk8I1N3RQPSd4mgkR5qT0n8okKsqhmOzqJUmm13aYKKMgkf_jIulk2rJskBg3LKBVxS8XEwEa55x-wYK5GeXH_2BHO1dNsOzGG_vMn4D-Qp64RgzJ5f_Pve0LIJZxkuwc00r8fv060bFU2y2di0CoNS2NdVOmqgNiPazd5A5AGx6ZkkwtnukZJ234VH8rzkWWQZPV6OYgvzA6nxMPiSw8zHS0stghfg7VTLWjovhjjHEqH9UpJpPhw3VmMm6rVisEmypXHatwHXybPz3skd5gqunQ13p2yAvDLn87UGm3MrSm_y1]--></g></svg>