<?xml version="1.0" encoding="us-ascii" standalone="no"?><svg xmlns="http://www.w3.org/2000/svg" xmlns:xlink="http://www.w3.org/1999/xlink" contentStyleType="text/css" height="1802px" preserveAspectRatio="none" style="width:2666px;height:1802px;background:#FFFFFF;" version="1.1" viewBox="0 0 2666 1802" width="2666px" zoomAndPan="magnify"><defs/><g><rect fill="#FFFFFF" height="1563.4648" style="stroke:#181818;stroke-width:1.0;" width="10" x="42.5" y="121.5332"/><rect fill="#FFFFFF" height="784.6934" style="stroke:#181818;stroke-width:1.0;" width="10" x="267.5" y="121.5332"/><rect fill="#FFFFFF" height="747.4805" style="stroke:#181818;stroke-width:1.0;" width="10" x="267.5" y="937.5176"/><rect fill="#FFFFFF" height="722.1113" style="stroke:#181818;stroke-width:1.0;" width="10" x="481.5" y="152.8242"/><rect fill="#FFFFFF" height="677.8984" style="stroke:#181818;stroke-width:1.0;" width="10" x="481.5" y="968.8086"/><rect fill="#FFFFFF" height="31.291" style="stroke:#181818;stroke-width:1.0;" width="10" x="809.5" y="303.9883"/><rect fill="#FFFFFF" height="31.291" style="stroke:#181818;stroke-width:1.0;" width="10" x="937.5" y="366.5703"/><rect fill="#FFFFFF" height="414.4922" style="stroke:#181818;stroke-width:1.0;" width="10" x="1057.5" y="429.1523"/><rect fill="#FFFFFF" height="471.1523" style="stroke:#181818;stroke-width:1.0;" width="10" x="1057.5" y="1106.9727"/><rect fill="#FFFFFF" height="75.582" style="stroke:#181818;stroke-width:1.0;" width="10" x="1574.5" y="460.4434"/><rect fill="#FFFFFF" height="75.582" style="stroke:#181818;stroke-width:1.0;" width="10" x="1721.5" y="567.3164"/><rect fill="#FFFFFF" height="138.1641" style="stroke:#181818;stroke-width:1.0;" width="10" x="1908" y="674.1895"/><rect fill="#FFFFFF" height="75.582" style="stroke:#181818;stroke-width:1.0;" width="10" x="2127" y="705.4805"/><rect fill="#FFFFFF" height="75.582" style="stroke:#181818;stroke-width:1.0;" width="10" x="2127" y="1000.0996"/><rect fill="#FFFFFF" height="37.291" style="stroke:#181818;stroke-width:1.0;" width="10" x="2127" y="1609.416"/><rect fill="#FFFFFF" height="234.4063" style="stroke:#181818;stroke-width:1.0;" width="10" x="2341" y="1343.7188"/><rect fill="#FFFFFF" height="164.1641" style="stroke:#181818;stroke-width:1.0;" width="10" x="2442" y="1138.2637"/><rect fill="#FFFFFF" height="30" style="stroke:#181818;stroke-width:1.0;" width="10" x="2611" y="1548.125"/><rect fill="none" height="81.873" style="stroke:#000000;stroke-width:1.5;" width="2405" x="10" y="1361.0488"/><line style="stroke:#181818;stroke-width:0.5;stroke-dasharray:5.0,5.0;" x1="47" x2="47" y1="88.2422" y2="1702.998"/><line style="stroke:#181818;stroke-width:0.5;stroke-dasharray:5.0,5.0;" x1="272" x2="272" y1="88.2422" y2="1702.998"/><line style="stroke:#181818;stroke-width:0.5;stroke-dasharray:5.0,5.0;" x1="486" x2="486" y1="88.2422" y2="1702.998"/><line style="stroke:#181818;stroke-width:0.5;stroke-dasharray:5.0,5.0;" x1="672" x2="672" y1="88.2422" y2="1702.998"/><line style="stroke:#181818;stroke-width:0.5;stroke-dasharray:5.0,5.0;" x1="814" x2="814" y1="88.2422" y2="1702.998"/><line style="stroke:#181818;stroke-width:0.5;stroke-dasharray:5.0,5.0;" x1="942" x2="942" y1="88.2422" y2="1702.998"/><line style="stroke:#181818;stroke-width:0.5;stroke-dasharray:5.0,5.0;" x1="1062" x2="1062" y1="88.2422" y2="1702.998"/><line style="stroke:#181818;stroke-width:0.5;stroke-dasharray:5.0,5.0;" x1="1579" x2="1579" y1="88.2422" y2="1702.998"/><line style="stroke:#181818;stroke-width:0.5;stroke-dasharray:5.0,5.0;" x1="1726" x2="1726" y1="88.2422" y2="1702.998"/><line style="stroke:#181818;stroke-width:0.5;stroke-dasharray:5.0,5.0;" x1="1913" x2="1913" y1="88.2422" y2="1702.998"/><line style="stroke:#181818;stroke-width:0.5;stroke-dasharray:5.0,5.0;" x1="2132" x2="2132" y1="88.2422" y2="1702.998"/><line style="stroke:#181818;stroke-width:0.5;stroke-dasharray:5.0,5.0;" x1="2346" x2="2346" y1="1342.2383" y2="1702.998"/><line style="stroke:#181818;stroke-width:0.5;stroke-dasharray:5.0,5.0;" x1="2447" x2="2447" y1="88.2422" y2="1702.998"/><line style="stroke:#181818;stroke-width:0.5;stroke-dasharray:5.0,5.0;" x1="2616" x2="2616" y1="1513.0234" y2="1702.998"/><text fill="#000000" font-family="sans-serif" font-size="14" lengthAdjust="spacing" textLength="49" x="20" y="84.7285">Student</text><ellipse cx="47.5" cy="18.1211" fill="#E2E2F0" rx="8" ry="8" style="stroke:#181818;stroke-width:0.5;"/><path d="M47.5,26.1211 L47.5,53.1211 M34.5,34.1211 L60.5,34.1211 M47.5,53.1211 L34.5,68.1211 M47.5,53.1211 L60.5,68.1211 " fill="none" style="stroke:#181818;stroke-width:0.5;"/><text fill="#000000" font-family="sans-serif" font-size="14" lengthAdjust="spacing" textLength="49" x="20" y="1717.1055">Student</text><ellipse cx="47.5" cy="1729.1191" fill="#E2E2F0" rx="8" ry="8" style="stroke:#181818;stroke-width:0.5;"/><path d="M47.5,1737.1191 L47.5,1764.1191 M34.5,1745.1191 L60.5,1745.1191 M47.5,1764.1191 L34.5,1779.1191 M47.5,1764.1191 L60.5,1779.1191 " fill="none" style="stroke:#181818;stroke-width:0.5;"/><rect fill="#E2E2F0" height="32.6211" rx="2.5" ry="2.5" style="stroke:#181818;stroke-width:0.5;" width="179" x="183" y="54.6211"/><text fill="#000000" font-family="sans-serif" font-size="14" lengthAdjust="spacing" textLength="165" x="190" y="76.7285">:ListExamGradesCourseUI</text><rect fill="#E2E2F0" height="32.6211" rx="2.5" ry="2.5" style="stroke:#181818;stroke-width:0.5;" width="179" x="183" y="1701.998"/><text fill="#000000" font-family="sans-serif" font-size="14" lengthAdjust="spacing" textLength="165" x="190" y="1724.1055">:ListExamGradesCourseUI</text><rect fill="#E2E2F0" height="32.6211" rx="2.5" ry="2.5" style="stroke:#181818;stroke-width:0.5;" width="229" x="372" y="54.6211"/><text fill="#000000" font-family="sans-serif" font-size="14" lengthAdjust="spacing" textLength="215" x="379" y="76.7285">:ListExamGradesCourseController</text><rect fill="#E2E2F0" height="32.6211" rx="2.5" ry="2.5" style="stroke:#181818;stroke-width:0.5;" width="229" x="372" y="1701.998"/><text fill="#000000" font-family="sans-serif" font-size="14" lengthAdjust="spacing" textLength="215" x="379" y="1724.1055">:ListExamGradesCourseController</text><text fill="#000000" font-family="sans-serif" font-size="14" font-style="italic" lengthAdjust="spacing" textLength="79" x="629.5" y="66.1074">&#171;repository&#187;</text><text fill="#000000" font-family="sans-serif" font-size="14" lengthAdjust="spacing" textLength="116" x="611" y="84.7285">RepositoryFactory</text><path d="M654,15 C654,5 672,5 672,5 C672,5 690,5 690,15 L690,41 C690,51 672,51 672,51 C672,51 654,51 654,41 L654,15 " fill="#E2E2F0" style="stroke:#181818;stroke-width:1.5;"/><path d="M654,15 C654,25 672,25 672,25 C672,25 690,25 690,15 " fill="none" style="stroke:#181818;stroke-width:1.5;"/><text fill="#000000" font-family="sans-serif" font-size="14" font-style="italic" lengthAdjust="spacing" textLength="79" x="629.5" y="1717.1055">&#171;repository&#187;</text><text fill="#000000" font-family="sans-serif" font-size="14" lengthAdjust="spacing" textLength="116" x="611" y="1735.7266">RepositoryFactory</text><path d="M654,1749.2402 C654,1739.2402 672,1739.2402 672,1739.2402 C672,1739.2402 690,1739.2402 690,1749.2402 L690,1775.2402 C690,1785.2402 672,1785.2402 672,1785.2402 C672,1785.2402 654,1785.2402 654,1775.2402 L654,1749.2402 " fill="#E2E2F0" style="stroke:#181818;stroke-width:1.5;"/><path d="M654,1749.2402 C654,1759.2402 672,1759.2402 672,1759.2402 C672,1759.2402 690,1759.2402 690,1749.2402 " fill="none" style="stroke:#181818;stroke-width:1.5;"/><rect fill="#E2E2F0" height="32.6211" rx="2.5" ry="2.5" style="stroke:#181818;stroke-width:0.5;" width="143" x="743" y="54.6211"/><text fill="#000000" font-family="sans-serif" font-size="14" lengthAdjust="spacing" textLength="129" x="750" y="76.7285">AuthorizationService</text><rect fill="#E2E2F0" height="32.6211" rx="2.5" ry="2.5" style="stroke:#181818;stroke-width:0.5;" width="143" x="743" y="1701.998"/><text fill="#000000" font-family="sans-serif" font-size="14" lengthAdjust="spacing" textLength="129" x="750" y="1724.1055">AuthorizationService</text><rect fill="#E2E2F0" height="32.6211" rx="2.5" ry="2.5" style="stroke:#181818;stroke-width:0.5;" width="93" x="896" y="54.6211"/><text fill="#000000" font-family="sans-serif" font-size="14" lengthAdjust="spacing" textLength="79" x="903" y="76.7285">UserSession</text><rect fill="#E2E2F0" height="32.6211" rx="2.5" ry="2.5" style="stroke:#181818;stroke-width:0.5;" width="93" x="896" y="1701.998"/><text fill="#000000" font-family="sans-serif" font-size="14" lengthAdjust="spacing" textLength="79" x="903" y="1724.1055">UserSession</text><rect fill="#E2E2F0" height="51.2422" rx="2.5" ry="2.5" style="stroke:#181818;stroke-width:0.5;" width="127" x="999" y="36"/><text fill="#000000" font-family="sans-serif" font-size="14" font-style="italic" lengthAdjust="spacing" textLength="60" x="1032.5" y="58.1074">&#171;service&#187;</text><text fill="#000000" font-family="sans-serif" font-size="14" lengthAdjust="spacing" textLength="113" x="1006" y="76.7285">TakeExamService</text><rect fill="#E2E2F0" height="51.2422" rx="2.5" ry="2.5" style="stroke:#181818;stroke-width:0.5;" width="127" x="999" y="1701.998"/><text fill="#000000" font-family="sans-serif" font-size="14" font-style="italic" lengthAdjust="spacing" textLength="60" x="1032.5" y="1724.1055">&#171;service&#187;</text><text fill="#000000" font-family="sans-serif" font-size="14" lengthAdjust="spacing" textLength="113" x="1006" y="1742.7266">TakeExamService</text><text fill="#000000" font-family="sans-serif" font-size="14" font-style="italic" lengthAdjust="spacing" textLength="79" x="1537" y="66.1074">&#171;repository&#187;</text><text fill="#000000" font-family="sans-serif" font-size="14" lengthAdjust="spacing" textLength="97" x="1528" y="84.7285">UserRepository</text><path d="M1561.5,15 C1561.5,5 1579.5,5 1579.5,5 C1579.5,5 1597.5,5 1597.5,15 L1597.5,41 C1597.5,51 1579.5,51 1579.5,51 C1579.5,51 1561.5,51 1561.5,41 L1561.5,15 " fill="#E2E2F0" style="stroke:#181818;stroke-width:1.5;"/><path d="M1561.5,15 C1561.5,25 1579.5,25 1579.5,25 C1579.5,25 1597.5,25 1597.5,15 " fill="none" style="stroke:#181818;stroke-width:1.5;"/><text fill="#000000" font-family="sans-serif" font-size="14" font-style="italic" lengthAdjust="spacing" textLength="79" x="1537" y="1717.1055">&#171;repository&#187;</text><text fill="#000000" font-family="sans-serif" font-size="14" lengthAdjust="spacing" textLength="97" x="1528" y="1735.7266">UserRepository</text><path d="M1561.5,1749.2402 C1561.5,1739.2402 1579.5,1739.2402 1579.5,1739.2402 C1579.5,1739.2402 1597.5,1739.2402 1597.5,1749.2402 L1597.5,1775.2402 C1597.5,1785.2402 1579.5,1785.2402 1579.5,1785.2402 C1579.5,1785.2402 1561.5,1785.2402 1561.5,1775.2402 L1561.5,1749.2402 " fill="#E2E2F0" style="stroke:#181818;stroke-width:1.5;"/><path d="M1561.5,1749.2402 C1561.5,1759.2402 1579.5,1759.2402 1579.5,1759.2402 C1579.5,1759.2402 1597.5,1759.2402 1597.5,1749.2402 " fill="none" style="stroke:#181818;stroke-width:1.5;"/><rect fill="#E2E2F0" height="51.2422" rx="2.5" ry="2.5" style="stroke:#181818;stroke-width:0.5;" width="143" x="1655" y="36"/><text fill="#000000" font-family="sans-serif" font-size="14" font-style="italic" lengthAdjust="spacing" textLength="50" x="1701.5" y="58.1074">&#171;entity&#187;</text><text fill="#000000" font-family="sans-serif" font-size="14" lengthAdjust="spacing" textLength="129" x="1662" y="76.7285">eCourseSystemUser</text><rect fill="#E2E2F0" height="51.2422" rx="2.5" ry="2.5" style="stroke:#181818;stroke-width:0.5;" width="143" x="1655" y="1701.998"/><text fill="#000000" font-family="sans-serif" font-size="14" font-style="italic" lengthAdjust="spacing" textLength="50" x="1701.5" y="1724.1055">&#171;entity&#187;</text><text fill="#000000" font-family="sans-serif" font-size="14" lengthAdjust="spacing" textLength="129" x="1662" y="1742.7266">eCourseSystemUser</text><rect fill="#E2E2F0" height="51.2422" rx="2.5" ry="2.5" style="stroke:#181818;stroke-width:0.5;" width="210" x="1808" y="36"/><text fill="#000000" font-family="sans-serif" font-size="14" font-style="italic" lengthAdjust="spacing" textLength="60" x="1883" y="58.1074">&#171;service&#187;</text><text fill="#000000" font-family="sans-serif" font-size="14" lengthAdjust="spacing" textLength="196" x="1815" y="76.7285">ListExamGradesCourseService</text><rect fill="#E2E2F0" height="51.2422" rx="2.5" ry="2.5" style="stroke:#181818;stroke-width:0.5;" width="210" x="1808" y="1701.998"/><text fill="#000000" font-family="sans-serif" font-size="14" font-style="italic" lengthAdjust="spacing" textLength="60" x="1883" y="1724.1055">&#171;service&#187;</text><text fill="#000000" font-family="sans-serif" font-size="14" lengthAdjust="spacing" textLength="196" x="1815" y="1742.7266">ListExamGradesCourseService</text><text fill="#000000" font-family="sans-serif" font-size="14" font-style="italic" lengthAdjust="spacing" textLength="79" x="2089.5" y="66.1074">&#171;repository&#187;</text><text fill="#000000" font-family="sans-serif" font-size="14" lengthAdjust="spacing" textLength="102" x="2078" y="84.7285">ExamRepository</text><path d="M2114,15 C2114,5 2132,5 2132,5 C2132,5 2150,5 2150,15 L2150,41 C2150,51 2132,51 2132,51 C2132,51 2114,51 2114,41 L2114,15 " fill="#E2E2F0" style="stroke:#181818;stroke-width:1.5;"/><path d="M2114,15 C2114,25 2132,25 2132,25 C2132,25 2150,25 2150,15 " fill="none" style="stroke:#181818;stroke-width:1.5;"/><text fill="#000000" font-family="sans-serif" font-size="14" font-style="italic" lengthAdjust="spacing" textLength="79" x="2089.5" y="1717.1055">&#171;repository&#187;</text><text fill="#000000" font-family="sans-serif" font-size="14" lengthAdjust="spacing" textLength="102" x="2078" y="1735.7266">ExamRepository</text><path d="M2114,1749.2402 C2114,1739.2402 2132,1739.2402 2132,1739.2402 C2132,1739.2402 2150,1739.2402 2150,1749.2402 L2150,1775.2402 C2150,1785.2402 2132,1785.2402 2132,1785.2402 C2132,1785.2402 2114,1785.2402 2114,1775.2402 L2114,1749.2402 " fill="#E2E2F0" style="stroke:#181818;stroke-width:1.5;"/><path d="M2114,1749.2402 C2114,1759.2402 2132,1759.2402 2132,1759.2402 C2132,1759.2402 2150,1759.2402 2150,1749.2402 " fill="none" style="stroke:#181818;stroke-width:1.5;"/><rect fill="#E2E2F0" height="32.6211" rx="2.5" ry="2.5" style="stroke:#181818;stroke-width:0.5;" width="118" x="2287" y="1701.998"/><text fill="#000000" font-family="sans-serif" font-size="14" lengthAdjust="spacing" textLength="104" x="2294" y="1724.1055">ExamEvalListner</text><rect fill="#E2E2F0" height="51.2422" rx="2.5" ry="2.5" style="stroke:#181818;stroke-width:0.5;" width="64" x="2415" y="36"/><text fill="#000000" font-family="sans-serif" font-size="14" font-style="italic" lengthAdjust="spacing" textLength="50" x="2422" y="58.1074">&#171;entity&#187;</text><text fill="#000000" font-family="sans-serif" font-size="14" lengthAdjust="spacing" textLength="34" x="2430" y="76.7285">Exam</text><rect fill="#E2E2F0" height="51.2422" rx="2.5" ry="2.5" style="stroke:#181818;stroke-width:0.5;" width="64" x="2415" y="1701.998"/><text fill="#000000" font-family="sans-serif" font-size="14" font-style="italic" lengthAdjust="spacing" textLength="50" x="2422" y="1724.1055">&#171;entity&#187;</text><text fill="#000000" font-family="sans-serif" font-size="14" lengthAdjust="spacing" textLength="34" x="2430" y="1742.7266">Exam</text><rect fill="#E2E2F0" height="32.6211" rx="2.5" ry="2.5" style="stroke:#181818;stroke-width:0.5;" width="88" x="2572" y="1701.998"/><text fill="#000000" font-family="sans-serif" font-size="14" lengthAdjust="spacing" textLength="74" x="2579" y="1724.1055">ExamGrade</text><rect fill="#FFFFFF" height="1563.4648" style="stroke:#181818;stroke-width:1.0;" width="10" x="42.5" y="121.5332"/><rect fill="#FFFFFF" height="784.6934" style="stroke:#181818;stroke-width:1.0;" width="10" x="267.5" y="121.5332"/><rect fill="#FFFFFF" height="747.4805" style="stroke:#181818;stroke-width:1.0;" width="10" x="267.5" y="937.5176"/><rect fill="#FFFFFF" height="722.1113" style="stroke:#181818;stroke-width:1.0;" width="10" x="481.5" y="152.8242"/><rect fill="#FFFFFF" height="677.8984" style="stroke:#181818;stroke-width:1.0;" width="10" x="481.5" y="968.8086"/><rect fill="#FFFFFF" height="31.291" style="stroke:#181818;stroke-width:1.0;" width="10" x="809.5" y="303.9883"/><rect fill="#FFFFFF" height="31.291" style="stroke:#181818;stroke-width:1.0;" width="10" x="937.5" y="366.5703"/><rect fill="#FFFFFF" height="414.4922" style="stroke:#181818;stroke-width:1.0;" width="10" x="1057.5" y="429.1523"/><rect fill="#FFFFFF" height="471.1523" style="stroke:#181818;stroke-width:1.0;" width="10" x="1057.5" y="1106.9727"/><rect fill="#FFFFFF" height="75.582" style="stroke:#181818;stroke-width:1.0;" width="10" x="1574.5" y="460.4434"/><rect fill="#FFFFFF" height="75.582" style="stroke:#181818;stroke-width:1.0;" width="10" x="1721.5" y="567.3164"/><rect fill="#FFFFFF" height="138.1641" style="stroke:#181818;stroke-width:1.0;" width="10" x="1908" y="674.1895"/><rect fill="#FFFFFF" height="75.582" style="stroke:#181818;stroke-width:1.0;" width="10" x="2127" y="705.4805"/><rect fill="#FFFFFF" height="75.582" style="stroke:#181818;stroke-width:1.0;" width="10" x="2127" y="1000.0996"/><rect fill="#FFFFFF" height="37.291" style="stroke:#181818;stroke-width:1.0;" width="10" x="2127" y="1609.416"/><rect fill="#FFFFFF" height="234.4063" style="stroke:#181818;stroke-width:1.0;" width="10" x="2341" y="1343.7188"/><rect fill="#FFFFFF" height="164.1641" style="stroke:#181818;stroke-width:1.0;" width="10" x="2442" y="1138.2637"/><rect fill="#FFFFFF" height="30" style="stroke:#181818;stroke-width:1.0;" width="10" x="2611" y="1548.125"/><polygon fill="#181818" points="255.5,117.5332,265.5,121.5332,255.5,125.5332,259.5,121.5332" style="stroke:#181818;stroke-width:1.0;"/><line style="stroke:#181818;stroke-width:1.0;" x1="52.5" x2="261.5" y1="121.5332" y2="121.5332"/><text fill="#000000" font-family="sans-serif" font-size="13" font-weight="bold" lengthAdjust="spacing" textLength="7" x="59.5" y="116.2705">1</text><text fill="#000000" font-family="sans-serif" font-size="13" lengthAdjust="spacing" textLength="168" x="70.5" y="116.2705">Starts asking to take a exam</text><polygon fill="#181818" points="469.5,148.8242,479.5,152.8242,469.5,156.8242,473.5,152.8242" style="stroke:#181818;stroke-width:1.0;"/><line style="stroke:#181818;stroke-width:1.0;" x1="277.5" x2="475.5" y1="152.8242" y2="152.8242"/><text fill="#000000" font-family="sans-serif" font-size="13" font-weight="bold" lengthAdjust="spacing" textLength="7" x="284.5" y="147.5615">2</text><text fill="#000000" font-family="sans-serif" font-size="13" lengthAdjust="spacing" textLength="119" x="295.5" y="147.5615">getTakeableExams()</text><polygon fill="#181818" points="660,180.1152,670,184.1152,660,188.1152,664,184.1152" style="stroke:#181818;stroke-width:1.0;"/><line style="stroke:#181818;stroke-width:1.0;" x1="491.5" x2="666" y1="184.1152" y2="184.1152"/><text fill="#000000" font-family="sans-serif" font-size="13" font-weight="bold" lengthAdjust="spacing" textLength="7" x="498.5" y="178.8525">3</text><text fill="#000000" font-family="sans-serif" font-size="13" lengthAdjust="spacing" textLength="4" x="509.5" y="178.8525">&#160;</text><line style="stroke:#181818;stroke-width:1.0;" x1="491.5" x2="533.5" y1="215.4063" y2="215.4063"/><line style="stroke:#181818;stroke-width:1.0;" x1="533.5" x2="533.5" y1="215.4063" y2="228.4063"/><line style="stroke:#181818;stroke-width:1.0;" x1="492.5" x2="533.5" y1="228.4063" y2="228.4063"/><polygon fill="#181818" points="502.5,224.4063,492.5,228.4063,502.5,232.4063,498.5,228.4063" style="stroke:#181818;stroke-width:1.0;"/><text fill="#000000" font-family="sans-serif" font-size="13" font-weight="bold" lengthAdjust="spacing" textLength="7" x="498.5" y="210.1436">4</text><text fill="#000000" font-family="sans-serif" font-size="13" lengthAdjust="spacing" textLength="119" x="509.5" y="210.1436">getTakeableExams()</text><line style="stroke:#181818;stroke-width:1.0;" x1="491.5" x2="533.5" y1="259.6973" y2="259.6973"/><line style="stroke:#181818;stroke-width:1.0;" x1="533.5" x2="533.5" y1="259.6973" y2="272.6973"/><line style="stroke:#181818;stroke-width:1.0;" x1="492.5" x2="533.5" y1="272.6973" y2="272.6973"/><polygon fill="#181818" points="502.5,268.6973,492.5,272.6973,502.5,276.6973,498.5,272.6973" style="stroke:#181818;stroke-width:1.0;"/><text fill="#000000" font-family="sans-serif" font-size="13" font-weight="bold" lengthAdjust="spacing" textLength="7" x="498.5" y="254.4346">5</text><text fill="#000000" font-family="sans-serif" font-size="13" lengthAdjust="spacing" textLength="53" x="509.5" y="254.4346">getUser()</text><polygon fill="#181818" points="797.5,299.9883,807.5,303.9883,797.5,307.9883,801.5,303.9883" style="stroke:#181818;stroke-width:1.0;"/><line style="stroke:#181818;stroke-width:1.0;" x1="491.5" x2="803.5" y1="303.9883" y2="303.9883"/><text fill="#000000" font-family="sans-serif" font-size="13" font-weight="bold" lengthAdjust="spacing" textLength="7" x="498.5" y="298.7256">6</text><text fill="#000000" font-family="sans-serif" font-size="13" lengthAdjust="spacing" textLength="53" x="509.5" y="298.7256">session()</text><polygon fill="#181818" points="502.5,331.2793,492.5,335.2793,502.5,339.2793,498.5,335.2793" style="stroke:#181818;stroke-width:1.0;"/><line style="stroke:#181818;stroke-width:1.0;stroke-dasharray:2.0,2.0;" x1="496.5" x2="813.5" y1="335.2793" y2="335.2793"/><text fill="#000000" font-family="sans-serif" font-size="13" font-weight="bold" lengthAdjust="spacing" textLength="7" x="508.5" y="330.0166">7</text><text fill="#000000" font-family="sans-serif" font-size="13" lengthAdjust="spacing" textLength="45" x="519.5" y="330.0166">session</text><polygon fill="#181818" points="925.5,362.5703,935.5,366.5703,925.5,370.5703,929.5,366.5703" style="stroke:#181818;stroke-width:1.0;"/><line style="stroke:#181818;stroke-width:1.0;" x1="491.5" x2="931.5" y1="366.5703" y2="366.5703"/><text fill="#000000" font-family="sans-serif" font-size="13" font-weight="bold" lengthAdjust="spacing" textLength="7" x="498.5" y="361.3076">8</text><text fill="#000000" font-family="sans-serif" font-size="13" lengthAdjust="spacing" textLength="113" x="509.5" y="361.3076">authenticatedUser()</text><polygon fill="#181818" points="502.5,393.8613,492.5,397.8613,502.5,401.8613,498.5,397.8613" style="stroke:#181818;stroke-width:1.0;"/><line style="stroke:#181818;stroke-width:1.0;stroke-dasharray:2.0,2.0;" x1="496.5" x2="941.5" y1="397.8613" y2="397.8613"/><text fill="#000000" font-family="sans-serif" font-size="13" font-weight="bold" lengthAdjust="spacing" textLength="7" x="508.5" y="392.5986">9</text><text fill="#000000" font-family="sans-serif" font-size="13" lengthAdjust="spacing" textLength="25" x="519.5" y="392.5986">user</text><polygon fill="#181818" points="1045.5,425.1523,1055.5,429.1523,1045.5,433.1523,1049.5,429.1523" style="stroke:#181818;stroke-width:1.0;"/><line style="stroke:#181818;stroke-width:1.0;" x1="491.5" x2="1051.5" y1="429.1523" y2="429.1523"/><text fill="#000000" font-family="sans-serif" font-size="13" font-weight="bold" lengthAdjust="spacing" textLength="14" x="498.5" y="423.8896">10</text><text fill="#000000" font-family="sans-serif" font-size="13" lengthAdjust="spacing" textLength="159" x="516.5" y="423.8896">getExams(user,repoE,repo)</text><polygon fill="#181818" points="1562.5,456.4434,1572.5,460.4434,1562.5,464.4434,1566.5,460.4434" style="stroke:#181818;stroke-width:1.0;"/><line style="stroke:#181818;stroke-width:1.0;" x1="1067.5" x2="1568.5" y1="460.4434" y2="460.4434"/><text fill="#000000" font-family="sans-serif" font-size="13" font-weight="bold" lengthAdjust="spacing" textLength="14" x="1074.5" y="455.1807">11</text><text fill="#000000" font-family="sans-serif" font-size="13" lengthAdjust="spacing" textLength="470" x="1092.5" y="455.1807">eCourseSystemUser = findUser(SystemUser user, eCourseUserRepository repo )</text><line style="stroke:#181818;stroke-width:1.0;" x1="1584.5" x2="1626.5" y1="491.7344" y2="491.7344"/><line style="stroke:#181818;stroke-width:1.0;" x1="1626.5" x2="1626.5" y1="491.7344" y2="504.7344"/><line style="stroke:#181818;stroke-width:1.0;" x1="1585.5" x2="1626.5" y1="504.7344" y2="504.7344"/><polygon fill="#181818" points="1595.5,500.7344,1585.5,504.7344,1595.5,508.7344,1591.5,504.7344" style="stroke:#181818;stroke-width:1.0;"/><text fill="#000000" font-family="sans-serif" font-size="13" font-weight="bold" lengthAdjust="spacing" textLength="14" x="1591.5" y="486.4717">12</text><text fill="#000000" font-family="sans-serif" font-size="13" lengthAdjust="spacing" textLength="105" x="1609.5" y="486.4717">searchUser(email)</text><polygon fill="#181818" points="1078.5,532.0254,1068.5,536.0254,1078.5,540.0254,1074.5,536.0254" style="stroke:#181818;stroke-width:1.0;"/><line style="stroke:#181818;stroke-width:1.0;stroke-dasharray:2.0,2.0;" x1="1072.5" x2="1578.5" y1="536.0254" y2="536.0254"/><text fill="#000000" font-family="sans-serif" font-size="13" font-weight="bold" lengthAdjust="spacing" textLength="14" x="1084.5" y="530.7627">13</text><text fill="#000000" font-family="sans-serif" font-size="13" lengthAdjust="spacing" textLength="43" x="1102.5" y="530.7627">student</text><polygon fill="#181818" points="1709.5,563.3164,1719.5,567.3164,1709.5,571.3164,1713.5,567.3164" style="stroke:#181818;stroke-width:1.0;"/><line style="stroke:#181818;stroke-width:1.0;" x1="1067.5" x2="1715.5" y1="567.3164" y2="567.3164"/><text fill="#000000" font-family="sans-serif" font-size="13" font-weight="bold" lengthAdjust="spacing" textLength="14" x="1074.5" y="562.0537">14</text><text fill="#000000" font-family="sans-serif" font-size="13" lengthAdjust="spacing" textLength="268" x="1092.5" y="562.0537">getStudentCourses(eCourseSystemUser user)</text><line style="stroke:#181818;stroke-width:1.0;" x1="1731.5" x2="1773.5" y1="598.6074" y2="598.6074"/><line style="stroke:#181818;stroke-width:1.0;" x1="1773.5" x2="1773.5" y1="598.6074" y2="611.6074"/><line style="stroke:#181818;stroke-width:1.0;" x1="1732.5" x2="1773.5" y1="611.6074" y2="611.6074"/><polygon fill="#181818" points="1742.5,607.6074,1732.5,611.6074,1742.5,615.6074,1738.5,611.6074" style="stroke:#181818;stroke-width:1.0;"/><text fill="#000000" font-family="sans-serif" font-size="13" font-weight="bold" lengthAdjust="spacing" textLength="14" x="1738.5" y="593.3447">15</text><text fill="#000000" font-family="sans-serif" font-size="13" lengthAdjust="spacing" textLength="103" x="1756.5" y="593.3447">coursesLearning()</text><polygon fill="#181818" points="1078.5,638.8984,1068.5,642.8984,1078.5,646.8984,1074.5,642.8984" style="stroke:#181818;stroke-width:1.0;"/><line style="stroke:#181818;stroke-width:1.0;stroke-dasharray:2.0,2.0;" x1="1072.5" x2="1725.5" y1="642.8984" y2="642.8984"/><text fill="#000000" font-family="sans-serif" font-size="13" font-weight="bold" lengthAdjust="spacing" textLength="14" x="1084.5" y="637.6357">16</text><text fill="#000000" font-family="sans-serif" font-size="13" lengthAdjust="spacing" textLength="78" x="1102.5" y="637.6357">List&lt;Course&gt;</text><polygon fill="#181818" points="1896,670.1895,1906,674.1895,1896,678.1895,1900,674.1895" style="stroke:#181818;stroke-width:1.0;"/><line style="stroke:#181818;stroke-width:1.0;" x1="1067.5" x2="1902" y1="674.1895" y2="674.1895"/><text fill="#000000" font-family="sans-serif" font-size="13" font-weight="bold" lengthAdjust="spacing" textLength="14" x="1074.5" y="668.9268">17</text><text fill="#000000" font-family="sans-serif" font-size="13" lengthAdjust="spacing" textLength="203" x="1092.5" y="668.9268">getTakeableExams(courses,repoE)</text><polygon fill="#181818" points="2115,701.4805,2125,705.4805,2115,709.4805,2119,705.4805" style="stroke:#181818;stroke-width:1.0;"/><line style="stroke:#181818;stroke-width:1.0;" x1="1918" x2="2121" y1="705.4805" y2="705.4805"/><text fill="#000000" font-family="sans-serif" font-size="13" font-weight="bold" lengthAdjust="spacing" textLength="14" x="1925" y="700.2178">18</text><text fill="#000000" font-family="sans-serif" font-size="13" lengthAdjust="spacing" textLength="172" x="1943" y="700.2178">findAllOfCourse(course.code()</text><line style="stroke:#181818;stroke-width:1.0;" x1="2137" x2="2179" y1="736.7715" y2="736.7715"/><line style="stroke:#181818;stroke-width:1.0;" x1="2179" x2="2179" y1="736.7715" y2="749.7715"/><line style="stroke:#181818;stroke-width:1.0;" x1="2138" x2="2179" y1="749.7715" y2="749.7715"/><polygon fill="#181818" points="2148,745.7715,2138,749.7715,2148,753.7715,2144,749.7715" style="stroke:#181818;stroke-width:1.0;"/><text fill="#000000" font-family="sans-serif" font-size="13" font-weight="bold" lengthAdjust="spacing" textLength="14" x="2144" y="731.5088">19</text><text fill="#000000" font-family="sans-serif" font-size="13" lengthAdjust="spacing" textLength="172" x="2162" y="731.5088">findAllOfCourse(course.code()</text><polygon fill="#181818" points="1929,777.0625,1919,781.0625,1929,785.0625,1925,781.0625" style="stroke:#181818;stroke-width:1.0;"/><line style="stroke:#181818;stroke-width:1.0;stroke-dasharray:2.0,2.0;" x1="1923" x2="2131" y1="781.0625" y2="781.0625"/><text fill="#000000" font-family="sans-serif" font-size="13" font-weight="bold" lengthAdjust="spacing" textLength="14" x="1935" y="775.7998">20</text><text fill="#000000" font-family="sans-serif" font-size="13" lengthAdjust="spacing" textLength="71" x="1953" y="775.7998">List&lt;Exam&gt;</text><polygon fill="#181818" points="1078.5,808.3535,1068.5,812.3535,1078.5,816.3535,1074.5,812.3535" style="stroke:#181818;stroke-width:1.0;"/><line style="stroke:#181818;stroke-width:1.0;stroke-dasharray:2.0,2.0;" x1="1072.5" x2="1912" y1="812.3535" y2="812.3535"/><text fill="#000000" font-family="sans-serif" font-size="13" font-weight="bold" lengthAdjust="spacing" textLength="14" x="1084.5" y="807.0908">21</text><text fill="#000000" font-family="sans-serif" font-size="13" lengthAdjust="spacing" textLength="71" x="1102.5" y="807.0908">List&lt;Exam&gt;</text><polygon fill="#181818" points="502.5,839.6445,492.5,843.6445,502.5,847.6445,498.5,843.6445" style="stroke:#181818;stroke-width:1.0;"/><line style="stroke:#181818;stroke-width:1.0;stroke-dasharray:2.0,2.0;" x1="496.5" x2="1061.5" y1="843.6445" y2="843.6445"/><text fill="#000000" font-family="sans-serif" font-size="13" font-weight="bold" lengthAdjust="spacing" textLength="14" x="508.5" y="838.3818">22</text><text fill="#000000" font-family="sans-serif" font-size="13" lengthAdjust="spacing" textLength="71" x="526.5" y="838.3818">List&lt;Exam&gt;</text><polygon fill="#181818" points="288.5,870.9355,278.5,874.9355,288.5,878.9355,284.5,874.9355" style="stroke:#181818;stroke-width:1.0;"/><line style="stroke:#181818;stroke-width:1.0;stroke-dasharray:2.0,2.0;" x1="282.5" x2="485.5" y1="874.9355" y2="874.9355"/><text fill="#000000" font-family="sans-serif" font-size="13" font-weight="bold" lengthAdjust="spacing" textLength="14" x="294.5" y="869.6729">23</text><text fill="#000000" font-family="sans-serif" font-size="13" lengthAdjust="spacing" textLength="91" x="312.5" y="869.6729">List&lt;ExamDto&gt;</text><polygon fill="#181818" points="63.5,902.2266,53.5,906.2266,63.5,910.2266,59.5,906.2266" style="stroke:#181818;stroke-width:1.0;"/><line style="stroke:#181818;stroke-width:1.0;stroke-dasharray:2.0,2.0;" x1="57.5" x2="271.5" y1="906.2266" y2="906.2266"/><text fill="#000000" font-family="sans-serif" font-size="13" font-weight="bold" lengthAdjust="spacing" textLength="14" x="69.5" y="900.9639">24</text><text fill="#000000" font-family="sans-serif" font-size="13" lengthAdjust="spacing" textLength="173" x="87.5" y="900.9639">asks to select e exam to take</text><polygon fill="#181818" points="255.5,933.5176,265.5,937.5176,255.5,941.5176,259.5,937.5176" style="stroke:#181818;stroke-width:1.0;"/><line style="stroke:#181818;stroke-width:1.0;" x1="52.5" x2="261.5" y1="937.5176" y2="937.5176"/><text fill="#000000" font-family="sans-serif" font-size="13" font-weight="bold" lengthAdjust="spacing" textLength="14" x="59.5" y="932.2549">25</text><text fill="#000000" font-family="sans-serif" font-size="13" lengthAdjust="spacing" textLength="82" x="77.5" y="932.2549">select a exam</text><polygon fill="#181818" points="469.5,964.8086,479.5,968.8086,469.5,972.8086,473.5,968.8086" style="stroke:#181818;stroke-width:1.0;"/><line style="stroke:#181818;stroke-width:1.0;" x1="277.5" x2="475.5" y1="968.8086" y2="968.8086"/><text fill="#000000" font-family="sans-serif" font-size="13" font-weight="bold" lengthAdjust="spacing" textLength="14" x="284.5" y="963.5459">26</text><text fill="#000000" font-family="sans-serif" font-size="13" lengthAdjust="spacing" textLength="129" x="302.5" y="963.5459">takeExam(examCode)</text><polygon fill="#181818" points="2115,996.0996,2125,1000.0996,2115,1004.0996,2119,1000.0996" style="stroke:#181818;stroke-width:1.0;"/><line style="stroke:#181818;stroke-width:1.0;" x1="491.5" x2="2121" y1="1000.0996" y2="1000.0996"/><text fill="#000000" font-family="sans-serif" font-size="13" font-weight="bold" lengthAdjust="spacing" textLength="14" x="498.5" y="994.8369">27</text><text fill="#000000" font-family="sans-serif" font-size="13" lengthAdjust="spacing" textLength="136" x="516.5" y="994.8369">findByCode(examCode)</text><line style="stroke:#181818;stroke-width:1.0;" x1="2137" x2="2179" y1="1031.3906" y2="1031.3906"/><line style="stroke:#181818;stroke-width:1.0;" x1="2179" x2="2179" y1="1031.3906" y2="1044.3906"/><line style="stroke:#181818;stroke-width:1.0;" x1="2138" x2="2179" y1="1044.3906" y2="1044.3906"/><polygon fill="#181818" points="2148,1040.3906,2138,1044.3906,2148,1048.3906,2144,1044.3906" style="stroke:#181818;stroke-width:1.0;"/><text fill="#000000" font-family="sans-serif" font-size="13" font-weight="bold" lengthAdjust="spacing" textLength="14" x="2144" y="1026.1279">28</text><text fill="#000000" font-family="sans-serif" font-size="13" lengthAdjust="spacing" textLength="136" x="2162" y="1026.1279">findByCode(examCode)</text><polygon fill="#181818" points="502.5,1071.6816,492.5,1075.6816,502.5,1079.6816,498.5,1075.6816" style="stroke:#181818;stroke-width:1.0;"/><line style="stroke:#181818;stroke-width:1.0;stroke-dasharray:2.0,2.0;" x1="496.5" x2="2131" y1="1075.6816" y2="1075.6816"/><text fill="#000000" font-family="sans-serif" font-size="13" font-weight="bold" lengthAdjust="spacing" textLength="14" x="508.5" y="1070.4189">29</text><text fill="#000000" font-family="sans-serif" font-size="13" lengthAdjust="spacing" textLength="32" x="526.5" y="1070.4189">exam</text><polygon fill="#181818" points="1045.5,1102.9727,1055.5,1106.9727,1045.5,1110.9727,1049.5,1106.9727" style="stroke:#181818;stroke-width:1.0;"/><line style="stroke:#181818;stroke-width:1.0;" x1="491.5" x2="1051.5" y1="1106.9727" y2="1106.9727"/><text fill="#000000" font-family="sans-serif" font-size="13" font-weight="bold" lengthAdjust="spacing" textLength="14" x="498.5" y="1101.71">30</text><text fill="#000000" font-family="sans-serif" font-size="13" lengthAdjust="spacing" textLength="99" x="516.5" y="1101.71">takeExam(exam)</text><polygon fill="#181818" points="2430,1134.2637,2440,1138.2637,2430,1142.2637,2434,1138.2637" style="stroke:#181818;stroke-width:1.0;"/><line style="stroke:#181818;stroke-width:1.0;" x1="1067.5" x2="2436" y1="1138.2637" y2="1138.2637"/><text fill="#000000" font-family="sans-serif" font-size="13" font-weight="bold" lengthAdjust="spacing" textLength="14" x="1074.5" y="1133.001">31</text><text fill="#000000" font-family="sans-serif" font-size="13" lengthAdjust="spacing" textLength="130" x="1092.5" y="1133.001">content = getContent()</text><line style="stroke:#181818;stroke-width:1.0;" x1="2452" x2="2494" y1="1169.5547" y2="1169.5547"/><line style="stroke:#181818;stroke-width:1.0;" x1="2494" x2="2494" y1="1169.5547" y2="1182.5547"/><line style="stroke:#181818;stroke-width:1.0;" x1="2453" x2="2494" y1="1182.5547" y2="1182.5547"/><polygon fill="#181818" points="2463,1178.5547,2453,1182.5547,2463,1186.5547,2459,1182.5547" style="stroke:#181818;stroke-width:1.0;"/><text fill="#000000" font-family="sans-serif" font-size="13" font-weight="bold" lengthAdjust="spacing" textLength="14" x="2459" y="1164.292">32</text><text fill="#000000" font-family="sans-serif" font-size="13" lengthAdjust="spacing" textLength="4" x="2477" y="1164.292">&#160;</text><line style="stroke:#181818;stroke-width:1.0;" x1="1067.5" x2="1109.5" y1="1213.8457" y2="1213.8457"/><line style="stroke:#181818;stroke-width:1.0;" x1="1109.5" x2="1109.5" y1="1213.8457" y2="1226.8457"/><line style="stroke:#181818;stroke-width:1.0;" x1="1068.5" x2="1109.5" y1="1226.8457" y2="1226.8457"/><polygon fill="#181818" points="1078.5,1222.8457,1068.5,1226.8457,1078.5,1230.8457,1074.5,1226.8457" style="stroke:#181818;stroke-width:1.0;"/><text fill="#000000" font-family="sans-serif" font-size="13" font-weight="bold" lengthAdjust="spacing" textLength="14" x="1074.5" y="1208.583">33</text><text fill="#000000" font-family="sans-serif" font-size="13" lengthAdjust="spacing" textLength="176" x="1092.5" y="1208.583">Paths.get("exam.txt"), content</text><line style="stroke:#181818;stroke-width:1.0;" x1="2452" x2="2494" y1="1258.1367" y2="1258.1367"/><line style="stroke:#181818;stroke-width:1.0;" x1="2494" x2="2494" y1="1258.1367" y2="1271.1367"/><line style="stroke:#181818;stroke-width:1.0;" x1="2453" x2="2494" y1="1271.1367" y2="1271.1367"/><polygon fill="#181818" points="2463,1267.1367,2453,1271.1367,2463,1275.1367,2459,1271.1367" style="stroke:#181818;stroke-width:1.0;"/><text fill="#000000" font-family="sans-serif" font-size="13" font-weight="bold" lengthAdjust="spacing" textLength="14" x="2459" y="1252.874">34</text><text fill="#000000" font-family="sans-serif" font-size="13" lengthAdjust="spacing" textLength="127" x="2477" y="1252.874">grades = getGrades();</text><polygon fill="#181818" points="1078.5,1298.4277,1068.5,1302.4277,1078.5,1306.4277,1074.5,1302.4277" style="stroke:#181818;stroke-width:1.0;"/><line style="stroke:#181818;stroke-width:1.0;stroke-dasharray:2.0,2.0;" x1="1072.5" x2="2446" y1="1302.4277" y2="1302.4277"/><text fill="#000000" font-family="sans-serif" font-size="13" font-weight="bold" lengthAdjust="spacing" textLength="14" x="1084.5" y="1297.165">35</text><text fill="#000000" font-family="sans-serif" font-size="13" lengthAdjust="spacing" textLength="39" x="1102.5" y="1297.165">grades</text><polygon fill="#181818" points="2275,1329.7188,2285,1333.7188,2275,1337.7188,2279,1333.7188" style="stroke:#181818;stroke-width:1.0;"/><line style="stroke:#181818;stroke-width:1.0;" x1="1067.5" x2="2281" y1="1333.7188" y2="1333.7188"/><text fill="#000000" font-family="sans-serif" font-size="13" font-weight="bold" lengthAdjust="spacing" textLength="14" x="1074.5" y="1328.4561">36</text><text fill="#000000" font-family="sans-serif" font-size="13" lengthAdjust="spacing" textLength="4" x="1092.5" y="1328.4561">&#160;</text><rect fill="#E2E2F0" height="32.6211" rx="2.5" ry="2.5" style="stroke:#181818;stroke-width:0.5;" width="118" x="2287" y="1310.4277"/><text fill="#000000" font-family="sans-serif" font-size="14" lengthAdjust="spacing" textLength="104" x="2294" y="1332.5352">ExamEvalListner</text><path d="M10,1361.0488 L83,1361.0488 L83,1370.3398 L73,1380.3398 L10,1380.3398 L10,1361.0488 " fill="#EEEEEE" style="stroke:#000000;stroke-width:1.5;"/><rect fill="none" height="81.873" style="stroke:#000000;stroke-width:1.5;" width="2405" x="10" y="1361.0488"/><text fill="#000000" font-family="sans-serif" font-size="13" font-weight="bold" lengthAdjust="spacing" textLength="28" x="25" y="1376.0771">loop</text><polygon fill="#181818" points="63.5,1399.6309,53.5,1403.6309,63.5,1407.6309,59.5,1403.6309" style="stroke:#181818;stroke-width:1.0;"/><line style="stroke:#181818;stroke-width:1.0;stroke-dasharray:2.0,2.0;" x1="57.5" x2="2340" y1="1403.6309" y2="1403.6309"/><text fill="#000000" font-family="sans-serif" font-size="13" font-weight="bold" lengthAdjust="spacing" textLength="14" x="69.5" y="1398.3682">37</text><text fill="#000000" font-family="sans-serif" font-size="13" lengthAdjust="spacing" textLength="198" x="87.5" y="1398.3682">print question and asks for answer</text><polygon fill="#181818" points="2329,1430.9219,2339,1434.9219,2329,1438.9219,2333,1434.9219" style="stroke:#181818;stroke-width:1.0;"/><line style="stroke:#181818;stroke-width:1.0;" x1="52.5" x2="2335" y1="1434.9219" y2="1434.9219"/><text fill="#000000" font-family="sans-serif" font-size="13" font-weight="bold" lengthAdjust="spacing" textLength="14" x="59.5" y="1429.6592">38</text><text fill="#000000" font-family="sans-serif" font-size="13" lengthAdjust="spacing" textLength="123" x="77.5" y="1429.6592">answers the question</text><polygon fill="#181818" points="63.5,1469.2129,53.5,1473.2129,63.5,1477.2129,59.5,1473.2129" style="stroke:#181818;stroke-width:1.0;"/><line style="stroke:#181818;stroke-width:1.0;stroke-dasharray:2.0,2.0;" x1="57.5" x2="2340" y1="1473.2129" y2="1473.2129"/><text fill="#000000" font-family="sans-serif" font-size="13" font-weight="bold" lengthAdjust="spacing" textLength="14" x="69.5" y="1467.9502">39</text><text fill="#000000" font-family="sans-serif" font-size="13" lengthAdjust="spacing" textLength="180" x="87.5" y="1467.9502">print exam grade of the student</text><polygon fill="#181818" points="2560,1500.5039,2570,1504.5039,2560,1508.5039,2564,1504.5039" style="stroke:#181818;stroke-width:1.0;"/><line style="stroke:#181818;stroke-width:1.0;" x1="2351" x2="2566" y1="1504.5039" y2="1504.5039"/><text fill="#000000" font-family="sans-serif" font-size="13" font-weight="bold" lengthAdjust="spacing" textLength="14" x="2358" y="1499.2412">40</text><text fill="#000000" font-family="sans-serif" font-size="13" lengthAdjust="spacing" textLength="4" x="2376" y="1499.2412">&#160;</text><rect fill="#E2E2F0" height="32.6211" rx="2.5" ry="2.5" style="stroke:#181818;stroke-width:0.5;" width="88" x="2572" y="1481.2129"/><text fill="#000000" font-family="sans-serif" font-size="14" lengthAdjust="spacing" textLength="74" x="2579" y="1503.3203">ExamGrade</text><polygon fill="#181818" points="2599,1544.125,2609,1548.125,2599,1552.125,2603,1548.125" style="stroke:#181818;stroke-width:1.0;"/><line style="stroke:#181818;stroke-width:1.0;" x1="2351" x2="2605" y1="1548.125" y2="1548.125"/><text fill="#000000" font-family="sans-serif" font-size="13" font-weight="bold" lengthAdjust="spacing" textLength="14" x="2358" y="1542.8623">41</text><text fill="#000000" font-family="sans-serif" font-size="13" lengthAdjust="spacing" textLength="104" x="2376" y="1542.8623">grades.add(grade)</text><polygon fill="#181818" points="2115,1605.416,2125,1609.416,2115,1613.416,2119,1609.416" style="stroke:#181818;stroke-width:1.0;"/><line style="stroke:#181818;stroke-width:1.0;" x1="491.5" x2="2121" y1="1609.416" y2="1609.416"/><text fill="#000000" font-family="sans-serif" font-size="13" font-weight="bold" lengthAdjust="spacing" textLength="14" x="498.5" y="1604.1533">42</text><text fill="#000000" font-family="sans-serif" font-size="13" lengthAdjust="spacing" textLength="66" x="516.5" y="1604.1533">save(exam)</text><line style="stroke:#181818;stroke-width:1.0;" x1="2137" x2="2179" y1="1645.707" y2="1645.707"/><line style="stroke:#181818;stroke-width:1.0;" x1="2179" x2="2179" y1="1645.707" y2="1658.707"/><line style="stroke:#181818;stroke-width:1.0;" x1="2132" x2="2179" y1="1658.707" y2="1658.707"/><polygon fill="#181818" points="2142,1654.707,2132,1658.707,2142,1662.707,2138,1658.707" style="stroke:#181818;stroke-width:1.0;"/><text fill="#000000" font-family="sans-serif" font-size="13" font-weight="bold" lengthAdjust="spacing" textLength="14" x="2144" y="1640.4443">43</text><text fill="#000000" font-family="sans-serif" font-size="13" lengthAdjust="spacing" textLength="66" x="2162" y="1640.4443">save(exam)</text><polygon fill="#181818" points="58.5,1680.998,48.5,1684.998,58.5,1688.998,54.5,1684.998" style="stroke:#181818;stroke-width:1.0;"/><line style="stroke:#181818;stroke-width:1.0;stroke-dasharray:2.0,2.0;" x1="52.5" x2="271.5" y1="1684.998" y2="1684.998"/><text fill="#000000" font-family="sans-serif" font-size="13" font-weight="bold" lengthAdjust="spacing" textLength="14" x="64.5" y="1679.7354">44</text><text fill="#000000" font-family="sans-serif" font-size="13" lengthAdjust="spacing" textLength="66" x="82.5" y="1679.7354">finish exam</text><!--SRC=[ZLRlRzem4FtklyBYow0gz7lM8Z6MCYIaJJ2aQT_Sn9Ie8M6nms1__TxPpW-JKBLIQMs_ktldUtVcqrxhemeU7ewfo7HvI2THVdXGyayfiqYEuqIy5kB0c2XrdfM75ramDejqNl2DBcEPQIuKLxfax2WAdKJ94Mxu85WbIeTdSLWK8fPgdfU5ajlbWD3RvGUmyppJHPwciZ0sMB9OQF4YbEHhUSnL0WwNPq5KBeHudgtvusDH7qsdVfHPgVTvaVmJEicpZInEIIIDwzdsvxVVFdQhPB6HIW5f6MysFk2dU9F4kErd5IA-iXi8NhCbPmrZw-vzgj9UmUQYj3oG-G1mN7MYhw5zD-SuMKhpNafaubCAVxrFYIp2aqWfOEPg4eQhBiYUd6yH7jHiBN316CJ3nrEeWWVG5B0A9sz9zifrpZKkcWikOSLGw-Gaj3HognTG4zikuG0IWOTNgQauuYKr1LB3KGCb4J620Gsvi7g1FxsMpR7rJBMms-EfaGssbTL9EuvLb0MCA_SEns9vXQkYG6G1HvljwU8YdCSkN9CgP8ZVncS9GDiX0IftaAFXR7CXv3sLDpIV8zPuNOKCM4DW3PEE-FWJtoMP9TFQDHuhz9N6AGHlnu1hC5-Ff_W8b1H5j3V-v44awSWSZQUhCA3Iqb3naqAbBCCkDvEYcqJsK0sxAEBQfjD1iAxDZN2H3R923XaqYlBqc5RNJztoQ8-dxPIwyLs2QDW-3RkWje1-xUQCR61A7HoOIitIzFlEHd2McEcn7BODWMPayK530wtvcRI8cPSKkRHalFGxEE9iqgqxwnREQRaQ3ZNigyuzfEbhG0X9qoIW0Q9eV2YPoaXpQGP8DKyySItz0UGCtCJnfWm5g1XhD_-719lZZjftItHS4pPt- -L2i5vyRoqw-Ae4be2XTttvxSxt68wyRdTQ2y-avapJ6_v4cflRHNlYX6U6MMx1jKG3_aFelPh0P3WWznDzreFHVUMjDY4fcuV9-hUFr73qsG3g4MLslLpEcCmLoN1rTyU3zctXrKdp_CWuVh2egXxmOv4W5NnnKVJ4Sv75LWSxV5aHcVgBDYCRLswO1cuRKjdBsf1969e8hCUz4PBXpFETiQj6beF3y-BkBcWMLOeJ4ST3ys_xWXTUvdWEsqkasjSGbKwKE4bNttVKr49T2UPs2naD9chlsi1lcDQANkB_]--></g></svg>