<?xml version="1.0" encoding="us-ascii" standalone="no"?><svg xmlns="http://www.w3.org/2000/svg" xmlns:xlink="http://www.w3.org/1999/xlink" contentStyleType="text/css" height="442px" preserveAspectRatio="none" style="width:382px;height:442px;background:#FFFFFF;" version="1.1" viewBox="0 0 382 442" width="382px" zoomAndPan="magnify"><defs/><g><rect fill="#FFFFFF" height="247.6191" style="stroke:#181818;stroke-width:1.0;" width="10" x="42.5" y="93.6211"/><rect fill="#FFFFFF" height="48.582" style="stroke:#181818;stroke-width:1.0;" width="10" x="329.5" y="116.9121"/><rect fill="#FFFFFF" height="57.582" style="stroke:#181818;stroke-width:1.0;" width="10" x="329.5" y="196.7852"/><rect fill="none" height="81.873" style="stroke:#000000;stroke-width:1.5;" width="366.5" x="10" y="211.7852"/><line style="stroke:#181818;stroke-width:0.5;stroke-dasharray:5.0,5.0;" x1="47" x2="47" y1="83.6211" y2="359.2402"/><line style="stroke:#181818;stroke-width:0.5;stroke-dasharray:5.0,5.0;" x1="334.5" x2="334.5" y1="83.6211" y2="359.2402"/><text fill="#000000" font-family="sans-serif" font-size="14" lengthAdjust="spacing" textLength="49" x="20" y="80.1074">Student</text><ellipse cx="47.5" cy="13.5" fill="#E2E2F0" rx="8" ry="8" style="stroke:#181818;stroke-width:0.5;"/><path d="M47.5,21.5 L47.5,48.5 M34.5,29.5 L60.5,29.5 M47.5,48.5 L34.5,63.5 M47.5,48.5 L60.5,63.5 " fill="none" style="stroke:#181818;stroke-width:0.5;"/><text fill="#000000" font-family="sans-serif" font-size="14" lengthAdjust="spacing" textLength="49" x="20" y="373.3477">Student</text><ellipse cx="47.5" cy="385.3613" fill="#E2E2F0" rx="8" ry="8" style="stroke:#181818;stroke-width:0.5;"/><path d="M47.5,393.3613 L47.5,420.3613 M34.5,401.3613 L60.5,401.3613 M47.5,420.3613 L34.5,435.3613 M47.5,420.3613 L60.5,435.3613 " fill="none" style="stroke:#181818;stroke-width:0.5;"/><rect fill="#E2E2F0" height="32.6211" rx="2.5" ry="2.5" style="stroke:#181818;stroke-width:0.5;" width="64" x="302.5" y="50"/><text fill="#000000" font-family="sans-serif" font-size="14" lengthAdjust="spacing" textLength="50" x="309.5" y="72.1074">:System</text><rect fill="#E2E2F0" height="32.6211" rx="2.5" ry="2.5" style="stroke:#181818;stroke-width:0.5;" width="64" x="302.5" y="358.2402"/><text fill="#000000" font-family="sans-serif" font-size="14" lengthAdjust="spacing" textLength="50" x="309.5" y="380.3477">:System</text><rect fill="#FFFFFF" height="247.6191" style="stroke:#181818;stroke-width:1.0;" width="10" x="42.5" y="93.6211"/><rect fill="#FFFFFF" height="48.582" style="stroke:#181818;stroke-width:1.0;" width="10" x="329.5" y="116.9121"/><rect fill="#FFFFFF" height="57.582" style="stroke:#181818;stroke-width:1.0;" width="10" x="329.5" y="196.7852"/><polygon fill="#181818" points="317.5,112.9121,327.5,116.9121,317.5,120.9121,321.5,116.9121" style="stroke:#181818;stroke-width:1.0;"/><line style="stroke:#181818;stroke-width:1.0;" x1="52.5" x2="323.5" y1="116.9121" y2="116.9121"/><text fill="#000000" font-family="sans-serif" font-size="13" font-weight="bold" lengthAdjust="spacing" textLength="7" x="59.5" y="111.6494">1</text><text fill="#000000" font-family="sans-serif" font-size="13" lengthAdjust="spacing" textLength="119" x="70.5" y="111.6494">asks to take a exam</text><polygon fill="#181818" points="63.5,161.4941,53.5,165.4941,63.5,169.4941,59.5,165.4941" style="stroke:#181818;stroke-width:1.0;"/><line style="stroke:#181818;stroke-width:1.0;stroke-dasharray:2.0,2.0;" x1="57.5" x2="333.5" y1="165.4941" y2="165.4941"/><text fill="#000000" font-family="sans-serif" font-size="13" font-weight="bold" lengthAdjust="spacing" textLength="7" x="69.5" y="151.5859">2</text><text fill="#000000" font-family="sans-serif" font-size="13" lengthAdjust="spacing" textLength="238" x="80.5" y="142.9404">shows a list of exams of the courses that</text><text fill="#000000" font-family="sans-serif" font-size="13" lengthAdjust="spacing" textLength="119" x="84.5" y="160.2314">are avalable to make</text><polygon fill="#181818" points="317.5,192.7852,327.5,196.7852,317.5,200.7852,321.5,196.7852" style="stroke:#181818;stroke-width:1.0;"/><line style="stroke:#181818;stroke-width:1.0;" x1="52.5" x2="323.5" y1="196.7852" y2="196.7852"/><text fill="#000000" font-family="sans-serif" font-size="13" font-weight="bold" lengthAdjust="spacing" textLength="7" x="59.5" y="191.5225">3</text><text fill="#000000" font-family="sans-serif" font-size="13" lengthAdjust="spacing" textLength="71" x="70.5" y="191.5225">select exam</text><path d="M10,211.7852 L83,211.7852 L83,221.0762 L73,231.0762 L10,231.0762 L10,211.7852 " fill="#EEEEEE" style="stroke:#000000;stroke-width:1.5;"/><rect fill="none" height="81.873" style="stroke:#000000;stroke-width:1.5;" width="366.5" x="10" y="211.7852"/><text fill="#000000" font-family="sans-serif" font-size="13" font-weight="bold" lengthAdjust="spacing" textLength="28" x="25" y="226.8135">loop</text><polygon fill="#181818" points="63.5,250.3672,53.5,254.3672,63.5,258.3672,59.5,254.3672" style="stroke:#181818;stroke-width:1.0;"/><line style="stroke:#181818;stroke-width:1.0;stroke-dasharray:2.0,2.0;" x1="57.5" x2="333.5" y1="254.3672" y2="254.3672"/><text fill="#000000" font-family="sans-serif" font-size="13" font-weight="bold" lengthAdjust="spacing" textLength="7" x="69.5" y="249.1045">4</text><text fill="#000000" font-family="sans-serif" font-size="13" lengthAdjust="spacing" textLength="148" x="80.5" y="249.1045">shows the exam question</text><polygon fill="#181818" points="322.5,281.6582,332.5,285.6582,322.5,289.6582,326.5,285.6582" style="stroke:#181818;stroke-width:1.0;"/><line style="stroke:#181818;stroke-width:1.0;" x1="52.5" x2="328.5" y1="285.6582" y2="285.6582"/><text fill="#000000" font-family="sans-serif" font-size="13" font-weight="bold" lengthAdjust="spacing" textLength="7" x="59.5" y="280.3955">5</text><text fill="#000000" font-family="sans-serif" font-size="13" lengthAdjust="spacing" textLength="136" x="70.5" y="280.3955">respond to the question</text><polygon fill="#181818" points="58.5,337.2402,48.5,341.2402,58.5,345.2402,54.5,341.2402" style="stroke:#181818;stroke-width:1.0;"/><line style="stroke:#181818;stroke-width:1.0;stroke-dasharray:2.0,2.0;" x1="52.5" x2="333.5" y1="341.2402" y2="341.2402"/><text fill="#000000" font-family="sans-serif" font-size="13" font-weight="bold" lengthAdjust="spacing" textLength="7" x="64.5" y="327.332">6</text><text fill="#000000" font-family="sans-serif" font-size="13" lengthAdjust="spacing" textLength="233" x="75.5" y="318.6865">shows the grade that the student take in</text><text fill="#000000" font-family="sans-serif" font-size="13" lengthAdjust="spacing" textLength="191" x="79.5" y="335.9775">the exam and tells exam is finish</text><!--SRC=[bLAzSiCW3Dxz5BeidLpl7leIMRiejbAu07AHIDktho2Esy7fNHbyak3xyGTFJdMHSHYMW4bB3CyJnq7elL2Qg9yzlcMCNOT5EPLuecprf9pXg6McfAtrLrJwcQm5z2zm68zVeXGF8w1S19H1yKA0G9-DzmxU3dPR1RqHh5mZYECFCLpmei3dXfTQg2EOk6GXetUey9e0iqbSCU0fKDMCfjdDjAFsmAnGe4bNau5vwS3M3hwE_tHSxLKQi4X5FQS6sVLIDzfdtrCcMJZDBKCZtVZ8PitYlzEiD7Q_Czs2gwsiqksMVAfXRd-0LPn2a5lh1Su-UN4FalqrlJ-DRm00]--></g></svg>