<?xml version="1.0" encoding="us-ascii" standalone="no"?><svg xmlns="http://www.w3.org/2000/svg" xmlns:xlink="http://www.w3.org/1999/xlink" contentStyleType="text/css" height="680px" preserveAspectRatio="none" style="width:1160px;height:680px;background:#FFFFFF;" version="1.1" viewBox="0 0 1160 680" width="1160px" zoomAndPan="magnify"><defs/><g><!--class SystemUser--><g id="elem_SystemUser"><rect codeLine="3" fill="#F1F1F1" height="172.4719" id="SystemUser" rx="2" ry="2" style="stroke:#181818;stroke-width:0.4000000000000001;" width="322.4" x="565.6" y="63.688"/><ellipse cx="693.4" cy="76.488" fill="#ADD1B2" rx="8.8" ry="8.8" style="stroke:#181818;stroke-width:0.8000000000000002;"/><path d="M695.6125,73.188 Q695.7375,73.013 695.8875,72.9255 Q696.0375,72.838 696.2125,72.838 Q696.5125,72.838 696.7,73.0505 Q696.8875,73.2505 696.8875,73.738 L696.8875,74.9005 Q696.8875,75.388 696.7,75.6005 Q696.5125,75.813 696.2125,75.813 Q695.9375,75.813 695.775,75.6505 Q695.6125,75.5005 695.525,75.088 Q695.4875,74.8005 695.3375,74.6505 Q695.075,74.3505 694.5875,74.1755 Q694.1,74.0005 693.6,74.0005 Q692.9875,74.0005 692.475,74.263 Q691.975,74.5255 691.575,75.1255 Q691.1875,75.7255 691.1875,76.5505 L691.1875,77.4255 Q691.1875,78.413 691.9,79.0755 Q692.6125,79.7255 693.8875,79.7255 Q694.6375,79.7255 695.1625,79.5255 Q695.475,79.4005 695.8125,79.0505 Q696.025,78.838 696.1375,78.7755 Q696.2625,78.713 696.425,78.713 Q696.6875,78.713 696.8875,78.9255 Q697.1,79.1255 697.1,79.4005 Q697.1,79.6755 696.825,80.0005 Q696.425,80.463 695.7875,80.7255 Q694.925,81.088 693.8875,81.088 Q692.675,81.088 691.7125,80.588 Q690.925,80.188 690.375,79.338 Q689.825,78.4755 689.825,77.4505 L689.825,76.5255 Q689.825,75.463 690.3125,74.5505 Q690.8125,73.6255 691.6875,73.138 Q692.5625,72.638 693.55,72.638 Q694.1375,72.638 694.65,72.7755 Q695.175,72.9005 695.6125,73.188 Z " fill="#000000"/><text fill="#000000" font-family="sans-serif" font-size="11.2" lengthAdjust="spacing" textLength="60" x="709.8" y="81.1255">SystemUser</text><line style="stroke:#181818;stroke-width:0.4000000000000001;" x1="566.4" x2="887.2" y1="89.288" y2="89.288"/><ellipse cx="574.4" cy="101.1364" fill="#000000" rx="2.4" ry="2.4" style="stroke:#000000;stroke-width:0.8000000000000002;"/><text fill="#000000" font-family="sans-serif" font-size="11.2" lengthAdjust="spacing" textLength="76" x="581.6" y="104.5739">String fullName</text><ellipse cx="574.4" cy="116.0333" fill="#000000" rx="2.4" ry="2.4" style="stroke:#000000;stroke-width:0.8000000000000002;"/><text fill="#000000" font-family="sans-serif" font-size="11.2" lengthAdjust="spacing" textLength="87.2" x="581.6" y="119.4708">String shortName</text><ellipse cx="574.4" cy="130.9302" fill="#000000" rx="2.4" ry="2.4" style="stroke:#000000;stroke-width:0.8000000000000002;"/><text fill="#000000" font-family="sans-serif" font-size="11.2" lengthAdjust="spacing" textLength="45.6" x="581.6" y="134.3677">Role role</text><ellipse cx="574.4" cy="145.8271" fill="#000000" rx="2.4" ry="2.4" style="stroke:#000000;stroke-width:0.8000000000000002;"/><text fill="#000000" font-family="sans-serif" font-size="11.2" lengthAdjust="spacing" textLength="56.8" x="581.6" y="149.2646">Email email</text><ellipse cx="574.4" cy="160.7239" fill="#000000" rx="2.4" ry="2.4" style="stroke:#000000;stroke-width:0.8000000000000002;"/><text fill="#000000" font-family="sans-serif" font-size="11.2" lengthAdjust="spacing" textLength="100" x="581.6" y="164.1614">Password password</text><ellipse cx="574.4" cy="175.6208" fill="#000000" rx="2.4" ry="2.4" style="stroke:#000000;stroke-width:0.8000000000000002;"/><text fill="#000000" font-family="sans-serif" font-size="11.2" lengthAdjust="spacing" textLength="88.8" x="581.6" y="179.0583">UserStatus status</text><line style="stroke:#181818;stroke-width:0.4000000000000001;" x1="566.4" x2="887.2" y1="185.0693" y2="185.0693"/><ellipse cx="574.4" cy="204.3661" fill="#84BE84" rx="2.4" ry="2.4" style="stroke:#038048;stroke-width:0.8000000000000002;"/><text fill="#000000" font-family="sans-serif" font-size="11.2" lengthAdjust="spacing" textLength="298.4" x="581.6" y="200.3552">SystemUser(String: fullName, String: shortName, Role: role,</text><text fill="#000000" font-family="sans-serif" font-size="11.2" lengthAdjust="spacing" textLength="257.6" x="584.8" y="215.2521">Email: email, Password, password, boolean: status)</text><ellipse cx="574.4" cy="226.7114" fill="#84BE84" rx="2.4" ry="2.4" style="stroke:#038048;stroke-width:0.8000000000000002;"/><text fill="#000000" font-family="sans-serif" font-size="11.2" lengthAdjust="spacing" textLength="164" x="581.6" y="230.1489">AlterUserStatus(boolean: status)</text></g><!--class Manager--><g id="elem_Manager"><rect codeLine="14" fill="#F1F1F1" height="83.0906" id="Manager" rx="2" ry="2" style="stroke:#181818;stroke-width:0.4000000000000001;" width="377.6" x="159.6" y="108.488"/><ellipse cx="322.6" cy="121.288" fill="#ADD1B2" rx="8.8" ry="8.8" style="stroke:#181818;stroke-width:0.8000000000000002;"/><path d="M324.8125,117.988 Q324.9375,117.813 325.0875,117.7255 Q325.2375,117.638 325.4125,117.638 Q325.7125,117.638 325.9,117.8505 Q326.0875,118.0505 326.0875,118.538 L326.0875,119.7005 Q326.0875,120.188 325.9,120.4005 Q325.7125,120.613 325.4125,120.613 Q325.1375,120.613 324.975,120.4505 Q324.8125,120.3005 324.725,119.888 Q324.6875,119.6005 324.5375,119.4505 Q324.275,119.1505 323.7875,118.9755 Q323.3,118.8005 322.8,118.8005 Q322.1875,118.8005 321.675,119.063 Q321.175,119.3255 320.775,119.9255 Q320.3875,120.5255 320.3875,121.3505 L320.3875,122.2255 Q320.3875,123.213 321.1,123.8755 Q321.8125,124.5255 323.0875,124.5255 Q323.8375,124.5255 324.3625,124.3255 Q324.675,124.2005 325.0125,123.8505 Q325.225,123.638 325.3375,123.5755 Q325.4625,123.513 325.625,123.513 Q325.8875,123.513 326.0875,123.7255 Q326.3,123.9255 326.3,124.2005 Q326.3,124.4755 326.025,124.8005 Q325.625,125.263 324.9875,125.5255 Q324.125,125.888 323.0875,125.888 Q321.875,125.888 320.9125,125.388 Q320.125,124.988 319.575,124.138 Q319.025,123.2755 319.025,122.2505 L319.025,121.3255 Q319.025,120.263 319.5125,119.3505 Q320.0125,118.4255 320.8875,117.938 Q321.7625,117.438 322.75,117.438 Q323.3375,117.438 323.85,117.5755 Q324.375,117.7005 324.8125,117.988 Z " fill="#000000"/><text fill="#000000" font-family="sans-serif" font-size="11.2" lengthAdjust="spacing" textLength="44.8" x="339" y="125.9255">Manager</text><line style="stroke:#181818;stroke-width:0.4000000000000001;" x1="160.4" x2="536.4" y1="134.088" y2="134.088"/><ellipse cx="168.4" cy="145.9364" fill="#000000" rx="2.4" ry="2.4" style="stroke:#000000;stroke-width:0.8000000000000002;"/><text fill="#000000" font-family="sans-serif" font-size="11.2" lengthAdjust="spacing" textLength="28" x="175.6" y="149.3739">name</text><line style="stroke:#181818;stroke-width:0.4000000000000001;" x1="160.4" x2="536.4" y1="155.3849" y2="155.3849"/><ellipse cx="168.4" cy="174.6818" fill="#84BE84" rx="2.4" ry="2.4" style="stroke:#038048;stroke-width:0.8000000000000002;"/><text fill="#000000" font-family="sans-serif" font-size="11.2" lengthAdjust="spacing" textLength="353.6" x="175.6" y="170.6708">Manager(String: name, String: fullName, String: shortName, Role: role,</text><text fill="#000000" font-family="sans-serif" font-size="11.2" lengthAdjust="spacing" textLength="257.6" x="178.8" y="185.5677">Email: email, Password, password, boolean: status)</text></g><!--class CourseRepository--><g id="elem_CourseRepository"><rect codeLine="20" fill="#F1F1F1" height="187.3688" id="CourseRepository" rx="2" ry="2" style="stroke:#181818;stroke-width:0.4000000000000001;" width="276" x="5.6" y="487.688"/><ellipse cx="94.6" cy="500.488" fill="#ADD1B2" rx="8.8" ry="8.8" style="stroke:#181818;stroke-width:0.8000000000000002;"/><path d="M96.8125,497.188 Q96.9375,497.013 97.0875,496.9255 Q97.2375,496.838 97.4125,496.838 Q97.7125,496.838 97.9,497.0505 Q98.0875,497.2505 98.0875,497.738 L98.0875,498.9005 Q98.0875,499.388 97.9,499.6005 Q97.7125,499.813 97.4125,499.813 Q97.1375,499.813 96.975,499.6505 Q96.8125,499.5005 96.725,499.088 Q96.6875,498.8005 96.5375,498.6505 Q96.275,498.3505 95.7875,498.1755 Q95.3,498.0005 94.8,498.0005 Q94.1875,498.0005 93.675,498.263 Q93.175,498.5255 92.775,499.1255 Q92.3875,499.7255 92.3875,500.5505 L92.3875,501.4255 Q92.3875,502.413 93.1,503.0755 Q93.8125,503.7255 95.0875,503.7255 Q95.8375,503.7255 96.3625,503.5255 Q96.675,503.4005 97.0125,503.0505 Q97.225,502.838 97.3375,502.7755 Q97.4625,502.713 97.625,502.713 Q97.8875,502.713 98.0875,502.9255 Q98.3,503.1255 98.3,503.4005 Q98.3,503.6755 98.025,504.0005 Q97.625,504.463 96.9875,504.7255 Q96.125,505.088 95.0875,505.088 Q93.875,505.088 92.9125,504.588 Q92.125,504.188 91.575,503.338 Q91.025,502.4755 91.025,501.4505 L91.025,500.5255 Q91.025,499.463 91.5125,498.5505 Q92.0125,497.6255 92.8875,497.138 Q93.7625,496.638 94.75,496.638 Q95.3375,496.638 95.85,496.7755 Q96.375,496.9005 96.8125,497.188 Z " fill="#000000"/><text fill="#000000" font-family="sans-serif" font-size="11.2" lengthAdjust="spacing" textLength="91.2" x="111" y="505.1255">CourseRepository</text><line style="stroke:#181818;stroke-width:0.4000000000000001;" x1="6.4" x2="280.8" y1="513.288" y2="513.288"/><line style="stroke:#181818;stroke-width:0.4000000000000001;" x1="6.4" x2="280.8" y1="519.688" y2="519.688"/><ellipse cx="14.4" cy="531.5364" fill="#84BE84" rx="2.4" ry="2.4" style="stroke:#038048;stroke-width:0.8000000000000002;"/><text fill="#000000" font-family="sans-serif" font-size="11.2" lengthAdjust="spacing" textLength="144" x="21.6" y="534.9739">addCourse(Course: Course)</text><ellipse cx="14.4" cy="546.4333" fill="#84BE84" rx="2.4" ry="2.4" style="stroke:#038048;stroke-width:0.8000000000000002;"/><text fill="#000000" font-family="sans-serif" font-size="11.2" lengthAdjust="spacing" textLength="162.4" x="21.6" y="549.8708">removeCourse(Course: Course)</text><ellipse cx="14.4" cy="568.7786" fill="#84BE84" rx="2.4" ry="2.4" style="stroke:#038048;stroke-width:0.8000000000000002;"/><text fill="#000000" font-family="sans-serif" font-size="11.2" lengthAdjust="spacing" textLength="252" x="21.6" y="564.7677">CreateCourse(String: fullName, String: fhortName,</text><text fill="#000000" font-family="sans-serif" font-size="11.2" lengthAdjust="spacing" textLength="228.8" x="28" y="579.6646">Role: role, Email: email, Password, password)</text><ellipse cx="14.4" cy="591.1239" fill="#84BE84" rx="2.4" ry="2.4" style="stroke:#038048;stroke-width:0.8000000000000002;"/><text fill="#000000" font-family="sans-serif" font-size="11.2" lengthAdjust="spacing" textLength="202.4" x="21.6" y="594.5614">searchCourse(Course: Course): Course</text><ellipse cx="14.4" cy="606.0208" fill="#84BE84" rx="2.4" ry="2.4" style="stroke:#038048;stroke-width:0.8000000000000002;"/><text fill="#000000" font-family="sans-serif" font-size="11.2" lengthAdjust="spacing" textLength="179.2" x="21.6" y="609.4583">alterCourseStatus(Course: Course)</text><ellipse cx="14.4" cy="620.9177" fill="#84BE84" rx="2.4" ry="2.4" style="stroke:#038048;stroke-width:0.8000000000000002;"/><text fill="#000000" font-family="sans-serif" font-size="11.2" lengthAdjust="spacing" textLength="141.6" x="21.6" y="624.3552">totalNumberOfCourses(): int</text><ellipse cx="14.4" cy="635.8146" fill="#84BE84" rx="2.4" ry="2.4" style="stroke:#038048;stroke-width:0.8000000000000002;"/><text fill="#000000" font-family="sans-serif" font-size="11.2" lengthAdjust="spacing" textLength="174.4" x="21.6" y="639.2521">listSystemCourses(): List&lt;Course&gt;</text><ellipse cx="14.4" cy="650.7114" fill="#84BE84" rx="2.4" ry="2.4" style="stroke:#038048;stroke-width:0.8000000000000002;"/><text fill="#000000" font-family="sans-serif" font-size="11.2" lengthAdjust="spacing" textLength="166.4" x="21.6" y="654.1489">getopencourses() : List&lt;Course&gt;</text><ellipse cx="14.4" cy="665.6083" fill="#84BE84" rx="2.4" ry="2.4" style="stroke:#038048;stroke-width:0.8000000000000002;"/><text fill="#000000" font-family="sans-serif" font-size="11.2" lengthAdjust="spacing" textLength="173.6" x="21.6" y="669.0458">getclosedcourses() : List&lt;Course&gt;</text></g><!--class closeCourseUI--><g id="elem_closeCourseUI"><rect codeLine="33" fill="#F1F1F1" height="53.2969" id="closeCourseUI" rx="2" ry="2" style="stroke:#181818;stroke-width:0.4000000000000001;" width="214.4" x="344.4" y="284.488"/><ellipse cx="411.8" cy="297.288" fill="#ADD1B2" rx="8.8" ry="8.8" style="stroke:#181818;stroke-width:0.8000000000000002;"/><path d="M414.0125,293.988 Q414.1375,293.813 414.2875,293.7255 Q414.4375,293.638 414.6125,293.638 Q414.9125,293.638 415.1,293.8505 Q415.2875,294.0505 415.2875,294.538 L415.2875,295.7005 Q415.2875,296.188 415.1,296.4005 Q414.9125,296.613 414.6125,296.613 Q414.3375,296.613 414.175,296.4505 Q414.0125,296.3005 413.925,295.888 Q413.8875,295.6005 413.7375,295.4505 Q413.475,295.1505 412.9875,294.9755 Q412.5,294.8005 412,294.8005 Q411.3875,294.8005 410.875,295.063 Q410.375,295.3255 409.975,295.9255 Q409.5875,296.5255 409.5875,297.3505 L409.5875,298.2255 Q409.5875,299.213 410.3,299.8755 Q411.0125,300.5255 412.2875,300.5255 Q413.0375,300.5255 413.5625,300.3255 Q413.875,300.2005 414.2125,299.8505 Q414.425,299.638 414.5375,299.5755 Q414.6625,299.513 414.825,299.513 Q415.0875,299.513 415.2875,299.7255 Q415.5,299.9255 415.5,300.2005 Q415.5,300.4755 415.225,300.8005 Q414.825,301.263 414.1875,301.5255 Q413.325,301.888 412.2875,301.888 Q411.075,301.888 410.1125,301.388 Q409.325,300.988 408.775,300.138 Q408.225,299.2755 408.225,298.2505 L408.225,297.3255 Q408.225,296.263 408.7125,295.3505 Q409.2125,294.4255 410.0875,293.938 Q410.9625,293.438 411.95,293.438 Q412.5375,293.438 413.05,293.5755 Q413.575,293.7005 414.0125,293.988 Z " fill="#000000"/><text fill="#000000" font-family="sans-serif" font-size="11.2" lengthAdjust="spacing" textLength="72.8" x="428.2" y="301.9255">closeCourseUI</text><line style="stroke:#181818;stroke-width:0.4000000000000001;" x1="345.2" x2="558" y1="310.088" y2="310.088"/><line style="stroke:#181818;stroke-width:0.4000000000000001;" x1="345.2" x2="558" y1="316.488" y2="316.488"/><ellipse cx="353.2" cy="328.3364" fill="#84BE84" rx="2.4" ry="2.4" style="stroke:#038048;stroke-width:0.8000000000000002;"/><text fill="#000000" font-family="sans-serif" font-size="11.2" lengthAdjust="spacing" textLength="193.6" x="360.4" y="331.7739">getopenCourses(): List&lt;CourseDTO&gt;&#186;</text></g><!--class openCourseUI--><g id="elem_openCourseUI"><rect codeLine="37" fill="#F1F1F1" height="53.2969" id="openCourseUI" rx="2" ry="2" style="stroke:#181818;stroke-width:0.4000000000000001;" width="217.6" x="98.8" y="284.488"/><ellipse cx="168.2" cy="297.288" fill="#ADD1B2" rx="8.8" ry="8.8" style="stroke:#181818;stroke-width:0.8000000000000002;"/><path d="M170.4125,293.988 Q170.5375,293.813 170.6875,293.7255 Q170.8375,293.638 171.0125,293.638 Q171.3125,293.638 171.5,293.8505 Q171.6875,294.0505 171.6875,294.538 L171.6875,295.7005 Q171.6875,296.188 171.5,296.4005 Q171.3125,296.613 171.0125,296.613 Q170.7375,296.613 170.575,296.4505 Q170.4125,296.3005 170.325,295.888 Q170.2875,295.6005 170.1375,295.4505 Q169.875,295.1505 169.3875,294.9755 Q168.9,294.8005 168.4,294.8005 Q167.7875,294.8005 167.275,295.063 Q166.775,295.3255 166.375,295.9255 Q165.9875,296.5255 165.9875,297.3505 L165.9875,298.2255 Q165.9875,299.213 166.7,299.8755 Q167.4125,300.5255 168.6875,300.5255 Q169.4375,300.5255 169.9625,300.3255 Q170.275,300.2005 170.6125,299.8505 Q170.825,299.638 170.9375,299.5755 Q171.0625,299.513 171.225,299.513 Q171.4875,299.513 171.6875,299.7255 Q171.9,299.9255 171.9,300.2005 Q171.9,300.4755 171.625,300.8005 Q171.225,301.263 170.5875,301.5255 Q169.725,301.888 168.6875,301.888 Q167.475,301.888 166.5125,301.388 Q165.725,300.988 165.175,300.138 Q164.625,299.2755 164.625,298.2505 L164.625,297.3255 Q164.625,296.263 165.1125,295.3505 Q165.6125,294.4255 166.4875,293.938 Q167.3625,293.438 168.35,293.438 Q168.9375,293.438 169.45,293.5755 Q169.975,293.7005 170.4125,293.988 Z " fill="#000000"/><text fill="#000000" font-family="sans-serif" font-size="11.2" lengthAdjust="spacing" textLength="72" x="184.6" y="301.9255">openCourseUI</text><line style="stroke:#181818;stroke-width:0.4000000000000001;" x1="99.6" x2="315.6" y1="310.088" y2="310.088"/><line style="stroke:#181818;stroke-width:0.4000000000000001;" x1="99.6" x2="315.6" y1="316.488" y2="316.488"/><ellipse cx="107.6" cy="328.3364" fill="#84BE84" rx="2.4" ry="2.4" style="stroke:#038048;stroke-width:0.8000000000000002;"/><text fill="#000000" font-family="sans-serif" font-size="11.2" lengthAdjust="spacing" textLength="196.8" x="114.8" y="331.7739">getclosedCourses(): List&lt;CourseDTO&gt;</text></g><!--class closeCourseController--><g id="elem_closeCourseController"><rect codeLine="41" fill="#F1F1F1" height="53.2969" id="closeCourseController" rx="2" ry="2" style="stroke:#181818;stroke-width:0.4000000000000001;" width="175.2" x="364" y="386.088"/><ellipse cx="392.56" cy="398.888" fill="#ADD1B2" rx="8.8" ry="8.8" style="stroke:#181818;stroke-width:0.8000000000000002;"/><path d="M394.7725,395.588 Q394.8975,395.413 395.0475,395.3255 Q395.1975,395.238 395.3725,395.238 Q395.6725,395.238 395.86,395.4505 Q396.0475,395.6505 396.0475,396.138 L396.0475,397.3005 Q396.0475,397.788 395.86,398.0005 Q395.6725,398.213 395.3725,398.213 Q395.0975,398.213 394.935,398.0505 Q394.7725,397.9005 394.685,397.488 Q394.6475,397.2005 394.4975,397.0505 Q394.235,396.7505 393.7475,396.5755 Q393.26,396.4005 392.76,396.4005 Q392.1475,396.4005 391.635,396.663 Q391.135,396.9255 390.735,397.5255 Q390.3475,398.1255 390.3475,398.9505 L390.3475,399.8255 Q390.3475,400.813 391.06,401.4755 Q391.7725,402.1255 393.0475,402.1255 Q393.7975,402.1255 394.3225,401.9255 Q394.635,401.8005 394.9725,401.4505 Q395.185,401.238 395.2975,401.1755 Q395.4225,401.113 395.585,401.113 Q395.8475,401.113 396.0475,401.3255 Q396.26,401.5255 396.26,401.8005 Q396.26,402.0755 395.985,402.4005 Q395.585,402.863 394.9475,403.1255 Q394.085,403.488 393.0475,403.488 Q391.835,403.488 390.8725,402.988 Q390.085,402.588 389.535,401.738 Q388.985,400.8755 388.985,399.8505 L388.985,398.9255 Q388.985,397.863 389.4725,396.9505 Q389.9725,396.0255 390.8475,395.538 Q391.7225,395.038 392.71,395.038 Q393.2975,395.038 393.81,395.1755 Q394.335,395.3005 394.7725,395.588 Z " fill="#000000"/><text fill="#000000" font-family="sans-serif" font-size="11.2" lengthAdjust="spacing" textLength="112.8" x="407.44" y="403.5255">closeCourseController</text><line style="stroke:#181818;stroke-width:0.4000000000000001;" x1="364.8" x2="538.4" y1="411.688" y2="411.688"/><line style="stroke:#181818;stroke-width:0.4000000000000001;" x1="364.8" x2="538.4" y1="418.088" y2="418.088"/><text fill="#000000" font-family="sans-serif" font-size="11.2" lengthAdjust="spacing" textLength="165.6" x="368.8" y="433.3739">getopenCourses(): List&lt;Course&gt;</text></g><!--class openCourseController--><g id="elem_openCourseController"><rect codeLine="45" fill="#F1F1F1" height="53.2969" id="openCourseController" rx="2" ry="2" style="stroke:#181818;stroke-width:0.4000000000000001;" width="182.4" x="116.4" y="386.088"/><ellipse cx="148.56" cy="398.888" fill="#ADD1B2" rx="8.8" ry="8.8" style="stroke:#181818;stroke-width:0.8000000000000002;"/><path d="M150.7725,395.588 Q150.8975,395.413 151.0475,395.3255 Q151.1975,395.238 151.3725,395.238 Q151.6725,395.238 151.86,395.4505 Q152.0475,395.6505 152.0475,396.138 L152.0475,397.3005 Q152.0475,397.788 151.86,398.0005 Q151.6725,398.213 151.3725,398.213 Q151.0975,398.213 150.935,398.0505 Q150.7725,397.9005 150.685,397.488 Q150.6475,397.2005 150.4975,397.0505 Q150.235,396.7505 149.7475,396.5755 Q149.26,396.4005 148.76,396.4005 Q148.1475,396.4005 147.635,396.663 Q147.135,396.9255 146.735,397.5255 Q146.3475,398.1255 146.3475,398.9505 L146.3475,399.8255 Q146.3475,400.813 147.06,401.4755 Q147.7725,402.1255 149.0475,402.1255 Q149.7975,402.1255 150.3225,401.9255 Q150.635,401.8005 150.9725,401.4505 Q151.185,401.238 151.2975,401.1755 Q151.4225,401.113 151.585,401.113 Q151.8475,401.113 152.0475,401.3255 Q152.26,401.5255 152.26,401.8005 Q152.26,402.0755 151.985,402.4005 Q151.585,402.863 150.9475,403.1255 Q150.085,403.488 149.0475,403.488 Q147.835,403.488 146.8725,402.988 Q146.085,402.588 145.535,401.738 Q144.985,400.8755 144.985,399.8505 L144.985,398.9255 Q144.985,397.863 145.4725,396.9505 Q145.9725,396.0255 146.8475,395.538 Q147.7225,395.038 148.71,395.038 Q149.2975,395.038 149.81,395.1755 Q150.335,395.3005 150.7725,395.588 Z " fill="#000000"/><text fill="#000000" font-family="sans-serif" font-size="11.2" lengthAdjust="spacing" textLength="112" x="164.24" y="403.5255">openCourseController</text><line style="stroke:#181818;stroke-width:0.4000000000000001;" x1="117.2" x2="298" y1="411.688" y2="411.688"/><line style="stroke:#181818;stroke-width:0.4000000000000001;" x1="117.2" x2="298" y1="418.088" y2="418.088"/><text fill="#000000" font-family="sans-serif" font-size="11.2" lengthAdjust="spacing" textLength="172.8" x="121.2" y="433.3739">getclosedCourses(): List&lt;Course&gt;</text></g><!--class Course--><g id="elem_Course"><rect codeLine="49" fill="#F1F1F1" height="142.6781" id="Course" rx="2" ry="2" style="stroke:#181818;stroke-width:0.4000000000000001;" width="412" x="309.6" y="510.088"/><ellipse cx="493.8" cy="522.888" fill="#ADD1B2" rx="8.8" ry="8.8" style="stroke:#181818;stroke-width:0.8000000000000002;"/><path d="M496.0125,519.588 Q496.1375,519.413 496.2875,519.3255 Q496.4375,519.238 496.6125,519.238 Q496.9125,519.238 497.1,519.4505 Q497.2875,519.6505 497.2875,520.138 L497.2875,521.3005 Q497.2875,521.788 497.1,522.0005 Q496.9125,522.213 496.6125,522.213 Q496.3375,522.213 496.175,522.0505 Q496.0125,521.9005 495.925,521.488 Q495.8875,521.2005 495.7375,521.0505 Q495.475,520.7505 494.9875,520.5755 Q494.5,520.4005 494,520.4005 Q493.3875,520.4005 492.875,520.663 Q492.375,520.9255 491.975,521.5255 Q491.5875,522.1255 491.5875,522.9505 L491.5875,523.8255 Q491.5875,524.813 492.3,525.4755 Q493.0125,526.1255 494.2875,526.1255 Q495.0375,526.1255 495.5625,525.9255 Q495.875,525.8005 496.2125,525.4505 Q496.425,525.238 496.5375,525.1755 Q496.6625,525.113 496.825,525.113 Q497.0875,525.113 497.2875,525.3255 Q497.5,525.5255 497.5,525.8005 Q497.5,526.0755 497.225,526.4005 Q496.825,526.863 496.1875,527.1255 Q495.325,527.488 494.2875,527.488 Q493.075,527.488 492.1125,526.988 Q491.325,526.588 490.775,525.738 Q490.225,524.8755 490.225,523.8505 L490.225,522.9255 Q490.225,521.863 490.7125,520.9505 Q491.2125,520.0255 492.0875,519.538 Q492.9625,519.038 493.95,519.038 Q494.5375,519.038 495.05,519.1755 Q495.575,519.3005 496.0125,519.588 Z " fill="#000000"/><text fill="#000000" font-family="sans-serif" font-size="11.2" lengthAdjust="spacing" textLength="36.8" x="510.2" y="527.5255">Course</text><line style="stroke:#181818;stroke-width:0.4000000000000001;" x1="310.4" x2="720.8" y1="535.688" y2="535.688"/><ellipse cx="318.4" cy="547.5364" fill="#000000" rx="2.4" ry="2.4" style="stroke:#000000;stroke-width:0.8000000000000002;"/><text fill="#000000" font-family="sans-serif" font-size="11.2" lengthAdjust="spacing" textLength="24" x="325.6" y="550.9739">int id</text><ellipse cx="318.4" cy="562.4333" fill="#000000" rx="2.4" ry="2.4" style="stroke:#000000;stroke-width:0.8000000000000002;"/><text fill="#000000" font-family="sans-serif" font-size="11.2" lengthAdjust="spacing" textLength="28" x="325.6" y="565.8708">name</text><ellipse cx="318.4" cy="577.3302" fill="#000000" rx="2.4" ry="2.4" style="stroke:#000000;stroke-width:0.8000000000000002;"/><text fill="#000000" font-family="sans-serif" font-size="11.2" lengthAdjust="spacing" textLength="102.4" x="325.6" y="580.7677">CourseStatus status</text><ellipse cx="318.4" cy="592.2271" fill="#000000" rx="2.4" ry="2.4" style="stroke:#000000;stroke-width:0.8000000000000002;"/><text fill="#000000" font-family="sans-serif" font-size="11.2" lengthAdjust="spacing" textLength="55.2" x="325.6" y="595.6646">Code code</text><ellipse cx="318.4" cy="607.1239" fill="#000000" rx="2.4" ry="2.4" style="stroke:#000000;stroke-width:0.8000000000000002;"/><text fill="#000000" font-family="sans-serif" font-size="11.2" lengthAdjust="spacing" textLength="78.4" x="325.6" y="610.5614">Teacher regent</text><line style="stroke:#181818;stroke-width:0.4000000000000001;" x1="310.4" x2="720.8" y1="616.5724" y2="616.5724"/><ellipse cx="318.4" cy="628.4208" fill="#84BE84" rx="2.4" ry="2.4" style="stroke:#038048;stroke-width:0.8000000000000002;"/><text fill="#000000" font-family="sans-serif" font-size="11.2" lengthAdjust="spacing" textLength="391.2" x="325.6" y="631.8583">Course(int id, String name, CourseStatus status, Code code, Teacher regent)</text><ellipse cx="318.4" cy="643.3177" fill="#84BE84" rx="2.4" ry="2.4" style="stroke:#038048;stroke-width:0.8000000000000002;"/><text fill="#000000" font-family="sans-serif" font-size="11.2" lengthAdjust="spacing" textLength="68.8" x="325.6" y="646.7552">closecourse()</text></g><!--class Password--><g id="elem_Password"><rect fill="#F1F1F1" height="38.4" id="Password" rx="2" ry="2" style="stroke:#181818;stroke-width:0.4000000000000001;" width="74.4" x="689.6" y="292.088"/><ellipse cx="701.6" cy="304.888" fill="#ADD1B2" rx="8.8" ry="8.8" style="stroke:#181818;stroke-width:0.8000000000000002;"/><path d="M703.8125,301.588 Q703.9375,301.413 704.0875,301.3255 Q704.2375,301.238 704.4125,301.238 Q704.7125,301.238 704.9,301.4505 Q705.0875,301.6505 705.0875,302.138 L705.0875,303.3005 Q705.0875,303.788 704.9,304.0005 Q704.7125,304.213 704.4125,304.213 Q704.1375,304.213 703.975,304.0505 Q703.8125,303.9005 703.725,303.488 Q703.6875,303.2005 703.5375,303.0505 Q703.275,302.7505 702.7875,302.5755 Q702.3,302.4005 701.8,302.4005 Q701.1875,302.4005 700.675,302.663 Q700.175,302.9255 699.775,303.5255 Q699.3875,304.1255 699.3875,304.9505 L699.3875,305.8255 Q699.3875,306.813 700.1,307.4755 Q700.8125,308.1255 702.0875,308.1255 Q702.8375,308.1255 703.3625,307.9255 Q703.675,307.8005 704.0125,307.4505 Q704.225,307.238 704.3375,307.1755 Q704.4625,307.113 704.625,307.113 Q704.8875,307.113 705.0875,307.3255 Q705.3,307.5255 705.3,307.8005 Q705.3,308.0755 705.025,308.4005 Q704.625,308.863 703.9875,309.1255 Q703.125,309.488 702.0875,309.488 Q700.875,309.488 699.9125,308.988 Q699.125,308.588 698.575,307.738 Q698.025,306.8755 698.025,305.8505 L698.025,304.9255 Q698.025,303.863 698.5125,302.9505 Q699.0125,302.0255 699.8875,301.538 Q700.7625,301.038 701.75,301.038 Q702.3375,301.038 702.85,301.1755 Q703.375,301.3005 703.8125,301.588 Z " fill="#000000"/><text fill="#000000" font-family="sans-serif" font-size="11.2" lengthAdjust="spacing" textLength="48.8" x="712.8" y="309.5255">Password</text><line style="stroke:#181818;stroke-width:0.4000000000000001;" x1="690.4" x2="763.2" y1="317.688" y2="317.688"/><line style="stroke:#181818;stroke-width:0.4000000000000001;" x1="690.4" x2="763.2" y1="324.088" y2="324.088"/></g><!--class Email--><g id="elem_Email"><rect fill="#F1F1F1" height="38.4" id="Email" rx="2" ry="2" style="stroke:#181818;stroke-width:0.4000000000000001;" width="52.8" x="1102" y="130.888"/><ellipse cx="1114" cy="143.688" fill="#ADD1B2" rx="8.8" ry="8.8" style="stroke:#181818;stroke-width:0.8000000000000002;"/><path d="M1116.2125,140.388 Q1116.3375,140.213 1116.4875,140.1255 Q1116.6375,140.038 1116.8125,140.038 Q1117.1125,140.038 1117.3,140.2505 Q1117.4875,140.4505 1117.4875,140.938 L1117.4875,142.1005 Q1117.4875,142.588 1117.3,142.8005 Q1117.1125,143.013 1116.8125,143.013 Q1116.5375,143.013 1116.375,142.8505 Q1116.2125,142.7005 1116.125,142.288 Q1116.0875,142.0005 1115.9375,141.8505 Q1115.675,141.5505 1115.1875,141.3755 Q1114.7,141.2005 1114.2,141.2005 Q1113.5875,141.2005 1113.075,141.463 Q1112.575,141.7255 1112.175,142.3255 Q1111.7875,142.9255 1111.7875,143.7505 L1111.7875,144.6255 Q1111.7875,145.613 1112.5,146.2755 Q1113.2125,146.9255 1114.4875,146.9255 Q1115.2375,146.9255 1115.7625,146.7255 Q1116.075,146.6005 1116.4125,146.2505 Q1116.625,146.038 1116.7375,145.9755 Q1116.8625,145.913 1117.025,145.913 Q1117.2875,145.913 1117.4875,146.1255 Q1117.7,146.3255 1117.7,146.6005 Q1117.7,146.8755 1117.425,147.2005 Q1117.025,147.663 1116.3875,147.9255 Q1115.525,148.288 1114.4875,148.288 Q1113.275,148.288 1112.3125,147.788 Q1111.525,147.388 1110.975,146.538 Q1110.425,145.6755 1110.425,144.6505 L1110.425,143.7255 Q1110.425,142.663 1110.9125,141.7505 Q1111.4125,140.8255 1112.2875,140.338 Q1113.1625,139.838 1114.15,139.838 Q1114.7375,139.838 1115.25,139.9755 Q1115.775,140.1005 1116.2125,140.388 Z " fill="#000000"/><text fill="#000000" font-family="sans-serif" font-size="11.2" lengthAdjust="spacing" textLength="27.2" x="1125.2" y="148.3255">Email</text><line style="stroke:#181818;stroke-width:0.4000000000000001;" x1="1102.8" x2="1154" y1="156.488" y2="156.488"/><line style="stroke:#181818;stroke-width:0.4000000000000001;" x1="1102.8" x2="1154" y1="162.888" y2="162.888"/></g><!--class Role--><g id="elem_Role"><rect fill="#F1F1F1" height="38.4" id="Role" rx="2" ry="2" style="stroke:#181818;stroke-width:0.4000000000000001;" width="48.8" x="1024.8" y="130.888"/><ellipse cx="1036.8" cy="143.688" fill="#ADD1B2" rx="8.8" ry="8.8" style="stroke:#181818;stroke-width:0.8000000000000002;"/><path d="M1039.0125,140.388 Q1039.1375,140.213 1039.2875,140.1255 Q1039.4375,140.038 1039.6125,140.038 Q1039.9125,140.038 1040.1,140.2505 Q1040.2875,140.4505 1040.2875,140.938 L1040.2875,142.1005 Q1040.2875,142.588 1040.1,142.8005 Q1039.9125,143.013 1039.6125,143.013 Q1039.3375,143.013 1039.175,142.8505 Q1039.0125,142.7005 1038.925,142.288 Q1038.8875,142.0005 1038.7375,141.8505 Q1038.475,141.5505 1037.9875,141.3755 Q1037.5,141.2005 1037,141.2005 Q1036.3875,141.2005 1035.875,141.463 Q1035.375,141.7255 1034.975,142.3255 Q1034.5875,142.9255 1034.5875,143.7505 L1034.5875,144.6255 Q1034.5875,145.613 1035.3,146.2755 Q1036.0125,146.9255 1037.2875,146.9255 Q1038.0375,146.9255 1038.5625,146.7255 Q1038.875,146.6005 1039.2125,146.2505 Q1039.425,146.038 1039.5375,145.9755 Q1039.6625,145.913 1039.825,145.913 Q1040.0875,145.913 1040.2875,146.1255 Q1040.5,146.3255 1040.5,146.6005 Q1040.5,146.8755 1040.225,147.2005 Q1039.825,147.663 1039.1875,147.9255 Q1038.325,148.288 1037.2875,148.288 Q1036.075,148.288 1035.1125,147.788 Q1034.325,147.388 1033.775,146.538 Q1033.225,145.6755 1033.225,144.6505 L1033.225,143.7255 Q1033.225,142.663 1033.7125,141.7505 Q1034.2125,140.8255 1035.0875,140.338 Q1035.9625,139.838 1036.95,139.838 Q1037.5375,139.838 1038.05,139.9755 Q1038.575,140.1005 1039.0125,140.388 Z " fill="#000000"/><text fill="#000000" font-family="sans-serif" font-size="11.2" lengthAdjust="spacing" textLength="23.2" x="1048" y="148.3255">Role</text><line style="stroke:#181818;stroke-width:0.4000000000000001;" x1="1025.6" x2="1072.8" y1="156.488" y2="156.488"/><line style="stroke:#181818;stroke-width:0.4000000000000001;" x1="1025.6" x2="1072.8" y1="162.888" y2="162.888"/></g><!--class UserStatus--><g id="elem_UserStatus"><rect fill="#F1F1F1" height="38.4" id="UserStatus" rx="2" ry="2" style="stroke:#181818;stroke-width:0.4000000000000001;" width="80.8" x="916" y="130.888"/><ellipse cx="928" cy="143.688" fill="#ADD1B2" rx="8.8" ry="8.8" style="stroke:#181818;stroke-width:0.8000000000000002;"/><path d="M930.2125,140.388 Q930.3375,140.213 930.4875,140.1255 Q930.6375,140.038 930.8125,140.038 Q931.1125,140.038 931.3,140.2505 Q931.4875,140.4505 931.4875,140.938 L931.4875,142.1005 Q931.4875,142.588 931.3,142.8005 Q931.1125,143.013 930.8125,143.013 Q930.5375,143.013 930.375,142.8505 Q930.2125,142.7005 930.125,142.288 Q930.0875,142.0005 929.9375,141.8505 Q929.675,141.5505 929.1875,141.3755 Q928.7,141.2005 928.2,141.2005 Q927.5875,141.2005 927.075,141.463 Q926.575,141.7255 926.175,142.3255 Q925.7875,142.9255 925.7875,143.7505 L925.7875,144.6255 Q925.7875,145.613 926.5,146.2755 Q927.2125,146.9255 928.4875,146.9255 Q929.2375,146.9255 929.7625,146.7255 Q930.075,146.6005 930.4125,146.2505 Q930.625,146.038 930.7375,145.9755 Q930.8625,145.913 931.025,145.913 Q931.2875,145.913 931.4875,146.1255 Q931.7,146.3255 931.7,146.6005 Q931.7,146.8755 931.425,147.2005 Q931.025,147.663 930.3875,147.9255 Q929.525,148.288 928.4875,148.288 Q927.275,148.288 926.3125,147.788 Q925.525,147.388 924.975,146.538 Q924.425,145.6755 924.425,144.6505 L924.425,143.7255 Q924.425,142.663 924.9125,141.7505 Q925.4125,140.8255 926.2875,140.338 Q927.1625,139.838 928.15,139.838 Q928.7375,139.838 929.25,139.9755 Q929.775,140.1005 930.2125,140.388 Z " fill="#000000"/><text fill="#000000" font-family="sans-serif" font-size="11.2" lengthAdjust="spacing" textLength="55.2" x="939.2" y="148.3255">UserStatus</text><line style="stroke:#181818;stroke-width:0.4000000000000001;" x1="916.8" x2="996" y1="156.488" y2="156.488"/><line style="stroke:#181818;stroke-width:0.4000000000000001;" x1="916.8" x2="996" y1="162.888" y2="162.888"/></g><!--link SystemUser to Password--><g id="link_SystemUser_Password"><path codeLine="64" d="M726.8,236.528 C726.8,257.528 726.8,277.992 726.8,292.048 " fill="none" id="SystemUser-Password" style="stroke:#181818;stroke-width:0.8000000000000002;"/></g><!--link SystemUser to Email--><g id="link_SystemUser_Email"><path codeLine="65" d="M854.632,63.664 C874.456,53.808 895.256,45.296 916,39.688 C983.616,21.4 1012.864,4.8 1073.6,39.688 C1106.632,58.656 1120.224,104.624 1125.44,130.872 " fill="none" id="SystemUser-Email" style="stroke:#181818;stroke-width:0.8000000000000002;"/></g><!--link SystemUser to Role--><g id="link_SystemUser_Role"><path codeLine="66" d="M854.632,63.664 C874.456,53.808 895.256,45.296 916,39.688 C950.664,30.312 965.656,21.8 996.8,39.688 C1029.544,58.496 1042.088,104.52 1046.688,130.824 " fill="none" id="SystemUser-Role" style="stroke:#181818;stroke-width:0.8000000000000002;"/></g><!--link SystemUser to UserStatus--><g id="link_SystemUser_UserStatus"><path codeLine="67" d="M888.016,150.088 C897.272,150.088 906.536,150.088 915.792,150.088 " fill="none" id="SystemUser-UserStatus" style="stroke:#181818;stroke-width:0.8000000000000002;"/></g><!--reverse link Manager to SystemUser--><g id="link_Manager_SystemUser"><path codeLine="69" d="M553.28,150.088 C557.312,150.088 561.336,150.088 565.368,150.088 " fill="none" id="Manager-backto-SystemUser" style="stroke:#181818;stroke-width:0.8000000000000002;"/><polygon fill="none" points="553.232,155.688,537.232,150.088,553.232,144.488,553.232,155.688" style="stroke:#181818;stroke-width:0.8000000000000002;"/></g><!--link Manager to closeCourseUI--><g id="link_Manager_closeCourseUI"><path codeLine="70" d="M374.84,191.784 C393.712,220.968 418.528,259.344 434.76,284.448 " fill="none" id="Manager-closeCourseUI" style="stroke:#181818;stroke-width:0.8000000000000002;stroke-dasharray:7.0,7.0;"/></g><!--link closeCourseUI to closeCourseController--><g id="link_closeCourseUI_closeCourseController"><path codeLine="71" d="M451.6,338.104 C451.6,352.8 451.6,371.12 451.6,385.856 " fill="none" id="closeCourseUI-closeCourseController" style="stroke:#181818;stroke-width:0.8000000000000002;stroke-dasharray:7.0,7.0;"/></g><!--link closeCourseController to CourseRepository--><g id="link_closeCourseController_CourseRepository"><path codeLine="72" d="M392.72,439.84 C363.2,453.4 327.112,470.656 295.6,487.688 C291.048,490.152 286.432,492.688 281.792,495.28 " fill="none" id="closeCourseController-CourseRepository" style="stroke:#181818;stroke-width:0.8000000000000002;stroke-dasharray:7.0,7.0;"/></g><!--link closeCourseController to Course--><g id="link_closeCourseController_Course"><path codeLine="73" d="M461.6,439.752 C468.84,458.624 479,485.096 488.552,509.992 " fill="none" id="closeCourseController-Course" style="stroke:#181818;stroke-width:0.8000000000000002;stroke-dasharray:7.0,7.0;"/></g><!--link Manager to openCourseUI--><g id="link_Manager_openCourseUI"><path codeLine="74" d="M312.32,191.784 C286.576,220.968 252.72,259.344 230.568,284.448 " fill="none" id="Manager-openCourseUI" style="stroke:#181818;stroke-width:0.8000000000000002;stroke-dasharray:7.0,7.0;"/></g><!--link openCourseUI to openCourseController--><g id="link_openCourseUI_openCourseController"><path codeLine="75" d="M207.6,338.104 C207.6,352.8 207.6,371.12 207.6,385.856 " fill="none" id="openCourseUI-openCourseController" style="stroke:#181818;stroke-width:0.8000000000000002;stroke-dasharray:7.0,7.0;"/></g><!--link openCourseController to CourseRepository--><g id="link_openCourseController_CourseRepository"><path codeLine="76" d="M197.6,439.752 C192.536,452.944 186.048,469.848 179.344,487.336 " fill="none" id="openCourseController-CourseRepository" style="stroke:#181818;stroke-width:0.8000000000000002;stroke-dasharray:7.0,7.0;"/></g><!--link openCourseController to Course--><g id="link_openCourseController_Course"><path codeLine="77" d="M255.728,439.752 C290.576,458.624 339.456,485.096 385.424,509.992 " fill="none" id="openCourseController-Course" style="stroke:#181818;stroke-width:0.8000000000000002;stroke-dasharray:7.0,7.0;"/></g><!--SRC=[jLJ1Rjim3BthAtIRspZz06C8C6Gx3DZQ8cblkwWsOmkGfK1IDXJTVgp7VjbaKx8apqbFyy6s7f_8Hv5KBPWnTFziBFIF1ZHz8TGzrtHlDPSjFPo4k6KzvAZfbBO9l5C2g7Oll_xICoue36-FtBimlvHkwD7_U7o8kRVCdWmrusV4LucY0cDMavII1cIIKOuAgb52INz8552XWd8ANaxHI_ga79V9oeUzyd4_2GiwYYh-eVqXf1xFx3kJh4qEJ8RZM0NJf5ncglzp7awWLxXL9srW1qTbk5NwsKjTKTOqQ2lmKtbgE0GDlVe95obR3Sm6oldC3Z4pbqsMtNkfXKW6cAwxPJ7X9-Gr50yHNxvbyLPP9cvF_HFekmEQJE6SSMazGt1ZiGKJypS7ViJr1dajM7K4MGSEFKEgXJBGdAN5aer4X1-_XdBvACjAFZ_SRTvUYVE17Y8pSu0Aphk8VPr8s2ffNR44w1ToKKIoFP9ckoyfIFOZC4sLAmdbpNp4hcbQvVJc62mDqDgz_Fe1MDsvETNGmbHVtqxeFRIhdzC5rsNqMiuSXfuQqyCA5pY4X7pOWM2MAsawVZI49DViUZsrV0PhtdPsZSEnP1WcQ0cFLrOUHi31hdzlmfL4mgrrSvFt6ibMCtEi95b41_hyidcFcIf9UvQaYzoOo5W25rLS9heQ_GK0]--></g></svg>