<?xml version="1.0" encoding="us-ascii" standalone="no"?><svg xmlns="http://www.w3.org/2000/svg" xmlns:xlink="http://www.w3.org/1999/xlink" contentStyleType="text/css" height="423px" preserveAspectRatio="none" style="width:674px;height:423px;background:#FFFFFF;" version="1.1" viewBox="0 0 674 423" width="674px" zoomAndPan="magnify"><defs/><g><!--cluster COURSE--><g id="cluster_COURSE"><path d="M134.5,94.5 L194.5,94.5 A3.75,3.75 0 0 1 197,97 L204,119.1211 L632.5,119.1211 A2.5,2.5 0 0 1 635,121.6211 L635,343 A2.5,2.5 0 0 1 632.5,345.5 L134.5,345.5 A2.5,2.5 0 0 1 132,343 L132,97 A2.5,2.5 0 0 1 134.5,94.5 " fill="none" style="stroke:#000000;stroke-width:1.5;"/><line style="stroke:#000000;stroke-width:1.5;" x1="132" x2="204" y1="119.1211" y2="119.1211"/><text fill="#000000" font-family="sans-serif" font-size="14" font-weight="bold" lengthAdjust="spacing" textLength="59" x="136" y="111.6074">COURSE</text><text fill="#000000" font-family="sans-serif" font-size="14" font-style="italic" lengthAdjust="spacing" textLength="81" x="347" y="136.2285">&#171;aggregate&#187;</text></g><!--class Course--><g id="elem_Course"><rect codeLine="14" fill="#F1F1F1" height="105.7852" id="Course" rx="2.5" ry="2.5" style="stroke:#181818;stroke-width:0.5;" width="271" x="148" y="223.5"/><text fill="#000000" font-family="sans-serif" font-size="12" font-style="italic" lengthAdjust="spacing" textLength="35" x="266" y="241.4492">&#171;root&#187;</text><text fill="#000000" font-family="sans-serif" font-size="12" font-style="italic" lengthAdjust="spacing" textLength="43" x="262" y="257.4102">&#171;entity&#187;</text><text fill="#000000" font-family="sans-serif" font-size="14" lengthAdjust="spacing" textLength="46" x="260.5" y="275.5293">Course</text><line style="stroke:#181818;stroke-width:0.5;" x1="149" x2="418" y1="284.043" y2="284.043"/><ellipse cx="159" cy="298.8535" fill="#000000" rx="3" ry="3" style="stroke:#000000;stroke-width:1.0;"/><text fill="#000000" font-family="sans-serif" font-size="14" lengthAdjust="spacing" textLength="245" x="168" y="303.1504">id &#171;unique&#187; &#171;automatically generated&#187;</text><ellipse cx="159" cy="317.4746" fill="#000000" rx="3" ry="3" style="stroke:#000000;stroke-width:1.0;"/><text fill="#000000" font-family="sans-serif" font-size="14" lengthAdjust="spacing" textLength="98" x="168" y="321.7715">name &#171;unique&#187;</text></g><!--class CourseStatus--><g id="elem_CourseStatus"><rect codeLine="20" fill="#F1F1F1" height="89.8242" id="CourseStatus" rx="2.5" ry="2.5" style="stroke:#181818;stroke-width:0.5;" width="92" x="527" y="150.5"/><text fill="#000000" font-family="sans-serif" font-size="12" font-style="italic" lengthAdjust="spacing" textLength="46" x="550" y="168.4492">&#171;enum&#187;</text><text fill="#000000" font-family="sans-serif" font-size="14" lengthAdjust="spacing" textLength="86" x="530" y="186.5684">CourseStatus</text><line style="stroke:#181818;stroke-width:0.5;" x1="528" x2="618" y1="195.082" y2="195.082"/><ellipse cx="538" cy="209.8926" fill="none" rx="3" ry="3" style="stroke:#038048;stroke-width:1.0;"/><text fill="#000000" font-family="sans-serif" font-size="14" lengthAdjust="spacing" textLength="38" x="547" y="214.1895">OPEN</text><ellipse cx="538" cy="228.5137" fill="none" rx="3" ry="3" style="stroke:#038048;stroke-width:1.0;"/><text fill="#000000" font-family="sans-serif" font-size="14" lengthAdjust="spacing" textLength="57" x="547" y="232.8105">CLOSED</text></g><!--class Code--><g id="elem_Code"><rect codeLine="25" fill="#F1F1F1" height="52.582" id="Code" rx="2.5" ry="2.5" style="stroke:#181818;stroke-width:0.5;" width="83" x="531.5" y="276"/><text fill="#000000" font-family="sans-serif" font-size="12" font-style="italic" lengthAdjust="spacing" textLength="81" x="532.5" y="293.9492">&#171;value object&#187;</text><text fill="#000000" font-family="sans-serif" font-size="14" lengthAdjust="spacing" textLength="34" x="556" y="312.0684">Code</text><line style="stroke:#181818;stroke-width:0.5;" x1="532.5" x2="613.5" y1="320.582" y2="320.582"/></g><!--class Manager--><g id="elem_Manager"><rect codeLine="8" fill="#F1F1F1" height="71.2031" id="Manager" rx="2.5" ry="2.5" style="stroke:#181818;stroke-width:0.5;" width="62" x="252.5" y="7"/><text fill="#000000" font-family="sans-serif" font-size="12" font-style="italic" lengthAdjust="spacing" textLength="44" x="261.5" y="24.9492">&#171;Entity&#187;</text><text fill="#000000" font-family="sans-serif" font-size="14" lengthAdjust="spacing" textLength="56" x="255.5" y="43.0684">Manager</text><line style="stroke:#181818;stroke-width:0.5;" x1="253.5" x2="313.5" y1="51.582" y2="51.582"/><ellipse cx="263.5" cy="66.3926" fill="#000000" rx="3" ry="3" style="stroke:#000000;stroke-width:1.0;"/><text fill="#000000" font-family="sans-serif" font-size="14" lengthAdjust="spacing" textLength="35" x="272.5" y="70.6895">name</text></g><!--class ListStudentsInCourseService--><g id="elem_ListStudentsInCourseService"><rect codeLine="12" fill="#F1F1F1" height="52.582" id="ListStudentsInCourseService" rx="2.5" ry="2.5" style="stroke:#181818;stroke-width:0.5;" width="188" x="479" y="364"/><text fill="#000000" font-family="sans-serif" font-size="12" font-style="italic" lengthAdjust="spacing" textLength="53" x="546.5" y="381.9492">&#171;service&#187;</text><text fill="#000000" font-family="sans-serif" font-size="14" lengthAdjust="spacing" textLength="182" x="482" y="400.0684">ListStudentsInCourseService</text><line style="stroke:#181818;stroke-width:0.5;" x1="480" x2="666" y1="408.582" y2="408.582"/></g><!--class SystemUser--><g id="elem_SystemUser"><rect fill="#F1F1F1" height="36.6211" id="SystemUser" rx="2.5" ry="2.5" style="stroke:#181818;stroke-width:0.5;" width="81" x="7" y="24"/><text fill="#000000" font-family="sans-serif" font-size="14" lengthAdjust="spacing" textLength="75" x="10" y="44.1074">SystemUser</text><line style="stroke:#181818;stroke-width:0.5;" x1="8" x2="87" y1="52.6211" y2="52.6211"/></g><!--link Manager to CourseStatus--><g id="link_Manager_CourseStatus"><path codeLine="32" d="M284,78.22 C284,121.01 284,187 284,187 C284,187 521.89,187 521.89,187 " fill="none" id="Manager-to-CourseStatus" style="stroke:#181818;stroke-width:1.0;"/><polygon fill="#181818" points="526.89,187,517.89,183,521.89,187,517.89,191,526.89,187" style="stroke:#181818;stroke-width:1.0;"/><text fill="#000000" font-family="sans-serif" font-size="13" lengthAdjust="spacing" textLength="45" x="302.55" y="202.0283">decides</text><text fill="#000000" font-family="sans-serif" font-size="13" lengthAdjust="spacing" textLength="5" x="278.6438" y="100.1328">*</text><text fill="#000000" font-family="sans-serif" font-size="13" lengthAdjust="spacing" textLength="5" x="514.1428" y="201.0655">*</text></g><!--link Course to CourseStatus--><g id="link_Course_CourseStatus"><path codeLine="33" d="M419.35,232 C419.35,232 521.74,232 521.74,232 " fill="none" id="Course-to-CourseStatus" style="stroke:#181818;stroke-width:1.0;"/><polygon fill="#181818" points="526.74,232,517.74,228,521.74,232,517.74,236,526.74,232" style="stroke:#181818;stroke-width:1.0;"/><text fill="#000000" font-family="sans-serif" font-size="13" lengthAdjust="spacing" textLength="7" x="512.1205" y="252.9547">1</text></g><!--link Course to Code--><g id="link_Course_Code"><path codeLine="34" d="M419.35,293.67 C419.35,293.67 526.32,293.67 526.32,293.67 " fill="none" id="Course-to-Code" style="stroke:#181818;stroke-width:1.0;"/><polygon fill="#181818" points="531.32,293.67,522.32,289.67,526.32,293.67,522.32,297.67,531.32,293.67" style="stroke:#181818;stroke-width:1.0;"/><text fill="#000000" font-family="sans-serif" font-size="13" lengthAdjust="spacing" textLength="7" x="516.5547" y="307.7025">1</text></g><!--link SystemUser to Manager--><g id="link_SystemUser_Manager"><path codeLine="38" d="M88.07,42.5 C134.72,42.5 210.29,42.5 252.48,42.5 " fill="none" id="SystemUser-Manager" style="stroke:#181818;stroke-width:1.0;"/><polygon fill="#000000" points="134.28,52.1455,143.3251,55.0844,143.3251,49.2066,134.28,52.1455" style="stroke:#000000;stroke-width:1.0;"/><text fill="#000000" font-family="sans-serif" font-size="13" lengthAdjust="spacing" textLength="21" x="148.28" y="57.5283">is a</text><text fill="#000000" font-family="sans-serif" font-size="13" lengthAdjust="spacing" textLength="7" x="95.92" y="58.102">1</text><text fill="#000000" font-family="sans-serif" font-size="13" lengthAdjust="spacing" textLength="5" x="239.3095" y="58.6109">*</text></g><!--link Course to ListStudentsInCourseService--><g id="link_Course_ListStudentsInCourseService"><path codeLine="39" d="M419.08,311.33 C464.11,311.33 503,311.33 503,311.33 C503,311.33 503,340.73 503,363.7 " fill="none" id="Course-ListStudentsInCourseService" style="stroke:#181818;stroke-width:1.0;"/><polygon fill="#000000" points="460.4618,323.6226,454.3442,316.3407,451.2324,321.3272,460.4618,323.6226" style="stroke:#000000;stroke-width:1.0;"/><text fill="#000000" font-family="sans-serif" font-size="13" lengthAdjust="spacing" textLength="21" x="465.22" y="326.3583">use</text><text fill="#000000" font-family="sans-serif" font-size="13" lengthAdjust="spacing" textLength="7" x="427.1206" y="327.878">1</text><text fill="#000000" font-family="sans-serif" font-size="13" lengthAdjust="spacing" textLength="5" x="481.2344" y="352.6472">*</text></g><!--SRC=[VP7FJiCm3CRlUGfh5wIXCN6Tgbx63aZ041KFO1BJXULFIPn94-BTSLiAcv389Kxz-VkvziMEkSkhvR9p6BXuTwMZNsPwBnGqBOp5Dg5NUMz3XnA1iu7us174nBkeTjOGQ9kqep7s99zDLevU6JX2iksEmTX4ccqCIYdjC6Uunu0j9QYgJM3Bnxg63mLovX3Ga_gSX7SsSyF5KE1y6zQnf4mDfOFL9CLvZEfQTQZtuWYpzVRvgTdC98bjcwX5fX_pqN8q4K6AaILNLNJUmzY7DP8fmSei1X4MZXxPQdJk22q5Ik9jXFrRq_T-KgM6rETuKIZ-czqmSia3kFWpx2Li7pSF9y_rtRRPt9pwJ3zXUj81NP5blBp9V8KdalvCqvtDPx1OrCDzHbw18Itxokfx68Fg-bprDsUeTs-EcSa_vnvmtGC6_ucv0fi1ePggJoJ_xN85HSHrx_y5]--></g></svg>