<?xml version="1.0" encoding="us-ascii" standalone="no"?><svg xmlns="http://www.w3.org/2000/svg" xmlns:xlink="http://www.w3.org/1999/xlink" contentStyleType="text/css" height="830px" preserveAspectRatio="none" style="width:1096px;height:830px;background:#FFFFFF;" version="1.1" viewBox="0 0 1096 830" width="1096px" zoomAndPan="magnify"><defs/><g><rect fill="#FFFFFF" height="591.2383" style="stroke:#181818;stroke-width:1.0;" width="10" x="31" y="121.5332"/><rect fill="#FFFFFF" height="156.4551" style="stroke:#181818;stroke-width:1.0;" width="10" x="407" y="121.5332"/><rect fill="#FFFFFF" height="403.4922" style="stroke:#181818;stroke-width:1.0;" width="10" x="407" y="309.2793"/><rect fill="#FFFFFF" height="93.873" style="stroke:#181818;stroke-width:1.0;" width="10" x="688" y="152.8242"/><rect fill="#FFFFFF" height="340.9102" style="stroke:#181818;stroke-width:1.0;" width="10" x="688" y="340.5703"/><rect fill="#FFFFFF" height="75.582" style="stroke:#181818;stroke-width:1.0;" width="10" x="854" y="460.7344"/><rect fill="#FFFFFF" height="31.291" style="stroke:#181818;stroke-width:1.0;" width="10" x="968" y="184.1152"/><rect fill="#FFFFFF" height="31.291" style="stroke:#181818;stroke-width:1.0;" width="10" x="968" y="398.1523"/><rect fill="#FFFFFF" height="90.582" style="stroke:#181818;stroke-width:1.0;" width="10" x="968" y="567.6074"/><rect fill="none" height="295.6191" style="stroke:#000000;stroke-width:1.5;" width="486.5" x="603.5" y="355.5703"/><line style="stroke:#181818;stroke-width:0.5;stroke-dasharray:5.0,5.0;" x1="36" x2="36" y1="88.2422" y2="730.7715"/><line style="stroke:#181818;stroke-width:0.5;stroke-dasharray:5.0,5.0;" x1="411.5" x2="411.5" y1="88.2422" y2="730.7715"/><line style="stroke:#181818;stroke-width:0.5;stroke-dasharray:5.0,5.0;" x1="692.5" x2="692.5" y1="88.2422" y2="730.7715"/><line style="stroke:#181818;stroke-width:0.5;stroke-dasharray:5.0,5.0;" x1="859" x2="859" y1="88.2422" y2="730.7715"/><line style="stroke:#181818;stroke-width:0.5;stroke-dasharray:5.0,5.0;" x1="973" x2="973" y1="88.2422" y2="730.7715"/><text fill="#000000" font-family="sans-serif" font-size="14" lengthAdjust="spacing" textLength="56" x="5" y="84.7285">Manager</text><ellipse cx="36" cy="18.1211" fill="#E2E2F0" rx="8" ry="8" style="stroke:#181818;stroke-width:0.5;"/><path d="M36,26.1211 L36,53.1211 M23,34.1211 L49,34.1211 M36,53.1211 L23,68.1211 M36,53.1211 L49,68.1211 " fill="none" style="stroke:#181818;stroke-width:0.5;"/><text fill="#000000" font-family="sans-serif" font-size="14" lengthAdjust="spacing" textLength="56" x="5" y="744.8789">Manager</text><ellipse cx="36" cy="756.8926" fill="#E2E2F0" rx="8" ry="8" style="stroke:#181818;stroke-width:0.5;"/><path d="M36,764.8926 L36,791.8926 M23,772.8926 L49,772.8926 M36,791.8926 L23,806.8926 M36,791.8926 L49,806.8926 " fill="none" style="stroke:#181818;stroke-width:0.5;"/><rect fill="#E2E2F0" height="32.6211" rx="2.5" ry="2.5" style="stroke:#181818;stroke-width:0.5;" width="109" x="357.5" y="54.6211"/><text fill="#000000" font-family="sans-serif" font-size="14" lengthAdjust="spacing" textLength="95" x="364.5" y="76.7285">:closeCourseUI</text><rect fill="#E2E2F0" height="32.6211" rx="2.5" ry="2.5" style="stroke:#181818;stroke-width:0.5;" width="109" x="357.5" y="729.7715"/><text fill="#000000" font-family="sans-serif" font-size="14" lengthAdjust="spacing" textLength="95" x="364.5" y="751.8789">:closeCourseUI</text><rect fill="#E2E2F0" height="32.6211" rx="2.5" ry="2.5" style="stroke:#181818;stroke-width:0.5;" width="159" x="613.5" y="54.6211"/><text fill="#000000" font-family="sans-serif" font-size="14" lengthAdjust="spacing" textLength="145" x="620.5" y="76.7285">:closeCourseController</text><rect fill="#E2E2F0" height="32.6211" rx="2.5" ry="2.5" style="stroke:#181818;stroke-width:0.5;" width="159" x="613.5" y="729.7715"/><text fill="#000000" font-family="sans-serif" font-size="14" lengthAdjust="spacing" textLength="145" x="620.5" y="751.8789">:closeCourseController</text><rect fill="#E2E2F0" height="32.6211" rx="2.5" ry="2.5" style="stroke:#181818;stroke-width:0.5;" width="64" x="827" y="54.6211"/><text fill="#000000" font-family="sans-serif" font-size="14" lengthAdjust="spacing" textLength="50" x="834" y="76.7285">:Course</text><rect fill="#E2E2F0" height="32.6211" rx="2.5" ry="2.5" style="stroke:#181818;stroke-width:0.5;" width="64" x="827" y="729.7715"/><text fill="#000000" font-family="sans-serif" font-size="14" lengthAdjust="spacing" textLength="50" x="834" y="751.8789">:Course</text><text fill="#000000" font-family="sans-serif" font-size="14" font-style="italic" lengthAdjust="spacing" textLength="79" x="930.5" y="66.1074">&#171;repository&#187;</text><text fill="#000000" font-family="sans-serif" font-size="14" lengthAdjust="spacing" textLength="114" x="913" y="84.7285">CourseRepository</text><path d="M955,15 C955,5 973,5 973,5 C973,5 991,5 991,15 L991,41 C991,51 973,51 973,51 C973,51 955,51 955,41 L955,15 " fill="#E2E2F0" style="stroke:#181818;stroke-width:1.5;"/><path d="M955,15 C955,25 973,25 973,25 C973,25 991,25 991,15 " fill="none" style="stroke:#181818;stroke-width:1.5;"/><text fill="#000000" font-family="sans-serif" font-size="14" font-style="italic" lengthAdjust="spacing" textLength="79" x="930.5" y="744.8789">&#171;repository&#187;</text><text fill="#000000" font-family="sans-serif" font-size="14" lengthAdjust="spacing" textLength="114" x="913" y="763.5">CourseRepository</text><path d="M955,777.0137 C955,767.0137 973,767.0137 973,767.0137 C973,767.0137 991,767.0137 991,777.0137 L991,803.0137 C991,813.0137 973,813.0137 973,813.0137 C973,813.0137 955,813.0137 955,803.0137 L955,777.0137 " fill="#E2E2F0" style="stroke:#181818;stroke-width:1.5;"/><path d="M955,777.0137 C955,787.0137 973,787.0137 973,787.0137 C973,787.0137 991,787.0137 991,777.0137 " fill="none" style="stroke:#181818;stroke-width:1.5;"/><rect fill="#FFFFFF" height="591.2383" style="stroke:#181818;stroke-width:1.0;" width="10" x="31" y="121.5332"/><rect fill="#FFFFFF" height="156.4551" style="stroke:#181818;stroke-width:1.0;" width="10" x="407" y="121.5332"/><rect fill="#FFFFFF" height="403.4922" style="stroke:#181818;stroke-width:1.0;" width="10" x="407" y="309.2793"/><rect fill="#FFFFFF" height="93.873" style="stroke:#181818;stroke-width:1.0;" width="10" x="688" y="152.8242"/><rect fill="#FFFFFF" height="340.9102" style="stroke:#181818;stroke-width:1.0;" width="10" x="688" y="340.5703"/><rect fill="#FFFFFF" height="75.582" style="stroke:#181818;stroke-width:1.0;" width="10" x="854" y="460.7344"/><rect fill="#FFFFFF" height="31.291" style="stroke:#181818;stroke-width:1.0;" width="10" x="968" y="184.1152"/><rect fill="#FFFFFF" height="31.291" style="stroke:#181818;stroke-width:1.0;" width="10" x="968" y="398.1523"/><rect fill="#FFFFFF" height="90.582" style="stroke:#181818;stroke-width:1.0;" width="10" x="968" y="567.6074"/><polygon fill="#181818" points="395,117.5332,405,121.5332,395,125.5332,399,121.5332" style="stroke:#181818;stroke-width:1.0;"/><line style="stroke:#181818;stroke-width:1.0;" x1="41" x2="401" y1="121.5332" y2="121.5332"/><text fill="#000000" font-family="sans-serif" font-size="13" font-weight="bold" lengthAdjust="spacing" textLength="7" x="48" y="116.2705">1</text><text fill="#000000" font-family="sans-serif" font-size="13" lengthAdjust="spacing" textLength="181" x="59" y="116.2705">Starts asking to close a course</text><polygon fill="#181818" points="676,148.8242,686,152.8242,676,156.8242,680,152.8242" style="stroke:#181818;stroke-width:1.0;"/><line style="stroke:#181818;stroke-width:1.0;" x1="417" x2="682" y1="152.8242" y2="152.8242"/><text fill="#000000" font-family="sans-serif" font-size="13" font-weight="bold" lengthAdjust="spacing" textLength="7" x="424" y="147.5615">2</text><text fill="#000000" font-family="sans-serif" font-size="13" lengthAdjust="spacing" textLength="102" x="435" y="147.5615">getopenCourses()</text><polygon fill="#181818" points="956,180.1152,966,184.1152,956,188.1152,960,184.1152" style="stroke:#181818;stroke-width:1.0;"/><line style="stroke:#181818;stroke-width:1.0;" x1="698" x2="962" y1="184.1152" y2="184.1152"/><text fill="#000000" font-family="sans-serif" font-size="13" font-weight="bold" lengthAdjust="spacing" textLength="7" x="705" y="178.8525">3</text><text fill="#000000" font-family="sans-serif" font-size="13" lengthAdjust="spacing" textLength="240" x="716" y="178.8525">List&lt;Course&gt; Courses=getopenCourses()</text><polygon fill="#181818" points="709,211.4063,699,215.4063,709,219.4063,705,215.4063" style="stroke:#181818;stroke-width:1.0;"/><line style="stroke:#181818;stroke-width:1.0;stroke-dasharray:2.0,2.0;" x1="703" x2="972" y1="215.4063" y2="215.4063"/><text fill="#000000" font-family="sans-serif" font-size="13" font-weight="bold" lengthAdjust="spacing" textLength="7" x="715" y="210.1436">4</text><text fill="#000000" font-family="sans-serif" font-size="13" lengthAdjust="spacing" textLength="48" x="726" y="210.1436">Courses</text><polygon fill="#181818" points="428,242.6973,418,246.6973,428,250.6973,424,246.6973" style="stroke:#181818;stroke-width:1.0;"/><line style="stroke:#181818;stroke-width:1.0;stroke-dasharray:2.0,2.0;" x1="422" x2="692" y1="246.6973" y2="246.6973"/><text fill="#000000" font-family="sans-serif" font-size="13" font-weight="bold" lengthAdjust="spacing" textLength="7" x="434" y="241.4346">5</text><text fill="#000000" font-family="sans-serif" font-size="13" lengthAdjust="spacing" textLength="154" x="445" y="241.4346">List&lt;CourseDTO&gt; courses</text><polygon fill="#181818" points="52,273.9883,42,277.9883,52,281.9883,48,277.9883" style="stroke:#181818;stroke-width:1.0;"/><line style="stroke:#181818;stroke-width:1.0;stroke-dasharray:2.0,2.0;" x1="46" x2="411" y1="277.9883" y2="277.9883"/><text fill="#000000" font-family="sans-serif" font-size="13" font-weight="bold" lengthAdjust="spacing" textLength="7" x="58" y="272.7256">6</text><text fill="#000000" font-family="sans-serif" font-size="13" lengthAdjust="spacing" textLength="331" x="69" y="272.7256">Shows Courses and asks to choose the courses to close</text><polygon fill="#181818" points="395,305.2793,405,309.2793,395,313.2793,399,309.2793" style="stroke:#181818;stroke-width:1.0;"/><line style="stroke:#181818;stroke-width:1.0;" x1="41" x2="401" y1="309.2793" y2="309.2793"/><text fill="#000000" font-family="sans-serif" font-size="13" font-weight="bold" lengthAdjust="spacing" textLength="7" x="48" y="304.0166">7</text><text fill="#000000" font-family="sans-serif" font-size="13" lengthAdjust="spacing" textLength="98" x="59" y="304.0166">Selects  courses</text><polygon fill="#181818" points="676,336.5703,686,340.5703,676,344.5703,680,340.5703" style="stroke:#181818;stroke-width:1.0;"/><line style="stroke:#181818;stroke-width:1.0;" x1="417" x2="682" y1="340.5703" y2="340.5703"/><text fill="#000000" font-family="sans-serif" font-size="13" font-weight="bold" lengthAdjust="spacing" textLength="7" x="424" y="335.3076">8</text><text fill="#000000" font-family="sans-serif" font-size="13" lengthAdjust="spacing" textLength="241" x="435" y="335.3076">closingCourses(List&lt;String&gt; courseCode)</text><path d="M603.5,355.5703 L676.5,355.5703 L676.5,364.8613 L666.5,374.8613 L603.5,374.8613 L603.5,355.5703 " fill="#EEEEEE" style="stroke:#000000;stroke-width:1.5;"/><rect fill="none" height="295.6191" style="stroke:#000000;stroke-width:1.5;" width="486.5" x="603.5" y="355.5703"/><text fill="#000000" font-family="sans-serif" font-size="13" font-weight="bold" lengthAdjust="spacing" textLength="28" x="618.5" y="370.5986">loop</text><text fill="#000000" font-family="sans-serif" font-size="11" font-weight="bold" lengthAdjust="spacing" textLength="66" x="691.5" y="369.4404">[for each ID]</text><polygon fill="#181818" points="956,394.1523,966,398.1523,956,402.1523,960,398.1523" style="stroke:#181818;stroke-width:1.0;"/><line style="stroke:#181818;stroke-width:1.0;" x1="698" x2="962" y1="398.1523" y2="398.1523"/><text fill="#000000" font-family="sans-serif" font-size="13" font-weight="bold" lengthAdjust="spacing" textLength="7" x="705" y="392.8896">9</text><text fill="#000000" font-family="sans-serif" font-size="13" lengthAdjust="spacing" textLength="141" x="716" y="392.8896">findbyCode(courseCode)</text><polygon fill="#181818" points="709,425.4434,699,429.4434,709,433.4434,705,429.4434" style="stroke:#181818;stroke-width:1.0;"/><line style="stroke:#181818;stroke-width:1.0;stroke-dasharray:2.0,2.0;" x1="703" x2="972" y1="429.4434" y2="429.4434"/><text fill="#000000" font-family="sans-serif" font-size="13" font-weight="bold" lengthAdjust="spacing" textLength="14" x="715" y="424.1807">10</text><text fill="#000000" font-family="sans-serif" font-size="13" lengthAdjust="spacing" textLength="41" x="733" y="424.1807">Course</text><polygon fill="#181818" points="842,456.7344,852,460.7344,842,464.7344,846,460.7344" style="stroke:#181818;stroke-width:1.0;"/><line style="stroke:#181818;stroke-width:1.0;" x1="698" x2="848" y1="460.7344" y2="460.7344"/><text fill="#000000" font-family="sans-serif" font-size="13" font-weight="bold" lengthAdjust="spacing" textLength="14" x="705" y="455.4717">11</text><text fill="#000000" font-family="sans-serif" font-size="13" lengthAdjust="spacing" textLength="119" x="723" y="455.4717">closeCourse(course)</text><line style="stroke:#181818;stroke-width:1.0;" x1="864" x2="906" y1="492.0254" y2="492.0254"/><line style="stroke:#181818;stroke-width:1.0;" x1="906" x2="906" y1="492.0254" y2="505.0254"/><line style="stroke:#181818;stroke-width:1.0;" x1="865" x2="906" y1="505.0254" y2="505.0254"/><polygon fill="#181818" points="875,501.0254,865,505.0254,875,509.0254,871,505.0254" style="stroke:#181818;stroke-width:1.0;"/><text fill="#000000" font-family="sans-serif" font-size="13" font-weight="bold" lengthAdjust="spacing" textLength="14" x="871" y="486.7627">12</text><text fill="#000000" font-family="sans-serif" font-size="13" lengthAdjust="spacing" textLength="72" x="889" y="486.7627">closeCourse</text><polygon fill="#181818" points="709,532.3164,699,536.3164,709,540.3164,705,536.3164" style="stroke:#181818;stroke-width:1.0;"/><line style="stroke:#181818;stroke-width:1.0;" x1="703" x2="858" y1="536.3164" y2="536.3164"/><text fill="#000000" font-family="sans-serif" font-size="13" font-weight="bold" lengthAdjust="spacing" textLength="14" x="715" y="531.0537">13</text><text fill="#000000" font-family="sans-serif" font-size="13" lengthAdjust="spacing" textLength="36" x="733" y="531.0537">status</text><polygon fill="#181818" points="956,563.6074,966,567.6074,956,571.6074,960,567.6074" style="stroke:#181818;stroke-width:1.0;"/><line style="stroke:#181818;stroke-width:1.0;" x1="698" x2="962" y1="567.6074" y2="567.6074"/><text fill="#000000" font-family="sans-serif" font-size="13" font-weight="bold" lengthAdjust="spacing" textLength="14" x="705" y="562.3447">14</text><text fill="#000000" font-family="sans-serif" font-size="13" lengthAdjust="spacing" textLength="70" x="723" y="562.3447">add(Course)</text><line style="stroke:#181818;stroke-width:1.0;" x1="978" x2="1020" y1="598.8984" y2="598.8984"/><line style="stroke:#181818;stroke-width:1.0;" x1="1020" x2="1020" y1="598.8984" y2="611.8984"/><line style="stroke:#181818;stroke-width:1.0;" x1="979" x2="1020" y1="611.8984" y2="611.8984"/><polygon fill="#181818" points="989,607.8984,979,611.8984,989,615.8984,985,611.8984" style="stroke:#181818;stroke-width:1.0;"/><text fill="#000000" font-family="sans-serif" font-size="13" font-weight="bold" lengthAdjust="spacing" textLength="14" x="985" y="593.6357">15</text><text fill="#000000" font-family="sans-serif" font-size="13" lengthAdjust="spacing" textLength="75" x="1003" y="593.6357">save(Course)</text><polygon fill="#181818" points="709,639.1895,699,643.1895,709,647.1895,705,643.1895" style="stroke:#181818;stroke-width:1.0;"/><line style="stroke:#181818;stroke-width:1.0;stroke-dasharray:2.0,2.0;" x1="703" x2="967" y1="643.1895" y2="643.1895"/><text fill="#000000" font-family="sans-serif" font-size="13" font-weight="bold" lengthAdjust="spacing" textLength="14" x="715" y="637.9268">16</text><text fill="#000000" font-family="sans-serif" font-size="13" lengthAdjust="spacing" textLength="124" x="733" y="637.9268">Status change status</text><polygon fill="#181818" points="428,677.4805,418,681.4805,428,685.4805,424,681.4805" style="stroke:#181818;stroke-width:1.0;"/><line style="stroke:#181818;stroke-width:1.0;stroke-dasharray:2.0,2.0;" x1="422" x2="692" y1="681.4805" y2="681.4805"/><text fill="#000000" font-family="sans-serif" font-size="13" font-weight="bold" lengthAdjust="spacing" textLength="14" x="434" y="676.2178">17</text><text fill="#000000" font-family="sans-serif" font-size="13" lengthAdjust="spacing" textLength="124" x="452" y="676.2178">Status change status</text><polygon fill="#181818" points="47,708.7715,37,712.7715,47,716.7715,43,712.7715" style="stroke:#181818;stroke-width:1.0;"/><line style="stroke:#181818;stroke-width:1.0;stroke-dasharray:2.0,2.0;" x1="41" x2="411" y1="712.7715" y2="712.7715"/><text fill="#000000" font-family="sans-serif" font-size="13" font-weight="bold" lengthAdjust="spacing" textLength="14" x="53" y="707.5088">18</text><text fill="#000000" font-family="sans-serif" font-size="13" lengthAdjust="spacing" textLength="124" x="71" y="707.5088">Status change status</text><!--SRC=[XP91JiCm44NtFeN5Xh8etKSX4cetaK18BJt0D1cIYDGEzhY8spDsd906MZPHR7__-VCyjpLHPvFLgcj1aJkszuK-hYn-E5G5Bii6AWD78S2HLkvuG2F4Oq7Qo6TGKA6HOFsl41qOQegcOnjvanIjjhZMpbZSvpTUjCylIzPQaT5jYoP8UJdJzh9uw8meWU005cL_iCLEsuPJVKM5J5CpxcMP41nHBZCE8HEv8_Qsh7nlL2L9ov14WYo2cO22cXCGXhx61USN-vmzE1sRL4YwGzNNjukx7w5FBmH_bncVfkbs4YIHJusbjB-LnVJsuPgPyrvkwSrytQWH9SurYZNx_Ap2vlKbYrtDRgZG37VZmJ2IMd_QmLk2AZqT6zZKsiEX6WUZaTZKqTDXgn4njbWmux7udnYJuCEFC3GUek_8yDQGUwrBl1CpkgtMdNpZ8UG0jSmt5sc_DQeyV7cFnTJk3Dr8Tu0xPpkOcpvldDbeU9wDHzD_edoY7hSzRKj0Rlw4vlBCG5akrh7Qh-XXYjWJJZYA9YtjGYr-Hb0L3fMH7zWp55V6wC-BLsVedmlyyfCLt_a6]--></g></svg>