<?xml version="1.0" encoding="us-ascii" standalone="no"?><svg xmlns="http://www.w3.org/2000/svg" xmlns:xlink="http://www.w3.org/1999/xlink" contentStyleType="text/css" height="830px" preserveAspectRatio="none" style="width:1118px;height:830px;background:#FFFFFF;" version="1.1" viewBox="0 0 1118 830" width="1118px" zoomAndPan="magnify"><defs/><g><rect fill="#FFFFFF" height="591.2383" style="stroke:#181818;stroke-width:1.0;" width="10" x="31" y="121.5332"/><rect fill="#FFFFFF" height="156.4551" style="stroke:#181818;stroke-width:1.0;" width="10" x="404" y="121.5332"/><rect fill="#FFFFFF" height="403.4922" style="stroke:#181818;stroke-width:1.0;" width="10" x="404" y="309.2793"/><rect fill="#FFFFFF" height="93.873" style="stroke:#181818;stroke-width:1.0;" width="10" x="700" y="152.8242"/><rect fill="#FFFFFF" height="340.9102" style="stroke:#181818;stroke-width:1.0;" width="10" x="700" y="340.5703"/><rect fill="#FFFFFF" height="75.582" style="stroke:#181818;stroke-width:1.0;" width="10" x="866" y="460.7344"/><rect fill="#FFFFFF" height="31.291" style="stroke:#181818;stroke-width:1.0;" width="10" x="990" y="184.1152"/><rect fill="#FFFFFF" height="31.291" style="stroke:#181818;stroke-width:1.0;" width="10" x="990" y="398.1523"/><rect fill="#FFFFFF" height="90.582" style="stroke:#181818;stroke-width:1.0;" width="10" x="990" y="567.6074"/><rect fill="none" height="295.6191" style="stroke:#000000;stroke-width:1.5;" width="496" x="616" y="355.5703"/><line style="stroke:#181818;stroke-width:0.5;stroke-dasharray:5.0,5.0;" x1="36" x2="36" y1="88.2422" y2="730.7715"/><line style="stroke:#181818;stroke-width:0.5;stroke-dasharray:5.0,5.0;" x1="409" x2="409" y1="88.2422" y2="730.7715"/><line style="stroke:#181818;stroke-width:0.5;stroke-dasharray:5.0,5.0;" x1="705" x2="705" y1="88.2422" y2="730.7715"/><line style="stroke:#181818;stroke-width:0.5;stroke-dasharray:5.0,5.0;" x1="871" x2="871" y1="88.2422" y2="730.7715"/><line style="stroke:#181818;stroke-width:0.5;stroke-dasharray:5.0,5.0;" x1="995" x2="995" y1="88.2422" y2="730.7715"/><text fill="#000000" font-family="sans-serif" font-size="14" lengthAdjust="spacing" textLength="56" x="5" y="84.7285">Manager</text><ellipse cx="36" cy="18.1211" fill="#E2E2F0" rx="8" ry="8" style="stroke:#181818;stroke-width:0.5;"/><path d="M36,26.1211 L36,53.1211 M23,34.1211 L49,34.1211 M36,53.1211 L23,68.1211 M36,53.1211 L49,68.1211 " fill="none" style="stroke:#181818;stroke-width:0.5;"/><text fill="#000000" font-family="sans-serif" font-size="14" lengthAdjust="spacing" textLength="56" x="5" y="744.8789">Manager</text><ellipse cx="36" cy="756.8926" fill="#E2E2F0" rx="8" ry="8" style="stroke:#181818;stroke-width:0.5;"/><path d="M36,764.8926 L36,791.8926 M23,772.8926 L49,772.8926 M36,791.8926 L23,806.8926 M36,791.8926 L49,806.8926 " fill="none" style="stroke:#181818;stroke-width:0.5;"/><rect fill="#E2E2F0" height="32.6211" rx="2.5" ry="2.5" style="stroke:#181818;stroke-width:0.5;" width="108" x="355" y="54.6211"/><text fill="#000000" font-family="sans-serif" font-size="14" lengthAdjust="spacing" textLength="94" x="362" y="76.7285">:openCourseUI</text><rect fill="#E2E2F0" height="32.6211" rx="2.5" ry="2.5" style="stroke:#181818;stroke-width:0.5;" width="108" x="355" y="729.7715"/><text fill="#000000" font-family="sans-serif" font-size="14" lengthAdjust="spacing" textLength="94" x="362" y="751.8789">:openCourseUI</text><rect fill="#E2E2F0" height="32.6211" rx="2.5" ry="2.5" style="stroke:#181818;stroke-width:0.5;" width="158" x="626" y="54.6211"/><text fill="#000000" font-family="sans-serif" font-size="14" lengthAdjust="spacing" textLength="144" x="633" y="76.7285">:openCourseController</text><rect fill="#E2E2F0" height="32.6211" rx="2.5" ry="2.5" style="stroke:#181818;stroke-width:0.5;" width="158" x="626" y="729.7715"/><text fill="#000000" font-family="sans-serif" font-size="14" lengthAdjust="spacing" textLength="144" x="633" y="751.8789">:openCourseController</text><rect fill="#E2E2F0" height="32.6211" rx="2.5" ry="2.5" style="stroke:#181818;stroke-width:0.5;" width="64" x="839" y="54.6211"/><text fill="#000000" font-family="sans-serif" font-size="14" lengthAdjust="spacing" textLength="50" x="846" y="76.7285">:Course</text><rect fill="#E2E2F0" height="32.6211" rx="2.5" ry="2.5" style="stroke:#181818;stroke-width:0.5;" width="64" x="839" y="729.7715"/><text fill="#000000" font-family="sans-serif" font-size="14" lengthAdjust="spacing" textLength="50" x="846" y="751.8789">:Course</text><text fill="#000000" font-family="sans-serif" font-size="14" font-style="italic" lengthAdjust="spacing" textLength="79" x="952.5" y="66.1074">&#171;repository&#187;</text><text fill="#000000" font-family="sans-serif" font-size="14" lengthAdjust="spacing" textLength="114" x="935" y="84.7285">CourseRepository</text><path d="M977,15 C977,5 995,5 995,5 C995,5 1013,5 1013,15 L1013,41 C1013,51 995,51 995,51 C995,51 977,51 977,41 L977,15 " fill="#E2E2F0" style="stroke:#181818;stroke-width:1.5;"/><path d="M977,15 C977,25 995,25 995,25 C995,25 1013,25 1013,15 " fill="none" style="stroke:#181818;stroke-width:1.5;"/><text fill="#000000" font-family="sans-serif" font-size="14" font-style="italic" lengthAdjust="spacing" textLength="79" x="952.5" y="744.8789">&#171;repository&#187;</text><text fill="#000000" font-family="sans-serif" font-size="14" lengthAdjust="spacing" textLength="114" x="935" y="763.5">CourseRepository</text><path d="M977,777.0137 C977,767.0137 995,767.0137 995,767.0137 C995,767.0137 1013,767.0137 1013,777.0137 L1013,803.0137 C1013,813.0137 995,813.0137 995,813.0137 C995,813.0137 977,813.0137 977,803.0137 L977,777.0137 " fill="#E2E2F0" style="stroke:#181818;stroke-width:1.5;"/><path d="M977,777.0137 C977,787.0137 995,787.0137 995,787.0137 C995,787.0137 1013,787.0137 1013,777.0137 " fill="none" style="stroke:#181818;stroke-width:1.5;"/><rect fill="#FFFFFF" height="591.2383" style="stroke:#181818;stroke-width:1.0;" width="10" x="31" y="121.5332"/><rect fill="#FFFFFF" height="156.4551" style="stroke:#181818;stroke-width:1.0;" width="10" x="404" y="121.5332"/><rect fill="#FFFFFF" height="403.4922" style="stroke:#181818;stroke-width:1.0;" width="10" x="404" y="309.2793"/><rect fill="#FFFFFF" height="93.873" style="stroke:#181818;stroke-width:1.0;" width="10" x="700" y="152.8242"/><rect fill="#FFFFFF" height="340.9102" style="stroke:#181818;stroke-width:1.0;" width="10" x="700" y="340.5703"/><rect fill="#FFFFFF" height="75.582" style="stroke:#181818;stroke-width:1.0;" width="10" x="866" y="460.7344"/><rect fill="#FFFFFF" height="31.291" style="stroke:#181818;stroke-width:1.0;" width="10" x="990" y="184.1152"/><rect fill="#FFFFFF" height="31.291" style="stroke:#181818;stroke-width:1.0;" width="10" x="990" y="398.1523"/><rect fill="#FFFFFF" height="90.582" style="stroke:#181818;stroke-width:1.0;" width="10" x="990" y="567.6074"/><polygon fill="#181818" points="392,117.5332,402,121.5332,392,125.5332,396,121.5332" style="stroke:#181818;stroke-width:1.0;"/><line style="stroke:#181818;stroke-width:1.0;" x1="41" x2="398" y1="121.5332" y2="121.5332"/><text fill="#000000" font-family="sans-serif" font-size="13" font-weight="bold" lengthAdjust="spacing" textLength="7" x="48" y="116.2705">1</text><text fill="#000000" font-family="sans-serif" font-size="13" lengthAdjust="spacing" textLength="178" x="59" y="116.2705">Starts asking to open a course</text><polygon fill="#181818" points="688,148.8242,698,152.8242,688,156.8242,692,152.8242" style="stroke:#181818;stroke-width:1.0;"/><line style="stroke:#181818;stroke-width:1.0;" x1="414" x2="694" y1="152.8242" y2="152.8242"/><text fill="#000000" font-family="sans-serif" font-size="13" font-weight="bold" lengthAdjust="spacing" textLength="7" x="421" y="147.5615">2</text><text fill="#000000" font-family="sans-serif" font-size="13" lengthAdjust="spacing" textLength="112" x="432" y="147.5615">getclosedCourses()</text><polygon fill="#181818" points="978,180.1152,988,184.1152,978,188.1152,982,184.1152" style="stroke:#181818;stroke-width:1.0;"/><line style="stroke:#181818;stroke-width:1.0;" x1="710" x2="984" y1="184.1152" y2="184.1152"/><text fill="#000000" font-family="sans-serif" font-size="13" font-weight="bold" lengthAdjust="spacing" textLength="7" x="717" y="178.8525">3</text><text fill="#000000" font-family="sans-serif" font-size="13" lengthAdjust="spacing" textLength="250" x="728" y="178.8525">List&lt;Course&gt; Courses=getclosedCourses()</text><polygon fill="#181818" points="721,211.4063,711,215.4063,721,219.4063,717,215.4063" style="stroke:#181818;stroke-width:1.0;"/><line style="stroke:#181818;stroke-width:1.0;stroke-dasharray:2.0,2.0;" x1="715" x2="994" y1="215.4063" y2="215.4063"/><text fill="#000000" font-family="sans-serif" font-size="13" font-weight="bold" lengthAdjust="spacing" textLength="7" x="727" y="210.1436">4</text><text fill="#000000" font-family="sans-serif" font-size="13" lengthAdjust="spacing" textLength="48" x="738" y="210.1436">Courses</text><polygon fill="#181818" points="425,242.6973,415,246.6973,425,250.6973,421,246.6973" style="stroke:#181818;stroke-width:1.0;"/><line style="stroke:#181818;stroke-width:1.0;stroke-dasharray:2.0,2.0;" x1="419" x2="704" y1="246.6973" y2="246.6973"/><text fill="#000000" font-family="sans-serif" font-size="13" font-weight="bold" lengthAdjust="spacing" textLength="7" x="431" y="241.4346">5</text><text fill="#000000" font-family="sans-serif" font-size="13" lengthAdjust="spacing" textLength="154" x="442" y="241.4346">List&lt;CourseDTO&gt; courses</text><polygon fill="#181818" points="52,273.9883,42,277.9883,52,281.9883,48,277.9883" style="stroke:#181818;stroke-width:1.0;"/><line style="stroke:#181818;stroke-width:1.0;stroke-dasharray:2.0,2.0;" x1="46" x2="408" y1="277.9883" y2="277.9883"/><text fill="#000000" font-family="sans-serif" font-size="13" font-weight="bold" lengthAdjust="spacing" textLength="7" x="58" y="272.7256">6</text><text fill="#000000" font-family="sans-serif" font-size="13" lengthAdjust="spacing" textLength="328" x="69" y="272.7256">Shows Courses and asks to choose the courses to open</text><polygon fill="#181818" points="392,305.2793,402,309.2793,392,313.2793,396,309.2793" style="stroke:#181818;stroke-width:1.0;"/><line style="stroke:#181818;stroke-width:1.0;" x1="41" x2="398" y1="309.2793" y2="309.2793"/><text fill="#000000" font-family="sans-serif" font-size="13" font-weight="bold" lengthAdjust="spacing" textLength="7" x="48" y="304.0166">7</text><text fill="#000000" font-family="sans-serif" font-size="13" lengthAdjust="spacing" textLength="98" x="59" y="304.0166">Selects  courses</text><polygon fill="#181818" points="688,336.5703,698,340.5703,688,344.5703,692,340.5703" style="stroke:#181818;stroke-width:1.0;"/><line style="stroke:#181818;stroke-width:1.0;" x1="414" x2="694" y1="340.5703" y2="340.5703"/><text fill="#000000" font-family="sans-serif" font-size="13" font-weight="bold" lengthAdjust="spacing" textLength="7" x="421" y="335.3076">8</text><text fill="#000000" font-family="sans-serif" font-size="13" lengthAdjust="spacing" textLength="256" x="432" y="335.3076">openingCourses(List&lt;String&gt; courseCodes))</text><path d="M616,355.5703 L689,355.5703 L689,364.8613 L679,374.8613 L616,374.8613 L616,355.5703 " fill="#EEEEEE" style="stroke:#000000;stroke-width:1.5;"/><rect fill="none" height="295.6191" style="stroke:#000000;stroke-width:1.5;" width="496" x="616" y="355.5703"/><text fill="#000000" font-family="sans-serif" font-size="13" font-weight="bold" lengthAdjust="spacing" textLength="28" x="631" y="370.5986">loop</text><text fill="#000000" font-family="sans-serif" font-size="11" font-weight="bold" lengthAdjust="spacing" textLength="66" x="704" y="369.4404">[for each ID]</text><polygon fill="#181818" points="978,394.1523,988,398.1523,978,402.1523,982,398.1523" style="stroke:#181818;stroke-width:1.0;"/><line style="stroke:#181818;stroke-width:1.0;" x1="710" x2="984" y1="398.1523" y2="398.1523"/><text fill="#000000" font-family="sans-serif" font-size="13" font-weight="bold" lengthAdjust="spacing" textLength="7" x="717" y="392.8896">9</text><text fill="#000000" font-family="sans-serif" font-size="13" lengthAdjust="spacing" textLength="141" x="728" y="392.8896">findbyCode(courseCode)</text><polygon fill="#181818" points="721,425.4434,711,429.4434,721,433.4434,717,429.4434" style="stroke:#181818;stroke-width:1.0;"/><line style="stroke:#181818;stroke-width:1.0;stroke-dasharray:2.0,2.0;" x1="715" x2="994" y1="429.4434" y2="429.4434"/><text fill="#000000" font-family="sans-serif" font-size="13" font-weight="bold" lengthAdjust="spacing" textLength="14" x="727" y="424.1807">10</text><text fill="#000000" font-family="sans-serif" font-size="13" lengthAdjust="spacing" textLength="41" x="745" y="424.1807">Course</text><polygon fill="#181818" points="854,456.7344,864,460.7344,854,464.7344,858,460.7344" style="stroke:#181818;stroke-width:1.0;"/><line style="stroke:#181818;stroke-width:1.0;" x1="710" x2="860" y1="460.7344" y2="460.7344"/><text fill="#000000" font-family="sans-serif" font-size="13" font-weight="bold" lengthAdjust="spacing" textLength="14" x="717" y="455.4717">11</text><text fill="#000000" font-family="sans-serif" font-size="13" lengthAdjust="spacing" textLength="119" x="735" y="455.4717">OpenCourse(course)</text><line style="stroke:#181818;stroke-width:1.0;" x1="876" x2="918" y1="492.0254" y2="492.0254"/><line style="stroke:#181818;stroke-width:1.0;" x1="918" x2="918" y1="492.0254" y2="505.0254"/><line style="stroke:#181818;stroke-width:1.0;" x1="877" x2="918" y1="505.0254" y2="505.0254"/><polygon fill="#181818" points="887,501.0254,877,505.0254,887,509.0254,883,505.0254" style="stroke:#181818;stroke-width:1.0;"/><text fill="#000000" font-family="sans-serif" font-size="13" font-weight="bold" lengthAdjust="spacing" textLength="14" x="883" y="486.7627">12</text><text fill="#000000" font-family="sans-serif" font-size="13" lengthAdjust="spacing" textLength="69" x="901" y="486.7627">openCourse</text><polygon fill="#181818" points="721,532.3164,711,536.3164,721,540.3164,717,536.3164" style="stroke:#181818;stroke-width:1.0;"/><line style="stroke:#181818;stroke-width:1.0;" x1="715" x2="870" y1="536.3164" y2="536.3164"/><text fill="#000000" font-family="sans-serif" font-size="13" font-weight="bold" lengthAdjust="spacing" textLength="14" x="727" y="531.0537">13</text><text fill="#000000" font-family="sans-serif" font-size="13" lengthAdjust="spacing" textLength="36" x="745" y="531.0537">status</text><polygon fill="#181818" points="978,563.6074,988,567.6074,978,571.6074,982,567.6074" style="stroke:#181818;stroke-width:1.0;"/><line style="stroke:#181818;stroke-width:1.0;" x1="710" x2="984" y1="567.6074" y2="567.6074"/><text fill="#000000" font-family="sans-serif" font-size="13" font-weight="bold" lengthAdjust="spacing" textLength="14" x="717" y="562.3447">14</text><text fill="#000000" font-family="sans-serif" font-size="13" lengthAdjust="spacing" textLength="70" x="735" y="562.3447">add(Course)</text><line style="stroke:#181818;stroke-width:1.0;" x1="1000" x2="1042" y1="598.8984" y2="598.8984"/><line style="stroke:#181818;stroke-width:1.0;" x1="1042" x2="1042" y1="598.8984" y2="611.8984"/><line style="stroke:#181818;stroke-width:1.0;" x1="1001" x2="1042" y1="611.8984" y2="611.8984"/><polygon fill="#181818" points="1011,607.8984,1001,611.8984,1011,615.8984,1007,611.8984" style="stroke:#181818;stroke-width:1.0;"/><text fill="#000000" font-family="sans-serif" font-size="13" font-weight="bold" lengthAdjust="spacing" textLength="14" x="1007" y="593.6357">15</text><text fill="#000000" font-family="sans-serif" font-size="13" lengthAdjust="spacing" textLength="75" x="1025" y="593.6357">save(Course)</text><polygon fill="#181818" points="721,639.1895,711,643.1895,721,647.1895,717,643.1895" style="stroke:#181818;stroke-width:1.0;"/><line style="stroke:#181818;stroke-width:1.0;stroke-dasharray:2.0,2.0;" x1="715" x2="989" y1="643.1895" y2="643.1895"/><text fill="#000000" font-family="sans-serif" font-size="13" font-weight="bold" lengthAdjust="spacing" textLength="14" x="727" y="637.9268">16</text><text fill="#000000" font-family="sans-serif" font-size="13" lengthAdjust="spacing" textLength="124" x="745" y="637.9268">Status change status</text><polygon fill="#181818" points="425,677.4805,415,681.4805,425,685.4805,421,681.4805" style="stroke:#181818;stroke-width:1.0;"/><line style="stroke:#181818;stroke-width:1.0;stroke-dasharray:2.0,2.0;" x1="419" x2="704" y1="681.4805" y2="681.4805"/><text fill="#000000" font-family="sans-serif" font-size="13" font-weight="bold" lengthAdjust="spacing" textLength="14" x="431" y="676.2178">17</text><text fill="#000000" font-family="sans-serif" font-size="13" lengthAdjust="spacing" textLength="124" x="449" y="676.2178">Status change status</text><polygon fill="#181818" points="47,708.7715,37,712.7715,47,716.7715,43,712.7715" style="stroke:#181818;stroke-width:1.0;"/><line style="stroke:#181818;stroke-width:1.0;stroke-dasharray:2.0,2.0;" x1="41" x2="408" y1="712.7715" y2="712.7715"/><text fill="#000000" font-family="sans-serif" font-size="13" font-weight="bold" lengthAdjust="spacing" textLength="14" x="53" y="707.5088">18</text><text fill="#000000" font-family="sans-serif" font-size="13" lengthAdjust="spacing" textLength="124" x="71" y="707.5088">Status change status</text><!--SRC=[XL91RkCm3Bph5KGlcnpIt0tNm2Az66XHeDayW95OswWZUIMgY_w-b6CxYRT9BuOb3OV3uVogcRkGhTTTYvRZeRtNxh0Ez3UIrRGo3LOU3qfXP6VZOKzUgT-QdOTdj5YH1mpfLwaEFJUwwOG6xZBNaTsuw0Fjohk4sPLN4HjdsRks9TyZvJY37c73O_JA8ECU0y7nuPKw5nhHz3aW8C_zT5SKIeb0M1MY0JBOid07GRutjW9sa8G0Wkwv56fkFf2f7sewY7grAuL2n0b7HQnR5yWS1OJ5yWHDyfMIxwgGrpn_FLEImLCJE3zM5OFyy72RBYQsk4fqgVU0KORc62kONNdHu_7FIp5CDgkm_K0oKV96NAdTlp1o0rgJ30h97bqxaGPSqqWqcdPEc0mIfibaQacBorFlRvtCUXfPmpXthtpBNgv6sHjdA2oNwjBWrhaEtYI5eg26yl6gts-DDVlFHB8uyStidTmTpPrxEvBx35wcr0vybyeadEape4yHdswJru6Huto1_dfcq9Z5PcZsd_0-HSA97pI1pWRQzhraYMWh6ZkJh3Svg6w4wDl2cmdweK0MVtQIcYy0]--></g></svg>