<?xml version="1.0" encoding="us-ascii" standalone="no"?><svg xmlns="http://www.w3.org/2000/svg" xmlns:xlink="http://www.w3.org/1999/xlink" contentStyleType="text/css" height="862px" preserveAspectRatio="none" style="width:2624px;height:862px;background:#FFFFFF;" version="1.1" viewBox="0 0 2624 862" width="2624px" zoomAndPan="magnify"><defs/><g><!--class CreateFormativeExamUI--><g id="elem_CreateFormativeExamUI"><rect codeLine="4" fill="#F1F1F1" height="122.4844" id="CreateFormativeExamUI" rx="2.5" ry="2.5" style="stroke:#181818;stroke-width:0.5;" width="465" x="1660.5" y="306.12"/><ellipse cx="1812.75" cy="322.12" fill="#ADD1B2" rx="11" ry="11" style="stroke:#181818;stroke-width:1.0;"/><path d="M1815.5156,317.995 Q1815.6719,317.7763 1815.8594,317.6669 Q1816.0469,317.5575 1816.2656,317.5575 Q1816.6406,317.5575 1816.875,317.8231 Q1817.1094,318.0731 1817.1094,318.6825 L1817.1094,320.1356 Q1817.1094,320.745 1816.875,321.0106 Q1816.6406,321.2763 1816.2656,321.2763 Q1815.9219,321.2763 1815.7188,321.0731 Q1815.5156,320.8856 1815.4063,320.37 Q1815.3594,320.0106 1815.1719,319.8231 Q1814.8438,319.4481 1814.2344,319.2294 Q1813.625,319.0106 1813,319.0106 Q1812.2344,319.0106 1811.5938,319.3388 Q1810.9688,319.6669 1810.4688,320.4169 Q1809.9844,321.1669 1809.9844,322.1981 L1809.9844,323.2919 Q1809.9844,324.5263 1810.875,325.3544 Q1811.7656,326.1669 1813.3594,326.1669 Q1814.2969,326.1669 1814.9531,325.9169 Q1815.3438,325.7606 1815.7656,325.3231 Q1816.0313,325.0575 1816.1719,324.9794 Q1816.3281,324.9013 1816.5313,324.9013 Q1816.8594,324.9013 1817.1094,325.1669 Q1817.375,325.4169 1817.375,325.7606 Q1817.375,326.1044 1817.0313,326.5106 Q1816.5313,327.0888 1815.7344,327.4169 Q1814.6563,327.87 1813.3594,327.87 Q1811.8438,327.87 1810.6406,327.245 Q1809.6563,326.745 1808.9688,325.6825 Q1808.2813,324.6044 1808.2813,323.3231 L1808.2813,322.1669 Q1808.2813,320.8388 1808.8906,319.6981 Q1809.5156,318.5419 1810.6094,317.9325 Q1811.7031,317.3075 1812.9375,317.3075 Q1813.6719,317.3075 1814.3125,317.4794 Q1814.9688,317.6356 1815.5156,317.995 Z " fill="#000000"/><text fill="#000000" font-family="sans-serif" font-size="14" lengthAdjust="spacing" textLength="152" x="1833.25" y="327.9169">CreateFormativeExamUI</text><line style="stroke:#181818;stroke-width:0.5;" x1="1661.5" x2="2124.5" y1="338.12" y2="338.12"/><ellipse cx="1671.5" cy="352.9305" fill="#000000" rx="3" ry="3" style="stroke:#000000;stroke-width:1.0;"/><text fill="#000000" font-family="sans-serif" font-size="14" lengthAdjust="spacing" textLength="288" x="1680.5" y="357.2274">CreateFormativeExamController theController</text><line style="stroke:#181818;stroke-width:0.5;" x1="1661.5" x2="2124.5" y1="364.7411" y2="364.7411"/><ellipse cx="1671.5" cy="379.5516" fill="#84BE84" rx="3" ry="3" style="stroke:#038048;stroke-width:1.0;"/><text fill="#000000" font-family="sans-serif" font-size="14" lengthAdjust="spacing" textLength="123" x="1680.5" y="383.8485">doShow() : boolean</text><ellipse cx="1671.5" cy="398.1727" fill="#84BE84" rx="3" ry="3" style="stroke:#038048;stroke-width:1.0;"/><text fill="#000000" font-family="sans-serif" font-size="14" lengthAdjust="spacing" textLength="113" x="1680.5" y="402.4696">headline() : String</text><ellipse cx="1671.5" cy="416.7938" fill="#84BE84" rx="3" ry="3" style="stroke:#038048;stroke-width:1.0;"/><text fill="#000000" font-family="sans-serif" font-size="14" lengthAdjust="spacing" textLength="439" x="1680.5" y="421.0907">showTypeQuestions(final List&lt;QuestionType&gt; perms) : QuestionType</text></g><!--class CreateFormativeExamController--><g id="elem_CreateFormativeExamController"><rect codeLine="11" fill="#F1F1F1" height="215.5898" id="CreateFormativeExamController" rx="2.5" ry="2.5" style="stroke:#181818;stroke-width:0.5;" width="946" x="1671" y="512.12"/><ellipse cx="2038.75" cy="528.12" fill="#ADD1B2" rx="11" ry="11" style="stroke:#181818;stroke-width:1.0;"/><path d="M2041.5156,523.995 Q2041.6719,523.7763 2041.8594,523.6669 Q2042.0469,523.5575 2042.2656,523.5575 Q2042.6406,523.5575 2042.875,523.8231 Q2043.1094,524.0731 2043.1094,524.6825 L2043.1094,526.1356 Q2043.1094,526.745 2042.875,527.0106 Q2042.6406,527.2763 2042.2656,527.2763 Q2041.9219,527.2763 2041.7188,527.0731 Q2041.5156,526.8856 2041.4063,526.37 Q2041.3594,526.0106 2041.1719,525.8231 Q2040.8438,525.4481 2040.2344,525.2294 Q2039.625,525.0106 2039,525.0106 Q2038.2344,525.0106 2037.5938,525.3388 Q2036.9688,525.6669 2036.4688,526.4169 Q2035.9844,527.1669 2035.9844,528.1981 L2035.9844,529.2919 Q2035.9844,530.5263 2036.875,531.3544 Q2037.7656,532.1669 2039.3594,532.1669 Q2040.2969,532.1669 2040.9531,531.9169 Q2041.3438,531.7606 2041.7656,531.3231 Q2042.0313,531.0575 2042.1719,530.9794 Q2042.3281,530.9013 2042.5313,530.9013 Q2042.8594,530.9013 2043.1094,531.1669 Q2043.375,531.4169 2043.375,531.7606 Q2043.375,532.1044 2043.0313,532.5106 Q2042.5313,533.0888 2041.7344,533.4169 Q2040.6563,533.87 2039.3594,533.87 Q2037.8438,533.87 2036.6406,533.245 Q2035.6563,532.745 2034.9688,531.6825 Q2034.2813,530.6044 2034.2813,529.3231 L2034.2813,528.1669 Q2034.2813,526.8388 2034.8906,525.6981 Q2035.5156,524.5419 2036.6094,523.9325 Q2037.7031,523.3075 2038.9375,523.3075 Q2039.6719,523.3075 2040.3125,523.4794 Q2040.9688,523.6356 2041.5156,523.995 Z " fill="#000000"/><text fill="#000000" font-family="sans-serif" font-size="14" lengthAdjust="spacing" textLength="202" x="2059.25" y="533.9169">CreateFormativeExamController</text><line style="stroke:#181818;stroke-width:0.5;" x1="1672" x2="2616" y1="544.12" y2="544.12"/><ellipse cx="1682" cy="558.9305" fill="#000000" rx="3" ry="3" style="stroke:#000000;stroke-width:1.0;"/><text fill="#000000" font-family="sans-serif" font-size="14" lengthAdjust="spacing" textLength="251" x="1691" y="563.2274">QuestionRepository questionRepository</text><ellipse cx="1682" cy="577.5516" fill="#000000" rx="3" ry="3" style="stroke:#000000;stroke-width:1.0;"/><text fill="#000000" font-family="sans-serif" font-size="14" lengthAdjust="spacing" textLength="329" x="1691" y="581.8485">FormativeExamRepository formativeExamRepository</text><ellipse cx="1682" cy="596.1727" fill="#000000" rx="3" ry="3" style="stroke:#000000;stroke-width:1.0;"/><text fill="#000000" font-family="sans-serif" font-size="14" lengthAdjust="spacing" textLength="270" x="1691" y="600.4696">ServiceGetQuestions serviceGetQuestions</text><ellipse cx="1682" cy="614.7938" fill="#000000" rx="3" ry="3" style="stroke:#000000;stroke-width:1.0;"/><text fill="#000000" font-family="sans-serif" font-size="14" lengthAdjust="spacing" textLength="362" x="1691" y="619.0907">VerifyFormativeExamService verifyFormativeExamService</text><ellipse cx="1682" cy="633.4149" fill="#000000" rx="3" ry="3" style="stroke:#000000;stroke-width:1.0;"/><text fill="#000000" font-family="sans-serif" font-size="14" lengthAdjust="spacing" textLength="169" x="1691" y="637.7118">List&lt;List&lt;String&gt;&gt; sections</text><ellipse cx="1682" cy="652.036" fill="#000000" rx="3" ry="3" style="stroke:#000000;stroke-width:1.0;"/><text fill="#000000" font-family="sans-serif" font-size="14" lengthAdjust="spacing" textLength="113" x="1691" y="656.3329">int sectionNumber</text><line style="stroke:#181818;stroke-width:0.5;" x1="1672" x2="2616" y1="663.8466" y2="663.8466"/><ellipse cx="1682" cy="678.6571" fill="#84BE84" rx="3" ry="3" style="stroke:#038048;stroke-width:1.0;"/><text fill="#000000" font-family="sans-serif" font-size="14" lengthAdjust="spacing" textLength="920" x="1691" y="682.954">createSection(QuestionType type, int numberOfQuestionsInSection, String sectionDescription, double questionCotation, String sectionType) : void</text><ellipse cx="1682" cy="697.2782" fill="#84BE84" rx="3" ry="3" style="stroke:#038048;stroke-width:1.0;"/><text fill="#000000" font-family="sans-serif" font-size="14" lengthAdjust="spacing" textLength="848" x="1691" y="701.5751">createFormativeExam(String examName, String examHeaderDescription, String examDate, String examCode, String courseCode) : void</text><ellipse cx="1682" cy="715.8993" fill="#84BE84" rx="3" ry="3" style="stroke:#038048;stroke-width:1.0;"/><text fill="#000000" font-family="sans-serif" font-size="14" lengthAdjust="spacing" textLength="291" x="1691" y="720.1962">verifyFormativeExam(List&lt;String&gt; exam) : void</text></g><!--class ServiceGetQuestions--><g id="elem_ServiceGetQuestions"><rect codeLine="23" fill="#F1F1F1" height="66.6211" id="ServiceGetQuestions" rx="2.5" ry="2.5" style="stroke:#181818;stroke-width:0.5;" width="818" x="1077" y="789.12"/><ellipse cx="1414.75" cy="805.12" fill="#ADD1B2" rx="11" ry="11" style="stroke:#181818;stroke-width:1.0;"/><path d="M1417.5156,800.995 Q1417.6719,800.7763 1417.8594,800.6669 Q1418.0469,800.5575 1418.2656,800.5575 Q1418.6406,800.5575 1418.875,800.8231 Q1419.1094,801.0731 1419.1094,801.6825 L1419.1094,803.1356 Q1419.1094,803.745 1418.875,804.0106 Q1418.6406,804.2763 1418.2656,804.2763 Q1417.9219,804.2763 1417.7188,804.0731 Q1417.5156,803.8856 1417.4063,803.37 Q1417.3594,803.0106 1417.1719,802.8231 Q1416.8438,802.4481 1416.2344,802.2294 Q1415.625,802.0106 1415,802.0106 Q1414.2344,802.0106 1413.5938,802.3388 Q1412.9688,802.6669 1412.4688,803.4169 Q1411.9844,804.1669 1411.9844,805.1981 L1411.9844,806.2919 Q1411.9844,807.5263 1412.875,808.3544 Q1413.7656,809.1669 1415.3594,809.1669 Q1416.2969,809.1669 1416.9531,808.9169 Q1417.3438,808.7606 1417.7656,808.3231 Q1418.0313,808.0575 1418.1719,807.9794 Q1418.3281,807.9013 1418.5313,807.9013 Q1418.8594,807.9013 1419.1094,808.1669 Q1419.375,808.4169 1419.375,808.7606 Q1419.375,809.1044 1419.0313,809.5106 Q1418.5313,810.0888 1417.7344,810.4169 Q1416.6563,810.87 1415.3594,810.87 Q1413.8438,810.87 1412.6406,810.245 Q1411.6563,809.745 1410.9688,808.6825 Q1410.2813,807.6044 1410.2813,806.3231 L1410.2813,805.1669 Q1410.2813,803.8388 1410.8906,802.6981 Q1411.5156,801.5419 1412.6094,800.9325 Q1413.7031,800.3075 1414.9375,800.3075 Q1415.6719,800.3075 1416.3125,800.4794 Q1416.9688,800.6356 1417.5156,800.995 Z " fill="#000000"/><text fill="#000000" font-family="sans-serif" font-size="14" lengthAdjust="spacing" textLength="134" x="1435.25" y="810.9169">ServiceGetQuestions</text><line style="stroke:#181818;stroke-width:0.5;" x1="1078" x2="1894" y1="821.12" y2="821.12"/><line style="stroke:#181818;stroke-width:0.5;" x1="1078" x2="1894" y1="829.12" y2="829.12"/><ellipse cx="1088" cy="843.9305" fill="#84BE84" rx="3" ry="3" style="stroke:#038048;stroke-width:1.0;"/><text fill="#000000" font-family="sans-serif" font-size="14" lengthAdjust="spacing" textLength="792" x="1097" y="848.2274">getQuestions(QuestionType type, int numberOfQuestionsInSection, QuestionRepository questionRepository) : List&lt;Question&gt;</text></g><!--class VerifyFormativeExamService--><g id="elem_VerifyFormativeExamService"><rect codeLine="27" fill="#F1F1F1" height="66.6211" id="VerifyFormativeExamService" rx="2.5" ry="2.5" style="stroke:#181818;stroke-width:0.5;" width="212" x="1930" y="789.12"/><ellipse cx="1945" cy="805.12" fill="#ADD1B2" rx="11" ry="11" style="stroke:#181818;stroke-width:1.0;"/><path d="M1947.7656,800.995 Q1947.9219,800.7763 1948.1094,800.6669 Q1948.2969,800.5575 1948.5156,800.5575 Q1948.8906,800.5575 1949.125,800.8231 Q1949.3594,801.0731 1949.3594,801.6825 L1949.3594,803.1356 Q1949.3594,803.745 1949.125,804.0106 Q1948.8906,804.2763 1948.5156,804.2763 Q1948.1719,804.2763 1947.9688,804.0731 Q1947.7656,803.8856 1947.6563,803.37 Q1947.6094,803.0106 1947.4219,802.8231 Q1947.0938,802.4481 1946.4844,802.2294 Q1945.875,802.0106 1945.25,802.0106 Q1944.4844,802.0106 1943.8438,802.3388 Q1943.2188,802.6669 1942.7188,803.4169 Q1942.2344,804.1669 1942.2344,805.1981 L1942.2344,806.2919 Q1942.2344,807.5263 1943.125,808.3544 Q1944.0156,809.1669 1945.6094,809.1669 Q1946.5469,809.1669 1947.2031,808.9169 Q1947.5938,808.7606 1948.0156,808.3231 Q1948.2813,808.0575 1948.4219,807.9794 Q1948.5781,807.9013 1948.7813,807.9013 Q1949.1094,807.9013 1949.3594,808.1669 Q1949.625,808.4169 1949.625,808.7606 Q1949.625,809.1044 1949.2813,809.5106 Q1948.7813,810.0888 1947.9844,810.4169 Q1946.9063,810.87 1945.6094,810.87 Q1944.0938,810.87 1942.8906,810.245 Q1941.9063,809.745 1941.2188,808.6825 Q1940.5313,807.6044 1940.5313,806.3231 L1940.5313,805.1669 Q1940.5313,803.8388 1941.1406,802.6981 Q1941.7656,801.5419 1942.8594,800.9325 Q1943.9531,800.3075 1945.1875,800.3075 Q1945.9219,800.3075 1946.5625,800.4794 Q1947.2188,800.6356 1947.7656,800.995 Z " fill="#000000"/><text fill="#000000" font-family="sans-serif" font-size="14" lengthAdjust="spacing" textLength="180" x="1959" y="810.9169">VerifyFormativeExamService</text><line style="stroke:#181818;stroke-width:0.5;" x1="1931" x2="2141" y1="821.12" y2="821.12"/><line style="stroke:#181818;stroke-width:0.5;" x1="1931" x2="2141" y1="829.12" y2="829.12"/><ellipse cx="1941" cy="843.9305" fill="#84BE84" rx="3" ry="3" style="stroke:#038048;stroke-width:1.0;"/><text fill="#000000" font-family="sans-serif" font-size="14" lengthAdjust="spacing" textLength="169" x="1950" y="848.2274">verify (String ficheiro): void</text></g><!--class SystemUser--><g id="elem_SystemUser"><rect codeLine="31" fill="#F1F1F1" height="113.7852" id="SystemUser" rx="2.5" ry="2.5" style="stroke:#181818;stroke-width:0.5;" width="107" x="1374.5" y="310.12"/><ellipse cx="1389.5" cy="340.3915" fill="#ADD1B2" rx="11" ry="11" style="stroke:#181818;stroke-width:1.0;"/><path d="M1392.2656,336.2665 Q1392.4219,336.0477 1392.6094,335.9384 Q1392.7969,335.829 1393.0156,335.829 Q1393.3906,335.829 1393.625,336.0946 Q1393.8594,336.3446 1393.8594,336.954 L1393.8594,338.4071 Q1393.8594,339.0165 1393.625,339.2821 Q1393.3906,339.5477 1393.0156,339.5477 Q1392.6719,339.5477 1392.4688,339.3446 Q1392.2656,339.1571 1392.1563,338.6415 Q1392.1094,338.2821 1391.9219,338.0946 Q1391.5938,337.7196 1390.9844,337.5009 Q1390.375,337.2821 1389.75,337.2821 Q1388.9844,337.2821 1388.3438,337.6102 Q1387.7188,337.9384 1387.2188,338.6884 Q1386.7344,339.4384 1386.7344,340.4696 L1386.7344,341.5634 Q1386.7344,342.7977 1387.625,343.6259 Q1388.5156,344.4384 1390.1094,344.4384 Q1391.0469,344.4384 1391.7031,344.1884 Q1392.0938,344.0321 1392.5156,343.5946 Q1392.7813,343.329 1392.9219,343.2509 Q1393.0781,343.1727 1393.2813,343.1727 Q1393.6094,343.1727 1393.8594,343.4384 Q1394.125,343.6884 1394.125,344.0321 Q1394.125,344.3759 1393.7813,344.7821 Q1393.2813,345.3602 1392.4844,345.6884 Q1391.4063,346.1415 1390.1094,346.1415 Q1388.5938,346.1415 1387.3906,345.5165 Q1386.4063,345.0165 1385.7188,343.954 Q1385.0313,342.8759 1385.0313,341.5946 L1385.0313,340.4384 Q1385.0313,339.1102 1385.6406,337.9696 Q1386.2656,336.8134 1387.3594,336.204 Q1388.4531,335.579 1389.6875,335.579 Q1390.4219,335.579 1391.0625,335.7509 Q1391.7188,335.9071 1392.2656,336.2665 Z " fill="#000000"/><text fill="#000000" font-family="sans-serif" font-size="12" font-style="italic" lengthAdjust="spacing" textLength="35" x="1423.5" y="328.0692">&#171;root&#187;</text><text fill="#000000" font-family="sans-serif" font-size="12" font-style="italic" lengthAdjust="spacing" textLength="44" x="1419" y="344.0302">&#171;Entity&#187;</text><text fill="#000000" font-family="sans-serif" font-size="14" lengthAdjust="spacing" textLength="75" x="1403.5" y="362.1493">SystemUser</text><line style="stroke:#181818;stroke-width:0.5;" x1="1375.5" x2="1480.5" y1="370.663" y2="370.663"/><ellipse cx="1385.5" cy="385.4735" fill="#000000" rx="3" ry="3" style="stroke:#000000;stroke-width:1.0;"/><text fill="#000000" font-family="sans-serif" font-size="14" lengthAdjust="spacing" textLength="36" x="1394.5" y="389.7704">Name</text><ellipse cx="1385.5" cy="404.0946" fill="#000000" rx="3" ry="3" style="stroke:#000000;stroke-width:1.0;"/><text fill="#000000" font-family="sans-serif" font-size="14" lengthAdjust="spacing" textLength="64" x="1394.5" y="408.3915">Username</text><line style="stroke:#181818;stroke-width:0.5;" x1="1375.5" x2="1480.5" y1="415.9052" y2="415.9052"/></g><!--class eCourseSystemUser--><g id="elem_eCourseSystemUser"><rect codeLine="36" fill="#F1F1F1" height="76.543" id="eCourseSystemUser" rx="2.5" ry="2.5" style="stroke:#181818;stroke-width:0.5;" width="161" x="801.5" y="103.62"/><ellipse cx="816.5" cy="133.8915" fill="#ADD1B2" rx="11" ry="11" style="stroke:#181818;stroke-width:1.0;"/><path d="M819.2656,129.7665 Q819.4219,129.5477 819.6094,129.4384 Q819.7969,129.329 820.0156,129.329 Q820.3906,129.329 820.625,129.5946 Q820.8594,129.8446 820.8594,130.454 L820.8594,131.9071 Q820.8594,132.5165 820.625,132.7821 Q820.3906,133.0477 820.0156,133.0477 Q819.6719,133.0477 819.4688,132.8446 Q819.2656,132.6571 819.1563,132.1415 Q819.1094,131.7821 818.9219,131.5946 Q818.5938,131.2196 817.9844,131.0009 Q817.375,130.7821 816.75,130.7821 Q815.9844,130.7821 815.3438,131.1102 Q814.7188,131.4384 814.2188,132.1884 Q813.7344,132.9384 813.7344,133.9696 L813.7344,135.0634 Q813.7344,136.2977 814.625,137.1259 Q815.5156,137.9384 817.1094,137.9384 Q818.0469,137.9384 818.7031,137.6884 Q819.0938,137.5321 819.5156,137.0946 Q819.7813,136.829 819.9219,136.7509 Q820.0781,136.6727 820.2813,136.6727 Q820.6094,136.6727 820.8594,136.9384 Q821.125,137.1884 821.125,137.5321 Q821.125,137.8759 820.7813,138.2821 Q820.2813,138.8602 819.4844,139.1884 Q818.4063,139.6415 817.1094,139.6415 Q815.5938,139.6415 814.3906,139.0165 Q813.4063,138.5165 812.7188,137.454 Q812.0313,136.3759 812.0313,135.0946 L812.0313,133.9384 Q812.0313,132.6102 812.6406,131.4696 Q813.2656,130.3134 814.3594,129.704 Q815.4531,129.079 816.6875,129.079 Q817.4219,129.079 818.0625,129.2509 Q818.7188,129.4071 819.2656,129.7665 Z " fill="#000000"/><text fill="#000000" font-family="sans-serif" font-size="12" font-style="italic" lengthAdjust="spacing" textLength="35" x="877.5" y="121.5692">&#171;root&#187;</text><text fill="#000000" font-family="sans-serif" font-size="12" font-style="italic" lengthAdjust="spacing" textLength="44" x="873" y="137.5302">&#171;Entity&#187;</text><text fill="#000000" font-family="sans-serif" font-size="14" lengthAdjust="spacing" textLength="129" x="830.5" y="155.6493">eCourseSystemUser</text><line style="stroke:#181818;stroke-width:0.5;" x1="802.5" x2="961.5" y1="164.163" y2="164.163"/><line style="stroke:#181818;stroke-width:0.5;" x1="802.5" x2="961.5" y1="172.163" y2="172.163"/></g><!--class EmailAdderss--><g id="elem_EmailAdderss"><rect codeLine="40" fill="#F1F1F1" height="60.582" id="EmailAdderss" rx="2.5" ry="2.5" style="stroke:#181818;stroke-width:0.5;" width="118" x="1518" y="589.62"/><ellipse cx="1533" cy="611.911" fill="#ADD1B2" rx="11" ry="11" style="stroke:#181818;stroke-width:1.0;"/><path d="M1535.7656,607.786 Q1535.9219,607.5673 1536.1094,607.4579 Q1536.2969,607.3485 1536.5156,607.3485 Q1536.8906,607.3485 1537.125,607.6141 Q1537.3594,607.8641 1537.3594,608.4735 L1537.3594,609.9266 Q1537.3594,610.536 1537.125,610.8016 Q1536.8906,611.0673 1536.5156,611.0673 Q1536.1719,611.0673 1535.9688,610.8641 Q1535.7656,610.6766 1535.6563,610.161 Q1535.6094,609.8016 1535.4219,609.6141 Q1535.0938,609.2391 1534.4844,609.0204 Q1533.875,608.8016 1533.25,608.8016 Q1532.4844,608.8016 1531.8438,609.1298 Q1531.2188,609.4579 1530.7188,610.2079 Q1530.2344,610.9579 1530.2344,611.9891 L1530.2344,613.0829 Q1530.2344,614.3173 1531.125,615.1454 Q1532.0156,615.9579 1533.6094,615.9579 Q1534.5469,615.9579 1535.2031,615.7079 Q1535.5938,615.5516 1536.0156,615.1141 Q1536.2813,614.8485 1536.4219,614.7704 Q1536.5781,614.6923 1536.7813,614.6923 Q1537.1094,614.6923 1537.3594,614.9579 Q1537.625,615.2079 1537.625,615.5516 Q1537.625,615.8954 1537.2813,616.3016 Q1536.7813,616.8798 1535.9844,617.2079 Q1534.9063,617.661 1533.6094,617.661 Q1532.0938,617.661 1530.8906,617.036 Q1529.9063,616.536 1529.2188,615.4735 Q1528.5313,614.3954 1528.5313,613.1141 L1528.5313,611.9579 Q1528.5313,610.6298 1529.1406,609.4891 Q1529.7656,608.3329 1530.8594,607.7235 Q1531.9531,607.0985 1533.1875,607.0985 Q1533.9219,607.0985 1534.5625,607.2704 Q1535.2188,607.4266 1535.7656,607.786 Z " fill="#000000"/><text fill="#000000" font-family="sans-serif" font-size="12" font-style="italic" lengthAdjust="spacing" textLength="83" x="1548.5" y="607.5692">&#171;Value object&#187;</text><text fill="#000000" font-family="sans-serif" font-size="14" lengthAdjust="spacing" textLength="86" x="1547" y="625.6884">EmailAdderss</text><line style="stroke:#181818;stroke-width:0.5;" x1="1519" x2="1635" y1="634.202" y2="634.202"/><line style="stroke:#181818;stroke-width:0.5;" x1="1519" x2="1635" y1="642.202" y2="642.202"/></g><!--class Role--><g id="elem_Role"><rect codeLine="42" fill="#F1F1F1" height="79.2031" id="Role" rx="2.5" ry="2.5" style="stroke:#181818;stroke-width:0.5;" width="102" x="1236" y="580.62"/><ellipse cx="1264.5" cy="602.911" fill="#ADD1B2" rx="11" ry="11" style="stroke:#181818;stroke-width:1.0;"/><path d="M1267.2656,598.786 Q1267.4219,598.5673 1267.6094,598.4579 Q1267.7969,598.3485 1268.0156,598.3485 Q1268.3906,598.3485 1268.625,598.6141 Q1268.8594,598.8641 1268.8594,599.4735 L1268.8594,600.9266 Q1268.8594,601.536 1268.625,601.8016 Q1268.3906,602.0673 1268.0156,602.0673 Q1267.6719,602.0673 1267.4688,601.8641 Q1267.2656,601.6766 1267.1563,601.161 Q1267.1094,600.8016 1266.9219,600.6141 Q1266.5938,600.2391 1265.9844,600.0204 Q1265.375,599.8016 1264.75,599.8016 Q1263.9844,599.8016 1263.3438,600.1298 Q1262.7188,600.4579 1262.2188,601.2079 Q1261.7344,601.9579 1261.7344,602.9891 L1261.7344,604.0829 Q1261.7344,605.3173 1262.625,606.1454 Q1263.5156,606.9579 1265.1094,606.9579 Q1266.0469,606.9579 1266.7031,606.7079 Q1267.0938,606.5516 1267.5156,606.1141 Q1267.7813,605.8485 1267.9219,605.7704 Q1268.0781,605.6923 1268.2813,605.6923 Q1268.6094,605.6923 1268.8594,605.9579 Q1269.125,606.2079 1269.125,606.5516 Q1269.125,606.8954 1268.7813,607.3016 Q1268.2813,607.8798 1267.4844,608.2079 Q1266.4063,608.661 1265.1094,608.661 Q1263.5938,608.661 1262.3906,608.036 Q1261.4063,607.536 1260.7188,606.4735 Q1260.0313,605.3954 1260.0313,604.1141 L1260.0313,602.9579 Q1260.0313,601.6298 1260.6406,600.4891 Q1261.2656,599.3329 1262.3594,598.7235 Q1263.4531,598.0985 1264.6875,598.0985 Q1265.4219,598.0985 1266.0625,598.2704 Q1266.7188,598.4266 1267.2656,598.786 Z " fill="#000000"/><text fill="#000000" font-family="sans-serif" font-size="12" font-style="italic" lengthAdjust="spacing" textLength="44" x="1279.5" y="598.5692">&#171;Entity&#187;</text><text fill="#000000" font-family="sans-serif" font-size="14" lengthAdjust="spacing" textLength="29" x="1287" y="616.6884">Role</text><line style="stroke:#181818;stroke-width:0.5;" x1="1237" x2="1337" y1="625.202" y2="625.202"/><ellipse cx="1247" cy="640.0126" fill="#000000" rx="3" ry="3" style="stroke:#000000;stroke-width:1.0;"/><text fill="#000000" font-family="sans-serif" font-size="14" lengthAdjust="spacing" textLength="76" x="1256" y="644.3095">String name</text><line style="stroke:#181818;stroke-width:0.5;" x1="1237" x2="1337" y1="651.8231" y2="651.8231"/></g><!--class UserStatus--><g id="elem_UserStatus"><rect codeLine="46" fill="#F1F1F1" height="97.8242" id="UserStatus" rx="2.5" ry="2.5" style="stroke:#181818;stroke-width:0.5;" width="101" x="632.5" y="318.12"/><ellipse cx="647.5" cy="340.411" fill="#ADD1B2" rx="11" ry="11" style="stroke:#181818;stroke-width:1.0;"/><path d="M650.2656,336.286 Q650.4219,336.0673 650.6094,335.9579 Q650.7969,335.8485 651.0156,335.8485 Q651.3906,335.8485 651.625,336.1141 Q651.8594,336.3641 651.8594,336.9735 L651.8594,338.4266 Q651.8594,339.036 651.625,339.3016 Q651.3906,339.5673 651.0156,339.5673 Q650.6719,339.5673 650.4688,339.3641 Q650.2656,339.1766 650.1563,338.661 Q650.1094,338.3016 649.9219,338.1141 Q649.5938,337.7391 648.9844,337.5204 Q648.375,337.3016 647.75,337.3016 Q646.9844,337.3016 646.3438,337.6298 Q645.7188,337.9579 645.2188,338.7079 Q644.7344,339.4579 644.7344,340.4891 L644.7344,341.5829 Q644.7344,342.8173 645.625,343.6454 Q646.5156,344.4579 648.1094,344.4579 Q649.0469,344.4579 649.7031,344.2079 Q650.0938,344.0516 650.5156,343.6141 Q650.7813,343.3485 650.9219,343.2704 Q651.0781,343.1923 651.2813,343.1923 Q651.6094,343.1923 651.8594,343.4579 Q652.125,343.7079 652.125,344.0516 Q652.125,344.3954 651.7813,344.8016 Q651.2813,345.3798 650.4844,345.7079 Q649.4063,346.161 648.1094,346.161 Q646.5938,346.161 645.3906,345.536 Q644.4063,345.036 643.7188,343.9735 Q643.0313,342.8954 643.0313,341.6141 L643.0313,340.4579 Q643.0313,339.1298 643.6406,337.9891 Q644.2656,336.8329 645.3594,336.2235 Q646.4531,335.5985 647.6875,335.5985 Q648.4219,335.5985 649.0625,335.7704 Q649.7188,335.9266 650.2656,336.286 Z " fill="#000000"/><text fill="#000000" font-family="sans-serif" font-size="12" font-style="italic" lengthAdjust="spacing" textLength="46" x="673" y="336.0692">&#171;enum&#187;</text><text fill="#000000" font-family="sans-serif" font-size="14" lengthAdjust="spacing" textLength="69" x="661.5" y="354.1884">UserStatus</text><line style="stroke:#181818;stroke-width:0.5;" x1="633.5" x2="732.5" y1="362.702" y2="362.702"/><ellipse cx="643.5" cy="377.5126" fill="none" rx="3" ry="3" style="stroke:#038048;stroke-width:1.0;"/><text fill="#000000" font-family="sans-serif" font-size="14" lengthAdjust="spacing" textLength="53" x="652.5" y="381.8095">ENABLE</text><ellipse cx="643.5" cy="396.1337" fill="none" rx="3" ry="3" style="stroke:#038048;stroke-width:1.0;"/><text fill="#000000" font-family="sans-serif" font-size="14" lengthAdjust="spacing" textLength="57" x="652.5" y="400.4305">DISABLE</text><line style="stroke:#181818;stroke-width:0.5;" x1="633.5" x2="732.5" y1="407.9442" y2="407.9442"/></g><!--class Password--><g id="elem_Password"><rect codeLine="51" fill="#F1F1F1" height="60.582" id="Password" rx="2.5" ry="2.5" style="stroke:#181818;stroke-width:0.5;" width="109" x="1373.5" y="589.62"/><ellipse cx="1388.5" cy="611.911" fill="#ADD1B2" rx="11" ry="11" style="stroke:#181818;stroke-width:1.0;"/><path d="M1391.2656,607.786 Q1391.4219,607.5673 1391.6094,607.4579 Q1391.7969,607.3485 1392.0156,607.3485 Q1392.3906,607.3485 1392.625,607.6141 Q1392.8594,607.8641 1392.8594,608.4735 L1392.8594,609.9266 Q1392.8594,610.536 1392.625,610.8016 Q1392.3906,611.0673 1392.0156,611.0673 Q1391.6719,611.0673 1391.4688,610.8641 Q1391.2656,610.6766 1391.1563,610.161 Q1391.1094,609.8016 1390.9219,609.6141 Q1390.5938,609.2391 1389.9844,609.0204 Q1389.375,608.8016 1388.75,608.8016 Q1387.9844,608.8016 1387.3438,609.1298 Q1386.7188,609.4579 1386.2188,610.2079 Q1385.7344,610.9579 1385.7344,611.9891 L1385.7344,613.0829 Q1385.7344,614.3173 1386.625,615.1454 Q1387.5156,615.9579 1389.1094,615.9579 Q1390.0469,615.9579 1390.7031,615.7079 Q1391.0938,615.5516 1391.5156,615.1141 Q1391.7813,614.8485 1391.9219,614.7704 Q1392.0781,614.6923 1392.2813,614.6923 Q1392.6094,614.6923 1392.8594,614.9579 Q1393.125,615.2079 1393.125,615.5516 Q1393.125,615.8954 1392.7813,616.3016 Q1392.2813,616.8798 1391.4844,617.2079 Q1390.4063,617.661 1389.1094,617.661 Q1387.5938,617.661 1386.3906,617.036 Q1385.4063,616.536 1384.7188,615.4735 Q1384.0313,614.3954 1384.0313,613.1141 L1384.0313,611.9579 Q1384.0313,610.6298 1384.6406,609.4891 Q1385.2656,608.3329 1386.3594,607.7235 Q1387.4531,607.0985 1388.6875,607.0985 Q1389.4219,607.0985 1390.0625,607.2704 Q1390.7188,607.4266 1391.2656,607.786 Z " fill="#000000"/><text fill="#000000" font-family="sans-serif" font-size="12" font-style="italic" lengthAdjust="spacing" textLength="81" x="1400.5" y="607.5692">&#171;value object&#187;</text><text fill="#000000" font-family="sans-serif" font-size="14" lengthAdjust="spacing" textLength="61" x="1410.5" y="625.6884">Password</text><line style="stroke:#181818;stroke-width:0.5;" x1="1374.5" x2="1481.5" y1="634.202" y2="634.202"/><line style="stroke:#181818;stroke-width:0.5;" x1="1374.5" x2="1481.5" y1="642.202" y2="642.202"/></g><!--class Acronym--><g id="elem_Acronym"><rect codeLine="53" fill="#F1F1F1" height="60.582" id="Acronym" rx="2.5" ry="2.5" style="stroke:#181818;stroke-width:0.5;" width="109" x="952.5" y="336.62"/><ellipse cx="967.5" cy="358.911" fill="#ADD1B2" rx="11" ry="11" style="stroke:#181818;stroke-width:1.0;"/><path d="M970.2656,354.786 Q970.4219,354.5673 970.6094,354.4579 Q970.7969,354.3485 971.0156,354.3485 Q971.3906,354.3485 971.625,354.6141 Q971.8594,354.8641 971.8594,355.4735 L971.8594,356.9266 Q971.8594,357.536 971.625,357.8016 Q971.3906,358.0673 971.0156,358.0673 Q970.6719,358.0673 970.4688,357.8641 Q970.2656,357.6766 970.1563,357.161 Q970.1094,356.8016 969.9219,356.6141 Q969.5938,356.2391 968.9844,356.0204 Q968.375,355.8016 967.75,355.8016 Q966.9844,355.8016 966.3438,356.1298 Q965.7188,356.4579 965.2188,357.2079 Q964.7344,357.9579 964.7344,358.9891 L964.7344,360.0829 Q964.7344,361.3173 965.625,362.1454 Q966.5156,362.9579 968.1094,362.9579 Q969.0469,362.9579 969.7031,362.7079 Q970.0938,362.5516 970.5156,362.1141 Q970.7813,361.8485 970.9219,361.7704 Q971.0781,361.6923 971.2813,361.6923 Q971.6094,361.6923 971.8594,361.9579 Q972.125,362.2079 972.125,362.5516 Q972.125,362.8954 971.7813,363.3016 Q971.2813,363.8798 970.4844,364.2079 Q969.4063,364.661 968.1094,364.661 Q966.5938,364.661 965.3906,364.036 Q964.4063,363.536 963.7188,362.4735 Q963.0313,361.3954 963.0313,360.1141 L963.0313,358.9579 Q963.0313,357.6298 963.6406,356.4891 Q964.2656,355.3329 965.3594,354.7235 Q966.4531,354.0985 967.6875,354.0985 Q968.4219,354.0985 969.0625,354.2704 Q969.7188,354.4266 970.2656,354.786 Z " fill="#000000"/><text fill="#000000" font-family="sans-serif" font-size="12" font-style="italic" lengthAdjust="spacing" textLength="81" x="979.5" y="354.5692">&#171;value object&#187;</text><text fill="#000000" font-family="sans-serif" font-size="14" lengthAdjust="spacing" textLength="55" x="992.5" y="372.6884">Acronym</text><line style="stroke:#181818;stroke-width:0.5;" x1="953.5" x2="1060.5" y1="381.202" y2="381.202"/><line style="stroke:#181818;stroke-width:0.5;" x1="953.5" x2="1060.5" y1="389.202" y2="389.202"/></g><!--class NIF--><g id="elem_NIF"><rect codeLine="55" fill="#F1F1F1" height="60.582" id="NIF" rx="2.5" ry="2.5" style="stroke:#181818;stroke-width:0.5;" width="109" x="1516.5" y="336.62"/><ellipse cx="1531.5" cy="358.911" fill="#ADD1B2" rx="11" ry="11" style="stroke:#181818;stroke-width:1.0;"/><path d="M1534.2656,354.786 Q1534.4219,354.5673 1534.6094,354.4579 Q1534.7969,354.3485 1535.0156,354.3485 Q1535.3906,354.3485 1535.625,354.6141 Q1535.8594,354.8641 1535.8594,355.4735 L1535.8594,356.9266 Q1535.8594,357.536 1535.625,357.8016 Q1535.3906,358.0673 1535.0156,358.0673 Q1534.6719,358.0673 1534.4688,357.8641 Q1534.2656,357.6766 1534.1563,357.161 Q1534.1094,356.8016 1533.9219,356.6141 Q1533.5938,356.2391 1532.9844,356.0204 Q1532.375,355.8016 1531.75,355.8016 Q1530.9844,355.8016 1530.3438,356.1298 Q1529.7188,356.4579 1529.2188,357.2079 Q1528.7344,357.9579 1528.7344,358.9891 L1528.7344,360.0829 Q1528.7344,361.3173 1529.625,362.1454 Q1530.5156,362.9579 1532.1094,362.9579 Q1533.0469,362.9579 1533.7031,362.7079 Q1534.0938,362.5516 1534.5156,362.1141 Q1534.7813,361.8485 1534.9219,361.7704 Q1535.0781,361.6923 1535.2813,361.6923 Q1535.6094,361.6923 1535.8594,361.9579 Q1536.125,362.2079 1536.125,362.5516 Q1536.125,362.8954 1535.7813,363.3016 Q1535.2813,363.8798 1534.4844,364.2079 Q1533.4063,364.661 1532.1094,364.661 Q1530.5938,364.661 1529.3906,364.036 Q1528.4063,363.536 1527.7188,362.4735 Q1527.0313,361.3954 1527.0313,360.1141 L1527.0313,358.9579 Q1527.0313,357.6298 1527.6406,356.4891 Q1528.2656,355.3329 1529.3594,354.7235 Q1530.4531,354.0985 1531.6875,354.0985 Q1532.4219,354.0985 1533.0625,354.2704 Q1533.7188,354.4266 1534.2656,354.786 Z " fill="#000000"/><text fill="#000000" font-family="sans-serif" font-size="12" font-style="italic" lengthAdjust="spacing" textLength="81" x="1543.5" y="354.5692">&#171;value object&#187;</text><text fill="#000000" font-family="sans-serif" font-size="14" lengthAdjust="spacing" textLength="21" x="1573.5" y="372.6884">NIF</text><line style="stroke:#181818;stroke-width:0.5;" x1="1517.5" x2="1624.5" y1="381.202" y2="381.202"/><line style="stroke:#181818;stroke-width:0.5;" x1="1517.5" x2="1624.5" y1="389.202" y2="389.202"/></g><!--class BirthDate--><g id="elem_BirthDate"><rect codeLine="57" fill="#F1F1F1" height="60.582" id="BirthDate" rx="2.5" ry="2.5" style="stroke:#181818;stroke-width:0.5;" width="109" x="2160.5" y="336.62"/><ellipse cx="2175.5" cy="358.911" fill="#ADD1B2" rx="11" ry="11" style="stroke:#181818;stroke-width:1.0;"/><path d="M2178.2656,354.786 Q2178.4219,354.5673 2178.6094,354.4579 Q2178.7969,354.3485 2179.0156,354.3485 Q2179.3906,354.3485 2179.625,354.6141 Q2179.8594,354.8641 2179.8594,355.4735 L2179.8594,356.9266 Q2179.8594,357.536 2179.625,357.8016 Q2179.3906,358.0673 2179.0156,358.0673 Q2178.6719,358.0673 2178.4688,357.8641 Q2178.2656,357.6766 2178.1563,357.161 Q2178.1094,356.8016 2177.9219,356.6141 Q2177.5938,356.2391 2176.9844,356.0204 Q2176.375,355.8016 2175.75,355.8016 Q2174.9844,355.8016 2174.3438,356.1298 Q2173.7188,356.4579 2173.2188,357.2079 Q2172.7344,357.9579 2172.7344,358.9891 L2172.7344,360.0829 Q2172.7344,361.3173 2173.625,362.1454 Q2174.5156,362.9579 2176.1094,362.9579 Q2177.0469,362.9579 2177.7031,362.7079 Q2178.0938,362.5516 2178.5156,362.1141 Q2178.7813,361.8485 2178.9219,361.7704 Q2179.0781,361.6923 2179.2813,361.6923 Q2179.6094,361.6923 2179.8594,361.9579 Q2180.125,362.2079 2180.125,362.5516 Q2180.125,362.8954 2179.7813,363.3016 Q2179.2813,363.8798 2178.4844,364.2079 Q2177.4063,364.661 2176.1094,364.661 Q2174.5938,364.661 2173.3906,364.036 Q2172.4063,363.536 2171.7188,362.4735 Q2171.0313,361.3954 2171.0313,360.1141 L2171.0313,358.9579 Q2171.0313,357.6298 2171.6406,356.4891 Q2172.2656,355.3329 2173.3594,354.7235 Q2174.4531,354.0985 2175.6875,354.0985 Q2176.4219,354.0985 2177.0625,354.2704 Q2177.7188,354.4266 2178.2656,354.786 Z " fill="#000000"/><text fill="#000000" font-family="sans-serif" font-size="12" font-style="italic" lengthAdjust="spacing" textLength="81" x="2187.5" y="354.5692">&#171;value object&#187;</text><text fill="#000000" font-family="sans-serif" font-size="14" lengthAdjust="spacing" textLength="59" x="2198.5" y="372.6884">BirthDate</text><line style="stroke:#181818;stroke-width:0.5;" x1="2161.5" x2="2268.5" y1="381.202" y2="381.202"/><line style="stroke:#181818;stroke-width:0.5;" x1="2161.5" x2="2268.5" y1="389.202" y2="389.202"/></g><!--class MechanographicNumber--><g id="elem_MechanographicNumber"><rect codeLine="59" fill="#F1F1F1" height="76.543" id="MechanographicNumber" rx="2.5" ry="2.5" style="stroke:#181818;stroke-width:0.5;" width="186" x="2305" y="328.62"/><ellipse cx="2320" cy="358.8915" fill="#ADD1B2" rx="11" ry="11" style="stroke:#181818;stroke-width:1.0;"/><path d="M2322.7656,354.7665 Q2322.9219,354.5477 2323.1094,354.4384 Q2323.2969,354.329 2323.5156,354.329 Q2323.8906,354.329 2324.125,354.5946 Q2324.3594,354.8446 2324.3594,355.454 L2324.3594,356.9071 Q2324.3594,357.5165 2324.125,357.7821 Q2323.8906,358.0477 2323.5156,358.0477 Q2323.1719,358.0477 2322.9688,357.8446 Q2322.7656,357.6571 2322.6563,357.1415 Q2322.6094,356.7821 2322.4219,356.5946 Q2322.0938,356.2196 2321.4844,356.0009 Q2320.875,355.7821 2320.25,355.7821 Q2319.4844,355.7821 2318.8438,356.1102 Q2318.2188,356.4384 2317.7188,357.1884 Q2317.2344,357.9384 2317.2344,358.9696 L2317.2344,360.0634 Q2317.2344,361.2977 2318.125,362.1259 Q2319.0156,362.9384 2320.6094,362.9384 Q2321.5469,362.9384 2322.2031,362.6884 Q2322.5938,362.5321 2323.0156,362.0946 Q2323.2813,361.829 2323.4219,361.7509 Q2323.5781,361.6727 2323.7813,361.6727 Q2324.1094,361.6727 2324.3594,361.9384 Q2324.625,362.1884 2324.625,362.5321 Q2324.625,362.8759 2324.2813,363.2821 Q2323.7813,363.8602 2322.9844,364.1884 Q2321.9063,364.6415 2320.6094,364.6415 Q2319.0938,364.6415 2317.8906,364.0165 Q2316.9063,363.5165 2316.2188,362.454 Q2315.5313,361.3759 2315.5313,360.0946 L2315.5313,358.9384 Q2315.5313,357.6102 2316.1406,356.4696 Q2316.7656,355.3134 2317.8594,354.704 Q2318.9531,354.079 2320.1875,354.079 Q2320.9219,354.079 2321.5625,354.2509 Q2322.2188,354.4071 2322.7656,354.7665 Z " fill="#000000"/><text fill="#000000" font-family="sans-serif" font-size="12" font-style="italic" lengthAdjust="spacing" textLength="81" x="2370.5" y="346.5692">&#171;value object&#187;</text><text fill="#000000" font-family="sans-serif" font-size="12" font-style="italic" lengthAdjust="spacing" textLength="146" x="2338" y="362.5302">&#171;automatically generated&#187;</text><text fill="#000000" font-family="sans-serif" font-size="14" lengthAdjust="spacing" textLength="154" x="2334" y="380.6493">MechanographicNumber</text><line style="stroke:#181818;stroke-width:0.5;" x1="2306" x2="2490" y1="389.163" y2="389.163"/><line style="stroke:#181818;stroke-width:0.5;" x1="2306" x2="2490" y1="397.163" y2="397.163"/></g><!--class Grade--><g id="elem_Grade"><rect codeLine="61" fill="#F1F1F1" height="60.582" id="Grade" rx="2.5" ry="2.5" style="stroke:#181818;stroke-width:0.5;" width="109" x="231.5" y="336.62"/><ellipse cx="246.5" cy="358.911" fill="#ADD1B2" rx="11" ry="11" style="stroke:#181818;stroke-width:1.0;"/><path d="M249.2656,354.786 Q249.4219,354.5673 249.6094,354.4579 Q249.7969,354.3485 250.0156,354.3485 Q250.3906,354.3485 250.625,354.6141 Q250.8594,354.8641 250.8594,355.4735 L250.8594,356.9266 Q250.8594,357.536 250.625,357.8016 Q250.3906,358.0673 250.0156,358.0673 Q249.6719,358.0673 249.4688,357.8641 Q249.2656,357.6766 249.1563,357.161 Q249.1094,356.8016 248.9219,356.6141 Q248.5938,356.2391 247.9844,356.0204 Q247.375,355.8016 246.75,355.8016 Q245.9844,355.8016 245.3438,356.1298 Q244.7188,356.4579 244.2188,357.2079 Q243.7344,357.9579 243.7344,358.9891 L243.7344,360.0829 Q243.7344,361.3173 244.625,362.1454 Q245.5156,362.9579 247.1094,362.9579 Q248.0469,362.9579 248.7031,362.7079 Q249.0938,362.5516 249.5156,362.1141 Q249.7813,361.8485 249.9219,361.7704 Q250.0781,361.6923 250.2813,361.6923 Q250.6094,361.6923 250.8594,361.9579 Q251.125,362.2079 251.125,362.5516 Q251.125,362.8954 250.7813,363.3016 Q250.2813,363.8798 249.4844,364.2079 Q248.4063,364.661 247.1094,364.661 Q245.5938,364.661 244.3906,364.036 Q243.4063,363.536 242.7188,362.4735 Q242.0313,361.3954 242.0313,360.1141 L242.0313,358.9579 Q242.0313,357.6298 242.6406,356.4891 Q243.2656,355.3329 244.3594,354.7235 Q245.4531,354.0985 246.6875,354.0985 Q247.4219,354.0985 248.0625,354.2704 Q248.7188,354.4266 249.2656,354.786 Z " fill="#000000"/><text fill="#000000" font-family="sans-serif" font-size="12" font-style="italic" lengthAdjust="spacing" textLength="81" x="258.5" y="354.5692">&#171;value object&#187;</text><text fill="#000000" font-family="sans-serif" font-size="14" lengthAdjust="spacing" textLength="40" x="279" y="372.6884">Grade</text><line style="stroke:#181818;stroke-width:0.5;" x1="232.5" x2="339.5" y1="381.202" y2="381.202"/><line style="stroke:#181818;stroke-width:0.5;" x1="232.5" x2="339.5" y1="389.202" y2="389.202"/></g><!--class Course--><g id="elem_Course"><rect codeLine="63" fill="#F1F1F1" height="159.7266" id="Course" rx="2.5" ry="2.5" style="stroke:#181818;stroke-width:0.5;" width="515" x="67.5" y="62.12"/><ellipse cx="297.75" cy="78.12" fill="#ADD1B2" rx="11" ry="11" style="stroke:#181818;stroke-width:1.0;"/><path d="M300.5156,73.995 Q300.6719,73.7763 300.8594,73.6669 Q301.0469,73.5575 301.2656,73.5575 Q301.6406,73.5575 301.875,73.8231 Q302.1094,74.0731 302.1094,74.6825 L302.1094,76.1356 Q302.1094,76.745 301.875,77.0106 Q301.6406,77.2763 301.2656,77.2763 Q300.9219,77.2763 300.7188,77.0731 Q300.5156,76.8856 300.4063,76.37 Q300.3594,76.0106 300.1719,75.8231 Q299.8438,75.4481 299.2344,75.2294 Q298.625,75.0106 298,75.0106 Q297.2344,75.0106 296.5938,75.3388 Q295.9688,75.6669 295.4688,76.4169 Q294.9844,77.1669 294.9844,78.1981 L294.9844,79.2919 Q294.9844,80.5263 295.875,81.3544 Q296.7656,82.1669 298.3594,82.1669 Q299.2969,82.1669 299.9531,81.9169 Q300.3438,81.7606 300.7656,81.3231 Q301.0313,81.0575 301.1719,80.9794 Q301.3281,80.9013 301.5313,80.9013 Q301.8594,80.9013 302.1094,81.1669 Q302.375,81.4169 302.375,81.7606 Q302.375,82.1044 302.0313,82.5106 Q301.5313,83.0888 300.7344,83.4169 Q299.6563,83.87 298.3594,83.87 Q296.8438,83.87 295.6406,83.245 Q294.6563,82.745 293.9688,81.6825 Q293.2813,80.6044 293.2813,79.3231 L293.2813,78.1669 Q293.2813,76.8388 293.8906,75.6981 Q294.5156,74.5419 295.6094,73.9325 Q296.7031,73.3075 297.9375,73.3075 Q298.6719,73.3075 299.3125,73.4794 Q299.9688,73.6356 300.5156,73.995 Z " fill="#000000"/><text fill="#000000" font-family="sans-serif" font-size="14" lengthAdjust="spacing" textLength="46" x="318.25" y="83.9169">Course</text><line style="stroke:#181818;stroke-width:0.5;" x1="68.5" x2="581.5" y1="94.12" y2="94.12"/><ellipse cx="78.5" cy="108.9305" fill="#000000" rx="3" ry="3" style="stroke:#000000;stroke-width:1.0;"/><text fill="#000000" font-family="sans-serif" font-size="14" lengthAdjust="spacing" textLength="30" x="87.5" y="113.2274">int id</text><ellipse cx="78.5" cy="127.5516" fill="#000000" rx="3" ry="3" style="stroke:#000000;stroke-width:1.0;"/><text fill="#000000" font-family="sans-serif" font-size="14" lengthAdjust="spacing" textLength="35" x="87.5" y="131.8485">name</text><ellipse cx="78.5" cy="146.1727" fill="#000000" rx="3" ry="3" style="stroke:#000000;stroke-width:1.0;"/><text fill="#000000" font-family="sans-serif" font-size="14" lengthAdjust="spacing" textLength="128" x="87.5" y="150.4696">CourseStatus status</text><ellipse cx="78.5" cy="164.7938" fill="#000000" rx="3" ry="3" style="stroke:#000000;stroke-width:1.0;"/><text fill="#000000" font-family="sans-serif" font-size="14" lengthAdjust="spacing" textLength="69" x="87.5" y="169.0907">Code code</text><ellipse cx="78.5" cy="183.4149" fill="#000000" rx="3" ry="3" style="stroke:#000000;stroke-width:1.0;"/><text fill="#000000" font-family="sans-serif" font-size="14" lengthAdjust="spacing" textLength="98" x="87.5" y="187.7118">Teacher regent</text><line style="stroke:#181818;stroke-width:0.5;" x1="68.5" x2="581.5" y1="195.2255" y2="195.2255"/><ellipse cx="78.5" cy="210.036" fill="#84BE84" rx="3" ry="3" style="stroke:#038048;stroke-width:1.0;"/><text fill="#000000" font-family="sans-serif" font-size="14" lengthAdjust="spacing" textLength="489" x="87.5" y="214.3329">Course(int id, String name, CourseStatus status, Code code, Teacher regent)</text></g><!--class Exam--><g id="elem_Exam"><rect codeLine="72" fill="#F1F1F1" height="132.4063" id="Exam" rx="2.5" ry="2.5" style="stroke:#181818;stroke-width:0.5;" width="111" x="375.5" y="301.12"/><ellipse cx="408.05" cy="331.3915" fill="#ADD1B2" rx="11" ry="11" style="stroke:#181818;stroke-width:1.0;"/><path d="M410.8156,327.2665 Q410.9719,327.0477 411.1594,326.9384 Q411.3469,326.829 411.5656,326.829 Q411.9406,326.829 412.175,327.0946 Q412.4094,327.3446 412.4094,327.954 L412.4094,329.4071 Q412.4094,330.0165 412.175,330.2821 Q411.9406,330.5477 411.5656,330.5477 Q411.2219,330.5477 411.0188,330.3446 Q410.8156,330.1571 410.7063,329.6415 Q410.6594,329.2821 410.4719,329.0946 Q410.1438,328.7196 409.5344,328.5009 Q408.925,328.2821 408.3,328.2821 Q407.5344,328.2821 406.8938,328.6102 Q406.2688,328.9384 405.7688,329.6884 Q405.2844,330.4384 405.2844,331.4696 L405.2844,332.5634 Q405.2844,333.7977 406.175,334.6259 Q407.0656,335.4384 408.6594,335.4384 Q409.5969,335.4384 410.2531,335.1884 Q410.6438,335.0321 411.0656,334.5946 Q411.3313,334.329 411.4719,334.2509 Q411.6281,334.1727 411.8313,334.1727 Q412.1594,334.1727 412.4094,334.4384 Q412.675,334.6884 412.675,335.0321 Q412.675,335.3759 412.3313,335.7821 Q411.8313,336.3602 411.0344,336.6884 Q409.9563,337.1415 408.6594,337.1415 Q407.1438,337.1415 405.9406,336.5165 Q404.9563,336.0165 404.2688,334.954 Q403.5813,333.8759 403.5813,332.5946 L403.5813,331.4384 Q403.5813,330.1102 404.1906,328.9696 Q404.8156,327.8134 405.9094,327.204 Q407.0031,326.579 408.2375,326.579 Q408.9719,326.579 409.6125,326.7509 Q410.2688,326.9071 410.8156,327.2665 Z " fill="#000000"/><text fill="#000000" font-family="sans-serif" font-size="12" font-style="italic" lengthAdjust="spacing" textLength="35" x="428.45" y="319.0692">&#171;root&#187;</text><text fill="#000000" font-family="sans-serif" font-size="12" font-style="italic" lengthAdjust="spacing" textLength="44" x="423.95" y="335.0302">&#171;event&#187;</text><text fill="#000000" font-family="sans-serif" font-size="14" lengthAdjust="spacing" textLength="34" x="428.95" y="353.1493">Exam</text><line style="stroke:#181818;stroke-width:0.5;" x1="376.5" x2="485.5" y1="361.663" y2="361.663"/><ellipse cx="386.5" cy="376.4735" fill="#000000" rx="3" ry="3" style="stroke:#000000;stroke-width:1.0;"/><text fill="#000000" font-family="sans-serif" font-size="14" lengthAdjust="spacing" textLength="85" x="395.5" y="380.7704">title &#171;unique&#187;</text><ellipse cx="386.5" cy="395.0946" fill="#000000" rx="3" ry="3" style="stroke:#000000;stroke-width:1.0;"/><text fill="#000000" font-family="sans-serif" font-size="14" lengthAdjust="spacing" textLength="62" x="395.5" y="399.3915">openDate</text><ellipse cx="386.5" cy="413.7157" fill="#000000" rx="3" ry="3" style="stroke:#000000;stroke-width:1.0;"/><text fill="#000000" font-family="sans-serif" font-size="14" lengthAdjust="spacing" textLength="63" x="395.5" y="418.0126">closeDate</text><line style="stroke:#181818;stroke-width:0.5;" x1="376.5" x2="485.5" y1="425.5263" y2="425.5263"/></g><!--class ExamGrade--><g id="elem_ExamGrade"><rect codeLine="78" fill="#F1F1F1" height="97.8242" id="ExamGrade" rx="2.5" ry="2.5" style="stroke:#181818;stroke-width:0.5;" width="206" x="399" y="571.12"/><ellipse cx="459.25" cy="593.411" fill="#ADD1B2" rx="11" ry="11" style="stroke:#181818;stroke-width:1.0;"/><path d="M462.0156,589.286 Q462.1719,589.0673 462.3594,588.9579 Q462.5469,588.8485 462.7656,588.8485 Q463.1406,588.8485 463.375,589.1141 Q463.6094,589.3641 463.6094,589.9735 L463.6094,591.4266 Q463.6094,592.036 463.375,592.3016 Q463.1406,592.5673 462.7656,592.5673 Q462.4219,592.5673 462.2188,592.3641 Q462.0156,592.1766 461.9063,591.661 Q461.8594,591.3016 461.6719,591.1141 Q461.3438,590.7391 460.7344,590.5204 Q460.125,590.3016 459.5,590.3016 Q458.7344,590.3016 458.0938,590.6298 Q457.4688,590.9579 456.9688,591.7079 Q456.4844,592.4579 456.4844,593.4891 L456.4844,594.5829 Q456.4844,595.8173 457.375,596.6454 Q458.2656,597.4579 459.8594,597.4579 Q460.7969,597.4579 461.4531,597.2079 Q461.8438,597.0516 462.2656,596.6141 Q462.5313,596.3485 462.6719,596.2704 Q462.8281,596.1923 463.0313,596.1923 Q463.3594,596.1923 463.6094,596.4579 Q463.875,596.7079 463.875,597.0516 Q463.875,597.3954 463.5313,597.8016 Q463.0313,598.3798 462.2344,598.7079 Q461.1563,599.161 459.8594,599.161 Q458.3438,599.161 457.1406,598.536 Q456.1563,598.036 455.4688,596.9735 Q454.7813,595.8954 454.7813,594.6141 L454.7813,593.4579 Q454.7813,592.1298 455.3906,590.9891 Q456.0156,589.8329 457.1094,589.2235 Q458.2031,588.5985 459.4375,588.5985 Q460.1719,588.5985 460.8125,588.7704 Q461.4688,588.9266 462.0156,589.286 Z " fill="#000000"/><text fill="#000000" font-family="sans-serif" font-size="12" font-style="italic" lengthAdjust="spacing" textLength="81" x="477.75" y="589.0692">&#171;value object&#187;</text><text fill="#000000" font-family="sans-serif" font-size="14" lengthAdjust="spacing" textLength="74" x="481.25" y="607.1884">ExamGrade</text><line style="stroke:#181818;stroke-width:0.5;" x1="400" x2="604" y1="615.702" y2="615.702"/><ellipse cx="410" cy="630.5126" fill="#000000" rx="3" ry="3" style="stroke:#000000;stroke-width:1.0;"/><text fill="#000000" font-family="sans-serif" font-size="14" lengthAdjust="spacing" textLength="56" x="419" y="634.8095">int grade</text><ellipse cx="410" cy="649.1337" fill="#000000" rx="3" ry="3" style="stroke:#000000;stroke-width:1.0;"/><text fill="#000000" font-family="sans-serif" font-size="14" lengthAdjust="spacing" textLength="180" x="419" y="653.4305">eCourseSystemUser student</text><line style="stroke:#181818;stroke-width:0.5;" x1="400" x2="604" y1="660.9442" y2="660.9442"/></g><!--class RepositoryFactory--><g id="elem_RepositoryFactory"><rect codeLine="83" fill="#F1F1F1" height="48" id="RepositoryFactory" rx="2.5" ry="2.5" style="stroke:#181818;stroke-width:0.5;" width="148" x="2177" y="798.62"/><ellipse cx="2192" cy="814.62" fill="#ADD1B2" rx="11" ry="11" style="stroke:#181818;stroke-width:1.0;"/><path d="M2194.7656,810.495 Q2194.9219,810.2763 2195.1094,810.1669 Q2195.2969,810.0575 2195.5156,810.0575 Q2195.8906,810.0575 2196.125,810.3231 Q2196.3594,810.5731 2196.3594,811.1825 L2196.3594,812.6356 Q2196.3594,813.245 2196.125,813.5106 Q2195.8906,813.7763 2195.5156,813.7763 Q2195.1719,813.7763 2194.9688,813.5731 Q2194.7656,813.3856 2194.6563,812.87 Q2194.6094,812.5106 2194.4219,812.3231 Q2194.0938,811.9481 2193.4844,811.7294 Q2192.875,811.5106 2192.25,811.5106 Q2191.4844,811.5106 2190.8438,811.8388 Q2190.2188,812.1669 2189.7188,812.9169 Q2189.2344,813.6669 2189.2344,814.6981 L2189.2344,815.7919 Q2189.2344,817.0263 2190.125,817.8544 Q2191.0156,818.6669 2192.6094,818.6669 Q2193.5469,818.6669 2194.2031,818.4169 Q2194.5938,818.2606 2195.0156,817.8231 Q2195.2813,817.5575 2195.4219,817.4794 Q2195.5781,817.4013 2195.7813,817.4013 Q2196.1094,817.4013 2196.3594,817.6669 Q2196.625,817.9169 2196.625,818.2606 Q2196.625,818.6044 2196.2813,819.0106 Q2195.7813,819.5888 2194.9844,819.9169 Q2193.9063,820.37 2192.6094,820.37 Q2191.0938,820.37 2189.8906,819.745 Q2188.9063,819.245 2188.2188,818.1825 Q2187.5313,817.1044 2187.5313,815.8231 L2187.5313,814.6669 Q2187.5313,813.3388 2188.1406,812.1981 Q2188.7656,811.0419 2189.8594,810.4325 Q2190.9531,809.8075 2192.1875,809.8075 Q2192.9219,809.8075 2193.5625,809.9794 Q2194.2188,810.1356 2194.7656,810.495 Z " fill="#000000"/><text fill="#000000" font-family="sans-serif" font-size="14" lengthAdjust="spacing" textLength="116" x="2206" y="820.4169">RepositoryFactory</text><line style="stroke:#181818;stroke-width:0.5;" x1="2178" x2="2324" y1="830.62" y2="830.62"/><line style="stroke:#181818;stroke-width:0.5;" x1="2178" x2="2324" y1="838.62" y2="838.62"/></g><!--class ExamRepository--><g id="elem_ExamRepository"><rect codeLine="87" fill="#F1F1F1" height="122.4844" id="ExamRepository" rx="2.5" ry="2.5" style="stroke:#181818;stroke-width:0.5;" width="231" x="997.5" y="81.12"/><ellipse cx="1057.75" cy="97.12" fill="#ADD1B2" rx="11" ry="11" style="stroke:#181818;stroke-width:1.0;"/><path d="M1060.5156,92.995 Q1060.6719,92.7763 1060.8594,92.6669 Q1061.0469,92.5575 1061.2656,92.5575 Q1061.6406,92.5575 1061.875,92.8231 Q1062.1094,93.0731 1062.1094,93.6825 L1062.1094,95.1356 Q1062.1094,95.745 1061.875,96.0106 Q1061.6406,96.2763 1061.2656,96.2763 Q1060.9219,96.2763 1060.7188,96.0731 Q1060.5156,95.8856 1060.4063,95.37 Q1060.3594,95.0106 1060.1719,94.8231 Q1059.8438,94.4481 1059.2344,94.2294 Q1058.625,94.0106 1058,94.0106 Q1057.2344,94.0106 1056.5938,94.3388 Q1055.9688,94.6669 1055.4688,95.4169 Q1054.9844,96.1669 1054.9844,97.1981 L1054.9844,98.2919 Q1054.9844,99.5263 1055.875,100.3544 Q1056.7656,101.1669 1058.3594,101.1669 Q1059.2969,101.1669 1059.9531,100.9169 Q1060.3438,100.7606 1060.7656,100.3231 Q1061.0313,100.0575 1061.1719,99.9794 Q1061.3281,99.9013 1061.5313,99.9013 Q1061.8594,99.9013 1062.1094,100.1669 Q1062.375,100.4169 1062.375,100.7606 Q1062.375,101.1044 1062.0313,101.5106 Q1061.5313,102.0888 1060.7344,102.4169 Q1059.6563,102.87 1058.3594,102.87 Q1056.8438,102.87 1055.6406,102.245 Q1054.6563,101.745 1053.9688,100.6825 Q1053.2813,99.6044 1053.2813,98.3231 L1053.2813,97.1669 Q1053.2813,95.8388 1053.8906,94.6981 Q1054.5156,93.5419 1055.6094,92.9325 Q1056.7031,92.3075 1057.9375,92.3075 Q1058.6719,92.3075 1059.3125,92.4794 Q1059.9688,92.6356 1060.5156,92.995 Z " fill="#000000"/><text fill="#000000" font-family="sans-serif" font-size="14" lengthAdjust="spacing" textLength="102" x="1078.25" y="102.9169">ExamRepository</text><line style="stroke:#181818;stroke-width:0.5;" x1="998.5" x2="1227.5" y1="113.12" y2="113.12"/><line style="stroke:#181818;stroke-width:0.5;" x1="998.5" x2="1227.5" y1="121.12" y2="121.12"/><ellipse cx="1008.5" cy="135.9305" fill="#84BE84" rx="3" ry="3" style="stroke:#038048;stroke-width:1.0;"/><text fill="#000000" font-family="sans-serif" font-size="14" lengthAdjust="spacing" textLength="144" x="1017.5" y="140.2274">addExam(Exam: Exam)</text><ellipse cx="1008.5" cy="154.5516" fill="#84BE84" rx="3" ry="3" style="stroke:#038048;stroke-width:1.0;"/><text fill="#000000" font-family="sans-serif" font-size="14" lengthAdjust="spacing" textLength="167" x="1017.5" y="158.8485">removeExam(Exam: Exam)</text><ellipse cx="1008.5" cy="173.1727" fill="#84BE84" rx="3" ry="3" style="stroke:#038048;stroke-width:1.0;"/><text fill="#000000" font-family="sans-serif" font-size="14" lengthAdjust="spacing" textLength="205" x="1017.5" y="177.4696">searchExam(Exam: Exam): Exam</text><ellipse cx="1008.5" cy="191.7938" fill="#84BE84" rx="3" ry="3" style="stroke:#038048;stroke-width:1.0;"/><text fill="#000000" font-family="sans-serif" font-size="14" lengthAdjust="spacing" textLength="165" x="1017.5" y="196.0907">totalNumberOfExams(): int</text></g><!--class ExamReadFile--><g id="elem_ExamReadFile"><rect codeLine="94" fill="#F1F1F1" height="66.6211" id="ExamReadFile" rx="2.5" ry="2.5" style="stroke:#181818;stroke-width:0.5;" width="269" x="1263.5" y="108.62"/><ellipse cx="1348.25" cy="124.62" fill="#ADD1B2" rx="11" ry="11" style="stroke:#181818;stroke-width:1.0;"/><path d="M1351.0156,120.495 Q1351.1719,120.2763 1351.3594,120.1669 Q1351.5469,120.0575 1351.7656,120.0575 Q1352.1406,120.0575 1352.375,120.3231 Q1352.6094,120.5731 1352.6094,121.1825 L1352.6094,122.6356 Q1352.6094,123.245 1352.375,123.5106 Q1352.1406,123.7763 1351.7656,123.7763 Q1351.4219,123.7763 1351.2188,123.5731 Q1351.0156,123.3856 1350.9063,122.87 Q1350.8594,122.5106 1350.6719,122.3231 Q1350.3438,121.9481 1349.7344,121.7294 Q1349.125,121.5106 1348.5,121.5106 Q1347.7344,121.5106 1347.0938,121.8388 Q1346.4688,122.1669 1345.9688,122.9169 Q1345.4844,123.6669 1345.4844,124.6981 L1345.4844,125.7919 Q1345.4844,127.0263 1346.375,127.8544 Q1347.2656,128.6669 1348.8594,128.6669 Q1349.7969,128.6669 1350.4531,128.4169 Q1350.8438,128.2606 1351.2656,127.8231 Q1351.5313,127.5575 1351.6719,127.4794 Q1351.8281,127.4013 1352.0313,127.4013 Q1352.3594,127.4013 1352.6094,127.6669 Q1352.875,127.9169 1352.875,128.2606 Q1352.875,128.6044 1352.5313,129.0106 Q1352.0313,129.5888 1351.2344,129.9169 Q1350.1563,130.37 1348.8594,130.37 Q1347.3438,130.37 1346.1406,129.745 Q1345.1563,129.245 1344.4688,128.1825 Q1343.7813,127.1044 1343.7813,125.8231 L1343.7813,124.6669 Q1343.7813,123.3388 1344.3906,122.1981 Q1345.0156,121.0419 1346.1094,120.4325 Q1347.2031,119.8075 1348.4375,119.8075 Q1349.1719,119.8075 1349.8125,119.9794 Q1350.4688,120.1356 1351.0156,120.495 Z " fill="#000000"/><text fill="#000000" font-family="sans-serif" font-size="14" lengthAdjust="spacing" textLength="91" x="1368.75" y="130.4169">ExamReadFile</text><line style="stroke:#181818;stroke-width:0.5;" x1="1264.5" x2="1531.5" y1="140.62" y2="140.62"/><line style="stroke:#181818;stroke-width:0.5;" x1="1264.5" x2="1531.5" y1="148.62" y2="148.62"/><ellipse cx="1274.5" cy="163.4305" fill="#84BE84" rx="3" ry="3" style="stroke:#038048;stroke-width:1.0;"/><text fill="#000000" font-family="sans-serif" font-size="14" lengthAdjust="spacing" textLength="243" x="1283.5" y="167.7274">FileToString(String path) : List&lt;String&gt;</text></g><!--class VerifyExamService--><g id="elem_VerifyExamService"><rect fill="#F1F1F1" height="48" id="VerifyExamService" rx="2.5" ry="2.5" style="stroke:#181818;stroke-width:0.5;" width="149" x="768.5" y="343.12"/><ellipse cx="783.5" cy="359.12" fill="#ADD1B2" rx="11" ry="11" style="stroke:#181818;stroke-width:1.0;"/><path d="M786.2656,354.995 Q786.4219,354.7763 786.6094,354.6669 Q786.7969,354.5575 787.0156,354.5575 Q787.3906,354.5575 787.625,354.8231 Q787.8594,355.0731 787.8594,355.6825 L787.8594,357.1356 Q787.8594,357.745 787.625,358.0106 Q787.3906,358.2763 787.0156,358.2763 Q786.6719,358.2763 786.4688,358.0731 Q786.2656,357.8856 786.1563,357.37 Q786.1094,357.0106 785.9219,356.8231 Q785.5938,356.4481 784.9844,356.2294 Q784.375,356.0106 783.75,356.0106 Q782.9844,356.0106 782.3438,356.3388 Q781.7188,356.6669 781.2188,357.4169 Q780.7344,358.1669 780.7344,359.1981 L780.7344,360.2919 Q780.7344,361.5263 781.625,362.3544 Q782.5156,363.1669 784.1094,363.1669 Q785.0469,363.1669 785.7031,362.9169 Q786.0938,362.7606 786.5156,362.3231 Q786.7813,362.0575 786.9219,361.9794 Q787.0781,361.9013 787.2813,361.9013 Q787.6094,361.9013 787.8594,362.1669 Q788.125,362.4169 788.125,362.7606 Q788.125,363.1044 787.7813,363.5106 Q787.2813,364.0888 786.4844,364.4169 Q785.4063,364.87 784.1094,364.87 Q782.5938,364.87 781.3906,364.245 Q780.4063,363.745 779.7188,362.6825 Q779.0313,361.6044 779.0313,360.3231 L779.0313,359.1669 Q779.0313,357.8388 779.6406,356.6981 Q780.2656,355.5419 781.3594,354.9325 Q782.4531,354.3075 783.6875,354.3075 Q784.4219,354.3075 785.0625,354.4794 Q785.7188,354.6356 786.2656,354.995 Z " fill="#000000"/><text fill="#000000" font-family="sans-serif" font-size="14" lengthAdjust="spacing" textLength="117" x="797.5" y="364.9169">VerifyExamService</text><line style="stroke:#181818;stroke-width:0.5;" x1="769.5" x2="916.5" y1="375.12" y2="375.12"/><line style="stroke:#181818;stroke-width:0.5;" x1="769.5" x2="916.5" y1="383.12" y2="383.12"/></g><!--class CourseStatus--><g id="elem_CourseStatus"><rect fill="#F1F1F1" height="48" id="CourseStatus" rx="2.5" ry="2.5" style="stroke:#181818;stroke-width:0.5;" width="118" x="7" y="343.12"/><ellipse cx="22" cy="359.12" fill="#ADD1B2" rx="11" ry="11" style="stroke:#181818;stroke-width:1.0;"/><path d="M24.7656,354.995 Q24.9219,354.7763 25.1094,354.6669 Q25.2969,354.5575 25.5156,354.5575 Q25.8906,354.5575 26.125,354.8231 Q26.3594,355.0731 26.3594,355.6825 L26.3594,357.1356 Q26.3594,357.745 26.125,358.0106 Q25.8906,358.2763 25.5156,358.2763 Q25.1719,358.2763 24.9688,358.0731 Q24.7656,357.8856 24.6563,357.37 Q24.6094,357.0106 24.4219,356.8231 Q24.0938,356.4481 23.4844,356.2294 Q22.875,356.0106 22.25,356.0106 Q21.4844,356.0106 20.8438,356.3388 Q20.2188,356.6669 19.7188,357.4169 Q19.2344,358.1669 19.2344,359.1981 L19.2344,360.2919 Q19.2344,361.5263 20.125,362.3544 Q21.0156,363.1669 22.6094,363.1669 Q23.5469,363.1669 24.2031,362.9169 Q24.5938,362.7606 25.0156,362.3231 Q25.2813,362.0575 25.4219,361.9794 Q25.5781,361.9013 25.7813,361.9013 Q26.1094,361.9013 26.3594,362.1669 Q26.625,362.4169 26.625,362.7606 Q26.625,363.1044 26.2813,363.5106 Q25.7813,364.0888 24.9844,364.4169 Q23.9063,364.87 22.6094,364.87 Q21.0938,364.87 19.8906,364.245 Q18.9063,363.745 18.2188,362.6825 Q17.5313,361.6044 17.5313,360.3231 L17.5313,359.1669 Q17.5313,357.8388 18.1406,356.6981 Q18.7656,355.5419 19.8594,354.9325 Q20.9531,354.3075 22.1875,354.3075 Q22.9219,354.3075 23.5625,354.4794 Q24.2188,354.6356 24.7656,354.995 Z " fill="#000000"/><text fill="#000000" font-family="sans-serif" font-size="14" lengthAdjust="spacing" textLength="86" x="36" y="364.9169">CourseStatus</text><line style="stroke:#181818;stroke-width:0.5;" x1="8" x2="124" y1="375.12" y2="375.12"/><line style="stroke:#181818;stroke-width:0.5;" x1="8" x2="124" y1="383.12" y2="383.12"/></g><!--class CourseCode--><g id="elem_CourseCode"><rect fill="#F1F1F1" height="48" id="CourseCode" rx="2.5" ry="2.5" style="stroke:#181818;stroke-width:0.5;" width="112" x="187" y="596.12"/><ellipse cx="202" cy="612.12" fill="#ADD1B2" rx="11" ry="11" style="stroke:#181818;stroke-width:1.0;"/><path d="M204.7656,607.995 Q204.9219,607.7763 205.1094,607.6669 Q205.2969,607.5575 205.5156,607.5575 Q205.8906,607.5575 206.125,607.8231 Q206.3594,608.0731 206.3594,608.6825 L206.3594,610.1356 Q206.3594,610.745 206.125,611.0106 Q205.8906,611.2763 205.5156,611.2763 Q205.1719,611.2763 204.9688,611.0731 Q204.7656,610.8856 204.6563,610.37 Q204.6094,610.0106 204.4219,609.8231 Q204.0938,609.4481 203.4844,609.2294 Q202.875,609.0106 202.25,609.0106 Q201.4844,609.0106 200.8438,609.3388 Q200.2188,609.6669 199.7188,610.4169 Q199.2344,611.1669 199.2344,612.1981 L199.2344,613.2919 Q199.2344,614.5263 200.125,615.3544 Q201.0156,616.1669 202.6094,616.1669 Q203.5469,616.1669 204.2031,615.9169 Q204.5938,615.7606 205.0156,615.3231 Q205.2813,615.0575 205.4219,614.9794 Q205.5781,614.9013 205.7813,614.9013 Q206.1094,614.9013 206.3594,615.1669 Q206.625,615.4169 206.625,615.7606 Q206.625,616.1044 206.2813,616.5106 Q205.7813,617.0888 204.9844,617.4169 Q203.9063,617.87 202.6094,617.87 Q201.0938,617.87 199.8906,617.245 Q198.9063,616.745 198.2188,615.6825 Q197.5313,614.6044 197.5313,613.3231 L197.5313,612.1669 Q197.5313,610.8388 198.1406,609.6981 Q198.7656,608.5419 199.8594,607.9325 Q200.9531,607.3075 202.1875,607.3075 Q202.9219,607.3075 203.5625,607.4794 Q204.2188,607.6356 204.7656,607.995 Z " fill="#000000"/><text fill="#000000" font-family="sans-serif" font-size="14" lengthAdjust="spacing" textLength="80" x="216" y="617.9169">CourseCode</text><line style="stroke:#181818;stroke-width:0.5;" x1="188" x2="298" y1="628.12" y2="628.12"/><line style="stroke:#181818;stroke-width:0.5;" x1="188" x2="298" y1="636.12" y2="636.12"/></g><!--class Class--><g id="elem_Class"><rect fill="#F1F1F1" height="48" id="Class" rx="2.5" ry="2.5" style="stroke:#181818;stroke-width:0.5;" width="67" x="653.5" y="118.12"/><ellipse cx="668.5" cy="134.12" fill="#ADD1B2" rx="11" ry="11" style="stroke:#181818;stroke-width:1.0;"/><path d="M671.2656,129.995 Q671.4219,129.7763 671.6094,129.6669 Q671.7969,129.5575 672.0156,129.5575 Q672.3906,129.5575 672.625,129.8231 Q672.8594,130.0731 672.8594,130.6825 L672.8594,132.1356 Q672.8594,132.745 672.625,133.0106 Q672.3906,133.2763 672.0156,133.2763 Q671.6719,133.2763 671.4688,133.0731 Q671.2656,132.8856 671.1563,132.37 Q671.1094,132.0106 670.9219,131.8231 Q670.5938,131.4481 669.9844,131.2294 Q669.375,131.0106 668.75,131.0106 Q667.9844,131.0106 667.3438,131.3388 Q666.7188,131.6669 666.2188,132.4169 Q665.7344,133.1669 665.7344,134.1981 L665.7344,135.2919 Q665.7344,136.5263 666.625,137.3544 Q667.5156,138.1669 669.1094,138.1669 Q670.0469,138.1669 670.7031,137.9169 Q671.0938,137.7606 671.5156,137.3231 Q671.7813,137.0575 671.9219,136.9794 Q672.0781,136.9013 672.2813,136.9013 Q672.6094,136.9013 672.8594,137.1669 Q673.125,137.4169 673.125,137.7606 Q673.125,138.1044 672.7813,138.5106 Q672.2813,139.0888 671.4844,139.4169 Q670.4063,139.87 669.1094,139.87 Q667.5938,139.87 666.3906,139.245 Q665.4063,138.745 664.7188,137.6825 Q664.0313,136.6044 664.0313,135.3231 L664.0313,134.1669 Q664.0313,132.8388 664.6406,131.6981 Q665.2656,130.5419 666.3594,129.9325 Q667.4531,129.3075 668.6875,129.3075 Q669.4219,129.3075 670.0625,129.4794 Q670.7188,129.6356 671.2656,129.995 Z " fill="#000000"/><text fill="#000000" font-family="sans-serif" font-size="14" lengthAdjust="spacing" textLength="35" x="682.5" y="139.9169">Class</text><line style="stroke:#181818;stroke-width:0.5;" x1="654.5" x2="719.5" y1="150.12" y2="150.12"/><line style="stroke:#181818;stroke-width:0.5;" x1="654.5" x2="719.5" y1="158.12" y2="158.12"/></g><!--class FormativeExamRepository--><g id="elem_FormativeExamRepository"><rect fill="#F1F1F1" height="48" id="FormativeExamRepository" rx="2.5" ry="2.5" style="stroke:#181818;stroke-width:0.5;" width="197" x="2360.5" y="798.62"/><ellipse cx="2375.5" cy="814.62" fill="#ADD1B2" rx="11" ry="11" style="stroke:#181818;stroke-width:1.0;"/><path d="M2378.2656,810.495 Q2378.4219,810.2763 2378.6094,810.1669 Q2378.7969,810.0575 2379.0156,810.0575 Q2379.3906,810.0575 2379.625,810.3231 Q2379.8594,810.5731 2379.8594,811.1825 L2379.8594,812.6356 Q2379.8594,813.245 2379.625,813.5106 Q2379.3906,813.7763 2379.0156,813.7763 Q2378.6719,813.7763 2378.4688,813.5731 Q2378.2656,813.3856 2378.1563,812.87 Q2378.1094,812.5106 2377.9219,812.3231 Q2377.5938,811.9481 2376.9844,811.7294 Q2376.375,811.5106 2375.75,811.5106 Q2374.9844,811.5106 2374.3438,811.8388 Q2373.7188,812.1669 2373.2188,812.9169 Q2372.7344,813.6669 2372.7344,814.6981 L2372.7344,815.7919 Q2372.7344,817.0263 2373.625,817.8544 Q2374.5156,818.6669 2376.1094,818.6669 Q2377.0469,818.6669 2377.7031,818.4169 Q2378.0938,818.2606 2378.5156,817.8231 Q2378.7813,817.5575 2378.9219,817.4794 Q2379.0781,817.4013 2379.2813,817.4013 Q2379.6094,817.4013 2379.8594,817.6669 Q2380.125,817.9169 2380.125,818.2606 Q2380.125,818.6044 2379.7813,819.0106 Q2379.2813,819.5888 2378.4844,819.9169 Q2377.4063,820.37 2376.1094,820.37 Q2374.5938,820.37 2373.3906,819.745 Q2372.4063,819.245 2371.7188,818.1825 Q2371.0313,817.1044 2371.0313,815.8231 L2371.0313,814.6669 Q2371.0313,813.3388 2371.6406,812.1981 Q2372.2656,811.0419 2373.3594,810.4325 Q2374.4531,809.8075 2375.6875,809.8075 Q2376.4219,809.8075 2377.0625,809.9794 Q2377.7188,810.1356 2378.2656,810.495 Z " fill="#000000"/><text fill="#000000" font-family="sans-serif" font-size="14" lengthAdjust="spacing" textLength="165" x="2389.5" y="820.4169">FormativeExamRepository</text><line style="stroke:#181818;stroke-width:0.5;" x1="2361.5" x2="2556.5" y1="830.62" y2="830.62"/><line style="stroke:#181818;stroke-width:0.5;" x1="2361.5" x2="2556.5" y1="838.62" y2="838.62"/></g><!--class CreateExamController--><g id="elem_CreateExamController"><rect fill="#F1F1F1" height="48" id="CreateExamController" rx="2.5" ry="2.5" style="stroke:#181818;stroke-width:0.5;" width="171" x="1096.5" y="343.12"/><ellipse cx="1111.5" cy="359.12" fill="#ADD1B2" rx="11" ry="11" style="stroke:#181818;stroke-width:1.0;"/><path d="M1114.2656,354.995 Q1114.4219,354.7763 1114.6094,354.6669 Q1114.7969,354.5575 1115.0156,354.5575 Q1115.3906,354.5575 1115.625,354.8231 Q1115.8594,355.0731 1115.8594,355.6825 L1115.8594,357.1356 Q1115.8594,357.745 1115.625,358.0106 Q1115.3906,358.2763 1115.0156,358.2763 Q1114.6719,358.2763 1114.4688,358.0731 Q1114.2656,357.8856 1114.1563,357.37 Q1114.1094,357.0106 1113.9219,356.8231 Q1113.5938,356.4481 1112.9844,356.2294 Q1112.375,356.0106 1111.75,356.0106 Q1110.9844,356.0106 1110.3438,356.3388 Q1109.7188,356.6669 1109.2188,357.4169 Q1108.7344,358.1669 1108.7344,359.1981 L1108.7344,360.2919 Q1108.7344,361.5263 1109.625,362.3544 Q1110.5156,363.1669 1112.1094,363.1669 Q1113.0469,363.1669 1113.7031,362.9169 Q1114.0938,362.7606 1114.5156,362.3231 Q1114.7813,362.0575 1114.9219,361.9794 Q1115.0781,361.9013 1115.2813,361.9013 Q1115.6094,361.9013 1115.8594,362.1669 Q1116.125,362.4169 1116.125,362.7606 Q1116.125,363.1044 1115.7813,363.5106 Q1115.2813,364.0888 1114.4844,364.4169 Q1113.4063,364.87 1112.1094,364.87 Q1110.5938,364.87 1109.3906,364.245 Q1108.4063,363.745 1107.7188,362.6825 Q1107.0313,361.6044 1107.0313,360.3231 L1107.0313,359.1669 Q1107.0313,357.8388 1107.6406,356.6981 Q1108.2656,355.5419 1109.3594,354.9325 Q1110.4531,354.3075 1111.6875,354.3075 Q1112.4219,354.3075 1113.0625,354.4794 Q1113.7188,354.6356 1114.2656,354.995 Z " fill="#000000"/><text fill="#000000" font-family="sans-serif" font-size="14" lengthAdjust="spacing" textLength="139" x="1125.5" y="364.9169">CreateExamController</text><line style="stroke:#181818;stroke-width:0.5;" x1="1097.5" x2="1266.5" y1="375.12" y2="375.12"/><line style="stroke:#181818;stroke-width:0.5;" x1="1097.5" x2="1266.5" y1="383.12" y2="383.12"/></g><!--class FormativeExam--><g id="elem_FormativeExam"><rect fill="#F1F1F1" height="48" id="FormativeExam" rx="2.5" ry="2.5" style="stroke:#181818;stroke-width:0.5;" width="129" x="997.5" y="596.12"/><ellipse cx="1012.5" cy="612.12" fill="#ADD1B2" rx="11" ry="11" style="stroke:#181818;stroke-width:1.0;"/><path d="M1015.2656,607.995 Q1015.4219,607.7763 1015.6094,607.6669 Q1015.7969,607.5575 1016.0156,607.5575 Q1016.3906,607.5575 1016.625,607.8231 Q1016.8594,608.0731 1016.8594,608.6825 L1016.8594,610.1356 Q1016.8594,610.745 1016.625,611.0106 Q1016.3906,611.2763 1016.0156,611.2763 Q1015.6719,611.2763 1015.4688,611.0731 Q1015.2656,610.8856 1015.1563,610.37 Q1015.1094,610.0106 1014.9219,609.8231 Q1014.5938,609.4481 1013.9844,609.2294 Q1013.375,609.0106 1012.75,609.0106 Q1011.9844,609.0106 1011.3438,609.3388 Q1010.7188,609.6669 1010.2188,610.4169 Q1009.7344,611.1669 1009.7344,612.1981 L1009.7344,613.2919 Q1009.7344,614.5263 1010.625,615.3544 Q1011.5156,616.1669 1013.1094,616.1669 Q1014.0469,616.1669 1014.7031,615.9169 Q1015.0938,615.7606 1015.5156,615.3231 Q1015.7813,615.0575 1015.9219,614.9794 Q1016.0781,614.9013 1016.2813,614.9013 Q1016.6094,614.9013 1016.8594,615.1669 Q1017.125,615.4169 1017.125,615.7606 Q1017.125,616.1044 1016.7813,616.5106 Q1016.2813,617.0888 1015.4844,617.4169 Q1014.4063,617.87 1013.1094,617.87 Q1011.5938,617.87 1010.3906,617.245 Q1009.4063,616.745 1008.7188,615.6825 Q1008.0313,614.6044 1008.0313,613.3231 L1008.0313,612.1669 Q1008.0313,610.8388 1008.6406,609.6981 Q1009.2656,608.5419 1010.3594,607.9325 Q1011.4531,607.3075 1012.6875,607.3075 Q1013.4219,607.3075 1014.0625,607.4794 Q1014.7188,607.6356 1015.2656,607.995 Z " fill="#000000"/><text fill="#000000" font-family="sans-serif" font-size="14" lengthAdjust="spacing" textLength="97" x="1026.5" y="617.9169">FormativeExam</text><line style="stroke:#181818;stroke-width:0.5;" x1="998.5" x2="1125.5" y1="628.12" y2="628.12"/><line style="stroke:#181818;stroke-width:0.5;" x1="998.5" x2="1125.5" y1="636.12" y2="636.12"/></g><!--link SystemUser to EmailAdderss--><g id="link_SystemUser_EmailAdderss"><path codeLine="100" d="M1461.25,424.14 C1490.55,473.49 1532.27,543.77 1556.8,585.09 " fill="none" id="SystemUser-to-EmailAdderss" style="stroke:#181818;stroke-width:1.0;"/><polygon fill="#181818" points="1559.41,589.49,1558.2478,579.71,1556.8543,585.1925,1551.3718,583.799,1559.41,589.49" style="stroke:#181818;stroke-width:1.0;"/><text fill="#000000" font-family="sans-serif" font-size="13" lengthAdjust="spacing" textLength="7" x="1548.0602" y="578.5209">1</text></g><!--link SystemUser to Password--><g id="link_SystemUser_Password"><path codeLine="101" d="M1428,424.14 C1428,473.19 1428,542.91 1428,584.33 " fill="none" id="SystemUser-to-Password" style="stroke:#181818;stroke-width:1.0;"/><polygon fill="#181818" points="1428,589.49,1432,580.49,1428,584.49,1424,580.49,1428,589.49" style="stroke:#181818;stroke-width:1.0;"/><text fill="#000000" font-family="sans-serif" font-size="13" lengthAdjust="spacing" textLength="7" x="1420.2781" y="578.5209">1</text></g><!--link SystemUser to Role--><g id="link_SystemUser_Role"><path codeLine="102" d="M1396.53,424.14 C1370.77,470 1334.85,533.94 1311.27,575.92 " fill="none" id="SystemUser-to-Role" style="stroke:#181818;stroke-width:1.0;"/><polygon fill="#181818" points="1308.74,580.42,1316.6222,574.5148,1311.1791,576.0553,1309.6386,570.6122,1308.74,580.42" style="stroke:#181818;stroke-width:1.0;"/><text fill="#000000" font-family="sans-serif" font-size="13" lengthAdjust="spacing" textLength="7" x="1304.761" y="569.4725">1</text></g><!--link eCourseSystemUser to SystemUser--><g id="link_eCourseSystemUser_SystemUser"><path codeLine="104" d="M918.11,180.96 C935.29,196.49 957.07,212.96 980,222.12 C1055.99,252.47 1275.88,211.65 1347,252.12 C1368.67,264.45 1385.99,285.23 1398.96,305.7 " fill="none" id="eCourseSystemUser-to-SystemUser" style="stroke:#181818;stroke-width:1.0;"/><polygon fill="#181818" points="1401.66,310.06,1400.3352,300.3007,1399.0331,305.8056,1393.5282,304.5036,1401.66,310.06" style="stroke:#181818;stroke-width:1.0;"/><text fill="#000000" font-family="sans-serif" font-size="13" lengthAdjust="spacing" textLength="7" x="1390.8368" y="298.7209">1</text></g><!--link eCourseSystemUser to Role--><g id="link_eCourseSystemUser_Role"><path codeLine="105" d="M920.78,180.76 C937.79,195.51 958.72,211.42 980,222.12 C1105.1,285.03 1198.94,190.65 1285,301.12 C1347,380.71 1321.51,508.71 1301.84,575.45 " fill="none" id="eCourseSystemUser-to-Role" style="stroke:#181818;stroke-width:1.0;"/><polygon fill="#181818" points="1300.31,580.54,1306.7172,573.0602,1301.7402,575.7489,1299.0514,570.7719,1300.31,580.54" style="stroke:#181818;stroke-width:1.0;"/><text fill="#000000" font-family="sans-serif" font-size="13" lengthAdjust="spacing" textLength="7" x="1294.9961" y="569.3121">1</text></g><!--link eCourseSystemUser to UserStatus--><g id="link_eCourseSystemUser_UserStatus"><path codeLine="106" d="M848.47,180.7 C815.85,217.25 766.01,273.1 729.55,313.96 " fill="none" id="eCourseSystemUser-to-UserStatus" style="stroke:#181818;stroke-width:1.0;"/><polygon fill="#181818" points="726.07,317.86,735.0476,313.8099,729.3998,314.1301,729.0797,308.4823,726.07,317.86" style="stroke:#181818;stroke-width:1.0;"/><text fill="#000000" font-family="sans-serif" font-size="13" lengthAdjust="spacing" textLength="7" x="724.6345" y="306.7986">1</text></g><!--link eCourseSystemUser to Acronym--><g id="link_eCourseSystemUser_Acronym"><path codeLine="107" d="M903.06,180.7 C926.73,222.92 964.83,290.89 987.74,331.75 " fill="none" id="eCourseSystemUser-to-Acronym" style="stroke:#181818;stroke-width:1.0;"/><polygon fill="#181818" points="990.45,336.6,989.5377,326.7935,988.0048,332.2387,982.5596,330.7058,990.45,336.6" style="stroke:#181818;stroke-width:1.0;"/><text fill="#000000" font-family="sans-serif" font-size="13" lengthAdjust="spacing" textLength="7" x="979.0641" y="325.1702">1</text></g><!--link eCourseSystemUser to NIF--><g id="link_eCourseSystemUser_NIF"><path codeLine="108" d="M917.62,180.62 C934.86,196.3 956.83,212.97 980,222.12 C1147.45,288.28 1209.04,209.59 1384,252.12 C1437.99,265.24 1452.18,271.21 1499,301.12 C1513.02,310.08 1526.95,321.81 1538.77,332.84 " fill="none" id="eCourseSystemUser-to-NIF" style="stroke:#181818;stroke-width:1.0;"/><polygon fill="#181818" points="1542.69,336.54,1538.9144,327.4436,1539.0629,333.0985,1533.408,333.247,1542.69,336.54" style="stroke:#181818;stroke-width:1.0;"/><text fill="#000000" font-family="sans-serif" font-size="13" lengthAdjust="spacing" textLength="7" x="1529.1292" y="325.5812">1</text></g><!--link eCourseSystemUser to BirthDate--><g id="link_eCourseSystemUser_BirthDate"><path codeLine="109" d="M917.55,180.81 C934.77,196.53 956.75,213.17 980,222.12 C1090.51,264.65 1393.85,244.2 1512,252.12 C1792.66,270.93 1884.57,190.05 2143,301.12 C2159.4,308.17 2174.57,320.53 2186.71,332.59 " fill="none" id="eCourseSystemUser-to-BirthDate" style="stroke:#181818;stroke-width:1.0;"/><polygon fill="#181818" points="2190.38,336.32,2186.9002,327.1064,2186.866,332.7631,2181.2092,332.7288,2190.38,336.32" style="stroke:#181818;stroke-width:1.0;"/><text fill="#000000" font-family="sans-serif" font-size="13" lengthAdjust="spacing" textLength="7" x="2177.5803" y="325.3158">1</text></g><!--link eCourseSystemUser to MechanographicNumber--><g id="link_eCourseSystemUser_MechanographicNumber"><path codeLine="110" d="M917.46,181.03 C934.67,196.79 956.66,213.41 980,222.12 C1066.45,254.4 1717.94,245.73 1810,252.12 C2022.6,266.87 2084.44,234.88 2287,301.12 C2305.04,307.02 2323.34,316.17 2339.74,325.76 " fill="none" id="eCourseSystemUser-to-MechanographicNumber" style="stroke:#181818;stroke-width:1.0;"/><polygon fill="#181818" points="2344.31,328.47,2338.619,320.4318,2340.0125,325.9143,2334.53,327.3078,2344.31,328.47" style="stroke:#181818;stroke-width:1.0;"/><text fill="#000000" font-family="sans-serif" font-size="13" lengthAdjust="spacing" textLength="7" x="2327.4805" y="317.4587">1</text></g><!--link eCourseSystemUser to Grade--><g id="link_eCourseSystemUser_Grade"><path codeLine="111" d="M825.86,180.77 C800.15,196.17 768.63,212.58 738,222.12 C613.02,261.04 569.76,212.5 445,252.12 C434.43,255.48 367.01,294.64 358,301.12 C344.86,310.57 331.43,322.09 319.79,332.79 " fill="none" id="eCourseSystemUser-to-Grade" style="stroke:#181818;stroke-width:1.0;"/><polygon fill="#181818" points="315.91,336.39,325.225,333.1915,319.5719,332.9856,319.7779,327.3324,315.91,336.39" style="stroke:#181818;stroke-width:1.0;"/><polygon fill="#000000" points="445.2114,263.204,454.7196,263.4164,453.0286,257.7871,445.2114,263.204" style="stroke:#000000;stroke-width:1.0;"/><text fill="#000000" font-family="sans-serif" font-size="13" lengthAdjust="spacing" textLength="79" x="459" y="267.1483">student has a</text><text fill="#000000" font-family="sans-serif" font-size="13" lengthAdjust="spacing" textLength="7" x="314.3571" y="325.4002">1</text></g><!--link eCourseSystemUser to VerifyExamService--><g id="link_eCourseSystemUser_VerifyExamService"><path codeLine="113" d="M875.43,180.7 C867.66,225.13 854.9,298.05 847.93,337.92 " fill="none" id="eCourseSystemUser-to-VerifyExamService" style="stroke:#181818;stroke-width:1.0;"/><polygon fill="#181818" points="847.03,343.09,852.5169,334.9112,847.8891,338.1644,844.6359,333.5366,847.03,343.09" style="stroke:#181818;stroke-width:1.0;"/><polygon fill="#000000" points="867.1385,266.6907,871.5919,258.2873,865.802,257.2745,867.1385,266.6907" style="stroke:#000000;stroke-width:1.0;"/><text fill="#000000" font-family="sans-serif" font-size="13" lengthAdjust="spacing" textLength="28" x="877" y="267.1483">uses</text></g><!--link eCourseSystemUser to Exam--><g id="link_eCourseSystemUser_Exam"><path codeLine="115" d="M823.38,180.79 C797.99,195.63 767.4,211.6 738,222.12 C669.88,246.49 643.99,222.45 578,252.12 C544.86,267.02 512.46,290.84 486.55,312.86 " fill="none" id="eCourseSystemUser-Exam" style="stroke:#181818;stroke-width:1.0;"/><polygon fill="#000000" points="578.345,263.5907,587.8388,263.025,585.6931,257.5528,578.345,263.5907" style="stroke:#000000;stroke-width:1.0;"/><text fill="#000000" font-family="sans-serif" font-size="13" lengthAdjust="spacing" textLength="93" x="592" y="267.1483">creates/updates</text><text fill="#000000" font-family="sans-serif" font-size="13" lengthAdjust="spacing" textLength="5" x="809.021" y="202.0985">*</text><text fill="#000000" font-family="sans-serif" font-size="13" lengthAdjust="spacing" textLength="5" x="494.3505" y="301.4472">*</text></g><!--link Course to CourseStatus--><g id="link_Course_CourseStatus"><path codeLine="118" d="M188.79,222.15 C175.87,231.62 163.37,241.67 152,252.12 C123.99,277.87 98.66,313.71 82.86,338.29 " fill="none" id="Course-to-CourseStatus" style="stroke:#181818;stroke-width:1.0;"/><polygon fill="#181818" points="80.02,342.74,88.2218,337.2874,82.7007,338.5193,81.4687,332.9983,80.02,342.74" style="stroke:#181818;stroke-width:1.0;"/><text fill="#000000" font-family="sans-serif" font-size="13" lengthAdjust="spacing" textLength="7" x="75.5843" y="331.7893">1</text></g><!--link Course to CourseCode--><g id="link_Course_CourseCode"><path codeLine="119" d="M240.78,222.12 C233.6,231.67 227.14,241.74 222,252.12 C165.18,366.96 210.4,527.4 232.55,591.28 " fill="none" id="Course-to-CourseCode" style="stroke:#181818;stroke-width:1.0;"/><polygon fill="#181818" points="234.24,596.07,235.029,586.2528,232.5819,591.3529,227.4817,588.9058,234.24,596.07" style="stroke:#181818;stroke-width:1.0;"/><text fill="#000000" font-family="sans-serif" font-size="13" lengthAdjust="spacing" textLength="7" x="224.0984" y="584.7947">1</text></g><!--link Course to Grade--><g id="link_Course_Grade"><path codeLine="121" d="M248.12,222.19 C242.03,231.73 236.78,241.77 233,252.12 C222.28,281.43 240.08,313.57 257.87,336.23 " fill="none" id="Course-Grade" style="stroke:#181818;stroke-width:1.0;"/><polygon fill="#000000" points="237.5741,256.7837,235.4163,266.0462,241.2728,265.5455,237.5741,256.7837" style="stroke:#000000;stroke-width:1.0;"/><text fill="#000000" font-family="sans-serif" font-size="13" lengthAdjust="spacing" textLength="47" x="247" y="267.1483">refers to</text><text fill="#000000" font-family="sans-serif" font-size="13" lengthAdjust="spacing" textLength="7" x="234.2123" y="243.8541">1</text><text fill="#000000" font-family="sans-serif" font-size="13" lengthAdjust="spacing" textLength="7" x="244.3463" y="325.2072">1</text></g><!--link Course to Exam--><g id="link_Course_Exam"><path codeLine="122" d="M322.42,222.19 C324.25,238.92 328.01,256.06 335,271.12 C340.16,282.23 357.1,300.1 375.35,317.36 " fill="none" id="Course-Exam" style="stroke:#181818;stroke-width:1.0;"/><polygon fill="#000000" points="337.5698,257.3958,339.3977,266.7291,344.5345,263.8722,337.5698,257.3958" style="stroke:#000000;stroke-width:1.0;"/><text fill="#000000" font-family="sans-serif" font-size="13" lengthAdjust="spacing" textLength="54" x="349" y="267.1483">related to</text><text fill="#000000" font-family="sans-serif" font-size="13" lengthAdjust="spacing" textLength="7" x="314.8975" y="243.8541">1</text><text fill="#000000" font-family="sans-serif" font-size="13" lengthAdjust="spacing" textLength="20" x="347.3489" y="307.2809">0..*</text></g><!--link Course to Class--><g id="link_Course_Class"><path codeLine="124" d="M582.78,142.12 C610.31,142.12 634.93,142.12 653.32,142.12 " fill="none" id="Course-Class" style="stroke:#181818;stroke-width:1.0;"/><polygon fill="#000000" points="610,129.7655,600.9549,126.8266,600.9549,132.7044,610,129.7655" style="stroke:#000000;stroke-width:1.0;"/><text fill="#000000" font-family="sans-serif" font-size="13" lengthAdjust="spacing" textLength="21" x="614" y="135.1483">has</text><text fill="#000000" font-family="sans-serif" font-size="13" lengthAdjust="spacing" textLength="7" x="590.5368" y="138.9044">1</text><text fill="#000000" font-family="sans-serif" font-size="13" lengthAdjust="spacing" textLength="5" x="640.4056" y="137.3208">*</text></g><!--link Course to eCourseSystemUser--><g id="link_Course_eCourseSystemUser"><path codeLine="125" d="M468.89,62.03 C544.82,29.91 639.34,6 723,32.12 C767.86,46.12 811.2,77.71 841.28,103.46 " fill="none" id="Course-eCourseSystemUser" style="stroke:#181818;stroke-width:1.0;"/><polygon fill="#000000" points="615.0307,22.2126,623.6953,26.1337,624.3452,20.2919,615.0307,22.2126" style="stroke:#000000;stroke-width:1.0;"/><text fill="#000000" font-family="sans-serif" font-size="13" lengthAdjust="spacing" textLength="93" x="629" y="28.1483">teacher teaches</text><text fill="#000000" font-family="sans-serif" font-size="13" lengthAdjust="spacing" textLength="5" x="476.9244" y="50.9174">*</text><text fill="#000000" font-family="sans-serif" font-size="13" lengthAdjust="spacing" textLength="5" x="828.8516" y="92.447">*</text></g><!--link Exam to ExamGrade--><g id="link_Exam_ExamGrade"><path codeLine="128" d="M419.07,433.34 C418.12,449.48 418.84,466.6 423,482.12 C431.48,513.81 449.26,545.77 465.81,570.84 " fill="none" id="Exam-ExamGrade" style="stroke:#181818;stroke-width:1.0;"/><polygon fill="#000000" points="429.6092,477.4995,429.4807,467.9898,423.9156,469.8815,429.6092,477.4995" style="stroke:#000000;stroke-width:1.0;"/><text fill="#000000" font-family="sans-serif" font-size="13" lengthAdjust="spacing" textLength="21" x="437" y="478.1483">has</text><text fill="#000000" font-family="sans-serif" font-size="13" lengthAdjust="spacing" textLength="7" x="410.3823" y="455.5345">1</text><text fill="#000000" font-family="sans-serif" font-size="13" lengthAdjust="spacing" textLength="7" x="453.2286" y="559.7758">1</text></g><!--link Exam to ExamGrade--><g id="link_Exam_ExamGrade"><path codeLine="130" d="M453.72,433.32 C456.97,443.26 460.16,453.43 463,463.12 C473.52,499.02 483.71,540.08 491.03,571.06 " fill="none" id="Exam-ExamGrade-1" style="stroke:#181818;stroke-width:1.0;"/><polygon fill="#000000" points="474.3073,477.5916,474.7791,468.0927,469.1057,469.6295,474.3073,477.5916" style="stroke:#000000;stroke-width:1.0;"/><text fill="#000000" font-family="sans-serif" font-size="13" lengthAdjust="spacing" textLength="21" x="482" y="478.1483">has</text><text fill="#000000" font-family="sans-serif" font-size="13" lengthAdjust="spacing" textLength="5" x="450.9316" y="455.5123">*</text><text fill="#000000" font-family="sans-serif" font-size="13" lengthAdjust="spacing" textLength="5" x="484.1358" y="560.0268">*</text></g><!--link Exam to CourseCode--><g id="link_Exam_CourseCode"><path codeLine="129" d="M382.1,433.41 C342.06,486.87 287.72,559.42 260.32,596 " fill="none" id="Exam-CourseCode" style="stroke:#181818;stroke-width:1.0;"/><polygon fill="#000000" points="362.0026,476.7674,369.7772,471.2897,365.0727,467.766,362.0026,476.7674" style="stroke:#000000;stroke-width:1.0;"/><text fill="#000000" font-family="sans-serif" font-size="13" lengthAdjust="spacing" textLength="21" x="374" y="478.1483">has</text><text fill="#000000" font-family="sans-serif" font-size="13" lengthAdjust="spacing" textLength="5" x="371.4781" y="455.6122">*</text><text fill="#000000" font-family="sans-serif" font-size="13" lengthAdjust="spacing" textLength="7" x="256.8614" y="584.7067">1</text></g><!--link ExamGrade to eCourseSystemUser--><g id="link_ExamGrade_eCourseSystemUser"><path codeLine="131" d="M507.65,570.88 C517.87,491.72 541.89,339.22 579,301.12 C614.66,264.51 643.46,292.24 690,271.12 C742.9,247.12 797.47,209.24 834.85,180.91 " fill="none" id="ExamGrade-eCourseSystemUser" style="stroke:#181818;stroke-width:1.0;"/><polygon fill="#000000" points="587.2138,363.4352,579.1486,368.4753,583.6514,372.2533,587.2138,363.4352" style="stroke:#000000;stroke-width:1.0;"/><text fill="#000000" font-family="sans-serif" font-size="13" lengthAdjust="spacing" textLength="21" x="593" y="372.6483">has</text><text fill="#000000" font-family="sans-serif" font-size="13" lengthAdjust="spacing" textLength="5" x="503.093" y="559.8215">*</text><text fill="#000000" font-family="sans-serif" font-size="13" lengthAdjust="spacing" textLength="7" x="820.0942" y="202.2369">1</text></g><!--link eCourseSystemUser to CreateFormativeExamUI--><g id="link_eCourseSystemUser_CreateFormativeExamUI"><path codeLine="134" d="M917.58,180.72 C934.82,196.41 956.79,213.07 980,222.12 C1075.44,259.33 1338.73,236.71 1440,252.12 C1531.76,266.08 1552.97,278.55 1643,301.12 C1649.52,302.76 1656.14,304.42 1662.82,306.11 " fill="none" id="eCourseSystemUser-CreateFormativeExamUI" style="stroke:#181818;stroke-width:1.0;stroke-dasharray:7.0,7.0;"/></g><!--link CreateFormativeExamUI to CreateFormativeExamController--><g id="link_CreateFormativeExamUI_CreateFormativeExamController"><path codeLine="135" d="M1953.12,428.24 C1978.21,453.33 2008.14,483.26 2036.77,511.89 " fill="none" id="CreateFormativeExamUI-CreateFormativeExamController" style="stroke:#181818;stroke-width:1.0;stroke-dasharray:7.0,7.0;"/></g><!--link CreateFormativeExamController to RepositoryFactory--><g id="link_CreateFormativeExamController_RepositoryFactory"><path codeLine="136" d="M2201.1,728.12 C2215.25,754.62 2229.05,780.49 2238.54,798.28 " fill="none" id="CreateFormativeExamController-RepositoryFactory" style="stroke:#181818;stroke-width:1.0;stroke-dasharray:7.0,7.0;"/></g><!--link CreateFormativeExamController to ServiceGetQuestions--><g id="link_CreateFormativeExamController_ServiceGetQuestions"><path codeLine="137" d="M1792.85,728.12 C1719.96,750.33 1648.53,772.09 1592.96,789.03 " fill="none" id="CreateFormativeExamController-ServiceGetQuestions" style="stroke:#181818;stroke-width:1.0;stroke-dasharray:7.0,7.0;"/></g><!--link CreateFormativeExamController to FormativeExamRepository--><g id="link_CreateFormativeExamController_FormativeExamRepository"><path codeLine="138" d="M2312.11,728.12 C2353.89,754.72 2394.67,780.67 2422.62,798.46 " fill="none" id="CreateFormativeExamController-FormativeExamRepository" style="stroke:#181818;stroke-width:1.0;stroke-dasharray:7.0,7.0;"/></g><!--link CreateFormativeExamController to VerifyFormativeExamService--><g id="link_CreateFormativeExamController_VerifyFormativeExamService"><path codeLine="139" d="M2086.36,728.12 C2074.4,750.33 2062.68,772.09 2053.56,789.03 " fill="none" id="CreateFormativeExamController-VerifyFormativeExamService" style="stroke:#181818;stroke-width:1.0;stroke-dasharray:7.0,7.0;"/></g><!--link CreateExamController to FormativeExam--><g id="link_CreateExamController_FormativeExam"><path codeLine="140" d="M1170.93,391.28 C1148.07,439.1 1095.89,548.24 1073.05,596.01 " fill="none" id="CreateExamController-FormativeExam" style="stroke:#181818;stroke-width:1.0;stroke-dasharray:7.0,7.0;"/></g><!--link VerifyExamService to FormativeExam--><g id="link_VerifyExamService_FormativeExam"><path codeLine="141" d="M863.21,391.28 C904.93,439.1 1000.16,548.24 1041.84,596.01 " fill="none" id="VerifyExamService-FormativeExam" style="stroke:#181818;stroke-width:1.0;stroke-dasharray:7.0,7.0;"/></g><!--SRC=[dLTBR-Cs4BxhLn0vELuxRQ-68I3hEDi0MxTTP_VEIEE8XIIg9EMj4VI_T_WGHKMKlAWFb3YFZyEFCoDQyOOeJbwuKhmYEHEGASRh9CbAAYNP2Q0A7hceg69dsFz3gwzFv2qX-5l6j3jUAy7B4WHH1VGpu_61vFnOyE-BMxB19Na9j7QA0cXUiXgCwgW4gr-THgB3ywM1FrkGEZIvEB6QbkGpashR2RL1IXeGbTG0eJZvTsOpGRZTfZhVBz1moHGN5_BtIEHi1rY1moakTrv746UMmITGVaz4ZcNE-Xi8TheCLd80v3ofShw68pDOIjCK5yf2T5QhJdHegnT_K9dXwcWrYv1Fed1O6SVQUFn-yY4_rSvZvSwmmtu0cGdMM5NEsvSIFAixhcZCHo-c3_FCMJw8Qh3XXNC2V3_G2ZoA5loAMGLYi7YWVK2iWM37yrwGyLP8qA9tGKHONuGS6oZluxClTkfl3l8r4FuVidyePtL8Ww99- -1caknji6tIyNrYMG5CyDlHFYzIGVKL4vfiju9pXKcttUvhnTG5NxioqsVbNhLjhQSU0sdNv5-5wZts5MNbVOwdZPFjzXijMo3yvIzaA4qxeo_OSMAnk2qDOz3B7Z4pMuq7oBvt-43sX_kFd_Tkyl1qD3Fl-GSEtxd8qUySZUC-4xo-L9FwmzFZfEuZ4whGcJjfyHja1Qtvgw1DmJ9RrIDZ5D0MMpuUTqRBye8fM8D0sBm7-YImUYQNiKVaETGfwafaQPbqtmXxafP8QHvUW-WP3cx-31HJIX0168jov5htXKLVXIUrYa6lUjJLEy3R85amlSECWZFgWtp0z329qjOComYtRCMyWLepxwPPoIMO-G0upjg0frTjukRZL9UgpJK17hKluKUQcU8UPFxmqzEbACrpqvdqi356jquZeEAkROsL4gZ8YlTA-t0c2ljrUN3TIClb0WrO6B6DYUQFhEmRY9uyStk2NHTfg2fyNtBzKyCaIK38UfsIcrzk1ZKUqtTr5zFfqa-ICTcTlXVD61cGQNNVCMQCNEtFM63rpsXz_S_On3h0ZBdDs4sNUAIWab2IJj5blnNX9s93MWaoxd6pl25hCvggsxXlkFofRNBzr5w9woLTG65XntMwohsR5g_NWwq8E66Mw9ljzhtLptTtVJ02IjtphE70qeIyCzcyCOoaNkrtDDxjXYZNTEnJQjZ4B1P4sRU93jfQBBr5lykuoN8An4e2f5YCrZnsMdTtyIj_4lyZ43SFRltpLsvq7_MswowHYzHrfucR-bN7wOkHSxsoL3Akbf49_lu3]--></g></svg>