<?xml version="1.0" encoding="us-ascii" standalone="no"?><svg xmlns="http://www.w3.org/2000/svg" xmlns:xlink="http://www.w3.org/1999/xlink" contentStyleType="text/css" height="1392px" preserveAspectRatio="none" style="width:1185px;height:1392px;background:#FFFFFF;" version="1.1" viewBox="0 0 1185 1392" width="1185px" zoomAndPan="magnify"><defs/><g><!--cluster ECOURSESYSTEMUSER--><g id="cluster_ECOURSESYSTEMUSER"><path d="M442.5,356.0137 L607.5,356.0137 A3.75,3.75 0 0 1 610,358.5137 L617,380.6348 L1175.5,380.6348 A2.5,2.5 0 0 1 1178,383.1348 L1178,1206.5137 A2.5,2.5 0 0 1 1175.5,1209.0137 L442.5,1209.0137 A2.5,2.5 0 0 1 440,1206.5137 L440,358.5137 A2.5,2.5 0 0 1 442.5,356.0137 " fill="none" style="stroke:#000000;stroke-width:1.5;"/><line style="stroke:#000000;stroke-width:1.5;" x1="440" x2="617" y1="380.6348" y2="380.6348"/><text fill="#000000" font-family="sans-serif" font-size="14" font-weight="bold" lengthAdjust="spacing" textLength="164" x="444" y="373.1211">ECOURSESYSTEMUSER</text><text fill="#000000" font-family="sans-serif" font-size="14" font-style="italic" lengthAdjust="spacing" textLength="82" x="772" y="397.7422">&#171;Aggregate&#187;</text></g><!--cluster COURSE--><g id="cluster_COURSE"><path d="M461,6.0137 L521,6.0137 A3.75,3.75 0 0 1 523.5,8.5137 L530.5,30.6348 L949.5,30.6348 A2.5,2.5 0 0 1 952,33.1348 L952,270.5137 A2.5,2.5 0 0 1 949.5,273.0137 L461,273.0137 A2.5,2.5 0 0 1 458.5,270.5137 L458.5,8.5137 A2.5,2.5 0 0 1 461,6.0137 " fill="none" style="stroke:#000000;stroke-width:1.5;"/><line style="stroke:#000000;stroke-width:1.5;" x1="458.5" x2="530.5" y1="30.6348" y2="30.6348"/><text fill="#000000" font-family="sans-serif" font-size="14" font-weight="bold" lengthAdjust="spacing" textLength="59" x="462.5" y="23.1211">COURSE</text><text fill="#000000" font-family="sans-serif" font-size="14" font-style="italic" lengthAdjust="spacing" textLength="81" x="668.75" y="47.7422">&#171;aggregate&#187;</text></g><!--cluster EXAM--><g id="cluster_EXAM"><path d="M8.5,690.0137 L49.5,690.0137 A3.75,3.75 0 0 1 52,692.5137 L59,714.6348 L369.5,714.6348 A2.5,2.5 0 0 1 372,717.1348 L372,891.5137 A2.5,2.5 0 0 1 369.5,894.0137 L8.5,894.0137 A2.5,2.5 0 0 1 6,891.5137 L6,692.5137 A2.5,2.5 0 0 1 8.5,690.0137 " fill="none" style="stroke:#000000;stroke-width:1.5;"/><line style="stroke:#000000;stroke-width:1.5;" x1="6" x2="59" y1="714.6348" y2="714.6348"/><text fill="#000000" font-family="sans-serif" font-size="14" font-weight="bold" lengthAdjust="spacing" textLength="40" x="10" y="707.1211">EXAM</text><text fill="#000000" font-family="sans-serif" font-size="14" font-style="italic" lengthAdjust="spacing" textLength="81" x="152.5" y="731.7422">&#171;aggregate&#187;</text></g><!--class SystemUser--><g id="elem_SystemUser"><rect codeLine="7" fill="#F1F1F1" height="113.7852" id="SystemUser" rx="2.5" ry="2.5" style="stroke:#181818;stroke-width:0.5;" width="107" x="823.5" y="1042.0137"/><ellipse cx="838.5" cy="1072.2852" fill="#ADD1B2" rx="11" ry="11" style="stroke:#181818;stroke-width:1.0;"/><path d="M841.2656,1068.1602 Q841.4219,1067.9414 841.6094,1067.832 Q841.7969,1067.7227 842.0156,1067.7227 Q842.3906,1067.7227 842.625,1067.9883 Q842.8594,1068.2383 842.8594,1068.8477 L842.8594,1070.3008 Q842.8594,1070.9102 842.625,1071.1758 Q842.3906,1071.4414 842.0156,1071.4414 Q841.6719,1071.4414 841.4688,1071.2383 Q841.2656,1071.0508 841.1563,1070.5352 Q841.1094,1070.1758 840.9219,1069.9883 Q840.5938,1069.6133 839.9844,1069.3945 Q839.375,1069.1758 838.75,1069.1758 Q837.9844,1069.1758 837.3438,1069.5039 Q836.7188,1069.832 836.2188,1070.582 Q835.7344,1071.332 835.7344,1072.3633 L835.7344,1073.457 Q835.7344,1074.6914 836.625,1075.5195 Q837.5156,1076.332 839.1094,1076.332 Q840.0469,1076.332 840.7031,1076.082 Q841.0938,1075.9258 841.5156,1075.4883 Q841.7813,1075.2227 841.9219,1075.1445 Q842.0781,1075.0664 842.2813,1075.0664 Q842.6094,1075.0664 842.8594,1075.332 Q843.125,1075.582 843.125,1075.9258 Q843.125,1076.2695 842.7813,1076.6758 Q842.2813,1077.2539 841.4844,1077.582 Q840.4063,1078.0352 839.1094,1078.0352 Q837.5938,1078.0352 836.3906,1077.4102 Q835.4063,1076.9102 834.7188,1075.8477 Q834.0313,1074.7695 834.0313,1073.4883 L834.0313,1072.332 Q834.0313,1071.0039 834.6406,1069.8633 Q835.2656,1068.707 836.3594,1068.0977 Q837.4531,1067.4727 838.6875,1067.4727 Q839.4219,1067.4727 840.0625,1067.6445 Q840.7188,1067.8008 841.2656,1068.1602 Z " fill="#000000"/><text fill="#000000" font-family="sans-serif" font-size="12" font-style="italic" lengthAdjust="spacing" textLength="35" x="872.5" y="1059.9629">&#171;root&#187;</text><text fill="#000000" font-family="sans-serif" font-size="12" font-style="italic" lengthAdjust="spacing" textLength="44" x="868" y="1075.9238">&#171;Entity&#187;</text><text fill="#000000" font-family="sans-serif" font-size="14" lengthAdjust="spacing" textLength="75" x="852.5" y="1094.043">SystemUser</text><line style="stroke:#181818;stroke-width:0.5;" x1="824.5" x2="929.5" y1="1102.5566" y2="1102.5566"/><ellipse cx="834.5" cy="1117.3672" fill="#000000" rx="3" ry="3" style="stroke:#000000;stroke-width:1.0;"/><text fill="#000000" font-family="sans-serif" font-size="14" lengthAdjust="spacing" textLength="36" x="843.5" y="1121.6641">Name</text><ellipse cx="834.5" cy="1135.9883" fill="#000000" rx="3" ry="3" style="stroke:#000000;stroke-width:1.0;"/><text fill="#000000" font-family="sans-serif" font-size="14" lengthAdjust="spacing" textLength="64" x="843.5" y="1140.2852">Username</text><line style="stroke:#181818;stroke-width:0.5;" x1="824.5" x2="929.5" y1="1147.7988" y2="1147.7988"/></g><!--class eCourseSystemUser--><g id="elem_eCourseSystemUser"><rect codeLine="12" fill="#F1F1F1" height="76.543" id="eCourseSystemUser" rx="2.5" ry="2.5" style="stroke:#181818;stroke-width:0.5;" width="161" x="456" y="804.5137"/><ellipse cx="471" cy="834.7852" fill="#ADD1B2" rx="11" ry="11" style="stroke:#181818;stroke-width:1.0;"/><path d="M473.7656,830.6602 Q473.9219,830.4414 474.1094,830.332 Q474.2969,830.2227 474.5156,830.2227 Q474.8906,830.2227 475.125,830.4883 Q475.3594,830.7383 475.3594,831.3477 L475.3594,832.8008 Q475.3594,833.4102 475.125,833.6758 Q474.8906,833.9414 474.5156,833.9414 Q474.1719,833.9414 473.9688,833.7383 Q473.7656,833.5508 473.6563,833.0352 Q473.6094,832.6758 473.4219,832.4883 Q473.0938,832.1133 472.4844,831.8945 Q471.875,831.6758 471.25,831.6758 Q470.4844,831.6758 469.8438,832.0039 Q469.2188,832.332 468.7188,833.082 Q468.2344,833.832 468.2344,834.8633 L468.2344,835.957 Q468.2344,837.1914 469.125,838.0195 Q470.0156,838.832 471.6094,838.832 Q472.5469,838.832 473.2031,838.582 Q473.5938,838.4258 474.0156,837.9883 Q474.2813,837.7227 474.4219,837.6445 Q474.5781,837.5664 474.7813,837.5664 Q475.1094,837.5664 475.3594,837.832 Q475.625,838.082 475.625,838.4258 Q475.625,838.7695 475.2813,839.1758 Q474.7813,839.7539 473.9844,840.082 Q472.9063,840.5352 471.6094,840.5352 Q470.0938,840.5352 468.8906,839.9102 Q467.9063,839.4102 467.2188,838.3477 Q466.5313,837.2695 466.5313,835.9883 L466.5313,834.832 Q466.5313,833.5039 467.1406,832.3633 Q467.7656,831.207 468.8594,830.5977 Q469.9531,829.9727 471.1875,829.9727 Q471.9219,829.9727 472.5625,830.1445 Q473.2188,830.3008 473.7656,830.6602 Z " fill="#000000"/><text fill="#000000" font-family="sans-serif" font-size="12" font-style="italic" lengthAdjust="spacing" textLength="35" x="532" y="822.4629">&#171;root&#187;</text><text fill="#000000" font-family="sans-serif" font-size="12" font-style="italic" lengthAdjust="spacing" textLength="44" x="527.5" y="838.4238">&#171;Entity&#187;</text><text fill="#000000" font-family="sans-serif" font-size="14" lengthAdjust="spacing" textLength="129" x="485" y="856.543">eCourseSystemUser</text><line style="stroke:#181818;stroke-width:0.5;" x1="457" x2="616" y1="865.0566" y2="865.0566"/><line style="stroke:#181818;stroke-width:0.5;" x1="457" x2="616" y1="873.0566" y2="873.0566"/></g><!--class EmailAdderss--><g id="elem_EmailAdderss"><rect codeLine="16" fill="#F1F1F1" height="60.582" id="EmailAdderss" rx="2.5" ry="2.5" style="stroke:#181818;stroke-width:0.5;" width="118" x="1044" y="1017.5137"/><ellipse cx="1059" cy="1039.8047" fill="#ADD1B2" rx="11" ry="11" style="stroke:#181818;stroke-width:1.0;"/><path d="M1061.7656,1035.6797 Q1061.9219,1035.4609 1062.1094,1035.3516 Q1062.2969,1035.2422 1062.5156,1035.2422 Q1062.8906,1035.2422 1063.125,1035.5078 Q1063.3594,1035.7578 1063.3594,1036.3672 L1063.3594,1037.8203 Q1063.3594,1038.4297 1063.125,1038.6953 Q1062.8906,1038.9609 1062.5156,1038.9609 Q1062.1719,1038.9609 1061.9688,1038.7578 Q1061.7656,1038.5703 1061.6563,1038.0547 Q1061.6094,1037.6953 1061.4219,1037.5078 Q1061.0938,1037.1328 1060.4844,1036.9141 Q1059.875,1036.6953 1059.25,1036.6953 Q1058.4844,1036.6953 1057.8438,1037.0234 Q1057.2188,1037.3516 1056.7188,1038.1016 Q1056.2344,1038.8516 1056.2344,1039.8828 L1056.2344,1040.9766 Q1056.2344,1042.2109 1057.125,1043.0391 Q1058.0156,1043.8516 1059.6094,1043.8516 Q1060.5469,1043.8516 1061.2031,1043.6016 Q1061.5938,1043.4453 1062.0156,1043.0078 Q1062.2813,1042.7422 1062.4219,1042.6641 Q1062.5781,1042.5859 1062.7813,1042.5859 Q1063.1094,1042.5859 1063.3594,1042.8516 Q1063.625,1043.1016 1063.625,1043.4453 Q1063.625,1043.7891 1063.2813,1044.1953 Q1062.7813,1044.7734 1061.9844,1045.1016 Q1060.9063,1045.5547 1059.6094,1045.5547 Q1058.0938,1045.5547 1056.8906,1044.9297 Q1055.9063,1044.4297 1055.2188,1043.3672 Q1054.5313,1042.2891 1054.5313,1041.0078 L1054.5313,1039.8516 Q1054.5313,1038.5234 1055.1406,1037.3828 Q1055.7656,1036.2266 1056.8594,1035.6172 Q1057.9531,1034.9922 1059.1875,1034.9922 Q1059.9219,1034.9922 1060.5625,1035.1641 Q1061.2188,1035.3203 1061.7656,1035.6797 Z " fill="#000000"/><text fill="#000000" font-family="sans-serif" font-size="12" font-style="italic" lengthAdjust="spacing" textLength="83" x="1074.5" y="1035.4629">&#171;Value object&#187;</text><text fill="#000000" font-family="sans-serif" font-size="14" lengthAdjust="spacing" textLength="86" x="1073" y="1053.582">EmailAdderss</text><line style="stroke:#181818;stroke-width:0.5;" x1="1045" x2="1161" y1="1062.0957" y2="1062.0957"/><line style="stroke:#181818;stroke-width:0.5;" x1="1045" x2="1161" y1="1070.0957" y2="1070.0957"/></g><!--class Role--><g id="elem_Role"><rect codeLine="18" fill="#F1F1F1" height="79.2031" id="Role" rx="2.5" ry="2.5" style="stroke:#181818;stroke-width:0.5;" width="102" x="1052" y="1113.5137"/><ellipse cx="1080.5" cy="1135.8047" fill="#ADD1B2" rx="11" ry="11" style="stroke:#181818;stroke-width:1.0;"/><path d="M1083.2656,1131.6797 Q1083.4219,1131.4609 1083.6094,1131.3516 Q1083.7969,1131.2422 1084.0156,1131.2422 Q1084.3906,1131.2422 1084.625,1131.5078 Q1084.8594,1131.7578 1084.8594,1132.3672 L1084.8594,1133.8203 Q1084.8594,1134.4297 1084.625,1134.6953 Q1084.3906,1134.9609 1084.0156,1134.9609 Q1083.6719,1134.9609 1083.4688,1134.7578 Q1083.2656,1134.5703 1083.1563,1134.0547 Q1083.1094,1133.6953 1082.9219,1133.5078 Q1082.5938,1133.1328 1081.9844,1132.9141 Q1081.375,1132.6953 1080.75,1132.6953 Q1079.9844,1132.6953 1079.3438,1133.0234 Q1078.7188,1133.3516 1078.2188,1134.1016 Q1077.7344,1134.8516 1077.7344,1135.8828 L1077.7344,1136.9766 Q1077.7344,1138.2109 1078.625,1139.0391 Q1079.5156,1139.8516 1081.1094,1139.8516 Q1082.0469,1139.8516 1082.7031,1139.6016 Q1083.0938,1139.4453 1083.5156,1139.0078 Q1083.7813,1138.7422 1083.9219,1138.6641 Q1084.0781,1138.5859 1084.2813,1138.5859 Q1084.6094,1138.5859 1084.8594,1138.8516 Q1085.125,1139.1016 1085.125,1139.4453 Q1085.125,1139.7891 1084.7813,1140.1953 Q1084.2813,1140.7734 1083.4844,1141.1016 Q1082.4063,1141.5547 1081.1094,1141.5547 Q1079.5938,1141.5547 1078.3906,1140.9297 Q1077.4063,1140.4297 1076.7188,1139.3672 Q1076.0313,1138.2891 1076.0313,1137.0078 L1076.0313,1135.8516 Q1076.0313,1134.5234 1076.6406,1133.3828 Q1077.2656,1132.2266 1078.3594,1131.6172 Q1079.4531,1130.9922 1080.6875,1130.9922 Q1081.4219,1130.9922 1082.0625,1131.1641 Q1082.7188,1131.3203 1083.2656,1131.6797 Z " fill="#000000"/><text fill="#000000" font-family="sans-serif" font-size="12" font-style="italic" lengthAdjust="spacing" textLength="44" x="1095.5" y="1131.4629">&#171;Entity&#187;</text><text fill="#000000" font-family="sans-serif" font-size="14" lengthAdjust="spacing" textLength="29" x="1103" y="1149.582">Role</text><line style="stroke:#181818;stroke-width:0.5;" x1="1053" x2="1153" y1="1158.0957" y2="1158.0957"/><ellipse cx="1063" cy="1172.9063" fill="#000000" rx="3" ry="3" style="stroke:#000000;stroke-width:1.0;"/><text fill="#000000" font-family="sans-serif" font-size="14" lengthAdjust="spacing" textLength="76" x="1072" y="1177.2031">String name</text><line style="stroke:#181818;stroke-width:0.5;" x1="1053" x2="1153" y1="1184.7168" y2="1184.7168"/></g><!--class UserStatus--><g id="elem_UserStatus"><rect codeLine="22" fill="#F1F1F1" height="97.8242" id="UserStatus" rx="2.5" ry="2.5" style="stroke:#181818;stroke-width:0.5;" width="101" x="826.5" y="909.0137"/><ellipse cx="841.5" cy="931.3047" fill="#ADD1B2" rx="11" ry="11" style="stroke:#181818;stroke-width:1.0;"/><path d="M844.2656,927.1797 Q844.4219,926.9609 844.6094,926.8516 Q844.7969,926.7422 845.0156,926.7422 Q845.3906,926.7422 845.625,927.0078 Q845.8594,927.2578 845.8594,927.8672 L845.8594,929.3203 Q845.8594,929.9297 845.625,930.1953 Q845.3906,930.4609 845.0156,930.4609 Q844.6719,930.4609 844.4688,930.2578 Q844.2656,930.0703 844.1563,929.5547 Q844.1094,929.1953 843.9219,929.0078 Q843.5938,928.6328 842.9844,928.4141 Q842.375,928.1953 841.75,928.1953 Q840.9844,928.1953 840.3438,928.5234 Q839.7188,928.8516 839.2188,929.6016 Q838.7344,930.3516 838.7344,931.3828 L838.7344,932.4766 Q838.7344,933.7109 839.625,934.5391 Q840.5156,935.3516 842.1094,935.3516 Q843.0469,935.3516 843.7031,935.1016 Q844.0938,934.9453 844.5156,934.5078 Q844.7813,934.2422 844.9219,934.1641 Q845.0781,934.0859 845.2813,934.0859 Q845.6094,934.0859 845.8594,934.3516 Q846.125,934.6016 846.125,934.9453 Q846.125,935.2891 845.7813,935.6953 Q845.2813,936.2734 844.4844,936.6016 Q843.4063,937.0547 842.1094,937.0547 Q840.5938,937.0547 839.3906,936.4297 Q838.4063,935.9297 837.7188,934.8672 Q837.0313,933.7891 837.0313,932.5078 L837.0313,931.3516 Q837.0313,930.0234 837.6406,928.8828 Q838.2656,927.7266 839.3594,927.1172 Q840.4531,926.4922 841.6875,926.4922 Q842.4219,926.4922 843.0625,926.6641 Q843.7188,926.8203 844.2656,927.1797 Z " fill="#000000"/><text fill="#000000" font-family="sans-serif" font-size="12" font-style="italic" lengthAdjust="spacing" textLength="46" x="867" y="926.9629">&#171;enum&#187;</text><text fill="#000000" font-family="sans-serif" font-size="14" lengthAdjust="spacing" textLength="69" x="855.5" y="945.082">UserStatus</text><line style="stroke:#181818;stroke-width:0.5;" x1="827.5" x2="926.5" y1="953.5957" y2="953.5957"/><ellipse cx="837.5" cy="968.4063" fill="none" rx="3" ry="3" style="stroke:#038048;stroke-width:1.0;"/><text fill="#000000" font-family="sans-serif" font-size="14" lengthAdjust="spacing" textLength="53" x="846.5" y="972.7031">ENABLE</text><ellipse cx="837.5" cy="987.0273" fill="none" rx="3" ry="3" style="stroke:#038048;stroke-width:1.0;"/><text fill="#000000" font-family="sans-serif" font-size="14" lengthAdjust="spacing" textLength="57" x="846.5" y="991.3242">DISABLE</text><line style="stroke:#181818;stroke-width:0.5;" x1="827.5" x2="926.5" y1="998.8379" y2="998.8379"/></g><!--class Password--><g id="elem_Password"><rect codeLine="27" fill="#F1F1F1" height="60.582" id="Password" rx="2.5" ry="2.5" style="stroke:#181818;stroke-width:0.5;" width="109" x="1048.5" y="921.5137"/><ellipse cx="1063.5" cy="943.8047" fill="#ADD1B2" rx="11" ry="11" style="stroke:#181818;stroke-width:1.0;"/><path d="M1066.2656,939.6797 Q1066.4219,939.4609 1066.6094,939.3516 Q1066.7969,939.2422 1067.0156,939.2422 Q1067.3906,939.2422 1067.625,939.5078 Q1067.8594,939.7578 1067.8594,940.3672 L1067.8594,941.8203 Q1067.8594,942.4297 1067.625,942.6953 Q1067.3906,942.9609 1067.0156,942.9609 Q1066.6719,942.9609 1066.4688,942.7578 Q1066.2656,942.5703 1066.1563,942.0547 Q1066.1094,941.6953 1065.9219,941.5078 Q1065.5938,941.1328 1064.9844,940.9141 Q1064.375,940.6953 1063.75,940.6953 Q1062.9844,940.6953 1062.3438,941.0234 Q1061.7188,941.3516 1061.2188,942.1016 Q1060.7344,942.8516 1060.7344,943.8828 L1060.7344,944.9766 Q1060.7344,946.2109 1061.625,947.0391 Q1062.5156,947.8516 1064.1094,947.8516 Q1065.0469,947.8516 1065.7031,947.6016 Q1066.0938,947.4453 1066.5156,947.0078 Q1066.7813,946.7422 1066.9219,946.6641 Q1067.0781,946.5859 1067.2813,946.5859 Q1067.6094,946.5859 1067.8594,946.8516 Q1068.125,947.1016 1068.125,947.4453 Q1068.125,947.7891 1067.7813,948.1953 Q1067.2813,948.7734 1066.4844,949.1016 Q1065.4063,949.5547 1064.1094,949.5547 Q1062.5938,949.5547 1061.3906,948.9297 Q1060.4063,948.4297 1059.7188,947.3672 Q1059.0313,946.2891 1059.0313,945.0078 L1059.0313,943.8516 Q1059.0313,942.5234 1059.6406,941.3828 Q1060.2656,940.2266 1061.3594,939.6172 Q1062.4531,938.9922 1063.6875,938.9922 Q1064.4219,938.9922 1065.0625,939.1641 Q1065.7188,939.3203 1066.2656,939.6797 Z " fill="#000000"/><text fill="#000000" font-family="sans-serif" font-size="12" font-style="italic" lengthAdjust="spacing" textLength="81" x="1075.5" y="939.4629">&#171;value object&#187;</text><text fill="#000000" font-family="sans-serif" font-size="14" lengthAdjust="spacing" textLength="61" x="1085.5" y="957.582">Password</text><line style="stroke:#181818;stroke-width:0.5;" x1="1049.5" x2="1156.5" y1="966.0957" y2="966.0957"/><line style="stroke:#181818;stroke-width:0.5;" x1="1049.5" x2="1156.5" y1="974.0957" y2="974.0957"/></g><!--class Acronym--><g id="elem_Acronym"><rect codeLine="29" fill="#F1F1F1" height="60.582" id="Acronym" rx="2.5" ry="2.5" style="stroke:#181818;stroke-width:0.5;" width="109" x="822.5" y="812.5137"/><ellipse cx="837.5" cy="834.8047" fill="#ADD1B2" rx="11" ry="11" style="stroke:#181818;stroke-width:1.0;"/><path d="M840.2656,830.6797 Q840.4219,830.4609 840.6094,830.3516 Q840.7969,830.2422 841.0156,830.2422 Q841.3906,830.2422 841.625,830.5078 Q841.8594,830.7578 841.8594,831.3672 L841.8594,832.8203 Q841.8594,833.4297 841.625,833.6953 Q841.3906,833.9609 841.0156,833.9609 Q840.6719,833.9609 840.4688,833.7578 Q840.2656,833.5703 840.1563,833.0547 Q840.1094,832.6953 839.9219,832.5078 Q839.5938,832.1328 838.9844,831.9141 Q838.375,831.6953 837.75,831.6953 Q836.9844,831.6953 836.3438,832.0234 Q835.7188,832.3516 835.2188,833.1016 Q834.7344,833.8516 834.7344,834.8828 L834.7344,835.9766 Q834.7344,837.2109 835.625,838.0391 Q836.5156,838.8516 838.1094,838.8516 Q839.0469,838.8516 839.7031,838.6016 Q840.0938,838.4453 840.5156,838.0078 Q840.7813,837.7422 840.9219,837.6641 Q841.0781,837.5859 841.2813,837.5859 Q841.6094,837.5859 841.8594,837.8516 Q842.125,838.1016 842.125,838.4453 Q842.125,838.7891 841.7813,839.1953 Q841.2813,839.7734 840.4844,840.1016 Q839.4063,840.5547 838.1094,840.5547 Q836.5938,840.5547 835.3906,839.9297 Q834.4063,839.4297 833.7188,838.3672 Q833.0313,837.2891 833.0313,836.0078 L833.0313,834.8516 Q833.0313,833.5234 833.6406,832.3828 Q834.2656,831.2266 835.3594,830.6172 Q836.4531,829.9922 837.6875,829.9922 Q838.4219,829.9922 839.0625,830.1641 Q839.7188,830.3203 840.2656,830.6797 Z " fill="#000000"/><text fill="#000000" font-family="sans-serif" font-size="12" font-style="italic" lengthAdjust="spacing" textLength="81" x="849.5" y="830.4629">&#171;value object&#187;</text><text fill="#000000" font-family="sans-serif" font-size="14" lengthAdjust="spacing" textLength="55" x="862.5" y="848.582">Acronym</text><line style="stroke:#181818;stroke-width:0.5;" x1="823.5" x2="930.5" y1="857.0957" y2="857.0957"/><line style="stroke:#181818;stroke-width:0.5;" x1="823.5" x2="930.5" y1="865.0957" y2="865.0957"/></g><!--class NIF--><g id="elem_NIF"><rect codeLine="31" fill="#F1F1F1" height="60.582" id="NIF" rx="2.5" ry="2.5" style="stroke:#181818;stroke-width:0.5;" width="109" x="822.5" y="716.5137"/><ellipse cx="837.5" cy="738.8047" fill="#ADD1B2" rx="11" ry="11" style="stroke:#181818;stroke-width:1.0;"/><path d="M840.2656,734.6797 Q840.4219,734.4609 840.6094,734.3516 Q840.7969,734.2422 841.0156,734.2422 Q841.3906,734.2422 841.625,734.5078 Q841.8594,734.7578 841.8594,735.3672 L841.8594,736.8203 Q841.8594,737.4297 841.625,737.6953 Q841.3906,737.9609 841.0156,737.9609 Q840.6719,737.9609 840.4688,737.7578 Q840.2656,737.5703 840.1563,737.0547 Q840.1094,736.6953 839.9219,736.5078 Q839.5938,736.1328 838.9844,735.9141 Q838.375,735.6953 837.75,735.6953 Q836.9844,735.6953 836.3438,736.0234 Q835.7188,736.3516 835.2188,737.1016 Q834.7344,737.8516 834.7344,738.8828 L834.7344,739.9766 Q834.7344,741.2109 835.625,742.0391 Q836.5156,742.8516 838.1094,742.8516 Q839.0469,742.8516 839.7031,742.6016 Q840.0938,742.4453 840.5156,742.0078 Q840.7813,741.7422 840.9219,741.6641 Q841.0781,741.5859 841.2813,741.5859 Q841.6094,741.5859 841.8594,741.8516 Q842.125,742.1016 842.125,742.4453 Q842.125,742.7891 841.7813,743.1953 Q841.2813,743.7734 840.4844,744.1016 Q839.4063,744.5547 838.1094,744.5547 Q836.5938,744.5547 835.3906,743.9297 Q834.4063,743.4297 833.7188,742.3672 Q833.0313,741.2891 833.0313,740.0078 L833.0313,738.8516 Q833.0313,737.5234 833.6406,736.3828 Q834.2656,735.2266 835.3594,734.6172 Q836.4531,733.9922 837.6875,733.9922 Q838.4219,733.9922 839.0625,734.1641 Q839.7188,734.3203 840.2656,734.6797 Z " fill="#000000"/><text fill="#000000" font-family="sans-serif" font-size="12" font-style="italic" lengthAdjust="spacing" textLength="81" x="849.5" y="734.4629">&#171;value object&#187;</text><text fill="#000000" font-family="sans-serif" font-size="14" lengthAdjust="spacing" textLength="21" x="879.5" y="752.582">NIF</text><line style="stroke:#181818;stroke-width:0.5;" x1="823.5" x2="930.5" y1="761.0957" y2="761.0957"/><line style="stroke:#181818;stroke-width:0.5;" x1="823.5" x2="930.5" y1="769.0957" y2="769.0957"/></g><!--class BirthDate--><g id="elem_BirthDate"><rect codeLine="33" fill="#F1F1F1" height="60.582" id="BirthDate" rx="2.5" ry="2.5" style="stroke:#181818;stroke-width:0.5;" width="109" x="822.5" y="620.5137"/><ellipse cx="837.5" cy="642.8047" fill="#ADD1B2" rx="11" ry="11" style="stroke:#181818;stroke-width:1.0;"/><path d="M840.2656,638.6797 Q840.4219,638.4609 840.6094,638.3516 Q840.7969,638.2422 841.0156,638.2422 Q841.3906,638.2422 841.625,638.5078 Q841.8594,638.7578 841.8594,639.3672 L841.8594,640.8203 Q841.8594,641.4297 841.625,641.6953 Q841.3906,641.9609 841.0156,641.9609 Q840.6719,641.9609 840.4688,641.7578 Q840.2656,641.5703 840.1563,641.0547 Q840.1094,640.6953 839.9219,640.5078 Q839.5938,640.1328 838.9844,639.9141 Q838.375,639.6953 837.75,639.6953 Q836.9844,639.6953 836.3438,640.0234 Q835.7188,640.3516 835.2188,641.1016 Q834.7344,641.8516 834.7344,642.8828 L834.7344,643.9766 Q834.7344,645.2109 835.625,646.0391 Q836.5156,646.8516 838.1094,646.8516 Q839.0469,646.8516 839.7031,646.6016 Q840.0938,646.4453 840.5156,646.0078 Q840.7813,645.7422 840.9219,645.6641 Q841.0781,645.5859 841.2813,645.5859 Q841.6094,645.5859 841.8594,645.8516 Q842.125,646.1016 842.125,646.4453 Q842.125,646.7891 841.7813,647.1953 Q841.2813,647.7734 840.4844,648.1016 Q839.4063,648.5547 838.1094,648.5547 Q836.5938,648.5547 835.3906,647.9297 Q834.4063,647.4297 833.7188,646.3672 Q833.0313,645.2891 833.0313,644.0078 L833.0313,642.8516 Q833.0313,641.5234 833.6406,640.3828 Q834.2656,639.2266 835.3594,638.6172 Q836.4531,637.9922 837.6875,637.9922 Q838.4219,637.9922 839.0625,638.1641 Q839.7188,638.3203 840.2656,638.6797 Z " fill="#000000"/><text fill="#000000" font-family="sans-serif" font-size="12" font-style="italic" lengthAdjust="spacing" textLength="81" x="849.5" y="638.4629">&#171;value object&#187;</text><text fill="#000000" font-family="sans-serif" font-size="14" lengthAdjust="spacing" textLength="59" x="860.5" y="656.582">BirthDate</text><line style="stroke:#181818;stroke-width:0.5;" x1="823.5" x2="930.5" y1="665.0957" y2="665.0957"/><line style="stroke:#181818;stroke-width:0.5;" x1="823.5" x2="930.5" y1="673.0957" y2="673.0957"/></g><!--class MechanographicNumber--><g id="elem_MechanographicNumber"><rect codeLine="35" fill="#F1F1F1" height="76.543" id="MechanographicNumber" rx="2.5" ry="2.5" style="stroke:#181818;stroke-width:0.5;" width="186" x="784" y="508.5137"/><ellipse cx="799" cy="538.7852" fill="#ADD1B2" rx="11" ry="11" style="stroke:#181818;stroke-width:1.0;"/><path d="M801.7656,534.6602 Q801.9219,534.4414 802.1094,534.332 Q802.2969,534.2227 802.5156,534.2227 Q802.8906,534.2227 803.125,534.4883 Q803.3594,534.7383 803.3594,535.3477 L803.3594,536.8008 Q803.3594,537.4102 803.125,537.6758 Q802.8906,537.9414 802.5156,537.9414 Q802.1719,537.9414 801.9688,537.7383 Q801.7656,537.5508 801.6563,537.0352 Q801.6094,536.6758 801.4219,536.4883 Q801.0938,536.1133 800.4844,535.8945 Q799.875,535.6758 799.25,535.6758 Q798.4844,535.6758 797.8438,536.0039 Q797.2188,536.332 796.7188,537.082 Q796.2344,537.832 796.2344,538.8633 L796.2344,539.957 Q796.2344,541.1914 797.125,542.0195 Q798.0156,542.832 799.6094,542.832 Q800.5469,542.832 801.2031,542.582 Q801.5938,542.4258 802.0156,541.9883 Q802.2813,541.7227 802.4219,541.6445 Q802.5781,541.5664 802.7813,541.5664 Q803.1094,541.5664 803.3594,541.832 Q803.625,542.082 803.625,542.4258 Q803.625,542.7695 803.2813,543.1758 Q802.7813,543.7539 801.9844,544.082 Q800.9063,544.5352 799.6094,544.5352 Q798.0938,544.5352 796.8906,543.9102 Q795.9063,543.4102 795.2188,542.3477 Q794.5313,541.2695 794.5313,539.9883 L794.5313,538.832 Q794.5313,537.5039 795.1406,536.3633 Q795.7656,535.207 796.8594,534.5977 Q797.9531,533.9727 799.1875,533.9727 Q799.9219,533.9727 800.5625,534.1445 Q801.2188,534.3008 801.7656,534.6602 Z " fill="#000000"/><text fill="#000000" font-family="sans-serif" font-size="12" font-style="italic" lengthAdjust="spacing" textLength="81" x="849.5" y="526.4629">&#171;value object&#187;</text><text fill="#000000" font-family="sans-serif" font-size="12" font-style="italic" lengthAdjust="spacing" textLength="146" x="817" y="542.4238">&#171;automatically generated&#187;</text><text fill="#000000" font-family="sans-serif" font-size="14" lengthAdjust="spacing" textLength="154" x="813" y="560.543">MechanographicNumber</text><line style="stroke:#181818;stroke-width:0.5;" x1="785" x2="969" y1="569.0566" y2="569.0566"/><line style="stroke:#181818;stroke-width:0.5;" x1="785" x2="969" y1="577.0566" y2="577.0566"/></g><!--class Grade--><g id="elem_Grade"><rect codeLine="37" fill="#F1F1F1" height="60.582" id="Grade" rx="2.5" ry="2.5" style="stroke:#181818;stroke-width:0.5;" width="109" x="822.5" y="412.5137"/><ellipse cx="837.5" cy="434.8047" fill="#ADD1B2" rx="11" ry="11" style="stroke:#181818;stroke-width:1.0;"/><path d="M840.2656,430.6797 Q840.4219,430.4609 840.6094,430.3516 Q840.7969,430.2422 841.0156,430.2422 Q841.3906,430.2422 841.625,430.5078 Q841.8594,430.7578 841.8594,431.3672 L841.8594,432.8203 Q841.8594,433.4297 841.625,433.6953 Q841.3906,433.9609 841.0156,433.9609 Q840.6719,433.9609 840.4688,433.7578 Q840.2656,433.5703 840.1563,433.0547 Q840.1094,432.6953 839.9219,432.5078 Q839.5938,432.1328 838.9844,431.9141 Q838.375,431.6953 837.75,431.6953 Q836.9844,431.6953 836.3438,432.0234 Q835.7188,432.3516 835.2188,433.1016 Q834.7344,433.8516 834.7344,434.8828 L834.7344,435.9766 Q834.7344,437.2109 835.625,438.0391 Q836.5156,438.8516 838.1094,438.8516 Q839.0469,438.8516 839.7031,438.6016 Q840.0938,438.4453 840.5156,438.0078 Q840.7813,437.7422 840.9219,437.6641 Q841.0781,437.5859 841.2813,437.5859 Q841.6094,437.5859 841.8594,437.8516 Q842.125,438.1016 842.125,438.4453 Q842.125,438.7891 841.7813,439.1953 Q841.2813,439.7734 840.4844,440.1016 Q839.4063,440.5547 838.1094,440.5547 Q836.5938,440.5547 835.3906,439.9297 Q834.4063,439.4297 833.7188,438.3672 Q833.0313,437.2891 833.0313,436.0078 L833.0313,434.8516 Q833.0313,433.5234 833.6406,432.3828 Q834.2656,431.2266 835.3594,430.6172 Q836.4531,429.9922 837.6875,429.9922 Q838.4219,429.9922 839.0625,430.1641 Q839.7188,430.3203 840.2656,430.6797 Z " fill="#000000"/><text fill="#000000" font-family="sans-serif" font-size="12" font-style="italic" lengthAdjust="spacing" textLength="81" x="849.5" y="430.4629">&#171;value object&#187;</text><text fill="#000000" font-family="sans-serif" font-size="14" lengthAdjust="spacing" textLength="40" x="870" y="448.582">Grade</text><line style="stroke:#181818;stroke-width:0.5;" x1="823.5" x2="930.5" y1="457.0957" y2="457.0957"/><line style="stroke:#181818;stroke-width:0.5;" x1="823.5" x2="930.5" y1="465.0957" y2="465.0957"/></g><!--class Course--><g id="elem_Course"><rect codeLine="42" fill="#F1F1F1" height="95.1641" id="Course" rx="2.5" ry="2.5" style="stroke:#181818;stroke-width:0.5;" width="124" x="474.5" y="161.5137"/><ellipse cx="510.2" cy="191.7852" fill="#ADD1B2" rx="11" ry="11" style="stroke:#181818;stroke-width:1.0;"/><path d="M512.9656,187.6602 Q513.1219,187.4414 513.3094,187.332 Q513.4969,187.2227 513.7156,187.2227 Q514.0906,187.2227 514.325,187.4883 Q514.5594,187.7383 514.5594,188.3477 L514.5594,189.8008 Q514.5594,190.4102 514.325,190.6758 Q514.0906,190.9414 513.7156,190.9414 Q513.3719,190.9414 513.1688,190.7383 Q512.9656,190.5508 512.8563,190.0352 Q512.8094,189.6758 512.6219,189.4883 Q512.2938,189.1133 511.6844,188.8945 Q511.075,188.6758 510.45,188.6758 Q509.6844,188.6758 509.0438,189.0039 Q508.4188,189.332 507.9188,190.082 Q507.4344,190.832 507.4344,191.8633 L507.4344,192.957 Q507.4344,194.1914 508.325,195.0195 Q509.2156,195.832 510.8094,195.832 Q511.7469,195.832 512.4031,195.582 Q512.7938,195.4258 513.2156,194.9883 Q513.4813,194.7227 513.6219,194.6445 Q513.7781,194.5664 513.9813,194.5664 Q514.3094,194.5664 514.5594,194.832 Q514.825,195.082 514.825,195.4258 Q514.825,195.7695 514.4813,196.1758 Q513.9813,196.7539 513.1844,197.082 Q512.1063,197.5352 510.8094,197.5352 Q509.2938,197.5352 508.0906,196.9102 Q507.1063,196.4102 506.4188,195.3477 Q505.7313,194.2695 505.7313,192.9883 L505.7313,191.832 Q505.7313,190.5039 506.3406,189.3633 Q506.9656,188.207 508.0594,187.5977 Q509.1531,186.9727 510.3875,186.9727 Q511.1219,186.9727 511.7625,187.1445 Q512.4188,187.3008 512.9656,187.6602 Z " fill="#000000"/><text fill="#000000" font-family="sans-serif" font-size="12" font-style="italic" lengthAdjust="spacing" textLength="35" x="534.3" y="179.4629">&#171;root&#187;</text><text fill="#000000" font-family="sans-serif" font-size="12" font-style="italic" lengthAdjust="spacing" textLength="43" x="530.3" y="195.4238">&#171;entity&#187;</text><text fill="#000000" font-family="sans-serif" font-size="14" lengthAdjust="spacing" textLength="46" x="528.8" y="213.543">Course</text><line style="stroke:#181818;stroke-width:0.5;" x1="475.5" x2="597.5" y1="222.0566" y2="222.0566"/><ellipse cx="485.5" cy="236.8672" fill="#000000" rx="3" ry="3" style="stroke:#000000;stroke-width:1.0;"/><text fill="#000000" font-family="sans-serif" font-size="14" lengthAdjust="spacing" textLength="98" x="494.5" y="241.1641">name &#171;unique&#187;</text><line style="stroke:#181818;stroke-width:0.5;" x1="475.5" x2="597.5" y1="248.6777" y2="248.6777"/></g><!--class CourseStatus--><g id="elem_CourseStatus"><rect codeLine="47" fill="#F1F1F1" height="97.8242" id="CourseStatus" rx="2.5" ry="2.5" style="stroke:#181818;stroke-width:0.5;" width="118" x="818" y="159.0137"/><ellipse cx="833" cy="181.3047" fill="#EB937F" rx="11" ry="11" style="stroke:#181818;stroke-width:1.0;"/><path d="M831.8594,182.1016 L831.8594,184.6016 L836.1875,184.6016 L836.1875,183.6797 Q836.1875,183.0703 836.4219,182.8047 Q836.6719,182.5391 837.0469,182.5391 Q837.4219,182.5391 837.6563,182.8047 Q837.8906,183.0703 837.8906,183.6797 L837.8906,186.3047 L829.8906,186.3047 Q829.2656,186.3047 829,186.0703 Q828.75,185.8359 828.75,185.4453 Q828.75,185.0703 829.0156,184.8359 Q829.2813,184.6016 829.8906,184.6016 L830.1563,184.6016 L830.1563,177.9453 L829.8906,177.9453 Q829.2656,177.9453 829,177.7109 Q828.75,177.4766 828.75,177.0859 Q828.75,176.7109 829,176.4766 Q829.2656,176.2422 829.8906,176.2422 L837.5156,176.2422 L837.5156,178.8359 Q837.5156,179.4453 837.2813,179.7109 Q837.0625,179.9609 836.6719,179.9609 Q836.2969,179.9609 836.0625,179.7109 Q835.8281,179.4453 835.8281,178.8359 L835.8281,177.9453 L831.8594,177.9453 L831.8594,180.3984 L833.3438,180.3984 Q833.3438,179.7422 833.4688,179.5547 Q833.7344,179.1484 834.2031,179.1484 Q834.5781,179.1484 834.8125,179.4141 Q835.0469,179.6641 835.0469,180.2734 L835.0469,182.2422 Q835.0469,182.7891 834.9219,182.9766 Q834.6563,183.3672 834.2031,183.3672 Q833.7344,183.3672 833.4688,182.9609 Q833.3438,182.7734 833.3438,182.1016 L831.8594,182.1016 Z " fill="#000000"/><text fill="#000000" font-family="sans-serif" font-size="12" font-style="italic" lengthAdjust="spacing" textLength="46" x="867" y="176.9629">&#171;enum&#187;</text><text fill="#000000" font-family="sans-serif" font-size="14" lengthAdjust="spacing" textLength="86" x="847" y="195.082">CourseStatus</text><line style="stroke:#181818;stroke-width:0.5;" x1="819" x2="935" y1="203.5957" y2="203.5957"/><ellipse cx="829" cy="218.4063" fill="none" rx="3" ry="3" style="stroke:#038048;stroke-width:1.0;"/><text fill="#000000" font-family="sans-serif" font-size="14" lengthAdjust="spacing" textLength="38" x="838" y="222.7031">OPEN</text><ellipse cx="829" cy="237.0273" fill="none" rx="3" ry="3" style="stroke:#038048;stroke-width:1.0;"/><text fill="#000000" font-family="sans-serif" font-size="14" lengthAdjust="spacing" textLength="57" x="838" y="241.3242">CLOSED</text><line style="stroke:#181818;stroke-width:0.5;" x1="819" x2="935" y1="248.8379" y2="248.8379"/></g><!--class CourseCode--><g id="elem_CourseCode"><rect codeLine="52" fill="#F1F1F1" height="60.582" id="CourseCode" rx="2.5" ry="2.5" style="stroke:#181818;stroke-width:0.5;" width="112" x="821" y="62.5137"/><ellipse cx="836" cy="84.8047" fill="#ADD1B2" rx="11" ry="11" style="stroke:#181818;stroke-width:1.0;"/><path d="M838.7656,80.6797 Q838.9219,80.4609 839.1094,80.3516 Q839.2969,80.2422 839.5156,80.2422 Q839.8906,80.2422 840.125,80.5078 Q840.3594,80.7578 840.3594,81.3672 L840.3594,82.8203 Q840.3594,83.4297 840.125,83.6953 Q839.8906,83.9609 839.5156,83.9609 Q839.1719,83.9609 838.9688,83.7578 Q838.7656,83.5703 838.6563,83.0547 Q838.6094,82.6953 838.4219,82.5078 Q838.0938,82.1328 837.4844,81.9141 Q836.875,81.6953 836.25,81.6953 Q835.4844,81.6953 834.8438,82.0234 Q834.2188,82.3516 833.7188,83.1016 Q833.2344,83.8516 833.2344,84.8828 L833.2344,85.9766 Q833.2344,87.2109 834.125,88.0391 Q835.0156,88.8516 836.6094,88.8516 Q837.5469,88.8516 838.2031,88.6016 Q838.5938,88.4453 839.0156,88.0078 Q839.2813,87.7422 839.4219,87.6641 Q839.5781,87.5859 839.7813,87.5859 Q840.1094,87.5859 840.3594,87.8516 Q840.625,88.1016 840.625,88.4453 Q840.625,88.7891 840.2813,89.1953 Q839.7813,89.7734 838.9844,90.1016 Q837.9063,90.5547 836.6094,90.5547 Q835.0938,90.5547 833.8906,89.9297 Q832.9063,89.4297 832.2188,88.3672 Q831.5313,87.2891 831.5313,86.0078 L831.5313,84.8516 Q831.5313,83.5234 832.1406,82.3828 Q832.7656,81.2266 833.8594,80.6172 Q834.9531,79.9922 836.1875,79.9922 Q836.9219,79.9922 837.5625,80.1641 Q838.2188,80.3203 838.7656,80.6797 Z " fill="#000000"/><text fill="#000000" font-family="sans-serif" font-size="12" font-style="italic" lengthAdjust="spacing" textLength="81" x="849.5" y="80.4629">&#171;value object&#187;</text><text fill="#000000" font-family="sans-serif" font-size="14" lengthAdjust="spacing" textLength="80" x="850" y="98.582">CourseCode</text><line style="stroke:#181818;stroke-width:0.5;" x1="822" x2="932" y1="107.0957" y2="107.0957"/><line style="stroke:#181818;stroke-width:0.5;" x1="822" x2="932" y1="115.0957" y2="115.0957"/></g><!--class FormativeExam--><g id="elem_FormativeExam"><rect codeLine="56" fill="#F1F1F1" height="132.4063" id="FormativeExam" rx="2.5" ry="2.5" style="stroke:#181818;stroke-width:0.5;" width="129" x="22" y="746.0137"/><ellipse cx="37" cy="776.2852" fill="#ADD1B2" rx="11" ry="11" style="stroke:#181818;stroke-width:1.0;"/><path d="M39.7656,772.1602 Q39.9219,771.9414 40.1094,771.832 Q40.2969,771.7227 40.5156,771.7227 Q40.8906,771.7227 41.125,771.9883 Q41.3594,772.2383 41.3594,772.8477 L41.3594,774.3008 Q41.3594,774.9102 41.125,775.1758 Q40.8906,775.4414 40.5156,775.4414 Q40.1719,775.4414 39.9688,775.2383 Q39.7656,775.0508 39.6563,774.5352 Q39.6094,774.1758 39.4219,773.9883 Q39.0938,773.6133 38.4844,773.3945 Q37.875,773.1758 37.25,773.1758 Q36.4844,773.1758 35.8438,773.5039 Q35.2188,773.832 34.7188,774.582 Q34.2344,775.332 34.2344,776.3633 L34.2344,777.457 Q34.2344,778.6914 35.125,779.5195 Q36.0156,780.332 37.6094,780.332 Q38.5469,780.332 39.2031,780.082 Q39.5938,779.9258 40.0156,779.4883 Q40.2813,779.2227 40.4219,779.1445 Q40.5781,779.0664 40.7813,779.0664 Q41.1094,779.0664 41.3594,779.332 Q41.625,779.582 41.625,779.9258 Q41.625,780.2695 41.2813,780.6758 Q40.7813,781.2539 39.9844,781.582 Q38.9063,782.0352 37.6094,782.0352 Q36.0938,782.0352 34.8906,781.4102 Q33.9063,780.9102 33.2188,779.8477 Q32.5313,778.7695 32.5313,777.4883 L32.5313,776.332 Q32.5313,775.0039 33.1406,773.8633 Q33.7656,772.707 34.8594,772.0977 Q35.9531,771.4727 37.1875,771.4727 Q37.9219,771.4727 38.5625,771.6445 Q39.2188,771.8008 39.7656,772.1602 Z " fill="#000000"/><text fill="#000000" font-family="sans-serif" font-size="12" font-style="italic" lengthAdjust="spacing" textLength="35" x="82" y="763.9629">&#171;root&#187;</text><text fill="#000000" font-family="sans-serif" font-size="12" font-style="italic" lengthAdjust="spacing" textLength="44" x="77.5" y="779.9238">&#171;event&#187;</text><text fill="#000000" font-family="sans-serif" font-size="14" lengthAdjust="spacing" textLength="97" x="51" y="798.043">FormativeExam</text><line style="stroke:#181818;stroke-width:0.5;" x1="23" x2="150" y1="806.5566" y2="806.5566"/><ellipse cx="33" cy="821.3672" fill="#000000" rx="3" ry="3" style="stroke:#000000;stroke-width:1.0;"/><text fill="#000000" font-family="sans-serif" font-size="14" lengthAdjust="spacing" textLength="94" x="42" y="825.6641">code &#171;unique&#187;</text><ellipse cx="33" cy="839.9883" fill="#000000" rx="3" ry="3" style="stroke:#000000;stroke-width:1.0;"/><text fill="#000000" font-family="sans-serif" font-size="14" lengthAdjust="spacing" textLength="80" x="42" y="844.2852">CourseCode</text><ellipse cx="33" cy="858.6094" fill="#000000" rx="3" ry="3" style="stroke:#000000;stroke-width:1.0;"/><text fill="#000000" font-family="sans-serif" font-size="14" lengthAdjust="spacing" textLength="47" x="42" y="862.9063">content</text><line style="stroke:#181818;stroke-width:0.5;" x1="23" x2="150" y1="870.4199" y2="870.4199"/></g><!--class ExamGrade--><g id="elem_ExamGrade"><rect codeLine="62" fill="#F1F1F1" height="60.582" id="ExamGrade" rx="2.5" ry="2.5" style="stroke:#181818;stroke-width:0.5;" width="109" x="247" y="763.5137"/><ellipse cx="262" cy="785.8047" fill="#ADD1B2" rx="11" ry="11" style="stroke:#181818;stroke-width:1.0;"/><path d="M264.7656,781.6797 Q264.9219,781.4609 265.1094,781.3516 Q265.2969,781.2422 265.5156,781.2422 Q265.8906,781.2422 266.125,781.5078 Q266.3594,781.7578 266.3594,782.3672 L266.3594,783.8203 Q266.3594,784.4297 266.125,784.6953 Q265.8906,784.9609 265.5156,784.9609 Q265.1719,784.9609 264.9688,784.7578 Q264.7656,784.5703 264.6563,784.0547 Q264.6094,783.6953 264.4219,783.5078 Q264.0938,783.1328 263.4844,782.9141 Q262.875,782.6953 262.25,782.6953 Q261.4844,782.6953 260.8438,783.0234 Q260.2188,783.3516 259.7188,784.1016 Q259.2344,784.8516 259.2344,785.8828 L259.2344,786.9766 Q259.2344,788.2109 260.125,789.0391 Q261.0156,789.8516 262.6094,789.8516 Q263.5469,789.8516 264.2031,789.6016 Q264.5938,789.4453 265.0156,789.0078 Q265.2813,788.7422 265.4219,788.6641 Q265.5781,788.5859 265.7813,788.5859 Q266.1094,788.5859 266.3594,788.8516 Q266.625,789.1016 266.625,789.4453 Q266.625,789.7891 266.2813,790.1953 Q265.7813,790.7734 264.9844,791.1016 Q263.9063,791.5547 262.6094,791.5547 Q261.0938,791.5547 259.8906,790.9297 Q258.9063,790.4297 258.2188,789.3672 Q257.5313,788.2891 257.5313,787.0078 L257.5313,785.8516 Q257.5313,784.5234 258.1406,783.3828 Q258.7656,782.2266 259.8594,781.6172 Q260.9531,780.9922 262.1875,780.9922 Q262.9219,780.9922 263.5625,781.1641 Q264.2188,781.3203 264.7656,781.6797 Z " fill="#000000"/><text fill="#000000" font-family="sans-serif" font-size="12" font-style="italic" lengthAdjust="spacing" textLength="81" x="274" y="781.4629">&#171;value object&#187;</text><text fill="#000000" font-family="sans-serif" font-size="14" lengthAdjust="spacing" textLength="74" x="277.5" y="799.582">ExamGrade</text><line style="stroke:#181818;stroke-width:0.5;" x1="248" x2="355" y1="808.0957" y2="808.0957"/><line style="stroke:#181818;stroke-width:0.5;" x1="248" x2="355" y1="816.0957" y2="816.0957"/></g><!--class VerifyFormativeExamService--><g id="elem_VerifyFormativeExamService"><rect codeLine="66" fill="#F1F1F1" height="60.582" id="VerifyFormativeExamService" rx="2.5" ry="2.5" style="stroke:#181818;stroke-width:0.5;" width="212" x="771" y="1228.5137"/><ellipse cx="786" cy="1250.8047" fill="#ADD1B2" rx="11" ry="11" style="stroke:#181818;stroke-width:1.0;"/><path d="M788.7656,1246.6797 Q788.9219,1246.4609 789.1094,1246.3516 Q789.2969,1246.2422 789.5156,1246.2422 Q789.8906,1246.2422 790.125,1246.5078 Q790.3594,1246.7578 790.3594,1247.3672 L790.3594,1248.8203 Q790.3594,1249.4297 790.125,1249.6953 Q789.8906,1249.9609 789.5156,1249.9609 Q789.1719,1249.9609 788.9688,1249.7578 Q788.7656,1249.5703 788.6563,1249.0547 Q788.6094,1248.6953 788.4219,1248.5078 Q788.0938,1248.1328 787.4844,1247.9141 Q786.875,1247.6953 786.25,1247.6953 Q785.4844,1247.6953 784.8438,1248.0234 Q784.2188,1248.3516 783.7188,1249.1016 Q783.2344,1249.8516 783.2344,1250.8828 L783.2344,1251.9766 Q783.2344,1253.2109 784.125,1254.0391 Q785.0156,1254.8516 786.6094,1254.8516 Q787.5469,1254.8516 788.2031,1254.6016 Q788.5938,1254.4453 789.0156,1254.0078 Q789.2813,1253.7422 789.4219,1253.6641 Q789.5781,1253.5859 789.7813,1253.5859 Q790.1094,1253.5859 790.3594,1253.8516 Q790.625,1254.1016 790.625,1254.4453 Q790.625,1254.7891 790.2813,1255.1953 Q789.7813,1255.7734 788.9844,1256.1016 Q787.9063,1256.5547 786.6094,1256.5547 Q785.0938,1256.5547 783.8906,1255.9297 Q782.9063,1255.4297 782.2188,1254.3672 Q781.5313,1253.2891 781.5313,1252.0078 L781.5313,1250.8516 Q781.5313,1249.5234 782.1406,1248.3828 Q782.7656,1247.2266 783.8594,1246.6172 Q784.9531,1245.9922 786.1875,1245.9922 Q786.9219,1245.9922 787.5625,1246.1641 Q788.2188,1246.3203 788.7656,1246.6797 Z " fill="#000000"/><text fill="#000000" font-family="sans-serif" font-size="12" font-style="italic" lengthAdjust="spacing" textLength="53" x="863.5" y="1246.4629">&#171;service&#187;</text><text fill="#000000" font-family="sans-serif" font-size="14" lengthAdjust="spacing" textLength="180" x="800" y="1264.582">VerifyFormativeExamService</text><line style="stroke:#181818;stroke-width:0.5;" x1="772" x2="982" y1="1273.0957" y2="1273.0957"/><line style="stroke:#181818;stroke-width:0.5;" x1="772" x2="982" y1="1281.0957" y2="1281.0957"/></g><!--class ServiceGetQuestions--><g id="elem_ServiceGetQuestions"><rect codeLine="70" fill="#F1F1F1" height="60.582" id="ServiceGetQuestions" rx="2.5" ry="2.5" style="stroke:#181818;stroke-width:0.5;" width="166" x="794" y="1324.5137"/><ellipse cx="809" cy="1346.8047" fill="#ADD1B2" rx="11" ry="11" style="stroke:#181818;stroke-width:1.0;"/><path d="M811.7656,1342.6797 Q811.9219,1342.4609 812.1094,1342.3516 Q812.2969,1342.2422 812.5156,1342.2422 Q812.8906,1342.2422 813.125,1342.5078 Q813.3594,1342.7578 813.3594,1343.3672 L813.3594,1344.8203 Q813.3594,1345.4297 813.125,1345.6953 Q812.8906,1345.9609 812.5156,1345.9609 Q812.1719,1345.9609 811.9688,1345.7578 Q811.7656,1345.5703 811.6563,1345.0547 Q811.6094,1344.6953 811.4219,1344.5078 Q811.0938,1344.1328 810.4844,1343.9141 Q809.875,1343.6953 809.25,1343.6953 Q808.4844,1343.6953 807.8438,1344.0234 Q807.2188,1344.3516 806.7188,1345.1016 Q806.2344,1345.8516 806.2344,1346.8828 L806.2344,1347.9766 Q806.2344,1349.2109 807.125,1350.0391 Q808.0156,1350.8516 809.6094,1350.8516 Q810.5469,1350.8516 811.2031,1350.6016 Q811.5938,1350.4453 812.0156,1350.0078 Q812.2813,1349.7422 812.4219,1349.6641 Q812.5781,1349.5859 812.7813,1349.5859 Q813.1094,1349.5859 813.3594,1349.8516 Q813.625,1350.1016 813.625,1350.4453 Q813.625,1350.7891 813.2813,1351.1953 Q812.7813,1351.7734 811.9844,1352.1016 Q810.9063,1352.5547 809.6094,1352.5547 Q808.0938,1352.5547 806.8906,1351.9297 Q805.9063,1351.4297 805.2188,1350.3672 Q804.5313,1349.2891 804.5313,1348.0078 L804.5313,1346.8516 Q804.5313,1345.5234 805.1406,1344.3828 Q805.7656,1343.2266 806.8594,1342.6172 Q807.9531,1341.9922 809.1875,1341.9922 Q809.9219,1341.9922 810.5625,1342.1641 Q811.2188,1342.3203 811.7656,1342.6797 Z " fill="#000000"/><text fill="#000000" font-family="sans-serif" font-size="12" font-style="italic" lengthAdjust="spacing" textLength="53" x="863.5" y="1342.4629">&#171;service&#187;</text><text fill="#000000" font-family="sans-serif" font-size="14" lengthAdjust="spacing" textLength="134" x="823" y="1360.582">ServiceGetQuestions</text><line style="stroke:#181818;stroke-width:0.5;" x1="795" x2="959" y1="1369.0957" y2="1369.0957"/><line style="stroke:#181818;stroke-width:0.5;" x1="795" x2="959" y1="1377.0957" y2="1377.0957"/></g><!--class Exam--><g id="elem_Exam"><rect fill="#F1F1F1" height="48" id="Exam" rx="2.5" ry="2.5" style="stroke:#181818;stroke-width:0.5;" width="66" x="844" y="292.0137"/><ellipse cx="859" cy="308.0137" fill="#ADD1B2" rx="11" ry="11" style="stroke:#181818;stroke-width:1.0;"/><path d="M861.7656,303.8887 Q861.9219,303.6699 862.1094,303.5605 Q862.2969,303.4512 862.5156,303.4512 Q862.8906,303.4512 863.125,303.7168 Q863.3594,303.9668 863.3594,304.5762 L863.3594,306.0293 Q863.3594,306.6387 863.125,306.9043 Q862.8906,307.1699 862.5156,307.1699 Q862.1719,307.1699 861.9688,306.9668 Q861.7656,306.7793 861.6563,306.2637 Q861.6094,305.9043 861.4219,305.7168 Q861.0938,305.3418 860.4844,305.123 Q859.875,304.9043 859.25,304.9043 Q858.4844,304.9043 857.8438,305.2324 Q857.2188,305.5605 856.7188,306.3105 Q856.2344,307.0605 856.2344,308.0918 L856.2344,309.1855 Q856.2344,310.4199 857.125,311.248 Q858.0156,312.0605 859.6094,312.0605 Q860.5469,312.0605 861.2031,311.8105 Q861.5938,311.6543 862.0156,311.2168 Q862.2813,310.9512 862.4219,310.873 Q862.5781,310.7949 862.7813,310.7949 Q863.1094,310.7949 863.3594,311.0605 Q863.625,311.3105 863.625,311.6543 Q863.625,311.998 863.2813,312.4043 Q862.7813,312.9824 861.9844,313.3105 Q860.9063,313.7637 859.6094,313.7637 Q858.0938,313.7637 856.8906,313.1387 Q855.9063,312.6387 855.2188,311.5762 Q854.5313,310.498 854.5313,309.2168 L854.5313,308.0605 Q854.5313,306.7324 855.1406,305.5918 Q855.7656,304.4355 856.8594,303.8262 Q857.9531,303.2012 859.1875,303.2012 Q859.9219,303.2012 860.5625,303.373 Q861.2188,303.5293 861.7656,303.8887 Z " fill="#000000"/><text fill="#000000" font-family="sans-serif" font-size="14" lengthAdjust="spacing" textLength="34" x="873" y="313.8105">Exam</text><line style="stroke:#181818;stroke-width:0.5;" x1="845" x2="909" y1="324.0137" y2="324.0137"/><line style="stroke:#181818;stroke-width:0.5;" x1="845" x2="909" y1="332.0137" y2="332.0137"/></g><!--link SystemUser to EmailAdderss--><g id="link_SystemUser_EmailAdderss"><path codeLine="78" d="M930.52,1087.0537 C962.93,1079.6737 1004.71,1070.1637 1038.92,1062.3737 " fill="none" id="SystemUser-to-EmailAdderss" style="stroke:#181818;stroke-width:1.0;"/><polygon fill="#181818" points="1043.91,1061.2437,1034.2447,1059.3512,1039.0359,1062.3586,1036.0285,1067.1498,1043.91,1061.2437" style="stroke:#181818;stroke-width:1.0;"/><text fill="#000000" font-family="sans-serif" font-size="13" lengthAdjust="spacing" textLength="7" x="1028.8907" y="1078.1016">1</text></g><!--link SystemUser to Password--><g id="link_SystemUser_Password"><path codeLine="79" d="M930.52,1064.5537 C966.93,1040.6537 1015.15,1009.0137 1051.18,985.3637 " fill="none" id="SystemUser-to-Password" style="stroke:#181818;stroke-width:1.0;"/><polygon fill="#181818" points="1055.51,982.5237,1045.7924,984.1261,1051.3322,985.2707,1050.1876,990.8105,1055.51,982.5237" style="stroke:#181818;stroke-width:1.0;"/><text fill="#000000" font-family="sans-serif" font-size="13" lengthAdjust="spacing" textLength="7" x="1038.79" y="1004.0558">1</text></g><!--link SystemUser to Role--><g id="link_SystemUser_Role"><path codeLine="80" d="M930.52,1111.6737 C965.4,1120.0837 1011.12,1131.1037 1046.58,1139.6537 " fill="none" id="SystemUser-to-Role" style="stroke:#181818;stroke-width:1.0;"/><polygon fill="#181818" points="1051.74,1140.8937,1043.9287,1134.8951,1046.8794,1139.7214,1042.053,1142.6721,1051.74,1140.8937" style="stroke:#181818;stroke-width:1.0;"/><text fill="#000000" font-family="sans-serif" font-size="13" lengthAdjust="spacing" textLength="7" x="1037.0394" y="1154.4191">1</text></g><!--link eCourseSystemUser to SystemUser--><g id="link_eCourseSystemUser_SystemUser"><path codeLine="82" d="M586.27,881.7137 C633.21,918.7537 706.4,975.9337 771,1024.0137 C786.44,1035.5037 803.34,1047.7337 818.99,1058.9037 " fill="none" id="eCourseSystemUser-to-SystemUser" style="stroke:#181818;stroke-width:1.0;"/><polygon fill="#181818" points="823.37,1062.0237,818.3601,1053.5442,819.2975,1059.1229,813.7188,1060.0603,823.37,1062.0237" style="stroke:#181818;stroke-width:1.0;"/><text fill="#000000" font-family="sans-serif" font-size="13" lengthAdjust="spacing" textLength="7" x="808.3361" y="1072.0812">1</text></g><!--link eCourseSystemUser to Role--><g id="link_eCourseSystemUser_Role"><path codeLine="83" d="M550.73,881.5637 C578.27,954.8537 649.5,1112.3437 771,1173.0137 C859.52,1217.2237 978.38,1193.0537 1046.94,1172.3937 " fill="none" id="eCourseSystemUser-to-Role" style="stroke:#181818;stroke-width:1.0;"/><polygon fill="#181818" points="1051.79,1170.9137,1042.0119,1169.7353,1047.0108,1172.3831,1044.363,1177.382,1051.79,1170.9137" style="stroke:#181818;stroke-width:1.0;"/><text fill="#000000" font-family="sans-serif" font-size="13" lengthAdjust="spacing" textLength="7" x="1037.0964" y="1188.6607">1</text></g><!--link eCourseSystemUser to UserStatus--><g id="link_eCourseSystemUser_UserStatus"><path codeLine="84" d="M617.29,870.1237 C680.09,891.4537 765.96,920.6237 821.2,939.3937 " fill="none" id="eCourseSystemUser-to-UserStatus" style="stroke:#181818;stroke-width:1.0;"/><polygon fill="#181818" points="826.12,941.0637,818.895,934.3705,821.3881,939.4483,816.3103,941.9414,826.12,941.0637" style="stroke:#181818;stroke-width:1.0;"/><text fill="#000000" font-family="sans-serif" font-size="13" lengthAdjust="spacing" textLength="7" x="811.4728" y="953.9365">1</text></g><!--link eCourseSystemUser to Acronym--><g id="link_eCourseSystemUser_Acronym"><path codeLine="85" d="M617.29,843.0137 C678.55,843.0137 761.74,843.0137 817.07,843.0137 " fill="none" id="eCourseSystemUser-to-Acronym" style="stroke:#181818;stroke-width:1.0;"/><polygon fill="#181818" points="822.33,843.0137,813.33,839.0137,817.33,843.0137,813.33,847.0137,822.33,843.0137" style="stroke:#181818;stroke-width:1.0;"/><text fill="#000000" font-family="sans-serif" font-size="13" lengthAdjust="spacing" textLength="7" x="807.5134" y="858.2318">1</text></g><!--link eCourseSystemUser to NIF--><g id="link_eCourseSystemUser_NIF"><path codeLine="86" d="M617.29,820.3837 C678.67,802.9737 762.08,779.3237 817.4,763.6337 " fill="none" id="eCourseSystemUser-to-NIF" style="stroke:#181818;stroke-width:1.0;"/><polygon fill="#181818" points="822.33,762.2337,812.5785,760.8524,817.5213,763.6035,814.7702,768.5463,822.33,762.2337" style="stroke:#181818;stroke-width:1.0;"/><text fill="#000000" font-family="sans-serif" font-size="13" lengthAdjust="spacing" textLength="7" x="807.5134" y="779.497">1</text></g><!--link eCourseSystemUser to BirthDate--><g id="link_eCourseSystemUser_BirthDate"><path codeLine="87" d="M595.81,804.2537 C642.35,774.0137 709.67,731.7837 771,699.0137 C785.9,691.0537 802.37,683.1337 817.76,676.0837 " fill="none" id="eCourseSystemUser-to-BirthDate" style="stroke:#181818;stroke-width:1.0;"/><polygon fill="#181818" points="822.5,673.9237,812.6515,674.0064,817.9482,675.9927,815.9619,681.2894,822.5,673.9237" style="stroke:#181818;stroke-width:1.0;"/><text fill="#000000" font-family="sans-serif" font-size="13" lengthAdjust="spacing" textLength="7" x="807.3438" y="692.4189">1</text></g><!--link eCourseSystemUser to MechanographicNumber--><g id="link_eCourseSystemUser_MechanographicNumber"><path codeLine="88" d="M568.41,804.4937 C610.42,753.8437 689.68,664.1337 771,603.0137 C777.77,597.9237 785.06,593.0337 792.54,588.3937 " fill="none" id="eCourseSystemUser-to-MechanographicNumber" style="stroke:#181818;stroke-width:1.0;"/><polygon fill="#181818" points="797.22,585.5437,787.4524,586.8064,792.949,588.1434,791.612,593.64,797.22,585.5437" style="stroke:#181818;stroke-width:1.0;"/><text fill="#000000" font-family="sans-serif" font-size="13" lengthAdjust="spacing" textLength="7" x="776.9473" y="607.127">1</text></g><!--link eCourseSystemUser to Grade--><g id="link_eCourseSystemUser_Grade"><path codeLine="89" d="M553.85,804.2337 C585.71,732.9637 662.59,580.2837 771,491.0137 C784.67,479.7537 801.42,470.5537 817.48,463.3237 " fill="none" id="eCourseSystemUser-to-Grade" style="stroke:#181818;stroke-width:1.0;"/><polygon fill="#181818" points="822.44,461.1437,812.5912,461.1122,817.8645,463.1598,815.8169,468.433,822.44,461.1437" style="stroke:#181818;stroke-width:1.0;"/><polygon fill="#000000" points="655.0587,508.7039,647.2006,514.0612,651.8503,517.6569,655.0587,508.7039" style="stroke:#000000;stroke-width:1.0;"/><text fill="#000000" font-family="sans-serif" font-size="13" lengthAdjust="spacing" textLength="79" x="661" y="518.042">student has a</text><text fill="#000000" font-family="sans-serif" font-size="13" lengthAdjust="spacing" textLength="7" x="807.6382" y="478.798">1</text></g><!--link eCourseSystemUser to VerifyFormativeExamService--><g id="link_eCourseSystemUser_VerifyFormativeExamService"><path codeLine="91" d="M543.47,881.7537 C557.63,968.5237 595.95,1174.4737 647,1220.0137 C679.1,1248.6537 724.21,1260.1937 765.91,1263.9137 " fill="none" id="eCourseSystemUser-to-VerifyFormativeExamService" style="stroke:#181818;stroke-width:1.0;"/><polygon fill="#181818" points="770.97,1264.3337,762.3198,1259.6248,765.9861,1263.9327,761.6782,1267.599,770.97,1264.3337" style="stroke:#181818;stroke-width:1.0;"/><polygon fill="#000000" points="680.0152,1214.9805,678.0051,1205.6848,672.9251,1208.6416,680.0152,1214.9805" style="stroke:#000000;stroke-width:1.0;"/><text fill="#000000" font-family="sans-serif" font-size="13" lengthAdjust="spacing" textLength="28" x="686.5" y="1216.042">uses</text></g><!--link eCourseSystemUser to ServiceGetQuestions--><g id="link_eCourseSystemUser_ServiceGetQuestions"><path codeLine="92" d="M542.12,881.8437 C554.4,978.8437 590.82,1228.1437 647,1287.0137 C683.53,1325.3037 740.54,1342.3137 788.53,1349.7437 " fill="none" id="eCourseSystemUser-to-ServiceGetQuestions" style="stroke:#181818;stroke-width:1.0;"/><polygon fill="#181818" points="793.74,1350.5237,785.4344,1345.2305,788.7955,1349.7806,784.2455,1353.1417,793.74,1350.5237" style="stroke:#181818;stroke-width:1.0;"/><polygon fill="#000000" points="679.8298,1282.0832,678.2155,1272.7106,673.0148,1275.4495,679.8298,1282.0832" style="stroke:#000000;stroke-width:1.0;"/><text fill="#000000" font-family="sans-serif" font-size="13" lengthAdjust="spacing" textLength="28" x="686.5" y="1283.042">uses</text></g><!--link eCourseSystemUser to FormativeExam--><g id="link_eCourseSystemUser_FormativeExam"><path codeLine="94" d="M455.82,856.9637 C397.67,864.9737 317.1,871.5337 247,861.0137 C214.77,856.1737 180.07,846.1237 151.29,836.3837 " fill="none" id="eCourseSystemUser-FormativeExam" style="stroke:#181818;stroke-width:1.0;"/><polygon fill="#000000" points="247.5114,851.3221,256.3377,854.8642,256.734,848.9997,247.5114,851.3221" style="stroke:#000000;stroke-width:1.0;"/><text fill="#000000" font-family="sans-serif" font-size="13" lengthAdjust="spacing" textLength="93" x="261.5" y="857.042">creates/updates</text><text fill="#000000" font-family="sans-serif" font-size="13" lengthAdjust="spacing" textLength="5" x="442.8919" y="873.1674">*</text><text fill="#000000" font-family="sans-serif" font-size="13" lengthAdjust="spacing" textLength="5" x="159.0704" y="854.2059">*</text></g><!--link Course to CourseStatus--><g id="link_Course_CourseStatus"><path codeLine="99" d="M598.8,208.8337 C659.4,208.6537 751.68,208.3837 812.89,208.2037 " fill="none" id="Course-to-CourseStatus" style="stroke:#181818;stroke-width:1.0;"/><polygon fill="#181818" points="817.98,208.1837,808.9686,204.2094,812.98,208.198,808.9915,212.2094,817.98,208.1837" style="stroke:#181818;stroke-width:1.0;"/><text fill="#000000" font-family="sans-serif" font-size="13" lengthAdjust="spacing" textLength="7" x="802.9696" y="223.3527">1</text></g><!--link Course to CourseCode--><g id="link_Course_CourseCode"><path codeLine="100" d="M598.8,188.0037 C660.32,166.9237 754.51,134.6437 815.68,113.6837 " fill="none" id="Course-to-CourseCode" style="stroke:#181818;stroke-width:1.0;"/><polygon fill="#181818" points="820.76,111.9437,810.948,111.0924,816.0325,113.5719,813.5531,118.6564,820.76,111.9437" style="stroke:#181818;stroke-width:1.0;"/><text fill="#000000" font-family="sans-serif" font-size="13" lengthAdjust="spacing" textLength="7" x="806.1058" y="129.5319">1</text></g><!--link Course to Grade--><g id="link_Course_Grade"><path codeLine="102" d="M591.77,256.5637 C609.03,271.0237 628.47,286.6237 647,300.0137 C704.93,341.8837 775.11,384.6137 822.38,412.3237 " fill="none" id="Course-Grade" style="stroke:#181818;stroke-width:1.0;"/><polygon fill="#000000" points="663.8566,287.8606,669.7071,295.3587,672.9971,290.4878,663.8566,287.8606" style="stroke:#000000;stroke-width:1.0;"/><text fill="#000000" font-family="sans-serif" font-size="13" lengthAdjust="spacing" textLength="47" x="677" y="296.042">refers to</text><text fill="#000000" font-family="sans-serif" font-size="13" lengthAdjust="spacing" textLength="7" x="592.3737" y="278.8337">1</text><text fill="#000000" font-family="sans-serif" font-size="13" lengthAdjust="spacing" textLength="7" x="807.5701" y="423.4178">1</text></g><!--link Course to Exam--><g id="link_Course_Exam"><path codeLine="103" d="M598.8,228.3937 C670.82,251.1537 787.59,288.0637 843.78,305.8237 " fill="none" id="Course-Exam" style="stroke:#181818;stroke-width:1.0;"/><polygon fill="#000000" points="659.7325,236.1523,667.4713,241.6805,669.2427,236.076,659.7325,236.1523" style="stroke:#000000;stroke-width:1.0;"/><text fill="#000000" font-family="sans-serif" font-size="13" lengthAdjust="spacing" textLength="54" x="673.5" y="243.042">related to</text><text fill="#000000" font-family="sans-serif" font-size="13" lengthAdjust="spacing" textLength="7" x="606.4081" y="245.653">1</text><text fill="#000000" font-family="sans-serif" font-size="13" lengthAdjust="spacing" textLength="20" x="816.0814" y="319.5769">0..*</text></g><!--link Course to eCourseSystemUser--><g id="link_Course_eCourseSystemUser"><path codeLine="105" d="M536.5,256.9137 C536.5,377.8837 536.5,693.9437 536.5,804.3037 " fill="none" id="Course-eCourseSystemUser" style="stroke:#181818;stroke-width:1.0;"/><polygon fill="#000000" points="498.5,525.6592,495.5611,534.7043,501.4389,534.7043,498.5,525.6592" style="stroke:#000000;stroke-width:1.0;"/><text fill="#000000" font-family="sans-serif" font-size="13" lengthAdjust="spacing" textLength="46" x="507.5" y="536.042">teaches</text><text fill="#000000" font-family="sans-serif" font-size="13" lengthAdjust="spacing" textLength="5" x="531.1484" y="278.8822">*</text><text fill="#000000" font-family="sans-serif" font-size="13" lengthAdjust="spacing" textLength="5" x="531.0703" y="793.2821">*</text></g><!--link FormativeExam to ExamGrade--><g id="link_FormativeExam_ExamGrade"><path codeLine="107" d="M151.12,806.6337 C181.64,804.0537 217.81,801.0037 246.91,798.5437 " fill="none" id="FormativeExam-ExamGrade" style="stroke:#181818;stroke-width:1.0;"/><polygon fill="#000000" points="190.9823,792.2384,181.7219,790.0711,182.2166,795.9281,190.9823,792.2384" style="stroke:#000000;stroke-width:1.0;"/><text fill="#000000" font-family="sans-serif" font-size="13" lengthAdjust="spacing" textLength="21" x="195" y="798.042">has</text><text fill="#000000" font-family="sans-serif" font-size="13" lengthAdjust="spacing" textLength="7" x="158.9964" y="821.0161">1</text><text fill="#000000" font-family="sans-serif" font-size="13" lengthAdjust="spacing" textLength="7" x="232.1042" y="814.3705">1</text></g><!--link ExamGrade to eCourseSystemUser--><g id="link_ExamGrade_eCourseSystemUser"><path codeLine="108" d="M356.25,805.3137 C385.81,811.5337 423.07,819.3737 455.94,826.2837 " fill="none" id="ExamGrade-eCourseSystemUser" style="stroke:#181818;stroke-width:1.0;"/><polygon fill="#000000" points="397.8929,804.6884,389.6465,799.9505,388.4366,805.7025,397.8929,804.6884" style="stroke:#000000;stroke-width:1.0;"/><text fill="#000000" font-family="sans-serif" font-size="13" lengthAdjust="spacing" textLength="21" x="402" y="809.042">has</text><text fill="#000000" font-family="sans-serif" font-size="13" lengthAdjust="spacing" textLength="7" x="364.0773" y="822.0503">1</text><text fill="#000000" font-family="sans-serif" font-size="13" lengthAdjust="spacing" textLength="7" x="440.928" y="839.5632">1</text></g><!--SRC=[XLNVRzem47xtNs7nKgaJiBsYA1A5jAfKe2EZwXvTvqYy9J7p3pOqzN-VdOJyACRBGy1ttts-yztdt6HA7UHiEZtaf5Iwo2UK5rC9lpIK5CO98waW1K8vx1LM70kMPWedJ01LZ9S87GZzILB0esYnsMtZAFuUVujMkpZQZd0GpDDKG4eKX27-Yn0s3ys9b3W-IGN5Je8mAC6vCe0WY4h5rAd2ukQvnMjIG6zfOygpwRtF2GkkXOJ_Kbz6HWLX-Jn9G9X54BoGN0FcRpzCaM7O1svv3jVoZ9LWPOhTkTbqOaMKjlnGwc8G_0b7w_dTKzGpB1_ZrZ9WUZQltrmaXkTuDSyv5Rmy5LxC-l7UwxzZGcLBqpilQWKq8oKtKtB865thugqwzs60CH2jU44KeoJFJpY54eIXJePa3u8ahktUUtDMZvaTBZ8Ohewb7eD-yy7LBzieuzCbCyD-pgCvQjkXXiVNjSrpjEuj5q-RE5fUjgmcMd1NRVtIejVvobVOFHVs28yG_I75eBwZgV13URJUhYslytJf3E2bCYGERPYzF7sfGIyWsFuqo2y6SMJKHidwNwszDgJnFu3wga7QoqGwi0ZTR24dbJjZ1ubGJzxZSOX7NqO3-RhyPycuV5RH25rU7MT_P_A0AfBhxaxy7b0ZMG_22DRZRUNgmRZ4we7NRPzXgNHYPWDdH6A2msl7vHc26TOIf0brHxfceGrnn8nkHtXSlOUIc64gm1o1dEf3Odzjk7cQ6-5SLr_ORbybZhFBciVZmOa8s9jXin_4u2FgysHYychI4NPs8Qc1BRBD_hAo6LP0Q6OoD_XXSRqqEatEggQ4gBFqO2xw6luF]--></g></svg>