<?xml version="1.0" encoding="us-ascii" standalone="no"?><svg xmlns="http://www.w3.org/2000/svg" xmlns:xlink="http://www.w3.org/1999/xlink" contentStyleType="text/css" height="1213px" preserveAspectRatio="none" style="width:2565px;height:1213px;background:#FFFFFF;" version="1.1" viewBox="0 0 2565 1213" width="2565px" zoomAndPan="magnify"><defs/><g><rect fill="#FFFFFF" height="984.0508" style="stroke:#181818;stroke-width:1.0;" width="10" x="29.5" y="121.5332"/><rect fill="#FFFFFF" height="83.1641" style="stroke:#181818;stroke-width:1.0;" width="10" x="425.5" y="121.5332"/><rect fill="#FFFFFF" height="860.5957" style="stroke:#181818;stroke-width:1.0;" width="10" x="425.5" y="235.9883"/><rect fill="#FFFFFF" height="276.3281" style="stroke:#181818;stroke-width:1.0;" width="10" x="1057.5" y="293.5703"/><rect fill="#FFFFFF" height="457.1035" style="stroke:#181818;stroke-width:1.0;" width="10" x="1057.5" y="608.1895"/><rect fill="#FFFFFF" height="138.1641" style="stroke:#181818;stroke-width:1.0;" width="10" x="1503.5" y="356.1523"/><rect fill="#FFFFFF" height="75.582" style="stroke:#181818;stroke-width:1.0;" width="10" x="1652" y="387.4434"/><rect fill="#FFFFFF" height="225.4063" style="stroke:#181818;stroke-width:1.0;" width="10" x="1824.5" y="639.4805"/><rect fill="#FFFFFF" height="145.8242" style="stroke:#181818;stroke-width:1.0;" width="10" x="2004.5" y="680.7715"/><rect fill="#FFFFFF" height="102.2031" style="stroke:#181818;stroke-width:1.0;" width="10" x="2164" y="724.3926"/><rect fill="#FFFFFF" height="75.582" style="stroke:#181818;stroke-width:1.0;" width="10" x="2457" y="958.4199"/><rect fill="none" height="326.9102" style="stroke:#000000;stroke-width:1.5;" width="1448.5" x="335.5" y="250.9883"/><line style="stroke:#181818;stroke-width:0.5;stroke-dasharray:5.0,5.0;" x1="34" x2="34" y1="88.2422" y2="1114.584"/><line style="stroke:#181818;stroke-width:0.5;stroke-dasharray:5.0,5.0;" x1="430.5" x2="430.5" y1="88.2422" y2="1114.584"/><line style="stroke:#181818;stroke-width:0.5;stroke-dasharray:5.0,5.0;" x1="1062.5" x2="1062.5" y1="88.2422" y2="1114.584"/><line style="stroke:#181818;stroke-width:0.5;stroke-dasharray:5.0,5.0;" x1="1243.5" x2="1243.5" y1="88.2422" y2="1114.584"/><line style="stroke:#181818;stroke-width:0.5;stroke-dasharray:5.0,5.0;" x1="1508.5" x2="1508.5" y1="88.2422" y2="1114.584"/><line style="stroke:#181818;stroke-width:0.5;stroke-dasharray:5.0,5.0;" x1="1656.5" x2="1656.5" y1="88.2422" y2="1114.584"/><line style="stroke:#181818;stroke-width:0.5;stroke-dasharray:5.0,5.0;" x1="1829.5" x2="1829.5" y1="88.2422" y2="1114.584"/><line style="stroke:#181818;stroke-width:0.5;stroke-dasharray:5.0,5.0;" x1="2009.5" x2="2009.5" y1="679.291" y2="1114.584"/><line style="stroke:#181818;stroke-width:0.5;stroke-dasharray:5.0,5.0;" x1="2168.5" x2="2168.5" y1="722.9121" y2="1114.584"/><line style="stroke:#181818;stroke-width:0.5;stroke-dasharray:5.0,5.0;" x1="2310.5" x2="2310.5" y1="914.0078" y2="1114.584"/><line style="stroke:#181818;stroke-width:0.5;stroke-dasharray:5.0,5.0;" x1="2461.5" x2="2461.5" y1="88.2422" y2="1114.584"/><text fill="#000000" font-family="sans-serif" font-size="14" lengthAdjust="spacing" textLength="53" x="5" y="84.7285">Teacher</text><ellipse cx="34.5" cy="18.1211" fill="#E2E2F0" rx="8" ry="8" style="stroke:#181818;stroke-width:0.5;"/><path d="M34.5,26.1211 L34.5,53.1211 M21.5,34.1211 L47.5,34.1211 M34.5,53.1211 L21.5,68.1211 M34.5,53.1211 L47.5,68.1211 " fill="none" style="stroke:#181818;stroke-width:0.5;"/><text fill="#000000" font-family="sans-serif" font-size="14" lengthAdjust="spacing" textLength="53" x="5" y="1128.6914">Teacher</text><ellipse cx="34.5" cy="1140.7051" fill="#E2E2F0" rx="8" ry="8" style="stroke:#181818;stroke-width:0.5;"/><path d="M34.5,1148.7051 L34.5,1175.7051 M21.5,1156.7051 L47.5,1156.7051 M34.5,1175.7051 L21.5,1190.7051 M34.5,1175.7051 L47.5,1190.7051 " fill="none" style="stroke:#181818;stroke-width:0.5;"/><rect fill="#E2E2F0" height="32.6211" rx="2.5" ry="2.5" style="stroke:#181818;stroke-width:0.5;" width="170" x="345.5" y="54.6211"/><text fill="#000000" font-family="sans-serif" font-size="14" lengthAdjust="spacing" textLength="156" x="352.5" y="76.7285">:CreateFormativeExamUI</text><rect fill="#E2E2F0" height="32.6211" rx="2.5" ry="2.5" style="stroke:#181818;stroke-width:0.5;" width="170" x="345.5" y="1113.584"/><text fill="#000000" font-family="sans-serif" font-size="14" lengthAdjust="spacing" textLength="156" x="352.5" y="1135.6914">:CreateFormativeExamUI</text><rect fill="#E2E2F0" height="32.6211" rx="2.5" ry="2.5" style="stroke:#181818;stroke-width:0.5;" width="220" x="952.5" y="54.6211"/><text fill="#000000" font-family="sans-serif" font-size="14" lengthAdjust="spacing" textLength="206" x="959.5" y="76.7285">:CreateFormativeExamController</text><rect fill="#E2E2F0" height="32.6211" rx="2.5" ry="2.5" style="stroke:#181818;stroke-width:0.5;" width="220" x="952.5" y="1113.584"/><text fill="#000000" font-family="sans-serif" font-size="14" lengthAdjust="spacing" textLength="206" x="959.5" y="1135.6914">:CreateFormativeExamController</text><text fill="#000000" font-family="sans-serif" font-size="14" font-style="italic" lengthAdjust="spacing" textLength="79" x="1201" y="66.1074">&#171;repository&#187;</text><text fill="#000000" font-family="sans-serif" font-size="14" lengthAdjust="spacing" textLength="116" x="1182.5" y="84.7285">RepositoryFactory</text><path d="M1225.5,15 C1225.5,5 1243.5,5 1243.5,5 C1243.5,5 1261.5,5 1261.5,15 L1261.5,41 C1261.5,51 1243.5,51 1243.5,51 C1243.5,51 1225.5,51 1225.5,41 L1225.5,15 " fill="#E2E2F0" style="stroke:#181818;stroke-width:1.5;"/><path d="M1225.5,15 C1225.5,25 1243.5,25 1243.5,25 C1243.5,25 1261.5,25 1261.5,15 " fill="none" style="stroke:#181818;stroke-width:1.5;"/><text fill="#000000" font-family="sans-serif" font-size="14" font-style="italic" lengthAdjust="spacing" textLength="79" x="1201" y="1128.6914">&#171;repository&#187;</text><text fill="#000000" font-family="sans-serif" font-size="14" lengthAdjust="spacing" textLength="116" x="1182.5" y="1147.3125">RepositoryFactory</text><path d="M1225.5,1160.8262 C1225.5,1150.8262 1243.5,1150.8262 1243.5,1150.8262 C1243.5,1150.8262 1261.5,1150.8262 1261.5,1160.8262 L1261.5,1186.8262 C1261.5,1196.8262 1243.5,1196.8262 1243.5,1196.8262 C1243.5,1196.8262 1225.5,1196.8262 1225.5,1186.8262 L1225.5,1160.8262 " fill="#E2E2F0" style="stroke:#181818;stroke-width:1.5;"/><path d="M1225.5,1160.8262 C1225.5,1170.8262 1243.5,1170.8262 1243.5,1170.8262 C1243.5,1170.8262 1261.5,1170.8262 1261.5,1160.8262 " fill="none" style="stroke:#181818;stroke-width:1.5;"/><rect fill="#E2E2F0" height="51.2422" rx="2.5" ry="2.5" style="stroke:#181818;stroke-width:0.5;" width="146" x="1435.5" y="36"/><text fill="#000000" font-family="sans-serif" font-size="14" font-style="italic" lengthAdjust="spacing" textLength="60" x="1478.5" y="58.1074">&#171;service&#187;</text><text fill="#000000" font-family="sans-serif" font-size="14" lengthAdjust="spacing" textLength="132" x="1442.5" y="76.7285">serviceGetQuestions</text><rect fill="#E2E2F0" height="51.2422" rx="2.5" ry="2.5" style="stroke:#181818;stroke-width:0.5;" width="146" x="1435.5" y="1113.584"/><text fill="#000000" font-family="sans-serif" font-size="14" font-style="italic" lengthAdjust="spacing" textLength="60" x="1478.5" y="1135.6914">&#171;service&#187;</text><text fill="#000000" font-family="sans-serif" font-size="14" lengthAdjust="spacing" textLength="132" x="1442.5" y="1154.3125">serviceGetQuestions</text><text fill="#000000" font-family="sans-serif" font-size="14" font-style="italic" lengthAdjust="spacing" textLength="79" x="1614.5" y="66.1074">&#171;repository&#187;</text><text fill="#000000" font-family="sans-serif" font-size="14" lengthAdjust="spacing" textLength="125" x="1591.5" y="84.7285">QuestionRepository</text><path d="M1639,15 C1639,5 1657,5 1657,5 C1657,5 1675,5 1675,15 L1675,41 C1675,51 1657,51 1657,51 C1657,51 1639,51 1639,41 L1639,15 " fill="#E2E2F0" style="stroke:#181818;stroke-width:1.5;"/><path d="M1639,15 C1639,25 1657,25 1657,25 C1657,25 1675,25 1675,15 " fill="none" style="stroke:#181818;stroke-width:1.5;"/><text fill="#000000" font-family="sans-serif" font-size="14" font-style="italic" lengthAdjust="spacing" textLength="79" x="1614.5" y="1128.6914">&#171;repository&#187;</text><text fill="#000000" font-family="sans-serif" font-size="14" lengthAdjust="spacing" textLength="125" x="1591.5" y="1147.3125">QuestionRepository</text><path d="M1639,1160.8262 C1639,1150.8262 1657,1150.8262 1657,1150.8262 C1657,1150.8262 1675,1150.8262 1675,1160.8262 L1675,1186.8262 C1675,1196.8262 1657,1196.8262 1657,1196.8262 C1657,1196.8262 1639,1196.8262 1639,1186.8262 L1639,1160.8262 " fill="#E2E2F0" style="stroke:#181818;stroke-width:1.5;"/><path d="M1639,1160.8262 C1639,1170.8262 1657,1170.8262 1657,1170.8262 C1657,1170.8262 1675,1170.8262 1675,1160.8262 " fill="none" style="stroke:#181818;stroke-width:1.5;"/><rect fill="#E2E2F0" height="51.2422" rx="2.5" ry="2.5" style="stroke:#181818;stroke-width:0.5;" width="194" x="1732.5" y="36"/><text fill="#000000" font-family="sans-serif" font-size="14" font-style="italic" lengthAdjust="spacing" textLength="60" x="1799.5" y="58.1074">&#171;service&#187;</text><text fill="#000000" font-family="sans-serif" font-size="14" lengthAdjust="spacing" textLength="180" x="1739.5" y="76.7285">VerifyFormativeExamService</text><rect fill="#E2E2F0" height="51.2422" rx="2.5" ry="2.5" style="stroke:#181818;stroke-width:0.5;" width="194" x="1732.5" y="1113.584"/><text fill="#000000" font-family="sans-serif" font-size="14" font-style="italic" lengthAdjust="spacing" textLength="60" x="1799.5" y="1135.6914">&#171;service&#187;</text><text fill="#000000" font-family="sans-serif" font-size="14" lengthAdjust="spacing" textLength="180" x="1739.5" y="1154.3125">VerifyFormativeExamService</text><rect fill="#E2E2F0" height="32.6211" rx="2.5" ry="2.5" style="stroke:#181818;stroke-width:0.5;" width="146" x="1936.5" y="1113.584"/><text fill="#000000" font-family="sans-serif" font-size="14" lengthAdjust="spacing" textLength="132" x="1943.5" y="1135.6914">FormativeExamLexer</text><rect fill="#E2E2F0" height="32.6211" rx="2.5" ry="2.5" style="stroke:#181818;stroke-width:0.5;" width="153" x="2092.5" y="1113.584"/><text fill="#000000" font-family="sans-serif" font-size="14" lengthAdjust="spacing" textLength="139" x="2099.5" y="1135.6914">FormativeExamParser</text><rect fill="#E2E2F0" height="51.2422" rx="2.5" ry="2.5" style="stroke:#181818;stroke-width:0.5;" width="111" x="2255.5" y="1113.584"/><text fill="#000000" font-family="sans-serif" font-size="14" font-style="italic" lengthAdjust="spacing" textLength="50" x="2286" y="1135.6914">&#171;entity&#187;</text><text fill="#000000" font-family="sans-serif" font-size="14" lengthAdjust="spacing" textLength="97" x="2262.5" y="1154.3125">FormativeExam</text><text fill="#000000" font-family="sans-serif" font-size="14" font-style="italic" lengthAdjust="spacing" textLength="60" x="2429" y="66.1074">&#171;service&#187;</text><text fill="#000000" font-family="sans-serif" font-size="14" lengthAdjust="spacing" textLength="165" x="2376.5" y="84.7285">FormativeExamRepository</text><path d="M2444,15 C2444,5 2462,5 2462,5 C2462,5 2480,5 2480,15 L2480,41 C2480,51 2462,51 2462,51 C2462,51 2444,51 2444,41 L2444,15 " fill="#E2E2F0" style="stroke:#181818;stroke-width:1.5;"/><path d="M2444,15 C2444,25 2462,25 2462,25 C2462,25 2480,25 2480,15 " fill="none" style="stroke:#181818;stroke-width:1.5;"/><text fill="#000000" font-family="sans-serif" font-size="14" font-style="italic" lengthAdjust="spacing" textLength="60" x="2429" y="1128.6914">&#171;service&#187;</text><text fill="#000000" font-family="sans-serif" font-size="14" lengthAdjust="spacing" textLength="165" x="2376.5" y="1147.3125">FormativeExamRepository</text><path d="M2444,1160.8262 C2444,1150.8262 2462,1150.8262 2462,1150.8262 C2462,1150.8262 2480,1150.8262 2480,1160.8262 L2480,1186.8262 C2480,1196.8262 2462,1196.8262 2462,1196.8262 C2462,1196.8262 2444,1196.8262 2444,1186.8262 L2444,1160.8262 " fill="#E2E2F0" style="stroke:#181818;stroke-width:1.5;"/><path d="M2444,1160.8262 C2444,1170.8262 2462,1170.8262 2462,1170.8262 C2462,1170.8262 2480,1170.8262 2480,1160.8262 " fill="none" style="stroke:#181818;stroke-width:1.5;"/><rect fill="#FFFFFF" height="984.0508" style="stroke:#181818;stroke-width:1.0;" width="10" x="29.5" y="121.5332"/><rect fill="#FFFFFF" height="83.1641" style="stroke:#181818;stroke-width:1.0;" width="10" x="425.5" y="121.5332"/><rect fill="#FFFFFF" height="860.5957" style="stroke:#181818;stroke-width:1.0;" width="10" x="425.5" y="235.9883"/><rect fill="#FFFFFF" height="276.3281" style="stroke:#181818;stroke-width:1.0;" width="10" x="1057.5" y="293.5703"/><rect fill="#FFFFFF" height="457.1035" style="stroke:#181818;stroke-width:1.0;" width="10" x="1057.5" y="608.1895"/><rect fill="#FFFFFF" height="138.1641" style="stroke:#181818;stroke-width:1.0;" width="10" x="1503.5" y="356.1523"/><rect fill="#FFFFFF" height="75.582" style="stroke:#181818;stroke-width:1.0;" width="10" x="1652" y="387.4434"/><rect fill="#FFFFFF" height="225.4063" style="stroke:#181818;stroke-width:1.0;" width="10" x="1824.5" y="639.4805"/><rect fill="#FFFFFF" height="145.8242" style="stroke:#181818;stroke-width:1.0;" width="10" x="2004.5" y="680.7715"/><rect fill="#FFFFFF" height="102.2031" style="stroke:#181818;stroke-width:1.0;" width="10" x="2164" y="724.3926"/><rect fill="#FFFFFF" height="75.582" style="stroke:#181818;stroke-width:1.0;" width="10" x="2457" y="958.4199"/><polygon fill="#181818" points="413.5,117.5332,423.5,121.5332,413.5,125.5332,417.5,121.5332" style="stroke:#181818;stroke-width:1.0;"/><line style="stroke:#181818;stroke-width:1.0;" x1="39.5" x2="419.5" y1="121.5332" y2="121.5332"/><text fill="#000000" font-family="sans-serif" font-size="13" font-weight="bold" lengthAdjust="spacing" textLength="7" x="46.5" y="116.2705">1</text><text fill="#000000" font-family="sans-serif" font-size="13" lengthAdjust="spacing" textLength="221" x="57.5" y="116.2705">Starts creating a new Formative Exam</text><polygon fill="#181818" points="50.5,200.6973,40.5,204.6973,50.5,208.6973,46.5,204.6973" style="stroke:#181818;stroke-width:1.0;"/><line style="stroke:#181818;stroke-width:1.0;stroke-dasharray:2.0,2.0;" x1="44.5" x2="429.5" y1="204.6973" y2="204.6973"/><text fill="#000000" font-family="sans-serif" font-size="13" font-weight="bold" lengthAdjust="spacing" textLength="7" x="56.5" y="173.498">2</text><text fill="#000000" font-family="sans-serif" font-size="13" lengthAdjust="spacing" textLength="215" x="67.5" y="147.5615">asks for the exam code, coursecode,</text><text fill="#000000" font-family="sans-serif" font-size="13" lengthAdjust="spacing" textLength="248" x="67.5" y="164.8525">exam name, exam description, exam date,</text><text fill="#000000" font-family="sans-serif" font-size="13" lengthAdjust="spacing" textLength="281" x="71.5" y="182.1436">number of sections, type of questions in section,</text><text fill="#000000" font-family="sans-serif" font-size="13" lengthAdjust="spacing" textLength="298" x="71.5" y="199.4346">number of questions in section and section cotation</text><polygon fill="#181818" points="413.5,231.9883,423.5,235.9883,413.5,239.9883,417.5,235.9883" style="stroke:#181818;stroke-width:1.0;"/><line style="stroke:#181818;stroke-width:1.0;" x1="39.5" x2="419.5" y1="235.9883" y2="235.9883"/><text fill="#000000" font-family="sans-serif" font-size="13" font-weight="bold" lengthAdjust="spacing" textLength="7" x="46.5" y="230.7256">3</text><text fill="#000000" font-family="sans-serif" font-size="13" lengthAdjust="spacing" textLength="133" x="57.5" y="230.7256">types the required data</text><path d="M335.5,250.9883 L408.5,250.9883 L408.5,260.2793 L398.5,270.2793 L335.5,270.2793 L335.5,250.9883 " fill="#EEEEEE" style="stroke:#000000;stroke-width:1.5;"/><rect fill="none" height="326.9102" style="stroke:#000000;stroke-width:1.5;" width="1448.5" x="335.5" y="250.9883"/><text fill="#000000" font-family="sans-serif" font-size="13" font-weight="bold" lengthAdjust="spacing" textLength="28" x="350.5" y="266.0166">loop</text><polygon fill="#181818" points="1045.5,289.5703,1055.5,293.5703,1045.5,297.5703,1049.5,293.5703" style="stroke:#181818;stroke-width:1.0;"/><line style="stroke:#181818;stroke-width:1.0;" x1="435.5" x2="1051.5" y1="293.5703" y2="293.5703"/><text fill="#000000" font-family="sans-serif" font-size="13" font-weight="bold" lengthAdjust="spacing" textLength="7" x="442.5" y="288.3076">4</text><text fill="#000000" font-family="sans-serif" font-size="13" lengthAdjust="spacing" textLength="592" x="453.5" y="288.3076">createSection(type, numberOfQuestionsInSection, sectionDescription, questionCotation, sectionType);</text><polygon fill="#181818" points="1231.5,320.8613,1241.5,324.8613,1231.5,328.8613,1235.5,324.8613" style="stroke:#181818;stroke-width:1.0;"/><line style="stroke:#181818;stroke-width:1.0;" x1="1067.5" x2="1237.5" y1="324.8613" y2="324.8613"/><text fill="#000000" font-family="sans-serif" font-size="13" font-weight="bold" lengthAdjust="spacing" textLength="7" x="1074.5" y="319.5986">5</text><text fill="#000000" font-family="sans-serif" font-size="13" lengthAdjust="spacing" textLength="4" x="1085.5" y="319.5986">&#160;</text><polygon fill="#181818" points="1491.5,352.1523,1501.5,356.1523,1491.5,360.1523,1495.5,356.1523" style="stroke:#181818;stroke-width:1.0;"/><line style="stroke:#181818;stroke-width:1.0;" x1="1067.5" x2="1497.5" y1="356.1523" y2="356.1523"/><text fill="#000000" font-family="sans-serif" font-size="13" font-weight="bold" lengthAdjust="spacing" textLength="7" x="1074.5" y="350.8896">6</text><text fill="#000000" font-family="sans-serif" font-size="13" lengthAdjust="spacing" textLength="406" x="1085.5" y="350.8896">getQuestions(type, numberOfQuestionsInSection, questionRepository)</text><polygon fill="#181818" points="1640,383.4434,1650,387.4434,1640,391.4434,1644,387.4434" style="stroke:#181818;stroke-width:1.0;"/><line style="stroke:#181818;stroke-width:1.0;" x1="1513.5" x2="1646" y1="387.4434" y2="387.4434"/><text fill="#000000" font-family="sans-serif" font-size="13" font-weight="bold" lengthAdjust="spacing" textLength="7" x="1520.5" y="382.1807">7</text><text fill="#000000" font-family="sans-serif" font-size="13" lengthAdjust="spacing" textLength="92" x="1531.5" y="382.1807">findbytype(type)</text><line style="stroke:#181818;stroke-width:1.0;" x1="1662" x2="1704" y1="418.7344" y2="418.7344"/><line style="stroke:#181818;stroke-width:1.0;" x1="1704" x2="1704" y1="418.7344" y2="431.7344"/><line style="stroke:#181818;stroke-width:1.0;" x1="1663" x2="1704" y1="431.7344" y2="431.7344"/><polygon fill="#181818" points="1673,427.7344,1663,431.7344,1673,435.7344,1669,431.7344" style="stroke:#181818;stroke-width:1.0;"/><text fill="#000000" font-family="sans-serif" font-size="13" font-weight="bold" lengthAdjust="spacing" textLength="7" x="1669" y="413.4717">8</text><text fill="#000000" font-family="sans-serif" font-size="13" lengthAdjust="spacing" textLength="92" x="1680" y="413.4717">findbytype(type)</text><polygon fill="#181818" points="1524.5,459.0254,1514.5,463.0254,1524.5,467.0254,1520.5,463.0254" style="stroke:#181818;stroke-width:1.0;"/><line style="stroke:#181818;stroke-width:1.0;stroke-dasharray:2.0,2.0;" x1="1518.5" x2="1656" y1="463.0254" y2="463.0254"/><text fill="#000000" font-family="sans-serif" font-size="13" font-weight="bold" lengthAdjust="spacing" textLength="7" x="1530.5" y="457.7627">9</text><text fill="#000000" font-family="sans-serif" font-size="13" lengthAdjust="spacing" textLength="56" x="1541.5" y="457.7627">questions</text><polygon fill="#181818" points="1078.5,490.3164,1068.5,494.3164,1078.5,498.3164,1074.5,494.3164" style="stroke:#181818;stroke-width:1.0;"/><line style="stroke:#181818;stroke-width:1.0;stroke-dasharray:2.0,2.0;" x1="1072.5" x2="1507.5" y1="494.3164" y2="494.3164"/><text fill="#000000" font-family="sans-serif" font-size="13" font-weight="bold" lengthAdjust="spacing" textLength="14" x="1084.5" y="489.0537">10</text><text fill="#000000" font-family="sans-serif" font-size="13" lengthAdjust="spacing" textLength="56" x="1102.5" y="489.0537">questions</text><line style="stroke:#181818;stroke-width:1.0;" x1="1067.5" x2="1109.5" y1="525.6074" y2="525.6074"/><line style="stroke:#181818;stroke-width:1.0;" x1="1109.5" x2="1109.5" y1="525.6074" y2="538.6074"/><line style="stroke:#181818;stroke-width:1.0;" x1="1068.5" x2="1109.5" y1="538.6074" y2="538.6074"/><polygon fill="#181818" points="1078.5,534.6074,1068.5,538.6074,1078.5,542.6074,1074.5,538.6074" style="stroke:#181818;stroke-width:1.0;"/><text fill="#000000" font-family="sans-serif" font-size="13" font-weight="bold" lengthAdjust="spacing" textLength="14" x="1074.5" y="520.3447">11</text><text fill="#000000" font-family="sans-serif" font-size="13" lengthAdjust="spacing" textLength="135" x="1092.5" y="520.3447">sections.add(sectionL);</text><polygon fill="#181818" points="446.5,565.8984,436.5,569.8984,446.5,573.8984,442.5,569.8984" style="stroke:#181818;stroke-width:1.0;"/><line style="stroke:#181818;stroke-width:1.0;stroke-dasharray:2.0,2.0;" x1="440.5" x2="1061.5" y1="569.8984" y2="569.8984"/><text fill="#000000" font-family="sans-serif" font-size="13" font-weight="bold" lengthAdjust="spacing" textLength="14" x="452.5" y="564.6357">12</text><text fill="#000000" font-family="sans-serif" font-size="13" lengthAdjust="spacing" textLength="4" x="470.5" y="564.6357">&#160;</text><polygon fill="#181818" points="1045.5,604.1895,1055.5,608.1895,1045.5,612.1895,1049.5,608.1895" style="stroke:#181818;stroke-width:1.0;"/><line style="stroke:#181818;stroke-width:1.0;" x1="435.5" x2="1051.5" y1="608.1895" y2="608.1895"/><text fill="#000000" font-family="sans-serif" font-size="13" font-weight="bold" lengthAdjust="spacing" textLength="14" x="442.5" y="602.9268">13</text><text fill="#000000" font-family="sans-serif" font-size="13" lengthAdjust="spacing" textLength="560" x="460.5" y="602.9268">createFormativeExam(examName, examHeaderDescription, examDate, examCode, courseCode)</text><polygon fill="#181818" points="1812.5,635.4805,1822.5,639.4805,1812.5,643.4805,1816.5,639.4805" style="stroke:#181818;stroke-width:1.0;"/><line style="stroke:#181818;stroke-width:1.0;" x1="1067.5" x2="1818.5" y1="639.4805" y2="639.4805"/><text fill="#000000" font-family="sans-serif" font-size="13" font-weight="bold" lengthAdjust="spacing" textLength="14" x="1074.5" y="634.2178">14</text><text fill="#000000" font-family="sans-serif" font-size="13" lengthAdjust="spacing" textLength="177" x="1092.5" y="634.2178">verifyFormativeExam(fileName)</text><polygon fill="#181818" points="1924.5,666.7715,1934.5,670.7715,1924.5,674.7715,1928.5,670.7715" style="stroke:#181818;stroke-width:1.0;"/><line style="stroke:#181818;stroke-width:1.0;" x1="1834.5" x2="1930.5" y1="670.7715" y2="670.7715"/><text fill="#000000" font-family="sans-serif" font-size="13" font-weight="bold" lengthAdjust="spacing" textLength="14" x="1841.5" y="665.5088">15</text><text fill="#000000" font-family="sans-serif" font-size="13" lengthAdjust="spacing" textLength="4" x="1859.5" y="665.5088">&#160;</text><rect fill="#E2E2F0" height="32.6211" rx="2.5" ry="2.5" style="stroke:#181818;stroke-width:0.5;" width="146" x="1936.5" y="647.4805"/><text fill="#000000" font-family="sans-serif" font-size="14" lengthAdjust="spacing" textLength="132" x="1943.5" y="669.5879">FormativeExamLexer</text><polygon fill="#181818" points="2080.5,710.3926,2090.5,714.3926,2080.5,718.3926,2084.5,714.3926" style="stroke:#181818;stroke-width:1.0;"/><line style="stroke:#181818;stroke-width:1.0;" x1="1834.5" x2="2086.5" y1="714.3926" y2="714.3926"/><text fill="#000000" font-family="sans-serif" font-size="13" font-weight="bold" lengthAdjust="spacing" textLength="14" x="1841.5" y="709.1299">16</text><text fill="#000000" font-family="sans-serif" font-size="13" lengthAdjust="spacing" textLength="4" x="1859.5" y="709.1299">&#160;</text><rect fill="#E2E2F0" height="32.6211" rx="2.5" ry="2.5" style="stroke:#181818;stroke-width:0.5;" width="153" x="2092.5" y="691.1016"/><text fill="#000000" font-family="sans-serif" font-size="14" lengthAdjust="spacing" textLength="139" x="2099.5" y="713.209">FormativeExamParser</text><polygon fill="#181818" points="1845.5,754.0137,1835.5,758.0137,1845.5,762.0137,1841.5,758.0137" style="stroke:#181818;stroke-width:1.0;"/><line style="stroke:#181818;stroke-width:1.0;stroke-dasharray:2.0,2.0;" x1="1839.5" x2="2003.5" y1="758.0137" y2="758.0137"/><text fill="#000000" font-family="sans-serif" font-size="13" font-weight="bold" lengthAdjust="spacing" textLength="14" x="1851.5" y="752.751">17</text><text fill="#000000" font-family="sans-serif" font-size="13" lengthAdjust="spacing" textLength="4" x="1869.5" y="752.751">&#160;</text><polygon fill="#181818" points="1845.5,785.3047,1835.5,789.3047,1845.5,793.3047,1841.5,789.3047" style="stroke:#181818;stroke-width:1.0;"/><line style="stroke:#181818;stroke-width:1.0;stroke-dasharray:2.0,2.0;" x1="1839.5" x2="2163" y1="789.3047" y2="789.3047"/><text fill="#000000" font-family="sans-serif" font-size="13" font-weight="bold" lengthAdjust="spacing" textLength="14" x="1851.5" y="784.042">18</text><text fill="#000000" font-family="sans-serif" font-size="13" lengthAdjust="spacing" textLength="4" x="1869.5" y="784.042">&#160;</text><line style="stroke:#181818;stroke-width:1.0;" x1="1834.5" x2="1876.5" y1="825.5957" y2="825.5957"/><line style="stroke:#181818;stroke-width:1.0;" x1="1876.5" x2="1876.5" y1="825.5957" y2="838.5957"/><line style="stroke:#181818;stroke-width:1.0;" x1="1829.5" x2="1876.5" y1="838.5957" y2="838.5957"/><polygon fill="#181818" points="1839.5,834.5957,1829.5,838.5957,1839.5,842.5957,1835.5,838.5957" style="stroke:#181818;stroke-width:1.0;"/><text fill="#000000" font-family="sans-serif" font-size="13" font-weight="bold" lengthAdjust="spacing" textLength="14" x="1841.5" y="820.333">19</text><text fill="#000000" font-family="sans-serif" font-size="13" lengthAdjust="spacing" textLength="87" x="1859.5" y="820.333">verify(fileName)</text><polygon fill="#181818" points="1078.5,860.8867,1068.5,864.8867,1078.5,868.8867,1074.5,864.8867" style="stroke:#181818;stroke-width:1.0;"/><line style="stroke:#181818;stroke-width:1.0;stroke-dasharray:2.0,2.0;" x1="1072.5" x2="1828.5" y1="864.8867" y2="864.8867"/><text fill="#000000" font-family="sans-serif" font-size="13" font-weight="bold" lengthAdjust="spacing" textLength="14" x="1084.5" y="859.624">20</text><text fill="#000000" font-family="sans-serif" font-size="13" lengthAdjust="spacing" textLength="4" x="1102.5" y="859.624">&#160;</text><polygon fill="#181818" points="2243.5,892.1777,2253.5,896.1777,2243.5,900.1777,2247.5,896.1777" style="stroke:#181818;stroke-width:1.0;"/><line style="stroke:#181818;stroke-width:1.0;" x1="1067.5" x2="2249.5" y1="896.1777" y2="896.1777"/><text fill="#000000" font-family="sans-serif" font-size="13" font-weight="bold" lengthAdjust="spacing" textLength="14" x="1074.5" y="890.915">21</text><text fill="#000000" font-family="sans-serif" font-size="13" lengthAdjust="spacing" textLength="402" x="1092.5" y="890.915">FormativeExam(examCode, exam, CourseCode.valueOf(courseCode))</text><rect fill="#E2E2F0" height="51.2422" rx="2.5" ry="2.5" style="stroke:#181818;stroke-width:0.5;" width="111" x="2255.5" y="872.8867"/><text fill="#000000" font-family="sans-serif" font-size="14" font-style="italic" lengthAdjust="spacing" textLength="50" x="2286" y="894.9941">&#171;entity&#187;</text><text fill="#000000" font-family="sans-serif" font-size="14" lengthAdjust="spacing" textLength="97" x="2262.5" y="913.6152">FormativeExam</text><polygon fill="#181818" points="2445,954.4199,2455,958.4199,2445,962.4199,2449,958.4199" style="stroke:#181818;stroke-width:1.0;"/><line style="stroke:#181818;stroke-width:1.0;" x1="1067.5" x2="2451" y1="958.4199" y2="958.4199"/><text fill="#000000" font-family="sans-serif" font-size="13" font-weight="bold" lengthAdjust="spacing" textLength="14" x="1074.5" y="953.1572">22</text><text fill="#000000" font-family="sans-serif" font-size="13" lengthAdjust="spacing" textLength="66" x="1092.5" y="953.1572">save(exam)</text><line style="stroke:#181818;stroke-width:1.0;" x1="2467" x2="2509" y1="989.7109" y2="989.7109"/><line style="stroke:#181818;stroke-width:1.0;" x1="2509" x2="2509" y1="989.7109" y2="1002.7109"/><line style="stroke:#181818;stroke-width:1.0;" x1="2468" x2="2509" y1="1002.7109" y2="1002.7109"/><polygon fill="#181818" points="2478,998.7109,2468,1002.7109,2478,1006.7109,2474,1002.7109" style="stroke:#181818;stroke-width:1.0;"/><text fill="#000000" font-family="sans-serif" font-size="13" font-weight="bold" lengthAdjust="spacing" textLength="14" x="2474" y="984.4482">23</text><text fill="#000000" font-family="sans-serif" font-size="13" lengthAdjust="spacing" textLength="66" x="2492" y="984.4482">save(exam)</text><polygon fill="#181818" points="1078.5,1030.002,1068.5,1034.002,1078.5,1038.002,1074.5,1034.002" style="stroke:#181818;stroke-width:1.0;"/><line style="stroke:#181818;stroke-width:1.0;stroke-dasharray:2.0,2.0;" x1="1072.5" x2="2461" y1="1034.002" y2="1034.002"/><text fill="#000000" font-family="sans-serif" font-size="13" font-weight="bold" lengthAdjust="spacing" textLength="14" x="1084.5" y="1028.7393">24</text><text fill="#000000" font-family="sans-serif" font-size="13" lengthAdjust="spacing" textLength="4" x="1102.5" y="1028.7393">&#160;</text><polygon fill="#181818" points="446.5,1061.293,436.5,1065.293,446.5,1069.293,442.5,1065.293" style="stroke:#181818;stroke-width:1.0;"/><line style="stroke:#181818;stroke-width:1.0;stroke-dasharray:2.0,2.0;" x1="440.5" x2="1061.5" y1="1065.293" y2="1065.293"/><text fill="#000000" font-family="sans-serif" font-size="13" font-weight="bold" lengthAdjust="spacing" textLength="14" x="452.5" y="1060.0303">25</text><text fill="#000000" font-family="sans-serif" font-size="13" lengthAdjust="spacing" textLength="4" x="470.5" y="1060.0303">&#160;</text><polygon fill="#181818" points="50.5,1092.584,40.5,1096.584,50.5,1100.584,46.5,1096.584" style="stroke:#181818;stroke-width:1.0;"/><line style="stroke:#181818;stroke-width:1.0;stroke-dasharray:2.0,2.0;" x1="44.5" x2="429.5" y1="1096.584" y2="1096.584"/><text fill="#000000" font-family="sans-serif" font-size="13" font-weight="bold" lengthAdjust="spacing" textLength="14" x="56.5" y="1091.3213">26</text><text fill="#000000" font-family="sans-serif" font-size="13" lengthAdjust="spacing" textLength="344" x="74.5" y="1091.3213">confirm the creation of the formative exam was successfully</text><!--SRC=[ZLHDKzim4BthLsYuD642t5qcCmo4bXae8O6UUX7o6ZIrPIF98VxttPLZMOAaxSKZUT- -VVkX_VBgN6EpixEc5DgrLNagw-hCmbiBMi99hiIB4HLZedMrRgjdC8nTI5SR_WX2leBXml8xeHbhX75AgWPf-55sQK0ukAvD9PpQm68hggUR8m8_tVmRUbbhP-go1EDTyCfouSIpiC1NqDHMeOBkMf2GZX3N5oj-Vcw2QJvFWbWm6oNX6xY75gnJjRRaHNTqsrdH9mGPO6CmmZ_yDSXFCAheaZpMFJFveZK95NicFhUmxQkwsDuUHYs5iGDiUHZM0p0mQATS5wUOuD8y5tUhH2jZs65-CiVUyOol7KQpN5BRb7xXWcju7-auyJ5iZTfWM_riX0lsdY772L8HOuR1VbjUu3IvL-10WcMTmmo_BURNdtzfRz2Ymei_vc2bKGqrQFY3x8Ja_Opoki2UIz_e6NTT0_JdBVHUwS7ymMaVX0kTXxEidQ03oo79AYuGnRC-8uFlI1d8IPz8or3MTTCNOqxpZMw-eB3k0qs8PBPJTb-4iRtHwq7uJj9LN8n1_-LEPa0z8jtqAnirq9kYk1WU7myRplv9PFmbUYd_8UNjqtEPHg68atbY381lAEE5qlbpHxoUV3fY7rOC4GTnP1jLXcx5tK26FbOex5wO5pLatUE6YJaLUJxPNMwfQ1xbknipK0KPu6mSQcNomYOqfp_237y7aOEv-ZZ8LtwEmQ_0yHtGURgtTRHLChxvl7acXIg1miMDG3GZ3tJ4vN9ypBFHHjics9OVRKk6Tby37n5lo-WsECPg8W5HpIXASbtslaFbM6mbkKEYYor9ufzBsjU9JZEa6AfrkX5b2_V592hWD73TqMnPiG7F45KMBOoi-q3-Vz0P9u5EuuIaDZyZoSQJjIwKgVnww5SekkBceNiHTgXVQk-uYcqh9LXRj6NPfJld3m00]--></g></svg>