<?xml version="1.0" encoding="us-ascii" standalone="no"?><svg xmlns="http://www.w3.org/2000/svg" xmlns:xlink="http://www.w3.org/1999/xlink" contentStyleType="text/css" height="132px" preserveAspectRatio="none" style="width:314px;height:132px;background:#FFFFFF;" version="1.1" viewBox="0 0 314 132" width="314px" zoomAndPan="magnify"><defs/><g><!--entity Teacher--><g id="elem_Teacher"><ellipse cx="32.5" cy="35" fill="#F1F1F1" rx="8" ry="8" style="stroke:#181818;stroke-width:0.5;"/><path d="M32.5,43 L32.5,70 M19.5,51 L45.5,51 M32.5,70 L19.5,85 M32.5,70 L45.5,85 " fill="none" style="stroke:#181818;stroke-width:0.5;"/><text fill="#000000" font-family="sans-serif" font-size="14" lengthAdjust="spacing" textLength="53" x="6" y="101.6074">Teacher</text></g><g id="elem_UC1"><ellipse cx="214.0286" cy="27.2057" fill="#F1F1F1" rx="94.0286" ry="21.2057" style="stroke:#181818;stroke-width:0.5;"/><text fill="#000000" font-family="sans-serif" font-size="14" lengthAdjust="spacing" textLength="144" x="139.0286" y="32.0094">Create FormativeExam</text></g><g id="elem_UC2"><ellipse cx="213.8554" cy="104.8711" fill="#F1F1F1" rx="94.8554" ry="21.3711" style="stroke:#181818;stroke-width:0.5;"/><text fill="#000000" font-family="sans-serif" font-size="14" lengthAdjust="spacing" textLength="146" x="138.1093" y="109.6">Update FormativeExam</text></g><!--link Teacher to UC1--><g id="link_Teacher_UC1"><path d="M59.22,60.41 C80.57,55.77 112.01,48.94 140.91,42.66 " fill="none" id="Teacher-to-UC1" style="stroke:#181818;stroke-width:1.0;"/><polygon fill="#181818" points="145.9,41.58,136.2576,39.5738,141.0131,42.6374,137.9495,47.3929,145.9,41.58" style="stroke:#181818;stroke-width:1.0;"/></g><!--link Teacher to UC2--><g id="link_Teacher_UC2"><path d="M59.22,71.59 C80.29,76.17 111.2,82.88 139.79,89.09 " fill="none" id="Teacher-to-UC2" style="stroke:#181818;stroke-width:1.0;"/><polygon fill="#181818" points="144.73,90.17,136.7795,84.3571,139.8431,89.1126,135.0876,92.1762,144.73,90.17" style="stroke:#181818;stroke-width:1.0;"/></g><!--SRC=[oqbDAr4eoLSeoapFA558oInAJIx9pC_ZIamkoIzI24bDJCv8BU8gBKvDJYnELL1oBafDB4bLSCiloaqioInBTQr8p5LII2nM27KsHAWABKZ1fSg82sgcWgwk7LWNAjy80000]--></g></svg>