<?xml version="1.0" encoding="us-ascii" standalone="no"?><svg xmlns="http://www.w3.org/2000/svg" xmlns:xlink="http://www.w3.org/1999/xlink" contentStyleType="text/css" height="781px" preserveAspectRatio="none" style="width:1576px;height:781px;background:#FFFFFF;" version="1.1" viewBox="0 0 1576 781" width="1576px" zoomAndPan="magnify"><defs/><g><!--cluster ECOURSESYSTEMUSER--><g id="cluster_ECOURSESYSTEMUSER"><path d="M46.8,6.0137 L211.8,6.0137 A3.75,3.75 0 0 1 214.3,8.5137 L221.3,30.6348 L1152.8,30.6348 A2.5,2.5 0 0 1 1155.3,33.1348 L1155.3,604.0137 A2.5,2.5 0 0 1 1152.8,606.5137 L46.8,606.5137 A2.5,2.5 0 0 1 44.3,604.0137 L44.3,8.5137 A2.5,2.5 0 0 1 46.8,6.0137 " fill="none" style="stroke:#000000;stroke-width:1.5;"/><line style="stroke:#000000;stroke-width:1.5;" x1="44.3" x2="221.3" y1="30.6348" y2="30.6348"/><text fill="#000000" font-family="sans-serif" font-size="14" font-weight="bold" lengthAdjust="spacing" textLength="164" x="48.3" y="23.1211">ECOURSESYSTEMUSER</text><text fill="#000000" font-family="sans-serif" font-size="14" font-style="italic" lengthAdjust="spacing" textLength="82" x="562.8" y="47.7422">&#171;Aggregate&#187;</text></g><!--cluster SHAREBOARD--><g id="cluster_SHAREBOARD"><path d="M1181.8,204.0137 L1279.8,204.0137 A3.75,3.75 0 0 1 1282.3,206.5137 L1289.3,228.6348 L1566.8,228.6348 A2.5,2.5 0 0 1 1569.3,231.1348 L1569.3,771.5137 A2.5,2.5 0 0 1 1566.8,774.0137 L1181.8,774.0137 A2.5,2.5 0 0 1 1179.3,771.5137 L1179.3,206.5137 A2.5,2.5 0 0 1 1181.8,204.0137 " fill="none" style="stroke:#000000;stroke-width:1.5;"/><line style="stroke:#000000;stroke-width:1.5;" x1="1179.3" x2="1289.3" y1="228.6348" y2="228.6348"/><text fill="#000000" font-family="sans-serif" font-size="14" font-weight="bold" lengthAdjust="spacing" textLength="97" x="1183.3" y="221.1211">SHAREBOARD</text><text fill="#000000" font-family="sans-serif" font-size="14" font-style="italic" lengthAdjust="spacing" textLength="81" x="1337.8" y="245.7422">&#171;aggregate&#187;</text></g><!--class SystemUser--><g id="elem_SystemUser"><rect codeLine="6" fill="#F1F1F1" height="113.7852" id="SystemUser" rx="2.5" ry="2.5" style="stroke:#181818;stroke-width:0.5;" width="107" x="97.8" y="278.5137"/><ellipse cx="112.8" cy="308.7852" fill="#ADD1B2" rx="11" ry="11" style="stroke:#181818;stroke-width:1.0;"/><path d="M115.5656,304.6602 Q115.7219,304.4414 115.9094,304.332 Q116.0969,304.2227 116.3156,304.2227 Q116.6906,304.2227 116.925,304.4883 Q117.1594,304.7383 117.1594,305.3477 L117.1594,306.8008 Q117.1594,307.4102 116.925,307.6758 Q116.6906,307.9414 116.3156,307.9414 Q115.9719,307.9414 115.7688,307.7383 Q115.5656,307.5508 115.4563,307.0352 Q115.4094,306.6758 115.2219,306.4883 Q114.8938,306.1133 114.2844,305.8945 Q113.675,305.6758 113.05,305.6758 Q112.2844,305.6758 111.6438,306.0039 Q111.0188,306.332 110.5188,307.082 Q110.0344,307.832 110.0344,308.8633 L110.0344,309.957 Q110.0344,311.1914 110.925,312.0195 Q111.8156,312.832 113.4094,312.832 Q114.3469,312.832 115.0031,312.582 Q115.3938,312.4258 115.8156,311.9883 Q116.0813,311.7227 116.2219,311.6445 Q116.3781,311.5664 116.5813,311.5664 Q116.9094,311.5664 117.1594,311.832 Q117.425,312.082 117.425,312.4258 Q117.425,312.7695 117.0813,313.1758 Q116.5813,313.7539 115.7844,314.082 Q114.7063,314.5352 113.4094,314.5352 Q111.8938,314.5352 110.6906,313.9102 Q109.7063,313.4102 109.0188,312.3477 Q108.3313,311.2695 108.3313,309.9883 L108.3313,308.832 Q108.3313,307.5039 108.9406,306.3633 Q109.5656,305.207 110.6594,304.5977 Q111.7531,303.9727 112.9875,303.9727 Q113.7219,303.9727 114.3625,304.1445 Q115.0188,304.3008 115.5656,304.6602 Z " fill="#000000"/><text fill="#000000" font-family="sans-serif" font-size="12" font-style="italic" lengthAdjust="spacing" textLength="35" x="146.8" y="296.4629">&#171;root&#187;</text><text fill="#000000" font-family="sans-serif" font-size="12" font-style="italic" lengthAdjust="spacing" textLength="44" x="142.3" y="312.4238">&#171;Entity&#187;</text><text fill="#000000" font-family="sans-serif" font-size="14" lengthAdjust="spacing" textLength="75" x="126.8" y="330.543">SystemUser</text><line style="stroke:#181818;stroke-width:0.5;" x1="98.8" x2="203.8" y1="339.0566" y2="339.0566"/><ellipse cx="108.8" cy="353.8672" fill="#000000" rx="3" ry="3" style="stroke:#000000;stroke-width:1.0;"/><text fill="#000000" font-family="sans-serif" font-size="14" lengthAdjust="spacing" textLength="36" x="117.8" y="358.1641">Name</text><ellipse cx="108.8" cy="372.4883" fill="#000000" rx="3" ry="3" style="stroke:#000000;stroke-width:1.0;"/><text fill="#000000" font-family="sans-serif" font-size="14" lengthAdjust="spacing" textLength="64" x="117.8" y="376.7852">Username</text><line style="stroke:#181818;stroke-width:0.5;" x1="98.8" x2="203.8" y1="384.2988" y2="384.2988"/></g><!--class eCourseSystemUser--><g id="elem_eCourseSystemUser"><rect codeLine="11" fill="#F1F1F1" height="76.543" id="eCourseSystemUser" rx="2.5" ry="2.5" style="stroke:#181818;stroke-width:0.5;" width="161" x="553.8" y="62.0137"/><ellipse cx="568.8" cy="92.2852" fill="#ADD1B2" rx="11" ry="11" style="stroke:#181818;stroke-width:1.0;"/><path d="M571.5656,88.1602 Q571.7219,87.9414 571.9094,87.832 Q572.0969,87.7227 572.3156,87.7227 Q572.6906,87.7227 572.925,87.9883 Q573.1594,88.2383 573.1594,88.8477 L573.1594,90.3008 Q573.1594,90.9102 572.925,91.1758 Q572.6906,91.4414 572.3156,91.4414 Q571.9719,91.4414 571.7688,91.2383 Q571.5656,91.0508 571.4563,90.5352 Q571.4094,90.1758 571.2219,89.9883 Q570.8938,89.6133 570.2844,89.3945 Q569.675,89.1758 569.05,89.1758 Q568.2844,89.1758 567.6438,89.5039 Q567.0188,89.832 566.5188,90.582 Q566.0344,91.332 566.0344,92.3633 L566.0344,93.457 Q566.0344,94.6914 566.925,95.5195 Q567.8156,96.332 569.4094,96.332 Q570.3469,96.332 571.0031,96.082 Q571.3938,95.9258 571.8156,95.4883 Q572.0813,95.2227 572.2219,95.1445 Q572.3781,95.0664 572.5813,95.0664 Q572.9094,95.0664 573.1594,95.332 Q573.425,95.582 573.425,95.9258 Q573.425,96.2695 573.0813,96.6758 Q572.5813,97.2539 571.7844,97.582 Q570.7063,98.0352 569.4094,98.0352 Q567.8938,98.0352 566.6906,97.4102 Q565.7063,96.9102 565.0188,95.8477 Q564.3313,94.7695 564.3313,93.4883 L564.3313,92.332 Q564.3313,91.0039 564.9406,89.8633 Q565.5656,88.707 566.6594,88.0977 Q567.7531,87.4727 568.9875,87.4727 Q569.7219,87.4727 570.3625,87.6445 Q571.0188,87.8008 571.5656,88.1602 Z " fill="#000000"/><text fill="#000000" font-family="sans-serif" font-size="12" font-style="italic" lengthAdjust="spacing" textLength="35" x="629.8" y="79.9629">&#171;root&#187;</text><text fill="#000000" font-family="sans-serif" font-size="12" font-style="italic" lengthAdjust="spacing" textLength="44" x="625.3" y="95.9238">&#171;Entity&#187;</text><text fill="#000000" font-family="sans-serif" font-size="14" lengthAdjust="spacing" textLength="129" x="582.8" y="114.043">eCourseSystemUser</text><line style="stroke:#181818;stroke-width:0.5;" x1="554.8" x2="713.8" y1="122.5566" y2="122.5566"/><line style="stroke:#181818;stroke-width:0.5;" x1="554.8" x2="713.8" y1="130.5566" y2="130.5566"/></g><!--class EmailAdderss--><g id="elem_EmailAdderss"><rect codeLine="15" fill="#F1F1F1" height="60.582" id="EmailAdderss" rx="2.5" ry="2.5" style="stroke:#181818;stroke-width:0.5;" width="118" x="197.3" y="520.5137"/><ellipse cx="212.3" cy="542.8047" fill="#ADD1B2" rx="11" ry="11" style="stroke:#181818;stroke-width:1.0;"/><path d="M215.0656,538.6797 Q215.2219,538.4609 215.4094,538.3516 Q215.5969,538.2422 215.8156,538.2422 Q216.1906,538.2422 216.425,538.5078 Q216.6594,538.7578 216.6594,539.3672 L216.6594,540.8203 Q216.6594,541.4297 216.425,541.6953 Q216.1906,541.9609 215.8156,541.9609 Q215.4719,541.9609 215.2688,541.7578 Q215.0656,541.5703 214.9563,541.0547 Q214.9094,540.6953 214.7219,540.5078 Q214.3938,540.1328 213.7844,539.9141 Q213.175,539.6953 212.55,539.6953 Q211.7844,539.6953 211.1438,540.0234 Q210.5188,540.3516 210.0188,541.1016 Q209.5344,541.8516 209.5344,542.8828 L209.5344,543.9766 Q209.5344,545.2109 210.425,546.0391 Q211.3156,546.8516 212.9094,546.8516 Q213.8469,546.8516 214.5031,546.6016 Q214.8938,546.4453 215.3156,546.0078 Q215.5813,545.7422 215.7219,545.6641 Q215.8781,545.5859 216.0813,545.5859 Q216.4094,545.5859 216.6594,545.8516 Q216.925,546.1016 216.925,546.4453 Q216.925,546.7891 216.5813,547.1953 Q216.0813,547.7734 215.2844,548.1016 Q214.2063,548.5547 212.9094,548.5547 Q211.3938,548.5547 210.1906,547.9297 Q209.2063,547.4297 208.5188,546.3672 Q207.8313,545.2891 207.8313,544.0078 L207.8313,542.8516 Q207.8313,541.5234 208.4406,540.3828 Q209.0656,539.2266 210.1594,538.6172 Q211.2531,537.9922 212.4875,537.9922 Q213.2219,537.9922 213.8625,538.1641 Q214.5188,538.3203 215.0656,538.6797 Z " fill="#000000"/><text fill="#000000" font-family="sans-serif" font-size="12" font-style="italic" lengthAdjust="spacing" textLength="83" x="227.8" y="538.4629">&#171;Value object&#187;</text><text fill="#000000" font-family="sans-serif" font-size="14" lengthAdjust="spacing" textLength="86" x="226.3" y="556.582">EmailAdderss</text><line style="stroke:#181818;stroke-width:0.5;" x1="198.3" x2="314.3" y1="565.0957" y2="565.0957"/><line style="stroke:#181818;stroke-width:0.5;" x1="198.3" x2="314.3" y1="573.0957" y2="573.0957"/></g><!--class Role--><g id="elem_Role"><rect codeLine="17" fill="#F1F1F1" height="79.2031" id="Role" rx="2.5" ry="2.5" style="stroke:#181818;stroke-width:0.5;" width="102" x="60.3" y="511.5137"/><ellipse cx="88.8" cy="533.8047" fill="#ADD1B2" rx="11" ry="11" style="stroke:#181818;stroke-width:1.0;"/><path d="M91.5656,529.6797 Q91.7219,529.4609 91.9094,529.3516 Q92.0969,529.2422 92.3156,529.2422 Q92.6906,529.2422 92.925,529.5078 Q93.1594,529.7578 93.1594,530.3672 L93.1594,531.8203 Q93.1594,532.4297 92.925,532.6953 Q92.6906,532.9609 92.3156,532.9609 Q91.9719,532.9609 91.7688,532.7578 Q91.5656,532.5703 91.4563,532.0547 Q91.4094,531.6953 91.2219,531.5078 Q90.8938,531.1328 90.2844,530.9141 Q89.675,530.6953 89.05,530.6953 Q88.2844,530.6953 87.6438,531.0234 Q87.0188,531.3516 86.5188,532.1016 Q86.0344,532.8516 86.0344,533.8828 L86.0344,534.9766 Q86.0344,536.2109 86.925,537.0391 Q87.8156,537.8516 89.4094,537.8516 Q90.3469,537.8516 91.0031,537.6016 Q91.3938,537.4453 91.8156,537.0078 Q92.0813,536.7422 92.2219,536.6641 Q92.3781,536.5859 92.5813,536.5859 Q92.9094,536.5859 93.1594,536.8516 Q93.425,537.1016 93.425,537.4453 Q93.425,537.7891 93.0813,538.1953 Q92.5813,538.7734 91.7844,539.1016 Q90.7063,539.5547 89.4094,539.5547 Q87.8938,539.5547 86.6906,538.9297 Q85.7063,538.4297 85.0188,537.3672 Q84.3313,536.2891 84.3313,535.0078 L84.3313,533.8516 Q84.3313,532.5234 84.9406,531.3828 Q85.5656,530.2266 86.6594,529.6172 Q87.7531,528.9922 88.9875,528.9922 Q89.7219,528.9922 90.3625,529.1641 Q91.0188,529.3203 91.5656,529.6797 Z " fill="#000000"/><text fill="#000000" font-family="sans-serif" font-size="12" font-style="italic" lengthAdjust="spacing" textLength="44" x="103.8" y="529.4629">&#171;Entity&#187;</text><text fill="#000000" font-family="sans-serif" font-size="14" lengthAdjust="spacing" textLength="29" x="111.3" y="547.582">Role</text><line style="stroke:#181818;stroke-width:0.5;" x1="61.3" x2="161.3" y1="556.0957" y2="556.0957"/><ellipse cx="71.3" cy="570.9063" fill="#000000" rx="3" ry="3" style="stroke:#000000;stroke-width:1.0;"/><text fill="#000000" font-family="sans-serif" font-size="14" lengthAdjust="spacing" textLength="76" x="80.3" y="575.2031">String name</text><line style="stroke:#181818;stroke-width:0.5;" x1="61.3" x2="161.3" y1="582.7168" y2="582.7168"/></g><!--class UserStatus--><g id="elem_UserStatus"><rect codeLine="21" fill="#F1F1F1" height="97.8242" id="UserStatus" rx="2.5" ry="2.5" style="stroke:#181818;stroke-width:0.5;" width="101" x="239.8" y="286.5137"/><ellipse cx="254.8" cy="308.8047" fill="#ADD1B2" rx="11" ry="11" style="stroke:#181818;stroke-width:1.0;"/><path d="M257.5656,304.6797 Q257.7219,304.4609 257.9094,304.3516 Q258.0969,304.2422 258.3156,304.2422 Q258.6906,304.2422 258.925,304.5078 Q259.1594,304.7578 259.1594,305.3672 L259.1594,306.8203 Q259.1594,307.4297 258.925,307.6953 Q258.6906,307.9609 258.3156,307.9609 Q257.9719,307.9609 257.7688,307.7578 Q257.5656,307.5703 257.4563,307.0547 Q257.4094,306.6953 257.2219,306.5078 Q256.8938,306.1328 256.2844,305.9141 Q255.675,305.6953 255.05,305.6953 Q254.2844,305.6953 253.6438,306.0234 Q253.0188,306.3516 252.5188,307.1016 Q252.0344,307.8516 252.0344,308.8828 L252.0344,309.9766 Q252.0344,311.2109 252.925,312.0391 Q253.8156,312.8516 255.4094,312.8516 Q256.3469,312.8516 257.0031,312.6016 Q257.3938,312.4453 257.8156,312.0078 Q258.0813,311.7422 258.2219,311.6641 Q258.3781,311.5859 258.5813,311.5859 Q258.9094,311.5859 259.1594,311.8516 Q259.425,312.1016 259.425,312.4453 Q259.425,312.7891 259.0813,313.1953 Q258.5813,313.7734 257.7844,314.1016 Q256.7063,314.5547 255.4094,314.5547 Q253.8938,314.5547 252.6906,313.9297 Q251.7063,313.4297 251.0188,312.3672 Q250.3313,311.2891 250.3313,310.0078 L250.3313,308.8516 Q250.3313,307.5234 250.9406,306.3828 Q251.5656,305.2266 252.6594,304.6172 Q253.7531,303.9922 254.9875,303.9922 Q255.7219,303.9922 256.3625,304.1641 Q257.0188,304.3203 257.5656,304.6797 Z " fill="#000000"/><text fill="#000000" font-family="sans-serif" font-size="12" font-style="italic" lengthAdjust="spacing" textLength="46" x="280.3" y="304.4629">&#171;enum&#187;</text><text fill="#000000" font-family="sans-serif" font-size="14" lengthAdjust="spacing" textLength="69" x="268.8" y="322.582">UserStatus</text><line style="stroke:#181818;stroke-width:0.5;" x1="240.8" x2="339.8" y1="331.0957" y2="331.0957"/><ellipse cx="250.8" cy="345.9063" fill="none" rx="3" ry="3" style="stroke:#038048;stroke-width:1.0;"/><text fill="#000000" font-family="sans-serif" font-size="14" lengthAdjust="spacing" textLength="53" x="259.8" y="350.2031">ENABLE</text><ellipse cx="250.8" cy="364.5273" fill="none" rx="3" ry="3" style="stroke:#038048;stroke-width:1.0;"/><text fill="#000000" font-family="sans-serif" font-size="14" lengthAdjust="spacing" textLength="57" x="259.8" y="368.8242">DISABLE</text><line style="stroke:#181818;stroke-width:0.5;" x1="240.8" x2="339.8" y1="376.3379" y2="376.3379"/></g><!--class Password--><g id="elem_Password"><rect codeLine="26" fill="#F1F1F1" height="60.582" id="Password" rx="2.5" ry="2.5" style="stroke:#181818;stroke-width:0.5;" width="109" x="350.8" y="520.5137"/><ellipse cx="365.8" cy="542.8047" fill="#ADD1B2" rx="11" ry="11" style="stroke:#181818;stroke-width:1.0;"/><path d="M368.5656,538.6797 Q368.7219,538.4609 368.9094,538.3516 Q369.0969,538.2422 369.3156,538.2422 Q369.6906,538.2422 369.925,538.5078 Q370.1594,538.7578 370.1594,539.3672 L370.1594,540.8203 Q370.1594,541.4297 369.925,541.6953 Q369.6906,541.9609 369.3156,541.9609 Q368.9719,541.9609 368.7688,541.7578 Q368.5656,541.5703 368.4563,541.0547 Q368.4094,540.6953 368.2219,540.5078 Q367.8938,540.1328 367.2844,539.9141 Q366.675,539.6953 366.05,539.6953 Q365.2844,539.6953 364.6438,540.0234 Q364.0188,540.3516 363.5188,541.1016 Q363.0344,541.8516 363.0344,542.8828 L363.0344,543.9766 Q363.0344,545.2109 363.925,546.0391 Q364.8156,546.8516 366.4094,546.8516 Q367.3469,546.8516 368.0031,546.6016 Q368.3938,546.4453 368.8156,546.0078 Q369.0813,545.7422 369.2219,545.6641 Q369.3781,545.5859 369.5813,545.5859 Q369.9094,545.5859 370.1594,545.8516 Q370.425,546.1016 370.425,546.4453 Q370.425,546.7891 370.0813,547.1953 Q369.5813,547.7734 368.7844,548.1016 Q367.7063,548.5547 366.4094,548.5547 Q364.8938,548.5547 363.6906,547.9297 Q362.7063,547.4297 362.0188,546.3672 Q361.3313,545.2891 361.3313,544.0078 L361.3313,542.8516 Q361.3313,541.5234 361.9406,540.3828 Q362.5656,539.2266 363.6594,538.6172 Q364.7531,537.9922 365.9875,537.9922 Q366.7219,537.9922 367.3625,538.1641 Q368.0188,538.3203 368.5656,538.6797 Z " fill="#000000"/><text fill="#000000" font-family="sans-serif" font-size="12" font-style="italic" lengthAdjust="spacing" textLength="81" x="377.8" y="538.4629">&#171;value object&#187;</text><text fill="#000000" font-family="sans-serif" font-size="14" lengthAdjust="spacing" textLength="61" x="387.8" y="556.582">Password</text><line style="stroke:#181818;stroke-width:0.5;" x1="351.8" x2="458.8" y1="565.0957" y2="565.0957"/><line style="stroke:#181818;stroke-width:0.5;" x1="351.8" x2="458.8" y1="573.0957" y2="573.0957"/></g><!--class Acronym--><g id="elem_Acronym"><rect codeLine="28" fill="#F1F1F1" height="60.582" id="Acronym" rx="2.5" ry="2.5" style="stroke:#181818;stroke-width:0.5;" width="109" x="375.8" y="305.0137"/><ellipse cx="390.8" cy="327.3047" fill="#ADD1B2" rx="11" ry="11" style="stroke:#181818;stroke-width:1.0;"/><path d="M393.5656,323.1797 Q393.7219,322.9609 393.9094,322.8516 Q394.0969,322.7422 394.3156,322.7422 Q394.6906,322.7422 394.925,323.0078 Q395.1594,323.2578 395.1594,323.8672 L395.1594,325.3203 Q395.1594,325.9297 394.925,326.1953 Q394.6906,326.4609 394.3156,326.4609 Q393.9719,326.4609 393.7688,326.2578 Q393.5656,326.0703 393.4563,325.5547 Q393.4094,325.1953 393.2219,325.0078 Q392.8938,324.6328 392.2844,324.4141 Q391.675,324.1953 391.05,324.1953 Q390.2844,324.1953 389.6438,324.5234 Q389.0188,324.8516 388.5188,325.6016 Q388.0344,326.3516 388.0344,327.3828 L388.0344,328.4766 Q388.0344,329.7109 388.925,330.5391 Q389.8156,331.3516 391.4094,331.3516 Q392.3469,331.3516 393.0031,331.1016 Q393.3938,330.9453 393.8156,330.5078 Q394.0813,330.2422 394.2219,330.1641 Q394.3781,330.0859 394.5813,330.0859 Q394.9094,330.0859 395.1594,330.3516 Q395.425,330.6016 395.425,330.9453 Q395.425,331.2891 395.0813,331.6953 Q394.5813,332.2734 393.7844,332.6016 Q392.7063,333.0547 391.4094,333.0547 Q389.8938,333.0547 388.6906,332.4297 Q387.7063,331.9297 387.0188,330.8672 Q386.3313,329.7891 386.3313,328.5078 L386.3313,327.3516 Q386.3313,326.0234 386.9406,324.8828 Q387.5656,323.7266 388.6594,323.1172 Q389.7531,322.4922 390.9875,322.4922 Q391.7219,322.4922 392.3625,322.6641 Q393.0188,322.8203 393.5656,323.1797 Z " fill="#000000"/><text fill="#000000" font-family="sans-serif" font-size="12" font-style="italic" lengthAdjust="spacing" textLength="81" x="402.8" y="322.9629">&#171;value object&#187;</text><text fill="#000000" font-family="sans-serif" font-size="14" lengthAdjust="spacing" textLength="55" x="415.8" y="341.082">Acronym</text><line style="stroke:#181818;stroke-width:0.5;" x1="376.8" x2="483.8" y1="349.5957" y2="349.5957"/><line style="stroke:#181818;stroke-width:0.5;" x1="376.8" x2="483.8" y1="357.5957" y2="357.5957"/></g><!--class NIF--><g id="elem_NIF"><rect codeLine="30" fill="#F1F1F1" height="60.582" id="NIF" rx="2.5" ry="2.5" style="stroke:#181818;stroke-width:0.5;" width="109" x="519.8" y="305.0137"/><ellipse cx="534.8" cy="327.3047" fill="#ADD1B2" rx="11" ry="11" style="stroke:#181818;stroke-width:1.0;"/><path d="M537.5656,323.1797 Q537.7219,322.9609 537.9094,322.8516 Q538.0969,322.7422 538.3156,322.7422 Q538.6906,322.7422 538.925,323.0078 Q539.1594,323.2578 539.1594,323.8672 L539.1594,325.3203 Q539.1594,325.9297 538.925,326.1953 Q538.6906,326.4609 538.3156,326.4609 Q537.9719,326.4609 537.7688,326.2578 Q537.5656,326.0703 537.4563,325.5547 Q537.4094,325.1953 537.2219,325.0078 Q536.8938,324.6328 536.2844,324.4141 Q535.675,324.1953 535.05,324.1953 Q534.2844,324.1953 533.6438,324.5234 Q533.0188,324.8516 532.5188,325.6016 Q532.0344,326.3516 532.0344,327.3828 L532.0344,328.4766 Q532.0344,329.7109 532.925,330.5391 Q533.8156,331.3516 535.4094,331.3516 Q536.3469,331.3516 537.0031,331.1016 Q537.3938,330.9453 537.8156,330.5078 Q538.0813,330.2422 538.2219,330.1641 Q538.3781,330.0859 538.5813,330.0859 Q538.9094,330.0859 539.1594,330.3516 Q539.425,330.6016 539.425,330.9453 Q539.425,331.2891 539.0813,331.6953 Q538.5813,332.2734 537.7844,332.6016 Q536.7063,333.0547 535.4094,333.0547 Q533.8938,333.0547 532.6906,332.4297 Q531.7063,331.9297 531.0188,330.8672 Q530.3313,329.7891 530.3313,328.5078 L530.3313,327.3516 Q530.3313,326.0234 530.9406,324.8828 Q531.5656,323.7266 532.6594,323.1172 Q533.7531,322.4922 534.9875,322.4922 Q535.7219,322.4922 536.3625,322.6641 Q537.0188,322.8203 537.5656,323.1797 Z " fill="#000000"/><text fill="#000000" font-family="sans-serif" font-size="12" font-style="italic" lengthAdjust="spacing" textLength="81" x="546.8" y="322.9629">&#171;value object&#187;</text><text fill="#000000" font-family="sans-serif" font-size="14" lengthAdjust="spacing" textLength="21" x="576.8" y="341.082">NIF</text><line style="stroke:#181818;stroke-width:0.5;" x1="520.8" x2="627.8" y1="349.5957" y2="349.5957"/><line style="stroke:#181818;stroke-width:0.5;" x1="520.8" x2="627.8" y1="357.5957" y2="357.5957"/></g><!--class BirthDate--><g id="elem_BirthDate"><rect codeLine="32" fill="#F1F1F1" height="60.582" id="BirthDate" rx="2.5" ry="2.5" style="stroke:#181818;stroke-width:0.5;" width="109" x="663.8" y="305.0137"/><ellipse cx="678.8" cy="327.3047" fill="#ADD1B2" rx="11" ry="11" style="stroke:#181818;stroke-width:1.0;"/><path d="M681.5656,323.1797 Q681.7219,322.9609 681.9094,322.8516 Q682.0969,322.7422 682.3156,322.7422 Q682.6906,322.7422 682.925,323.0078 Q683.1594,323.2578 683.1594,323.8672 L683.1594,325.3203 Q683.1594,325.9297 682.925,326.1953 Q682.6906,326.4609 682.3156,326.4609 Q681.9719,326.4609 681.7688,326.2578 Q681.5656,326.0703 681.4563,325.5547 Q681.4094,325.1953 681.2219,325.0078 Q680.8938,324.6328 680.2844,324.4141 Q679.675,324.1953 679.05,324.1953 Q678.2844,324.1953 677.6438,324.5234 Q677.0188,324.8516 676.5188,325.6016 Q676.0344,326.3516 676.0344,327.3828 L676.0344,328.4766 Q676.0344,329.7109 676.925,330.5391 Q677.8156,331.3516 679.4094,331.3516 Q680.3469,331.3516 681.0031,331.1016 Q681.3938,330.9453 681.8156,330.5078 Q682.0813,330.2422 682.2219,330.1641 Q682.3781,330.0859 682.5813,330.0859 Q682.9094,330.0859 683.1594,330.3516 Q683.425,330.6016 683.425,330.9453 Q683.425,331.2891 683.0813,331.6953 Q682.5813,332.2734 681.7844,332.6016 Q680.7063,333.0547 679.4094,333.0547 Q677.8938,333.0547 676.6906,332.4297 Q675.7063,331.9297 675.0188,330.8672 Q674.3313,329.7891 674.3313,328.5078 L674.3313,327.3516 Q674.3313,326.0234 674.9406,324.8828 Q675.5656,323.7266 676.6594,323.1172 Q677.7531,322.4922 678.9875,322.4922 Q679.7219,322.4922 680.3625,322.6641 Q681.0188,322.8203 681.5656,323.1797 Z " fill="#000000"/><text fill="#000000" font-family="sans-serif" font-size="12" font-style="italic" lengthAdjust="spacing" textLength="81" x="690.8" y="322.9629">&#171;value object&#187;</text><text fill="#000000" font-family="sans-serif" font-size="14" lengthAdjust="spacing" textLength="59" x="701.8" y="341.082">BirthDate</text><line style="stroke:#181818;stroke-width:0.5;" x1="664.8" x2="771.8" y1="349.5957" y2="349.5957"/><line style="stroke:#181818;stroke-width:0.5;" x1="664.8" x2="771.8" y1="357.5957" y2="357.5957"/></g><!--class MechanographicNumber--><g id="elem_MechanographicNumber"><rect codeLine="34" fill="#F1F1F1" height="76.543" id="MechanographicNumber" rx="2.5" ry="2.5" style="stroke:#181818;stroke-width:0.5;" width="186" x="808.3" y="297.0137"/><ellipse cx="823.3" cy="327.2852" fill="#ADD1B2" rx="11" ry="11" style="stroke:#181818;stroke-width:1.0;"/><path d="M826.0656,323.1602 Q826.2219,322.9414 826.4094,322.832 Q826.5969,322.7227 826.8156,322.7227 Q827.1906,322.7227 827.425,322.9883 Q827.6594,323.2383 827.6594,323.8477 L827.6594,325.3008 Q827.6594,325.9102 827.425,326.1758 Q827.1906,326.4414 826.8156,326.4414 Q826.4719,326.4414 826.2688,326.2383 Q826.0656,326.0508 825.9563,325.5352 Q825.9094,325.1758 825.7219,324.9883 Q825.3938,324.6133 824.7844,324.3945 Q824.175,324.1758 823.55,324.1758 Q822.7844,324.1758 822.1438,324.5039 Q821.5188,324.832 821.0188,325.582 Q820.5344,326.332 820.5344,327.3633 L820.5344,328.457 Q820.5344,329.6914 821.425,330.5195 Q822.3156,331.332 823.9094,331.332 Q824.8469,331.332 825.5031,331.082 Q825.8938,330.9258 826.3156,330.4883 Q826.5813,330.2227 826.7219,330.1445 Q826.8781,330.0664 827.0813,330.0664 Q827.4094,330.0664 827.6594,330.332 Q827.925,330.582 827.925,330.9258 Q827.925,331.2695 827.5813,331.6758 Q827.0813,332.2539 826.2844,332.582 Q825.2063,333.0352 823.9094,333.0352 Q822.3938,333.0352 821.1906,332.4102 Q820.2063,331.9102 819.5188,330.8477 Q818.8313,329.7695 818.8313,328.4883 L818.8313,327.332 Q818.8313,326.0039 819.4406,324.8633 Q820.0656,323.707 821.1594,323.0977 Q822.2531,322.4727 823.4875,322.4727 Q824.2219,322.4727 824.8625,322.6445 Q825.5188,322.8008 826.0656,323.1602 Z " fill="#000000"/><text fill="#000000" font-family="sans-serif" font-size="12" font-style="italic" lengthAdjust="spacing" textLength="81" x="873.8" y="314.9629">&#171;value object&#187;</text><text fill="#000000" font-family="sans-serif" font-size="12" font-style="italic" lengthAdjust="spacing" textLength="146" x="841.3" y="330.9238">&#171;automatically generated&#187;</text><text fill="#000000" font-family="sans-serif" font-size="14" lengthAdjust="spacing" textLength="154" x="837.3" y="349.043">MechanographicNumber</text><line style="stroke:#181818;stroke-width:0.5;" x1="809.3" x2="993.3" y1="357.5566" y2="357.5566"/><line style="stroke:#181818;stroke-width:0.5;" x1="809.3" x2="993.3" y1="365.5566" y2="365.5566"/></g><!--class Grade--><g id="elem_Grade"><rect codeLine="36" fill="#F1F1F1" height="60.582" id="Grade" rx="2.5" ry="2.5" style="stroke:#181818;stroke-width:0.5;" width="109" x="1029.8" y="305.0137"/><ellipse cx="1044.8" cy="327.3047" fill="#ADD1B2" rx="11" ry="11" style="stroke:#181818;stroke-width:1.0;"/><path d="M1047.5656,323.1797 Q1047.7219,322.9609 1047.9094,322.8516 Q1048.0969,322.7422 1048.3156,322.7422 Q1048.6906,322.7422 1048.925,323.0078 Q1049.1594,323.2578 1049.1594,323.8672 L1049.1594,325.3203 Q1049.1594,325.9297 1048.925,326.1953 Q1048.6906,326.4609 1048.3156,326.4609 Q1047.9719,326.4609 1047.7688,326.2578 Q1047.5656,326.0703 1047.4563,325.5547 Q1047.4094,325.1953 1047.2219,325.0078 Q1046.8938,324.6328 1046.2844,324.4141 Q1045.675,324.1953 1045.05,324.1953 Q1044.2844,324.1953 1043.6438,324.5234 Q1043.0188,324.8516 1042.5188,325.6016 Q1042.0344,326.3516 1042.0344,327.3828 L1042.0344,328.4766 Q1042.0344,329.7109 1042.925,330.5391 Q1043.8156,331.3516 1045.4094,331.3516 Q1046.3469,331.3516 1047.0031,331.1016 Q1047.3938,330.9453 1047.8156,330.5078 Q1048.0813,330.2422 1048.2219,330.1641 Q1048.3781,330.0859 1048.5813,330.0859 Q1048.9094,330.0859 1049.1594,330.3516 Q1049.425,330.6016 1049.425,330.9453 Q1049.425,331.2891 1049.0813,331.6953 Q1048.5813,332.2734 1047.7844,332.6016 Q1046.7063,333.0547 1045.4094,333.0547 Q1043.8938,333.0547 1042.6906,332.4297 Q1041.7063,331.9297 1041.0188,330.8672 Q1040.3313,329.7891 1040.3313,328.5078 L1040.3313,327.3516 Q1040.3313,326.0234 1040.9406,324.8828 Q1041.5656,323.7266 1042.6594,323.1172 Q1043.7531,322.4922 1044.9875,322.4922 Q1045.7219,322.4922 1046.3625,322.6641 Q1047.0188,322.8203 1047.5656,323.1797 Z " fill="#000000"/><text fill="#000000" font-family="sans-serif" font-size="12" font-style="italic" lengthAdjust="spacing" textLength="81" x="1056.8" y="322.9629">&#171;value object&#187;</text><text fill="#000000" font-family="sans-serif" font-size="14" lengthAdjust="spacing" textLength="40" x="1077.3" y="341.082">Grade</text><line style="stroke:#181818;stroke-width:0.5;" x1="1030.8" x2="1137.8" y1="349.5957" y2="349.5957"/><line style="stroke:#181818;stroke-width:0.5;" x1="1030.8" x2="1137.8" y1="357.5957" y2="357.5957"/></g><!--class SharedBoard--><g id="elem_SharedBoard"><rect codeLine="42" fill="#F1F1F1" height="151.0273" id="SharedBoard" rx="2.5" ry="2.5" style="stroke:#181818;stroke-width:0.5;" width="271" x="1195.8" y="260.0137"/><ellipse cx="1285.05" cy="290.2852" fill="#ADD1B2" rx="11" ry="11" style="stroke:#181818;stroke-width:1.0;"/><path d="M1287.8156,286.1602 Q1287.9719,285.9414 1288.1594,285.832 Q1288.3469,285.7227 1288.5656,285.7227 Q1288.9406,285.7227 1289.175,285.9883 Q1289.4094,286.2383 1289.4094,286.8477 L1289.4094,288.3008 Q1289.4094,288.9102 1289.175,289.1758 Q1288.9406,289.4414 1288.5656,289.4414 Q1288.2219,289.4414 1288.0188,289.2383 Q1287.8156,289.0508 1287.7063,288.5352 Q1287.6594,288.1758 1287.4719,287.9883 Q1287.1438,287.6133 1286.5344,287.3945 Q1285.925,287.1758 1285.3,287.1758 Q1284.5344,287.1758 1283.8938,287.5039 Q1283.2688,287.832 1282.7688,288.582 Q1282.2844,289.332 1282.2844,290.3633 L1282.2844,291.457 Q1282.2844,292.6914 1283.175,293.5195 Q1284.0656,294.332 1285.6594,294.332 Q1286.5969,294.332 1287.2531,294.082 Q1287.6438,293.9258 1288.0656,293.4883 Q1288.3313,293.2227 1288.4719,293.1445 Q1288.6281,293.0664 1288.8313,293.0664 Q1289.1594,293.0664 1289.4094,293.332 Q1289.675,293.582 1289.675,293.9258 Q1289.675,294.2695 1289.3313,294.6758 Q1288.8313,295.2539 1288.0344,295.582 Q1286.9563,296.0352 1285.6594,296.0352 Q1284.1438,296.0352 1282.9406,295.4102 Q1281.9563,294.9102 1281.2688,293.8477 Q1280.5813,292.7695 1280.5813,291.4883 L1280.5813,290.332 Q1280.5813,289.0039 1281.1906,287.8633 Q1281.8156,286.707 1282.9094,286.0977 Q1284.0031,285.4727 1285.2375,285.4727 Q1285.9719,285.4727 1286.6125,285.6445 Q1287.2688,285.8008 1287.8156,286.1602 Z " fill="#000000"/><text fill="#000000" font-family="sans-serif" font-size="12" font-style="italic" lengthAdjust="spacing" textLength="35" x="1330.05" y="277.9629">&#171;root&#187;</text><text fill="#000000" font-family="sans-serif" font-size="12" font-style="italic" lengthAdjust="spacing" textLength="43" x="1326.05" y="293.9238">&#171;entity&#187;</text><text fill="#000000" font-family="sans-serif" font-size="14" lengthAdjust="spacing" textLength="84" x="1305.55" y="312.043">SharedBoard</text><line style="stroke:#181818;stroke-width:0.5;" x1="1196.8" x2="1465.8" y1="320.5566" y2="320.5566"/><ellipse cx="1206.8" cy="335.3672" fill="#000000" rx="3" ry="3" style="stroke:#000000;stroke-width:1.0;"/><text fill="#000000" font-family="sans-serif" font-size="14" lengthAdjust="spacing" textLength="245" x="1215.8" y="339.6641">id &#171;unique&#187; &#171;automatically generated&#187;</text><ellipse cx="1206.8" cy="353.9883" fill="#000000" rx="3" ry="3" style="stroke:#000000;stroke-width:1.0;"/><text fill="#000000" font-family="sans-serif" font-size="14" lengthAdjust="spacing" textLength="73" x="1215.8" y="358.2852">boradName</text><ellipse cx="1206.8" cy="372.6094" fill="#000000" rx="3" ry="3" style="stroke:#000000;stroke-width:1.0;"/><text fill="#000000" font-family="sans-serif" font-size="14" lengthAdjust="spacing" textLength="59" x="1215.8" y="376.9063">maxRows</text><ellipse cx="1206.8" cy="391.2305" fill="#000000" rx="3" ry="3" style="stroke:#000000;stroke-width:1.0;"/><text fill="#000000" font-family="sans-serif" font-size="14" lengthAdjust="spacing" textLength="80" x="1215.8" y="395.5273">maxColumns</text><line style="stroke:#181818;stroke-width:0.5;" x1="1196.8" x2="1465.8" y1="403.041" y2="403.041"/></g><!--class Cell--><g id="elem_Cell"><rect codeLine="49" fill="#F1F1F1" height="85.2422" id="Cell" rx="2.5" ry="2.5" style="stroke:#181818;stroke-width:0.5;" width="73" x="1345.8" y="673.0137"/><ellipse cx="1368.45" cy="689.0137" fill="#ADD1B2" rx="11" ry="11" style="stroke:#181818;stroke-width:1.0;"/><path d="M1371.2156,684.8887 Q1371.3719,684.6699 1371.5594,684.5605 Q1371.7469,684.4512 1371.9656,684.4512 Q1372.3406,684.4512 1372.575,684.7168 Q1372.8094,684.9668 1372.8094,685.5762 L1372.8094,687.0293 Q1372.8094,687.6387 1372.575,687.9043 Q1372.3406,688.1699 1371.9656,688.1699 Q1371.6219,688.1699 1371.4188,687.9668 Q1371.2156,687.7793 1371.1063,687.2637 Q1371.0594,686.9043 1370.8719,686.7168 Q1370.5438,686.3418 1369.9344,686.123 Q1369.325,685.9043 1368.7,685.9043 Q1367.9344,685.9043 1367.2938,686.2324 Q1366.6688,686.5605 1366.1688,687.3105 Q1365.6844,688.0605 1365.6844,689.0918 L1365.6844,690.1855 Q1365.6844,691.4199 1366.575,692.248 Q1367.4656,693.0605 1369.0594,693.0605 Q1369.9969,693.0605 1370.6531,692.8105 Q1371.0438,692.6543 1371.4656,692.2168 Q1371.7313,691.9512 1371.8719,691.873 Q1372.0281,691.7949 1372.2313,691.7949 Q1372.5594,691.7949 1372.8094,692.0605 Q1373.075,692.3105 1373.075,692.6543 Q1373.075,692.998 1372.7313,693.4043 Q1372.2313,693.9824 1371.4344,694.3105 Q1370.3563,694.7637 1369.0594,694.7637 Q1367.5438,694.7637 1366.3406,694.1387 Q1365.3563,693.6387 1364.6688,692.5762 Q1363.9813,691.498 1363.9813,690.2168 L1363.9813,689.0605 Q1363.9813,687.7324 1364.5906,686.5918 Q1365.2156,685.4355 1366.3094,684.8262 Q1367.4031,684.2012 1368.6375,684.2012 Q1369.3719,684.2012 1370.0125,684.373 Q1370.6688,684.5293 1371.2156,684.8887 Z " fill="#000000"/><text fill="#000000" font-family="sans-serif" font-size="14" lengthAdjust="spacing" textLength="24" x="1384.15" y="694.8105">Cell</text><line style="stroke:#181818;stroke-width:0.5;" x1="1346.8" x2="1417.8" y1="705.0137" y2="705.0137"/><ellipse cx="1356.8" cy="719.8242" fill="#000000" rx="3" ry="3" style="stroke:#000000;stroke-width:1.0;"/><text fill="#000000" font-family="sans-serif" font-size="14" lengthAdjust="spacing" textLength="11" x="1365.8" y="724.1211">id</text><ellipse cx="1356.8" cy="738.4453" fill="#000000" rx="3" ry="3" style="stroke:#000000;stroke-width:1.0;"/><text fill="#000000" font-family="sans-serif" font-size="14" lengthAdjust="spacing" textLength="47" x="1365.8" y="742.7422">content</text><line style="stroke:#181818;stroke-width:0.5;" x1="1346.8" x2="1417.8" y1="750.2559" y2="750.2559"/></g><!--class NormalCell--><g id="elem_NormalCell"><rect codeLine="54" fill="#F1F1F1" height="122.4844" id="NormalCell" rx="2.5" ry="2.5" style="stroke:#181818;stroke-width:0.5;" width="100" x="1195.3" y="490.0137"/><ellipse cx="1210.3" cy="506.0137" fill="#ADD1B2" rx="11" ry="11" style="stroke:#181818;stroke-width:1.0;"/><path d="M1213.0656,501.8887 Q1213.2219,501.6699 1213.4094,501.5605 Q1213.5969,501.4512 1213.8156,501.4512 Q1214.1906,501.4512 1214.425,501.7168 Q1214.6594,501.9668 1214.6594,502.5762 L1214.6594,504.0293 Q1214.6594,504.6387 1214.425,504.9043 Q1214.1906,505.1699 1213.8156,505.1699 Q1213.4719,505.1699 1213.2688,504.9668 Q1213.0656,504.7793 1212.9563,504.2637 Q1212.9094,503.9043 1212.7219,503.7168 Q1212.3938,503.3418 1211.7844,503.123 Q1211.175,502.9043 1210.55,502.9043 Q1209.7844,502.9043 1209.1438,503.2324 Q1208.5188,503.5605 1208.0188,504.3105 Q1207.5344,505.0605 1207.5344,506.0918 L1207.5344,507.1855 Q1207.5344,508.4199 1208.425,509.248 Q1209.3156,510.0605 1210.9094,510.0605 Q1211.8469,510.0605 1212.5031,509.8105 Q1212.8938,509.6543 1213.3156,509.2168 Q1213.5813,508.9512 1213.7219,508.873 Q1213.8781,508.7949 1214.0813,508.7949 Q1214.4094,508.7949 1214.6594,509.0605 Q1214.925,509.3105 1214.925,509.6543 Q1214.925,509.998 1214.5813,510.4043 Q1214.0813,510.9824 1213.2844,511.3105 Q1212.2063,511.7637 1210.9094,511.7637 Q1209.3938,511.7637 1208.1906,511.1387 Q1207.2063,510.6387 1206.5188,509.5762 Q1205.8313,508.498 1205.8313,507.2168 L1205.8313,506.0605 Q1205.8313,504.7324 1206.4406,503.5918 Q1207.0656,502.4355 1208.1594,501.8262 Q1209.2531,501.2012 1210.4875,501.2012 Q1211.2219,501.2012 1211.8625,501.373 Q1212.5188,501.5293 1213.0656,501.8887 Z " fill="#000000"/><text fill="#000000" font-family="sans-serif" font-size="14" lengthAdjust="spacing" textLength="68" x="1224.3" y="511.8105">NormalCell</text><line style="stroke:#181818;stroke-width:0.5;" x1="1196.3" x2="1294.3" y1="522.0137" y2="522.0137"/><ellipse cx="1206.3" cy="536.8242" fill="#000000" rx="3" ry="3" style="stroke:#000000;stroke-width:1.0;"/><text fill="#000000" font-family="sans-serif" font-size="14" lengthAdjust="spacing" textLength="11" x="1215.3" y="541.1211">id</text><ellipse cx="1206.3" cy="555.4453" fill="#000000" rx="3" ry="3" style="stroke:#000000;stroke-width:1.0;"/><text fill="#000000" font-family="sans-serif" font-size="14" lengthAdjust="spacing" textLength="22" x="1215.3" y="559.7422">row</text><ellipse cx="1206.3" cy="574.0664" fill="#000000" rx="3" ry="3" style="stroke:#000000;stroke-width:1.0;"/><text fill="#000000" font-family="sans-serif" font-size="14" lengthAdjust="spacing" textLength="45" x="1215.3" y="578.3633">column</text><ellipse cx="1206.3" cy="592.6875" fill="#000000" rx="3" ry="3" style="stroke:#000000;stroke-width:1.0;"/><text fill="#000000" font-family="sans-serif" font-size="14" lengthAdjust="spacing" textLength="47" x="1215.3" y="596.9844">content</text><line style="stroke:#181818;stroke-width:0.5;" x1="1196.3" x2="1294.3" y1="604.498" y2="604.498"/></g><!--class ColumnCell--><g id="elem_ColumnCell"><rect codeLine="61" fill="#F1F1F1" height="103.8633" id="ColumnCell" rx="2.5" ry="2.5" style="stroke:#181818;stroke-width:0.5;" width="104" x="1330.3" y="499.0137"/><ellipse cx="1345.3" cy="515.0137" fill="#ADD1B2" rx="11" ry="11" style="stroke:#181818;stroke-width:1.0;"/><path d="M1348.0656,510.8887 Q1348.2219,510.6699 1348.4094,510.5605 Q1348.5969,510.4512 1348.8156,510.4512 Q1349.1906,510.4512 1349.425,510.7168 Q1349.6594,510.9668 1349.6594,511.5762 L1349.6594,513.0293 Q1349.6594,513.6387 1349.425,513.9043 Q1349.1906,514.1699 1348.8156,514.1699 Q1348.4719,514.1699 1348.2688,513.9668 Q1348.0656,513.7793 1347.9563,513.2637 Q1347.9094,512.9043 1347.7219,512.7168 Q1347.3938,512.3418 1346.7844,512.123 Q1346.175,511.9043 1345.55,511.9043 Q1344.7844,511.9043 1344.1438,512.2324 Q1343.5188,512.5605 1343.0188,513.3105 Q1342.5344,514.0605 1342.5344,515.0918 L1342.5344,516.1855 Q1342.5344,517.4199 1343.425,518.248 Q1344.3156,519.0605 1345.9094,519.0605 Q1346.8469,519.0605 1347.5031,518.8105 Q1347.8938,518.6543 1348.3156,518.2168 Q1348.5813,517.9512 1348.7219,517.873 Q1348.8781,517.7949 1349.0813,517.7949 Q1349.4094,517.7949 1349.6594,518.0605 Q1349.925,518.3105 1349.925,518.6543 Q1349.925,518.998 1349.5813,519.4043 Q1349.0813,519.9824 1348.2844,520.3105 Q1347.2063,520.7637 1345.9094,520.7637 Q1344.3938,520.7637 1343.1906,520.1387 Q1342.2063,519.6387 1341.5188,518.5762 Q1340.8313,517.498 1340.8313,516.2168 L1340.8313,515.0605 Q1340.8313,513.7324 1341.4406,512.5918 Q1342.0656,511.4355 1343.1594,510.8262 Q1344.2531,510.2012 1345.4875,510.2012 Q1346.2219,510.2012 1346.8625,510.373 Q1347.5188,510.5293 1348.0656,510.8887 Z " fill="#000000"/><text fill="#000000" font-family="sans-serif" font-size="14" lengthAdjust="spacing" textLength="72" x="1359.3" y="520.8105">ColumnCell</text><line style="stroke:#181818;stroke-width:0.5;" x1="1331.3" x2="1433.3" y1="531.0137" y2="531.0137"/><ellipse cx="1341.3" cy="545.8242" fill="#000000" rx="3" ry="3" style="stroke:#000000;stroke-width:1.0;"/><text fill="#000000" font-family="sans-serif" font-size="14" lengthAdjust="spacing" textLength="11" x="1350.3" y="550.1211">id</text><ellipse cx="1341.3" cy="564.4453" fill="#000000" rx="3" ry="3" style="stroke:#000000;stroke-width:1.0;"/><text fill="#000000" font-family="sans-serif" font-size="14" lengthAdjust="spacing" textLength="76" x="1350.3" y="568.7422">columnTittle</text><ellipse cx="1341.3" cy="583.0664" fill="#000000" rx="3" ry="3" style="stroke:#000000;stroke-width:1.0;"/><text fill="#000000" font-family="sans-serif" font-size="14" lengthAdjust="spacing" textLength="45" x="1350.3" y="587.3633">column</text><line style="stroke:#181818;stroke-width:0.5;" x1="1331.3" x2="1433.3" y1="594.877" y2="594.877"/></g><!--class RowCell--><g id="elem_RowCell"><rect codeLine="67" fill="#F1F1F1" height="103.8633" id="RowCell" rx="2.5" ry="2.5" style="stroke:#181818;stroke-width:0.5;" width="83" x="1469.8" y="499.0137"/><ellipse cx="1484.8" cy="515.0137" fill="#ADD1B2" rx="11" ry="11" style="stroke:#181818;stroke-width:1.0;"/><path d="M1487.5656,510.8887 Q1487.7219,510.6699 1487.9094,510.5605 Q1488.0969,510.4512 1488.3156,510.4512 Q1488.6906,510.4512 1488.925,510.7168 Q1489.1594,510.9668 1489.1594,511.5762 L1489.1594,513.0293 Q1489.1594,513.6387 1488.925,513.9043 Q1488.6906,514.1699 1488.3156,514.1699 Q1487.9719,514.1699 1487.7688,513.9668 Q1487.5656,513.7793 1487.4563,513.2637 Q1487.4094,512.9043 1487.2219,512.7168 Q1486.8938,512.3418 1486.2844,512.123 Q1485.675,511.9043 1485.05,511.9043 Q1484.2844,511.9043 1483.6438,512.2324 Q1483.0188,512.5605 1482.5188,513.3105 Q1482.0344,514.0605 1482.0344,515.0918 L1482.0344,516.1855 Q1482.0344,517.4199 1482.925,518.248 Q1483.8156,519.0605 1485.4094,519.0605 Q1486.3469,519.0605 1487.0031,518.8105 Q1487.3938,518.6543 1487.8156,518.2168 Q1488.0813,517.9512 1488.2219,517.873 Q1488.3781,517.7949 1488.5813,517.7949 Q1488.9094,517.7949 1489.1594,518.0605 Q1489.425,518.3105 1489.425,518.6543 Q1489.425,518.998 1489.0813,519.4043 Q1488.5813,519.9824 1487.7844,520.3105 Q1486.7063,520.7637 1485.4094,520.7637 Q1483.8938,520.7637 1482.6906,520.1387 Q1481.7063,519.6387 1481.0188,518.5762 Q1480.3313,517.498 1480.3313,516.2168 L1480.3313,515.0605 Q1480.3313,513.7324 1480.9406,512.5918 Q1481.5656,511.4355 1482.6594,510.8262 Q1483.7531,510.2012 1484.9875,510.2012 Q1485.7219,510.2012 1486.3625,510.373 Q1487.0188,510.5293 1487.5656,510.8887 Z " fill="#000000"/><text fill="#000000" font-family="sans-serif" font-size="14" lengthAdjust="spacing" textLength="51" x="1498.8" y="520.8105">RowCell</text><line style="stroke:#181818;stroke-width:0.5;" x1="1470.8" x2="1551.8" y1="531.0137" y2="531.0137"/><ellipse cx="1480.8" cy="545.8242" fill="#000000" rx="3" ry="3" style="stroke:#000000;stroke-width:1.0;"/><text fill="#000000" font-family="sans-serif" font-size="14" lengthAdjust="spacing" textLength="11" x="1489.8" y="550.1211">id</text><ellipse cx="1480.8" cy="564.4453" fill="#000000" rx="3" ry="3" style="stroke:#000000;stroke-width:1.0;"/><text fill="#000000" font-family="sans-serif" font-size="14" lengthAdjust="spacing" textLength="53" x="1489.8" y="568.7422">rowTittle</text><ellipse cx="1480.8" cy="583.0664" fill="#000000" rx="3" ry="3" style="stroke:#000000;stroke-width:1.0;"/><text fill="#000000" font-family="sans-serif" font-size="14" lengthAdjust="spacing" textLength="22" x="1489.8" y="587.3633">row</text><line style="stroke:#181818;stroke-width:0.5;" x1="1470.8" x2="1551.8" y1="594.877" y2="594.877"/></g><!--link SystemUser to EmailAdderss--><g id="link_SystemUser_EmailAdderss"><path codeLine="80" d="M178.89,392.6037 C198.06,431.5837 222.99,482.2937 239.31,515.4737 " fill="none" id="SystemUser-to-EmailAdderss" style="stroke:#181818;stroke-width:1.0;"/><polygon fill="#181818" points="241.66,520.2437,241.2883,510.4018,239.4583,515.7545,234.1056,513.9245,241.66,520.2437" style="stroke:#181818;stroke-width:1.0;"/><text fill="#000000" font-family="sans-serif" font-size="13" lengthAdjust="spacing" textLength="7" x="230.9186" y="509.2457">1</text></g><!--link SystemUser to Password--><g id="link_SystemUser_Password"><path codeLine="81" d="M202.54,392.5937 C209.02,398.9937 215.7,405.2637 222.3,411.0137 C267.7,450.5237 284.58,453.3337 332.3,490.0137 C343.42,498.5637 355.26,508.0937 366.09,516.9937 " fill="none" id="SystemUser-to-Password" style="stroke:#181818;stroke-width:1.0;"/><polygon fill="#181818" points="370.03,520.2437,365.6186,511.438,366.1679,517.0681,360.5377,517.6174,370.03,520.2437" style="stroke:#181818;stroke-width:1.0;"/><text fill="#000000" font-family="sans-serif" font-size="13" lengthAdjust="spacing" textLength="7" x="355.0337" y="509.2457">1</text></g><!--link SystemUser to Role--><g id="link_SystemUser_Role"><path codeLine="82" d="M140.79,392.6037 C134.13,428.1437 125.65,473.4237 119.49,506.2937 " fill="none" id="SystemUser-to-Role" style="stroke:#181818;stroke-width:1.0;"/><polygon fill="#181818" points="118.52,511.4537,124.1172,503.3499,119.4457,506.5401,116.2555,501.8687,118.52,511.4537" style="stroke:#181818;stroke-width:1.0;"/><text fill="#000000" font-family="sans-serif" font-size="13" lengthAdjust="spacing" textLength="7" x="112.1594" y="500.2292">1</text></g><!--link eCourseSystemUser to SystemUser--><g id="link_eCourseSystemUser_SystemUser"><path codeLine="84" d="M553.67,111.8137 C448.89,126.5637 273.27,156.3537 222.3,196.0137 C197.3,215.4637 180.31,246.1437 169.24,273.6837 " fill="none" id="eCourseSystemUser-to-SystemUser" style="stroke:#181818;stroke-width:1.0;"/><polygon fill="#181818" points="167.37,278.4337,174.3826,271.5182,169.1974,273.7796,166.936,268.5944,167.37,278.4337" style="stroke:#181818;stroke-width:1.0;"/><text fill="#000000" font-family="sans-serif" font-size="13" lengthAdjust="spacing" textLength="7" x="161.9805" y="267.092">1</text></g><!--link eCourseSystemUser to Role--><g id="link_eCourseSystemUser_Role"><path codeLine="85" d="M553.59,102.9837 C414.69,107.4037 139.64,125.1237 80.3,196.0137 C6,284.7737 57.27,433.5937 89.95,506.7437 " fill="none" id="eCourseSystemUser-to-Role" style="stroke:#181818;stroke-width:1.0;"/><polygon fill="#181818" points="92.07,511.4537,92.0129,501.605,90.0128,506.8965,84.7213,504.8964,92.07,511.4537" style="stroke:#181818;stroke-width:1.0;"/><text fill="#000000" font-family="sans-serif" font-size="13" lengthAdjust="spacing" textLength="7" x="81.1633" y="500.2292">1</text></g><!--link eCourseSystemUser to UserStatus--><g id="link_eCourseSystemUser_UserStatus"><path codeLine="86" d="M553.78,112.2037 C493.79,123.8537 413.12,147.7237 358.3,196.0137 C332.84,218.4437 315.92,252.5837 305.33,281.3537 " fill="none" id="eCourseSystemUser-to-UserStatus" style="stroke:#181818;stroke-width:1.0;"/><polygon fill="#181818" points="303.56,286.2937,310.3758,279.1842,305.2561,281.5901,302.8502,276.4704,303.56,286.2937" style="stroke:#181818;stroke-width:1.0;"/><text fill="#000000" font-family="sans-serif" font-size="13" lengthAdjust="spacing" textLength="7" x="297.9325" y="275.2379">1</text></g><!--link eCourseSystemUser to Acronym--><g id="link_eCourseSystemUser_Acronym"><path codeLine="87" d="M569.25,139.1537 C546.16,154.6937 521.23,174.1937 502.3,196.0137 C475.25,227.2037 454.9,270.3237 442.85,300.1237 " fill="none" id="eCourseSystemUser-to-Acronym" style="stroke:#181818;stroke-width:1.0;"/><polygon fill="#181818" points="440.99,304.7937,448.0464,297.9229,442.847,300.1513,440.6186,294.9518,440.99,304.7937" style="stroke:#181818;stroke-width:1.0;"/><text fill="#000000" font-family="sans-serif" font-size="13" lengthAdjust="spacing" textLength="7" x="435.4729" y="293.806">1</text></g><!--link eCourseSystemUser to NIF--><g id="link_eCourseSystemUser_NIF"><path codeLine="88" d="M624.59,139.2037 C613.15,183.6437 594.3,256.8637 583.21,299.9037 " fill="none" id="eCourseSystemUser-to-NIF" style="stroke:#181818;stroke-width:1.0;"/><polygon fill="#181818" points="581.9,305.0037,588.0117,297.2805,583.1429,300.1606,580.2628,295.2918,581.9,305.0037" style="stroke:#181818;stroke-width:1.0;"/><text fill="#000000" font-family="sans-serif" font-size="13" lengthAdjust="spacing" textLength="7" x="575.7969" y="293.5761">1</text></g><!--link eCourseSystemUser to BirthDate--><g id="link_eCourseSystemUser_BirthDate"><path codeLine="89" d="M647.89,139.2037 C663.94,183.7337 690.41,257.1637 705.92,300.1737 " fill="none" id="eCourseSystemUser-to-BirthDate" style="stroke:#181818;stroke-width:1.0;"/><polygon fill="#181818" points="707.66,305.0037,708.3603,295.1797,705.9593,300.3018,700.8373,297.9008,707.66,305.0037" style="stroke:#181818;stroke-width:1.0;"/><text fill="#000000" font-family="sans-serif" font-size="13" lengthAdjust="spacing" textLength="7" x="697.5669" y="293.5761">1</text></g><!--link eCourseSystemUser to MechanographicNumber--><g id="link_eCourseSystemUser_MechanographicNumber"><path codeLine="90" d="M708.19,139.1637 C735.44,154.8237 765.66,174.4037 790.3,196.0137 C822.76,224.4837 852.94,263.2737 873.61,292.5637 " fill="none" id="eCourseSystemUser-to-MechanographicNumber" style="stroke:#181818;stroke-width:1.0;"/><polygon fill="#181818" points="876.59,296.8137,874.6876,287.1503,873.715,292.7229,868.1424,291.7503,876.59,296.8137" style="stroke:#181818;stroke-width:1.0;"/><text fill="#000000" font-family="sans-serif" font-size="13" lengthAdjust="spacing" textLength="7" x="864.7414" y="285.7938">1</text></g><!--link eCourseSystemUser to Grade--><g id="link_eCourseSystemUser_Grade"><path codeLine="91" d="M714.97,102.9137 C797.76,108.3137 926.28,128.1237 1012.3,196.0137 C1045.62,222.3137 1065.12,268.2737 1075.24,299.9937 " fill="none" id="eCourseSystemUser-to-Grade" style="stroke:#181818;stroke-width:1.0;"/><polygon fill="#181818" points="1076.78,304.9537,1077.9317,295.1724,1075.2976,300.1785,1070.2915,297.5443,1076.78,304.9537" style="stroke:#181818;stroke-width:1.0;"/><polygon fill="#000000" points="1004.6866,181.0588,998.1616,174.1395,995.3407,179.2962,1004.6866,181.0588" style="stroke:#000000;stroke-width:1.0;"/><text fill="#000000" font-family="sans-serif" font-size="13" lengthAdjust="spacing" textLength="79" x="1009.3" y="184.042">student has a</text><text fill="#000000" font-family="sans-serif" font-size="13" lengthAdjust="spacing" textLength="7" x="1067.3694" y="293.5152">1</text></g><!--link eCourseSystemUser to SharedBoard--><g id="link_eCourseSystemUser_SharedBoard"><path codeLine="92" d="M714.88,106.1437 C808.48,113.1437 966.73,130.0137 1097.3,169.0137 C1124.54,177.1537 1131.08,181.1237 1155.3,196.0137 C1184.23,213.7937 1213.9,235.5637 1240.44,256.5237 " fill="none" id="eCourseSystemUser-to-SharedBoard" style="stroke:#181818;stroke-width:1.0;"/><polygon fill="#181818" points="1244.67,259.8837,1240.098,251.1603,1240.7504,256.7794,1235.1312,257.4317,1244.67,259.8837" style="stroke:#181818;stroke-width:1.0;"/><polygon fill="#000000" points="1151.1071,180.0346,1143.2195,174.7209,1141.6025,180.3719,1151.1071,180.0346" style="stroke:#000000;stroke-width:1.0;"/><text fill="#000000" font-family="sans-serif" font-size="13" lengthAdjust="spacing" textLength="30" x="1155.3" y="184.042">owns</text><text fill="#000000" font-family="sans-serif" font-size="13" lengthAdjust="spacing" textLength="5" x="1230.8963" y="248.6434">*</text></g><!--link eCourseSystemUser to SharedBoard--><g id="link_eCourseSystemUser_SharedBoard"><path codeLine="93" d="M715.01,103.9437 C849.72,109.2037 1113.56,124.9437 1194.3,169.0137 C1230.96,189.0237 1261.76,223.1937 1284.81,255.3037 " fill="none" id="eCourseSystemUser-to-SharedBoard-1" style="stroke:#181818;stroke-width:1.0;"/><polygon fill="#181818" points="1287.87,259.6137,1285.9226,249.9593,1284.976,255.5364,1279.3989,254.5897,1287.87,259.6137" style="stroke:#181818;stroke-width:1.0;"/><polygon fill="#000000" points="1218.4676,177.3755,1226.455,182.5381,1227.964,176.8573,1218.4676,177.3755" style="stroke:#000000;stroke-width:1.0;"/><text fill="#000000" font-family="sans-serif" font-size="13" lengthAdjust="spacing" textLength="54" x="1232.3" y="184.042">shared to</text><text fill="#000000" font-family="sans-serif" font-size="13" lengthAdjust="spacing" textLength="5" x="1278.6358" y="248.8735">*</text></g><!--link SharedBoard to RowCell--><g id="link_SharedBoard_RowCell"><path codeLine="97" d="M1394.26,411.1837 C1419.19,440.7637 1447.19,473.9737 1469.54,500.4837 " fill="none" id="SharedBoard-RowCell" style="stroke:#181818;stroke-width:1.0;"/><polygon fill="#000000" points="1439.5227,454.482,1435.9398,445.6722,1431.4458,449.4607,1439.5227,454.482" style="stroke:#000000;stroke-width:1.0;"/><text fill="#000000" font-family="sans-serif" font-size="13" lengthAdjust="spacing" textLength="21" x="1445.3" y="456.042">has</text><text fill="#000000" font-family="sans-serif" font-size="13" lengthAdjust="spacing" textLength="7" x="1392.7415" y="432.9836">1</text><text fill="#000000" font-family="sans-serif" font-size="13" lengthAdjust="spacing" textLength="29" x="1434.573" y="487.6686">1..20</text></g><!--link SharedBoard to ColumnCell--><g id="link_SharedBoard_ColumnCell"><path codeLine="98" d="M1349.14,411.1837 C1356.06,440.1637 1363.81,472.6237 1370.08,498.8637 " fill="none" id="SharedBoard-ColumnCell" style="stroke:#181818;stroke-width:1.0;"/><polygon fill="#000000" points="1365.4615,455.5224,1366.2189,446.0421,1360.5018,447.4074,1365.4615,455.5224" style="stroke:#000000;stroke-width:1.0;"/><text fill="#000000" font-family="sans-serif" font-size="13" lengthAdjust="spacing" textLength="21" x="1373.3" y="456.042">has</text><text fill="#000000" font-family="sans-serif" font-size="13" lengthAdjust="spacing" textLength="7" x="1343.462" y="432.9836">1</text><text fill="#000000" font-family="sans-serif" font-size="13" lengthAdjust="spacing" textLength="29" x="1337.4895" y="487.7709">1..10</text></g><!--link SharedBoard to NormalCell--><g id="link_SharedBoard_NormalCell"><path codeLine="99" d="M1301.22,411.1837 C1290.86,436.9237 1279.39,465.3937 1269.55,489.8237 " fill="none" id="SharedBoard-NormalCell" style="stroke:#181818;stroke-width:1.0;"/><polygon fill="#000000" points="1291.4322,455.2972,1297.5373,448.0048,1292.0849,445.8091,1291.4322,455.2972" style="stroke:#000000;stroke-width:1.0;"/><text fill="#000000" font-family="sans-serif" font-size="13" lengthAdjust="spacing" textLength="21" x="1302.3" y="456.042">has</text><text fill="#000000" font-family="sans-serif" font-size="13" lengthAdjust="spacing" textLength="7" x="1291.1243" y="432.9836">1</text><text fill="#000000" font-family="sans-serif" font-size="13" lengthAdjust="spacing" textLength="20" x="1251.1977" y="478.7829">1..*</text></g><!--link NormalCell to Cell--><g id="link_NormalCell_Cell"><path codeLine="101" d="M1295.54,611.6037 C1308.1,626.5037 1321.54,642.4537 1334.01,657.2337 " fill="none" id="NormalCell-to-Cell" style="stroke:#181818;stroke-width:1.0;"/><polygon fill="none" points="1339.52,652.9137,1347.06,672.7137,1328.82,661.9437,1339.52,652.9137" style="stroke:#181818;stroke-width:1.0;"/></g><!--link ColumnCell to Cell--><g id="link_ColumnCell_Cell"><path codeLine="102" d="M1382.3,603.4337 C1382.3,619.0937 1382.3,636.4837 1382.3,652.7637 " fill="none" id="ColumnCell-to-Cell" style="stroke:#181818;stroke-width:1.0;"/><polygon fill="none" points="1389.3,652.9337,1382.3,672.9337,1375.3,652.9337,1389.3,652.9337" style="stroke:#181818;stroke-width:1.0;"/></g><!--link RowCell to Cell--><g id="link_RowCell_Cell"><path codeLine="103" d="M1470.48,603.4337 C1456.93,620.5037 1441.76,639.6037 1427.88,657.1037 " fill="none" id="RowCell-to-Cell" style="stroke:#181818;stroke-width:1.0;"/><polygon fill="none" points="1433.23,661.6137,1415.31,672.9337,1422.26,652.9137,1433.23,661.6137" style="stroke:#181818;stroke-width:1.0;"/></g><!--SRC=[bLHDRvj04BtpArPS8gN2Rdgq41AsQHkfSIg8A_KuXX7GxeUx7tMjrl-z2mds4cFSxi7MphnvF37lSLDflLMpwNHBWMl3w2GNRAhmXq6UOr3KK4fWdkTj8VyE9H8_MJokqop9lcPFoSCwIrAVX65SbX9Bq1X5vBVd4Njo2agHRAyqihL2QL5I26q1OPXmNUjzYoKlvvQiWA5pRMPuLpgudBWGHYgyIdq-cJ2eQLmKAEqb3By0DKZ4vXlcTjW5feBY9PsPbZKloR2sHawcGPk67xbXlU4t95d5yq-9KrZUPyTAZ-cp_Ta9MLYUdnTrnhaKVCz6CQlxzwFzUIrrjRIx6qKzO5u15zODswhELuPjslVU7x05C5emq7KEbEv9YHobfIxwP1ya54EFExX6opx6QJ9_ZDDbup3eESmnM0KIYxc0zaqTRO13cwiRYE6rDVSLhQUPZR1QNrcJmQzKx5I_iX3KCAxE5xb0Ib_9S2wvuDgAFHzR2Sc0ZWzBiUjHDGh-XVjPwpLX3UQfrfhYy4CE_SJihcez8-lq7zhDstEJ8hKB4LnLzLPvdfFn88Y8V-VtCZpKxt8pr6jYxNddtu-kVogDW5gIo-tJ5s04z9BR4OHDxKZtcDaHp51YH-3FcPmHfKrXJKCgK0H8T6dYrkz5RqR4Zgl_WAlsHhGWORDujzce2GBxDvcyU-iVdJLh9KMNe7SMwlZw2jhgSGBMWJsd5WH_eZQxdiDwAdQgJXLx_W80]--></g></svg>