<?xml version="1.0" encoding="us-ascii" standalone="no"?><svg xmlns="http://www.w3.org/2000/svg" xmlns:xlink="http://www.w3.org/1999/xlink" contentStyleType="text/css" height="1209px" preserveAspectRatio="none" style="width:1371px;height:1209px;background:#FFFFFF;" version="1.1" viewBox="0 0 1371 1209" width="1371px" zoomAndPan="magnify"><defs/><g><rect fill="#FFFFFF" height="979.7305" style="stroke:#181818;stroke-width:1.0;" width="10" x="32.5" y="121.5332"/><rect fill="#FFFFFF" height="406.7832" style="stroke:#181818;stroke-width:1.0;" width="10" x="311.5" y="121.5332"/><rect fill="#FFFFFF" height="120.1641" style="stroke:#181818;stroke-width:1.0;" width="10" x="311.5" y="559.6074"/><rect fill="#FFFFFF" height="123.873" style="stroke:#181818;stroke-width:1.0;" width="10" x="311.5" y="773.6445"/><rect fill="#FFFFFF" height="47.291" style="stroke:#181818;stroke-width:1.0;" width="10" x="311.5" y="1053.9727"/><rect fill="#FFFFFF" height="281.6191" style="stroke:#181818;stroke-width:1.0;" width="10" x="573.5" y="215.4063"/><rect fill="#FFFFFF" height="93.873" style="stroke:#181818;stroke-width:1.0;" width="10" x="573.5" y="679.7715"/><rect fill="#FFFFFF" height="186.4551" style="stroke:#181818;stroke-width:1.0;" width="10" x="573.5" y="867.5176"/><rect fill="#FFFFFF" height="31.291" style="stroke:#181818;stroke-width:1.0;" width="10" x="729.5" y="152.8242"/><rect fill="#FFFFFF" height="31.291" style="stroke:#181818;stroke-width:1.0;" width="10" x="879" y="246.6973"/><rect fill="#FFFFFF" height="31.291" style="stroke:#181818;stroke-width:1.0;" width="10" x="1007" y="309.2793"/><rect fill="#FFFFFF" height="31.291" style="stroke:#181818;stroke-width:1.0;" width="10" x="1089.5" y="991.3906"/><rect fill="#FFFFFF" height="31.291" style="stroke:#181818;stroke-width:1.0;" width="10" x="1177" y="371.8613"/><rect fill="#FFFFFF" height="31.291" style="stroke:#181818;stroke-width:1.0;" width="10" x="1177" y="711.0625"/><rect fill="#FFFFFF" height="31.291" style="stroke:#181818;stroke-width:1.0;" width="10" x="1294.5" y="434.4434"/><rect fill="#FFFFFF" height="31.291" style="stroke:#181818;stroke-width:1.0;" width="10" x="1294.5" y="928.8086"/><rect fill="none" height="518.6563" style="stroke:#000000;stroke-width:1.5;" width="1355.5" x="10" y="574.6074"/><line style="stroke:#181818;stroke-width:0.5;stroke-dasharray:5.0,5.0;" x1="37" x2="37" y1="88.2422" y2="1110.2637"/><line style="stroke:#181818;stroke-width:0.5;stroke-dasharray:5.0,5.0;" x1="316.5" x2="316.5" y1="88.2422" y2="1110.2637"/><line style="stroke:#181818;stroke-width:0.5;stroke-dasharray:5.0,5.0;" x1="578.5" x2="578.5" y1="88.2422" y2="1110.2637"/><line style="stroke:#181818;stroke-width:0.5;stroke-dasharray:5.0,5.0;" x1="734.5" x2="734.5" y1="88.2422" y2="1110.2637"/><line style="stroke:#181818;stroke-width:0.5;stroke-dasharray:5.0,5.0;" x1="883.5" x2="883.5" y1="88.2422" y2="1110.2637"/><line style="stroke:#181818;stroke-width:0.5;stroke-dasharray:5.0,5.0;" x1="1011.5" x2="1011.5" y1="88.2422" y2="1110.2637"/><line style="stroke:#181818;stroke-width:0.5;stroke-dasharray:5.0,5.0;" x1="1094.5" x2="1094.5" y1="88.2422" y2="1110.2637"/><line style="stroke:#181818;stroke-width:0.5;stroke-dasharray:5.0,5.0;" x1="1181.5" x2="1181.5" y1="88.2422" y2="1110.2637"/><line style="stroke:#181818;stroke-width:0.5;stroke-dasharray:5.0,5.0;" x1="1299.5" x2="1299.5" y1="88.2422" y2="1110.2637"/><text fill="#000000" font-family="sans-serif" font-size="14" lengthAdjust="spacing" textLength="29" x="20" y="84.7285">User</text><ellipse cx="37.5" cy="18.1211" fill="#E2E2F0" rx="8" ry="8" style="stroke:#181818;stroke-width:0.5;"/><path d="M37.5,26.1211 L37.5,53.1211 M24.5,34.1211 L50.5,34.1211 M37.5,53.1211 L24.5,68.1211 M37.5,53.1211 L50.5,68.1211 " fill="none" style="stroke:#181818;stroke-width:0.5;"/><text fill="#000000" font-family="sans-serif" font-size="14" lengthAdjust="spacing" textLength="29" x="20" y="1124.3711">User</text><ellipse cx="37.5" cy="1136.3848" fill="#E2E2F0" rx="8" ry="8" style="stroke:#181818;stroke-width:0.5;"/><path d="M37.5,1144.3848 L37.5,1171.3848 M24.5,1152.3848 L50.5,1152.3848 M37.5,1171.3848 L24.5,1186.3848 M37.5,1171.3848 L50.5,1186.3848 " fill="none" style="stroke:#181818;stroke-width:0.5;"/><rect fill="#E2E2F0" height="32.6211" rx="2.5" ry="2.5" style="stroke:#181818;stroke-width:0.5;" width="106" x="263.5" y="54.6211"/><text fill="#000000" font-family="sans-serif" font-size="14" lengthAdjust="spacing" textLength="92" x="270.5" y="76.7285">:ShareBoardUI</text><rect fill="#E2E2F0" height="32.6211" rx="2.5" ry="2.5" style="stroke:#181818;stroke-width:0.5;" width="106" x="263.5" y="1109.2637"/><text fill="#000000" font-family="sans-serif" font-size="14" lengthAdjust="spacing" textLength="92" x="270.5" y="1131.3711">:ShareBoardUI</text><rect fill="#E2E2F0" height="32.6211" rx="2.5" ry="2.5" style="stroke:#181818;stroke-width:0.5;" width="156" x="500.5" y="54.6211"/><text fill="#000000" font-family="sans-serif" font-size="14" lengthAdjust="spacing" textLength="142" x="507.5" y="76.7285">:ShareBoardController</text><rect fill="#E2E2F0" height="32.6211" rx="2.5" ry="2.5" style="stroke:#181818;stroke-width:0.5;" width="156" x="500.5" y="1109.2637"/><text fill="#000000" font-family="sans-serif" font-size="14" lengthAdjust="spacing" textLength="142" x="507.5" y="1131.3711">:ShareBoardController</text><rect fill="#E2E2F0" height="32.6211" rx="2.5" ry="2.5" style="stroke:#181818;stroke-width:0.5;" width="136" x="666.5" y="54.6211"/><text fill="#000000" font-family="sans-serif" font-size="14" lengthAdjust="spacing" textLength="122" x="673.5" y="76.7285">:ShareBoardServer</text><rect fill="#E2E2F0" height="32.6211" rx="2.5" ry="2.5" style="stroke:#181818;stroke-width:0.5;" width="136" x="666.5" y="1109.2637"/><text fill="#000000" font-family="sans-serif" font-size="14" lengthAdjust="spacing" textLength="122" x="673.5" y="1131.3711">:ShareBoardServer</text><rect fill="#E2E2F0" height="32.6211" rx="2.5" ry="2.5" style="stroke:#181818;stroke-width:0.5;" width="143" x="812.5" y="54.6211"/><text fill="#000000" font-family="sans-serif" font-size="14" lengthAdjust="spacing" textLength="129" x="819.5" y="76.7285">AuthorizationService</text><rect fill="#E2E2F0" height="32.6211" rx="2.5" ry="2.5" style="stroke:#181818;stroke-width:0.5;" width="143" x="812.5" y="1109.2637"/><text fill="#000000" font-family="sans-serif" font-size="14" lengthAdjust="spacing" textLength="129" x="819.5" y="1131.3711">AuthorizationService</text><rect fill="#E2E2F0" height="32.6211" rx="2.5" ry="2.5" style="stroke:#181818;stroke-width:0.5;" width="93" x="965.5" y="54.6211"/><text fill="#000000" font-family="sans-serif" font-size="14" lengthAdjust="spacing" textLength="79" x="972.5" y="76.7285">UserSession</text><rect fill="#E2E2F0" height="32.6211" rx="2.5" ry="2.5" style="stroke:#181818;stroke-width:0.5;" width="93" x="965.5" y="1109.2637"/><text fill="#000000" font-family="sans-serif" font-size="14" lengthAdjust="spacing" textLength="79" x="972.5" y="1131.3711">UserSession</text><rect fill="#E2E2F0" height="32.6211" rx="2.5" ry="2.5" style="stroke:#181818;stroke-width:0.5;" width="52" x="1068.5" y="54.6211"/><text fill="#000000" font-family="sans-serif" font-size="14" lengthAdjust="spacing" textLength="38" x="1075.5" y="76.7285">Board</text><rect fill="#E2E2F0" height="32.6211" rx="2.5" ry="2.5" style="stroke:#181818;stroke-width:0.5;" width="52" x="1068.5" y="1109.2637"/><text fill="#000000" font-family="sans-serif" font-size="14" lengthAdjust="spacing" textLength="38" x="1075.5" y="1131.3711">Board</text><text fill="#000000" font-family="sans-serif" font-size="14" font-style="italic" lengthAdjust="spacing" textLength="79" x="1139.5" y="66.1074">&#171;repository&#187;</text><text fill="#000000" font-family="sans-serif" font-size="14" lengthAdjust="spacing" textLength="97" x="1130.5" y="84.7285">UserRepository</text><path d="M1164,15 C1164,5 1182,5 1182,5 C1182,5 1200,5 1200,15 L1200,41 C1200,51 1182,51 1182,51 C1182,51 1164,51 1164,41 L1164,15 " fill="#E2E2F0" style="stroke:#181818;stroke-width:1.5;"/><path d="M1164,15 C1164,25 1182,25 1182,25 C1182,25 1200,25 1200,15 " fill="none" style="stroke:#181818;stroke-width:1.5;"/><text fill="#000000" font-family="sans-serif" font-size="14" font-style="italic" lengthAdjust="spacing" textLength="79" x="1139.5" y="1124.3711">&#171;repository&#187;</text><text fill="#000000" font-family="sans-serif" font-size="14" lengthAdjust="spacing" textLength="97" x="1130.5" y="1142.9922">UserRepository</text><path d="M1164,1156.5059 C1164,1146.5059 1182,1146.5059 1182,1146.5059 C1182,1146.5059 1200,1146.5059 1200,1156.5059 L1200,1182.5059 C1200,1192.5059 1182,1192.5059 1182,1192.5059 C1182,1192.5059 1164,1192.5059 1164,1182.5059 L1164,1156.5059 " fill="#E2E2F0" style="stroke:#181818;stroke-width:1.5;"/><path d="M1164,1156.5059 C1164,1166.5059 1182,1166.5059 1182,1166.5059 C1182,1166.5059 1200,1166.5059 1200,1156.5059 " fill="none" style="stroke:#181818;stroke-width:1.5;"/><text fill="#000000" font-family="sans-serif" font-size="14" font-style="italic" lengthAdjust="spacing" textLength="79" x="1257" y="66.1074">&#171;repository&#187;</text><text fill="#000000" font-family="sans-serif" font-size="14" lengthAdjust="spacing" textLength="106" x="1243.5" y="84.7285">BoardRepository</text><path d="M1281.5,15 C1281.5,5 1299.5,5 1299.5,5 C1299.5,5 1317.5,5 1317.5,15 L1317.5,41 C1317.5,51 1299.5,51 1299.5,51 C1299.5,51 1281.5,51 1281.5,41 L1281.5,15 " fill="#E2E2F0" style="stroke:#181818;stroke-width:1.5;"/><path d="M1281.5,15 C1281.5,25 1299.5,25 1299.5,25 C1299.5,25 1317.5,25 1317.5,15 " fill="none" style="stroke:#181818;stroke-width:1.5;"/><text fill="#000000" font-family="sans-serif" font-size="14" font-style="italic" lengthAdjust="spacing" textLength="79" x="1257" y="1124.3711">&#171;repository&#187;</text><text fill="#000000" font-family="sans-serif" font-size="14" lengthAdjust="spacing" textLength="106" x="1243.5" y="1142.9922">BoardRepository</text><path d="M1281.5,1156.5059 C1281.5,1146.5059 1299.5,1146.5059 1299.5,1146.5059 C1299.5,1146.5059 1317.5,1146.5059 1317.5,1156.5059 L1317.5,1182.5059 C1317.5,1192.5059 1299.5,1192.5059 1299.5,1192.5059 C1299.5,1192.5059 1281.5,1192.5059 1281.5,1182.5059 L1281.5,1156.5059 " fill="#E2E2F0" style="stroke:#181818;stroke-width:1.5;"/><path d="M1281.5,1156.5059 C1281.5,1166.5059 1299.5,1166.5059 1299.5,1166.5059 C1299.5,1166.5059 1317.5,1166.5059 1317.5,1156.5059 " fill="none" style="stroke:#181818;stroke-width:1.5;"/><rect fill="#FFFFFF" height="979.7305" style="stroke:#181818;stroke-width:1.0;" width="10" x="32.5" y="121.5332"/><rect fill="#FFFFFF" height="406.7832" style="stroke:#181818;stroke-width:1.0;" width="10" x="311.5" y="121.5332"/><rect fill="#FFFFFF" height="120.1641" style="stroke:#181818;stroke-width:1.0;" width="10" x="311.5" y="559.6074"/><rect fill="#FFFFFF" height="123.873" style="stroke:#181818;stroke-width:1.0;" width="10" x="311.5" y="773.6445"/><rect fill="#FFFFFF" height="47.291" style="stroke:#181818;stroke-width:1.0;" width="10" x="311.5" y="1053.9727"/><rect fill="#FFFFFF" height="281.6191" style="stroke:#181818;stroke-width:1.0;" width="10" x="573.5" y="215.4063"/><rect fill="#FFFFFF" height="93.873" style="stroke:#181818;stroke-width:1.0;" width="10" x="573.5" y="679.7715"/><rect fill="#FFFFFF" height="186.4551" style="stroke:#181818;stroke-width:1.0;" width="10" x="573.5" y="867.5176"/><rect fill="#FFFFFF" height="31.291" style="stroke:#181818;stroke-width:1.0;" width="10" x="729.5" y="152.8242"/><rect fill="#FFFFFF" height="31.291" style="stroke:#181818;stroke-width:1.0;" width="10" x="879" y="246.6973"/><rect fill="#FFFFFF" height="31.291" style="stroke:#181818;stroke-width:1.0;" width="10" x="1007" y="309.2793"/><rect fill="#FFFFFF" height="31.291" style="stroke:#181818;stroke-width:1.0;" width="10" x="1089.5" y="991.3906"/><rect fill="#FFFFFF" height="31.291" style="stroke:#181818;stroke-width:1.0;" width="10" x="1177" y="371.8613"/><rect fill="#FFFFFF" height="31.291" style="stroke:#181818;stroke-width:1.0;" width="10" x="1177" y="711.0625"/><rect fill="#FFFFFF" height="31.291" style="stroke:#181818;stroke-width:1.0;" width="10" x="1294.5" y="434.4434"/><rect fill="#FFFFFF" height="31.291" style="stroke:#181818;stroke-width:1.0;" width="10" x="1294.5" y="928.8086"/><polygon fill="#181818" points="299.5,117.5332,309.5,121.5332,299.5,125.5332,303.5,121.5332" style="stroke:#181818;stroke-width:1.0;"/><line style="stroke:#181818;stroke-width:1.0;" x1="42.5" x2="305.5" y1="121.5332" y2="121.5332"/><text fill="#000000" font-family="sans-serif" font-size="13" font-weight="bold" lengthAdjust="spacing" textLength="7" x="49.5" y="116.2705">1</text><text fill="#000000" font-family="sans-serif" font-size="13" lengthAdjust="spacing" textLength="179" x="60.5" y="116.2705">Starts asking to Share a Board</text><polygon fill="#181818" points="717.5,148.8242,727.5,152.8242,717.5,156.8242,721.5,152.8242" style="stroke:#181818;stroke-width:1.0;"/><line style="stroke:#181818;stroke-width:1.0;" x1="321.5" x2="723.5" y1="152.8242" y2="152.8242"/><text fill="#000000" font-family="sans-serif" font-size="13" font-weight="bold" lengthAdjust="spacing" textLength="7" x="328.5" y="147.5615">2</text><text fill="#000000" font-family="sans-serif" font-size="13" lengthAdjust="spacing" textLength="74" x="339.5" y="147.5615">shareBoard()</text><polygon fill="#181818" points="332.5,180.1152,322.5,184.1152,332.5,188.1152,328.5,184.1152" style="stroke:#181818;stroke-width:1.0;"/><line style="stroke:#181818;stroke-width:1.0;stroke-dasharray:2.0,2.0;" x1="326.5" x2="733.5" y1="184.1152" y2="184.1152"/><text fill="#000000" font-family="sans-serif" font-size="13" font-weight="bold" lengthAdjust="spacing" textLength="7" x="338.5" y="178.8525">3</text><text fill="#000000" font-family="sans-serif" font-size="13" lengthAdjust="spacing" textLength="123" x="349.5" y="178.8525">ShareBoardController</text><polygon fill="#181818" points="561.5,211.4063,571.5,215.4063,561.5,219.4063,565.5,215.4063" style="stroke:#181818;stroke-width:1.0;"/><line style="stroke:#181818;stroke-width:1.0;" x1="321.5" x2="567.5" y1="215.4063" y2="215.4063"/><text fill="#000000" font-family="sans-serif" font-size="13" font-weight="bold" lengthAdjust="spacing" textLength="7" x="328.5" y="210.1436">4</text><text fill="#000000" font-family="sans-serif" font-size="13" lengthAdjust="spacing" textLength="107" x="339.5" y="210.1436">getOwnedBoards()</text><polygon fill="#181818" points="867,242.6973,877,246.6973,867,250.6973,871,246.6973" style="stroke:#181818;stroke-width:1.0;"/><line style="stroke:#181818;stroke-width:1.0;" x1="583.5" x2="873" y1="246.6973" y2="246.6973"/><text fill="#000000" font-family="sans-serif" font-size="13" font-weight="bold" lengthAdjust="spacing" textLength="7" x="590.5" y="241.4346">5</text><text fill="#000000" font-family="sans-serif" font-size="13" lengthAdjust="spacing" textLength="53" x="601.5" y="241.4346">session()</text><polygon fill="#181818" points="594.5,273.9883,584.5,277.9883,594.5,281.9883,590.5,277.9883" style="stroke:#181818;stroke-width:1.0;"/><line style="stroke:#181818;stroke-width:1.0;stroke-dasharray:2.0,2.0;" x1="588.5" x2="883" y1="277.9883" y2="277.9883"/><text fill="#000000" font-family="sans-serif" font-size="13" font-weight="bold" lengthAdjust="spacing" textLength="7" x="600.5" y="272.7256">6</text><text fill="#000000" font-family="sans-serif" font-size="13" lengthAdjust="spacing" textLength="45" x="611.5" y="272.7256">session</text><polygon fill="#181818" points="995,305.2793,1005,309.2793,995,313.2793,999,309.2793" style="stroke:#181818;stroke-width:1.0;"/><line style="stroke:#181818;stroke-width:1.0;" x1="583.5" x2="1001" y1="309.2793" y2="309.2793"/><text fill="#000000" font-family="sans-serif" font-size="13" font-weight="bold" lengthAdjust="spacing" textLength="7" x="590.5" y="304.0166">7</text><text fill="#000000" font-family="sans-serif" font-size="13" lengthAdjust="spacing" textLength="113" x="601.5" y="304.0166">authenticatedUser()</text><polygon fill="#181818" points="594.5,336.5703,584.5,340.5703,594.5,344.5703,590.5,340.5703" style="stroke:#181818;stroke-width:1.0;"/><line style="stroke:#181818;stroke-width:1.0;stroke-dasharray:2.0,2.0;" x1="588.5" x2="1011" y1="340.5703" y2="340.5703"/><text fill="#000000" font-family="sans-serif" font-size="13" font-weight="bold" lengthAdjust="spacing" textLength="7" x="600.5" y="335.3076">8</text><text fill="#000000" font-family="sans-serif" font-size="13" lengthAdjust="spacing" textLength="25" x="611.5" y="335.3076">user</text><polygon fill="#181818" points="1165,367.8613,1175,371.8613,1165,375.8613,1169,371.8613" style="stroke:#181818;stroke-width:1.0;"/><line style="stroke:#181818;stroke-width:1.0;" x1="583.5" x2="1171" y1="371.8613" y2="371.8613"/><text fill="#000000" font-family="sans-serif" font-size="13" font-weight="bold" lengthAdjust="spacing" textLength="7" x="590.5" y="366.5986">9</text><text fill="#000000" font-family="sans-serif" font-size="13" lengthAdjust="spacing" textLength="134" x="601.5" y="366.5986">searchUser(user.email)</text><polygon fill="#181818" points="594.5,399.1523,584.5,403.1523,594.5,407.1523,590.5,403.1523" style="stroke:#181818;stroke-width:1.0;"/><line style="stroke:#181818;stroke-width:1.0;stroke-dasharray:2.0,2.0;" x1="588.5" x2="1181" y1="403.1523" y2="403.1523"/><text fill="#000000" font-family="sans-serif" font-size="13" font-weight="bold" lengthAdjust="spacing" textLength="14" x="600.5" y="397.8896">10</text><text fill="#000000" font-family="sans-serif" font-size="13" lengthAdjust="spacing" textLength="32" x="618.5" y="397.8896">euser</text><polygon fill="#181818" points="1282.5,430.4434,1292.5,434.4434,1282.5,438.4434,1286.5,434.4434" style="stroke:#181818;stroke-width:1.0;"/><line style="stroke:#181818;stroke-width:1.0;" x1="583.5" x2="1288.5" y1="434.4434" y2="434.4434"/><text fill="#000000" font-family="sans-serif" font-size="13" font-weight="bold" lengthAdjust="spacing" textLength="14" x="590.5" y="429.1807">11</text><text fill="#000000" font-family="sans-serif" font-size="13" lengthAdjust="spacing" textLength="233" x="608.5" y="429.1807">List&lt;Board&gt; boards=getallOwned(euser)</text><polygon fill="#181818" points="594.5,461.7344,584.5,465.7344,594.5,469.7344,590.5,465.7344" style="stroke:#181818;stroke-width:1.0;"/><line style="stroke:#181818;stroke-width:1.0;stroke-dasharray:2.0,2.0;" x1="588.5" x2="1298.5" y1="465.7344" y2="465.7344"/><text fill="#000000" font-family="sans-serif" font-size="13" font-weight="bold" lengthAdjust="spacing" textLength="14" x="600.5" y="460.4717">12</text><text fill="#000000" font-family="sans-serif" font-size="13" lengthAdjust="spacing" textLength="39" x="618.5" y="460.4717">boards</text><polygon fill="#181818" points="332.5,493.0254,322.5,497.0254,332.5,501.0254,328.5,497.0254" style="stroke:#181818;stroke-width:1.0;"/><line style="stroke:#181818;stroke-width:1.0;stroke-dasharray:2.0,2.0;" x1="326.5" x2="577.5" y1="497.0254" y2="497.0254"/><text fill="#000000" font-family="sans-serif" font-size="13" font-weight="bold" lengthAdjust="spacing" textLength="14" x="338.5" y="491.7627">13</text><text fill="#000000" font-family="sans-serif" font-size="13" lengthAdjust="spacing" textLength="166" x="356.5" y="491.7627">List&lt;BoardDTO&gt; boardsDTO</text><polygon fill="#181818" points="53.5,524.3164,43.5,528.3164,53.5,532.3164,49.5,528.3164" style="stroke:#181818;stroke-width:1.0;"/><line style="stroke:#181818;stroke-width:1.0;stroke-dasharray:2.0,2.0;" x1="47.5" x2="315.5" y1="528.3164" y2="528.3164"/><text fill="#000000" font-family="sans-serif" font-size="13" font-weight="bold" lengthAdjust="spacing" textLength="14" x="59.5" y="523.0537">14</text><text fill="#000000" font-family="sans-serif" font-size="13" lengthAdjust="spacing" textLength="227" x="77.5" y="523.0537">Shows Boards and asks to choose one</text><polygon fill="#181818" points="299.5,555.6074,309.5,559.6074,299.5,563.6074,303.5,559.6074" style="stroke:#181818;stroke-width:1.0;"/><line style="stroke:#181818;stroke-width:1.0;" x1="42.5" x2="305.5" y1="559.6074" y2="559.6074"/><text fill="#000000" font-family="sans-serif" font-size="13" font-weight="bold" lengthAdjust="spacing" textLength="14" x="49.5" y="554.3447">15</text><text fill="#000000" font-family="sans-serif" font-size="13" lengthAdjust="spacing" textLength="93" x="67.5" y="554.3447">Selects a Board</text><path d="M10,574.6074 L83,574.6074 L83,583.8984 L73,593.8984 L10,593.8984 L10,574.6074 " fill="#EEEEEE" style="stroke:#000000;stroke-width:1.5;"/><rect fill="none" height="518.6563" style="stroke:#000000;stroke-width:1.5;" width="1355.5" x="10" y="574.6074"/><text fill="#000000" font-family="sans-serif" font-size="13" font-weight="bold" lengthAdjust="spacing" textLength="28" x="25" y="589.6357">loop</text><text fill="#000000" font-family="sans-serif" font-size="11" font-weight="bold" lengthAdjust="spacing" textLength="130" x="98" y="588.4775">[while it isn't cancelled]</text><polygon fill="#181818" points="53.5,613.1895,43.5,617.1895,53.5,621.1895,49.5,617.1895" style="stroke:#181818;stroke-width:1.0;"/><line style="stroke:#181818;stroke-width:1.0;stroke-dasharray:2.0,2.0;" x1="47.5" x2="310.5" y1="617.1895" y2="617.1895"/><text fill="#000000" font-family="sans-serif" font-size="13" font-weight="bold" lengthAdjust="spacing" textLength="14" x="59.5" y="611.9268">16</text><text fill="#000000" font-family="sans-serif" font-size="13" lengthAdjust="spacing" textLength="74" x="77.5" y="611.9268">ask for email</text><polygon fill="#181818" points="299.5,644.4805,309.5,648.4805,299.5,652.4805,303.5,648.4805" style="stroke:#181818;stroke-width:1.0;"/><line style="stroke:#181818;stroke-width:1.0;" x1="42.5" x2="305.5" y1="648.4805" y2="648.4805"/><text fill="#000000" font-family="sans-serif" font-size="13" font-weight="bold" lengthAdjust="spacing" textLength="14" x="49.5" y="643.2178">17</text><text fill="#000000" font-family="sans-serif" font-size="13" lengthAdjust="spacing" textLength="71" x="67.5" y="643.2178">enters email</text><polygon fill="#181818" points="561.5,675.7715,571.5,679.7715,561.5,683.7715,565.5,679.7715" style="stroke:#181818;stroke-width:1.0;"/><line style="stroke:#181818;stroke-width:1.0;" x1="316.5" x2="567.5" y1="679.7715" y2="679.7715"/><text fill="#000000" font-family="sans-serif" font-size="13" font-weight="bold" lengthAdjust="spacing" textLength="14" x="323.5" y="674.5088">18</text><text fill="#000000" font-family="sans-serif" font-size="13" lengthAdjust="spacing" textLength="119" x="341.5" y="674.5088">ValidateEmail(email)</text><polygon fill="#181818" points="1165,707.0625,1175,711.0625,1165,715.0625,1169,711.0625" style="stroke:#181818;stroke-width:1.0;"/><line style="stroke:#181818;stroke-width:1.0;" x1="583.5" x2="1171" y1="711.0625" y2="711.0625"/><text fill="#000000" font-family="sans-serif" font-size="13" font-weight="bold" lengthAdjust="spacing" textLength="14" x="590.5" y="705.7998">19</text><text fill="#000000" font-family="sans-serif" font-size="13" lengthAdjust="spacing" textLength="105" x="608.5" y="705.7998">searchUser(email)</text><polygon fill="#181818" points="594.5,738.3535,584.5,742.3535,594.5,746.3535,590.5,742.3535" style="stroke:#181818;stroke-width:1.0;"/><line style="stroke:#181818;stroke-width:1.0;stroke-dasharray:2.0,2.0;" x1="588.5" x2="1181" y1="742.3535" y2="742.3535"/><text fill="#000000" font-family="sans-serif" font-size="13" font-weight="bold" lengthAdjust="spacing" textLength="14" x="600.5" y="737.0908">20</text><text fill="#000000" font-family="sans-serif" font-size="13" lengthAdjust="spacing" textLength="25" x="618.5" y="737.0908">user</text><polygon fill="#181818" points="332.5,769.6445,322.5,773.6445,332.5,777.6445,328.5,773.6445" style="stroke:#181818;stroke-width:1.0;"/><line style="stroke:#181818;stroke-width:1.0;stroke-dasharray:2.0,2.0;" x1="326.5" x2="577.5" y1="773.6445" y2="773.6445"/><text fill="#000000" font-family="sans-serif" font-size="13" font-weight="bold" lengthAdjust="spacing" textLength="14" x="338.5" y="768.3818">21</text><text fill="#000000" font-family="sans-serif" font-size="13" lengthAdjust="spacing" textLength="45" x="356.5" y="768.3818">boolean</text><polygon fill="#181818" points="53.5,800.9355,43.5,804.9355,53.5,808.9355,49.5,804.9355" style="stroke:#181818;stroke-width:1.0;"/><line style="stroke:#181818;stroke-width:1.0;stroke-dasharray:2.0,2.0;" x1="47.5" x2="310.5" y1="804.9355" y2="804.9355"/><text fill="#000000" font-family="sans-serif" font-size="13" font-weight="bold" lengthAdjust="spacing" textLength="14" x="59.5" y="799.6729">22</text><text fill="#000000" font-family="sans-serif" font-size="13" lengthAdjust="spacing" textLength="225" x="77.5" y="799.6729">validates email and shows permissions</text><polygon fill="#181818" points="299.5,832.2266,309.5,836.2266,299.5,840.2266,303.5,836.2266" style="stroke:#181818;stroke-width:1.0;"/><line style="stroke:#181818;stroke-width:1.0;" x1="42.5" x2="305.5" y1="836.2266" y2="836.2266"/><text fill="#000000" font-family="sans-serif" font-size="13" font-weight="bold" lengthAdjust="spacing" textLength="14" x="49.5" y="830.9639">23</text><text fill="#000000" font-family="sans-serif" font-size="13" lengthAdjust="spacing" textLength="116" x="67.5" y="830.9639">selects permissions</text><polygon fill="#181818" points="561.5,863.5176,571.5,867.5176,561.5,871.5176,565.5,867.5176" style="stroke:#181818;stroke-width:1.0;"/><line style="stroke:#181818;stroke-width:1.0;" x1="321.5" x2="567.5" y1="867.5176" y2="867.5176"/><text fill="#000000" font-family="sans-serif" font-size="13" font-weight="bold" lengthAdjust="spacing" textLength="14" x="328.5" y="862.2549">24</text><text fill="#000000" font-family="sans-serif" font-size="13" lengthAdjust="spacing" textLength="215" x="346.5" y="862.2549">share_Board(id,boardId, permissions)</text><polygon fill="#181818" points="1282.5,924.8086,1292.5,928.8086,1282.5,932.8086,1286.5,928.8086" style="stroke:#181818;stroke-width:1.0;"/><line style="stroke:#181818;stroke-width:1.0;" x1="583.5" x2="1288.5" y1="928.8086" y2="928.8086"/><text fill="#000000" font-family="sans-serif" font-size="13" font-weight="bold" lengthAdjust="spacing" textLength="14" x="590.5" y="923.5459">25</text><text fill="#000000" font-family="sans-serif" font-size="13" lengthAdjust="spacing" textLength="118" x="608.5" y="923.5459">findByCode(boardID)</text><polygon fill="#181818" points="594.5,956.0996,584.5,960.0996,594.5,964.0996,590.5,960.0996" style="stroke:#181818;stroke-width:1.0;"/><line style="stroke:#181818;stroke-width:1.0;stroke-dasharray:2.0,2.0;" x1="588.5" x2="1298.5" y1="960.0996" y2="960.0996"/><text fill="#000000" font-family="sans-serif" font-size="13" font-weight="bold" lengthAdjust="spacing" textLength="14" x="600.5" y="954.8369">26</text><text fill="#000000" font-family="sans-serif" font-size="13" lengthAdjust="spacing" textLength="32" x="618.5" y="954.8369">board</text><polygon fill="#181818" points="1077.5,987.3906,1087.5,991.3906,1077.5,995.3906,1081.5,991.3906" style="stroke:#181818;stroke-width:1.0;"/><line style="stroke:#181818;stroke-width:1.0;" x1="583.5" x2="1083.5" y1="991.3906" y2="991.3906"/><text fill="#000000" font-family="sans-serif" font-size="13" font-weight="bold" lengthAdjust="spacing" textLength="14" x="590.5" y="986.1279">27</text><text fill="#000000" font-family="sans-serif" font-size="13" lengthAdjust="spacing" textLength="184" x="608.5" y="986.1279">share_Board(user, permissions)</text><polygon fill="#181818" points="594.5,1018.6816,584.5,1022.6816,594.5,1026.6816,590.5,1022.6816" style="stroke:#181818;stroke-width:1.0;"/><line style="stroke:#181818;stroke-width:1.0;stroke-dasharray:2.0,2.0;" x1="588.5" x2="1093.5" y1="1022.6816" y2="1022.6816"/><text fill="#000000" font-family="sans-serif" font-size="13" font-weight="bold" lengthAdjust="spacing" textLength="14" x="600.5" y="1017.4189">28</text><text fill="#000000" font-family="sans-serif" font-size="13" lengthAdjust="spacing" textLength="36" x="618.5" y="1017.4189">status</text><polygon fill="#181818" points="332.5,1049.9727,322.5,1053.9727,332.5,1057.9727,328.5,1053.9727" style="stroke:#181818;stroke-width:1.0;"/><line style="stroke:#181818;stroke-width:1.0;stroke-dasharray:2.0,2.0;" x1="326.5" x2="577.5" y1="1053.9727" y2="1053.9727"/><text fill="#000000" font-family="sans-serif" font-size="13" font-weight="bold" lengthAdjust="spacing" textLength="14" x="338.5" y="1048.71">29</text><text fill="#000000" font-family="sans-serif" font-size="13" lengthAdjust="spacing" textLength="36" x="356.5" y="1048.71">status</text><polygon fill="#181818" points="53.5,1081.2637,43.5,1085.2637,53.5,1089.2637,49.5,1085.2637" style="stroke:#181818;stroke-width:1.0;"/><line style="stroke:#181818;stroke-width:1.0;stroke-dasharray:2.0,2.0;" x1="47.5" x2="310.5" y1="1085.2637" y2="1085.2637"/><text fill="#000000" font-family="sans-serif" font-size="13" font-weight="bold" lengthAdjust="spacing" textLength="14" x="59.5" y="1080.001">30</text><text fill="#000000" font-family="sans-serif" font-size="13" lengthAdjust="spacing" textLength="77" x="77.5" y="1080.001">shows status</text><!--SRC=[TLJBRjim4BppAnQvn0MYv2wu0kouG0qKC235FVHIqD8c8YgJAaavIB- -owLYKtuS95lIxEnoPiZxrllUvKzFVIUr7_RTOstsJmx_3gXhp1ebtwpS2o47R_Imtw4LOb5xOs7hq89qiArA8NfflQfLJnnmbrUjjBWqqZRRzHrZrZSHpqPxQxeEBIFfyIQqGdiOOTMoci8MWs-DLV-aLqO7eAgHaOljo_TVKsoOl4Bd21cdgyx8k1j_McuMef5UxgJ3M5XYRvmY0JvYRLd2V6wFBuj2d0gOvrJ0XENg0ayAGbQGI913vMaGHyW_Ih-1Dy3B1ncvXAozEaYFhFhfOIsswwmWKOZ17VMQVJb1Wc1qPLaHsrpHNpGuWGVAu0V1tz1ltZKsNE5Itk2Ne5jMiD2XVrIMG714HHFY3sIHzeWKa3IEIC5zWoPLbGDbhqLDzX2W2HvCk8DxuNRY7GWo8MK83qbsvGwbhLlc2SX7t4lLJHZBKeGR4J8VNX8I8gwQ_9pFoyJE77uev-UiL04x5kmhwIUxZYMSCLkY8348GRVOZGICDQaR30djWdjfWzNBvhC7_KrBs1Toa3KisN7pxcAAA5ww2H5p8M1rQmnbrMXCwqEagl8pBTXX7L9vaSArw8pfuRrL7OBoe9o-zr1BEZieKasS80v0_U2LpWsMEo4dPz6wyJM7BihmKtQATX9-2nzceqdJ2Q-aa9oP-W6ftoFBnCUZqJ0cvvhFuwmxOpgK-bpeTAPqoOTn2UFgM7R7FlHezuhJxn8ftAXp-ZLHX7VsxxYrLVF0lg-RXnH-jZEdSjr8BEIlIZVBZsVJu2oIhixoUH7Fg-aiwBGy6pC8Ucl0SBRITIHsNlfXcdj29EfV0ix5JxIFEeybICA7eFu7]--></g></svg>